<?xml version="1.0" encoding="utf-8"?>
<COLLADA xmlns="http://www.collada.org/2005/11/COLLADASchema" version="1.4.1">
  <asset><contributor><author></author><authoring_tool>FBX COLLADA exporter</authoring_tool><comments></comments></contributor><created>2025-11-22T15:01:16Z</created><keywords></keywords><modified>2025-11-22T15:01:16Z</modified><revision></revision><subject></subject><title></title><unit meter="0.010000" name="centimeter"></unit><up_axis>Y_UP</up_axis></asset>
  <library_animations>
    <animation id="Armature-anim" name="Armature"><animation><source id="Armature-Matrix-animation-input"><float_array id="Armature-Matrix-animation-input-array" count="30">

0.033333 0.066667 0.100000 0.133333 0.166667 0.200000 0.233333 0.266667 0.300000 0.333333 0.366667 0.400000 0.433333 0.466667 0.500000 0.533333
0.566667 0.600000 0.633333 0.666667 0.700000 0.733333 0.766667 0.800000 0.833333 0.866667 0.900000 0.933333 0.966667 1.000000</float_array><technique_common><accessor source="#Armature-Matrix-animation-input-array" count="30"><param name="TIME" type="float"/></accessor></technique_common></source><source id="Armature-Matrix-animation-output-transform"><float_array id="Armature-Matrix-animation-output-transform-array" count="480">

1.000000 0.000000 0.000000 0.000000 0.000000 1.000000 -0.000000 0.000000 0.000000 0.000000 1.000000 0.000000 0.000000 0.000000 0.000000 1.000000
1.000000 0.000000 0.000000 0.000000 0.000000 1.000000 -0.000000 0.000000 0.000000 0.000000 1.000000 0.000000 0.000000 0.000000 0.000000 1.000000
1.000000 0.000000 0.000000 0.000000 0.000000 1.000000 -0.000000 0.000000 0.000000 0.000000 1.000000 0.000000 0.000000 0.000000 0.000000 1.000000
1.000000 0.000000 0.000000 0.000000 0.000000 1.000000 -0.000000 0.000000 0.000000 0.000000 1.000000 0.000000 0.000000 0.000000 0.000000 1.000000
1.000000 0.000000 0.000000 0.000000 0.000000 1.000000 -0.000000 0.000000 0.000000 0.000000 1.000000 0.000000 0.000000 0.000000 0.000000 1.000000
1.000000 0.000000 0.000000 0.000000 0.000000 1.000000 -0.000000 0.000000 0.000000 0.000000 1.000000 0.000000 0.000000 0.000000 0.000000 1.000000
1.000000 0.000000 0.000000 0.000000 0.000000 1.000000 -0.000000 0.000000 0.000000 0.000000 1.000000 0.000000 0.000000 0.000000 0.000000 1.000000
1.000000 0.000000 0.000000 0.000000 0.000000 1.000000 -0.000000 0.000000 0.000000 0.000000 1.000000 0.000000 0.000000 0.000000 0.000000 1.000000
1.000000 0.000000 0.000000 0.000000 0.000000 1.000000 -0.000000 0.000000 0.000000 0.000000 1.000000 0.000000 0.000000 0.000000 0.000000 1.000000
1.000000 0.000000 0.000000 0.000000 0.000000 1.000000 -0.000000 0.000000 0.000000 0.000000 1.000000 0.000000 0.000000 0.000000 0.000000 1.000000
1.000000 0.000000 0.000000 0.000000 0.000000 1.000000 -0.000000 0.000000 0.000000 0.000000 1.000000 0.000000 0.000000 0.000000 0.000000 1.000000
1.000000 0.000000 0.000000 0.000000 0.000000 1.000000 -0.000000 0.000000 0.000000 0.000000 1.000000 0.000000 0.000000 0.000000 0.000000 1.000000
1.000000 0.000000 0.000000 0.000000 0.000000 1.000000 -0.000000 0.000000 0.000000 0.000000 1.000000 0.000000 0.000000 0.000000 0.000000 1.000000
1.000000 0.000000 0.000000 0.000000 0.000000 1.000000 -0.000000 0.000000 0.000000 0.000000 1.000000 0.000000 0.000000 0.000000 0.000000 1.000000
1.000000 0.000000 0.000000 0.000000 0.000000 1.000000 -0.000000 0.000000 0.000000 0.000000 1.000000 0.000000 0.000000 0.000000 0.000000 1.000000
1.000000 0.000000 0.000000 0.000000 0.000000 1.000000 -0.000000 0.000000 0.000000 0.000000 1.000000 0.000000 0.000000 0.000000 0.000000 1.000000
1.000000 0.000000 0.000000 0.000000 0.000000 1.000000 -0.000000 0.000000 0.000000 0.000000 1.000000 0.000000 0.000000 0.000000 0.000000 1.000000
1.000000 0.000000 0.000000 0.000000 0.000000 1.000000 -0.000000 0.000000 0.000000 0.000000 1.000000 0.000000 0.000000 0.000000 0.000000 1.000000
1.000000 0.000000 0.000000 0.000000 0.000000 1.000000 -0.000000 0.000000 0.000000 0.000000 1.000000 0.000000 0.000000 0.000000 0.000000 1.000000
1.000000 0.000000 0.000000 0.000000 0.000000 1.000000 -0.000000 0.000000 0.000000 0.000000 1.000000 0.000000 0.000000 0.000000 0.000000 1.000000
1.000000 0.000000 0.000000 0.000000 0.000000 1.000000 -0.000000 0.000000 0.000000 0.000000 1.000000 0.000000 0.000000 0.000000 0.000000 1.000000
1.000000 0.000000 0.000000 0.000000 0.000000 1.000000 -0.000000 0.000000 0.000000 0.000000 1.000000 0.000000 0.000000 0.000000 0.000000 1.000000
1.000000 0.000000 0.000000 0.000000 0.000000 1.000000 -0.000000 0.000000 0.000000 0.000000 1.000000 0.000000 0.000000 0.000000 0.000000 1.000000
1.000000 0.000000 0.000000 0.000000 0.000000 1.000000 -0.000000 0.000000 0.000000 0.000000 1.000000 0.000000 0.000000 0.000000 0.000000 1.000000
1.000000 0.000000 0.000000 0.000000 0.000000 1.000000 -0.000000 0.000000 0.000000 0.000000 1.000000 0.000000 0.000000 0.000000 0.000000 1.000000
1.000000 0.000000 0.000000 0.000000 0.000000 1.000000 -0.000000 0.000000 0.000000 0.000000 1.000000 0.000000 0.000000 0.000000 0.000000 1.000000
1.000000 0.000000 0.000000 0.000000 0.000000 1.000000 -0.000000 0.000000 0.000000 0.000000 1.000000 0.000000 0.000000 0.000000 0.000000 1.000000
1.000000 0.000000 0.000000 0.000000 0.000000 1.000000 -0.000000 0.000000 0.000000 0.000000 1.000000 0.000000 0.000000 0.000000 0.000000 1.000000
1.000000 0.000000 0.000000 0.000000 0.000000 1.000000 -0.000000 0.000000 0.000000 0.000000 1.000000 0.000000 0.000000 0.000000 0.000000 1.000000
1.000000 0.000000 0.000000 0.000000 0.000000 1.000000 -0.000000 0.000000 0.000000 0.000000 1.000000 0.000000 0.000000 0.000000 0.000000 1.000000</float_array><technique_common><accessor source="#Armature-Matrix-animation-output-transform-array" count="30" stride="16"><param type="float4x4"/></accessor></technique_common></source><source id="Armature-Interpolations"><Name_array id="Armature-Interpolations-array" count="30">
 LINEAR LINEAR LINEAR LINEAR LINEAR LINEAR LINEAR LINEAR LINEAR LINEAR LINEAR
LINEAR LINEAR LINEAR LINEAR LINEAR LINEAR LINEAR LINEAR LINEAR LINEAR LINEAR LINEAR
LINEAR LINEAR LINEAR LINEAR LINEAR LINEAR LINEAR</Name_array><technique_common><accessor source="#Armature-Interpolations-array" count="30"><param type="name"/></accessor></technique_common></source><sampler id="Armature-Matrix-animation-transform"><input semantic="INPUT" source="#Armature-Matrix-animation-input"/><input semantic="OUTPUT" source="#Armature-Matrix-animation-output-transform"/><input semantic="INTERPOLATION" source="#Armature-Interpolations"/></sampler><channel source="#Armature-Matrix-animation-transform" target="Armature/matrix"/></animation></animation>
    <animation id="jnt_right_weapon-anim" name="jnt_right_weapon"><animation><source id="jnt_right_weapon-Matrix-animation-input"><float_array id="jnt_right_weapon-Matrix-animation-input-array" count="30">

0.033333 0.066667 0.100000 0.133333 0.166667 0.200000 0.233333 0.266667 0.300000 0.333333 0.366667 0.400000 0.433333 0.466667 0.500000 0.533333
0.566667 0.600000 0.633333 0.666667 0.700000 0.733333 0.766667 0.800000 0.833333 0.866667 0.900000 0.933333 0.966667 1.000000</float_array><technique_common><accessor source="#jnt_right_weapon-Matrix-animation-input-array" count="30"><param name="TIME" type="float"/></accessor></technique_common></source><source id="jnt_right_weapon-Matrix-animation-output-transform"><float_array id="jnt_right_weapon-Matrix-animation-output-transform-array" count="480">

1.000000 0.000000 0.000000 0.000000 0.000000 1.000000 0.000000 0.000000 0.000000 -0.000000 1.000000 0.000000 0.000000 0.000000 0.000000 1.000000
1.000000 0.000000 0.000000 0.000000 0.000000 1.000000 0.000000 0.000000 0.000000 -0.000000 1.000000 0.000000 0.000000 0.000000 0.000000 1.000000
1.000000 0.000000 0.000000 0.000000 0.000000 1.000000 0.000000 0.000000 0.000000 -0.000000 1.000000 0.000000 0.000000 0.000000 0.000000 1.000000
1.000000 0.000000 0.000000 0.000000 0.000000 1.000000 0.000000 0.000000 0.000000 -0.000000 1.000000 0.000000 0.000000 0.000000 0.000000 1.000000
1.000000 0.000000 0.000000 0.000000 0.000000 1.000000 0.000000 0.000000 0.000000 -0.000000 1.000000 0.000000 0.000000 0.000000 0.000000 1.000000
1.000000 0.000000 0.000000 0.000000 0.000000 1.000000 0.000000 0.000000 0.000000 -0.000000 1.000000 0.000000 0.000000 0.000000 0.000000 1.000000
1.000000 0.000000 0.000000 0.000000 0.000000 1.000000 0.000000 0.000000 0.000000 -0.000000 1.000000 0.000000 0.000000 0.000000 0.000000 1.000000
1.000000 0.000000 0.000000 0.000000 0.000000 1.000000 0.000000 0.000000 0.000000 -0.000000 1.000000 0.000000 0.000000 0.000000 0.000000 1.000000
1.000000 0.000000 0.000000 0.000000 0.000000 1.000000 0.000000 0.000000 0.000000 -0.000000 1.000000 0.000000 0.000000 0.000000 0.000000 1.000000
1.000000 0.000000 0.000000 0.000000 0.000000 1.000000 0.000000 0.000000 0.000000 -0.000000 1.000000 0.000000 0.000000 0.000000 0.000000 1.000000
1.000000 0.000000 0.000000 0.000000 0.000000 1.000000 0.000000 0.000000 0.000000 -0.000000 1.000000 0.000000 0.000000 0.000000 0.000000 1.000000
1.000000 0.000000 0.000000 0.000000 0.000000 1.000000 0.000000 0.000000 0.000000 -0.000000 1.000000 0.000000 0.000000 0.000000 0.000000 1.000000
1.000000 0.000000 0.000000 0.000000 0.000000 1.000000 0.000000 0.000000 0.000000 -0.000000 1.000000 0.000000 0.000000 0.000000 0.000000 1.000000
1.000000 0.000000 0.000000 0.000000 0.000000 1.000000 0.000000 0.000000 0.000000 -0.000000 1.000000 0.000000 0.000000 0.000000 0.000000 1.000000
1.000000 0.000000 0.000000 0.000000 0.000000 1.000000 0.000000 0.000000 0.000000 -0.000000 1.000000 0.000000 0.000000 0.000000 0.000000 1.000000
1.000000 0.000000 0.000000 0.000000 0.000000 1.000000 0.000000 0.000000 0.000000 -0.000000 1.000000 0.000000 0.000000 0.000000 0.000000 1.000000
1.000000 0.000000 0.000000 0.000000 0.000000 1.000000 0.000000 0.000000 0.000000 -0.000000 1.000000 0.000000 0.000000 0.000000 0.000000 1.000000
1.000000 0.000000 0.000000 0.000000 0.000000 1.000000 0.000000 0.000000 0.000000 -0.000000 1.000000 0.000000 0.000000 0.000000 0.000000 1.000000
1.000000 0.000000 0.000000 0.000000 0.000000 1.000000 0.000000 0.000000 0.000000 -0.000000 1.000000 0.000000 0.000000 0.000000 0.000000 1.000000
1.000000 0.000000 0.000000 0.000000 0.000000 1.000000 0.000000 0.000000 0.000000 -0.000000 1.000000 0.000000 0.000000 0.000000 0.000000 1.000000
1.000000 0.000000 0.000000 0.000000 0.000000 1.000000 0.000000 0.000000 0.000000 -0.000000 1.000000 0.000000 0.000000 0.000000 0.000000 1.000000
1.000000 0.000000 0.000000 0.000000 0.000000 1.000000 0.000000 0.000000 0.000000 -0.000000 1.000000 0.000000 0.000000 0.000000 0.000000 1.000000
1.000000 0.000000 0.000000 0.000000 0.000000 1.000000 0.000000 0.000000 0.000000 -0.000000 1.000000 0.000000 0.000000 0.000000 0.000000 1.000000
1.000000 0.000000 0.000000 0.000000 0.000000 1.000000 0.000000 0.000000 0.000000 -0.000000 1.000000 0.000000 0.000000 0.000000 0.000000 1.000000
1.000000 0.000000 0.000000 0.000000 0.000000 1.000000 0.000000 0.000000 0.000000 -0.000000 1.000000 0.000000 0.000000 0.000000 0.000000 1.000000
1.000000 0.000000 0.000000 0.000000 0.000000 1.000000 0.000000 0.000000 0.000000 -0.000000 1.000000 0.000000 0.000000 0.000000 0.000000 1.000000
1.000000 0.000000 0.000000 0.000000 0.000000 1.000000 0.000000 0.000000 0.000000 -0.000000 1.000000 0.000000 0.000000 0.000000 0.000000 1.000000
1.000000 0.000000 0.000000 0.000000 0.000000 1.000000 0.000000 0.000000 0.000000 -0.000000 1.000000 0.000000 0.000000 0.000000 0.000000 1.000000
1.000000 0.000000 0.000000 0.000000 0.000000 1.000000 0.000000 0.000000 0.000000 -0.000000 1.000000 0.000000 0.000000 0.000000 0.000000 1.000000
1.000000 0.000000 0.000000 0.000000 0.000000 1.000000 0.000000 0.000000 0.000000 -0.000000 1.000000 0.000000 0.000000 0.000000 0.000000 1.000000</float_array><technique_common><accessor source="#jnt_right_weapon-Matrix-animation-output-transform-array" count="30" stride="16"><param type="float4x4"/></accessor></technique_common></source><source id="jnt_right_weapon-Interpolations"><Name_array id="jnt_right_weapon-Interpolations-array" count="30">
 LINEAR LINEAR LINEAR LINEAR LINEAR LINEAR LINEAR LINEAR LINEAR LINEAR LINEAR
LINEAR LINEAR LINEAR LINEAR LINEAR LINEAR LINEAR LINEAR LINEAR LINEAR LINEAR LINEAR
LINEAR LINEAR LINEAR LINEAR LINEAR LINEAR LINEAR</Name_array><technique_common><accessor source="#jnt_right_weapon-Interpolations-array" count="30"><param type="name"/></accessor></technique_common></source><sampler id="jnt_right_weapon-Matrix-animation-transform"><input semantic="INPUT" source="#jnt_right_weapon-Matrix-animation-input"/><input semantic="OUTPUT" source="#jnt_right_weapon-Matrix-animation-output-transform"/><input semantic="INTERPOLATION" source="#jnt_right_weapon-Interpolations"/></sampler><channel source="#jnt_right_weapon-Matrix-animation-transform" target="jnt_right_weapon/matrix"/></animation></animation>
    <animation id="root_drill-anim" name="root_drill"><animation><source id="root_drill-Matrix-animation-input"><float_array id="root_drill-Matrix-animation-input-array" count="30">

0.033333 0.066667 0.100000 0.133333 0.166667 0.200000 0.233333 0.266667 0.300000 0.333333 0.366667 0.400000 0.433333 0.466667 0.500000 0.533333
0.566667 0.600000 0.633333 0.666667 0.700000 0.733333 0.766667 0.800000 0.833333 0.866667 0.900000 0.933333 0.966667 1.000000</float_array><technique_common><accessor source="#root_drill-Matrix-animation-input-array" count="30"><param name="TIME" type="float"/></accessor></technique_common></source><source id="root_drill-Matrix-animation-output-transform"><float_array id="root_drill-Matrix-animation-output-transform-array" count="480">

1.000000 0.000000 0.000000 -0.076767 0.000000 1.000000 -0.000000 -0.145005 0.000000 0.000000 1.000000 0.000000 0.000000 0.000000 0.000000 1.000000
1.000000 0.000000 0.000000 -0.076767 0.000000 1.000000 -0.000000 -0.145005 0.000000 0.000000 1.000000 0.000000 0.000000 0.000000 0.000000 1.000000
1.000000 0.000000 0.000000 -0.076767 0.000000 1.000000 -0.000000 -0.145005 0.000000 0.000000 1.000000 0.000000 0.000000 0.000000 0.000000 1.000000
1.000000 0.000000 0.000000 -0.076767 0.000000 1.000000 -0.000000 -0.145005 0.000000 0.000000 1.000000 0.000000 0.000000 0.000000 0.000000 1.000000
1.000000 0.000000 0.000000 -0.076767 0.000000 1.000000 -0.000000 -0.145005 0.000000 0.000000 1.000000 0.000000 0.000000 0.000000 0.000000 1.000000
1.000000 0.000000 0.000000 -0.076767 0.000000 1.000000 -0.000000 -0.145005 0.000000 0.000000 1.000000 0.000000 0.000000 0.000000 0.000000 1.000000
1.000000 0.000000 0.000000 -0.076767 0.000000 1.000000 -0.000000 -0.145005 0.000000 0.000000 1.000000 0.000000 0.000000 0.000000 0.000000 1.000000
1.000000 0.000000 0.000000 -0.076767 0.000000 1.000000 -0.000000 -0.145005 0.000000 0.000000 1.000000 0.000000 0.000000 0.000000 0.000000 1.000000
1.000000 0.000000 0.000000 -0.076767 0.000000 1.000000 -0.000000 -0.145005 0.000000 0.000000 1.000000 0.000000 0.000000 0.000000 0.000000 1.000000
1.000000 0.000000 0.000000 -0.076767 0.000000 1.000000 -0.000000 -0.145005 0.000000 0.000000 1.000000 0.000000 0.000000 0.000000 0.000000 1.000000
1.000000 0.000000 0.000000 -0.076767 0.000000 1.000000 -0.000000 -0.145005 0.000000 0.000000 1.000000 0.000000 0.000000 0.000000 0.000000 1.000000
1.000000 0.000000 0.000000 -0.076767 0.000000 1.000000 -0.000000 -0.145005 0.000000 0.000000 1.000000 0.000000 0.000000 0.000000 0.000000 1.000000
1.000000 0.000000 0.000000 -0.076767 0.000000 1.000000 -0.000000 -0.145005 0.000000 0.000000 1.000000 0.000000 0.000000 0.000000 0.000000 1.000000
1.000000 0.000000 0.000000 -0.076767 0.000000 1.000000 -0.000000 -0.145005 0.000000 0.000000 1.000000 0.000000 0.000000 0.000000 0.000000 1.000000
1.000000 0.000000 0.000000 -0.076767 0.000000 1.000000 -0.000000 -0.145005 0.000000 0.000000 1.000000 0.000000 0.000000 0.000000 0.000000 1.000000
1.000000 0.000000 0.000000 -0.076767 0.000000 1.000000 -0.000000 -0.145005 0.000000 0.000000 1.000000 0.000000 0.000000 0.000000 0.000000 1.000000
1.000000 0.000000 0.000000 -0.076767 0.000000 1.000000 -0.000000 -0.145005 0.000000 0.000000 1.000000 0.000000 0.000000 0.000000 0.000000 1.000000
1.000000 0.000000 0.000000 -0.076767 0.000000 1.000000 -0.000000 -0.145005 0.000000 0.000000 1.000000 0.000000 0.000000 0.000000 0.000000 1.000000
1.000000 0.000000 0.000000 -0.076767 0.000000 1.000000 -0.000000 -0.145005 0.000000 0.000000 1.000000 0.000000 0.000000 0.000000 0.000000 1.000000
1.000000 0.000000 0.000000 -0.076767 0.000000 1.000000 -0.000000 -0.145005 0.000000 0.000000 1.000000 0.000000 0.000000 0.000000 0.000000 1.000000
1.000000 0.000000 0.000000 -0.076767 0.000000 1.000000 -0.000000 -0.145005 0.000000 0.000000 1.000000 0.000000 0.000000 0.000000 0.000000 1.000000
1.000000 0.000000 0.000000 -0.076767 0.000000 1.000000 -0.000000 -0.145005 0.000000 0.000000 1.000000 0.000000 0.000000 0.000000 0.000000 1.000000
1.000000 0.000000 0.000000 -0.076767 0.000000 1.000000 -0.000000 -0.145005 0.000000 0.000000 1.000000 0.000000 0.000000 0.000000 0.000000 1.000000
1.000000 0.000000 0.000000 -0.076767 0.000000 1.000000 -0.000000 -0.145005 0.000000 0.000000 1.000000 0.000000 0.000000 0.000000 0.000000 1.000000
1.000000 0.000000 0.000000 -0.076767 0.000000 1.000000 -0.000000 -0.145005 0.000000 0.000000 1.000000 0.000000 0.000000 0.000000 0.000000 1.000000
1.000000 0.000000 0.000000 -0.076767 0.000000 1.000000 -0.000000 -0.145005 0.000000 0.000000 1.000000 0.000000 0.000000 0.000000 0.000000 1.000000
1.000000 0.000000 0.000000 -0.076767 0.000000 1.000000 -0.000000 -0.145005 0.000000 0.000000 1.000000 0.000000 0.000000 0.000000 0.000000 1.000000
1.000000 0.000000 0.000000 -0.076767 0.000000 1.000000 -0.000000 -0.145005 0.000000 0.000000 1.000000 0.000000 0.000000 0.000000 0.000000 1.000000
1.000000 0.000000 0.000000 -0.076767 0.000000 1.000000 -0.000000 -0.145005 0.000000 0.000000 1.000000 0.000000 0.000000 0.000000 0.000000 1.000000
1.000000 0.000000 0.000000 -0.076767 0.000000 1.000000 -0.000000 -0.145005 0.000000 0.000000 1.000000 0.000000 0.000000 0.000000 0.000000 1.000000</float_array><technique_common><accessor source="#root_drill-Matrix-animation-output-transform-array" count="30" stride="16"><param type="float4x4"/></accessor></technique_common></source><source id="root_drill-Interpolations"><Name_array id="root_drill-Interpolations-array" count="30">
 LINEAR LINEAR LINEAR LINEAR LINEAR LINEAR LINEAR LINEAR LINEAR LINEAR LINEAR
LINEAR LINEAR LINEAR LINEAR LINEAR LINEAR LINEAR LINEAR LINEAR LINEAR LINEAR LINEAR
LINEAR LINEAR LINEAR LINEAR LINEAR LINEAR LINEAR</Name_array><technique_common><accessor source="#root_drill-Interpolations-array" count="30"><param type="name"/></accessor></technique_common></source><sampler id="root_drill-Matrix-animation-transform"><input semantic="INPUT" source="#root_drill-Matrix-animation-input"/><input semantic="OUTPUT" source="#root_drill-Matrix-animation-output-transform"/><input semantic="INTERPOLATION" source="#root_drill-Interpolations"/></sampler><channel source="#root_drill-Matrix-animation-transform" target="root_drill/matrix"/></animation></animation>
    <animation id="jnt_trigger-anim" name="jnt_trigger"><animation><source id="jnt_trigger-Matrix-animation-input"><float_array id="jnt_trigger-Matrix-animation-input-array" count="30">

0.033333 0.066667 0.100000 0.133333 0.166667 0.200000 0.233333 0.266667 0.300000 0.333333 0.366667 0.400000 0.433333 0.466667 0.500000 0.533333
0.566667 0.600000 0.633333 0.666667 0.700000 0.733333 0.766667 0.800000 0.833333 0.866667 0.900000 0.933333 0.966667 1.000000</float_array><technique_common><accessor source="#jnt_trigger-Matrix-animation-input-array" count="30"><param name="TIME" type="float"/></accessor></technique_common></source><source id="jnt_trigger-Matrix-animation-output-transform"><float_array id="jnt_trigger-Matrix-animation-output-transform-array" count="480">

1.000000 -0.000000 -0.000000 0.000000 -0.000000 -0.992509 0.122171 0.410960 -0.000000 -0.122171 -0.992511 -0.186827 0.000000 0.000000 0.000000 1.000000
1.000000 -0.000000 -0.000000 0.000000 -0.000000 -0.992509 0.122171 0.410960 -0.000000 -0.122171 -0.992511 -0.186827 0.000000 0.000000 0.000000 1.000000
1.000000 -0.000000 -0.000000 0.000000 -0.000000 -0.992509 0.122171 0.410960 -0.000000 -0.122171 -0.992511 -0.186827 0.000000 0.000000 0.000000 1.000000
1.000000 -0.000000 -0.000000 0.000000 -0.000000 -0.992509 0.122171 0.410960 -0.000000 -0.122171 -0.992511 -0.186827 0.000000 0.000000 0.000000 1.000000
1.000000 -0.000000 -0.000000 0.000000 -0.000000 -0.992509 0.122171 0.410960 -0.000000 -0.122171 -0.992511 -0.186827 0.000000 0.000000 0.000000 1.000000
1.000000 -0.000000 -0.000000 0.000000 -0.000000 -0.992509 0.122171 0.410960 -0.000000 -0.122171 -0.992511 -0.186827 0.000000 0.000000 0.000000 1.000000
1.000000 -0.000000 -0.000000 0.000000 -0.000000 -0.992509 0.122171 0.410960 -0.000000 -0.122171 -0.992511 -0.186827 0.000000 0.000000 0.000000 1.000000
1.000000 -0.000000 -0.000000 0.000000 -0.000000 -0.992509 0.122171 0.410960 -0.000000 -0.122171 -0.992511 -0.186827 0.000000 0.000000 0.000000 1.000000
1.000000 -0.000000 -0.000000 0.000000 -0.000000 -0.992509 0.122171 0.410960 -0.000000 -0.122171 -0.992511 -0.186827 0.000000 0.000000 0.000000 1.000000
1.000000 -0.000000 -0.000000 0.000000 -0.000000 -0.992509 0.122171 0.410960 -0.000000 -0.122171 -0.992511 -0.186827 0.000000 0.000000 0.000000 1.000000
1.000000 -0.000000 -0.000000 0.000000 -0.000000 -0.992509 0.122171 0.410960 -0.000000 -0.122171 -0.992511 -0.186827 0.000000 0.000000 0.000000 1.000000
1.000000 -0.000000 -0.000000 0.000000 -0.000000 -0.992509 0.122171 0.410960 -0.000000 -0.122171 -0.992511 -0.186827 0.000000 0.000000 0.000000 1.000000
1.000000 -0.000000 -0.000000 0.000000 -0.000000 -0.992509 0.122171 0.410960 -0.000000 -0.122171 -0.992511 -0.186827 0.000000 0.000000 0.000000 1.000000
1.000000 -0.000000 -0.000000 0.000000 -0.000000 -0.992509 0.122171 0.410960 -0.000000 -0.122171 -0.992511 -0.186827 0.000000 0.000000 0.000000 1.000000
1.000000 -0.000000 -0.000000 0.000000 -0.000000 -0.992509 0.122171 0.410960 -0.000000 -0.122171 -0.992511 -0.186827 0.000000 0.000000 0.000000 1.000000
1.000000 -0.000000 -0.000000 0.000000 -0.000000 -0.992509 0.122171 0.410960 -0.000000 -0.122171 -0.992511 -0.186827 0.000000 0.000000 0.000000 1.000000
1.000000 -0.000000 -0.000000 0.000000 -0.000000 -0.992509 0.122171 0.410960 -0.000000 -0.122171 -0.992511 -0.186827 0.000000 0.000000 0.000000 1.000000
1.000000 -0.000000 -0.000000 0.000000 -0.000000 -0.992509 0.122171 0.410960 -0.000000 -0.122171 -0.992511 -0.186827 0.000000 0.000000 0.000000 1.000000
1.000000 -0.000000 -0.000000 0.000000 -0.000000 -0.992509 0.122171 0.410960 -0.000000 -0.122171 -0.992511 -0.186827 0.000000 0.000000 0.000000 1.000000
1.000000 -0.000000 -0.000000 0.000000 -0.000000 -0.992509 0.122171 0.410960 -0.000000 -0.122171 -0.992511 -0.186827 0.000000 0.000000 0.000000 1.000000
1.000000 -0.000000 -0.000000 0.000000 -0.000000 -0.992509 0.122171 0.410960 -0.000000 -0.122171 -0.992511 -0.186827 0.000000 0.000000 0.000000 1.000000
1.000000 -0.000000 -0.000000 0.000000 -0.000000 -0.992509 0.122171 0.410960 -0.000000 -0.122171 -0.992511 -0.186827 0.000000 0.000000 0.000000 1.000000
1.000000 -0.000000 -0.000000 0.000000 -0.000000 -0.992509 0.122171 0.410960 -0.000000 -0.122171 -0.992511 -0.186827 0.000000 0.000000 0.000000 1.000000
1.000000 -0.000000 -0.000000 0.000000 -0.000000 -0.992509 0.122171 0.410960 -0.000000 -0.122171 -0.992511 -0.186827 0.000000 0.000000 0.000000 1.000000
1.000000 -0.000000 -0.000000 0.000000 -0.000000 -0.992509 0.122171 0.410960 -0.000000 -0.122171 -0.992511 -0.186827 0.000000 0.000000 0.000000 1.000000
1.000000 -0.000000 -0.000000 0.000000 -0.000000 -0.992509 0.122171 0.410960 -0.000000 -0.122171 -0.992511 -0.186827 0.000000 0.000000 0.000000 1.000000
1.000000 -0.000000 -0.000000 0.000000 -0.000000 -0.992509 0.122171 0.410960 -0.000000 -0.122171 -0.992511 -0.186827 0.000000 0.000000 0.000000 1.000000
1.000000 -0.000000 -0.000000 0.000000 -0.000000 -0.992509 0.122171 0.410960 -0.000000 -0.122171 -0.992511 -0.186827 0.000000 0.000000 0.000000 1.000000
1.000000 -0.000000 -0.000000 0.000000 -0.000000 -0.992509 0.122171 0.410960 -0.000000 -0.122171 -0.992511 -0.186827 0.000000 0.000000 0.000000 1.000000
1.000000 -0.000000 -0.000000 0.000000 -0.000000 -0.992509 0.122171 0.410960 -0.000000 -0.122171 -0.992511 -0.186827 0.000000 0.000000 0.000000 1.000000</float_array><technique_common><accessor source="#jnt_trigger-Matrix-animation-output-transform-array" count="30" stride="16"><param type="float4x4"/></accessor></technique_common></source><source id="jnt_trigger-Interpolations"><Name_array id="jnt_trigger-Interpolations-array" count="30">
 LINEAR LINEAR LINEAR LINEAR LINEAR LINEAR LINEAR LINEAR LINEAR LINEAR LINEAR
LINEAR LINEAR LINEAR LINEAR LINEAR LINEAR LINEAR LINEAR LINEAR LINEAR LINEAR LINEAR
LINEAR LINEAR LINEAR LINEAR LINEAR LINEAR LINEAR</Name_array><technique_common><accessor source="#jnt_trigger-Interpolations-array" count="30"><param type="name"/></accessor></technique_common></source><sampler id="jnt_trigger-Matrix-animation-transform"><input semantic="INPUT" source="#jnt_trigger-Matrix-animation-input"/><input semantic="OUTPUT" source="#jnt_trigger-Matrix-animation-output-transform"/><input semantic="INTERPOLATION" source="#jnt_trigger-Interpolations"/></sampler><channel source="#jnt_trigger-Matrix-animation-transform" target="jnt_trigger/matrix"/></animation></animation>
    <animation id="jnt_drill-anim" name="jnt_drill"><animation><source id="jnt_drill-Matrix-animation-input"><float_array id="jnt_drill-Matrix-animation-input-array" count="30">

0.033333 0.066667 0.100000 0.133333 0.166667 0.200000 0.233333 0.266667 0.300000 0.333333 0.366667 0.400000 0.433333 0.466667 0.500000 0.533333
0.566667 0.600000 0.633333 0.666667 0.700000 0.733333 0.766667 0.800000 0.833333 0.866667 0.900000 0.933333 0.966667 1.000000</float_array><technique_common><accessor source="#jnt_drill-Matrix-animation-input-array" count="30"><param name="TIME" type="float"/></accessor></technique_common></source><source id="jnt_drill-Matrix-animation-output-transform"><float_array id="jnt_drill-Matrix-animation-output-transform-array" count="480">

-1.000000 0.000000 0.000000 0.000000 0.000000 -0.000000 1.000000 0.250408 0.000000 1.000000 0.000000 2.048744 0.000000 0.000000 0.000000 1.000000
-0.918958 -0.000000 -0.394356 0.000000 -0.394356 -0.000000 0.918958 0.250408 -0.000000 1.000000 0.000000 2.048744 0.000000 0.000000 0.000000 1.000000
-0.688967 -0.000000 -0.724793 0.000000 -0.724793 -0.000000 0.688967 0.250408 -0.000000 1.000000 0.000000 2.048744 0.000000 0.000000 0.000000 1.000000
-0.347305 -0.000000 -0.937752 0.000000 -0.937752 -0.000000 0.347305 0.250408 -0.000000 1.000000 0.000000 2.048744 0.000000 0.000000 0.000000 1.000000
0.050650 0.000000 -0.998717 0.000000 -0.998717 -0.000000 -0.050650 0.250408 -0.000000 1.000000 0.000000 2.048744 0.000000 0.000000 0.000000 1.000000
0.440395 -0.000000 -0.897804 0.000000 -0.897804 -0.000000 -0.440395 0.250408 -0.000000 1.000000 -0.000000 2.048744 0.000000 0.000000 0.000000 1.000000
0.758759 0.000000 -0.651372 0.000000 -0.651372 -0.000000 -0.758759 0.250408 -0.000000 1.000000 -0.000000 2.048744 0.000000 0.000000 0.000000 1.000000
0.954140 0.000000 -0.299362 0.000000 -0.299362 -0.000000 -0.954140 0.250408 -0.000000 1.000000 0.000000 2.048744 0.000000 0.000000 0.000000 1.000000
0.994869 -0.000000 0.101169 0.000000 0.101169 -0.000000 -0.994869 0.250408 0.000000 1.000000 0.000000 2.048744 0.000000 0.000000 0.000000 1.000000
0.874346 -0.000000 0.485303 0.000000 0.485303 -0.000000 -0.874346 0.250408 0.000000 1.000000 0.000000 2.048744 0.000000 0.000000 0.000000 1.000000
0.612105 0.000000 0.790777 0.000000 0.790777 -0.000000 -0.612105 0.250408 0.000000 1.000000 -0.000000 2.048744 0.000000 0.000000 0.000000 1.000000
0.250651 -0.000000 0.968078 0.000000 0.968077 -0.000000 -0.250651 0.250408 0.000000 1.000000 0.000000 2.048744 0.000000 0.000000 0.000000 1.000000
-0.151430 0.000000 0.988468 0.000000 0.988468 -0.000000 0.151430 0.250408 0.000000 1.000000 -0.000000 2.048744 0.000000 0.000000 0.000000 1.000000
-0.528965 -0.000000 0.848643 0.000000 0.848643 -0.000000 0.528965 0.250408 0.000000 1.000000 0.000000 2.048744 0.000000 0.000000 0.000000 1.000000
-0.820764 0.000000 0.571267 0.000000 0.571267 -0.000000 0.820764 0.250408 0.000000 1.000000 0.000000 2.048744 0.000000 0.000000 0.000000 1.000000
-0.979530 0.000000 0.201298 0.000000 0.201298 -0.000000 0.979530 0.250408 0.000000 1.000000 0.000000 2.048744 0.000000 0.000000 0.000000 1.000000
-0.979529 -0.000000 -0.201301 0.000000 -0.201301 -0.000000 0.979529 0.250408 -0.000000 1.000000 0.000000 2.048744 0.000000 0.000000 0.000000 1.000000
-0.820762 -0.000000 -0.571270 0.000000 -0.571270 0.000000 0.820762 0.250408 -0.000000 1.000000 -0.000000 2.048744 0.000000 0.000000 0.000000 1.000000
-0.528962 0.000000 -0.848645 0.000000 -0.848645 -0.000000 0.528962 0.250408 -0.000000 1.000000 0.000000 2.048744 0.000000 0.000000 0.000000 1.000000
-0.151425 -0.000000 -0.988469 0.000000 -0.988469 -0.000000 0.151425 0.250408 -0.000000 1.000000 0.000000 2.048744 0.000000 0.000000 0.000000 1.000000
0.250654 0.000000 -0.968077 0.000000 -0.968077 -0.000000 -0.250654 0.250408 -0.000000 1.000000 0.000000 2.048744 0.000000 0.000000 0.000000 1.000000
0.612107 -0.000000 -0.790775 0.000000 -0.790775 -0.000000 -0.612107 0.250408 -0.000000 1.000000 -0.000000 2.048744 0.000000 0.000000 0.000000 1.000000
0.874348 0.000000 -0.485301 0.000000 -0.485301 -0.000000 -0.874348 0.250408 -0.000000 1.000000 0.000000 2.048744 0.000000 0.000000 0.000000 1.000000
0.994869 0.000000 -0.101166 0.000000 -0.101166 -0.000000 -0.994869 0.250408 -0.000000 1.000000 -0.000000 2.048744 0.000000 0.000000 0.000000 1.000000
0.954139 -0.000000 0.299365 0.000000 0.299365 -0.000000 -0.954139 0.250408 0.000000 1.000000 -0.000000 2.048744 0.000000 0.000000 0.000000 1.000000
0.758757 -0.000000 0.651374 0.000000 0.651374 -0.000000 -0.758757 0.250408 0.000000 1.000000 0.000000 2.048744 0.000000 0.000000 0.000000 1.000000
0.440392 -0.000000 0.897806 0.000000 0.897806 -0.000000 -0.440392 0.250408 0.000000 1.000000 0.000000 2.048744 0.000000 0.000000 0.000000 1.000000
0.050647 -0.000000 0.998717 0.000000 0.998717 -0.000000 -0.050647 0.250408 0.000000 1.000000 0.000000 2.048744 0.000000 0.000000 0.000000 1.000000
-0.347307 -0.000000 0.937751 0.000000 0.937751 -0.000000 0.347307 0.250408 0.000000 1.000000 0.000000 2.048744 0.000000 0.000000 0.000000 1.000000
-0.688969 0.000000 0.724791 0.000000 0.724791 -0.000000 0.688969 0.250408 0.000000 1.000000 0.000000 2.048744 0.000000 0.000000 0.000000 1.000000</float_array><technique_common><accessor source="#jnt_drill-Matrix-animation-output-transform-array" count="30" stride="16"><param type="float4x4"/></accessor></technique_common></source><source id="jnt_drill-Interpolations"><Name_array id="jnt_drill-Interpolations-array" count="30">
 LINEAR LINEAR LINEAR LINEAR LINEAR LINEAR LINEAR LINEAR LINEAR LINEAR LINEAR
LINEAR LINEAR LINEAR LINEAR LINEAR LINEAR LINEAR LINEAR LINEAR LINEAR LINEAR LINEAR
LINEAR LINEAR LINEAR LINEAR LINEAR LINEAR LINEAR</Name_array><technique_common><accessor source="#jnt_drill-Interpolations-array" count="30"><param type="name"/></accessor></technique_common></source><sampler id="jnt_drill-Matrix-animation-transform"><input semantic="INPUT" source="#jnt_drill-Matrix-animation-input"/><input semantic="OUTPUT" source="#jnt_drill-Matrix-animation-output-transform"/><input semantic="INTERPOLATION" source="#jnt_drill-Interpolations"/></sampler><channel source="#jnt_drill-Matrix-animation-transform" target="jnt_drill/matrix"/></animation></animation>
  </library_animations>
  <library_visual_scenes>
<visual_scene id="Scene" name="Scene">
    <node name="jnt_right_weapon" id="jnt_right_weapon" sid="jnt_right_weapon" type="JOINT">
      <matrix sid="matrix">1.000000 0.000000 0.000000 0.000000 0.000000 1.000000 0.000000 0.000000 0.000000 -0.000000 1.000000 0.000000 0.000000 0.000000 0.000000 1.000000</matrix>
      <extra>
        <technique profile="FCOLLADA">
          <visibility>1.000000</visibility>
        </technique>
      </extra>
      <node name="root_drill" id="root_drill" sid="root_drill" type="JOINT">
        <matrix sid="matrix">1.000000 0.000000 0.000000 -0.076767 0.000000 1.000000 -0.000000 -0.145005 0.000000 0.000000 1.000000 0.000000 0.000000 0.000000 0.000000 1.000000</matrix>
        <extra>
          <technique profile="FCOLLADA">
            <visibility>1.000000</visibility>
          </technique>
        </extra>
        <node name="jnt_trigger" id="jnt_trigger" sid="jnt_trigger" type="JOINT">
          <matrix sid="matrix">1.000000 -0.000000 -0.000000 0.000000 -0.000000 -0.992509 0.122171 0.410960 -0.000000 -0.122171 -0.992511 -0.186827 0.000000 0.000000 0.000000 1.000000</matrix>
          <extra>
            <technique profile="FCOLLADA">
              <visibility>1.000000</visibility>
            </technique>
          </extra>
          <node name="jnt_trigger_end" id="jnt_trigger_end" sid="jnt_trigger_end" type="JOINT">
            <matrix sid="matrix">1.000000 0.000000 0.000000 0.000000 -0.000000 1.000000 -0.000000 0.373637 -0.000000 0.000000 1.000000 0.000000 0.000000 0.000000 0.000000 1.000000</matrix>
            <extra>
              <technique profile="FCOLLADA">
                <visibility>1.000000</visibility>
              </technique>
            </extra>
          </node>
        </node>
        <node name="jnt_drill" id="jnt_drill" sid="jnt_drill" type="JOINT">
          <matrix sid="matrix">-1.000000 0.000000 0.000000 0.000000 0.000000 -0.000000 1.000000 0.250408 0.000000 1.000000 0.000000 2.048744 0.000000 0.000000 0.000000 1.000000</matrix>
          <extra>
            <technique profile="FCOLLADA">
              <visibility>1.000000</visibility>
            </technique>
          </extra>
          <node name="jnt_drill_end" id="jnt_drill_end" sid="jnt_drill_end" type="JOINT">
            <matrix sid="matrix">1.000000 -0.000000 -0.000000 0.000000 0.000000 1.000000 0.000000 1.248422 -0.000000 0.000000 1.000000 0.000000 0.000000 0.000000 0.000000 1.000000</matrix>
            <extra>
              <technique profile="FCOLLADA">
                <visibility>1.000000</visibility>
              </technique>
            </extra>
          </node>
        </node>
      </node>
    </node>
  <extra>
    <technique profile="MAX3D">
      <frame_rate>30.000000</frame_rate>
    </technique>
    <technique profile="FCOLLADA">
      <start_time>0.000000</start_time>
      <end_time>1.000000</end_time>
    </technique>
  </extra>
</visual_scene>
  </library_visual_scenes>
  <scene>
    <instance_visual_scene url="#Scene"></instance_visual_scene>
  </scene>
</COLLADA>
