# Blender v2.78 (sub 0) OBJ File: 'RailLineShort.blend'
# www.blender.org
mtllib RailLineShort.mtl
o Cube.001_Cube.002
v 1.234006 0.500000 -3.000000
v 1.234006 0.500000 -5.000000
v 11.765994 0.500000 -3.000000
v 11.765994 0.500000 -5.000000
v 3.765994 0.500000 -5.000000
v 3.765994 0.500000 -3.000000
v 9.234006 0.500000 -5.000000
v 9.234006 0.500000 -3.000000
v 5.000000 0.200000 -3.000000
v 5.000000 0.200000 -5.000000
v 8.000000 0.200000 -5.000000
v 8.000000 0.200000 -3.000000
v 0.000000 -0.500000 -5.000000
v 0.000000 -0.500000 -3.000000
v 0.000000 0.200000 -3.000000
v 0.000000 0.200000 -5.000000
v 13.000000 0.200000 -5.000000
v 13.000000 -0.500000 -5.000000
v 13.000000 -0.500000 -3.000000
v 13.000000 0.200000 -3.000000
vt 0.2985 0.9051
vt 0.5970 0.9051
vt 0.5970 1.0000
vt 0.2985 1.0000
vt 0.7015 0.6154
vt 0.5970 1.0000
vt 0.7015 0.3846
vt 0.2985 0.2897
vt 0.2985 0.0949
vt 0.5970 0.0949
vt 0.5970 0.2897
vt 0.2985 0.3846
vt 0.5970 0.3846
vt 0.0000 1.0000
vt 0.0000 0.0000
vt 0.2985 0.0000
vt 0.2985 1.0000
vt 0.2985 0.7103
vt 0.5970 0.7103
vt 0.2985 0.6154
vt 0.5970 0.6154
vt 1.0000 0.1538
vt 0.8955 0.1538
vt 0.8955 0.0000
vt 1.0000 0.0000
vt 1.0000 0.3077
vt 0.8955 0.3077
vt 0.8955 0.1538
vt 1.0000 0.1538
vt 0.2985 0.0000
vt 0.5970 0.0000
vt 0.8955 1.0000
vt 0.7910 0.6154
vt 0.7910 0.3846
vt 0.8955 0.0000
vt 0.7463 0.7103
vt 0.5970 0.0000
vt 0.7463 0.2897
vt 0.7910 1.0000
vt 0.7463 0.9051
vt 0.7463 0.7103
vt 0.7463 0.9051
vt 0.7015 1.0000
vt 0.7463 0.2897
vt 0.7463 0.0949
vt 0.7015 0.0000
vt 0.7463 0.0949
vt 0.7910 0.0000
vn 0.2362 0.9717 0.0000
vn 0.0000 0.0000 1.0000
vn 0.0000 1.0000 0.0000
vn 0.0000 -1.0000 0.0000
vn -0.2362 0.9717 0.0000
vn -1.0000 0.0000 0.0000
vn 1.0000 0.0000 0.0000
vn 0.0000 0.0000 -1.0000
usemtl Material
s off
f 4/1/1 3/2/1 20/3/1 17/4/1
f 9/5/2 14/6/2 12/7/2
f 5/8/3 2/9/3 1/10/3 6/11/3
f 10/12/1 5/8/1 6/11/1 9/13/1
f 13/14/4 18/15/4 19/16/4 14/17/4
f 4/1/3 7/18/3 8/19/3 3/2/3
f 11/20/3 10/12/3 9/13/3 12/21/3
f 7/18/5 11/20/5 12/21/5 8/19/5
f 14/22/6 15/23/6 16/24/6 13/25/6
f 18/26/7 17/27/7 20/28/7 19/29/7
f 1/10/5 2/9/5 16/30/5 15/31/5
f 13/32/8 10/33/8 11/34/8
f 11/34/8 18/35/8 13/32/8
f 13/32/8 5/36/8 10/33/8
f 19/37/2 8/38/2 12/7/2
f 13/32/8 16/39/8 2/40/8
f 2/40/8 5/36/8 13/32/8
f 6/41/2 1/42/2 14/6/2
f 1/42/2 15/43/2 14/6/2
f 7/44/8 4/45/8 18/35/8
f 20/46/2 3/47/2 19/37/2
f 3/47/2 8/38/2 19/37/2
f 14/6/2 19/37/2 12/7/2
f 9/5/2 6/41/2 14/6/2
f 11/34/8 7/44/8 18/35/8
f 17/48/8 18/35/8 4/45/8
o Cube
v 3.021119 0.500000 -8.000000
v 3.021119 0.500000 0.000000
v 1.978881 0.500000 -0.000002
v 1.978881 0.500000 -8.000000
v 3.021119 0.587549 -8.000000
v 3.021119 0.587549 0.000000
v 1.978881 0.587549 -0.000002
v 1.978881 0.587549 -8.000000
v 2.708235 0.733564 -8.000000
v 2.708235 0.733564 0.000000
v 2.291765 0.733564 -0.000002
v 2.291765 0.733564 -8.000000
v 2.797318 2.000000 -7.999992
v 2.797318 2.000000 0.000008
v 2.202682 2.000000 -0.000002
v 2.202682 2.000000 -8.000000
v 2.969423 1.600824 -7.999996
v 2.934476 1.511428 -7.999996
v 2.934476 1.511428 0.000004
v 2.969422 1.600824 0.000004
v 2.030577 1.600824 -0.000002
v 2.065524 1.511428 -0.000002
v 2.065524 1.511428 -8.000000
v 2.030577 1.600824 -8.000000
v 2.936017 1.955686 -7.999992
v 2.969423 1.899785 -7.999992
v 2.969422 1.899785 0.000008
v 2.936016 1.955686 0.000008
v 2.063983 1.955686 -0.000004
v 2.030577 1.899785 -0.000004
v 2.030577 1.899785 -8.000000
v 2.063983 1.955686 -8.000000
v 2.741135 1.447889 -7.999996
v 2.708235 1.388508 -7.999996
v 2.708235 1.388508 0.000004
v 2.741135 1.447889 0.000004
v 2.258865 1.447889 -0.000002
v 2.291765 1.388508 -0.000002
v 2.291765 1.388508 -8.000000
v 2.258865 1.447889 -8.000000
v 11.021119 0.500000 -8.000000
v 11.021119 0.500000 0.000000
v 9.978881 0.500000 -0.000002
v 9.978881 0.500000 -8.000000
v 11.021119 0.587549 -8.000000
v 11.021119 0.587549 0.000000
v 9.978881 0.587549 -0.000002
v 9.978881 0.587549 -8.000000
v 10.708235 0.733564 -8.000000
v 10.708235 0.733564 0.000000
v 10.291765 0.733564 -0.000002
v 10.291765 0.733564 -8.000000
v 10.797318 2.000000 -7.999992
v 10.797318 2.000000 0.000008
v 10.202682 2.000000 -0.000002
v 10.202682 2.000000 -8.000000
v 10.969423 1.600824 -7.999996
v 10.934477 1.511428 -7.999996
v 10.934476 1.511428 0.000004
v 10.969422 1.600824 0.000004
v 10.030577 1.600824 -0.000002
v 10.065524 1.511428 -0.000002
v 10.065524 1.511428 -8.000000
v 10.030578 1.600824 -8.000000
v 10.936017 1.955686 -7.999992
v 10.969423 1.899785 -7.999992
v 10.969422 1.899785 0.000008
v 10.936016 1.955686 0.000008
v 10.063983 1.955686 -0.000004
v 10.030577 1.899785 -0.000004
v 10.030578 1.899785 -8.000000
v 10.063984 1.955686 -8.000000
v 10.741135 1.447889 -7.999996
v 10.708235 1.388508 -7.999996
v 10.708235 1.388508 0.000004
v 10.741135 1.447889 0.000004
v 10.258864 1.447889 -0.000002
v 10.291765 1.388508 -0.000002
v 10.291765 1.388508 -8.000000
v 10.258864 1.447889 -8.000000
v 2.765345 0.640296 -3.594839
v 2.765345 0.734636 -3.594839
v 2.765345 0.640296 -4.405161
v 2.765345 0.734636 -4.405161
v 3.226461 0.640296 -3.594839
v 3.226461 0.734636 -3.594839
v 3.226461 0.640296 -4.405161
v 3.226461 0.734636 -4.405161
v 3.444341 0.566755 -4.405161
v 3.350001 0.566755 -4.405161
v 3.350001 0.566755 -3.594839
v 3.444341 0.566755 -3.594839
v 3.444341 0.484749 -4.405161
v 3.350001 0.484749 -4.405161
v 3.350001 0.484749 -3.594839
v 3.444341 0.484749 -3.594839
v 3.311992 0.617412 -4.405161
v 3.311992 0.617412 -3.594839
v 3.368091 0.693260 -3.594839
v 3.368091 0.693260 -4.405161
v 3.112609 0.449168 -4.100000
v 3.026007 0.449168 -4.050000
v 3.026007 0.449168 -3.950000
v 3.112609 0.449168 -3.900000
v 3.199212 0.449168 -3.950000
v 3.199212 0.449168 -4.050000
v 3.026007 0.827737 -4.050000
v 3.112609 0.827737 -4.100000
v 3.026007 0.827737 -3.950000
v 3.112609 0.827737 -3.900000
v 3.199212 0.827737 -3.950000
v 3.199212 0.827737 -4.050000
v 2.231962 0.640296 -4.405161
v 2.231962 0.734636 -4.405161
v 2.231962 0.640296 -3.594839
v 2.231962 0.734636 -3.594839
v 1.770847 0.640296 -4.405161
v 1.770847 0.734636 -4.405161
v 1.770847 0.640296 -3.594839
v 1.770847 0.734636 -3.594839
v 1.552966 0.566755 -3.594839
v 1.647306 0.566755 -3.594839
v 1.647306 0.566755 -4.405161
v 1.552966 0.566755 -4.405161
v 1.552966 0.484749 -3.594839
v 1.647306 0.484749 -3.594839
v 1.647306 0.484749 -4.405161
v 1.552966 0.484749 -4.405161
v 1.685316 0.617412 -3.594839
v 1.685316 0.617412 -4.405161
v 1.629217 0.693260 -4.405161
v 1.629217 0.693260 -3.594839
v 1.884698 0.449168 -3.900000
v 1.971301 0.449168 -3.950000
v 1.971301 0.449168 -4.050000
v 1.884698 0.449168 -4.100000
v 1.798096 0.449168 -4.050000
v 1.798096 0.449168 -3.950000
v 1.971301 0.827737 -3.950000
v 1.884698 0.827737 -3.900000
v 1.971301 0.827737 -4.050000
v 1.884698 0.827737 -4.100000
v 1.798096 0.827737 -4.050000
v 1.798096 0.827737 -3.950000
v 10.234654 0.640296 -3.594839
v 10.234654 0.734636 -3.594839
v 10.234654 0.640296 -4.405161
v 10.234654 0.734636 -4.405161
v 9.773540 0.640296 -3.594839
v 9.773540 0.734636 -3.594839
v 9.773540 0.640296 -4.405161
v 9.773540 0.734636 -4.405161
v 9.555658 0.566755 -4.405161
v 9.649999 0.566755 -4.405161
v 9.649999 0.566755 -3.594839
v 9.555658 0.566755 -3.594839
v 9.555658 0.484749 -4.405161
v 9.649999 0.484749 -4.405161
v 9.649999 0.484749 -3.594839
v 9.555658 0.484749 -3.594839
v 9.688008 0.617412 -4.405161
v 9.688008 0.617412 -3.594839
v 9.631908 0.693260 -3.594839
v 9.631908 0.693260 -4.405161
v 9.887390 0.449168 -4.100000
v 9.973993 0.449168 -4.050000
v 9.973993 0.449168 -3.950000
v 9.887390 0.449168 -3.900000
v 9.800788 0.449168 -3.950000
v 9.800788 0.449168 -4.050000
v 9.973993 0.827737 -4.050000
v 9.887390 0.827737 -4.100000
v 9.973993 0.827737 -3.950000
v 9.887390 0.827737 -3.900000
v 9.800788 0.827737 -3.950000
v 9.800788 0.827737 -4.050000
v 10.768038 0.640296 -4.405161
v 10.768038 0.734636 -4.405161
v 10.768038 0.640296 -3.594839
v 10.768038 0.734636 -3.594839
v 11.229153 0.640296 -4.405161
v 11.229153 0.734636 -4.405161
v 11.229153 0.640296 -3.594839
v 11.229153 0.734636 -3.594839
v 11.447034 0.566755 -3.594839
v 11.352694 0.566755 -3.594839
v 11.352694 0.566755 -4.405161
v 11.447034 0.566755 -4.405161
v 11.447034 0.484749 -3.594839
v 11.352694 0.484749 -3.594839
v 11.352694 0.484749 -4.405161
v 11.447034 0.484749 -4.405161
v 11.314684 0.617412 -3.594839
v 11.314684 0.617412 -4.405161
v 11.370783 0.693260 -4.405161
v 11.370783 0.693260 -3.594839
v 11.115301 0.449168 -3.900000
v 11.028699 0.449168 -3.950000
v 11.028699 0.449168 -4.050000
v 11.115301 0.449168 -4.100000
v 11.201904 0.449168 -4.050000
v 11.201904 0.449168 -3.950000
v 11.028699 0.827737 -3.950000
v 11.115301 0.827737 -3.900000
v 11.028699 0.827737 -4.050000
v 11.115301 0.827737 -4.100000
v 11.201904 0.827737 -4.050000
v 11.201904 0.827737 -3.950000
vt 0.1477 0.7057
vt 0.1477 0.7307
vt 0.1455 0.7307
vt 0.1455 0.7057
vt 0.1658 0.7307
vt 0.1656 0.7307
vt 0.1656 0.7057
vt 0.1658 0.7057
vt 0.1662 0.7095
vt 0.1662 0.7094
vt 0.1668 0.7093
vt 0.1668 0.7089
vt 0.1667 0.7089
vt 0.1663 0.7088
vt 0.1663 0.7088
vt 0.1663 0.7086
vt 0.1663 0.7086
vt 0.1668 0.7085
vt 0.1677 0.7085
vt 0.1681 0.7086
vt 0.1682 0.7086
vt 0.1682 0.7088
vt 0.1681 0.7088
vt 0.1677 0.7089
vt 0.1677 0.7089
vt 0.1677 0.7093
vt 0.1683 0.7094
vt 0.1683 0.7095
vt 0.1662 0.7307
vt 0.1660 0.7307
vt 0.1660 0.7057
vt 0.1662 0.7057
vt 0.1625 0.7057
vt 0.1632 0.7057
vt 0.1632 0.7307
vt 0.1625 0.7307
vt 0.1683 0.7067
vt 0.1662 0.7067
vt 0.1662 0.7066
vt 0.1668 0.7065
vt 0.1668 0.7061
vt 0.1667 0.7061
vt 0.1663 0.7060
vt 0.1663 0.7060
vt 0.1663 0.7058
vt 0.1663 0.7058
vt 0.1668 0.7057
vt 0.1677 0.7057
vt 0.1681 0.7058
vt 0.1682 0.7058
vt 0.1682 0.7060
vt 0.1681 0.7060
vt 0.1677 0.7061
vt 0.1677 0.7061
vt 0.1677 0.7065
vt 0.1683 0.7066
vt 0.1625 0.7307
vt 0.1619 0.7307
vt 0.1619 0.7057
vt 0.1625 0.7057
vt 0.1455 0.7057
vt 0.1455 0.7307
vt 0.1434 0.7307
vt 0.1434 0.7057
vt 0.1656 0.7307
vt 0.1654 0.7307
vt 0.1654 0.7057
vt 0.1656 0.7057
vt 0.1662 0.7085
vt 0.1662 0.7085
vt 0.1668 0.7084
vt 0.1668 0.7080
vt 0.1667 0.7079
vt 0.1663 0.7079
vt 0.1663 0.7078
vt 0.1663 0.7077
vt 0.1663 0.7076
vt 0.1668 0.7076
vt 0.1677 0.7076
vt 0.1681 0.7076
vt 0.1682 0.7077
vt 0.1682 0.7078
vt 0.1681 0.7079
vt 0.1677 0.7079
vt 0.1677 0.7080
vt 0.1677 0.7084
vt 0.1683 0.7085
vt 0.1683 0.7085
vt 0.1660 0.7307
vt 0.1658 0.7307
vt 0.1658 0.7057
vt 0.1660 0.7057
vt 0.1632 0.7057
vt 0.1638 0.7057
vt 0.1638 0.7307
vt 0.1632 0.7307
vt 0.1683 0.7076
vt 0.1662 0.7076
vt 0.1662 0.7075
vt 0.1668 0.7075
vt 0.1668 0.7070
vt 0.1667 0.7070
vt 0.1663 0.7070
vt 0.1663 0.7069
vt 0.1663 0.7067
vt 0.1663 0.7067
vt 0.1668 0.7067
vt 0.1677 0.7067
vt 0.1681 0.7067
vt 0.1682 0.7067
vt 0.1682 0.7069
vt 0.1681 0.7070
vt 0.1677 0.7070
vt 0.1677 0.7070
vt 0.1677 0.7075
vt 0.1683 0.7075
vt 0.1619 0.7307
vt 0.1612 0.7307
vt 0.1612 0.7057
vt 0.1619 0.7057
vt 0.0892 0.8703
vt 0.0886 0.8703
vt 0.0886 0.8631
vt 0.0892 0.8631
vt 0.0759 0.8693
vt 0.0753 0.8695
vt 0.0744 0.8656
vt 0.0751 0.8653
vt 0.0782 0.8673
vt 0.0775 0.8671
vt 0.0784 0.8631
vt 0.0791 0.8634
vt 0.0872 0.8489
vt 0.0879 0.8489
vt 0.0879 0.8560
vt 0.0872 0.8560
vt 0.0754 0.8641
vt 0.0752 0.8633
vt 0.0758 0.8631
vt 0.0759 0.8639
vt 0.0783 0.8693
vt 0.0785 0.8685
vt 0.0791 0.8687
vt 0.0789 0.8695
vt 0.0782 0.8680
vt 0.0775 0.8684
vt 0.0744 0.8643
vt 0.0751 0.8646
vt 0.1166 0.8616
vt 0.1166 0.8594
vt 0.1185 0.8583
vt 0.1205 0.8594
vt 0.1205 0.8616
vt 0.1185 0.8628
vt 0.1205 0.8504
vt 0.1205 0.8527
vt 0.1185 0.8538
vt 0.1166 0.8527
vt 0.1166 0.8504
vt 0.1185 0.8493
vt 0.1023 0.8663
vt 0.1001 0.8663
vt 0.1001 0.8578
vt 0.1023 0.8578
vt 0.1133 0.8578
vt 0.1122 0.8578
vt 0.1122 0.8493
vt 0.1133 0.8493
vt 0.1166 0.8578
vt 0.1155 0.8578
vt 0.1155 0.8493
vt 0.1166 0.8493
vt 0.1034 0.8663
vt 0.1034 0.8578
vt 0.0990 0.8663
vt 0.0990 0.8578
vt 0.0886 0.8703
vt 0.0879 0.8703
vt 0.0879 0.8631
vt 0.0886 0.8631
vt 0.0822 0.8693
vt 0.0815 0.8695
vt 0.0806 0.8656
vt 0.0813 0.8653
vt 0.0766 0.8673
vt 0.0759 0.8671
vt 0.0768 0.8631
vt 0.0775 0.8634
vt 0.0879 0.8703
vt 0.0872 0.8703
vt 0.0872 0.8631
vt 0.0879 0.8631
vt 0.0816 0.8641
vt 0.0814 0.8633
vt 0.0820 0.8631
vt 0.0822 0.8639
vt 0.0767 0.8693
vt 0.0769 0.8685
vt 0.0775 0.8687
vt 0.0773 0.8695
vt 0.0766 0.8680
vt 0.0760 0.8684
vt 0.0806 0.8643
vt 0.0813 0.8646
vt 0.1124 0.8663
vt 0.1143 0.8674
vt 0.1143 0.8696
vt 0.1124 0.8708
vt 0.1104 0.8696
vt 0.1104 0.8674
vt 0.1085 0.8663
vt 0.1104 0.8674
vt 0.1104 0.8696
vt 0.1085 0.8708
vt 0.1066 0.8696
vt 0.1066 0.8674
vt 0.1023 0.8578
vt 0.1001 0.8578
vt 0.1001 0.8493
vt 0.1023 0.8493
vt 0.1089 0.8578
vt 0.1078 0.8578
vt 0.1078 0.8493
vt 0.1089 0.8493
vt 0.1122 0.8578
vt 0.1111 0.8578
vt 0.1111 0.8493
vt 0.1122 0.8493
vt 0.1034 0.8578
vt 0.1034 0.8493
vt 0.0990 0.8578
vt 0.0990 0.8493
vt 0.0886 0.8489
vt 0.0886 0.8560
vt 0.0879 0.8560
vt 0.0879 0.8489
vt 0.0853 0.8634
vt 0.0844 0.8673
vt 0.0837 0.8671
vt 0.0846 0.8631
vt 0.0797 0.8653
vt 0.0806 0.8693
vt 0.0799 0.8695
vt 0.0791 0.8656
vt 0.0879 0.8560
vt 0.0879 0.8631
vt 0.0872 0.8631
vt 0.0872 0.8560
vt 0.0847 0.8685
vt 0.0853 0.8687
vt 0.0851 0.8695
vt 0.0845 0.8693
vt 0.0798 0.8633
vt 0.0804 0.8631
vt 0.0806 0.8639
vt 0.0800 0.8641
vt 0.0797 0.8646
vt 0.0791 0.8643
vt 0.0838 0.8684
vt 0.0844 0.8680
vt 0.1143 0.8696
vt 0.1143 0.8674
vt 0.1162 0.8663
vt 0.1181 0.8674
vt 0.1181 0.8696
vt 0.1162 0.8708
vt 0.1205 0.8549
vt 0.1205 0.8571
vt 0.1185 0.8583
vt 0.1166 0.8571
vt 0.1166 0.8549
vt 0.1185 0.8538
vt 0.1122 0.8663
vt 0.1122 0.8578
vt 0.1133 0.8578
vt 0.1133 0.8663
vt 0.1045 0.8663
vt 0.1045 0.8578
vt 0.1067 0.8578
vt 0.1067 0.8663
vt 0.1155 0.8663
vt 0.1155 0.8578
vt 0.1166 0.8578
vt 0.1166 0.8663
vt 0.1078 0.8578
vt 0.1078 0.8663
vt 0.1034 0.8663
vt 0.1034 0.8578
vt 0.0886 0.8560
vt 0.0886 0.8631
vt 0.0879 0.8631
vt 0.0879 0.8560
vt 0.0837 0.8634
vt 0.0828 0.8673
vt 0.0822 0.8671
vt 0.0830 0.8631
vt 0.0856 0.8582
vt 0.0865 0.8621
vt 0.0858 0.8623
vt 0.0849 0.8584
vt 0.0865 0.8631
vt 0.0865 0.8560
vt 0.0872 0.8560
vt 0.0872 0.8631
vt 0.0831 0.8685
vt 0.0837 0.8687
vt 0.0835 0.8695
vt 0.0830 0.8693
vt 0.0857 0.8562
vt 0.0863 0.8560
vt 0.0865 0.8568
vt 0.0859 0.8570
vt 0.0856 0.8574
vt 0.0850 0.8571
vt 0.0822 0.8684
vt 0.0828 0.8680
vt 0.1009 0.8708
vt 0.0990 0.8696
vt 0.0990 0.8674
vt 0.1009 0.8663
vt 0.1028 0.8674
vt 0.1028 0.8696
vt 0.1047 0.8708
vt 0.1028 0.8696
vt 0.1028 0.8674
vt 0.1047 0.8663
vt 0.1066 0.8674
vt 0.1066 0.8696
vt 0.1078 0.8663
vt 0.1078 0.8578
vt 0.1089 0.8578
vt 0.1089 0.8663
vt 0.1045 0.8578
vt 0.1045 0.8493
vt 0.1067 0.8493
vt 0.1067 0.8578
vt 0.1111 0.8663
vt 0.1111 0.8578
vt 0.1122 0.8578
vt 0.1122 0.8663
vt 0.1078 0.8493
vt 0.1078 0.8578
vt 0.1034 0.8578
vt 0.1034 0.8493
vt 0.1509 0.7307
vt 0.1509 0.7057
vt 0.1513 0.7057
vt 0.1513 0.7307
vt 0.1042 0.6592
vt 0.1051 0.6592
vt 0.1051 0.6842
vt 0.1042 0.6842
vt 0.1528 0.7307
vt 0.1514 0.7307
vt 0.1514 0.7057
vt 0.1528 0.7057
vt 0.1646 0.7057
vt 0.1650 0.7057
vt 0.1650 0.7307
vt 0.1646 0.7307
vt 0.1544 0.7057
vt 0.1558 0.7057
vt 0.1558 0.7307
vt 0.1544 0.7307
vt 0.1646 0.7307
vt 0.1642 0.7307
vt 0.1642 0.7057
vt 0.1646 0.7057
vt 0.1591 0.7307
vt 0.1585 0.7307
vt 0.1585 0.7057
vt 0.1591 0.7057
vt 0.1605 0.7057
vt 0.1611 0.7057
vt 0.1611 0.7307
vt 0.1605 0.7307
vt 0.1603 0.7307
vt 0.1603 0.7057
vt 0.1593 0.7057
vt 0.1593 0.7307
vt 0.1584 0.7307
vt 0.1584 0.7057
vt 0.1612 0.7057
vt 0.1612 0.7307
vt 0.1499 0.7057
vt 0.1499 0.7307
vt 0.1495 0.7307
vt 0.1495 0.7057
vt 0.1513 0.7307
vt 0.1513 0.7057
vt 0.1559 0.7057
vt 0.1559 0.7307
vt 0.1491 0.7307
vt 0.1491 0.7057
vt 0.1495 0.7057
vt 0.1495 0.7307
vt 0.1024 0.6592
vt 0.1033 0.6592
vt 0.1033 0.6842
vt 0.1024 0.6842
vt 0.1544 0.7307
vt 0.1529 0.7307
vt 0.1529 0.7057
vt 0.1544 0.7057
vt 0.1638 0.7057
vt 0.1642 0.7057
vt 0.1642 0.7307
vt 0.1638 0.7307
vt 0.1559 0.7057
vt 0.1573 0.7057
vt 0.1573 0.7307
vt 0.1559 0.7307
vt 0.1654 0.7307
vt 0.1650 0.7307
vt 0.1650 0.7057
vt 0.1654 0.7057
vt 0.1601 0.7307
vt 0.1594 0.7307
vt 0.1594 0.7057
vt 0.1601 0.7057
vt 0.1576 0.7057
vt 0.1583 0.7057
vt 0.1583 0.7307
vt 0.1576 0.7307
vt 0.1574 0.7307
vt 0.1574 0.7057
vt 0.1603 0.7057
vt 0.1603 0.7307
vt 0.1593 0.7307
vt 0.1593 0.7057
vt 0.1584 0.7057
vt 0.1584 0.7307
vt 0.1481 0.7057
vt 0.1481 0.7307
vt 0.1477 0.7307
vt 0.1477 0.7057
vt 0.1528 0.7307
vt 0.1528 0.7057
vt 0.1574 0.7057
vt 0.1574 0.7307
vt 0.0768 0.8560
vt 0.0803 0.8560
vt 0.0803 0.8631
vt 0.0768 0.8631
vt 0.0713 0.8560
vt 0.0679 0.8560
vt 0.0679 0.8489
vt 0.0713 0.8489
vt 0.0866 0.8703
vt 0.0866 0.8631
vt 0.0872 0.8631
vt 0.0872 0.8703
vt 0.0738 0.8703
vt 0.0738 0.8631
vt 0.0744 0.8631
vt 0.0744 0.8703
vt 0.0862 0.8631
vt 0.0862 0.8703
vt 0.0728 0.8631
vt 0.0728 0.8703
vt 0.0809 0.8560
vt 0.0809 0.8631
vt 0.0724 0.8489
vt 0.0724 0.8560
vt 0.0849 0.8631
vt 0.0815 0.8631
vt 0.0815 0.8560
vt 0.0849 0.8560
vt 0.0689 0.8560
vt 0.0724 0.8560
vt 0.0724 0.8631
vt 0.0689 0.8631
vt 0.0857 0.8560
vt 0.0857 0.8489
vt 0.0863 0.8489
vt 0.0863 0.8560
vt 0.0705 0.8703
vt 0.0705 0.8631
vt 0.0711 0.8631
vt 0.0711 0.8703
vt 0.0854 0.8489
vt 0.0854 0.8560
vt 0.0695 0.8631
vt 0.0695 0.8703
vt 0.0809 0.8631
vt 0.0809 0.8560
vt 0.0679 0.8631
vt 0.0679 0.8560
vt 0.0768 0.8560
vt 0.0768 0.8631
vt 0.0734 0.8631
vt 0.0734 0.8560
vt 0.0734 0.8560
vt 0.0734 0.8489
vt 0.0768 0.8489
vt 0.0768 0.8560
vt 0.0856 0.8631
vt 0.0862 0.8631
vt 0.0862 0.8703
vt 0.0856 0.8703
vt 0.0689 0.8631
vt 0.0695 0.8631
vt 0.0695 0.8703
vt 0.0689 0.8703
vt 0.0853 0.8703
vt 0.0853 0.8631
vt 0.0679 0.8703
vt 0.0679 0.8631
vt 0.0728 0.8631
vt 0.0728 0.8560
vt 0.0724 0.8560
vt 0.0724 0.8489
vt 0.0813 0.8560
vt 0.0813 0.8489
vt 0.0847 0.8489
vt 0.0847 0.8560
vt 0.0803 0.8489
vt 0.0803 0.8560
vt 0.0768 0.8560
vt 0.0768 0.8489
vt 0.0866 0.8489
vt 0.0872 0.8489
vt 0.0872 0.8560
vt 0.0866 0.8560
vt 0.0721 0.8631
vt 0.0727 0.8631
vt 0.0727 0.8703
vt 0.0721 0.8703
vt 0.0863 0.8560
vt 0.0863 0.8489
vt 0.0711 0.8703
vt 0.0711 0.8631
vt 0.0854 0.8489
vt 0.0854 0.8560
vt 0.0813 0.8489
vt 0.0813 0.8560
vn 0.0000 -1.0000 0.0000
vn -1.0000 0.0000 0.0000
vn -0.0000 -0.0000 1.0000
vn 1.0000 0.0000 0.0000
vn -0.4229 0.9062 -0.0000
vn 0.0000 0.0000 -1.0000
vn 0.4229 0.9062 0.0000
vn 0.0000 1.0000 0.0000
vn 0.5000 0.0000 -0.8660
vn 0.5000 0.0000 0.8660
vn -0.5000 0.0000 0.8660
vn -0.5000 0.0000 -0.8660
vn -0.1540 0.9881 -0.0000
vn -0.6215 0.7834 -0.0000
vn 0.1540 0.9881 0.0000
vn 0.9682 -0.2503 0.0000
vn -0.6374 -0.7705 -0.0000
vn -0.6873 -0.7263 -0.0000
vn -0.9682 -0.2503 -0.0000
vn 0.6374 -0.7705 0.0000
vn 0.6873 -0.7263 0.0000
vn 0.9827 -0.1853 0.0000
vn 0.9640 0.2661 0.0000
vn 0.9827 -0.1852 0.0000
vn -0.9827 -0.1853 -0.0000
vn -0.9640 0.2661 0.0000
vn 0.6215 0.7834 0.0000
vn 0.9639 0.2661 0.0000
vn -0.9639 0.2661 -0.0000
vn -0.1303 -0.9915 0.0000
vn 0.1416 0.9899 0.0000
vn -0.9486 -0.3163 0.0000
vn 0.9634 0.2679 0.0000
vn -0.5599 -0.8286 0.0000
vn 0.6102 0.7923 0.0000
vn 0.1303 -0.9915 0.0000
vn -0.1416 0.9899 0.0000
vn 0.9486 -0.3163 0.0000
vn -0.9634 0.2679 0.0000
vn 0.5599 -0.8286 0.0000
vn -0.6102 0.7923 0.0000
usemtl Material_UniTex_dif.png
s off
f 21/49/9 22/50/9 23/51/9 24/52/9
f 23/53/10 27/54/10 28/55/10 24/56/10
f 22/57/11 26/58/11 30/59/11 55/60/11 56/61/11 39/62/11 40/63/11 47/64/11 48/65/11 34/66/11 35/67/11 49/68/11 50/69/11 41/70/11 42/71/11 57/72/11 58/73/11 31/74/11 27/75/11 23/76/11
f 21/77/12 25/78/12 26/79/12 22/80/12
f 27/81/13 31/82/13 32/83/13 28/84/13
f 21/85/14 24/86/14 28/87/14 32/88/14 59/89/14 60/90/14 43/91/14 44/92/14 51/93/14 52/94/14 36/95/14 33/96/14 45/97/14 46/98/14 37/99/14 38/100/14 53/101/14 54/102/14 29/103/14 25/104/14
f 25/105/15 29/106/15 30/107/15 26/108/15
f 61/109/9 62/110/9 63/111/9 64/112/9
f 63/113/10 67/114/10 68/115/10 64/116/10
f 62/117/11 66/118/11 70/119/11 95/120/11 96/121/11 79/122/11 80/123/11 87/124/11 88/125/11 74/126/11 75/127/11 89/128/11 90/129/11 81/130/11 82/131/11 97/132/11 98/133/11 71/134/11 67/135/11 63/136/11
f 61/137/12 65/138/12 66/139/12 62/140/12
f 67/141/13 71/142/13 72/143/13 68/144/13
f 61/145/14 64/146/14 68/147/14 72/148/14 99/149/14 100/150/14 83/151/14 84/152/14 91/153/14 92/154/14 76/155/14 73/156/14 85/157/14 86/158/14 77/159/14 78/160/14 93/161/14 94/162/14 69/163/14 65/164/14
f 65/165/15 69/166/15 70/167/15 66/168/15
f 101/169/10 102/170/10 104/171/10 103/172/10
f 103/173/14 104/174/14 108/175/14 107/176/14
f 105/177/11 106/178/11 102/179/11 101/180/11
f 114/181/9 113/182/9 116/183/9 115/184/9
f 110/185/14 109/186/14 113/187/14 114/188/14
f 112/189/11 111/190/11 115/191/11 116/192/11
f 118/193/11 111/190/11 112/189/11 119/194/11
f 120/195/14 109/186/14 110/185/14 117/196/14
f 105/177/11 118/193/11 119/194/11 106/178/11
f 108/175/14 120/195/14 117/196/14 107/176/14
f 122/197/9 121/198/9 126/199/9 125/200/9 124/201/9 123/202/9
f 127/203/16 129/204/16 130/205/16 131/206/16 132/207/16 128/208/16
f 126/209/17 121/210/17 128/211/17 132/212/17
f 124/213/18 125/214/18 131/215/18 130/216/18
f 122/217/10 123/218/10 129/219/10 127/220/10
f 125/221/12 126/209/12 132/212/12 131/222/12
f 123/218/19 124/213/19 130/216/19 129/219/19
f 121/210/20 122/223/20 127/224/20 128/211/20
f 133/225/12 134/226/12 136/227/12 135/228/12
f 135/229/11 136/230/11 140/231/11 139/232/11
f 137/233/14 138/234/14 134/235/14 133/236/14
f 146/237/9 145/238/9 148/239/9 147/240/9
f 142/241/11 141/242/11 145/243/11 146/244/11
f 144/245/14 143/246/14 147/247/14 148/248/14
f 150/249/14 143/246/14 144/245/14 151/250/14
f 152/251/11 141/242/11 142/241/11 149/252/11
f 137/233/14 150/249/14 151/250/14 138/234/14
f 140/231/11 152/251/11 149/252/11 139/232/11
f 154/253/9 153/254/9 158/255/9 157/256/9 156/257/9 155/258/9
f 159/259/16 161/260/16 162/261/16 163/262/16 164/263/16 160/264/16
f 158/265/19 153/266/19 160/267/19 164/268/19
f 156/269/20 157/270/20 163/271/20 162/272/20
f 154/273/12 155/274/12 161/275/12 159/276/12
f 157/277/10 158/265/10 164/268/10 163/278/10
f 155/274/17 156/269/17 162/272/17 161/275/17
f 153/266/18 154/279/18 159/280/18 160/267/18
f 165/281/12 167/282/12 168/283/12 166/284/12
f 167/285/14 171/286/14 172/287/14 168/288/14
f 169/289/11 165/290/11 166/291/11 170/292/11
f 178/293/9 179/294/9 180/295/9 177/296/9
f 174/297/14 178/298/14 177/299/14 173/300/14
f 176/301/11 180/302/11 179/303/11 175/304/11
f 182/305/11 183/306/11 176/301/11 175/304/11
f 184/307/14 181/308/14 174/297/14 173/300/14
f 169/289/11 170/292/11 183/306/11 182/305/11
f 172/287/14 171/286/14 181/308/14 184/307/14
f 186/309/9 187/310/9 188/311/9 189/312/9 190/313/9 185/314/9
f 191/315/16 192/316/16 196/317/16 195/318/16 194/319/16 193/320/16
f 190/321/20 196/322/20 192/323/20 185/324/20
f 188/325/19 194/326/19 195/327/19 189/328/19
f 186/329/12 191/330/12 193/331/12 187/332/12
f 189/328/10 195/327/10 196/333/10 190/334/10
f 187/335/18 193/336/18 194/326/18 188/325/18
f 185/324/17 192/323/17 191/330/17 186/329/17
f 197/337/10 199/338/10 200/339/10 198/340/10
f 199/341/11 203/342/11 204/343/11 200/344/11
f 201/345/14 197/346/14 198/347/14 202/348/14
f 210/349/9 211/350/9 212/351/9 209/352/9
f 206/353/11 210/354/11 209/355/11 205/356/11
f 208/357/14 212/358/14 211/359/14 207/360/14
f 214/361/14 215/362/14 208/357/14 207/360/14
f 216/363/11 213/364/11 206/353/11 205/356/11
f 201/345/14 202/348/14 215/362/14 214/361/14
f 204/343/11 203/342/11 213/364/11 216/363/11
f 218/365/9 219/366/9 220/367/9 221/368/9 222/369/9 217/370/9
f 223/371/16 224/372/16 228/373/16 227/374/16 226/375/16 225/376/16
f 222/377/18 228/378/18 224/379/18 217/380/18
f 220/381/17 226/382/17 227/383/17 221/384/17
f 218/385/10 223/386/10 225/387/10 219/388/10
f 221/384/12 227/383/12 228/389/12 222/390/12
f 219/391/20 225/392/20 226/382/20 220/381/20
f 217/380/19 224/379/19 223/386/19 218/385/19
s 1
f 35/393/21 36/394/21 52/395/22 49/396/22
f 33/397/23 36/398/21 35/399/21 34/400/23
f 29/401/12 54/402/24 55/403/24 30/404/12
f 57/405/25 42/406/26 43/407/26 60/408/25
f 31/409/10 58/410/27 59/411/27 32/412/10
f 53/413/28 38/414/29 39/415/29 56/416/28
f 37/417/30 46/418/31 47/419/31 40/420/32
f 41/421/33 50/422/34 51/423/34 44/424/33
f 41/421/33 44/424/33 43/425/26 42/426/26
f 37/417/30 40/420/32 39/427/29 38/428/29
f 47/419/31 46/418/31 45/429/35 48/430/35
f 51/423/34 50/422/34 49/431/22 52/432/22
f 33/433/23 34/434/23 48/435/35 45/436/35
f 53/437/28 56/438/28 55/403/24 54/402/24
f 57/439/25 60/440/25 59/411/27 58/410/27
f 75/441/21 76/442/21 92/443/22 89/444/22
f 73/445/23 76/446/21 75/447/21 74/448/23
f 69/449/12 94/450/24 95/451/24 70/452/12
f 97/453/25 82/454/26 83/455/26 100/456/25
f 71/457/10 98/458/27 99/459/27 72/460/10
f 93/461/28 78/462/29 79/463/29 96/464/28
f 77/465/32 86/466/36 87/467/36 80/468/32
f 81/469/33 90/470/37 91/471/37 84/472/33
f 81/469/33 84/472/33 83/473/26 82/474/26
f 77/465/32 80/468/32 79/475/29 78/476/29
f 87/467/36 86/466/36 85/477/35 88/478/35
f 91/471/37 90/470/37 89/479/22 92/480/22
f 73/481/23 74/482/23 88/483/35 85/484/35
f 93/485/28 96/486/28 95/451/24 94/450/24
f 97/487/25 100/488/25 99/459/27 98/458/27
f 103/489/9 107/490/38 105/491/38 101/492/9
f 108/493/39 104/494/16 102/495/16 106/496/39
f 111/497/40 110/498/40 114/499/10 115/500/10
f 109/501/41 112/502/41 116/503/12 113/504/12
f 117/505/42 110/498/40 111/497/40 118/506/42
f 119/507/43 112/502/41 109/501/41 120/508/43
f 107/490/38 117/509/42 118/510/42 105/491/38
f 106/496/39 119/511/43 120/512/43 108/493/39
f 135/513/9 139/514/44 137/515/44 133/516/9
f 140/517/45 136/518/16 134/519/16 138/520/45
f 143/521/46 142/522/46 146/523/12 147/524/12
f 141/525/47 144/526/47 148/527/10 145/528/10
f 149/529/48 142/522/46 143/521/46 150/530/48
f 151/531/49 144/526/47 141/525/47 152/532/49
f 139/514/44 149/533/48 150/534/48 137/515/44
f 138/520/45 151/535/49 152/536/49 140/517/45
f 167/537/9 165/538/9 169/539/44 171/540/44
f 172/541/45 170/542/45 166/543/16 168/544/16
f 175/545/46 179/546/12 178/547/12 174/548/46
f 173/549/47 177/550/10 180/551/10 176/552/47
f 181/553/48 182/554/48 175/545/46 174/548/46
f 183/555/49 184/556/49 173/549/47 176/552/47
f 171/540/44 169/539/44 182/557/48 181/558/48
f 170/542/45 172/541/45 184/559/49 183/560/49
f 199/561/9 197/562/9 201/563/38 203/564/38
f 204/565/39 202/566/39 198/567/16 200/568/16
f 207/569/40 211/570/10 210/571/10 206/572/40
f 205/573/41 209/574/12 212/575/12 208/576/41
f 213/577/42 214/578/42 207/569/40 206/572/40
f 215/579/43 216/580/43 205/573/41 208/576/41
f 203/564/38 201/563/38 214/581/42 213/582/42
f 202/566/39 204/565/39 216/583/43 215/584/43
