# Blender v2.78 (sub 0) OBJ File: 'MonoRail45Flat.blend'
# www.blender.org
mtllib MonoStraight4x.mtl
o Circle.002
v 0.308658 0.961940 0.000000
v 0.146447 0.853553 0.000000
v 0.038060 0.691342 0.000000
v 0.000000 0.500000 0.000000
v 0.038060 0.308658 0.000000
v 0.146447 0.146447 0.000000
v 0.308658 0.038060 0.000000
v 0.500000 0.000000 0.000000
v 0.691342 0.038060 0.000000
v 0.853553 0.146446 0.000000
v 0.961940 0.308658 0.000000
v 1.000000 0.500000 0.000000
v 0.961940 0.691342 0.000000
v 0.853553 0.853554 0.000000
v 0.691341 0.961940 0.000000
v 0.500000 1.000000 0.000000
v 0.308658 0.961941 -4.000000
v 0.500000 1.000001 -4.000000
v 0.691341 0.961941 -4.000000
v 0.853553 0.853555 -4.000000
v 0.961940 0.691343 -4.000000
v 1.000000 0.500001 -4.000000
v 0.961940 0.308660 -4.000000
v 0.853553 0.146448 -4.000000
v 0.691342 0.038062 -4.000000
v 0.500000 0.000001 -4.000000
v 0.308658 0.038062 -4.000000
v 0.146447 0.146448 -4.000000
v 0.038060 0.308660 -4.000000
v 0.000000 0.500001 -4.000000
v 0.038060 0.691343 -4.000000
v 0.146447 0.853555 -4.000000
vt 0.9434 0.0187
vt 0.9801 0.0532
vt 1.0000 0.0982
vt 1.0000 0.1470
vt 0.9801 0.1920
vt 0.9434 0.2265
vt 0.8954 0.2452
vt 0.8434 0.2452
vt 0.7954 0.2265
vt 0.7587 0.1920
vt 0.7388 0.1470
vt 0.7388 0.0982
vt 0.7587 0.0532
vt 0.7954 0.0187
vt 0.8434 0.0000
vt 0.8954 0.0000
vt 0.7954 0.4717
vt 0.7587 0.4372
vt 0.7388 0.3922
vt 0.7388 0.3434
vt 0.7587 0.2983
vt 0.7954 0.2639
vt 0.8434 0.2452
vt 0.8954 0.2452
vt 0.9434 0.2639
vt 0.9801 0.2983
vt 1.0000 0.3434
vt 1.0000 0.3922
vt 0.9801 0.4372
vt 0.9434 0.4717
vt 0.8954 0.4904
vt 0.8434 0.4904
vt 0.0367 1.0000
vt 0.0367 0.0000
vt 0.0847 0.0000
vt 0.0847 1.0000
vt 0.2582 1.0000
vt 0.2582 0.0000
vt 0.3062 0.0000
vt 0.3062 1.0000
vt 0.1367 0.0000
vt 0.1367 1.0000
vt 0.3581 0.0000
vt 0.3581 1.0000
vt 0.1847 0.0000
vt 0.1847 1.0000
vt 0.4061 0.0000
vt 0.4061 1.0000
vt 0.2214 0.0000
vt 0.2214 1.0000
vt 0.5541 0.0000
vt 0.5541 1.0000
vt 0.5061 1.0000
vt 0.5061 0.0000
vt 0.5908 0.0000
vt 0.5908 1.0000
vt 0.5908 1.0000
vt 0.5908 0.0000
vt 0.6388 0.0000
vt 0.6388 1.0000
vt 0.4541 1.0000
vt 0.4541 0.0000
vt 0.6908 0.0000
vt 0.6908 1.0000
vt 0.4061 1.0000
vt 0.4061 0.0000
vt 0.7388 0.0000
vt 0.7388 1.0000
vt 0.0000 1.0000
vt 0.0000 0.0000
vt 0.2214 1.0000
vt 0.2214 0.0000
vn 0.0000 -0.0000 1.0000
vn -0.0000 0.0000 -1.0000
vn -1.0000 -0.0000 -0.0000
vn -0.9239 -0.3827 -0.0000
vn 1.0000 -0.0000 -0.0000
vn 0.9239 0.3827 0.0000
vn -0.7071 -0.7071 -0.0000
vn 0.7071 0.7071 0.0000
vn -0.3827 -0.9239 -0.0000
vn 0.3827 0.9239 0.0000
vn 0.0000 -1.0000 -0.0000
vn 0.0000 1.0000 0.0000
vn -0.3827 0.9239 0.0000
vn 0.3827 -0.9239 -0.0000
vn -0.7071 0.7071 0.0000
vn 0.7071 -0.7071 -0.0000
vn -0.9239 0.3827 0.0000
vn 0.9239 -0.3827 -0.0000
usemtl None.001
s off
f 1/1/1 2/2/1 3/3/1 4/4/1 5/5/1 6/6/1 7/7/1 8/8/1 9/9/1 10/10/1 11/11/1 12/12/1 13/13/1 14/14/1 15/15/1 16/16/1
f 17/17/2 18/18/2 19/19/2 20/20/2 21/21/2 22/22/2 23/23/2 24/24/2 25/25/2 26/26/2 27/27/2 28/28/2 29/29/2 30/30/2 31/31/2 32/32/2
s 1
f 4/33/3 30/34/3 29/35/4 5/36/4
f 12/37/5 22/38/5 21/39/6 13/40/6
f 5/36/4 29/35/4 28/41/7 6/42/7
f 13/40/6 21/39/6 20/43/8 14/44/8
f 6/42/7 28/41/7 27/45/9 7/46/9
f 14/44/8 20/43/8 19/47/10 15/48/10
f 7/46/9 27/45/9 26/49/11 8/50/11
f 16/51/12 18/52/12 17/53/13 1/54/13
f 15/55/10 19/56/10 18/52/12 16/51/12
f 8/57/11 26/58/11 25/59/14 9/60/14
f 1/54/13 17/53/13 32/61/15 2/62/15
f 9/60/14 25/59/14 24/63/16 10/64/16
f 2/62/15 32/61/15 31/65/17 3/66/17
f 10/64/16 24/63/16 23/67/18 11/68/18
f 3/69/17 31/70/17 30/34/3 4/33/3
f 11/71/18 23/72/18 22/38/5 12/37/5
