# Blender v2.78 (sub 0) OBJ File: 'MonoRail45Flat.blend'
# www.blender.org
mtllib MonoRail45Flat.mtl
o Circle
v 0.500000 1.000000 -3.000000
v 0.691345 0.961940 -3.000000
v 0.853546 0.853553 -3.000000
v 0.961945 0.691342 -3.000000
v 1.000000 0.500000 -3.000000
v 0.961945 0.308658 -3.000000
v 0.853546 0.146447 -3.000000
v 0.691345 0.038060 -3.000000
v 0.500000 0.000000 -3.000000
v 0.308655 0.038060 -3.000000
v 0.146454 0.146446 -3.000000
v 0.038055 0.308658 -3.000000
v 0.000000 0.500000 -3.000000
v 0.038055 0.691342 -3.000000
v 0.146454 0.853554 -3.000000
v 0.308655 0.961940 -3.000000
v 38.364700 0.961940 -93.635300
v 38.250008 0.853554 -93.749992
v 38.173355 0.691342 -93.826645
v 38.146446 0.500000 -93.853554
v 38.173355 0.308658 -93.826645
v 38.250008 0.146446 -93.749992
v 38.364700 0.038060 -93.635300
v 38.500000 0.000000 -93.500000
v 38.635300 0.038060 -93.364700
v 38.749992 0.146447 -93.250008
v 38.826645 0.308658 -93.173355
v 38.853554 0.500000 -93.146446
v 38.826645 0.691342 -93.173355
v 38.749992 0.853553 -93.250008
v 38.635300 0.961940 -93.364700
v 38.500000 1.000000 -93.500000
v 0.854538 0.961940 -9.328883
v 1.340118 0.961940 -15.617555
v 2.142120 0.961940 -21.855194
v 3.254524 0.961940 -28.030960
v 4.671349 0.961940 -34.134010
v 6.386627 0.961940 -40.153496
v 8.394363 0.961940 -46.078564
v 10.688553 0.961940 -51.898365
v 13.263206 0.961940 -57.602047
v 16.112335 0.961940 -63.178757
v 19.229950 0.961940 -68.617630
v 22.610062 0.961940 -73.907822
v 26.246643 0.961940 -79.038475
v 30.133705 0.961940 -83.998741
v 34.265251 0.961940 -88.777763
v 1.016525 0.853554 -9.320547
v 1.501480 0.853554 -15.600964
v 2.302414 0.853554 -21.830467
v 3.413376 0.853554 -27.998234
v 4.828400 0.853554 -34.093433
v 6.541489 0.853554 -40.105228
v 8.546677 0.853554 -46.022781
v 10.837967 0.853554 -51.835236
v 13.409393 0.853554 -57.531761
v 16.254959 0.853554 -63.101501
v 19.368698 0.853554 -68.533607
v 22.744598 0.853553 -73.817238
v 26.376678 0.853553 -78.941528
v 30.258926 0.853553 -83.895653
v 34.385361 0.853553 -88.668747
v 1.124771 0.691342 -9.314975
v 1.609299 0.691342 -15.589878
v 2.409554 0.691342 -21.813942
v 3.519547 0.691342 -27.976364
v 4.933342 0.691342 -34.066319
v 6.644966 0.691342 -40.072975
v 8.648453 0.691342 -45.985500
v 10.937820 0.691342 -51.793053
v 13.507088 0.691342 -57.484795
v 16.350273 0.691342 -63.049881
v 19.461418 0.691342 -68.477463
v 22.834518 0.691342 -73.756699
v 26.463577 0.691342 -78.876740
v 30.342598 0.691342 -83.826752
v 34.465622 0.691342 -88.595894
v 1.162781 0.500000 -9.313019
v 1.647148 0.500000 -15.585983
v 2.447159 0.500000 -21.808142
v 3.556808 0.500000 -27.968683
v 4.970192 0.500000 -34.056793
v 6.681297 0.500000 -40.061646
v 8.684189 0.500000 -45.972412
v 10.972878 0.500000 -51.778236
v 13.541382 0.500000 -57.468300
v 16.383751 0.500000 -63.031750
v 19.493980 0.500000 -68.457741
v 22.866089 0.500000 -73.735443
v 26.494095 0.500000 -78.853989
v 30.372002 0.500000 -83.802567
v 34.493805 0.500000 -88.570305
v 1.124763 0.308658 -9.314975
v 1.609299 0.308658 -15.589876
v 2.409561 0.308659 -21.813944
v 3.519547 0.308659 -27.976364
v 4.933342 0.308659 -34.066319
v 6.644966 0.308659 -40.072971
v 8.648460 0.308659 -45.985497
v 10.937820 0.308659 -51.793053
v 13.507080 0.308659 -57.484795
v 16.350281 0.308659 -63.049873
v 19.461418 0.308658 -68.477463
v 22.834518 0.308658 -73.756699
v 26.463577 0.308658 -78.876740
v 30.342606 0.308658 -83.826752
v 34.465614 0.308658 -88.595901
v 1.016510 0.146447 -9.320547
v 1.501457 0.146447 -15.600964
v 2.302406 0.146447 -21.830469
v 3.413361 0.146447 -27.998238
v 4.828377 0.146447 -34.093437
v 6.541473 0.146447 -40.105232
v 8.546661 0.146447 -46.022789
v 10.837952 0.146447 -51.835247
v 13.409378 0.146447 -57.531769
v 16.254959 0.146447 -63.101505
v 19.368690 0.146447 -68.533615
v 22.744591 0.146447 -73.817245
v 26.376663 0.146447 -78.941544
v 30.258911 0.146447 -83.895660
v 34.385353 0.146447 -88.668762
v 0.854538 0.038060 -9.328884
v 1.340134 0.038060 -15.617554
v 2.142120 0.038061 -21.855194
v 3.254524 0.038061 -28.030964
v 4.671371 0.038061 -34.134014
v 6.386627 0.038061 -40.153492
v 8.394363 0.038061 -46.078564
v 10.688560 0.038061 -51.898369
v 13.263214 0.038061 -57.602043
v 16.112335 0.038061 -63.178745
v 19.229965 0.038060 -68.617630
v 22.610062 0.038060 -73.907822
v 26.246635 0.038060 -79.038475
v 30.133705 0.038060 -83.998741
v 34.265244 0.038060 -88.777756
v 0.663422 0.000000 -9.338719
v 1.149765 0.000000 -15.637127
v 1.952988 0.000000 -21.884365
v 3.067101 0.000000 -28.069571
v 4.486084 0.000000 -34.181881
v 6.203957 0.000000 -40.210442
v 8.214691 0.000000 -46.144379
v 10.512291 0.000000 -51.972832
v 13.090775 0.000000 -57.684963
v 15.944099 0.000000 -63.269886
v 19.066292 0.000000 -68.716751
v 22.451332 0.000000 -74.014694
v 26.093239 0.000000 -79.152847
v 29.985977 0.000000 -84.120354
v 34.123566 0.000000 -88.906357
v 0.472366 0.038060 -9.348553
v 0.959457 0.038060 -15.656698
v 1.763901 0.038061 -21.913532
v 2.879707 0.038061 -28.108175
v 4.300850 0.038061 -34.229744
v 6.021286 0.038061 -40.267372
v 8.035034 0.038061 -46.210182
v 10.336044 0.038061 -52.047306
v 12.918327 0.038060 -57.767872
v 15.775848 0.038061 -63.361015
v 18.902626 0.038060 -68.815872
v 22.292618 0.038061 -74.121552
v 25.939835 0.038060 -79.267212
v 29.838257 0.038060 -84.241974
v 33.981888 0.038060 -89.034958
v 0.310379 0.146447 -9.356890
v 0.798096 0.146447 -15.673288
v 1.603607 0.146447 -21.938257
v 2.720840 0.146447 -28.140903
v 4.143799 0.146447 -34.270321
v 5.866440 0.146447 -40.315636
v 7.882721 0.146447 -46.265968
v 10.186630 0.146447 -52.110432
v 12.772156 0.146447 -57.838158
v 15.633232 0.146447 -63.438263
v 18.763878 0.146447 -68.899887
v 22.158081 0.146447 -74.212143
v 25.809807 0.146447 -79.364159
v 29.713043 0.146447 -84.345062
v 33.861786 0.146446 -89.143967
v 0.202118 0.308658 -9.362462
v 0.690277 0.308658 -15.684378
v 1.496460 0.308658 -21.954784
v 2.614670 0.308659 -28.162773
v 4.038849 0.308659 -34.297440
v 5.762939 0.308659 -40.347900
v 7.780922 0.308659 -46.303253
v 10.086777 0.308659 -52.152626
v 12.674454 0.308658 -57.885132
v 15.537918 0.308658 -63.489891
v 18.671158 0.308658 -68.956047
v 22.068161 0.308658 -74.272690
v 25.722885 0.308658 -79.428955
v 29.629341 0.308658 -84.413963
v 33.781509 0.308658 -89.216835
v 0.164124 0.500000 -9.364418
v 0.652405 0.500000 -15.688270
v 1.458862 0.500000 -21.960585
v 2.577408 0.500000 -28.170452
v 4.001991 0.500000 -34.306961
v 5.726616 0.500000 -40.359222
v 7.745201 0.500000 -46.316341
v 10.051720 0.500000 -52.167435
v 12.640144 0.500000 -57.901619
v 15.504456 0.500000 -63.508018
v 18.638596 0.500000 -68.975754
v 22.036598 0.500000 -74.293945
v 25.692383 0.500000 -79.451698
v 29.599968 0.500000 -84.438141
v 33.753334 0.500000 -89.242409
v 0.202118 0.691342 -9.362462
v 0.690247 0.691342 -15.684378
v 1.496460 0.691342 -21.954784
v 2.614662 0.691342 -28.162775
v 4.038834 0.691342 -34.297443
v 5.762939 0.691342 -40.347900
v 7.780930 0.691342 -46.303257
v 10.086777 0.691342 -52.152626
v 12.674454 0.691342 -57.885132
v 15.537918 0.691342 -63.489891
v 18.671158 0.691342 -68.956039
v 22.068153 0.691342 -74.272690
v 25.722893 0.691342 -79.428955
v 29.629349 0.691342 -84.413963
v 33.781517 0.691342 -89.216827
v 0.310394 0.853554 -9.356890
v 0.798096 0.853554 -15.673288
v 1.603600 0.853554 -21.938257
v 2.720856 0.853554 -28.140900
v 4.143806 0.853554 -34.270321
v 5.866440 0.853554 -40.315639
v 7.882729 0.853554 -46.265968
v 10.186630 0.853554 -52.110435
v 12.772156 0.853554 -57.838158
v 15.633232 0.853554 -63.438259
v 18.763878 0.853554 -68.899887
v 22.158081 0.853554 -74.212143
v 25.809799 0.853554 -79.364159
v 29.713043 0.853553 -84.345055
v 33.861786 0.853553 -89.143967
v 0.472366 0.961940 -9.348553
v 0.959442 0.961940 -15.656698
v 1.763901 0.961940 -21.913532
v 2.879707 0.961940 -28.108175
v 4.300842 0.961940 -34.229744
v 6.021286 0.961940 -40.267372
v 8.035027 0.961940 -46.210182
v 10.336044 0.961940 -52.047302
v 12.918327 0.961940 -57.767872
v 15.775856 0.961940 -63.361015
v 18.902626 0.961940 -68.815857
v 22.292625 0.961940 -74.121552
v 25.939842 0.961940 -79.267212
v 29.838257 0.961940 -84.241974
v 33.981888 0.961940 -89.034958
v 34.123566 1.000000 -88.906364
v 29.985977 1.000000 -84.120361
v 26.093231 1.000000 -79.152847
v 22.451340 1.000000 -74.014694
v 19.066284 1.000000 -68.716751
v 15.944099 1.000000 -63.269882
v 13.090775 1.000000 -57.684959
v 10.512299 1.000000 -51.972836
v 8.214691 1.000000 -46.144379
v 6.203964 1.000000 -40.210434
v 4.486092 1.000000 -34.181877
v 3.067108 1.000000 -28.069571
v 1.953003 1.000000 -21.884363
v 1.149780 1.000000 -15.637127
v 0.663452 1.000000 -9.338718
v 41.364700 0.961940 -96.635300
v 41.500000 1.000000 -96.500000
v 41.250008 0.853554 -96.749992
v 41.173355 0.691342 -96.826645
v 41.146446 0.500000 -96.853554
v 41.173355 0.308658 -96.826645
v 41.250008 0.146446 -96.749992
v 41.364700 0.038060 -96.635300
v 41.500000 0.000000 -96.500000
v 41.635300 0.038060 -96.364700
v 41.749992 0.146447 -96.250008
v 41.826645 0.308658 -96.173355
v 41.853554 0.500000 -96.146446
v 41.826645 0.691342 -96.173355
v 41.749992 0.853553 -96.250008
v 41.635300 0.961940 -96.364700
v 0.500000 1.000000 0.000000
v 0.691345 0.961940 0.000000
v 0.853546 0.853553 0.000000
v 0.961945 0.691342 0.000000
v 1.000000 0.500000 0.000000
v 0.961945 0.308658 0.000000
v 0.853546 0.146447 0.000000
v 0.691345 0.038060 0.000000
v 0.500000 -0.000000 0.000000
v 0.308655 0.038060 0.000000
v 0.146454 0.146446 0.000000
v 0.038055 0.308658 0.000000
v 0.000000 0.500000 0.000000
v 0.038055 0.691342 0.000000
v 0.146454 0.853553 0.000000
v 0.308655 0.961940 0.000000
vt 0.9747 0.0007
vt 0.9701 0.0020
vt 0.9676 0.0037
vt 0.9676 0.0056
vt 0.9701 0.0073
vt 0.9747 0.0086
vt 0.9806 0.0093
vt 0.9870 0.0093
vt 0.9930 0.0086
vt 0.9975 0.0073
vt 1.0000 0.0056
vt 1.0000 0.0037
vt 0.9975 0.0020
vt 0.9930 0.0007
vt 0.9870 0.0000
vt 0.9806 0.0000
vt 0.9769 0.0093
vt 0.9815 0.0095
vt 0.9857 0.0104
vt 0.9890 0.0118
vt 0.9907 0.0136
vt 0.9907 0.0154
vt 0.9890 0.0170
vt 0.9857 0.0182
vt 0.9815 0.0187
vt 0.9769 0.0186
vt 0.9726 0.0177
vt 0.9694 0.0163
vt 0.9676 0.0145
vt 0.9676 0.0127
vt 0.9694 0.0110
vt 0.9726 0.0099
vt 0.7134 0.0268
vt 0.7093 0.0262
vt 0.7473 0.0000
vt 0.7514 0.0006
vt 0.8425 0.0378
vt 0.8534 0.0000
vt 0.8594 0.0004
vt 0.8484 0.0382
vt 0.6274 0.9047
vt 0.6331 0.9041
vt 0.7054 0.9606
vt 0.6998 0.9612
vt 0.6232 0.9052
vt 0.6956 0.9618
vt 0.9350 0.8925
vt 0.9410 0.8923
vt 0.9566 0.9512
vt 0.9506 0.9515
vt 0.9286 0.8927
vt 0.9442 0.9517
vt 0.9227 0.8926
vt 0.9383 0.9516
vt 0.2413 0.0944
vt 0.2369 0.0940
vt 0.3095 0.0374
vt 0.3137 0.0378
vt 0.2469 0.0949
vt 0.3193 0.0384
vt 0.2530 0.0955
vt 0.3253 0.0390
vt 0.2586 0.0961
vt 0.3308 0.0397
vt 0.2629 0.0966
vt 0.3350 0.0403
vt 0.8332 0.0951
vt 0.8272 0.0948
vt 0.8396 0.0952
vt 0.8549 0.0384
vt 0.8455 0.0951
vt 0.8608 0.0382
vt 0.6448 0.9030
vt 0.6491 0.9027
vt 0.7212 0.9589
vt 0.7169 0.9593
vt 0.6392 0.9035
vt 0.7113 0.9599
vt 0.5765 0.8463
vt 0.5822 0.8459
vt 0.5235 0.7885
vt 0.5292 0.7881
vt 0.4800 0.7301
vt 0.4859 0.7298
vt 0.4463 0.6713
vt 0.4521 0.6710
vt 0.4222 0.6121
vt 0.4281 0.6119
vt 0.4079 0.5527
vt 0.4138 0.5526
vt 0.4034 0.4932
vt 0.4093 0.4932
vt 0.4087 0.4338
vt 0.4147 0.4339
vt 0.4239 0.3745
vt 0.4298 0.3746
vt 0.4491 0.3155
vt 0.4549 0.3157
vt 0.4841 0.2568
vt 0.4900 0.2571
vt 0.5292 0.1986
vt 0.5350 0.1990
vt 0.5843 0.1411
vt 0.5900 0.1415
vt 0.6551 0.0848
vt 0.6495 0.0842
vt 0.7304 0.0289
vt 0.7248 0.0283
vt 0.5866 0.8456
vt 0.5337 0.7879
vt 0.4903 0.7296
vt 0.4566 0.6709
vt 0.4326 0.6118
vt 0.4184 0.5526
vt 0.4139 0.4932
vt 0.4192 0.4339
vt 0.4344 0.3748
vt 0.4594 0.3158
vt 0.4944 0.2573
vt 0.5394 0.1993
vt 0.5944 0.1418
vt 0.6594 0.0851
vt 0.7346 0.0293
vt 0.8322 0.1527
vt 0.8263 0.1528
vt 0.8210 0.2109
vt 0.8151 0.2110
vt 0.8118 0.2695
vt 0.8059 0.2696
vt 0.8046 0.3286
vt 0.7987 0.3286
vt 0.7995 0.3878
vt 0.7936 0.3878
vt 0.7965 0.4471
vt 0.7906 0.4471
vt 0.7955 0.5065
vt 0.7896 0.5065
vt 0.7967 0.5657
vt 0.7908 0.5657
vt 0.7999 0.6247
vt 0.7940 0.6247
vt 0.8052 0.6834
vt 0.7993 0.6833
vt 0.8127 0.7416
vt 0.8067 0.7415
vt 0.8222 0.7992
vt 0.8163 0.7991
vt 0.8339 0.8561
vt 0.8280 0.8559
vt 0.8418 0.9120
vt 0.8477 0.9121
vt 0.8577 0.9671
vt 0.8636 0.9673
vt 0.8199 0.1527
vt 0.8086 0.2109
vt 0.7994 0.2695
vt 0.7923 0.3285
vt 0.7872 0.3878
vt 0.7842 0.4471
vt 0.7832 0.5065
vt 0.7843 0.5657
vt 0.7875 0.6247
vt 0.7929 0.6834
vt 0.8003 0.7416
vt 0.8099 0.7992
vt 0.8215 0.8560
vt 0.8353 0.9121
vt 0.8513 0.9673
vt 0.8139 0.1524
vt 0.8027 0.2107
vt 0.7935 0.2693
vt 0.7863 0.3284
vt 0.7812 0.3877
vt 0.7782 0.4471
vt 0.7772 0.5065
vt 0.7783 0.5658
vt 0.7816 0.6248
vt 0.7869 0.6835
vt 0.7943 0.7418
vt 0.8039 0.7994
vt 0.8156 0.8564
vt 0.8294 0.9125
vt 0.8454 0.9677
vt 0.2003 0.1537
vt 0.1960 0.1533
vt 0.1473 0.2115
vt 0.1429 0.2111
vt 0.1040 0.2698
vt 0.0995 0.2695
vt 0.0702 0.3286
vt 0.0657 0.3283
vt 0.7766 0.3876
vt 0.7817 0.3282
vt 0.7736 0.4471
vt 0.7726 0.5065
vt 0.7737 0.5659
vt 0.7770 0.6250
vt 0.0730 0.6839
vt 0.0685 0.6841
vt 0.0434 0.6251
vt 0.0479 0.6249
vt 0.1080 0.7425
vt 0.1036 0.7428
vt 0.1531 0.8006
vt 0.1486 0.8010
vt 0.2081 0.8581
vt 0.2038 0.8585
vt 0.2690 0.9153
vt 0.2732 0.9148
vt 0.3443 0.9713
vt 0.3484 0.9707
vt 0.1903 0.1527
vt 0.1371 0.2107
vt 0.0936 0.2691
vt 0.0598 0.3281
vt 0.0417 0.3875
vt 0.0357 0.3873
vt 0.0274 0.4469
vt 0.0214 0.4468
vt 0.0229 0.5064
vt 0.0169 0.5064
vt 0.0282 0.5658
vt 0.0222 0.5659
vt 0.0375 0.6253
vt 0.0626 0.6844
vt 0.0977 0.7432
vt 0.1429 0.8014
vt 0.1981 0.8591
vt 0.2634 0.9160
vt 0.3388 0.9720
vt 0.1841 0.1522
vt 0.1309 0.2102
vt 0.0873 0.2688
vt 0.0534 0.3278
vt 0.0293 0.3872
vt 0.0150 0.4467
vt 0.0105 0.5064
vt 0.0158 0.5660
vt 0.0310 0.6255
vt 0.0562 0.6847
vt 0.0914 0.7435
vt 0.1366 0.8019
vt 0.1919 0.8596
vt 0.2573 0.9166
vt 0.3329 0.9727
vt 0.1784 0.1518
vt 0.1251 0.2099
vt 0.0815 0.2685
vt 0.0476 0.3276
vt 0.0234 0.3870
vt 0.0091 0.4466
vt 0.0045 0.5064
vt 0.0099 0.5661
vt 0.0251 0.6256
vt 0.0504 0.6849
vt 0.0856 0.7438
vt 0.1309 0.8022
vt 0.1862 0.8600
vt 0.2517 0.9171
vt 0.3273 0.9733
vt 0.1740 0.1515
vt 0.1207 0.2096
vt 0.0770 0.2683
vt 0.0431 0.3275
vt 0.0189 0.3869
vt 0.0045 0.4466
vt 0.0000 0.5064
vt 0.0054 0.5661
vt 0.0206 0.6257
vt 0.0459 0.6851
vt 0.0811 0.7440
vt 0.1264 0.8025
vt 0.1818 0.8604
vt 0.2474 0.9175
vt 0.3231 0.9738
vt 0.9092 0.8332
vt 0.9151 0.8332
vt 0.8977 0.7736
vt 0.9036 0.7735
vt 0.8883 0.7137
vt 0.8942 0.7137
vt 0.8810 0.6538
vt 0.8869 0.6537
vt 0.8758 0.5939
vt 0.8817 0.5939
vt 0.8727 0.5342
vt 0.8786 0.5342
vt 0.8717 0.4749
vt 0.8776 0.4748
vt 0.8729 0.4159
vt 0.8788 0.4158
vt 0.8762 0.3575
vt 0.8821 0.3573
vt 0.8816 0.2997
vt 0.8875 0.2995
vt 0.8892 0.2427
vt 0.8951 0.2425
vt 0.8989 0.1866
vt 0.9048 0.1864
vt 0.9108 0.1315
vt 0.9167 0.1313
vt 0.9308 0.0773
vt 0.9249 0.0775
vt 0.9471 0.0245
vt 0.9412 0.0247
vt 0.9215 0.8331
vt 0.9100 0.7735
vt 0.9006 0.7136
vt 0.8933 0.6537
vt 0.8881 0.5938
vt 0.8850 0.5341
vt 0.8841 0.4748
vt 0.8852 0.4158
vt 0.8885 0.3574
vt 0.8939 0.2996
vt 0.9015 0.2426
vt 0.9112 0.1865
vt 0.9232 0.1314
vt 0.9373 0.0774
vt 0.9535 0.0246
vt 0.9274 0.8329
vt 0.9160 0.7733
vt 0.9066 0.7135
vt 0.8993 0.6536
vt 0.8941 0.5938
vt 0.8910 0.5342
vt 0.8900 0.4749
vt 0.8912 0.4159
vt 0.8945 0.3576
vt 0.8999 0.2998
vt 0.9075 0.2429
vt 0.9172 0.1868
vt 0.9291 0.1317
vt 0.9432 0.0778
vt 0.9595 0.0251
vt 0.5603 0.8478
vt 0.5646 0.8474
vt 0.5070 0.7897
vt 0.5114 0.7894
vt 0.9112 0.7134
vt 0.9206 0.7731
vt 0.9039 0.6536
vt 0.8987 0.5938
vt 0.8956 0.5343
vt 0.8947 0.4750
vt 0.3918 0.4335
vt 0.3964 0.4336
vt 0.3910 0.4932
vt 0.3864 0.4932
vt 0.4071 0.3740
vt 0.4116 0.3741
vt 0.4323 0.3147
vt 0.4368 0.3149
vt 0.4675 0.2558
vt 0.4720 0.2561
vt 0.5128 0.1974
vt 0.5172 0.1977
vt 0.5681 0.1395
vt 0.5725 0.1400
vt 0.6379 0.0830
vt 0.6336 0.0825
vt 0.5703 0.8469
vt 0.5172 0.7889
vt 0.4679 0.7308
vt 0.4737 0.7304
vt 0.4340 0.6718
vt 0.4399 0.6715
vt 0.4099 0.6124
vt 0.4158 0.6123
vt 0.3955 0.5529
vt 0.4015 0.5528
vt 0.3970 0.4932
vt 0.4023 0.4337
vt 0.4175 0.3743
vt 0.4427 0.3152
vt 0.4778 0.2564
vt 0.5230 0.1982
vt 0.5782 0.1405
vt 0.6435 0.0836
vt 0.7189 0.0276
vt 0.9617 0.9906
vt 0.9553 0.9907
vt 0.8658 0.0005
vt 0.9494 0.9907
vt 0.8717 0.0004
vt 0.3609 0.0000
vt 0.3652 0.0004
vt 0.7726 0.9963
vt 0.7683 0.9967
vt 0.3707 0.0010
vt 0.7628 0.9973
vt 0.3767 0.0016
vt 0.7568 0.9980
vt 0.7513 0.9986
vt 0.3822 0.0023
vt 0.7471 0.9992
vt 0.3864 0.0029
vt 0.9676 0.9903
vt 0.3823 0.9976
vt 0.3768 0.9983
vt 0.7569 0.0013
vt 0.7628 0.0020
vt 0.3709 0.9990
vt 0.7684 0.0026
vt 0.3654 0.9996
vt 0.7726 0.0030
vt 0.3611 1.0000
vt 0.8717 0.9932
vt 0.8658 0.9930
vt 0.9494 0.0002
vt 0.9553 0.0000
vt 0.8594 0.9931
vt 0.9617 0.0001
vt 0.8534 0.9936
vt 0.9676 0.0006
vt 0.3864 0.9970
vn 0.7071 -0.0000 -0.7071
vn 0.0000 0.0000 1.0000
vn -0.3840 0.9233 -0.0049
vn -0.7078 0.7063 -0.0091
vn -0.7071 0.7071 0.0000
vn -0.3827 0.9239 0.0000
vn 0.5055 -0.7078 0.4934
vn 0.5000 -0.7071 0.5000
vn 0.6533 -0.3827 0.6533
vn 0.6610 -0.3832 0.6451
vn -0.2853 0.9228 -0.2589
vn -0.0022 1.0000 -0.0020
vn -0.0011 1.0000 -0.0010
vn -0.2748 0.9233 -0.2682
vn -0.5247 0.7056 -0.4762
vn -0.5065 0.7063 -0.4944
vn -0.6844 0.3816 -0.6212
vn -0.6613 0.3822 -0.6455
vn -0.7405 0.0000 -0.6721
vn -0.7156 0.0000 -0.6985
vn -0.6844 -0.3816 -0.6212
vn -0.6613 -0.3822 -0.6455
vn -0.5247 -0.7056 -0.4762
vn -0.5065 -0.7063 -0.4944
vn -0.2853 -0.9228 -0.2589
vn -0.2748 -0.9233 -0.2682
vn -0.0022 -1.0000 -0.0020
vn -0.0011 -1.0000 -0.0010
vn 0.2815 -0.9249 0.2555
vn 0.2729 -0.9244 0.2664
vn 0.5224 -0.7086 0.4742
vn 0.6837 -0.3838 0.6206
vn 0.7405 0.0000 0.6721
vn 0.7156 0.0000 0.6985
vn 0.6838 0.3838 0.6206
vn 0.6610 0.3832 0.6452
vn 0.5224 0.7086 0.4742
vn 0.5055 0.7078 0.4934
vn 0.2814 0.9249 0.2555
vn 0.2729 0.9244 0.2664
vn 0.2935 0.9249 0.2416
vn 0.5447 0.7086 0.4485
vn 0.3048 0.9249 0.2272
vn 0.5657 0.7086 0.4217
vn 0.3153 0.9249 0.2123
vn 0.5853 0.7086 0.3941
vn 0.3251 0.9249 0.1969
vn 0.6035 0.7086 0.3655
vn 0.3342 0.9249 0.1810
vn 0.6204 0.7086 0.3360
vn 0.3426 0.9249 0.1647
vn 0.6359 0.7086 0.3057
vn 0.3501 0.9249 0.1479
vn 0.6500 0.7086 0.2746
vn 0.3569 0.9249 0.1307
vn 0.6625 0.7086 0.2427
vn 0.3628 0.9249 0.1131
vn 0.6736 0.7086 0.2099
vn 0.3680 0.9250 0.0951
vn 0.6831 0.7086 0.1765
vn 0.3722 0.9250 0.0767
vn 0.6910 0.7086 0.1423
vn 0.3756 0.9250 0.0579
vn 0.6973 0.7087 0.1075
vn 0.3780 0.9250 0.0389
vn 0.7018 0.7087 0.0721
vn 0.7046 0.7087 0.0363
vn 0.3794 0.9250 0.0195
vn 0.7063 0.7079 0.0091
vn 0.3813 0.9244 0.0049
vn 0.7129 0.3838 0.5869
vn 0.7403 0.3837 0.5519
vn 0.7660 0.3837 0.5157
vn 0.7898 0.3838 0.4783
vn 0.8119 0.3838 0.4398
vn 0.8322 0.3838 0.4001
vn 0.8506 0.3837 0.3594
vn 0.8671 0.3837 0.3176
vn 0.8816 0.3837 0.2748
vn 0.8940 0.3838 0.2310
vn 0.9044 0.3838 0.1863
vn 0.9126 0.3838 0.1408
vn 0.9185 0.3838 0.0945
vn 0.9222 0.3838 0.0475
vn 0.9236 0.3832 0.0119
vn 0.7720 0.0000 0.6356
vn 0.8017 0.0000 0.5977
vn 0.8295 0.0000 0.5585
vn 0.8554 0.0000 0.5180
vn 0.8793 0.0000 0.4762
vn 0.9012 0.0000 0.4333
vn 0.9211 0.0000 0.3892
vn 0.9390 0.0000 0.3439
vn 0.9547 0.0000 0.2976
vn 0.9682 0.0000 0.2502
vn 0.9794 0.0000 0.2018
vn 0.9883 0.0000 0.1524
vn 0.9948 0.0000 0.1023
vn 0.9987 0.0000 0.0514
vn 0.9999 0.0000 0.0129
vn 0.7129 -0.3838 0.5869
vn 0.7403 -0.3838 0.5519
vn 0.7660 -0.3838 0.5157
vn 0.7898 -0.3838 0.4783
vn 0.8119 -0.3838 0.4398
vn 0.8322 -0.3838 0.4001
vn 0.8506 -0.3838 0.3594
vn 0.8671 -0.3838 0.3176
vn 0.8816 -0.3838 0.2748
vn 0.8940 -0.3838 0.2310
vn 0.9044 -0.3838 0.1863
vn 0.9126 -0.3838 0.1408
vn 0.9185 -0.3838 0.0944
vn 0.9222 -0.3838 0.0475
vn 0.9236 -0.3832 0.0119
vn 0.5447 -0.7086 0.4485
vn 0.5657 -0.7086 0.4217
vn 0.5853 -0.7086 0.3941
vn 0.6035 -0.7086 0.3655
vn 0.6204 -0.7086 0.3360
vn 0.6359 -0.7086 0.3057
vn 0.6499 -0.7086 0.2746
vn 0.6625 -0.7086 0.2427
vn 0.6736 -0.7086 0.2099
vn 0.6831 -0.7086 0.1765
vn 0.6910 -0.7086 0.1423
vn 0.6973 -0.7087 0.1075
vn 0.7018 -0.7087 0.0721
vn 0.7046 -0.7087 0.0363
vn 0.7063 -0.7079 0.0091
vn 0.2935 -0.9249 0.2416
vn 0.3048 -0.9249 0.2272
vn 0.3153 -0.9249 0.2123
vn 0.3252 -0.9249 0.1969
vn 0.3343 -0.9249 0.1810
vn 0.3426 -0.9249 0.1647
vn 0.3501 -0.9249 0.1479
vn 0.3569 -0.9249 0.1307
vn 0.3629 -0.9249 0.1131
vn 0.3680 -0.9249 0.0951
vn 0.3722 -0.9250 0.0767
vn 0.3756 -0.9250 0.0579
vn 0.3780 -0.9250 0.0389
vn 0.3795 -0.9250 0.0195
vn 0.3813 -0.9244 0.0049
vn -0.0023 -1.0000 -0.0019
vn -0.0024 -1.0000 -0.0018
vn -0.0025 -1.0000 -0.0016
vn -0.0025 -1.0000 -0.0015
vn -0.0026 -1.0000 -0.0014
vn -0.0027 -1.0000 -0.0013
vn -0.0028 -1.0000 -0.0012
vn -0.0028 -1.0000 -0.0010
vn -0.0029 -1.0000 -0.0009
vn -0.0030 -1.0000 -0.0008
vn -0.0031 -1.0000 -0.0006
vn -0.0031 -1.0000 -0.0005
vn -0.0031 -1.0000 -0.0003
vn -0.0032 -1.0000 -0.0002
vn -0.0016 -1.0000 -0.0000
vn -0.2974 -0.9228 -0.2448
vn -0.3088 -0.9228 -0.2303
vn -0.3196 -0.9228 -0.2152
vn -0.3295 -0.9228 -0.1995
vn -0.3387 -0.9228 -0.1835
vn -0.3472 -0.9228 -0.1669
vn -0.3549 -0.9228 -0.1499
vn -0.3618 -0.9228 -0.1325
vn -0.3678 -0.9228 -0.1146
vn -0.3731 -0.9228 -0.0964
vn -0.3774 -0.9228 -0.0777
vn -0.3808 -0.9228 -0.0587
vn -0.3833 -0.9227 -0.0394
vn -0.3849 -0.9227 -0.0198
vn -0.3840 -0.9233 -0.0049
vn -0.5470 -0.7056 -0.4504
vn -0.5681 -0.7056 -0.4235
vn -0.5878 -0.7056 -0.3957
vn -0.6061 -0.7056 -0.3670
vn -0.6230 -0.7056 -0.3375
vn -0.6386 -0.7056 -0.3070
vn -0.6527 -0.7056 -0.2758
vn -0.6653 -0.7056 -0.2437
vn -0.6765 -0.7056 -0.2109
vn -0.6861 -0.7056 -0.1773
vn -0.6941 -0.7056 -0.1430
vn -0.7003 -0.7056 -0.1080
vn -0.7049 -0.7055 -0.0725
vn -0.7077 -0.7055 -0.0364
vn -0.7078 -0.7063 -0.0091
vn -0.7136 -0.3816 -0.5875
vn -0.7410 -0.3816 -0.5524
vn -0.7667 -0.3816 -0.5162
vn -0.7906 -0.3816 -0.4788
vn -0.8127 -0.3816 -0.4402
vn -0.8330 -0.3817 -0.4005
vn -0.8514 -0.3816 -0.3597
vn -0.8679 -0.3816 -0.3179
vn -0.8824 -0.3816 -0.2750
vn -0.8949 -0.3816 -0.2312
vn -0.9053 -0.3816 -0.1865
vn -0.9135 -0.3816 -0.1409
vn -0.9195 -0.3816 -0.0945
vn -0.9231 -0.3815 -0.0475
vn -0.9240 -0.3821 -0.0119
vn -0.7720 0.0000 -0.6356
vn -0.8017 0.0000 -0.5977
vn -0.8295 0.0000 -0.5585
vn -0.8554 0.0000 -0.5180
vn -0.8793 0.0000 -0.4762
vn -0.9012 0.0000 -0.4333
vn -0.9211 0.0000 -0.3892
vn -0.9390 0.0000 -0.3439
vn -0.9547 0.0000 -0.2976
vn -0.9682 0.0000 -0.2502
vn -0.9794 0.0000 -0.2018
vn -0.9883 0.0000 -0.1524
vn -0.9948 -0.0000 -0.1023
vn -0.9987 0.0000 -0.0514
vn -0.9999 0.0000 -0.0128
vn -0.7136 0.3816 -0.5875
vn -0.7410 0.3816 -0.5524
vn -0.7667 0.3816 -0.5162
vn -0.7906 0.3816 -0.4788
vn -0.8127 0.3816 -0.4402
vn -0.8330 0.3817 -0.4005
vn -0.8514 0.3816 -0.3597
vn -0.8679 0.3816 -0.3179
vn -0.8824 0.3816 -0.2750
vn -0.8949 0.3816 -0.2312
vn -0.9053 0.3816 -0.1865
vn -0.9135 0.3816 -0.1409
vn -0.9195 0.3816 -0.0945
vn -0.9231 0.3816 -0.0475
vn -0.9240 0.3821 -0.0119
vn -0.5470 0.7056 -0.4504
vn -0.5681 0.7056 -0.4235
vn -0.5878 0.7056 -0.3957
vn -0.6061 0.7056 -0.3670
vn -0.6230 0.7056 -0.3375
vn -0.6386 0.7056 -0.3070
vn -0.6527 0.7056 -0.2758
vn -0.6654 0.7056 -0.2437
vn -0.6765 0.7056 -0.2109
vn -0.6861 0.7056 -0.1773
vn -0.6940 0.7056 -0.1429
vn -0.7003 0.7056 -0.1080
vn -0.7049 0.7056 -0.0725
vn -0.7077 0.7055 -0.0364
vn -0.2974 0.9228 -0.2448
vn -0.3088 0.9228 -0.2303
vn -0.3195 0.9228 -0.2152
vn -0.3295 0.9228 -0.1995
vn -0.3387 0.9228 -0.1835
vn -0.3472 0.9228 -0.1669
vn -0.3549 0.9228 -0.1499
vn -0.3618 0.9228 -0.1325
vn -0.3678 0.9228 -0.1146
vn -0.3731 0.9228 -0.0964
vn -0.3774 0.9228 -0.0777
vn -0.3808 0.9228 -0.0587
vn -0.3833 0.9227 -0.0394
vn -0.3849 0.9227 -0.0198
vn -0.0023 1.0000 -0.0019
vn -0.0024 1.0000 -0.0018
vn -0.0025 1.0000 -0.0016
vn -0.0025 1.0000 -0.0015
vn -0.0026 1.0000 -0.0014
vn -0.0027 1.0000 -0.0013
vn -0.0027 1.0000 -0.0012
vn -0.0028 1.0000 -0.0010
vn -0.0029 1.0000 -0.0009
vn -0.0030 1.0000 -0.0008
vn -0.0030 1.0000 -0.0006
vn -0.0031 1.0000 -0.0005
vn -0.0031 1.0000 -0.0003
vn -0.0032 1.0000 -0.0002
vn -0.0016 1.0000 -0.0000
vn -0.6533 0.3827 -0.6533
vn -0.7071 -0.0000 -0.7071
vn 0.7071 -0.0000 0.7071
vn -0.6533 -0.3827 -0.6533
vn 0.6533 0.3827 0.6533
vn -0.5000 -0.7071 -0.5000
vn 0.5000 0.7071 0.5000
vn -0.2706 -0.9239 -0.2706
vn 0.2706 0.9239 0.2706
vn 0.0000 -1.0000 0.0000
vn 0.0000 1.0000 0.0000
vn -0.2706 0.9239 -0.2706
vn 0.2706 -0.9239 0.2706
vn -0.5000 0.7071 -0.5000
vn 0.3827 -0.9239 -0.0000
vn 0.3827 0.9239 0.0000
vn -0.3827 -0.9239 -0.0000
vn 0.7071 0.7071 0.0000
vn -0.7071 -0.7071 -0.0000
vn 0.9239 0.3827 0.0000
vn -0.9239 -0.3827 -0.0000
vn 1.0000 -0.0000 -0.0000
vn -1.0000 -0.0000 -0.0000
vn 0.9239 -0.3827 -0.0000
vn -0.9239 0.3827 0.0000
vn 0.7071 -0.7071 -0.0000
usemtl None
s off
f 274/1/1 288/2/1 287/3/1 286/4/1 285/5/1 284/6/1 283/7/1 282/8/1 281/9/1 280/10/1 279/11/1 278/12/1 277/13/1 276/14/1 275/15/1 273/16/1
f 289/17/2 304/18/2 303/19/2 302/20/2 301/21/2 300/22/2 299/23/2 298/24/2 297/25/2 296/26/2 295/27/2 294/28/2 293/29/2 292/30/2 291/31/2 290/32/2
s 1
f 16/33/3 15/34/4 303/35/5 304/36/6
f 26/37/7 283/38/8 284/39/9 27/40/10
f 257/41/11 258/42/12 32/43/13 17/44/14
f 242/45/15 257/41/11 17/44/14 18/46/16
f 227/47/17 242/48/15 18/49/16 19/50/18
f 212/51/19 227/47/17 19/50/18 20/52/20
f 197/53/21 212/51/19 20/52/20 21/54/22
f 182/55/23 197/56/21 21/57/22 22/58/24
f 167/59/25 182/55/23 22/58/24 23/60/26
f 152/61/27 167/59/25 23/60/26 24/62/28
f 137/63/29 152/61/27 24/62/28 25/64/30
f 122/65/31 137/63/29 25/64/30 26/66/7
f 107/67/32 122/68/31 26/37/7 27/40/10
f 92/69/33 107/67/32 27/40/10 28/70/34
f 77/71/35 92/69/33 28/70/34 29/72/36
f 62/73/37 77/74/35 29/75/36 30/76/38
f 47/77/39 62/73/37 30/76/38 31/78/40
f 258/42/12 47/77/39 31/78/40 32/43/13
f 46/79/41 61/80/42 62/73/37 47/77/39
f 45/81/43 60/82/44 61/80/42 46/79/41
f 44/83/45 59/84/46 60/82/44 45/81/43
f 43/85/47 58/86/48 59/84/46 44/83/45
f 42/87/49 57/88/50 58/86/48 43/85/47
f 41/89/51 56/90/52 57/88/50 42/87/49
f 40/91/53 55/92/54 56/90/52 41/89/51
f 39/93/55 54/94/56 55/92/54 40/91/53
f 38/95/57 53/96/58 54/94/56 39/93/55
f 37/97/59 52/98/60 53/96/58 38/95/57
f 36/99/61 51/100/62 52/98/60 37/97/59
f 35/101/63 50/102/64 51/100/62 36/99/61
f 34/103/65 49/104/66 50/102/64 35/101/63
f 48/105/67 49/104/66 34/103/65 33/106/68
f 3/107/69 48/105/67 33/106/68 2/108/70
f 61/80/42 76/109/71 77/74/35 62/73/37
f 60/82/44 75/110/72 76/109/71 61/80/42
f 59/84/46 74/111/73 75/110/72 60/82/44
f 58/86/48 73/112/74 74/111/73 59/84/46
f 57/88/50 72/113/75 73/112/74 58/86/48
f 56/90/52 71/114/76 72/113/75 57/88/50
f 55/92/54 70/115/77 71/114/76 56/90/52
f 54/94/56 69/116/78 70/115/77 55/92/54
f 53/96/58 68/117/79 69/116/78 54/94/56
f 52/98/60 67/118/80 68/117/79 53/96/58
f 51/100/62 66/119/81 67/118/80 52/98/60
f 50/102/64 65/120/82 66/119/81 51/100/62
f 49/104/66 64/121/83 65/120/82 50/102/64
f 63/122/84 64/121/83 49/104/66 48/105/67
f 4/123/85 63/122/84 48/105/67 3/107/69
f 76/124/71 91/125/86 92/69/33 77/71/35
f 75/126/72 90/127/87 91/125/86 76/124/71
f 74/128/73 89/129/88 90/127/87 75/126/72
f 73/130/74 88/131/89 89/129/88 74/128/73
f 72/132/75 87/133/90 88/131/89 73/130/74
f 71/134/76 86/135/91 87/133/90 72/132/75
f 70/136/77 85/137/92 86/135/91 71/134/76
f 69/138/78 84/139/93 85/137/92 70/136/77
f 68/140/79 83/141/94 84/139/93 69/138/78
f 67/142/80 82/143/95 83/141/94 68/140/79
f 66/144/81 81/145/96 82/143/95 67/142/80
f 65/146/82 80/147/97 81/145/96 66/144/81
f 64/148/83 79/149/98 80/147/97 65/146/82
f 78/150/99 79/149/98 64/148/83 63/151/84
f 5/152/100 78/150/99 63/151/84 4/153/85
f 91/125/86 106/154/101 107/67/32 92/69/33
f 90/127/87 105/155/102 106/154/101 91/125/86
f 89/129/88 104/156/103 105/155/102 90/127/87
f 88/131/89 103/157/104 104/156/103 89/129/88
f 87/133/90 102/158/105 103/157/104 88/131/89
f 86/135/91 101/159/106 102/158/105 87/133/90
f 85/137/92 100/160/107 101/159/106 86/135/91
f 84/139/93 99/161/108 100/160/107 85/137/92
f 83/141/94 98/162/109 99/161/108 84/139/93
f 82/143/95 97/163/110 98/162/109 83/141/94
f 81/145/96 96/164/111 97/163/110 82/143/95
f 80/147/97 95/165/112 96/164/111 81/145/96
f 79/149/98 94/166/113 95/165/112 80/147/97
f 93/167/114 94/166/113 79/149/98 78/150/99
f 6/168/115 93/167/114 78/150/99 5/152/100
f 106/154/101 121/169/116 122/68/31 107/67/32
f 105/155/102 120/170/117 121/169/116 106/154/101
f 104/156/103 119/171/118 120/170/117 105/155/102
f 103/157/104 118/172/119 119/171/118 104/156/103
f 102/158/105 117/173/120 118/172/119 103/157/104
f 101/159/106 116/174/121 117/173/120 102/158/105
f 100/160/107 115/175/122 116/174/121 101/159/106
f 99/161/108 114/176/123 115/175/122 100/160/107
f 98/162/109 113/177/124 114/176/123 99/161/108
f 97/163/110 112/178/125 113/177/124 98/162/109
f 96/164/111 111/179/126 112/178/125 97/163/110
f 95/165/112 110/180/127 111/179/126 96/164/111
f 94/166/113 109/181/128 110/180/127 95/165/112
f 108/182/129 109/181/128 94/166/113 93/167/114
f 7/183/130 108/182/129 93/167/114 6/168/115
f 121/184/116 136/185/131 137/63/29 122/65/31
f 120/186/117 135/187/132 136/185/131 121/184/116
f 119/188/118 134/189/133 135/187/132 120/186/117
f 118/190/119 133/191/134 134/189/133 119/188/118
f 117/173/120 132/192/135 133/193/134 118/172/119
f 116/174/121 131/194/136 132/192/135 117/173/120
f 115/175/122 130/195/137 131/194/136 116/174/121
f 114/176/123 129/196/138 130/195/137 115/175/122
f 113/177/124 128/197/139 129/196/138 114/176/123
f 112/198/125 127/199/140 128/200/139 113/201/124
f 111/202/126 126/203/141 127/199/140 112/198/125
f 110/204/127 125/205/142 126/203/141 111/202/126
f 109/206/128 124/207/143 125/205/142 110/204/127
f 123/208/144 124/207/143 109/206/128 108/209/129
f 8/210/145 123/208/144 108/209/129 7/211/130
f 136/185/131 151/212/146 152/61/27 137/63/29
f 135/187/132 150/213/147 151/212/146 136/185/131
f 134/189/133 149/214/148 150/213/147 135/187/132
f 133/191/134 148/215/149 149/214/148 134/189/133
f 132/216/135 147/217/150 148/215/149 133/191/134
f 131/218/136 146/219/151 147/217/150 132/216/135
f 130/220/137 145/221/152 146/219/151 131/218/136
f 129/222/138 144/223/153 145/221/152 130/220/137
f 128/200/139 143/224/154 144/223/153 129/222/138
f 127/199/140 142/225/155 143/224/154 128/200/139
f 126/203/141 141/226/156 142/225/155 127/199/140
f 125/205/142 140/227/157 141/226/156 126/203/141
f 124/207/143 139/228/158 140/227/157 125/205/142
f 138/229/159 139/228/158 124/207/143 123/208/144
f 9/230/160 138/229/159 123/208/144 8/210/145
f 151/212/146 166/231/161 167/59/25 152/61/27
f 150/213/147 165/232/162 166/231/161 151/212/146
f 149/214/148 164/233/163 165/232/162 150/213/147
f 148/215/149 163/234/164 164/233/163 149/214/148
f 147/217/150 162/235/165 163/234/164 148/215/149
f 146/219/151 161/236/166 162/235/165 147/217/150
f 145/221/152 160/237/167 161/236/166 146/219/151
f 144/223/153 159/238/168 160/237/167 145/221/152
f 143/224/154 158/239/169 159/238/168 144/223/153
f 142/225/155 157/240/170 158/239/169 143/224/154
f 141/226/156 156/241/171 157/240/170 142/225/155
f 140/227/157 155/242/172 156/241/171 141/226/156
f 139/228/158 154/243/173 155/242/172 140/227/157
f 153/244/174 154/243/173 139/228/158 138/229/159
f 10/245/175 153/244/174 138/229/159 9/230/160
f 166/231/161 181/246/176 182/55/23 167/59/25
f 165/232/162 180/247/177 181/246/176 166/231/161
f 164/233/163 179/248/178 180/247/177 165/232/162
f 163/234/164 178/249/179 179/248/178 164/233/163
f 162/235/165 177/250/180 178/249/179 163/234/164
f 161/236/166 176/251/181 177/250/180 162/235/165
f 160/237/167 175/252/182 176/251/181 161/236/166
f 159/238/168 174/253/183 175/252/182 160/237/167
f 158/239/169 173/254/184 174/253/183 159/238/168
f 157/240/170 172/255/185 173/254/184 158/239/169
f 156/241/171 171/256/186 172/255/185 157/240/170
f 155/242/172 170/257/187 171/256/186 156/241/171
f 154/243/173 169/258/188 170/257/187 155/242/172
f 168/259/189 169/258/188 154/243/173 153/244/174
f 11/260/190 168/259/189 153/244/174 10/245/175
f 181/246/176 196/261/191 197/56/21 182/55/23
f 180/247/177 195/262/192 196/261/191 181/246/176
f 179/248/178 194/263/193 195/262/192 180/247/177
f 178/249/179 193/264/194 194/263/193 179/248/178
f 177/250/180 192/265/195 193/264/194 178/249/179
f 176/251/181 191/266/196 192/265/195 177/250/180
f 175/252/182 190/267/197 191/266/196 176/251/181
f 174/253/183 189/268/198 190/267/197 175/252/182
f 173/254/184 188/269/199 189/268/198 174/253/183
f 172/255/185 187/270/200 188/269/199 173/254/184
f 171/256/186 186/271/201 187/270/200 172/255/185
f 170/257/187 185/272/202 186/271/201 171/256/186
f 169/258/188 184/273/203 185/272/202 170/257/187
f 183/274/204 184/273/203 169/258/188 168/259/189
f 12/275/205 183/274/204 168/259/189 11/260/190
f 196/276/191 211/277/206 212/51/19 197/53/21
f 195/278/192 210/279/207 211/277/206 196/276/191
f 194/280/193 209/281/208 210/279/207 195/278/192
f 193/282/194 208/283/209 209/281/208 194/280/193
f 192/284/195 207/285/210 208/283/209 193/282/194
f 191/286/196 206/287/211 207/285/210 192/284/195
f 190/288/197 205/289/212 206/287/211 191/286/196
f 189/290/198 204/291/213 205/289/212 190/288/197
f 188/292/199 203/293/214 204/291/213 189/290/198
f 187/294/200 202/295/215 203/293/214 188/292/199
f 186/296/201 201/297/216 202/295/215 187/294/200
f 185/298/202 200/299/217 201/297/216 186/296/201
f 184/300/203 199/301/218 200/299/217 185/298/202
f 198/302/219 199/301/218 184/300/203 183/303/204
f 13/304/220 198/302/219 183/303/204 12/305/205
f 211/277/206 226/306/221 227/47/17 212/51/19
f 210/279/207 225/307/222 226/306/221 211/277/206
f 209/281/208 224/308/223 225/307/222 210/279/207
f 208/283/209 223/309/224 224/308/223 209/281/208
f 207/285/210 222/310/225 223/309/224 208/283/209
f 206/287/211 221/311/226 222/310/225 207/285/210
f 205/289/212 220/312/227 221/311/226 206/287/211
f 204/291/213 219/313/228 220/312/227 205/289/212
f 203/293/214 218/314/229 219/313/228 204/291/213
f 202/295/215 217/315/230 218/314/229 203/293/214
f 201/297/216 216/316/231 217/315/230 202/295/215
f 200/299/217 215/317/232 216/316/231 201/297/216
f 199/301/218 214/318/233 215/317/232 200/299/217
f 213/319/234 214/318/233 199/301/218 198/302/219
f 14/320/235 213/319/234 198/302/219 13/304/220
f 226/306/221 241/321/236 242/48/15 227/47/17
f 225/307/222 240/322/237 241/321/236 226/306/221
f 224/308/223 239/323/238 240/322/237 225/307/222
f 223/309/224 238/324/239 239/323/238 224/308/223
f 222/310/225 237/325/240 238/324/239 223/309/224
f 221/311/226 236/326/241 237/325/240 222/310/225
f 220/312/227 235/327/242 236/326/241 221/311/226
f 219/313/228 234/328/243 235/327/242 220/312/227
f 218/314/229 233/329/244 234/328/243 219/313/228
f 217/315/230 232/330/245 233/329/244 218/314/229
f 216/316/231 231/331/246 232/330/245 217/315/230
f 215/317/232 230/332/247 231/331/246 216/316/231
f 214/318/233 229/333/248 230/332/247 215/317/232
f 228/334/249 229/333/248 214/318/233 213/319/234
f 15/335/4 228/334/249 213/319/234 14/320/235
f 241/336/236 256/337/250 257/41/11 242/45/15
f 240/338/237 255/339/251 256/337/250 241/336/236
f 239/323/238 254/340/252 255/341/251 240/322/237
f 238/324/239 253/342/253 254/340/252 239/323/238
f 237/325/240 252/343/254 253/342/253 238/324/239
f 236/326/241 251/344/255 252/343/254 237/325/240
f 235/327/242 250/345/256 251/344/255 236/326/241
f 234/346/243 249/347/257 250/348/256 235/349/242
f 233/350/244 248/351/258 249/347/257 234/346/243
f 232/352/245 247/353/259 248/351/258 233/350/244
f 231/354/246 246/355/260 247/353/259 232/352/245
f 230/356/247 245/357/261 246/355/260 231/354/246
f 229/358/248 244/359/262 245/357/261 230/356/247
f 243/360/263 244/359/262 229/358/248 228/361/249
f 16/33/3 243/360/263 228/361/249 15/34/4
f 256/337/250 259/362/264 258/42/12 257/41/11
f 255/339/251 260/363/265 259/362/264 256/337/250
f 254/364/252 261/365/266 260/363/265 255/339/251
f 253/366/253 262/367/267 261/365/266 254/364/252
f 252/368/254 263/369/268 262/367/267 253/366/253
f 251/370/255 264/371/269 263/369/268 252/368/254
f 250/348/256 265/372/270 264/371/269 251/370/255
f 249/347/257 266/373/271 265/372/270 250/348/256
f 248/351/258 267/374/272 266/373/271 249/347/257
f 247/353/259 268/375/273 267/374/272 248/351/258
f 246/355/260 269/376/274 268/375/273 247/353/259
f 245/357/261 270/377/275 269/376/274 246/355/260
f 244/359/262 271/378/276 270/377/275 245/357/261
f 272/379/277 271/378/276 244/359/262 243/360/263
f 1/380/278 272/379/277 243/360/263 16/33/3
f 259/362/264 46/79/41 47/77/39 258/42/12
f 260/363/265 45/81/43 46/79/41 259/362/264
f 261/365/266 44/83/45 45/81/43 260/363/265
f 262/367/267 43/85/47 44/83/45 261/365/266
f 263/369/268 42/87/49 43/85/47 262/367/267
f 264/371/269 41/89/51 42/87/49 263/369/268
f 265/372/270 40/91/53 41/89/51 264/371/269
f 266/373/271 39/93/55 40/91/53 265/372/270
f 267/374/272 38/95/57 39/93/55 266/373/271
f 268/375/273 37/97/59 38/95/57 267/374/272
f 269/376/274 36/99/61 37/97/59 268/375/273
f 270/377/275 35/101/63 36/99/61 269/376/274
f 271/378/276 34/103/65 35/101/63 270/377/275
f 33/106/68 34/103/65 271/378/276 272/379/277
f 2/108/70 33/106/68 272/379/277 1/380/278
f 19/50/18 276/381/279 277/382/280 20/52/20
f 27/40/10 284/39/9 285/383/281 28/70/34
f 20/52/20 277/382/280 278/384/282 21/54/22
f 28/70/34 285/383/281 286/385/283 29/72/36
f 21/57/22 278/386/282 279/387/284 22/58/24
f 29/75/36 286/388/283 287/389/285 30/76/38
f 22/58/24 279/387/284 280/390/286 23/60/26
f 30/76/38 287/389/285 288/391/287 31/78/40
f 23/60/26 280/390/286 281/392/288 24/62/28
f 32/43/13 274/393/289 273/394/290 17/44/14
f 31/78/40 288/391/287 274/393/289 32/43/13
f 24/62/28 281/392/288 282/395/291 25/64/30
f 17/44/14 273/394/290 275/396/292 18/46/16
f 25/64/30 282/395/291 283/397/8 26/66/7
f 18/49/16 275/398/292 276/381/279 19/50/18
f 9/230/160 8/210/145 296/399/293 297/400/288
f 2/108/70 1/380/278 289/401/289 290/402/294
f 1/380/278 16/33/3 304/36/6 289/401/289
f 10/245/175 9/230/160 297/400/288 298/403/295
f 3/107/69 2/108/70 290/402/294 291/404/296
f 11/260/190 10/245/175 298/403/295 299/405/297
f 4/123/85 3/107/69 291/404/296 292/406/298
f 12/275/205 11/260/190 299/405/297 300/407/299
f 5/152/100 4/153/85 292/408/298 293/409/300
f 13/304/220 12/305/205 300/410/299 301/411/301
f 6/168/115 5/152/100 293/409/300 294/412/302
f 14/320/235 13/304/220 301/411/301 302/413/303
f 7/183/130 6/168/115 294/412/302 295/414/304
f 15/335/4 14/320/235 302/413/303 303/415/5
f 8/210/145 7/211/130 295/416/304 296/399/293
