# Blender v2.78 (sub 0) OBJ File: 'RollerCoasterRail45BigRamp.blend'
# www.blender.org
mtllib RollerCoasterRail45BigRamp.mtl
o Circle
v 0.500000 1.000000 -3.000000
v 0.308655 0.961937 -3.000000
v 0.146446 0.853554 -3.000000
v 0.038055 0.691345 -3.000000
v 0.000000 0.500000 -3.000000
v 0.038055 0.308655 -3.000000
v 0.146446 0.146446 -3.000000
v 0.308655 0.038063 -3.000000
v 0.500000 0.000000 -3.000000
v 0.691345 0.038063 -3.000000
v 0.853554 0.146446 -3.000000
v 0.961945 0.308655 -3.000000
v 1.000000 0.500000 -3.000000
v 0.961945 0.691345 -3.000000
v 0.853554 0.853554 -3.000000
v 0.691345 0.961937 -3.000000
v 0.853554 20.749998 -49.249996
v 0.691345 20.826635 -49.173359
v 0.500000 20.853552 -49.146442
v 0.961945 20.635302 -49.364693
v 1.000000 20.499998 -49.499996
v 0.961945 20.364698 -49.635296
v 0.853554 20.249998 -49.749996
v 0.691345 20.173361 -49.826633
v 0.500000 20.146444 -49.853550
v 0.308655 20.173361 -49.826633
v 0.146446 20.249998 -49.749996
v 0.038055 20.364698 -49.635296
v -0.000000 20.499998 -49.499996
v 0.038055 20.635302 -49.364693
v 0.146446 20.749998 -49.249996
v 0.308655 20.826635 -49.173359
v 0.308653 18.734951 -46.986530
v 0.308651 16.737823 -44.704937
v 0.308650 14.839418 -42.334270
v 0.308649 13.043935 -39.880241
v 0.308649 11.355560 -37.348579
v 0.308649 9.778475 -34.745018
v 0.308649 8.316853 -32.075287
v 0.308650 6.974855 -29.345133
v 0.308650 5.756637 -26.560286
v 0.308651 4.666339 -23.726486
v 0.308652 3.708097 -20.849470
v 0.308652 2.886032 -17.934965
v 0.308653 2.204255 -14.988701
v 0.308654 1.666867 -12.016389
v 0.308654 1.277963 -9.023730
v 0.308655 1.041626 -6.016410
v 0.146446 0.933392 -6.022089
v 0.146446 1.170164 -9.034963
v 0.146445 1.559768 -12.033019
v 0.146444 2.098101 -15.010567
v 0.146444 2.781050 -17.961903
v 0.146443 3.604499 -20.881313
v 0.146442 4.564322 -23.763081
v 0.146442 5.656386 -26.601475
v 0.146441 6.876550 -29.390766
v 0.146441 8.220662 -32.125229
v 0.146440 9.684569 -34.799133
v 0.146440 11.264105 -37.406738
v 0.146441 12.955096 -39.942322
v 0.146441 14.753366 -42.400154
v 0.146443 16.654728 -44.774517
v 0.146444 18.654997 -47.059700
v 0.038055 0.771406 -6.030587
v 0.038055 1.008829 -9.051774
v 0.038054 1.399481 -12.057908
v 0.038054 1.939229 -15.043291
v 0.038053 2.623932 -18.002214
v 0.038052 3.449451 -20.928972
v 0.038051 4.411640 -23.817846
v 0.038051 5.506349 -26.663116
v 0.038050 6.729423 -29.459064
v 0.038050 8.076704 -32.199974
v 0.038050 9.544028 -34.880119
v 0.038050 11.127230 -37.493774
v 0.038050 12.822136 -40.035233
v 0.038051 14.624575 -42.498764
v 0.038052 16.530365 -44.878662
v 0.038053 18.535334 -47.169205
v -0.000000 0.580323 -6.040613
v -0.000000 0.818514 -9.071605
v -0.000001 1.210401 -12.087267
v -0.000002 1.751817 -15.081892
v -0.000002 2.438589 -18.049770
v -0.000003 3.266551 -20.985193
v -0.000004 4.231529 -23.882450
v -0.000005 5.329358 -26.735836
v -0.000005 6.555864 -29.539635
v -0.000006 7.906881 -32.288147
v -0.000006 9.378236 -34.975655
v -0.000006 10.965762 -37.596451
v -0.000006 12.665287 -40.144836
v -0.000005 14.472645 -42.615086
v -0.000004 16.383659 -45.001503
v -0.000002 18.394167 -47.298378
v 0.038055 0.389241 -6.050638
v 0.038055 0.628199 -9.091435
v 0.038054 1.021323 -12.116628
v 0.038054 1.564406 -15.120495
v 0.038053 2.253248 -18.097324
v 0.038052 3.083652 -21.041412
v 0.038051 4.051422 -23.947056
v 0.038051 5.152370 -26.808552
v 0.038050 6.382310 -29.620201
v 0.038050 7.737062 -32.376316
v 0.038050 9.212449 -35.071186
v 0.038050 10.804300 -37.699127
v 0.038050 12.508445 -40.254433
v 0.038051 14.320717 -42.731403
v 0.038052 16.236959 -45.124348
v 0.038053 18.253006 -47.427547
v 0.146446 0.227255 -6.059136
v 0.146446 0.466864 -9.108247
v 0.146445 0.861035 -12.141516
v 0.146444 1.405532 -15.153217
v 0.146444 2.096129 -18.137636
v 0.146443 2.928602 -21.089071
v 0.146442 3.898738 -24.001820
v 0.146442 5.002330 -26.870195
v 0.146441 6.235181 -29.688499
v 0.146441 7.593099 -32.451057
v 0.146440 9.071904 -35.152176
v 0.146440 10.667422 -37.786167
v 0.146441 12.375479 -40.347347
v 0.146441 14.191924 -42.830017
v 0.146443 16.112593 -45.228493
v 0.146444 18.133341 -47.537060
v 0.308655 0.119021 -6.064815
v 0.308654 0.359065 -9.119479
v 0.308654 0.753935 -12.158145
v 0.308653 1.299378 -15.175080
v 0.308652 1.991147 -18.164572
v 0.308652 2.825003 -21.120916
v 0.308651 3.796719 -24.038412
v 0.308650 4.902079 -26.911381
v 0.308649 6.136874 -29.734135
v 0.308649 7.496909 -32.500999
v 0.308649 8.977997 -35.206287
v 0.308649 10.575962 -37.844326
v 0.308649 12.286639 -40.409424
v 0.308650 14.105868 -42.895905
v 0.308651 16.029497 -45.298065
v 0.308653 18.053383 -47.610222
v 0.500000 0.081010 -6.066809
v 0.500000 0.321206 -9.123424
v 0.499999 0.716322 -12.163986
v 0.499998 1.262096 -15.182760
v 0.499997 1.954276 -18.174032
v 0.499997 2.788618 -21.132101
v 0.499996 3.760889 -24.051266
v 0.499995 4.866869 -26.925846
v 0.499995 6.102346 -29.750162
v 0.499994 7.463125 -32.518536
v 0.499994 8.945015 -35.225292
v 0.499994 10.543841 -37.864750
v 0.499994 12.255435 -40.431229
v 0.499995 14.075643 -42.919044
v 0.499996 16.000313 -45.322510
v 0.499998 18.025297 -47.635925
v 0.691345 0.119021 -6.064815
v 0.691345 0.359065 -9.119480
v 0.691344 0.753935 -12.158145
v 0.691344 1.299378 -15.175082
v 0.691343 1.991147 -18.164572
v 0.691342 2.825003 -21.120916
v 0.691341 3.796720 -24.038416
v 0.691341 4.902079 -26.911385
v 0.691340 6.136874 -29.734138
v 0.691339 7.496910 -32.500999
v 0.691339 8.977998 -35.206287
v 0.691339 10.575963 -37.844322
v 0.691340 12.286639 -40.409424
v 0.691340 14.105868 -42.895905
v 0.691341 16.029499 -45.298065
v 0.691343 18.053385 -47.610229
v 0.853554 0.227255 -6.059136
v 0.853553 0.466864 -9.108248
v 0.853553 0.861035 -12.141517
v 0.853552 1.405533 -15.153218
v 0.853551 2.096129 -18.137638
v 0.853551 2.928603 -21.089071
v 0.853550 3.898738 -24.001822
v 0.853549 5.002331 -26.870195
v 0.853548 6.235180 -29.688503
v 0.853548 7.593100 -32.451057
v 0.853548 9.071904 -35.152176
v 0.853548 10.667421 -37.786171
v 0.853548 12.375480 -40.347351
v 0.853549 14.191924 -42.830017
v 0.853550 16.112593 -45.228493
v 0.853552 18.133337 -47.537060
v 0.961944 0.389241 -6.050637
v 0.961944 0.628199 -9.091435
v 0.961943 1.021323 -12.116627
v 0.961943 1.564406 -15.120494
v 0.961942 2.253248 -18.097324
v 0.961941 3.083652 -21.041412
v 0.961940 4.051422 -23.947052
v 0.961940 5.152370 -26.808548
v 0.961939 6.382309 -29.620201
v 0.961939 7.737062 -32.376312
v 0.961939 9.212448 -35.071186
v 0.961939 10.804299 -37.699123
v 0.961939 12.508444 -40.254440
v 0.961940 14.320717 -42.731403
v 0.961941 16.236959 -45.124344
v 0.961943 18.253006 -47.427547
v 1.000000 0.580323 -6.040612
v 0.999999 0.818514 -9.071605
v 0.999999 1.210401 -12.087267
v 0.999998 1.751817 -15.081892
v 0.999997 2.438589 -18.049770
v 0.999997 3.266551 -20.985193
v 0.999996 4.231529 -23.882450
v 0.999995 5.329358 -26.735836
v 0.999995 6.555864 -29.539635
v 0.999994 7.906881 -32.288147
v 0.999994 9.378236 -34.975655
v 0.999994 10.965762 -37.596451
v 0.999995 12.665287 -40.144836
v 0.999995 14.472643 -42.615086
v 0.999996 16.383659 -45.001503
v 0.999998 18.394167 -47.298378
v 0.961944 0.771406 -6.030587
v 0.961944 1.008829 -9.051775
v 0.961943 1.399481 -12.057909
v 0.961943 1.939228 -15.043292
v 0.961942 2.623932 -18.002214
v 0.961941 3.449451 -20.928972
v 0.961941 4.411640 -23.817848
v 0.961940 5.506349 -26.663116
v 0.961939 6.729424 -29.459064
v 0.961939 8.076703 -32.199974
v 0.961939 9.544027 -34.880119
v 0.961939 11.127230 -37.493782
v 0.961939 12.822136 -40.035233
v 0.961940 14.624575 -42.498768
v 0.961941 16.530367 -44.878658
v 0.961943 18.535332 -47.169209
v 0.853554 0.933392 -6.022089
v 0.853553 1.170164 -9.034964
v 0.853553 1.559768 -12.033020
v 0.853552 2.098101 -15.010568
v 0.853551 2.781050 -17.961903
v 0.853551 3.604499 -20.881315
v 0.853550 4.564322 -23.763081
v 0.853549 5.656386 -26.601475
v 0.853548 6.876550 -29.390766
v 0.853548 8.220663 -32.125229
v 0.853548 9.684570 -34.799133
v 0.853548 11.264105 -37.406734
v 0.853548 12.955096 -39.942322
v 0.853549 14.753365 -42.400154
v 0.853550 16.654728 -44.774517
v 0.853552 18.654995 -47.059696
v 0.691345 1.041626 -6.016410
v 0.691345 1.277963 -9.023730
v 0.691344 1.666867 -12.016389
v 0.691344 2.204255 -14.988701
v 0.691343 2.886032 -17.934967
v 0.691342 3.708097 -20.849470
v 0.691341 4.666339 -23.726486
v 0.691341 5.756637 -26.560287
v 0.691340 6.974855 -29.345133
v 0.691339 8.316852 -32.075287
v 0.691339 9.778475 -34.745018
v 0.691339 11.355560 -37.348579
v 0.691340 13.043935 -39.880241
v 0.691340 14.839418 -42.334270
v 0.691342 16.737822 -44.704937
v 0.691343 18.734951 -46.986530
v 0.500000 1.079637 -6.014416
v 0.500000 1.315821 -9.019785
v 0.499999 1.704480 -12.010549
v 0.499998 2.241536 -14.981024
v 0.499998 2.922902 -17.925507
v 0.499997 3.744482 -20.838285
v 0.499996 4.702168 -23.713634
v 0.499995 5.791845 -26.545820
v 0.499995 7.009381 -29.329105
v 0.499994 8.350636 -32.057751
v 0.499994 9.811456 -34.726013
v 0.499994 11.387681 -37.328156
v 0.499995 13.075136 -39.858437
v 0.499995 14.869643 -42.311131
v 0.499996 16.767008 -44.680496
v 0.499998 18.763033 -46.960835
v 8.500000 1.000000 -3.000000
v 8.308655 0.961937 -3.000000
v 8.146446 0.853554 -3.000000
v 8.038055 0.691345 -3.000000
v 8.000000 0.500000 -3.000000
v 8.038055 0.308655 -3.000000
v 8.146446 0.146446 -3.000000
v 8.308655 0.038063 -3.000000
v 8.500000 0.000000 -3.000000
v 8.691345 0.038063 -3.000000
v 8.853554 0.146446 -3.000000
v 8.961945 0.308655 -3.000000
v 9.000000 0.500000 -3.000000
v 8.961945 0.691345 -3.000000
v 8.853554 0.853554 -3.000000
v 8.691345 0.961937 -3.000000
v 8.853554 20.749998 -49.249996
v 8.691345 20.826635 -49.173359
v 8.500000 20.853552 -49.146442
v 8.961945 20.635302 -49.364693
v 9.000000 20.499998 -49.499996
v 8.961945 20.364698 -49.635296
v 8.853554 20.249998 -49.749996
v 8.691345 20.173361 -49.826633
v 8.500000 20.146444 -49.853550
v 8.308655 20.173361 -49.826633
v 8.146446 20.249998 -49.749996
v 8.038055 20.364698 -49.635296
v 8.000000 20.499998 -49.499996
v 8.038055 20.635302 -49.364693
v 8.146446 20.749998 -49.249996
v 8.308655 20.826635 -49.173359
v 8.308653 18.734951 -46.986530
v 8.308651 16.737823 -44.704937
v 8.308650 14.839418 -42.334270
v 8.308649 13.043935 -39.880241
v 8.308649 11.355560 -37.348579
v 8.308649 9.778475 -34.745018
v 8.308649 8.316853 -32.075287
v 8.308649 6.974855 -29.345133
v 8.308650 5.756637 -26.560286
v 8.308651 4.666339 -23.726486
v 8.308652 3.708097 -20.849470
v 8.308652 2.886032 -17.934965
v 8.308653 2.204255 -14.988701
v 8.308654 1.666867 -12.016389
v 8.308654 1.277963 -9.023730
v 8.308655 1.041626 -6.016410
v 8.146446 0.933392 -6.022089
v 8.146446 1.170164 -9.034963
v 8.146445 1.559768 -12.033019
v 8.146444 2.098101 -15.010567
v 8.146444 2.781050 -17.961903
v 8.146443 3.604499 -20.881313
v 8.146442 4.564322 -23.763081
v 8.146441 5.656386 -26.601475
v 8.146441 6.876550 -29.390766
v 8.146441 8.220662 -32.125229
v 8.146441 9.684569 -34.799133
v 8.146441 11.264105 -37.406738
v 8.146441 12.955096 -39.942322
v 8.146441 14.753366 -42.400154
v 8.146442 16.654728 -44.774517
v 8.146444 18.654997 -47.059700
v 8.038055 0.771406 -6.030587
v 8.038055 1.008829 -9.051774
v 8.038054 1.399481 -12.057908
v 8.038054 1.939229 -15.043291
v 8.038054 2.623932 -18.002214
v 8.038053 3.449451 -20.928972
v 8.038052 4.411640 -23.817846
v 8.038051 5.506349 -26.663116
v 8.038051 6.729423 -29.459064
v 8.038050 8.076704 -32.199974
v 8.038050 9.544028 -34.880119
v 8.038050 11.127230 -37.493774
v 8.038050 12.822136 -40.035233
v 8.038051 14.624575 -42.498764
v 8.038052 16.530365 -44.878662
v 8.038054 18.535334 -47.169205
v 8.000000 0.580323 -6.040613
v 8.000000 0.818514 -9.071605
v 7.999999 1.210401 -12.087267
v 7.999998 1.751817 -15.081892
v 7.999998 2.438589 -18.049770
v 7.999997 3.266551 -20.985193
v 7.999996 4.231529 -23.882450
v 7.999995 5.329358 -26.735836
v 7.999995 6.555864 -29.539635
v 7.999994 7.906881 -32.288147
v 7.999994 9.378236 -34.975655
v 7.999994 10.965762 -37.596451
v 7.999994 12.665287 -40.144836
v 7.999995 14.472645 -42.615086
v 7.999996 16.383659 -45.001503
v 7.999998 18.394167 -47.298378
v 8.038055 0.389241 -6.050638
v 8.038055 0.628199 -9.091435
v 8.038054 1.021323 -12.116628
v 8.038054 1.564406 -15.120495
v 8.038054 2.253248 -18.097324
v 8.038053 3.083652 -21.041412
v 8.038052 4.051422 -23.947056
v 8.038051 5.152370 -26.808552
v 8.038050 6.382310 -29.620201
v 8.038050 7.737062 -32.376316
v 8.038050 9.212449 -35.071186
v 8.038050 10.804300 -37.699127
v 8.038050 12.508445 -40.254433
v 8.038051 14.320717 -42.731403
v 8.038052 16.236959 -45.124348
v 8.038054 18.253006 -47.427547
v 8.146446 0.227255 -6.059136
v 8.146446 0.466864 -9.108247
v 8.146445 0.861035 -12.141516
v 8.146444 1.405532 -15.153217
v 8.146444 2.096129 -18.137636
v 8.146443 2.928602 -21.089071
v 8.146442 3.898738 -24.001820
v 8.146441 5.002330 -26.870195
v 8.146441 6.235181 -29.688499
v 8.146441 7.593099 -32.451057
v 8.146441 9.071904 -35.152176
v 8.146441 10.667422 -37.786167
v 8.146441 12.375479 -40.347347
v 8.146441 14.191924 -42.830017
v 8.146442 16.112593 -45.228493
v 8.146444 18.133341 -47.537060
v 8.308655 0.119021 -6.064815
v 8.308655 0.359065 -9.119479
v 8.308654 0.753935 -12.158145
v 8.308653 1.299378 -15.175080
v 8.308652 1.991147 -18.164572
v 8.308652 2.825003 -21.120916
v 8.308651 3.796719 -24.038412
v 8.308650 4.902079 -26.911381
v 8.308649 6.136874 -29.734135
v 8.308649 7.496909 -32.500999
v 8.308649 8.977997 -35.206287
v 8.308649 10.575962 -37.844326
v 8.308649 12.286639 -40.409424
v 8.308650 14.105868 -42.895905
v 8.308651 16.029497 -45.298065
v 8.308653 18.053383 -47.610222
v 8.500000 0.081010 -6.066809
v 8.500000 0.321206 -9.123424
v 8.499999 0.716322 -12.163986
v 8.499998 1.262096 -15.182760
v 8.499997 1.954276 -18.174032
v 8.499997 2.788618 -21.132101
v 8.499996 3.760889 -24.051266
v 8.499995 4.866869 -26.925846
v 8.499994 6.102346 -29.750162
v 8.499994 7.463125 -32.518536
v 8.499994 8.945015 -35.225292
v 8.499994 10.543841 -37.864750
v 8.499994 12.255435 -40.431229
v 8.499995 14.075643 -42.919044
v 8.499996 16.000313 -45.322510
v 8.499998 18.025297 -47.635925
v 8.691345 0.119021 -6.064815
v 8.691345 0.359065 -9.119480
v 8.691344 0.753935 -12.158145
v 8.691343 1.299378 -15.175082
v 8.691342 1.991147 -18.164572
v 8.691342 2.825003 -21.120916
v 8.691341 3.796720 -24.038416
v 8.691340 4.902079 -26.911385
v 8.691339 6.136874 -29.734138
v 8.691339 7.496910 -32.500999
v 8.691339 8.977998 -35.206287
v 8.691339 10.575963 -37.844322
v 8.691339 12.286639 -40.409424
v 8.691340 14.105868 -42.895905
v 8.691341 16.029499 -45.298065
v 8.691343 18.053385 -47.610229
v 8.853554 0.227255 -6.059136
v 8.853554 0.466864 -9.108248
v 8.853553 0.861035 -12.141517
v 8.853552 1.405533 -15.153218
v 8.853551 2.096129 -18.137638
v 8.853551 2.928603 -21.089071
v 8.853550 3.898738 -24.001822
v 8.853549 5.002331 -26.870195
v 8.853548 6.235180 -29.688503
v 8.853548 7.593100 -32.451057
v 8.853548 9.071904 -35.152176
v 8.853548 10.667421 -37.786171
v 8.853548 12.375480 -40.347351
v 8.853549 14.191924 -42.830017
v 8.853550 16.112593 -45.228493
v 8.853552 18.133337 -47.537060
v 8.961945 0.389241 -6.050637
v 8.961944 0.628199 -9.091435
v 8.961944 1.021323 -12.116627
v 8.961943 1.564406 -15.120494
v 8.961942 2.253248 -18.097324
v 8.961942 3.083652 -21.041412
v 8.961941 4.051422 -23.947052
v 8.961940 5.152370 -26.808548
v 8.961939 6.382309 -29.620201
v 8.961939 7.737062 -32.376312
v 8.961939 9.212448 -35.071186
v 8.961939 10.804299 -37.699123
v 8.961939 12.508444 -40.254440
v 8.961940 14.320717 -42.731403
v 8.961941 16.236959 -45.124344
v 8.961943 18.253006 -47.427547
v 9.000000 0.580323 -6.040612
v 8.999999 0.818514 -9.071605
v 8.999999 1.210401 -12.087267
v 8.999998 1.751817 -15.081892
v 8.999997 2.438589 -18.049770
v 8.999997 3.266551 -20.985193
v 8.999996 4.231529 -23.882450
v 8.999995 5.329358 -26.735836
v 8.999994 6.555864 -29.539635
v 8.999994 7.906881 -32.288147
v 8.999994 9.378236 -34.975655
v 8.999994 10.965762 -37.596451
v 8.999994 12.665287 -40.144836
v 8.999995 14.472643 -42.615086
v 8.999996 16.383659 -45.001503
v 8.999998 18.394167 -47.298378
v 8.961945 0.771406 -6.030587
v 8.961944 1.008829 -9.051775
v 8.961944 1.399481 -12.057909
v 8.961943 1.939228 -15.043292
v 8.961942 2.623932 -18.002214
v 8.961942 3.449451 -20.928972
v 8.961941 4.411640 -23.817848
v 8.961940 5.506349 -26.663116
v 8.961939 6.729424 -29.459064
v 8.961939 8.076703 -32.199974
v 8.961939 9.544027 -34.880119
v 8.961939 11.127230 -37.493782
v 8.961939 12.822136 -40.035233
v 8.961940 14.624575 -42.498768
v 8.961941 16.530367 -44.878658
v 8.961943 18.535332 -47.169209
v 8.853554 0.933392 -6.022089
v 8.853554 1.170164 -9.034964
v 8.853553 1.559768 -12.033020
v 8.853552 2.098101 -15.010568
v 8.853551 2.781050 -17.961903
v 8.853551 3.604499 -20.881315
v 8.853550 4.564322 -23.763081
v 8.853549 5.656386 -26.601475
v 8.853548 6.876550 -29.390766
v 8.853548 8.220663 -32.125229
v 8.853548 9.684570 -34.799133
v 8.853548 11.264105 -37.406734
v 8.853548 12.955096 -39.942322
v 8.853549 14.753365 -42.400154
v 8.853550 16.654728 -44.774517
v 8.853552 18.654995 -47.059696
v 8.691345 1.041626 -6.016410
v 8.691344 1.277963 -9.023730
v 8.691344 1.666867 -12.016389
v 8.691343 2.204255 -14.988701
v 8.691342 2.886032 -17.934967
v 8.691342 3.708097 -20.849470
v 8.691341 4.666339 -23.726486
v 8.691340 5.756637 -26.560287
v 8.691339 6.974855 -29.345133
v 8.691339 8.316852 -32.075287
v 8.691339 9.778475 -34.745018
v 8.691339 11.355560 -37.348579
v 8.691339 13.043935 -39.880241
v 8.691340 14.839418 -42.334270
v 8.691341 16.737822 -44.704937
v 8.691343 18.734951 -46.986530
v 8.500000 1.079637 -6.014416
v 8.500000 1.315821 -9.019785
v 8.499999 1.704480 -12.010549
v 8.499998 2.241536 -14.981024
v 8.499997 2.922902 -17.925507
v 8.499997 3.744482 -20.838285
v 8.499996 4.702168 -23.713634
v 8.499995 5.791845 -26.545820
v 8.499994 7.009381 -29.329105
v 8.499994 8.350636 -32.057751
v 8.499994 9.811456 -34.726013
v 8.499994 11.387681 -37.328156
v 8.499994 13.075136 -39.858437
v 8.499995 14.869643 -42.311131
v 8.499996 16.767008 -44.680496
v 8.499998 18.763033 -46.960835
v 0.500000 1.000000 0.000000
v 0.308655 0.961937 0.000000
v 0.146446 0.853554 0.000000
v 0.038055 0.691345 0.000000
v 0.000000 0.500000 0.000000
v 0.038055 0.308655 0.000000
v 0.146446 0.146446 0.000000
v 0.308655 0.038063 0.000000
v 0.500000 0.000000 0.000000
v 0.691345 0.038063 0.000000
v 0.853554 0.146446 0.000000
v 0.961945 0.308655 0.000000
v 1.000000 0.500000 0.000000
v 0.961945 0.691345 0.000000
v 0.853554 0.853554 0.000000
v 0.691345 0.961937 0.000000
v 8.500000 1.000000 0.000000
v 8.308655 0.961937 0.000000
v 8.146446 0.853554 0.000000
v 8.038055 0.691345 0.000000
v 8.000000 0.500000 0.000000
v 8.038055 0.308655 0.000000
v 8.146446 0.146446 0.000000
v 8.308655 0.038063 0.000000
v 8.500000 0.000000 0.000000
v 8.691345 0.038063 0.000000
v 8.853554 0.146446 0.000000
v 8.961945 0.308655 0.000000
v 9.000000 0.500000 0.000000
v 8.961945 0.691345 0.000000
v 8.853554 0.853554 0.000000
v 8.691345 0.961937 0.000000
v 0.853554 22.749998 -51.249996
v 0.691345 22.826635 -51.173359
v 0.500000 22.853552 -51.146442
v 0.961945 22.635302 -51.364693
v 1.000000 22.499998 -51.499996
v 0.961945 22.364698 -51.635296
v 0.853554 22.249998 -51.749996
v 0.691345 22.173361 -51.826633
v 0.500000 22.146444 -51.853550
v 0.308655 22.173361 -51.826633
v 0.146446 22.249998 -51.749996
v 0.038055 22.364698 -51.635296
v -0.000000 22.499998 -51.499996
v 0.038055 22.635302 -51.364693
v 0.146446 22.749998 -51.249996
v 0.308655 22.826635 -51.173359
v 8.853554 22.749998 -51.249996
v 8.691345 22.826635 -51.173359
v 8.500000 22.853552 -51.146442
v 8.961945 22.635302 -51.364693
v 9.000000 22.499998 -51.499996
v 8.961945 22.364698 -51.635296
v 8.853554 22.249998 -51.749996
v 8.691345 22.173361 -51.826633
v 8.500000 22.146444 -51.853550
v 8.308655 22.173361 -51.826633
v 8.146446 22.249998 -51.749996
v 8.038055 22.364698 -51.635296
v 8.000000 22.499998 -51.499996
v 8.038055 22.635302 -51.364693
v 8.146446 22.749998 -51.249996
v 8.308655 22.826635 -51.173359
vt 1.0000 0.0316
vt 0.9969 0.0352
vt 0.9912 0.0380
vt 0.9838 0.0395
vt 0.9757 0.0395
vt 0.9683 0.0380
vt 0.9626 0.0352
vt 0.9595 0.0316
vt 0.9595 0.0276
vt 0.9626 0.0240
vt 0.9683 0.0212
vt 0.9757 0.0197
vt 0.9838 0.0197
vt 0.9912 0.0212
vt 0.9969 0.0240
vt 1.0000 0.0276
vt 1.0000 0.0316
vt 0.9969 0.0352
vt 0.9912 0.0380
vt 0.9838 0.0395
vt 0.9757 0.0395
vt 0.9683 0.0380
vt 0.9626 0.0352
vt 0.9595 0.0316
vt 0.9595 0.0276
vt 0.9626 0.0240
vt 0.9683 0.0212
vt 0.9757 0.0197
vt 0.9838 0.0197
vt 0.9912 0.0212
vt 0.9969 0.0240
vt 1.0000 0.0276
vt 1.0000 0.0316
vt 1.0000 0.0276
vt 0.9969 0.0240
vt 0.9912 0.0212
vt 0.9838 0.0197
vt 0.9757 0.0197
vt 0.9683 0.0212
vt 0.9626 0.0240
vt 0.9595 0.0276
vt 0.9595 0.0316
vt 0.9626 0.0352
vt 0.9683 0.0380
vt 0.9757 0.0395
vt 0.9838 0.0395
vt 0.9912 0.0380
vt 0.9969 0.0352
vt 1.0000 0.0316
vt 1.0000 0.0276
vt 0.9969 0.0240
vt 0.9912 0.0212
vt 0.9838 0.0197
vt 0.9757 0.0197
vt 0.9683 0.0212
vt 0.9626 0.0240
vt 0.9595 0.0276
vt 0.9595 0.0316
vt 0.9626 0.0352
vt 0.9683 0.0380
vt 0.9757 0.0395
vt 0.9838 0.0395
vt 0.9912 0.0380
vt 0.9969 0.0352
vt 0.9595 0.0276
vt 0.9595 0.0276
vt 0.9595 0.0276
vt 0.9683 0.0212
vt 0.9683 0.0212
vt 0.9683 0.0212
vt 0.9915 0.0378
vt 0.9915 0.0378
vt 0.9912 0.0380
vt 0.9912 0.0380
vt 0.9842 0.0394
vt 0.9842 0.0394
vt 0.9838 0.0395
vt 0.9838 0.0395
vt 0.9762 0.0395
vt 0.9762 0.0395
vt 0.9757 0.0395
vt 0.9757 0.0395
vt 0.9687 0.0380
vt 0.9687 0.0380
vt 0.9683 0.0380
vt 0.9683 0.0380
vt 0.9629 0.0353
vt 0.9629 0.0353
vt 0.9626 0.0352
vt 0.9626 0.0352
vt 0.9597 0.0318
vt 0.9597 0.0318
vt 0.9595 0.0316
vt 0.9595 0.0316
vt 0.9595 0.0279
vt 0.9595 0.0279
vt 0.9595 0.0276
vt 0.9595 0.0276
vt 0.9624 0.0242
vt 0.9624 0.0242
vt 0.9626 0.0240
vt 0.9626 0.0240
vt 0.9679 0.0214
vt 0.9679 0.0214
vt 0.9683 0.0212
vt 0.9683 0.0212
vt 0.9753 0.0198
vt 0.9753 0.0198
vt 0.9757 0.0197
vt 0.9757 0.0197
vt 0.9833 0.0197
vt 0.9833 0.0197
vt 0.9838 0.0197
vt 0.9838 0.0197
vt 0.9908 0.0211
vt 0.9908 0.0211
vt 0.9912 0.0212
vt 0.9912 0.0212
vt 0.9966 0.0238
vt 0.9966 0.0238
vt 0.9969 0.0240
vt 0.9969 0.0240
vt 0.9998 0.0274
vt 0.9998 0.0274
vt 1.0000 0.0276
vt 1.0000 0.0276
vt 1.0000 0.0313
vt 1.0000 0.0313
vt 1.0000 0.0316
vt 1.0000 0.0316
vt 0.9971 0.0350
vt 0.9971 0.0350
vt 0.9969 0.0352
vt 0.9969 0.0352
vt 0.9919 0.0376
vt 0.9919 0.0376
vt 0.9922 0.0375
vt 0.9922 0.0375
vt 0.9926 0.0373
vt 0.9926 0.0373
vt 0.9929 0.0371
vt 0.9929 0.0371
vt 0.9932 0.0370
vt 0.9932 0.0370
vt 0.9936 0.0368
vt 0.9936 0.0368
vt 0.9939 0.0366
vt 0.9939 0.0366
vt 0.9942 0.0365
vt 0.9942 0.0365
vt 0.9946 0.0363
vt 0.9946 0.0363
vt 0.9949 0.0362
vt 0.9949 0.0362
vt 0.9952 0.0360
vt 0.9952 0.0360
vt 0.9956 0.0358
vt 0.9956 0.0358
vt 0.9959 0.0357
vt 0.9959 0.0357
vt 0.9962 0.0355
vt 0.9962 0.0355
vt 0.9966 0.0353
vt 0.9966 0.0353
vt 0.9969 0.0352
vt 0.9969 0.0352
vt 0.9846 0.0393
vt 0.9846 0.0393
vt 0.9851 0.0392
vt 0.9851 0.0392
vt 0.9855 0.0391
vt 0.9855 0.0391
vt 0.9860 0.0390
vt 0.9860 0.0390
vt 0.9864 0.0389
vt 0.9864 0.0389
vt 0.9868 0.0388
vt 0.9868 0.0388
vt 0.9873 0.0387
vt 0.9873 0.0387
vt 0.9877 0.0387
vt 0.9877 0.0387
vt 0.9881 0.0386
vt 0.9881 0.0386
vt 0.9886 0.0385
vt 0.9886 0.0385
vt 0.9890 0.0384
vt 0.9890 0.0384
vt 0.9895 0.0383
vt 0.9895 0.0383
vt 0.9899 0.0382
vt 0.9899 0.0382
vt 0.9903 0.0381
vt 0.9903 0.0381
vt 0.9908 0.0380
vt 0.9908 0.0380
vt 0.9912 0.0380
vt 0.9912 0.0380
vt 0.9767 0.0395
vt 0.9767 0.0395
vt 0.9771 0.0395
vt 0.9771 0.0395
vt 0.9776 0.0395
vt 0.9776 0.0395
vt 0.9781 0.0395
vt 0.9781 0.0395
vt 0.9785 0.0395
vt 0.9785 0.0395
vt 0.9790 0.0395
vt 0.9790 0.0395
vt 0.9795 0.0395
vt 0.9795 0.0395
vt 0.9800 0.0395
vt 0.9800 0.0395
vt 0.9804 0.0395
vt 0.9804 0.0395
vt 0.9809 0.0395
vt 0.9809 0.0395
vt 0.9814 0.0395
vt 0.9814 0.0395
vt 0.9819 0.0395
vt 0.9819 0.0395
vt 0.9823 0.0395
vt 0.9823 0.0395
vt 0.9828 0.0395
vt 0.9828 0.0395
vt 0.9833 0.0395
vt 0.9833 0.0395
vt 0.9838 0.0395
vt 0.9838 0.0395
vt 0.9691 0.0381
vt 0.9691 0.0381
vt 0.9696 0.0382
vt 0.9696 0.0382
vt 0.9700 0.0383
vt 0.9700 0.0383
vt 0.9704 0.0384
vt 0.9704 0.0384
vt 0.9709 0.0385
vt 0.9709 0.0385
vt 0.9713 0.0386
vt 0.9713 0.0386
vt 0.9718 0.0387
vt 0.9718 0.0387
vt 0.9722 0.0387
vt 0.9722 0.0387
vt 0.9726 0.0388
vt 0.9726 0.0388
vt 0.9731 0.0389
vt 0.9731 0.0389
vt 0.9735 0.0390
vt 0.9735 0.0390
vt 0.9740 0.0391
vt 0.9740 0.0391
vt 0.9744 0.0392
vt 0.9744 0.0392
vt 0.9748 0.0393
vt 0.9748 0.0393
vt 0.9753 0.0394
vt 0.9753 0.0394
vt 0.9757 0.0395
vt 0.9757 0.0395
vt 0.9632 0.0355
vt 0.9632 0.0355
vt 0.9636 0.0357
vt 0.9636 0.0357
vt 0.9639 0.0358
vt 0.9639 0.0358
vt 0.9642 0.0360
vt 0.9642 0.0360
vt 0.9646 0.0362
vt 0.9646 0.0362
vt 0.9649 0.0363
vt 0.9649 0.0363
vt 0.9652 0.0365
vt 0.9652 0.0365
vt 0.9656 0.0366
vt 0.9656 0.0366
vt 0.9659 0.0368
vt 0.9659 0.0368
vt 0.9662 0.0370
vt 0.9662 0.0370
vt 0.9666 0.0371
vt 0.9666 0.0371
vt 0.9669 0.0373
vt 0.9669 0.0373
vt 0.9673 0.0375
vt 0.9673 0.0375
vt 0.9676 0.0376
vt 0.9676 0.0376
vt 0.9679 0.0378
vt 0.9679 0.0378
vt 0.9683 0.0380
vt 0.9683 0.0380
vt 0.9598 0.0320
vt 0.9598 0.0320
vt 0.9600 0.0322
vt 0.9600 0.0322
vt 0.9602 0.0324
vt 0.9602 0.0324
vt 0.9604 0.0326
vt 0.9604 0.0326
vt 0.9606 0.0328
vt 0.9606 0.0328
vt 0.9607 0.0330
vt 0.9607 0.0330
vt 0.9609 0.0333
vt 0.9609 0.0333
vt 0.9611 0.0335
vt 0.9611 0.0335
vt 0.9613 0.0337
vt 0.9613 0.0337
vt 0.9615 0.0339
vt 0.9615 0.0339
vt 0.9616 0.0341
vt 0.9616 0.0341
vt 0.9618 0.0343
vt 0.9618 0.0343
vt 0.9620 0.0345
vt 0.9620 0.0345
vt 0.9622 0.0348
vt 0.9622 0.0348
vt 0.9624 0.0350
vt 0.9624 0.0350
vt 0.9626 0.0352
vt 0.9626 0.0352
vt 0.9595 0.0281
vt 0.9595 0.0281
vt 0.9595 0.0283
vt 0.9595 0.0283
vt 0.9595 0.0286
vt 0.9595 0.0286
vt 0.9595 0.0288
vt 0.9595 0.0288
vt 0.9595 0.0290
vt 0.9595 0.0290
vt 0.9595 0.0292
vt 0.9595 0.0292
vt 0.9595 0.0295
vt 0.9595 0.0295
vt 0.9595 0.0297
vt 0.9595 0.0297
vt 0.9595 0.0299
vt 0.9595 0.0299
vt 0.9595 0.0302
vt 0.9595 0.0302
vt 0.9595 0.0304
vt 0.9595 0.0304
vt 0.9595 0.0306
vt 0.9595 0.0306
vt 0.9595 0.0309
vt 0.9595 0.0309
vt 0.9595 0.0311
vt 0.9595 0.0311
vt 0.9595 0.0313
vt 0.9595 0.0313
vt 0.9595 0.0316
vt 0.9595 0.0316
vt 0.9622 0.0244
vt 0.9622 0.0244
vt 0.9620 0.0246
vt 0.9620 0.0246
vt 0.9618 0.0249
vt 0.9618 0.0249
vt 0.9616 0.0251
vt 0.9616 0.0251
vt 0.9615 0.0253
vt 0.9615 0.0253
vt 0.9613 0.0255
vt 0.9613 0.0255
vt 0.9611 0.0257
vt 0.9611 0.0257
vt 0.9609 0.0259
vt 0.9609 0.0259
vt 0.9607 0.0261
vt 0.9607 0.0261
vt 0.9606 0.0263
vt 0.9606 0.0263
vt 0.9604 0.0266
vt 0.9604 0.0266
vt 0.9602 0.0268
vt 0.9602 0.0268
vt 0.9600 0.0270
vt 0.9600 0.0270
vt 0.9598 0.0272
vt 0.9598 0.0272
vt 0.9597 0.0274
vt 0.9597 0.0274
vt 0.9595 0.0276
vt 0.9595 0.0276
vt 0.9676 0.0216
vt 0.9676 0.0216
vt 0.9673 0.0217
vt 0.9673 0.0217
vt 0.9669 0.0219
vt 0.9669 0.0219
vt 0.9666 0.0220
vt 0.9666 0.0220
vt 0.9662 0.0222
vt 0.9662 0.0222
vt 0.9659 0.0224
vt 0.9659 0.0224
vt 0.9656 0.0225
vt 0.9656 0.0225
vt 0.9652 0.0227
vt 0.9652 0.0227
vt 0.9649 0.0229
vt 0.9649 0.0229
vt 0.9646 0.0230
vt 0.9646 0.0230
vt 0.9642 0.0232
vt 0.9642 0.0232
vt 0.9639 0.0233
vt 0.9639 0.0233
vt 0.9636 0.0235
vt 0.9636 0.0235
vt 0.9632 0.0237
vt 0.9632 0.0237
vt 0.9629 0.0238
vt 0.9629 0.0238
vt 0.9626 0.0240
vt 0.9626 0.0240
vt 0.9748 0.0199
vt 0.9748 0.0199
vt 0.9744 0.0200
vt 0.9744 0.0200
vt 0.9740 0.0201
vt 0.9740 0.0201
vt 0.9735 0.0202
vt 0.9735 0.0202
vt 0.9731 0.0203
vt 0.9731 0.0203
vt 0.9726 0.0203
vt 0.9726 0.0203
vt 0.9722 0.0204
vt 0.9722 0.0204
vt 0.9718 0.0205
vt 0.9718 0.0205
vt 0.9713 0.0206
vt 0.9713 0.0206
vt 0.9709 0.0207
vt 0.9709 0.0207
vt 0.9704 0.0208
vt 0.9704 0.0208
vt 0.9700 0.0209
vt 0.9700 0.0209
vt 0.9696 0.0210
vt 0.9696 0.0210
vt 0.9691 0.0211
vt 0.9691 0.0211
vt 0.9687 0.0211
vt 0.9687 0.0211
vt 0.9683 0.0212
vt 0.9683 0.0212
vt 0.9828 0.0197
vt 0.9828 0.0197
vt 0.9823 0.0197
vt 0.9823 0.0197
vt 0.9819 0.0197
vt 0.9819 0.0197
vt 0.9814 0.0197
vt 0.9814 0.0197
vt 0.9809 0.0197
vt 0.9809 0.0197
vt 0.9804 0.0197
vt 0.9804 0.0197
vt 0.9800 0.0197
vt 0.9800 0.0197
vt 0.9795 0.0197
vt 0.9795 0.0197
vt 0.9790 0.0197
vt 0.9790 0.0197
vt 0.9785 0.0197
vt 0.9785 0.0197
vt 0.9781 0.0197
vt 0.9781 0.0197
vt 0.9776 0.0197
vt 0.9776 0.0197
vt 0.9771 0.0197
vt 0.9771 0.0197
vt 0.9767 0.0197
vt 0.9767 0.0197
vt 0.9762 0.0197
vt 0.9762 0.0197
vt 0.9757 0.0197
vt 0.9757 0.0197
vt 0.9903 0.0211
vt 0.9903 0.0211
vt 0.9899 0.0210
vt 0.9899 0.0210
vt 0.9895 0.0209
vt 0.9895 0.0209
vt 0.9890 0.0208
vt 0.9890 0.0208
vt 0.9886 0.0207
vt 0.9886 0.0207
vt 0.9881 0.0206
vt 0.9881 0.0206
vt 0.9877 0.0205
vt 0.9877 0.0205
vt 0.9873 0.0204
vt 0.9873 0.0204
vt 0.9868 0.0203
vt 0.9868 0.0203
vt 0.9864 0.0203
vt 0.9864 0.0203
vt 0.9860 0.0202
vt 0.9860 0.0202
vt 0.9855 0.0201
vt 0.9855 0.0201
vt 0.9851 0.0200
vt 0.9851 0.0200
vt 0.9846 0.0199
vt 0.9846 0.0199
vt 0.9842 0.0198
vt 0.9842 0.0198
vt 0.9838 0.0197
vt 0.9838 0.0197
vt 0.9962 0.0237
vt 0.9962 0.0237
vt 0.9959 0.0235
vt 0.9959 0.0235
vt 0.9956 0.0233
vt 0.9956 0.0233
vt 0.9952 0.0232
vt 0.9952 0.0232
vt 0.9949 0.0230
vt 0.9949 0.0230
vt 0.9946 0.0229
vt 0.9946 0.0229
vt 0.9942 0.0227
vt 0.9942 0.0227
vt 0.9939 0.0225
vt 0.9939 0.0225
vt 0.9936 0.0224
vt 0.9936 0.0224
vt 0.9932 0.0222
vt 0.9932 0.0222
vt 0.9929 0.0220
vt 0.9929 0.0220
vt 0.9926 0.0219
vt 0.9926 0.0219
vt 0.9922 0.0217
vt 0.9922 0.0217
vt 0.9919 0.0216
vt 0.9919 0.0216
vt 0.9915 0.0214
vt 0.9915 0.0214
vt 0.9912 0.0212
vt 0.9912 0.0212
vt 0.9996 0.0272
vt 0.9996 0.0272
vt 0.9995 0.0270
vt 0.9995 0.0270
vt 0.9993 0.0268
vt 0.9993 0.0268
vt 0.9991 0.0266
vt 0.9991 0.0266
vt 0.9989 0.0263
vt 0.9989 0.0263
vt 0.9987 0.0261
vt 0.9987 0.0261
vt 0.9985 0.0259
vt 0.9985 0.0259
vt 0.9984 0.0257
vt 0.9984 0.0257
vt 0.9982 0.0255
vt 0.9982 0.0255
vt 0.9980 0.0253
vt 0.9980 0.0253
vt 0.9978 0.0251
vt 0.9978 0.0251
vt 0.9976 0.0249
vt 0.9976 0.0249
vt 0.9975 0.0246
vt 0.9975 0.0246
vt 0.9973 0.0244
vt 0.9973 0.0244
vt 0.9971 0.0242
vt 0.9971 0.0242
vt 0.9969 0.0240
vt 0.9969 0.0240
vt 1.0000 0.0311
vt 1.0000 0.0311
vt 1.0000 0.0309
vt 1.0000 0.0309
vt 1.0000 0.0306
vt 1.0000 0.0306
vt 1.0000 0.0304
vt 1.0000 0.0304
vt 1.0000 0.0302
vt 1.0000 0.0302
vt 1.0000 0.0299
vt 1.0000 0.0299
vt 1.0000 0.0297
vt 1.0000 0.0297
vt 1.0000 0.0295
vt 1.0000 0.0295
vt 1.0000 0.0292
vt 1.0000 0.0292
vt 1.0000 0.0290
vt 1.0000 0.0290
vt 1.0000 0.0288
vt 1.0000 0.0288
vt 1.0000 0.0286
vt 1.0000 0.0286
vt 1.0000 0.0283
vt 1.0000 0.0283
vt 1.0000 0.0281
vt 1.0000 0.0281
vt 1.0000 0.0279
vt 1.0000 0.0279
vt 1.0000 0.0276
vt 1.0000 0.0276
vt 0.9973 0.0348
vt 0.9973 0.0348
vt 0.9975 0.0345
vt 0.9975 0.0345
vt 0.9976 0.0343
vt 0.9976 0.0343
vt 0.9978 0.0341
vt 0.9978 0.0341
vt 0.9980 0.0339
vt 0.9980 0.0339
vt 0.9982 0.0337
vt 0.9982 0.0337
vt 0.9984 0.0335
vt 0.9984 0.0335
vt 0.9985 0.0333
vt 0.9985 0.0333
vt 0.9987 0.0330
vt 0.9987 0.0330
vt 0.9989 0.0328
vt 0.9989 0.0328
vt 0.9991 0.0326
vt 0.9991 0.0326
vt 0.9993 0.0324
vt 0.9993 0.0324
vt 0.9995 0.0322
vt 0.9995 0.0322
vt 0.9996 0.0320
vt 0.9996 0.0320
vt 0.9998 0.0318
vt 0.9998 0.0318
vt 1.0000 0.0316
vt 1.0000 0.0316
vt 0.9683 0.0380
vt 0.9912 0.0212
vt 0.9915 0.0378
vt 0.9915 0.0378
vt 0.9912 0.0380
vt 0.9912 0.0380
vt 0.9842 0.0394
vt 0.9842 0.0394
vt 0.9838 0.0395
vt 0.9838 0.0395
vt 0.9762 0.0395
vt 0.9762 0.0395
vt 0.9757 0.0395
vt 0.9757 0.0395
vt 0.9687 0.0380
vt 0.9687 0.0380
vt 0.9683 0.0380
vt 0.9683 0.0380
vt 0.9629 0.0353
vt 0.9629 0.0353
vt 0.9626 0.0352
vt 0.9626 0.0352
vt 0.9597 0.0318
vt 0.9597 0.0318
vt 0.9595 0.0316
vt 0.9595 0.0316
vt 0.9595 0.0279
vt 0.9595 0.0279
vt 0.9595 0.0276
vt 0.9595 0.0276
vt 0.9624 0.0242
vt 0.9624 0.0242
vt 0.9626 0.0240
vt 0.9626 0.0240
vt 0.9679 0.0214
vt 0.9679 0.0214
vt 0.9753 0.0198
vt 0.9753 0.0198
vt 0.9757 0.0197
vt 0.9757 0.0197
vt 0.9833 0.0197
vt 0.9833 0.0197
vt 0.9838 0.0197
vt 0.9838 0.0197
vt 0.9908 0.0211
vt 0.9908 0.0211
vt 0.9912 0.0212
vt 0.9912 0.0212
vt 0.9966 0.0238
vt 0.9966 0.0238
vt 0.9969 0.0240
vt 0.9969 0.0240
vt 0.9998 0.0274
vt 0.9998 0.0274
vt 1.0000 0.0276
vt 1.0000 0.0276
vt 1.0000 0.0313
vt 1.0000 0.0313
vt 1.0000 0.0316
vt 1.0000 0.0316
vt 0.9971 0.0350
vt 0.9971 0.0350
vt 0.9969 0.0352
vt 0.9969 0.0352
vt 0.9919 0.0376
vt 0.9919 0.0376
vt 0.9922 0.0375
vt 0.9922 0.0375
vt 0.9926 0.0373
vt 0.9926 0.0373
vt 0.9929 0.0371
vt 0.9929 0.0371
vt 0.9932 0.0370
vt 0.9932 0.0370
vt 0.9936 0.0368
vt 0.9936 0.0368
vt 0.9939 0.0366
vt 0.9939 0.0366
vt 0.9942 0.0365
vt 0.9942 0.0365
vt 0.9946 0.0363
vt 0.9946 0.0363
vt 0.9949 0.0362
vt 0.9949 0.0362
vt 0.9952 0.0360
vt 0.9952 0.0360
vt 0.9956 0.0358
vt 0.9956 0.0358
vt 0.9959 0.0357
vt 0.9959 0.0357
vt 0.9962 0.0355
vt 0.9962 0.0355
vt 0.9966 0.0353
vt 0.9966 0.0353
vt 0.9969 0.0352
vt 0.9969 0.0352
vt 0.9846 0.0393
vt 0.9846 0.0393
vt 0.9851 0.0392
vt 0.9851 0.0392
vt 0.9855 0.0391
vt 0.9855 0.0391
vt 0.9860 0.0390
vt 0.9860 0.0390
vt 0.9864 0.0389
vt 0.9864 0.0389
vt 0.9868 0.0388
vt 0.9868 0.0388
vt 0.9873 0.0387
vt 0.9873 0.0387
vt 0.9877 0.0387
vt 0.9877 0.0387
vt 0.9881 0.0386
vt 0.9881 0.0386
vt 0.9886 0.0385
vt 0.9886 0.0385
vt 0.9890 0.0384
vt 0.9890 0.0384
vt 0.9895 0.0383
vt 0.9895 0.0383
vt 0.9899 0.0382
vt 0.9899 0.0382
vt 0.9903 0.0381
vt 0.9903 0.0381
vt 0.9908 0.0380
vt 0.9908 0.0380
vt 0.9912 0.0380
vt 0.9912 0.0380
vt 0.9767 0.0395
vt 0.9767 0.0395
vt 0.9771 0.0395
vt 0.9771 0.0395
vt 0.9776 0.0395
vt 0.9776 0.0395
vt 0.9781 0.0395
vt 0.9781 0.0395
vt 0.9785 0.0395
vt 0.9785 0.0395
vt 0.9790 0.0395
vt 0.9790 0.0395
vt 0.9795 0.0395
vt 0.9795 0.0395
vt 0.9800 0.0395
vt 0.9800 0.0395
vt 0.9804 0.0395
vt 0.9804 0.0395
vt 0.9809 0.0395
vt 0.9809 0.0395
vt 0.9814 0.0395
vt 0.9814 0.0395
vt 0.9819 0.0395
vt 0.9819 0.0395
vt 0.9823 0.0395
vt 0.9823 0.0395
vt 0.9828 0.0395
vt 0.9828 0.0395
vt 0.9833 0.0395
vt 0.9833 0.0395
vt 0.9838 0.0395
vt 0.9838 0.0395
vt 0.9691 0.0381
vt 0.9691 0.0381
vt 0.9696 0.0382
vt 0.9696 0.0382
vt 0.9700 0.0383
vt 0.9700 0.0383
vt 0.9704 0.0384
vt 0.9704 0.0384
vt 0.9709 0.0385
vt 0.9709 0.0385
vt 0.9713 0.0386
vt 0.9713 0.0386
vt 0.9718 0.0387
vt 0.9718 0.0387
vt 0.9722 0.0387
vt 0.9722 0.0387
vt 0.9726 0.0388
vt 0.9726 0.0388
vt 0.9731 0.0389
vt 0.9731 0.0389
vt 0.9735 0.0390
vt 0.9735 0.0390
vt 0.9740 0.0391
vt 0.9740 0.0391
vt 0.9744 0.0392
vt 0.9744 0.0392
vt 0.9748 0.0393
vt 0.9748 0.0393
vt 0.9753 0.0394
vt 0.9753 0.0394
vt 0.9757 0.0395
vt 0.9757 0.0395
vt 0.9632 0.0355
vt 0.9632 0.0355
vt 0.9636 0.0357
vt 0.9636 0.0357
vt 0.9639 0.0358
vt 0.9639 0.0358
vt 0.9642 0.0360
vt 0.9642 0.0360
vt 0.9646 0.0362
vt 0.9646 0.0362
vt 0.9649 0.0363
vt 0.9649 0.0363
vt 0.9652 0.0365
vt 0.9652 0.0365
vt 0.9656 0.0366
vt 0.9656 0.0366
vt 0.9659 0.0368
vt 0.9659 0.0368
vt 0.9662 0.0370
vt 0.9662 0.0370
vt 0.9666 0.0371
vt 0.9666 0.0371
vt 0.9669 0.0373
vt 0.9669 0.0373
vt 0.9673 0.0375
vt 0.9673 0.0375
vt 0.9676 0.0376
vt 0.9676 0.0376
vt 0.9679 0.0378
vt 0.9679 0.0378
vt 0.9683 0.0380
vt 0.9683 0.0380
vt 0.9598 0.0320
vt 0.9598 0.0320
vt 0.9600 0.0322
vt 0.9600 0.0322
vt 0.9602 0.0324
vt 0.9602 0.0324
vt 0.9604 0.0326
vt 0.9604 0.0326
vt 0.9606 0.0328
vt 0.9606 0.0328
vt 0.9607 0.0330
vt 0.9607 0.0330
vt 0.9609 0.0333
vt 0.9609 0.0333
vt 0.9611 0.0335
vt 0.9611 0.0335
vt 0.9613 0.0337
vt 0.9613 0.0337
vt 0.9615 0.0339
vt 0.9615 0.0339
vt 0.9616 0.0341
vt 0.9616 0.0341
vt 0.9618 0.0343
vt 0.9618 0.0343
vt 0.9620 0.0345
vt 0.9620 0.0345
vt 0.9622 0.0348
vt 0.9622 0.0348
vt 0.9624 0.0350
vt 0.9624 0.0350
vt 0.9626 0.0352
vt 0.9626 0.0352
vt 0.9595 0.0281
vt 0.9595 0.0281
vt 0.9595 0.0283
vt 0.9595 0.0283
vt 0.9595 0.0286
vt 0.9595 0.0286
vt 0.9595 0.0288
vt 0.9595 0.0288
vt 0.9595 0.0290
vt 0.9595 0.0290
vt 0.9595 0.0292
vt 0.9595 0.0292
vt 0.9595 0.0295
vt 0.9595 0.0295
vt 0.9595 0.0297
vt 0.9595 0.0297
vt 0.9595 0.0299
vt 0.9595 0.0299
vt 0.9595 0.0302
vt 0.9595 0.0302
vt 0.9595 0.0304
vt 0.9595 0.0304
vt 0.9595 0.0306
vt 0.9595 0.0306
vt 0.9595 0.0309
vt 0.9595 0.0309
vt 0.9595 0.0311
vt 0.9595 0.0311
vt 0.9595 0.0313
vt 0.9595 0.0313
vt 0.9595 0.0316
vt 0.9595 0.0316
vt 0.9622 0.0244
vt 0.9622 0.0244
vt 0.9620 0.0246
vt 0.9620 0.0246
vt 0.9618 0.0249
vt 0.9618 0.0249
vt 0.9616 0.0251
vt 0.9616 0.0251
vt 0.9615 0.0253
vt 0.9615 0.0253
vt 0.9613 0.0255
vt 0.9613 0.0255
vt 0.9611 0.0257
vt 0.9611 0.0257
vt 0.9609 0.0259
vt 0.9609 0.0259
vt 0.9607 0.0261
vt 0.9607 0.0261
vt 0.9606 0.0263
vt 0.9606 0.0263
vt 0.9604 0.0266
vt 0.9604 0.0266
vt 0.9602 0.0268
vt 0.9602 0.0268
vt 0.9600 0.0270
vt 0.9600 0.0270
vt 0.9598 0.0272
vt 0.9598 0.0272
vt 0.9597 0.0274
vt 0.9597 0.0274
vt 0.9676 0.0216
vt 0.9676 0.0216
vt 0.9673 0.0217
vt 0.9673 0.0217
vt 0.9669 0.0219
vt 0.9669 0.0219
vt 0.9666 0.0220
vt 0.9666 0.0220
vt 0.9662 0.0222
vt 0.9662 0.0222
vt 0.9659 0.0224
vt 0.9659 0.0224
vt 0.9656 0.0225
vt 0.9656 0.0225
vt 0.9652 0.0227
vt 0.9652 0.0227
vt 0.9649 0.0229
vt 0.9649 0.0229
vt 0.9646 0.0230
vt 0.9646 0.0230
vt 0.9642 0.0232
vt 0.9642 0.0232
vt 0.9639 0.0233
vt 0.9639 0.0233
vt 0.9636 0.0235
vt 0.9636 0.0235
vt 0.9632 0.0237
vt 0.9632 0.0237
vt 0.9629 0.0238
vt 0.9629 0.0238
vt 0.9626 0.0240
vt 0.9626 0.0240
vt 0.9748 0.0199
vt 0.9748 0.0199
vt 0.9744 0.0200
vt 0.9744 0.0200
vt 0.9740 0.0201
vt 0.9740 0.0201
vt 0.9735 0.0202
vt 0.9735 0.0202
vt 0.9731 0.0203
vt 0.9731 0.0203
vt 0.9726 0.0203
vt 0.9726 0.0203
vt 0.9722 0.0204
vt 0.9722 0.0204
vt 0.9718 0.0205
vt 0.9718 0.0205
vt 0.9713 0.0206
vt 0.9713 0.0206
vt 0.9709 0.0207
vt 0.9709 0.0207
vt 0.9704 0.0208
vt 0.9704 0.0208
vt 0.9700 0.0209
vt 0.9700 0.0209
vt 0.9696 0.0210
vt 0.9696 0.0210
vt 0.9691 0.0211
vt 0.9691 0.0211
vt 0.9687 0.0211
vt 0.9687 0.0211
vt 0.9683 0.0212
vt 0.9683 0.0212
vt 0.9828 0.0197
vt 0.9828 0.0197
vt 0.9823 0.0197
vt 0.9823 0.0197
vt 0.9819 0.0197
vt 0.9819 0.0197
vt 0.9814 0.0197
vt 0.9814 0.0197
vt 0.9809 0.0197
vt 0.9809 0.0197
vt 0.9804 0.0197
vt 0.9804 0.0197
vt 0.9800 0.0197
vt 0.9800 0.0197
vt 0.9795 0.0197
vt 0.9795 0.0197
vt 0.9790 0.0197
vt 0.9790 0.0197
vt 0.9785 0.0197
vt 0.9785 0.0197
vt 0.9781 0.0197
vt 0.9781 0.0197
vt 0.9776 0.0197
vt 0.9776 0.0197
vt 0.9771 0.0197
vt 0.9771 0.0197
vt 0.9767 0.0197
vt 0.9767 0.0197
vt 0.9762 0.0197
vt 0.9762 0.0197
vt 0.9757 0.0197
vt 0.9757 0.0197
vt 0.9903 0.0211
vt 0.9903 0.0211
vt 0.9899 0.0210
vt 0.9899 0.0210
vt 0.9895 0.0209
vt 0.9895 0.0209
vt 0.9890 0.0208
vt 0.9890 0.0208
vt 0.9886 0.0207
vt 0.9886 0.0207
vt 0.9881 0.0206
vt 0.9881 0.0206
vt 0.9877 0.0205
vt 0.9877 0.0205
vt 0.9873 0.0204
vt 0.9873 0.0204
vt 0.9868 0.0203
vt 0.9868 0.0203
vt 0.9864 0.0203
vt 0.9864 0.0203
vt 0.9860 0.0202
vt 0.9860 0.0202
vt 0.9855 0.0201
vt 0.9855 0.0201
vt 0.9851 0.0200
vt 0.9851 0.0200
vt 0.9846 0.0199
vt 0.9846 0.0199
vt 0.9842 0.0198
vt 0.9842 0.0198
vt 0.9838 0.0197
vt 0.9838 0.0197
vt 0.9962 0.0237
vt 0.9962 0.0237
vt 0.9959 0.0235
vt 0.9959 0.0235
vt 0.9956 0.0233
vt 0.9956 0.0233
vt 0.9952 0.0232
vt 0.9952 0.0232
vt 0.9949 0.0230
vt 0.9949 0.0230
vt 0.9946 0.0229
vt 0.9946 0.0229
vt 0.9942 0.0227
vt 0.9942 0.0227
vt 0.9939 0.0225
vt 0.9939 0.0225
vt 0.9936 0.0224
vt 0.9936 0.0224
vt 0.9932 0.0222
vt 0.9932 0.0222
vt 0.9929 0.0220
vt 0.9929 0.0220
vt 0.9926 0.0219
vt 0.9926 0.0219
vt 0.9922 0.0217
vt 0.9922 0.0217
vt 0.9919 0.0216
vt 0.9919 0.0216
vt 0.9915 0.0214
vt 0.9915 0.0214
vt 0.9912 0.0212
vt 0.9912 0.0212
vt 0.9996 0.0272
vt 0.9996 0.0272
vt 0.9995 0.0270
vt 0.9995 0.0270
vt 0.9993 0.0268
vt 0.9993 0.0268
vt 0.9991 0.0266
vt 0.9991 0.0266
vt 0.9989 0.0263
vt 0.9989 0.0263
vt 0.9987 0.0261
vt 0.9987 0.0261
vt 0.9985 0.0259
vt 0.9985 0.0259
vt 0.9984 0.0257
vt 0.9984 0.0257
vt 0.9982 0.0255
vt 0.9982 0.0255
vt 0.9980 0.0253
vt 0.9980 0.0253
vt 0.9978 0.0251
vt 0.9978 0.0251
vt 0.9976 0.0249
vt 0.9976 0.0249
vt 0.9975 0.0246
vt 0.9975 0.0246
vt 0.9973 0.0244
vt 0.9973 0.0244
vt 0.9971 0.0242
vt 0.9971 0.0242
vt 0.9969 0.0240
vt 0.9969 0.0240
vt 1.0000 0.0311
vt 1.0000 0.0311
vt 1.0000 0.0309
vt 1.0000 0.0309
vt 1.0000 0.0306
vt 1.0000 0.0306
vt 1.0000 0.0304
vt 1.0000 0.0304
vt 1.0000 0.0302
vt 1.0000 0.0302
vt 1.0000 0.0299
vt 1.0000 0.0299
vt 1.0000 0.0297
vt 1.0000 0.0297
vt 1.0000 0.0295
vt 1.0000 0.0295
vt 1.0000 0.0292
vt 1.0000 0.0292
vt 1.0000 0.0290
vt 1.0000 0.0290
vt 1.0000 0.0288
vt 1.0000 0.0288
vt 1.0000 0.0286
vt 1.0000 0.0286
vt 1.0000 0.0283
vt 1.0000 0.0283
vt 1.0000 0.0281
vt 1.0000 0.0281
vt 1.0000 0.0279
vt 1.0000 0.0279
vt 1.0000 0.0276
vt 1.0000 0.0276
vt 0.9973 0.0348
vt 0.9973 0.0348
vt 0.9975 0.0345
vt 0.9975 0.0345
vt 0.9976 0.0343
vt 0.9976 0.0343
vt 0.9978 0.0341
vt 0.9978 0.0341
vt 0.9980 0.0339
vt 0.9980 0.0339
vt 0.9982 0.0337
vt 0.9982 0.0337
vt 0.9984 0.0335
vt 0.9984 0.0335
vt 0.9985 0.0333
vt 0.9985 0.0333
vt 0.9987 0.0330
vt 0.9987 0.0330
vt 0.9989 0.0328
vt 0.9989 0.0328
vt 0.9991 0.0326
vt 0.9991 0.0326
vt 0.9993 0.0324
vt 0.9993 0.0324
vt 0.9995 0.0322
vt 0.9995 0.0322
vt 0.9996 0.0320
vt 0.9996 0.0320
vt 0.9998 0.0318
vt 0.9998 0.0318
vt 1.0000 0.0316
vt 1.0000 0.0316
vt 0.9626 0.0352
vt 0.9626 0.0240
vt 0.9595 0.0316
vt 0.9683 0.0212
vt 0.9595 0.0276
vt 0.9757 0.0197
vt 0.9626 0.0240
vt 0.9838 0.0197
vt 0.9683 0.0212
vt 0.9912 0.0212
vt 1.0000 0.0316
vt 0.9757 0.0197
vt 0.9969 0.0240
vt 0.9969 0.0352
vt 0.9838 0.0197
vt 1.0000 0.0276
vt 0.9912 0.0380
vt 0.9912 0.0212
vt 1.0000 0.0316
vt 0.9838 0.0395
vt 0.9969 0.0240
vt 0.9969 0.0352
vt 0.9757 0.0395
vt 1.0000 0.0276
vt 0.9912 0.0380
vt 0.9683 0.0380
vt 0.9838 0.0395
vt 0.9626 0.0352
vt 0.9757 0.0395
vt 0.9595 0.0316
vt 0.9838 0.0197
vt 0.9626 0.0240
vt 0.9757 0.0197
vt 0.9595 0.0276
vt 0.9683 0.0212
vt 0.9595 0.0316
vt 0.9626 0.0240
vt 0.9626 0.0352
vt 0.9595 0.0276
vt 0.9683 0.0380
vt 0.9595 0.0316
vt 0.9757 0.0395
vt 0.9626 0.0352
vt 0.9838 0.0395
vt 1.0000 0.0276
vt 0.9683 0.0380
vt 0.9912 0.0380
vt 1.0000 0.0316
vt 0.9757 0.0395
vt 0.9969 0.0352
vt 0.9969 0.0240
vt 0.9838 0.0395
vt 1.0000 0.0276
vt 0.9912 0.0212
vt 0.9912 0.0380
vt 1.0000 0.0316
vt 0.9838 0.0197
vt 0.9969 0.0352
vt 0.9969 0.0240
vt 0.9757 0.0197
vn 0.0000 0.0000 1.0000
vn 0.0000 0.7071 -0.7071
vn 0.0000 -0.9999 -0.0132
vn 0.3821 -0.9240 -0.0122
vn 0.3827 -0.9239 0.0000
vn 0.0000 -1.0000 0.0000
vn 0.7064 -0.5060 -0.4949
vn 0.3822 -0.6606 -0.6461
vn 0.3827 -0.6533 -0.6533
vn 0.7071 -0.5000 -0.5000
vn -0.7085 0.5206 0.4764
vn -0.3836 0.6813 0.6234
vn -0.3832 0.6604 0.6458
vn -0.7078 0.5051 0.4939
vn -0.9248 0.2806 0.2568
vn -0.9243 0.2727 0.2668
vn -1.0000 -0.0020 -0.0018
vn -1.0000 -0.0010 -0.0009
vn -0.9229 -0.2840 -0.2599
vn -0.9234 -0.2744 -0.2684
vn -0.7057 -0.5227 -0.4783
vn -0.7064 -0.5060 -0.4949
vn -0.3817 -0.6818 -0.6240
vn -0.3822 -0.6606 -0.6461
vn 0.0000 -0.7377 -0.6751
vn 0.0000 -0.7149 -0.6992
vn 0.3817 -0.6818 -0.6240
vn 0.7057 -0.5227 -0.4783
vn 0.9229 -0.2840 -0.2599
vn 0.9234 -0.2744 -0.2684
vn 1.0000 -0.0020 -0.0018
vn 1.0000 -0.0010 -0.0009
vn 0.9248 0.2806 0.2568
vn 0.9243 0.2727 0.2668
vn 0.7085 0.5206 0.4764
vn 0.7078 0.5051 0.4939
vn 0.3836 0.6813 0.6234
vn 0.3832 0.6604 0.6458
vn 0.0000 0.7377 0.6751
vn 0.0000 0.7149 0.6992
vn -0.7084 0.5411 0.4531
vn -0.3836 0.7080 0.5929
vn -0.7084 0.5604 0.4290
vn -0.3836 0.7332 0.5614
vn -0.7084 0.5785 0.4042
vn -0.3836 0.7570 0.5289
vn -0.7084 0.5955 0.3787
vn -0.3836 0.7793 0.4955
vn -0.7084 0.6115 0.3524
vn -0.3836 0.8001 0.4611
vn -0.7085 0.6263 0.3252
vn -0.3836 0.8196 0.4255
vn -0.7085 0.6401 0.2971
vn -0.3836 0.8376 0.3888
vn -0.7085 0.6528 0.2682
vn -0.3837 0.8542 0.3509
vn -0.7085 0.6642 0.2383
vn -0.3837 0.8692 0.3118
vn -0.7085 0.6745 0.2073
vn -0.3837 0.8827 0.2713
vn -0.7085 0.6835 0.1754
vn -0.3837 0.8945 0.2295
vn -0.7086 0.6911 0.1423
vn -0.3837 0.9044 0.1863
vn -0.7086 0.6972 0.1082
vn -0.3838 0.9125 0.1417
vn -0.7087 0.7017 0.0731
vn -0.3838 0.9184 0.0957
vn -0.3838 0.9221 0.0484
vn -0.7087 0.7045 0.0370
vn -0.3832 0.9236 0.0122
vn -0.7079 0.7063 0.0093
vn -0.9248 0.2916 0.2442
vn -0.9248 0.3020 0.2312
vn -0.9248 0.3118 0.2179
vn -0.9248 0.3210 0.2041
vn -0.9248 0.3295 0.1899
vn -0.9248 0.3375 0.1752
vn -0.9248 0.3450 0.1601
vn -0.9249 0.3518 0.1445
vn -0.9249 0.3579 0.1284
vn -0.9249 0.3634 0.1117
vn -0.9249 0.3682 0.0945
vn -0.9249 0.3723 0.0767
vn -0.9250 0.3755 0.0583
vn -0.9250 0.3779 0.0394
vn -0.9250 0.3794 0.0199
vn -0.9244 0.3813 0.0050
vn -1.0000 -0.0021 -0.0017
vn -1.0000 -0.0021 -0.0016
vn -1.0000 -0.0022 -0.0015
vn -1.0000 -0.0023 -0.0014
vn -1.0000 -0.0023 -0.0013
vn -1.0000 -0.0024 -0.0013
vn -1.0000 -0.0025 -0.0012
vn -1.0000 -0.0026 -0.0010
vn -1.0000 -0.0027 -0.0009
vn -1.0000 -0.0027 -0.0008
vn -1.0000 -0.0028 -0.0007
vn -1.0000 -0.0029 -0.0006
vn -1.0000 -0.0030 -0.0005
vn -1.0000 -0.0031 -0.0003
vn -1.0000 -0.0032 -0.0002
vn -1.0000 -0.0016 -0.0000
vn -0.9229 -0.2952 -0.2472
vn -0.9229 -0.3057 -0.2340
vn -0.9229 -0.3156 -0.2205
vn -0.9229 -0.3248 -0.2066
vn -0.9229 -0.3336 -0.1922
vn -0.9229 -0.3417 -0.1774
vn -0.9229 -0.3492 -0.1621
vn -0.9229 -0.3562 -0.1463
vn -0.9228 -0.3625 -0.1300
vn -0.9228 -0.3681 -0.1131
vn -0.9228 -0.3731 -0.0957
vn -0.9228 -0.3773 -0.0777
vn -0.9228 -0.3807 -0.0591
vn -0.9228 -0.3833 -0.0399
vn -0.9227 -0.3849 -0.0202
vn -0.9233 -0.3840 -0.0051
vn -0.7057 -0.5432 -0.4548
vn -0.7057 -0.5625 -0.4307
vn -0.7057 -0.5807 -0.4058
vn -0.7057 -0.5978 -0.3801
vn -0.7057 -0.6138 -0.3537
vn -0.7057 -0.6288 -0.3265
vn -0.7057 -0.6426 -0.2983
vn -0.7057 -0.6554 -0.2692
vn -0.7056 -0.6669 -0.2392
vn -0.7056 -0.6773 -0.2082
vn -0.7056 -0.6863 -0.1761
vn -0.7056 -0.6940 -0.1429
vn -0.7055 -0.7002 -0.1087
vn -0.7055 -0.7049 -0.0734
vn -0.7055 -0.7077 -0.0371
vn -0.7062 -0.7079 -0.0093
vn -0.3817 -0.7086 -0.5934
vn -0.3817 -0.7338 -0.5619
vn -0.3817 -0.7576 -0.5294
vn -0.3817 -0.7799 -0.4960
vn -0.3817 -0.8008 -0.4615
vn -0.3817 -0.8203 -0.4259
vn -0.3817 -0.8383 -0.3892
vn -0.3817 -0.8549 -0.3512
vn -0.3817 -0.8700 -0.3121
vn -0.3817 -0.8835 -0.2716
vn -0.3816 -0.8953 -0.2297
vn -0.3816 -0.9053 -0.1864
vn -0.3816 -0.9134 -0.1418
vn -0.3816 -0.9193 -0.0958
vn -0.3815 -0.9231 -0.0484
vn -0.3821 -0.9240 -0.0122
vn 0.0000 -0.7667 -0.6420
vn 0.0000 -0.7940 -0.6079
vn 0.0000 -0.8197 -0.5728
vn 0.0000 -0.8438 -0.5366
vn 0.0000 -0.8664 -0.4993
vn 0.0000 -0.8875 -0.4608
vn 0.0000 -0.9070 -0.4210
vn 0.0000 -0.9250 -0.3800
vn 0.0000 -0.9413 -0.3376
vn 0.0000 -0.9558 -0.2938
vn 0.0000 -0.9686 -0.2485
vn 0.0000 -0.9794 -0.2017
vn 0.0000 -0.9882 -0.1534
vn 0.0000 -0.9946 -0.1036
vn 0.0000 -0.9986 -0.0524
vn 0.3817 -0.7086 -0.5934
vn 0.3817 -0.7338 -0.5619
vn 0.3817 -0.7576 -0.5294
vn 0.3817 -0.7799 -0.4960
vn 0.3817 -0.8008 -0.4615
vn 0.3817 -0.8203 -0.4259
vn 0.3817 -0.8383 -0.3892
vn 0.3817 -0.8549 -0.3512
vn 0.3817 -0.8700 -0.3121
vn 0.3817 -0.8835 -0.2716
vn 0.3816 -0.8953 -0.2297
vn 0.3816 -0.9053 -0.1864
vn 0.3816 -0.9134 -0.1418
vn 0.3816 -0.9193 -0.0958
vn 0.3815 -0.9231 -0.0484
vn 0.7057 -0.5432 -0.4548
vn 0.7057 -0.5625 -0.4307
vn 0.7057 -0.5807 -0.4058
vn 0.7057 -0.5978 -0.3801
vn 0.7057 -0.6138 -0.3537
vn 0.7057 -0.6288 -0.3265
vn 0.7057 -0.6426 -0.2983
vn 0.7057 -0.6554 -0.2692
vn 0.7056 -0.6669 -0.2392
vn 0.7056 -0.6773 -0.2082
vn 0.7056 -0.6863 -0.1761
vn 0.7056 -0.6940 -0.1429
vn 0.7056 -0.7002 -0.1087
vn 0.7055 -0.7049 -0.0734
vn 0.7055 -0.7077 -0.0371
vn 0.7062 -0.7079 -0.0093
vn 0.9229 -0.2952 -0.2472
vn 0.9229 -0.3057 -0.2340
vn 0.9229 -0.3156 -0.2205
vn 0.9229 -0.3248 -0.2066
vn 0.9229 -0.3336 -0.1922
vn 0.9229 -0.3417 -0.1774
vn 0.9229 -0.3492 -0.1621
vn 0.9229 -0.3562 -0.1463
vn 0.9228 -0.3625 -0.1300
vn 0.9228 -0.3681 -0.1131
vn 0.9228 -0.3731 -0.0957
vn 0.9228 -0.3773 -0.0777
vn 0.9228 -0.3807 -0.0591
vn 0.9228 -0.3833 -0.0399
vn 0.9227 -0.3849 -0.0202
vn 0.9233 -0.3840 -0.0051
vn 1.0000 -0.0021 -0.0017
vn 1.0000 -0.0021 -0.0016
vn 1.0000 -0.0022 -0.0015
vn 1.0000 -0.0023 -0.0014
vn 1.0000 -0.0023 -0.0013
vn 1.0000 -0.0024 -0.0013
vn 1.0000 -0.0025 -0.0012
vn 1.0000 -0.0026 -0.0010
vn 1.0000 -0.0027 -0.0009
vn 1.0000 -0.0027 -0.0008
vn 1.0000 -0.0028 -0.0007
vn 1.0000 -0.0029 -0.0006
vn 1.0000 -0.0030 -0.0005
vn 1.0000 -0.0031 -0.0003
vn 1.0000 -0.0032 -0.0002
vn 1.0000 -0.0016 -0.0000
vn 0.9248 0.2916 0.2442
vn 0.9248 0.3020 0.2312
vn 0.9248 0.3118 0.2179
vn 0.9248 0.3210 0.2041
vn 0.9248 0.3295 0.1899
vn 0.9248 0.3375 0.1752
vn 0.9248 0.3450 0.1601
vn 0.9249 0.3518 0.1445
vn 0.9249 0.3579 0.1284
vn 0.9249 0.3634 0.1117
vn 0.9249 0.3682 0.0945
vn 0.9249 0.3723 0.0767
vn 0.9250 0.3755 0.0583
vn 0.9250 0.3779 0.0394
vn 0.9250 0.3794 0.0199
vn 0.9244 0.3813 0.0050
vn 0.7084 0.5411 0.4531
vn 0.7084 0.5604 0.4290
vn 0.7084 0.5785 0.4042
vn 0.7084 0.5955 0.3787
vn 0.7084 0.6115 0.3524
vn 0.7085 0.6263 0.3252
vn 0.7085 0.6401 0.2971
vn 0.7085 0.6528 0.2682
vn 0.7085 0.6642 0.2383
vn 0.7085 0.6745 0.2073
vn 0.7085 0.6835 0.1754
vn 0.7086 0.6911 0.1423
vn 0.7086 0.6972 0.1082
vn 0.7087 0.7017 0.0731
vn 0.7087 0.7045 0.0370
vn 0.7079 0.7063 0.0093
vn 0.3836 0.7080 0.5929
vn 0.3836 0.7332 0.5614
vn 0.3836 0.7570 0.5289
vn 0.3836 0.7793 0.4955
vn 0.3836 0.8001 0.4611
vn 0.3836 0.8196 0.4255
vn 0.3836 0.8376 0.3888
vn 0.3837 0.8542 0.3509
vn 0.3837 0.8692 0.3118
vn 0.3837 0.8827 0.2713
vn 0.3837 0.8945 0.2295
vn 0.3837 0.9044 0.1863
vn 0.3838 0.9125 0.1417
vn 0.3838 0.9184 0.0957
vn 0.3838 0.9221 0.0484
vn 0.3832 0.9236 0.0122
vn 0.0000 0.7667 0.6420
vn 0.0000 0.7940 0.6079
vn 0.0000 0.8197 0.5728
vn 0.0000 0.8438 0.5366
vn 0.0000 0.8664 0.4993
vn 0.0000 0.8875 0.4608
vn 0.0000 0.9070 0.4210
vn 0.0000 0.9250 0.3800
vn 0.0000 0.9413 0.3376
vn 0.0000 0.9558 0.2938
vn 0.0000 0.9686 0.2485
vn 0.0000 0.9794 0.2017
vn 0.0000 0.9881 0.1534
vn 0.0000 0.9946 0.1036
vn 0.0000 0.9986 0.0524
vn 0.0000 0.9999 0.0132
vn -0.7071 -0.7071 0.0000
vn -0.9239 -0.3827 0.0000
vn 1.0000 -0.0000 -0.0000
vn 0.9239 0.2706 0.2706
vn -0.3827 -0.9239 0.0000
vn 0.7071 -0.7071 0.0000
vn 0.9239 -0.3827 0.0000
vn 0.9239 0.3827 0.0000
vn 0.7071 0.7071 0.0000
vn -0.3827 0.9239 0.0000
vn 0.0000 1.0000 0.0000
vn 0.3827 0.9239 0.0000
vn -0.7071 0.7071 0.0000
vn -0.9239 0.3827 0.0000
vn -1.0000 0.0000 0.0000
vn 0.9239 -0.2706 -0.2706
vn 0.0000 -0.7071 -0.7071
vn -0.3827 -0.6533 -0.6533
vn -0.7071 -0.5000 -0.5000
vn -0.9239 -0.2706 -0.2706
vn -0.9239 0.2706 0.2706
vn -0.7071 0.5000 0.5000
vn 0.7071 0.5000 0.5000
vn 0.3827 0.6533 0.6533
vn -0.3827 0.6533 0.6533
vn 0.0000 0.7071 0.7071
usemtl None
s off
f 577/1/1 578/2/1 579/3/1 580/4/1 581/5/1 582/6/1 583/7/1 584/8/1 585/9/1 586/10/1 587/11/1 588/12/1 589/13/1 590/14/1 591/15/1 592/16/1
f 593/17/1 594/18/1 595/19/1 596/20/1 597/21/1 598/22/1 599/23/1 600/24/1 601/25/1 602/26/1 603/27/1 604/28/1 605/29/1 606/30/1 607/31/1 608/32/1
f 611/33/2 610/34/2 609/35/2 612/36/2 613/37/2 614/38/2 615/39/2 616/40/2 617/41/2 618/42/2 619/43/2 620/44/2 621/45/2 622/46/2 623/47/2 624/48/2
f 627/49/2 626/50/2 625/51/2 628/52/2 629/53/2 630/54/2 631/55/2 632/56/2 633/57/2 634/58/2 635/59/2 636/60/2 637/61/2 638/62/2 639/63/2 640/64/2
s 1
f 297/65/3 298/66/4 602/67/5 601/25/6
f 311/68/7 312/69/8 632/70/9 631/55/10
f 64/71/11 33/72/12 32/73/13 31/74/14
f 80/75/15 64/76/11 31/77/14 30/78/16
f 96/79/17 80/80/15 30/81/16 29/82/18
f 112/83/19 96/84/17 29/85/18 28/86/20
f 128/87/21 112/88/19 28/89/20 27/90/22
f 144/91/23 128/92/21 27/93/22 26/94/24
f 160/95/25 144/96/23 26/97/24 25/98/26
f 176/99/27 160/100/25 25/101/26 24/102/8
f 192/103/28 176/104/27 24/105/8 23/106/7
f 208/107/29 192/108/28 23/109/7 22/110/30
f 224/111/31 208/112/29 22/113/30 21/114/32
f 240/115/33 224/116/31 21/117/32 20/118/34
f 256/119/35 240/120/33 20/121/34 17/122/36
f 272/123/37 256/124/35 17/125/36 18/126/38
f 288/127/39 272/128/37 18/129/38 19/130/40
f 33/131/12 288/132/39 19/133/40 32/134/13
f 63/135/41 34/136/42 33/72/12 64/71/11
f 62/137/43 35/138/44 34/136/42 63/135/41
f 61/139/45 36/140/46 35/138/44 62/137/43
f 60/141/47 37/142/48 36/140/46 61/139/45
f 59/143/49 38/144/50 37/142/48 60/141/47
f 58/145/51 39/146/52 38/144/50 59/143/49
f 57/147/53 40/148/54 39/146/52 58/145/51
f 56/149/55 41/150/56 40/148/54 57/147/53
f 55/151/57 42/152/58 41/150/56 56/149/55
f 54/153/59 43/154/60 42/152/58 55/151/57
f 53/155/61 44/156/62 43/154/60 54/153/59
f 52/157/63 45/158/64 44/156/62 53/155/61
f 51/159/65 46/160/66 45/158/64 52/157/63
f 50/161/67 47/162/68 46/160/66 51/159/65
f 48/163/69 47/162/68 50/161/67 49/164/70
f 2/165/71 48/163/69 49/164/70 3/166/72
f 79/167/73 63/168/41 64/76/11 80/75/15
f 78/169/74 62/170/43 63/168/41 79/167/73
f 77/171/75 61/172/45 62/170/43 78/169/74
f 76/173/76 60/174/47 61/172/45 77/171/75
f 75/175/77 59/176/49 60/174/47 76/173/76
f 74/177/78 58/178/51 59/176/49 75/175/77
f 73/179/79 57/180/53 58/178/51 74/177/78
f 72/181/80 56/182/55 57/180/53 73/179/79
f 71/183/81 55/184/57 56/182/55 72/181/80
f 70/185/82 54/186/59 55/184/57 71/183/81
f 69/187/83 53/188/61 54/186/59 70/185/82
f 68/189/84 52/190/63 53/188/61 69/187/83
f 67/191/85 51/192/65 52/190/63 68/189/84
f 66/193/86 50/194/67 51/192/65 67/191/85
f 49/195/70 50/194/67 66/193/86 65/196/87
f 3/197/72 49/195/70 65/196/87 4/198/88
f 95/199/89 79/200/73 80/80/15 96/79/17
f 94/201/90 78/202/74 79/200/73 95/199/89
f 93/203/91 77/204/75 78/202/74 94/201/90
f 92/205/92 76/206/76 77/204/75 93/203/91
f 91/207/93 75/208/77 76/206/76 92/205/92
f 90/209/94 74/210/78 75/208/77 91/207/93
f 89/211/95 73/212/79 74/210/78 90/209/94
f 88/213/96 72/214/80 73/212/79 89/211/95
f 87/215/97 71/216/81 72/214/80 88/213/96
f 86/217/98 70/218/82 71/216/81 87/215/97
f 85/219/99 69/220/83 70/218/82 86/217/98
f 84/221/100 68/222/84 69/220/83 85/219/99
f 83/223/101 67/224/85 68/222/84 84/221/100
f 82/225/102 66/226/86 67/224/85 83/223/101
f 65/227/87 66/226/86 82/225/102 81/228/103
f 4/229/88 65/227/87 81/228/103 5/230/104
f 111/231/105 95/232/89 96/84/17 112/83/19
f 110/233/106 94/234/90 95/232/89 111/231/105
f 109/235/107 93/236/91 94/234/90 110/233/106
f 108/237/108 92/238/92 93/236/91 109/235/107
f 107/239/109 91/240/93 92/238/92 108/237/108
f 106/241/110 90/242/94 91/240/93 107/239/109
f 105/243/111 89/244/95 90/242/94 106/241/110
f 104/245/112 88/246/96 89/244/95 105/243/111
f 103/247/113 87/248/97 88/246/96 104/245/112
f 102/249/114 86/250/98 87/248/97 103/247/113
f 101/251/115 85/252/99 86/250/98 102/249/114
f 100/253/116 84/254/100 85/252/99 101/251/115
f 99/255/117 83/256/101 84/254/100 100/253/116
f 98/257/118 82/258/102 83/256/101 99/255/117
f 81/259/103 82/258/102 98/257/118 97/260/119
f 5/261/104 81/259/103 97/260/119 6/262/120
f 127/263/121 111/264/105 112/88/19 128/87/21
f 126/265/122 110/266/106 111/264/105 127/263/121
f 125/267/123 109/268/107 110/266/106 126/265/122
f 124/269/124 108/270/108 109/268/107 125/267/123
f 123/271/125 107/272/109 108/270/108 124/269/124
f 122/273/126 106/274/110 107/272/109 123/271/125
f 121/275/127 105/276/111 106/274/110 122/273/126
f 120/277/128 104/278/112 105/276/111 121/275/127
f 119/279/129 103/280/113 104/278/112 120/277/128
f 118/281/130 102/282/114 103/280/113 119/279/129
f 117/283/131 101/284/115 102/282/114 118/281/130
f 116/285/132 100/286/116 101/284/115 117/283/131
f 115/287/133 99/288/117 100/286/116 116/285/132
f 114/289/134 98/290/118 99/288/117 115/287/133
f 97/291/119 98/290/118 114/289/134 113/292/135
f 6/293/120 97/291/119 113/292/135 7/294/136
f 143/295/137 127/296/121 128/92/21 144/91/23
f 142/297/138 126/298/122 127/296/121 143/295/137
f 141/299/139 125/300/123 126/298/122 142/297/138
f 140/301/140 124/302/124 125/300/123 141/299/139
f 139/303/141 123/304/125 124/302/124 140/301/140
f 138/305/142 122/306/126 123/304/125 139/303/141
f 137/307/143 121/308/127 122/306/126 138/305/142
f 136/309/144 120/310/128 121/308/127 137/307/143
f 135/311/145 119/312/129 120/310/128 136/309/144
f 134/313/146 118/314/130 119/312/129 135/311/145
f 133/315/147 117/316/131 118/314/130 134/313/146
f 132/317/148 116/318/132 117/316/131 133/315/147
f 131/319/149 115/320/133 116/318/132 132/317/148
f 130/321/150 114/322/134 115/320/133 131/319/149
f 113/323/135 114/322/134 130/321/150 129/324/151
f 7/325/136 113/323/135 129/324/151 8/326/152
f 159/327/153 143/328/137 144/96/23 160/95/25
f 158/329/154 142/330/138 143/328/137 159/327/153
f 157/331/155 141/332/139 142/330/138 158/329/154
f 156/333/156 140/334/140 141/332/139 157/331/155
f 155/335/157 139/336/141 140/334/140 156/333/156
f 154/337/158 138/338/142 139/336/141 155/335/157
f 153/339/159 137/340/143 138/338/142 154/337/158
f 152/341/160 136/342/144 137/340/143 153/339/159
f 151/343/161 135/344/145 136/342/144 152/341/160
f 150/345/162 134/346/146 135/344/145 151/343/161
f 149/347/163 133/348/147 134/346/146 150/345/162
f 148/349/164 132/350/148 133/348/147 149/347/163
f 147/351/165 131/352/149 132/350/148 148/349/164
f 146/353/166 130/354/150 131/352/149 147/351/165
f 129/355/151 130/354/150 146/353/166 145/356/167
f 8/357/152 129/355/151 145/356/167 9/358/3
f 175/359/168 159/360/153 160/100/25 176/99/27
f 174/361/169 158/362/154 159/360/153 175/359/168
f 173/363/170 157/364/155 158/362/154 174/361/169
f 172/365/171 156/366/156 157/364/155 173/363/170
f 171/367/172 155/368/157 156/366/156 172/365/171
f 170/369/173 154/370/158 155/368/157 171/367/172
f 169/371/174 153/372/159 154/370/158 170/369/173
f 168/373/175 152/374/160 153/372/159 169/371/174
f 167/375/176 151/376/161 152/374/160 168/373/175
f 166/377/177 150/378/162 151/376/161 167/375/176
f 165/379/178 149/380/163 150/378/162 166/377/177
f 164/381/179 148/382/164 149/380/163 165/379/178
f 163/383/180 147/384/165 148/382/164 164/381/179
f 162/385/181 146/386/166 147/384/165 163/383/180
f 145/387/167 146/386/166 162/385/181 161/388/182
f 9/389/3 145/387/167 161/388/182 10/390/4
f 191/391/183 175/392/168 176/104/27 192/103/28
f 190/393/184 174/394/169 175/392/168 191/391/183
f 189/395/185 173/396/170 174/394/169 190/393/184
f 188/397/186 172/398/171 173/396/170 189/395/185
f 187/399/187 171/400/172 172/398/171 188/397/186
f 186/401/188 170/402/173 171/400/172 187/399/187
f 185/403/189 169/404/174 170/402/173 186/401/188
f 184/405/190 168/406/175 169/404/174 185/403/189
f 183/407/191 167/408/176 168/406/175 184/405/190
f 182/409/192 166/410/177 167/408/176 183/407/191
f 181/411/193 165/412/178 166/410/177 182/409/192
f 180/413/194 164/414/179 165/412/178 181/411/193
f 179/415/195 163/416/180 164/414/179 180/413/194
f 178/417/196 162/418/181 163/416/180 179/415/195
f 161/419/182 162/418/181 178/417/196 177/420/197
f 10/421/4 161/419/182 177/420/197 11/422/198
f 207/423/199 191/424/183 192/108/28 208/107/29
f 206/425/200 190/426/184 191/424/183 207/423/199
f 205/427/201 189/428/185 190/426/184 206/425/200
f 204/429/202 188/430/186 189/428/185 205/427/201
f 203/431/203 187/432/187 188/430/186 204/429/202
f 202/433/204 186/434/188 187/432/187 203/431/203
f 201/435/205 185/436/189 186/434/188 202/433/204
f 200/437/206 184/438/190 185/436/189 201/435/205
f 199/439/207 183/440/191 184/438/190 200/437/206
f 198/441/208 182/442/192 183/440/191 199/439/207
f 197/443/209 181/444/193 182/442/192 198/441/208
f 196/445/210 180/446/194 181/444/193 197/443/209
f 195/447/211 179/448/195 180/446/194 196/445/210
f 194/449/212 178/450/196 179/448/195 195/447/211
f 177/451/197 178/450/196 194/449/212 193/452/213
f 11/453/198 177/451/197 193/452/213 12/454/214
f 223/455/215 207/456/199 208/112/29 224/111/31
f 222/457/216 206/458/200 207/456/199 223/455/215
f 221/459/217 205/460/201 206/458/200 222/457/216
f 220/461/218 204/462/202 205/460/201 221/459/217
f 219/463/219 203/464/203 204/462/202 220/461/218
f 218/465/220 202/466/204 203/464/203 219/463/219
f 217/467/221 201/468/205 202/466/204 218/465/220
f 216/469/222 200/470/206 201/468/205 217/467/221
f 215/471/223 199/472/207 200/470/206 216/469/222
f 214/473/224 198/474/208 199/472/207 215/471/223
f 213/475/225 197/476/209 198/474/208 214/473/224
f 212/477/226 196/478/210 197/476/209 213/475/225
f 211/479/227 195/480/211 196/478/210 212/477/226
f 210/481/228 194/482/212 195/480/211 211/479/227
f 193/483/213 194/482/212 210/481/228 209/484/229
f 12/485/214 193/483/213 209/484/229 13/486/230
f 239/487/231 223/488/215 224/116/31 240/115/33
f 238/489/232 222/490/216 223/488/215 239/487/231
f 237/491/233 221/492/217 222/490/216 238/489/232
f 236/493/234 220/494/218 221/492/217 237/491/233
f 235/495/235 219/496/219 220/494/218 236/493/234
f 234/497/236 218/498/220 219/496/219 235/495/235
f 233/499/237 217/500/221 218/498/220 234/497/236
f 232/501/238 216/502/222 217/500/221 233/499/237
f 231/503/239 215/504/223 216/502/222 232/501/238
f 230/505/240 214/506/224 215/504/223 231/503/239
f 229/507/241 213/508/225 214/506/224 230/505/240
f 228/509/242 212/510/226 213/508/225 229/507/241
f 227/511/243 211/512/227 212/510/226 228/509/242
f 226/513/244 210/514/228 211/512/227 227/511/243
f 209/515/229 210/514/228 226/513/244 225/516/245
f 13/517/230 209/515/229 225/516/245 14/518/246
f 255/519/247 239/520/231 240/120/33 256/119/35
f 254/521/248 238/522/232 239/520/231 255/519/247
f 253/523/249 237/524/233 238/522/232 254/521/248
f 252/525/250 236/526/234 237/524/233 253/523/249
f 251/527/251 235/528/235 236/526/234 252/525/250
f 250/529/252 234/530/236 235/528/235 251/527/251
f 249/531/253 233/532/237 234/530/236 250/529/252
f 248/533/254 232/534/238 233/532/237 249/531/253
f 247/535/255 231/536/239 232/534/238 248/533/254
f 246/537/256 230/538/240 231/536/239 247/535/255
f 245/539/257 229/540/241 230/538/240 246/537/256
f 244/541/258 228/542/242 229/540/241 245/539/257
f 243/543/259 227/544/243 228/542/242 244/541/258
f 242/545/260 226/546/244 227/544/243 243/543/259
f 225/547/245 226/546/244 242/545/260 241/548/261
f 14/549/246 225/547/245 241/548/261 15/550/262
f 271/551/263 255/552/247 256/124/35 272/123/37
f 270/553/264 254/554/248 255/552/247 271/551/263
f 269/555/265 253/556/249 254/554/248 270/553/264
f 268/557/266 252/558/250 253/556/249 269/555/265
f 267/559/267 251/560/251 252/558/250 268/557/266
f 266/561/268 250/562/252 251/560/251 267/559/267
f 265/563/269 249/564/253 250/562/252 266/561/268
f 264/565/270 248/566/254 249/564/253 265/563/269
f 263/567/271 247/568/255 248/566/254 264/565/270
f 262/569/272 246/570/256 247/568/255 263/567/271
f 261/571/273 245/572/257 246/570/256 262/569/272
f 260/573/274 244/574/258 245/572/257 261/571/273
f 259/575/275 243/576/259 244/574/258 260/573/274
f 258/577/276 242/578/260 243/576/259 259/575/275
f 241/579/261 242/578/260 258/577/276 257/580/277
f 15/581/262 241/579/261 257/580/277 16/582/278
f 287/583/279 271/584/263 272/128/37 288/127/39
f 286/585/280 270/586/264 271/584/263 287/583/279
f 285/587/281 269/588/265 270/586/264 286/585/280
f 284/589/282 268/590/266 269/588/265 285/587/281
f 283/591/283 267/592/267 268/590/266 284/589/282
f 282/593/284 266/594/268 267/592/267 283/591/283
f 281/595/285 265/596/269 266/594/268 282/593/284
f 280/597/286 264/598/270 265/596/269 281/595/285
f 279/599/287 263/600/271 264/598/270 280/597/286
f 278/601/288 262/602/272 263/600/271 279/599/287
f 277/603/289 261/604/273 262/602/272 278/601/288
f 276/605/290 260/606/274 261/604/273 277/603/289
f 275/607/291 259/608/275 260/606/274 276/605/290
f 274/609/292 258/610/276 259/608/275 275/607/291
f 257/611/277 258/610/276 274/609/292 273/612/293
f 16/613/278 257/611/277 273/612/293 1/614/294
f 34/615/42 287/616/279 288/132/39 33/131/12
f 35/617/44 286/618/280 287/616/279 34/615/42
f 36/619/46 285/620/281 286/618/280 35/617/44
f 37/621/48 284/622/282 285/620/281 36/619/46
f 38/623/50 283/624/283 284/622/282 37/621/48
f 39/625/52 282/626/284 283/624/283 38/623/50
f 40/627/54 281/628/285 282/626/284 39/625/52
f 41/629/56 280/630/286 281/628/285 40/627/54
f 42/631/58 279/632/287 280/630/286 41/629/56
f 43/633/60 278/634/288 279/632/287 42/631/58
f 44/635/62 277/636/289 278/634/288 43/633/60
f 45/637/64 276/638/290 277/636/289 44/635/62
f 46/639/66 275/640/291 276/638/290 45/637/64
f 47/641/68 274/642/292 275/640/291 46/639/66
f 273/643/293 274/642/292 47/641/68 48/644/69
f 1/645/294 273/643/293 48/644/69 2/646/71
f 6/293/120 7/294/136 583/647/295 582/6/296
f 20/118/34 21/117/32 613/648/297 612/36/298
f 352/649/11 321/650/12 320/651/13 319/652/14
f 368/653/15 352/654/11 319/655/14 318/656/16
f 384/657/17 368/658/15 318/659/16 317/660/18
f 400/661/19 384/662/17 317/663/18 316/664/20
f 416/665/21 400/666/19 316/667/20 315/668/22
f 432/669/23 416/670/21 315/671/22 314/672/24
f 448/673/25 432/674/23 314/675/24 313/676/26
f 464/677/27 448/678/25 313/679/26 312/680/8
f 480/681/28 464/682/27 312/69/8 311/68/7
f 496/683/29 480/684/28 311/685/7 310/686/30
f 512/687/31 496/688/29 310/689/30 309/690/32
f 528/691/33 512/692/31 309/693/32 308/694/34
f 544/695/35 528/696/33 308/697/34 305/698/36
f 560/699/37 544/700/35 305/701/36 306/702/38
f 576/703/39 560/704/37 306/705/38 307/706/40
f 321/707/12 576/708/39 307/709/40 320/710/13
f 351/711/41 322/712/42 321/650/12 352/649/11
f 350/713/43 323/714/44 322/712/42 351/711/41
f 349/715/45 324/716/46 323/714/44 350/713/43
f 348/717/47 325/718/48 324/716/46 349/715/45
f 347/719/49 326/720/50 325/718/48 348/717/47
f 346/721/51 327/722/52 326/720/50 347/719/49
f 345/723/53 328/724/54 327/722/52 346/721/51
f 344/725/55 329/726/56 328/724/54 345/723/53
f 343/727/57 330/728/58 329/726/56 344/725/55
f 342/729/59 331/730/60 330/728/58 343/727/57
f 341/731/61 332/732/62 331/730/60 342/729/59
f 340/733/63 333/734/64 332/732/62 341/731/61
f 339/735/65 334/736/66 333/734/64 340/733/63
f 338/737/67 335/738/68 334/736/66 339/735/65
f 336/739/69 335/738/68 338/737/67 337/740/70
f 290/741/71 336/739/69 337/740/70 291/742/72
f 367/743/73 351/744/41 352/654/11 368/653/15
f 366/745/74 350/746/43 351/744/41 367/743/73
f 365/747/75 349/748/45 350/746/43 366/745/74
f 364/749/76 348/750/47 349/748/45 365/747/75
f 363/751/77 347/752/49 348/750/47 364/749/76
f 362/753/78 346/754/51 347/752/49 363/751/77
f 361/755/79 345/756/53 346/754/51 362/753/78
f 360/757/80 344/758/55 345/756/53 361/755/79
f 359/759/81 343/760/57 344/758/55 360/757/80
f 358/761/82 342/762/59 343/760/57 359/759/81
f 357/763/83 341/764/61 342/762/59 358/761/82
f 356/765/84 340/766/63 341/764/61 357/763/83
f 355/767/85 339/768/65 340/766/63 356/765/84
f 354/769/86 338/770/67 339/768/65 355/767/85
f 337/771/70 338/770/67 354/769/86 353/772/87
f 291/773/72 337/771/70 353/772/87 292/774/88
f 383/775/89 367/776/73 368/658/15 384/657/17
f 382/777/90 366/778/74 367/776/73 383/775/89
f 381/779/91 365/780/75 366/778/74 382/777/90
f 380/781/92 364/782/76 365/780/75 381/779/91
f 379/783/93 363/784/77 364/782/76 380/781/92
f 378/785/94 362/786/78 363/784/77 379/783/93
f 377/787/95 361/788/79 362/786/78 378/785/94
f 376/789/96 360/790/80 361/788/79 377/787/95
f 375/791/97 359/792/81 360/790/80 376/789/96
f 374/793/98 358/794/82 359/792/81 375/791/97
f 373/795/99 357/796/83 358/794/82 374/793/98
f 372/797/100 356/798/84 357/796/83 373/795/99
f 371/799/101 355/800/85 356/798/84 372/797/100
f 370/801/102 354/802/86 355/800/85 371/799/101
f 353/803/87 354/802/86 370/801/102 369/804/103
f 292/805/88 353/803/87 369/804/103 293/806/104
f 399/807/105 383/808/89 384/662/17 400/661/19
f 398/809/106 382/810/90 383/808/89 399/807/105
f 397/811/107 381/812/91 382/810/90 398/809/106
f 396/813/108 380/814/92 381/812/91 397/811/107
f 395/815/109 379/816/93 380/814/92 396/813/108
f 394/817/110 378/818/94 379/816/93 395/815/109
f 393/819/111 377/820/95 378/818/94 394/817/110
f 392/821/112 376/822/96 377/820/95 393/819/111
f 391/823/113 375/824/97 376/822/96 392/821/112
f 390/825/114 374/826/98 375/824/97 391/823/113
f 389/827/115 373/828/99 374/826/98 390/825/114
f 388/829/116 372/830/100 373/828/99 389/827/115
f 387/831/117 371/832/101 372/830/100 388/829/116
f 386/833/118 370/834/102 371/832/101 387/831/117
f 369/835/103 370/834/102 386/833/118 385/836/119
f 293/837/104 369/835/103 385/836/119 294/838/120
f 415/839/121 399/840/105 400/666/19 416/665/21
f 414/841/122 398/842/106 399/840/105 415/839/121
f 413/843/123 397/844/107 398/842/106 414/841/122
f 412/845/124 396/846/108 397/844/107 413/843/123
f 411/847/125 395/848/109 396/846/108 412/845/124
f 410/849/126 394/850/110 395/848/109 411/847/125
f 409/851/127 393/852/111 394/850/110 410/849/126
f 408/853/128 392/854/112 393/852/111 409/851/127
f 407/855/129 391/856/113 392/854/112 408/853/128
f 406/857/130 390/858/114 391/856/113 407/855/129
f 405/859/131 389/860/115 390/858/114 406/857/130
f 404/861/132 388/862/116 389/860/115 405/859/131
f 403/863/133 387/864/117 388/862/116 404/861/132
f 402/865/134 386/866/118 387/864/117 403/863/133
f 385/867/119 386/866/118 402/865/134 401/868/135
f 294/869/120 385/867/119 401/868/135 295/870/136
f 431/871/137 415/872/121 416/670/21 432/669/23
f 430/873/138 414/874/122 415/872/121 431/871/137
f 429/875/139 413/876/123 414/874/122 430/873/138
f 428/877/140 412/878/124 413/876/123 429/875/139
f 427/879/141 411/880/125 412/878/124 428/877/140
f 426/881/142 410/882/126 411/880/125 427/879/141
f 425/883/143 409/884/127 410/882/126 426/881/142
f 424/885/144 408/886/128 409/884/127 425/883/143
f 423/887/145 407/888/129 408/886/128 424/885/144
f 422/889/146 406/890/130 407/888/129 423/887/145
f 421/891/147 405/892/131 406/890/130 422/889/146
f 420/893/148 404/894/132 405/892/131 421/891/147
f 419/895/149 403/896/133 404/894/132 420/893/148
f 418/897/150 402/898/134 403/896/133 419/895/149
f 401/899/135 402/898/134 418/897/150 417/900/151
f 295/901/136 401/899/135 417/900/151 296/902/152
f 447/903/153 431/904/137 432/674/23 448/673/25
f 446/905/154 430/906/138 431/904/137 447/903/153
f 445/907/155 429/908/139 430/906/138 446/905/154
f 444/909/156 428/910/140 429/908/139 445/907/155
f 443/911/157 427/912/141 428/910/140 444/909/156
f 442/913/158 426/914/142 427/912/141 443/911/157
f 441/915/159 425/916/143 426/914/142 442/913/158
f 440/917/160 424/918/144 425/916/143 441/915/159
f 439/919/161 423/920/145 424/918/144 440/917/160
f 438/921/162 422/922/146 423/920/145 439/919/161
f 437/923/163 421/924/147 422/922/146 438/921/162
f 436/925/164 420/926/148 421/924/147 437/923/163
f 435/927/165 419/928/149 420/926/148 436/925/164
f 434/929/166 418/930/150 419/928/149 435/927/165
f 417/931/151 418/930/150 434/929/166 433/932/167
f 296/933/152 417/931/151 433/932/167 297/934/3
f 463/935/168 447/936/153 448/678/25 464/677/27
f 462/937/169 446/938/154 447/936/153 463/935/168
f 461/939/170 445/940/155 446/938/154 462/937/169
f 460/941/171 444/942/156 445/940/155 461/939/170
f 459/943/172 443/944/157 444/942/156 460/941/171
f 458/945/173 442/946/158 443/944/157 459/943/172
f 457/947/174 441/948/159 442/946/158 458/945/173
f 456/949/175 440/950/160 441/948/159 457/947/174
f 455/951/176 439/952/161 440/950/160 456/949/175
f 454/953/177 438/954/162 439/952/161 455/951/176
f 453/955/178 437/956/163 438/954/162 454/953/177
f 452/957/179 436/958/164 437/956/163 453/955/178
f 451/959/180 435/960/165 436/958/164 452/957/179
f 450/961/181 434/962/166 435/960/165 451/959/180
f 433/963/167 434/962/166 450/961/181 449/964/182
f 297/65/3 433/963/167 449/964/182 298/66/4
f 479/965/183 463/966/168 464/682/27 480/681/28
f 478/967/184 462/968/169 463/966/168 479/965/183
f 477/969/185 461/970/170 462/968/169 478/967/184
f 476/971/186 460/972/171 461/970/170 477/969/185
f 475/973/187 459/974/172 460/972/171 476/971/186
f 474/975/188 458/976/173 459/974/172 475/973/187
f 473/977/189 457/978/174 458/976/173 474/975/188
f 472/979/190 456/980/175 457/978/174 473/977/189
f 471/981/191 455/982/176 456/980/175 472/979/190
f 470/983/192 454/984/177 455/982/176 471/981/191
f 469/985/193 453/986/178 454/984/177 470/983/192
f 468/987/194 452/988/179 453/986/178 469/985/193
f 467/989/195 451/990/180 452/988/179 468/987/194
f 466/991/196 450/992/181 451/990/180 467/989/195
f 449/993/182 450/992/181 466/991/196 465/994/197
f 298/995/4 449/993/182 465/994/197 299/996/198
f 495/997/199 479/998/183 480/684/28 496/683/29
f 494/999/200 478/1000/184 479/998/183 495/997/199
f 493/1001/201 477/1002/185 478/1000/184 494/999/200
f 492/1003/202 476/1004/186 477/1002/185 493/1001/201
f 491/1005/203 475/1006/187 476/1004/186 492/1003/202
f 490/1007/204 474/1008/188 475/1006/187 491/1005/203
f 489/1009/205 473/1010/189 474/1008/188 490/1007/204
f 488/1011/206 472/1012/190 473/1010/189 489/1009/205
f 487/1013/207 471/1014/191 472/1012/190 488/1011/206
f 486/1015/208 470/1016/192 471/1014/191 487/1013/207
f 485/1017/209 469/1018/193 470/1016/192 486/1015/208
f 484/1019/210 468/1020/194 469/1018/193 485/1017/209
f 483/1021/211 467/1022/195 468/1020/194 484/1019/210
f 482/1023/212 466/1024/196 467/1022/195 483/1021/211
f 465/1025/197 466/1024/196 482/1023/212 481/1026/213
f 299/1027/198 465/1025/197 481/1026/213 300/1028/214
f 511/1029/215 495/1030/199 496/688/29 512/687/31
f 510/1031/216 494/1032/200 495/1030/199 511/1029/215
f 509/1033/217 493/1034/201 494/1032/200 510/1031/216
f 508/1035/218 492/1036/202 493/1034/201 509/1033/217
f 507/1037/219 491/1038/203 492/1036/202 508/1035/218
f 506/1039/220 490/1040/204 491/1038/203 507/1037/219
f 505/1041/221 489/1042/205 490/1040/204 506/1039/220
f 504/1043/222 488/1044/206 489/1042/205 505/1041/221
f 503/1045/223 487/1046/207 488/1044/206 504/1043/222
f 502/1047/224 486/1048/208 487/1046/207 503/1045/223
f 501/1049/225 485/1050/209 486/1048/208 502/1047/224
f 500/1051/226 484/1052/210 485/1050/209 501/1049/225
f 499/1053/227 483/1054/211 484/1052/210 500/1051/226
f 498/1055/228 482/1056/212 483/1054/211 499/1053/227
f 481/1057/213 482/1056/212 498/1055/228 497/1058/229
f 300/1059/214 481/1057/213 497/1058/229 301/1060/230
f 527/1061/231 511/1062/215 512/692/31 528/691/33
f 526/1063/232 510/1064/216 511/1062/215 527/1061/231
f 525/1065/233 509/1066/217 510/1064/216 526/1063/232
f 524/1067/234 508/1068/218 509/1066/217 525/1065/233
f 523/1069/235 507/1070/219 508/1068/218 524/1067/234
f 522/1071/236 506/1072/220 507/1070/219 523/1069/235
f 521/1073/237 505/1074/221 506/1072/220 522/1071/236
f 520/1075/238 504/1076/222 505/1074/221 521/1073/237
f 519/1077/239 503/1078/223 504/1076/222 520/1075/238
f 518/1079/240 502/1080/224 503/1078/223 519/1077/239
f 517/1081/241 501/1082/225 502/1080/224 518/1079/240
f 516/1083/242 500/1084/226 501/1082/225 517/1081/241
f 515/1085/243 499/1086/227 500/1084/226 516/1083/242
f 514/1087/244 498/1088/228 499/1086/227 515/1085/243
f 497/1089/229 498/1088/228 514/1087/244 513/1090/245
f 301/1091/230 497/1089/229 513/1090/245 302/1092/246
f 543/1093/247 527/1094/231 528/696/33 544/695/35
f 542/1095/248 526/1096/232 527/1094/231 543/1093/247
f 541/1097/249 525/1098/233 526/1096/232 542/1095/248
f 540/1099/250 524/1100/234 525/1098/233 541/1097/249
f 539/1101/251 523/1102/235 524/1100/234 540/1099/250
f 538/1103/252 522/1104/236 523/1102/235 539/1101/251
f 537/1105/253 521/1106/237 522/1104/236 538/1103/252
f 536/1107/254 520/1108/238 521/1106/237 537/1105/253
f 535/1109/255 519/1110/239 520/1108/238 536/1107/254
f 534/1111/256 518/1112/240 519/1110/239 535/1109/255
f 533/1113/257 517/1114/241 518/1112/240 534/1111/256
f 532/1115/258 516/1116/242 517/1114/241 533/1113/257
f 531/1117/259 515/1118/243 516/1116/242 532/1115/258
f 530/1119/260 514/1120/244 515/1118/243 531/1117/259
f 513/1121/245 514/1120/244 530/1119/260 529/1122/261
f 302/1123/246 513/1121/245 529/1122/261 303/1124/262
f 559/1125/263 543/1126/247 544/700/35 560/699/37
f 558/1127/264 542/1128/248 543/1126/247 559/1125/263
f 557/1129/265 541/1130/249 542/1128/248 558/1127/264
f 556/1131/266 540/1132/250 541/1130/249 557/1129/265
f 555/1133/267 539/1134/251 540/1132/250 556/1131/266
f 554/1135/268 538/1136/252 539/1134/251 555/1133/267
f 553/1137/269 537/1138/253 538/1136/252 554/1135/268
f 552/1139/270 536/1140/254 537/1138/253 553/1137/269
f 551/1141/271 535/1142/255 536/1140/254 552/1139/270
f 550/1143/272 534/1144/256 535/1142/255 551/1141/271
f 549/1145/273 533/1146/257 534/1144/256 550/1143/272
f 548/1147/274 532/1148/258 533/1146/257 549/1145/273
f 547/1149/275 531/1150/259 532/1148/258 548/1147/274
f 546/1151/276 530/1152/260 531/1150/259 547/1149/275
f 529/1153/261 530/1152/260 546/1151/276 545/1154/277
f 303/1155/262 529/1153/261 545/1154/277 304/1156/278
f 575/1157/279 559/1158/263 560/704/37 576/703/39
f 574/1159/280 558/1160/264 559/1158/263 575/1157/279
f 573/1161/281 557/1162/265 558/1160/264 574/1159/280
f 572/1163/282 556/1164/266 557/1162/265 573/1161/281
f 571/1165/283 555/1166/267 556/1164/266 572/1163/282
f 570/1167/284 554/1168/268 555/1166/267 571/1165/283
f 569/1169/285 553/1170/269 554/1168/268 570/1167/284
f 568/1171/286 552/1172/270 553/1170/269 569/1169/285
f 567/1173/287 551/1174/271 552/1172/270 568/1171/286
f 566/1175/288 550/1176/272 551/1174/271 567/1173/287
f 565/1177/289 549/1178/273 550/1176/272 566/1175/288
f 564/1179/290 548/1180/274 549/1178/273 565/1177/289
f 563/1181/291 547/1182/275 548/1180/274 564/1179/290
f 562/1183/292 546/1184/276 547/1182/275 563/1181/291
f 545/1185/277 546/1184/276 562/1183/292 561/1186/293
f 304/1187/278 545/1185/277 561/1186/293 289/1188/294
f 322/1189/42 575/1190/279 576/708/39 321/707/12
f 323/1191/44 574/1192/280 575/1190/279 322/1189/42
f 324/1193/46 573/1194/281 574/1192/280 323/1191/44
f 325/1195/48 572/1196/282 573/1194/281 324/1193/46
f 326/1197/50 571/1198/283 572/1196/282 325/1195/48
f 327/1199/52 570/1200/284 571/1198/283 326/1197/50
f 328/1201/54 569/1202/285 570/1200/284 327/1199/52
f 329/1203/56 568/1204/286 569/1202/285 328/1201/54
f 330/1205/58 567/1206/287 568/1204/286 329/1203/56
f 331/1207/60 566/1208/288 567/1206/287 330/1205/58
f 332/1209/62 565/1210/289 566/1208/288 331/1207/60
f 333/1211/64 564/1212/290 565/1210/289 332/1209/62
f 334/1213/66 563/1214/291 564/1212/290 333/1211/64
f 335/1215/68 562/1216/292 563/1214/291 334/1213/66
f 561/1217/293 562/1216/292 335/1215/68 336/1218/69
f 289/1219/294 561/1217/293 336/1218/69 290/1220/71
f 7/325/136 8/326/152 584/1221/299 583/7/295
f 298/995/4 299/996/198 603/1222/300 602/26/5
f 8/357/152 9/358/3 585/1223/6 584/8/299
f 299/1027/198 300/1028/214 604/1224/301 603/27/300
f 9/389/3 10/390/4 586/1225/5 585/9/6
f 300/1059/214 301/1060/230 605/1226/297 604/28/301
f 10/421/4 11/422/198 587/1227/300 586/10/5
f 301/1091/230 302/1092/246 606/1228/302 605/29/297
f 11/453/198 12/454/214 588/1229/301 587/11/300
f 302/1123/246 303/1124/262 607/1230/303 606/30/302
f 289/1219/294 290/1220/71 594/1231/304 593/17/305
f 12/485/214 13/486/230 589/1232/297 588/12/301
f 303/1155/262 304/1156/278 608/1233/306 607/31/303
f 290/741/71 291/742/72 595/1234/307 594/18/304
f 13/517/230 14/518/246 590/1235/302 589/13/297
f 304/1187/278 289/1188/294 593/1236/305 608/32/306
f 291/773/72 292/774/88 596/1237/308 595/19/307
f 14/549/246 15/550/262 591/1238/303 590/14/302
f 1/645/294 2/646/71 578/1239/304 577/1/305
f 292/805/88 293/806/104 597/1240/309 596/20/308
f 15/581/262 16/582/278 592/1241/306 591/15/303
f 2/165/71 3/166/72 579/1242/307 578/2/304
f 293/837/104 294/838/120 598/1243/296 597/21/309
f 16/613/278 1/614/294 577/1244/305 592/16/306
f 3/197/72 4/198/88 580/1245/308 579/3/307
f 294/869/120 295/870/136 599/1246/295 598/22/296
f 4/229/88 5/230/104 581/1247/309 580/4/308
f 295/901/136 296/902/152 600/1248/299 599/23/295
f 5/261/104 6/262/120 582/1249/296 581/5/309
f 296/933/152 297/934/3 601/1250/6 600/24/299
f 21/114/32 22/113/30 614/1251/310 613/37/297
f 312/680/8 313/679/26 633/1252/311 632/56/9
f 22/110/30 23/109/7 615/1253/10 614/38/310
f 313/676/26 314/675/24 634/1254/312 633/57/311
f 23/106/7 24/105/8 616/1255/9 615/39/10
f 314/672/24 315/671/22 635/1256/313 634/58/312
f 24/102/8 25/101/26 617/1257/311 616/40/9
f 315/668/22 316/667/20 636/1258/314 635/59/313
f 25/98/26 26/97/24 618/1259/312 617/41/311
f 316/664/20 317/663/18 637/1260/309 636/60/314
f 26/94/24 27/93/22 619/1261/313 618/42/312
f 317/660/18 318/659/16 638/1262/315 637/61/309
f 27/90/22 28/89/20 620/1263/314 619/43/313
f 318/656/16 319/655/14 639/1264/316 638/62/315
f 306/702/38 305/701/36 625/1265/317 626/50/318
f 28/86/20 29/85/18 621/1266/309 620/44/314
f 319/652/14 320/651/13 640/1267/319 639/63/316
f 307/706/40 306/705/38 626/1268/318 627/49/320
f 29/82/18 30/81/16 622/1269/315 621/45/309
f 320/710/13 307/709/40 627/1270/320 640/64/319
f 305/698/36 308/697/34 628/1271/298 625/51/317
f 30/78/16 31/77/14 623/1272/316 622/46/315
f 18/126/38 17/125/36 609/1273/317 610/34/318
f 308/694/34 309/693/32 629/1274/297 628/52/298
f 31/74/14 32/73/13 624/1275/319 623/47/316
f 19/130/40 18/129/38 610/1276/318 611/33/320
f 309/690/32 310/689/30 630/1277/310 629/53/297
f 32/134/13 19/133/40 611/1278/320 624/48/319
f 17/122/36 20/121/34 612/1279/298 609/35/317
f 310/686/30 311/685/7 631/1280/10 630/54/310
