# Blender v2.78 (sub 0) OBJ File: 'RollerCoasterRailLine.blend'
# www.blender.org
mtllib RollerCoasterRailLine.mtl
o Circle
v 0.500000 1.000000 0.000000
v 0.308659 0.961940 0.000000
v 0.146447 0.853553 0.000000
v 0.038060 0.691342 0.000000
v 0.000000 0.500000 -0.000000
v 0.038060 0.308658 -0.000000
v 0.146447 0.146447 -0.000000
v 0.308659 0.038060 -0.000000
v 0.500000 0.000000 0.000000
v 0.691342 0.038060 -0.000000
v 0.853553 0.146446 -0.000000
v 0.961940 0.308658 -0.000000
v 1.000000 0.500000 -0.000000
v 0.961940 0.691342 0.000000
v 0.853553 0.853554 0.000000
v 0.691341 0.961940 0.000000
v 8.500000 1.000000 0.000000
v 8.308659 0.961940 0.000000
v 8.146446 0.853553 0.000000
v 8.038060 0.691342 0.000000
v 8.000000 0.500000 -0.000000
v 8.038060 0.308658 -0.000000
v 8.146446 0.146447 -0.000000
v 8.308659 0.038060 -0.000000
v 8.500000 0.000000 0.000000
v 8.691341 0.038060 -0.000000
v 8.853554 0.146446 -0.000000
v 8.961940 0.308658 -0.000000
v 9.000000 0.500000 -0.000000
v 8.961940 0.691342 0.000000
v 8.853554 0.853554 0.000000
v 8.691341 0.961940 0.000000
v 0.500000 1.000002 -64.000000
v 0.308659 0.961941 -64.000000
v 0.146447 0.853555 -64.000000
v 0.038060 0.691343 -64.000000
v 0.000000 0.500002 -64.000000
v 0.038060 0.308660 -64.000000
v 0.146447 0.146448 -64.000000
v 0.308659 0.038062 -64.000000
v 0.500000 0.000002 -64.000000
v 0.691342 0.038062 -64.000000
v 0.853553 0.146448 -64.000000
v 0.961940 0.308660 -64.000000
v 1.000000 0.500002 -64.000000
v 0.961940 0.691344 -64.000000
v 0.853553 0.853555 -64.000000
v 0.691341 0.961942 -64.000000
v 8.500000 1.000002 -64.000000
v 8.308659 0.961941 -64.000000
v 8.146446 0.853555 -64.000000
v 8.038060 0.691343 -64.000000
v 8.000000 0.500002 -64.000000
v 8.038060 0.308660 -64.000000
v 8.146446 0.146448 -64.000000
v 8.308659 0.038062 -64.000000
v 8.500000 0.000002 -64.000000
v 8.691341 0.038062 -64.000000
v 8.853554 0.146448 -64.000000
v 8.961940 0.308660 -64.000000
v 9.000000 0.500002 -64.000000
v 8.961940 0.691344 -64.000000
v 8.853554 0.853555 -64.000000
v 8.691341 0.961942 -64.000000
vt 0.8498 0.0521
vt 0.8612 0.0493
vt 0.8823 0.0471
vt 0.9099 0.0460
vt 0.9398 0.0460
vt 0.9674 0.0471
vt 0.9886 0.0493
vt 1.0000 0.0521
vt 1.0000 0.0552
vt 0.9886 0.0580
vt 0.9674 0.0601
vt 0.9398 0.0613
vt 0.9099 0.0613
vt 0.8823 0.0601
vt 0.8612 0.0580
vt 0.8498 0.0552
vt 1.0000 0.0398
vt 0.9886 0.0427
vt 0.9674 0.0448
vt 0.9398 0.0460
vt 0.9099 0.0460
vt 0.8823 0.0448
vt 0.8612 0.0427
vt 0.8498 0.0398
vt 0.8498 0.0368
vt 0.8612 0.0340
vt 0.8823 0.0318
vt 0.9099 0.0306
vt 0.9398 0.0306
vt 0.9674 0.0318
vt 0.9886 0.0340
vt 1.0000 0.0368
vt 0.9674 0.0012
vt 0.9886 0.0033
vt 1.0000 0.0061
vt 1.0000 0.0092
vt 0.9886 0.0120
vt 0.9674 0.0142
vt 0.9398 0.0153
vt 0.9100 0.0153
vt 0.8823 0.0142
vt 0.8612 0.0120
vt 0.8498 0.0092
vt 0.8498 0.0061
vt 0.8612 0.0033
vt 0.8823 0.0012
vt 0.9099 0.0000
vt 0.9398 0.0000
vt 0.8823 0.0295
vt 0.8612 0.0273
vt 0.8498 0.0245
vt 0.8498 0.0215
vt 0.8612 0.0186
vt 0.8823 0.0165
vt 0.9099 0.0153
vt 0.9398 0.0153
vt 0.9674 0.0165
vt 0.9886 0.0186
vt 1.0000 0.0215
vt 1.0000 0.0245
vt 0.9886 0.0273
vt 0.9674 0.0295
vt 0.9398 0.0306
vt 0.9100 0.0306
vt 0.3609 0.0000
vt 0.3609 1.0000
vt 0.3333 1.0000
vt 0.3333 0.0000
vt 0.0211 0.0000
vt 0.0211 1.0000
vt 0.0000 1.0000
vt 0.0000 0.0000
vt 0.7072 0.0000
vt 0.7072 1.0000
vt 0.6796 1.0000
vt 0.6796 0.0000
vt 0.3034 1.0000
vt 0.3034 0.0000
vt 0.6796 0.0000
vt 0.6796 1.0000
vt 0.6520 1.0000
vt 0.6520 0.0000
vt 0.1274 1.0000
vt 0.1274 0.0000
vt 0.1485 0.0000
vt 0.1485 1.0000
vt 0.2758 1.0000
vt 0.2758 0.0000
vt 0.6221 1.0000
vt 0.6221 0.0000
vt 0.1761 0.0000
vt 0.1761 1.0000
vt 0.2547 1.0000
vt 0.2547 0.0000
vt 0.5945 1.0000
vt 0.5945 0.0000
vt 0.2060 0.0000
vt 0.2060 1.0000
vt 0.5945 0.0000
vt 0.5945 1.0000
vt 0.5669 1.0000
vt 0.5669 0.0000
vt 0.2336 0.0000
vt 0.2336 1.0000
vt 0.5370 1.0000
vt 0.5370 0.0000
vt 0.2547 0.0000
vt 0.2547 1.0000
vt 0.5094 1.0000
vt 0.5094 0.0000
vt 0.8498 0.0000
vt 0.8498 1.0000
vt 0.8222 1.0000
vt 0.8222 0.0000
vt 0.4883 1.0000
vt 0.4883 0.0000
vt 0.7923 1.0000
vt 0.7923 0.0000
vt 0.4607 1.0000
vt 0.4607 0.0000
vt 0.7647 1.0000
vt 0.7647 0.0000
vt 0.4308 1.0000
vt 0.4308 0.0000
vt 0.1273 0.0000
vt 0.1274 1.0000
vt 0.1062 1.0000
vt 0.1062 0.0000
vt 0.4032 1.0000
vt 0.4032 0.0000
vt 0.0786 1.0000
vt 0.0786 0.0000
vt 0.3821 1.0000
vt 0.3821 0.0000
vt 0.0487 1.0000
vt 0.0487 0.0000
vt 0.7647 0.0000
vt 0.7647 1.0000
vt 0.7371 1.0000
vt 0.7371 0.0000
vt 0.3821 0.0000
vt 0.3821 1.0000
vn -0.0000 -0.0000 1.0000
vn 0.0000 0.0000 -1.0000
vn -0.3827 0.9239 0.0000
vn -0.7071 0.7071 0.0000
vn 1.0000 -0.0000 -0.0000
vn 0.9239 0.3827 0.0000
vn 0.3827 0.9239 0.0000
vn -0.0000 1.0000 0.0000
vn -0.9239 0.3827 0.0000
vn 0.7071 0.7071 0.0000
vn -1.0000 0.0000 0.0000
vn -0.9239 -0.3827 -0.0000
vn -0.7071 -0.7071 -0.0000
vn -0.3827 -0.9239 -0.0000
vn -0.0000 -1.0000 -0.0000
vn 0.3827 -0.9239 -0.0000
vn 0.7071 -0.7071 -0.0000
vn 0.9239 -0.3827 -0.0000
usemtl None
s off
f 2/1/1 3/2/1 4/3/1 5/4/1 6/5/1 7/6/1 8/7/1 9/8/1 10/9/1 11/10/1 12/11/1 13/12/1 14/13/1 15/14/1 16/15/1 1/16/1
f 18/17/1 19/18/1 20/19/1 21/20/1 22/21/1 23/22/1 24/23/1 25/24/1 26/25/1 27/26/1 28/27/1 29/28/1 30/29/1 31/30/1 32/31/1 17/32/1
f 34/33/2 33/34/2 48/35/2 47/36/2 46/37/2 45/38/2 44/39/2 43/40/2 42/41/2 41/42/2 40/43/2 39/44/2 38/45/2 37/46/2 36/47/2 35/48/2
f 50/49/2 49/50/2 64/51/2 63/52/2 62/53/2 61/54/2 60/55/2 59/56/2 58/57/2 57/58/2 56/59/2 55/60/2 54/61/2 53/62/2 52/63/2 51/64/2
s 1
f 2/65/3 34/66/3 35/67/4 3/68/4
f 29/69/5 61/70/5 62/71/6 30/72/6
f 16/73/7 48/74/7 33/75/8 1/76/8
f 3/68/4 35/67/4 36/77/9 4/78/9
f 30/79/6 62/80/6 63/81/10 31/82/10
f 17/83/8 49/84/8 50/85/3 18/86/3
f 4/78/9 36/77/9 37/87/11 5/88/11
f 31/82/10 63/81/10 64/89/7 32/90/7
f 18/86/3 50/85/3 51/91/4 19/92/4
f 5/88/11 37/87/11 38/93/12 6/94/12
f 32/90/7 64/89/7 49/95/8 17/96/8
f 19/92/4 51/91/4 52/97/9 20/98/9
f 6/99/12 38/100/12 39/101/13 7/102/13
f 20/98/9 52/97/9 53/103/11 21/104/11
f 7/102/13 39/101/13 40/105/14 8/106/14
f 21/104/11 53/103/11 54/107/12 22/108/12
f 8/106/14 40/105/14 41/109/15 9/110/15
f 22/111/12 54/112/12 55/113/13 23/114/13
f 9/110/15 41/109/15 42/115/16 10/116/16
f 23/114/13 55/113/13 56/117/14 24/118/14
f 10/116/16 42/115/16 43/119/17 11/120/17
f 24/118/14 56/117/14 57/121/15 25/122/15
f 11/120/17 43/119/17 44/123/18 12/124/18
f 25/125/15 57/126/15 58/127/16 26/128/16
f 12/124/18 44/123/18 45/129/5 13/130/5
f 26/128/16 58/127/16 59/131/17 27/132/17
f 13/130/5 45/129/5 46/133/6 14/134/6
f 27/132/17 59/131/17 60/135/18 28/136/18
f 14/137/6 46/138/6 47/139/10 15/140/10
f 1/141/8 33/142/8 34/66/3 2/65/3
f 28/136/18 60/135/18 61/70/5 29/69/5
f 15/140/10 47/139/10 48/74/7 16/73/7
