# Blender v2.78 (sub 0) OBJ File: 'RollerCoasterRail45BigCurve.blend'
# www.blender.org
mtllib RollerCoasterRail45BigCurve.mtl
o Circle
v 0.500000 1.000000 -3.000000
v 0.308655 0.961940 -3.000000
v 0.146446 0.853553 -3.000000
v 0.038055 0.691342 -3.000000
v 0.000000 0.500000 -3.000000
v 0.038055 0.308658 -3.000000
v 0.146446 0.146447 -3.000000
v 0.308655 0.038060 -3.000000
v 0.500000 -0.000000 -3.000000
v 0.691345 0.038060 -3.000000
v 0.853554 0.146446 -3.000000
v 0.961945 0.308658 -3.000000
v 1.000000 0.500000 -3.000000
v 0.961945 0.691342 -3.000000
v 0.853554 0.853554 -3.000000
v 0.691345 0.961940 -3.000000
v 8.500000 1.000000 -3.000000
v 8.308655 0.961940 -3.000000
v 8.146446 0.853553 -3.000000
v 8.038055 0.691342 -3.000000
v 8.000000 0.500000 -3.000000
v 8.038055 0.308658 -3.000000
v 8.146446 0.146447 -3.000000
v 8.308655 0.038060 -3.000000
v 8.500000 -0.000000 -3.000000
v 8.691345 0.038060 -3.000000
v 8.853554 0.146446 -3.000000
v 8.961945 0.308658 -3.000000
v 9.000000 0.500000 -3.000000
v 8.961945 0.691342 -3.000000
v 8.853554 0.853554 -3.000000
v 8.691345 0.961940 -3.000000
v 27.463722 0.961940 -48.536278
v 27.578419 0.853554 -48.421581
v 27.655064 0.691342 -48.344936
v 27.681973 0.500000 -48.318027
v 27.655064 0.308658 -48.344936
v 27.578419 0.146446 -48.421581
v 27.463722 0.038060 -48.536278
v 27.328419 -0.000000 -48.671581
v 27.193119 0.038060 -48.806881
v 27.078419 0.146447 -48.921581
v 27.001774 0.308658 -48.998226
v 26.974865 0.500000 -49.025135
v 27.001774 0.691342 -48.998226
v 27.078419 0.853553 -48.921581
v 27.193119 0.961940 -48.806881
v 27.328419 1.000000 -48.671581
v 21.806866 0.961940 -54.193134
v 21.921566 0.853554 -54.078434
v 21.998211 0.691342 -54.001789
v 22.025120 0.500000 -53.974880
v 21.998211 0.308658 -54.001789
v 21.921566 0.146446 -54.078434
v 21.806866 0.038060 -54.193134
v 21.671566 -0.000000 -54.328434
v 21.536263 0.038060 -54.463737
v 21.421566 0.146447 -54.578434
v 21.344921 0.308658 -54.655079
v 21.318012 0.500000 -54.681988
v 21.344921 0.691342 -54.655079
v 21.421566 0.853553 -54.578434
v 21.536263 0.961940 -54.463737
v 21.671566 1.000000 -54.328434
v 19.227581 0.961938 -52.038811
v 17.037926 0.961937 -49.503292
v 14.970001 0.961935 -46.864258
v 13.026485 0.961935 -44.128796
v 11.210091 0.961935 -41.303944
v 9.523491 0.961935 -38.396759
v 7.969368 0.961935 -35.414310
v 6.550438 0.961935 -32.363632
v 5.269356 0.961936 -29.251785
v 4.128860 0.961936 -26.085800
v 3.131630 0.961937 -22.872730
v 2.280380 0.961937 -19.619617
v 1.577812 0.961938 -16.333508
v 1.026634 0.961939 -13.021440
v 0.629578 0.961939 -9.690462
v 0.389343 0.961940 -6.347623
v 0.227310 0.853553 -6.355393
v 0.468094 0.853553 -9.705880
v 0.866043 0.853553 -13.044361
v 1.418442 0.853552 -16.363787
v 2.122559 0.853551 -19.657118
v 2.975655 0.853551 -22.917316
v 3.975052 0.853550 -26.137344
v 5.118004 0.853549 -29.310165
v 6.401848 0.853549 -32.428734
v 7.823860 0.853548 -35.486019
v 9.381367 0.853548 -38.474964
v 11.071671 0.853548 -41.388535
v 12.892113 0.853549 -44.219662
v 14.840000 0.853549 -46.961296
v 16.912659 0.853550 -49.606358
v 19.107418 0.853552 -52.147785
v 0.119041 0.691342 -6.360585
v 0.360191 0.691341 -9.716183
v 0.758743 0.691341 -13.059676
v 1.311958 0.691340 -16.384018
v 2.017105 0.691339 -19.682175
v 2.871445 0.691339 -22.947107
v 3.872284 0.691338 -26.171783
v 5.016884 0.691338 -29.349171
v 6.302567 0.691337 -32.472229
v 7.726639 0.691337 -35.533928
v 9.286407 0.691336 -38.527218
v 10.979195 0.691336 -41.445053
v 12.802330 0.691337 -44.280376
v 14.753143 0.691337 -47.026123
v 16.828964 0.691338 -49.675224
v 19.027126 0.691340 -52.220589
v 0.081032 0.500000 -6.362408
v 0.322304 0.500000 -9.719801
v 0.721069 0.499999 -13.065054
v 1.274574 0.499999 -16.391125
v 1.980080 0.499998 -19.690971
v 2.834854 0.499997 -22.957569
v 3.836197 0.499996 -26.183876
v 4.981377 0.499996 -29.362869
v 6.267715 0.499995 -32.487503
v 7.692505 0.499995 -35.550751
v 9.253067 0.499995 -38.545563
v 10.946724 0.499995 -41.464897
v 12.770798 0.499995 -44.301697
v 14.722641 0.499996 -47.048889
v 16.799576 0.499997 -49.699402
v 18.998943 0.499998 -52.246151
v 0.119034 0.308658 -6.360585
v 0.360176 0.308658 -9.716184
v 0.758736 0.308657 -13.059677
v 1.311951 0.308657 -16.384020
v 2.017097 0.308656 -19.682175
v 2.871445 0.308655 -22.947111
v 3.872276 0.308655 -26.171787
v 5.016876 0.308654 -29.349174
v 6.302567 0.308654 -32.472233
v 7.726639 0.308653 -35.533928
v 9.286404 0.308653 -38.527222
v 10.979187 0.308653 -41.445057
v 12.802326 0.308653 -44.280380
v 14.753143 0.308654 -47.026123
v 16.828957 0.308655 -49.675224
v 19.027126 0.308656 -52.220592
v 0.227310 0.146446 -6.355393
v 0.468094 0.146446 -9.705880
v 0.866043 0.146446 -13.044361
v 1.418442 0.146445 -16.363787
v 2.122559 0.146444 -19.657116
v 2.975662 0.146444 -22.917316
v 3.975060 0.146443 -26.137344
v 5.118004 0.146442 -29.310163
v 6.401855 0.146442 -32.428734
v 7.823860 0.146441 -35.486019
v 9.381367 0.146441 -38.474964
v 11.071671 0.146441 -41.388531
v 12.892113 0.146442 -44.219662
v 14.840000 0.146442 -46.961292
v 16.912659 0.146443 -49.606358
v 19.107418 0.146445 -52.147778
v 0.389328 0.038060 -6.347623
v 0.629555 0.038060 -9.690463
v 1.026627 0.038059 -13.021441
v 1.577797 0.038059 -16.333509
v 2.280373 0.038058 -19.619619
v 3.131622 0.038057 -22.872734
v 4.128860 0.038057 -26.085804
v 5.269348 0.038056 -29.251785
v 6.550415 0.038056 -32.363636
v 7.969368 0.038055 -35.414310
v 9.523487 0.038055 -38.396767
v 11.210079 0.038055 -41.303944
v 13.026482 0.038055 -44.128799
v 14.970001 0.038056 -46.864265
v 17.037922 0.038057 -49.503292
v 19.227573 0.038058 -52.038807
v 0.580460 -0.000000 -6.338457
v 0.820053 -0.000000 -9.672275
v 1.216057 -0.000001 -12.994403
v 1.765793 -0.000001 -16.297789
v 2.466537 -0.000002 -19.575384
v 3.315605 -0.000003 -22.820141
v 4.310287 -0.000004 -26.025002
v 5.447884 -0.000004 -29.182922
v 6.725693 -0.000005 -32.286846
v 8.141006 -0.000005 -35.329731
v 9.691128 -0.000005 -38.304520
v 11.373360 -0.000005 -41.204159
v 13.184990 -0.000005 -44.021610
v 15.123329 -0.000004 -46.749805
v 17.185677 -0.000003 -49.381714
v 19.369331 -0.000002 -51.910275
v 0.771584 0.038060 -6.329292
v 1.010529 0.038060 -9.654088
v 1.405487 0.038059 -12.967367
v 1.953766 0.038059 -16.262074
v 2.652710 0.038058 -19.531151
v 3.499580 0.038057 -22.767550
v 4.491714 0.038057 -25.964203
v 5.626404 0.038056 -29.114063
v 6.900955 0.038056 -32.210060
v 8.312645 0.038055 -35.245152
v 9.858768 0.038055 -38.212273
v 11.536629 0.038055 -41.104382
v 13.343502 0.038055 -43.914425
v 15.276680 0.038056 -46.635361
v 17.333435 0.038057 -49.260139
v 19.511063 0.038058 -51.781731
v 0.933609 0.146446 -6.321522
v 1.171997 0.146446 -9.638670
v 1.566071 0.146446 -12.944446
v 2.113129 0.146445 -16.231792
v 2.810516 0.146444 -19.493652
v 3.655540 0.146444 -22.722965
v 4.645515 0.146443 -25.912661
v 5.777740 0.146442 -29.055681
v 7.049530 0.146442 -32.144962
v 8.458145 0.146441 -35.173447
v 10.000877 0.146441 -38.134075
v 11.675034 0.146441 -41.019794
v 13.477867 0.146442 -43.823559
v 15.406662 0.146442 -46.538334
v 17.458694 0.146443 -49.157070
v 19.631222 0.146445 -51.672768
v 1.041878 0.308658 -6.316330
v 1.279907 0.308658 -9.628367
v 1.673378 0.308657 -12.929132
v 2.219612 0.308657 -16.211563
v 2.915970 0.308656 -19.468596
v 3.759758 0.308655 -22.693172
v 4.748291 0.308655 -25.878220
v 5.878876 0.308654 -29.016674
v 7.148811 0.308654 -32.101463
v 8.555367 0.308653 -35.125534
v 10.095856 0.308653 -38.081821
v 11.767521 0.308653 -40.963272
v 13.567665 0.308653 -43.762848
v 15.493538 0.308654 -46.473495
v 17.542404 0.308655 -49.088207
v 19.711517 0.308656 -51.599960
v 1.079880 0.500000 -6.314507
v 1.317780 0.500000 -9.624752
v 1.711029 0.499999 -12.923756
v 2.256989 0.499999 -16.204460
v 2.952995 0.499998 -19.459801
v 3.796341 0.499997 -22.682716
v 4.784370 0.499997 -25.866131
v 5.914368 0.499996 -29.002981
v 7.183662 0.499995 -32.086197
v 8.589500 0.499995 -35.108715
v 10.129189 0.499995 -38.063477
v 11.799995 0.499995 -40.943428
v 13.599182 0.499995 -43.741531
v 15.524033 0.499996 -46.450737
v 17.571785 0.499997 -49.064034
v 19.739708 0.499998 -51.574390
v 1.041870 0.691342 -6.316331
v 1.279900 0.691341 -9.628368
v 1.673363 0.691341 -12.929132
v 2.219612 0.691340 -16.211563
v 2.915970 0.691340 -19.468597
v 3.759750 0.691339 -22.693174
v 4.748283 0.691338 -25.878223
v 5.878876 0.691338 -29.016678
v 7.148804 0.691337 -32.101467
v 8.555367 0.691337 -35.125534
v 10.095848 0.691337 -38.081825
v 11.767525 0.691337 -40.963276
v 13.567665 0.691337 -43.762848
v 15.493534 0.691338 -46.473503
v 17.542400 0.691339 -49.088211
v 19.711514 0.691340 -51.599957
v 0.933609 0.853553 -6.321522
v 1.171997 0.853553 -9.638670
v 1.566071 0.853553 -12.944447
v 2.113129 0.853552 -16.231794
v 2.810516 0.853551 -19.493652
v 3.655540 0.853551 -22.722965
v 4.645515 0.853550 -25.912663
v 5.777740 0.853549 -29.055683
v 7.049522 0.853549 -32.144966
v 8.458145 0.853549 -35.173447
v 10.000885 0.853548 -38.134075
v 11.675034 0.853548 -41.019798
v 13.477875 0.853549 -43.823563
v 15.406662 0.853549 -46.538334
v 17.458698 0.853550 -49.157078
v 19.631222 0.853552 -51.672768
v 0.771576 0.961940 -6.329292
v 1.010513 0.961940 -9.654089
v 1.405472 0.961939 -12.967368
v 1.953758 0.961938 -16.262074
v 2.652695 0.961938 -19.531153
v 3.499573 0.961937 -22.767551
v 4.491714 0.961936 -25.964207
v 5.626404 0.961936 -29.114063
v 6.900948 0.961935 -32.210064
v 8.312637 0.961935 -35.245155
v 9.858772 0.961935 -38.212280
v 11.536629 0.961935 -41.104385
v 13.343498 0.961935 -43.914429
v 15.276680 0.961936 -46.635361
v 17.333443 0.961937 -49.260139
v 19.511070 0.961938 -51.781731
v 0.580460 1.000000 -6.338457
v 0.820045 1.000000 -9.672276
v 1.216057 0.999999 -12.994403
v 1.765778 0.999998 -16.297791
v 2.466537 0.999998 -19.575384
v 3.315598 0.999997 -22.820141
v 4.310287 0.999996 -26.025002
v 5.447876 0.999996 -29.182922
v 6.725693 0.999995 -32.286850
v 8.141006 0.999995 -35.329731
v 9.691124 0.999995 -38.304520
v 11.373356 0.999995 -41.204163
v 13.184994 0.999995 -44.021610
v 15.123333 0.999996 -46.749809
v 17.185684 0.999997 -49.381718
v 19.369324 0.999998 -51.910271
v 25.138424 0.961935 -46.648571
v 23.189819 0.961931 -44.391785
v 21.349705 0.961928 -42.042824
v 19.620438 0.961927 -39.608002
v 18.004406 0.961926 -37.093597
v 16.503952 0.961926 -34.505905
v 15.121479 0.961926 -31.851208
v 13.859337 0.961927 -29.135788
v 12.719917 0.961929 -26.365919
v 11.705597 0.961930 -23.547878
v 10.818748 0.961932 -20.687946
v 10.061783 0.961934 -17.792393
v 9.437057 0.961936 -14.867495
v 8.946991 0.961937 -11.919525
v 8.593964 0.961939 -8.954762
v 8.380386 0.961939 -5.979484
v 8.218353 0.853553 -5.987246
v 8.432480 0.853552 -8.970163
v 8.786400 0.853551 -11.942422
v 9.277687 0.853549 -14.897743
v 9.903954 0.853548 -17.829857
v 10.662773 0.853546 -20.732494
v 11.551777 0.853544 -23.599382
v 12.568558 0.853542 -26.424259
v 13.710743 0.853541 -29.200846
v 14.975956 0.853540 -31.922876
v 16.361824 0.853539 -34.584076
v 17.865974 0.853540 -37.178154
v 19.486050 0.853540 -39.698841
v 21.219688 0.853542 -42.139832
v 23.064548 0.853545 -44.494835
v 25.018257 0.853549 -46.757530
v 8.110092 0.691341 -5.992432
v 8.324585 0.691341 -8.980454
v 8.679092 0.691339 -11.957722
v 9.171196 0.691338 -14.917957
v 9.798492 0.691336 -17.854893
v 10.558552 0.691334 -20.762260
v 11.448994 0.691332 -23.633797
v 12.467415 0.691331 -26.463242
v 13.611450 0.691329 -29.244316
v 14.878712 0.691328 -31.970766
v 16.266846 0.691328 -34.636307
v 17.773468 0.691328 -37.234657
v 19.396244 0.691329 -39.759544
v 21.132820 0.691330 -42.204659
v 22.980835 0.691333 -44.563698
v 24.937954 0.691337 -46.830345
v 8.072075 0.500000 -5.994253
v 8.286690 0.499999 -8.984068
v 8.641418 0.499998 -11.963094
v 9.133812 0.499996 -14.925055
v 9.761459 0.499994 -17.863684
v 10.521957 0.499992 -20.772713
v 11.412907 0.499991 -23.645882
v 12.431908 0.499989 -26.476929
v 13.576588 0.499987 -29.259583
v 14.844574 0.499986 -31.987579
v 16.233498 0.499986 -34.654648
v 17.740997 0.499986 -37.254498
v 19.364723 0.499987 -39.780849
v 21.102318 0.499989 -42.227409
v 22.951454 0.499991 -44.587872
v 24.909771 0.499995 -46.855907
v 8.110085 0.308658 -5.992432
v 8.324570 0.308657 -8.980454
v 8.679077 0.308656 -11.957722
v 9.171196 0.308654 -14.917958
v 9.798489 0.308652 -17.854893
v 10.558548 0.308651 -20.762260
v 11.448990 0.308649 -23.633797
v 12.467415 0.308647 -26.463242
v 13.611446 0.308646 -29.244320
v 14.878716 0.308645 -31.970764
v 16.266838 0.308644 -34.636307
v 17.773468 0.308644 -37.234661
v 19.396248 0.308645 -39.759544
v 21.132816 0.308647 -42.204655
v 22.980835 0.308649 -44.563694
v 24.937954 0.308653 -46.830341
v 8.218369 0.146446 -5.987245
v 8.432487 0.146445 -8.970162
v 8.786400 0.146444 -11.942420
v 9.277687 0.146443 -14.897743
v 9.903954 0.146441 -17.829857
v 10.662773 0.146439 -20.732492
v 11.551781 0.146437 -23.599380
v 12.568558 0.146435 -26.424257
v 13.710747 0.146434 -29.200844
v 14.975960 0.146433 -31.922876
v 16.361816 0.146433 -34.584068
v 17.865967 0.146433 -37.178154
v 19.486050 0.146434 -39.698837
v 21.219696 0.146435 -42.139832
v 23.064548 0.146438 -44.494835
v 25.018261 0.146442 -46.757530
v 8.380379 0.038060 -5.979484
v 8.593948 0.038059 -8.954762
v 8.946976 0.038058 -11.919526
v 9.437046 0.038056 -14.867496
v 10.061768 0.038055 -17.792393
v 10.818745 0.038053 -20.687948
v 11.705589 0.038051 -23.547880
v 12.719910 0.038049 -26.365921
v 13.859329 0.038048 -29.135792
v 15.121475 0.038047 -31.851213
v 16.503948 0.038046 -34.505909
v 18.004395 0.038046 -37.093601
v 19.620434 0.038047 -39.608002
v 21.349693 0.038049 -42.042831
v 23.189812 0.038052 -44.391785
v 25.138424 0.038055 -46.648571
v 8.571518 -0.000000 -5.970328
v 8.784439 -0.000001 -8.936594
v 9.136421 -0.000003 -11.892516
v 9.625038 -0.000004 -14.831811
v 10.247948 -0.000006 -17.748199
v 11.002735 -0.000008 -20.635399
v 11.887039 -0.000009 -23.487125
v 12.898453 -0.000011 -26.297102
v 14.034615 -0.000012 -29.059044
v 15.293129 -0.000013 -31.766670
v 16.671616 -0.000014 -34.413704
v 18.167686 -0.000014 -36.993851
v 19.778961 -0.000013 -39.500847
v 21.503056 -0.000011 -41.928398
v 23.337585 -0.000009 -44.270222
v 25.280167 -0.000005 -46.520046
v 8.762634 0.038060 -5.961173
v 8.974922 0.038059 -8.918427
v 9.325851 0.038058 -11.865506
v 9.813034 0.038056 -14.796128
v 10.434120 0.038054 -17.704004
v 11.186729 0.038052 -20.582851
v 12.068489 0.038051 -23.426373
v 13.077007 0.038049 -26.228287
v 14.209904 0.038048 -28.982300
v 15.464802 0.038047 -31.682133
v 16.839287 0.038046 -34.321495
v 18.330986 0.038046 -36.894104
v 19.937500 0.038047 -39.393684
v 21.656425 0.038049 -41.813965
v 23.485371 0.038051 -44.148659
v 25.421925 0.038055 -46.391506
v 8.924667 0.146446 -5.953412
v 9.136391 0.146445 -8.903026
v 9.486431 0.146444 -11.842610
v 9.972401 0.146443 -14.765880
v 10.591938 0.146441 -17.666542
v 11.342693 0.146439 -20.538303
v 12.222301 0.146437 -23.374870
v 13.228348 0.146435 -26.169952
v 14.358482 0.146434 -28.917244
v 15.610306 0.146433 -31.610470
v 16.981407 0.146433 -34.243332
v 18.469406 0.146433 -36.809555
v 20.071877 0.146434 -39.302856
v 21.786419 0.146435 -41.716965
v 23.610626 0.146438 -44.045612
v 25.542088 0.146442 -46.282562
v 9.032932 0.308658 -5.948225
v 9.244308 0.308657 -8.892733
v 9.593742 0.308656 -11.827311
v 10.078880 0.308654 -14.745667
v 10.697403 0.308652 -17.641506
v 11.446922 0.308651 -20.508537
v 12.325089 0.308649 -23.340454
v 13.329494 0.308647 -26.130966
v 14.457794 0.308646 -28.873772
v 15.707550 0.308645 -31.562576
v 17.076393 0.308644 -34.191097
v 18.561913 0.308644 -36.753048
v 20.161682 0.308645 -39.242149
v 21.873299 0.308647 -41.652138
v 23.694340 0.308650 -43.976753
v 25.622391 0.308653 -46.209740
v 9.070938 0.500000 -5.946405
v 9.282177 0.499999 -8.889122
v 9.631409 0.499998 -11.821940
v 10.116264 0.499996 -14.738572
v 10.734428 0.499994 -17.632721
v 11.483505 0.499992 -20.498089
v 12.361168 0.499991 -23.328373
v 13.364998 0.499989 -26.117283
v 14.492638 0.499988 -28.858513
v 15.741684 0.499987 -31.545769
v 17.109734 0.499986 -34.172768
v 18.594383 0.499986 -36.733215
v 20.193211 0.499987 -39.220840
v 21.903801 0.499989 -41.629379
v 23.723728 0.499991 -43.952576
v 25.650578 0.499995 -46.184181
v 9.032921 0.691342 -5.948226
v 9.244297 0.691341 -8.892735
v 9.593735 0.691339 -11.827311
v 10.078880 0.691338 -14.745668
v 10.697395 0.691336 -17.641508
v 11.446915 0.691334 -20.508537
v 12.325081 0.691332 -23.340458
v 13.329491 0.691331 -26.130968
v 14.457783 0.691329 -28.873775
v 15.707550 0.691328 -31.562580
v 17.076393 0.691328 -34.191101
v 18.561913 0.691328 -36.753048
v 20.161682 0.691329 -39.242149
v 21.873299 0.691331 -41.652134
v 23.694340 0.691333 -43.976749
v 25.622387 0.691337 -46.209743
v 8.924667 0.853553 -5.953412
v 9.136398 0.853552 -8.903027
v 9.486427 0.853551 -11.842611
v 9.972397 0.853549 -14.765882
v 10.591942 0.853548 -17.666542
v 11.342690 0.853546 -20.538303
v 12.222298 0.853544 -23.374870
v 13.228355 0.853543 -26.169952
v 14.358486 0.853541 -28.917246
v 15.610306 0.853540 -31.610470
v 16.981415 0.853540 -34.243332
v 18.469406 0.853540 -36.809555
v 20.071880 0.853541 -39.302853
v 21.786423 0.853542 -41.716961
v 23.610626 0.853545 -44.045612
v 25.542084 0.853549 -46.282555
v 8.762627 0.961940 -5.961174
v 8.974915 0.961939 -8.918428
v 9.325840 0.961938 -11.865508
v 9.813026 0.961936 -14.796131
v 10.434113 0.961934 -17.704008
v 11.186722 0.961932 -20.582853
v 12.068481 0.961931 -23.426376
v 13.076996 0.961929 -26.228291
v 14.209900 0.961928 -28.982304
v 15.464790 0.961926 -31.682137
v 16.839279 0.961926 -34.321499
v 18.330978 0.961926 -36.894112
v 19.937492 0.961927 -39.393692
v 21.656418 0.961929 -41.813965
v 23.485359 0.961931 -44.148666
v 25.421921 0.961935 -46.391514
v 8.571510 1.000000 -5.970328
v 8.784439 0.999999 -8.936594
v 9.136414 0.999998 -11.892516
v 9.625042 0.999996 -14.831813
v 10.247948 0.999994 -17.748199
v 11.002731 0.999992 -20.635399
v 11.887039 0.999991 -23.487125
v 12.898457 0.999989 -26.297104
v 14.034615 0.999988 -29.059044
v 15.293129 0.999987 -31.766672
v 16.671616 0.999986 -34.413704
v 18.167686 0.999986 -36.993855
v 19.778961 0.999987 -39.500843
v 21.503059 0.999989 -41.928394
v 23.337589 0.999991 -44.270222
v 25.280170 0.999995 -46.520042
v 0.500000 1.000000 0.000000
v 0.308655 0.961940 0.000000
v 0.146446 0.853553 0.000000
v 0.038055 0.691342 0.000000
v 0.000000 0.500000 0.000000
v 0.038055 0.308658 0.000000
v 0.146446 0.146447 0.000000
v 0.308655 0.038060 0.000000
v 0.500000 -0.000000 0.000000
v 0.691345 0.038060 0.000000
v 0.853554 0.146446 0.000000
v 0.961945 0.308658 0.000000
v 1.000000 0.500000 0.000000
v 0.961945 0.691342 0.000000
v 0.853554 0.853554 0.000000
v 0.691345 0.961940 0.000000
v 8.500000 1.000000 0.000000
v 8.308655 0.961940 0.000000
v 8.146446 0.853553 0.000000
v 8.038055 0.691342 0.000000
v 8.000000 0.500000 0.000000
v 8.038055 0.308658 0.000000
v 8.146446 0.146447 0.000000
v 8.308655 0.038060 0.000000
v 8.500000 -0.000000 0.000000
v 8.691345 0.038060 0.000000
v 8.853554 0.146446 0.000000
v 8.961945 0.308658 0.000000
v 9.000000 0.500000 0.000000
v 8.961945 0.691342 0.000000
v 8.853554 0.853554 0.000000
v 8.691345 0.961940 0.000000
v 29.463722 0.961940 -50.536278
v 29.328419 1.000000 -50.671581
v 29.578419 0.853554 -50.421581
v 29.655064 0.691342 -50.344936
v 29.681973 0.500000 -50.318027
v 29.655064 0.308658 -50.344936
v 29.578419 0.146446 -50.421581
v 29.463722 0.038060 -50.536278
v 29.328419 -0.000000 -50.671581
v 29.193119 0.038060 -50.806881
v 29.078419 0.146447 -50.921581
v 29.001774 0.308658 -50.998226
v 28.974865 0.500000 -51.025135
v 29.001774 0.691342 -50.998226
v 29.078419 0.853553 -50.921581
v 29.193119 0.961940 -50.806881
v 23.806866 0.961940 -56.193134
v 23.671566 1.000000 -56.328434
v 23.921566 0.853554 -56.078434
v 23.998211 0.691342 -56.001789
v 24.025120 0.500000 -55.974880
v 23.998211 0.308658 -56.001789
v 23.921566 0.146446 -56.078434
v 23.806866 0.038060 -56.193134
v 23.671566 -0.000000 -56.328434
v 23.536263 0.038060 -56.463737
v 23.421566 0.146447 -56.578434
v 23.344921 0.308658 -56.655079
v 23.318012 0.500000 -56.681988
v 23.344921 0.691342 -56.655079
v 23.421566 0.853553 -56.578434
v 23.536263 0.961940 -56.463737
vt 0.0000 0.0000
vt 0.0000 0.0000
vt 0.0000 0.0000
vt 0.0000 0.0000
vt 0.0000 0.0000
vt 0.0000 0.0000
vt 0.0000 0.0000
vt 0.0000 0.0000
vt 0.0000 0.0000
vt 0.0000 0.0000
vt 0.0000 0.0000
vt 0.0000 0.0000
vt 0.0000 0.0000
vt 0.0000 0.0000
vt 0.0000 0.0000
vt 0.0000 0.0000
vt 0.0000 0.0000
vt 0.0000 0.0000
vt 0.0000 0.0000
vt 0.0000 0.0000
vt 0.0000 0.0000
vt 0.0000 0.0000
vt 0.0000 0.0000
vt 0.0000 0.0000
vt 0.0000 0.0000
vt 0.0000 0.0000
vt 0.0000 0.0000
vt 0.0000 0.0000
vt 0.0000 0.0000
vt 0.0000 0.0000
vt 0.0000 0.0000
vt 0.0000 0.0000
vt 0.0000 0.0000
vt 0.0000 0.0000
vt 0.0000 0.0000
vt 0.0000 0.0000
vt 0.0000 0.0000
vt 0.0000 0.0000
vt 0.0000 0.0000
vt 0.0000 0.0000
vt 0.0000 0.0000
vt 0.0000 0.0000
vt 0.0000 0.0000
vt 0.0000 0.0000
vt 0.0000 0.0000
vt 0.0000 0.0000
vt 0.0000 0.0000
vt 0.0000 0.0000
vt 0.0000 0.0000
vt 0.0000 0.0000
vt 0.0000 0.0000
vt 0.0000 0.0000
vt 0.0000 0.0000
vt 0.0000 0.0000
vt 0.0000 0.0000
vt 0.0000 0.0000
vt 0.0000 0.0000
vt 0.0000 0.0000
vt 0.0000 0.0000
vt 0.0000 0.0000
vt 0.0000 0.0000
vt 0.0000 0.0000
vt 0.0000 0.0000
vt 0.0000 0.0000
vt 0.0000 0.0000
vt 0.0000 0.0000
vt 0.0000 0.0000
vt 0.0000 0.0000
vt 0.0000 0.0000
vt 0.0000 0.0000
vt 0.0000 0.0000
vt 0.0000 0.0000
vt 0.0000 0.0000
vt 0.0000 0.0000
vt 0.0000 0.0000
vt 0.0000 0.0000
vt 0.0000 0.0000
vt 0.0000 0.0000
vt 0.0000 0.0000
vt 0.0000 0.0000
vt 0.0000 0.0000
vt 0.0000 0.0000
vt 0.0000 0.0000
vt 0.0000 0.0000
vt 0.0000 0.0000
vt 0.0000 0.0000
vt 0.0000 0.0000
vt 0.0000 0.0000
vt 0.0000 0.0000
vt 0.0000 0.0000
vt 0.0000 0.0000
vt 0.0000 0.0000
vt 0.0000 0.0000
vt 0.0000 0.0000
vt 0.0000 0.0000
vt 0.0000 0.0000
vt 0.0000 0.0000
vt 0.0000 0.0000
vt 0.0000 0.0000
vt 0.0000 0.0000
vt 0.0000 0.0000
vt 0.0000 0.0000
vt 0.0000 0.0000
vt 0.0000 0.0000
vt 0.0000 0.0000
vt 0.0000 0.0000
vt 0.0000 0.0000
vt 0.0000 0.0000
vt 0.0000 0.0000
vt 0.0000 0.0000
vt 0.0000 0.0000
vt 0.0000 0.0000
vt 0.0000 0.0000
vt 0.0000 0.0000
vt 0.0000 0.0000
vt 0.0000 0.0000
vt 0.0000 0.0000
vt 0.0000 0.0000
vt 0.0000 0.0000
vt 0.0000 0.0000
vt 0.0000 0.0000
vt 0.0000 0.0000
vt 0.0000 0.0000
vt 0.0000 0.0000
vt 0.0000 0.0000
vt 0.0000 0.0000
vt 0.0000 0.0000
vt 0.0000 0.0000
vt 0.0000 0.0000
vt 0.0000 0.0000
vt 0.0000 0.0000
vt 0.0000 0.0000
vt 0.0000 0.0000
vt 0.0000 0.0000
vt 0.0000 0.0000
vt 0.0000 0.0000
vt 0.0000 0.0000
vt 0.0000 0.0000
vt 0.0000 0.0000
vt 0.0000 0.0000
vt 0.0000 0.0000
vt 0.0000 0.0000
vt 0.0000 0.0000
vt 0.0000 0.0000
vt 0.0000 0.0000
vt 0.0000 0.0000
vt 0.0000 0.0000
vt 0.0000 0.0000
vt 0.0000 0.0000
vt 0.0000 0.0000
vt 0.0000 0.0000
vt 0.0000 0.0000
vt 0.0000 0.0000
vt 0.0000 0.0000
vt 0.0000 0.0000
vt 0.0000 0.0000
vt 0.0000 0.0000
vt 0.0000 0.0000
vt 0.0000 0.0000
vt 0.0000 0.0000
vt 0.0000 0.0000
vt 0.0000 0.0000
vt 0.0000 0.0000
vt 0.0000 0.0000
vt 0.0000 0.0000
vt 0.0000 0.0000
vt 0.0000 0.0000
vt 0.0000 0.0000
vt 0.0000 0.0000
vt 0.0000 0.0000
vt 0.0000 0.0000
vt 0.0000 0.0000
vt 0.0000 0.0000
vt 0.0000 0.0000
vt 0.0000 0.0000
vt 0.0000 0.0000
vt 0.0000 0.0000
vt 0.0000 0.0000
vt 0.0000 0.0000
vt 0.0000 0.0000
vt 0.0000 0.0000
vt 0.0000 0.0000
vt 0.0000 0.0000
vt 0.0000 0.0000
vt 0.0000 0.0000
vt 0.0000 0.0000
vt 0.0000 0.0000
vt 0.0000 0.0000
vt 0.0000 0.0000
vt 0.0000 0.0000
vt 0.0000 0.0000
vt 0.0000 0.0000
vt 0.0000 0.0000
vt 0.0000 0.0000
vt 0.0000 0.0000
vt 0.0000 0.0000
vt 0.0000 0.0000
vt 0.0000 0.0000
vt 0.0000 0.0000
vt 0.0000 0.0000
vt 0.0000 0.0000
vt 0.0000 0.0000
vt 0.0000 0.0000
vt 0.0000 0.0000
vt 0.0000 0.0000
vt 0.0000 0.0000
vt 0.0000 0.0000
vt 0.0000 0.0000
vt 0.0000 0.0000
vt 0.0000 0.0000
vt 0.0000 0.0000
vt 0.0000 0.0000
vt 0.0000 0.0000
vt 0.0000 0.0000
vt 0.0000 0.0000
vt 0.0000 0.0000
vt 0.0000 0.0000
vt 0.0000 0.0000
vt 0.0000 0.0000
vt 0.0000 0.0000
vt 0.0000 0.0000
vt 0.0000 0.0000
vt 0.0000 0.0000
vt 0.0000 0.0000
vt 0.0000 0.0000
vt 0.0000 0.0000
vt 0.0000 0.0000
vt 0.0000 0.0000
vt 0.0000 0.0000
vt 0.0000 0.0000
vt 0.0000 0.0000
vt 0.0000 0.0000
vt 0.0000 0.0000
vt 0.0000 0.0000
vt 0.0000 0.0000
vt 0.0000 0.0000
vt 0.0000 0.0000
vt 0.0000 0.0000
vt 0.0000 0.0000
vt 0.0000 0.0000
vt 0.0000 0.0000
vt 0.0000 0.0000
vt 0.0000 0.0000
vt 0.0000 0.0000
vt 0.0000 0.0000
vt 0.0000 0.0000
vt 0.0000 0.0000
vt 0.0000 0.0000
vt 0.0000 0.0000
vt 0.0000 0.0000
vt 0.0000 0.0000
vt 0.0000 0.0000
vt 0.0000 0.0000
vt 0.0000 0.0000
vt 0.0000 0.0000
vt 0.0000 0.0000
vt 0.0000 0.0000
vt 0.0000 0.0000
vt 0.0000 0.0000
vt 0.0000 0.0000
vt 0.0000 0.0000
vt 0.0000 0.0000
vt 0.0000 0.0000
vt 0.0000 0.0000
vt 0.0000 0.0000
vt 0.0000 0.0000
vt 0.0000 0.0000
vt 0.0000 0.0000
vt 0.0000 0.0000
vt 0.0000 0.0000
vt 0.0000 0.0000
vt 0.0000 0.0000
vt 0.0000 0.0000
vt 0.0000 0.0000
vt 0.0000 0.0000
vt 0.0000 0.0000
vt 0.0000 0.0000
vt 0.0000 0.0000
vt 0.0000 0.0000
vt 0.0000 0.0000
vt 0.0000 0.0000
vt 0.0000 0.0000
vt 0.0000 0.0000
vt 0.0000 0.0000
vt 0.0000 0.0000
vt 0.0000 0.0000
vt 0.0000 0.0000
vt 0.0000 0.0000
vt 0.0000 0.0000
vt 0.0000 0.0000
vt 0.0000 0.0000
vt 0.0000 0.0000
vt 0.0000 0.0000
vt 0.0000 0.0000
vt 0.0000 0.0000
vt 0.0000 0.0000
vt 0.0000 0.0000
vt 0.0000 0.0000
vt 0.0000 0.0000
vt 0.0000 0.0000
vt 0.0000 0.0000
vt 0.0000 0.0000
vt 0.0000 0.0000
vt 0.0000 0.0000
vt 0.0000 0.0000
vt 0.0000 0.0000
vt 0.0000 0.0000
vt 0.0000 0.0000
vt 0.0000 0.0000
vt 0.0000 0.0000
vt 0.0000 0.0000
vt 0.0000 0.0000
vt 0.0000 0.0000
vt 0.0000 0.0000
vt 0.0000 0.0000
vt 0.0000 0.0000
vt 0.0000 0.0000
vt 0.0000 0.0000
vt 0.0000 0.0000
vt 0.0000 0.0000
vt 0.0000 0.0000
vt 0.0000 0.0000
vt 0.0000 0.0000
vt 0.0000 0.0000
vt 0.0000 0.0000
vt 0.0000 0.0000
vt 0.0000 0.0000
vt 0.0000 0.0000
vt 0.0000 0.0000
vt 0.0000 0.0000
vt 0.0000 0.0000
vt 0.0000 0.0000
vt 0.0000 0.0000
vt 0.0000 0.0000
vt 0.0000 0.0000
vt 0.0000 0.0000
vt 0.0000 0.0000
vt 0.0000 0.0000
vt 0.0000 0.0000
vt 0.0000 0.0000
vt 0.0000 0.0000
vt 0.0000 0.0000
vt 0.0000 0.0000
vt 0.0000 0.0000
vt 0.0000 0.0000
vt 0.0000 0.0000
vt 0.0000 0.0000
vt 0.0000 0.0000
vt 0.0000 0.0000
vt 0.0000 0.0000
vt 0.0000 0.0000
vt 0.0000 0.0000
vt 0.0000 0.0000
vt 0.0000 0.0000
vt 0.0000 0.0000
vt 0.0000 0.0000
vt 0.0000 0.0000
vt 0.0000 0.0000
vt 0.0000 0.0000
vt 0.0000 0.0000
vt 0.0000 0.0000
vt 0.0000 0.0000
vt 0.0000 0.0000
vt 0.0000 0.0000
vt 0.0000 0.0000
vt 0.0000 0.0000
vt 0.0000 0.0000
vt 0.0000 0.0000
vt 0.0000 0.0000
vt 0.0000 0.0000
vt 0.0000 0.0000
vt 0.0000 0.0000
vt 0.0000 0.0000
vt 0.0000 0.0000
vt 0.0000 0.0000
vt 0.0000 0.0000
vt 0.0000 0.0000
vt 0.0000 0.0000
vt 0.0000 0.0000
vt 0.0000 0.0000
vt 0.0000 0.0000
vt 0.0000 0.0000
vt 0.0000 0.0000
vt 0.0000 0.0000
vt 0.0000 0.0000
vt 0.0000 0.0000
vt 0.0000 0.0000
vt 0.0000 0.0000
vt 0.0000 0.0000
vt 0.0000 0.0000
vt 0.0000 0.0000
vt 0.0000 0.0000
vt 0.0000 0.0000
vt 0.0000 0.0000
vt 0.0000 0.0000
vt 0.0000 0.0000
vt 0.0000 0.0000
vt 0.0000 0.0000
vt 0.0000 0.0000
vt 0.0000 0.0000
vt 0.0000 0.0000
vt 0.0000 0.0000
vt 0.0000 0.0000
vt 0.0000 0.0000
vt 0.0000 0.0000
vt 0.0000 0.0000
vt 0.0000 0.0000
vt 0.0000 0.0000
vt 0.0000 0.0000
vt 0.0000 0.0000
vt 0.0000 0.0000
vt 0.0000 0.0000
vt 0.0000 0.0000
vt 0.0000 0.0000
vt 0.0000 0.0000
vt 0.0000 0.0000
vt 0.0000 0.0000
vt 0.0000 0.0000
vt 0.0000 0.0000
vt 0.0000 0.0000
vt 0.0000 0.0000
vt 0.0000 0.0000
vt 0.0000 0.0000
vt 0.0000 0.0000
vt 0.0000 0.0000
vt 0.0000 0.0000
vt 0.0000 0.0000
vt 0.0000 0.0000
vt 0.0000 0.0000
vt 0.0000 0.0000
vt 0.0000 0.0000
vt 0.0000 0.0000
vt 0.0000 0.0000
vt 0.0000 0.0000
vt 0.0000 0.0000
vt 0.0000 0.0000
vt 0.0000 0.0000
vt 0.0000 0.0000
vt 0.0000 0.0000
vt 0.0000 0.0000
vt 0.0000 0.0000
vt 0.0000 0.0000
vt 0.0000 0.0000
vt 0.0000 0.0000
vt 0.0000 0.0000
vt 0.0000 0.0000
vt 0.0000 0.0000
vt 0.0000 0.0000
vt 0.0000 0.0000
vt 0.0000 0.0000
vt 0.0000 0.0000
vt 0.0000 0.0000
vt 0.0000 0.0000
vt 0.0000 0.0000
vt 0.0000 0.0000
vt 0.0000 0.0000
vt 0.0000 0.0000
vt 0.0000 0.0000
vt 0.0000 0.0000
vt 0.0000 0.0000
vt 0.0000 0.0000
vt 0.0000 0.0000
vt 0.0000 0.0000
vt 0.0000 0.0000
vt 0.0000 0.0000
vt 0.0000 0.0000
vt 0.0000 0.0000
vt 0.0000 0.0000
vt 0.0000 0.0000
vt 0.0000 0.0000
vt 0.0000 0.0000
vt 0.0000 0.0000
vt 0.0000 0.0000
vt 0.0000 0.0000
vt 0.0000 0.0000
vt 0.0000 0.0000
vt 0.0000 0.0000
vt 0.0000 0.0000
vt 0.0000 0.0000
vt 0.0000 0.0000
vt 0.0000 0.0000
vt 0.0000 0.0000
vt 0.0000 0.0000
vt 0.0000 0.0000
vt 0.0000 0.0000
vt 0.0000 0.0000
vt 0.0000 0.0000
vt 0.0000 0.0000
vt 0.0000 0.0000
vt 0.0000 0.0000
vt 0.0000 0.0000
vt 0.0000 0.0000
vt 0.0000 0.0000
vt 0.0000 0.0000
vt 0.0000 0.0000
vt 0.0000 0.0000
vt 0.0000 0.0000
vt 0.0000 0.0000
vt 0.0000 0.0000
vt 0.0000 0.0000
vt 0.0000 0.0000
vt 0.0000 0.0000
vt 0.0000 0.0000
vt 0.0000 0.0000
vt 0.0000 0.0000
vt 0.0000 0.0000
vt 0.0000 0.0000
vt 0.0000 0.0000
vt 0.0000 0.0000
vt 0.0000 0.0000
vt 0.0000 0.0000
vt 0.0000 0.0000
vt 0.0000 0.0000
vt 0.0000 0.0000
vt 0.0000 0.0000
vt 0.0000 0.0000
vt 0.0000 0.0000
vt 0.0000 0.0000
vt 0.0000 0.0000
vt 0.0000 0.0000
vt 0.0000 0.0000
vt 0.0000 0.0000
vt 0.0000 0.0000
vt 0.0000 0.0000
vt 0.0000 0.0000
vt 0.0000 0.0000
vt 0.0000 0.0000
vt 0.0000 0.0000
vt 0.0000 0.0000
vt 0.0000 0.0000
vt 0.0000 0.0000
vt 0.0000 0.0000
vt 0.0000 0.0000
vt 0.0000 0.0000
vt 0.0000 0.0000
vt 0.0000 0.0000
vt 0.0000 0.0000
vt 0.0000 0.0000
vt 0.0000 0.0000
vt 0.0000 0.0000
vt 0.0000 0.0000
vt 0.0000 0.0000
vt 0.0000 0.0000
vt 0.0000 0.0000
vt 0.0000 0.0000
vt 0.0000 0.0000
vt 0.0000 0.0000
vt 0.0000 0.0000
vt 0.0000 0.0000
vt 0.0000 0.0000
vt 0.0000 0.0000
vt 0.0000 0.0000
vt 0.0000 0.0000
vt 0.0000 0.0000
vt 0.0000 0.0000
vt 0.0000 0.0000
vt 0.0000 0.0000
vt 0.0000 0.0000
vt 0.0000 0.0000
vt 0.0000 0.0000
vt 0.0000 0.0000
vt 0.0000 0.0000
vt 0.0000 0.0000
vt 0.0000 0.0000
vt 0.0000 0.0000
vt 0.0000 0.0000
vt 0.0000 0.0000
vt 0.0000 0.0000
vt 0.0000 0.0000
vt 0.0000 0.0000
vt 0.0000 0.0000
vt 0.0000 0.0000
vt 0.0000 0.0000
vt 0.0000 0.0000
vt 0.0000 0.0000
vt 0.0000 0.0000
vt 0.0000 0.0000
vt 0.0000 0.0000
vt 0.0000 0.0000
vt 0.0000 0.0000
vt 0.0000 0.0000
vt 0.0000 0.0000
vt 0.0000 0.0000
vt 0.0000 0.0000
vt 0.0000 0.0000
vt 0.0000 0.0000
vt 0.0000 0.0000
vt 0.0000 0.0000
vt 0.0000 0.0000
vt 0.0000 0.0000
vt 0.0000 0.0000
vt 0.0000 0.0000
vt 0.0000 0.0000
vt 0.0000 0.0000
vt 0.0000 0.0000
vt 0.0000 0.0000
vt 0.0000 0.0000
vt 0.0000 0.0000
vt 0.0000 0.0000
vt 0.0000 0.0000
vt 0.0000 0.0000
vt 0.0000 0.0000
vt 0.0000 0.0000
vt 0.0000 0.0000
vt 0.0000 0.0000
vt 0.0000 0.0000
vt 0.0000 0.0000
vt 0.0000 0.0000
vt 0.0000 0.0000
vt 0.0000 0.0000
vt 0.0000 0.0000
vt 0.0000 0.0000
vt 0.0000 0.0000
vt 0.0000 0.0000
vt 0.0000 0.0000
vt 0.0000 0.0000
vt 0.0000 0.0000
vt 0.0000 0.0000
vt 0.0000 0.0000
vt 0.0000 0.0000
vt 0.0000 0.0000
vt 0.0000 0.0000
vt 0.0000 0.0000
vt 0.0000 0.0000
vt 0.0000 0.0000
vt 0.0000 0.0000
vt 0.0000 0.0000
vt 0.0000 0.0000
vt 0.0000 0.0000
vt 0.0000 0.0000
vt 0.0000 0.0000
vt 0.0000 0.0000
vt 0.0000 0.0000
vt 0.0000 0.0000
vt 0.0000 0.0000
vt 0.0000 0.0000
vt 0.0000 0.0000
vt 0.0000 0.0000
vt 0.0000 0.0000
vt 0.0000 0.0000
vn 0.0000 0.0000 1.0000
vn 0.7071 -0.0000 -0.7071
vn 0.9236 0.3832 0.0111
vn 0.7063 0.7078 0.0085
vn 0.7071 0.7071 0.0000
vn 0.9239 0.3827 0.0000
vn 0.7063 -0.7078 0.0085
vn 0.9236 -0.3832 0.0111
vn 0.9239 -0.3827 0.0000
vn 0.7071 -0.7071 0.0000
vn -0.0011 -1.0000 -0.0010
vn -0.2748 -0.9233 -0.2682
vn -0.2706 -0.9239 -0.2706
vn -0.0000 -1.0000 -0.0000
vn 0.6611 -0.3832 0.6450
vn 0.5055 -0.7078 0.4933
vn 0.5000 -0.7071 0.5000
vn 0.6533 -0.3827 0.6533
vn -0.5249 0.7056 -0.4760
vn -0.2853 0.9228 -0.2588
vn -0.2748 0.9233 -0.2682
vn -0.5066 0.7063 -0.4944
vn -0.6847 0.3816 -0.6209
vn -0.6614 0.3821 -0.6454
vn -0.7407 0.0000 -0.6717
vn -0.7157 0.0000 -0.6984
vn -0.6847 -0.3816 -0.6209
vn -0.6614 -0.3821 -0.6454
vn -0.5249 -0.7056 -0.4760
vn -0.5066 -0.7063 -0.4944
vn -0.2853 -0.9228 -0.2588
vn -0.0022 -1.0000 -0.0020
vn 0.2816 -0.9249 0.2553
vn 0.2730 -0.9244 0.2664
vn 0.5227 -0.7086 0.4740
vn 0.6840 -0.3837 0.6203
vn 0.7407 0.0000 0.6717
vn 0.7157 0.0000 0.6984
vn 0.6840 0.3837 0.6203
vn 0.6611 0.3832 0.6450
vn 0.5227 0.7086 0.4740
vn 0.5055 0.7078 0.4933
vn 0.2816 0.9249 0.2553
vn 0.2730 0.9244 0.2664
vn -0.0022 1.0000 -0.0020
vn -0.0011 1.0000 -0.0010
vn -0.5471 0.7056 -0.4502
vn -0.2974 0.9228 -0.2447
vn -0.5678 0.7056 -0.4238
vn -0.3086 0.9228 -0.2304
vn -0.5869 0.7056 -0.3969
vn -0.3190 0.9228 -0.2157
vn -0.6045 0.7057 -0.3695
vn -0.3286 0.9228 -0.2008
vn -0.6207 0.7057 -0.3415
vn -0.3374 0.9229 -0.1856
vn -0.6355 0.7057 -0.3132
vn -0.3454 0.9229 -0.1702
vn -0.6489 0.7057 -0.2843
vn -0.3527 0.9229 -0.1545
vn -0.6610 0.7057 -0.2550
vn -0.3592 0.9229 -0.1386
vn -0.6717 0.7057 -0.2251
vn -0.3651 0.9229 -0.1223
vn -0.6812 0.7057 -0.1947
vn -0.3702 0.9229 -0.1058
vn -0.6893 0.7057 -0.1638
vn -0.3746 0.9229 -0.0890
vn -0.6960 0.7057 -0.1322
vn -0.3783 0.9228 -0.0719
vn -0.7014 0.7057 -0.1001
vn -0.3812 0.9228 -0.0544
vn -0.7053 0.7056 -0.0673
vn -0.3834 0.9228 -0.0366
vn -0.3847 0.9228 -0.0184
vn -0.7077 0.7056 -0.0339
vn -0.3839 0.9233 -0.0046
vn -0.7078 0.7063 -0.0085
vn -0.7137 0.3816 -0.5873
vn -0.7407 0.3816 -0.5529
vn -0.7656 0.3817 -0.5177
vn -0.7887 0.3817 -0.4820
vn -0.8098 0.3817 -0.4456
vn -0.8291 0.3817 -0.4086
vn -0.8466 0.3817 -0.3709
vn -0.8623 0.3817 -0.3326
vn -0.8764 0.3817 -0.2937
vn -0.8887 0.3817 -0.2540
vn -0.8992 0.3817 -0.2137
vn -0.9080 0.3817 -0.1725
vn -0.9150 0.3817 -0.1306
vn -0.9201 0.3816 -0.0878
vn -0.9232 0.3816 -0.0443
vn -0.9240 0.3821 -0.0111
vn -0.7722 0.0000 -0.6354
vn -0.8014 0.0000 -0.5981
vn -0.8284 0.0000 -0.5601
vn -0.8533 0.0000 -0.5214
vn -0.8761 0.0000 -0.4821
vn -0.8970 0.0000 -0.4420
vn -0.9159 0.0000 -0.4013
vn -0.9330 0.0000 -0.3599
vn -0.9481 0.0000 -0.3177
vn -0.9615 0.0000 -0.2748
vn -0.9729 0.0000 -0.2311
vn -0.9824 0.0000 -0.1867
vn -0.9900 0.0000 -0.1413
vn -0.9955 0.0000 -0.0950
vn -0.9988 0.0000 -0.0479
vn -0.9999 0.0000 -0.0120
vn -0.7137 -0.3816 -0.5873
vn -0.7407 -0.3816 -0.5529
vn -0.7656 -0.3817 -0.5177
vn -0.7887 -0.3817 -0.4820
vn -0.8098 -0.3817 -0.4456
vn -0.8291 -0.3817 -0.4086
vn -0.8466 -0.3817 -0.3709
vn -0.8623 -0.3817 -0.3326
vn -0.8764 -0.3817 -0.2937
vn -0.8887 -0.3817 -0.2540
vn -0.8992 -0.3817 -0.2137
vn -0.9080 -0.3817 -0.1725
vn -0.9150 -0.3816 -0.1306
vn -0.9201 -0.3816 -0.0878
vn -0.9232 -0.3816 -0.0443
vn -0.9240 -0.3821 -0.0111
vn -0.5471 -0.7056 -0.4502
vn -0.5678 -0.7056 -0.4238
vn -0.5869 -0.7056 -0.3969
vn -0.6045 -0.7057 -0.3695
vn -0.6207 -0.7057 -0.3415
vn -0.6355 -0.7057 -0.3132
vn -0.6489 -0.7057 -0.2843
vn -0.6610 -0.7057 -0.2550
vn -0.6717 -0.7057 -0.2251
vn -0.6812 -0.7057 -0.1947
vn -0.6893 -0.7057 -0.1638
vn -0.6960 -0.7057 -0.1322
vn -0.7014 -0.7057 -0.1001
vn -0.7053 -0.7056 -0.0673
vn -0.7077 -0.7056 -0.0339
vn -0.7078 -0.7063 -0.0085
vn -0.2974 -0.9228 -0.2447
vn -0.3086 -0.9228 -0.2304
vn -0.3190 -0.9228 -0.2157
vn -0.3286 -0.9228 -0.2008
vn -0.3374 -0.9229 -0.1856
vn -0.3454 -0.9229 -0.1702
vn -0.3527 -0.9229 -0.1545
vn -0.3592 -0.9229 -0.1386
vn -0.3651 -0.9229 -0.1223
vn -0.3702 -0.9229 -0.1058
vn -0.3746 -0.9229 -0.0890
vn -0.3783 -0.9228 -0.0719
vn -0.3812 -0.9228 -0.0544
vn -0.3834 -0.9228 -0.0366
vn -0.3847 -0.9228 -0.0184
vn -0.3840 -0.9233 -0.0046
vn -0.0023 -1.0000 -0.0019
vn -0.0023 -1.0000 -0.0017
vn -0.0024 -1.0000 -0.0016
vn -0.0024 -1.0000 -0.0015
vn -0.0024 -1.0000 -0.0013
vn -0.0025 -1.0000 -0.0012
vn -0.0025 -1.0000 -0.0011
vn -0.0026 -1.0000 -0.0010
vn -0.0026 -1.0000 -0.0009
vn -0.0027 -1.0000 -0.0008
vn -0.0027 -1.0000 -0.0006
vn -0.0028 -1.0000 -0.0005
vn -0.0028 -1.0000 -0.0004
vn -0.0029 -1.0000 -0.0003
vn -0.0029 -1.0000 -0.0001
vn -0.0015 -1.0000 -0.0000
vn 0.2935 -0.9249 0.2415
vn 0.3047 -0.9249 0.2274
vn 0.3150 -0.9249 0.2130
vn 0.3244 -0.9249 0.1983
vn 0.3332 -0.9249 0.1833
vn 0.3411 -0.9249 0.1681
vn 0.3483 -0.9248 0.1526
vn 0.3548 -0.9248 0.1368
vn 0.3606 -0.9248 0.1208
vn 0.3656 -0.9249 0.1045
vn 0.3700 -0.9249 0.0879
vn 0.3735 -0.9249 0.0710
vn 0.3764 -0.9249 0.0537
vn 0.3785 -0.9249 0.0361
vn 0.3797 -0.9249 0.0182
vn 0.3814 -0.9244 0.0046
vn 0.5448 -0.7086 0.4483
vn 0.5655 -0.7086 0.4221
vn 0.5846 -0.7085 0.3953
vn 0.6021 -0.7085 0.3680
vn 0.6182 -0.7085 0.3402
vn 0.6330 -0.7085 0.3119
vn 0.6464 -0.7085 0.2832
vn 0.6584 -0.7085 0.2539
vn 0.6691 -0.7085 0.2242
vn 0.6785 -0.7085 0.1939
vn 0.6866 -0.7085 0.1631
vn 0.6933 -0.7085 0.1317
vn 0.6986 -0.7085 0.0997
vn 0.7024 -0.7085 0.0670
vn 0.7048 -0.7086 0.0338
vn 0.7131 -0.3837 0.5867
vn 0.7400 -0.3837 0.5524
vn 0.7649 -0.3837 0.5173
vn 0.7880 -0.3837 0.4816
vn 0.8090 -0.3837 0.4452
vn 0.8283 -0.3836 0.4082
vn 0.8459 -0.3836 0.3706
vn 0.8616 -0.3836 0.3323
vn 0.8756 -0.3836 0.2934
vn 0.8879 -0.3836 0.2538
vn 0.8984 -0.3836 0.2135
vn 0.9072 -0.3836 0.1724
vn 0.9142 -0.3836 0.1305
vn 0.9192 -0.3837 0.0878
vn 0.9224 -0.3837 0.0442
vn 0.7722 0.0000 0.6354
vn 0.8014 0.0000 0.5981
vn 0.8284 0.0000 0.5601
vn 0.8533 0.0000 0.5214
vn 0.8761 0.0000 0.4821
vn 0.8970 0.0000 0.4420
vn 0.9159 0.0000 0.4013
vn 0.9330 0.0000 0.3599
vn 0.9481 0.0000 0.3177
vn 0.9615 0.0000 0.2748
vn 0.9729 0.0000 0.2311
vn 0.9824 0.0000 0.1867
vn 0.9900 0.0000 0.1413
vn 0.9955 0.0000 0.0950
vn 0.9988 0.0000 0.0479
vn 0.9999 0.0000 0.0121
vn 0.7131 0.3837 0.5867
vn 0.7400 0.3837 0.5524
vn 0.7649 0.3837 0.5173
vn 0.7880 0.3837 0.4816
vn 0.8090 0.3836 0.4452
vn 0.8283 0.3836 0.4082
vn 0.8458 0.3836 0.3706
vn 0.8616 0.3836 0.3323
vn 0.8756 0.3836 0.2934
vn 0.8879 0.3836 0.2538
vn 0.8984 0.3836 0.2135
vn 0.9072 0.3836 0.1724
vn 0.9142 0.3836 0.1305
vn 0.9192 0.3837 0.0878
vn 0.9224 0.3837 0.0442
vn 0.5449 0.7086 0.4483
vn 0.5655 0.7085 0.4221
vn 0.5846 0.7085 0.3953
vn 0.6021 0.7085 0.3680
vn 0.6182 0.7085 0.3402
vn 0.6330 0.7085 0.3119
vn 0.6464 0.7085 0.2832
vn 0.6584 0.7085 0.2539
vn 0.6691 0.7085 0.2242
vn 0.6785 0.7085 0.1939
vn 0.6865 0.7085 0.1631
vn 0.6933 0.7085 0.1317
vn 0.6986 0.7085 0.0997
vn 0.7024 0.7085 0.0670
vn 0.7048 0.7086 0.0338
vn 0.2936 0.9249 0.2415
vn 0.3047 0.9249 0.2274
vn 0.3150 0.9249 0.2130
vn 0.3244 0.9249 0.1983
vn 0.3331 0.9249 0.1833
vn 0.3411 0.9249 0.1681
vn 0.3483 0.9248 0.1526
vn 0.3548 0.9248 0.1368
vn 0.3606 0.9248 0.1208
vn 0.3656 0.9249 0.1045
vn 0.3699 0.9249 0.0879
vn 0.3735 0.9249 0.0710
vn 0.3764 0.9249 0.0537
vn 0.3785 0.9249 0.0361
vn 0.3797 0.9249 0.0182
vn 0.3814 0.9244 0.0046
vn -0.0023 1.0000 -0.0019
vn -0.0023 1.0000 -0.0017
vn -0.0024 1.0000 -0.0016
vn -0.0024 1.0000 -0.0015
vn -0.0024 1.0000 -0.0013
vn -0.0025 1.0000 -0.0012
vn -0.0025 1.0000 -0.0011
vn -0.0026 1.0000 -0.0010
vn -0.0026 1.0000 -0.0009
vn -0.0027 1.0000 -0.0008
vn -0.0027 1.0000 -0.0006
vn -0.0028 1.0000 -0.0005
vn -0.0028 1.0000 -0.0004
vn -0.0029 1.0000 -0.0003
vn -0.0029 1.0000 -0.0001
vn -0.0015 1.0000 -0.0000
vn -0.2854 0.9228 -0.2588
vn -0.2748 0.9233 -0.2681
vn -0.5066 0.7063 -0.4943
vn -0.6614 0.3821 -0.6453
vn -0.7408 0.0000 -0.6717
vn -0.6614 -0.3821 -0.6453
vn -0.5066 -0.7063 -0.4943
vn -0.2854 -0.9228 -0.2588
vn 0.5056 -0.7078 0.4933
vn 0.6841 -0.3837 0.6203
vn 0.7408 0.0000 0.6717
vn 0.7158 0.0000 0.6983
vn 0.6841 0.3837 0.6203
vn 0.5056 0.7078 0.4933
vn -0.5472 0.7056 -0.4501
vn -0.2975 0.9228 -0.2447
vn -0.5679 0.7056 -0.4237
vn -0.3087 0.9228 -0.2303
vn -0.5870 0.7057 -0.3968
vn -0.3191 0.9228 -0.2157
vn -0.6046 0.7057 -0.3693
vn -0.3286 0.9228 -0.2007
vn -0.6208 0.7057 -0.3414
vn -0.6356 0.7057 -0.3130
vn -0.3454 0.9229 -0.1701
vn -0.6490 0.7057 -0.2841
vn -0.3527 0.9229 -0.1544
vn -0.6611 0.7057 -0.2548
vn -0.3593 0.9229 -0.1385
vn -0.6718 0.7057 -0.2249
vn -0.3651 0.9229 -0.1222
vn -0.6812 0.7057 -0.1946
vn -0.3703 0.9229 -0.1057
vn -0.6893 0.7057 -0.1636
vn -0.3746 0.9229 -0.0889
vn -0.6961 0.7057 -0.1321
vn -0.3783 0.9228 -0.0718
vn -0.7014 0.7057 -0.1000
vn -0.7078 0.7056 -0.0339
vn -0.7138 0.3816 -0.5872
vn -0.7408 0.3816 -0.5528
vn -0.7658 0.3816 -0.5176
vn -0.7888 0.3817 -0.4818
vn -0.8099 0.3817 -0.4454
vn -0.8292 0.3817 -0.4083
vn -0.8467 0.3817 -0.3707
vn -0.8624 0.3817 -0.3324
vn -0.8764 0.3817 -0.2934
vn -0.8887 0.3817 -0.2538
vn -0.8993 0.3817 -0.2134
vn -0.9081 0.3817 -0.1723
vn -0.9150 0.3817 -0.1304
vn -0.9201 0.3817 -0.0877
vn -0.9232 0.3816 -0.0442
vn -0.7723 0.0000 -0.6353
vn -0.8014 0.0000 -0.5980
vn -0.8285 0.0000 -0.5600
vn -0.8534 0.0000 -0.5213
vn -0.8762 0.0000 -0.4819
vn -0.8971 0.0000 -0.4418
vn -0.9160 0.0000 -0.4010
vn -0.9331 0.0000 -0.3596
vn -0.9482 0.0000 -0.3175
vn -0.9615 0.0000 -0.2746
vn -0.9730 0.0000 -0.2309
vn -0.9825 0.0000 -0.1865
vn -0.9900 0.0000 -0.1411
vn -0.9955 0.0000 -0.0949
vn -0.9988 0.0000 -0.0478
vn -0.7138 -0.3816 -0.5872
vn -0.7408 -0.3816 -0.5528
vn -0.7658 -0.3817 -0.5176
vn -0.7888 -0.3817 -0.4818
vn -0.8099 -0.3817 -0.4454
vn -0.8292 -0.3817 -0.4083
vn -0.8467 -0.3817 -0.3707
vn -0.8624 -0.3817 -0.3324
vn -0.8764 -0.3817 -0.2934
vn -0.8887 -0.3817 -0.2538
vn -0.8993 -0.3817 -0.2134
vn -0.9081 -0.3817 -0.1723
vn -0.9150 -0.3817 -0.1304
vn -0.9201 -0.3817 -0.0877
vn -0.9232 -0.3816 -0.0442
vn -0.5472 -0.7056 -0.4501
vn -0.5679 -0.7056 -0.4237
vn -0.5870 -0.7056 -0.3968
vn -0.6046 -0.7057 -0.3693
vn -0.6208 -0.7057 -0.3414
vn -0.6356 -0.7057 -0.3130
vn -0.6490 -0.7057 -0.2841
vn -0.6611 -0.7057 -0.2548
vn -0.6718 -0.7057 -0.2249
vn -0.6812 -0.7057 -0.1946
vn -0.6893 -0.7057 -0.1636
vn -0.6961 -0.7057 -0.1321
vn -0.7014 -0.7057 -0.1000
vn -0.2975 -0.9228 -0.2447
vn -0.3087 -0.9228 -0.2303
vn -0.3191 -0.9228 -0.2157
vn -0.3286 -0.9228 -0.2007
vn -0.3454 -0.9229 -0.1701
vn -0.3527 -0.9229 -0.1544
vn -0.3593 -0.9229 -0.1385
vn -0.3703 -0.9229 -0.1057
vn -0.3746 -0.9229 -0.0889
vn -0.3783 -0.9228 -0.0718
vn -0.3813 -0.9228 -0.0544
vn 0.2936 -0.9249 0.2415
vn 0.3150 -0.9249 0.2129
vn 0.3245 -0.9249 0.1982
vn 0.3332 -0.9249 0.1832
vn 0.3412 -0.9248 0.1680
vn 0.3484 -0.9248 0.1525
vn 0.3549 -0.9248 0.1368
vn 0.3606 -0.9248 0.1207
vn 0.3657 -0.9248 0.1044
vn 0.3700 -0.9249 0.0878
vn 0.3736 -0.9249 0.0709
vn 0.5449 -0.7086 0.4483
vn 0.5655 -0.7085 0.4220
vn 0.5846 -0.7085 0.3952
vn 0.6022 -0.7085 0.3678
vn 0.6183 -0.7085 0.3400
vn 0.6331 -0.7085 0.3118
vn 0.6464 -0.7085 0.2830
vn 0.6585 -0.7085 0.2538
vn 0.6692 -0.7085 0.2240
vn 0.6785 -0.7085 0.1938
vn 0.6866 -0.7085 0.1630
vn 0.6933 -0.7085 0.1316
vn 0.6986 -0.7085 0.0996
vn 0.7024 -0.7086 0.0670
vn 0.7131 -0.3837 0.5866
vn 0.7401 -0.3837 0.5522
vn 0.7651 -0.3837 0.5171
vn 0.7880 -0.3837 0.4814
vn 0.8092 -0.3836 0.4450
vn 0.8285 -0.3836 0.4080
vn 0.8459 -0.3836 0.3704
vn 0.8617 -0.3836 0.3321
vn 0.8757 -0.3836 0.2932
vn 0.8879 -0.3836 0.2536
vn 0.8985 -0.3836 0.2133
vn 0.9073 -0.3836 0.1722
vn 0.9142 -0.3837 0.1303
vn 0.9193 -0.3837 0.0876
vn 0.7723 0.0000 0.6353
vn 0.8014 0.0000 0.5980
vn 0.8285 0.0000 0.5600
vn 0.8534 0.0000 0.5213
vn 0.8762 0.0000 0.4819
vn 0.8971 0.0000 0.4418
vn 0.9160 0.0000 0.4010
vn 0.9331 0.0000 0.3596
vn 0.9482 0.0000 0.3175
vn 0.9615 0.0000 0.2746
vn 0.9730 0.0000 0.2309
vn 0.9825 0.0000 0.1865
vn 0.9900 0.0000 0.1411
vn 0.9955 0.0000 0.0949
vn 0.9988 0.0000 0.0478
vn 0.9999 0.0000 0.0120
vn 0.7131 0.3837 0.5866
vn 0.7401 0.3837 0.5522
vn 0.7651 0.3837 0.5171
vn 0.7880 0.3837 0.4814
vn 0.8092 0.3836 0.4450
vn 0.8285 0.3836 0.4080
vn 0.8459 0.3836 0.3704
vn 0.8617 0.3836 0.3321
vn 0.8757 0.3836 0.2932
vn 0.8879 0.3836 0.2536
vn 0.8985 0.3836 0.2133
vn 0.9073 0.3836 0.1722
vn 0.9142 0.3837 0.1303
vn 0.9193 0.3837 0.0876
vn 0.5655 0.7086 0.4220
vn 0.5846 0.7085 0.3952
vn 0.6022 0.7085 0.3678
vn 0.6183 0.7085 0.3400
vn 0.6331 0.7085 0.3118
vn 0.6464 0.7085 0.2830
vn 0.6585 0.7085 0.2538
vn 0.6692 0.7085 0.2240
vn 0.6785 0.7085 0.1938
vn 0.6866 0.7085 0.1630
vn 0.6933 0.7085 0.1316
vn 0.6986 0.7085 0.0996
vn 0.3150 0.9249 0.2129
vn 0.3245 0.9249 0.1982
vn 0.3332 0.9249 0.1832
vn 0.3412 0.9249 0.1680
vn 0.3484 0.9248 0.1525
vn 0.3606 0.9248 0.1207
vn 0.3657 0.9249 0.1044
vn 0.3700 0.9249 0.0878
vn 0.3736 0.9249 0.0709
vn -0.3827 0.9239 0.0000
vn -0.0000 1.0000 0.0000
vn 1.0000 -0.0000 0.0000
vn 0.3827 0.9239 0.0000
vn -0.7071 0.7071 0.0000
vn -0.9239 0.3827 0.0000
vn -1.0000 -0.0000 0.0000
vn -0.9239 -0.3827 0.0000
vn -0.7071 -0.7071 0.0000
vn -0.3827 -0.9239 0.0000
vn 0.3827 -0.9239 0.0000
vn 0.2706 -0.9239 0.2706
vn -0.5000 -0.7071 -0.5000
vn -0.6533 -0.3827 -0.6533
vn -0.7071 0.0000 -0.7071
vn -0.6533 0.3827 -0.6533
vn -0.5000 0.7071 -0.5000
vn 0.2706 0.9239 0.2706
vn -0.2706 0.9239 -0.2706
vn 0.5000 0.7071 0.5000
vn 0.6533 0.3827 0.6533
vn 0.7071 0.0000 0.7071
usemtl None
s off
f 577/1/1 578/2/1 579/3/1 580/4/1 581/5/1 582/6/1 583/7/1 584/8/1 585/9/1 586/10/1 587/11/1 588/12/1 589/13/1 590/14/1 591/15/1 592/16/1
f 593/17/1 594/18/1 595/19/1 596/20/1 597/21/1 598/22/1 599/23/1 600/24/1 601/25/1 602/26/1 603/27/1 604/28/1 605/29/1 606/30/1 607/31/1 608/32/1
f 610/33/2 609/34/2 611/35/2 612/36/2 613/37/2 614/38/2 615/39/2 616/40/2 617/41/2 618/42/2 619/43/2 620/44/2 621/45/2 622/46/2 623/47/2 624/48/2
f 626/49/2 625/50/2 627/51/2 628/52/2 629/53/2 630/54/2 631/55/2 632/56/2 633/57/2 634/58/2 635/59/2 636/60/2 637/61/2 638/62/2 639/63/2 640/64/2
s 1
f 14/65/3 15/66/4 591/15/5 590/14/6
f 27/67/7 28/68/8 604/28/9 603/27/10
f 40/69/11 41/70/12 618/42/13 617/41/14
f 53/71/15 54/72/16 631/55/17 630/54/18
f 96/73/19 65/74/20 63/75/21 62/76/22
f 112/77/23 96/73/19 62/76/22 61/78/24
f 128/79/25 112/77/23 61/78/24 60/80/26
f 144/81/27 128/79/25 60/80/26 59/82/28
f 160/83/29 144/81/27 59/82/28 58/84/30
f 176/85/31 160/83/29 58/84/30 57/86/12
f 192/87/32 176/85/31 57/86/12 56/88/11
f 208/89/33 192/87/32 56/88/11 55/90/34
f 224/91/35 208/89/33 55/90/34 54/72/16
f 240/92/36 224/91/35 54/72/16 53/71/15
f 256/93/37 240/92/36 53/71/15 52/94/38
f 272/95/39 256/93/37 52/94/38 51/96/40
f 288/97/41 272/95/39 51/96/40 50/98/42
f 304/99/43 288/97/41 50/98/42 49/100/44
f 320/101/45 304/99/43 49/100/44 64/102/46
f 65/74/20 320/101/45 64/102/46 63/75/21
f 95/103/47 66/104/48 65/74/20 96/73/19
f 94/105/49 67/106/50 66/104/48 95/103/47
f 93/107/51 68/108/52 67/106/50 94/105/49
f 92/109/53 69/110/54 68/108/52 93/107/51
f 91/111/55 70/112/56 69/110/54 92/109/53
f 90/113/57 71/114/58 70/112/56 91/111/55
f 89/115/59 72/116/60 71/114/58 90/113/57
f 88/117/61 73/118/62 72/116/60 89/115/59
f 87/119/63 74/120/64 73/118/62 88/117/61
f 86/121/65 75/122/66 74/120/64 87/119/63
f 85/123/67 76/124/68 75/122/66 86/121/65
f 84/125/69 77/126/70 76/124/68 85/123/67
f 83/127/71 78/128/72 77/126/70 84/125/69
f 82/129/73 79/130/74 78/128/72 83/127/71
f 80/131/75 79/130/74 82/129/73 81/132/76
f 2/133/77 80/131/75 81/132/76 3/134/78
f 111/135/79 95/103/47 96/73/19 112/77/23
f 110/136/80 94/105/49 95/103/47 111/135/79
f 109/137/81 93/107/51 94/105/49 110/136/80
f 108/138/82 92/109/53 93/107/51 109/137/81
f 107/139/83 91/111/55 92/109/53 108/138/82
f 106/140/84 90/113/57 91/111/55 107/139/83
f 105/141/85 89/115/59 90/113/57 106/140/84
f 104/142/86 88/117/61 89/115/59 105/141/85
f 103/143/87 87/119/63 88/117/61 104/142/86
f 102/144/88 86/121/65 87/119/63 103/143/87
f 101/145/89 85/123/67 86/121/65 102/144/88
f 100/146/90 84/125/69 85/123/67 101/145/89
f 99/147/91 83/127/71 84/125/69 100/146/90
f 98/148/92 82/129/73 83/127/71 99/147/91
f 81/132/76 82/129/73 98/148/92 97/149/93
f 3/134/78 81/132/76 97/149/93 4/150/94
f 127/151/95 111/135/79 112/77/23 128/79/25
f 126/152/96 110/136/80 111/135/79 127/151/95
f 125/153/97 109/137/81 110/136/80 126/152/96
f 124/154/98 108/138/82 109/137/81 125/153/97
f 123/155/99 107/139/83 108/138/82 124/154/98
f 122/156/100 106/140/84 107/139/83 123/155/99
f 121/157/101 105/141/85 106/140/84 122/156/100
f 120/158/102 104/142/86 105/141/85 121/157/101
f 119/159/103 103/143/87 104/142/86 120/158/102
f 118/160/104 102/144/88 103/143/87 119/159/103
f 117/161/105 101/145/89 102/144/88 118/160/104
f 116/162/106 100/146/90 101/145/89 117/161/105
f 115/163/107 99/147/91 100/146/90 116/162/106
f 114/164/108 98/148/92 99/147/91 115/163/107
f 97/149/93 98/148/92 114/164/108 113/165/109
f 4/150/94 97/149/93 113/165/109 5/166/110
f 143/167/111 127/151/95 128/79/25 144/81/27
f 142/168/112 126/152/96 127/151/95 143/167/111
f 141/169/113 125/153/97 126/152/96 142/168/112
f 140/170/114 124/154/98 125/153/97 141/169/113
f 139/171/115 123/155/99 124/154/98 140/170/114
f 138/172/116 122/156/100 123/155/99 139/171/115
f 137/173/117 121/157/101 122/156/100 138/172/116
f 136/174/118 120/158/102 121/157/101 137/173/117
f 135/175/119 119/159/103 120/158/102 136/174/118
f 134/176/120 118/160/104 119/159/103 135/175/119
f 133/177/121 117/161/105 118/160/104 134/176/120
f 132/178/122 116/162/106 117/161/105 133/177/121
f 131/179/123 115/163/107 116/162/106 132/178/122
f 130/180/124 114/164/108 115/163/107 131/179/123
f 113/165/109 114/164/108 130/180/124 129/181/125
f 5/166/110 113/165/109 129/181/125 6/182/126
f 159/183/127 143/167/111 144/81/27 160/83/29
f 158/184/128 142/168/112 143/167/111 159/183/127
f 157/185/129 141/169/113 142/168/112 158/184/128
f 156/186/130 140/170/114 141/169/113 157/185/129
f 155/187/131 139/171/115 140/170/114 156/186/130
f 154/188/132 138/172/116 139/171/115 155/187/131
f 153/189/133 137/173/117 138/172/116 154/188/132
f 152/190/134 136/174/118 137/173/117 153/189/133
f 151/191/135 135/175/119 136/174/118 152/190/134
f 150/192/136 134/176/120 135/175/119 151/191/135
f 149/193/137 133/177/121 134/176/120 150/192/136
f 148/194/138 132/178/122 133/177/121 149/193/137
f 147/195/139 131/179/123 132/178/122 148/194/138
f 146/196/140 130/180/124 131/179/123 147/195/139
f 129/181/125 130/180/124 146/196/140 145/197/141
f 6/182/126 129/181/125 145/197/141 7/198/142
f 175/199/143 159/183/127 160/83/29 176/85/31
f 174/200/144 158/184/128 159/183/127 175/199/143
f 173/201/145 157/185/129 158/184/128 174/200/144
f 172/202/146 156/186/130 157/185/129 173/201/145
f 171/203/147 155/187/131 156/186/130 172/202/146
f 170/204/148 154/188/132 155/187/131 171/203/147
f 169/205/149 153/189/133 154/188/132 170/204/148
f 168/206/150 152/190/134 153/189/133 169/205/149
f 167/207/151 151/191/135 152/190/134 168/206/150
f 166/208/152 150/192/136 151/191/135 167/207/151
f 165/209/153 149/193/137 150/192/136 166/208/152
f 164/210/154 148/194/138 149/193/137 165/209/153
f 163/211/155 147/195/139 148/194/138 164/210/154
f 162/212/156 146/196/140 147/195/139 163/211/155
f 145/197/141 146/196/140 162/212/156 161/213/157
f 7/198/142 145/197/141 161/213/157 8/214/158
f 191/215/159 175/199/143 176/85/31 192/87/32
f 190/216/160 174/200/144 175/199/143 191/215/159
f 189/217/161 173/201/145 174/200/144 190/216/160
f 188/218/162 172/202/146 173/201/145 189/217/161
f 187/219/163 171/203/147 172/202/146 188/218/162
f 186/220/164 170/204/148 171/203/147 187/219/163
f 185/221/165 169/205/149 170/204/148 186/220/164
f 184/222/166 168/206/150 169/205/149 185/221/165
f 183/223/167 167/207/151 168/206/150 184/222/166
f 182/224/168 166/208/152 167/207/151 183/223/167
f 181/225/169 165/209/153 166/208/152 182/224/168
f 180/226/170 164/210/154 165/209/153 181/225/169
f 179/227/171 163/211/155 164/210/154 180/226/170
f 178/228/172 162/212/156 163/211/155 179/227/171
f 161/213/157 162/212/156 178/228/172 177/229/173
f 8/214/158 161/213/157 177/229/173 9/230/174
f 207/231/175 191/215/159 192/87/32 208/89/33
f 206/232/176 190/216/160 191/215/159 207/231/175
f 205/233/177 189/217/161 190/216/160 206/232/176
f 204/234/178 188/218/162 189/217/161 205/233/177
f 203/235/179 187/219/163 188/218/162 204/234/178
f 202/236/180 186/220/164 187/219/163 203/235/179
f 201/237/181 185/221/165 186/220/164 202/236/180
f 200/238/182 184/222/166 185/221/165 201/237/181
f 199/239/183 183/223/167 184/222/166 200/238/182
f 198/240/184 182/224/168 183/223/167 199/239/183
f 197/241/185 181/225/169 182/224/168 198/240/184
f 196/242/186 180/226/170 181/225/169 197/241/185
f 195/243/187 179/227/171 180/226/170 196/242/186
f 194/244/188 178/228/172 179/227/171 195/243/187
f 177/229/173 178/228/172 194/244/188 193/245/189
f 9/230/174 177/229/173 193/245/189 10/246/190
f 223/247/191 207/231/175 208/89/33 224/91/35
f 222/248/192 206/232/176 207/231/175 223/247/191
f 221/249/193 205/233/177 206/232/176 222/248/192
f 220/250/194 204/234/178 205/233/177 221/249/193
f 219/251/195 203/235/179 204/234/178 220/250/194
f 218/252/196 202/236/180 203/235/179 219/251/195
f 217/253/197 201/237/181 202/236/180 218/252/196
f 216/254/198 200/238/182 201/237/181 217/253/197
f 215/255/199 199/239/183 200/238/182 216/254/198
f 214/256/200 198/240/184 199/239/183 215/255/199
f 213/257/201 197/241/185 198/240/184 214/256/200
f 212/258/202 196/242/186 197/241/185 213/257/201
f 211/259/203 195/243/187 196/242/186 212/258/202
f 210/260/204 194/244/188 195/243/187 211/259/203
f 193/245/189 194/244/188 210/260/204 209/261/205
f 10/246/190 193/245/189 209/261/205 11/262/7
f 239/263/206 223/247/191 224/91/35 240/92/36
f 238/264/207 222/248/192 223/247/191 239/263/206
f 237/265/208 221/249/193 222/248/192 238/264/207
f 236/266/209 220/250/194 221/249/193 237/265/208
f 235/267/210 219/251/195 220/250/194 236/266/209
f 234/268/211 218/252/196 219/251/195 235/267/210
f 233/269/212 217/253/197 218/252/196 234/268/211
f 232/270/213 216/254/198 217/253/197 233/269/212
f 231/271/214 215/255/199 216/254/198 232/270/213
f 230/272/215 214/256/200 215/255/199 231/271/214
f 229/273/216 213/257/201 214/256/200 230/272/215
f 228/274/217 212/258/202 213/257/201 229/273/216
f 227/275/218 211/259/203 212/258/202 228/274/217
f 226/276/219 210/260/204 211/259/203 227/275/218
f 209/261/205 210/260/204 226/276/219 225/277/220
f 11/262/7 209/261/205 225/277/220 12/278/8
f 255/279/221 239/263/206 240/92/36 256/93/37
f 254/280/222 238/264/207 239/263/206 255/279/221
f 253/281/223 237/265/208 238/264/207 254/280/222
f 252/282/224 236/266/209 237/265/208 253/281/223
f 251/283/225 235/267/210 236/266/209 252/282/224
f 250/284/226 234/268/211 235/267/210 251/283/225
f 249/285/227 233/269/212 234/268/211 250/284/226
f 248/286/228 232/270/213 233/269/212 249/285/227
f 247/287/229 231/271/214 232/270/213 248/286/228
f 246/288/230 230/272/215 231/271/214 247/287/229
f 245/289/231 229/273/216 230/272/215 246/288/230
f 244/290/232 228/274/217 229/273/216 245/289/231
f 243/291/233 227/275/218 228/274/217 244/290/232
f 242/292/234 226/276/219 227/275/218 243/291/233
f 225/277/220 226/276/219 242/292/234 241/293/235
f 12/278/8 225/277/220 241/293/235 13/294/236
f 271/295/237 255/279/221 256/93/37 272/95/39
f 270/296/238 254/280/222 255/279/221 271/295/237
f 269/297/239 253/281/223 254/280/222 270/296/238
f 268/298/240 252/282/224 253/281/223 269/297/239
f 267/299/241 251/283/225 252/282/224 268/298/240
f 266/300/242 250/284/226 251/283/225 267/299/241
f 265/301/243 249/285/227 250/284/226 266/300/242
f 264/302/244 248/286/228 249/285/227 265/301/243
f 263/303/245 247/287/229 248/286/228 264/302/244
f 262/304/246 246/288/230 247/287/229 263/303/245
f 261/305/247 245/289/231 246/288/230 262/304/246
f 260/306/248 244/290/232 245/289/231 261/305/247
f 259/307/249 243/291/233 244/290/232 260/306/248
f 258/308/250 242/292/234 243/291/233 259/307/249
f 241/293/235 242/292/234 258/308/250 257/309/251
f 13/294/236 241/293/235 257/309/251 14/65/3
f 287/310/252 271/295/237 272/95/39 288/97/41
f 286/311/253 270/296/238 271/295/237 287/310/252
f 285/312/254 269/297/239 270/296/238 286/311/253
f 284/313/255 268/298/240 269/297/239 285/312/254
f 283/314/256 267/299/241 268/298/240 284/313/255
f 282/315/257 266/300/242 267/299/241 283/314/256
f 281/316/258 265/301/243 266/300/242 282/315/257
f 280/317/259 264/302/244 265/301/243 281/316/258
f 279/318/260 263/303/245 264/302/244 280/317/259
f 278/319/261 262/304/246 263/303/245 279/318/260
f 277/320/262 261/305/247 262/304/246 278/319/261
f 276/321/263 260/306/248 261/305/247 277/320/262
f 275/322/264 259/307/249 260/306/248 276/321/263
f 274/323/265 258/308/250 259/307/249 275/322/264
f 257/309/251 258/308/250 274/323/265 273/324/266
f 14/65/3 257/309/251 273/324/266 15/66/4
f 303/325/267 287/310/252 288/97/41 304/99/43
f 302/326/268 286/311/253 287/310/252 303/325/267
f 301/327/269 285/312/254 286/311/253 302/326/268
f 300/328/270 284/313/255 285/312/254 301/327/269
f 299/329/271 283/314/256 284/313/255 300/328/270
f 298/330/272 282/315/257 283/314/256 299/329/271
f 297/331/273 281/316/258 282/315/257 298/330/272
f 296/332/274 280/317/259 281/316/258 297/331/273
f 295/333/275 279/318/260 280/317/259 296/332/274
f 294/334/276 278/319/261 279/318/260 295/333/275
f 293/335/277 277/320/262 278/319/261 294/334/276
f 292/336/278 276/321/263 277/320/262 293/335/277
f 291/337/279 275/322/264 276/321/263 292/336/278
f 290/338/280 274/323/265 275/322/264 291/337/279
f 273/324/266 274/323/265 290/338/280 289/339/281
f 15/66/4 273/324/266 289/339/281 16/340/282
f 319/341/283 303/325/267 304/99/43 320/101/45
f 318/342/284 302/326/268 303/325/267 319/341/283
f 317/343/285 301/327/269 302/326/268 318/342/284
f 316/344/286 300/328/270 301/327/269 317/343/285
f 315/345/287 299/329/271 300/328/270 316/344/286
f 314/346/288 298/330/272 299/329/271 315/345/287
f 313/347/289 297/331/273 298/330/272 314/346/288
f 312/348/290 296/332/274 297/331/273 313/347/289
f 311/349/291 295/333/275 296/332/274 312/348/290
f 310/350/292 294/334/276 295/333/275 311/349/291
f 309/351/293 293/335/277 294/334/276 310/350/292
f 308/352/294 292/336/278 293/335/277 309/351/293
f 307/353/295 291/337/279 292/336/278 308/352/294
f 306/354/296 290/338/280 291/337/279 307/353/295
f 289/339/281 290/338/280 306/354/296 305/355/297
f 16/340/282 289/339/281 305/355/297 1/356/298
f 66/104/48 319/341/283 320/101/45 65/74/20
f 67/106/50 318/342/284 319/341/283 66/104/48
f 68/108/52 317/343/285 318/342/284 67/106/50
f 69/110/54 316/344/286 317/343/285 68/108/52
f 70/112/56 315/345/287 316/344/286 69/110/54
f 71/114/58 314/346/288 315/345/287 70/112/56
f 72/116/60 313/347/289 314/346/288 71/114/58
f 73/118/62 312/348/290 313/347/289 72/116/60
f 74/120/64 311/349/291 312/348/290 73/118/62
f 75/122/66 310/350/292 311/349/291 74/120/64
f 76/124/68 309/351/293 310/350/292 75/122/66
f 77/126/70 308/352/294 309/351/293 76/124/68
f 78/128/72 307/353/295 308/352/294 77/126/70
f 79/130/74 306/354/296 307/353/295 78/128/72
f 305/355/297 306/354/296 79/130/74 80/131/75
f 1/356/298 305/355/297 80/131/75 2/133/77
f 352/357/19 321/358/299 47/359/300 46/360/301
f 368/361/23 352/357/19 46/360/301 45/362/302
f 384/363/303 368/361/23 45/362/302 44/364/26
f 400/365/27 384/363/303 44/364/26 43/366/304
f 416/367/29 400/365/27 43/366/304 42/368/305
f 432/369/306 416/367/29 42/368/305 41/70/12
f 448/370/32 432/369/306 41/70/12 40/69/11
f 464/371/33 448/370/32 40/69/11 39/372/34
f 480/373/35 464/371/33 39/372/34 38/374/307
f 496/375/308 480/373/35 38/374/307 37/376/15
f 512/377/309 496/375/308 37/376/15 36/378/310
f 528/379/311 512/377/309 36/378/310 35/380/40
f 544/381/41 528/379/311 35/380/40 34/382/312
f 560/383/43 544/381/41 34/382/312 33/384/44
f 576/385/45 560/383/43 33/384/44 48/386/46
f 321/358/299 576/385/45 48/386/46 47/359/300
f 351/387/313 322/388/314 321/358/299 352/357/19
f 350/389/315 323/390/316 322/388/314 351/387/313
f 349/391/317 324/392/318 323/390/316 350/389/315
f 348/393/319 325/394/320 324/392/318 349/391/317
f 347/395/321 326/396/56 325/394/320 348/393/319
f 346/397/322 327/398/323 326/396/56 347/395/321
f 345/399/324 328/400/325 327/398/323 346/397/322
f 344/401/326 329/402/327 328/400/325 345/399/324
f 343/403/328 330/404/329 329/402/327 344/401/326
f 342/405/330 331/406/331 330/404/329 343/403/328
f 341/407/332 332/408/333 331/406/331 342/405/330
f 340/409/334 333/410/335 332/408/333 341/407/332
f 339/411/336 334/412/72 333/410/335 340/409/334
f 338/413/73 335/414/74 334/412/72 339/411/336
f 336/415/75 335/414/74 338/413/73 337/416/337
f 18/417/77 336/415/75 337/416/337 19/418/78
f 367/419/338 351/387/313 352/357/19 368/361/23
f 366/420/339 350/389/315 351/387/313 367/419/338
f 365/421/340 349/391/317 350/389/315 366/420/339
f 364/422/341 348/393/319 349/391/317 365/421/340
f 363/423/342 347/395/321 348/393/319 364/422/341
f 362/424/343 346/397/322 347/395/321 363/423/342
f 361/425/344 345/399/324 346/397/322 362/424/343
f 360/426/345 344/401/326 345/399/324 361/425/344
f 359/427/346 343/403/328 344/401/326 360/426/345
f 358/428/347 342/405/330 343/403/328 359/427/346
f 357/429/348 341/407/332 342/405/330 358/428/347
f 356/430/349 340/409/334 341/407/332 357/429/348
f 355/431/350 339/411/336 340/409/334 356/430/349
f 354/432/351 338/413/73 339/411/336 355/431/350
f 337/416/337 338/413/73 354/432/351 353/433/352
f 19/418/78 337/416/337 353/433/352 20/434/94
f 383/435/353 367/419/338 368/361/23 384/363/303
f 382/436/354 366/420/339 367/419/338 383/435/353
f 381/437/355 365/421/340 366/420/339 382/436/354
f 380/438/356 364/422/341 365/421/340 381/437/355
f 379/439/357 363/423/342 364/422/341 380/438/356
f 378/440/358 362/424/343 363/423/342 379/439/357
f 377/441/359 361/425/344 362/424/343 378/440/358
f 376/442/360 360/426/345 361/425/344 377/441/359
f 375/443/361 359/427/346 360/426/345 376/442/360
f 374/444/362 358/428/347 359/427/346 375/443/361
f 373/445/363 357/429/348 358/428/347 374/444/362
f 372/446/364 356/430/349 357/429/348 373/445/363
f 371/447/365 355/431/350 356/430/349 372/446/364
f 370/448/366 354/432/351 355/431/350 371/447/365
f 353/433/352 354/432/351 370/448/366 369/449/367
f 20/434/94 353/433/352 369/449/367 21/450/110
f 399/451/368 383/435/353 384/363/303 400/365/27
f 398/452/369 382/436/354 383/435/353 399/451/368
f 397/453/370 381/437/355 382/436/354 398/452/369
f 396/454/371 380/438/356 381/437/355 397/453/370
f 395/455/372 379/439/357 380/438/356 396/454/371
f 394/456/373 378/440/358 379/439/357 395/455/372
f 393/457/374 377/441/359 378/440/358 394/456/373
f 392/458/375 376/442/360 377/441/359 393/457/374
f 391/459/376 375/443/361 376/442/360 392/458/375
f 390/460/377 374/444/362 375/443/361 391/459/376
f 389/461/378 373/445/363 374/444/362 390/460/377
f 388/462/379 372/446/364 373/445/363 389/461/378
f 387/463/380 371/447/365 372/446/364 388/462/379
f 386/464/381 370/448/366 371/447/365 387/463/380
f 369/449/367 370/448/366 386/464/381 385/465/382
f 21/450/110 369/449/367 385/465/382 22/466/126
f 415/467/383 399/451/368 400/365/27 416/367/29
f 414/468/384 398/452/369 399/451/368 415/467/383
f 413/469/385 397/453/370 398/452/369 414/468/384
f 412/470/386 396/454/371 397/453/370 413/469/385
f 411/471/387 395/455/372 396/454/371 412/470/386
f 410/472/388 394/456/373 395/455/372 411/471/387
f 409/473/389 393/457/374 394/456/373 410/472/388
f 408/474/390 392/458/375 393/457/374 409/473/389
f 407/475/391 391/459/376 392/458/375 408/474/390
f 406/476/392 390/460/377 391/459/376 407/475/391
f 405/477/393 389/461/378 390/460/377 406/476/392
f 404/478/394 388/462/379 389/461/378 405/477/393
f 403/479/395 387/463/380 388/462/379 404/478/394
f 402/480/140 386/464/381 387/463/380 403/479/395
f 385/465/382 386/464/381 402/480/140 401/481/141
f 22/466/126 385/465/382 401/481/141 23/482/142
f 431/483/396 415/467/383 416/367/29 432/369/306
f 430/484/397 414/468/384 415/467/383 431/483/396
f 429/485/398 413/469/385 414/468/384 430/484/397
f 428/486/399 412/470/386 413/469/385 429/485/398
f 427/487/147 411/471/387 412/470/386 428/486/399
f 426/488/400 410/472/388 411/471/387 427/487/147
f 425/489/401 409/473/389 410/472/388 426/488/400
f 424/490/402 408/474/390 409/473/389 425/489/401
f 423/491/151 407/475/391 408/474/390 424/490/402
f 422/492/403 406/476/392 407/475/391 423/491/151
f 421/493/404 405/477/393 406/476/392 422/492/403
f 420/494/405 404/478/394 405/477/393 421/493/404
f 419/495/406 403/479/395 404/478/394 420/494/405
f 418/496/156 402/480/140 403/479/395 419/495/406
f 401/481/141 402/480/140 418/496/156 417/497/157
f 23/482/142 401/481/141 417/497/157 24/498/158
f 447/499/159 431/483/396 432/369/306 448/370/32
f 446/500/160 430/484/397 431/483/396 447/499/159
f 445/501/161 429/485/398 430/484/397 446/500/160
f 444/502/162 428/486/399 429/485/398 445/501/161
f 443/503/163 427/487/147 428/486/399 444/502/162
f 442/504/164 426/488/400 427/487/147 443/503/163
f 441/505/165 425/489/401 426/488/400 442/504/164
f 440/506/166 424/490/402 425/489/401 441/505/165
f 439/507/167 423/491/151 424/490/402 440/506/166
f 438/508/168 422/492/403 423/491/151 439/507/167
f 437/509/169 421/493/404 422/492/403 438/508/168
f 436/510/170 420/494/405 421/493/404 437/509/169
f 435/511/171 419/495/406 420/494/405 436/510/170
f 434/512/172 418/496/156 419/495/406 435/511/171
f 417/497/157 418/496/156 434/512/172 433/513/173
f 24/498/158 417/497/157 433/513/173 25/514/174
f 463/515/407 447/499/159 448/370/32 464/371/33
f 462/516/176 446/500/160 447/499/159 463/515/407
f 461/517/408 445/501/161 446/500/160 462/516/176
f 460/518/409 444/502/162 445/501/161 461/517/408
f 459/519/410 443/503/163 444/502/162 460/518/409
f 458/520/411 442/504/164 443/503/163 459/519/410
f 457/521/412 441/505/165 442/504/164 458/520/411
f 456/522/413 440/506/166 441/505/165 457/521/412
f 455/523/414 439/507/167 440/506/166 456/522/413
f 454/524/415 438/508/168 439/507/167 455/523/414
f 453/525/416 437/509/169 438/508/168 454/524/415
f 452/526/417 436/510/170 437/509/169 453/525/416
f 451/527/187 435/511/171 436/510/170 452/526/417
f 450/528/188 434/512/172 435/511/171 451/527/187
f 433/513/173 434/512/172 450/528/188 449/529/189
f 25/514/174 433/513/173 449/529/189 26/530/190
f 479/531/418 463/515/407 464/371/33 480/373/35
f 478/532/419 462/516/176 463/515/407 479/531/418
f 477/533/420 461/517/408 462/516/176 478/532/419
f 476/534/421 460/518/409 461/517/408 477/533/420
f 475/535/422 459/519/410 460/518/409 476/534/421
f 474/536/423 458/520/411 459/519/410 475/535/422
f 473/537/424 457/521/412 458/520/411 474/536/423
f 472/538/425 456/522/413 457/521/412 473/537/424
f 471/539/426 455/523/414 456/522/413 472/538/425
f 470/540/427 454/524/415 455/523/414 471/539/426
f 469/541/428 453/525/416 454/524/415 470/540/427
f 468/542/429 452/526/417 453/525/416 469/541/428
f 467/543/430 451/527/187 452/526/417 468/542/429
f 466/544/431 450/528/188 451/527/187 467/543/430
f 449/529/189 450/528/188 466/544/431 465/545/205
f 26/530/190 449/529/189 465/545/205 27/67/7
f 495/546/432 479/531/418 480/373/35 496/375/308
f 494/547/433 478/532/419 479/531/418 495/546/432
f 493/548/434 477/533/420 478/532/419 494/547/433
f 492/549/435 476/534/421 477/533/420 493/548/434
f 491/550/436 475/535/422 476/534/421 492/549/435
f 490/551/437 474/536/423 475/535/422 491/550/436
f 489/552/438 473/537/424 474/536/423 490/551/437
f 488/553/439 472/538/425 473/537/424 489/552/438
f 487/554/440 471/539/426 472/538/425 488/553/439
f 486/555/441 470/540/427 471/539/426 487/554/440
f 485/556/442 469/541/428 470/540/427 486/555/441
f 484/557/443 468/542/429 469/541/428 485/556/442
f 483/558/444 467/543/430 468/542/429 484/557/443
f 482/559/445 466/544/431 467/543/430 483/558/444
f 465/545/205 466/544/431 482/559/445 481/560/220
f 27/67/7 465/545/205 481/560/220 28/68/8
f 511/561/446 495/546/432 496/375/308 512/377/309
f 510/562/447 494/547/433 495/546/432 511/561/446
f 509/563/448 493/548/434 494/547/433 510/562/447
f 508/564/449 492/549/435 493/548/434 509/563/448
f 507/565/450 491/550/436 492/549/435 508/564/449
f 506/566/451 490/551/437 491/550/436 507/565/450
f 505/567/452 489/552/438 490/551/437 506/566/451
f 504/568/453 488/553/439 489/552/438 505/567/452
f 503/569/454 487/554/440 488/553/439 504/568/453
f 502/570/455 486/555/441 487/554/440 503/569/454
f 501/571/456 485/556/442 486/555/441 502/570/455
f 500/572/457 484/557/443 485/556/442 501/571/456
f 499/573/458 483/558/444 484/557/443 500/572/457
f 498/574/459 482/559/445 483/558/444 499/573/458
f 481/560/220 482/559/445 498/574/459 497/575/460
f 28/68/8 481/560/220 497/575/460 29/576/461
f 527/577/462 511/561/446 512/377/309 528/379/311
f 526/578/463 510/562/447 511/561/446 527/577/462
f 525/579/464 509/563/448 510/562/447 526/578/463
f 524/580/465 508/564/449 509/563/448 525/579/464
f 523/581/466 507/565/450 508/564/449 524/580/465
f 522/582/467 506/566/451 507/565/450 523/581/466
f 521/583/468 505/567/452 506/566/451 522/582/467
f 520/584/469 504/568/453 505/567/452 521/583/468
f 519/585/470 503/569/454 504/568/453 520/584/469
f 518/586/471 502/570/455 503/569/454 519/585/470
f 517/587/472 501/571/456 502/570/455 518/586/471
f 516/588/473 500/572/457 501/571/456 517/587/472
f 515/589/474 499/573/458 500/572/457 516/588/473
f 514/590/475 498/574/459 499/573/458 515/589/474
f 497/575/460 498/574/459 514/590/475 513/591/251
f 29/576/461 497/575/460 513/591/251 30/592/3
f 543/593/252 527/577/462 528/379/311 544/381/41
f 542/594/476 526/578/463 527/577/462 543/593/252
f 541/595/477 525/579/464 526/578/463 542/594/476
f 540/596/478 524/580/465 525/579/464 541/595/477
f 539/597/479 523/581/466 524/580/465 540/596/478
f 538/598/480 522/582/467 523/581/466 539/597/479
f 537/599/481 521/583/468 522/582/467 538/598/480
f 536/600/482 520/584/469 521/583/468 537/599/481
f 535/601/483 519/585/470 520/584/469 536/600/482
f 534/602/484 518/586/471 519/585/470 535/601/483
f 533/603/485 517/587/472 518/586/471 534/602/484
f 532/604/486 516/588/473 517/587/472 533/603/485
f 531/605/487 515/589/474 516/588/473 532/604/486
f 530/606/265 514/590/475 515/589/474 531/605/487
f 513/591/251 514/590/475 530/606/265 529/607/266
f 30/592/3 513/591/251 529/607/266 31/608/4
f 559/609/267 543/593/252 544/381/41 560/383/43
f 558/610/268 542/594/476 543/593/252 559/609/267
f 557/611/488 541/595/477 542/594/476 558/610/268
f 556/612/489 540/596/478 541/595/477 557/611/488
f 555/613/490 539/597/479 540/596/478 556/612/489
f 554/614/491 538/598/480 539/597/479 555/613/490
f 553/615/492 537/599/481 538/598/480 554/614/491
f 552/616/274 536/600/482 537/599/481 553/615/492
f 551/617/493 535/601/483 536/600/482 552/616/274
f 550/618/494 534/602/484 535/601/483 551/617/493
f 549/619/495 533/603/485 534/602/484 550/618/494
f 548/620/496 532/604/486 533/603/485 549/619/495
f 547/621/279 531/605/487 532/604/486 548/620/496
f 546/622/280 530/606/265 531/605/487 547/621/279
f 529/607/266 530/606/265 546/622/280 545/623/281
f 31/608/4 529/607/266 545/623/281 32/624/282
f 575/625/283 559/609/267 560/383/43 576/385/45
f 574/626/284 558/610/268 559/609/267 575/625/283
f 573/627/285 557/611/488 558/610/268 574/626/284
f 572/628/286 556/612/489 557/611/488 573/627/285
f 571/629/287 555/613/490 556/612/489 572/628/286
f 570/630/288 554/614/491 555/613/490 571/629/287
f 569/631/289 553/615/492 554/614/491 570/630/288
f 568/632/290 552/616/274 553/615/492 569/631/289
f 567/633/291 551/617/493 552/616/274 568/632/290
f 566/634/292 550/618/494 551/617/493 567/633/291
f 565/635/293 549/619/495 550/618/494 566/634/292
f 564/636/294 548/620/496 549/619/495 565/635/293
f 563/637/295 547/621/279 548/620/496 564/636/294
f 562/638/296 546/622/280 547/621/279 563/637/295
f 545/623/281 546/622/280 562/638/296 561/639/297
f 32/624/282 545/623/281 561/639/297 17/640/298
f 322/388/314 575/625/283 576/385/45 321/358/299
f 323/390/316 574/626/284 575/625/283 322/388/314
f 324/392/318 573/627/285 574/626/284 323/390/316
f 325/394/320 572/628/286 573/627/285 324/392/318
f 326/396/56 571/629/287 572/628/286 325/394/320
f 327/398/323 570/630/288 571/629/287 326/396/56
f 328/400/325 569/631/289 570/630/288 327/398/323
f 329/402/327 568/632/290 569/631/289 328/400/325
f 330/404/329 567/633/291 568/632/290 329/402/327
f 331/406/331 566/634/292 567/633/291 330/404/329
f 332/408/333 565/635/293 566/634/292 331/406/331
f 333/410/335 564/636/294 565/635/293 332/408/333
f 334/412/72 563/637/295 564/636/294 333/410/335
f 335/414/74 562/638/296 563/637/295 334/412/72
f 561/639/297 562/638/296 335/414/74 336/415/75
f 17/640/298 561/639/297 336/415/75 18/417/77
f 1/356/298 2/133/77 578/2/497 577/1/498
f 28/68/8 29/576/461 605/29/499 604/28/9
f 15/66/4 16/340/282 592/16/500 591/15/5
f 2/133/77 3/134/78 579/3/501 578/2/497
f 29/576/461 30/592/3 606/30/6 605/29/499
f 16/340/282 1/356/298 577/1/498 592/16/500
f 3/134/78 4/150/94 580/4/502 579/3/501
f 30/592/3 31/608/4 607/31/5 606/30/6
f 17/640/298 18/417/77 594/18/497 593/17/498
f 4/150/94 5/166/110 581/5/503 580/4/502
f 31/608/4 32/624/282 608/32/500 607/31/5
f 18/417/77 19/418/78 595/19/501 594/18/497
f 5/166/110 6/182/126 582/6/504 581/5/503
f 32/624/282 17/640/298 593/17/498 608/32/500
f 19/418/78 20/434/94 596/20/502 595/19/501
f 6/182/126 7/198/142 583/7/505 582/6/504
f 20/434/94 21/450/110 597/21/503 596/20/502
f 7/198/142 8/214/158 584/8/506 583/7/505
f 21/450/110 22/466/126 598/22/504 597/21/503
f 8/214/158 9/230/174 585/9/14 584/8/506
f 22/466/126 23/482/142 599/23/505 598/22/504
f 9/230/174 10/246/190 586/10/507 585/9/14
f 23/482/142 24/498/158 600/24/506 599/23/505
f 10/246/190 11/262/7 587/11/10 586/10/507
f 24/498/158 25/514/174 601/25/14 600/24/506
f 11/262/7 12/278/8 588/12/9 587/11/10
f 25/514/174 26/530/190 602/26/507 601/25/14
f 12/278/8 13/294/236 589/13/499 588/12/9
f 26/530/190 27/67/7 603/27/10 602/26/507
f 13/294/236 14/65/3 590/14/6 589/13/499
f 54/72/16 55/90/34 632/56/508 631/55/17
f 41/70/12 42/368/305 619/43/509 618/42/13
f 55/90/34 56/88/11 633/57/14 632/56/508
f 42/368/305 43/366/304 620/44/510 619/43/509
f 56/88/11 57/86/12 634/58/13 633/57/14
f 43/366/304 44/364/26 621/45/511 620/44/510
f 57/86/12 58/84/30 635/59/509 634/58/13
f 44/364/26 45/362/302 622/46/512 621/45/511
f 58/84/30 59/82/28 636/60/510 635/59/509
f 45/362/302 46/360/301 623/47/513 622/46/512
f 48/386/46 33/384/44 609/34/514 610/33/498
f 59/82/28 60/80/26 637/61/511 636/60/510
f 46/360/301 47/359/300 624/48/515 623/47/513
f 33/384/44 34/382/312 611/35/516 609/34/514
f 60/80/26 61/78/24 638/62/512 637/61/511
f 47/359/300 48/386/46 610/33/498 624/48/515
f 34/382/312 35/380/40 612/36/517 611/35/516
f 61/78/24 62/76/22 639/63/513 638/62/512
f 64/102/46 49/100/44 625/50/514 626/49/498
f 35/380/40 36/378/310 613/37/518 612/36/517
f 62/76/22 63/75/21 640/64/515 639/63/513
f 49/100/44 50/98/42 627/51/516 625/50/514
f 36/378/310 37/376/15 614/38/18 613/37/518
f 63/75/21 64/102/46 626/49/498 640/64/515
f 50/98/42 51/96/40 628/52/517 627/51/516
f 37/376/15 38/374/307 615/39/17 614/38/18
f 51/96/40 52/94/38 629/53/518 628/52/517
f 38/374/307 39/372/34 616/40/508 615/39/17
f 52/94/38 53/71/15 630/54/18 629/53/518
f 39/372/34 40/69/11 617/41/14 616/40/508
