# Blender v2.78 (sub 0) OBJ File: 'RollerCoasterRailLoop.blend'
# www.blender.org
mtllib RollerCoasterRailShort.mtl
o Circle
v 0.500000 1.000000 0.000000
v 0.308659 0.961939 0.000000
v 0.146446 0.853554 0.000000
v 0.038059 0.691341 0.000000
v 0.000000 0.500000 -0.000000
v 0.038059 0.308659 -0.000000
v 0.146446 0.146446 -0.000000
v 0.308659 0.038061 -0.000000
v 0.500000 0.000000 0.000000
v 0.691341 0.038059 -0.000000
v 0.853554 0.146446 -0.000000
v 0.961941 0.308659 -0.000000
v 1.000000 0.500000 -0.000000
v 0.961941 0.691341 0.000000
v 0.853554 0.853554 0.000000
v 0.691341 0.961941 0.000000
v 8.500000 1.000000 0.000000
v 8.308659 0.961939 0.000000
v 8.146446 0.853554 0.000000
v 8.038059 0.691341 0.000000
v 8.000000 0.500000 -0.000000
v 8.038059 0.308659 -0.000000
v 8.146446 0.146446 -0.000000
v 8.308659 0.038061 -0.000000
v 8.500000 0.000000 0.000000
v 8.691341 0.038059 -0.000000
v 8.853554 0.146446 -0.000000
v 8.961941 0.308659 -0.000000
v 9.000000 0.500000 -0.000000
v 8.961941 0.691341 0.000000
v 8.853554 0.853554 0.000000
v 8.691341 0.961941 0.000000
v 8.691341 0.961941 -1.000000
v 8.853554 0.853554 -1.000000
v 8.961941 0.691341 -1.000000
v 9.000000 0.500000 -1.000000
v 8.961941 0.308659 -1.000000
v 8.853554 0.146446 -1.000000
v 8.691341 0.038059 -1.000000
v 8.500000 0.000000 -1.000000
v 8.308659 0.038061 -1.000000
v 8.146446 0.146446 -1.000000
v 8.038059 0.308659 -1.000000
v 8.000000 0.500000 -1.000000
v 8.038059 0.691341 -1.000000
v 8.146446 0.853554 -1.000000
v 8.308659 0.961939 -1.000000
v 8.500000 1.000000 -1.000000
v 0.691341 0.961941 -1.000000
v 0.853554 0.853554 -1.000000
v 0.961941 0.691341 -1.000000
v 1.000000 0.500000 -1.000000
v 0.961941 0.308659 -1.000000
v 0.853554 0.146446 -1.000000
v 0.691341 0.038059 -1.000000
v 0.500000 0.000000 -1.000000
v 0.308659 0.038061 -1.000000
v 0.146446 0.146446 -1.000000
v 0.038059 0.308659 -1.000000
v 0.000000 0.500000 -1.000000
v 0.038059 0.691341 -1.000000
v 0.146446 0.853554 -1.000000
v 0.308659 0.961939 -1.000000
v 0.500000 1.000000 -1.000000
vt 0.4102 0.0000
vt 0.4685 0.0000
vt 0.5223 0.0249
vt 0.5635 0.0709
vt 0.5858 0.1310
vt 0.5858 0.1960
vt 0.5635 0.2561
vt 0.5223 0.3020
vt 0.4685 0.3269
vt 0.4102 0.3269
vt 0.3564 0.3020
vt 0.3152 0.2561
vt 0.2929 0.1960
vt 0.2929 0.1309
vt 0.3152 0.0709
vt 0.3564 0.0249
vt 0.2929 0.5229
vt 0.2929 0.4579
vt 0.3152 0.3978
vt 0.3564 0.3518
vt 0.4102 0.3269
vt 0.4685 0.3269
vt 0.5223 0.3518
vt 0.5635 0.3978
vt 0.5858 0.4579
vt 0.5858 0.5229
vt 0.5635 0.5830
vt 0.5223 0.6290
vt 0.4685 0.6539
vt 0.4102 0.6539
vt 0.3564 0.6290
vt 0.3152 0.5830
vt 0.1756 0.0000
vt 0.2294 0.0249
vt 0.2706 0.0709
vt 0.2929 0.1309
vt 0.2929 0.1960
vt 0.2706 0.2561
vt 0.2294 0.3020
vt 0.1756 0.3269
vt 0.1173 0.3269
vt 0.0635 0.3020
vt 0.0223 0.2561
vt 0.0000 0.1960
vt 0.0000 0.1310
vt 0.0223 0.0709
vt 0.0635 0.0249
vt 0.1173 0.0000
vt 0.0000 0.4579
vt 0.0223 0.3978
vt 0.0635 0.3518
vt 0.1173 0.3269
vt 0.1756 0.3269
vt 0.2294 0.3518
vt 0.2706 0.3978
vt 0.2929 0.4579
vt 0.2929 0.5229
vt 0.2706 0.5830
vt 0.2294 0.6290
vt 0.1756 0.6539
vt 0.1173 0.6539
vt 0.0635 0.6290
vt 0.0223 0.5830
vt 0.0000 0.5229
vt 0.3730 0.6539
vt 0.3730 0.9872
vt 0.3192 0.9872
vt 0.3192 0.6539
vt 0.6979 1.0000
vt 0.6979 0.6667
vt 0.7517 0.6667
vt 0.7517 1.0000
vt 0.4142 0.6539
vt 0.4142 0.9872
vt 0.6396 1.0000
vt 0.6396 0.6667
vt 0.9588 0.3333
vt 0.9588 0.0000
vt 1.0000 0.0000
vt 1.0000 0.3333
vt 0.5858 1.0000
vt 0.5858 0.6667
vt 0.7391 0.3333
vt 0.7391 0.6667
vt 0.6808 0.6667
vt 0.6808 0.3333
vt 0.9050 0.3333
vt 0.9050 0.0000
vt 0.6270 0.3333
vt 0.6270 0.6667
vt 0.5858 0.3333
vt 0.7929 0.3333
vt 0.7929 0.6667
vt 0.8467 0.3333
vt 0.8467 0.0000
vt 0.8467 0.3333
vt 0.8467 0.6667
vt 0.7929 0.3333
vt 0.7929 0.0000
vt 0.0538 0.9872
vt 0.0538 0.6539
vt 0.1121 0.6539
vt 0.1121 0.9872
vt 0.9050 0.3333
vt 0.9050 0.6667
vt 0.1659 0.9872
vt 0.1659 0.6539
vt 0.2071 0.6539
vt 0.2071 0.9872
vt 0.0000 0.9872
vt 0.0000 0.6539
vt 0.9588 0.3333
vt 0.9588 0.6667
vt 0.9462 1.0000
vt 0.9462 0.6667
vt 1.0000 0.6667
vt 1.0000 1.0000
vt 1.0000 0.3333
vt 1.0000 0.6667
vt 0.8879 1.0000
vt 0.8879 0.6667
vt 0.6396 0.0000
vt 0.6396 0.3333
vt 0.5858 0.3333
vt 0.5858 0.0000
vt 0.8341 1.0000
vt 0.8341 0.6667
vt 0.6979 0.0000
vt 0.6979 0.3333
vt 0.7929 1.0000
vt 0.7929 0.6667
vt 0.7517 0.0000
vt 0.7517 0.3333
vt 0.2609 0.6539
vt 0.2609 0.9872
vt 0.2071 0.9872
vt 0.2071 0.6539
vt 0.7929 0.0000
vt 0.7929 0.3333
vt 0.7929 0.6667
vt 0.7929 1.0000
vn 0.0000 -0.0000 1.0000
vn 0.0000 0.0000 -1.0000
vn -0.3827 -0.9239 0.0000
vn -0.0000 -1.0000 0.0000
vn -1.0000 0.0000 0.0000
vn -0.9239 -0.3827 0.0000
vn -0.7071 -0.7071 0.0000
vn -0.9239 0.3827 0.0000
vn -0.7071 0.7071 0.0000
vn 0.3827 0.9239 0.0000
vn -0.0000 1.0000 0.0000
vn -0.3827 0.9239 0.0000
vn 0.7071 0.7071 0.0000
vn 0.9239 0.3827 0.0000
vn 1.0000 0.0000 0.0000
vn 0.9239 -0.3827 0.0000
vn 0.7071 -0.7071 0.0000
vn 0.3827 -0.9239 0.0000
usemtl None
s off
f 1/1/1 2/2/1 3/3/1 4/4/1 5/5/1 6/6/1 7/7/1 8/8/1 9/9/1 10/10/1 11/11/1 12/12/1 13/13/1 14/14/1 15/15/1 16/16/1
f 17/17/1 18/18/1 19/19/1 20/20/1 21/21/1 22/22/1 23/23/1 24/24/1 25/25/1 26/26/1 27/27/1 28/28/1 29/29/1 30/30/1 31/31/1 32/32/1
f 48/33/2 33/34/2 34/35/2 35/36/2 36/37/2 37/38/2 38/39/2 39/40/2 40/41/2 41/42/2 42/43/2 43/44/2 44/45/2 45/46/2 46/47/2 47/48/2
f 64/49/2 49/50/2 50/51/2 51/52/2 52/53/2 53/54/2 54/55/2 55/56/2 56/57/2 57/58/2 58/59/2 59/60/2 60/61/2 61/62/2 62/63/2 63/64/2
s 1
f 8/65/3 57/66/3 56/67/4 9/68/4
f 21/69/5 44/70/5 43/71/6 22/72/6
f 7/73/7 58/74/7 57/66/3 8/65/3
f 20/75/8 45/76/8 44/70/5 21/69/5
f 6/77/6 59/78/6 58/79/7 7/80/7
f 19/81/9 46/82/9 45/76/8 20/75/8
f 32/83/10 33/84/10 48/85/11 17/86/11
f 5/87/5 60/88/5 59/78/6 6/77/6
f 18/89/12 47/90/12 46/82/9 19/91/9
f 31/92/13 34/93/13 33/84/10 32/83/10
f 4/94/8 61/95/8 60/88/5 5/87/5
f 17/86/11 48/85/11 47/90/12 18/89/12
f 30/96/14 35/97/14 34/93/13 31/92/13
f 3/98/9 62/99/9 61/95/8 4/94/8
f 16/100/10 49/101/10 64/102/11 1/103/11
f 29/104/15 36/105/15 35/97/14 30/96/14
f 2/106/12 63/107/12 62/108/9 3/109/9
f 15/110/13 50/111/13 49/101/10 16/100/10
f 28/112/16 37/113/16 36/105/15 29/104/15
f 1/103/11 64/102/11 63/107/12 2/106/12
f 14/114/14 51/115/14 50/116/13 15/117/13
f 27/118/17 38/119/17 37/113/16 28/112/16
f 13/120/15 52/121/15 51/115/14 14/114/14
f 26/122/18 39/123/18 38/124/17 27/125/17
f 12/126/16 53/127/16 52/121/15 13/120/15
f 25/128/4 40/129/4 39/123/18 26/122/18
f 11/130/17 54/131/17 53/127/16 12/126/16
f 24/132/3 41/133/3 40/129/4 25/128/4
f 10/134/18 55/135/18 54/136/17 11/137/17
f 23/138/7 42/139/7 41/133/3 24/132/3
f 9/68/4 56/67/4 55/135/18 10/134/18
f 22/72/6 43/71/6 42/140/7 23/141/7
