# Blender v2.78 (sub 0) OBJ File: 'RollerCoasterRailRamp45.blend'
# www.blender.org
mtllib RollerCoasterRailRamp45.mtl
o Circle
v 0.308659 0.038059 -1.000000
v 0.500000 0.000000 -1.000000
v 0.500000 1.000000 -1.000000
v 0.308659 0.961937 -1.000000
v 0.146447 0.853554 -1.000000
v 0.038060 0.691341 -1.000000
v 0.000000 0.500000 -1.000000
v 0.961940 0.308659 -1.000000
v 1.000000 0.500000 -1.000000
v 0.961940 0.691341 -1.000000
v 0.853553 0.853554 -1.000000
v 0.038060 0.308659 -1.000000
v 0.146447 0.146446 -1.000000
v 0.691342 0.038059 -1.000000
v 0.853553 0.146446 -1.000000
v 0.691341 0.961941 -1.000000
v 0.691341 9.826641 -24.173359
v 0.853553 9.250000 -24.750000
v 0.691342 9.173359 -24.826641
v 0.146447 9.250000 -24.750000
v 0.038060 9.364702 -24.635298
v 0.853553 9.750000 -24.250000
v 0.961940 9.635300 -24.364700
v 1.000000 9.500000 -24.500000
v 0.961940 9.364702 -24.635298
v 0.000000 9.500000 -24.500000
v 0.038060 9.635300 -24.364700
v 0.146447 9.750000 -24.250000
v 0.308659 9.826639 -24.173361
v 0.500000 9.853554 -24.146446
v 0.500000 9.146446 -24.853554
v 0.308659 9.173359 -24.826641
v 0.500000 8.089583 -23.734713
v 0.499999 7.098972 -22.560955
v 0.499999 6.174449 -21.336309
v 0.499999 5.315725 -20.064693
v 0.499999 4.522499 -18.749998
v 0.499999 3.794453 -17.396080
v 0.499999 3.131271 -16.006781
v 0.499999 2.532634 -14.585917
v 0.499999 1.998228 -13.137288
v 0.499999 1.527742 -11.664673
v 0.500000 1.120875 -10.171841
v 0.500000 0.777334 -8.662545
v 0.500000 0.496836 -7.140533
v 0.500000 0.279109 -5.609543
v 0.500000 0.123892 -4.073305
v 0.500000 0.030935 -2.535547
v 0.691342 0.068963 -2.534015
v 0.691342 0.161828 -4.070243
v 0.691341 0.316890 -5.604949
v 0.691341 0.534399 -7.134403
v 0.691341 0.814612 -8.654870
v 0.691341 1.157799 -10.162611
v 0.691341 1.564239 -11.653873
v 0.691341 2.034218 -13.124905
v 0.691341 2.568035 -14.571938
v 0.691341 3.165991 -15.991187
v 0.691341 3.828397 -17.378862
v 0.691341 4.555563 -18.731146
v 0.691341 5.347801 -20.044203
v 0.691341 6.205420 -21.314180
v 0.691341 7.128716 -22.537201
v 0.691341 8.117970 -23.709360
v 0.853553 0.177262 -2.529653
v 0.853553 0.269863 -4.061523
v 0.853553 0.424485 -5.591868
v 0.853553 0.641371 -7.116948
v 0.853553 0.920773 -8.633017
v 0.853553 1.262951 -10.136327
v 0.853553 1.668172 -11.623123
v 0.853552 2.136711 -13.089647
v 0.853552 2.668847 -14.532128
v 0.853552 3.264867 -15.946789
v 0.853552 3.925063 -17.329838
v 0.853552 4.649724 -18.677465
v 0.853552 5.439146 -19.985861
v 0.853552 6.293615 -21.251181
v 0.853553 7.213414 -22.469574
v 0.853553 8.198814 -23.637165
v 0.961940 0.339343 -2.523124
v 0.961940 0.431550 -4.048473
v 0.961940 0.585512 -5.572292
v 0.961939 0.801466 -7.090824
v 0.961939 1.079654 -8.600307
v 0.961939 1.420322 -10.096991
v 0.961939 1.823719 -11.577102
v 0.961939 2.290101 -13.036880
v 0.961939 2.819723 -14.472552
v 0.961939 3.412846 -15.880341
v 0.961939 4.069733 -17.256464
v 0.961939 4.790647 -18.597130
v 0.961939 5.575850 -19.898540
v 0.961939 6.425609 -21.156891
v 0.961939 7.340176 -22.368359
v 0.961939 8.319804 -23.529118
v 1.000000 0.530529 -2.515423
v 1.000000 0.622271 -4.033081
v 1.000000 0.775454 -5.549200
v 1.000000 0.990309 -7.060007
v 1.000000 1.267065 -8.561728
v 1.000000 1.605951 -10.050591
v 0.999999 2.007198 -11.522818
v 0.999999 2.471035 -12.974638
v 0.999999 2.997691 -14.402277
v 0.999999 3.587396 -15.801962
v 0.999999 4.240380 -17.169918
v 0.999999 4.956873 -18.502367
v 0.999999 5.737103 -19.795542
v 0.999999 6.581302 -21.045666
v 0.999999 7.489697 -22.248968
v 1.000000 8.462522 -23.401669
v 0.961940 0.721716 -2.507721
v 0.961940 0.812992 -4.017687
v 0.961940 0.965398 -5.526107
v 0.961939 1.179153 -7.029191
v 0.961939 1.454477 -8.523147
v 0.961939 1.791582 -10.004189
v 0.961939 2.190678 -11.468531
v 0.961939 2.651970 -12.912394
v 0.961939 3.175661 -14.332001
v 0.961939 3.761949 -15.723579
v 0.961939 4.411030 -17.083366
v 0.961939 5.123102 -18.407602
v 0.961939 5.898359 -19.692543
v 0.961939 6.737000 -20.934444
v 0.961939 7.639223 -22.129574
v 0.961939 8.605240 -23.274218
v 0.853553 0.883797 -2.501192
v 0.853553 0.974679 -4.004638
v 0.853553 1.126424 -5.506531
v 0.853553 1.339247 -7.003067
v 0.853553 1.613357 -8.490439
v 0.853553 1.948952 -9.964853
v 0.853553 2.346224 -11.422510
v 0.853552 2.805359 -12.859629
v 0.853552 3.326535 -14.272425
v 0.853552 3.909926 -15.657133
v 0.853552 4.555699 -17.009995
v 0.853552 5.264023 -18.327269
v 0.853552 6.035063 -19.605227
v 0.853552 6.868990 -20.840153
v 0.853553 7.765983 -22.028360
v 0.853553 8.726228 -23.166172
v 0.691341 0.992096 -2.496830
v 0.691341 1.082715 -3.995918
v 0.691341 1.234019 -5.493451
v 0.691341 1.446220 -6.985611
v 0.691341 1.719518 -8.468585
v 0.691341 2.054104 -9.938569
v 0.691341 2.450158 -11.391760
v 0.691341 2.907852 -12.824371
v 0.691340 3.427348 -14.232617
v 0.691340 4.008802 -15.612735
v 0.691340 4.652365 -16.960972
v 0.691340 5.358184 -18.273590
v 0.691340 6.126407 -19.546883
v 0.691341 6.957186 -20.777151
v 0.691341 7.850682 -21.960730
v 0.691341 8.807073 -23.093981
v 0.500000 1.030124 -2.495298
v 0.500000 1.120650 -3.992856
v 0.500000 1.271800 -5.488857
v 0.500000 1.483782 -6.979481
v 0.500000 1.756795 -8.460912
v 0.499999 2.091027 -9.929340
v 0.499999 2.486653 -11.380963
v 0.499999 2.943841 -12.811991
v 0.499999 3.462747 -14.218639
v 0.499999 4.043521 -15.597145
v 0.499999 4.686309 -16.943756
v 0.499999 5.391249 -18.254742
v 0.499999 6.158482 -19.526394
v 0.499999 6.988156 -20.755032
v 0.499999 7.880424 -21.936985
v 0.500000 8.835461 -23.068628
v 0.308659 0.992092 -2.496830
v 0.308659 1.082711 -3.995918
v 0.308658 1.234015 -5.493451
v 0.308658 1.446216 -6.985611
v 0.308658 1.719514 -8.468587
v 0.308658 2.054101 -9.938571
v 0.308658 2.450154 -11.391762
v 0.308658 2.907848 -12.824372
v 0.308658 3.427344 -14.232619
v 0.308658 4.008799 -15.612738
v 0.308658 4.652362 -16.960974
v 0.308658 5.358181 -18.273594
v 0.308658 6.126405 -19.546886
v 0.308658 6.957184 -20.777157
v 0.308658 7.850680 -21.960735
v 0.308658 8.807072 -23.093981
v 0.146447 0.883797 -2.501192
v 0.146447 0.974679 -4.004637
v 0.146447 1.126424 -5.506531
v 0.146447 1.339247 -7.003066
v 0.146446 1.613357 -8.490439
v 0.146446 1.948952 -9.964853
v 0.146446 2.346224 -11.422510
v 0.146446 2.805359 -12.859627
v 0.146446 3.326535 -14.272425
v 0.146446 3.909925 -15.657133
v 0.146446 4.555699 -17.009995
v 0.146446 5.264022 -18.327269
v 0.146446 6.035063 -19.605225
v 0.146446 6.868990 -20.840151
v 0.146446 7.765982 -22.028358
v 0.146446 8.726228 -23.166170
v 0.038060 0.721716 -2.507721
v 0.038060 0.812992 -4.017687
v 0.038060 0.965398 -5.526108
v 0.038060 1.179153 -7.029191
v 0.038060 1.454477 -8.523148
v 0.038060 1.791582 -10.004190
v 0.038060 2.190678 -11.468533
v 0.038059 2.651970 -12.912395
v 0.038059 3.175661 -14.332003
v 0.038059 3.761949 -15.723581
v 0.038059 4.411031 -17.083368
v 0.038059 5.123102 -18.407604
v 0.038059 5.898360 -19.692543
v 0.038059 6.737000 -20.934444
v 0.038059 7.639224 -22.129578
v 0.038060 8.605241 -23.274220
v 0.000000 0.530529 -2.515422
v -0.000000 0.622271 -4.033080
v -0.000000 0.775454 -5.549200
v -0.000000 0.990309 -7.060007
v -0.000000 1.267065 -8.561728
v -0.000001 1.605951 -10.050591
v -0.000001 2.007198 -11.522818
v -0.000001 2.471035 -12.974638
v -0.000001 2.997691 -14.402277
v -0.000001 3.587397 -15.801963
v -0.000001 4.240381 -17.169918
v -0.000001 4.956873 -18.502367
v -0.000001 5.737104 -19.795544
v -0.000001 6.581303 -21.045668
v -0.000001 7.489698 -22.248970
v -0.000000 8.462523 -23.401670
v 0.038060 0.339343 -2.523124
v 0.038060 0.431550 -4.048473
v 0.038060 0.585512 -5.572292
v 0.038060 0.801466 -7.090823
v 0.038060 1.079654 -8.600308
v 0.038060 1.420322 -10.096991
v 0.038060 1.823719 -11.577103
v 0.038059 2.290101 -13.036880
v 0.038059 2.819723 -14.472553
v 0.038059 3.412846 -15.880341
v 0.038059 4.069733 -17.256466
v 0.038059 4.790647 -18.597130
v 0.038059 5.575851 -19.898542
v 0.038059 6.425608 -21.156891
v 0.038059 7.340177 -22.368359
v 0.038060 8.319806 -23.529118
v 0.146447 0.177262 -2.529652
v 0.146447 0.269863 -4.061522
v 0.146447 0.424485 -5.591868
v 0.146447 0.641371 -7.116947
v 0.146446 0.920773 -8.633015
v 0.146446 1.262951 -10.136326
v 0.146446 1.668172 -11.623121
v 0.146446 2.136711 -13.089646
v 0.146446 2.668847 -14.532127
v 0.146446 3.264867 -15.946786
v 0.146446 3.925062 -17.329834
v 0.146446 4.649724 -18.677464
v 0.146446 5.439145 -19.985859
v 0.146446 6.293614 -21.251177
v 0.146446 7.213414 -22.469572
v 0.146446 8.198814 -23.637163
v 0.308659 0.068963 -2.534015
v 0.308659 0.161828 -4.070242
v 0.308658 0.316890 -5.604949
v 0.308658 0.534399 -7.134404
v 0.308658 0.814612 -8.654870
v 0.308658 1.157799 -10.162610
v 0.308658 1.564238 -11.653873
v 0.308658 2.034218 -13.124905
v 0.308658 2.568035 -14.571936
v 0.308657 3.165991 -15.991186
v 0.308658 3.828396 -17.378860
v 0.308657 4.555563 -18.731142
v 0.308657 5.347801 -20.044203
v 0.308658 6.205420 -21.314180
v 0.308658 7.128716 -22.537203
v 0.308658 8.117970 -23.709356
v 0.691341 10.826641 -25.173359
v 0.500000 10.853554 -25.146446
v 0.853553 10.750000 -25.250000
v 0.853553 10.250000 -25.750000
v 0.961940 10.364702 -25.635298
v 0.691342 10.173359 -25.826641
v 0.500000 10.146446 -25.853554
v 0.146447 10.250000 -25.750000
v 0.308659 10.173359 -25.826641
v 0.038060 10.364702 -25.635298
v 0.000000 10.500000 -25.500000
v 0.961940 10.635300 -25.364700
v 1.000000 10.500000 -25.500000
v 0.038060 10.635300 -25.364700
v 0.146447 10.750000 -25.250000
v 0.308659 10.826639 -25.173361
v 0.308659 0.038059 0.000000
v 0.500000 0.000000 0.000000
v 0.500000 1.000000 0.000000
v 0.308659 0.961937 0.000000
v 0.146447 0.853554 0.000000
v 0.038060 0.691341 0.000000
v 0.000000 0.500000 0.000000
v 0.961940 0.308659 0.000000
v 1.000000 0.500000 0.000000
v 0.961940 0.691341 0.000000
v 0.853553 0.853554 0.000000
v 0.038060 0.308659 0.000000
v 0.146447 0.146446 0.000000
v 0.691342 0.038059 0.000000
v 0.853553 0.146446 0.000000
v 0.691341 0.961941 0.000000
v 8.308659 0.038059 -1.000000
v 8.500000 0.000000 -1.000000
v 8.500000 1.000000 -1.000000
v 8.308659 0.961937 -1.000000
v 8.146446 0.853554 -1.000000
v 8.038060 0.691341 -1.000000
v 8.000000 0.500000 -1.000000
v 8.961940 0.308659 -1.000000
v 9.000000 0.500000 -1.000000
v 8.961940 0.691341 -1.000000
v 8.853554 0.853554 -1.000000
v 8.038060 0.308659 -1.000000
v 8.146446 0.146446 -1.000000
v 8.691341 0.038059 -1.000000
v 8.853554 0.146446 -1.000000
v 8.691341 0.961941 -1.000000
v 8.691341 9.826641 -24.173359
v 8.853554 9.250000 -24.750000
v 8.691341 9.173359 -24.826641
v 8.146446 9.250000 -24.750000
v 8.038060 9.364702 -24.635298
v 8.853554 9.750000 -24.250000
v 8.961940 9.635300 -24.364700
v 9.000000 9.500000 -24.500000
v 8.961940 9.364702 -24.635298
v 8.000000 9.500000 -24.500000
v 8.038060 9.635300 -24.364700
v 8.146446 9.750000 -24.250000
v 8.308659 9.826639 -24.173361
v 8.500000 9.853554 -24.146446
v 8.500000 9.146446 -24.853554
v 8.308659 9.173359 -24.826641
v 8.500000 8.089583 -23.734713
v 8.499999 7.098972 -22.560955
v 8.499999 6.174449 -21.336309
v 8.499999 5.315725 -20.064693
v 8.499999 4.522499 -18.749998
v 8.499999 3.794453 -17.396080
v 8.499999 3.131271 -16.006781
v 8.499999 2.532634 -14.585917
v 8.499999 1.998228 -13.137288
v 8.499999 1.527742 -11.664673
v 8.500000 1.120875 -10.171841
v 8.500000 0.777334 -8.662545
v 8.500000 0.496836 -7.140533
v 8.500000 0.279109 -5.609543
v 8.500000 0.123892 -4.073305
v 8.500000 0.030935 -2.535547
v 8.691341 0.068963 -2.534015
v 8.691341 0.161828 -4.070243
v 8.691341 0.316890 -5.604949
v 8.691341 0.534399 -7.134403
v 8.691341 0.814612 -8.654870
v 8.691341 1.157799 -10.162611
v 8.691340 1.564239 -11.653873
v 8.691340 2.034218 -13.124905
v 8.691340 2.568035 -14.571938
v 8.691340 3.165991 -15.991187
v 8.691340 3.828397 -17.378862
v 8.691340 4.555563 -18.731146
v 8.691340 5.347801 -20.044203
v 8.691340 6.205420 -21.314180
v 8.691341 7.128716 -22.537201
v 8.691341 8.117970 -23.709360
v 8.853554 0.177262 -2.529653
v 8.853553 0.269863 -4.061523
v 8.853553 0.424485 -5.591868
v 8.853553 0.641371 -7.116948
v 8.853553 0.920773 -8.633017
v 8.853553 1.262951 -10.136327
v 8.853553 1.668172 -11.623123
v 8.853553 2.136711 -13.089647
v 8.853552 2.668847 -14.532128
v 8.853552 3.264867 -15.946789
v 8.853552 3.925063 -17.329838
v 8.853552 4.649724 -18.677465
v 8.853552 5.439146 -19.985861
v 8.853553 6.293615 -21.251181
v 8.853553 7.213414 -22.469574
v 8.853553 8.198814 -23.637165
v 8.961940 0.339343 -2.523124
v 8.961940 0.431550 -4.048473
v 8.961940 0.585512 -5.572292
v 8.961940 0.801466 -7.090824
v 8.961939 1.079654 -8.600307
v 8.961939 1.420322 -10.096991
v 8.961939 1.823719 -11.577102
v 8.961939 2.290101 -13.036880
v 8.961939 2.819723 -14.472552
v 8.961939 3.412846 -15.880341
v 8.961939 4.069733 -17.256464
v 8.961939 4.790647 -18.597130
v 8.961939 5.575850 -19.898540
v 8.961939 6.425609 -21.156891
v 8.961939 7.340176 -22.368359
v 8.961940 8.319804 -23.529118
v 9.000000 0.530529 -2.515423
v 9.000000 0.622271 -4.033081
v 9.000000 0.775454 -5.549200
v 9.000000 0.990309 -7.060007
v 9.000000 1.267065 -8.561728
v 9.000000 1.605951 -10.050591
v 8.999999 2.007198 -11.522818
v 8.999999 2.471035 -12.974638
v 8.999999 2.997691 -14.402277
v 8.999999 3.587396 -15.801962
v 8.999999 4.240380 -17.169918
v 8.999999 4.956873 -18.502367
v 8.999999 5.737103 -19.795542
v 8.999999 6.581302 -21.045666
v 8.999999 7.489697 -22.248968
v 9.000000 8.462522 -23.401669
v 8.961940 0.721716 -2.507721
v 8.961940 0.812992 -4.017687
v 8.961940 0.965398 -5.526107
v 8.961940 1.179153 -7.029191
v 8.961939 1.454477 -8.523147
v 8.961939 1.791582 -10.004189
v 8.961939 2.190678 -11.468531
v 8.961939 2.651970 -12.912394
v 8.961939 3.175661 -14.332001
v 8.961939 3.761949 -15.723579
v 8.961939 4.411030 -17.083366
v 8.961939 5.123102 -18.407602
v 8.961939 5.898359 -19.692543
v 8.961939 6.737000 -20.934444
v 8.961939 7.639223 -22.129574
v 8.961940 8.605240 -23.274218
v 8.853554 0.883797 -2.501192
v 8.853553 0.974679 -4.004638
v 8.853553 1.126424 -5.506531
v 8.853553 1.339247 -7.003067
v 8.853553 1.613357 -8.490439
v 8.853553 1.948952 -9.964853
v 8.853553 2.346224 -11.422510
v 8.853553 2.805359 -12.859629
v 8.853552 3.326535 -14.272425
v 8.853552 3.909926 -15.657133
v 8.853552 4.555699 -17.009995
v 8.853552 5.264023 -18.327269
v 8.853552 6.035063 -19.605227
v 8.853553 6.868990 -20.840153
v 8.853553 7.765983 -22.028360
v 8.853553 8.726228 -23.166172
v 8.691341 0.992096 -2.496830
v 8.691341 1.082715 -3.995918
v 8.691341 1.234019 -5.493451
v 8.691341 1.446220 -6.985611
v 8.691341 1.719518 -8.468585
v 8.691340 2.054104 -9.938569
v 8.691340 2.450158 -11.391760
v 8.691340 2.907852 -12.824371
v 8.691340 3.427348 -14.232617
v 8.691340 4.008802 -15.612735
v 8.691340 4.652365 -16.960972
v 8.691340 5.358184 -18.273590
v 8.691340 6.126407 -19.546883
v 8.691340 6.957186 -20.777151
v 8.691340 7.850682 -21.960730
v 8.691341 8.807073 -23.093981
v 8.500000 1.030124 -2.495298
v 8.500000 1.120650 -3.992856
v 8.500000 1.271800 -5.488857
v 8.500000 1.483782 -6.979481
v 8.500000 1.756795 -8.460912
v 8.499999 2.091027 -9.929340
v 8.499999 2.486653 -11.380963
v 8.499999 2.943841 -12.811991
v 8.499999 3.462747 -14.218639
v 8.499999 4.043521 -15.597145
v 8.499999 4.686309 -16.943756
v 8.499999 5.391249 -18.254742
v 8.499999 6.158482 -19.526394
v 8.499999 6.988156 -20.755032
v 8.499999 7.880424 -21.936985
v 8.500000 8.835461 -23.068628
v 8.308659 0.992092 -2.496830
v 8.308659 1.082711 -3.995918
v 8.308659 1.234015 -5.493451
v 8.308659 1.446216 -6.985611
v 8.308659 1.719514 -8.468587
v 8.308658 2.054101 -9.938571
v 8.308658 2.450154 -11.391762
v 8.308658 2.907848 -12.824372
v 8.308658 3.427344 -14.232619
v 8.308658 4.008799 -15.612738
v 8.308658 4.652362 -16.960974
v 8.308658 5.358181 -18.273594
v 8.308658 6.126405 -19.546886
v 8.308658 6.957184 -20.777157
v 8.308658 7.850680 -21.960735
v 8.308659 8.807072 -23.093981
v 8.146447 0.883797 -2.501192
v 8.146446 0.974679 -4.004637
v 8.146446 1.126424 -5.506531
v 8.146446 1.339247 -7.003066
v 8.146446 1.613357 -8.490439
v 8.146446 1.948952 -9.964853
v 8.146446 2.346224 -11.422510
v 8.146446 2.805359 -12.859627
v 8.146446 3.326535 -14.272425
v 8.146445 3.909925 -15.657133
v 8.146445 4.555699 -17.009995
v 8.146445 5.264022 -18.327269
v 8.146445 6.035063 -19.605225
v 8.146446 6.868990 -20.840151
v 8.146446 7.765982 -22.028358
v 8.146446 8.726228 -23.166170
v 8.038060 0.721716 -2.507721
v 8.038060 0.812992 -4.017687
v 8.038060 0.965398 -5.526108
v 8.038060 1.179153 -7.029191
v 8.038060 1.454477 -8.523148
v 8.038059 1.791582 -10.004190
v 8.038059 2.190678 -11.468533
v 8.038059 2.651970 -12.912395
v 8.038059 3.175661 -14.332003
v 8.038059 3.761949 -15.723581
v 8.038059 4.411031 -17.083368
v 8.038059 5.123102 -18.407604
v 8.038059 5.898360 -19.692543
v 8.038059 6.737000 -20.934444
v 8.038059 7.639224 -22.129578
v 8.038060 8.605241 -23.274220
v 8.000000 0.530529 -2.515422
v 8.000000 0.622271 -4.033080
v 8.000000 0.775454 -5.549200
v 8.000000 0.990309 -7.060007
v 8.000000 1.267065 -8.561728
v 8.000000 1.605951 -10.050591
v 8.000000 2.007198 -11.522818
v 7.999999 2.471035 -12.974638
v 7.999999 2.997691 -14.402277
v 7.999999 3.587397 -15.801963
v 7.999999 4.240381 -17.169918
v 7.999999 4.956873 -18.502367
v 7.999999 5.737104 -19.795544
v 7.999999 6.581303 -21.045668
v 7.999999 7.489698 -22.248970
v 8.000000 8.462523 -23.401670
v 8.038060 0.339343 -2.523124
v 8.038060 0.431550 -4.048473
v 8.038060 0.585512 -5.572292
v 8.038060 0.801466 -7.090823
v 8.038060 1.079654 -8.600308
v 8.038059 1.420322 -10.096991
v 8.038059 1.823719 -11.577103
v 8.038059 2.290101 -13.036880
v 8.038059 2.819723 -14.472553
v 8.038059 3.412846 -15.880341
v 8.038059 4.069733 -17.256466
v 8.038059 4.790647 -18.597130
v 8.038059 5.575851 -19.898542
v 8.038059 6.425608 -21.156891
v 8.038059 7.340177 -22.368359
v 8.038060 8.319806 -23.529118
v 8.146447 0.177262 -2.529652
v 8.146446 0.269863 -4.061522
v 8.146446 0.424485 -5.591868
v 8.146446 0.641371 -7.116947
v 8.146446 0.920773 -8.633015
v 8.146446 1.262951 -10.136326
v 8.146446 1.668172 -11.623121
v 8.146446 2.136711 -13.089646
v 8.146446 2.668847 -14.532127
v 8.146445 3.264867 -15.946786
v 8.146445 3.925062 -17.329834
v 8.146445 4.649724 -18.677464
v 8.146445 5.439145 -19.985859
v 8.146446 6.293614 -21.251177
v 8.146446 7.213414 -22.469572
v 8.146446 8.198814 -23.637163
v 8.308659 0.068963 -2.534015
v 8.308659 0.161828 -4.070242
v 8.308659 0.316890 -5.604949
v 8.308659 0.534399 -7.134404
v 8.308659 0.814612 -8.654870
v 8.308658 1.157799 -10.162610
v 8.308658 1.564238 -11.653873
v 8.308658 2.034218 -13.124905
v 8.308658 2.568035 -14.571936
v 8.308658 3.165991 -15.991186
v 8.308658 3.828396 -17.378860
v 8.308658 4.555563 -18.731142
v 8.308658 5.347801 -20.044203
v 8.308658 6.205420 -21.314180
v 8.308658 7.128716 -22.537203
v 8.308659 8.117970 -23.709356
v 8.691341 10.826641 -25.173359
v 8.500000 10.853554 -25.146446
v 8.853554 10.750000 -25.250000
v 8.853554 10.250000 -25.750000
v 8.961940 10.364702 -25.635298
v 8.691341 10.173359 -25.826641
v 8.500000 10.146446 -25.853554
v 8.146446 10.250000 -25.750000
v 8.308659 10.173359 -25.826641
v 8.038060 10.364702 -25.635298
v 8.000000 10.500000 -25.500000
v 8.961940 10.635300 -25.364700
v 9.000000 10.500000 -25.500000
v 8.038060 10.635300 -25.364700
v 8.146446 10.750000 -25.250000
v 8.308659 10.826639 -25.173361
v 8.308659 0.038059 0.000000
v 8.500000 0.000000 0.000000
v 8.500000 1.000000 0.000000
v 8.308659 0.961937 0.000000
v 8.146446 0.853554 0.000000
v 8.038060 0.691341 0.000000
v 8.000000 0.500000 0.000000
v 8.961940 0.308659 0.000000
v 9.000000 0.500000 0.000000
v 8.961940 0.691341 0.000000
v 8.853554 0.853554 0.000000
v 8.038060 0.308659 0.000000
v 8.146446 0.146446 0.000000
v 8.691341 0.038059 0.000000
v 8.853554 0.146446 0.000000
v 8.691341 0.961941 0.000000
vt 0.9438 0.1346
vt 0.9438 0.1423
vt 0.9469 0.1491
vt 0.9525 0.1540
vt 0.9599 0.1562
vt 0.9679 0.1555
vt 0.9752 0.1519
vt 0.9809 0.1459
vt 0.9839 0.1385
vt 0.9839 0.1309
vt 0.9809 0.1241
vt 0.9752 0.1192
vt 0.9679 0.1170
vt 0.9599 0.1177
vt 0.9525 0.1213
vt 0.9469 0.1273
vt 0.9438 0.1346
vt 0.9469 0.1273
vt 0.9525 0.1213
vt 0.9599 0.1177
vt 0.9679 0.1170
vt 0.9752 0.1192
vt 0.9809 0.1241
vt 0.9839 0.1309
vt 0.9839 0.1385
vt 0.9809 0.1459
vt 0.9752 0.1519
vt 0.9679 0.1555
vt 0.9599 0.1562
vt 0.9525 0.1540
vt 0.9469 0.1491
vt 0.9438 0.1423
vt 0.9438 0.1346
vt 0.9438 0.1423
vt 0.9469 0.1491
vt 0.9525 0.1540
vt 0.9599 0.1562
vt 0.9679 0.1555
vt 0.9752 0.1519
vt 0.9809 0.1459
vt 0.9839 0.1385
vt 0.9839 0.1309
vt 0.9809 0.1241
vt 0.9752 0.1192
vt 0.9679 0.1170
vt 0.9599 0.1177
vt 0.9525 0.1213
vt 0.9469 0.1273
vt 0.9438 0.1346
vt 0.9469 0.1273
vt 0.9525 0.1213
vt 0.9599 0.1177
vt 0.9679 0.1170
vt 0.9752 0.1192
vt 0.9809 0.1241
vt 0.9839 0.1309
vt 0.9839 0.1385
vt 0.9809 0.1459
vt 0.9752 0.1519
vt 0.9679 0.1555
vt 0.9599 0.1562
vt 0.9525 0.1540
vt 0.9469 0.1491
vt 0.9438 0.1423
vt 0.9679 0.1170
vt 0.9679 0.1170
vt 0.9679 0.1170
vt 0.9752 0.1192
vt 0.9752 0.1192
vt 0.9752 0.1192
vt 0.9811 0.1455
vt 0.9811 0.1455
vt 0.9809 0.1459
vt 0.9809 0.1459
vt 0.9756 0.1515
vt 0.9756 0.1515
vt 0.9752 0.1519
vt 0.9752 0.1519
vt 0.9683 0.1553
vt 0.9683 0.1553
vt 0.9679 0.1555
vt 0.9679 0.1555
vt 0.9604 0.1562
vt 0.9604 0.1562
vt 0.9599 0.1562
vt 0.9599 0.1562
vt 0.9530 0.1541
vt 0.9530 0.1541
vt 0.9525 0.1540
vt 0.9525 0.1540
vt 0.9472 0.1494
vt 0.9472 0.1494
vt 0.9469 0.1491
vt 0.9469 0.1491
vt 0.9440 0.1427
vt 0.9440 0.1427
vt 0.9438 0.1423
vt 0.9438 0.1423
vt 0.9438 0.1351
vt 0.9438 0.1351
vt 0.9438 0.1346
vt 0.9438 0.1346
vt 0.9467 0.1277
vt 0.9467 0.1277
vt 0.9469 0.1273
vt 0.9469 0.1273
vt 0.9522 0.1217
vt 0.9522 0.1217
vt 0.9525 0.1213
vt 0.9525 0.1213
vt 0.9595 0.1179
vt 0.9595 0.1179
vt 0.9599 0.1177
vt 0.9599 0.1177
vt 0.9674 0.1170
vt 0.9674 0.1170
vt 0.9679 0.1170
vt 0.9679 0.1170
vt 0.9748 0.1191
vt 0.9748 0.1191
vt 0.9806 0.1238
vt 0.9806 0.1238
vt 0.9809 0.1241
vt 0.9809 0.1241
vt 0.9838 0.1305
vt 0.9838 0.1305
vt 0.9839 0.1309
vt 0.9839 0.1309
vt 0.9839 0.1381
vt 0.9839 0.1381
vt 0.9839 0.1385
vt 0.9839 0.1385
vt 0.9812 0.1450
vt 0.9812 0.1450
vt 0.9814 0.1446
vt 0.9814 0.1446
vt 0.9816 0.1442
vt 0.9816 0.1442
vt 0.9818 0.1437
vt 0.9818 0.1437
vt 0.9820 0.1433
vt 0.9820 0.1433
vt 0.9821 0.1429
vt 0.9821 0.1429
vt 0.9823 0.1424
vt 0.9823 0.1424
vt 0.9825 0.1420
vt 0.9825 0.1420
vt 0.9827 0.1416
vt 0.9827 0.1416
vt 0.9829 0.1411
vt 0.9829 0.1411
vt 0.9830 0.1407
vt 0.9830 0.1407
vt 0.9832 0.1403
vt 0.9832 0.1403
vt 0.9834 0.1398
vt 0.9834 0.1398
vt 0.9836 0.1394
vt 0.9836 0.1394
vt 0.9838 0.1390
vt 0.9838 0.1390
vt 0.9839 0.1385
vt 0.9839 0.1385
vt 0.9759 0.1512
vt 0.9759 0.1512
vt 0.9762 0.1508
vt 0.9762 0.1508
vt 0.9766 0.1505
vt 0.9766 0.1505
vt 0.9769 0.1501
vt 0.9769 0.1501
vt 0.9772 0.1498
vt 0.9772 0.1498
vt 0.9776 0.1494
vt 0.9776 0.1494
vt 0.9779 0.1491
vt 0.9779 0.1491
vt 0.9782 0.1487
vt 0.9782 0.1487
vt 0.9786 0.1484
vt 0.9786 0.1484
vt 0.9789 0.1480
vt 0.9789 0.1480
vt 0.9792 0.1477
vt 0.9792 0.1477
vt 0.9796 0.1473
vt 0.9796 0.1473
vt 0.9799 0.1470
vt 0.9799 0.1470
vt 0.9802 0.1466
vt 0.9802 0.1466
vt 0.9806 0.1463
vt 0.9806 0.1463
vt 0.9809 0.1459
vt 0.9809 0.1459
vt 0.9687 0.1550
vt 0.9687 0.1550
vt 0.9692 0.1548
vt 0.9692 0.1548
vt 0.9696 0.1546
vt 0.9696 0.1546
vt 0.9700 0.1544
vt 0.9700 0.1544
vt 0.9705 0.1542
vt 0.9705 0.1542
vt 0.9709 0.1540
vt 0.9709 0.1540
vt 0.9713 0.1538
vt 0.9713 0.1538
vt 0.9718 0.1536
vt 0.9718 0.1536
vt 0.9722 0.1533
vt 0.9722 0.1533
vt 0.9726 0.1531
vt 0.9726 0.1531
vt 0.9731 0.1529
vt 0.9731 0.1529
vt 0.9735 0.1527
vt 0.9735 0.1527
vt 0.9739 0.1525
vt 0.9739 0.1525
vt 0.9744 0.1523
vt 0.9744 0.1523
vt 0.9748 0.1521
vt 0.9748 0.1521
vt 0.9752 0.1519
vt 0.9752 0.1519
vt 0.9608 0.1561
vt 0.9608 0.1561
vt 0.9613 0.1561
vt 0.9613 0.1561
vt 0.9618 0.1560
vt 0.9618 0.1560
vt 0.9622 0.1560
vt 0.9622 0.1560
vt 0.9627 0.1560
vt 0.9627 0.1560
vt 0.9632 0.1559
vt 0.9632 0.1559
vt 0.9637 0.1559
vt 0.9637 0.1559
vt 0.9641 0.1558
vt 0.9641 0.1558
vt 0.9646 0.1558
vt 0.9646 0.1558
vt 0.9651 0.1557
vt 0.9651 0.1557
vt 0.9655 0.1557
vt 0.9655 0.1557
vt 0.9660 0.1556
vt 0.9660 0.1556
vt 0.9665 0.1556
vt 0.9665 0.1556
vt 0.9669 0.1556
vt 0.9669 0.1556
vt 0.9674 0.1555
vt 0.9674 0.1555
vt 0.9679 0.1555
vt 0.9679 0.1555
vt 0.9534 0.1542
vt 0.9534 0.1542
vt 0.9538 0.1544
vt 0.9538 0.1544
vt 0.9543 0.1545
vt 0.9543 0.1545
vt 0.9547 0.1546
vt 0.9547 0.1546
vt 0.9551 0.1548
vt 0.9551 0.1548
vt 0.9556 0.1549
vt 0.9556 0.1549
vt 0.9560 0.1550
vt 0.9560 0.1550
vt 0.9564 0.1552
vt 0.9564 0.1552
vt 0.9569 0.1553
vt 0.9569 0.1553
vt 0.9573 0.1554
vt 0.9573 0.1554
vt 0.9577 0.1556
vt 0.9577 0.1556
vt 0.9582 0.1557
vt 0.9582 0.1557
vt 0.9586 0.1558
vt 0.9586 0.1558
vt 0.9590 0.1560
vt 0.9590 0.1560
vt 0.9595 0.1561
vt 0.9595 0.1561
vt 0.9599 0.1562
vt 0.9599 0.1562
vt 0.9476 0.1497
vt 0.9476 0.1497
vt 0.9479 0.1500
vt 0.9479 0.1500
vt 0.9482 0.1502
vt 0.9482 0.1502
vt 0.9486 0.1505
vt 0.9486 0.1505
vt 0.9489 0.1508
vt 0.9489 0.1508
vt 0.9492 0.1511
vt 0.9492 0.1511
vt 0.9495 0.1514
vt 0.9495 0.1514
vt 0.9499 0.1517
vt 0.9499 0.1517
vt 0.9502 0.1520
vt 0.9502 0.1520
vt 0.9505 0.1523
vt 0.9505 0.1523
vt 0.9509 0.1525
vt 0.9509 0.1525
vt 0.9512 0.1528
vt 0.9512 0.1528
vt 0.9515 0.1531
vt 0.9515 0.1531
vt 0.9519 0.1534
vt 0.9519 0.1534
vt 0.9522 0.1537
vt 0.9522 0.1537
vt 0.9525 0.1540
vt 0.9525 0.1540
vt 0.9442 0.1431
vt 0.9442 0.1431
vt 0.9444 0.1435
vt 0.9444 0.1435
vt 0.9446 0.1439
vt 0.9446 0.1439
vt 0.9447 0.1443
vt 0.9447 0.1443
vt 0.9449 0.1447
vt 0.9449 0.1447
vt 0.9451 0.1451
vt 0.9451 0.1451
vt 0.9453 0.1455
vt 0.9453 0.1455
vt 0.9455 0.1459
vt 0.9455 0.1459
vt 0.9456 0.1463
vt 0.9456 0.1463
vt 0.9458 0.1467
vt 0.9458 0.1467
vt 0.9460 0.1471
vt 0.9460 0.1471
vt 0.9462 0.1475
vt 0.9462 0.1475
vt 0.9464 0.1479
vt 0.9464 0.1479
vt 0.9465 0.1483
vt 0.9465 0.1483
vt 0.9467 0.1487
vt 0.9467 0.1487
vt 0.9469 0.1491
vt 0.9469 0.1491
vt 0.9438 0.1355
vt 0.9438 0.1355
vt 0.9438 0.1360
vt 0.9438 0.1360
vt 0.9438 0.1364
vt 0.9438 0.1364
vt 0.9438 0.1369
vt 0.9438 0.1369
vt 0.9438 0.1373
vt 0.9438 0.1373
vt 0.9438 0.1378
vt 0.9438 0.1378
vt 0.9438 0.1382
vt 0.9438 0.1382
vt 0.9438 0.1387
vt 0.9438 0.1387
vt 0.9438 0.1391
vt 0.9438 0.1391
vt 0.9438 0.1396
vt 0.9438 0.1396
vt 0.9438 0.1401
vt 0.9438 0.1401
vt 0.9438 0.1405
vt 0.9438 0.1405
vt 0.9438 0.1410
vt 0.9438 0.1410
vt 0.9438 0.1414
vt 0.9438 0.1414
vt 0.9438 0.1419
vt 0.9438 0.1419
vt 0.9438 0.1423
vt 0.9438 0.1423
vt 0.9465 0.1282
vt 0.9465 0.1282
vt 0.9464 0.1286
vt 0.9464 0.1286
vt 0.9462 0.1290
vt 0.9462 0.1290
vt 0.9460 0.1294
vt 0.9460 0.1294
vt 0.9458 0.1299
vt 0.9458 0.1299
vt 0.9456 0.1303
vt 0.9456 0.1303
vt 0.9455 0.1307
vt 0.9455 0.1307
vt 0.9453 0.1312
vt 0.9453 0.1312
vt 0.9451 0.1316
vt 0.9451 0.1316
vt 0.9449 0.1320
vt 0.9449 0.1320
vt 0.9447 0.1325
vt 0.9447 0.1325
vt 0.9446 0.1329
vt 0.9446 0.1329
vt 0.9444 0.1333
vt 0.9444 0.1333
vt 0.9442 0.1338
vt 0.9442 0.1338
vt 0.9440 0.1342
vt 0.9440 0.1342
vt 0.9438 0.1346
vt 0.9438 0.1346
vt 0.9519 0.1220
vt 0.9519 0.1220
vt 0.9515 0.1224
vt 0.9515 0.1224
vt 0.9512 0.1227
vt 0.9512 0.1227
vt 0.9509 0.1231
vt 0.9509 0.1231
vt 0.9505 0.1234
vt 0.9505 0.1234
vt 0.9502 0.1238
vt 0.9502 0.1238
vt 0.9499 0.1241
vt 0.9499 0.1241
vt 0.9495 0.1245
vt 0.9495 0.1245
vt 0.9492 0.1248
vt 0.9492 0.1248
vt 0.9489 0.1252
vt 0.9489 0.1252
vt 0.9486 0.1255
vt 0.9486 0.1255
vt 0.9482 0.1259
vt 0.9482 0.1259
vt 0.9479 0.1262
vt 0.9479 0.1262
vt 0.9476 0.1266
vt 0.9476 0.1266
vt 0.9472 0.1269
vt 0.9472 0.1269
vt 0.9469 0.1273
vt 0.9469 0.1273
vt 0.9590 0.1181
vt 0.9590 0.1181
vt 0.9586 0.1184
vt 0.9586 0.1184
vt 0.9582 0.1186
vt 0.9582 0.1186
vt 0.9577 0.1188
vt 0.9577 0.1188
vt 0.9573 0.1190
vt 0.9573 0.1190
vt 0.9569 0.1192
vt 0.9569 0.1192
vt 0.9564 0.1194
vt 0.9564 0.1194
vt 0.9560 0.1196
vt 0.9560 0.1196
vt 0.9556 0.1199
vt 0.9556 0.1199
vt 0.9551 0.1201
vt 0.9551 0.1201
vt 0.9547 0.1203
vt 0.9547 0.1203
vt 0.9543 0.1205
vt 0.9543 0.1205
vt 0.9538 0.1207
vt 0.9538 0.1207
vt 0.9534 0.1209
vt 0.9534 0.1209
vt 0.9530 0.1211
vt 0.9530 0.1211
vt 0.9525 0.1213
vt 0.9525 0.1213
vt 0.9669 0.1171
vt 0.9669 0.1171
vt 0.9665 0.1171
vt 0.9665 0.1171
vt 0.9660 0.1172
vt 0.9660 0.1172
vt 0.9655 0.1172
vt 0.9655 0.1172
vt 0.9651 0.1172
vt 0.9651 0.1172
vt 0.9646 0.1173
vt 0.9646 0.1173
vt 0.9641 0.1173
vt 0.9641 0.1173
vt 0.9637 0.1174
vt 0.9637 0.1174
vt 0.9632 0.1174
vt 0.9632 0.1174
vt 0.9627 0.1175
vt 0.9627 0.1175
vt 0.9622 0.1175
vt 0.9622 0.1175
vt 0.9618 0.1175
vt 0.9618 0.1175
vt 0.9613 0.1176
vt 0.9613 0.1176
vt 0.9608 0.1176
vt 0.9608 0.1176
vt 0.9604 0.1177
vt 0.9604 0.1177
vt 0.9599 0.1177
vt 0.9599 0.1177
vt 0.9744 0.1190
vt 0.9744 0.1190
vt 0.9739 0.1188
vt 0.9739 0.1188
vt 0.9735 0.1187
vt 0.9735 0.1187
vt 0.9731 0.1186
vt 0.9731 0.1186
vt 0.9726 0.1184
vt 0.9726 0.1184
vt 0.9722 0.1183
vt 0.9722 0.1183
vt 0.9718 0.1182
vt 0.9718 0.1182
vt 0.9713 0.1180
vt 0.9713 0.1180
vt 0.9709 0.1179
vt 0.9709 0.1179
vt 0.9705 0.1178
vt 0.9705 0.1178
vt 0.9700 0.1176
vt 0.9700 0.1176
vt 0.9696 0.1175
vt 0.9696 0.1175
vt 0.9692 0.1174
vt 0.9692 0.1174
vt 0.9687 0.1172
vt 0.9687 0.1172
vt 0.9683 0.1171
vt 0.9683 0.1171
vt 0.9802 0.1235
vt 0.9802 0.1235
vt 0.9799 0.1232
vt 0.9799 0.1232
vt 0.9796 0.1230
vt 0.9796 0.1230
vt 0.9792 0.1227
vt 0.9792 0.1227
vt 0.9789 0.1224
vt 0.9789 0.1224
vt 0.9786 0.1221
vt 0.9786 0.1221
vt 0.9782 0.1218
vt 0.9782 0.1218
vt 0.9779 0.1215
vt 0.9779 0.1215
vt 0.9776 0.1212
vt 0.9776 0.1212
vt 0.9772 0.1209
vt 0.9772 0.1209
vt 0.9769 0.1207
vt 0.9769 0.1207
vt 0.9766 0.1204
vt 0.9766 0.1204
vt 0.9762 0.1201
vt 0.9762 0.1201
vt 0.9759 0.1198
vt 0.9759 0.1198
vt 0.9756 0.1195
vt 0.9756 0.1195
vt 0.9752 0.1192
vt 0.9752 0.1192
vt 0.9836 0.1301
vt 0.9836 0.1301
vt 0.9834 0.1297
vt 0.9834 0.1297
vt 0.9832 0.1293
vt 0.9832 0.1293
vt 0.9830 0.1289
vt 0.9830 0.1289
vt 0.9829 0.1285
vt 0.9829 0.1285
vt 0.9827 0.1281
vt 0.9827 0.1281
vt 0.9825 0.1277
vt 0.9825 0.1277
vt 0.9823 0.1273
vt 0.9823 0.1273
vt 0.9821 0.1269
vt 0.9821 0.1269
vt 0.9820 0.1265
vt 0.9820 0.1265
vt 0.9818 0.1261
vt 0.9818 0.1261
vt 0.9816 0.1257
vt 0.9816 0.1257
vt 0.9814 0.1253
vt 0.9814 0.1253
vt 0.9812 0.1249
vt 0.9812 0.1249
vt 0.9811 0.1245
vt 0.9811 0.1245
vt 0.9809 0.1241
vt 0.9809 0.1241
vt 0.9839 0.1376
vt 0.9839 0.1376
vt 0.9839 0.1372
vt 0.9839 0.1372
vt 0.9839 0.1367
vt 0.9839 0.1367
vt 0.9839 0.1363
vt 0.9839 0.1363
vt 0.9839 0.1358
vt 0.9839 0.1358
vt 0.9839 0.1354
vt 0.9839 0.1354
vt 0.9839 0.1349
vt 0.9839 0.1349
vt 0.9839 0.1345
vt 0.9839 0.1345
vt 0.9839 0.1340
vt 0.9839 0.1340
vt 0.9839 0.1336
vt 0.9839 0.1336
vt 0.9839 0.1331
vt 0.9839 0.1331
vt 0.9839 0.1327
vt 0.9839 0.1327
vt 0.9839 0.1322
vt 0.9839 0.1322
vt 0.9839 0.1318
vt 0.9839 0.1318
vt 0.9839 0.1313
vt 0.9839 0.1313
vt 0.9839 0.1309
vt 0.9839 0.1309
vt 0.9438 0.1346
vt 0.9839 0.1385
vt 0.9469 0.1491
vt 0.9438 0.1423
vt 0.9525 0.1540
vt 0.9679 0.1555
vt 0.9599 0.1562
vt 0.9752 0.1519
vt 0.9679 0.1170
vt 0.9809 0.1459
vt 0.9599 0.1177
vt 0.9839 0.1309
vt 0.9525 0.1213
vt 0.9809 0.1241
vt 0.9469 0.1273
vt 0.9438 0.1346
vt 0.9752 0.1192
vt 0.9469 0.1273
vt 0.9809 0.1241
vt 0.9525 0.1213
vt 0.9839 0.1385
vt 0.9599 0.1177
vt 0.9809 0.1459
vt 0.9679 0.1555
vt 0.9752 0.1519
vt 0.9599 0.1562
vt 0.9469 0.1491
vt 0.9525 0.1540
vt 0.9839 0.1309
vt 0.9438 0.1423
vt 0.9679 0.1170
vt 0.9679 0.1170
vt 0.9679 0.1170
vt 0.9752 0.1192
vt 0.9752 0.1192
vt 0.9752 0.1192
vt 0.9811 0.1455
vt 0.9811 0.1455
vt 0.9809 0.1459
vt 0.9809 0.1459
vt 0.9756 0.1515
vt 0.9756 0.1515
vt 0.9752 0.1519
vt 0.9752 0.1519
vt 0.9683 0.1553
vt 0.9683 0.1553
vt 0.9679 0.1555
vt 0.9679 0.1555
vt 0.9604 0.1562
vt 0.9604 0.1562
vt 0.9599 0.1562
vt 0.9599 0.1562
vt 0.9530 0.1541
vt 0.9530 0.1541
vt 0.9525 0.1540
vt 0.9525 0.1540
vt 0.9472 0.1494
vt 0.9472 0.1494
vt 0.9469 0.1491
vt 0.9469 0.1491
vt 0.9440 0.1427
vt 0.9440 0.1427
vt 0.9438 0.1423
vt 0.9438 0.1423
vt 0.9438 0.1351
vt 0.9438 0.1351
vt 0.9438 0.1346
vt 0.9438 0.1346
vt 0.9467 0.1277
vt 0.9467 0.1277
vt 0.9469 0.1273
vt 0.9469 0.1273
vt 0.9522 0.1217
vt 0.9522 0.1217
vt 0.9525 0.1213
vt 0.9525 0.1213
vt 0.9595 0.1179
vt 0.9595 0.1179
vt 0.9599 0.1177
vt 0.9599 0.1177
vt 0.9674 0.1170
vt 0.9674 0.1170
vt 0.9679 0.1170
vt 0.9679 0.1170
vt 0.9748 0.1191
vt 0.9748 0.1191
vt 0.9806 0.1238
vt 0.9806 0.1238
vt 0.9809 0.1241
vt 0.9809 0.1241
vt 0.9838 0.1305
vt 0.9838 0.1305
vt 0.9839 0.1309
vt 0.9839 0.1309
vt 0.9839 0.1381
vt 0.9839 0.1381
vt 0.9839 0.1385
vt 0.9839 0.1385
vt 0.9812 0.1450
vt 0.9812 0.1450
vt 0.9814 0.1446
vt 0.9814 0.1446
vt 0.9816 0.1442
vt 0.9816 0.1442
vt 0.9818 0.1437
vt 0.9818 0.1437
vt 0.9820 0.1433
vt 0.9820 0.1433
vt 0.9821 0.1429
vt 0.9821 0.1429
vt 0.9823 0.1424
vt 0.9823 0.1424
vt 0.9825 0.1420
vt 0.9825 0.1420
vt 0.9827 0.1416
vt 0.9827 0.1416
vt 0.9829 0.1411
vt 0.9829 0.1411
vt 0.9830 0.1407
vt 0.9830 0.1407
vt 0.9832 0.1403
vt 0.9832 0.1403
vt 0.9834 0.1398
vt 0.9834 0.1398
vt 0.9836 0.1394
vt 0.9836 0.1394
vt 0.9838 0.1390
vt 0.9838 0.1390
vt 0.9839 0.1385
vt 0.9839 0.1385
vt 0.9759 0.1512
vt 0.9759 0.1512
vt 0.9762 0.1508
vt 0.9762 0.1508
vt 0.9766 0.1505
vt 0.9766 0.1505
vt 0.9769 0.1501
vt 0.9769 0.1501
vt 0.9772 0.1498
vt 0.9772 0.1498
vt 0.9776 0.1494
vt 0.9776 0.1494
vt 0.9779 0.1491
vt 0.9779 0.1491
vt 0.9782 0.1487
vt 0.9782 0.1487
vt 0.9786 0.1484
vt 0.9786 0.1484
vt 0.9789 0.1480
vt 0.9789 0.1480
vt 0.9792 0.1477
vt 0.9792 0.1477
vt 0.9796 0.1473
vt 0.9796 0.1473
vt 0.9799 0.1470
vt 0.9799 0.1470
vt 0.9802 0.1466
vt 0.9802 0.1466
vt 0.9806 0.1463
vt 0.9806 0.1463
vt 0.9809 0.1459
vt 0.9809 0.1459
vt 0.9687 0.1550
vt 0.9687 0.1550
vt 0.9692 0.1548
vt 0.9692 0.1548
vt 0.9696 0.1546
vt 0.9696 0.1546
vt 0.9700 0.1544
vt 0.9700 0.1544
vt 0.9705 0.1542
vt 0.9705 0.1542
vt 0.9709 0.1540
vt 0.9709 0.1540
vt 0.9713 0.1538
vt 0.9713 0.1538
vt 0.9718 0.1536
vt 0.9718 0.1536
vt 0.9722 0.1533
vt 0.9722 0.1533
vt 0.9726 0.1531
vt 0.9726 0.1531
vt 0.9731 0.1529
vt 0.9731 0.1529
vt 0.9735 0.1527
vt 0.9735 0.1527
vt 0.9739 0.1525
vt 0.9739 0.1525
vt 0.9744 0.1523
vt 0.9744 0.1523
vt 0.9748 0.1521
vt 0.9748 0.1521
vt 0.9752 0.1519
vt 0.9752 0.1519
vt 0.9608 0.1561
vt 0.9608 0.1561
vt 0.9613 0.1561
vt 0.9613 0.1561
vt 0.9618 0.1560
vt 0.9618 0.1560
vt 0.9622 0.1560
vt 0.9622 0.1560
vt 0.9627 0.1560
vt 0.9627 0.1560
vt 0.9632 0.1559
vt 0.9632 0.1559
vt 0.9637 0.1559
vt 0.9637 0.1559
vt 0.9641 0.1558
vt 0.9641 0.1558
vt 0.9646 0.1558
vt 0.9646 0.1558
vt 0.9651 0.1557
vt 0.9651 0.1557
vt 0.9655 0.1557
vt 0.9655 0.1557
vt 0.9660 0.1556
vt 0.9660 0.1556
vt 0.9665 0.1556
vt 0.9665 0.1556
vt 0.9669 0.1556
vt 0.9669 0.1556
vt 0.9674 0.1555
vt 0.9674 0.1555
vt 0.9679 0.1555
vt 0.9679 0.1555
vt 0.9534 0.1542
vt 0.9534 0.1542
vt 0.9538 0.1544
vt 0.9538 0.1544
vt 0.9543 0.1545
vt 0.9543 0.1545
vt 0.9547 0.1546
vt 0.9547 0.1546
vt 0.9551 0.1548
vt 0.9551 0.1548
vt 0.9556 0.1549
vt 0.9556 0.1549
vt 0.9560 0.1550
vt 0.9560 0.1550
vt 0.9564 0.1552
vt 0.9564 0.1552
vt 0.9569 0.1553
vt 0.9569 0.1553
vt 0.9573 0.1554
vt 0.9573 0.1554
vt 0.9577 0.1556
vt 0.9577 0.1556
vt 0.9582 0.1557
vt 0.9582 0.1557
vt 0.9586 0.1558
vt 0.9586 0.1558
vt 0.9590 0.1560
vt 0.9590 0.1560
vt 0.9595 0.1561
vt 0.9595 0.1561
vt 0.9599 0.1562
vt 0.9599 0.1562
vt 0.9476 0.1497
vt 0.9476 0.1497
vt 0.9479 0.1500
vt 0.9479 0.1500
vt 0.9482 0.1502
vt 0.9482 0.1502
vt 0.9486 0.1505
vt 0.9486 0.1505
vt 0.9489 0.1508
vt 0.9489 0.1508
vt 0.9492 0.1511
vt 0.9492 0.1511
vt 0.9495 0.1514
vt 0.9495 0.1514
vt 0.9499 0.1517
vt 0.9499 0.1517
vt 0.9502 0.1520
vt 0.9502 0.1520
vt 0.9505 0.1523
vt 0.9505 0.1523
vt 0.9509 0.1525
vt 0.9509 0.1525
vt 0.9512 0.1528
vt 0.9512 0.1528
vt 0.9515 0.1531
vt 0.9515 0.1531
vt 0.9519 0.1534
vt 0.9519 0.1534
vt 0.9522 0.1537
vt 0.9522 0.1537
vt 0.9525 0.1540
vt 0.9525 0.1540
vt 0.9442 0.1431
vt 0.9442 0.1431
vt 0.9444 0.1435
vt 0.9444 0.1435
vt 0.9446 0.1439
vt 0.9446 0.1439
vt 0.9447 0.1443
vt 0.9447 0.1443
vt 0.9449 0.1447
vt 0.9449 0.1447
vt 0.9451 0.1451
vt 0.9451 0.1451
vt 0.9453 0.1455
vt 0.9453 0.1455
vt 0.9455 0.1459
vt 0.9455 0.1459
vt 0.9456 0.1463
vt 0.9456 0.1463
vt 0.9458 0.1467
vt 0.9458 0.1467
vt 0.9460 0.1471
vt 0.9460 0.1471
vt 0.9462 0.1475
vt 0.9462 0.1475
vt 0.9464 0.1479
vt 0.9464 0.1479
vt 0.9465 0.1483
vt 0.9465 0.1483
vt 0.9467 0.1487
vt 0.9467 0.1487
vt 0.9469 0.1491
vt 0.9469 0.1491
vt 0.9438 0.1355
vt 0.9438 0.1355
vt 0.9438 0.1360
vt 0.9438 0.1360
vt 0.9438 0.1364
vt 0.9438 0.1364
vt 0.9438 0.1369
vt 0.9438 0.1369
vt 0.9438 0.1373
vt 0.9438 0.1373
vt 0.9438 0.1378
vt 0.9438 0.1378
vt 0.9438 0.1382
vt 0.9438 0.1382
vt 0.9438 0.1387
vt 0.9438 0.1387
vt 0.9438 0.1391
vt 0.9438 0.1391
vt 0.9438 0.1396
vt 0.9438 0.1396
vt 0.9438 0.1401
vt 0.9438 0.1401
vt 0.9438 0.1405
vt 0.9438 0.1405
vt 0.9438 0.1410
vt 0.9438 0.1410
vt 0.9438 0.1414
vt 0.9438 0.1414
vt 0.9438 0.1419
vt 0.9438 0.1419
vt 0.9438 0.1423
vt 0.9438 0.1423
vt 0.9465 0.1282
vt 0.9465 0.1282
vt 0.9464 0.1286
vt 0.9464 0.1286
vt 0.9462 0.1290
vt 0.9462 0.1290
vt 0.9460 0.1294
vt 0.9460 0.1294
vt 0.9458 0.1299
vt 0.9458 0.1299
vt 0.9456 0.1303
vt 0.9456 0.1303
vt 0.9455 0.1307
vt 0.9455 0.1307
vt 0.9453 0.1312
vt 0.9453 0.1312
vt 0.9451 0.1316
vt 0.9451 0.1316
vt 0.9449 0.1320
vt 0.9449 0.1320
vt 0.9447 0.1325
vt 0.9447 0.1325
vt 0.9446 0.1329
vt 0.9446 0.1329
vt 0.9444 0.1333
vt 0.9444 0.1333
vt 0.9442 0.1338
vt 0.9442 0.1338
vt 0.9440 0.1342
vt 0.9440 0.1342
vt 0.9438 0.1346
vt 0.9438 0.1346
vt 0.9519 0.1220
vt 0.9519 0.1220
vt 0.9515 0.1224
vt 0.9515 0.1224
vt 0.9512 0.1227
vt 0.9512 0.1227
vt 0.9509 0.1231
vt 0.9509 0.1231
vt 0.9505 0.1234
vt 0.9505 0.1234
vt 0.9502 0.1238
vt 0.9502 0.1238
vt 0.9499 0.1241
vt 0.9499 0.1241
vt 0.9495 0.1245
vt 0.9495 0.1245
vt 0.9492 0.1248
vt 0.9492 0.1248
vt 0.9489 0.1252
vt 0.9489 0.1252
vt 0.9486 0.1255
vt 0.9486 0.1255
vt 0.9482 0.1259
vt 0.9482 0.1259
vt 0.9479 0.1262
vt 0.9479 0.1262
vt 0.9476 0.1266
vt 0.9476 0.1266
vt 0.9472 0.1269
vt 0.9472 0.1269
vt 0.9469 0.1273
vt 0.9469 0.1273
vt 0.9590 0.1181
vt 0.9590 0.1181
vt 0.9586 0.1184
vt 0.9586 0.1184
vt 0.9582 0.1186
vt 0.9582 0.1186
vt 0.9577 0.1188
vt 0.9577 0.1188
vt 0.9573 0.1190
vt 0.9573 0.1190
vt 0.9569 0.1192
vt 0.9569 0.1192
vt 0.9564 0.1194
vt 0.9564 0.1194
vt 0.9560 0.1196
vt 0.9560 0.1196
vt 0.9556 0.1199
vt 0.9556 0.1199
vt 0.9551 0.1201
vt 0.9551 0.1201
vt 0.9547 0.1203
vt 0.9547 0.1203
vt 0.9543 0.1205
vt 0.9543 0.1205
vt 0.9538 0.1207
vt 0.9538 0.1207
vt 0.9534 0.1209
vt 0.9534 0.1209
vt 0.9530 0.1211
vt 0.9530 0.1211
vt 0.9525 0.1213
vt 0.9525 0.1213
vt 0.9669 0.1171
vt 0.9669 0.1171
vt 0.9665 0.1171
vt 0.9665 0.1171
vt 0.9660 0.1172
vt 0.9660 0.1172
vt 0.9655 0.1172
vt 0.9655 0.1172
vt 0.9651 0.1172
vt 0.9651 0.1172
vt 0.9646 0.1173
vt 0.9646 0.1173
vt 0.9641 0.1173
vt 0.9641 0.1173
vt 0.9637 0.1174
vt 0.9637 0.1174
vt 0.9632 0.1174
vt 0.9632 0.1174
vt 0.9627 0.1175
vt 0.9627 0.1175
vt 0.9622 0.1175
vt 0.9622 0.1175
vt 0.9618 0.1175
vt 0.9618 0.1175
vt 0.9613 0.1176
vt 0.9613 0.1176
vt 0.9608 0.1176
vt 0.9608 0.1176
vt 0.9604 0.1177
vt 0.9604 0.1177
vt 0.9599 0.1177
vt 0.9599 0.1177
vt 0.9744 0.1190
vt 0.9744 0.1190
vt 0.9739 0.1188
vt 0.9739 0.1188
vt 0.9735 0.1187
vt 0.9735 0.1187
vt 0.9731 0.1186
vt 0.9731 0.1186
vt 0.9726 0.1184
vt 0.9726 0.1184
vt 0.9722 0.1183
vt 0.9722 0.1183
vt 0.9718 0.1182
vt 0.9718 0.1182
vt 0.9713 0.1180
vt 0.9713 0.1180
vt 0.9709 0.1179
vt 0.9709 0.1179
vt 0.9705 0.1178
vt 0.9705 0.1178
vt 0.9700 0.1176
vt 0.9700 0.1176
vt 0.9696 0.1175
vt 0.9696 0.1175
vt 0.9692 0.1174
vt 0.9692 0.1174
vt 0.9687 0.1172
vt 0.9687 0.1172
vt 0.9683 0.1171
vt 0.9683 0.1171
vt 0.9802 0.1235
vt 0.9802 0.1235
vt 0.9799 0.1232
vt 0.9799 0.1232
vt 0.9796 0.1230
vt 0.9796 0.1230
vt 0.9792 0.1227
vt 0.9792 0.1227
vt 0.9789 0.1224
vt 0.9789 0.1224
vt 0.9786 0.1221
vt 0.9786 0.1221
vt 0.9782 0.1218
vt 0.9782 0.1218
vt 0.9779 0.1215
vt 0.9779 0.1215
vt 0.9776 0.1212
vt 0.9776 0.1212
vt 0.9772 0.1209
vt 0.9772 0.1209
vt 0.9769 0.1207
vt 0.9769 0.1207
vt 0.9766 0.1204
vt 0.9766 0.1204
vt 0.9762 0.1201
vt 0.9762 0.1201
vt 0.9759 0.1198
vt 0.9759 0.1198
vt 0.9756 0.1195
vt 0.9756 0.1195
vt 0.9752 0.1192
vt 0.9752 0.1192
vt 0.9836 0.1301
vt 0.9836 0.1301
vt 0.9834 0.1297
vt 0.9834 0.1297
vt 0.9832 0.1293
vt 0.9832 0.1293
vt 0.9830 0.1289
vt 0.9830 0.1289
vt 0.9829 0.1285
vt 0.9829 0.1285
vt 0.9827 0.1281
vt 0.9827 0.1281
vt 0.9825 0.1277
vt 0.9825 0.1277
vt 0.9823 0.1273
vt 0.9823 0.1273
vt 0.9821 0.1269
vt 0.9821 0.1269
vt 0.9820 0.1265
vt 0.9820 0.1265
vt 0.9818 0.1261
vt 0.9818 0.1261
vt 0.9816 0.1257
vt 0.9816 0.1257
vt 0.9814 0.1253
vt 0.9814 0.1253
vt 0.9812 0.1249
vt 0.9812 0.1249
vt 0.9811 0.1245
vt 0.9811 0.1245
vt 0.9809 0.1241
vt 0.9809 0.1241
vt 0.9839 0.1376
vt 0.9839 0.1376
vt 0.9839 0.1372
vt 0.9839 0.1372
vt 0.9839 0.1367
vt 0.9839 0.1367
vt 0.9839 0.1363
vt 0.9839 0.1363
vt 0.9839 0.1358
vt 0.9839 0.1358
vt 0.9839 0.1354
vt 0.9839 0.1354
vt 0.9839 0.1349
vt 0.9839 0.1349
vt 0.9839 0.1345
vt 0.9839 0.1345
vt 0.9839 0.1340
vt 0.9839 0.1340
vt 0.9839 0.1336
vt 0.9839 0.1336
vt 0.9839 0.1331
vt 0.9839 0.1331
vt 0.9839 0.1327
vt 0.9839 0.1327
vt 0.9839 0.1322
vt 0.9839 0.1322
vt 0.9839 0.1318
vt 0.9839 0.1318
vt 0.9839 0.1313
vt 0.9839 0.1313
vt 0.9839 0.1309
vt 0.9839 0.1309
vt 0.9438 0.1346
vt 0.9839 0.1385
vt 0.9469 0.1491
vt 0.9438 0.1423
vt 0.9525 0.1540
vt 0.9679 0.1555
vt 0.9599 0.1562
vt 0.9752 0.1519
vt 0.9679 0.1170
vt 0.9809 0.1459
vt 0.9599 0.1177
vt 0.9839 0.1309
vt 0.9525 0.1213
vt 0.9809 0.1241
vt 0.9469 0.1273
vt 0.9438 0.1346
vt 0.9752 0.1192
vt 0.9469 0.1273
vt 0.9809 0.1241
vt 0.9525 0.1213
vt 0.9839 0.1385
vt 0.9599 0.1177
vt 0.9809 0.1459
vt 0.9679 0.1555
vt 0.9752 0.1519
vt 0.9599 0.1562
vt 0.9469 0.1491
vt 0.9525 0.1540
vt 0.9839 0.1309
vt 0.9438 0.1423
vn 0.0000 0.7071 -0.7071
vn 0.0000 0.0000 1.0000
vn -1.0000 -0.0012 0.0000
vn -0.9234 -0.3837 -0.0038
vn -0.9239 -0.3827 0.0000
vn -1.0000 0.0000 0.0000
vn -1.0000 -0.0013 -0.0012
vn -0.9239 -0.2706 -0.2706
vn -0.9232 -0.2755 -0.2678
vn 0.3815 -0.6895 -0.6157
vn 0.0000 -0.7459 -0.6661
vn 0.0000 -0.7171 -0.6970
vn 0.3820 -0.6627 -0.6441
vn 0.7054 -0.5287 -0.4721
vn 0.7062 -0.5077 -0.4935
vn 0.9226 -0.2876 -0.2568
vn 0.9232 -0.2755 -0.2678
vn 1.0000 -0.0026 -0.0023
vn 1.0000 -0.0013 -0.0012
vn 0.9251 0.2832 0.2529
vn 0.9245 0.2733 0.2657
vn 0.7088 0.5261 0.4698
vn 0.7079 0.5065 0.4922
vn 0.3839 0.6887 0.6150
vn 0.3833 0.6623 0.6437
vn 0.0000 0.7459 0.6661
vn 0.0000 0.7171 0.6969
vn -0.3839 0.6887 0.6150
vn -0.3833 0.6623 0.6437
vn -0.7088 0.5261 0.4698
vn -0.7079 0.5065 0.4922
vn -0.9251 0.2832 0.2529
vn -0.9245 0.2733 0.2657
vn -1.0000 -0.0026 -0.0023
vn -0.9226 -0.2876 -0.2568
vn -0.7054 -0.5287 -0.4721
vn -0.7062 -0.5077 -0.4935
vn -0.3815 -0.6894 -0.6157
vn -0.3820 -0.6627 -0.6441
vn 0.3815 -0.7223 -0.5768
vn 0.0000 -0.7814 -0.6240
vn 0.3815 -0.7521 -0.5373
vn 0.0000 -0.8137 -0.5813
vn 0.3815 -0.7790 -0.4975
vn 0.0000 -0.8427 -0.5383
vn 0.3816 -0.8030 -0.4577
vn 0.0000 -0.8687 -0.4953
vn 0.3816 -0.8243 -0.4181
vn 0.0000 -0.8918 -0.4523
vn 0.3817 -0.8432 -0.3786
vn 0.0000 -0.9122 -0.4096
vn 0.3817 -0.8597 -0.3395
vn 0.0000 -0.9301 -0.3673
vn 0.3817 -0.8740 -0.3006
vn 0.0000 -0.9456 -0.3253
vn 0.3817 -0.8863 -0.2622
vn 0.0000 -0.9589 -0.2837
vn 0.3818 -0.8967 -0.2241
vn 0.0000 -0.9701 -0.2425
vn 0.3818 -0.9053 -0.1863
vn 0.0000 -0.9794 -0.2016
vn 0.3818 -0.9122 -0.1488
vn 0.0000 -0.9869 -0.1610
vn 0.3818 -0.9175 -0.1115
vn 0.0000 -0.9927 -0.1207
vn 0.3818 -0.9212 -0.0743
vn 0.0000 -0.9967 -0.0804
vn 0.0000 -0.9992 -0.0402
vn 0.3818 -0.9235 -0.0372
vn 0.0000 -0.9999 -0.0100
vn 0.3822 -0.9240 -0.0093
vn 0.7054 -0.5538 -0.4422
vn 0.7055 -0.5767 -0.4120
vn 0.7055 -0.5972 -0.3815
vn 0.7056 -0.6156 -0.3509
vn 0.7056 -0.6319 -0.3205
vn 0.7056 -0.6464 -0.2902
vn 0.7057 -0.6590 -0.2602
vn 0.7057 -0.6699 -0.2304
vn 0.7057 -0.6793 -0.2010
vn 0.7058 -0.6872 -0.1718
vn 0.7058 -0.6938 -0.1428
vn 0.7058 -0.6991 -0.1141
vn 0.7058 -0.7032 -0.0855
vn 0.7058 -0.7060 -0.0570
vn 0.7058 -0.7078 -0.0285
vn 0.7064 -0.7077 -0.0071
vn 0.9227 -0.3013 -0.2405
vn 0.9227 -0.3136 -0.2240
vn 0.9227 -0.3248 -0.2074
vn 0.9228 -0.3347 -0.1908
vn 0.9228 -0.3435 -0.1742
vn 0.9228 -0.3513 -0.1578
vn 0.9229 -0.3582 -0.1414
vn 0.9229 -0.3641 -0.1252
vn 0.9229 -0.3691 -0.1092
vn 0.9229 -0.3734 -0.0933
vn 0.9229 -0.3770 -0.0776
vn 0.9230 -0.3798 -0.0620
vn 0.9230 -0.3820 -0.0464
vn 0.9230 -0.3836 -0.0309
vn 0.9230 -0.3845 -0.0155
vn 0.9234 -0.3837 -0.0038
vn 1.0000 -0.0026 -0.0021
vn 1.0000 -0.0027 -0.0019
vn 1.0000 -0.0027 -0.0017
vn 1.0000 -0.0027 -0.0015
vn 1.0000 -0.0027 -0.0013
vn 1.0000 -0.0026 -0.0012
vn 1.0000 -0.0026 -0.0010
vn 1.0000 -0.0026 -0.0009
vn 1.0000 -0.0026 -0.0007
vn 1.0000 -0.0025 -0.0006
vn 1.0000 -0.0025 -0.0005
vn 1.0000 -0.0025 -0.0004
vn 1.0000 -0.0025 -0.0003
vn 1.0000 -0.0025 -0.0002
vn 1.0000 -0.0025 -0.0001
vn 1.0000 -0.0012 0.0000
vn 0.9250 0.2968 0.2370
vn 0.9250 0.3091 0.2208
vn 0.9250 0.3202 0.2045
vn 0.9250 0.3301 0.1882
vn 0.9249 0.3390 0.1719
vn 0.9249 0.3468 0.1557
vn 0.9249 0.3537 0.1397
vn 0.9248 0.3596 0.1237
vn 0.9248 0.3648 0.1079
vn 0.9248 0.3691 0.0922
vn 0.9248 0.3727 0.0767
vn 0.9248 0.3755 0.0613
vn 0.9247 0.3777 0.0459
vn 0.9247 0.3793 0.0306
vn 0.9247 0.3802 0.0153
vn 0.9243 0.3816 0.0038
vn 0.7088 0.5512 0.4401
vn 0.7087 0.5740 0.4100
vn 0.7087 0.5946 0.3798
vn 0.7086 0.6129 0.3494
vn 0.7086 0.6293 0.3191
vn 0.7085 0.6437 0.2890
vn 0.7085 0.6564 0.2592
vn 0.7085 0.6673 0.2296
vn 0.7084 0.6767 0.2002
vn 0.7084 0.6847 0.1711
vn 0.7084 0.6913 0.1423
vn 0.7084 0.6966 0.1137
vn 0.7084 0.7007 0.0852
vn 0.7083 0.7035 0.0568
vn 0.7083 0.7053 0.0284
vn 0.7077 0.7064 0.0071
vn 0.3839 0.7216 0.5761
vn 0.3838 0.7514 0.5367
vn 0.3838 0.7782 0.4971
vn 0.3838 0.8022 0.4573
vn 0.3837 0.8236 0.4177
vn 0.3837 0.8424 0.3782
vn 0.3837 0.8589 0.3392
vn 0.3836 0.8732 0.3004
vn 0.3836 0.8855 0.2620
vn 0.3836 0.8959 0.2239
vn 0.3836 0.9045 0.1862
vn 0.3836 0.9114 0.1487
vn 0.3836 0.9167 0.1114
vn 0.3836 0.9205 0.0743
vn 0.3836 0.9228 0.0371
vn 0.3831 0.9236 0.0093
vn 0.0000 0.7814 0.6240
vn 0.0000 0.8137 0.5813
vn 0.0000 0.8427 0.5383
vn 0.0000 0.8687 0.4952
vn 0.0000 0.8918 0.4523
vn 0.0000 0.9122 0.4096
vn 0.0000 0.9301 0.3673
vn 0.0000 0.9456 0.3253
vn 0.0000 0.9589 0.2837
vn 0.0000 0.9701 0.2425
vn 0.0000 0.9795 0.2016
vn 0.0000 0.9869 0.1610
vn 0.0000 0.9927 0.1207
vn 0.0000 0.9967 0.0804
vn 0.0000 0.9992 0.0402
vn 0.0000 0.9999 0.0101
vn -0.3839 0.7216 0.5761
vn -0.3838 0.7514 0.5367
vn -0.3838 0.7782 0.4971
vn -0.3838 0.8022 0.4573
vn -0.3837 0.8236 0.4177
vn -0.3837 0.8424 0.3782
vn -0.3837 0.8589 0.3392
vn -0.3836 0.8732 0.3004
vn -0.3836 0.8855 0.2620
vn -0.3836 0.8959 0.2239
vn -0.3836 0.9045 0.1862
vn -0.3836 0.9114 0.1487
vn -0.3836 0.9167 0.1114
vn -0.3836 0.9205 0.0743
vn -0.3836 0.9228 0.0371
vn -0.3831 0.9236 0.0093
vn -0.7088 0.5512 0.4401
vn -0.7087 0.5740 0.4100
vn -0.7087 0.5946 0.3798
vn -0.7086 0.6130 0.3494
vn -0.7086 0.6293 0.3191
vn -0.7085 0.6437 0.2890
vn -0.7085 0.6564 0.2592
vn -0.7085 0.6673 0.2296
vn -0.7084 0.6767 0.2002
vn -0.7084 0.6847 0.1711
vn -0.7084 0.6913 0.1423
vn -0.7084 0.6966 0.1137
vn -0.7083 0.7007 0.0852
vn -0.7083 0.7035 0.0568
vn -0.7083 0.7053 0.0284
vn -0.7077 0.7064 0.0071
vn -0.9250 0.2968 0.2370
vn -0.9250 0.3091 0.2208
vn -0.9250 0.3202 0.2045
vn -0.9250 0.3301 0.1882
vn -0.9249 0.3390 0.1719
vn -0.9249 0.3468 0.1557
vn -0.9249 0.3537 0.1397
vn -0.9248 0.3596 0.1237
vn -0.9248 0.3648 0.1079
vn -0.9248 0.3691 0.0922
vn -0.9248 0.3727 0.0767
vn -0.9248 0.3755 0.0613
vn -0.9247 0.3777 0.0459
vn -0.9247 0.3793 0.0306
vn -0.9247 0.3802 0.0153
vn -0.9243 0.3816 0.0038
vn -1.0000 -0.0026 -0.0021
vn -1.0000 -0.0027 -0.0019
vn -1.0000 -0.0027 -0.0017
vn -1.0000 -0.0027 -0.0015
vn -1.0000 -0.0027 -0.0013
vn -1.0000 -0.0026 -0.0012
vn -1.0000 -0.0026 -0.0010
vn -1.0000 -0.0026 -0.0009
vn -1.0000 -0.0026 -0.0007
vn -1.0000 -0.0025 -0.0006
vn -1.0000 -0.0025 -0.0005
vn -1.0000 -0.0025 -0.0004
vn -1.0000 -0.0025 -0.0003
vn -1.0000 -0.0025 -0.0002
vn -1.0000 -0.0025 -0.0001
vn -0.9227 -0.3013 -0.2405
vn -0.9227 -0.3136 -0.2240
vn -0.9227 -0.3248 -0.2074
vn -0.9228 -0.3347 -0.1908
vn -0.9228 -0.3435 -0.1742
vn -0.9228 -0.3513 -0.1578
vn -0.9229 -0.3582 -0.1414
vn -0.9229 -0.3641 -0.1252
vn -0.9229 -0.3691 -0.1092
vn -0.9229 -0.3734 -0.0933
vn -0.9229 -0.3770 -0.0776
vn -0.9230 -0.3798 -0.0620
vn -0.9230 -0.3820 -0.0464
vn -0.9230 -0.3836 -0.0309
vn -0.9230 -0.3845 -0.0155
vn -0.7054 -0.5538 -0.4422
vn -0.7055 -0.5767 -0.4120
vn -0.7055 -0.5972 -0.3815
vn -0.7056 -0.6156 -0.3509
vn -0.7056 -0.6319 -0.3205
vn -0.7056 -0.6464 -0.2902
vn -0.7057 -0.6590 -0.2602
vn -0.7057 -0.6699 -0.2304
vn -0.7057 -0.6793 -0.2010
vn -0.7058 -0.6872 -0.1718
vn -0.7058 -0.6938 -0.1428
vn -0.7058 -0.6991 -0.1141
vn -0.7058 -0.7032 -0.0855
vn -0.7058 -0.7060 -0.0570
vn -0.7058 -0.7078 -0.0285
vn -0.7064 -0.7077 -0.0071
vn -0.3815 -0.7223 -0.5768
vn -0.3815 -0.7521 -0.5373
vn -0.3815 -0.7790 -0.4975
vn -0.3816 -0.8030 -0.4577
vn -0.3816 -0.8243 -0.4181
vn -0.3817 -0.8432 -0.3786
vn -0.3817 -0.8597 -0.3395
vn -0.3817 -0.8740 -0.3006
vn -0.3817 -0.8863 -0.2622
vn -0.3818 -0.8967 -0.2241
vn -0.3818 -0.9053 -0.1863
vn -0.3818 -0.9122 -0.1488
vn -0.3818 -0.9175 -0.1115
vn -0.3818 -0.9212 -0.0743
vn -0.3818 -0.9235 -0.0372
vn -0.3822 -0.9240 -0.0093
vn 0.3827 0.6533 0.6533
vn -0.0000 0.7071 0.7071
vn -0.3827 -0.6533 -0.6533
vn -0.0000 -0.7071 -0.7071
vn 0.9239 0.2706 0.2706
vn 0.7071 0.5000 0.5000
vn 1.0000 -0.0000 -0.0000
vn 0.7071 -0.5000 -0.5000
vn 0.9239 -0.2706 -0.2706
vn 0.3827 -0.6533 -0.6533
vn -0.9239 0.2706 0.2706
vn -0.7071 0.5000 0.5000
vn -0.7071 -0.5000 -0.5000
vn -0.3827 0.6533 0.6533
vn -0.3827 0.9239 0.0000
vn -0.0000 1.0000 0.0000
vn -0.7071 -0.7071 0.0000
vn -0.7071 0.7071 0.0000
vn -0.3827 -0.9239 0.0000
vn -0.9239 0.3827 0.0000
vn 0.3827 -0.9239 0.0000
vn -0.0000 -1.0000 0.0000
vn 0.7071 -0.7071 0.0000
vn 0.9239 -0.3827 0.0000
vn 0.9239 0.3827 0.0000
vn 0.3827 0.9239 0.0000
vn 0.7071 0.7071 0.0000
vn -0.3815 -0.6895 -0.6157
vn 0.7058 -0.6793 -0.2010
vn 1.0000 -0.0013 0.0000
vn -0.9248 0.3726 0.0767
usemtl None
s off
f 290/1/1 289/2/1 291/3/1 300/4/1 301/5/1 293/6/1 292/7/1 294/8/1 295/9/1 297/10/1 296/11/1 298/12/1 299/13/1 302/14/1 303/15/1 304/16/1
f 307/17/2 308/18/2 309/19/2 310/20/2 311/21/2 316/22/2 317/23/2 305/24/2 306/25/2 318/26/2 319/27/2 312/28/2 313/29/2 314/30/2 315/31/2 320/32/2
f 610/33/1 609/34/1 611/35/1 620/36/1 621/37/1 613/38/1 612/39/1 614/40/1 615/41/1 617/42/1 616/43/1 618/44/1 619/45/1 622/46/1 623/47/1 624/48/1
f 627/49/2 628/50/2 629/51/2 630/52/2 631/53/2 636/54/2 637/55/2 625/56/2 626/57/2 638/58/2 639/59/2 632/60/2 633/61/2 634/62/2 635/63/2 640/64/2
s 1
f 7/65/3 12/66/4 316/67/5 311/21/6
f 26/68/7 299/69/6 298/12/8 21/70/9
f 64/71/10 33/72/11 31/73/12 19/74/13
f 80/75/14 64/76/10 19/77/13 18/78/15
f 96/79/16 80/80/14 18/81/15 25/82/17
f 112/83/18 96/84/16 25/85/17 24/86/19
f 128/87/20 112/88/18 24/89/19 23/90/21
f 144/91/22 128/92/20 23/93/21 22/94/23
f 160/95/24 144/96/22 22/97/23 17/98/25
f 176/99/26 160/100/24 17/101/25 30/102/27
f 192/103/28 176/104/26 30/105/27 29/106/29
f 208/107/30 192/108/28 29/109/29 28/110/31
f 224/111/32 208/112/30 28/113/31 27/114/33
f 240/115/34 224/116/32 27/117/33 26/118/7
f 256/119/35 240/120/34 26/68/7 21/70/9
f 272/121/36 256/122/35 21/123/9 20/124/37
f 288/125/38 272/126/36 20/127/37 32/128/39
f 33/129/11 288/130/38 32/131/39 31/132/12
f 63/133/40 34/134/41 33/72/11 64/71/10
f 62/135/42 35/136/43 34/134/41 63/133/40
f 61/137/44 36/138/45 35/136/43 62/135/42
f 60/139/46 37/140/47 36/138/45 61/137/44
f 59/141/48 38/142/49 37/140/47 60/139/46
f 58/143/50 39/144/51 38/142/49 59/141/48
f 57/145/52 40/146/53 39/144/51 58/143/50
f 56/147/54 41/148/55 40/146/53 57/145/52
f 55/149/56 42/150/57 41/148/55 56/147/54
f 54/151/58 43/152/59 42/150/57 55/149/56
f 53/153/60 44/154/61 43/152/59 54/151/58
f 52/155/62 45/156/63 44/154/61 53/153/60
f 51/157/64 46/158/65 45/156/63 52/155/62
f 50/159/66 47/160/67 46/158/65 51/157/64
f 48/161/68 47/160/67 50/159/66 49/162/69
f 2/163/70 48/161/68 49/162/69 14/164/71
f 79/165/72 63/166/40 64/76/10 80/75/14
f 78/167/73 62/168/42 63/166/40 79/165/72
f 77/169/74 61/170/44 62/168/42 78/167/73
f 76/171/75 60/172/46 61/170/44 77/169/74
f 75/173/76 59/174/48 60/172/46 76/171/75
f 74/175/77 58/176/50 59/174/48 75/173/76
f 73/177/78 57/178/52 58/176/50 74/175/77
f 72/179/79 56/180/54 57/178/52 73/177/78
f 71/181/80 55/182/56 56/180/54 72/179/79
f 70/183/81 54/184/58 55/182/56 71/181/80
f 69/185/82 53/186/60 54/184/58 70/183/81
f 68/187/83 52/188/62 53/186/60 69/185/82
f 67/189/84 51/190/64 52/188/62 68/187/83
f 66/191/85 50/192/66 51/190/64 67/189/84
f 49/193/69 50/192/66 66/191/85 65/194/86
f 14/195/71 49/193/69 65/194/86 15/196/87
f 95/197/88 79/198/72 80/80/14 96/79/16
f 94/199/89 78/200/73 79/198/72 95/197/88
f 93/201/90 77/202/74 78/200/73 94/199/89
f 92/203/91 76/204/75 77/202/74 93/201/90
f 91/205/92 75/206/76 76/204/75 92/203/91
f 90/207/93 74/208/77 75/206/76 91/205/92
f 89/209/94 73/210/78 74/208/77 90/207/93
f 88/211/95 72/212/79 73/210/78 89/209/94
f 87/213/96 71/214/80 72/212/79 88/211/95
f 86/215/97 70/216/81 71/214/80 87/213/96
f 85/217/98 69/218/82 70/216/81 86/215/97
f 84/219/99 68/220/83 69/218/82 85/217/98
f 83/221/100 67/222/84 68/220/83 84/219/99
f 82/223/101 66/224/85 67/222/84 83/221/100
f 65/225/86 66/224/85 82/223/101 81/226/102
f 15/227/87 65/225/86 81/226/102 8/228/103
f 111/229/104 95/230/88 96/84/16 112/83/18
f 110/231/105 94/232/89 95/230/88 111/229/104
f 109/233/106 93/234/90 94/232/89 110/231/105
f 108/235/107 92/236/91 93/234/90 109/233/106
f 107/237/108 91/238/92 92/236/91 108/235/107
f 106/239/109 90/240/93 91/238/92 107/237/108
f 105/241/110 89/242/94 90/240/93 106/239/109
f 104/243/111 88/244/95 89/242/94 105/241/110
f 103/245/112 87/246/96 88/244/95 104/243/111
f 102/247/113 86/248/97 87/246/96 103/245/112
f 101/249/114 85/250/98 86/248/97 102/247/113
f 100/251/115 84/252/99 85/250/98 101/249/114
f 99/253/116 83/254/100 84/252/99 100/251/115
f 98/255/117 82/256/101 83/254/100 99/253/116
f 81/257/102 82/256/101 98/255/117 97/258/118
f 8/259/103 81/257/102 97/258/118 9/260/119
f 127/261/120 111/262/104 112/88/18 128/87/20
f 126/263/121 110/264/105 111/262/104 127/261/120
f 125/265/122 109/266/106 110/264/105 126/263/121
f 124/267/123 108/268/107 109/266/106 125/265/122
f 123/269/124 107/270/108 108/268/107 124/267/123
f 122/271/125 106/272/109 107/270/108 123/269/124
f 121/273/126 105/274/110 106/272/109 122/271/125
f 120/275/127 104/276/111 105/274/110 121/273/126
f 119/277/128 103/278/112 104/276/111 120/275/127
f 118/279/129 102/280/113 103/278/112 119/277/128
f 117/281/130 101/282/114 102/280/113 118/279/129
f 116/283/131 100/284/115 101/282/114 117/281/130
f 115/285/132 99/286/116 100/284/115 116/283/131
f 114/287/133 98/288/117 99/286/116 115/285/132
f 97/289/118 98/288/117 114/287/133 113/290/134
f 9/291/119 97/289/118 113/290/134 10/292/135
f 143/293/136 127/294/120 128/92/20 144/91/22
f 142/295/137 126/296/121 127/294/120 143/293/136
f 141/297/138 125/298/122 126/296/121 142/295/137
f 140/299/139 124/300/123 125/298/122 141/297/138
f 139/301/140 123/302/124 124/300/123 140/299/139
f 138/303/141 122/304/125 123/302/124 139/301/140
f 137/305/142 121/306/126 122/304/125 138/303/141
f 136/307/143 120/308/127 121/306/126 137/305/142
f 135/309/144 119/310/128 120/308/127 136/307/143
f 134/311/145 118/312/129 119/310/128 135/309/144
f 133/313/146 117/314/130 118/312/129 134/311/145
f 132/315/147 116/316/131 117/314/130 133/313/146
f 131/317/148 115/318/132 116/316/131 132/315/147
f 130/319/149 114/320/133 115/318/132 131/317/148
f 113/321/134 114/320/133 130/319/149 129/322/150
f 10/323/135 113/321/134 129/322/150 11/324/151
f 159/325/152 143/326/136 144/96/22 160/95/24
f 158/327/153 142/328/137 143/326/136 159/325/152
f 157/329/154 141/330/138 142/328/137 158/327/153
f 156/331/155 140/332/139 141/330/138 157/329/154
f 155/333/156 139/334/140 140/332/139 156/331/155
f 154/335/157 138/336/141 139/334/140 155/333/156
f 153/337/158 137/338/142 138/336/141 154/335/157
f 152/339/159 136/340/143 137/338/142 153/337/158
f 151/341/160 135/342/144 136/340/143 152/339/159
f 150/343/161 134/344/145 135/342/144 151/341/160
f 149/345/162 133/346/146 134/344/145 150/343/161
f 148/347/163 132/348/147 133/346/146 149/345/162
f 147/349/164 131/350/148 132/348/147 148/347/163
f 146/351/165 130/352/149 131/350/148 147/349/164
f 129/353/150 130/352/149 146/351/165 145/354/166
f 11/355/151 129/353/150 145/354/166 16/356/167
f 175/357/168 159/358/152 160/100/24 176/99/26
f 174/359/169 158/360/153 159/358/152 175/357/168
f 173/361/170 157/362/154 158/360/153 174/359/169
f 172/363/171 156/364/155 157/362/154 173/361/170
f 171/365/172 155/366/156 156/364/155 172/363/171
f 170/367/173 154/368/157 155/366/156 171/365/172
f 169/369/174 153/370/158 154/368/157 170/367/173
f 168/371/175 152/372/159 153/370/158 169/369/174
f 167/373/176 151/374/160 152/372/159 168/371/175
f 166/375/177 150/376/161 151/374/160 167/373/176
f 165/377/178 149/378/162 150/376/161 166/375/177
f 164/379/179 148/380/163 149/378/162 165/377/178
f 163/381/180 147/382/164 148/380/163 164/379/179
f 162/383/181 146/384/165 147/382/164 163/381/180
f 145/385/166 146/384/165 162/383/181 161/386/182
f 16/387/167 145/385/166 161/386/182 3/388/183
f 191/389/184 175/390/168 176/104/26 192/103/28
f 190/391/185 174/392/169 175/390/168 191/389/184
f 189/393/186 173/394/170 174/392/169 190/391/185
f 188/395/187 172/396/171 173/394/170 189/393/186
f 187/397/188 171/398/172 172/396/171 188/395/187
f 186/399/189 170/400/173 171/398/172 187/397/188
f 185/401/190 169/402/174 170/400/173 186/399/189
f 184/403/191 168/404/175 169/402/174 185/401/190
f 183/405/192 167/406/176 168/404/175 184/403/191
f 182/407/193 166/408/177 167/406/176 183/405/192
f 181/409/194 165/410/178 166/408/177 182/407/193
f 180/411/195 164/412/179 165/410/178 181/409/194
f 179/413/196 163/414/180 164/412/179 180/411/195
f 178/415/197 162/416/181 163/414/180 179/413/196
f 161/417/182 162/416/181 178/415/197 177/418/198
f 3/419/183 161/417/182 177/418/198 4/420/199
f 207/421/200 191/422/184 192/108/28 208/107/30
f 206/423/201 190/424/185 191/422/184 207/421/200
f 205/425/202 189/426/186 190/424/185 206/423/201
f 204/427/203 188/428/187 189/426/186 205/425/202
f 203/429/204 187/430/188 188/428/187 204/427/203
f 202/431/205 186/432/189 187/430/188 203/429/204
f 201/433/206 185/434/190 186/432/189 202/431/205
f 200/435/207 184/436/191 185/434/190 201/433/206
f 199/437/208 183/438/192 184/436/191 200/435/207
f 198/439/209 182/440/193 183/438/192 199/437/208
f 197/441/210 181/442/194 182/440/193 198/439/209
f 196/443/211 180/444/195 181/442/194 197/441/210
f 195/445/212 179/446/196 180/444/195 196/443/211
f 194/447/213 178/448/197 179/446/196 195/445/212
f 177/449/198 178/448/197 194/447/213 193/450/214
f 4/451/199 177/449/198 193/450/214 5/452/215
f 223/453/216 207/454/200 208/112/30 224/111/32
f 222/455/217 206/456/201 207/454/200 223/453/216
f 221/457/218 205/458/202 206/456/201 222/455/217
f 220/459/219 204/460/203 205/458/202 221/457/218
f 219/461/220 203/462/204 204/460/203 220/459/219
f 218/463/221 202/464/205 203/462/204 219/461/220
f 217/465/222 201/466/206 202/464/205 218/463/221
f 216/467/223 200/468/207 201/466/206 217/465/222
f 215/469/224 199/470/208 200/468/207 216/467/223
f 214/471/225 198/472/209 199/470/208 215/469/224
f 213/473/226 197/474/210 198/472/209 214/471/225
f 212/475/227 196/476/211 197/474/210 213/473/226
f 211/477/228 195/478/212 196/476/211 212/475/227
f 210/479/229 194/480/213 195/478/212 211/477/228
f 193/481/214 194/480/213 210/479/229 209/482/230
f 5/483/215 193/481/214 209/482/230 6/484/231
f 239/485/232 223/486/216 224/116/32 240/115/34
f 238/487/233 222/488/217 223/486/216 239/485/232
f 237/489/234 221/490/218 222/488/217 238/487/233
f 236/491/235 220/492/219 221/490/218 237/489/234
f 235/493/236 219/494/220 220/492/219 236/491/235
f 234/495/237 218/496/221 219/494/220 235/493/236
f 233/497/238 217/498/222 218/496/221 234/495/237
f 232/499/239 216/500/223 217/498/222 233/497/238
f 231/501/240 215/502/224 216/500/223 232/499/239
f 230/503/241 214/504/225 215/502/224 231/501/240
f 229/505/242 213/506/226 214/504/225 230/503/241
f 228/507/243 212/508/227 213/506/226 229/505/242
f 227/509/244 211/510/228 212/508/227 228/507/243
f 226/511/245 210/512/229 211/510/228 227/509/244
f 209/513/230 210/512/229 226/511/245 225/514/246
f 6/515/231 209/513/230 225/514/246 7/516/3
f 255/517/247 239/518/232 240/120/34 256/119/35
f 254/519/248 238/520/233 239/518/232 255/517/247
f 253/521/249 237/522/234 238/520/233 254/519/248
f 252/523/250 236/524/235 237/522/234 253/521/249
f 251/525/251 235/526/236 236/524/235 252/523/250
f 250/527/252 234/528/237 235/526/236 251/525/251
f 249/529/253 233/530/238 234/528/237 250/527/252
f 248/531/254 232/532/239 233/530/238 249/529/253
f 247/533/255 231/534/240 232/532/239 248/531/254
f 246/535/256 230/536/241 231/534/240 247/533/255
f 245/537/257 229/538/242 230/536/241 246/535/256
f 244/539/258 228/540/243 229/538/242 245/537/257
f 243/541/259 227/542/244 228/540/243 244/539/258
f 242/543/260 226/544/245 227/542/244 243/541/259
f 225/545/246 226/544/245 242/543/260 241/546/261
f 7/65/3 225/545/246 241/546/261 12/66/4
f 271/547/262 255/548/247 256/122/35 272/121/36
f 270/549/263 254/550/248 255/548/247 271/547/262
f 269/551/264 253/552/249 254/550/248 270/549/263
f 268/553/265 252/554/250 253/552/249 269/551/264
f 267/555/266 251/556/251 252/554/250 268/553/265
f 266/557/267 250/558/252 251/556/251 267/555/266
f 265/559/268 249/560/253 250/558/252 266/557/267
f 264/561/269 248/562/254 249/560/253 265/559/268
f 263/563/270 247/564/255 248/562/254 264/561/269
f 262/565/271 246/566/256 247/564/255 263/563/270
f 261/567/272 245/568/257 246/566/256 262/565/271
f 260/569/273 244/570/258 245/568/257 261/567/272
f 259/571/274 243/572/259 244/570/258 260/569/273
f 258/573/275 242/574/260 243/572/259 259/571/274
f 241/575/261 242/574/260 258/573/275 257/576/276
f 12/577/4 241/575/261 257/576/276 13/578/277
f 287/579/278 271/580/262 272/126/36 288/125/38
f 286/581/279 270/582/263 271/580/262 287/579/278
f 285/583/280 269/584/264 270/582/263 286/581/279
f 284/585/281 268/586/265 269/584/264 285/583/280
f 283/587/282 267/588/266 268/586/265 284/585/281
f 282/589/283 266/590/267 267/588/266 283/587/282
f 281/591/284 265/592/268 266/590/267 282/589/283
f 280/593/285 264/594/269 265/592/268 281/591/284
f 279/595/286 263/596/270 264/594/269 280/593/285
f 278/597/287 262/598/271 263/596/270 279/595/286
f 277/599/288 261/600/272 262/598/271 278/597/287
f 276/601/289 260/602/273 261/600/272 277/599/288
f 275/603/290 259/604/274 260/602/273 276/601/289
f 274/605/291 258/606/275 259/604/274 275/603/290
f 257/607/276 258/606/275 274/605/291 273/608/292
f 13/609/277 257/607/276 273/608/292 1/610/293
f 34/611/41 287/612/278 288/130/38 33/129/11
f 35/613/43 286/614/279 287/612/278 34/611/41
f 36/615/45 285/616/280 286/614/279 35/613/43
f 37/617/47 284/618/281 285/616/280 36/615/45
f 38/619/49 283/620/282 284/618/281 37/617/47
f 39/621/51 282/622/283 283/620/282 38/619/49
f 40/623/53 281/624/284 282/622/283 39/621/51
f 41/625/55 280/626/285 281/624/284 40/623/53
f 42/627/57 279/628/286 280/626/285 41/625/55
f 43/629/59 278/630/287 279/628/286 42/627/57
f 44/631/61 277/632/288 278/630/287 43/629/59
f 45/633/63 276/634/289 277/632/288 44/631/61
f 46/635/65 275/636/290 276/634/289 45/633/63
f 47/637/67 274/638/291 275/636/290 46/635/65
f 273/639/292 274/638/291 47/637/67 48/640/68
f 1/641/293 273/639/292 48/640/68 2/642/70
f 17/101/25 289/643/294 290/1/295 30/102/27
f 32/131/39 297/644/296 295/9/297 31/132/12
f 23/93/21 300/645/298 291/3/299 22/94/23
f 22/97/23 291/646/299 289/2/294 17/98/25
f 24/89/19 301/647/300 300/4/298 23/90/21
f 18/81/15 292/648/301 293/6/302 25/82/17
f 25/85/17 293/649/302 301/5/300 24/86/19
f 19/77/13 294/650/303 292/7/301 18/78/15
f 27/117/33 302/651/304 299/13/6 26/118/7
f 31/73/12 295/652/297 294/8/303 19/74/13
f 28/113/31 303/653/305 302/14/304 27/114/33
f 20/127/37 296/654/306 297/10/296 32/128/39
f 29/109/29 304/655/307 303/15/305 28/110/31
f 21/123/9 298/656/8 296/11/306 20/124/37
f 30/105/27 290/657/295 304/16/307 29/106/29
f 3/419/183 4/420/199 308/658/308 307/17/309
f 12/577/4 13/578/277 317/659/310 316/22/5
f 4/451/199 5/452/215 309/660/311 308/18/308
f 13/609/277 1/610/293 305/661/312 317/23/310
f 5/483/215 6/484/231 310/662/313 309/19/311
f 2/163/70 14/164/71 318/663/314 306/25/315
f 6/515/231 7/516/3 311/664/6 310/20/313
f 14/195/71 15/196/87 319/665/316 318/26/314
f 8/259/103 9/260/119 313/666/300 312/28/317
f 15/227/87 8/228/103 312/667/317 319/27/316
f 9/291/119 10/292/135 314/668/318 313/29/300
f 11/355/151 16/356/167 320/669/319 315/31/320
f 10/323/135 11/324/151 315/670/320 314/30/318
f 1/641/293 2/642/70 306/671/315 305/24/312
f 16/387/167 3/388/183 307/672/309 320/32/319
f 327/673/3 332/674/4 636/675/5 631/53/6
f 346/676/7 619/677/6 618/44/8 341/678/9
f 384/679/10 353/680/11 351/681/12 339/682/13
f 400/683/14 384/684/10 339/685/13 338/686/15
f 416/687/16 400/688/14 338/689/15 345/690/17
f 432/691/18 416/692/16 345/693/17 344/694/19
f 448/695/20 432/696/18 344/697/19 343/698/21
f 464/699/22 448/700/20 343/701/21 342/702/23
f 480/703/24 464/704/22 342/705/23 337/706/25
f 496/707/26 480/708/24 337/709/25 350/710/27
f 512/711/28 496/712/26 350/713/27 349/714/29
f 528/715/30 512/716/28 349/717/29 348/718/31
f 544/719/32 528/720/30 348/721/31 347/722/33
f 560/723/34 544/724/32 347/725/33 346/726/7
f 576/727/35 560/728/34 346/676/7 341/678/9
f 592/729/36 576/730/35 341/731/9 340/732/37
f 608/733/321 592/734/36 340/735/37 352/736/39
f 353/737/11 608/738/321 352/739/39 351/740/12
f 383/741/40 354/742/41 353/680/11 384/679/10
f 382/743/42 355/744/43 354/742/41 383/741/40
f 381/745/44 356/746/45 355/744/43 382/743/42
f 380/747/46 357/748/47 356/746/45 381/745/44
f 379/749/48 358/750/49 357/748/47 380/747/46
f 378/751/50 359/752/51 358/750/49 379/749/48
f 377/753/52 360/754/53 359/752/51 378/751/50
f 376/755/54 361/756/55 360/754/53 377/753/52
f 375/757/56 362/758/57 361/756/55 376/755/54
f 374/759/58 363/760/59 362/758/57 375/757/56
f 373/761/60 364/762/61 363/760/59 374/759/58
f 372/763/62 365/764/63 364/762/61 373/761/60
f 371/765/64 366/766/65 365/764/63 372/763/62
f 370/767/66 367/768/67 366/766/65 371/765/64
f 368/769/68 367/768/67 370/767/66 369/770/69
f 322/771/70 368/769/68 369/770/69 334/772/71
f 399/773/72 383/774/40 384/684/10 400/683/14
f 398/775/73 382/776/42 383/774/40 399/773/72
f 397/777/74 381/778/44 382/776/42 398/775/73
f 396/779/75 380/780/46 381/778/44 397/777/74
f 395/781/76 379/782/48 380/780/46 396/779/75
f 394/783/77 378/784/50 379/782/48 395/781/76
f 393/785/78 377/786/52 378/784/50 394/783/77
f 392/787/79 376/788/54 377/786/52 393/785/78
f 391/789/322 375/790/56 376/788/54 392/787/79
f 390/791/81 374/792/58 375/790/56 391/789/322
f 389/793/82 373/794/60 374/792/58 390/791/81
f 388/795/83 372/796/62 373/794/60 389/793/82
f 387/797/84 371/798/64 372/796/62 388/795/83
f 386/799/85 370/800/66 371/798/64 387/797/84
f 369/801/69 370/800/66 386/799/85 385/802/86
f 334/803/71 369/801/69 385/802/86 335/804/87
f 415/805/88 399/806/72 400/688/14 416/687/16
f 414/807/89 398/808/73 399/806/72 415/805/88
f 413/809/90 397/810/74 398/808/73 414/807/89
f 412/811/91 396/812/75 397/810/74 413/809/90
f 411/813/92 395/814/76 396/812/75 412/811/91
f 410/815/93 394/816/77 395/814/76 411/813/92
f 409/817/94 393/818/78 394/816/77 410/815/93
f 408/819/95 392/820/79 393/818/78 409/817/94
f 407/821/96 391/822/322 392/820/79 408/819/95
f 406/823/97 390/824/81 391/822/322 407/821/96
f 405/825/98 389/826/82 390/824/81 406/823/97
f 404/827/99 388/828/83 389/826/82 405/825/98
f 403/829/100 387/830/84 388/828/83 404/827/99
f 402/831/101 386/832/85 387/830/84 403/829/100
f 385/833/86 386/832/85 402/831/101 401/834/102
f 335/835/87 385/833/86 401/834/102 328/836/103
f 431/837/104 415/838/88 416/692/16 432/691/18
f 430/839/105 414/840/89 415/838/88 431/837/104
f 429/841/106 413/842/90 414/840/89 430/839/105
f 428/843/107 412/844/91 413/842/90 429/841/106
f 427/845/108 411/846/92 412/844/91 428/843/107
f 426/847/109 410/848/93 411/846/92 427/845/108
f 425/849/110 409/850/94 410/848/93 426/847/109
f 424/851/111 408/852/95 409/850/94 425/849/110
f 423/853/112 407/854/96 408/852/95 424/851/111
f 422/855/113 406/856/97 407/854/96 423/853/112
f 421/857/114 405/858/98 406/856/97 422/855/113
f 420/859/115 404/860/99 405/858/98 421/857/114
f 419/861/116 403/862/100 404/860/99 420/859/115
f 418/863/117 402/864/101 403/862/100 419/861/116
f 401/865/102 402/864/101 418/863/117 417/866/118
f 328/867/103 401/865/102 417/866/118 329/868/323
f 447/869/120 431/870/104 432/696/18 448/695/20
f 446/871/121 430/872/105 431/870/104 447/869/120
f 445/873/122 429/874/106 430/872/105 446/871/121
f 444/875/123 428/876/107 429/874/106 445/873/122
f 443/877/124 427/878/108 428/876/107 444/875/123
f 442/879/125 426/880/109 427/878/108 443/877/124
f 441/881/126 425/882/110 426/880/109 442/879/125
f 440/883/127 424/884/111 425/882/110 441/881/126
f 439/885/128 423/886/112 424/884/111 440/883/127
f 438/887/129 422/888/113 423/886/112 439/885/128
f 437/889/130 421/890/114 422/888/113 438/887/129
f 436/891/131 420/892/115 421/890/114 437/889/130
f 435/893/132 419/894/116 420/892/115 436/891/131
f 434/895/133 418/896/117 419/894/116 435/893/132
f 417/897/118 418/896/117 434/895/133 433/898/134
f 329/899/323 417/897/118 433/898/134 330/900/135
f 463/901/136 447/902/120 448/700/20 464/699/22
f 462/903/137 446/904/121 447/902/120 463/901/136
f 461/905/138 445/906/122 446/904/121 462/903/137
f 460/907/139 444/908/123 445/906/122 461/905/138
f 459/909/140 443/910/124 444/908/123 460/907/139
f 458/911/141 442/912/125 443/910/124 459/909/140
f 457/913/142 441/914/126 442/912/125 458/911/141
f 456/915/143 440/916/127 441/914/126 457/913/142
f 455/917/144 439/918/128 440/916/127 456/915/143
f 454/919/145 438/920/129 439/918/128 455/917/144
f 453/921/146 437/922/130 438/920/129 454/919/145
f 452/923/147 436/924/131 437/922/130 453/921/146
f 451/925/148 435/926/132 436/924/131 452/923/147
f 450/927/149 434/928/133 435/926/132 451/925/148
f 433/929/134 434/928/133 450/927/149 449/930/150
f 330/931/135 433/929/134 449/930/150 331/932/151
f 479/933/152 463/934/136 464/704/22 480/703/24
f 478/935/153 462/936/137 463/934/136 479/933/152
f 477/937/154 461/938/138 462/936/137 478/935/153
f 476/939/155 460/940/139 461/938/138 477/937/154
f 475/941/156 459/942/140 460/940/139 476/939/155
f 474/943/157 458/944/141 459/942/140 475/941/156
f 473/945/158 457/946/142 458/944/141 474/943/157
f 472/947/159 456/948/143 457/946/142 473/945/158
f 471/949/160 455/950/144 456/948/143 472/947/159
f 470/951/161 454/952/145 455/950/144 471/949/160
f 469/953/162 453/954/146 454/952/145 470/951/161
f 468/955/163 452/956/147 453/954/146 469/953/162
f 467/957/164 451/958/148 452/956/147 468/955/163
f 466/959/165 450/960/149 451/958/148 467/957/164
f 449/961/150 450/960/149 466/959/165 465/962/166
f 331/963/151 449/961/150 465/962/166 336/964/167
f 495/965/168 479/966/152 480/708/24 496/707/26
f 494/967/169 478/968/153 479/966/152 495/965/168
f 493/969/170 477/970/154 478/968/153 494/967/169
f 492/971/171 476/972/155 477/970/154 493/969/170
f 491/973/172 475/974/156 476/972/155 492/971/171
f 490/975/173 474/976/157 475/974/156 491/973/172
f 489/977/174 473/978/158 474/976/157 490/975/173
f 488/979/175 472/980/159 473/978/158 489/977/174
f 487/981/176 471/982/160 472/980/159 488/979/175
f 486/983/177 470/984/161 471/982/160 487/981/176
f 485/985/178 469/986/162 470/984/161 486/983/177
f 484/987/179 468/988/163 469/986/162 485/985/178
f 483/989/180 467/990/164 468/988/163 484/987/179
f 482/991/181 466/992/165 467/990/164 483/989/180
f 465/993/166 466/992/165 482/991/181 481/994/182
f 336/995/167 465/993/166 481/994/182 323/996/183
f 511/997/184 495/998/168 496/712/26 512/711/28
f 510/999/185 494/1000/169 495/998/168 511/997/184
f 509/1001/186 493/1002/170 494/1000/169 510/999/185
f 508/1003/187 492/1004/171 493/1002/170 509/1001/186
f 507/1005/188 491/1006/172 492/1004/171 508/1003/187
f 506/1007/189 490/1008/173 491/1006/172 507/1005/188
f 505/1009/190 489/1010/174 490/1008/173 506/1007/189
f 504/1011/191 488/1012/175 489/1010/174 505/1009/190
f 503/1013/192 487/1014/176 488/1012/175 504/1011/191
f 502/1015/193 486/1016/177 487/1014/176 503/1013/192
f 501/1017/194 485/1018/178 486/1016/177 502/1015/193
f 500/1019/195 484/1020/179 485/1018/178 501/1017/194
f 499/1021/196 483/1022/180 484/1020/179 500/1019/195
f 498/1023/197 482/1024/181 483/1022/180 499/1021/196
f 481/1025/182 482/1024/181 498/1023/197 497/1026/198
f 323/1027/183 481/1025/182 497/1026/198 324/1028/199
f 527/1029/200 511/1030/184 512/716/28 528/715/30
f 526/1031/201 510/1032/185 511/1030/184 527/1029/200
f 525/1033/202 509/1034/186 510/1032/185 526/1031/201
f 524/1035/203 508/1036/187 509/1034/186 525/1033/202
f 523/1037/204 507/1038/188 508/1036/187 524/1035/203
f 522/1039/205 506/1040/189 507/1038/188 523/1037/204
f 521/1041/206 505/1042/190 506/1040/189 522/1039/205
f 520/1043/207 504/1044/191 505/1042/190 521/1041/206
f 519/1045/208 503/1046/192 504/1044/191 520/1043/207
f 518/1047/209 502/1048/193 503/1046/192 519/1045/208
f 517/1049/210 501/1050/194 502/1048/193 518/1047/209
f 516/1051/211 500/1052/195 501/1050/194 517/1049/210
f 515/1053/212 499/1054/196 500/1052/195 516/1051/211
f 514/1055/213 498/1056/197 499/1054/196 515/1053/212
f 497/1057/198 498/1056/197 514/1055/213 513/1058/214
f 324/1059/199 497/1057/198 513/1058/214 325/1060/215
f 543/1061/216 527/1062/200 528/720/30 544/719/32
f 542/1063/217 526/1064/201 527/1062/200 543/1061/216
f 541/1065/218 525/1066/202 526/1064/201 542/1063/217
f 540/1067/219 524/1068/203 525/1066/202 541/1065/218
f 539/1069/220 523/1070/204 524/1068/203 540/1067/219
f 538/1071/221 522/1072/205 523/1070/204 539/1069/220
f 537/1073/222 521/1074/206 522/1072/205 538/1071/221
f 536/1075/223 520/1076/207 521/1074/206 537/1073/222
f 535/1077/224 519/1078/208 520/1076/207 536/1075/223
f 534/1079/225 518/1080/209 519/1078/208 535/1077/224
f 533/1081/324 517/1082/210 518/1080/209 534/1079/225
f 532/1083/227 516/1084/211 517/1082/210 533/1081/324
f 531/1085/228 515/1086/212 516/1084/211 532/1083/227
f 530/1087/229 514/1088/213 515/1086/212 531/1085/228
f 513/1089/214 514/1088/213 530/1087/229 529/1090/230
f 325/1091/215 513/1089/214 529/1090/230 326/1092/231
f 559/1093/232 543/1094/216 544/724/32 560/723/34
f 558/1095/233 542/1096/217 543/1094/216 559/1093/232
f 557/1097/234 541/1098/218 542/1096/217 558/1095/233
f 556/1099/235 540/1100/219 541/1098/218 557/1097/234
f 555/1101/236 539/1102/220 540/1100/219 556/1099/235
f 554/1103/237 538/1104/221 539/1102/220 555/1101/236
f 553/1105/238 537/1106/222 538/1104/221 554/1103/237
f 552/1107/239 536/1108/223 537/1106/222 553/1105/238
f 551/1109/240 535/1110/224 536/1108/223 552/1107/239
f 550/1111/241 534/1112/225 535/1110/224 551/1109/240
f 549/1113/242 533/1114/324 534/1112/225 550/1111/241
f 548/1115/243 532/1116/227 533/1114/324 549/1113/242
f 547/1117/244 531/1118/228 532/1116/227 548/1115/243
f 546/1119/245 530/1120/229 531/1118/228 547/1117/244
f 529/1121/230 530/1120/229 546/1119/245 545/1122/246
f 326/1123/231 529/1121/230 545/1122/246 327/1124/3
f 575/1125/247 559/1126/232 560/728/34 576/727/35
f 574/1127/248 558/1128/233 559/1126/232 575/1125/247
f 573/1129/249 557/1130/234 558/1128/233 574/1127/248
f 572/1131/250 556/1132/235 557/1130/234 573/1129/249
f 571/1133/251 555/1134/236 556/1132/235 572/1131/250
f 570/1135/252 554/1136/237 555/1134/236 571/1133/251
f 569/1137/253 553/1138/238 554/1136/237 570/1135/252
f 568/1139/254 552/1140/239 553/1138/238 569/1137/253
f 567/1141/255 551/1142/240 552/1140/239 568/1139/254
f 566/1143/256 550/1144/241 551/1142/240 567/1141/255
f 565/1145/257 549/1146/242 550/1144/241 566/1143/256
f 564/1147/258 548/1148/243 549/1146/242 565/1145/257
f 563/1149/259 547/1150/244 548/1148/243 564/1147/258
f 562/1151/260 546/1152/245 547/1150/244 563/1149/259
f 545/1153/246 546/1152/245 562/1151/260 561/1154/261
f 327/673/3 545/1153/246 561/1154/261 332/674/4
f 591/1155/262 575/1156/247 576/730/35 592/729/36
f 590/1157/263 574/1158/248 575/1156/247 591/1155/262
f 589/1159/264 573/1160/249 574/1158/248 590/1157/263
f 588/1161/265 572/1162/250 573/1160/249 589/1159/264
f 587/1163/266 571/1164/251 572/1162/250 588/1161/265
f 586/1165/267 570/1166/252 571/1164/251 587/1163/266
f 585/1167/268 569/1168/253 570/1166/252 586/1165/267
f 584/1169/269 568/1170/254 569/1168/253 585/1167/268
f 583/1171/270 567/1172/255 568/1170/254 584/1169/269
f 582/1173/271 566/1174/256 567/1172/255 583/1171/270
f 581/1175/272 565/1176/257 566/1174/256 582/1173/271
f 580/1177/273 564/1178/258 565/1176/257 581/1175/272
f 579/1179/274 563/1180/259 564/1178/258 580/1177/273
f 578/1181/275 562/1182/260 563/1180/259 579/1179/274
f 561/1183/261 562/1182/260 578/1181/275 577/1184/276
f 332/1185/4 561/1183/261 577/1184/276 333/1186/277
f 607/1187/278 591/1188/262 592/734/36 608/733/321
f 606/1189/279 590/1190/263 591/1188/262 607/1187/278
f 605/1191/280 589/1192/264 590/1190/263 606/1189/279
f 604/1193/281 588/1194/265 589/1192/264 605/1191/280
f 603/1195/282 587/1196/266 588/1194/265 604/1193/281
f 602/1197/283 586/1198/267 587/1196/266 603/1195/282
f 601/1199/284 585/1200/268 586/1198/267 602/1197/283
f 600/1201/285 584/1202/269 585/1200/268 601/1199/284
f 599/1203/286 583/1204/270 584/1202/269 600/1201/285
f 598/1205/287 582/1206/271 583/1204/270 599/1203/286
f 597/1207/288 581/1208/272 582/1206/271 598/1205/287
f 596/1209/289 580/1210/273 581/1208/272 597/1207/288
f 595/1211/290 579/1212/274 580/1210/273 596/1209/289
f 594/1213/291 578/1214/275 579/1212/274 595/1211/290
f 577/1215/276 578/1214/275 594/1213/291 593/1216/292
f 333/1217/277 577/1215/276 593/1216/292 321/1218/293
f 354/1219/41 607/1220/278 608/738/321 353/737/11
f 355/1221/43 606/1222/279 607/1220/278 354/1219/41
f 356/1223/45 605/1224/280 606/1222/279 355/1221/43
f 357/1225/47 604/1226/281 605/1224/280 356/1223/45
f 358/1227/49 603/1228/282 604/1226/281 357/1225/47
f 359/1229/51 602/1230/283 603/1228/282 358/1227/49
f 360/1231/53 601/1232/284 602/1230/283 359/1229/51
f 361/1233/55 600/1234/285 601/1232/284 360/1231/53
f 362/1235/57 599/1236/286 600/1234/285 361/1233/55
f 363/1237/59 598/1238/287 599/1236/286 362/1235/57
f 364/1239/61 597/1240/288 598/1238/287 363/1237/59
f 365/1241/63 596/1242/289 597/1240/288 364/1239/61
f 366/1243/65 595/1244/290 596/1242/289 365/1241/63
f 367/1245/67 594/1246/291 595/1244/290 366/1243/65
f 593/1247/292 594/1246/291 367/1245/67 368/1248/68
f 321/1249/293 593/1247/292 368/1248/68 322/1250/70
f 337/709/25 609/1251/294 610/33/295 350/710/27
f 352/739/39 617/1252/296 615/41/297 351/740/12
f 343/701/21 620/1253/298 611/35/299 342/702/23
f 342/705/23 611/1254/299 609/34/294 337/706/25
f 344/697/19 621/1255/300 620/36/298 343/698/21
f 338/689/15 612/1256/301 613/38/302 345/690/17
f 345/693/17 613/1257/302 621/37/300 344/694/19
f 339/685/13 614/1258/303 612/39/301 338/686/15
f 347/725/33 622/1259/304 619/45/6 346/726/7
f 351/681/12 615/1260/297 614/40/303 339/682/13
f 348/721/31 623/1261/305 622/46/304 347/722/33
f 340/735/37 616/1262/306 617/42/296 352/736/39
f 349/717/29 624/1263/307 623/47/305 348/718/31
f 341/731/9 618/1264/8 616/43/306 340/732/37
f 350/713/27 610/1265/295 624/48/307 349/714/29
f 323/1027/183 324/1028/199 628/1266/308 627/49/309
f 332/1185/4 333/1186/277 637/1267/310 636/54/5
f 324/1059/199 325/1060/215 629/1268/311 628/50/308
f 333/1217/277 321/1218/293 625/1269/312 637/55/310
f 325/1091/215 326/1092/231 630/1270/313 629/51/311
f 322/771/70 334/772/71 638/1271/314 626/57/315
f 326/1123/231 327/1124/3 631/1272/6 630/52/313
f 334/803/71 335/804/87 639/1273/316 638/58/314
f 328/867/103 329/868/323 633/1274/300 632/60/317
f 335/835/87 328/836/103 632/1275/317 639/59/316
f 329/899/323 330/900/135 634/1276/318 633/61/300
f 331/963/151 336/964/167 640/1277/319 635/63/320
f 330/931/135 331/932/151 635/1278/320 634/62/318
f 321/1249/293 322/1250/70 626/1279/315 625/56/312
f 336/995/167 323/996/183 627/1280/309 640/64/319
