# Blender v2.78 (sub 0) OBJ File: 'RollerCoasterRail45Curve.blend'
# www.blender.org
mtllib RollerCoasterRail45Curve.mtl
o Circle
v 0.500000 1.000000 -1.000000
v 0.308659 0.961940 -1.000000
v 0.146446 0.853553 -1.000000
v 0.038059 0.691342 -1.000000
v 0.000000 0.500000 -1.000000
v 0.038059 0.308658 -1.000000
v 0.146446 0.146447 -1.000000
v 0.308659 0.038060 -1.000000
v 0.500000 0.000000 -1.000000
v 0.691341 0.038060 -1.000000
v 0.853554 0.146446 -1.000000
v 0.961941 0.308658 -1.000000
v 1.000000 0.500000 -1.000000
v 0.961941 0.691342 -1.000000
v 0.853554 0.853554 -1.000000
v 0.691341 0.961940 -1.000000
v 8.500000 1.000000 -1.000000
v 8.308659 0.961940 -1.000000
v 8.146446 0.853553 -1.000000
v 8.038059 0.691342 -1.000000
v 8.000000 0.500000 -1.000000
v 8.038059 0.308658 -1.000000
v 8.146446 0.146447 -1.000000
v 8.308659 0.038060 -1.000000
v 8.500000 0.000000 -1.000000
v 8.691341 0.038060 -1.000000
v 8.853554 0.146446 -1.000000
v 8.961941 0.308658 -1.000000
v 9.000000 0.500000 -1.000000
v 8.961941 0.691342 -1.000000
v 8.853554 0.853554 -1.000000
v 8.691341 0.961940 -1.000000
v 0.500000 1.000000 0.000000
v 0.308659 0.961940 0.000000
v 0.146446 0.853553 0.000000
v 0.038059 0.691342 0.000000
v 0.000000 0.500000 0.000000
v 0.038059 0.308658 0.000000
v 0.146446 0.146447 0.000000
v 0.308659 0.038060 0.000000
v 0.500000 -0.000000 0.000000
v 0.691341 0.038060 0.000000
v 0.853554 0.146446 0.000000
v 0.961941 0.308658 0.000000
v 1.000000 0.500000 0.000000
v 0.961941 0.691342 0.000000
v 0.853554 0.853554 0.000000
v 0.691341 0.961940 0.000000
v 8.500000 1.000000 0.000000
v 8.308659 0.961940 0.000000
v 8.146446 0.853553 0.000000
v 8.038059 0.691342 0.000000
v 8.000000 0.500000 0.000000
v 8.038059 0.308658 0.000000
v 8.146446 0.146447 0.000000
v 8.308659 0.038060 0.000000
v 8.500000 -0.000000 0.000000
v 8.691341 0.038060 0.000000
v 8.853554 0.146446 0.000000
v 8.961941 0.308658 0.000000
v 9.000000 0.500000 0.000000
v 8.961941 0.691342 0.000000
v 8.853554 0.853554 0.000000
v 8.691341 0.961940 0.000000
v 12.671572 1.000000 -29.328428
v 12.536274 0.961940 -29.463726
v 12.421572 0.853553 -29.578428
v 12.344931 0.691342 -29.655069
v 12.318020 0.500000 -29.681980
v 12.344931 0.308658 -29.655069
v 12.421572 0.146447 -29.578428
v 12.536274 0.038060 -29.463726
v 12.671572 0.000000 -29.328428
v 12.806871 0.038060 -29.193129
v 12.921574 0.146446 -29.078426
v 12.998215 0.308658 -29.001785
v 13.025126 0.500000 -28.974874
v 12.998215 0.691342 -29.001785
v 12.921574 0.853554 -29.078426
v 12.806871 0.961940 -29.193129
v 18.328426 1.000000 -23.671574
v 18.193129 0.961940 -23.806871
v 18.078426 0.853553 -23.921574
v 18.001785 0.691342 -23.998215
v 17.974873 0.500000 -24.025127
v 18.001785 0.308658 -23.998215
v 18.078426 0.146447 -23.921574
v 18.193129 0.038060 -23.806871
v 18.328426 0.000000 -23.671574
v 18.463726 0.038060 -23.536274
v 18.578426 0.146446 -23.421574
v 18.655067 0.308658 -23.344933
v 18.681980 0.500000 -23.318020
v 18.655067 0.691342 -23.344933
v 18.578426 0.853554 -23.421574
v 18.463726 0.961940 -23.536274
v 11.247814 0.961940 -28.116501
v 10.017941 0.961940 -26.710966
v 8.849152 0.961940 -25.250622
v 7.743961 0.961940 -23.738953
v 6.704872 0.961940 -22.179443
v 5.734386 0.961940 -20.575569
v 4.835022 0.961940 -18.930813
v 4.009293 0.961940 -17.248648
v 3.259727 0.961940 -15.532553
v 2.588837 0.961940 -13.786003
v 1.999161 0.961940 -12.012480
v 1.493229 0.961940 -10.215459
v 1.073574 0.961940 -8.398425
v 0.742748 0.961940 -6.564863
v 0.503284 0.961940 -4.718265
v 0.357735 0.961940 -2.862129
v 0.195751 0.853554 -2.870610
v 0.341942 0.853554 -4.735041
v 0.582451 0.853554 -6.589702
v 0.914688 0.853554 -8.431087
v 1.336090 0.853554 -10.255701
v 1.844090 0.853554 -12.060062
v 2.436127 0.853554 -13.840689
v 3.109650 0.853554 -15.594114
v 3.862129 0.853554 -17.316866
v 4.691017 0.853554 -19.005480
v 5.593803 0.853554 -20.656487
v 6.567947 0.853554 -22.266422
v 7.610962 0.853553 -23.831814
v 8.720329 0.853553 -25.349192
v 9.893551 0.853554 -26.815079
v 11.128136 0.853553 -28.225994
v 0.087513 0.691342 -2.876276
v 0.234142 0.691342 -4.746250
v 0.475342 0.691342 -6.606299
v 0.808517 0.691342 -8.452911
v 1.231094 0.691342 -10.282591
v 1.740471 0.691342 -12.091855
v 2.334084 0.691342 -13.877229
v 3.009377 0.691342 -15.635250
v 3.763794 0.691342 -17.362450
v 4.594799 0.691342 -19.055370
v 5.499863 0.691342 -20.710556
v 6.476471 0.691342 -22.324539
v 7.522095 0.691342 -23.893860
v 8.634251 0.691342 -25.415056
v 9.810438 0.691342 -26.884647
v 11.048170 0.691342 -28.299156
v 0.049503 0.500000 -2.878266
v 0.196285 0.500000 -4.750186
v 0.437729 0.500000 -6.612127
v 0.771240 0.500000 -8.460575
v 1.194221 0.500000 -10.292033
v 1.704082 0.500000 -12.103020
v 2.298252 0.500000 -13.890060
v 2.974159 0.500000 -15.649694
v 3.729263 0.500000 -17.378456
v 4.561012 0.500000 -19.072891
v 5.466873 0.500000 -20.729542
v 6.444336 0.500000 -22.344948
v 7.490891 0.500000 -23.915651
v 8.604023 0.500000 -25.438183
v 9.781254 0.500000 -26.909075
v 11.020088 0.500000 -28.324846
v 0.087509 0.308658 -2.876276
v 0.234138 0.308658 -4.746250
v 0.475342 0.308658 -6.606299
v 0.808517 0.308658 -8.452911
v 1.231094 0.308658 -10.282592
v 1.740471 0.308658 -12.091856
v 2.334084 0.308658 -13.877230
v 3.009373 0.308658 -15.635250
v 3.763794 0.308658 -17.362453
v 4.594795 0.308658 -19.055370
v 5.499859 0.308658 -20.710558
v 6.476463 0.308658 -22.324543
v 7.522087 0.308658 -23.893864
v 8.634247 0.308658 -25.415056
v 9.810432 0.308658 -26.884647
v 11.048168 0.308658 -28.299154
v 0.195747 0.146447 -2.870609
v 0.341942 0.146447 -4.735041
v 0.582443 0.146447 -6.589703
v 0.914688 0.146447 -8.431087
v 1.336090 0.146447 -10.255701
v 1.844086 0.146447 -12.060061
v 2.436123 0.146447 -13.840689
v 3.109650 0.146447 -15.594116
v 3.862125 0.146447 -17.316868
v 4.691017 0.146447 -19.005480
v 5.593800 0.146447 -20.656487
v 6.567955 0.146447 -22.266424
v 7.610958 0.146447 -23.831814
v 8.720325 0.146447 -25.349190
v 9.893551 0.146447 -26.815079
v 11.128136 0.146447 -28.225994
v 0.357742 0.038060 -2.862129
v 0.503288 0.038060 -4.718265
v 0.742752 0.038060 -6.564862
v 1.073578 0.038060 -8.398424
v 1.493233 0.038060 -10.215458
v 1.999168 0.038060 -12.012480
v 2.588844 0.038060 -13.786001
v 3.259727 0.038060 -15.532552
v 4.009300 0.038060 -17.248646
v 4.835026 0.038060 -18.930809
v 5.734390 0.038060 -20.575567
v 6.704872 0.038060 -22.179440
v 7.743965 0.038060 -23.738951
v 8.849159 0.038060 -25.250618
v 10.017944 0.038060 -26.710966
v 11.247818 0.038060 -28.116497
v 0.548817 -0.000000 -2.852126
v 0.693596 0.000000 -4.698476
v 0.931831 0.000000 -6.535563
v 1.260994 0.000000 -8.359898
v 1.678585 0.000000 -10.167990
v 2.182083 0.000000 -11.956353
v 2.768974 0.000000 -13.721497
v 3.436745 0.000000 -15.459936
v 4.182892 0.000000 -17.168179
v 5.004883 0.000000 -18.842735
v 5.900215 0.000000 -20.480120
v 6.866375 0.000000 -22.076843
v 7.900845 0.000000 -23.629417
v 9.001114 0.000000 -25.134350
v 10.164667 0.000000 -26.588158
v 11.388988 0.000000 -27.987347
v 0.739899 0.038060 -2.842123
v 0.883911 0.038060 -4.678687
v 1.120914 0.038060 -6.506263
v 1.448418 0.038060 -8.321369
v 1.863953 0.038060 -10.120520
v 2.365005 0.038060 -11.900226
v 2.949120 0.038060 -13.656988
v 3.613770 0.038060 -15.387318
v 4.356491 0.038060 -17.087706
v 5.174747 0.038060 -18.754656
v 6.066051 0.038060 -20.384670
v 7.027885 0.038060 -21.974243
v 8.057732 0.038060 -23.519876
v 9.153076 0.038060 -25.018078
v 10.311392 0.038060 -26.465343
v 11.530165 0.038060 -27.858189
v 0.901890 0.146447 -2.833641
v 1.045261 0.146447 -4.661911
v 1.281219 0.146447 -6.481423
v 1.607311 0.146447 -8.288706
v 2.021095 0.146447 -10.080276
v 2.520088 0.146447 -11.852642
v 3.101837 0.146447 -13.602303
v 3.763855 0.146447 -15.325754
v 4.503662 0.146447 -17.019484
v 5.318756 0.146447 -18.679985
v 6.206642 0.146447 -20.303745
v 7.164806 0.146447 -21.887260
v 8.190735 0.146447 -23.427013
v 9.281904 0.146447 -24.919498
v 10.435787 0.146447 -26.361227
v 11.649849 0.146447 -27.748692
v 1.010132 0.308658 -2.827975
v 1.153069 0.308658 -4.650701
v 1.388329 0.308658 -6.464825
v 1.713474 0.308658 -8.266882
v 2.126091 0.308658 -10.053387
v 2.623707 0.308658 -11.820848
v 3.203873 0.308658 -13.565762
v 3.864132 0.308658 -15.284618
v 4.601997 0.308658 -16.973900
v 5.414974 0.308658 -18.630093
v 6.300579 0.308658 -20.249680
v 7.256290 0.308658 -21.829140
v 8.279606 0.308658 -23.364964
v 9.367987 0.308658 -24.853640
v 10.518902 0.308658 -26.291660
v 11.729816 0.308658 -27.675529
v 1.048134 0.500000 -2.825985
v 1.190918 0.500000 -4.646765
v 1.425934 0.500000 -6.458997
v 1.750759 0.500000 -8.259218
v 2.162960 0.500000 -10.043945
v 2.660091 0.500000 -11.809685
v 3.239708 0.500000 -13.552931
v 3.899345 0.500000 -15.270175
v 4.636520 0.500000 -16.957897
v 5.448761 0.500000 -18.612576
v 6.333561 0.500000 -20.230694
v 7.288418 0.500000 -21.808735
v 8.310806 0.500000 -23.343178
v 9.398207 0.500000 -24.830513
v 10.548084 0.500000 -26.267235
v 11.757895 0.500000 -27.649841
v 1.010128 0.691342 -2.827975
v 1.153065 0.691342 -4.650701
v 1.388325 0.691342 -6.464826
v 1.713478 0.691342 -8.266880
v 2.126091 0.691342 -10.053387
v 2.623703 0.691342 -11.820848
v 3.203880 0.691342 -13.565762
v 3.864132 0.691342 -15.284616
v 4.601997 0.691342 -16.973902
v 5.414978 0.691342 -18.630093
v 6.300579 0.691342 -20.249678
v 7.256294 0.691342 -21.829140
v 8.279610 0.691342 -23.364960
v 9.367987 0.691342 -24.853636
v 10.518902 0.691342 -26.291656
v 11.729820 0.691342 -27.675526
v 0.901890 0.853554 -2.833642
v 1.045261 0.853554 -4.661910
v 1.281216 0.853554 -6.481422
v 1.607315 0.853554 -8.288706
v 2.021095 0.853554 -10.080276
v 2.520088 0.853554 -11.852642
v 3.101837 0.853554 -13.602303
v 3.763855 0.853554 -15.325750
v 4.503662 0.853554 -17.019482
v 5.318756 0.853554 -18.679985
v 6.206642 0.853554 -20.303745
v 7.164810 0.853554 -21.887257
v 8.190739 0.853554 -23.427011
v 9.281906 0.853554 -24.919502
v 10.435791 0.853554 -26.361225
v 11.649851 0.853554 -27.748688
v 0.739899 0.961940 -2.842122
v 0.883919 0.961940 -4.678687
v 1.120918 0.961940 -6.506262
v 1.448425 0.961940 -8.321368
v 1.863953 0.961940 -10.120520
v 2.365013 0.961940 -11.900225
v 2.949123 0.961940 -13.656988
v 3.613777 0.961940 -15.387316
v 4.356491 0.961940 -17.087704
v 5.174751 0.961940 -18.754654
v 6.066055 0.961940 -20.384666
v 7.027885 0.961940 -21.974239
v 8.057732 0.961940 -23.519875
v 9.153078 0.961940 -25.018076
v 10.311398 0.961940 -26.465343
v 11.530167 0.961940 -27.858185
v 0.548820 1.000000 -2.852126
v 0.693604 1.000000 -4.698476
v 0.931831 1.000000 -6.535563
v 1.260998 1.000000 -8.359897
v 1.678589 1.000000 -10.167990
v 2.182087 1.000000 -11.956352
v 2.768978 1.000000 -13.721497
v 3.436749 1.000000 -15.459934
v 4.182892 1.000000 -17.168179
v 5.004887 1.000000 -18.842735
v 5.900219 1.000000 -20.480120
v 6.866379 1.000000 -22.076843
v 7.900848 1.000000 -23.629414
v 9.001114 1.000000 -25.134350
v 10.164667 1.000000 -26.588156
v 11.388990 1.000000 -27.987345
v 17.158741 0.961941 -22.726395
v 16.169991 0.961941 -21.599724
v 15.229069 0.961942 -20.429588
v 14.338163 0.961942 -19.218697
v 13.499458 0.961942 -17.969759
v 12.715145 0.961942 -16.685478
v 11.987423 0.961942 -15.368561
v 11.318485 0.961942 -14.021712
v 10.710541 0.961942 -12.647636
v 10.165798 0.961941 -11.249036
v 9.686464 0.961941 -9.828619
v 9.274765 0.961941 -8.389093
v 8.932919 0.961941 -6.933173
v 8.663155 0.961940 -5.463572
v 8.467697 0.961940 -3.983013
v 8.348785 0.961940 -2.494229
v 8.186810 0.853554 -2.502867
v 8.306389 0.853554 -4.000092
v 8.502922 0.853554 -5.488838
v 8.774139 0.853554 -6.966366
v 9.117786 0.853554 -8.429946
v 9.531597 0.853555 -9.876867
v 10.013338 0.853555 -11.304419
v 10.560759 0.853556 -12.709904
v 11.171642 0.853556 -14.090622
v 11.843761 0.853556 -15.443884
v 12.574905 0.853556 -16.766994
v 13.362877 0.853556 -18.057266
v 14.205475 0.853556 -19.311998
v 15.100508 0.853556 -20.528500
v 16.045799 0.853555 -21.704069
v 17.039167 0.853554 -22.836002
v 8.078575 0.691342 -2.508639
v 8.198608 0.691342 -4.011503
v 8.395863 0.691342 -5.505720
v 8.668049 0.691342 -6.988544
v 9.012892 0.691343 -8.457243
v 9.428118 0.691343 -9.909105
v 9.911465 0.691343 -11.341425
v 10.460678 0.691344 -12.751511
v 11.073523 0.691344 -14.136667
v 11.747770 0.691344 -15.494215
v 12.481201 0.691344 -16.821465
v 13.271614 0.691344 -18.115738
v 14.116810 0.691344 -19.374340
v 15.014605 0.691344 -20.594591
v 15.962811 0.691343 -21.773792
v 16.959269 0.691343 -22.909245
v 8.040569 0.500000 -2.510666
v 8.160755 0.500000 -4.015511
v 8.358265 0.500000 -5.511649
v 8.630795 0.500001 -6.996333
v 8.976059 0.500001 -8.466829
v 9.391781 0.500001 -9.920426
v 9.875690 0.500002 -11.354420
v 10.425531 0.500002 -12.766121
v 11.039066 0.500002 -14.152836
v 11.714062 0.500002 -15.511887
v 12.448298 0.500003 -16.840591
v 13.239571 0.500002 -18.136269
v 14.085678 0.500002 -19.396235
v 14.984438 0.500002 -20.617800
v 15.933674 0.500001 -21.798275
v 16.931213 0.500001 -22.934963
v 8.078575 0.308658 -2.508639
v 8.198601 0.308658 -4.011503
v 8.395859 0.308659 -5.505721
v 8.668045 0.308659 -6.988545
v 9.012890 0.308659 -8.457245
v 9.428112 0.308660 -9.909107
v 9.911457 0.308660 -11.341426
v 10.460674 0.308660 -12.751511
v 11.073519 0.308661 -14.136668
v 11.747768 0.308661 -15.494215
v 12.481197 0.308661 -16.821466
v 13.271614 0.308661 -18.115738
v 14.116810 0.308661 -19.374344
v 15.014603 0.308660 -20.594593
v 15.962811 0.308660 -21.773794
v 16.959267 0.308659 -22.909245
v 8.186806 0.146447 -2.502867
v 8.306389 0.146447 -4.000092
v 8.502922 0.146447 -5.488838
v 8.774139 0.146447 -6.966366
v 9.117785 0.146448 -8.429946
v 9.531597 0.146448 -9.876867
v 10.013340 0.146448 -11.304419
v 10.560760 0.146449 -12.709904
v 11.171644 0.146449 -14.090623
v 11.843761 0.146449 -15.443884
v 12.574909 0.146449 -16.766994
v 13.362881 0.146449 -18.057262
v 14.205477 0.146449 -19.311996
v 15.100510 0.146449 -20.528500
v 16.045797 0.146448 -21.704069
v 17.039169 0.146447 -22.836002
v 8.348793 0.038060 -2.494229
v 8.467697 0.038060 -3.983013
v 8.663151 0.038061 -5.463572
v 8.932922 0.038061 -6.933172
v 9.274765 0.038061 -8.389094
v 9.686466 0.038062 -9.828619
v 10.165798 0.038062 -11.249035
v 10.710541 0.038062 -12.647636
v 11.318489 0.038062 -14.021712
v 11.987423 0.038063 -15.368561
v 12.715145 0.038063 -16.685478
v 13.499458 0.038063 -17.969759
v 14.338165 0.038062 -19.218697
v 15.229073 0.038062 -20.429588
v 16.169991 0.038062 -21.599724
v 17.158741 0.038061 -22.726395
v 8.539856 0.000000 -2.484040
v 8.657974 0.000000 -3.962868
v 8.852158 0.000000 -5.433767
v 9.120209 0.000001 -6.894018
v 9.459940 0.000001 -8.340904
v 9.869146 0.000001 -9.771707
v 10.345642 0.000002 -11.183706
v 10.887222 0.000002 -12.574184
v 11.491703 0.000002 -13.940426
v 12.156883 0.000002 -15.279711
v 12.880573 0.000002 -16.589317
v 13.660572 0.000002 -17.866535
v 14.494686 0.000002 -19.108639
v 15.380726 0.000002 -20.312910
v 16.316490 0.000001 -21.476637
v 17.299791 0.000001 -22.597097
v 8.730927 0.038060 -2.473850
v 8.848251 0.038060 -3.942722
v 9.041164 0.038061 -5.403963
v 9.307507 0.038061 -6.854864
v 9.645115 0.038061 -8.292715
v 10.051830 0.038062 -9.714793
v 10.525486 0.038062 -11.118375
v 11.063906 0.038062 -12.500734
v 11.664921 0.038062 -13.859138
v 12.326347 0.038062 -15.190859
v 13.045996 0.038063 -16.493158
v 13.821682 0.038063 -17.763309
v 14.651211 0.038062 -18.998579
v 15.532381 0.038062 -20.196234
v 16.462990 0.038062 -21.353550
v 17.440840 0.038061 -22.467802
v 8.892914 0.146447 -2.465212
v 9.009563 0.146447 -3.925644
v 9.201395 0.146447 -5.378696
v 9.466286 0.146447 -6.821671
v 9.802099 0.146448 -8.251861
v 10.206699 0.146448 -9.666545
v 10.677948 0.146448 -11.062992
v 11.213692 0.146448 -12.438467
v 11.811768 0.146449 -13.790230
v 12.470009 0.146449 -15.115536
v 13.186235 0.146449 -16.411640
v 13.958263 0.146449 -17.675804
v 14.783897 0.146449 -18.905277
v 15.660940 0.146448 -20.097322
v 16.587181 0.146448 -21.249207
v 17.560411 0.146447 -22.358196
v 9.001144 0.308658 -2.459440
v 9.117350 0.308658 -3.914232
v 9.308460 0.308659 -5.361813
v 9.572380 0.308659 -6.799492
v 9.906992 0.308659 -8.224565
v 10.310179 0.308660 -9.634306
v 10.779823 0.308660 -11.025985
v 11.313774 0.308660 -12.396860
v 11.909887 0.308660 -13.744184
v 12.566002 0.308660 -15.065206
v 13.279942 0.308661 -16.357170
v 14.049522 0.308661 -17.617331
v 14.872559 0.308660 -18.842934
v 15.746845 0.308660 -20.031231
v 16.670168 0.308660 -21.179485
v 17.640308 0.308659 -22.284958
v 9.039152 0.500000 -2.457413
v 9.155201 0.500000 -3.910225
v 9.346058 0.500001 -5.355885
v 9.609632 0.500001 -6.791704
v 9.943821 0.500001 -8.214978
v 10.346516 0.500001 -9.622986
v 10.815598 0.500002 -11.012990
v 11.348917 0.500002 -12.382250
v 11.944344 0.500002 -13.728014
v 12.599709 0.500002 -15.047531
v 13.312843 0.500002 -16.338043
v 14.081572 0.500002 -17.596800
v 14.903692 0.500002 -18.821039
v 15.777010 0.500002 -20.008020
v 16.699308 0.500001 -21.155001
v 17.668365 0.500001 -22.259235
v 9.001144 0.691342 -2.459440
v 9.117348 0.691342 -3.914232
v 9.308460 0.691342 -5.361813
v 9.572380 0.691343 -6.799492
v 9.906990 0.691343 -8.224564
v 10.310179 0.691343 -9.634306
v 10.779823 0.691344 -11.025984
v 11.313776 0.691344 -12.396860
v 11.909889 0.691344 -13.744184
v 12.566002 0.691344 -15.065206
v 13.279943 0.691344 -16.357170
v 14.049526 0.691344 -17.617332
v 14.872557 0.691344 -18.842934
v 15.746845 0.691344 -20.031233
v 16.670166 0.691343 -21.179485
v 17.640308 0.691343 -22.284956
v 8.892914 0.853554 -2.465212
v 9.009567 0.853554 -3.925644
v 9.201395 0.853554 -5.378695
v 9.466288 0.853554 -6.821671
v 9.802099 0.853555 -8.251861
v 10.206699 0.853555 -9.666544
v 10.677952 0.853555 -11.062992
v 11.213692 0.853556 -12.438467
v 11.811768 0.853556 -13.790228
v 12.470013 0.853556 -15.115535
v 13.186235 0.853556 -16.411640
v 13.958263 0.853556 -17.675804
v 14.783901 0.853556 -18.905275
v 15.660940 0.853555 -20.097322
v 16.587183 0.853555 -21.249205
v 17.560413 0.853554 -22.358192
v 8.730930 0.961940 -2.473850
v 8.848259 0.961940 -3.942722
v 9.041166 0.961941 -5.403963
v 9.307505 0.961941 -6.854864
v 9.645115 0.961941 -8.292714
v 10.051828 0.961941 -9.714792
v 10.525486 0.961942 -11.118375
v 11.063908 0.961942 -12.500734
v 11.664925 0.961942 -13.859138
v 12.326347 0.961942 -15.190859
v 13.045998 0.961942 -16.493158
v 13.821682 0.961942 -17.763309
v 14.651209 0.961942 -18.998581
v 15.532377 0.961942 -20.196236
v 16.462986 0.961941 -21.353554
v 17.440838 0.961941 -22.467804
v 8.539856 1.000000 -2.484040
v 8.657974 1.000000 -3.962868
v 8.852158 1.000001 -5.433767
v 9.120213 1.000001 -6.894018
v 9.459942 1.000001 -8.340904
v 9.869146 1.000002 -9.771706
v 10.345642 1.000002 -11.183706
v 10.887226 1.000002 -12.574184
v 11.491705 1.000002 -13.940426
v 12.156887 1.000003 -15.279709
v 12.880573 1.000003 -16.589317
v 13.660570 1.000003 -17.866535
v 14.494686 1.000002 -19.108639
v 15.380722 1.000002 -20.312912
v 16.316490 1.000002 -21.476639
v 17.299789 1.000001 -22.597099
v 13.671572 1.000000 -30.328428
v 13.536274 0.961940 -30.463726
v 13.421572 0.853553 -30.578428
v 13.344931 0.691342 -30.655069
v 13.318020 0.500000 -30.681980
v 13.344931 0.308658 -30.655069
v 13.421572 0.146447 -30.578428
v 13.536274 0.038060 -30.463726
v 13.671572 0.000000 -30.328428
v 13.806871 0.038060 -30.193129
v 13.921574 0.146446 -30.078426
v 13.998215 0.308658 -30.001785
v 14.025126 0.500000 -29.974874
v 13.998215 0.691342 -30.001785
v 13.921574 0.853554 -30.078426
v 13.806871 0.961940 -30.193129
v 19.328426 1.000000 -24.671574
v 19.193129 0.961940 -24.806871
v 19.078426 0.853553 -24.921574
v 19.001785 0.691342 -24.998215
v 18.974873 0.500000 -25.025127
v 19.001785 0.308658 -24.998215
v 19.078426 0.146447 -24.921574
v 19.193129 0.038060 -24.806871
v 19.328426 0.000000 -24.671574
v 19.463726 0.038060 -24.536274
v 19.578426 0.146446 -24.421574
v 19.655067 0.308658 -24.344933
v 19.681980 0.500000 -24.318020
v 19.655067 0.691342 -24.344933
v 19.578426 0.853554 -24.421574
v 19.463726 0.961940 -24.536274
vt 0.6436 0.7324
vt 0.6302 0.7285
vt 0.6199 0.7214
vt 0.6143 0.7120
vt 0.6143 0.7019
vt 0.6199 0.6926
vt 0.6302 0.6854
vt 0.6436 0.6816
vt 0.6582 0.6816
vt 0.6716 0.6854
vt 0.6819 0.6926
vt 0.6875 0.7019
vt 0.6875 0.7120
vt 0.6819 0.7214
vt 0.6716 0.7285
vt 0.6582 0.7324
vt 0.5402 0.7171
vt 0.5299 0.7242
vt 0.5165 0.7281
vt 0.5019 0.7281
vt 0.4885 0.7242
vt 0.4782 0.7171
vt 0.4726 0.7077
vt 0.4726 0.6976
vt 0.4782 0.6883
vt 0.4885 0.6811
vt 0.5019 0.6773
vt 0.5165 0.6773
vt 0.5299 0.6811
vt 0.5402 0.6883
vt 0.5458 0.6976
vt 0.5458 0.7077
vt 0.6582 0.7324
vt 0.6582 0.7324
vt 0.6716 0.7285
vt 0.6819 0.7214
vt 0.6875 0.7120
vt 0.6875 0.7019
vt 0.6819 0.6926
vt 0.6716 0.6854
vt 0.6582 0.6816
vt 0.6436 0.6816
vt 0.6302 0.6854
vt 0.6199 0.6926
vt 0.6143 0.7019
vt 0.6143 0.7120
vt 0.6199 0.7214
vt 0.6302 0.7285
vt 0.5458 0.7077
vt 0.5458 0.7077
vt 0.5458 0.6976
vt 0.5402 0.6883
vt 0.5299 0.6811
vt 0.5165 0.6773
vt 0.5019 0.6773
vt 0.4885 0.6811
vt 0.4782 0.6883
vt 0.4726 0.6976
vt 0.4726 0.7077
vt 0.4782 0.7171
vt 0.4885 0.7242
vt 0.5019 0.7281
vt 0.5165 0.7281
vt 0.5299 0.7242
vt 0.4885 0.7242
vt 0.4885 0.7242
vt 0.4885 0.7242
vt 0.6302 0.6854
vt 0.6302 0.6854
vt 0.6302 0.6854
vt 0.6436 0.6816
vt 0.6436 0.6816
vt 0.6436 0.6816
vt 0.4782 0.7171
vt 0.4782 0.7171
vt 0.4782 0.7171
vt 0.6582 0.6816
vt 0.6582 0.6816
vt 0.6582 0.6816
vt 0.4726 0.7077
vt 0.4726 0.7077
vt 0.4726 0.7077
vt 0.6716 0.6854
vt 0.6716 0.6854
vt 0.6716 0.6854
vt 0.4726 0.6976
vt 0.4726 0.6976
vt 0.4726 0.6976
vt 0.6819 0.6926
vt 0.6819 0.6926
vt 0.6819 0.6926
vt 0.4782 0.6883
vt 0.4782 0.6883
vt 0.4782 0.6883
vt 0.6875 0.7019
vt 0.6875 0.7019
vt 0.6875 0.7019
vt 0.4885 0.6811
vt 0.4885 0.6811
vt 0.4885 0.6811
vt 0.6875 0.7120
vt 0.6875 0.7120
vt 0.6875 0.7120
vt 0.5019 0.6773
vt 0.5019 0.6773
vt 0.5019 0.6773
vt 0.6819 0.7214
vt 0.6819 0.7214
vt 0.6819 0.7214
vt 0.6436 0.7324
vt 0.6436 0.7324
vt 0.6436 0.7324
vt 0.5165 0.6773
vt 0.5165 0.6773
vt 0.5165 0.6773
vt 0.6716 0.7285
vt 0.6716 0.7285
vt 0.6716 0.7285
vt 0.6302 0.7285
vt 0.6302 0.7285
vt 0.6302 0.7285
vt 0.5299 0.6811
vt 0.5299 0.6811
vt 0.5299 0.6811
vt 0.6582 0.7324
vt 0.6582 0.7324
vt 0.6582 0.7324
vt 0.6199 0.7214
vt 0.6199 0.7214
vt 0.6199 0.7214
vt 0.5402 0.6883
vt 0.5402 0.6883
vt 0.5402 0.6883
vt 0.5402 0.7171
vt 0.5402 0.7171
vt 0.5402 0.7171
vt 0.6143 0.7120
vt 0.6143 0.7120
vt 0.6143 0.7120
vt 0.5458 0.6976
vt 0.5458 0.6976
vt 0.5458 0.6976
vt 0.5299 0.7242
vt 0.5299 0.7242
vt 0.5299 0.7242
vt 0.6143 0.7019
vt 0.6143 0.7019
vt 0.6143 0.7019
vt 0.5458 0.7077
vt 0.5458 0.7077
vt 0.5458 0.7077
vt 0.5165 0.7281
vt 0.5165 0.7281
vt 0.5165 0.7281
vt 0.6199 0.6926
vt 0.6199 0.6926
vt 0.6199 0.6926
vt 0.5019 0.7281
vt 0.5019 0.7281
vt 0.5019 0.7281
vt 0.6302 0.7285
vt 0.6205 0.7218
vt 0.6199 0.7214
vt 0.6302 0.7285
vt 0.5299 0.7242
vt 0.5173 0.7278
vt 0.5165 0.7281
vt 0.5299 0.7242
vt 0.6819 0.6926
vt 0.6875 0.7019
vt 0.6875 0.7019
vt 0.6819 0.6926
vt 0.4726 0.6976
vt 0.4782 0.6883
vt 0.4782 0.6883
vt 0.4726 0.6976
vt 0.6199 0.7214
vt 0.6146 0.7126
vt 0.6143 0.7120
vt 0.6199 0.7214
vt 0.6143 0.7120
vt 0.6143 0.7025
vt 0.6143 0.7019
vt 0.6143 0.7120
vt 0.6143 0.7019
vt 0.6195 0.6931
vt 0.6199 0.6926
vt 0.6143 0.7019
vt 0.6199 0.6926
vt 0.6296 0.6859
vt 0.6302 0.6854
vt 0.6199 0.6926
vt 0.6302 0.6854
vt 0.6428 0.6818
vt 0.6436 0.6816
vt 0.6302 0.6854
vt 0.6436 0.6816
vt 0.6573 0.6816
vt 0.6582 0.6816
vt 0.6436 0.6816
vt 0.6582 0.6816
vt 0.6708 0.6852
vt 0.6716 0.6854
vt 0.6582 0.6816
vt 0.6716 0.6854
vt 0.6813 0.6922
vt 0.6819 0.6926
vt 0.6716 0.6854
vt 0.6819 0.6926
vt 0.6872 0.7014
vt 0.6875 0.7019
vt 0.6875 0.7114
vt 0.6875 0.7120
vt 0.6875 0.7019
vt 0.6875 0.7120
vt 0.6823 0.7208
vt 0.6819 0.7214
vt 0.6875 0.7120
vt 0.6819 0.7214
vt 0.6722 0.7281
vt 0.6716 0.7285
vt 0.6819 0.7214
vt 0.6716 0.7285
vt 0.6590 0.7321
vt 0.6582 0.7324
vt 0.6716 0.7285
vt 0.6582 0.7324
vt 0.6582 0.7324
vt 0.6582 0.7324
vt 0.6582 0.7324
vt 0.6436 0.7324
vt 0.6318 0.7287
vt 0.6302 0.7285
vt 0.6436 0.7324
vt 0.6302 0.7285
vt 0.6211 0.7222
vt 0.6302 0.7285
vt 0.6217 0.7226
vt 0.6302 0.7285
vt 0.6223 0.7230
vt 0.6302 0.7285
vt 0.6229 0.7235
vt 0.6302 0.7285
vt 0.6235 0.7239
vt 0.6302 0.7285
vt 0.6241 0.7243
vt 0.6302 0.7285
vt 0.6247 0.7247
vt 0.6302 0.7285
vt 0.6253 0.7251
vt 0.6302 0.7285
vt 0.6259 0.7256
vt 0.6302 0.7285
vt 0.6265 0.7260
vt 0.6302 0.7285
vt 0.6271 0.7264
vt 0.6302 0.7285
vt 0.6277 0.7268
vt 0.6302 0.7285
vt 0.6284 0.7272
vt 0.6302 0.7285
vt 0.6290 0.7277
vt 0.6296 0.7281
vt 0.6302 0.7285
vt 0.6199 0.7214
vt 0.6150 0.7131
vt 0.6199 0.7214
vt 0.6153 0.7137
vt 0.6199 0.7214
vt 0.6156 0.7142
vt 0.6199 0.7214
vt 0.6159 0.7148
vt 0.6199 0.7214
vt 0.6163 0.7153
vt 0.6199 0.7214
vt 0.6166 0.7159
vt 0.6199 0.7214
vt 0.6169 0.7164
vt 0.6199 0.7214
vt 0.6173 0.7170
vt 0.6199 0.7214
vt 0.6176 0.7175
vt 0.6199 0.7214
vt 0.6179 0.7181
vt 0.6199 0.7214
vt 0.6182 0.7186
vt 0.6199 0.7214
vt 0.6186 0.7192
vt 0.6199 0.7214
vt 0.6189 0.7197
vt 0.6199 0.7214
vt 0.6192 0.7203
vt 0.6195 0.7208
vt 0.6199 0.7214
vt 0.6143 0.7120
vt 0.6143 0.7031
vt 0.6143 0.7120
vt 0.6143 0.7037
vt 0.6143 0.7120
vt 0.6143 0.7043
vt 0.6143 0.7120
vt 0.6143 0.7049
vt 0.6143 0.7120
vt 0.6143 0.7055
vt 0.6143 0.7120
vt 0.6143 0.7061
vt 0.6143 0.7120
vt 0.6143 0.7067
vt 0.6143 0.7120
vt 0.6143 0.7073
vt 0.6143 0.7120
vt 0.6143 0.7079
vt 0.6143 0.7120
vt 0.6143 0.7085
vt 0.6143 0.7120
vt 0.6143 0.7090
vt 0.6143 0.7120
vt 0.6143 0.7096
vt 0.6143 0.7120
vt 0.6143 0.7102
vt 0.6143 0.7120
vt 0.6143 0.7108
vt 0.6143 0.7114
vt 0.6143 0.7120
vt 0.6143 0.7019
vt 0.6192 0.6937
vt 0.6143 0.7019
vt 0.6189 0.6942
vt 0.6143 0.7019
vt 0.6186 0.6948
vt 0.6143 0.7019
vt 0.6182 0.6953
vt 0.6143 0.7019
vt 0.6179 0.6959
vt 0.6143 0.7019
vt 0.6176 0.6964
vt 0.6143 0.7019
vt 0.6173 0.6970
vt 0.6143 0.7019
vt 0.6169 0.6975
vt 0.6143 0.7019
vt 0.6166 0.6981
vt 0.6143 0.7019
vt 0.6163 0.6986
vt 0.6143 0.7019
vt 0.6159 0.6992
vt 0.6143 0.7019
vt 0.6156 0.6997
vt 0.6143 0.7019
vt 0.6153 0.7003
vt 0.6143 0.7019
vt 0.6150 0.7008
vt 0.6146 0.7014
vt 0.6143 0.7019
vt 0.6199 0.6926
vt 0.6290 0.6863
vt 0.6199 0.6926
vt 0.6284 0.6867
vt 0.6199 0.6926
vt 0.6277 0.6871
vt 0.6199 0.6926
vt 0.6271 0.6875
vt 0.6199 0.6926
vt 0.6265 0.6880
vt 0.6199 0.6926
vt 0.6259 0.6884
vt 0.6199 0.6926
vt 0.6253 0.6888
vt 0.6199 0.6926
vt 0.6247 0.6892
vt 0.6199 0.6926
vt 0.6241 0.6896
vt 0.6199 0.6926
vt 0.6235 0.6901
vt 0.6199 0.6926
vt 0.6229 0.6905
vt 0.6199 0.6926
vt 0.6223 0.6909
vt 0.6199 0.6926
vt 0.6217 0.6913
vt 0.6199 0.6926
vt 0.6211 0.6917
vt 0.6205 0.6922
vt 0.6199 0.6926
vt 0.6302 0.6854
vt 0.6420 0.6820
vt 0.6302 0.6854
vt 0.6412 0.6823
vt 0.6302 0.6854
vt 0.6405 0.6825
vt 0.6302 0.6854
vt 0.6397 0.6827
vt 0.6302 0.6854
vt 0.6389 0.6829
vt 0.6302 0.6854
vt 0.6381 0.6832
vt 0.6302 0.6854
vt 0.6373 0.6834
vt 0.6302 0.6854
vt 0.6365 0.6836
vt 0.6302 0.6854
vt 0.6357 0.6838
vt 0.6302 0.6854
vt 0.6349 0.6841
vt 0.6302 0.6854
vt 0.6341 0.6843
vt 0.6302 0.6854
vt 0.6333 0.6845
vt 0.6302 0.6854
vt 0.6325 0.6848
vt 0.6302 0.6854
vt 0.6318 0.6850
vt 0.6310 0.6852
vt 0.6302 0.6854
vt 0.6436 0.6816
vt 0.6565 0.6816
vt 0.6436 0.6816
vt 0.6556 0.6816
vt 0.6436 0.6816
vt 0.6548 0.6816
vt 0.6436 0.6816
vt 0.6539 0.6816
vt 0.6436 0.6816
vt 0.6530 0.6816
vt 0.6436 0.6816
vt 0.6522 0.6816
vt 0.6436 0.6816
vt 0.6513 0.6816
vt 0.6436 0.6816
vt 0.6505 0.6816
vt 0.6436 0.6816
vt 0.6496 0.6816
vt 0.6436 0.6816
vt 0.6488 0.6816
vt 0.6436 0.6816
vt 0.6479 0.6816
vt 0.6436 0.6816
vt 0.6470 0.6816
vt 0.6436 0.6816
vt 0.6462 0.6816
vt 0.6436 0.6816
vt 0.6453 0.6816
vt 0.6445 0.6816
vt 0.6436 0.6816
vt 0.6582 0.6816
vt 0.6700 0.6850
vt 0.6582 0.6816
vt 0.6693 0.6848
vt 0.6582 0.6816
vt 0.6685 0.6845
vt 0.6582 0.6816
vt 0.6677 0.6843
vt 0.6582 0.6816
vt 0.6669 0.6841
vt 0.6582 0.6816
vt 0.6661 0.6838
vt 0.6582 0.6816
vt 0.6653 0.6836
vt 0.6582 0.6816
vt 0.6645 0.6834
vt 0.6582 0.6816
vt 0.6637 0.6832
vt 0.6582 0.6816
vt 0.6629 0.6829
vt 0.6582 0.6816
vt 0.6621 0.6827
vt 0.6582 0.6816
vt 0.6613 0.6825
vt 0.6582 0.6816
vt 0.6606 0.6823
vt 0.6582 0.6816
vt 0.6598 0.6820
vt 0.6590 0.6818
vt 0.6582 0.6816
vt 0.6716 0.6854
vt 0.6807 0.6917
vt 0.6716 0.6854
vt 0.6801 0.6913
vt 0.6716 0.6854
vt 0.6795 0.6909
vt 0.6716 0.6854
vt 0.6789 0.6905
vt 0.6716 0.6854
vt 0.6783 0.6901
vt 0.6716 0.6854
vt 0.6777 0.6896
vt 0.6716 0.6854
vt 0.6771 0.6892
vt 0.6716 0.6854
vt 0.6765 0.6888
vt 0.6716 0.6854
vt 0.6759 0.6884
vt 0.6716 0.6854
vt 0.6753 0.6880
vt 0.6716 0.6854
vt 0.6747 0.6875
vt 0.6716 0.6854
vt 0.6741 0.6871
vt 0.6716 0.6854
vt 0.6734 0.6867
vt 0.6716 0.6854
vt 0.6728 0.6863
vt 0.6722 0.6859
vt 0.6716 0.6854
vt 0.6819 0.6926
vt 0.6868 0.7008
vt 0.6819 0.6926
vt 0.6865 0.7003
vt 0.6819 0.6926
vt 0.6862 0.6997
vt 0.6819 0.6926
vt 0.6859 0.6992
vt 0.6819 0.6926
vt 0.6855 0.6986
vt 0.6819 0.6926
vt 0.6852 0.6981
vt 0.6819 0.6926
vt 0.6849 0.6975
vt 0.6819 0.6926
vt 0.6845 0.6970
vt 0.6819 0.6926
vt 0.6842 0.6964
vt 0.6819 0.6926
vt 0.6839 0.6959
vt 0.6819 0.6926
vt 0.6836 0.6953
vt 0.6819 0.6926
vt 0.6832 0.6948
vt 0.6819 0.6926
vt 0.6829 0.6942
vt 0.6819 0.6926
vt 0.6826 0.6937
vt 0.6823 0.6931
vt 0.6819 0.6926
vt 0.6875 0.7019
vt 0.6875 0.7108
vt 0.6875 0.7019
vt 0.6875 0.7102
vt 0.6875 0.7019
vt 0.6875 0.7096
vt 0.6875 0.7019
vt 0.6875 0.7090
vt 0.6875 0.7019
vt 0.6875 0.7085
vt 0.6875 0.7019
vt 0.6875 0.7079
vt 0.6875 0.7019
vt 0.6875 0.7073
vt 0.6875 0.7019
vt 0.6875 0.7067
vt 0.6875 0.7019
vt 0.6875 0.7061
vt 0.6875 0.7019
vt 0.6875 0.7055
vt 0.6875 0.7019
vt 0.6875 0.7049
vt 0.6875 0.7019
vt 0.6875 0.7043
vt 0.6875 0.7019
vt 0.6875 0.7037
vt 0.6875 0.7019
vt 0.6875 0.7031
vt 0.6875 0.7025
vt 0.6875 0.7019
vt 0.6875 0.7120
vt 0.6826 0.7203
vt 0.6875 0.7120
vt 0.6829 0.7197
vt 0.6875 0.7120
vt 0.6832 0.7192
vt 0.6875 0.7120
vt 0.6836 0.7186
vt 0.6875 0.7120
vt 0.6839 0.7181
vt 0.6875 0.7120
vt 0.6842 0.7175
vt 0.6875 0.7120
vt 0.6845 0.7170
vt 0.6875 0.7120
vt 0.6849 0.7164
vt 0.6875 0.7120
vt 0.6852 0.7159
vt 0.6875 0.7120
vt 0.6855 0.7153
vt 0.6875 0.7120
vt 0.6859 0.7148
vt 0.6875 0.7120
vt 0.6862 0.7142
vt 0.6875 0.7120
vt 0.6865 0.7137
vt 0.6875 0.7120
vt 0.6868 0.7131
vt 0.6872 0.7126
vt 0.6875 0.7120
vt 0.6819 0.7214
vt 0.6728 0.7277
vt 0.6819 0.7214
vt 0.6734 0.7272
vt 0.6819 0.7214
vt 0.6741 0.7268
vt 0.6819 0.7214
vt 0.6747 0.7264
vt 0.6819 0.7214
vt 0.6753 0.7260
vt 0.6819 0.7214
vt 0.6759 0.7256
vt 0.6819 0.7214
vt 0.6765 0.7251
vt 0.6819 0.7214
vt 0.6771 0.7247
vt 0.6819 0.7214
vt 0.6777 0.7243
vt 0.6819 0.7214
vt 0.6783 0.7239
vt 0.6819 0.7214
vt 0.6789 0.7235
vt 0.6819 0.7214
vt 0.6795 0.7230
vt 0.6819 0.7214
vt 0.6801 0.7226
vt 0.6819 0.7214
vt 0.6807 0.7222
vt 0.6813 0.7218
vt 0.6819 0.7214
vt 0.6716 0.7285
vt 0.6598 0.7319
vt 0.6716 0.7285
vt 0.6606 0.7317
vt 0.6716 0.7285
vt 0.6613 0.7314
vt 0.6716 0.7285
vt 0.6621 0.7312
vt 0.6716 0.7285
vt 0.6629 0.7310
vt 0.6716 0.7285
vt 0.6637 0.7308
vt 0.6716 0.7285
vt 0.6645 0.7305
vt 0.6716 0.7285
vt 0.6653 0.7303
vt 0.6716 0.7285
vt 0.6661 0.7301
vt 0.6716 0.7285
vt 0.6669 0.7299
vt 0.6716 0.7285
vt 0.6677 0.7296
vt 0.6716 0.7285
vt 0.6685 0.7294
vt 0.6716 0.7285
vt 0.6693 0.7292
vt 0.6716 0.7285
vt 0.6700 0.7289
vt 0.6708 0.7287
vt 0.6716 0.7285
vt 0.6582 0.7324
vt 0.6582 0.7324
vt 0.6582 0.7324
vt 0.6582 0.7324
vt 0.6582 0.7324
vt 0.6582 0.7324
vt 0.6582 0.7324
vt 0.6582 0.7324
vt 0.6582 0.7324
vt 0.6582 0.7324
vt 0.6582 0.7324
vt 0.6582 0.7324
vt 0.6582 0.7324
vt 0.6582 0.7324
vt 0.6582 0.7324
vt 0.6582 0.7324
vt 0.6582 0.7324
vt 0.6582 0.7324
vt 0.6582 0.7324
vt 0.6582 0.7324
vt 0.6582 0.7324
vt 0.6582 0.7324
vt 0.6582 0.7324
vt 0.6582 0.7324
vt 0.6582 0.7324
vt 0.6582 0.7324
vt 0.6582 0.7324
vt 0.6582 0.7324
vt 0.6582 0.7324
vt 0.6582 0.7324
vt 0.6436 0.7324
vt 0.6335 0.7289
vt 0.6436 0.7324
vt 0.6351 0.7292
vt 0.6436 0.7324
vt 0.6368 0.7294
vt 0.6436 0.7324
vt 0.6384 0.7296
vt 0.6436 0.7324
vt 0.6401 0.7299
vt 0.6436 0.7324
vt 0.6417 0.7301
vt 0.6436 0.7324
vt 0.6434 0.7303
vt 0.6436 0.7324
vt 0.6450 0.7305
vt 0.6436 0.7324
vt 0.6466 0.7308
vt 0.6436 0.7324
vt 0.6483 0.7310
vt 0.6436 0.7324
vt 0.6499 0.7312
vt 0.6436 0.7324
vt 0.6516 0.7314
vt 0.6436 0.7324
vt 0.6532 0.7317
vt 0.6436 0.7324
vt 0.6549 0.7319
vt 0.6565 0.7321
vt 0.6436 0.7324
vt 0.5165 0.7281
vt 0.5028 0.7281
vt 0.5019 0.7281
vt 0.5165 0.7281
vt 0.5019 0.7281
vt 0.4892 0.7244
vt 0.4885 0.7242
vt 0.5019 0.7281
vt 0.4885 0.7242
vt 0.4788 0.7175
vt 0.4782 0.7171
vt 0.4885 0.7242
vt 0.4782 0.7171
vt 0.4729 0.7083
vt 0.4726 0.7077
vt 0.4782 0.7171
vt 0.4726 0.7077
vt 0.4726 0.6982
vt 0.4726 0.6976
vt 0.4726 0.7077
vt 0.4726 0.6976
vt 0.4778 0.6888
vt 0.4782 0.6883
vt 0.4878 0.6816
vt 0.4885 0.6811
vt 0.4782 0.6883
vt 0.4885 0.6811
vt 0.5011 0.6775
vt 0.5019 0.6773
vt 0.4885 0.6811
vt 0.5019 0.6773
vt 0.5156 0.6773
vt 0.5165 0.6773
vt 0.5019 0.6773
vt 0.5165 0.6773
vt 0.5291 0.6809
vt 0.5299 0.6811
vt 0.5165 0.6773
vt 0.5299 0.6811
vt 0.5396 0.6879
vt 0.5402 0.6883
vt 0.5299 0.6811
vt 0.5402 0.6883
vt 0.5455 0.6971
vt 0.5458 0.6976
vt 0.5402 0.6883
vt 0.5458 0.6976
vt 0.5458 0.7071
vt 0.5458 0.7077
vt 0.5458 0.6976
vt 0.5458 0.7077
vt 0.5458 0.7077
vt 0.5458 0.7077
vt 0.5458 0.7077
vt 0.5402 0.7171
vt 0.5308 0.7232
vt 0.5299 0.7242
vt 0.5402 0.7171
vt 0.5299 0.7242
vt 0.5180 0.7276
vt 0.5299 0.7242
vt 0.5188 0.7274
vt 0.5299 0.7242
vt 0.5196 0.7272
vt 0.5299 0.7242
vt 0.5204 0.7269
vt 0.5299 0.7242
vt 0.5212 0.7267
vt 0.5299 0.7242
vt 0.5220 0.7265
vt 0.5299 0.7242
vt 0.5228 0.7262
vt 0.5299 0.7242
vt 0.5236 0.7260
vt 0.5299 0.7242
vt 0.5244 0.7258
vt 0.5299 0.7242
vt 0.5252 0.7256
vt 0.5299 0.7242
vt 0.5260 0.7253
vt 0.5299 0.7242
vt 0.5267 0.7251
vt 0.5299 0.7242
vt 0.5275 0.7249
vt 0.5299 0.7242
vt 0.5283 0.7247
vt 0.5291 0.7244
vt 0.5299 0.7242
vt 0.5165 0.7281
vt 0.5036 0.7281
vt 0.5165 0.7281
vt 0.5045 0.7281
vt 0.5165 0.7281
vt 0.5053 0.7281
vt 0.5165 0.7281
vt 0.5062 0.7281
vt 0.5165 0.7281
vt 0.5070 0.7281
vt 0.5165 0.7281
vt 0.5079 0.7281
vt 0.5165 0.7281
vt 0.5088 0.7281
vt 0.5165 0.7281
vt 0.5096 0.7281
vt 0.5165 0.7281
vt 0.5105 0.7281
vt 0.5165 0.7281
vt 0.5113 0.7281
vt 0.5165 0.7281
vt 0.5122 0.7281
vt 0.5165 0.7281
vt 0.5130 0.7281
vt 0.5165 0.7281
vt 0.5139 0.7281
vt 0.5165 0.7281
vt 0.5147 0.7281
vt 0.5156 0.7281
vt 0.5165 0.7281
vt 0.5019 0.7281
vt 0.4900 0.7247
vt 0.5019 0.7281
vt 0.4908 0.7249
vt 0.5019 0.7281
vt 0.4916 0.7251
vt 0.5019 0.7281
vt 0.4924 0.7253
vt 0.5019 0.7281
vt 0.4932 0.7256
vt 0.5019 0.7281
vt 0.4940 0.7258
vt 0.5019 0.7281
vt 0.4948 0.7260
vt 0.5019 0.7281
vt 0.4956 0.7262
vt 0.5019 0.7281
vt 0.4964 0.7265
vt 0.5019 0.7281
vt 0.4972 0.7267
vt 0.5019 0.7281
vt 0.4979 0.7269
vt 0.5019 0.7281
vt 0.4987 0.7272
vt 0.5019 0.7281
vt 0.4995 0.7274
vt 0.5019 0.7281
vt 0.5003 0.7276
vt 0.5011 0.7278
vt 0.5019 0.7281
vt 0.4885 0.7242
vt 0.4794 0.7179
vt 0.4885 0.7242
vt 0.4800 0.7183
vt 0.4885 0.7242
vt 0.4806 0.7187
vt 0.4885 0.7242
vt 0.4812 0.7192
vt 0.4885 0.7242
vt 0.4818 0.7196
vt 0.4885 0.7242
vt 0.4824 0.7200
vt 0.4885 0.7242
vt 0.4830 0.7204
vt 0.4885 0.7242
vt 0.4836 0.7208
vt 0.4885 0.7242
vt 0.4842 0.7213
vt 0.4885 0.7242
vt 0.4848 0.7217
vt 0.4885 0.7242
vt 0.4854 0.7221
vt 0.4885 0.7242
vt 0.4860 0.7225
vt 0.4885 0.7242
vt 0.4866 0.7229
vt 0.4885 0.7242
vt 0.4872 0.7234
vt 0.4878 0.7238
vt 0.4885 0.7242
vt 0.4782 0.7171
vt 0.4732 0.7088
vt 0.4782 0.7171
vt 0.4736 0.7094
vt 0.4782 0.7171
vt 0.4739 0.7099
vt 0.4782 0.7171
vt 0.4742 0.7105
vt 0.4782 0.7171
vt 0.4746 0.7110
vt 0.4782 0.7171
vt 0.4749 0.7116
vt 0.4782 0.7171
vt 0.4752 0.7121
vt 0.4782 0.7171
vt 0.4755 0.7127
vt 0.4782 0.7171
vt 0.4759 0.7132
vt 0.4782 0.7171
vt 0.4762 0.7138
vt 0.4782 0.7171
vt 0.4765 0.7143
vt 0.4782 0.7171
vt 0.4768 0.7149
vt 0.4782 0.7171
vt 0.4772 0.7154
vt 0.4782 0.7171
vt 0.4775 0.7160
vt 0.4778 0.7165
vt 0.4782 0.7171
vt 0.4726 0.7077
vt 0.4726 0.6988
vt 0.4726 0.7077
vt 0.4726 0.6994
vt 0.4726 0.7077
vt 0.4726 0.7000
vt 0.4726 0.7077
vt 0.4726 0.7006
vt 0.4726 0.7077
vt 0.4726 0.7012
vt 0.4726 0.7077
vt 0.4726 0.7018
vt 0.4726 0.7077
vt 0.4726 0.7024
vt 0.4726 0.7077
vt 0.4726 0.7030
vt 0.4726 0.7077
vt 0.4726 0.7036
vt 0.4726 0.7077
vt 0.4726 0.7042
vt 0.4726 0.7077
vt 0.4726 0.7048
vt 0.4726 0.7077
vt 0.4726 0.7053
vt 0.4726 0.7077
vt 0.4726 0.7059
vt 0.4726 0.7077
vt 0.4726 0.7065
vt 0.4726 0.7071
vt 0.4726 0.7077
vt 0.4726 0.6976
vt 0.4775 0.6894
vt 0.4726 0.6976
vt 0.4772 0.6899
vt 0.4726 0.6976
vt 0.4768 0.6905
vt 0.4726 0.6976
vt 0.4765 0.6910
vt 0.4726 0.6976
vt 0.4762 0.6916
vt 0.4726 0.6976
vt 0.4759 0.6921
vt 0.4726 0.6976
vt 0.4755 0.6927
vt 0.4726 0.6976
vt 0.4752 0.6932
vt 0.4726 0.6976
vt 0.4749 0.6938
vt 0.4726 0.6976
vt 0.4746 0.6943
vt 0.4726 0.6976
vt 0.4742 0.6949
vt 0.4726 0.6976
vt 0.4739 0.6954
vt 0.4726 0.6976
vt 0.4736 0.6960
vt 0.4726 0.6976
vt 0.4732 0.6965
vt 0.4729 0.6971
vt 0.4726 0.6976
vt 0.4782 0.6883
vt 0.4872 0.6820
vt 0.4782 0.6883
vt 0.4866 0.6824
vt 0.4782 0.6883
vt 0.4860 0.6828
vt 0.4782 0.6883
vt 0.4854 0.6832
vt 0.4782 0.6883
vt 0.4848 0.6837
vt 0.4782 0.6883
vt 0.4842 0.6841
vt 0.4782 0.6883
vt 0.4836 0.6845
vt 0.4782 0.6883
vt 0.4830 0.6849
vt 0.4782 0.6883
vt 0.4824 0.6853
vt 0.4782 0.6883
vt 0.4818 0.6858
vt 0.4782 0.6883
vt 0.4812 0.6862
vt 0.4782 0.6883
vt 0.4806 0.6866
vt 0.4782 0.6883
vt 0.4800 0.6870
vt 0.4782 0.6883
vt 0.4794 0.6875
vt 0.4788 0.6879
vt 0.4782 0.6883
vt 0.4885 0.6811
vt 0.5003 0.6777
vt 0.4885 0.6811
vt 0.4995 0.6780
vt 0.4885 0.6811
vt 0.4987 0.6782
vt 0.4885 0.6811
vt 0.4979 0.6784
vt 0.4885 0.6811
vt 0.4972 0.6786
vt 0.4885 0.6811
vt 0.4964 0.6789
vt 0.4885 0.6811
vt 0.4956 0.6791
vt 0.4885 0.6811
vt 0.4948 0.6793
vt 0.4885 0.6811
vt 0.4940 0.6796
vt 0.4885 0.6811
vt 0.4932 0.6798
vt 0.4885 0.6811
vt 0.4924 0.6800
vt 0.4885 0.6811
vt 0.4916 0.6802
vt 0.4885 0.6811
vt 0.4908 0.6805
vt 0.4885 0.6811
vt 0.4900 0.6807
vt 0.4892 0.6809
vt 0.4885 0.6811
vt 0.5019 0.6773
vt 0.5147 0.6773
vt 0.5019 0.6773
vt 0.5139 0.6773
vt 0.5019 0.6773
vt 0.5130 0.6773
vt 0.5019 0.6773
vt 0.5122 0.6773
vt 0.5019 0.6773
vt 0.5113 0.6773
vt 0.5019 0.6773
vt 0.5105 0.6773
vt 0.5019 0.6773
vt 0.5096 0.6773
vt 0.5019 0.6773
vt 0.5088 0.6773
vt 0.5019 0.6773
vt 0.5079 0.6773
vt 0.5019 0.6773
vt 0.5070 0.6773
vt 0.5019 0.6773
vt 0.5062 0.6773
vt 0.5019 0.6773
vt 0.5053 0.6773
vt 0.5019 0.6773
vt 0.5045 0.6773
vt 0.5019 0.6773
vt 0.5036 0.6773
vt 0.5028 0.6773
vt 0.5019 0.6773
vt 0.5165 0.6773
vt 0.5283 0.6807
vt 0.5165 0.6773
vt 0.5275 0.6805
vt 0.5165 0.6773
vt 0.5267 0.6802
vt 0.5165 0.6773
vt 0.5260 0.6800
vt 0.5165 0.6773
vt 0.5252 0.6798
vt 0.5165 0.6773
vt 0.5244 0.6796
vt 0.5165 0.6773
vt 0.5236 0.6793
vt 0.5165 0.6773
vt 0.5228 0.6791
vt 0.5165 0.6773
vt 0.5220 0.6789
vt 0.5165 0.6773
vt 0.5212 0.6786
vt 0.5165 0.6773
vt 0.5204 0.6784
vt 0.5165 0.6773
vt 0.5196 0.6782
vt 0.5165 0.6773
vt 0.5188 0.6780
vt 0.5165 0.6773
vt 0.5180 0.6777
vt 0.5173 0.6775
vt 0.5165 0.6773
vt 0.5299 0.6811
vt 0.5390 0.6874
vt 0.5299 0.6811
vt 0.5384 0.6870
vt 0.5299 0.6811
vt 0.5378 0.6866
vt 0.5299 0.6811
vt 0.5372 0.6862
vt 0.5299 0.6811
vt 0.5366 0.6858
vt 0.5299 0.6811
vt 0.5360 0.6853
vt 0.5299 0.6811
vt 0.5354 0.6849
vt 0.5299 0.6811
vt 0.5348 0.6845
vt 0.5299 0.6811
vt 0.5342 0.6841
vt 0.5299 0.6811
vt 0.5335 0.6837
vt 0.5299 0.6811
vt 0.5329 0.6832
vt 0.5299 0.6811
vt 0.5323 0.6828
vt 0.5299 0.6811
vt 0.5317 0.6824
vt 0.5299 0.6811
vt 0.5311 0.6820
vt 0.5305 0.6816
vt 0.5299 0.6811
vt 0.5402 0.6883
vt 0.5451 0.6965
vt 0.5402 0.6883
vt 0.5448 0.6960
vt 0.5402 0.6883
vt 0.5445 0.6954
vt 0.5402 0.6883
vt 0.5441 0.6949
vt 0.5402 0.6883
vt 0.5438 0.6943
vt 0.5402 0.6883
vt 0.5435 0.6938
vt 0.5402 0.6883
vt 0.5432 0.6932
vt 0.5402 0.6883
vt 0.5428 0.6927
vt 0.5402 0.6883
vt 0.5425 0.6921
vt 0.5402 0.6883
vt 0.5422 0.6916
vt 0.5402 0.6883
vt 0.5418 0.6910
vt 0.5402 0.6883
vt 0.5415 0.6905
vt 0.5402 0.6883
vt 0.5412 0.6899
vt 0.5402 0.6883
vt 0.5409 0.6894
vt 0.5405 0.6888
vt 0.5402 0.6883
vt 0.5458 0.6976
vt 0.5458 0.7065
vt 0.5458 0.6976
vt 0.5458 0.7059
vt 0.5458 0.6976
vt 0.5458 0.7053
vt 0.5458 0.6976
vt 0.5458 0.7048
vt 0.5458 0.6976
vt 0.5458 0.7042
vt 0.5458 0.6976
vt 0.5458 0.7036
vt 0.5458 0.6976
vt 0.5458 0.7030
vt 0.5458 0.6976
vt 0.5458 0.7024
vt 0.5458 0.6976
vt 0.5458 0.7018
vt 0.5458 0.6976
vt 0.5458 0.7012
vt 0.5458 0.6976
vt 0.5458 0.7006
vt 0.5458 0.6976
vt 0.5458 0.7000
vt 0.5458 0.6976
vt 0.5458 0.6994
vt 0.5458 0.6976
vt 0.5458 0.6988
vt 0.5458 0.6982
vt 0.5458 0.6976
vt 0.5458 0.7077
vt 0.5458 0.7077
vt 0.5458 0.7077
vt 0.5458 0.7077
vt 0.5458 0.7077
vt 0.5458 0.7077
vt 0.5458 0.7077
vt 0.5458 0.7077
vt 0.5458 0.7077
vt 0.5458 0.7077
vt 0.5458 0.7077
vt 0.5458 0.7077
vt 0.5458 0.7077
vt 0.5458 0.7077
vt 0.5458 0.7077
vt 0.5458 0.7077
vt 0.5458 0.7077
vt 0.5458 0.7077
vt 0.5458 0.7077
vt 0.5458 0.7077
vt 0.5458 0.7077
vt 0.5458 0.7077
vt 0.5458 0.7077
vt 0.5458 0.7077
vt 0.5458 0.7077
vt 0.5458 0.7077
vt 0.5458 0.7077
vt 0.5458 0.7077
vt 0.5458 0.7077
vt 0.5458 0.7077
vt 0.5402 0.7171
vt 0.5318 0.7223
vt 0.5402 0.7171
vt 0.5327 0.7213
vt 0.5402 0.7171
vt 0.5336 0.7203
vt 0.5402 0.7171
vt 0.5346 0.7194
vt 0.5402 0.7171
vt 0.5355 0.7184
vt 0.5402 0.7171
vt 0.5364 0.7174
vt 0.5402 0.7171
vt 0.5374 0.7164
vt 0.5402 0.7171
vt 0.5383 0.7155
vt 0.5402 0.7171
vt 0.5392 0.7145
vt 0.5402 0.7171
vt 0.5402 0.7135
vt 0.5402 0.7171
vt 0.5411 0.7126
vt 0.5402 0.7171
vt 0.5420 0.7116
vt 0.5402 0.7171
vt 0.5430 0.7106
vt 0.5402 0.7171
vt 0.5439 0.7097
vt 0.5448 0.7087
vt 0.5402 0.7171
vt 0.4885 0.6811
vt 0.4782 0.6883
vt 0.6875 0.7120
vt 0.6875 0.7019
vt 0.5019 0.6773
vt 0.4885 0.6811
vt 0.6819 0.7214
vt 0.6875 0.7120
vt 0.5165 0.6773
vt 0.5019 0.6773
vt 0.6716 0.7285
vt 0.6819 0.7214
vt 0.6302 0.7285
vt 0.6436 0.7324
vt 0.5299 0.6811
vt 0.5165 0.6773
vt 0.6582 0.7324
vt 0.6716 0.7285
vt 0.6199 0.7214
vt 0.6302 0.7285
vt 0.5402 0.6883
vt 0.5299 0.6811
vt 0.6143 0.7120
vt 0.6199 0.7214
vt 0.5458 0.6976
vt 0.5402 0.6883
vt 0.5299 0.7242
vt 0.5402 0.7171
vt 0.6143 0.7019
vt 0.6143 0.7120
vt 0.5458 0.7077
vt 0.5458 0.6976
vt 0.5165 0.7281
vt 0.5299 0.7242
vt 0.6199 0.6926
vt 0.6143 0.7019
vt 0.5019 0.7281
vt 0.5165 0.7281
vt 0.6302 0.6854
vt 0.6199 0.6926
vt 0.4885 0.7242
vt 0.5019 0.7281
vt 0.6436 0.6816
vt 0.6302 0.6854
vt 0.4782 0.7171
vt 0.4885 0.7242
vt 0.6582 0.6816
vt 0.6436 0.6816
vt 0.4726 0.7077
vt 0.4782 0.7171
vt 0.6716 0.6854
vt 0.6582 0.6816
vt 0.4726 0.6976
vt 0.4726 0.7077
vt 0.6819 0.6926
vt 0.6716 0.6854
vn 0.0000 0.0000 1.0000
vn 0.7071 -0.0000 -0.7071
vn -0.9999 0.0000 -0.0134
vn -0.9240 -0.3821 -0.0124
vn -0.9239 -0.3827 -0.0000
vn -1.0000 -0.0000 -0.0000
vn -0.7079 -0.7063 -0.0093
vn -0.3840 -0.9233 -0.0051
vn -0.3827 -0.9239 -0.0000
vn -0.7071 -0.7071 -0.0000
vn -0.0016 -1.0000 -0.0000
vn -0.0000 -1.0000 -0.0000
vn -0.7079 -0.7062 -0.0095
vn 0.3813 -0.9244 0.0050
vn 0.3827 -0.9239 -0.0000
vn -0.3841 -0.9233 -0.0052
vn 0.7062 -0.7079 0.0093
vn 0.7071 -0.7071 -0.0000
vn 0.9236 -0.3832 0.0122
vn 0.9239 -0.3827 -0.0000
vn 0.3812 -0.9244 0.0051
vn 0.9999 0.0000 0.0132
vn 1.0000 -0.0000 -0.0000
vn 0.7062 -0.7079 0.0095
vn 0.9236 0.3832 0.0122
vn 0.9239 0.3827 0.0000
vn 0.9236 -0.3832 0.0124
vn 0.7062 0.7079 0.0093
vn 0.7071 0.7071 0.0000
vn -0.0016 1.0000 -0.0000
vn -0.3840 0.9233 -0.0051
vn -0.3827 0.9239 0.0000
vn -0.0000 1.0000 0.0000
vn 0.9999 0.0000 0.0134
vn 0.3813 0.9244 0.0050
vn 0.3827 0.9239 0.0000
vn -0.7079 0.7063 -0.0093
vn -0.7071 0.7071 0.0000
vn 0.9236 0.3832 0.0124
vn -0.9240 0.3821 -0.0121
vn -0.9239 0.3827 0.0000
vn 0.7062 0.7079 0.0095
vn -0.3841 0.9233 -0.0052
vn -0.9999 0.0000 -0.0131
vn 0.3812 0.9244 0.0051
vn -0.7079 0.7062 -0.0095
vn -0.9240 -0.3821 -0.0121
vn -0.9240 0.3821 -0.0124
vn -0.5227 0.7057 -0.4782
vn -0.2841 0.9229 -0.2599
vn -0.2745 0.9234 -0.2684
vn -0.5060 0.7064 -0.4949
vn -0.5222 0.7057 -0.4787
vn -0.2838 0.9229 -0.2601
vn -0.2744 0.9234 -0.2684
vn -0.5059 0.7064 -0.4950
vn 0.6604 -0.3831 0.6458
vn 0.5051 -0.7078 0.4939
vn 0.5000 -0.7071 0.5000
vn 0.6533 -0.3827 0.6533
vn -0.0010 -1.0000 -0.0009
vn -0.2744 -0.9234 -0.2684
vn -0.2706 -0.9239 -0.2706
vn -0.6819 0.3817 -0.6239
vn -0.6607 0.3822 -0.6461
vn -0.7378 0.0000 -0.6750
vn -0.7149 0.0000 -0.6992
vn -0.6819 -0.3817 -0.6239
vn -0.6607 -0.3822 -0.6461
vn -0.5227 -0.7057 -0.4782
vn -0.5060 -0.7064 -0.4949
vn -0.2841 -0.9229 -0.2599
vn -0.2745 -0.9234 -0.2684
vn -0.0020 -1.0000 -0.0018
vn 0.2806 -0.9248 0.2567
vn 0.2727 -0.9243 0.2667
vn 0.5207 -0.7085 0.4764
vn 0.6813 -0.3836 0.6233
vn 0.7378 0.0000 0.6750
vn 0.7149 0.0000 0.6991
vn 0.6814 0.3836 0.6233
vn 0.6604 0.3831 0.6458
vn 0.5207 0.7085 0.4764
vn 0.5051 0.7078 0.4939
vn 0.2806 0.9248 0.2567
vn 0.2727 0.9243 0.2667
vn -0.0020 1.0000 -0.0018
vn -0.0010 1.0000 -0.0009
vn -0.5433 0.7057 -0.4547
vn -0.2952 0.9229 -0.2471
vn -0.5626 0.7057 -0.4305
vn -0.3057 0.9229 -0.2339
vn -0.5809 0.7057 -0.4056
vn -0.3157 0.9229 -0.2204
vn -0.5980 0.7057 -0.3799
vn -0.3250 0.9229 -0.2064
vn -0.6140 0.7057 -0.3534
vn -0.3337 0.9229 -0.1921
vn -0.6289 0.7057 -0.3261
vn -0.3418 0.9229 -0.1772
vn -0.6428 0.7057 -0.2980
vn -0.3493 0.9229 -0.1619
vn -0.6555 0.7057 -0.2689
vn -0.3562 0.9229 -0.1461
vn -0.6670 0.7057 -0.2388
vn -0.3626 0.9228 -0.1298
vn -0.6774 0.7056 -0.2078
vn -0.3682 0.9228 -0.1129
vn -0.6864 0.7056 -0.1758
vn -0.3731 0.9228 -0.0956
vn -0.6941 0.7056 -0.1427
vn -0.3773 0.9228 -0.0775
vn -0.7003 0.7056 -0.1085
vn -0.3807 0.9228 -0.0590
vn -0.7049 0.7055 -0.0733
vn -0.3833 0.9228 -0.0398
vn -0.3849 0.9227 -0.0201
vn -0.7077 0.7055 -0.0370
vn -0.7088 0.3817 -0.5932
vn -0.7340 0.3817 -0.5616
vn -0.7578 0.3817 -0.5291
vn -0.7801 0.3817 -0.4956
vn -0.8010 0.3817 -0.4610
vn -0.8205 0.3817 -0.4255
vn -0.8386 0.3817 -0.3887
vn -0.8551 0.3817 -0.3508
vn -0.8702 0.3817 -0.3116
vn -0.8836 0.3817 -0.2711
vn -0.8954 0.3816 -0.2293
vn -0.9054 0.3816 -0.1861
vn -0.9134 0.3816 -0.1415
vn -0.9194 0.3815 -0.0956
vn -0.9231 0.3815 -0.0483
vn -0.7668 0.0000 -0.6418
vn -0.7942 0.0000 -0.6077
vn -0.8199 0.0000 -0.5725
vn -0.8441 0.0000 -0.5362
vn -0.8667 0.0000 -0.4988
vn -0.8878 0.0000 -0.4603
vn -0.9073 0.0000 -0.4205
vn -0.9252 0.0000 -0.3795
vn -0.9414 0.0000 -0.3371
vn -0.9560 0.0000 -0.2933
vn -0.9687 0.0000 -0.2481
vn -0.9795 0.0000 -0.2013
vn -0.9882 0.0000 -0.1531
vn -0.9946 0.0000 -0.1034
vn -0.9986 0.0000 -0.0522
vn -0.7088 -0.3817 -0.5932
vn -0.7340 -0.3817 -0.5616
vn -0.7578 -0.3817 -0.5291
vn -0.7801 -0.3817 -0.4956
vn -0.8010 -0.3817 -0.4610
vn -0.8205 -0.3817 -0.4255
vn -0.8386 -0.3817 -0.3887
vn -0.8551 -0.3817 -0.3508
vn -0.8702 -0.3817 -0.3116
vn -0.8836 -0.3816 -0.2711
vn -0.8954 -0.3816 -0.2293
vn -0.9054 -0.3816 -0.1861
vn -0.9134 -0.3816 -0.1415
vn -0.9194 -0.3815 -0.0956
vn -0.9231 -0.3815 -0.0483
vn -0.5433 -0.7057 -0.4547
vn -0.5626 -0.7057 -0.4305
vn -0.5809 -0.7057 -0.4056
vn -0.5980 -0.7057 -0.3799
vn -0.6140 -0.7057 -0.3534
vn -0.6289 -0.7057 -0.3261
vn -0.6428 -0.7057 -0.2980
vn -0.6555 -0.7057 -0.2689
vn -0.6670 -0.7057 -0.2388
vn -0.6774 -0.7056 -0.2078
vn -0.6864 -0.7056 -0.1758
vn -0.6941 -0.7056 -0.1427
vn -0.7003 -0.7056 -0.1085
vn -0.7049 -0.7055 -0.0733
vn -0.7077 -0.7055 -0.0370
vn -0.2952 -0.9229 -0.2471
vn -0.3057 -0.9229 -0.2339
vn -0.3157 -0.9229 -0.2204
vn -0.3250 -0.9229 -0.2064
vn -0.3337 -0.9229 -0.1921
vn -0.3418 -0.9229 -0.1772
vn -0.3493 -0.9229 -0.1619
vn -0.3562 -0.9229 -0.1461
vn -0.3625 -0.9228 -0.1298
vn -0.3682 -0.9228 -0.1129
vn -0.3731 -0.9228 -0.0956
vn -0.3773 -0.9228 -0.0775
vn -0.3807 -0.9228 -0.0590
vn -0.3833 -0.9228 -0.0398
vn -0.3849 -0.9227 -0.0201
vn -0.0021 -1.0000 -0.0017
vn -0.0021 -1.0000 -0.0016
vn -0.0022 -1.0000 -0.0015
vn -0.0023 -1.0000 -0.0014
vn -0.0023 -1.0000 -0.0013
vn -0.0024 -1.0000 -0.0013
vn -0.0025 -1.0000 -0.0012
vn -0.0026 -1.0000 -0.0010
vn -0.0027 -1.0000 -0.0009
vn -0.0027 -1.0000 -0.0008
vn -0.0028 -1.0000 -0.0007
vn -0.0029 -1.0000 -0.0006
vn -0.0030 -1.0000 -0.0005
vn -0.0031 -1.0000 -0.0003
vn -0.0032 -1.0000 -0.0002
vn 0.2916 -0.9248 0.2441
vn 0.3021 -0.9248 0.2311
vn 0.3119 -0.9248 0.2177
vn 0.3211 -0.9248 0.2040
vn 0.3296 -0.9248 0.1897
vn 0.3376 -0.9248 0.1751
vn 0.3450 -0.9248 0.1599
vn 0.3518 -0.9249 0.1443
vn 0.3580 -0.9249 0.1282
vn 0.3635 -0.9249 0.1115
vn 0.3683 -0.9249 0.0943
vn 0.3723 -0.9249 0.0765
vn 0.3755 -0.9250 0.0582
vn 0.3779 -0.9250 0.0393
vn 0.3794 -0.9250 0.0198
vn 0.5412 -0.7085 0.4530
vn 0.5605 -0.7085 0.4288
vn 0.5786 -0.7085 0.4040
vn 0.5957 -0.7085 0.3784
vn 0.6117 -0.7085 0.3520
vn 0.6265 -0.7085 0.3248
vn 0.6402 -0.7085 0.2968
vn 0.6529 -0.7085 0.2678
vn 0.6644 -0.7085 0.2379
vn 0.6746 -0.7085 0.2070
vn 0.6836 -0.7086 0.1751
vn 0.6911 -0.7086 0.1421
vn 0.6972 -0.7086 0.1080
vn 0.7017 -0.7087 0.0729
vn 0.7045 -0.7087 0.0369
vn 0.7082 -0.3836 0.5927
vn 0.7334 -0.3836 0.5612
vn 0.7572 -0.3836 0.5287
vn 0.7795 -0.3836 0.4952
vn 0.8003 -0.3836 0.4607
vn 0.8198 -0.3836 0.4251
vn 0.8378 -0.3836 0.3884
vn 0.8544 -0.3836 0.3505
vn 0.8694 -0.3837 0.3113
vn 0.8828 -0.3837 0.2709
vn 0.8946 -0.3837 0.2291
vn 0.9045 -0.3837 0.1859
vn 0.9125 -0.3837 0.1414
vn 0.9185 -0.3838 0.0955
vn 0.9221 -0.3838 0.0482
vn 0.7668 0.0000 0.6418
vn 0.7942 0.0000 0.6077
vn 0.8199 0.0000 0.5725
vn 0.8441 0.0000 0.5362
vn 0.8667 0.0000 0.4988
vn 0.8878 0.0000 0.4603
vn 0.9073 0.0000 0.4205
vn 0.9252 0.0000 0.3795
vn 0.9414 0.0000 0.3371
vn 0.9560 0.0000 0.2933
vn 0.9687 0.0000 0.2481
vn 0.9795 0.0000 0.2014
vn 0.9882 0.0000 0.1531
vn 0.9946 0.0000 0.1034
vn 0.9986 0.0000 0.0523
vn 0.7082 0.3836 0.5927
vn 0.7334 0.3836 0.5612
vn 0.7572 0.3836 0.5287
vn 0.7795 0.3836 0.4952
vn 0.8003 0.3836 0.4607
vn 0.8198 0.3836 0.4251
vn 0.8378 0.3836 0.3884
vn 0.8544 0.3836 0.3505
vn 0.8694 0.3837 0.3113
vn 0.8828 0.3837 0.2709
vn 0.8946 0.3837 0.2291
vn 0.9045 0.3837 0.1859
vn 0.9125 0.3837 0.1414
vn 0.9185 0.3838 0.0955
vn 0.9221 0.3838 0.0482
vn 0.5412 0.7085 0.4530
vn 0.5605 0.7085 0.4288
vn 0.5786 0.7085 0.4040
vn 0.5957 0.7085 0.3784
vn 0.6117 0.7085 0.3520
vn 0.6265 0.7085 0.3248
vn 0.6402 0.7085 0.2968
vn 0.6529 0.7085 0.2678
vn 0.6644 0.7085 0.2379
vn 0.6746 0.7085 0.2070
vn 0.6836 0.7086 0.1751
vn 0.6911 0.7086 0.1421
vn 0.6972 0.7086 0.1080
vn 0.7017 0.7087 0.0729
vn 0.7045 0.7087 0.0369
vn 0.2916 0.9248 0.2441
vn 0.3021 0.9248 0.2311
vn 0.3118 0.9248 0.2177
vn 0.3211 0.9248 0.2040
vn 0.3296 0.9248 0.1897
vn 0.3376 0.9248 0.1751
vn 0.3450 0.9248 0.1599
vn 0.3518 0.9249 0.1443
vn 0.3580 0.9249 0.1282
vn 0.3635 0.9249 0.1115
vn 0.3683 0.9249 0.0943
vn 0.3723 0.9249 0.0765
vn 0.3756 0.9250 0.0582
vn 0.3779 0.9250 0.0393
vn 0.3794 0.9250 0.0198
vn -0.0021 1.0000 -0.0017
vn -0.0021 1.0000 -0.0016
vn -0.0022 1.0000 -0.0015
vn -0.0023 1.0000 -0.0014
vn -0.0023 1.0000 -0.0013
vn -0.0024 1.0000 -0.0013
vn -0.0025 1.0000 -0.0012
vn -0.0026 1.0000 -0.0010
vn -0.0027 1.0000 -0.0009
vn -0.0027 1.0000 -0.0008
vn -0.0028 1.0000 -0.0007
vn -0.0029 1.0000 -0.0006
vn -0.0030 1.0000 -0.0005
vn -0.0031 1.0000 -0.0003
vn -0.0032 1.0000 -0.0002
vn -0.6813 0.3817 -0.6245
vn -0.6605 0.3822 -0.6463
vn -0.7371 0.0000 -0.6757
vn -0.7147 0.0000 -0.6994
vn -0.6813 -0.3817 -0.6245
vn -0.6605 -0.3822 -0.6463
vn -0.5222 -0.7057 -0.4787
vn -0.5059 -0.7064 -0.4950
vn -0.2838 -0.9229 -0.2601
vn 0.2804 -0.9248 0.2570
vn 0.2727 -0.9243 0.2668
vn 0.5202 -0.7084 0.4769
vn 0.5049 -0.7078 0.4940
vn 0.6807 -0.3836 0.6240
vn 0.6602 -0.3831 0.6460
vn 0.7371 0.0000 0.6757
vn 0.7148 0.0000 0.6993
vn 0.6807 0.3836 0.6240
vn 0.6602 0.3831 0.6460
vn 0.5202 0.7084 0.4769
vn 0.5049 0.7078 0.4940
vn 0.2804 0.9248 0.2570
vn 0.2727 0.9243 0.2668
vn -0.5424 0.7058 -0.4557
vn -0.2947 0.9229 -0.2476
vn -0.5615 0.7058 -0.4320
vn -0.3051 0.9229 -0.2347
vn -0.5795 0.7058 -0.4075
vn -0.3149 0.9229 -0.2214
vn -0.5965 0.7057 -0.3822
vn -0.3241 0.9229 -0.2076
vn -0.6125 0.7057 -0.3560
vn -0.3328 0.9229 -0.1935
vn -0.6274 0.7057 -0.3290
vn -0.3410 0.9229 -0.1788
vn -0.6413 0.7057 -0.3010
vn -0.3486 0.9229 -0.1635
vn -0.6542 0.7057 -0.2720
vn -0.3556 0.9229 -0.1478
vn -0.6659 0.7056 -0.2419
vn -0.3619 0.9228 -0.1315
vn -0.6765 0.7056 -0.2107
vn -0.3677 0.9228 -0.1145
vn -0.6858 0.7056 -0.1784
vn -0.3728 0.9228 -0.0970
vn -0.6936 0.7056 -0.1450
vn -0.3771 0.9228 -0.0788
vn -0.7000 0.7055 -0.1104
vn -0.3806 0.9228 -0.0600
vn -0.7048 0.7055 -0.0746
vn -0.3833 0.9227 -0.0406
vn -0.3849 0.9227 -0.0205
vn -0.7077 0.7055 -0.0377
vn -0.7076 0.3817 -0.5945
vn -0.7325 0.3817 -0.5636
vn -0.7561 0.3817 -0.5316
vn -0.7782 0.3817 -0.4986
vn -0.7991 0.3817 -0.4645
vn -0.8186 0.3817 -0.4292
vn -0.8367 0.3817 -0.3927
vn -0.8535 0.3817 -0.3548
vn -0.8687 0.3817 -0.3156
vn -0.8824 0.3816 -0.2749
vn -0.8945 0.3816 -0.2328
vn -0.9048 0.3816 -0.1891
vn -0.9131 0.3816 -0.1440
vn -0.9192 0.3815 -0.0973
vn -0.9230 0.3815 -0.0492
vn -0.7656 0.0000 -0.6433
vn -0.7926 0.0000 -0.6098
vn -0.8180 0.0000 -0.5752
vn -0.8420 0.0000 -0.5394
vn -0.8645 0.0000 -0.5025
vn -0.8856 0.0000 -0.4643
vn -0.9053 0.0000 -0.4248
vn -0.9234 0.0000 -0.3839
vn -0.9399 0.0000 -0.3414
vn -0.9547 0.0000 -0.2974
vn -0.9677 0.0000 -0.2518
vn -0.9788 0.0000 -0.2046
vn -0.9878 0.0000 -0.1557
vn -0.9944 0.0000 -0.1053
vn -0.9986 0.0000 -0.0532
vn -0.7076 -0.3817 -0.5945
vn -0.7325 -0.3817 -0.5636
vn -0.7561 -0.3817 -0.5316
vn -0.7782 -0.3817 -0.4986
vn -0.7991 -0.3817 -0.4645
vn -0.8186 -0.3817 -0.4292
vn -0.8367 -0.3817 -0.3927
vn -0.8535 -0.3817 -0.3548
vn -0.8687 -0.3817 -0.3156
vn -0.8824 -0.3816 -0.2749
vn -0.8945 -0.3816 -0.2328
vn -0.9048 -0.3816 -0.1891
vn -0.9131 -0.3816 -0.1440
vn -0.9192 -0.3815 -0.0973
vn -0.9230 -0.3815 -0.0492
vn -0.5424 -0.7058 -0.4557
vn -0.5615 -0.7058 -0.4320
vn -0.5795 -0.7058 -0.4075
vn -0.5965 -0.7058 -0.3822
vn -0.6125 -0.7057 -0.3560
vn -0.6274 -0.7057 -0.3290
vn -0.6413 -0.7057 -0.3010
vn -0.6542 -0.7057 -0.2720
vn -0.6659 -0.7057 -0.2419
vn -0.6765 -0.7056 -0.2107
vn -0.6857 -0.7056 -0.1784
vn -0.6936 -0.7056 -0.1450
vn -0.7000 -0.7055 -0.1104
vn -0.7047 -0.7055 -0.0746
vn -0.7077 -0.7055 -0.0377
vn -0.2947 -0.9229 -0.2476
vn -0.3051 -0.9229 -0.2347
vn -0.3149 -0.9229 -0.2214
vn -0.3241 -0.9229 -0.2077
vn -0.3328 -0.9229 -0.1935
vn -0.3410 -0.9229 -0.1788
vn -0.3486 -0.9229 -0.1635
vn -0.3556 -0.9229 -0.1478
vn -0.3619 -0.9228 -0.1315
vn -0.3677 -0.9228 -0.1145
vn -0.3728 -0.9228 -0.0970
vn -0.3771 -0.9228 -0.0788
vn -0.3806 -0.9228 -0.0600
vn -0.3833 -0.9227 -0.0406
vn -0.3849 -0.9227 -0.0205
vn -0.0020 -1.0000 -0.0017
vn -0.0022 -1.0000 -0.0014
vn -0.0026 -1.0000 -0.0011
vn -0.0028 -1.0000 -0.0009
vn -0.0029 -1.0000 -0.0007
vn -0.0030 -1.0000 -0.0006
vn -0.0031 -1.0000 -0.0005
vn -0.0032 -1.0000 -0.0003
vn -0.0033 -1.0000 -0.0002
vn 0.2912 -0.9248 0.2447
vn 0.3015 -0.9248 0.2319
vn 0.3112 -0.9248 0.2188
vn 0.3203 -0.9248 0.2052
vn 0.3288 -0.9248 0.1911
vn 0.3368 -0.9248 0.1766
vn 0.3443 -0.9248 0.1616
vn 0.3511 -0.9249 0.1460
vn 0.3574 -0.9249 0.1298
vn 0.3630 -0.9249 0.1131
vn 0.3679 -0.9249 0.0957
vn 0.3720 -0.9250 0.0778
vn 0.3753 -0.9250 0.0592
vn 0.3778 -0.9250 0.0400
vn 0.3793 -0.9250 0.0202
vn 0.5404 -0.7084 0.4540
vn 0.5594 -0.7084 0.4303
vn 0.5773 -0.7084 0.4059
vn 0.5943 -0.7084 0.3807
vn 0.6102 -0.7084 0.3547
vn 0.6250 -0.7085 0.3277
vn 0.6388 -0.7085 0.2998
vn 0.6516 -0.7085 0.2709
vn 0.6633 -0.7085 0.2409
vn 0.6737 -0.7085 0.2099
vn 0.6829 -0.7086 0.1777
vn 0.6906 -0.7086 0.1444
vn 0.6969 -0.7087 0.1099
vn 0.7016 -0.7087 0.0743
vn 0.7044 -0.7087 0.0376
vn 0.7070 -0.3836 0.5940
vn 0.7319 -0.3836 0.5631
vn 0.7554 -0.3836 0.5312
vn 0.7776 -0.3836 0.4982
vn 0.7984 -0.3836 0.4641
vn 0.8179 -0.3836 0.4288
vn 0.8360 -0.3836 0.3923
vn 0.8527 -0.3837 0.3545
vn 0.8679 -0.3837 0.3153
vn 0.8816 -0.3837 0.2747
vn 0.8937 -0.3837 0.2326
vn 0.9039 -0.3837 0.1889
vn 0.9121 -0.3838 0.1438
vn 0.9183 -0.3838 0.0972
vn 0.9221 -0.3838 0.0492
vn 0.7656 0.0000 0.6433
vn 0.7926 0.0000 0.6098
vn 0.8180 0.0000 0.5752
vn 0.8420 0.0000 0.5394
vn 0.8645 0.0000 0.5025
vn 0.8856 0.0000 0.4643
vn 0.9053 0.0000 0.4248
vn 0.9234 0.0000 0.3839
vn 0.9399 0.0000 0.3414
vn 0.9547 0.0000 0.2974
vn 0.9677 0.0000 0.2518
vn 0.9788 0.0000 0.2046
vn 0.9878 0.0000 0.1558
vn 0.9944 0.0000 0.1053
vn 0.9986 0.0000 0.0533
vn 0.7071 0.3836 0.5940
vn 0.7319 0.3836 0.5631
vn 0.7554 0.3836 0.5312
vn 0.7776 0.3836 0.4982
vn 0.7984 0.3836 0.4641
vn 0.8179 0.3836 0.4288
vn 0.8360 0.3836 0.3923
vn 0.8527 0.3836 0.3545
vn 0.8679 0.3837 0.3153
vn 0.8816 0.3837 0.2747
vn 0.8937 0.3837 0.2326
vn 0.9039 0.3837 0.1889
vn 0.9121 0.3838 0.1438
vn 0.9183 0.3838 0.0972
vn 0.9221 0.3838 0.0492
vn 0.5404 0.7084 0.4540
vn 0.5594 0.7084 0.4303
vn 0.5773 0.7084 0.4059
vn 0.5943 0.7084 0.3807
vn 0.6102 0.7084 0.3547
vn 0.6250 0.7085 0.3277
vn 0.6389 0.7085 0.2998
vn 0.6516 0.7085 0.2709
vn 0.6633 0.7085 0.2409
vn 0.6737 0.7085 0.2099
vn 0.6829 0.7086 0.1777
vn 0.6906 0.7086 0.1444
vn 0.6969 0.7087 0.1099
vn 0.7016 0.7087 0.0743
vn 0.7044 0.7087 0.0376
vn 0.2912 0.9248 0.2447
vn 0.3015 0.9248 0.2319
vn 0.3112 0.9248 0.2188
vn 0.3203 0.9248 0.2052
vn 0.3288 0.9248 0.1911
vn 0.3368 0.9248 0.1766
vn 0.3443 0.9248 0.1616
vn 0.3511 0.9249 0.1460
vn 0.3574 0.9249 0.1298
vn 0.3630 0.9249 0.1131
vn 0.3679 0.9249 0.0957
vn 0.3720 0.9250 0.0778
vn 0.3753 0.9250 0.0592
vn 0.3778 0.9250 0.0400
vn 0.3793 0.9250 0.0202
vn -0.0020 1.0000 -0.0017
vn -0.0022 1.0000 -0.0014
vn -0.0026 1.0000 -0.0011
vn -0.0028 1.0000 -0.0009
vn -0.0029 1.0000 -0.0007
vn -0.0030 1.0000 -0.0006
vn -0.0031 1.0000 -0.0005
vn -0.0032 1.0000 -0.0003
vn -0.0033 1.0000 -0.0002
vn 0.2706 -0.9239 0.2706
vn 0.7071 -0.0000 0.7071
vn 0.6533 0.3827 0.6533
vn 0.5000 0.7071 0.5000
vn -0.2706 0.9239 -0.2706
vn 0.2706 0.9239 0.2706
vn -0.5000 0.7071 -0.5000
vn -0.6533 0.3827 -0.6533
vn -0.7071 0.0000 -0.7071
vn -0.6533 -0.3827 -0.6533
vn -0.5000 -0.7071 -0.5000
usemtl None
s off
f 33/1/1 34/2/1 35/3/1 36/4/1 37/5/1 38/6/1 39/7/1 40/8/1 41/9/1 42/10/1 43/11/1 44/12/1 45/13/1 46/14/1 47/15/1 48/16/1
f 49/17/1 50/18/1 51/19/1 52/20/1 53/21/1 54/22/1 55/23/1 56/24/1 57/25/1 58/26/1 59/27/1 60/28/1 61/29/1 62/30/1 63/31/1 64/32/1
f 609/33/2 624/34/2 623/35/2 622/36/2 621/37/2 620/38/2 619/39/2 618/40/2 617/41/2 616/42/2 615/43/2 614/44/2 613/45/2 612/46/2 611/47/2 610/48/2
f 625/49/2 640/50/2 639/51/2 638/52/2 637/53/2 636/54/2 635/55/2 634/56/2 633/57/2 632/58/2 631/59/2 630/60/2 629/61/2 628/62/2 627/63/2 626/64/2
s 1
f 21/65/3 22/66/4 54/67/5 53/21/6
f 7/68/7 8/69/8 40/70/9 39/7/10
f 8/71/8 9/72/11 41/73/12 40/8/9
f 22/74/4 23/75/13 55/76/10 54/22/5
f 9/77/11 10/78/14 42/79/15 41/9/12
f 23/80/13 24/81/16 56/82/9 55/23/10
f 10/83/14 11/84/17 43/85/18 42/10/15
f 24/86/16 25/87/11 57/88/12 56/24/9
f 11/89/17 12/90/19 44/91/20 43/11/18
f 25/92/11 26/93/21 58/94/15 57/25/12
f 12/95/19 13/96/22 45/97/23 44/12/20
f 26/98/21 27/99/24 59/100/18 58/26/15
f 13/101/22 14/102/25 46/103/26 45/13/23
f 27/104/24 28/105/27 60/106/20 59/27/18
f 14/107/25 15/108/28 47/109/29 46/14/26
f 1/110/30 2/111/31 34/112/32 33/1/33
f 28/113/27 29/114/34 61/115/23 60/28/20
f 15/116/28 16/117/35 48/118/36 47/15/29
f 2/119/31 3/120/37 35/121/38 34/2/32
f 29/122/34 30/123/39 62/124/26 61/29/23
f 16/125/35 1/126/30 33/127/33 48/16/36
f 3/128/37 4/129/40 36/130/41 35/3/38
f 30/131/39 31/132/42 63/133/29 62/30/26
f 17/134/30 18/135/43 50/136/32 49/17/33
f 4/137/40 5/138/44 37/139/6 36/4/41
f 31/140/42 32/141/45 64/142/36 63/31/29
f 18/143/43 19/144/46 51/145/38 50/18/32
f 5/146/44 6/147/47 38/148/5 37/5/6
f 32/149/45 17/150/30 49/151/33 64/32/36
f 19/152/46 20/153/48 52/154/41 51/19/38
f 6/155/47 7/156/7 39/157/10 38/6/5
f 20/158/48 21/159/3 53/160/6 52/20/41
f 128/161/49 97/162/50 66/163/51 67/164/52
f 384/165/53 353/166/54 82/167/55 83/168/56
f 76/169/57 75/170/58 619/171/59 620/172/60
f 89/173/61 88/174/62 632/175/63 633/176/12
f 144/177/64 128/178/49 67/179/52 68/180/65
f 160/181/66 144/182/64 68/183/65 69/184/67
f 176/185/68 160/186/66 69/187/67 70/188/69
f 192/189/70 176/190/68 70/191/69 71/192/71
f 208/193/72 192/194/70 71/195/71 72/196/73
f 224/197/74 208/198/72 72/199/73 73/200/61
f 240/201/75 224/202/74 73/203/61 74/204/76
f 256/205/77 240/206/75 74/207/76 75/208/58
f 272/209/78 256/210/77 75/170/58 76/169/57
f 288/211/79 272/212/78 76/213/57 77/214/80
f 304/215/81 288/216/79 77/217/80 78/218/82
f 320/219/83 304/220/81 78/221/82 79/222/84
f 336/223/85 320/224/83 79/225/84 80/226/86
f 352/227/87 336/228/85 80/229/86 65/230/88
f 97/231/50 352/232/87 65/233/88 66/234/51
f 127/235/89 98/236/90 97/162/50 128/161/49
f 126/237/91 99/238/92 98/236/90 127/235/89
f 125/239/93 100/240/94 99/238/92 126/237/91
f 124/241/95 101/242/96 100/240/94 125/239/93
f 123/243/97 102/244/98 101/242/96 124/241/95
f 122/245/99 103/246/100 102/244/98 123/243/97
f 121/247/101 104/248/102 103/246/100 122/245/99
f 120/249/103 105/250/104 104/248/102 121/247/101
f 119/251/105 106/252/106 105/250/104 120/249/103
f 118/253/107 107/254/108 106/252/106 119/251/105
f 117/255/109 108/256/110 107/254/108 118/253/107
f 116/257/111 109/258/112 108/256/110 117/255/109
f 115/259/113 110/260/114 109/258/112 116/257/111
f 114/261/115 111/262/116 110/260/114 115/259/113
f 112/263/117 111/262/116 114/261/115 113/264/118
f 2/119/31 112/263/117 113/264/118 3/120/37
f 143/265/119 127/266/89 128/178/49 144/177/64
f 142/267/120 126/268/91 127/266/89 143/265/119
f 141/269/121 125/270/93 126/268/91 142/267/120
f 140/271/122 124/272/95 125/270/93 141/269/121
f 139/273/123 123/274/97 124/272/95 140/271/122
f 138/275/124 122/276/99 123/274/97 139/273/123
f 137/277/125 121/278/101 122/276/99 138/275/124
f 136/279/126 120/280/103 121/278/101 137/277/125
f 135/281/127 119/282/105 120/280/103 136/279/126
f 134/283/128 118/284/107 119/282/105 135/281/127
f 133/285/129 117/286/109 118/284/107 134/283/128
f 132/287/130 116/288/111 117/286/109 133/285/129
f 131/289/131 115/290/113 116/288/111 132/287/130
f 130/291/132 114/292/115 115/290/113 131/289/131
f 113/293/118 114/292/115 130/291/132 129/294/133
f 3/128/37 113/293/118 129/294/133 4/129/40
f 159/295/134 143/296/119 144/182/64 160/181/66
f 158/297/135 142/298/120 143/296/119 159/295/134
f 157/299/136 141/300/121 142/298/120 158/297/135
f 156/301/137 140/302/122 141/300/121 157/299/136
f 155/303/138 139/304/123 140/302/122 156/301/137
f 154/305/139 138/306/124 139/304/123 155/303/138
f 153/307/140 137/308/125 138/306/124 154/305/139
f 152/309/141 136/310/126 137/308/125 153/307/140
f 151/311/142 135/312/127 136/310/126 152/309/141
f 150/313/143 134/314/128 135/312/127 151/311/142
f 149/315/144 133/316/129 134/314/128 150/313/143
f 148/317/145 132/318/130 133/316/129 149/315/144
f 147/319/146 131/320/131 132/318/130 148/317/145
f 146/321/147 130/322/132 131/320/131 147/319/146
f 129/323/133 130/322/132 146/321/147 145/324/148
f 4/137/40 129/323/133 145/324/148 5/138/44
f 175/325/149 159/326/134 160/186/66 176/185/68
f 174/327/150 158/328/135 159/326/134 175/325/149
f 173/329/151 157/330/136 158/328/135 174/327/150
f 172/331/152 156/332/137 157/330/136 173/329/151
f 171/333/153 155/334/138 156/332/137 172/331/152
f 170/335/154 154/336/139 155/334/138 171/333/153
f 169/337/155 153/338/140 154/336/139 170/335/154
f 168/339/156 152/340/141 153/338/140 169/337/155
f 167/341/157 151/342/142 152/340/141 168/339/156
f 166/343/158 150/344/143 151/342/142 167/341/157
f 165/345/159 149/346/144 150/344/143 166/343/158
f 164/347/160 148/348/145 149/346/144 165/345/159
f 163/349/161 147/350/146 148/348/145 164/347/160
f 162/351/162 146/352/147 147/350/146 163/349/161
f 145/353/148 146/352/147 162/351/162 161/354/163
f 5/146/44 145/353/148 161/354/163 6/147/47
f 191/355/164 175/356/149 176/190/68 192/189/70
f 190/357/165 174/358/150 175/356/149 191/355/164
f 189/359/166 173/360/151 174/358/150 190/357/165
f 188/361/167 172/362/152 173/360/151 189/359/166
f 187/363/168 171/364/153 172/362/152 188/361/167
f 186/365/169 170/366/154 171/364/153 187/363/168
f 185/367/170 169/368/155 170/366/154 186/365/169
f 184/369/171 168/370/156 169/368/155 185/367/170
f 183/371/172 167/372/157 168/370/156 184/369/171
f 182/373/173 166/374/158 167/372/157 183/371/172
f 181/375/174 165/376/159 166/374/158 182/373/173
f 180/377/175 164/378/160 165/376/159 181/375/174
f 179/379/176 163/380/161 164/378/160 180/377/175
f 178/381/177 162/382/162 163/380/161 179/379/176
f 161/383/163 162/382/162 178/381/177 177/384/178
f 6/155/47 161/383/163 177/384/178 7/156/7
f 207/385/179 191/386/164 192/194/70 208/193/72
f 206/387/180 190/388/165 191/386/164 207/385/179
f 205/389/181 189/390/166 190/388/165 206/387/180
f 204/391/182 188/392/167 189/390/166 205/389/181
f 203/393/183 187/394/168 188/392/167 204/391/182
f 202/395/184 186/396/169 187/394/168 203/393/183
f 201/397/185 185/398/170 186/396/169 202/395/184
f 200/399/186 184/400/171 185/398/170 201/397/185
f 199/401/187 183/402/172 184/400/171 200/399/186
f 198/403/188 182/404/173 183/402/172 199/401/187
f 197/405/189 181/406/174 182/404/173 198/403/188
f 196/407/190 180/408/175 181/406/174 197/405/189
f 195/409/191 179/410/176 180/408/175 196/407/190
f 194/411/192 178/412/177 179/410/176 195/409/191
f 177/413/178 178/412/177 194/411/192 193/414/193
f 7/68/7 177/413/178 193/414/193 8/69/8
f 223/415/194 207/416/179 208/198/72 224/197/74
f 222/417/195 206/418/180 207/416/179 223/415/194
f 221/419/196 205/420/181 206/418/180 222/417/195
f 220/421/197 204/422/182 205/420/181 221/419/196
f 219/423/198 203/424/183 204/422/182 220/421/197
f 218/425/199 202/426/184 203/424/183 219/423/198
f 217/427/200 201/428/185 202/426/184 218/425/199
f 216/429/201 200/430/186 201/428/185 217/427/200
f 215/431/202 199/432/187 200/430/186 216/429/201
f 214/433/203 198/434/188 199/432/187 215/431/202
f 213/435/204 197/436/189 198/434/188 214/433/203
f 212/437/205 196/438/190 197/436/189 213/435/204
f 211/439/206 195/440/191 196/438/190 212/437/205
f 210/441/207 194/442/192 195/440/191 211/439/206
f 193/443/193 194/442/192 210/441/207 209/444/208
f 8/71/8 193/443/193 209/444/208 9/72/11
f 239/445/209 223/446/194 224/202/74 240/201/75
f 238/447/210 222/448/195 223/446/194 239/445/209
f 237/449/211 221/450/196 222/448/195 238/447/210
f 236/451/212 220/452/197 221/450/196 237/449/211
f 235/453/213 219/454/198 220/452/197 236/451/212
f 234/455/214 218/456/199 219/454/198 235/453/213
f 233/457/215 217/458/200 218/456/199 234/455/214
f 232/459/216 216/460/201 217/458/200 233/457/215
f 231/461/217 215/462/202 216/460/201 232/459/216
f 230/463/218 214/464/203 215/462/202 231/461/217
f 229/465/219 213/466/204 214/464/203 230/463/218
f 228/467/220 212/468/205 213/466/204 229/465/219
f 227/469/221 211/470/206 212/468/205 228/467/220
f 226/471/222 210/472/207 211/470/206 227/469/221
f 209/473/208 210/472/207 226/471/222 225/474/223
f 9/77/11 209/473/208 225/474/223 10/78/14
f 255/475/224 239/476/209 240/206/75 256/205/77
f 254/477/225 238/478/210 239/476/209 255/475/224
f 253/479/226 237/480/211 238/478/210 254/477/225
f 252/481/227 236/482/212 237/480/211 253/479/226
f 251/483/228 235/484/213 236/482/212 252/481/227
f 250/485/229 234/486/214 235/484/213 251/483/228
f 249/487/230 233/488/215 234/486/214 250/485/229
f 248/489/231 232/490/216 233/488/215 249/487/230
f 247/491/232 231/492/217 232/490/216 248/489/231
f 246/493/233 230/494/218 231/492/217 247/491/232
f 245/495/234 229/496/219 230/494/218 246/493/233
f 244/497/235 228/498/220 229/496/219 245/495/234
f 243/499/236 227/500/221 228/498/220 244/497/235
f 242/501/237 226/502/222 227/500/221 243/499/236
f 225/503/223 226/502/222 242/501/237 241/504/238
f 10/83/14 225/503/223 241/504/238 11/84/17
f 271/505/239 255/506/224 256/210/77 272/209/78
f 270/507/240 254/508/225 255/506/224 271/505/239
f 269/509/241 253/510/226 254/508/225 270/507/240
f 268/511/242 252/512/227 253/510/226 269/509/241
f 267/513/243 251/514/228 252/512/227 268/511/242
f 266/515/244 250/516/229 251/514/228 267/513/243
f 265/517/245 249/518/230 250/516/229 266/515/244
f 264/519/246 248/520/231 249/518/230 265/517/245
f 263/521/247 247/522/232 248/520/231 264/519/246
f 262/523/248 246/524/233 247/522/232 263/521/247
f 261/525/249 245/526/234 246/524/233 262/523/248
f 260/527/250 244/528/235 245/526/234 261/525/249
f 259/529/251 243/530/236 244/528/235 260/527/250
f 258/531/252 242/532/237 243/530/236 259/529/251
f 241/533/238 242/532/237 258/531/252 257/534/253
f 11/89/17 241/533/238 257/534/253 12/90/19
f 287/535/254 271/536/239 272/212/78 288/211/79
f 286/537/255 270/538/240 271/536/239 287/535/254
f 285/539/256 269/540/241 270/538/240 286/537/255
f 284/541/257 268/542/242 269/540/241 285/539/256
f 283/543/258 267/544/243 268/542/242 284/541/257
f 282/545/259 266/546/244 267/544/243 283/543/258
f 281/547/260 265/548/245 266/546/244 282/545/259
f 280/549/261 264/550/246 265/548/245 281/547/260
f 279/551/262 263/552/247 264/550/246 280/549/261
f 278/553/263 262/554/248 263/552/247 279/551/262
f 277/555/264 261/556/249 262/554/248 278/553/263
f 276/557/265 260/558/250 261/556/249 277/555/264
f 275/559/266 259/560/251 260/558/250 276/557/265
f 274/561/267 258/562/252 259/560/251 275/559/266
f 257/563/253 258/562/252 274/561/267 273/564/268
f 12/95/19 257/563/253 273/564/268 13/96/22
f 303/565/269 287/566/254 288/216/79 304/215/81
f 302/567/270 286/568/255 287/566/254 303/565/269
f 301/569/271 285/570/256 286/568/255 302/567/270
f 300/571/272 284/572/257 285/570/256 301/569/271
f 299/573/273 283/574/258 284/572/257 300/571/272
f 298/575/274 282/576/259 283/574/258 299/573/273
f 297/577/275 281/578/260 282/576/259 298/575/274
f 296/579/276 280/580/261 281/578/260 297/577/275
f 295/581/277 279/582/262 280/580/261 296/579/276
f 294/583/278 278/584/263 279/582/262 295/581/277
f 293/585/279 277/586/264 278/584/263 294/583/278
f 292/587/280 276/588/265 277/586/264 293/585/279
f 291/589/281 275/590/266 276/588/265 292/587/280
f 290/591/282 274/592/267 275/590/266 291/589/281
f 273/593/268 274/592/267 290/591/282 289/594/283
f 13/101/22 273/593/268 289/594/283 14/102/25
f 319/595/284 303/596/269 304/220/81 320/219/83
f 318/597/285 302/598/270 303/596/269 319/595/284
f 317/599/286 301/600/271 302/598/270 318/597/285
f 316/601/287 300/602/272 301/600/271 317/599/286
f 315/603/288 299/604/273 300/602/272 316/601/287
f 314/605/289 298/606/274 299/604/273 315/603/288
f 313/607/290 297/608/275 298/606/274 314/605/289
f 312/609/291 296/610/276 297/608/275 313/607/290
f 311/611/292 295/612/277 296/610/276 312/609/291
f 310/613/293 294/614/278 295/612/277 311/611/292
f 309/615/294 293/616/279 294/614/278 310/613/293
f 308/617/295 292/618/280 293/616/279 309/615/294
f 307/619/296 291/620/281 292/618/280 308/617/295
f 306/621/297 290/622/282 291/620/281 307/619/296
f 289/623/283 290/622/282 306/621/297 305/624/298
f 14/107/25 289/623/283 305/624/298 15/108/28
f 335/625/299 319/626/284 320/224/83 336/223/85
f 334/627/300 318/628/285 319/626/284 335/625/299
f 333/629/301 317/630/286 318/628/285 334/627/300
f 332/631/302 316/632/287 317/630/286 333/629/301
f 331/633/303 315/634/288 316/632/287 332/631/302
f 330/635/304 314/636/289 315/634/288 331/633/303
f 329/637/305 313/638/290 314/636/289 330/635/304
f 328/639/306 312/640/291 313/638/290 329/637/305
f 327/641/307 311/642/292 312/640/291 328/639/306
f 326/643/308 310/644/293 311/642/292 327/641/307
f 325/645/309 309/646/294 310/644/293 326/643/308
f 324/647/310 308/648/295 309/646/294 325/645/309
f 323/649/311 307/650/296 308/648/295 324/647/310
f 322/651/312 306/652/297 307/650/296 323/649/311
f 305/653/298 306/652/297 322/651/312 321/654/313
f 15/116/28 305/653/298 321/654/313 16/117/35
f 351/655/314 335/656/299 336/228/85 352/227/87
f 350/657/315 334/658/300 335/656/299 351/655/314
f 349/659/316 333/660/301 334/658/300 350/657/315
f 348/661/317 332/662/302 333/660/301 349/659/316
f 347/663/318 331/664/303 332/662/302 348/661/317
f 346/665/319 330/666/304 331/664/303 347/663/318
f 345/667/320 329/668/305 330/666/304 346/665/319
f 344/669/321 328/670/306 329/668/305 345/667/320
f 343/671/322 327/672/307 328/670/306 344/669/321
f 342/673/323 326/674/308 327/672/307 343/671/322
f 341/675/324 325/676/309 326/674/308 342/673/323
f 340/677/325 324/678/310 325/676/309 341/675/324
f 339/679/326 323/680/311 324/678/310 340/677/325
f 338/681/327 322/682/312 323/680/311 339/679/326
f 321/683/313 322/682/312 338/681/327 337/684/328
f 16/125/35 321/683/313 337/684/328 1/126/30
f 98/685/90 351/686/314 352/232/87 97/231/50
f 99/687/92 350/688/315 351/686/314 98/685/90
f 100/689/94 349/690/316 350/688/315 99/687/92
f 101/691/96 348/692/317 349/690/316 100/689/94
f 102/693/98 347/694/318 348/692/317 101/691/96
f 103/695/100 346/696/319 347/694/318 102/693/98
f 104/697/102 345/698/320 346/696/319 103/695/100
f 105/699/104 344/700/321 345/698/320 104/697/102
f 106/701/106 343/702/322 344/700/321 105/699/104
f 107/703/108 342/704/323 343/702/322 106/701/106
f 108/705/110 341/706/324 342/704/323 107/703/108
f 109/707/112 340/708/325 341/706/324 108/705/110
f 110/709/114 339/710/326 340/708/325 109/707/112
f 111/711/116 338/712/327 339/710/326 110/709/114
f 337/713/328 338/712/327 111/711/116 112/714/117
f 1/126/30 337/713/328 112/714/117 2/111/31
f 400/715/329 384/716/53 83/717/56 84/718/330
f 416/719/331 400/720/329 84/721/330 85/722/332
f 432/723/333 416/724/331 85/725/332 86/726/334
f 448/727/335 432/728/333 86/729/334 87/730/336
f 464/731/337 448/732/335 87/733/336 88/734/62
f 480/735/74 464/736/337 88/174/62 89/173/61
f 496/737/338 480/738/74 89/739/61 90/740/339
f 512/741/340 496/742/338 90/743/339 91/744/341
f 528/745/342 512/746/340 91/747/341 92/748/343
f 544/749/344 528/750/342 92/751/343 93/752/345
f 560/753/346 544/754/344 93/755/345 94/756/347
f 576/757/348 560/758/346 94/759/347 95/760/349
f 592/761/350 576/762/348 95/763/349 96/764/351
f 608/765/87 592/766/350 96/767/351 81/768/88
f 353/769/54 608/770/87 81/771/88 82/772/55
f 383/773/352 354/774/353 353/166/54 384/165/53
f 382/775/354 355/776/355 354/774/353 383/773/352
f 381/777/356 356/778/357 355/776/355 382/775/354
f 380/779/358 357/780/359 356/778/357 381/777/356
f 379/781/360 358/782/361 357/780/359 380/779/358
f 378/783/362 359/784/363 358/782/361 379/781/360
f 377/785/364 360/786/365 359/784/363 378/783/362
f 376/787/366 361/788/367 360/786/365 377/785/364
f 375/789/368 362/790/369 361/788/367 376/787/366
f 374/791/370 363/792/371 362/790/369 375/789/368
f 373/793/372 364/794/373 363/792/371 374/791/370
f 372/795/374 365/796/375 364/794/373 373/793/372
f 371/797/376 366/798/377 365/796/375 372/795/374
f 370/799/378 367/800/379 366/798/377 371/797/376
f 368/801/380 367/800/379 370/799/378 369/802/381
f 18/143/43 368/801/380 369/802/381 19/144/46
f 399/803/382 383/804/352 384/716/53 400/715/329
f 398/805/383 382/806/354 383/804/352 399/803/382
f 397/807/384 381/808/356 382/806/354 398/805/383
f 396/809/385 380/810/358 381/808/356 397/807/384
f 395/811/386 379/812/360 380/810/358 396/809/385
f 394/813/387 378/814/362 379/812/360 395/811/386
f 393/815/388 377/816/364 378/814/362 394/813/387
f 392/817/389 376/818/366 377/816/364 393/815/388
f 391/819/390 375/820/368 376/818/366 392/817/389
f 390/821/391 374/822/370 375/820/368 391/819/390
f 389/823/392 373/824/372 374/822/370 390/821/391
f 388/825/393 372/826/374 373/824/372 389/823/392
f 387/827/394 371/828/376 372/826/374 388/825/393
f 386/829/395 370/830/378 371/828/376 387/827/394
f 369/831/381 370/830/378 386/829/395 385/832/396
f 19/152/46 369/831/381 385/832/396 20/153/48
f 415/833/397 399/834/382 400/720/329 416/719/331
f 414/835/398 398/836/383 399/834/382 415/833/397
f 413/837/399 397/838/384 398/836/383 414/835/398
f 412/839/400 396/840/385 397/838/384 413/837/399
f 411/841/401 395/842/386 396/840/385 412/839/400
f 410/843/402 394/844/387 395/842/386 411/841/401
f 409/845/403 393/846/388 394/844/387 410/843/402
f 408/847/404 392/848/389 393/846/388 409/845/403
f 407/849/405 391/850/390 392/848/389 408/847/404
f 406/851/406 390/852/391 391/850/390 407/849/405
f 405/853/407 389/854/392 390/852/391 406/851/406
f 404/855/408 388/856/393 389/854/392 405/853/407
f 403/857/409 387/858/394 388/856/393 404/855/408
f 402/859/410 386/860/395 387/858/394 403/857/409
f 385/861/396 386/860/395 402/859/410 401/862/411
f 20/158/48 385/861/396 401/862/411 21/159/3
f 431/863/412 415/864/397 416/724/331 432/723/333
f 430/865/413 414/866/398 415/864/397 431/863/412
f 429/867/414 413/868/399 414/866/398 430/865/413
f 428/869/415 412/870/400 413/868/399 429/867/414
f 427/871/416 411/872/401 412/870/400 428/869/415
f 426/873/417 410/874/402 411/872/401 427/871/416
f 425/875/418 409/876/403 410/874/402 426/873/417
f 424/877/419 408/878/404 409/876/403 425/875/418
f 423/879/420 407/880/405 408/878/404 424/877/419
f 422/881/421 406/882/406 407/880/405 423/879/420
f 421/883/422 405/884/407 406/882/406 422/881/421
f 420/885/423 404/886/408 405/884/407 421/883/422
f 419/887/424 403/888/409 404/886/408 420/885/423
f 418/889/425 402/890/410 403/888/409 419/887/424
f 401/891/411 402/890/410 418/889/425 417/892/426
f 21/65/3 401/891/411 417/892/426 22/66/4
f 447/893/427 431/894/412 432/728/333 448/727/335
f 446/895/428 430/896/413 431/894/412 447/893/427
f 445/897/429 429/898/414 430/896/413 446/895/428
f 444/899/430 428/900/415 429/898/414 445/897/429
f 443/901/431 427/902/416 428/900/415 444/899/430
f 442/903/432 426/904/417 427/902/416 443/901/431
f 441/905/433 425/906/418 426/904/417 442/903/432
f 440/907/434 424/908/419 425/906/418 441/905/433
f 439/909/435 423/910/420 424/908/419 440/907/434
f 438/911/436 422/912/421 423/910/420 439/909/435
f 437/913/437 421/914/422 422/912/421 438/911/436
f 436/915/438 420/916/423 421/914/422 437/913/437
f 435/917/439 419/918/424 420/916/423 436/915/438
f 434/919/440 418/920/425 419/918/424 435/917/439
f 417/921/426 418/920/425 434/919/440 433/922/441
f 22/74/4 417/921/426 433/922/441 23/75/13
f 463/923/442 447/924/427 448/732/335 464/731/337
f 462/925/443 446/926/428 447/924/427 463/923/442
f 461/927/444 445/928/429 446/926/428 462/925/443
f 460/929/445 444/930/430 445/928/429 461/927/444
f 459/931/446 443/932/431 444/930/430 460/929/445
f 458/933/447 442/934/432 443/932/431 459/931/446
f 457/935/448 441/936/433 442/934/432 458/933/447
f 456/937/449 440/938/434 441/936/433 457/935/448
f 455/939/450 439/940/435 440/938/434 456/937/449
f 454/941/451 438/942/436 439/940/435 455/939/450
f 453/943/452 437/944/437 438/942/436 454/941/451
f 452/945/453 436/946/438 437/944/437 453/943/452
f 451/947/454 435/948/439 436/946/438 452/945/453
f 450/949/455 434/950/440 435/948/439 451/947/454
f 433/951/441 434/950/440 450/949/455 449/952/456
f 23/80/13 433/951/441 449/952/456 24/81/16
f 479/953/457 463/954/442 464/736/337 480/735/74
f 478/955/195 462/956/443 463/954/442 479/953/457
f 477/957/196 461/958/444 462/956/443 478/955/195
f 476/959/458 460/960/445 461/958/444 477/957/196
f 475/961/198 459/962/446 460/960/445 476/959/458
f 474/963/199 458/964/447 459/962/446 475/961/198
f 473/965/200 457/966/448 458/964/447 474/963/199
f 472/967/459 456/968/449 457/966/448 473/965/200
f 471/969/202 455/970/450 456/968/449 472/967/459
f 470/971/460 454/972/451 455/970/450 471/969/202
f 469/973/461 453/974/452 454/972/451 470/971/460
f 468/975/462 452/976/453 453/974/452 469/973/461
f 467/977/463 451/978/454 452/976/453 468/975/462
f 466/979/464 450/980/455 451/978/454 467/977/463
f 449/981/456 450/980/455 466/979/464 465/982/465
f 24/86/16 449/981/456 465/982/465 25/87/11
f 495/983/466 479/984/457 480/738/74 496/737/338
f 494/985/467 478/986/195 479/984/457 495/983/466
f 493/987/468 477/988/196 478/986/195 494/985/467
f 492/989/469 476/990/458 477/988/196 493/987/468
f 491/991/470 475/992/198 476/990/458 492/989/469
f 490/993/471 474/994/199 475/992/198 491/991/470
f 489/995/472 473/996/200 474/994/199 490/993/471
f 488/997/473 472/998/459 473/996/200 489/995/472
f 487/999/474 471/1000/202 472/998/459 488/997/473
f 486/1001/475 470/1002/460 471/1000/202 487/999/474
f 485/1003/476 469/1004/461 470/1002/460 486/1001/475
f 484/1005/477 468/1006/462 469/1004/461 485/1003/476
f 483/1007/478 467/1008/463 468/1006/462 484/1005/477
f 482/1009/479 466/1010/464 467/1008/463 483/1007/478
f 465/1011/465 466/1010/464 482/1009/479 481/1012/480
f 25/92/11 465/1011/465 481/1012/480 26/93/21
f 511/1013/481 495/1014/466 496/742/338 512/741/340
f 510/1015/482 494/1016/467 495/1014/466 511/1013/481
f 509/1017/483 493/1018/468 494/1016/467 510/1015/482
f 508/1019/484 492/1020/469 493/1018/468 509/1017/483
f 507/1021/485 491/1022/470 492/1020/469 508/1019/484
f 506/1023/486 490/1024/471 491/1022/470 507/1021/485
f 505/1025/487 489/1026/472 490/1024/471 506/1023/486
f 504/1027/488 488/1028/473 489/1026/472 505/1025/487
f 503/1029/489 487/1030/474 488/1028/473 504/1027/488
f 502/1031/490 486/1032/475 487/1030/474 503/1029/489
f 501/1033/491 485/1034/476 486/1032/475 502/1031/490
f 500/1035/492 484/1036/477 485/1034/476 501/1033/491
f 499/1037/493 483/1038/478 484/1036/477 500/1035/492
f 498/1039/494 482/1040/479 483/1038/478 499/1037/493
f 481/1041/480 482/1040/479 498/1039/494 497/1042/495
f 26/98/21 481/1041/480 497/1042/495 27/99/24
f 527/1043/496 511/1044/481 512/746/340 528/745/342
f 526/1045/497 510/1046/482 511/1044/481 527/1043/496
f 525/1047/498 509/1048/483 510/1046/482 526/1045/497
f 524/1049/499 508/1050/484 509/1048/483 525/1047/498
f 523/1051/500 507/1052/485 508/1050/484 524/1049/499
f 522/1053/501 506/1054/486 507/1052/485 523/1051/500
f 521/1055/502 505/1056/487 506/1054/486 522/1053/501
f 520/1057/503 504/1058/488 505/1056/487 521/1055/502
f 519/1059/504 503/1060/489 504/1058/488 520/1057/503
f 518/1061/505 502/1062/490 503/1060/489 519/1059/504
f 517/1063/506 501/1064/491 502/1062/490 518/1061/505
f 516/1065/507 500/1066/492 501/1064/491 517/1063/506
f 515/1067/508 499/1068/493 500/1066/492 516/1065/507
f 514/1069/509 498/1070/494 499/1068/493 515/1067/508
f 497/1071/495 498/1070/494 514/1069/509 513/1072/510
f 27/104/24 497/1071/495 513/1072/510 28/105/27
f 543/1073/511 527/1074/496 528/750/342 544/749/344
f 542/1075/512 526/1076/497 527/1074/496 543/1073/511
f 541/1077/513 525/1078/498 526/1076/497 542/1075/512
f 540/1079/514 524/1080/499 525/1078/498 541/1077/513
f 539/1081/515 523/1082/500 524/1080/499 540/1079/514
f 538/1083/516 522/1084/501 523/1082/500 539/1081/515
f 537/1085/517 521/1086/502 522/1084/501 538/1083/516
f 536/1087/518 520/1088/503 521/1086/502 537/1085/517
f 535/1089/519 519/1090/504 520/1088/503 536/1087/518
f 534/1091/520 518/1092/505 519/1090/504 535/1089/519
f 533/1093/521 517/1094/506 518/1092/505 534/1091/520
f 532/1095/522 516/1096/507 517/1094/506 533/1093/521
f 531/1097/523 515/1098/508 516/1096/507 532/1095/522
f 530/1099/524 514/1100/509 515/1098/508 531/1097/523
f 513/1101/510 514/1100/509 530/1099/524 529/1102/525
f 28/113/27 513/1101/510 529/1102/525 29/114/34
f 559/1103/526 543/1104/511 544/754/344 560/753/346
f 558/1105/527 542/1106/512 543/1104/511 559/1103/526
f 557/1107/528 541/1108/513 542/1106/512 558/1105/527
f 556/1109/529 540/1110/514 541/1108/513 557/1107/528
f 555/1111/530 539/1112/515 540/1110/514 556/1109/529
f 554/1113/531 538/1114/516 539/1112/515 555/1111/530
f 553/1115/532 537/1116/517 538/1114/516 554/1113/531
f 552/1117/533 536/1118/518 537/1116/517 553/1115/532
f 551/1119/534 535/1120/519 536/1118/518 552/1117/533
f 550/1121/535 534/1122/520 535/1120/519 551/1119/534
f 549/1123/536 533/1124/521 534/1122/520 550/1121/535
f 548/1125/537 532/1126/522 533/1124/521 549/1123/536
f 547/1127/538 531/1128/523 532/1126/522 548/1125/537
f 546/1129/539 530/1130/524 531/1128/523 547/1127/538
f 529/1131/525 530/1130/524 546/1129/539 545/1132/540
f 29/122/34 529/1131/525 545/1132/540 30/123/39
f 575/1133/541 559/1134/526 560/758/346 576/757/348
f 574/1135/542 558/1136/527 559/1134/526 575/1133/541
f 573/1137/543 557/1138/528 558/1136/527 574/1135/542
f 572/1139/544 556/1140/529 557/1138/528 573/1137/543
f 571/1141/545 555/1142/530 556/1140/529 572/1139/544
f 570/1143/546 554/1144/531 555/1142/530 571/1141/545
f 569/1145/547 553/1146/532 554/1144/531 570/1143/546
f 568/1147/548 552/1148/533 553/1146/532 569/1145/547
f 567/1149/549 551/1150/534 552/1148/533 568/1147/548
f 566/1151/550 550/1152/535 551/1150/534 567/1149/549
f 565/1153/551 549/1154/536 550/1152/535 566/1151/550
f 564/1155/552 548/1156/537 549/1154/536 565/1153/551
f 563/1157/553 547/1158/538 548/1156/537 564/1155/552
f 562/1159/554 546/1160/539 547/1158/538 563/1157/553
f 545/1161/540 546/1160/539 562/1159/554 561/1162/555
f 30/131/39 545/1161/540 561/1162/555 31/132/42
f 591/1163/556 575/1164/541 576/762/348 592/761/350
f 590/1165/557 574/1166/542 575/1164/541 591/1163/556
f 589/1167/558 573/1168/543 574/1166/542 590/1165/557
f 588/1169/559 572/1170/544 573/1168/543 589/1167/558
f 587/1171/560 571/1172/545 572/1170/544 588/1169/559
f 586/1173/561 570/1174/546 571/1172/545 587/1171/560
f 585/1175/562 569/1176/547 570/1174/546 586/1173/561
f 584/1177/563 568/1178/548 569/1176/547 585/1175/562
f 583/1179/564 567/1180/549 568/1178/548 584/1177/563
f 582/1181/565 566/1182/550 567/1180/549 583/1179/564
f 581/1183/566 565/1184/551 566/1182/550 582/1181/565
f 580/1185/567 564/1186/552 565/1184/551 581/1183/566
f 579/1187/568 563/1188/553 564/1186/552 580/1185/567
f 578/1189/569 562/1190/554 563/1188/553 579/1187/568
f 561/1191/555 562/1190/554 578/1189/569 577/1192/570
f 31/140/42 561/1191/555 577/1192/570 32/141/45
f 607/1193/571 591/1194/556 592/766/350 608/765/87
f 606/1195/315 590/1196/557 591/1194/556 607/1193/571
f 605/1197/316 589/1198/558 590/1196/557 606/1195/315
f 604/1199/572 588/1200/559 589/1198/558 605/1197/316
f 603/1201/318 587/1202/560 588/1200/559 604/1199/572
f 602/1203/319 586/1204/561 587/1202/560 603/1201/318
f 601/1205/320 585/1206/562 586/1204/561 602/1203/319
f 600/1207/573 584/1208/563 585/1206/562 601/1205/320
f 599/1209/322 583/1210/564 584/1208/563 600/1207/573
f 598/1211/574 582/1212/565 583/1210/564 599/1209/322
f 597/1213/575 581/1214/566 582/1212/565 598/1211/574
f 596/1215/576 580/1216/567 581/1214/566 597/1213/575
f 595/1217/577 579/1218/568 580/1216/567 596/1215/576
f 594/1219/578 578/1220/569 579/1218/568 595/1217/577
f 577/1221/570 578/1220/569 594/1219/578 593/1222/579
f 32/149/45 577/1221/570 593/1222/579 17/150/30
f 354/1223/353 607/1224/571 608/770/87 353/769/54
f 355/1225/355 606/1226/315 607/1224/571 354/1223/353
f 356/1227/357 605/1228/316 606/1226/315 355/1225/355
f 357/1229/359 604/1230/572 605/1228/316 356/1227/357
f 358/1231/361 603/1232/318 604/1230/572 357/1229/359
f 359/1233/363 602/1234/319 603/1232/318 358/1231/361
f 360/1235/365 601/1236/320 602/1234/319 359/1233/363
f 361/1237/367 600/1238/573 601/1236/320 360/1235/365
f 362/1239/369 599/1240/322 600/1238/573 361/1237/367
f 363/1241/371 598/1242/574 599/1240/322 362/1239/369
f 364/1243/373 597/1244/575 598/1242/574 363/1241/371
f 365/1245/375 596/1246/576 597/1244/575 364/1243/373
f 366/1247/377 595/1248/577 596/1246/576 365/1245/375
f 367/1249/379 594/1250/578 595/1248/577 366/1247/377
f 593/1251/579 594/1250/578 367/1249/379 368/1252/380
f 17/150/30 593/1251/579 368/1252/380 18/135/43
f 90/740/339 89/739/61 633/1253/12 634/1254/580
f 77/214/80 76/213/57 620/1255/60 621/1256/581
f 91/744/341 90/743/339 634/1257/580 635/1258/59
f 78/218/82 77/217/80 621/1259/581 622/1260/582
f 92/748/343 91/747/341 635/1261/59 636/1262/60
f 79/222/84 78/221/82 622/1263/582 623/1264/583
f 66/234/51 65/233/88 609/1265/33 610/1266/584
f 93/752/345 92/751/343 636/1267/60 637/1268/581
f 80/226/86 79/225/84 623/1269/583 624/1270/585
f 67/164/52 66/163/51 610/1271/584 611/1272/586
f 94/756/347 93/755/345 637/1273/581 638/1274/582
f 65/230/88 80/229/86 624/34/585 609/33/33
f 68/180/65 67/179/52 611/1275/586 612/1276/587
f 95/760/349 94/759/347 638/1277/582 639/1278/583
f 82/772/55 81/771/88 625/1279/33 626/1280/584
f 69/184/67 68/183/65 612/1281/587 613/1282/588
f 96/764/351 95/763/349 639/1283/583 640/1284/585
f 83/168/56 82/167/55 626/1285/584 627/1286/586
f 70/188/69 69/187/67 613/1287/588 614/1288/589
f 81/768/88 96/767/351 640/50/585 625/49/33
f 84/718/330 83/717/56 627/1289/586 628/1290/587
f 71/192/71 70/191/69 614/1291/589 615/1292/590
f 85/722/332 84/721/330 628/1293/587 629/1294/588
f 72/196/73 71/195/71 615/1295/590 616/1296/63
f 86/726/334 85/725/332 629/1297/588 630/1298/589
f 73/200/61 72/199/73 616/1299/63 617/1300/12
f 87/730/336 86/729/334 630/1301/589 631/1302/590
f 74/204/76 73/203/61 617/1303/12 618/1304/580
f 88/734/62 87/733/336 631/1305/590 632/1306/63
f 75/208/58 74/207/76 618/1307/580 619/1308/59
