# Blender 4.5.4 LTS
# www.blender.org
g env_ruin_tube_01_lod0.001_Mesh.001
v 14.454600 14.294979 -55.744534
v 14.731262 14.294976 -64.000008
v 10.291818 6.408964 -56.173676
v 11.938644 14.602761 -56.037575
v 12.454605 14.602761 -64.000008
v 8.419437 7.658860 -56.402702
v 8.916510 7.658861 -64.000000
v 10.546421 6.408962 -64.000000
s 1
f 1 2 5 4
f 1 3 8 2
f 3 1 4 6
f 5 7 6 4
f 3 6 7 8
f 8 7 5 2
g env_ruin_tube_01_lod0.002_Mesh.014
v 14.454600 18.961384 -55.744534
v 8.916515 25.491884 -64.000000
v 12.454605 18.547993 -64.000008
v 8.419443 25.491888 -56.402699
v 11.938644 18.547995 -56.037575
v 10.291817 27.174601 -56.173668
v 10.546421 27.174599 -64.000000
v 14.731262 18.961382 -64.000008
s 1
f 11 10 15 16
f 10 11 13 12
f 13 9 14 12
f 14 9 16 15
f 14 15 10 12
f 9 13 11 16
g env_ruin_tube_01_lod0.003_Mesh.002
v -27.227612 14.338494 -30.488525
g env_ruin_tube_01_lod0.004_Mesh.003
v -10.689821 6.408961 -58.336655
v -14.852605 14.294977 -58.765797
v -9.318369 7.658861 -58.243038
v -10.546416 6.408964 -63.999989
v -14.731258 14.294980 -63.999985
v -8.916510 7.658863 -63.999989
v -12.454605 14.602762 -63.999989
v -12.837577 14.602761 -58.608162
s 1
f 18 20 25 19
f 18 19 22 21
f 21 23 20 18
f 24 23 21 22
f 23 24 25 20
f 19 25 24 22
g env_ruin_tube_01_lod0.005_Mesh.004
v -25.297974 18.812243 -32.666412
v -29.165684 18.961370 -29.165470
v -22.181499 27.174599 -30.139755
v -24.001940 18.547987 -31.615673
v -27.555849 18.547983 -27.555626
v -21.253593 25.491875 -29.387512
v -25.054049 25.491869 -25.053810
v -26.206568 27.174599 -26.206326
s 1
f 27 26 29 30
f 27 33 28 26
f 26 28 31 29
f 32 30 29 31
f 33 32 31 28
f 30 32 33 27
g env_ruin_tube_01_lod0.006_Mesh.005
v -25.297974 14.338497 -32.666412
v -22.181456 6.464373 -30.139755
v -29.165682 14.294966 -29.165470
v -24.001940 14.602757 -31.615673
v -21.253599 7.658856 -29.387512
v -27.555853 14.602750 -27.555626
v -25.054052 7.658854 -25.053810
v -26.206564 6.408955 -26.206326
s 1
f 35 34 37 38
f 34 35 41 36
f 36 39 37 34
f 39 40 38 37
f 40 39 36 41
f 41 35 38 40
g env_ruin_tube_01_lod0.007_Mesh.006
v -6.473299 6.464372 -17.404652
v -3.356787 14.338497 -14.877991
v -7.401165 7.658855 -18.156895
v -11.291732 6.408954 -11.291397
v -8.332611 14.294968 -8.332260
v -12.444247 7.658853 -12.443920
v -9.942443 14.602755 -9.942104
v -4.652817 14.602757 -15.928726
s 1
f 42 43 46 45
f 43 42 44 49
f 45 47 44 42
f 48 47 45 46
f 47 48 49 44
f 46 43 49 48
g env_ruin_tube_01_lod0.008_Mesh.007
v -3.356787 18.812243 -14.877991
v -6.473299 26.686367 -17.404652
v -8.332611 18.961372 -8.332260
v -4.652817 18.547989 -15.928726
v -7.401158 25.491879 -18.156895
v -9.942443 18.547985 -9.942104
v -12.444242 25.491871 -12.443920
v -11.291732 27.174587 -11.291397
s 1
f 50 51 57 52
f 51 50 53 54
f 52 55 53 50
f 55 56 54 53
f 56 55 52 57
f 57 51 54 56
g env_ruin_tube_01_lod0.009_Mesh.008
v -12.589808 31.359398 -22.363499
v -17.099335 31.359398 -17.099041
v -16.064953 31.359398 -25.180912
v -12.795081 29.029980 -22.529919
v -15.859680 29.029980 -25.014492
v -17.354305 29.029976 -17.354012
v -20.143993 29.029976 -20.143723
v -20.398968 31.359398 -20.398697
s 1
f 59 63 61 58
f 65 59 58 60
f 60 58 61 62
f 63 64 62 61
f 64 63 59 65
f 65 60 62 64
g env_ruin_tube_01_lod0.010_Mesh.009
v -1.972616 29.029989 -63.999992
v -2.333200 31.359446 -63.999992
v 1.972616 29.029989 -63.999996
v -2.411556 29.029989 -57.526436
v -2.519908 31.359446 -57.494423
v 1.512617 29.029989 -57.119297
v 2.121897 31.359446 -57.015900
v 2.333206 31.359446 -63.999996
s 1
f 69 70 67 66
f 68 66 67 73
f 66 68 71 69
f 71 72 70 69
f 72 71 68 73
f 70 72 73 67
g env_ruin_tube_01_lod0.011_Mesh.010
v -12.454599 18.547995 -63.999989
v -14.731256 18.961386 -63.999985
v -8.916503 25.491882 -63.999989
v -12.837571 18.547993 -58.608162
v -9.318369 25.491882 -58.243034
v -14.852601 18.961378 -58.765797
v -10.689821 27.174591 -58.336655
v -10.546416 27.174595 -63.999985
s 1
f 79 75 74 77
f 76 74 75 81
f 74 76 78 77
f 79 77 78 80
f 79 80 81 75
f 80 78 76 81
g env_ruin_tube_01_lod0.012_Mesh.011
v -17.432337 18.812246 -46.416084
v -18.610212 18.812244 -43.495544
v -15.862421 18.547995 -45.853195
v -13.678578 26.686365 -44.999756
v -12.538729 25.468075 -44.569679
v -14.954550 26.686361 -41.842430
v -13.844482 25.468065 -41.340446
v -17.102591 18.547989 -42.783531
s 1
f 83 82 84 89
f 83 87 85 82
f 82 85 86 84
f 88 86 85 87
f 89 88 87 83
f 84 86 88 89
g env_ruin_tube_01_lod0.013_Mesh.013
v -17.432337 14.338497 -46.416084
v -18.610212 14.338496 -43.495544
v -13.678585 6.464375 -44.999756
v -15.862421 14.602759 -45.853195
v -17.102591 14.602757 -42.783531
v -12.575756 7.658858 -44.535011
v -13.845471 7.658860 -41.390839
v -14.954550 6.464375 -41.842430
s 1
f 90 91 94 93
f 97 91 90 92
f 92 90 93 95
f 94 96 95 93
f 97 92 95 96
f 91 97 96 94
g env_ruin_tube_01_lod0.014_Mesh.015
v 5.241449 6.464375 -37.861046
v 3.471079 6.464373 -33.510246
v 8.995213 14.338499 -36.444714
v 4.103853 7.658858 -38.225723
v 2.409508 7.658858 -34.056519
v 7.451578 14.602757 -37.083130
v 5.583313 14.602757 -32.497650
v 7.126740 14.338499 -31.857136
s 1
f 98 99 102 101
f 105 99 98 100
f 98 101 103 100
f 104 103 101 102
f 105 100 103 104
f 99 105 104 102
g env_ruin_tube_01_lod0.015_Mesh.016
v 8.995213 18.812243 -36.444717
v 7.451572 18.547987 -37.083126
v 5.241455 26.686367 -37.861046
v 7.126740 18.812241 -31.857136
v 5.583313 18.547989 -32.497650
v 3.471079 26.686363 -33.510246
v 2.361008 25.468071 -34.012222
v 4.101601 25.468075 -38.291122
s 1
f 107 106 109 110
f 108 106 107 113
f 106 108 111 109
f 112 110 109 111
f 113 112 111 108
f 113 107 110 112
g env_ruin_tube_01_lod0.016_Mesh.017
v -2.125708 30.698435 -40.640747
v -2.377878 28.996719 -40.735893
v -6.311426 30.698439 -42.220055
v -3.703568 30.698433 -36.754662
v -3.949150 28.996717 -36.865723
v -7.779905 30.698435 -38.598011
v -7.534323 28.996719 -38.486954
v -6.059252 28.996723 -42.124908
s 1
f 115 114 117 118
f 114 115 121 116
f 114 116 119 117
f 119 120 118 117
f 121 120 119 116
f 120 121 115 118
g env_ruin_tube_01_lod0.017_Mesh.018
v 14.454600 18.961384 -55.744534
v 14.454600 14.294979 -55.744534
v 14.731262 18.961380 -64.000008
v 11.938644 18.547997 -56.037575
v 12.454605 18.547993 -64.000008
v 11.938644 14.602760 -56.037575
v 12.454605 14.602760 -64.000008
v 14.731262 14.294975 -64.000008
s 1
f 123 122 125 127
f 122 123 129 124
f 122 124 126 125
f 126 128 127 125
f 123 127 128 129
f 128 126 124 129
g env_ruin_tube_01_lod0.018_Mesh.019
v -25.297974 18.812243 -32.666412
v -29.165684 18.961370 -29.165470
v -25.297974 14.338496 -32.666412
v -24.001940 18.547987 -31.615673
v -24.001940 14.602759 -31.615673
v -27.555849 18.547983 -27.555626
v -27.555853 14.602751 -27.555626
v -29.165682 14.294966 -29.165470
s 1
f 131 135 133 130
f 131 130 132 137
f 130 133 134 132
f 135 136 134 133
f 136 135 131 137
f 137 132 134 136
g env_ruin_tube_01_lod0.019_Mesh.020
v -3.356787 14.338499 -14.877991
v -8.332611 14.294969 -8.332260
v -3.356787 18.812243 -14.877991
v -4.652817 14.602758 -15.928726
v -4.652817 18.547987 -15.928726
v -9.942443 14.602755 -9.942104
v -9.942443 18.547987 -9.942104
v -8.332611 18.961370 -8.332260
s 1
f 139 138 140 145
f 139 143 141 138
f 138 141 142 140
f 143 144 142 141
f 144 143 139 145
f 145 140 142 144
g env_ruin_tube_01_lod0.020_Mesh.021
v -6.473299 26.686369 -17.404652
v -12.589808 31.359396 -22.363499
v -11.291732 27.174589 -11.291397
v -7.401158 25.491880 -18.156895
v -12.795081 29.029982 -22.529919
v -12.444242 25.491873 -12.443920
v -17.354305 29.029974 -17.354012
v -17.099335 31.359396 -17.099041
s 1
f 146 147 153 148
f 147 146 149 150
f 148 151 149 146
f 151 152 150 149
f 152 151 148 153
f 153 147 150 152
g env_ruin_tube_01_lod0.021_Mesh.022
v -16.064953 31.359396 -25.180912
v -22.181499 27.174597 -30.139755
v -20.398968 31.359396 -20.398697
v -15.859680 29.029982 -25.014492
v -20.143993 29.029974 -20.143723
v -21.253593 25.491873 -29.387512
v -25.054049 25.491869 -25.053810
v -26.206568 27.174597 -26.206326
v -22.797148 27.810835 -22.796890
s 1
f 154 157 159 155
f 154 155 161 156
f 156 158 157 154
f 162 160 159 157 158
f 161 155 159 160
f 160 162 158 156 161
g env_ruin_tube_01_lod0.022_Mesh.023
v -1.972616 29.029991 -63.999992
v -2.333200 31.359444 -63.999992
v -8.916503 25.491882 -63.999989
v -2.411556 29.029991 -57.526436
v -2.519908 31.359444 -57.494423
v -9.318369 25.491882 -58.243034
v -10.689821 27.174591 -58.336655
v -10.546416 27.174595 -63.999985
s 1
f 166 163 164 167
f 163 165 170 164
f 165 163 166 168
f 167 169 168 166
f 169 170 165 168
f 169 167 164 170
g env_ruin_tube_01_lod0.023_Mesh.024
v 1.972616 29.029991 -63.999996
v 2.333206 31.359444 -63.999996
v 8.916515 25.491882 -64.000000
v 1.512617 29.029991 -57.119297
v 8.419443 25.491890 -56.402699
v 2.121897 31.359444 -57.015900
v 10.291817 27.174599 -56.173668
v 10.546421 27.174599 -64.000000
s 1
f 176 172 171 174
f 173 171 172 178
f 171 173 175 174
f 176 174 175 177
f 176 177 178 172
f 177 175 173 178
g env_ruin_tube_01_lod0.024_Mesh.025
v -12.454605 14.602760 -63.999989
v -14.731258 14.294979 -63.999985
v -12.454599 18.547997 -63.999989
v -12.837577 14.602760 -58.608162
v -14.852605 14.294975 -58.765797
v -12.837571 18.547993 -58.608162
v -14.852601 18.961380 -58.765797
v -14.731256 18.961388 -63.999985
s 1
f 183 180 179 182
f 181 179 180 186
f 179 181 184 182
f 184 185 183 182
f 184 181 186 185
f 183 185 186 180
g env_ruin_tube_01_lod0.025_Mesh.026
v -17.432337 18.812248 -46.416084
v -18.610212 18.812244 -43.495544
v -15.862421 18.547997 -45.853195
v -17.432337 14.338496 -46.416084
v -18.610212 14.338496 -43.495544
v -15.862421 14.602759 -45.853195
v -17.102591 14.602759 -42.783531
v -17.102591 18.547989 -42.783531
s 1
f 187 190 191 188
f 188 194 189 187
f 192 190 187 189
f 190 192 193 191
f 194 193 192 189
f 193 194 188 191
g env_ruin_tube_01_lod0.026_Mesh.027
v 8.995213 14.338500 -36.444714
v 7.126740 14.338500 -31.857136
v 8.995213 18.812243 -36.444717
v 7.451578 14.602759 -37.083130
v 7.451572 18.547987 -37.083126
v 5.583313 14.602756 -32.497650
v 5.583313 18.547987 -32.497650
v 7.126740 18.812239 -31.857136
s 1
f 195 197 202 196
f 196 200 198 195
f 199 197 195 198
f 200 201 199 198
f 201 200 196 202
f 199 201 202 197
g env_ruin_tube_01_lod0.027_Mesh.028
v 5.241455 26.686369 -37.861046
v 4.101601 25.468077 -38.291122
v -2.125708 30.698439 -40.640747
v 3.471079 26.686361 -33.510246
v 2.361008 25.468069 -34.012222
v -3.703568 30.698431 -36.754662
v -3.949150 28.996717 -36.865723
v -2.377878 28.996717 -40.735893
s 1
f 204 203 206 207
f 204 210 205 203
f 203 205 208 206
f 208 209 207 206
f 210 209 208 205
f 209 210 204 207
g env_ruin_tube_01_lod0.028_Mesh.029
v -6.311426 30.698441 -42.220055
v -6.059252 28.996725 -42.124908
v -13.678578 26.686363 -44.999756
v -7.779905 30.698439 -38.598011
v -7.534323 28.996717 -38.486954
v -14.954550 26.686361 -41.842430
v -13.844482 25.468065 -41.340446
v -12.538729 25.468075 -44.569679
s 1
f 212 211 214 215
f 212 218 213 211
f 211 213 216 214
f 216 217 215 214
f 217 216 213 218
f 217 218 212 215
g env_ruin_tube_01_lod0.029_Mesh.030
v 11.050573 10.682760 -56.375462
v 10.754076 10.682760 -54.095715
v 12.294984 14.544917 -56.213619
v 10.333443 11.051233 -56.468731
v 11.500039 14.671885 -56.317005
v 10.036945 11.051233 -54.188980
v 11.203542 14.671885 -54.037258
v 11.998487 14.544917 -53.933868
s 1
f 219 220 224 222
f 226 220 219 221
f 219 222 223 221
f 225 223 222 224
f 226 225 224 220
f 226 221 223 225
g env_ruin_tube_01_lod0.030_Mesh.031
v -13.130469 18.605827 -59.520374
v -11.886062 22.467985 -59.358532
v -13.426967 18.778605 -57.240627
v -12.335524 18.478861 -59.416988
v -12.632021 18.651638 -57.137238
v -11.168931 22.099512 -59.265263
v -11.465428 22.099512 -56.985516
v -12.182559 22.467985 -57.078785
s 1
f 227 228 232 230
f 234 228 227 229
f 231 229 227 230
f 233 231 230 232
f 228 234 233 232
f 234 229 231 233
g env_ruin_tube_01_lod0.031_Mesh.032
v 12.294984 18.605827 -56.213619
v 11.998487 18.778605 -53.933868
v 11.050577 22.467985 -56.375462
v 11.500039 18.478861 -56.317005
v 10.333447 22.099512 -56.468731
v 11.203542 18.651638 -54.037258
v 10.036949 22.099512 -54.188980
v 10.754080 22.467985 -54.095715
s 1
f 236 240 238 235
f 242 236 235 237
f 235 238 239 237
f 241 239 238 240
f 242 241 240 236
f 242 237 239 241
g env_ruin_tube_01_lod0.032_Mesh.033
v -11.886058 10.682760 -59.358532
v -13.130469 14.544917 -59.520374
v -12.182555 10.682760 -57.078781
v -11.168927 11.051233 -59.265263
v -11.465425 11.051233 -56.985516
v -12.335524 14.671885 -59.416988
v -12.632021 14.671885 -57.137238
v -13.426967 14.544917 -57.240627
s 1
f 243 244 248 246
f 250 244 243 245
f 247 245 243 246
f 249 247 246 248
f 249 248 244 250
f 250 245 247 249
g env_ruin_tube_01_lod0.033_Mesh.034
v -11.886062 22.467985 -59.358532
v -9.519052 25.753332 -59.050686
v -12.182559 22.467985 -57.078785
v -11.168931 22.099512 -59.265263
v -11.465428 22.099512 -56.985516
v -8.949934 25.179422 -58.976669
v -9.246431 25.179422 -56.696918
v -9.815549 25.753332 -56.770939
s 1
f 251 252 256 254
f 258 252 251 253
f 251 254 255 253
f 257 255 254 256
f 252 258 257 256
f 258 253 255 257
g env_ruin_tube_01_lod0.034_Mesh.035
v 11.050577 22.467985 -56.375462
v 10.754080 22.467985 -54.095715
v 8.683567 25.753332 -56.683308
v 10.333447 22.099512 -56.468731
v 8.114450 25.179422 -56.757328
v 10.036949 22.099512 -54.188980
v 7.817952 25.179422 -54.477577
v 8.387070 25.753332 -54.403561
s 1
f 266 260 259 261
f 259 262 263 261
f 265 263 262 264
f 266 265 264 260
f 263 265 266 261
g env_ruin_tube_01_lod0.035_Mesh.036
v -9.519052 25.753332 -59.050686
v -8.949934 25.179422 -58.976669
v -6.261142 28.140278 -58.626972
v -9.815549 25.753332 -56.770939
v -6.282141 28.047308 -56.304462
v -9.246431 25.179422 -56.696918
v -5.892600 27.332472 -56.286583
v -5.895745 27.417109 -58.579449
s 1
f 267 268 272 270
f 267 269 274 268
f 271 269 267 270
f 273 271 270 272
f 274 273 272 268
f 269 271 273 274
g env_ruin_tube_01_lod0.036_Mesh.037
v 8.683567 25.753332 -56.683308
v 5.425658 28.140278 -57.107021
v 8.114450 25.179422 -56.757328
v 8.387070 25.753332 -54.403561
v 7.817952 25.179422 -54.477577
v 5.265171 28.312336 -54.793083
v 4.884016 27.597500 -54.875443
v 5.060262 27.417109 -57.154545
s 1
f 280 278 275 276
f 275 277 282 276
f 278 279 277 275
f 281 279 278 280
f 280 276 282 281
f 282 277 279 281
g env_ruin_tube_01_lod0.037_Mesh.038
v 7.059526 10.682761 -38.627651
v 6.284150 10.682761 -36.463406
v 8.240889 14.544918 -38.204407
v 6.378729 11.051234 -38.871559
v 7.486219 14.671885 -38.474781
v 5.603353 11.051234 -36.707314
v 6.710843 14.671885 -36.310539
v 7.465512 14.544918 -36.040165
s 1
f 283 284 288 286
f 290 284 283 285
f 283 286 287 285
f 289 287 286 288
f 290 289 288 284
f 290 285 287 289
g env_ruin_tube_01_lod0.038_Mesh.039
v -15.896379 18.605829 -46.851990
v -14.715019 22.467987 -46.428749
v -16.671755 18.778606 -44.687744
v -15.141709 18.478863 -46.581615
v -15.917086 18.651640 -44.417374
v -14.034223 22.099514 -46.184837
v -14.809599 22.099514 -44.020596
v -15.490396 22.467987 -44.264503
s 1
f 291 292 296 294
f 298 292 291 293
f 295 293 291 294
f 297 295 294 296
f 292 298 297 296
f 298 293 295 297
g env_ruin_tube_01_lod0.039_Mesh.040
v 8.240889 18.605827 -38.204407
v 7.465512 18.778605 -36.040165
v 7.059530 22.467985 -38.627647
v 7.486219 18.478861 -38.474781
v 6.378733 22.099512 -38.871559
v 6.710843 18.651638 -36.310539
v 5.603356 22.099512 -36.707314
v 6.284154 22.467985 -36.463402
s 1
f 300 304 302 299
f 306 300 299 301
f 299 302 303 301
f 305 303 302 304
f 306 305 304 300
f 306 301 303 305
g env_ruin_tube_01_lod0.040_Mesh.041
v -14.715016 10.682761 -46.428745
v -15.896379 14.544918 -46.851990
v -15.490393 10.682761 -44.264503
v -14.034219 11.051234 -46.184837
v -14.809595 11.051234 -44.020592
v -15.141709 14.671885 -46.581615
v -15.917086 14.671885 -44.417374
v -16.671755 14.544918 -44.687744
s 1
f 307 308 312 310
f 314 308 307 309
f 311 309 307 310
f 313 311 310 312
f 313 312 308 314
f 314 309 311 313
g env_ruin_tube_01_lod0.041_Mesh.042
v -14.715019 22.467987 -46.428749
v -12.467935 25.753334 -45.623688
v -15.490396 22.467987 -44.264503
v -14.034223 22.099514 -46.184837
v -14.809599 22.099514 -44.020596
v -11.927650 25.179424 -45.430122
v -12.703028 25.179424 -43.265881
v -13.243311 25.753334 -43.459446
s 1
f 315 316 320 318
f 322 316 315 317
f 315 318 319 317
f 321 319 318 320
f 316 322 321 320
f 322 317 319 321
g env_ruin_tube_01_lod0.042_Mesh.043
v 7.059530 22.467985 -38.627647
v 6.284154 22.467985 -36.463402
v 4.812445 25.753332 -39.432705
v 6.378733 22.099512 -38.871559
v 4.272161 25.179422 -39.626270
v 5.603356 22.099512 -36.707314
v 3.496785 25.179422 -37.462029
v 4.037068 25.753332 -37.268463
s 1
f 330 324 323 325
f 323 326 327 325
f 329 327 326 328
f 330 329 328 324
f 327 329 330 325
g env_ruin_tube_01_lod0.043_Mesh.044
v -12.467935 25.753334 -45.623688
v -11.927650 25.179424 -45.430122
v -9.375087 28.140280 -44.515625
v -13.243311 25.753334 -43.459446
v -9.890401 28.047310 -42.250908
v -12.703028 25.179424 -43.265881
v -9.513611 27.332472 -42.150452
v -9.028203 27.417110 -44.391350
s 1
f 331 332 336 334
f 331 333 338 332
f 335 333 331 334
f 337 335 334 336
f 338 337 336 332
f 333 335 337 338
g env_ruin_tube_01_lod0.044_Mesh.045
v 4.812445 25.753332 -39.432705
v 1.719599 28.140278 -40.540771
v 4.272161 25.179422 -39.626270
v 4.037068 25.753332 -37.268463
v 3.496785 25.179422 -37.462029
v 1.069826 28.312336 -38.314144
v 0.714966 27.597500 -38.475815
v 1.372715 27.417109 -40.665047
s 1
f 344 342 339 340
f 339 341 346 340
f 342 343 341 339
f 345 343 342 344
f 344 340 346 345
f 346 341 343 345
g env_ruin_tube_01_lod0.045_Mesh.046
v 4.924075 10.682761 -33.191006
v 3.919261 10.682760 -31.123276
v 6.052755 14.544919 -32.642525
v 4.273638 11.051234 -33.507088
v 5.331740 14.671885 -32.992901
v 3.268824 11.051234 -31.439354
v 4.326926 14.671885 -30.925171
v 5.047941 14.544918 -30.574791
s 1
f 347 348 352 350
f 354 348 347 349
f 347 350 351 349
f 353 351 350 352
f 354 353 352 348
f 354 349 351 353
g env_ruin_tube_01_lod0.046_Mesh.047
v -17.008125 18.605829 -43.848953
v -15.879449 22.467987 -43.300468
v -18.012939 18.778605 -41.781219
v -16.287111 18.478863 -43.498573
v -17.291925 18.651638 -41.430843
v -15.229012 22.099514 -42.984390
v -16.233826 22.099512 -40.916660
v -16.884262 22.467985 -41.232742
s 1
f 355 356 360 358
f 362 356 355 357
f 359 357 355 358
f 361 359 358 360
f 356 362 361 360
f 362 357 359 361
g env_ruin_tube_01_lod0.047_Mesh.048
v 6.052755 18.605827 -32.642525
v 5.047941 18.778605 -30.574791
v 4.924078 22.467985 -33.191002
v 5.331740 18.478861 -32.992901
v 4.273641 22.099512 -33.507080
v 4.326926 18.651638 -30.925171
v 3.268826 22.099512 -31.439354
v 3.919264 22.467985 -31.123276
s 1
f 364 368 366 363
f 370 364 363 365
f 363 366 367 365
f 369 367 366 368
f 370 369 368 364
f 370 365 367 369
g env_ruin_tube_01_lod0.048_Mesh.049
v -15.879446 10.682761 -43.300468
v -17.008125 14.544917 -43.848953
v -16.884260 10.682761 -41.232738
v -15.229009 11.051234 -42.984390
v -16.233822 11.051234 -40.916660
v -16.287111 14.671885 -43.498573
v -17.291925 14.671885 -41.430843
v -18.012939 14.544917 -41.781219
s 1
f 371 372 376 374
f 378 372 371 373
f 375 373 371 374
f 377 375 374 376
f 377 376 372 378
f 378 373 375 377
g env_ruin_tube_01_lod0.049_Mesh.050
v -15.879449 22.467987 -43.300468
v -13.732573 25.753334 -42.257195
v -16.884262 22.467985 -41.232742
v -15.229012 22.099514 -42.984390
v -16.233826 22.099512 -40.916660
v -13.216383 25.179422 -42.006355
v -14.221196 25.179422 -39.938622
v -14.737386 25.753332 -40.189468
s 1
f 379 380 384 382
f 386 380 379 381
f 379 382 383 381
f 385 383 382 384
f 380 386 385 384
f 386 381 383 385
g env_ruin_tube_01_lod0.050_Mesh.051
v 4.924078 22.467985 -33.191002
v 3.919264 22.467985 -31.123276
v 2.777201 25.753332 -34.234276
v 4.273641 22.099512 -33.507080
v 2.261011 25.179422 -34.485123
v 3.268826 22.099512 -31.439354
v 1.256197 25.179422 -32.417389
v 1.772387 25.753332 -32.166550
s 1
f 394 388 387 389
f 387 390 391 389
f 393 391 390 392
f 394 393 392 388
f 391 393 394 389
g env_ruin_tube_01_lod0.051_Mesh.052
v -13.732573 25.753334 -42.257195
v -13.216383 25.179422 -42.006355
v -10.777649 28.140278 -40.821251
v -14.737386 25.753332 -40.189468
v -11.534784 28.047308 -38.625519
v -14.221196 25.179422 -39.938622
v -11.171064 27.332472 -38.484917
v -10.446234 27.417109 -40.660202
s 1
f 395 396 400 398
f 395 397 402 396
f 399 397 395 398
f 401 399 398 400
f 402 401 400 396
f 397 399 401 402
g env_ruin_tube_01_lod0.052_Mesh.053
v 2.777201 25.753332 -34.234276
v -0.177722 28.140278 -35.670219
v 2.261011 25.179422 -34.485123
v 1.772387 25.753332 -32.166550
v 1.256197 25.179422 -32.417389
v -1.064412 28.312336 -33.526894
v -1.399714 27.597500 -33.725983
v -0.509137 27.417109 -35.831276
s 1
f 408 406 403 404
f 403 405 410 404
f 406 407 405 403
f 409 407 406 408
f 408 404 410 409
f 410 405 407 409
g env_ruin_tube_01_lod0.053_Mesh.054
v -4.657692 10.682760 -17.362190
v -6.081453 10.682760 -15.557178
v -3.672418 14.544918 -16.585022
v -5.225486 11.051233 -17.810055
v -4.301823 14.671885 -17.081486
v -6.649247 11.051233 -16.005043
v -5.725584 14.671885 -15.276474
v -5.096179 14.544918 -14.780014
s 1
f 411 412 416 414
f 418 412 411 413
f 411 414 415 413
f 417 415 414 416
f 418 417 416 412
f 418 413 415 417
g env_ruin_tube_01_lod0.054_Mesh.055
v -23.803249 18.605827 -32.463875
v -22.817980 22.467985 -31.686710
v -25.227013 18.778605 -30.658863
v -23.173845 18.478861 -31.967411
v -24.597607 18.651638 -30.162399
v -22.250185 22.099512 -31.238842
v -23.673946 22.099512 -29.433830
v -24.241741 22.467985 -29.881699
s 1
f 419 420 424 422
f 426 420 419 421
f 423 421 419 422
f 425 423 422 424
f 420 426 425 424
f 426 421 423 425
g env_ruin_tube_01_lod0.055_Mesh.056
v -3.672418 18.605827 -16.585022
v -5.096179 18.778605 -14.780014
v -4.657688 22.467985 -17.362186
v -4.301823 18.478861 -17.081486
v -5.225483 22.099512 -17.810055
v -5.725584 18.651638 -15.276478
v -6.649244 22.099512 -16.005043
v -6.081450 22.467985 -15.557175
s 1
f 428 432 430 427
f 434 428 427 429
f 427 430 431 429
f 433 431 430 432
f 434 433 432 428
f 434 429 431 433
g env_ruin_tube_01_lod0.056_Mesh.057
v -22.817978 10.682761 -31.686707
v -23.803249 14.544917 -32.463875
v -24.241739 10.682760 -29.881695
v -22.250181 11.051233 -31.238838
v -23.673943 11.051233 -29.433830
v -23.173845 14.671885 -31.967411
v -24.597607 14.671885 -30.162399
v -25.227013 14.544916 -30.658863
s 1
f 435 436 440 438
f 442 436 435 437
f 439 437 435 438
f 441 439 438 440
f 441 440 436 442
f 442 437 439 441
g env_ruin_tube_01_lod0.057_Mesh.058
v -22.817980 22.467985 -31.686710
v -20.943878 25.753332 -30.208450
v -24.241741 22.467985 -29.881699
v -22.250185 22.099512 -31.238842
v -23.673946 22.099512 -29.433830
v -20.493275 25.179422 -29.853024
v -21.917036 25.179422 -28.048012
v -22.367640 25.753332 -28.403442
s 1
f 443 444 448 446
f 450 444 443 445
f 443 446 447 445
f 449 447 446 448
f 444 450 449 448
f 450 445 447 449
g env_ruin_tube_01_lod0.058_Mesh.059
v -4.657688 22.467985 -17.362186
v -6.081450 22.467985 -15.557175
v -6.531789 25.753332 -18.840446
v -5.225483 22.099512 -17.810055
v -6.982393 25.179422 -19.195877
v -6.649244 22.099512 -16.005043
v -8.406155 25.179422 -17.390865
v -7.955551 25.753332 -17.035435
s 1
f 458 452 451 453
f 451 454 455 453
f 457 455 454 456
f 458 457 456 452
f 455 457 458 453
g env_ruin_tube_01_lod0.059_Mesh.060
v -20.943878 25.753332 -30.208450
v -20.493275 25.179422 -29.853024
v -18.364399 28.140278 -28.173805
v -22.367640 25.753332 -28.403442
v -19.573586 28.047308 -26.190784
v -21.917036 25.179422 -28.048012
v -19.248348 27.332472 -25.975651
v -18.075092 27.417109 -27.945602
s 1
f 459 460 464 462
f 459 461 466 460
f 463 461 459 462
f 465 463 462 464
f 466 465 464 460
f 461 463 465 466
g env_ruin_tube_01_lod0.060_Mesh.061
v -6.531789 25.753332 -18.840446
v -9.111268 28.140278 -20.875095
v -6.982393 25.179422 -19.195877
v -7.955551 25.753332 -17.035435
v -8.406155 25.179422 -17.390865
v -10.435804 28.312336 -18.970978
v -10.720774 27.597500 -19.237164
v -9.400574 27.417109 -21.103294
s 1
f 472 470 467 468
f 467 469 474 468
f 470 471 469 467
f 473 471 470 472
f 472 468 474 473
f 474 469 471 473
g env_ruin_tube_01_lod0.061_Mesh.062
v -12.837577 14.602761 -58.608162
v -12.837571 18.547993 -58.608162
v -15.862421 14.602759 -45.853195
v -14.914835 14.294977 -61.717754
v -14.914831 18.961378 -61.717754
v -18.494190 14.294972 -45.151665
v -18.494192 18.961378 -45.151665
v -15.862421 18.547995 -45.853195
s 1
f 478 479 476 475
f 482 477 475 476
f 477 480 478 475
f 480 481 479 478
f 480 477 482 481
f 476 479 481 482
g env_ruin_tube_01_lod0.062_Mesh.063
v -17.130713 14.602762 -42.795063
v -17.130707 18.547995 -42.795059
v -23.997204 14.602761 -31.628586
v -18.129864 14.294978 -46.398708
v -18.129860 18.961380 -46.398708
v -26.716293 14.294974 -31.786373
v -26.716295 18.961378 -31.786377
v -23.997204 18.547995 -31.628586
s 1
f 486 487 484 483
f 490 485 483 484
f 485 488 486 483
f 488 489 487 486
f 488 485 490 489
f 484 487 489 490
g env_ruin_tube_01_lod0.063_Mesh.064
v -5.905779 18.961378 -11.047554
v -5.905773 14.294975 -11.047554
v 8.724640 18.961376 -33.874474
v -4.652817 18.547989 -15.928726
v -4.640471 14.602757 -15.928726
v 5.583313 18.547989 -32.497650
v 5.595659 14.602757 -32.497650
v 8.724640 14.294974 -33.874474
s 1
f 492 491 494 495
f 491 492 498 493
f 494 491 493 496
f 495 494 496 497
f 498 497 496 493
f 497 498 492 495
g env_ruin_tube_01_lod0.064_Mesh.065
v 14.516830 18.961384 -60.369671
v 14.516830 14.294979 -60.369671
v 8.724640 18.961376 -33.874474
v 11.938644 18.547995 -56.037575
v 11.938644 14.602761 -56.037575
v 7.451572 18.547987 -37.083126
v 7.451578 14.602757 -37.083130
v 8.724640 14.294974 -33.874474
s 1
f 499 500 503 502
f 500 499 501 506
f 504 501 499 502
f 505 504 502 503
f 506 501 504 505
f 503 500 506 505
g env_ruin_tube_01_lod0.065_Mesh.066
v -4.592841 28.989521 -57.814301
v -4.330983 28.187880 -57.748451
v 4.238651 28.989523 -56.928097
v -7.874183 29.395170 -42.815208
v -7.874183 28.187881 -42.815208
v -0.043923 29.395170 -39.865898
v -0.043923 28.187881 -39.865898
v 3.976793 28.187881 -56.993950
s 1
f 511 510 507 508
f 507 509 514 508
f 507 510 512 509
f 511 513 512 510
f 513 514 509 512
f 514 513 511 508
g env_ruin_tube_01_lod0.066_Mesh.067
v -9.502439 28.989523 -39.364174
v -9.274716 28.187881 -39.219093
v -1.401265 28.989525 -35.737663
v -17.347160 29.395172 -26.165688
v -17.347160 28.187883 -26.165688
v -10.846841 29.395174 -20.897171
v -10.846841 28.187885 -20.897171
v -1.628987 28.187883 -35.882744
s 1
f 519 518 515 516
f 515 517 522 516
f 515 518 520 517
f 519 521 520 518
f 521 522 517 520
f 522 521 519 516
g env_ruin_tube_01_lod0.067_Mesh.068
v -8.778167 29.981920 -41.172287
v -8.778166 33.081444 -41.172287
v -0.976462 29.981918 -37.270176
v -4.555640 29.981916 -61.250263
v -4.555643 33.081440 -61.250263
v 4.157756 29.981918 -60.838341
v 4.157756 33.081440 -60.838341
v -0.976465 33.081436 -37.270180
s 1
f 526 523 524 527
f 523 525 530 524
f 526 528 525 523
f 527 529 528 526
f 525 528 529 530
f 524 530 529 527
g env_ruin_tube_01_lod0.068_Mesh.069
v -19.998371 29.963701 -23.902512
v -19.998367 33.063225 -23.902512
v -13.576577 30.036180 -18.035629
v -8.769114 29.981918 -41.163910
v -8.769116 33.081444 -41.163910
v -0.966353 29.981920 -37.263924
v -0.966353 33.081444 -37.263924
v -13.576579 33.135696 -18.035629
s 1
f 534 531 532 535
f 531 533 538 532
f 534 536 533 531
f 535 537 536 534
f 533 536 537 538
f 532 538 537 535
g env_ruin_tube_01_lod0.069_Mesh.070
v -10.546418 6.081756 -64.000000
v -10.546418 2.802843 -64.000000
v -10.546417 6.408960 -64.000000
v -6.771218 -0.660987 -64.000000
v 10.546416 6.408963 -64.000000
v -14.633136 6.408962 -43.468052
v 4.854101 6.408966 -35.396172
v -11.145306 -0.660986 -42.023346
v -14.633137 2.802845 -43.468052
v -14.633137 6.081757 -43.468052
v 1.366271 -0.660985 -36.840881
v 6.771217 -0.660987 -64.000000
v 4.854101 2.802845 -35.396172
v 10.546416 2.802843 -64.000000
v 4.854101 6.081759 -35.396172
v 10.546416 6.081758 -64.000000
s 1
f 548 544 541 539 540 547
f 539 541 540
f 540 541 542
f 542 541 543 550
f 541 544 545 543
f 544 546 549 545
f 546 544 547
f 547 544 548
f 540 542 546 547
f 542 550 549 546
f 550 552 551 549
f 551 545 549
f 554 543 545 553 551 552
s 0
f 553 545 551
s 1
f 550 543 552
s 0
f 552 543 554
g env_ruin_tube_01_lod0.070_Mesh.071
v -14.636411 6.081758 -43.468552
v -14.636411 2.802845 -43.468552
v -14.636411 6.408962 -43.468552
v -11.148582 -0.660986 -42.023846
v 4.850827 6.408965 -35.396675
v -26.067804 6.408964 -26.262913
v -11.177711 6.408967 -11.300388
v -23.599815 -0.660984 -23.393959
v -26.269283 2.802847 -26.063427
v -26.269283 6.081759 -26.063427
v -14.023868 -0.660984 -13.818008
v 1.362997 -0.660986 -36.841381
v -11.354400 2.802847 -11.148537
v 4.850827 2.802845 -35.396675
v -11.354400 6.081761 -11.148537
v 4.850827 6.081759 -35.396675
s 1
f 564 560 557 555 556 563
f 555 557 556
f 556 557 558
f 558 557 559 566
f 557 560 561 559
f 560 562 565 561
f 562 560 563
f 563 560 564
f 556 558 562 563
f 558 566 565 562
f 566 568 567 565
f 567 561 565
f 570 559 561 569 567 568
s 0
f 569 561 567
s 1
f 566 559 568
s 0
f 568 559 570
g env_ruin_tube_01_lod0.071_Mesh.072
v -8.830180 7.281792 -53.037197
v -9.633933 6.172374 -53.106628
v -11.392218 11.090606 -53.473160
v -7.605314 7.281787 -63.860229
v -10.218043 11.090604 -64.054825
v -8.519435 6.172372 -63.928364
v -11.583761 10.614028 -64.156586
v -12.680767 10.614031 -53.574928
s 1
f 574 571 572 576
f 571 573 578 572
f 574 575 573 571
f 575 574 576 577
f 572 578 577 576
f 573 575 577 578
g env_ruin_tube_01_lod0.072_Mesh.073
v -11.618793 7.281792 -42.585884
v -12.399700 6.172375 -42.791992
v -13.866453 11.090606 -43.671432
v -8.832065 7.281787 -53.054146
v -11.397896 11.090605 -53.467827
v -9.736528 6.172372 -53.223072
v -12.733657 10.614028 -53.769958
v -15.379719 10.614031 -43.465916
s 1
f 582 579 580 584
f 579 581 586 580
f 582 583 581 579
f 583 582 584 585
f 580 586 585 584
f 581 583 585 586
g env_ruin_tube_01_lod0.073_Mesh.074
v -16.990816 7.281792 -33.092697
v -17.527891 6.172374 -33.324905
v -19.230825 11.090606 -34.441902
v -11.614942 7.281787 -42.587608
v -13.870248 11.090604 -43.671677
v -12.356930 6.172372 -42.896385
v -15.100662 10.614028 -44.279900
v -20.163586 10.614031 -34.923531
s 1
f 590 587 588 592
f 587 589 594 588
f 590 591 589 587
f 591 590 592 593
f 588 594 593 592
f 589 591 593 594
g env_ruin_tube_01_lod0.074_Mesh.075
v -24.115013 7.281793 -24.118790
v -24.682568 6.172374 -24.541592
v -25.801107 11.090605 -26.068462
v -16.987076 7.281787 -33.105328
v -19.232418 11.090604 -34.441792
v -17.773224 6.172371 -33.578220
v -20.332924 10.614028 -35.230423
v -26.720749 10.614030 -26.723335
s 1
f 598 595 596 600
f 595 597 602 596
f 598 599 597 595
f 599 598 600 601
f 596 602 601 600
f 597 599 601 602
g env_ruin_tube_01_lod0.075_Mesh.076
v 7.632711 7.326142 -64.000000
v 8.438343 6.172375 -64.000000
v 10.208000 11.090606 -64.000000
v 7.158917 7.281787 -57.215042
v 9.776714 11.090605 -57.108486
v 8.051639 6.172372 -56.817776
v 11.121909 10.614029 -56.692810
v 11.499210 10.614031 -64.000000
s 1
f 606 603 604 608
f 603 605 610 604
f 606 607 605 603
f 607 606 608 609
f 604 610 609 608
f 605 607 609 610
g env_ruin_tube_01_lod0.076_Mesh.077
v 7.164649 7.281793 -57.217125
v 8.056565 6.172374 -56.801537
v 9.806799 11.090606 -57.114246
v 2.455786 7.281787 -37.056419
v 4.469486 11.090604 -35.547691
v 3.431816 6.172372 -36.918285
v 5.933571 10.614028 -35.291077
v 11.114943 10.614031 -56.696114
s 1
f 614 611 612 616
f 611 613 618 612
f 614 615 613 611
f 615 614 616 617
f 612 618 617 616
f 613 615 617 618
g env_ruin_tube_01_lod0.077_Mesh.078
v 2.457733 7.281793 -37.060005
v 3.413553 6.172376 -36.937599
v 4.458456 11.090607 -35.539276
v -8.845946 7.281788 -18.502308
v -6.766149 11.090605 -17.006092
v -8.103958 6.172373 -18.193527
v -5.535733 10.614029 -16.397865
v 5.932693 10.614031 -35.266258
s 1
f 622 619 620 624
f 619 621 626 620
f 622 623 621 619
f 623 622 624 625
f 620 626 625 624
f 621 623 625 626
g env_ruin_tube_01_lod0.078_Mesh.079
v -8.844769 7.281794 -18.504242
v -8.113246 6.172375 -18.202034
v -6.759584 11.090607 -17.004280
v -13.220302 7.281786 -13.383850
v -11.386126 11.090605 -11.586330
v -12.519252 6.172371 -12.434334
v -10.474189 10.614028 -10.652111
v -5.537557 10.614032 -16.396538
s 1
f 630 627 628 632
f 627 629 634 628
f 630 631 629 627
f 631 630 632 633
f 628 634 633 632
f 629 631 633 634
g env_ruin_tube_01_lod0.079_Mesh.080
v -14.216152 18.961384 -2.737995
v -16.856239 27.174601 -5.984974
v -8.183022 18.961384 -8.379868
v -15.787991 18.547995 -4.724258
v -9.792862 18.547993 -9.989708
v -18.018261 25.491888 -7.470890
v -12.294674 25.491884 -12.491512
v -11.142159 27.174601 -11.338993
s 1
f 636 635 637 642
f 638 635 636 640
f 635 638 639 637
f 641 639 638 640
f 636 642 641 640
f 639 641 642 637
g env_ruin_tube_01_lod0.080_Mesh.081
v -14.216152 14.294979 -2.737995
v -8.183022 14.294976 -8.379868
v -16.856239 6.408965 -5.984978
v -15.787991 14.602760 -4.724258
v -9.792862 14.602762 -9.989708
v -18.018261 7.658859 -7.470898
v -12.294678 7.658862 -12.491520
v -11.142151 6.408962 -11.338997
s 1
f 643 644 647 646
f 643 645 650 644
f 645 643 646 648
f 647 649 648 646
f 645 648 649 650
f 650 649 647 644
g env_ruin_tube_01_lod0.081_Mesh.082
v -61.548615 14.338496 -14.353077
g env_ruin_tube_01_lod0.082_Mesh.083
v -30.163036 6.408962 -22.350697
v -32.803120 14.294977 -25.597675
v -29.259472 7.658862 -21.314735
v -26.057056 6.408964 -26.253872
v -29.016186 14.294980 -29.213001
v -24.904533 7.658864 -25.101353
v -27.406345 14.602763 -27.603165
v -31.489746 14.602761 -24.061371
s 1
f 652 654 659 653
f 652 653 656 655
f 655 657 654 652
f 658 657 655 656
f 657 658 659 654
f 653 659 658 656
g env_ruin_tube_01_lod0.083_Mesh.084
v -58.644165 18.812244 -14.528622
v -63.854584 18.961372 -14.787960
v -58.227097 27.174601 -10.538319
v -58.470711 18.547989 -12.869198
v -63.854591 18.547985 -12.511307
v -58.102882 25.491877 -9.350273
v -63.854599 25.491871 -8.973217
v -63.854607 27.174601 -10.603115
s 1
f 661 660 663 664
f 661 667 662 660
f 660 662 665 663
f 666 664 663 665
f 667 666 665 662
f 664 666 667 661
g env_ruin_tube_01_lod0.084_Mesh.085
v -58.644165 14.338498 -14.528622
v -58.227066 6.464375 -10.538288
v -63.854584 14.294967 -14.787960
v -58.470711 14.602757 -12.869198
v -58.102882 7.658857 -9.350277
v -63.854591 14.602752 -12.511307
v -63.854599 7.658854 -8.973217
v -63.854599 6.408955 -10.603111
s 1
f 669 668 671 672
f 668 669 675 670
f 670 673 671 668
f 673 674 672 671
f 674 673 670 675
f 675 669 672 674
g env_ruin_tube_01_lod0.085_Mesh.086
v -56.124802 6.464372 9.574135
v -55.707710 14.338496 13.564461
v -56.248985 7.658856 8.386124
v -63.854668 6.408955 10.489708
v -63.854675 14.294969 14.674553
v -63.854668 7.658854 8.859810
v -63.854675 14.602754 12.397903
v -55.881157 14.602758 11.905045
s 1
f 676 677 680 679
f 677 676 678 683
f 679 681 678 676
f 682 681 679 680
f 681 682 683 678
f 680 677 683 682
g env_ruin_tube_01_lod0.086_Mesh.087
v -55.707710 18.812243 13.564461
v -56.124802 26.686367 9.574135
v -63.854675 18.961372 14.674553
v -55.881157 18.547989 11.905045
v -56.248978 25.491879 8.386124
v -63.854675 18.547985 12.397903
v -63.854660 25.491871 8.859810
v -63.854668 27.174587 10.489708
s 1
f 684 685 691 686
f 685 684 687 688
f 686 689 687 684
f 689 690 688 687
f 690 689 686 691
f 691 685 688 690
g env_ruin_tube_01_lod0.087_Mesh.088
v -56.943390 31.359398 1.742676
v -63.854645 31.359398 2.276497
v -57.408478 31.359400 -2.706837
v -56.970863 29.029980 1.479851
v -57.381004 29.029982 -2.444008
v -63.854637 29.029976 1.915909
v -63.854622 29.029978 -2.029324
v -63.854622 31.359400 -2.389912
s 1
f 693 697 695 692
f 699 693 692 694
f 694 692 695 696
f 697 698 696 695
f 698 697 693 699
f 699 694 696 698
g env_ruin_tube_01_lod0.088_Mesh.089
v -19.994457 29.029989 -20.191284
v -20.249432 31.359446 -20.446259
v -17.204758 29.029989 -17.401588
v -24.882332 29.029989 -15.924168
v -24.981586 31.359446 -15.978146
v -22.395412 29.029989 -12.861469
v -22.037697 31.359446 -12.357529
v -16.949780 31.359446 -17.146610
s 1
f 703 704 701 700
f 702 700 701 707
f 700 702 705 703
f 705 706 704 703
f 706 705 702 707
f 704 706 707 701
g env_ruin_tube_01_lod0.089_Mesh.090
v -27.406345 18.547995 -27.603165
v -29.016186 18.961386 -29.212997
v -24.904530 25.491882 -25.101349
v -31.489742 18.547993 -24.061367
v -29.259476 25.491882 -21.314732
v -32.803116 18.961378 -25.597672
v -30.163036 27.174591 -22.350697
v -26.057056 27.174595 -26.253872
s 1
f 713 709 708 711
f 710 708 709 715
f 708 710 712 711
f 713 711 712 714
f 713 714 715 709
f 714 712 710 715
g env_ruin_tube_01_lod0.090_Mesh.091
v -43.359833 18.812246 -18.689259
v -46.257847 18.812244 -17.457005
v -42.647758 18.547995 -17.181133
v -41.707020 26.686365 -15.033455
v -41.205135 25.468075 -13.923351
v -44.841831 26.686363 -13.703136
v -44.411854 25.468067 -12.563244
v -45.695271 18.547989 -15.887486
s 1
f 717 716 718 723
f 717 721 719 716
f 716 719 720 718
f 722 720 719 721
f 723 722 721 717
f 718 720 722 723
g env_ruin_tube_01_lod0.091_Mesh.092
v -43.359833 14.338498 -18.689259
v -46.257847 14.338496 -17.457005
v -41.707024 6.464377 -15.033459
v -42.647758 14.602759 -17.181133
v -45.695267 14.602757 -15.887489
v -41.255829 7.658859 -13.925018
v -44.376919 7.658861 -12.599575
v -44.841831 6.464376 -13.703136
s 1
f 724 725 728 727
f 731 725 724 726
f 726 724 727 729
f 728 730 729 727
f 731 726 729 730
f 725 731 730 728
g env_ruin_tube_01_lod0.092_Mesh.093
v -33.376369 6.464374 3.392860
v -37.704689 6.464374 5.217499
v -31.723560 14.338499 7.048668
v -33.922905 7.658859 2.330597
v -38.069065 7.658859 4.080582
v -32.363640 14.602758 5.505722
v -36.927132 14.602757 7.427086
v -36.288677 14.338499 8.971367
s 1
f 732 733 736 735
f 739 733 732 734
f 732 735 737 734
f 738 737 735 736
f 739 734 737 738
f 733 739 738 736
g env_ruin_tube_01_lod0.093_Mesh.094
v -31.723553 18.812243 7.048668
v -32.363651 18.547987 5.505730
v -33.376366 26.686367 3.392860
v -36.288677 18.812241 8.971367
v -36.927132 18.547989 7.427086
v -37.704689 26.686363 5.217499
v -38.134678 25.468071 4.077606
v -33.878254 25.468075 2.282753
s 1
f 741 740 743 744
f 742 740 741 747
f 740 742 745 743
f 746 744 743 745
f 747 746 745 742
f 747 741 744 746
g env_ruin_tube_01_lod0.094_Mesh.095
v -36.620190 30.698437 -3.782055
v -36.731224 28.996721 -4.027649
v -38.463203 30.698439 -7.858547
v -40.483784 30.698435 -2.149895
v -40.578903 28.996719 -2.402081
v -42.062744 30.698437 -6.335743
v -41.967621 28.996721 -6.083561
v -38.352165 28.996725 -7.612953
s 1
f 749 748 751 752
f 748 749 755 750
f 748 750 753 751
f 753 754 752 751
f 755 754 753 750
f 754 755 749 752
g env_ruin_tube_01_lod0.095_Mesh.096
v -14.216152 18.961384 -2.737995
v -14.216152 14.294979 -2.737995
v -8.183022 18.961382 -8.379868
v -15.787991 18.547997 -4.724258
v -9.792862 18.547993 -9.989708
v -15.787991 14.602760 -4.724258
v -9.792862 14.602761 -9.989708
v -8.183022 14.294975 -8.379868
s 1
f 757 756 759 761
f 756 757 763 758
f 756 758 760 759
f 760 762 761 759
f 757 761 762 763
f 762 760 758 763
g env_ruin_tube_01_lod0.096_Mesh.097
v -58.644165 18.812244 -14.528622
v -63.854584 18.961372 -14.787960
v -58.644165 14.338496 -14.528622
v -58.470711 18.547989 -12.869198
v -58.470711 14.602759 -12.869198
v -63.854591 18.547985 -12.511307
v -63.854591 14.602752 -12.511307
v -63.854584 14.294967 -14.787960
s 1
f 765 769 767 764
f 765 764 766 771
f 764 767 768 766
f 769 770 768 767
f 770 769 765 771
f 771 766 768 770
g env_ruin_tube_01_lod0.097_Mesh.098
v -55.707710 14.338498 13.564461
v -63.854675 14.294969 14.674553
v -55.707710 18.812243 13.564461
v -55.881157 14.602758 11.905045
v -55.881157 18.547987 11.905045
v -63.854675 14.602754 12.397903
v -63.854675 18.547987 12.397903
v -63.854675 18.961370 14.674553
s 1
f 773 772 774 779
f 773 777 775 772
f 772 775 776 774
f 777 778 776 775
f 778 777 773 779
f 779 774 776 778
g env_ruin_tube_01_lod0.098_Mesh.099
v -56.124802 26.686369 9.574135
v -56.943390 31.359394 1.742676
v -63.854668 27.174589 10.489708
v -56.248978 25.491880 8.386124
v -56.970863 29.029982 1.479851
v -63.854660 25.491873 8.859810
v -63.854637 29.029974 1.915909
v -63.854645 31.359394 2.276497
s 1
f 780 781 787 782
f 781 780 783 784
f 782 785 783 780
f 785 786 784 783
f 786 785 782 787
f 787 781 784 786
g env_ruin_tube_01_lod0.099_Mesh.100
v -57.408478 31.359396 -2.706837
v -58.227097 27.174599 -10.538319
v -63.854622 31.359396 -2.389912
v -57.381004 29.029984 -2.444008
v -63.854622 29.029976 -2.029324
v -58.102882 25.491875 -9.350273
v -63.854599 25.491871 -8.973217
v -63.854607 27.174597 -10.603115
v -63.854614 27.810835 -5.781460
s 1
f 788 791 793 789
f 788 789 795 790
f 790 792 791 788
f 796 794 793 791 792
f 795 789 793 794
f 794 796 792 790 795
g env_ruin_tube_01_lod0.100_Mesh.101
v -19.994457 29.029991 -20.191284
v -20.249432 31.359442 -20.446259
v -24.904530 25.491882 -25.101349
v -24.882332 29.029991 -15.924168
v -24.981586 31.359442 -15.978146
v -29.259476 25.491882 -21.314732
v -30.163036 27.174591 -22.350697
v -26.057056 27.174595 -26.253872
s 1
f 800 797 798 801
f 797 799 804 798
f 799 797 800 802
f 801 803 802 800
f 803 804 799 802
f 803 801 798 804
g env_ruin_tube_01_lod0.101_Mesh.102
v -17.204758 29.029991 -17.401588
v -16.949780 31.359442 -17.146610
v -12.294674 25.491884 -12.491512
v -22.395412 29.029991 -12.861469
v -18.018261 25.491890 -7.470890
v -22.037697 31.359442 -12.357529
v -16.856239 27.174601 -5.984974
v -11.142159 27.174601 -11.338993
s 1
f 810 806 805 808
f 807 805 806 812
f 805 807 809 808
f 810 808 809 811
f 810 811 812 806
f 811 809 807 812
g env_ruin_tube_01_lod0.102_Mesh.103
v -27.406345 14.602761 -27.603165
v -29.016186 14.294979 -29.213001
v -27.406345 18.547997 -27.603165
v -31.489746 14.602760 -24.061371
v -32.803120 14.294975 -25.597675
v -31.489742 18.547993 -24.061367
v -32.803116 18.961380 -25.597672
v -29.016186 18.961388 -29.212997
s 1
f 817 814 813 816
f 815 813 814 820
f 813 815 818 816
f 818 819 817 816
f 818 815 820 819
f 817 819 820 814
g env_ruin_tube_01_lod0.103_Mesh.104
v -43.359833 18.812248 -18.689259
v -46.257847 18.812244 -17.457005
v -42.647758 18.547997 -17.181133
v -43.359833 14.338496 -18.689259
v -46.257847 14.338496 -17.457005
v -42.647758 14.602759 -17.181133
v -45.695267 14.602759 -15.887489
v -45.695271 18.547989 -15.887486
s 1
f 821 824 825 822
f 822 828 823 821
f 826 824 821 823
f 824 826 827 825
f 828 827 826 823
f 827 828 822 825
g env_ruin_tube_01_lod0.104_Mesh.105
v -31.723560 14.338501 7.048668
v -36.288677 14.338501 8.971367
v -31.723553 18.812243 7.048668
v -32.363640 14.602760 5.505722
v -32.363651 18.547987 5.505730
v -36.927132 14.602757 7.427086
v -36.927132 18.547987 7.427086
v -36.288677 18.812239 8.971367
s 1
f 829 831 836 830
f 830 834 832 829
f 833 831 829 832
f 834 835 833 832
f 835 834 830 836
f 833 835 836 831
g env_ruin_tube_01_lod0.105_Mesh.106
v -33.376366 26.686369 3.392860
v -33.878254 25.468077 2.282753
v -36.620190 30.698441 -3.782055
v -37.704689 26.686361 5.217499
v -38.134678 25.468069 4.077606
v -40.483784 30.698433 -2.149895
v -40.578903 28.996719 -2.402081
v -36.731224 28.996719 -4.027649
s 1
f 838 837 840 841
f 838 844 839 837
f 837 839 842 840
f 842 843 841 840
f 844 843 842 839
f 843 844 838 841
g env_ruin_tube_01_lod0.106_Mesh.107
v -38.463203 30.698441 -7.858547
v -38.352165 28.996727 -7.612953
v -41.707020 26.686363 -15.033455
v -42.062744 30.698441 -6.335743
v -41.967621 28.996719 -6.083561
v -44.841831 26.686363 -13.703136
v -44.411854 25.468067 -12.563244
v -41.205135 25.468075 -13.923351
s 1
f 846 845 848 849
f 846 852 847 845
f 845 847 850 848
f 850 851 849 848
f 851 850 847 852
f 851 852 846 849
g env_ruin_tube_01_lod0.107_Mesh.108
v -16.177029 10.682760 -5.591145
v -17.998707 10.682760 -4.188770
v -15.411541 14.544916 -4.596767
v -16.618168 11.051233 -6.164181
v -15.900543 14.671885 -5.231987
v -18.439846 11.051233 -4.761810
v -17.722225 14.671885 -3.829617
v -17.233219 14.544916 -3.194401
s 1
f 853 854 858 856
f 860 854 853 855
f 853 856 857 855
f 859 857 856 858
f 860 859 858 854
f 860 855 857 859
g env_ruin_tube_01_lod0.108_Mesh.109
v -31.051823 18.605827 -24.913509
v -30.286331 22.467985 -23.919144
v -32.873501 18.778605 -23.511139
v -30.562813 18.478861 -24.278290
v -32.384495 18.651638 -22.875923
v -29.845192 22.099512 -23.346100
v -31.666874 22.099512 -21.943733
v -32.108013 22.467985 -22.516769
s 1
f 861 862 866 864
f 868 862 861 863
f 865 863 861 864
f 867 865 864 866
f 862 868 867 866
f 868 863 865 867
g env_ruin_tube_01_lod0.109_Mesh.110
v -15.411541 18.605827 -4.596771
v -17.233219 18.778605 -3.194401
v -16.177025 22.467985 -5.591137
v -15.900543 18.478861 -5.231987
v -16.618164 22.099512 -6.164177
v -17.722225 18.651638 -3.829617
v -18.439846 22.099512 -4.761806
v -17.998707 22.467985 -4.188770
s 1
f 870 874 872 869
f 876 870 869 871
f 869 872 873 871
f 875 873 872 874
f 876 875 874 870
f 876 871 873 875
g env_ruin_tube_01_lod0.110_Mesh.111
v -30.286331 10.682760 -23.919136
v -31.051823 14.544917 -24.913509
v -32.108013 10.682760 -22.516766
v -29.845192 11.051234 -23.346096
v -31.666874 11.051233 -21.943726
v -30.562813 14.671885 -24.278290
v -32.384495 14.671885 -22.875923
v -32.873501 14.544917 -23.511139
s 1
f 877 878 882 880
f 884 878 877 879
f 881 879 877 880
f 883 881 880 882
f 883 882 878 884
f 884 879 881 883
g env_ruin_tube_01_lod0.111_Mesh.112
v -30.286331 22.467985 -23.919144
v -28.830280 25.753332 -22.027733
v -32.108013 22.467985 -22.516769
v -29.845192 22.099512 -23.346100
v -31.666874 22.099512 -21.943733
v -28.480190 25.179422 -21.572964
v -30.301876 25.179422 -20.170597
v -30.651962 25.753332 -20.625362
s 1
f 885 886 890 888
f 892 886 885 887
f 885 888 889 887
f 891 889 888 890
f 886 892 891 890
f 892 887 889 891
g env_ruin_tube_01_lod0.112_Mesh.113
v -16.177025 22.467985 -5.591137
v -17.998707 22.467985 -4.188770
v -17.633076 25.753332 -7.482548
v -16.618164 22.099512 -6.164177
v -17.983162 25.179422 -7.937313
v -18.439846 22.099512 -4.761806
v -19.804844 25.179422 -6.534946
v -19.454754 25.753332 -6.080181
s 1
f 900 894 893 895
f 893 896 897 895
f 899 897 896 898
f 900 899 898 894
f 897 899 900 895
g env_ruin_tube_01_lod0.113_Mesh.114
v -28.830280 25.753332 -22.027733
v -28.480190 25.179422 -21.572964
v -26.826202 28.140278 -19.424435
v -30.651962 25.753332 -20.625362
v -28.483315 28.047308 -17.797016
v -30.301876 25.179422 -20.170597
v -28.220509 27.332472 -17.508930
v -26.601433 27.417109 -19.132454
s 1
f 901 902 906 904
f 901 903 908 902
f 905 903 901 904
f 907 905 904 906
f 908 907 906 902
f 903 905 907 908
g env_ruin_tube_01_lod0.114_Mesh.115
v -17.633076 25.753332 -7.482548
v -19.637154 28.140278 -10.085850
v -17.983162 25.179422 -7.937313
v -19.454754 25.753332 -6.080181
v -19.804844 25.179422 -6.534946
v -21.386837 28.312336 -8.563129
v -21.598122 27.597500 -8.890881
v -19.861923 27.417109 -10.377827
s 1
f 914 912 909 910
f 909 911 916 910
f 912 913 911 909
f 915 913 912 914
f 914 910 916 915
f 916 911 913 915
g env_ruin_tube_01_lod0.115_Mesh.116
v -31.548725 10.682761 4.136368
v -33.627354 10.682761 5.118439
v -31.012653 14.544918 5.270988
v -31.857651 11.051235 3.482491
v -31.355106 14.671886 4.546173
v -33.936275 11.051235 4.464577
v -33.433727 14.671886 5.528252
v -33.091278 14.544918 6.253067
s 1
f 917 918 922 920
f 924 918 917 919
f 917 920 921 919
f 923 921 920 922
f 924 923 922 918
f 924 919 921 923
g env_ruin_tube_01_lod0.116_Mesh.117
v -41.965511 18.605829 -17.911404
v -41.429443 22.467987 -16.776779
v -44.044140 18.778606 -16.929325
v -41.623066 18.478863 -17.186584
v -43.701694 18.651640 -16.204510
v -41.120518 22.099514 -16.122913
v -43.199139 22.099514 -15.140835
v -43.508068 22.467987 -15.794701
s 1
f 925 926 930 928
f 932 926 925 927
f 929 927 925 928
f 931 929 928 930
f 926 932 931 930
f 932 927 929 931
g env_ruin_tube_01_lod0.117_Mesh.118
v -31.012653 18.605827 5.270988
v -33.091278 18.778605 6.253067
v -31.548725 22.467985 4.136368
v -31.355106 18.478861 4.546173
v -31.857647 22.099512 3.482498
v -33.433727 18.651638 5.528252
v -33.936275 22.099512 4.464577
v -33.627350 22.467985 5.118446
s 1
f 934 938 936 933
f 940 934 933 935
f 933 936 937 935
f 939 937 936 938
f 940 939 938 934
f 940 935 937 939
g env_ruin_tube_01_lod0.118_Mesh.119
v -41.429443 10.682762 -16.776772
v -41.965511 14.544919 -17.911404
v -43.508068 10.682762 -15.794697
v -41.120514 11.051235 -16.122910
v -43.199142 11.051234 -15.140831
v -41.623066 14.671885 -17.186584
v -43.701694 14.671885 -16.204510
v -44.044140 14.544919 -16.929325
s 1
f 941 942 946 944
f 948 942 941 943
f 945 943 941 944
f 947 945 944 946
f 947 946 942 948
f 948 943 945 947
g env_ruin_tube_01_lod0.119_Mesh.120
v -41.429443 22.467987 -16.776779
v -40.409779 25.753334 -14.618587
v -43.508068 22.467987 -15.794701
v -41.120518 22.099514 -16.122913
v -43.199139 22.099514 -15.140835
v -40.164612 25.179424 -14.099678
v -42.243237 25.179424 -13.117603
v -42.488403 25.753334 -13.636513
s 1
f 949 950 954 952
f 956 950 949 951
f 949 952 953 951
f 955 953 952 954
f 950 956 955 954
f 956 951 953 955
g env_ruin_tube_01_lod0.120_Mesh.121
v -31.548725 22.467985 4.136368
v -33.627350 22.467985 5.118446
v -32.568394 25.753332 1.978172
v -31.857647 22.099512 3.482498
v -32.813557 25.179422 1.459267
v -33.936275 22.099512 4.464577
v -34.892181 25.179422 2.441338
v -34.647015 25.753332 2.960251
s 1
f 964 958 957 959
f 957 960 961 959
f 963 961 960 962
f 964 963 962 958
f 961 963 964 959
g env_ruin_tube_01_lod0.121_Mesh.122
v -40.409779 25.753334 -14.618587
v -40.164612 25.179424 -14.099678
v -39.006325 28.140280 -11.648094
v -42.488403 25.753334 -13.636513
v -40.972099 28.047310 -10.411079
v -42.243237 25.179424 -13.117603
v -40.776703 27.332474 -10.073616
v -38.848915 27.417110 -11.314934
s 1
f 965 966 970 968
f 965 967 972 966
f 969 967 965 968
f 971 969 968 970
f 972 971 970 966
f 967 969 971 972
g env_ruin_tube_01_lod0.122_Mesh.123
v -32.568394 25.753332 1.978172
v -33.971840 28.140280 -0.992317
v -32.813557 25.179422 1.459267
v -34.647015 25.753332 2.960251
v -34.892181 25.179422 2.441338
v -36.005764 28.312338 0.122688
v -36.142368 27.597502 -0.242554
v -34.129250 27.417110 -1.325481
s 1
f 978 976 973 974
f 973 975 980 974
f 976 977 975 973
f 979 977 976 978
f 978 974 980 979
f 980 975 977 979
g env_ruin_tube_01_lod0.123_Mesh.124
v -36.903004 10.682761 6.470665
v -39.075619 10.682761 7.222252
v -36.492741 14.544920 7.656586
v -37.139431 11.051235 5.787231
v -36.754826 14.671886 6.899002
v -39.312046 11.051235 6.538826
v -38.927437 14.671886 7.650597
v -38.665359 14.544920 8.408188
s 1
f 981 982 986 984
f 988 982 981 983
f 981 984 985 983
f 987 985 984 986
f 988 987 986 982
f 988 983 985 987
g env_ruin_tube_01_lod0.124_Mesh.125
v -44.875103 18.605829 -16.574059
v -44.464848 22.467987 -15.388126
v -47.047722 18.778606 -15.822460
v -44.613026 18.478863 -15.816471
v -46.785648 18.651640 -15.064873
v -44.228420 22.099514 -14.704697
v -46.401035 22.099514 -13.953102
v -46.637459 22.467987 -14.636536
s 1
f 989 990 994 992
f 996 990 989 991
f 993 991 989 992
f 995 993 992 994
f 990 996 995 994
f 996 991 993 995
g env_ruin_tube_01_lod0.125_Mesh.126
v -36.492741 18.605827 7.656586
v -38.665359 18.778605 8.408188
v -36.903004 22.467985 6.470665
v -36.754826 18.478861 6.899002
v -37.139431 22.099512 5.787231
v -38.927437 18.651638 7.650597
v -39.312046 22.099512 6.538826
v -39.075619 22.467985 7.222252
s 1
f 998 1002 1000 997
f 1004 998 997 999
f 997 1000 1001 999
f 1003 1001 1000 1002
f 1004 1003 1002 998
f 1004 999 1001 1003
g env_ruin_tube_01_lod0.126_Mesh.127
v -44.464844 10.682762 -15.388126
v -44.875103 14.544917 -16.574059
v -46.637463 10.682762 -14.636524
v -44.228416 11.051234 -14.704693
v -46.401035 11.051234 -13.953098
v -44.613026 14.671885 -15.816471
v -46.785648 14.671885 -15.064873
v -47.047722 14.544917 -15.822460
s 1
f 1005 1006 1010 1008
f 1012 1006 1005 1007
f 1009 1007 1005 1008
f 1011 1009 1008 1010
f 1011 1010 1006 1012
f 1012 1007 1009 1011
g env_ruin_tube_01_lod0.127_Mesh.128
v -44.464848 22.467987 -15.388126
v -43.684479 25.753334 -13.132351
v -46.637459 22.467987 -14.636536
v -44.228420 22.099514 -14.704697
v -46.401035 22.099514 -13.953102
v -43.496849 25.179424 -12.589977
v -45.669468 25.179424 -11.838379
v -45.857094 25.753334 -12.380756
s 1
f 1013 1014 1018 1016
f 1020 1014 1013 1015
f 1013 1016 1017 1015
f 1019 1017 1016 1018
f 1014 1020 1019 1018
f 1020 1015 1017 1019
g env_ruin_tube_01_lod0.128_Mesh.129
v -36.903004 22.467985 6.470665
v -39.075619 22.467985 7.222252
v -37.683369 25.753332 4.214890
v -37.139431 22.099512 5.787231
v -37.870995 25.179422 3.672508
v -39.312046 22.099512 6.538826
v -40.043613 25.179422 4.424110
v -39.855984 25.753332 4.966476
s 1
f 1028 1022 1021 1023
f 1021 1024 1025 1023
f 1027 1025 1024 1026
f 1028 1027 1026 1022
f 1025 1027 1028 1023
g env_ruin_tube_01_lod0.129_Mesh.130
v -43.684479 25.753334 -13.132351
v -43.496849 25.179424 -12.589977
v -42.610401 28.140280 -10.027538
v -45.857094 25.753334 -12.380756
v -44.698395 28.047310 -9.010300
v -45.669468 25.179424 -11.838379
v -44.540623 27.332474 -8.653687
v -42.489933 27.417110 -9.679314
s 1
f 1029 1030 1034 1032
f 1029 1031 1036 1030
f 1033 1031 1029 1032
f 1035 1033 1032 1034
f 1036 1035 1034 1030
f 1031 1033 1035 1036
g env_ruin_tube_01_lod0.130_Mesh.131
v -37.683369 25.753332 4.214890
v -38.757450 28.140280 1.110069
v -37.870995 25.179422 3.672508
v -39.855984 25.753332 4.966476
v -40.043613 25.179422 4.424110
v -40.899994 28.312336 1.998650
v -40.996311 27.597500 1.620773
v -38.877911 27.417110 0.761841
s 1
f 1042 1040 1037 1038
f 1037 1039 1044 1038
f 1040 1041 1039 1037
f 1043 1041 1040 1042
f 1042 1038 1044 1043
f 1044 1039 1041 1043
g env_ruin_tube_01_lod0.131_Mesh.132
v -54.870995 10.682761 10.887985
v -57.154083 10.682761 11.157578
v -54.723839 14.544918 12.134224
v -54.955803 11.051233 10.169807
v -54.817848 14.671885 11.338112
v -57.238884 11.051233 10.439392
v -57.100929 14.671885 11.607697
v -57.006927 14.544917 12.403801
s 1
f 1045 1046 1050 1048
f 1052 1046 1045 1047
f 1045 1048 1049 1047
f 1051 1049 1048 1050
f 1052 1051 1050 1046
f 1052 1047 1049 1051
g env_ruin_tube_01_lod0.132_Mesh.133
v -57.730446 18.605829 -13.328472
v -57.583298 22.467987 -12.082241
v -60.013535 18.778606 -13.058884
v -57.636444 18.478863 -12.532360
v -59.919525 18.651640 -12.262779
v -57.498497 22.099514 -11.364059
v -59.781578 22.099514 -11.094475
v -59.866379 22.467987 -11.812656
s 1
f 1053 1054 1058 1056
f 1060 1054 1053 1055
f 1057 1055 1053 1056
f 1059 1057 1056 1058
f 1054 1060 1059 1058
f 1060 1055 1057 1059
g env_ruin_tube_01_lod0.133_Mesh.134
v -54.723839 18.605827 12.134224
v -57.006927 18.778605 12.403801
v -54.870995 22.467985 10.887993
v -54.817848 18.478861 11.338112
v -54.955795 22.099512 10.169815
v -57.100929 18.651638 11.607697
v -57.238884 22.099512 10.439400
v -57.154083 22.467985 11.157578
s 1
f 1062 1066 1064 1061
f 1068 1062 1061 1063
f 1061 1064 1065 1063
f 1067 1065 1064 1066
f 1068 1067 1066 1062
f 1068 1063 1065 1067
g env_ruin_tube_01_lod0.134_Mesh.135
v -57.583298 10.682761 -12.082241
v -57.730446 14.544917 -13.328472
v -59.866386 10.682761 -11.812653
v -57.498489 11.051234 -11.364052
v -59.781570 11.051234 -11.094471
v -57.636444 14.671885 -12.532360
v -59.919525 14.671885 -12.262779
v -60.013535 14.544917 -13.058884
s 1
f 1069 1070 1074 1072
f 1076 1070 1069 1071
f 1073 1071 1069 1072
f 1075 1073 1072 1074
f 1075 1074 1070 1076
f 1076 1071 1073 1075
g env_ruin_tube_01_lod0.135_Mesh.136
v -57.583298 22.467987 -12.082241
v -57.303391 25.753334 -9.711769
v -59.866379 22.467987 -11.812656
v -57.498497 22.099514 -11.364059
v -59.781578 22.099514 -11.094475
v -57.236092 25.179424 -9.141811
v -59.519180 25.179424 -8.872231
v -59.586472 25.753334 -9.442184
s 1
f 1077 1078 1082 1080
f 1084 1078 1077 1079
f 1077 1080 1081 1079
f 1083 1081 1080 1082
f 1078 1084 1083 1082
f 1084 1079 1081 1083
g env_ruin_tube_01_lod0.136_Mesh.137
v -54.870995 22.467985 10.887993
v -57.154083 22.467985 11.157578
v -55.150894 25.753332 8.517517
v -54.955795 22.099512 10.169815
v -55.218193 25.179422 7.947563
v -57.238884 22.099512 10.439400
v -57.501282 25.179422 8.217148
v -57.433990 25.753332 8.787102
s 1
f 1092 1086 1085 1087
f 1085 1088 1089 1087
f 1091 1089 1088 1090
f 1092 1091 1090 1086
f 1089 1091 1092 1087
g env_ruin_tube_01_lod0.137_Mesh.138
v -57.303391 25.753334 -9.711769
v -57.236092 25.179424 -9.141811
v -56.918137 28.140280 -6.449085
v -59.586472 25.753334 -9.442184
v -59.175369 28.047310 -5.901897
v -59.519180 25.179424 -8.872231
v -59.097511 27.332474 -5.519802
v -56.874924 27.417110 -6.083153
s 1
f 1093 1094 1098 1096
f 1093 1095 1100 1094
f 1097 1095 1093 1096
f 1099 1097 1096 1098
f 1100 1099 1098 1094
f 1095 1097 1099 1100
g env_ruin_tube_01_lod0.138_Mesh.139
v -55.150894 25.753332 8.517517
v -55.536148 28.140278 5.254837
v -55.218193 25.179422 7.947563
v -57.433990 25.753332 8.787102
v -57.501282 25.179422 8.217148
v -57.819153 28.312336 5.664665
v -57.832443 27.597500 5.274933
v -55.579361 27.417109 4.888901
s 1
f 1106 1104 1101 1102
f 1101 1103 1108 1102
f 1104 1105 1103 1101
f 1107 1105 1104 1106
f 1106 1102 1108 1107
f 1108 1103 1105 1107
g env_ruin_tube_01_lod0.139_Mesh.140
v -31.489746 14.602761 -24.061371
v -31.489742 18.547993 -24.061367
v -42.647758 14.602759 -17.181133
v -30.759777 14.294977 -27.729031
v -30.759769 18.961378 -27.729023
v -45.004753 14.294972 -18.546021
v -45.004753 18.961378 -18.546021
v -42.647758 18.547995 -17.181133
s 1
f 1112 1113 1110 1109
f 1116 1111 1109 1110
f 1111 1114 1112 1109
f 1114 1115 1113 1112
f 1114 1111 1116 1115
f 1110 1113 1115 1116
g env_ruin_tube_01_lod0.140_Mesh.141
v -45.707001 14.602763 -15.915524
v -45.706997 18.547995 -15.915524
v -58.458229 14.602761 -12.874981
v -43.865345 14.294978 -19.170193
v -43.865345 18.961380 -19.170193
v -60.269348 14.294974 -14.909237
v -60.269348 18.961380 -14.909245
v -58.458229 18.547997 -12.874981
s 1
f 1120 1121 1118 1117
f 1124 1119 1117 1118
f 1119 1122 1120 1117
f 1122 1123 1121 1120
f 1122 1119 1124 1123
f 1118 1121 1123 1124
g env_ruin_tube_01_lod0.141_Mesh.142
v -60.218651 18.961378 14.470581
v -60.218643 14.294974 14.470581
v -33.732315 18.961376 8.674774
v -55.881157 18.547989 11.905045
v -55.872429 14.602758 11.913780
v -36.927132 18.547989 7.427086
v -36.918404 14.602757 7.435814
v -33.732315 14.294975 8.674774
s 1
f 1126 1125 1128 1129
f 1125 1126 1132 1127
f 1128 1125 1127 1130
f 1129 1128 1130 1131
f 1132 1131 1130 1127
f 1131 1132 1126 1129
g env_ruin_tube_01_lod0.142_Mesh.143
v -10.901680 18.961384 -5.964458
v -10.901680 14.294979 -5.964458
v -33.732315 18.961376 8.674774
v -15.787991 18.547995 -4.724258
v -15.787991 14.602760 -4.724258
v -32.363651 18.547987 5.505730
v -32.363640 14.602758 5.505722
v -33.732315 14.294975 8.674774
s 1
f 1133 1134 1137 1136
f 1134 1133 1135 1140
f 1138 1135 1133 1136
f 1139 1138 1136 1137
f 1140 1135 1138 1139
f 1137 1134 1140 1139
g env_ruin_tube_01_lod0.143_Mesh.144
v -26.221180 28.989521 -17.670120
v -26.082581 28.187880 -17.438396
v -20.603016 28.989523 -10.798672
v -39.147400 29.395170 -9.384418
v -39.147400 28.187881 -9.384418
v -35.696049 29.395172 -1.762112
v -35.696049 28.187883 -1.762112
v -20.741611 28.187881 -11.030399
s 1
f 1145 1144 1141 1142
f 1141 1143 1148 1142
f 1141 1144 1146 1143
f 1145 1147 1146 1144
f 1147 1148 1143 1146
f 1148 1147 1145 1142
g env_ruin_tube_01_lod0.144_Mesh.145
v -42.738998 28.989525 -8.095520
v -42.680561 28.187883 -7.831909
v -39.574936 28.989527 0.197205
v -57.618790 29.395174 -4.309837
v -57.618790 28.187885 -4.309837
v -56.747772 29.395174 4.011993
v -56.747772 28.187885 4.011993
v -39.633373 28.187885 -0.066406
s 1
f 1153 1152 1149 1150
f 1149 1151 1156 1150
f 1149 1152 1154 1151
f 1153 1155 1154 1152
f 1155 1156 1151 1154
f 1156 1155 1153 1150
g env_ruin_tube_01_lod0.145_Mesh.146
v -40.948334 29.981922 -8.861912
v -40.948330 33.081440 -8.861908
v -38.190907 29.981920 -0.586060
v -23.765285 29.981916 -20.073406
v -23.765285 33.081436 -20.073406
v -17.895256 29.981918 -13.620831
v -17.895256 33.081436 -13.620831
v -38.190903 33.081432 -0.586067
s 1
f 1160 1157 1158 1161
f 1157 1159 1164 1158
f 1160 1162 1159 1157
f 1161 1163 1162 1160
f 1159 1162 1163 1164
f 1158 1164 1163 1161
g env_ruin_tube_01_lod0.146_Mesh.147
v -61.093788 29.963703 -4.584217
v -61.093788 33.063221 -4.584217
v -60.701401 30.036180 4.105194
v -40.947857 29.981920 -8.849586
v -40.947857 33.081440 -8.849586
v -38.188179 29.981922 -0.574493
v -38.188179 33.081440 -0.574493
v -60.701408 33.135696 4.105186
s 1
f 1168 1165 1166 1169
f 1165 1167 1172 1166
f 1168 1170 1167 1165
f 1169 1171 1170 1168
f 1167 1170 1171 1172
f 1166 1172 1171 1169
g env_ruin_tube_01_lod0.147_Mesh.148
v -26.057049 6.081756 -26.253880
v -26.057049 2.802844 -26.253880
v -26.057049 6.408961 -26.253880
v -23.387577 -0.660987 -23.584412
v -11.142159 6.408963 -11.338993
v -43.465073 6.408962 -14.625347
v -35.393196 6.408966 4.861893
v -42.020363 -0.660986 -11.137520
v -43.465073 2.802845 -14.625347
v -43.465073 6.081758 -14.625347
v -36.837902 -0.660984 1.374062
v -13.811630 -0.660988 -14.008465
v -35.393196 2.802846 4.861893
v -11.142159 2.802843 -11.338993
v -35.393196 6.081760 4.861893
v -11.142159 6.081758 -11.338993
s 1
f 1182 1178 1175 1173 1174 1181
f 1173 1175 1174
f 1174 1175 1176
f 1176 1175 1177 1184
f 1175 1178 1179 1177
f 1178 1180 1183 1179
f 1180 1178 1181
f 1181 1178 1182
f 1174 1176 1180 1181
f 1176 1184 1183 1180
f 1184 1186 1185 1183
f 1185 1179 1183
f 1188 1177 1179 1187 1185 1186
s 0
f 1187 1179 1185
s 1
f 1184 1177 1186
s 0
f 1186 1177 1188
g env_ruin_tube_01_lod0.148_Mesh.149
v -43.467033 6.081758 -14.628017
v -43.467033 2.802845 -14.628017
v -43.467033 6.408962 -14.628017
v -42.022331 -0.660986 -11.140186
v -35.395153 6.408966 4.859222
v -64.000000 6.408963 -10.546417
v -64.000000 6.408969 10.546417
v -63.999992 -0.660982 -6.771221
v -64.000000 2.802847 -10.546417
v -64.000000 6.081759 -10.546417
v -64.000000 -0.660983 6.771217
v -36.839863 -0.660986 1.371391
v -64.000000 2.802848 10.546417
v -35.395153 2.802844 4.859222
v -64.000000 6.081761 10.546417
v -35.395153 6.081760 4.859222
s 1
f 1198 1194 1191 1189 1190 1197
f 1189 1191 1190
f 1190 1191 1192
f 1192 1191 1193 1200
f 1191 1194 1195 1193
f 1194 1196 1199 1195
f 1196 1194 1197
f 1197 1194 1198
f 1190 1192 1196 1197
f 1192 1200 1199 1196
f 1200 1202 1201 1199
f 1201 1195 1199
f 1204 1193 1195 1203 1201 1202
s 0
f 1203 1195 1201
s 1
f 1200 1193 1202
s 0
f 1202 1193 1204
g env_ruin_tube_01_lod0.149_Mesh.150
v -32.595356 7.281792 -17.288448
v -33.114597 6.172375 -17.905880
v -34.098713 11.090606 -19.408352
v -24.097456 7.281786 -24.110790
v -25.786083 11.090604 -26.060452
v -24.674404 6.172371 -24.769936
v -26.679832 10.614028 -27.098118
v -34.937897 10.614031 -20.391457
s 1
f 1208 1205 1206 1210
f 1205 1207 1212 1206
f 1208 1209 1207 1205
f 1209 1208 1210 1211
f 1206 1212 1211 1210
f 1207 1209 1211 1212
g env_ruin_tube_01_lod0.150_Mesh.151
v -41.957394 7.281793 -11.870102
v -42.363842 6.172375 -12.568024
v -42.779133 11.090607 -14.227032
v -32.584705 7.281787 -17.301762
v -34.106503 11.090605 -19.408600
v -33.104805 6.172372 -18.060768
v -34.837391 10.614028 -20.566761
v -43.994495 10.614032 -15.151752
s 1
f 1216 1213 1214 1218
f 1213 1215 1220 1214
f 1216 1217 1215 1213
f 1217 1216 1218 1219
f 1214 1220 1219 1218
f 1215 1217 1219 1220
g env_ruin_tube_01_lod0.151_Mesh.152
v -52.468681 7.281794 -8.956001
v -52.684250 6.172375 -9.499962
v -53.098579 11.090606 -11.493954
v -41.953453 7.281788 -11.868595
v -42.781643 11.090605 -14.229893
v -42.259777 6.172373 -12.611599
v -43.221600 10.614029 -15.530003
v -53.417572 10.614032 -12.494080
s 1
f 1224 1221 1222 1226
f 1221 1223 1228 1222
f 1224 1225 1223 1221
f 1225 1224 1226 1227
f 1222 1228 1227 1226
f 1223 1225 1227 1228
g env_ruin_tube_01_lod0.152_Mesh.153
v -63.851761 7.281793 -7.648052
v -63.954117 6.172375 -8.348339
v -63.829369 11.090606 -10.268555
v -52.457108 7.281788 -8.962280
v -53.099785 11.090604 -11.495003
v -52.678612 6.172373 -9.852558
v -53.320305 10.614029 -12.830822
v -63.852600 10.614031 -11.332283
s 1
f 1232 1229 1230 1234
f 1229 1231 1236 1230
f 1232 1233 1231 1229
f 1233 1232 1234 1235
f 1230 1236 1235 1234
f 1231 1233 1235 1236
g env_ruin_tube_01_lod0.153_Mesh.154
v -13.202461 7.326141 -13.399296
v -12.632790 6.172375 -12.829628
v -11.381454 11.090607 -11.578293
v -18.335175 7.281787 -8.936630
v -16.559456 11.090605 -7.010223
v -17.984833 6.172373 -8.024471
v -15.902187 10.614029 -5.765099
v -10.468430 10.614032 -10.665268
s 1
f 1240 1237 1238 1242
f 1237 1239 1244 1238
f 1240 1241 1239 1237
f 1241 1240 1242 1243
f 1238 1244 1243 1242
f 1239 1241 1243 1244
g env_ruin_tube_01_lod0.154_Mesh.155
v -18.329647 7.281793 -8.934052
v -17.992832 6.172375 -8.009506
v -16.534115 11.090605 -6.993023
v -35.915085 7.281787 1.992058
v -35.558022 11.090605 4.482788
v -35.322609 6.172372 2.779892
v -34.704208 10.614028 5.699501
v -15.904778 10.614031 -5.772366
s 1
f 1248 1245 1246 1250
f 1245 1247 1252 1246
f 1248 1249 1247 1245
f 1249 1248 1250 1251
f 1246 1252 1251 1250
f 1247 1249 1251 1252
g env_ruin_tube_01_lod0.155_Mesh.156
v -35.911175 7.281793 1.990898
v -35.321861 6.172376 2.753319
v -35.571774 11.090607 4.480942
v -57.026352 7.281789 7.120262
v -56.613701 11.090605 9.648888
v -56.720032 6.172374 7.863266
v -56.173744 10.614030 10.948997
v -34.722382 10.614031 5.716438
s 1
f 1256 1253 1254 1258
f 1253 1255 1260 1254
f 1256 1257 1255 1253
f 1257 1256 1258 1259
f 1254 1260 1259 1258
f 1255 1257 1259 1260
g env_ruin_tube_01_lod0.156_Mesh.157
v -57.024155 7.281795 7.119728
v -56.720581 6.172376 7.850685
v -56.610336 11.090607 9.654808
v -63.960503 7.281787 7.897285
v -63.817291 11.090605 10.506340
v -63.914474 6.172372 8.813545
v -63.857986 10.614029 11.859642
v -56.175972 10.614033 10.948647
s 1
f 1264 1261 1262 1266
f 1261 1263 1268 1262
f 1264 1265 1263 1261
f 1265 1264 1266 1267
f 1262 1268 1267 1266
f 1263 1265 1267 1268
g env_ruin_tube_01_lod0.157_Mesh.158
v -10.088922 28.045187 -41.506462
v -8.293622 29.300079 -41.082069
v -9.730330 27.322018 -41.421692
v -5.547448 28.045189 -60.718262
v -5.188858 27.322020 -60.633495
v -3.752150 29.300081 -60.293873
v -3.752150 28.092794 -60.293873
v -8.293622 28.092791 -41.082069
s 1
f 1274 1272 1269 1270
f 1270 1269 1271 1276
f 1269 1272 1273 1271
f 1272 1274 1275 1273
f 1274 1270 1276 1275
f 1276 1271 1273 1275
g env_ruin_tube_01_lod0.158_Mesh.159
v -20.361290 28.045189 -24.869129
v -18.791752 29.300081 -23.899719
v -20.047791 27.322020 -24.675499
v -9.987471 28.045189 -41.665024
v -9.673974 27.322020 -41.471394
v -8.417933 29.300081 -40.695610
v -8.417933 28.092794 -40.695610
v -18.791752 28.092793 -23.899719
s 1
f 1282 1280 1277 1278
f 1278 1277 1279 1284
f 1277 1280 1281 1279
f 1280 1282 1283 1281
f 1282 1278 1284 1283
f 1284 1279 1281 1283
g env_ruin_tube_01_lod0.159_Mesh.160
v 6.131523 28.045189 -57.957470
v 4.336224 29.300081 -58.381859
v 5.772932 27.322020 -58.042236
v 1.590050 28.045187 -38.745670
v 1.231460 27.322018 -38.830437
v -0.205248 29.300079 -39.170059
v -0.205248 28.092793 -39.170059
v 4.336224 28.092793 -58.381859
s 1
f 1290 1288 1285 1286
f 1286 1285 1287 1292
f 1285 1288 1289 1287
f 1288 1290 1291 1289
f 1290 1286 1292 1291
f 1292 1287 1289 1291
g env_ruin_tube_01_lod0.160_Mesh.161
v 0.222856 28.045189 -35.358707
v -1.346683 29.300081 -36.328117
v -0.090642 27.322020 -35.552338
v -10.150961 28.045189 -18.562813
v -10.464458 27.322020 -18.756439
v -11.720499 29.300081 -19.532223
v -11.720499 28.092794 -19.532223
v -1.346683 28.092793 -36.328117
s 1
f 1298 1296 1293 1294
f 1294 1293 1295 1300
f 1293 1296 1297 1295
f 1296 1298 1299 1297
f 1298 1294 1300 1299
f 1300 1295 1297 1299
