# Blender 4.5.4 LTS
# www.blender.org
g Torus.002_Torus.279
v 56.505043 24.944082 -21.788229
v 51.713238 27.716381 -23.773062
v 67.517189 24.944078 -77.149963
v 62.330582 27.716381 -77.149963
v 55.057594 22.599339 -22.387781
v 50.716225 25.111040 -24.186037
v 65.950478 22.599335 -77.149963
v 61.251415 25.111040 -77.149963
s 1
f 1 3 4 2
f 5 6 8 7
f 4 3 7 8
g Torus.003_Torus.280
v 51.713238 27.716381 -23.773062
v 46.513844 29.423553 -25.926725
v 62.330582 27.716381 -77.149963
v 56.702789 29.423553 -77.149963
v 50.716225 25.111040 -24.186037
v 46.005566 26.657738 -26.137259
v 61.251415 25.111040 -77.149963
v 56.152634 26.657738 -77.149963
s 1
f 9 11 12 10
f 13 14 16 15
f 12 11 15 16
g Torus.004_Torus.281
v 46.513844 29.423553 -25.926725
v 41.106647 29.999994 -28.166460
v 56.702789 29.423553 -77.149963
v 50.850082 29.999994 -77.149963
v 46.005566 26.657738 -26.137259
v 41.106647 27.179995 -28.166460
v 56.152634 26.657738 -77.149963
v 50.850082 27.179995 -77.149963
s 1
f 17 19 20 18
f 21 22 24 23
f 20 19 23 24
g Torus.005_Torus.282
v 41.106647 29.999994 -28.166460
v 35.699451 29.423555 -30.406195
v 50.850082 29.999994 -77.149963
v 44.997375 29.423553 -77.149963
v 41.106647 27.179995 -28.166460
v 36.207729 26.657740 -30.195662
v 50.850082 27.179995 -77.149963
v 45.547531 26.657738 -77.149963
s 1
f 25 27 28 26
f 29 30 32 31
f 28 27 31 32
g Torus.006_Torus.283
v 35.699451 29.423555 -30.406195
v 30.500051 27.716383 -32.559860
v 44.997375 29.423553 -77.149963
v 39.369583 27.716381 -77.149963
v 36.207729 26.657740 -30.195662
v 31.497068 25.111042 -32.146885
v 45.547531 26.657738 -77.149963
v 40.448742 25.111040 -77.149963
s 1
f 33 35 36 34
f 37 38 40 39
f 36 35 39 40
g Torus.007_Torus.284
v 30.500051 27.716383 -32.559860
v 25.708250 24.944084 -34.544693
v 39.369583 27.716381 -77.149963
v 34.182972 24.944084 -77.149963
v 31.497068 25.111042 -32.146885
v 27.155699 22.599340 -33.945141
v 40.448742 25.111040 -77.149963
v 35.749676 22.599340 -77.149963
s 1
f 41 43 44 42
f 45 46 48 47
f 44 43 47 48
g Torus.008_Torus.285
v 25.708250 24.944084 -34.544693
v 21.508205 21.213202 -36.284409
v 34.182972 24.944084 -77.149963
v 29.636877 21.213200 -77.149963
v 27.155699 22.599340 -33.945141
v 23.350460 19.219158 -35.521320
v 35.749676 22.599340 -77.149963
v 31.630919 19.219158 -77.149963
s 1
f 49 51 52 50
f 53 54 56 55
f 52 51 55 56
g Torus.009_Torus.286
v 21.508205 21.213202 -36.284409
v 18.061314 16.667105 -37.712158
v 29.636877 21.213200 -77.149963
v 25.905989 16.667103 -77.149963
v 23.350460 19.219158 -35.521320
v 20.227581 15.100396 -36.814861
v 31.630919 19.219158 -77.149963
v 28.250738 15.100396 -77.149963
s 1
f 57 59 60 58
f 61 62 64 63
f 60 59 63 64
g Torus.010_Torus.287
v 18.061314 16.667105 -37.712158
v 15.500050 11.480501 -38.773071
v 25.905989 16.667103 -77.149963
v 23.133694 11.480500 -77.149963
v 20.227581 15.100396 -36.814861
v 17.907068 10.401334 -37.776051
v 28.250738 15.100396 -77.149963
v 25.739033 10.401333 -77.149963
s 1
f 65 67 68 66
f 69 70 72 71
f 68 67 71 72
g Torus.011_Torus.288
v 15.500050 11.480501 -38.773071
v 13.922823 5.852708 -39.426376
v 23.133694 11.480500 -77.149963
v 21.426517 5.852707 -77.149963
v 17.907068 10.401334 -37.776051
v 16.478106 5.302553 -38.367947
v 25.739033 10.401333 -77.149963
v 24.192333 5.302552 -77.149963
s 1
f 73 75 76 74
f 77 78 80 79
f 76 75 79 80
g Torus.012_Torus.289
v 13.922823 5.852708 -39.426376
v 13.390261 -0.000002 -39.646973
v 21.426517 5.852707 -77.149963
v 20.850079 -0.000003 -77.149963
v 16.478106 5.302553 -38.367947
v 15.995600 -0.000002 -38.567802
v 24.192333 5.302552 -77.149963
v 23.670078 -0.000003 -77.149963
s 1
f 81 83 84 82
f 85 86 88 87
f 84 83 87 88
g Torus.013_Torus.290
v 13.390261 -0.000002 -39.646973
v 13.922823 -5.852711 -39.426376
v 20.850079 -0.000003 -77.149963
v 21.426517 -5.852712 -77.149963
v 15.995600 -0.000002 -38.567802
v 16.478106 -5.302557 -38.367947
v 23.670078 -0.000003 -77.149963
v 24.192333 -5.302558 -77.149963
s 1
f 89 91 92 90
f 93 94 96 95
f 92 91 95 96
g Torus.014_Torus.291
v 13.922823 -5.852711 -39.426376
v 15.500046 -11.480505 -38.773071
v 21.426517 -5.852712 -77.149963
v 23.133694 -11.480506 -77.149963
v 16.478106 -5.302557 -38.367947
v 17.907068 -10.401338 -37.776051
v 24.192333 -5.302558 -77.149963
v 25.739033 -10.401339 -77.149963
s 1
f 97 99 100 98
f 101 102 104 103
f 100 99 103 104
g Torus.015_Torus.292
v 15.500046 -11.480505 -38.773071
v 18.061310 -16.667109 -37.712158
v 23.133694 -11.480506 -77.149963
v 25.905985 -16.667110 -77.149963
v 17.907068 -10.401338 -37.776051
v 20.227577 -15.100402 -36.814861
v 25.739033 -10.401339 -77.149963
v 28.250734 -15.100402 -77.149963
s 1
f 105 107 108 106
f 109 110 112 111
f 108 107 111 112
g Torus.016_Torus.293
v 18.061310 -16.667109 -37.712158
v 21.508202 -21.213205 -36.284409
v 25.905985 -16.667110 -77.149963
v 29.636873 -21.213207 -77.149963
v 20.227577 -15.100402 -36.814861
v 23.350456 -19.219166 -35.521320
v 28.250734 -15.100402 -77.149963
v 31.630915 -19.219166 -77.149963
s 1
f 113 115 116 114
f 117 118 120 119
f 116 115 119 120
g Torus.017_Torus.294
v 21.508202 -21.213205 -36.284409
v 25.708242 -24.944092 -34.544693
v 29.636873 -21.213207 -77.149963
v 34.182972 -24.944092 -77.149963
v 23.350456 -19.219166 -35.521320
v 27.155691 -22.599348 -33.945141
v 31.630915 -19.219166 -77.149963
v 35.749676 -22.599348 -77.149963
s 1
f 121 123 124 122
f 125 126 128 127
f 124 123 127 128
g Torus.018_Torus.295
v 25.708242 -24.944092 -34.544693
v 30.500044 -27.716391 -32.559860
v 34.182972 -24.944092 -77.149963
v 39.369576 -27.716393 -77.149963
v 27.155691 -22.599348 -33.945141
v 31.497061 -25.111050 -32.146885
v 35.749676 -22.599348 -77.149963
v 40.448742 -25.111052 -77.149963
s 1
f 129 131 132 130
f 133 134 136 135
f 132 131 135 136
g Torus.019_Torus.296
v 30.500044 -27.716391 -32.559860
v 35.699444 -29.423563 -30.406195
v 39.369576 -27.716393 -77.149963
v 44.997368 -29.423565 -77.149963
v 31.497061 -25.111050 -32.146885
v 36.207722 -26.657747 -30.195662
v 40.448742 -25.111052 -77.149963
v 45.547523 -26.657749 -77.149963
s 1
f 137 139 140 138
f 141 142 144 143
f 140 139 143 144
g Torus.020_Torus.297
v 35.699444 -29.423563 -30.406195
v 41.106640 -30.000006 -28.166460
v 44.997368 -29.423565 -77.149963
v 50.850075 -30.000006 -77.149963
v 36.207722 -26.657747 -30.195662
v 41.106640 -27.180006 -28.166460
v 45.547523 -26.657749 -77.149963
v 50.850075 -27.180006 -77.149963
s 1
f 145 147 148 146
f 149 150 152 151
f 148 147 151 152
g Torus.021_Torus.298
v 41.106640 -30.000006 -28.166460
v 46.513836 -29.423565 -25.926725
v 50.850075 -30.000006 -77.149963
v 56.702782 -29.423565 -77.149963
v 41.106640 -27.180006 -28.166460
v 46.005558 -26.657749 -26.137259
v 50.850075 -27.180006 -77.149963
v 56.152626 -26.657749 -77.149963
s 1
f 153 155 156 154
f 157 158 160 159
f 156 155 159 160
g Torus.022_Torus.299
v 46.513836 -29.423565 -25.926725
v 51.713230 -27.716393 -23.773062
v 56.702782 -29.423565 -77.149963
v 62.330574 -27.716393 -77.149963
v 46.005558 -26.657749 -26.137259
v 50.716225 -25.111052 -24.186037
v 56.152626 -26.657749 -77.149963
v 61.251415 -25.111052 -77.149963
s 1
f 161 163 164 162
f 165 166 168 167
f 164 163 167 168
g Torus.023_Torus.300
v 51.713230 -27.716393 -23.773062
v 56.505043 -24.944094 -21.788229
v 62.330574 -27.716393 -77.149963
v 67.517189 -24.944098 -77.149963
v 50.716225 -25.111052 -24.186037
v 55.057594 -22.599350 -22.387781
v 61.251415 -25.111052 -77.149963
v 65.950478 -22.599354 -77.149963
s 1
f 169 171 172 170
f 173 174 176 175
f 172 171 175 176
g Torus.024_Torus.301
v 56.505043 -24.944094 -21.788229
v 60.705086 -21.213209 -20.048510
v 67.517189 -24.944098 -77.149963
v 72.063286 -21.213213 -77.149963
v 55.057594 -22.599350 -22.387781
v 58.862831 -19.219168 -20.811602
v 65.950478 -22.599354 -77.149963
v 70.069237 -19.219172 -77.149963
s 1
f 177 179 180 178
f 181 182 184 183
f 180 179 183 184
g Torus.025_Torus.302
v 60.705086 -21.213209 -20.048510
v 64.151970 -16.667114 -18.620764
v 72.063286 -21.213213 -77.149963
v 75.794167 -16.667116 -77.149956
v 58.862831 -19.219168 -20.811602
v 61.985725 -15.100407 -19.518057
v 70.069237 -19.219172 -77.149963
v 73.449425 -15.100408 -77.149963
s 1
f 185 187 188 186
f 189 190 192 191
f 188 187 191 192
g Torus.026_Torus.303
v 64.151970 -16.667114 -18.620764
v 66.713249 -11.480511 -17.559849
v 75.794167 -16.667116 -77.149956
v 78.566460 -11.480513 -77.149956
v 61.985725 -15.100407 -19.518057
v 64.306236 -10.401343 -18.556871
v 73.449425 -15.100408 -77.149963
v 75.961128 -10.401344 -77.149956
s 1
f 193 195 196 194
f 197 198 200 199
f 196 195 199 200
g Torus.027_Torus.304
v 66.713249 -11.480511 -17.559849
v 68.290459 -5.852718 -16.906544
v 78.566460 -11.480513 -77.149956
v 80.273628 -5.852719 -77.149956
v 64.306236 -10.401343 -18.556871
v 65.735191 -5.302563 -17.964973
v 75.961128 -10.401344 -77.149956
v 77.507820 -5.302564 -77.149956
s 1
f 201 203 204 202
f 205 206 208 207
f 204 203 207 208
g Torus.028_Torus.305
v 68.823021 -0.000008 -16.685947
v 68.290459 -5.852718 -16.906544
v 80.850075 -0.000010 -77.149956
v 80.273628 -5.852719 -77.149956
v 66.217674 -0.000008 -17.765118
v 65.735191 -5.302563 -17.964973
v 78.030067 -0.000009 -77.149956
v 77.507820 -5.302564 -77.149956
s 1
f 210 212 211 209
f 214 213 215 216
f 212 216 215 211
g Torus.029_Torus.306
v 68.823021 -0.000008 -16.685947
v 68.290459 5.852702 -16.906544
v 80.850075 -0.000010 -77.149956
v 80.273628 5.852700 -77.149956
v 66.217674 -0.000008 -17.765118
v 65.735191 5.302547 -17.964973
v 78.030067 -0.000009 -77.149956
v 77.507820 5.302546 -77.149956
s 1
f 217 219 220 218
f 221 222 224 223
f 220 219 223 224
g Torus.030_Torus.307
v 68.290459 5.852702 -16.906544
v 66.713249 11.480495 -17.559849
v 80.273628 5.852700 -77.149956
v 78.566460 11.480494 -77.149956
v 65.735191 5.302547 -17.964973
v 64.306236 10.401328 -18.556871
v 77.507820 5.302546 -77.149956
v 75.961128 10.401327 -77.149956
s 1
f 225 227 228 226
f 229 230 232 231
f 228 227 231 232
g Torus.031_Torus.308
v 66.713249 11.480495 -17.559849
v 64.151970 16.667099 -18.620764
v 78.566460 11.480494 -77.149956
v 75.794167 16.667097 -77.149956
v 64.306236 10.401328 -18.556871
v 61.985725 15.100391 -19.518057
v 75.961128 10.401327 -77.149956
v 73.449425 15.100390 -77.149963
s 1
f 233 235 236 234
f 237 238 240 239
f 236 235 239 240
g Torus.032_Torus.309
v 64.151970 16.667099 -18.620764
v 60.705086 21.213198 -20.048510
v 75.794167 16.667097 -77.149956
v 72.063286 21.213194 -77.149963
v 61.985725 15.100391 -19.518057
v 58.862831 19.219156 -20.811602
v 73.449425 15.100390 -77.149963
v 70.069237 19.219152 -77.149963
s 1
f 241 243 244 242
f 245 246 248 247
f 244 243 247 248
g Torus.033_Torus.310
v 60.705086 21.213198 -20.048510
v 56.505043 24.944082 -21.788229
v 72.063286 21.213194 -77.149963
v 67.517189 24.944078 -77.149963
v 58.862831 19.219156 -20.811602
v 55.057594 22.599339 -22.387781
v 70.069237 19.219152 -77.149963
v 65.950478 22.599335 -77.149963
s 1
f 249 251 252 250
f 253 254 256 255
f 252 251 255 256
g Torus.034_Torus.311
v 17.498234 -29.423561 17.498177
v 21.477688 -27.716389 21.477623
v 46.513836 -29.423565 -25.926725
v 51.713230 -27.716393 -23.773062
v 17.109219 -26.657745 17.109154
v 20.714603 -25.111048 20.714546
v 46.005558 -26.657749 -26.137259
v 50.716225 -25.111052 -24.186037
s 1
f 257 259 260 258
f 261 262 264 263
g Torus.035_Torus.312
v 21.477688 -27.716389 21.477623
v 25.145174 -24.944092 25.145121
v 51.713230 -27.716393 -23.773062
v 56.505043 -24.944094 -21.788229
v 20.714603 -25.111048 20.714546
v 24.037340 -22.599348 24.037287
v 50.716225 -25.111052 -24.186037
v 55.057594 -22.599350 -22.387781
s 1
f 265 267 268 266
f 269 270 272 271
g Torus.036_Torus.313
v 25.145174 -24.944092 25.145121
v 28.359753 -21.213207 28.359697
v 56.505043 -24.944094 -21.788229
v 60.705086 -21.213209 -20.048510
v 24.037340 -22.599348 24.037287
v 26.949749 -19.219166 26.949686
v 55.057594 -22.599350 -22.387781
v 58.862831 -19.219168 -20.811602
s 1
f 273 275 276 274
f 277 278 280 279
g Torus.037_Torus.314
v 28.359753 -21.213207 28.359697
v 30.997883 -16.667110 30.997828
v 60.705086 -21.213209 -20.048510
v 64.151970 -16.667114 -18.620764
v 26.949749 -19.219166 26.949686
v 29.339901 -15.100402 29.339838
v 58.862831 -19.219168 -20.811602
v 61.985725 -15.100407 -19.518057
s 1
f 281 283 284 282
f 285 286 288 287
g Torus.038_Torus.315
v 30.997883 -16.667110 30.997828
v 32.958191 -11.480508 32.958130
v 64.151970 -16.667114 -18.620764
v 66.713249 -11.480511 -17.559849
v 29.339901 -15.100402 29.339838
v 31.115942 -10.401339 31.115885
v 61.985725 -15.100407 -19.518057
v 64.306236 -10.401343 -18.556871
s 1
f 289 291 292 290
f 293 294 296 295
g Torus.039_Torus.316
v 32.958191 -11.480508 32.958130
v 34.165344 -5.852714 34.165283
v 66.713249 -11.480511 -17.559849
v 68.290459 -5.852718 -16.906544
v 31.115942 -10.401339 31.115885
v 32.209625 -5.302559 32.209557
v 64.306236 -10.401343 -18.556871
v 65.735191 -5.302563 -17.964973
s 1
f 297 299 300 298
f 301 302 304 303
g Torus.040_Torus.317
v 34.572952 -0.000004 34.572891
v 34.165344 -5.852714 34.165283
v 68.823021 -0.000008 -16.685947
v 68.290459 -5.852718 -16.906544
v 32.578911 -0.000004 32.578842
v 32.209625 -5.302559 32.209557
v 66.217674 -0.000008 -17.765118
v 65.735191 -5.302563 -17.964973
s 1
f 306 308 307 305
f 310 309 311 312
g Torus.041_Torus.318
v 34.572952 -0.000004 34.572891
v 34.165344 5.852706 34.165283
v 68.823021 -0.000008 -16.685947
v 68.290459 5.852702 -16.906544
v 32.578911 -0.000004 32.578842
v 32.209625 5.302551 32.209557
v 66.217674 -0.000008 -17.765118
v 65.735191 5.302547 -17.964973
s 1
f 313 315 316 314
f 317 318 320 319
g Torus.042_Torus.319
v 34.165344 5.852706 34.165283
v 32.958191 11.480498 32.958130
v 68.290459 5.852702 -16.906544
v 66.713249 11.480495 -17.559849
v 32.209625 5.302551 32.209557
v 31.115942 10.401333 31.115885
v 65.735191 5.302547 -17.964973
v 64.306236 10.401328 -18.556871
s 1
f 321 323 324 322
f 325 326 328 327
g Torus.043_Torus.320
v 32.958191 11.480498 32.958130
v 30.997887 16.667103 30.997828
v 66.713249 11.480495 -17.559849
v 64.151970 16.667099 -18.620764
v 31.115942 10.401333 31.115885
v 29.339905 15.100396 29.339838
v 64.306236 10.401328 -18.556871
v 61.985725 15.100391 -19.518057
s 1
f 329 331 332 330
f 333 334 336 335
g Torus.044_Torus.321
v 30.997887 16.667103 30.997828
v 28.359756 21.213200 28.359697
v 64.151970 16.667099 -18.620764
v 60.705086 21.213198 -20.048510
v 29.339905 15.100396 29.339838
v 26.949753 19.219158 26.949686
v 61.985725 15.100391 -19.518057
v 58.862831 19.219156 -20.811602
s 1
f 337 339 340 338
f 341 342 344 343
g Torus.045_Torus.322
v 28.359756 21.213200 28.359697
v 25.145182 24.944084 25.145121
v 60.705086 21.213198 -20.048510
v 56.505043 24.944082 -21.788229
v 26.949753 19.219158 26.949686
v 24.037348 22.599340 24.037287
v 58.862831 19.219156 -20.811602
v 55.057594 22.599339 -22.387781
s 1
f 345 347 348 346
f 349 350 352 351
g Torus.046_Torus.323
v 25.145182 24.944084 25.145121
v 21.477695 27.716385 21.477623
v 56.505043 24.944082 -21.788229
v 51.713238 27.716381 -23.773062
v 24.037348 22.599340 24.037287
v 20.714611 25.111044 20.714546
v 55.057594 22.599339 -22.387781
v 50.716225 25.111040 -24.186037
s 1
f 353 355 356 354
f 357 358 360 359
g Torus.047_Torus.324
v 21.477695 27.716385 21.477623
v 17.498241 29.423557 17.498177
v 51.713238 27.716381 -23.773062
v 46.513844 29.423553 -25.926725
v 20.714611 25.111044 20.714546
v 17.109226 26.657742 17.109154
v 50.716225 25.111040 -24.186037
v 46.005566 26.657738 -26.137259
s 1
f 361 363 364 362
f 365 366 368 367
g Torus.048_Torus.325
v 17.498241 29.423557 17.498177
v 13.359751 29.999998 13.359689
v 46.513844 29.423553 -25.926725
v 41.106647 29.999994 -28.166460
v 17.109226 26.657742 17.109154
v 13.359751 27.179998 13.359689
v 46.005566 26.657738 -26.137259
v 41.106647 27.179995 -28.166460
s 1
f 369 371 372 370
f 373 374 376 375
g Torus.049_Torus.326
v 13.359751 29.999998 13.359689
v 9.221263 29.423559 9.221199
v 41.106647 29.999994 -28.166460
v 35.699451 29.423555 -30.406195
v 13.359751 27.179998 13.359689
v 9.610278 26.657743 9.610222
v 41.106647 27.179995 -28.166460
v 36.207729 26.657740 -30.195662
s 1
f 377 379 380 378
f 381 382 384 383
g Torus.050_Torus.327
v 9.221263 29.423559 9.221199
v 5.241809 27.716387 5.241753
v 35.699451 29.423555 -30.406195
v 30.500051 27.716383 -32.559860
v 9.610278 26.657743 9.610222
v 6.004893 25.111046 6.004830
v 36.207729 26.657740 -30.195662
v 31.497068 25.111042 -32.146885
s 1
f 385 387 388 386
f 389 390 392 391
g Torus.051_Torus.328
v 5.241809 27.716387 5.241753
v 1.574328 24.944088 1.574265
v 30.500051 27.716383 -32.559860
v 25.708250 24.944084 -34.544693
v 6.004893 25.111046 6.004830
v 2.682154 22.599344 2.682091
v 31.497068 25.111042 -32.146885
v 27.155699 22.599340 -33.945141
s 1
f 393 395 396 394
f 397 398 400 399
g Torus.052_Torus.329
v 1.574328 24.944088 1.574265
v -1.640249 21.213203 -1.640312
v 25.708250 24.944084 -34.544693
v 21.508205 21.213202 -36.284409
v 2.682154 22.599344 2.682091
v -0.230253 19.219162 -0.230309
v 27.155699 22.599340 -33.945141
v 23.350460 19.219158 -35.521320
s 1
f 401 403 404 402
f 405 406 408 407
g Torus.053_Torus.330
v -1.640249 21.213203 -1.640312
v -4.278387 16.667107 -4.278450
v 21.508205 21.213202 -36.284409
v 18.061314 16.667105 -37.712158
v -0.230253 19.219162 -0.230309
v -2.620398 15.100399 -2.620461
v 23.350460 19.219158 -35.521320
v 20.227581 15.100396 -36.814861
s 1
f 409 411 412 410
f 413 414 416 415
g Torus.054_Torus.331
v -4.278387 16.667107 -4.278450
v -6.238691 11.480503 -6.238755
v 18.061314 16.667105 -37.712158
v 15.500050 11.480501 -38.773071
v -2.620398 15.100399 -2.620461
v -4.396445 10.401336 -4.396500
v 20.227581 15.100396 -36.814861
v 17.907068 10.401334 -37.776051
s 1
f 417 419 420 418
f 421 422 424 423
g Torus.055_Torus.332
v -6.238691 11.480503 -6.238755
v -7.445853 5.852711 -7.445908
v 15.500050 11.480501 -38.773071
v 13.922823 5.852708 -39.426376
v -4.396445 10.401336 -4.396500
v -5.490127 5.302556 -5.490181
v 17.907068 10.401334 -37.776051
v 16.478106 5.302553 -38.367947
s 1
f 425 427 428 426
f 429 430 432 431
g Torus.056_Torus.333
v -7.445853 5.852711 -7.445908
v -7.853454 0.000001 -7.853516
v 13.922823 5.852708 -39.426376
v 13.390261 -0.000002 -39.646973
v -5.490127 5.302556 -5.490181
v -5.859413 0.000001 -5.859475
v 16.478106 5.302553 -38.367947
v 15.995600 -0.000002 -38.567802
s 1
f 433 435 436 434
f 437 438 440 439
g Torus.057_Torus.334
v -7.853454 0.000001 -7.853516
v -7.445855 -5.852709 -7.445908
v 13.390261 -0.000002 -39.646973
v 13.922823 -5.852711 -39.426376
v -5.859413 0.000001 -5.859475
v -5.490128 -5.302554 -5.490181
v 15.995600 -0.000002 -38.567802
v 16.478106 -5.302557 -38.367947
s 1
f 441 443 444 442
f 445 446 448 447
g Torus.058_Torus.335
v -7.445855 -5.852709 -7.445908
v -6.238694 -11.480503 -6.238755
v 13.922823 -5.852711 -39.426376
v 15.500046 -11.480505 -38.773071
v -5.490128 -5.302554 -5.490181
v -4.396448 -10.401336 -4.396500
v 16.478106 -5.302557 -38.367947
v 17.907068 -10.401338 -37.776051
s 1
f 449 451 452 450
f 453 454 456 455
g Torus.059_Torus.336
v -6.238694 -11.480503 -6.238755
v -4.278391 -16.667107 -4.278450
v 15.500046 -11.480505 -38.773071
v 18.061310 -16.667109 -37.712158
v -4.396448 -10.401336 -4.396500
v -2.620401 -15.100399 -2.620461
v 17.907068 -10.401338 -37.776051
v 20.227577 -15.100402 -36.814861
s 1
f 457 459 460 458
f 461 462 464 463
g Torus.060_Torus.337
v -4.278391 -16.667107 -4.278450
v -1.640254 -21.213203 -1.640312
v 18.061310 -16.667109 -37.712158
v 21.508202 -21.213205 -36.284409
v -2.620401 -15.100399 -2.620461
v -0.230257 -19.219162 -0.230309
v 20.227577 -15.100402 -36.814861
v 23.350456 -19.219166 -35.521320
s 1
f 465 467 468 466
f 469 470 472 471
g Torus.061_Torus.338
v -1.640254 -21.213203 -1.640312
v 1.574322 -24.944088 1.574265
v 21.508202 -21.213205 -36.284409
v 25.708242 -24.944092 -34.544693
v -0.230257 -19.219162 -0.230309
v 2.682149 -22.599344 2.682091
v 23.350456 -19.219166 -35.521320
v 27.155691 -22.599348 -33.945141
s 1
f 473 475 476 474
f 477 478 480 479
g Torus.062_Torus.339
v 1.574322 -24.944088 1.574265
v 5.241803 -27.716387 5.241753
v 25.708242 -24.944092 -34.544693
v 30.500044 -27.716391 -32.559860
v 2.682149 -22.599344 2.682091
v 6.004887 -25.111046 6.004830
v 27.155691 -22.599348 -33.945141
v 31.497061 -25.111050 -32.146885
s 1
f 481 483 484 482
f 485 486 488 487
g Torus.063_Torus.340
v 5.241803 -27.716387 5.241753
v 9.221257 -29.423559 9.221199
v 30.500044 -27.716391 -32.559860
v 35.699444 -29.423563 -30.406195
v 6.004887 -25.111046 6.004830
v 9.610272 -26.657743 9.610222
v 31.497061 -25.111050 -32.146885
v 36.207722 -26.657747 -30.195662
s 1
f 489 491 492 490
f 493 494 496 495
g Torus.064_Torus.341
v 9.221257 -29.423559 9.221199
v 13.359745 -30.000002 13.359689
v 35.699444 -29.423563 -30.406195
v 41.106640 -30.000006 -28.166460
v 9.610272 -26.657743 9.610222
v 13.359745 -27.180002 13.359689
v 36.207722 -26.657747 -30.195662
v 41.106640 -27.180006 -28.166460
s 1
f 497 499 500 498
f 501 502 504 503
g Torus.065_Torus.342
v 13.359745 -30.000002 13.359689
v 17.498234 -29.423561 17.498177
v 41.106640 -30.000006 -28.166460
v 46.513836 -29.423565 -25.926725
v 13.359745 -27.180002 13.359689
v 17.109219 -26.657745 17.109154
v 41.106640 -27.180006 -28.166460
v 46.005558 -26.657749 -26.137259
s 1
f 505 507 508 506
f 509 510 512 511
g Torus.001_Torus.343
v -21.788239 -24.944088 56.505043
v -23.773071 -27.716385 51.713234
v -77.149971 -24.944084 67.517181
v -77.149971 -27.716383 62.330563
v -22.387791 -22.599342 55.057594
v -24.186047 -25.111044 50.716225
v -77.149971 -22.599340 65.950470
v -77.149971 -25.111042 61.251400
s 1
f 513 515 516 514
f 517 518 520 519
f 516 515 519 520
g Torus.066_Torus.344
v -23.773071 -27.716385 51.713234
v -25.926735 -29.423557 46.513836
v -77.149971 -27.716383 62.330563
v -77.149971 -29.423555 56.702770
v -24.186047 -25.111044 50.716225
v -26.137268 -26.657742 46.005558
v -77.149971 -25.111042 61.251400
v -77.149971 -26.657740 56.152615
s 1
f 521 523 524 522
f 525 526 528 527
f 524 523 527 528
g Torus.067_Torus.345
v -25.926735 -29.423557 46.513836
v -28.166470 -29.999998 41.106640
v -77.149971 -29.423555 56.702770
v -77.149971 -29.999996 50.850063
v -26.137268 -26.657742 46.005558
v -28.166470 -27.179998 41.106640
v -77.149971 -26.657740 56.152615
v -77.149971 -27.179996 50.850063
s 1
f 529 531 532 530
f 533 534 536 535
f 532 531 535 536
g Torus.068_Torus.346
v -28.166470 -29.999998 41.106640
v -30.406202 -29.423557 35.699444
v -77.149971 -29.999996 50.850063
v -77.149963 -29.423555 44.997356
v -28.166470 -27.179998 41.106640
v -30.195669 -26.657742 36.207722
v -77.149971 -27.179996 50.850063
v -77.149963 -26.657740 45.547512
s 1
f 537 539 540 538
f 541 542 544 543
f 540 539 543 544
g Torus.069_Torus.347
v -30.406202 -29.423557 35.699444
v -32.559864 -27.716385 30.500042
v -77.149963 -29.423555 44.997356
v -77.149963 -27.716383 39.369564
v -30.195669 -26.657742 36.207722
v -32.146889 -25.111044 31.497059
v -77.149963 -26.657740 45.547512
v -77.149963 -25.111042 40.448727
s 1
f 545 547 548 546
f 549 550 552 551
f 548 547 551 552
g Torus.070_Torus.348
v -32.559864 -27.716385 30.500042
v -34.544697 -24.944086 25.708241
v -77.149963 -27.716383 39.369564
v -77.149963 -24.944084 34.182957
v -32.146889 -25.111044 31.497059
v -33.945145 -22.599342 27.155689
v -77.149963 -25.111042 40.448727
v -77.149963 -22.599340 35.749660
s 1
f 553 555 556 554
f 557 558 560 559
f 556 555 559 560
g Torus.071_Torus.349
v -34.544697 -24.944086 25.708241
v -36.284409 -21.213202 21.508198
v -77.149963 -24.944084 34.182957
v -77.149963 -21.213200 29.636862
v -33.945145 -22.599342 27.155689
v -35.521320 -19.219160 23.350452
v -77.149963 -22.599340 35.749660
v -77.149963 -19.219158 31.630903
s 1
f 561 563 564 562
f 565 566 568 567
f 564 563 567 568
g Torus.072_Torus.350
v -36.284409 -21.213202 21.508198
v -37.712158 -16.667105 18.061306
v -77.149963 -21.213200 29.636862
v -77.149963 -16.667103 25.905973
v -35.521320 -19.219160 23.350452
v -36.814861 -15.100397 20.227573
v -77.149963 -19.219158 31.630903
v -77.149963 -15.100395 28.250723
s 1
f 569 571 572 570
f 573 574 576 575
f 572 571 575 576
g Torus.073_Torus.351
v -37.712158 -16.667105 18.061306
v -38.773071 -11.480501 15.500041
v -77.149963 -16.667103 25.905973
v -77.149963 -11.480499 23.133680
v -36.814861 -15.100397 20.227573
v -37.776051 -10.401334 17.907063
v -77.149963 -15.100395 28.250723
v -77.149963 -10.401332 25.739019
s 1
f 577 579 580 578
f 581 582 584 583
f 580 579 583 584
g Torus.074_Torus.352
v -38.773071 -11.480501 15.500041
v -39.426376 -5.852708 13.922816
v -77.149963 -11.480499 23.133680
v -77.149963 -5.852707 21.426504
v -37.776051 -10.401334 17.907063
v -38.367947 -5.302553 16.478098
v -77.149963 -10.401332 25.739019
v -77.149963 -5.302552 24.192320
s 1
f 585 587 588 586
f 589 590 592 591
f 588 587 591 592
g Torus.075_Torus.353
v -39.426376 -5.852708 13.922816
v -39.646973 0.000002 13.390254
v -77.149963 -5.852707 21.426504
v -77.149963 0.000003 20.850065
v -38.367947 -5.302553 16.478098
v -38.567802 0.000002 15.995593
v -77.149963 -5.302552 24.192320
v -77.149963 0.000003 23.670065
s 1
f 593 595 596 594
f 597 598 600 599
f 596 595 599 600
g Torus.076_Torus.354
v -39.646973 0.000002 13.390254
v -39.426376 5.852712 13.922816
v -77.149963 0.000003 20.850065
v -77.149963 5.852713 21.426504
v -38.567802 0.000002 15.995593
v -38.367947 5.302557 16.478098
v -77.149963 0.000003 23.670065
v -77.149963 5.302558 24.192320
s 1
f 601 603 604 602
f 605 606 608 607
f 604 603 607 608
g Torus.077_Torus.355
v -39.426376 5.852712 13.922816
v -38.773071 11.480505 15.500041
v -77.149963 5.852713 21.426504
v -77.149963 11.480507 23.133680
v -38.367947 5.302557 16.478098
v -37.776051 10.401338 17.907063
v -77.149963 5.302558 24.192320
v -77.149963 10.401340 25.739019
s 1
f 609 611 612 610
f 613 614 616 615
f 612 611 615 616
g Torus.078_Torus.356
v -38.773071 11.480505 15.500041
v -37.712158 16.667109 18.061306
v -77.149963 11.480507 23.133680
v -77.149963 16.667110 25.905973
v -37.776051 10.401338 17.907063
v -36.814861 15.100401 20.227573
v -77.149963 10.401340 25.739019
v -77.149963 15.100403 28.250723
s 1
f 617 619 620 618
f 621 622 624 623
f 620 619 623 624
g Torus.079_Torus.357
v -37.712158 16.667109 18.061306
v -36.284409 21.213205 21.508198
v -77.149963 16.667110 25.905973
v -77.149963 21.213207 29.636862
v -36.814861 15.100401 20.227573
v -35.521320 19.219164 23.350452
v -77.149963 15.100403 28.250723
v -77.149963 19.219166 31.630903
s 1
f 625 627 628 626
f 629 630 632 631
f 628 627 631 632
g Torus.080_Torus.358
v -36.284409 21.213205 21.508198
v -34.544697 24.944090 25.708241
v -77.149963 21.213207 29.636862
v -77.149963 24.944092 34.182957
v -35.521320 19.219164 23.350452
v -33.945145 22.599346 27.155689
v -77.149963 19.219166 31.630903
v -77.149963 22.599348 35.749660
s 1
f 633 635 636 634
f 637 638 640 639
f 636 635 639 640
g Torus.081_Torus.359
v -34.544697 24.944090 25.708241
v -32.559864 27.716389 30.500042
v -77.149963 24.944092 34.182957
v -77.149963 27.716391 39.369564
v -33.945145 22.599346 27.155689
v -32.146889 25.111048 31.497059
v -77.149963 22.599348 35.749660
v -77.149963 25.111050 40.448727
s 1
f 641 643 644 642
f 645 646 648 647
f 644 643 647 648
g Torus.082_Torus.360
v -32.559864 27.716389 30.500042
v -30.406199 29.423561 35.699444
v -77.149963 27.716391 39.369564
v -77.149963 29.423563 44.997356
v -32.146889 25.111048 31.497059
v -30.195665 26.657745 36.207722
v -77.149963 25.111050 40.448727
v -77.149963 26.657747 45.547512
s 1
f 649 651 652 650
f 653 654 656 655
f 652 651 655 656
g Torus.083_Torus.361
v -30.406199 29.423561 35.699444
v -28.166466 30.000002 41.106640
v -77.149963 29.423563 44.997356
v -77.149971 30.000004 50.850063
v -30.195665 26.657745 36.207722
v -28.166466 27.180002 41.106640
v -77.149963 26.657747 45.547512
v -77.149971 27.180004 50.850063
s 1
f 657 659 660 658
f 661 662 664 663
f 660 659 663 664
g Torus.084_Torus.362
v -28.166466 30.000002 41.106640
v -25.926731 29.423561 46.513836
v -77.149971 30.000004 50.850063
v -77.149971 29.423563 56.702770
v -28.166466 27.180002 41.106640
v -26.137264 26.657745 46.005558
v -77.149971 27.180004 50.850063
v -77.149971 26.657747 56.152615
s 1
f 665 667 668 666
f 669 670 672 671
f 668 667 671 672
g Torus.085_Torus.363
v -25.926731 29.423561 46.513836
v -23.773067 27.716389 51.713234
v -77.149971 29.423563 56.702770
v -77.149971 27.716391 62.330563
v -26.137264 26.657745 46.005558
v -24.186043 25.111048 50.716225
v -77.149971 26.657747 56.152615
v -77.149971 25.111050 61.251400
s 1
f 673 675 676 674
f 677 678 680 679
f 676 675 679 680
g Torus.086_Torus.364
v -23.773067 27.716389 51.713234
v -21.788235 24.944088 56.505043
v -77.149971 27.716391 62.330563
v -77.149971 24.944092 67.517181
v -24.186043 25.111048 50.716225
v -22.387787 22.599346 55.057594
v -77.149971 25.111050 61.251400
v -77.149971 22.599348 65.950470
s 1
f 681 683 684 682
f 685 686 688 687
f 684 683 687 688
g Torus.087_Torus.365
v -21.788235 24.944088 56.505043
v -20.048517 21.213203 60.705086
v -77.149971 24.944092 67.517181
v -77.149971 21.213207 72.063278
v -22.387787 22.599346 55.057594
v -20.811609 19.219162 58.862831
v -77.149971 22.599348 65.950470
v -77.149971 19.219166 70.069229
s 1
f 689 691 692 690
f 693 694 696 695
f 692 691 695 696
g Torus.088_Torus.366
v -20.048517 21.213203 60.705086
v -18.620773 16.667107 64.151970
v -77.149971 21.213207 72.063278
v -77.149963 16.667110 75.794159
v -20.811609 19.219162 58.862831
v -19.518064 15.100399 61.985725
v -77.149971 19.219166 70.069229
v -77.149971 15.100402 73.449417
s 1
f 697 699 700 698
f 701 702 704 703
f 700 699 703 704
g Torus.089_Torus.367
v -18.620773 16.667107 64.151970
v -17.559862 11.480503 66.713249
v -77.149963 16.667110 75.794159
v -77.149963 11.480506 78.566452
v -19.518064 15.100399 61.985725
v -18.556881 10.401336 64.306236
v -77.149971 15.100402 73.449417
v -77.149963 10.401339 75.961121
s 1
f 705 707 708 706
f 709 710 712 711
f 708 707 711 712
g Torus.090_Torus.368
v -17.559862 11.480503 66.713249
v -16.906557 5.852710 68.290459
v -77.149963 11.480506 78.566452
v -77.149963 5.852712 80.273621
v -18.556881 10.401336 64.306236
v -17.964987 5.302555 65.735191
v -77.149963 10.401339 75.961121
v -77.149963 5.302557 77.507812
s 1
f 713 715 716 714
f 717 718 720 719
f 716 715 719 720
g Torus.091_Torus.369
v -16.685961 -0.000000 68.823021
v -16.906557 5.852710 68.290459
v -77.149963 0.000002 80.850067
v -77.149963 5.852712 80.273621
v -17.765131 0.000000 66.217674
v -17.964987 5.302555 65.735191
v -77.149963 0.000002 78.030060
v -77.149963 5.302557 77.507812
s 1
f 722 724 723 721
f 726 725 727 728
f 724 728 727 723
g Torus.092_Torus.370
v -16.685961 -0.000000 68.823021
v -16.906557 -5.852710 68.290459
v -77.149963 0.000002 80.850067
v -77.149963 -5.852707 80.273621
v -17.765131 0.000000 66.217674
v -17.964987 -5.302555 65.735191
v -77.149963 0.000002 78.030060
v -77.149963 -5.302553 77.507812
s 1
f 729 731 732 730
f 733 734 736 735
f 732 731 735 736
g Torus.093_Torus.371
v -16.906557 -5.852710 68.290459
v -17.559862 -11.480503 66.713249
v -77.149963 -5.852707 80.273621
v -77.149963 -11.480500 78.566452
v -17.964987 -5.302555 65.735191
v -18.556881 -10.401336 64.306236
v -77.149963 -5.302553 77.507812
v -77.149963 -10.401333 75.961121
s 1
f 737 739 740 738
f 741 742 744 743
f 740 739 743 744
g Torus.094_Torus.372
v -17.559862 -11.480503 66.713249
v -18.620773 -16.667107 64.151970
v -77.149963 -11.480500 78.566452
v -77.149963 -16.667103 75.794159
v -18.556881 -10.401336 64.306236
v -19.518064 -15.100399 61.985725
v -77.149963 -10.401333 75.961121
v -77.149971 -15.100396 73.449417
s 1
f 745 747 748 746
f 749 750 752 751
f 748 747 751 752
g Torus.095_Torus.373
v -18.620773 -16.667107 64.151970
v -20.048517 -21.213203 60.705086
v -77.149963 -16.667103 75.794159
v -77.149971 -21.213200 72.063278
v -19.518064 -15.100399 61.985725
v -20.811609 -19.219162 58.862831
v -77.149971 -15.100396 73.449417
v -77.149971 -19.219158 70.069229
s 1
f 753 755 756 754
f 757 758 760 759
f 756 755 759 760
g Torus.096_Torus.374
v -20.048517 -21.213203 60.705086
v -21.788239 -24.944088 56.505043
v -77.149971 -21.213200 72.063278
v -77.149971 -24.944084 67.517181
v -20.811609 -19.219162 58.862831
v -22.387791 -22.599342 55.057594
v -77.149971 -19.219158 70.069229
v -77.149971 -22.599340 65.950470
s 1
f 761 763 764 762
f 765 766 768 767
f 764 763 767 768
g Torus.097_Torus.375
v 17.498177 29.423559 17.498240
v 21.477623 27.716387 21.477694
v -25.926731 29.423561 46.513836
v -23.773067 27.716389 51.713234
v 17.109154 26.657743 17.109224
v 20.714546 25.111046 20.714609
v -26.137264 26.657745 46.005558
v -24.186043 25.111048 50.716225
s 1
f 769 771 772 770
f 773 774 776 775
g Torus.098_Torus.376
v 21.477623 27.716387 21.477694
v 25.145117 24.944086 25.145184
v -23.773067 27.716389 51.713234
v -21.788235 24.944088 56.505043
v 20.714546 25.111046 20.714609
v 24.037283 22.599342 24.037350
v -24.186043 25.111048 50.716225
v -22.387787 22.599346 55.057594
s 1
f 777 779 780 778
f 781 782 784 783
g Torus.099_Torus.377
v 25.145117 24.944086 25.145184
v 28.359692 21.213202 28.359760
v -21.788235 24.944088 56.505043
v -20.048517 21.213203 60.705086
v 24.037283 22.599342 24.037350
v 26.949680 19.219160 26.949757
v -22.387787 22.599346 55.057594
v -20.811609 19.219162 58.862831
s 1
f 785 787 788 786
f 789 790 792 791
g Torus.100_Torus.378
v 28.359692 21.213202 28.359760
v 30.997822 16.667105 30.997890
v -20.048517 21.213203 60.705086
v -18.620773 16.667107 64.151970
v 26.949680 19.219160 26.949757
v 29.339832 15.100398 29.339909
v -20.811609 19.219162 58.862831
v -19.518064 15.100399 61.985725
s 1
f 793 795 796 794
f 797 798 800 799
g Torus.101_Torus.379
v 30.997822 16.667105 30.997890
v 32.958126 11.480501 32.958195
v -18.620773 16.667107 64.151970
v -17.559862 11.480503 66.713249
v 29.339832 15.100398 29.339909
v 31.115879 10.401335 31.115948
v -19.518064 15.100399 61.985725
v -18.556881 10.401336 64.306236
s 1
f 801 803 804 802
f 805 806 808 807
g Torus.102_Torus.380
v 32.958126 11.480501 32.958195
v 34.165279 5.852708 34.165348
v -17.559862 11.480503 66.713249
v -16.906557 5.852710 68.290459
v 31.115879 10.401335 31.115948
v 32.209553 5.302553 32.209629
v -18.556881 10.401336 64.306236
v -17.964987 5.302555 65.735191
s 1
f 809 811 812 810
f 813 814 816 815
g Torus.103_Torus.381
v 34.572887 -0.000002 34.572956
v 34.165279 5.852708 34.165348
v -16.685961 -0.000000 68.823021
v -16.906557 5.852710 68.290459
v 32.578838 -0.000002 32.578915
v 32.209553 5.302553 32.209629
v -17.765131 0.000000 66.217674
v -17.964987 5.302555 65.735191
s 1
f 818 820 819 817
f 822 821 823 824
g Torus.104_Torus.382
v 34.572887 -0.000002 34.572956
v 34.165279 -5.852712 34.165348
v -16.685961 -0.000000 68.823021
v -16.906557 -5.852710 68.290459
v 32.578838 -0.000002 32.578915
v 32.209553 -5.302557 32.209629
v -17.765131 0.000000 66.217674
v -17.964987 -5.302555 65.735191
s 1
f 825 827 828 826
f 829 830 832 831
g Torus.105_Torus.383
v 34.165279 -5.852712 34.165348
v 32.958126 -11.480505 32.958195
v -16.906557 -5.852710 68.290459
v -17.559862 -11.480503 66.713249
v 32.209553 -5.302557 32.209629
v 31.115879 -10.401337 31.115948
v -17.964987 -5.302555 65.735191
v -18.556881 -10.401336 64.306236
s 1
f 833 835 836 834
f 837 838 840 839
g Torus.106_Torus.384
v 32.958126 -11.480505 32.958195
v 30.997822 -16.667109 30.997890
v -17.559862 -11.480503 66.713249
v -18.620773 -16.667107 64.151970
v 31.115879 -10.401337 31.115948
v 29.339832 -15.100400 29.339909
v -18.556881 -10.401336 64.306236
v -19.518064 -15.100399 61.985725
s 1
f 841 843 844 842
f 845 846 848 847
g Torus.107_Torus.385
v 30.997822 -16.667109 30.997890
v 28.359692 -21.213205 28.359760
v -18.620773 -16.667107 64.151970
v -20.048517 -21.213203 60.705086
v 29.339832 -15.100400 29.339909
v 26.949680 -19.219164 26.949757
v -19.518064 -15.100399 61.985725
v -20.811609 -19.219162 58.862831
s 1
f 849 851 852 850
f 853 854 856 855
g Torus.108_Torus.386
v 28.359692 -21.213205 28.359760
v 25.145113 -24.944090 25.145184
v -20.048517 -21.213203 60.705086
v -21.788239 -24.944088 56.505043
v 26.949680 -19.219164 26.949757
v 24.037279 -22.599346 24.037350
v -20.811609 -19.219162 58.862831
v -22.387791 -22.599342 55.057594
s 1
f 857 859 860 858
f 861 862 864 863
g Torus.109_Torus.387
v 25.145113 -24.944090 25.145184
v 21.477619 -27.716387 21.477694
v -21.788239 -24.944088 56.505043
v -23.773071 -27.716385 51.713234
v 24.037279 -22.599346 24.037350
v 20.714542 -25.111046 20.714609
v -22.387791 -22.599342 55.057594
v -24.186047 -25.111044 50.716225
s 1
f 865 867 868 866
f 869 870 872 871
g Torus.110_Torus.388
v 21.477619 -27.716387 21.477694
v 17.498173 -29.423559 17.498240
v -23.773071 -27.716385 51.713234
v -25.926735 -29.423557 46.513836
v 20.714542 -25.111046 20.714609
v 17.109150 -26.657743 17.109224
v -24.186047 -25.111044 50.716225
v -26.137268 -26.657742 46.005558
s 1
f 873 875 876 874
f 877 878 880 879
g Torus.111_Torus.389
v 17.498173 -29.423559 17.498240
v 13.359685 -30.000000 13.359751
v -25.926735 -29.423557 46.513836
v -28.166470 -29.999998 41.106640
v 17.109150 -26.657743 17.109224
v 13.359685 -27.180000 13.359751
v -26.137268 -26.657742 46.005558
v -28.166470 -27.179998 41.106640
s 1
f 881 883 884 882
f 885 886 888 887
g Torus.112_Torus.390
v 13.359685 -30.000000 13.359751
v 9.221197 -29.423559 9.221261
v -28.166470 -29.999998 41.106640
v -30.406202 -29.423557 35.699444
v 13.359685 -27.180000 13.359751
v 9.610220 -26.657743 9.610276
v -28.166470 -27.179998 41.106640
v -30.195669 -26.657742 36.207722
s 1
f 889 891 892 890
f 893 894 896 895
g Torus.113_Torus.391
v 9.221197 -29.423559 9.221261
v 5.241751 -27.716387 5.241806
v -30.406202 -29.423557 35.699444
v -32.559864 -27.716385 30.500042
v 9.610220 -26.657743 9.610276
v 6.004827 -25.111046 6.004891
v -30.195669 -26.657742 36.207722
v -32.146889 -25.111044 31.497059
s 1
f 897 899 900 898
f 901 902 904 903
g Torus.114_Torus.392
v 5.241751 -27.716387 5.241806
v 1.574263 -24.944088 1.574326
v -32.559864 -27.716385 30.500042
v -34.544697 -24.944086 25.708241
v 6.004827 -25.111046 6.004891
v 2.682090 -22.599344 2.682152
v -32.146889 -25.111044 31.497059
v -33.945145 -22.599342 27.155689
s 1
f 905 907 908 906
f 909 910 912 911
g Torus.115_Torus.393
v 1.574263 -24.944088 1.574326
v -1.640313 -21.213203 -1.640252
v -34.544697 -24.944086 25.708241
v -36.284409 -21.213202 21.508198
v 2.682090 -22.599344 2.682152
v -0.230309 -19.219162 -0.230255
v -33.945145 -22.599342 27.155689
v -35.521320 -19.219160 23.350452
s 1
f 913 915 916 914
f 917 918 920 919
g Torus.116_Torus.394
v -1.640313 -21.213203 -1.640252
v -4.278450 -16.667107 -4.278389
v -36.284409 -21.213202 21.508198
v -37.712158 -16.667105 18.061306
v -0.230309 -19.219162 -0.230255
v -2.620461 -15.100399 -2.620400
v -35.521320 -19.219160 23.350452
v -36.814861 -15.100397 20.227573
s 1
f 921 923 924 922
f 925 926 928 927
g Torus.117_Torus.395
v -4.278450 -16.667107 -4.278389
v -6.238754 -11.480503 -6.238694
v -37.712158 -16.667105 18.061306
v -38.773071 -11.480501 15.500041
v -2.620461 -15.100399 -2.620400
v -4.396500 -10.401336 -4.396447
v -36.814861 -15.100397 20.227573
v -37.776051 -10.401334 17.907063
s 1
f 929 931 932 930
f 933 934 936 935
g Torus.118_Torus.396
v -6.238754 -11.480503 -6.238694
v -7.445907 -5.852709 -7.445855
v -38.773071 -11.480501 15.500041
v -39.426376 -5.852708 13.922816
v -4.396500 -10.401336 -4.396447
v -5.490180 -5.302555 -5.490129
v -37.776051 -10.401334 17.907063
v -38.367947 -5.302553 16.478098
s 1
f 937 939 940 938
f 941 942 944 943
g Torus.119_Torus.397
v -7.445907 -5.852709 -7.445855
v -7.853515 0.000000 -7.853456
v -39.426376 -5.852708 13.922816
v -39.646973 0.000002 13.390254
v -5.490180 -5.302555 -5.490129
v -5.859473 0.000000 -5.859414
v -38.367947 -5.302553 16.478098
v -38.567802 0.000002 15.995593
s 1
f 945 947 948 946
f 949 950 952 951
g Torus.120_Torus.398
v -7.853515 0.000000 -7.853456
v -7.445906 5.852710 -7.445855
v -39.646973 0.000002 13.390254
v -39.426376 5.852712 13.922816
v -5.859473 0.000000 -5.859414
v -5.490180 5.302556 -5.490129
v -38.567802 0.000002 15.995593
v -38.367947 5.302557 16.478098
s 1
f 953 955 956 954
f 957 958 960 959
g Torus.121_Torus.399
v -7.445906 5.852710 -7.445855
v -6.238753 11.480503 -6.238694
v -39.426376 5.852712 13.922816
v -38.773071 11.480505 15.500041
v -5.490180 5.302556 -5.490129
v -4.396499 10.401336 -4.396447
v -38.367947 5.302557 16.478098
v -37.776051 10.401338 17.907063
s 1
f 961 963 964 962
f 965 966 968 967
g Torus.122_Torus.400
v -6.238753 11.480503 -6.238694
v -4.278449 16.667107 -4.278389
v -38.773071 11.480505 15.500041
v -37.712158 16.667109 18.061306
v -4.396499 10.401336 -4.396447
v -2.620460 15.100399 -2.620399
v -37.776051 10.401338 17.907063
v -36.814861 15.100401 20.227573
s 1
f 969 971 972 970
f 973 974 976 975
g Torus.123_Torus.401
v -4.278449 16.667107 -4.278389
v -1.640311 21.213203 -1.640251
v -37.712158 16.667109 18.061306
v -36.284409 21.213205 21.508198
v -2.620460 15.100399 -2.620399
v -0.230308 19.219162 -0.230255
v -36.814861 15.100401 20.227573
v -35.521320 19.219164 23.350452
s 1
f 977 979 980 978
f 981 982 984 983
g Torus.124_Torus.402
v -1.640311 21.213203 -1.640251
v 1.574265 24.944088 1.574326
v -36.284409 21.213205 21.508198
v -34.544697 24.944090 25.708241
v -0.230308 19.219162 -0.230255
v 2.682091 22.599344 2.682152
v -35.521320 19.219164 23.350452
v -33.945145 22.599346 27.155689
s 1
f 985 987 988 986
f 989 990 992 991
g Torus.125_Torus.403
v 1.574265 24.944088 1.574326
v 5.241754 27.716387 5.241807
v -34.544697 24.944090 25.708241
v -32.559864 27.716389 30.500042
v 2.682091 22.599344 2.682152
v 6.004829 25.111046 6.004892
v -33.945145 22.599346 27.155689
v -32.146889 25.111048 31.497059
s 1
f 993 995 996 994
f 997 998 1000 999
g Torus.126_Torus.404
v 5.241754 27.716387 5.241807
v 9.221199 29.423559 9.221261
v -32.559864 27.716389 30.500042
v -30.406199 29.423561 35.699444
v 6.004829 25.111046 6.004892
v 9.610222 26.657743 9.610276
v -32.146889 25.111048 31.497059
v -30.195665 26.657745 36.207722
s 1
f 1001 1003 1004 1002
f 1005 1006 1008 1007
g Torus.127_Torus.405
v 9.221199 29.423559 9.221261
v 13.359687 30.000000 13.359751
v -30.406199 29.423561 35.699444
v -28.166466 30.000002 41.106640
v 9.610222 26.657743 9.610276
v 13.359687 27.180000 13.359751
v -30.195665 26.657745 36.207722
v -28.166466 27.180002 41.106640
s 1
f 1009 1011 1012 1010
f 1013 1014 1016 1015
g Torus.128_Torus.406
v 13.359687 30.000000 13.359751
v 17.498177 29.423559 17.498240
v -28.166466 30.000002 41.106640
v -25.926731 29.423561 46.513836
v 13.359687 27.180000 13.359751
v 17.109154 26.657743 17.109224
v -28.166466 27.180002 41.106640
v -26.137264 26.657745 46.005558
s 1
f 1017 1019 1020 1018
f 1021 1022 1024 1023
