# Blender v2.78 (sub 0) OBJ File: 'RailSlopeUp10.blend'
# www.blender.org
mtllib RailSlopeUp10_col.mtl
o Cube.050
v 10.656177 0.955870 -4.000000
v 10.656177 0.955870 0.000000
v 10.343823 0.955870 -0.000001
v 10.343824 0.955870 -4.000000
v 10.722988 1.905697 -3.999994
v 10.722988 1.905697 0.000006
v 10.277012 1.905697 -0.000001
v 10.277012 1.905697 -4.000000
v 10.852067 1.606315 -3.999997
v 10.825857 1.539268 -3.999997
v 10.825857 1.539268 0.000003
v 10.852066 1.606315 0.000003
v 10.147933 1.606315 -0.000001
v 10.174143 1.539268 -0.000001
v 10.174143 1.539268 -4.000000
v 10.147933 1.606315 -4.000000
v 10.827013 1.872461 -3.999994
v 10.852067 1.830535 -3.999994
v 10.852066 1.830535 0.000006
v 10.827012 1.872461 0.000006
v 10.172987 1.872461 -0.000003
v 10.147933 1.830535 -0.000003
v 10.147933 1.830535 -4.000000
v 10.172987 1.872461 -4.000000
v 10.680851 1.491614 -3.999997
v 10.656177 1.447078 -3.999997
v 10.656176 1.447078 0.000003
v 10.680851 1.491614 0.000003
v 10.319149 1.491614 -0.000001
v 10.343823 1.447078 -0.000001
v 10.343824 1.447078 -4.000000
v 10.319149 1.491614 -4.000000
vt 0.1509 0.7307
vt 0.1509 0.7057
vt 0.1513 0.7057
vt 0.1513 0.7307
vt 0.1042 0.6592
vt 0.1051 0.6592
vt 0.1051 0.6842
vt 0.1042 0.6842
vt 0.1528 0.7307
vt 0.1514 0.7307
vt 0.1514 0.7057
vt 0.1528 0.7057
vt 0.1646 0.7057
vt 0.1650 0.7057
vt 0.1650 0.7307
vt 0.1646 0.7307
vt 0.1544 0.7057
vt 0.1558 0.7057
vt 0.1558 0.7307
vt 0.1544 0.7307
vt 0.1646 0.7307
vt 0.1642 0.7307
vt 0.1642 0.7057
vt 0.1646 0.7057
vt 0.1591 0.7307
vt 0.1585 0.7307
vt 0.1585 0.7057
vt 0.1591 0.7057
vt 0.1605 0.7057
vt 0.1611 0.7057
vt 0.1611 0.7307
vt 0.1605 0.7307
vt 0.1603 0.7307
vt 0.1603 0.7057
vt 0.1593 0.7057
vt 0.1593 0.7307
vt 0.1584 0.7307
vt 0.1584 0.7057
vt 0.1612 0.7057
vt 0.1612 0.7307
vt 0.1499 0.7057
vt 0.1499 0.7307
vt 0.1495 0.7307
vt 0.1495 0.7057
vt 0.1513 0.7307
vt 0.1513 0.7057
vt 0.1559 0.7057
vt 0.1559 0.7307
vn -0.1540 0.9881 0.0000
vn -0.6215 0.7834 0.0000
vn 0.1540 0.9881 0.0000
vn 1.0000 0.0000 0.0000
vn 0.9682 -0.2503 0.0000
vn -0.6374 -0.7705 -0.0000
vn -0.6873 -0.7263 0.0000
vn -1.0000 0.0000 -0.0000
vn -0.9682 -0.2503 -0.0000
vn 0.6374 -0.7705 0.0000
vn 0.6874 -0.7263 0.0000
vn 0.9827 -0.1852 0.0000
vn 0.9640 0.2661 0.0000
vn -0.9827 -0.1852 0.0000
vn -0.9640 0.2661 0.0000
vn 0.6215 0.7834 0.0000
usemtl Material
s 1
f 7/1/1 8/2/1 24/3/2 21/4/2
f 5/5/3 8/6/1 7/7/1 6/8/3
f 1/9/4 26/10/5 27/11/5 2/12/4
f 29/13/6 14/14/7 15/15/7 32/16/6
f 3/17/8 30/18/9 31/19/9 4/20/8
f 25/21/10 10/22/11 11/23/11 28/24/10
f 9/25/12 18/26/13 19/27/13 12/28/12
f 13/29/14 22/30/15 23/31/15 16/32/14
f 13/29/14 16/32/14 15/33/7 14/34/7
f 9/25/12 12/28/12 11/35/11 10/36/11
f 19/27/13 18/26/13 17/37/16 20/38/16
f 23/31/15 22/30/15 21/39/2 24/40/2
f 5/41/3 6/42/3 20/43/16 17/44/16
f 25/45/10 28/46/10 27/11/5 26/10/5
f 29/47/6 32/48/6 31/19/9 30/18/9
o Cube.049
v 10.656177 0.955870 -4.000000
v 10.343824 0.955870 -4.000000
v 10.722988 1.905697 -3.999994
v 10.277012 1.905697 -4.000000
v 10.852067 1.606315 -3.999997
v 10.825857 1.539268 -3.999997
v 10.174143 1.539268 -4.000000
v 10.147933 1.606315 -4.000000
v 10.827013 1.872461 -3.999994
v 10.852067 1.830535 -3.999994
v 10.147933 1.830535 -4.000000
v 10.172987 1.872461 -4.000000
v 10.680851 1.491614 -3.999997
v 10.656177 1.447078 -3.999997
v 10.343824 1.447078 -4.000000
v 10.319149 1.491614 -4.000000
v 10.656177 1.058325 -11.828063
v 10.343824 1.058325 -11.828063
v 10.852067 1.708579 -11.811033
v 10.825857 1.641539 -11.812788
v 10.174143 1.641539 -11.812791
v 10.147933 1.708579 -11.811036
v 10.277012 2.007842 -11.803200
v 10.722988 2.007842 -11.803194
v 10.852067 1.932700 -11.805161
v 10.827013 1.974631 -11.804064
v 10.172987 1.974631 -11.804070
v 10.147933 1.932700 -11.805166
v 10.680851 1.593886 -11.814035
v 10.656177 1.549391 -11.815202
v 10.343824 1.549391 -11.815205
v 10.319149 1.593886 -11.814038
vt 0.1544 0.7307
vt 0.1558 0.7307
vt 0.1558 0.7307
vt 0.1544 0.7307
vt 0.1051 0.6592
vt 0.1042 0.6592
vt 0.1042 0.6592
vt 0.1051 0.6592
vt 0.1605 0.7307
vt 0.1611 0.7307
vt 0.1611 0.7307
vt 0.1605 0.7307
vt 0.1513 0.7057
vt 0.1509 0.7057
vt 0.1509 0.7057
vt 0.1513 0.7057
vt 0.1642 0.7307
vt 0.1646 0.7307
vt 0.1646 0.7307
vt 0.1642 0.7307
vt 0.1646 0.7307
vt 0.1650 0.7307
vt 0.1650 0.7307
vt 0.1646 0.7307
vt 0.1591 0.7307
vt 0.1593 0.7307
vt 0.1593 0.7307
vt 0.1591 0.7307
vt 0.1584 0.7307
vt 0.1585 0.7307
vt 0.1585 0.7307
vt 0.1584 0.7307
vt 0.1513 0.7307
vt 0.1514 0.7307
vt 0.1514 0.7307
vt 0.1513 0.7307
vt 0.1612 0.7307
vt 0.1612 0.7307
vt 0.1603 0.7307
vt 0.1603 0.7307
vt 0.1559 0.7307
vt 0.1559 0.7307
vt 0.1499 0.7057
vt 0.1495 0.7057
vt 0.1495 0.7057
vt 0.1499 0.7057
vt 0.1528 0.7307
vt 0.1528 0.7307
vn -1.0000 0.0000 0.0000
vn -0.9687 -0.2484 -0.0033
vn -0.1542 0.9880 0.0129
vn 0.1542 0.9880 0.0129
vn -0.9824 -0.1867 -0.0024
vn -0.9645 0.2640 0.0035
vn -0.6230 0.7822 0.0102
vn 0.6856 -0.7279 -0.0095
vn 0.6389 -0.7692 -0.0101
vn -0.6389 -0.7692 -0.0101
vn -0.6856 -0.7279 -0.0095
vn 0.9824 -0.1867 -0.0024
vn 0.6230 0.7822 0.0102
vn 0.9645 0.2640 0.0035
vn 0.9687 -0.2484 -0.0033
vn 1.0000 0.0000 0.0000
usemtl Material
s 1
f 34/49/17 47/50/18 63/51/18 50/52/17
f 36/53/19 35/54/20 56/55/20 55/56/19
f 40/57/21 43/58/22 60/59/22 54/60/21
f 44/61/23 36/62/19 55/63/19 59/64/23
f 38/65/24 45/66/25 61/67/25 52/68/24
f 48/69/26 39/70/27 53/71/27 64/72/26
f 37/73/28 38/74/24 52/75/24 51/76/28
f 41/77/29 42/78/30 57/79/30 58/80/29
f 45/81/25 46/82/31 62/83/31 61/84/25
f 43/58/22 44/85/23 59/86/23 60/59/22
f 39/87/27 40/57/21 54/60/21 53/88/27
f 47/50/18 48/89/26 64/90/26 63/51/18
f 35/91/20 41/92/29 58/93/29 56/94/20
f 42/78/30 37/73/28 51/76/28 57/79/30
f 46/82/31 33/95/32 49/96/32 62/83/31
o Cube.048
v 10.656177 1.058325 -11.828063
v 10.343824 1.058325 -11.828063
v 10.852067 1.708579 -11.811033
v 10.825857 1.641539 -11.812788
v 10.174143 1.641539 -11.812791
v 10.147933 1.708579 -11.811036
v 10.277012 2.007842 -11.803200
v 10.722988 2.007842 -11.803194
v 10.852067 1.932700 -11.805161
v 10.827013 1.974631 -11.804064
v 10.172987 1.974631 -11.804070
v 10.147933 1.932700 -11.805166
v 10.680851 1.593886 -11.814035
v 10.656177 1.549391 -11.815202
v 10.343824 1.549391 -11.815205
v 10.319149 1.593886 -11.814038
v 10.656177 1.365680 -19.650763
v 10.343824 1.365680 -19.650763
v 10.852067 2.015247 -19.616716
v 10.825857 1.948276 -19.620224
v 10.174143 1.948276 -19.620228
v 10.147933 2.015247 -19.616718
v 10.277012 2.314212 -19.601051
v 10.722988 2.314212 -19.601046
v 10.852067 2.239139 -19.604979
v 10.827013 2.281024 -19.602783
v 10.172987 2.281024 -19.602791
v 10.147933 2.239139 -19.604984
v 10.680851 1.900691 -19.622719
v 10.656177 1.856242 -19.625050
v 10.343824 1.856242 -19.625053
v 10.319149 1.900691 -19.622723
vt 0.1513 0.7057
vt 0.1509 0.7057
vt 0.1509 0.7057
vt 0.1513 0.7057
vt 0.1513 0.7307
vt 0.1514 0.7307
vt 0.1514 0.7307
vt 0.1513 0.7307
vt 0.1558 0.7307
vt 0.1559 0.7307
vt 0.1559 0.7307
vt 0.1558 0.7307
vt 0.1528 0.7307
vt 0.1528 0.7307
vt 0.1544 0.7307
vt 0.1544 0.7307
vt 0.1642 0.7307
vt 0.1646 0.7307
vt 0.1646 0.7307
vt 0.1642 0.7307
vt 0.1591 0.7307
vt 0.1593 0.7307
vt 0.1593 0.7307
vt 0.1591 0.7307
vt 0.1646 0.7307
vt 0.1650 0.7307
vt 0.1650 0.7307
vt 0.1646 0.7307
vt 0.1603 0.7307
vt 0.1605 0.7307
vt 0.1605 0.7307
vt 0.1603 0.7307
vt 0.1051 0.6592
vt 0.1042 0.6592
vt 0.1042 0.6592
vt 0.1051 0.6592
vt 0.1584 0.7307
vt 0.1585 0.7307
vt 0.1585 0.7307
vt 0.1584 0.7307
vt 0.1611 0.7307
vt 0.1612 0.7307
vt 0.1612 0.7307
vt 0.1611 0.7307
vt 0.1499 0.7057
vt 0.1495 0.7057
vt 0.1495 0.7057
vt 0.1499 0.7057
vn -0.6230 0.7816 0.0307
vn -0.1542 0.9873 0.0388
vn 0.6388 -0.7688 -0.0302
vn 0.9686 -0.2483 -0.0098
vn 0.6388 -0.7687 -0.0302
vn -0.9686 -0.2483 -0.0098
vn -0.6388 -0.7688 -0.0302
vn 1.0000 0.0000 0.0000
vn -1.0000 0.0000 0.0000
vn 0.6856 -0.7274 -0.0286
vn 0.9824 -0.1866 -0.0073
vn -0.6856 -0.7274 -0.0286
vn -0.9824 -0.1866 -0.0073
vn 0.1542 0.9873 0.0388
vn 0.6230 0.7816 0.0307
vn 0.9645 0.2637 0.0104
vn -0.9645 0.2637 0.0104
usemtl Material
s 1
f 75/97/33 71/98/34 87/99/34 91/100/33
f 77/101/35 78/102/36 94/103/36 93/104/37
f 79/105/38 80/106/39 96/107/39 95/108/38
f 78/102/36 65/109/40 81/110/40 94/103/36
f 66/111/41 79/105/38 95/108/38 82/112/41
f 68/113/42 77/114/35 93/115/37 84/116/42
f 67/117/43 68/118/42 84/119/42 83/120/43
f 80/121/39 69/122/44 85/123/44 96/124/39
f 69/125/44 70/126/45 86/127/45 85/128/44
f 71/129/34 72/130/46 88/131/46 87/132/34
f 74/133/47 73/134/48 89/135/48 90/136/47
f 76/137/49 75/138/33 91/139/33 92/140/49
f 72/141/46 74/142/47 90/143/47 88/144/46
f 73/134/48 67/117/43 83/120/43 89/135/48
f 70/126/45 76/137/49 92/140/49 86/127/45
o Cube.047
v 10.656177 1.365680 -19.650763
v 10.343824 1.365680 -19.650763
v 10.852067 2.015247 -19.616716
v 10.825857 1.948276 -19.620224
v 10.174143 1.948276 -19.620228
v 10.147933 2.015247 -19.616718
v 10.277012 2.314212 -19.601051
v 10.722988 2.314212 -19.601046
v 10.852067 2.239139 -19.604979
v 10.827013 2.281024 -19.602783
v 10.172987 2.281024 -19.602791
v 10.147933 2.239139 -19.604984
v 10.680851 1.900691 -19.622719
v 10.656177 1.856242 -19.625050
v 10.343824 1.856242 -19.625053
v 10.319149 1.900691 -19.622723
v 10.656177 1.877717 -27.462734
v 10.343824 1.877717 -27.462734
v 10.852067 2.526162 -27.411697
v 10.825857 2.459306 -27.416958
v 10.174143 2.459306 -27.416962
v 10.147933 2.526162 -27.411699
v 10.277012 2.824624 -27.388212
v 10.722988 2.824624 -27.388206
v 10.852067 2.749665 -27.394102
v 10.827013 2.791482 -27.390812
v 10.172987 2.791482 -27.390818
v 10.147933 2.749665 -27.394108
v 10.680851 2.411813 -27.420696
v 10.656177 2.367410 -27.424191
v 10.343824 2.367410 -27.424194
v 10.319149 2.411813 -27.420700
vt 0.1513 0.7307
vt 0.1514 0.7307
vt 0.1514 0.7307
vt 0.1513 0.7307
vt 0.1558 0.7307
vt 0.1559 0.7307
vt 0.1559 0.7307
vt 0.1558 0.7307
vt 0.1528 0.7307
vt 0.1528 0.7307
vt 0.1544 0.7307
vt 0.1544 0.7307
vt 0.1642 0.7307
vt 0.1646 0.7307
vt 0.1646 0.7307
vt 0.1642 0.7307
vt 0.1591 0.7307
vt 0.1593 0.7307
vt 0.1593 0.7307
vt 0.1591 0.7307
vt 0.1646 0.7307
vt 0.1650 0.7307
vt 0.1650 0.7307
vt 0.1646 0.7307
vt 0.1603 0.7307
vt 0.1605 0.7307
vt 0.1605 0.7307
vt 0.1603 0.7307
vt 0.1051 0.6592
vt 0.1042 0.6592
vt 0.1042 0.6592
vt 0.1051 0.6592
vt 0.1584 0.7307
vt 0.1585 0.7307
vt 0.1585 0.7307
vt 0.1584 0.7307
vt 0.1611 0.7307
vt 0.1612 0.7307
vt 0.1612 0.7307
vt 0.1611 0.7307
vt 0.1499 0.7057
vt 0.1495 0.7057
vt 0.1495 0.7057
vt 0.1499 0.7057
vt 0.1513 0.7057
vt 0.1509 0.7057
vt 0.1509 0.7057
vt 0.1513 0.7057
vn 0.6389 -0.7677 -0.0503
vn 0.9687 -0.2479 -0.0162
vn -0.9687 -0.2479 -0.0162
vn -0.6388 -0.7677 -0.0503
vn -0.6389 -0.7677 -0.0503
vn 1.0000 -0.0000 0.0000
vn -1.0000 -0.0000 0.0000
vn 0.6855 -0.7265 -0.0476
vn 0.6856 -0.7265 -0.0476
vn 0.9824 -0.1863 -0.0122
vn -0.6856 -0.7265 -0.0476
vn -0.9824 -0.1863 -0.0122
vn -0.1542 0.9859 0.0646
vn 0.1542 0.9859 0.0646
vn 0.6230 0.7805 0.0512
vn 0.9645 0.2634 0.0173
vn -0.9645 0.2634 0.0173
vn -0.6230 0.7805 0.0512
usemtl Material
s 1
f 109/145/50 110/146/51 126/147/51 125/148/50
f 111/149/52 112/150/53 128/151/54 127/152/52
f 110/146/51 97/153/55 113/154/55 126/147/51
f 98/155/56 111/149/52 127/152/52 114/156/56
f 100/157/57 109/158/50 125/159/50 116/160/58
f 99/161/59 100/162/57 116/163/58 115/164/59
f 112/165/53 101/166/60 117/167/60 128/168/54
f 101/169/60 102/170/61 118/171/61 117/172/60
f 103/173/62 104/174/63 120/175/63 119/176/62
f 106/177/64 105/178/65 121/179/65 122/180/64
f 108/181/66 107/182/67 123/183/67 124/184/66
f 104/185/63 106/186/64 122/187/64 120/188/63
f 105/178/65 99/161/59 115/164/59 121/179/65
f 102/170/61 108/181/66 124/184/66 118/171/61
f 107/189/67 103/190/62 119/191/62 123/192/67
o Cube.046
v 10.656177 1.877717 -27.462734
v 10.343824 1.877717 -27.462734
v 10.852067 2.526162 -27.411697
v 10.825857 2.459306 -27.416958
v 10.174143 2.459306 -27.416962
v 10.147933 2.526162 -27.411699
v 10.277012 2.824624 -27.388212
v 10.722988 2.824624 -27.388206
v 10.852067 2.749665 -27.394102
v 10.827013 2.791482 -27.390812
v 10.172987 2.791482 -27.390818
v 10.147933 2.749665 -27.394108
v 10.680851 2.411813 -27.420696
v 10.656177 2.367410 -27.424191
v 10.343824 2.367410 -27.424194
v 10.319149 2.411813 -27.420700
v 10.656177 2.594068 -35.258629
v 10.343824 2.594068 -35.258629
v 10.852067 3.240933 -35.190632
v 10.825857 3.174237 -35.197647
v 10.174143 3.174237 -35.197647
v 10.147933 3.240933 -35.190636
v 10.277012 3.538686 -35.159340
v 10.722988 3.538686 -35.159336
v 10.852067 3.463910 -35.167194
v 10.827013 3.505612 -35.162811
v 10.172987 3.505612 -35.162819
v 10.147933 3.463910 -35.167202
v 10.680851 3.126859 -35.202621
v 10.656177 3.082570 -35.207279
v 10.343824 3.082570 -35.207283
v 10.319149 3.126859 -35.202629
vt 0.1513 0.7307
vt 0.1514 0.7307
vt 0.1514 0.7307
vt 0.1513 0.7307
vt 0.1558 0.7307
vt 0.1559 0.7307
vt 0.1559 0.7307
vt 0.1558 0.7307
vt 0.1528 0.7307
vt 0.1528 0.7307
vt 0.1544 0.7307
vt 0.1544 0.7307
vt 0.1642 0.7307
vt 0.1646 0.7307
vt 0.1646 0.7307
vt 0.1642 0.7307
vt 0.1591 0.7307
vt 0.1593 0.7307
vt 0.1593 0.7307
vt 0.1591 0.7307
vt 0.1646 0.7307
vt 0.1650 0.7307
vt 0.1650 0.7307
vt 0.1646 0.7307
vt 0.1603 0.7307
vt 0.1605 0.7307
vt 0.1605 0.7307
vt 0.1603 0.7307
vt 0.1051 0.6592
vt 0.1042 0.6592
vt 0.1042 0.6592
vt 0.1051 0.6592
vt 0.1584 0.7307
vt 0.1585 0.7307
vt 0.1585 0.7307
vt 0.1584 0.7307
vt 0.1611 0.7307
vt 0.1612 0.7307
vt 0.1612 0.7307
vt 0.1611 0.7307
vt 0.1499 0.7057
vt 0.1495 0.7057
vt 0.1495 0.7057
vt 0.1499 0.7057
vt 0.1513 0.7057
vt 0.1509 0.7057
vt 0.1509 0.7057
vt 0.1513 0.7057
vn 0.6389 -0.7661 -0.0704
vn 0.9687 -0.2473 -0.0227
vn -0.9687 -0.2473 -0.0227
vn -0.6389 -0.7661 -0.0704
vn 1.0000 0.0000 0.0000
vn -1.0000 -0.0000 0.0000
vn 0.6855 -0.7250 -0.0666
vn 0.9824 -0.1859 -0.0171
vn -0.6855 -0.7250 -0.0666
vn -0.9824 -0.1859 -0.0171
vn -0.1543 0.9839 0.0904
vn 0.1543 0.9839 0.0904
vn 0.1542 0.9839 0.0904
vn 0.6230 0.7789 0.0716
vn 0.9645 0.2629 0.0242
vn -0.9645 0.2629 0.0242
vn -0.6231 0.7789 0.0716
vn -0.6230 0.7789 0.0716
usemtl Material
s 1
f 141/193/68 142/194/69 158/195/69 157/196/68
f 143/197/70 144/198/71 160/199/71 159/200/70
f 142/194/69 129/201/72 145/202/72 158/195/69
f 130/203/73 143/197/70 159/200/70 146/204/73
f 132/205/74 141/206/68 157/207/68 148/208/74
f 131/209/75 132/210/74 148/211/74 147/212/75
f 144/213/71 133/214/76 149/215/76 160/216/71
f 133/217/76 134/218/77 150/219/77 149/220/76
f 135/221/78 136/222/79 152/223/80 151/224/78
f 138/225/81 137/226/82 153/227/82 154/228/81
f 140/229/83 139/230/84 155/231/85 156/232/83
f 136/233/79 138/234/81 154/235/81 152/236/80
f 137/226/82 131/209/75 147/212/75 153/227/82
f 134/218/77 140/229/83 156/232/83 150/219/77
f 139/237/84 135/238/78 151/239/78 155/240/85
o Cube.045
v 10.656177 2.594068 -35.258629
v 10.343824 2.594068 -35.258629
v 10.852067 3.240933 -35.190632
v 10.825857 3.174237 -35.197647
v 10.174143 3.174237 -35.197647
v 10.147933 3.240933 -35.190636
v 10.277012 3.538686 -35.159340
v 10.722988 3.538686 -35.159336
v 10.852067 3.463910 -35.167194
v 10.827013 3.505612 -35.162811
v 10.172987 3.505612 -35.162819
v 10.147933 3.463910 -35.167202
v 10.680851 3.126859 -35.202621
v 10.656177 3.082570 -35.207279
v 10.343824 3.082570 -35.207283
v 10.319149 3.126859 -35.202629
v 10.656177 3.514248 -43.033096
v 10.343824 3.514248 -43.033096
v 10.852067 4.159100 -42.948189
v 10.825857 4.092609 -42.956947
v 10.174143 4.092609 -42.956947
v 10.147933 4.159100 -42.948193
v 10.277012 4.455936 -42.909119
v 10.722988 4.455936 -42.909111
v 10.852067 4.381390 -42.918926
v 10.827013 4.422955 -42.913452
v 10.172987 4.422955 -42.913460
v 10.147933 4.381390 -42.918930
v 10.680851 4.045368 -42.963161
v 10.656177 4.001240 -42.968975
v 10.343824 4.001240 -42.968979
v 10.319149 4.045368 -42.963169
vt 0.1558 0.7307
vt 0.1559 0.7307
vt 0.1559 0.7307
vt 0.1558 0.7307
vt 0.1514 0.7307
vt 0.1528 0.7307
vt 0.1528 0.7307
vt 0.1514 0.7307
vt 0.1544 0.7307
vt 0.1544 0.7307
vt 0.1642 0.7307
vt 0.1646 0.7307
vt 0.1646 0.7307
vt 0.1642 0.7307
vt 0.1591 0.7307
vt 0.1593 0.7307
vt 0.1593 0.7307
vt 0.1591 0.7307
vt 0.1646 0.7307
vt 0.1650 0.7307
vt 0.1650 0.7307
vt 0.1646 0.7307
vt 0.1603 0.7307
vt 0.1605 0.7307
vt 0.1605 0.7307
vt 0.1603 0.7307
vt 0.1051 0.6592
vt 0.1042 0.6592
vt 0.1042 0.6592
vt 0.1051 0.6592
vt 0.1584 0.7307
vt 0.1585 0.7307
vt 0.1585 0.7307
vt 0.1584 0.7307
vt 0.1611 0.7307
vt 0.1612 0.7307
vt 0.1612 0.7307
vt 0.1611 0.7307
vt 0.1499 0.7057
vt 0.1495 0.7057
vt 0.1495 0.7057
vt 0.1499 0.7057
vt 0.1513 0.7057
vt 0.1509 0.7057
vt 0.1509 0.7057
vt 0.1513 0.7057
vt 0.1513 0.7307
vt 0.1513 0.7307
vn -0.9687 -0.2467 -0.0292
vn -0.6388 -0.7640 -0.0904
vn 0.9687 -0.2467 -0.0292
vn 1.0000 0.0000 0.0000
vn -1.0000 0.0000 0.0000
vn 0.6856 -0.7230 -0.0856
vn 0.6388 -0.7640 -0.0904
vn 0.9824 -0.1854 -0.0219
vn -0.6856 -0.7230 -0.0856
vn -0.9824 -0.1854 -0.0219
vn -0.1543 0.9812 0.1161
vn 0.1543 0.9812 0.1161
vn 0.6230 0.7768 0.0919
vn 0.9645 0.2622 0.0310
vn -0.9645 0.2622 0.0310
vn -0.6230 0.7768 0.0919
usemtl Material
s 1
f 175/241/86 176/242/87 192/243/87 191/244/86
f 174/245/88 161/246/89 177/247/89 190/248/88
f 162/249/90 175/241/86 191/244/86 178/250/90
f 164/251/91 173/252/92 189/253/92 180/254/91
f 163/255/93 164/256/91 180/257/91 179/258/93
f 176/259/87 165/260/94 181/261/94 192/262/87
f 165/263/94 166/264/95 182/265/95 181/266/94
f 167/267/96 168/268/97 184/269/97 183/270/96
f 170/271/98 169/272/99 185/273/99 186/274/98
f 172/275/100 171/276/101 187/277/101 188/278/100
f 168/279/97 170/280/98 186/281/98 184/282/97
f 169/272/99 163/255/93 179/258/93 185/273/99
f 166/264/95 172/275/100 188/278/100 182/265/95
f 171/283/101 167/284/96 183/285/96 187/286/101
f 173/287/92 174/245/88 190/248/88 189/288/92
o Cube.044
v 10.656177 3.514248 -43.033096
v 10.343824 3.514248 -43.033096
v 10.852067 4.159100 -42.948189
v 10.825857 4.092609 -42.956947
v 10.174143 4.092609 -42.956947
v 10.147933 4.159100 -42.948193
v 10.277012 4.455936 -42.909119
v 10.722988 4.455936 -42.909111
v 10.852067 4.381390 -42.918926
v 10.827013 4.422955 -42.913452
v 10.172987 4.422955 -42.913460
v 10.147933 4.381390 -42.918930
v 10.680851 4.045368 -42.963161
v 10.656177 4.001240 -42.968975
v 10.343824 4.001240 -42.968979
v 10.319149 4.045368 -42.963169
v 10.656177 4.637617 -50.780811
v 10.343824 4.637617 -50.780811
v 10.852067 5.280020 -50.679054
v 10.825857 5.213781 -50.689552
v 10.174143 5.213781 -50.689552
v 10.147933 5.280020 -50.679058
v 10.277012 5.575712 -50.632225
v 10.722988 5.575712 -50.632221
v 10.852067 5.501486 -50.643982
v 10.827013 5.542868 -50.637421
v 10.172987 5.542868 -50.637428
v 10.147933 5.501486 -50.643990
v 10.680851 5.166723 -50.696999
v 10.656177 5.122755 -50.703964
v 10.343824 5.122755 -50.703972
v 10.319149 5.166723 -50.697006
vt 0.1558 0.7307
vt 0.1559 0.7307
vt 0.1559 0.7307
vt 0.1558 0.7307
vt 0.1514 0.7307
vt 0.1528 0.7307
vt 0.1528 0.7307
vt 0.1514 0.7307
vt 0.1544 0.7307
vt 0.1544 0.7307
vt 0.1642 0.7307
vt 0.1646 0.7307
vt 0.1646 0.7307
vt 0.1642 0.7307
vt 0.1591 0.7307
vt 0.1593 0.7307
vt 0.1593 0.7307
vt 0.1591 0.7307
vt 0.1646 0.7307
vt 0.1650 0.7307
vt 0.1650 0.7307
vt 0.1646 0.7307
vt 0.1603 0.7307
vt 0.1605 0.7307
vt 0.1605 0.7307
vt 0.1603 0.7307
vt 0.1051 0.6592
vt 0.1042 0.6592
vt 0.1042 0.6592
vt 0.1051 0.6592
vt 0.1584 0.7307
vt 0.1585 0.7307
vt 0.1585 0.7307
vt 0.1584 0.7307
vt 0.1611 0.7307
vt 0.1612 0.7307
vt 0.1612 0.7307
vt 0.1611 0.7307
vt 0.1499 0.7057
vt 0.1495 0.7057
vt 0.1495 0.7057
vt 0.1499 0.7057
vt 0.1513 0.7057
vt 0.1509 0.7057
vt 0.1509 0.7057
vt 0.1513 0.7057
vt 0.1513 0.7307
vt 0.1513 0.7307
vn -0.9686 -0.2459 -0.0357
vn -0.6388 -0.7614 -0.1104
vn 0.9686 -0.2459 -0.0357
vn 1.0000 0.0000 0.0000
vn 0.9686 -0.2459 -0.0356
vn -1.0000 -0.0000 0.0000
vn 0.6856 -0.7205 -0.1045
vn 0.6388 -0.7614 -0.1104
vn 0.9824 -0.1848 -0.0268
vn -0.6856 -0.7205 -0.1045
vn -0.9824 -0.1848 -0.0268
vn -0.1543 0.9778 0.1418
vn 0.1543 0.9778 0.1418
vn 0.6230 0.7742 0.1122
vn 0.9645 0.2614 0.0379
vn 0.6230 0.7741 0.1122
vn -0.9645 0.2614 0.0379
vn -0.6230 0.7741 0.1122
usemtl Material
s 1
f 207/289/102 208/290/103 224/291/103 223/292/102
f 206/293/104 193/294/105 209/295/105 222/296/106
f 194/297/107 207/289/102 223/292/102 210/298/107
f 196/299/108 205/300/109 221/301/109 212/302/108
f 195/303/110 196/304/108 212/305/108 211/306/110
f 208/307/103 197/308/111 213/309/111 224/310/103
f 197/311/111 198/312/112 214/313/112 213/314/111
f 199/315/113 200/316/114 216/317/114 215/318/113
f 202/319/115 201/320/116 217/321/116 218/322/117
f 204/323/118 203/324/119 219/325/119 220/326/118
f 200/327/114 202/328/115 218/329/117 216/330/114
f 201/320/116 195/303/110 211/306/110 217/321/116
f 198/312/112 204/323/118 220/326/118 214/313/112
f 203/331/119 199/332/113 215/333/113 219/334/119
f 205/335/109 206/293/104 222/296/106 221/336/109
o Cube.043
v 10.656177 4.637617 -50.780811
v 10.343824 4.637617 -50.780811
v 10.852067 5.280020 -50.679054
v 10.825857 5.213781 -50.689552
v 10.174143 5.213781 -50.689552
v 10.147933 5.280020 -50.679058
v 10.277012 5.575712 -50.632225
v 10.722988 5.575712 -50.632221
v 10.852067 5.501486 -50.643982
v 10.827013 5.542868 -50.637421
v 10.172987 5.542868 -50.637428
v 10.147933 5.501486 -50.643990
v 10.680851 5.166723 -50.696999
v 10.656177 5.122755 -50.703964
v 10.343824 5.122755 -50.703972
v 10.319149 5.166723 -50.697006
v 10.656177 5.955595 -58.514519
v 10.343824 5.955595 -58.514519
v 10.852067 6.595091 -58.395981
v 10.825857 6.529150 -58.408207
v 10.174143 6.529150 -58.408207
v 10.147933 6.595091 -58.395981
v 10.277012 6.889479 -58.341423
v 10.722988 6.889479 -58.341419
v 10.852067 6.815573 -58.355122
v 10.827013 6.856772 -58.347481
v 10.172987 6.856772 -58.347485
v 10.147933 6.815573 -58.355125
v 10.680851 6.482321 -58.416885
v 10.656177 6.438559 -58.424999
v 10.343824 6.438559 -58.425003
v 10.319149 6.482321 -58.416889
vt 0.1558 0.7307
vt 0.1559 0.7307
vt 0.1559 0.7307
vt 0.1558 0.7307
vt 0.1514 0.7307
vt 0.1528 0.7307
vt 0.1528 0.7307
vt 0.1514 0.7307
vt 0.1544 0.7307
vt 0.1544 0.7307
vt 0.1642 0.7307
vt 0.1646 0.7307
vt 0.1646 0.7307
vt 0.1642 0.7307
vt 0.1591 0.7307
vt 0.1593 0.7307
vt 0.1593 0.7307
vt 0.1591 0.7307
vt 0.1646 0.7307
vt 0.1650 0.7307
vt 0.1650 0.7307
vt 0.1646 0.7307
vt 0.1603 0.7307
vt 0.1605 0.7307
vt 0.1605 0.7307
vt 0.1603 0.7307
vt 0.1051 0.6592
vt 0.1042 0.6592
vt 0.1042 0.6592
vt 0.1051 0.6592
vt 0.1584 0.7307
vt 0.1585 0.7307
vt 0.1585 0.7307
vt 0.1584 0.7307
vt 0.1611 0.7307
vt 0.1612 0.7307
vt 0.1612 0.7307
vt 0.1611 0.7307
vt 0.1499 0.7057
vt 0.1495 0.7057
vt 0.1495 0.7057
vt 0.1499 0.7057
vt 0.1513 0.7057
vt 0.1509 0.7057
vt 0.1509 0.7057
vt 0.1513 0.7057
vt 0.1513 0.7307
vt 0.1513 0.7307
vn -0.9686 -0.2451 -0.0418
vn -0.6386 -0.7586 -0.1293
vn -0.6389 -0.7583 -0.1292
vn -0.9687 -0.2447 -0.0417
vn 0.9686 -0.2451 -0.0418
vn 1.0000 -0.0000 0.0000
vn 0.9687 -0.2447 -0.0417
vn -1.0000 0.0000 0.0000
vn 0.6857 -0.7175 -0.1223
vn 0.6386 -0.7586 -0.1293
vn 0.6389 -0.7583 -0.1292
vn 0.6853 -0.7179 -0.1223
vn 0.9824 -0.1839 -0.0313
vn 0.9824 -0.1842 -0.0314
vn -0.6857 -0.7175 -0.1223
vn -0.6853 -0.7179 -0.1223
vn -0.9824 -0.1839 -0.0313
vn -0.9824 -0.1842 -0.0314
vn -0.1543 0.9740 0.1660
vn 0.1543 0.9740 0.1660
vn 0.6228 0.7713 0.1314
vn 0.9644 0.2606 0.0444
vn 0.9645 0.2602 0.0443
vn 0.6231 0.7710 0.1314
vn -0.9644 0.2606 0.0444
vn -0.6227 0.7713 0.1314
vn -0.6231 0.7710 0.1314
vn -0.9645 0.2602 0.0443
usemtl Material
s 1
f 239/337/120 240/338/121 256/339/122 255/340/123
f 238/341/124 225/342/125 241/343/125 254/344/126
f 226/345/127 239/337/120 255/340/123 242/346/127
f 228/347/128 237/348/129 253/349/130 244/350/131
f 227/351/132 228/352/128 244/353/131 243/354/133
f 240/355/121 229/356/134 245/357/135 256/358/122
f 229/359/134 230/360/136 246/361/137 245/362/135
f 231/363/138 232/364/139 248/365/139 247/366/138
f 234/367/140 233/368/141 249/369/142 250/370/143
f 236/371/144 235/372/145 251/373/146 252/374/147
f 232/375/139 234/376/140 250/377/143 248/378/139
f 233/368/141 227/351/132 243/354/133 249/369/142
f 230/360/136 236/371/144 252/374/147 246/361/137
f 235/379/145 231/380/138 247/381/138 251/382/146
f 237/383/129 238/341/124 254/344/126 253/384/130
o Cube.042
v 10.656177 5.955595 -58.514519
v 10.343824 5.955595 -58.514519
v 10.852067 6.595091 -58.395981
v 10.825857 6.529150 -58.408207
v 10.174143 6.529150 -58.408207
v 10.147933 6.595091 -58.395981
v 10.277012 6.889479 -58.341423
v 10.722988 6.889479 -58.341419
v 10.852067 6.815573 -58.355122
v 10.827013 6.856772 -58.347481
v 10.172987 6.856772 -58.347485
v 10.147933 6.815573 -58.355125
v 10.680851 6.482321 -58.416885
v 10.656177 6.438559 -58.424999
v 10.343824 6.438559 -58.425003
v 10.319149 6.482321 -58.416889
v 10.656208 6.939909 -63.825806
v 10.343855 6.939909 -63.825806
v 10.852098 7.579405 -63.707268
v 10.825888 7.513464 -63.719498
v 10.174174 7.513464 -63.719498
v 10.147964 7.579405 -63.707272
v 10.277042 7.873793 -63.652718
v 10.723020 7.873793 -63.652710
v 10.852098 7.799887 -63.666412
v 10.827044 7.841086 -63.658768
v 10.173018 7.841086 -63.658775
v 10.147964 7.799887 -63.666416
v 10.680882 7.466635 -63.728176
v 10.656208 7.422873 -63.736290
v 10.343855 7.422873 -63.736294
v 10.319180 7.466635 -63.728180
vt 0.1514 0.7307
vt 0.1528 0.7307
vt 0.1528 0.7307
vt 0.1514 0.7307
vt 0.1544 0.7307
vt 0.1558 0.7307
vt 0.1558 0.7307
vt 0.1544 0.7307
vt 0.1642 0.7307
vt 0.1646 0.7307
vt 0.1646 0.7307
vt 0.1642 0.7307
vt 0.1591 0.7307
vt 0.1593 0.7307
vt 0.1593 0.7307
vt 0.1591 0.7307
vt 0.1646 0.7307
vt 0.1650 0.7307
vt 0.1650 0.7307
vt 0.1646 0.7307
vt 0.1603 0.7307
vt 0.1605 0.7307
vt 0.1605 0.7307
vt 0.1603 0.7307
vt 0.1051 0.6592
vt 0.1042 0.6592
vt 0.1042 0.6592
vt 0.1051 0.6592
vt 0.1584 0.7307
vt 0.1585 0.7307
vt 0.1585 0.7307
vt 0.1584 0.7307
vt 0.1611 0.7307
vt 0.1612 0.7307
vt 0.1612 0.7307
vt 0.1611 0.7307
vt 0.1499 0.7057
vt 0.1495 0.7057
vt 0.1495 0.7057
vt 0.1499 0.7057
vt 0.1513 0.7057
vt 0.1509 0.7057
vt 0.1509 0.7057
vt 0.1513 0.7057
vt 0.1513 0.7307
vt 0.1513 0.7307
vt 0.1559 0.7307
vt 0.1559 0.7307
vn 0.9681 -0.2462 -0.0456
vn 1.0000 -0.0000 0.0000
vn -1.0000 0.0000 -0.0000
vn -0.9681 -0.2462 -0.0456
vn 0.6873 -0.7142 -0.1324
vn 0.6373 -0.7577 -0.1404
vn 0.9827 -0.1821 -0.0337
vn -0.6373 -0.7577 -0.1404
vn -0.6873 -0.7142 -0.1324
vn -0.9827 -0.1821 -0.0338
vn -0.1541 0.9715 0.1800
vn 0.1541 0.9715 0.1800
vn 0.6215 0.7703 0.1428
vn 0.9639 0.2618 0.0485
vn 0.9639 0.2617 0.0485
vn -0.9639 0.2617 0.0485
vn -0.6215 0.7703 0.1427
usemtl Material
s 1
f 270/385/148 257/386/149 273/387/149 286/388/148
f 258/389/150 271/390/151 287/391/151 274/392/150
f 260/393/152 269/394/153 285/395/153 276/396/152
f 259/397/154 260/398/152 276/399/152 275/400/154
f 272/401/155 261/402/156 277/403/156 288/404/155
f 261/405/156 262/406/157 278/407/157 277/408/156
f 263/409/158 264/410/159 280/411/159 279/412/158
f 266/413/160 265/414/161 281/415/162 282/416/160
f 268/417/163 267/418/164 283/419/164 284/420/163
f 264/421/159 266/422/160 282/423/160 280/424/159
f 265/414/161 259/397/154 275/400/154 281/415/162
f 262/406/157 268/417/163 284/420/163 278/407/157
f 267/425/164 263/426/158 279/427/158 283/428/164
f 269/429/153 270/385/148 286/388/148 285/430/153
f 271/390/151 272/431/155 288/432/155 287/391/151
o Cube.041
v 2.656177 5.955595 -58.514519
v 2.343824 5.955595 -58.514519
v 2.852067 6.595091 -58.395981
v 2.825857 6.529150 -58.408207
v 2.174143 6.529150 -58.408207
v 2.147933 6.595091 -58.395981
v 2.277012 6.889479 -58.341423
v 2.722989 6.889479 -58.341419
v 2.852067 6.815573 -58.355122
v 2.827013 6.856772 -58.347481
v 2.172987 6.856772 -58.347485
v 2.147933 6.815573 -58.355125
v 2.680851 6.482321 -58.416885
v 2.656177 6.438559 -58.424999
v 2.343824 6.438559 -58.425003
v 2.319149 6.482321 -58.416889
v 2.656208 6.939909 -63.825806
v 2.343855 6.939909 -63.825806
v 2.852098 7.579405 -63.707268
v 2.825888 7.513464 -63.719498
v 2.174174 7.513464 -63.719498
v 2.147964 7.579405 -63.707272
v 2.277043 7.873793 -63.652718
v 2.723020 7.873793 -63.652710
v 2.852098 7.799887 -63.666412
v 2.827044 7.841086 -63.658768
v 2.173018 7.841086 -63.658775
v 2.147964 7.799887 -63.666416
v 2.680883 7.466635 -63.728176
v 2.656208 7.422873 -63.736290
v 2.343855 7.422873 -63.736294
v 2.319180 7.466635 -63.728180
vt 0.1514 0.7307
vt 0.1528 0.7307
vt 0.1528 0.7307
vt 0.1514 0.7307
vt 0.1544 0.7307
vt 0.1558 0.7307
vt 0.1558 0.7307
vt 0.1544 0.7307
vt 0.1642 0.7307
vt 0.1646 0.7307
vt 0.1646 0.7307
vt 0.1642 0.7307
vt 0.1591 0.7307
vt 0.1593 0.7307
vt 0.1593 0.7307
vt 0.1591 0.7307
vt 0.1646 0.7307
vt 0.1650 0.7307
vt 0.1650 0.7307
vt 0.1646 0.7307
vt 0.1603 0.7307
vt 0.1605 0.7307
vt 0.1605 0.7307
vt 0.1603 0.7307
vt 0.1051 0.6592
vt 0.1042 0.6592
vt 0.1042 0.6592
vt 0.1051 0.6592
vt 0.1584 0.7307
vt 0.1585 0.7307
vt 0.1585 0.7307
vt 0.1584 0.7307
vt 0.1611 0.7307
vt 0.1612 0.7307
vt 0.1612 0.7307
vt 0.1611 0.7307
vt 0.1499 0.7057
vt 0.1495 0.7057
vt 0.1495 0.7057
vt 0.1499 0.7057
vt 0.1513 0.7057
vt 0.1509 0.7057
vt 0.1509 0.7057
vt 0.1513 0.7057
vt 0.1513 0.7307
vt 0.1513 0.7307
vt 0.1559 0.7307
vt 0.1559 0.7307
vn 0.9681 -0.2462 -0.0456
vn 1.0000 -0.0000 0.0000
vn -1.0000 0.0000 -0.0000
vn -0.9681 -0.2462 -0.0456
vn 0.6873 -0.7142 -0.1324
vn 0.6373 -0.7577 -0.1404
vn 0.9827 -0.1821 -0.0337
vn -0.6373 -0.7577 -0.1404
vn -0.6873 -0.7142 -0.1324
vn -0.9827 -0.1821 -0.0338
vn -0.1541 0.9715 0.1800
vn 0.1541 0.9715 0.1800
vn 0.6215 0.7703 0.1428
vn 0.9639 0.2618 0.0485
vn 0.9639 0.2617 0.0485
vn -0.9639 0.2617 0.0485
vn -0.6215 0.7703 0.1427
usemtl Material
s 1
f 302/433/165 289/434/166 305/435/166 318/436/165
f 290/437/167 303/438/168 319/439/168 306/440/167
f 292/441/169 301/442/170 317/443/170 308/444/169
f 291/445/171 292/446/169 308/447/169 307/448/171
f 304/449/172 293/450/173 309/451/173 320/452/172
f 293/453/173 294/454/174 310/455/174 309/456/173
f 295/457/175 296/458/176 312/459/176 311/460/175
f 298/461/177 297/462/178 313/463/179 314/464/177
f 300/465/180 299/466/181 315/467/181 316/468/180
f 296/469/176 298/470/177 314/471/177 312/472/176
f 297/462/178 291/445/171 307/448/171 313/463/179
f 294/454/174 300/465/180 316/468/180 310/455/174
f 299/473/181 295/474/175 311/475/175 315/476/181
f 301/477/170 302/433/165 318/436/165 317/478/170
f 303/438/168 304/479/172 320/480/172 319/439/168
o Cube.040
v 2.656177 4.637617 -50.780811
v 2.343824 4.637617 -50.780811
v 2.852067 5.280020 -50.679054
v 2.825857 5.213781 -50.689552
v 2.174143 5.213781 -50.689552
v 2.147933 5.280020 -50.679058
v 2.277012 5.575712 -50.632225
v 2.722989 5.575712 -50.632221
v 2.852067 5.501486 -50.643982
v 2.827013 5.542868 -50.637421
v 2.172987 5.542868 -50.637428
v 2.147933 5.501486 -50.643990
v 2.680851 5.166723 -50.696999
v 2.656177 5.122755 -50.703964
v 2.343824 5.122755 -50.703972
v 2.319149 5.166723 -50.697006
v 2.656177 5.955595 -58.514519
v 2.343824 5.955595 -58.514519
v 2.852067 6.595091 -58.395981
v 2.825857 6.529150 -58.408207
v 2.174143 6.529150 -58.408207
v 2.147933 6.595091 -58.395981
v 2.277012 6.889479 -58.341423
v 2.722989 6.889479 -58.341419
v 2.852067 6.815573 -58.355122
v 2.827013 6.856772 -58.347481
v 2.172987 6.856772 -58.347485
v 2.147933 6.815573 -58.355125
v 2.680851 6.482321 -58.416885
v 2.656177 6.438559 -58.424999
v 2.343824 6.438559 -58.425003
v 2.319149 6.482321 -58.416889
vt 0.1558 0.7307
vt 0.1559 0.7307
vt 0.1559 0.7307
vt 0.1558 0.7307
vt 0.1514 0.7307
vt 0.1528 0.7307
vt 0.1528 0.7307
vt 0.1514 0.7307
vt 0.1544 0.7307
vt 0.1544 0.7307
vt 0.1642 0.7307
vt 0.1646 0.7307
vt 0.1646 0.7307
vt 0.1642 0.7307
vt 0.1591 0.7307
vt 0.1593 0.7307
vt 0.1593 0.7307
vt 0.1591 0.7307
vt 0.1646 0.7307
vt 0.1650 0.7307
vt 0.1650 0.7307
vt 0.1646 0.7307
vt 0.1603 0.7307
vt 0.1605 0.7307
vt 0.1605 0.7307
vt 0.1603 0.7307
vt 0.1051 0.6592
vt 0.1042 0.6592
vt 0.1042 0.6592
vt 0.1051 0.6592
vt 0.1584 0.7307
vt 0.1585 0.7307
vt 0.1585 0.7307
vt 0.1584 0.7307
vt 0.1611 0.7307
vt 0.1612 0.7307
vt 0.1612 0.7307
vt 0.1611 0.7307
vt 0.1499 0.7057
vt 0.1495 0.7057
vt 0.1495 0.7057
vt 0.1499 0.7057
vt 0.1513 0.7057
vt 0.1509 0.7057
vt 0.1509 0.7057
vt 0.1513 0.7057
vt 0.1513 0.7307
vt 0.1513 0.7307
vn -0.9686 -0.2451 -0.0418
vn -0.6386 -0.7586 -0.1293
vn -0.6389 -0.7583 -0.1292
vn -0.9687 -0.2447 -0.0417
vn 0.9686 -0.2451 -0.0418
vn 1.0000 0.0000 0.0000
vn 0.9687 -0.2447 -0.0417
vn -1.0000 0.0000 0.0000
vn 0.6857 -0.7175 -0.1223
vn 0.6386 -0.7586 -0.1293
vn 0.6389 -0.7583 -0.1292
vn 0.6853 -0.7179 -0.1223
vn 0.9824 -0.1839 -0.0313
vn 0.9824 -0.1842 -0.0314
vn -0.6857 -0.7175 -0.1223
vn -0.6853 -0.7179 -0.1223
vn -0.9824 -0.1839 -0.0313
vn -0.9824 -0.1842 -0.0314
vn -0.1543 0.9740 0.1660
vn 0.1543 0.9740 0.1660
vn 0.6228 0.7713 0.1314
vn 0.9644 0.2606 0.0444
vn 0.9645 0.2602 0.0443
vn 0.6231 0.7710 0.1314
vn -0.9644 0.2606 0.0444
vn -0.6227 0.7713 0.1314
vn -0.6231 0.7710 0.1314
vn -0.9645 0.2602 0.0443
usemtl Material
s 1
f 335/481/182 336/482/183 352/483/184 351/484/185
f 334/485/186 321/486/187 337/487/187 350/488/188
f 322/489/189 335/481/182 351/484/185 338/490/189
f 324/491/190 333/492/191 349/493/192 340/494/193
f 323/495/194 324/496/190 340/497/193 339/498/195
f 336/499/183 325/500/196 341/501/197 352/502/184
f 325/503/196 326/504/198 342/505/199 341/506/197
f 327/507/200 328/508/201 344/509/201 343/510/200
f 330/511/202 329/512/203 345/513/204 346/514/205
f 332/515/206 331/516/207 347/517/208 348/518/209
f 328/519/201 330/520/202 346/521/205 344/522/201
f 329/512/203 323/495/194 339/498/195 345/513/204
f 326/504/198 332/515/206 348/518/209 342/505/199
f 331/523/207 327/524/200 343/525/200 347/526/208
f 333/527/191 334/485/186 350/488/188 349/528/192
o Cube.039
v 2.656177 3.514248 -43.033096
v 2.343824 3.514248 -43.033096
v 2.852067 4.159100 -42.948189
v 2.825857 4.092609 -42.956947
v 2.174143 4.092609 -42.956947
v 2.147933 4.159100 -42.948193
v 2.277012 4.455936 -42.909119
v 2.722989 4.455936 -42.909111
v 2.852067 4.381390 -42.918926
v 2.827013 4.422955 -42.913452
v 2.172987 4.422955 -42.913460
v 2.147933 4.381390 -42.918930
v 2.680851 4.045368 -42.963161
v 2.656177 4.001240 -42.968975
v 2.343824 4.001240 -42.968979
v 2.319149 4.045368 -42.963169
v 2.656177 4.637617 -50.780811
v 2.343824 4.637617 -50.780811
v 2.852067 5.280020 -50.679054
v 2.825857 5.213781 -50.689552
v 2.174143 5.213781 -50.689552
v 2.147933 5.280020 -50.679058
v 2.277012 5.575712 -50.632225
v 2.722989 5.575712 -50.632221
v 2.852067 5.501486 -50.643982
v 2.827013 5.542868 -50.637421
v 2.172987 5.542868 -50.637428
v 2.147933 5.501486 -50.643990
v 2.680851 5.166723 -50.696999
v 2.656177 5.122755 -50.703964
v 2.343824 5.122755 -50.703972
v 2.319149 5.166723 -50.697006
vt 0.1558 0.7307
vt 0.1559 0.7307
vt 0.1559 0.7307
vt 0.1558 0.7307
vt 0.1514 0.7307
vt 0.1528 0.7307
vt 0.1528 0.7307
vt 0.1514 0.7307
vt 0.1544 0.7307
vt 0.1544 0.7307
vt 0.1642 0.7307
vt 0.1646 0.7307
vt 0.1646 0.7307
vt 0.1642 0.7307
vt 0.1591 0.7307
vt 0.1593 0.7307
vt 0.1593 0.7307
vt 0.1591 0.7307
vt 0.1646 0.7307
vt 0.1650 0.7307
vt 0.1650 0.7307
vt 0.1646 0.7307
vt 0.1603 0.7307
vt 0.1605 0.7307
vt 0.1605 0.7307
vt 0.1603 0.7307
vt 0.1051 0.6592
vt 0.1042 0.6592
vt 0.1042 0.6592
vt 0.1051 0.6592
vt 0.1584 0.7307
vt 0.1585 0.7307
vt 0.1585 0.7307
vt 0.1584 0.7307
vt 0.1611 0.7307
vt 0.1612 0.7307
vt 0.1612 0.7307
vt 0.1611 0.7307
vt 0.1499 0.7057
vt 0.1495 0.7057
vt 0.1495 0.7057
vt 0.1499 0.7057
vt 0.1513 0.7057
vt 0.1509 0.7057
vt 0.1509 0.7057
vt 0.1513 0.7057
vt 0.1513 0.7307
vt 0.1513 0.7307
vn -0.9686 -0.2459 -0.0357
vn -0.6388 -0.7614 -0.1104
vn 0.9686 -0.2459 -0.0357
vn 1.0000 -0.0000 0.0000
vn 0.9686 -0.2459 -0.0356
vn -1.0000 0.0000 0.0000
vn 0.6856 -0.7205 -0.1045
vn 0.6388 -0.7614 -0.1104
vn 0.9824 -0.1848 -0.0268
vn -0.6856 -0.7205 -0.1045
vn -0.9824 -0.1848 -0.0268
vn -0.1543 0.9778 0.1418
vn 0.1543 0.9778 0.1418
vn 0.6230 0.7742 0.1122
vn 0.9645 0.2614 0.0379
vn 0.6230 0.7741 0.1122
vn -0.9645 0.2614 0.0379
vn -0.6230 0.7742 0.1122
vn -0.6230 0.7741 0.1122
usemtl Material
s 1
f 367/529/210 368/530/211 384/531/211 383/532/210
f 366/533/212 353/534/213 369/535/213 382/536/214
f 354/537/215 367/529/210 383/532/210 370/538/215
f 356/539/216 365/540/217 381/541/217 372/542/216
f 355/543/218 356/544/216 372/545/216 371/546/218
f 368/547/211 357/548/219 373/549/219 384/550/211
f 357/551/219 358/552/220 374/553/220 373/554/219
f 359/555/221 360/556/222 376/557/222 375/558/221
f 362/559/223 361/560/224 377/561/224 378/562/225
f 364/563/226 363/564/227 379/565/228 380/566/226
f 360/567/222 362/568/223 378/569/225 376/570/222
f 361/560/224 355/543/218 371/546/218 377/561/224
f 358/552/220 364/563/226 380/566/226 374/553/220
f 363/571/227 359/572/221 375/573/221 379/574/228
f 365/575/217 366/533/212 382/536/214 381/576/217
o Cube.038
v 2.656177 2.594068 -35.258629
v 2.343824 2.594068 -35.258629
v 2.852067 3.240933 -35.190632
v 2.825857 3.174237 -35.197647
v 2.174143 3.174237 -35.197647
v 2.147933 3.240933 -35.190636
v 2.277012 3.538686 -35.159340
v 2.722989 3.538686 -35.159336
v 2.852067 3.463910 -35.167194
v 2.827013 3.505612 -35.162811
v 2.172987 3.505612 -35.162819
v 2.147933 3.463910 -35.167202
v 2.680851 3.126859 -35.202621
v 2.656177 3.082570 -35.207279
v 2.343824 3.082570 -35.207283
v 2.319149 3.126859 -35.202629
v 2.656177 3.514248 -43.033096
v 2.343824 3.514248 -43.033096
v 2.852067 4.159100 -42.948189
v 2.825857 4.092609 -42.956947
v 2.174143 4.092609 -42.956947
v 2.147933 4.159100 -42.948193
v 2.277012 4.455936 -42.909119
v 2.722989 4.455936 -42.909111
v 2.852067 4.381390 -42.918926
v 2.827013 4.422955 -42.913452
v 2.172987 4.422955 -42.913460
v 2.147933 4.381390 -42.918930
v 2.680851 4.045368 -42.963161
v 2.656177 4.001240 -42.968975
v 2.343824 4.001240 -42.968979
v 2.319149 4.045368 -42.963169
vt 0.1558 0.7307
vt 0.1559 0.7307
vt 0.1559 0.7307
vt 0.1558 0.7307
vt 0.1514 0.7307
vt 0.1528 0.7307
vt 0.1528 0.7307
vt 0.1514 0.7307
vt 0.1544 0.7307
vt 0.1544 0.7307
vt 0.1642 0.7307
vt 0.1646 0.7307
vt 0.1646 0.7307
vt 0.1642 0.7307
vt 0.1591 0.7307
vt 0.1593 0.7307
vt 0.1593 0.7307
vt 0.1591 0.7307
vt 0.1646 0.7307
vt 0.1650 0.7307
vt 0.1650 0.7307
vt 0.1646 0.7307
vt 0.1603 0.7307
vt 0.1605 0.7307
vt 0.1605 0.7307
vt 0.1603 0.7307
vt 0.1051 0.6592
vt 0.1042 0.6592
vt 0.1042 0.6592
vt 0.1051 0.6592
vt 0.1584 0.7307
vt 0.1585 0.7307
vt 0.1585 0.7307
vt 0.1584 0.7307
vt 0.1611 0.7307
vt 0.1612 0.7307
vt 0.1612 0.7307
vt 0.1611 0.7307
vt 0.1499 0.7057
vt 0.1495 0.7057
vt 0.1495 0.7057
vt 0.1499 0.7057
vt 0.1513 0.7057
vt 0.1509 0.7057
vt 0.1509 0.7057
vt 0.1513 0.7057
vt 0.1513 0.7307
vt 0.1513 0.7307
vn -0.9687 -0.2467 -0.0292
vn -0.6388 -0.7640 -0.0904
vn 0.9687 -0.2467 -0.0292
vn 1.0000 0.0000 0.0000
vn -1.0000 -0.0000 0.0000
vn 0.6856 -0.7230 -0.0856
vn 0.6388 -0.7640 -0.0904
vn 0.9824 -0.1854 -0.0219
vn -0.6856 -0.7230 -0.0856
vn -0.9824 -0.1854 -0.0219
vn -0.1543 0.9812 0.1161
vn 0.1543 0.9812 0.1161
vn 0.6230 0.7768 0.0919
vn 0.9645 0.2622 0.0310
vn -0.9645 0.2622 0.0310
vn -0.6230 0.7768 0.0919
usemtl Material
s 1
f 399/577/229 400/578/230 416/579/230 415/580/229
f 398/581/231 385/582/232 401/583/232 414/584/231
f 386/585/233 399/577/229 415/580/229 402/586/233
f 388/587/234 397/588/235 413/589/235 404/590/234
f 387/591/236 388/592/234 404/593/234 403/594/236
f 400/595/230 389/596/237 405/597/237 416/598/230
f 389/599/237 390/600/238 406/601/238 405/602/237
f 391/603/239 392/604/240 408/605/240 407/606/239
f 394/607/241 393/608/242 409/609/242 410/610/241
f 396/611/243 395/612/244 411/613/244 412/614/243
f 392/615/240 394/616/241 410/617/241 408/618/240
f 393/608/242 387/591/236 403/594/236 409/609/242
f 390/600/238 396/611/243 412/614/243 406/601/238
f 395/619/244 391/620/239 407/621/239 411/622/244
f 397/623/235 398/581/231 414/584/231 413/624/235
o Cube.037
v 2.656177 1.877717 -27.462734
v 2.343824 1.877717 -27.462734
v 2.852067 2.526162 -27.411697
v 2.825857 2.459306 -27.416958
v 2.174143 2.459306 -27.416962
v 2.147933 2.526162 -27.411699
v 2.277012 2.824624 -27.388212
v 2.722989 2.824624 -27.388206
v 2.852067 2.749665 -27.394102
v 2.827013 2.791482 -27.390812
v 2.172987 2.791482 -27.390818
v 2.147933 2.749665 -27.394108
v 2.680851 2.411813 -27.420696
v 2.656177 2.367410 -27.424191
v 2.343824 2.367410 -27.424194
v 2.319149 2.411813 -27.420700
v 2.656177 2.594068 -35.258629
v 2.343824 2.594068 -35.258629
v 2.852067 3.240933 -35.190632
v 2.825857 3.174237 -35.197647
v 2.174143 3.174237 -35.197647
v 2.147933 3.240933 -35.190636
v 2.277012 3.538686 -35.159340
v 2.722989 3.538686 -35.159336
v 2.852067 3.463910 -35.167194
v 2.827013 3.505612 -35.162811
v 2.172987 3.505612 -35.162819
v 2.147933 3.463910 -35.167202
v 2.680851 3.126859 -35.202621
v 2.656177 3.082570 -35.207279
v 2.343824 3.082570 -35.207283
v 2.319149 3.126859 -35.202629
vt 0.1513 0.7307
vt 0.1514 0.7307
vt 0.1514 0.7307
vt 0.1513 0.7307
vt 0.1558 0.7307
vt 0.1559 0.7307
vt 0.1559 0.7307
vt 0.1558 0.7307
vt 0.1528 0.7307
vt 0.1528 0.7307
vt 0.1544 0.7307
vt 0.1544 0.7307
vt 0.1642 0.7307
vt 0.1646 0.7307
vt 0.1646 0.7307
vt 0.1642 0.7307
vt 0.1591 0.7307
vt 0.1593 0.7307
vt 0.1593 0.7307
vt 0.1591 0.7307
vt 0.1646 0.7307
vt 0.1650 0.7307
vt 0.1650 0.7307
vt 0.1646 0.7307
vt 0.1603 0.7307
vt 0.1605 0.7307
vt 0.1605 0.7307
vt 0.1603 0.7307
vt 0.1051 0.6592
vt 0.1042 0.6592
vt 0.1042 0.6592
vt 0.1051 0.6592
vt 0.1584 0.7307
vt 0.1585 0.7307
vt 0.1585 0.7307
vt 0.1584 0.7307
vt 0.1611 0.7307
vt 0.1612 0.7307
vt 0.1612 0.7307
vt 0.1611 0.7307
vt 0.1499 0.7057
vt 0.1495 0.7057
vt 0.1495 0.7057
vt 0.1499 0.7057
vt 0.1513 0.7057
vt 0.1509 0.7057
vt 0.1509 0.7057
vt 0.1513 0.7057
vn 0.6389 -0.7661 -0.0704
vn 0.9687 -0.2473 -0.0227
vn -0.9687 -0.2473 -0.0227
vn -0.6389 -0.7661 -0.0704
vn 1.0000 0.0000 0.0000
vn -1.0000 0.0000 0.0000
vn 0.6855 -0.7250 -0.0666
vn 0.9824 -0.1859 -0.0171
vn -0.6855 -0.7250 -0.0666
vn -0.9824 -0.1859 -0.0171
vn -0.1543 0.9839 0.0904
vn 0.1543 0.9839 0.0904
vn 0.6230 0.7789 0.0716
vn 0.9645 0.2629 0.0242
vn -0.9645 0.2629 0.0242
vn -0.6230 0.7789 0.0716
usemtl Material
s 1
f 429/625/245 430/626/246 446/627/246 445/628/245
f 431/629/247 432/630/248 448/631/248 447/632/247
f 430/626/246 417/633/249 433/634/249 446/627/246
f 418/635/250 431/629/247 447/632/247 434/636/250
f 420/637/251 429/638/245 445/639/245 436/640/251
f 419/641/252 420/642/251 436/643/251 435/644/252
f 432/645/248 421/646/253 437/647/253 448/648/248
f 421/649/253 422/650/254 438/651/254 437/652/253
f 423/653/255 424/654/256 440/655/256 439/656/255
f 426/657/257 425/658/258 441/659/258 442/660/257
f 428/661/259 427/662/260 443/663/260 444/664/259
f 424/665/256 426/666/257 442/667/257 440/668/256
f 425/658/258 419/641/252 435/644/252 441/659/258
f 422/650/254 428/661/259 444/664/259 438/651/254
f 427/669/260 423/670/255 439/671/255 443/672/260
o Cube.036
v 2.656177 1.365680 -19.650763
v 2.343824 1.365680 -19.650763
v 2.852067 2.015247 -19.616716
v 2.825857 1.948276 -19.620224
v 2.174143 1.948276 -19.620228
v 2.147933 2.015247 -19.616718
v 2.277012 2.314212 -19.601051
v 2.722989 2.314212 -19.601046
v 2.852067 2.239139 -19.604979
v 2.827013 2.281024 -19.602783
v 2.172987 2.281024 -19.602791
v 2.147933 2.239139 -19.604984
v 2.680851 1.900691 -19.622719
v 2.656177 1.856242 -19.625050
v 2.343824 1.856242 -19.625053
v 2.319149 1.900691 -19.622723
v 2.656177 1.877717 -27.462734
v 2.343824 1.877717 -27.462734
v 2.852067 2.526162 -27.411697
v 2.825857 2.459306 -27.416958
v 2.174143 2.459306 -27.416962
v 2.147933 2.526162 -27.411699
v 2.277012 2.824624 -27.388212
v 2.722989 2.824624 -27.388206
v 2.852067 2.749665 -27.394102
v 2.827013 2.791482 -27.390812
v 2.172987 2.791482 -27.390818
v 2.147933 2.749665 -27.394108
v 2.680851 2.411813 -27.420696
v 2.656177 2.367410 -27.424191
v 2.343824 2.367410 -27.424194
v 2.319149 2.411813 -27.420700
vt 0.1513 0.7307
vt 0.1514 0.7307
vt 0.1514 0.7307
vt 0.1513 0.7307
vt 0.1558 0.7307
vt 0.1559 0.7307
vt 0.1559 0.7307
vt 0.1558 0.7307
vt 0.1528 0.7307
vt 0.1528 0.7307
vt 0.1544 0.7307
vt 0.1544 0.7307
vt 0.1642 0.7307
vt 0.1646 0.7307
vt 0.1646 0.7307
vt 0.1642 0.7307
vt 0.1591 0.7307
vt 0.1593 0.7307
vt 0.1593 0.7307
vt 0.1591 0.7307
vt 0.1646 0.7307
vt 0.1650 0.7307
vt 0.1650 0.7307
vt 0.1646 0.7307
vt 0.1603 0.7307
vt 0.1605 0.7307
vt 0.1605 0.7307
vt 0.1603 0.7307
vt 0.1051 0.6592
vt 0.1042 0.6592
vt 0.1042 0.6592
vt 0.1051 0.6592
vt 0.1584 0.7307
vt 0.1585 0.7307
vt 0.1585 0.7307
vt 0.1584 0.7307
vt 0.1611 0.7307
vt 0.1612 0.7307
vt 0.1612 0.7307
vt 0.1611 0.7307
vt 0.1499 0.7057
vt 0.1495 0.7057
vt 0.1495 0.7057
vt 0.1499 0.7057
vt 0.1513 0.7057
vt 0.1509 0.7057
vt 0.1509 0.7057
vt 0.1513 0.7057
vn 0.6389 -0.7677 -0.0503
vn 0.9687 -0.2479 -0.0162
vn -0.9687 -0.2479 -0.0162
vn -0.6388 -0.7677 -0.0503
vn 1.0000 -0.0000 0.0000
vn -1.0000 0.0000 0.0000
vn 0.6856 -0.7265 -0.0476
vn 0.9824 -0.1863 -0.0122
vn -0.6856 -0.7265 -0.0476
vn -0.9824 -0.1863 -0.0122
vn -0.1542 0.9859 0.0646
vn 0.1542 0.9859 0.0646
vn 0.6230 0.7805 0.0512
vn 0.9645 0.2634 0.0173
vn -0.9645 0.2634 0.0173
vn -0.6230 0.7805 0.0512
usemtl Material
s 1
f 461/673/261 462/674/262 478/675/262 477/676/261
f 463/677/263 464/678/264 480/679/264 479/680/263
f 462/674/262 449/681/265 465/682/265 478/675/262
f 450/683/266 463/677/263 479/680/263 466/684/266
f 452/685/267 461/686/261 477/687/261 468/688/267
f 451/689/268 452/690/267 468/691/267 467/692/268
f 464/693/264 453/694/269 469/695/269 480/696/264
f 453/697/269 454/698/270 470/699/270 469/700/269
f 455/701/271 456/702/272 472/703/272 471/704/271
f 458/705/273 457/706/274 473/707/274 474/708/273
f 460/709/275 459/710/276 475/711/276 476/712/275
f 456/713/272 458/714/273 474/715/273 472/716/272
f 457/706/274 451/689/268 467/692/268 473/707/274
f 454/698/270 460/709/275 476/712/275 470/699/270
f 459/717/276 455/718/271 471/719/271 475/720/276
o Cube.035
v 2.656177 1.058325 -11.828063
v 2.343824 1.058325 -11.828063
v 2.852067 1.708579 -11.811033
v 2.825857 1.641539 -11.812788
v 2.174143 1.641539 -11.812791
v 2.147933 1.708579 -11.811036
v 2.277012 2.007842 -11.803200
v 2.722989 2.007842 -11.803194
v 2.852067 1.932700 -11.805161
v 2.827013 1.974631 -11.804064
v 2.172987 1.974631 -11.804070
v 2.147933 1.932700 -11.805166
v 2.680851 1.593886 -11.814035
v 2.656177 1.549391 -11.815202
v 2.343824 1.549391 -11.815205
v 2.319149 1.593886 -11.814038
v 2.656177 1.365680 -19.650763
v 2.343824 1.365680 -19.650763
v 2.852067 2.015247 -19.616716
v 2.825857 1.948276 -19.620224
v 2.174143 1.948276 -19.620228
v 2.147933 2.015247 -19.616718
v 2.277012 2.314212 -19.601051
v 2.722989 2.314212 -19.601046
v 2.852067 2.239139 -19.604979
v 2.827013 2.281024 -19.602783
v 2.172987 2.281024 -19.602791
v 2.147933 2.239139 -19.604984
v 2.680851 1.900691 -19.622719
v 2.656177 1.856242 -19.625050
v 2.343824 1.856242 -19.625053
v 2.319149 1.900691 -19.622723
vt 0.1513 0.7057
vt 0.1509 0.7057
vt 0.1509 0.7057
vt 0.1513 0.7057
vt 0.1513 0.7307
vt 0.1514 0.7307
vt 0.1514 0.7307
vt 0.1513 0.7307
vt 0.1558 0.7307
vt 0.1559 0.7307
vt 0.1559 0.7307
vt 0.1558 0.7307
vt 0.1528 0.7307
vt 0.1528 0.7307
vt 0.1544 0.7307
vt 0.1544 0.7307
vt 0.1642 0.7307
vt 0.1646 0.7307
vt 0.1646 0.7307
vt 0.1642 0.7307
vt 0.1591 0.7307
vt 0.1593 0.7307
vt 0.1593 0.7307
vt 0.1591 0.7307
vt 0.1646 0.7307
vt 0.1650 0.7307
vt 0.1650 0.7307
vt 0.1646 0.7307
vt 0.1603 0.7307
vt 0.1605 0.7307
vt 0.1605 0.7307
vt 0.1603 0.7307
vt 0.1051 0.6592
vt 0.1042 0.6592
vt 0.1042 0.6592
vt 0.1051 0.6592
vt 0.1584 0.7307
vt 0.1585 0.7307
vt 0.1585 0.7307
vt 0.1584 0.7307
vt 0.1611 0.7307
vt 0.1612 0.7307
vt 0.1612 0.7307
vt 0.1611 0.7307
vt 0.1499 0.7057
vt 0.1495 0.7057
vt 0.1495 0.7057
vt 0.1499 0.7057
vn -0.6230 0.7816 0.0307
vn -0.1542 0.9873 0.0388
vn 0.6388 -0.7688 -0.0302
vn 0.9686 -0.2483 -0.0098
vn 0.6388 -0.7687 -0.0302
vn -0.9686 -0.2483 -0.0098
vn -0.6388 -0.7688 -0.0302
vn 1.0000 0.0000 0.0000
vn -1.0000 0.0000 0.0000
vn 0.6856 -0.7274 -0.0286
vn 0.9824 -0.1866 -0.0073
vn -0.6856 -0.7274 -0.0286
vn -0.9824 -0.1866 -0.0073
vn 0.1542 0.9873 0.0388
vn 0.6230 0.7816 0.0307
vn 0.9645 0.2637 0.0104
vn -0.9645 0.2637 0.0104
usemtl Material
s 1
f 491/721/277 487/722/278 503/723/278 507/724/277
f 493/725/279 494/726/280 510/727/280 509/728/281
f 495/729/282 496/730/283 512/731/283 511/732/282
f 494/726/280 481/733/284 497/734/284 510/727/280
f 482/735/285 495/729/282 511/732/282 498/736/285
f 484/737/286 493/738/279 509/739/281 500/740/286
f 483/741/287 484/742/286 500/743/286 499/744/287
f 496/745/283 485/746/288 501/747/288 512/748/283
f 485/749/288 486/750/289 502/751/289 501/752/288
f 487/753/278 488/754/290 504/755/290 503/756/278
f 490/757/291 489/758/292 505/759/292 506/760/291
f 492/761/293 491/762/277 507/763/277 508/764/293
f 488/765/290 490/766/291 506/767/291 504/768/290
f 489/758/292 483/741/287 499/744/287 505/759/292
f 486/750/289 492/761/293 508/764/293 502/751/289
o Cube.034
v 2.656177 0.955870 -4.000000
v 2.343824 0.955870 -4.000000
v 2.722989 1.905697 -3.999994
v 2.277012 1.905697 -4.000000
v 2.852067 1.606315 -3.999997
v 2.825857 1.539268 -3.999997
v 2.174143 1.539268 -4.000000
v 2.147933 1.606315 -4.000000
v 2.827013 1.872461 -3.999994
v 2.852067 1.830535 -3.999994
v 2.147933 1.830535 -4.000000
v 2.172987 1.872461 -4.000000
v 2.680851 1.491614 -3.999997
v 2.656177 1.447078 -3.999997
v 2.343824 1.447078 -4.000000
v 2.319149 1.491614 -4.000000
v 2.656177 1.058325 -11.828063
v 2.343824 1.058325 -11.828063
v 2.852067 1.708579 -11.811033
v 2.825857 1.641539 -11.812788
v 2.174143 1.641539 -11.812791
v 2.147933 1.708579 -11.811036
v 2.277012 2.007842 -11.803200
v 2.722989 2.007842 -11.803194
v 2.852067 1.932700 -11.805161
v 2.827013 1.974631 -11.804064
v 2.172987 1.974631 -11.804070
v 2.147933 1.932700 -11.805166
v 2.680851 1.593886 -11.814035
v 2.656177 1.549391 -11.815202
v 2.343824 1.549391 -11.815205
v 2.319149 1.593886 -11.814038
vt 0.1544 0.7307
vt 0.1558 0.7307
vt 0.1558 0.7307
vt 0.1544 0.7307
vt 0.1051 0.6592
vt 0.1042 0.6592
vt 0.1042 0.6592
vt 0.1051 0.6592
vt 0.1605 0.7307
vt 0.1611 0.7307
vt 0.1611 0.7307
vt 0.1605 0.7307
vt 0.1513 0.7057
vt 0.1509 0.7057
vt 0.1509 0.7057
vt 0.1513 0.7057
vt 0.1642 0.7307
vt 0.1646 0.7307
vt 0.1646 0.7307
vt 0.1642 0.7307
vt 0.1646 0.7307
vt 0.1650 0.7307
vt 0.1650 0.7307
vt 0.1646 0.7307
vt 0.1591 0.7307
vt 0.1593 0.7307
vt 0.1593 0.7307
vt 0.1591 0.7307
vt 0.1584 0.7307
vt 0.1585 0.7307
vt 0.1585 0.7307
vt 0.1584 0.7307
vt 0.1513 0.7307
vt 0.1514 0.7307
vt 0.1514 0.7307
vt 0.1513 0.7307
vt 0.1612 0.7307
vt 0.1612 0.7307
vt 0.1603 0.7307
vt 0.1603 0.7307
vt 0.1559 0.7307
vt 0.1559 0.7307
vt 0.1499 0.7057
vt 0.1495 0.7057
vt 0.1495 0.7057
vt 0.1499 0.7057
vt 0.1528 0.7307
vt 0.1528 0.7307
vn -1.0000 -0.0000 0.0000
vn -0.9687 -0.2484 -0.0033
vn -0.1542 0.9880 0.0129
vn 0.1542 0.9880 0.0129
vn -0.9824 -0.1867 -0.0024
vn -0.9645 0.2640 0.0035
vn -0.6230 0.7822 0.0102
vn 0.6856 -0.7279 -0.0095
vn 0.6389 -0.7692 -0.0101
vn -0.6389 -0.7692 -0.0101
vn -0.6856 -0.7279 -0.0095
vn 0.9824 -0.1867 -0.0024
vn 0.6230 0.7822 0.0102
vn 0.9645 0.2640 0.0035
vn 0.9687 -0.2484 -0.0033
vn 1.0000 0.0000 0.0000
usemtl Material
s 1
f 514/769/294 527/770/295 543/771/295 530/772/294
f 516/773/296 515/774/297 536/775/297 535/776/296
f 520/777/298 523/778/299 540/779/299 534/780/298
f 524/781/300 516/782/296 535/783/296 539/784/300
f 518/785/301 525/786/302 541/787/302 532/788/301
f 528/789/303 519/790/304 533/791/304 544/792/303
f 517/793/305 518/794/301 532/795/301 531/796/305
f 521/797/306 522/798/307 537/799/307 538/800/306
f 525/801/302 526/802/308 542/803/308 541/804/302
f 523/778/299 524/805/300 539/806/300 540/779/299
f 519/807/304 520/777/298 534/780/298 533/808/304
f 527/770/295 528/809/303 544/810/303 543/771/295
f 515/811/297 521/812/306 538/813/306 536/814/297
f 522/798/307 517/793/305 531/796/305 537/799/307
f 526/802/308 513/815/309 529/816/309 542/803/308
o Cube.033
v 2.656177 0.955870 -4.000000
v 2.656176 0.955870 0.000000
v 2.343823 0.955870 -0.000001
v 2.343824 0.955870 -4.000000
v 2.722989 1.905697 -3.999994
v 2.722988 1.905697 0.000006
v 2.277011 1.905697 -0.000001
v 2.277012 1.905697 -4.000000
v 2.852067 1.606315 -3.999997
v 2.825857 1.539268 -3.999997
v 2.825857 1.539268 0.000003
v 2.852067 1.606315 0.000003
v 2.147933 1.606315 -0.000001
v 2.174143 1.539268 -0.000001
v 2.174143 1.539268 -4.000000
v 2.147933 1.606315 -4.000000
v 2.827013 1.872461 -3.999994
v 2.852067 1.830535 -3.999994
v 2.852067 1.830535 0.000006
v 2.827012 1.872461 0.000006
v 2.172987 1.872461 -0.000003
v 2.147933 1.830535 -0.000003
v 2.147933 1.830535 -4.000000
v 2.172987 1.872461 -4.000000
v 2.680851 1.491614 -3.999997
v 2.656177 1.447078 -3.999997
v 2.656176 1.447078 0.000003
v 2.680851 1.491614 0.000003
v 2.319149 1.491614 -0.000001
v 2.343823 1.447078 -0.000001
v 2.343824 1.447078 -4.000000
v 2.319149 1.491614 -4.000000
vt 0.1509 0.7307
vt 0.1509 0.7057
vt 0.1513 0.7057
vt 0.1513 0.7307
vt 0.1042 0.6592
vt 0.1051 0.6592
vt 0.1051 0.6842
vt 0.1042 0.6842
vt 0.1528 0.7307
vt 0.1514 0.7307
vt 0.1514 0.7057
vt 0.1528 0.7057
vt 0.1646 0.7057
vt 0.1650 0.7057
vt 0.1650 0.7307
vt 0.1646 0.7307
vt 0.1544 0.7057
vt 0.1558 0.7057
vt 0.1558 0.7307
vt 0.1544 0.7307
vt 0.1646 0.7307
vt 0.1642 0.7307
vt 0.1642 0.7057
vt 0.1646 0.7057
vt 0.1591 0.7307
vt 0.1585 0.7307
vt 0.1585 0.7057
vt 0.1591 0.7057
vt 0.1605 0.7057
vt 0.1611 0.7057
vt 0.1611 0.7307
vt 0.1605 0.7307
vt 0.1603 0.7307
vt 0.1603 0.7057
vt 0.1593 0.7057
vt 0.1593 0.7307
vt 0.1584 0.7307
vt 0.1584 0.7057
vt 0.1612 0.7057
vt 0.1612 0.7307
vt 0.1499 0.7057
vt 0.1499 0.7307
vt 0.1495 0.7307
vt 0.1495 0.7057
vt 0.1513 0.7307
vt 0.1513 0.7057
vt 0.1559 0.7057
vt 0.1559 0.7307
vn -0.1540 0.9881 -0.0000
vn -0.6215 0.7834 -0.0000
vn 0.1540 0.9881 0.0000
vn 1.0000 0.0000 0.0000
vn 0.9682 -0.2503 0.0000
vn -0.6374 -0.7705 -0.0000
vn -0.6873 -0.7263 0.0000
vn -1.0000 0.0000 -0.0000
vn -0.9682 -0.2503 -0.0000
vn 0.6374 -0.7705 0.0000
vn 0.6873 -0.7263 0.0000
vn 0.9827 -0.1853 0.0000
vn 0.9640 0.2661 0.0000
vn -0.9827 -0.1852 0.0000
vn -0.9640 0.2661 0.0000
vn 0.6215 0.7834 0.0000
usemtl Material
s 1
f 551/817/310 552/818/310 568/819/311 565/820/311
f 549/821/312 552/822/310 551/823/310 550/824/312
f 545/825/313 570/826/314 571/827/314 546/828/313
f 573/829/315 558/830/316 559/831/316 576/832/315
f 547/833/317 574/834/318 575/835/318 548/836/317
f 569/837/319 554/838/320 555/839/320 572/840/319
f 553/841/321 562/842/322 563/843/322 556/844/321
f 557/845/323 566/846/324 567/847/324 560/848/323
f 557/845/323 560/848/323 559/849/316 558/850/316
f 553/841/321 556/844/321 555/851/320 554/852/320
f 563/843/322 562/842/322 561/853/325 564/854/325
f 567/847/324 566/846/324 565/855/311 568/856/311
f 549/857/312 550/858/312 564/859/325 561/860/325
f 569/861/319 572/862/319 571/827/314 570/826/314
f 573/863/315 576/864/315 575/835/318 574/834/318
o Cube.031
v 1.234006 5.332920 -57.596291
v 1.234006 5.697392 -59.562801
v 3.765994 5.697392 -59.562801
v 3.765994 5.332920 -57.596291
v 5.000000 5.037944 -57.650963
v 5.000000 5.402415 -59.617470
v 0.000000 5.037944 -57.650963
v 0.000000 5.402415 -59.617470
vt 0.2985 0.2897
vt 0.2985 0.0949
vt 0.5970 0.0949
vt 0.5970 0.2897
vt 0.2985 0.3846
vt 0.5970 0.3846
vt 0.2985 0.0000
vt 0.5970 0.0000
vn 0.0000 0.9833 0.1822
vn 0.2362 0.9554 0.1771
vn -0.2362 0.9554 0.1771
usemtl Material_blk_concrete01_dif.tga
s off
f 579/865/326 578/866/326 577/867/326 580/868/326
f 582/869/327 579/865/327 580/868/327 581/870/327
f 577/867/328 578/866/328 584/871/328 583/872/328
o Cube.030
v 11.765994 5.332920 -57.596291
v 11.765994 5.697392 -59.562801
v 9.234006 5.697392 -59.562801
v 9.234006 5.332920 -57.596291
v 8.000000 5.402415 -59.617470
v 8.000000 5.037944 -57.650963
v 13.000000 5.402415 -59.617470
v 13.000000 5.037944 -57.650963
vt 0.2985 0.9051
vt 0.5970 0.9051
vt 0.5970 1.0000
vt 0.2985 1.0000
vt 0.2985 0.7103
vt 0.5970 0.7103
vt 0.2985 0.6154
vt 0.5970 0.6154
vn 0.2362 0.9554 0.1771
vn 0.0000 0.9833 0.1822
vn -0.2362 0.9554 0.1771
usemtl Material_blk_concrete01_dif.tga
s off
f 586/873/329 585/874/329 592/875/329 591/876/329
f 586/873/330 587/877/330 588/878/330 585/874/330
f 587/877/331 589/879/331 590/880/331 588/878/331
o Cube.029
v 0.000000 4.714136 -59.745037
v 0.000000 4.349665 -57.778526
v 0.000000 5.037944 -57.650963
v 0.000000 5.402415 -59.617470
v 13.000000 5.402415 -59.617470
v 13.000000 4.714136 -59.745037
v 13.000000 4.349665 -57.778526
v 13.000000 5.037944 -57.650963
vt 0.0000 1.0000
vt 0.0000 0.0000
vt 0.2985 0.0000
vt 0.2985 1.0000
vt 1.0000 0.1538
vt 0.8955 0.1538
vt 0.8955 0.0000
vt 1.0000 0.0000
vt 1.0000 0.3077
vt 0.8955 0.3077
vt 0.8955 0.1538
vt 1.0000 0.1538
vn 0.0000 -0.9833 -0.1822
vn -1.0000 0.0000 0.0000
vn 1.0000 0.0000 0.0000
usemtl Material_blk_concrete01_dif.tga
s off
f 593/881/332 598/882/332 599/883/332 594/884/332
f 594/885/333 595/886/333 596/887/333 593/888/333
f 598/889/334 597/890/334 600/891/334 599/892/334
o Cube.028
v 0.000000 3.356108 -51.996250
v 0.000000 3.043239 -50.020874
v 0.000000 3.734621 -49.911369
v 0.000000 4.047490 -51.886745
v 13.000000 4.047490 -51.886745
v 13.000000 3.356108 -51.996250
v 13.000000 3.043239 -50.020874
v 13.000000 3.734621 -49.911369
vt 0.0000 1.0000
vt 0.0000 0.0000
vt 0.2985 0.0000
vt 0.2985 1.0000
vt 1.0000 0.1538
vt 0.8955 0.1538
vt 0.8955 0.0000
vt 1.0000 0.0000
vt 1.0000 0.3077
vt 0.8955 0.3077
vt 0.8955 0.1538
vt 1.0000 0.1538
vn 0.0000 -0.9877 -0.1564
vn -1.0000 0.0000 0.0000
vn 1.0000 0.0000 0.0000
usemtl Material_blk_concrete01_dif.tga
s off
f 601/893/335 606/894/335 607/895/335 602/896/335
f 602/897/336 603/898/336 604/899/336 601/900/336
f 606/901/337 605/902/337 608/903/337 607/904/337
o Cube.027
v 11.765994 4.030927 -49.864441
v 11.765994 4.343796 -51.839817
v 9.234006 4.343796 -51.839817
v 9.234006 4.030927 -49.864441
v 8.000000 4.047490 -51.886745
v 8.000000 3.734621 -49.911369
v 13.000000 4.047490 -51.886745
v 13.000000 3.734621 -49.911369
vt 0.2985 0.9051
vt 0.5970 0.9051
vt 0.5970 1.0000
vt 0.2985 1.0000
vt 0.2985 0.7103
vt 0.5970 0.7103
vt 0.2985 0.6154
vt 0.5970 0.6154
vn 0.2362 0.9597 0.1520
vn 0.0000 0.9877 0.1564
vn -0.2362 0.9597 0.1520
usemtl Material_blk_concrete01_dif.tga
s off
f 610/905/338 609/906/338 616/907/338 615/908/338
f 610/905/339 611/909/339 612/910/339 609/906/339
f 611/909/340 613/911/340 614/912/340 612/910/340
o Cube.026
v 1.234006 4.030927 -49.864441
v 1.234006 4.343796 -51.839817
v 3.765994 4.343796 -51.839817
v 3.765994 4.030927 -49.864441
v 5.000000 3.734621 -49.911369
v 5.000000 4.047490 -51.886745
v 0.000000 3.734621 -49.911369
v 0.000000 4.047490 -51.886745
vt 0.2985 0.2897
vt 0.2985 0.0949
vt 0.5970 0.0949
vt 0.5970 0.2897
vt 0.2985 0.3846
vt 0.5970 0.3846
vt 0.2985 0.0000
vt 0.5970 0.0000
vn 0.0000 0.9877 0.1564
vn 0.2362 0.9597 0.1520
vn -0.2362 0.9597 0.1520
usemtl Material_blk_concrete01_dif.tga
s off
f 619/913/341 618/914/341 617/915/341 620/916/341
f 622/917/342 619/913/342 620/916/342 621/918/342
f 617/915/343 618/914/343 624/919/343 623/920/343
o Cube.023
v 1.234006 2.931735 -42.101154
v 1.234006 3.192787 -44.084042
v 3.765994 3.192787 -44.084042
v 3.765994 2.931735 -42.101154
v 5.000000 2.634301 -42.140312
v 5.000000 2.895354 -44.123199
v 0.000000 2.634301 -42.140312
v 0.000000 2.895354 -44.123199
vt 0.2985 0.2897
vt 0.2985 0.0949
vt 0.5970 0.0949
vt 0.5970 0.2897
vt 0.2985 0.3846
vt 0.5970 0.3846
vt 0.2985 0.0000
vt 0.5970 0.0000
vn 0.0000 0.9914 0.1305
vn 0.2362 0.9634 0.1268
vn -0.2362 0.9634 0.1268
usemtl Material_blk_concrete01_dif.tga
s off
f 627/921/344 626/922/344 625/923/344 628/924/344
f 630/925/345 627/921/345 628/924/345 629/926/345
f 625/923/346 626/922/346 632/927/346 631/928/346
o Cube.022
v 11.765994 2.931735 -42.101154
v 11.765994 3.192787 -44.084042
v 9.234006 3.192787 -44.084042
v 9.234006 2.931735 -42.101154
v 8.000000 2.895354 -44.123199
v 8.000000 2.634301 -42.140312
v 13.000000 2.895354 -44.123199
v 13.000000 2.634301 -42.140312
vt 0.2985 0.9051
vt 0.5970 0.9051
vt 0.5970 1.0000
vt 0.2985 1.0000
vt 0.2985 0.7103
vt 0.5970 0.7103
vt 0.2985 0.6154
vt 0.5970 0.6154
vn 0.2362 0.9634 0.1268
vn 0.0000 0.9914 0.1305
vn -0.2362 0.9634 0.1268
usemtl Material_blk_concrete01_dif.tga
s off
f 634/929/347 633/930/347 640/931/347 639/932/347
f 634/929/348 635/933/348 636/934/348 633/930/348
f 635/933/349 637/935/349 638/936/349 636/934/349
o Cube.021
v 0.000000 2.201342 -44.214569
v 0.000000 1.940290 -42.231678
v 0.000000 2.634301 -42.140312
v 0.000000 2.895354 -44.123199
v 13.000000 2.895354 -44.123199
v 13.000000 2.201342 -44.214569
v 13.000000 1.940290 -42.231678
v 13.000000 2.634301 -42.140312
vt 0.0000 1.0000
vt 0.0000 0.0000
vt 0.2985 0.0000
vt 0.2985 1.0000
vt 1.0000 0.1538
vt 0.8955 0.1538
vt 0.8955 0.0000
vt 1.0000 0.0000
vt 1.0000 0.3077
vt 0.8955 0.3077
vt 0.8955 0.1538
vt 1.0000 0.1538
vn 0.0000 -0.9914 -0.1305
vn -1.0000 0.0000 0.0000
vn 1.0000 0.0000 0.0000
usemtl Material_blk_concrete01_dif.tga
s off
f 641/937/350 646/938/350 647/939/350 642/940/350
f 642/941/351 643/942/351 644/943/351 641/944/351
f 646/945/352 645/946/352 648/947/352 647/948/352
o Cube.020
v 0.000000 1.250693 -36.405327
v 0.000000 1.041636 -34.416283
v 0.000000 1.737801 -34.343113
v 0.000000 1.946858 -36.332157
v 13.000000 1.946858 -36.332157
v 13.000000 1.250693 -36.405327
v 13.000000 1.041636 -34.416283
v 13.000000 1.737801 -34.343113
vt 0.0000 1.0000
vt 0.0000 0.0000
vt 0.2985 0.0000
vt 0.2985 1.0000
vt 1.0000 0.1538
vt 0.8955 0.1538
vt 0.8955 0.0000
vt 1.0000 0.0000
vt 1.0000 0.3077
vt 0.8955 0.3077
vt 0.8955 0.1538
vt 1.0000 0.1538
vn 0.0000 -0.9945 -0.1045
vn -1.0000 0.0000 0.0000
vn 1.0000 0.0000 0.0000
usemtl Material_blk_concrete01_dif.tga
s off
f 649/949/353 654/950/353 655/951/353 650/952/353
f 650/953/354 651/954/354 652/955/354 649/956/354
f 654/957/355 653/958/355 656/959/355 655/960/355
o Cube.019
v 11.765994 2.036158 -34.311756
v 11.765994 2.245214 -36.300797
v 9.234006 2.245214 -36.300797
v 9.234006 2.036158 -34.311756
v 8.000000 1.946858 -36.332157
v 8.000000 1.737801 -34.343113
v 13.000000 1.946858 -36.332157
v 13.000000 1.737801 -34.343113
vt 0.2985 0.9051
vt 0.5970 0.9051
vt 0.5970 1.0000
vt 0.2985 1.0000
vt 0.2985 0.7103
vt 0.5970 0.7103
vt 0.2985 0.6154
vt 0.5970 0.6154
vn 0.2362 0.9664 0.1016
vn 0.0000 0.9945 0.1045
vn -0.2362 0.9664 0.1016
usemtl Material_blk_concrete01_dif.tga
s off
f 658/961/356 657/962/356 664/963/356 663/964/356
f 658/961/357 659/965/357 660/966/357 657/962/357
f 659/965/358 661/967/358 662/968/358 660/966/358
o Cube.018
v 1.234006 2.036158 -34.311756
v 1.234006 2.245214 -36.300797
v 3.765994 2.245214 -36.300797
v 3.765994 2.036158 -34.311756
v 5.000000 1.737801 -34.343113
v 5.000000 1.946858 -36.332157
v 0.000000 1.737801 -34.343113
v 0.000000 1.946858 -36.332157
vt 0.2985 0.2897
vt 0.2985 0.0949
vt 0.5970 0.0949
vt 0.5970 0.2897
vt 0.2985 0.3846
vt 0.5970 0.3846
vt 0.2985 0.0000
vt 0.5970 0.0000
vn 0.0000 0.9945 0.1045
vn 0.2362 0.9664 0.1016
vn -0.2362 0.9664 0.1016
usemtl Material_blk_concrete01_dif.tga
s off
f 667/969/359 666/970/359 665/971/359 668/972/359
f 670/973/360 667/969/360 668/972/360 669/974/360
f 665/971/361 666/970/361 672/975/361 671/976/361
o Cube.015
v 1.234006 1.344798 -26.501583
v 1.234006 1.501716 -28.495419
v 3.765994 1.501716 -28.495419
v 3.765994 1.344798 -26.501583
v 5.000000 1.045723 -26.525120
v 5.000000 1.202641 -28.518955
v 0.000000 1.045723 -26.525120
v 0.000000 1.202641 -28.518955
vt 0.2985 0.2897
vt 0.2985 0.0949
vt 0.5970 0.0949
vt 0.5970 0.2897
vt 0.2985 0.3846
vt 0.5970 0.3846
vt 0.2985 0.0000
vt 0.5970 0.0000
vn 0.0000 0.9969 0.0785
vn 0.2362 0.9687 0.0762
vn -0.2362 0.9687 0.0762
usemtl Material_blk_concrete01_dif.tga
s off
f 675/977/362 674/978/362 673/979/362 676/980/362
f 678/981/363 675/977/363 676/980/363 677/982/363
f 673/979/364 674/978/364 680/983/364 679/984/364
o Cube.014
v 11.765994 1.344798 -26.501583
v 11.765994 1.501716 -28.495419
v 9.234006 1.501716 -28.495419
v 9.234006 1.344798 -26.501583
v 8.000000 1.202641 -28.518955
v 8.000000 1.045723 -26.525120
v 13.000000 1.202641 -28.518955
v 13.000000 1.045723 -26.525120
vt 0.2985 0.9051
vt 0.5970 0.9051
vt 0.5970 1.0000
vt 0.2985 1.0000
vt 0.2985 0.7103
vt 0.5970 0.7103
vt 0.2985 0.6154
vt 0.5970 0.6154
vn 0.2362 0.9687 0.0762
vn 0.0000 0.9969 0.0785
vn -0.2362 0.9687 0.0762
usemtl Material_blk_concrete01_dif.tga
s off
f 682/985/365 681/986/365 688/987/365 687/988/365
f 682/985/366 683/989/366 684/990/366 681/986/366
f 683/989/367 685/991/367 686/992/367 684/990/367
o Cube.013
v 0.000000 0.504799 -28.573875
v 0.000000 0.347881 -26.580042
v 0.000000 1.045723 -26.525120
v 0.000000 1.202641 -28.518955
v 13.000000 1.202641 -28.518955
v 13.000000 0.504799 -28.573875
v 13.000000 0.347881 -26.580042
v 13.000000 1.045723 -26.525120
vt 0.0000 1.0000
vt 0.0000 0.0000
vt 0.2985 0.0000
vt 0.2985 1.0000
vt 1.0000 0.1538
vt 0.8955 0.1538
vt 0.8955 0.0000
vt 1.0000 0.0000
vt 1.0000 0.3077
vt 0.8955 0.3077
vt 0.8955 0.1538
vt 1.0000 0.1538
vn 0.0000 -0.9969 -0.0785
vn -1.0000 0.0000 0.0000
vn 1.0000 0.0000 0.0000
usemtl Material_blk_concrete01_dif.tga
s off
f 689/993/368 694/994/368 695/995/368 690/996/368
f 690/997/369 691/998/369 692/999/369 689/1000/369
f 694/1001/370 693/1002/370 696/1003/370 695/1004/370
o Cube.012
v 0.000000 -0.035822 -20.725586
v 0.000000 -0.140494 -18.728327
v 0.000000 0.558547 -18.691692
v 0.000000 0.663218 -20.688950
v 13.000000 0.663218 -20.688950
v 13.000000 -0.035822 -20.725586
v 13.000000 -0.140494 -18.728327
v 13.000000 0.558547 -18.691692
vt 0.0000 1.0000
vt 0.0000 0.0000
vt 0.2985 0.0000
vt 0.2985 1.0000
vt 1.0000 0.1538
vt 0.8955 0.1538
vt 0.8955 0.0000
vt 1.0000 0.0000
vt 1.0000 0.3077
vt 0.8955 0.3077
vt 0.8955 0.1538
vt 1.0000 0.1538
vn 0.0000 -0.9986 -0.0523
vn -1.0000 0.0000 0.0000
vn 1.0000 0.0000 0.0000
usemtl Material_blk_concrete01_dif.tga
s off
f 697/1005/371 702/1006/371 703/1007/371 698/1008/371
f 698/1009/372 699/1010/372 700/1011/372 697/1012/372
f 702/1013/373 701/1014/373 704/1015/373 703/1016/373
o Cube.011
v 11.765994 0.858135 -18.675991
v 11.765994 0.962807 -20.673250
v 9.234006 0.962807 -20.673250
v 9.234006 0.858135 -18.675991
v 8.000000 0.663218 -20.688950
v 8.000000 0.558547 -18.691692
v 13.000000 0.663218 -20.688950
v 13.000000 0.558547 -18.691692
vt 0.2985 0.9051
vt 0.5970 0.9051
vt 0.5970 1.0000
vt 0.2985 1.0000
vt 0.2985 0.7103
vt 0.5970 0.7103
vt 0.2985 0.6154
vt 0.5970 0.6154
vn 0.2362 0.9704 0.0509
vn 0.0000 0.9986 0.0523
vn -0.2362 0.9704 0.0509
usemtl Material_blk_concrete01_dif.tga
s off
f 706/1017/374 705/1018/374 712/1019/374 711/1020/374
f 706/1017/375 707/1021/375 708/1022/375 705/1018/375
f 707/1021/376 709/1023/376 710/1024/376 708/1022/376
o Cube.010
v 1.234006 0.858135 -18.675991
v 1.234006 0.962807 -20.673250
v 3.765994 0.962807 -20.673250
v 3.765994 0.858135 -18.675991
v 5.000000 0.558547 -18.691692
v 5.000000 0.663218 -20.688950
v 0.000000 0.558547 -18.691692
v 0.000000 0.663218 -20.688950
vt 0.2985 0.2897
vt 0.2985 0.0949
vt 0.5970 0.0949
vt 0.5970 0.2897
vt 0.2985 0.3846
vt 0.5970 0.3846
vt 0.2985 0.0000
vt 0.5970 0.0000
vn 0.0000 0.9986 0.0523
vn 0.2362 0.9704 0.0509
vn -0.2362 0.9704 0.0509
usemtl Material_blk_concrete01_dif.tga
s off
f 715/1025/377 714/1026/377 713/1027/377 716/1028/377
f 718/1029/378 715/1025/378 716/1028/378 717/1030/378
f 713/1027/379 714/1026/379 720/1031/379 719/1032/379
o Cube.007
v 1.234006 0.576467 -10.840340
v 1.234006 0.628821 -12.839654
v 3.765994 0.628821 -12.839654
v 3.765994 0.576467 -10.840340
v 5.000000 0.276570 -10.848192
v 5.000000 0.328924 -12.847507
v 0.000000 0.276570 -10.848192
v 0.000000 0.328924 -12.847507
vt 0.2985 0.2897
vt 0.2985 0.0949
vt 0.5970 0.0949
vt 0.5970 0.2897
vt 0.2985 0.3846
vt 0.5970 0.3846
vt 0.2985 0.0000
vt 0.5970 0.0000
vn 0.0000 0.9997 0.0262
vn 0.2362 0.9714 0.0254
vn -0.2362 0.9714 0.0254
usemtl Material_blk_concrete01_dif.tga
s off
f 723/1033/380 722/1034/380 721/1035/380 724/1036/380
f 726/1037/381 723/1033/381 724/1036/381 725/1038/381
f 721/1035/382 722/1034/382 728/1039/382 727/1040/382
o Cube.006
v 11.765994 0.576467 -10.840340
v 11.765994 0.628821 -12.839654
v 9.234006 0.628821 -12.839654
v 9.234006 0.576467 -10.840340
v 8.000000 0.328924 -12.847507
v 8.000000 0.276570 -10.848192
v 13.000000 0.328924 -12.847507
v 13.000000 0.276570 -10.848192
vt 0.2985 0.9051
vt 0.5970 0.9051
vt 0.5970 1.0000
vt 0.2985 1.0000
vt 0.2985 0.7103
vt 0.5970 0.7103
vt 0.2985 0.6154
vt 0.5970 0.6154
vn 0.2362 0.9714 0.0254
vn 0.0000 0.9997 0.0262
vn -0.2362 0.9714 0.0254
usemtl Material_blk_concrete01_dif.tga
s off
f 730/1041/383 729/1042/383 736/1043/383 735/1044/383
f 730/1041/384 731/1045/384 732/1046/384 729/1042/384
f 731/1045/385 733/1047/385 734/1048/385 732/1046/385
o Cube.005
v 0.000000 -0.370836 -12.865831
v 0.000000 -0.423190 -10.866516
v 0.000000 0.276570 -10.848192
v 0.000000 0.328924 -12.847507
v 13.000000 0.328924 -12.847507
v 13.000000 -0.370836 -12.865831
v 13.000000 -0.423190 -10.866516
v 13.000000 0.276570 -10.848192
vt 0.0000 1.0000
vt 0.0000 0.0000
vt 0.2985 0.0000
vt 0.2985 1.0000
vt 1.0000 0.1538
vt 0.8955 0.1538
vt 0.8955 0.0000
vt 1.0000 0.0000
vt 1.0000 0.3077
vt 0.8955 0.3077
vt 0.8955 0.1538
vt 1.0000 0.1538
vn 0.0000 -0.9997 -0.0262
vn -1.0000 0.0000 0.0000
vn 1.0000 0.0000 0.0000
usemtl Material_blk_concrete01_dif.tga
s off
f 737/1049/386 742/1050/386 743/1051/386 738/1052/386
f 738/1053/387 739/1054/387 740/1055/387 737/1056/387
f 742/1057/388 741/1058/388 744/1059/388 743/1060/388
o Cube.004
v 0.000000 -0.500000 -5.000000
v 0.000000 -0.500000 -3.000000
v 0.000000 0.200000 -3.000000
v 0.000000 0.200000 -5.000000
v 13.000000 0.200000 -5.000000
v 13.000000 -0.500000 -5.000000
v 13.000000 -0.500000 -3.000000
v 13.000000 0.200000 -3.000000
vt 0.0000 1.0000
vt 0.0000 0.0000
vt 0.2985 0.0000
vt 0.2985 1.0000
vt 1.0000 0.1538
vt 0.8955 0.1538
vt 0.8955 0.0000
vt 1.0000 0.0000
vt 1.0000 0.3077
vt 0.8955 0.3077
vt 0.8955 0.1538
vt 1.0000 0.1538
vn 0.0000 -1.0000 0.0000
vn -1.0000 0.0000 0.0000
vn 1.0000 0.0000 0.0000
usemtl Material_blk_concrete01_dif.tga
s off
f 745/1061/389 750/1062/389 751/1063/389 746/1064/389
f 746/1065/390 747/1066/390 748/1067/390 745/1068/390
f 750/1069/391 749/1070/391 752/1071/391 751/1072/391
o Cube.003
v 11.765994 0.500000 -3.000000
v 11.765994 0.500000 -5.000000
v 9.234006 0.500000 -5.000000
v 9.234006 0.500000 -3.000000
v 8.000000 0.200000 -5.000000
v 8.000000 0.200000 -3.000000
v 13.000000 0.200000 -5.000000
v 13.000000 0.200000 -3.000000
vt 0.2985 0.9051
vt 0.5970 0.9051
vt 0.5970 1.0000
vt 0.2985 1.0000
vt 0.2985 0.7103
vt 0.5970 0.7103
vt 0.2985 0.6154
vt 0.5970 0.6154
vn 0.2362 0.9717 0.0000
vn 0.0000 1.0000 0.0000
vn -0.2362 0.9717 0.0000
usemtl Material_blk_concrete01_dif.tga
s off
f 754/1073/392 753/1074/392 760/1075/392 759/1076/392
f 754/1073/393 755/1077/393 756/1078/393 753/1074/393
f 755/1077/394 757/1079/394 758/1080/394 756/1078/394
o Cube.002_Cube.001
v 1.234006 0.500000 -3.000000
v 1.234006 0.500000 -5.000000
v 3.765994 0.500000 -5.000000
v 3.765994 0.500000 -3.000000
v 5.000000 0.200000 -3.000000
v 5.000000 0.200000 -5.000000
v 0.000000 0.200000 -3.000000
v 0.000000 0.200000 -5.000000
vt 0.2985 0.2897
vt 0.2985 0.0949
vt 0.5970 0.0949
vt 0.5970 0.2897
vt 0.2985 0.3846
vt 0.5970 0.3846
vt 0.2985 0.0000
vt 0.5970 0.0000
vn 0.0000 1.0000 0.0000
vn 0.2362 0.9717 0.0000
vn -0.2362 0.9717 0.0000
usemtl Material_blk_concrete01_dif.tga
s off
f 763/1081/395 762/1082/395 761/1083/395 764/1084/395
f 766/1085/396 763/1081/396 764/1084/396 765/1086/396
f 761/1083/397 762/1082/397 768/1087/397 767/1088/397
