# Blender v2.79 (sub 0) OBJ File: 'RailSwitchY_coll.blend'
# www.blender.org
mtllib RailSwitchY_col.mtl
o Cube.021
v 6.500000 1.918391 -28.817738
v 6.729916 1.918391 -28.132168
v 6.270084 1.918391 -28.132168
vt 0.111955 0.666007
vt 0.112328 0.666133
vt 0.111910 0.666581
vn 0.0000 1.0000 0.0000
usemtl Material_UniTex_dif.png
s 1
f 3/1/1 2/2/1 1/3/1
o Cube.020
v 8.073744 1.539268 -34.058414
v 8.049128 1.606315 -34.067375
v 8.686163 1.539268 -33.835510
v 8.549904 1.491614 -33.885109
v 8.526718 0.955870 -33.893547
v 8.526718 1.447078 -33.893547
v 8.210014 1.491614 -34.008816
v 8.233206 0.955870 -34.000378
v 8.233206 1.447078 -34.000374
v 8.049128 1.830536 -34.067375
v 8.072668 1.872461 -34.058807
v 8.170424 1.905697 -34.023232
v 8.589500 1.905697 -33.870697
v 8.687262 1.872461 -33.835117
v 8.710791 1.830536 -33.826550
v 8.710791 1.606315 -33.826550
v 6.500000 1.619009 -29.246586
v 6.500000 1.843230 -29.246586
v 6.500000 1.459772 -28.595768
v 6.500000 1.504308 -28.677759
v 6.500000 0.968564 -28.595770
v 6.500000 1.551962 -29.159542
v 6.500000 1.918391 -28.817738
v 6.500000 1.885156 -29.163359
v 6.846231 1.885156 -28.132168
v 6.872467 1.843230 -28.132168
v 6.737256 1.918391 -28.132168
v 6.667270 0.968564 -28.132168
v 6.667271 1.459772 -28.132170
v 6.729916 1.918391 -28.132168
v 6.872467 1.619009 -28.132168
v 6.845014 1.551962 -28.132168
v 6.693116 1.504308 -28.132170
vt 0.111910 0.666581
vt 0.112328 0.666133
vt 0.112334 0.666135
vt 0.112067 0.669585
vt 0.111678 0.669577
vt 0.163730 0.728567
vt 0.163535 0.728576
vt 0.163518 0.726449
vt 0.163713 0.726441
vt 0.163481 0.716804
vt 0.163054 0.716823
vt 0.163035 0.714334
vt 0.163463 0.714315
vt 0.163500 0.728636
vt 0.163483 0.726463
vt 0.163790 0.728626
vt 0.163773 0.726451
vt 0.159652 0.708815
vt 0.159762 0.708573
vt 0.159530 0.711569
vt 0.159439 0.711567
vt 0.163013 0.716767
vt 0.162995 0.714324
vt 0.149341 0.720325
vt 0.149187 0.720663
vt 0.147175 0.722810
vt 0.147080 0.722738
vt 0.162602 0.720090
vt 0.162479 0.720132
vt 0.162211 0.716671
vt 0.162337 0.716668
vt 0.163788 0.720083
vt 0.163752 0.720076
vt 0.163737 0.716660
vt 0.163772 0.716660
vt 0.161700 0.720140
vt 0.161272 0.720140
vt 0.161256 0.716671
vt 0.161684 0.716671
vt 0.160186 0.708127
vt 0.160274 0.708157
vt 0.160009 0.711579
vt 0.159919 0.711577
vt 0.161740 0.720133
vt 0.161724 0.716671
vt 0.163557 0.720076
vt 0.163497 0.720083
vt 0.163482 0.716660
vt 0.163541 0.716660
vn -0.0308 0.9995 -0.0122
vn 0.0021 1.0000 -0.0016
vn 0.1197 0.9921 0.0364
vn 0.1447 0.9885 0.0445
vn -0.1461 0.9880 -0.0493
vn -0.9277 -0.2256 -0.2975
vn -0.8974 0.3333 -0.2892
vn -0.9175 0.2661 -0.2955
vn -0.9356 -0.1857 -0.3002
vn -0.9522 0.0000 -0.3054
vn -0.9436 -0.1350 -0.3023
vn -0.9215 -0.2525 -0.2950
vn -0.3844 0.9146 -0.1258
vn -0.5927 0.7821 -0.1924
vn -0.4453 -0.8842 -0.1408
vn -0.6596 -0.7217 -0.2101
vn -0.7933 -0.5537 -0.2531
vn -0.6024 -0.7749 -0.1914
vn 0.6128 -0.7646 0.1995
vn 0.6488 -0.7311 0.2110
vn 0.6119 -0.7655 0.1992
vn 0.6489 -0.7310 0.2111
vn 0.5517 0.8152 0.1763
vn 0.9140 0.2791 0.2944
vn 0.9173 0.2669 0.2955
vn 0.5878 0.7868 0.1880
vn 0.9243 -0.2372 0.2989
vn 0.9517 0.0000 0.3071
vn 0.9217 -0.2481 0.2980
vn 0.9339 -0.1913 0.3019
vn 0.9349 -0.1859 0.3022
usemtl Material_UniTex_dif.png
s 1
f 26/4/2 33/5/3 30/6/4 16/7/5 15/8/6
f 20/9/7 21/10/8 13/11/9 5/12/10
f 24/13/11 22/14/12 12/15/13 11/16/11
f 21/10/8 27/17/14 14/18/15 13/11/9
f 25/19/16 20/9/7 5/12/10 4/20/17
f 27/21/14 26/22/2 15/23/6 14/24/15
f 22/14/12 23/25/18 10/26/19 12/15/13
f 23/27/18 25/28/16 4/29/17 10/30/19
f 35/31/20 36/32/21 7/33/22 6/34/23
f 28/35/24 29/36/25 18/37/26 17/38/27
f 32/39/28 31/40/29 8/41/29 9/42/30
f 30/43/4 28/44/24 17/45/27 16/46/5
f 36/47/21 32/39/28 9/42/30 7/48/22
f 34/49/31 35/50/20 6/51/23 19/52/32
f 29/36/25 34/49/31 19/52/32 18/37/26
o Cube.019
v 4.926256 1.539268 -34.058414
v 4.950872 1.606315 -34.067375
v 4.313837 1.539268 -33.835510
v 4.450096 1.491614 -33.885109
v 4.473281 0.955870 -33.893547
v 4.473281 1.447078 -33.893547
v 4.789985 1.491614 -34.008816
v 4.766794 0.955870 -34.000378
v 4.766794 1.447078 -34.000374
v 4.950872 1.830536 -34.067375
v 4.927331 1.872461 -34.058807
v 4.829576 1.905697 -34.023232
v 4.410499 1.905697 -33.870697
v 4.312738 1.872461 -33.835117
v 4.289209 1.830536 -33.826550
v 4.289209 1.606315 -33.826550
v 6.500000 1.619009 -29.246586
v 6.500000 1.843230 -29.246586
v 6.500000 1.459772 -28.595768
v 6.500000 1.504308 -28.677759
v 6.500000 0.968564 -28.595770
v 6.500000 1.551962 -29.159542
v 6.500000 1.918391 -28.817738
v 6.500000 1.885156 -29.163359
v 6.270084 1.918391 -28.132168
v 6.332729 0.968564 -28.132168
v 6.153768 1.885156 -28.132168
v 6.262743 1.918391 -28.132170
v 6.306884 1.504308 -28.132168
v 6.332729 1.459772 -28.132168
v 6.127532 1.843230 -28.132168
v 6.127533 1.619009 -28.132168
v 6.154986 1.551962 -28.132168
vt 0.163462 0.725541
vt 0.163422 0.725597
vt 0.163422 0.723126
vt 0.163462 0.723115
vt 0.162994 0.725579
vt 0.162994 0.723109
vt 0.159762 0.708573
vt 0.159652 0.708815
vt 0.157646 0.710964
vt 0.157578 0.710912
vt 0.159571 0.720304
vt 0.159605 0.720364
vt 0.159591 0.722474
vt 0.159557 0.722460
vt 0.149187 0.720663
vt 0.149341 0.720325
vt 0.149094 0.723420
vt 0.148968 0.723417
vt 0.159800 0.720373
vt 0.159861 0.720314
vt 0.159847 0.722473
vt 0.159787 0.722483
vt 0.163802 0.707967
vt 0.163862 0.707974
vt 0.163847 0.711392
vt 0.163788 0.711392
vt 0.164057 0.707975
vt 0.164043 0.711392
vt 0.111949 0.666005
vt 0.111955 0.666007
vt 0.111910 0.666581
vt 0.109726 0.668920
vt 0.109434 0.668699
vt 0.159712 0.707967
vt 0.159800 0.707997
vt 0.157285 0.710691
vt 0.157217 0.710639
vt 0.164093 0.707968
vt 0.164078 0.711392
vt 0.160289 0.714825
vt 0.160717 0.714825
vt 0.160702 0.718296
vt 0.160274 0.718296
vt 0.160757 0.714832
vt 0.160742 0.718296
vt 0.162871 0.707967
vt 0.162994 0.708009
vt 0.162729 0.711431
vt 0.162602 0.711429
vn 0.7933 -0.5537 -0.2531
vn 0.9436 -0.1350 -0.3023
vn 0.9215 -0.2525 -0.2950
vn 0.6024 -0.7749 -0.1914
vn 0.9522 0.0000 -0.3054
vn 0.0308 0.9995 -0.0122
vn 0.3844 0.9146 -0.1258
vn 0.5927 0.7821 -0.1924
vn 0.1461 0.9880 -0.0493
vn 0.8974 0.3333 -0.2892
vn 0.9175 0.2661 -0.2955
vn 0.4453 -0.8842 -0.1408
vn 0.6596 -0.7217 -0.2101
vn 0.9277 -0.2256 -0.2975
vn 0.9356 -0.1857 -0.3002
vn -0.6128 -0.7646 0.1995
vn -0.9339 -0.1913 0.3019
vn -0.9349 -0.1859 0.3022
vn -0.6489 -0.7310 0.2111
vn -0.9140 0.2791 0.2944
vn -0.9173 0.2669 0.2955
vn -0.1197 0.9921 0.0364
vn -0.0021 1.0000 -0.0016
vn -0.1447 0.9885 0.0445
vn -0.5517 0.8152 0.1763
vn -0.5878 0.7868 0.1880
vn -0.9517 0.0000 0.3071
vn -0.9243 -0.2372 0.2989
vn -0.9217 -0.2481 0.2980
vn -0.6488 -0.7311 0.2110
vn -0.6119 -0.7655 0.1992
usemtl Material_UniTex_dif.png
s 1
f 56/53/33 55/54/34 45/55/35 43/56/36
f 55/54/34 57/57/37 44/58/37 45/55/35
f 59/59/38 60/60/39 47/61/40 48/62/41
f 60/63/39 54/64/42 46/65/43 47/66/40
f 58/67/44 56/68/33 43/69/36 37/70/45
f 53/71/46 58/72/44 37/73/45 38/74/47
f 54/64/42 53/71/46 38/74/47 46/65/43
f 69/75/48 68/76/49 52/77/50 39/78/51
f 68/76/49 67/79/52 51/80/53 52/77/50
f 64/81/54 61/82/55 59/83/38 48/84/41 49/85/56
f 63/86/57 64/87/54 49/88/56 50/89/58
f 67/79/52 63/90/57 50/91/58 51/80/53
f 62/92/59 66/93/60 42/94/61 41/95/59
f 66/93/60 65/96/62 40/97/63 42/94/61
f 65/98/62 69/99/48 39/100/51 40/101/63
o Cube.018
v -0.700486 0.955874 -23.723886
v -0.398774 0.955874 -23.804729
v -3.044259 0.955875 -31.157391
v -2.750741 0.955875 -31.264221
v -0.334240 1.905701 -23.822020
v -0.765019 1.905700 -23.706593
v -3.107035 1.905702 -31.134539
v -2.687964 1.905702 -31.287071
v -0.889697 1.830539 -23.673187
v -0.865504 1.872465 -23.679668
v -0.233761 1.872465 -23.848946
v -0.209563 1.830539 -23.855427
v -0.889697 1.606318 -23.673183
v -0.209563 1.606319 -23.855427
v -0.700486 1.447082 -23.723885
v -0.724324 1.491617 -23.717497
v -0.374947 1.491617 -23.811113
v -0.398774 1.447082 -23.804729
v -0.864388 1.539272 -23.679966
v -0.234877 1.539272 -23.848646
v -3.228331 1.830541 -31.090393
v -3.204791 1.872466 -31.098959
v -2.590214 1.872466 -31.322651
v -2.566668 1.830541 -31.331217
v -3.228331 1.606320 -31.090389
v -2.566668 1.606320 -31.331217
v -3.044259 1.447083 -31.157387
v -3.067450 1.491619 -31.148947
v -2.727561 1.491619 -31.272657
v -2.750741 1.447083 -31.264221
v -3.203709 1.539273 -31.099352
v -2.591296 1.539273 -31.322254
vt 0.107490 0.671930
vt 0.107661 0.669169
vt 0.107870 0.669191
vt 0.107700 0.671934
vt 0.167503 0.718271
vt 0.167530 0.723439
vt 0.167493 0.723430
vt 0.167466 0.718264
vt 0.169573 0.718412
vt 0.169604 0.723633
vt 0.169567 0.723624
vt 0.169536 0.718405
vt 0.143907 0.717418
vt 0.144243 0.712003
vt 0.144340 0.712013
vt 0.144004 0.717419
vt 0.167286 0.723425
vt 0.167258 0.718259
vt 0.169780 0.718417
vt 0.169812 0.723637
vt 0.143395 0.717408
vt 0.143735 0.711949
vt 0.143831 0.711959
vt 0.143492 0.717410
vt 0.167137 0.718298
vt 0.167165 0.723477
vt 0.167121 0.723484
vt 0.167094 0.718303
vt 0.168413 0.718365
vt 0.168445 0.723570
vt 0.168401 0.723577
vt 0.168370 0.718370
vt 0.166666 0.723473
vt 0.166639 0.718292
vt 0.168868 0.718375
vt 0.168900 0.723581
vt 0.163377 0.718305
vt 0.163713 0.723711
vt 0.163579 0.723725
vt 0.163242 0.718307
vt 0.167221 0.723432
vt 0.167194 0.718264
vt 0.159249 0.718427
vt 0.159589 0.723874
vt 0.159454 0.723889
vt 0.159114 0.718430
vt 0.169845 0.718412
vt 0.169876 0.723630
vn 0.1510 0.9874 -0.0476
vn -0.1430 0.9887 0.0451
vn -0.5873 0.7879 0.1852
vn -0.9189 0.2677 0.2897
vn 0.9199 0.2640 -0.2900
vn 0.5988 0.7783 -0.1888
vn -0.9371 -0.1860 0.2955
vn 0.9374 -0.1841 -0.2956
vn -0.6139 -0.7653 0.1936
vn -0.9238 -0.2484 0.2913
vn 0.9230 -0.2517 -0.2910
vn 0.6025 -0.7752 -0.1900
vn -0.9537 -0.0000 0.3007
vn 0.9537 0.0000 -0.3007
vn -0.6499 -0.7319 0.2049
vn -0.6498 -0.7319 0.2049
vn 0.6617 -0.7201 -0.2086
usemtl Material_UniTex_dif.png
s 1
f 74/102/64 77/103/64 76/104/65 75/105/65
f 79/106/66 91/107/66 90/108/67 78/109/67
f 81/110/68 93/111/68 92/112/69 80/113/69
f 75/114/65 76/115/65 91/116/66 79/117/66
f 78/109/67 90/108/67 94/118/70 82/119/70
f 83/120/71 95/121/71 93/111/68 81/110/68
f 80/122/69 92/123/69 77/124/64 74/125/64
f 85/126/72 97/127/72 96/128/73 84/129/73
f 87/130/74 99/131/74 98/132/75 86/133/75
f 84/129/73 96/128/73 72/134/76 70/135/76
f 71/136/77 73/137/77 99/131/74 87/130/74
f 88/138/78 100/139/79 97/140/72 85/141/72
f 82/119/70 94/118/70 100/142/79 88/143/78
f 86/144/75 98/145/75 101/146/80 89/147/80
f 89/148/80 101/149/80 95/121/71 83/120/71
o Cube.017
v -3.044259 0.955875 -31.157391
v -2.750741 0.955875 -31.264221
v -6.026984 0.955876 -38.358334
v -5.743897 0.955876 -38.490341
v -3.107035 1.905702 -31.134539
v -2.687964 1.905702 -31.287071
v -3.228331 1.830541 -31.090393
v -3.204791 1.872466 -31.098959
v -2.590214 1.872466 -31.322651
v -2.566668 1.830541 -31.331217
v -3.228331 1.606320 -31.090389
v -2.566668 1.606320 -31.331217
v -3.044259 1.447083 -31.157387
v -3.067450 1.491619 -31.148947
v -2.727561 1.491619 -31.272657
v -2.750741 1.447083 -31.264221
v -3.203709 1.539273 -31.099352
v -2.591296 1.539273 -31.322254
v -6.204516 1.830542 -38.275547
v -6.181811 1.872467 -38.286133
v -5.589076 1.872468 -38.562538
v -5.566360 1.830542 -38.573124
v -6.087529 1.905703 -38.330097
v -6.204516 1.606321 -38.275543
v -5.566360 1.606321 -38.573124
v -5.683352 1.905703 -38.518574
v -6.026984 1.447084 -38.358330
v -6.049352 1.491620 -38.347900
v -5.721536 1.491620 -38.500763
v -5.743897 1.447084 -38.490341
v -6.180770 1.539274 -38.286621
v -5.590112 1.539274 -38.562050
vt 0.167530 0.723439
vt 0.167601 0.728446
vt 0.167564 0.728435
vt 0.167493 0.723430
vt 0.169604 0.723633
vt 0.169680 0.728691
vt 0.169643 0.728680
vt 0.169567 0.723624
vt 0.144243 0.712003
vt 0.145051 0.706638
vt 0.145146 0.706657
vt 0.144340 0.712013
vt 0.167357 0.728430
vt 0.167286 0.723425
vt 0.169812 0.723637
vt 0.169887 0.728695
vt 0.143735 0.711949
vt 0.144549 0.706540
vt 0.144644 0.706559
vt 0.143831 0.711959
vt 0.167165 0.723477
vt 0.167236 0.728495
vt 0.167193 0.728504
vt 0.167121 0.723484
vt 0.168445 0.723570
vt 0.168520 0.728614
vt 0.168477 0.728622
vt 0.168401 0.723577
vt 0.166737 0.728493
vt 0.166666 0.723473
vt 0.168900 0.723581
vt 0.168975 0.728624
vt 0.163713 0.723711
vt 0.164519 0.729068
vt 0.164387 0.729093
vt 0.163579 0.723725
vt 0.167292 0.728439
vt 0.167221 0.723432
vt 0.159589 0.723874
vt 0.160402 0.729271
vt 0.160269 0.729297
vt 0.159454 0.723889
vt 0.169876 0.723630
vt 0.169952 0.728686
vt 0.107661 0.669169
vt 0.108073 0.666433
vt 0.108279 0.666473
vt 0.107870 0.669191
vn -0.5689 0.7879 0.2357
vn -0.8902 0.2677 0.3687
vn 0.8911 0.2640 -0.3691
vn 0.5800 0.7784 -0.2403
vn -0.1385 0.9887 0.0574
vn -0.9078 -0.1860 0.3760
vn 0.9081 -0.1841 -0.3761
vn 0.1463 0.9874 -0.0606
vn -0.5947 -0.7653 0.2463
vn -0.8949 -0.2484 0.3707
vn 0.8941 -0.2517 -0.3704
vn 0.5837 -0.7752 -0.2418
vn -0.9239 -0.0000 0.3827
vn 0.9239 0.0000 -0.3827
vn -0.6295 -0.7319 0.2608
vn 0.6410 -0.7201 -0.2655
usemtl Material_UniTex_dif.png
s 1
f 109/150/81 121/151/81 120/152/82 108/153/82
f 111/154/83 123/155/83 122/156/84 110/157/84
f 106/158/85 124/159/85 121/160/81 109/161/81
f 108/153/82 120/152/82 125/162/86 112/163/86
f 113/164/87 126/165/87 123/155/83 111/154/83
f 110/166/84 122/167/84 127/168/88 107/169/88
f 115/170/89 129/171/89 128/172/90 114/173/90
f 117/174/91 131/175/91 130/176/92 116/177/92
f 114/173/90 128/172/90 104/178/93 102/179/93
f 103/180/94 105/181/94 131/175/91 117/174/91
f 118/182/95 132/183/95 129/184/89 115/185/89
f 112/163/86 125/162/86 132/186/95 118/187/95
f 116/188/92 130/189/92 133/190/96 119/191/96
f 119/192/96 133/193/96 126/165/87 113/164/87
f 107/194/88 127/195/88 124/196/85 106/197/85
o Cube.016
v -6.026984 0.955876 -38.358334
v -5.743897 0.955876 -38.490341
v -6.204516 1.830542 -38.275547
v -6.181811 1.872467 -38.286133
v -5.589076 1.872468 -38.562538
v -5.566360 1.830542 -38.573124
v -6.087529 1.905703 -38.330097
v -6.204516 1.606321 -38.275543
v -5.566360 1.606321 -38.573124
v -5.683352 1.905703 -38.518574
v -6.026984 1.447084 -38.358330
v -6.049352 1.491620 -38.347900
v -5.721536 1.491620 -38.500763
v -5.743897 1.447084 -38.490341
v -6.180770 1.539274 -38.286621
v -5.590112 1.539274 -38.562050
v -8.766786 0.955887 -44.743523
v -8.766786 1.447095 -44.743523
v -8.789159 1.491631 -44.733093
v -8.920577 1.539285 -44.671806
v -8.944328 1.606333 -44.660736
v -8.944328 1.830552 -44.660732
v -8.921624 1.872479 -44.671318
v -8.827343 1.905714 -44.715286
v -8.423154 1.905714 -44.903767
v -8.328866 1.872479 -44.947735
v -8.306172 1.830552 -44.958321
v -8.306172 1.606332 -44.958317
v -8.329930 1.539285 -44.947243
v -8.461349 1.491631 -44.885956
v -8.483710 1.447095 -44.875534
v -8.483710 0.955887 -44.875530
vt 0.145051 0.706638
vt 0.145832 0.701858
vt 0.145927 0.701876
vt 0.145146 0.706657
vt 0.169680 0.728691
vt 0.169752 0.733144
vt 0.169715 0.733134
vt 0.169643 0.728680
vt 0.108073 0.666433
vt 0.108469 0.664011
vt 0.108675 0.664051
vt 0.108279 0.666473
vt 0.144549 0.706540
vt 0.145330 0.701760
vt 0.145425 0.701778
vt 0.144644 0.706559
vt 0.169952 0.728686
vt 0.170024 0.733140
vt 0.169960 0.733149
vt 0.169887 0.728695
vt 0.167236 0.728495
vt 0.167305 0.732949
vt 0.167262 0.732958
vt 0.167193 0.728504
vt 0.166807 0.732947
vt 0.166737 0.728493
vt 0.168975 0.728624
vt 0.169048 0.733078
vt 0.168593 0.733068
vt 0.168520 0.728614
vt 0.168549 0.733076
vt 0.168477 0.728622
vt 0.164519 0.729068
vt 0.165301 0.733848
vt 0.165168 0.733874
vt 0.164387 0.729093
vt 0.167357 0.728430
vt 0.167426 0.732884
vt 0.167362 0.732893
vt 0.167292 0.728439
vt 0.167601 0.728446
vt 0.167670 0.732900
vt 0.167634 0.732889
vt 0.167564 0.728435
vt 0.160402 0.729271
vt 0.161184 0.734052
vt 0.161052 0.734078
vt 0.160269 0.729297
vn -0.1443 0.9876 0.0619
vn -0.1389 0.9885 0.0596
vn -0.5674 0.7866 0.2435
vn -0.5753 0.7798 0.2468
vn 0.8855 0.2673 -0.3800
vn 0.8862 0.2646 -0.3803
vn 0.5753 0.7798 -0.2468
vn 0.5674 0.7866 -0.2435
vn 0.1389 0.9885 -0.0596
vn 0.1443 0.9876 -0.0619
vn 0.6277 -0.7304 -0.2693
vn 0.6358 -0.7220 -0.2728
vn 0.9032 -0.1845 -0.3876
vn 0.9030 -0.1858 -0.3875
vn -0.5820 -0.7739 0.2497
vn -0.5898 -0.7669 0.2531
vn -0.8900 -0.2490 0.3819
vn -0.8895 -0.2514 0.3817
vn -0.9190 -0.0000 0.3943
vn 0.9190 -0.0000 -0.3943
vn 0.8895 -0.2513 -0.3817
vn 0.8900 -0.2490 -0.3819
vn 0.5820 -0.7739 -0.2497
vn 0.5899 -0.7668 -0.2531
vn -0.6359 -0.7220 0.2728
vn -0.6277 -0.7304 0.2693
vn -0.9032 -0.1845 0.3876
vn -0.9030 -0.1858 0.3875
vn -0.8855 0.2673 0.3800
vn -0.8862 0.2646 0.3803
usemtl Material_UniTex_dif.png
s 1
f 140/198/97 157/199/98 156/200/99 137/201/100
f 139/202/101 160/203/102 159/204/103 138/205/104
f 143/206/105 158/207/106 157/208/98 140/209/97
f 138/210/104 159/211/103 158/212/106 143/213/105
f 149/214/107 162/215/108 161/216/109 142/217/110
f 145/218/111 152/219/112 151/220/113 144/221/114
f 144/221/114 151/220/113 150/222/115 134/223/115
f 135/224/116 165/225/116 164/226/117 147/227/118
f 147/227/118 164/226/117 163/228/119 146/229/120
f 148/230/121 153/231/122 152/232/112 145/233/111
f 141/234/123 154/235/124 153/236/122 148/237/121
f 137/238/100 156/239/99 155/240/125 136/241/126
f 142/217/110 161/216/109 160/203/102 139/202/101
f 146/242/120 163/243/119 162/244/108 149/245/107
f 136/241/126 155/240/125 154/235/124 141/234/123
o Cube.015
v 1.660352 1.539268 -41.942997
v 1.684099 1.606315 -41.954071
v 1.069700 1.539268 -41.667572
v 1.201113 1.491614 -41.728851
v 1.223480 0.955870 -41.739277
v 1.223480 1.447078 -41.739277
v 1.528929 1.491614 -41.881714
v 1.506555 0.955870 -41.871284
v 1.506561 1.447078 -41.871281
v 1.684099 1.830536 -41.954071
v 1.661394 1.872461 -41.943489
v 1.567112 1.905697 -41.899521
v 1.162924 1.905697 -41.711044
v 1.068636 1.872461 -41.667076
v 1.045942 1.830536 -41.656494
v 1.045942 1.606315 -41.656494
v -1.516332 0.955887 -48.124462
v -1.516332 1.447095 -48.124462
v -1.538695 1.491631 -48.114037
v -1.670119 1.539284 -48.052750
v -1.693871 1.606332 -48.041679
v -1.693871 1.830552 -48.041679
v -1.671155 1.872478 -48.052265
v -1.576878 1.905714 -48.096226
v -1.172700 1.905714 -48.284706
v -1.078418 1.872478 -48.328667
v -1.055713 1.830552 -48.339252
v -1.055713 1.606332 -48.339256
v -1.079459 1.539284 -48.328182
v -1.210878 1.491631 -48.266899
v -1.233245 1.447095 -48.256470
v -1.233245 0.955887 -48.256466
vt 0.160536 0.711543
vt 0.160536 0.714466
vt 0.160340 0.714466
vt 0.160340 0.711543
vt 0.160303 0.714478
vt 0.160303 0.711555
vt 0.153774 0.714442
vt 0.150584 0.717236
vt 0.150521 0.717179
vt 0.153711 0.714385
vt 0.105860 0.672393
vt 0.102670 0.675187
vt 0.102401 0.674944
vt 0.105591 0.672150
vt 0.153443 0.714143
vt 0.150253 0.716936
vt 0.150190 0.716880
vt 0.153380 0.714086
vt 0.164084 0.716167
vt 0.164093 0.720082
vt 0.164058 0.720081
vt 0.164049 0.716165
vt 0.163862 0.720081
vt 0.163854 0.716165
vt 0.163802 0.720082
vt 0.163794 0.716167
vt 0.162843 0.716207
vt 0.162994 0.720125
vt 0.162868 0.720132
vt 0.162717 0.716214
vt 0.160749 0.723080
vt 0.160757 0.726996
vt 0.160717 0.726997
vt 0.160709 0.723082
vt 0.160289 0.726997
vt 0.160281 0.723081
vt 0.161103 0.711637
vt 0.161103 0.714561
vt 0.160675 0.714561
vt 0.160675 0.711637
vt 0.163385 0.719641
vt 0.163350 0.716835
vt 0.163391 0.716823
vt 0.163425 0.719629
vt 0.149199 0.728229
vt 0.149341 0.732147
vt 0.149215 0.732154
vt 0.149072 0.728236
vt 0.160594 0.711555
vt 0.160594 0.714479
vn 0.9030 -0.1858 -0.3875
vn 0.9032 -0.1844 -0.3876
vn 0.8862 0.2646 -0.3803
vn 0.8855 0.2673 -0.3800
vn 0.5753 0.7798 -0.2468
vn 0.5674 0.7866 -0.2435
vn 0.1443 0.9876 -0.0619
vn 0.1389 0.9885 -0.0596
vn -0.1389 0.9885 0.0596
vn -0.1443 0.9876 0.0619
vn -0.5674 0.7866 0.2435
vn -0.5753 0.7798 0.2468
vn -0.8855 0.2673 0.3800
vn -0.8862 0.2646 0.3803
vn -0.9030 -0.1858 0.3875
vn -0.9032 -0.1845 0.3876
vn -0.6277 -0.7304 0.2693
vn -0.6358 -0.7220 0.2728
vn -0.5899 -0.7668 0.2531
vn -0.5820 -0.7739 0.2497
vn -0.8900 -0.2490 0.3819
vn -0.8895 -0.2514 0.3817
vn -0.9190 0.0000 0.3943
vn 0.9190 -0.0000 -0.3943
vn 0.8895 -0.2514 -0.3817
vn 0.8900 -0.2490 -0.3819
vn 0.5820 -0.7739 -0.2497
vn 0.5898 -0.7668 -0.2531
vn 0.6359 -0.7219 -0.2729
vn 0.6277 -0.7304 -0.2694
usemtl Material_UniTex_dif.png
s 1
f 167/246/127 193/247/128 192/248/129 175/249/130
f 175/249/130 192/248/129 191/250/131 176/251/132
f 176/252/132 191/253/131 190/254/133 177/255/134
f 177/256/134 190/257/133 189/258/135 178/259/136
f 178/260/136 189/261/135 188/262/137 179/263/138
f 179/264/138 188/265/137 187/266/139 180/267/140
f 180/267/140 187/266/139 186/268/141 181/269/142
f 181/269/142 186/268/141 185/270/143 168/271/144
f 168/272/144 185/273/143 184/274/145 169/275/146
f 169/276/146 184/277/145 183/278/147 171/279/148
f 171/279/148 183/278/147 182/280/149 170/281/149
f 173/282/150 197/283/150 196/284/151 174/285/152
f 174/286/152 196/287/151 195/288/153 172/289/154
f 172/290/154 195/291/153 194/292/155 166/293/156
f 166/294/156 194/295/155 193/247/128 167/246/127
o Cube.014
v 4.926256 1.539268 -34.058414
v 4.950872 1.606315 -34.067375
v 4.313837 1.539268 -33.835510
v 4.450096 1.491614 -33.885109
v 4.473281 0.955870 -33.893547
v 4.473281 1.447078 -33.893547
v 4.789985 1.491614 -34.008816
v 4.766794 0.955870 -34.000378
v 4.766794 1.447078 -34.000374
v 4.950872 1.830536 -34.067375
v 4.927331 1.872461 -34.058807
v 4.829576 1.905697 -34.023232
v 4.410499 1.905697 -33.870697
v 4.312738 1.872461 -33.835117
v 4.289209 1.830536 -33.826550
v 4.289209 1.606315 -33.826550
v 1.660352 1.539268 -41.942997
v 1.684099 1.606315 -41.954071
v 1.069700 1.539268 -41.667572
v 1.201113 1.491614 -41.728851
v 1.223480 0.955870 -41.739277
v 1.223480 1.447078 -41.739277
v 1.528929 1.491614 -41.881714
v 1.506555 0.955870 -41.871284
v 1.506561 1.447078 -41.871281
v 1.684099 1.830536 -41.954071
v 1.661394 1.872461 -41.943489
v 1.567112 1.905697 -41.899521
v 1.162924 1.905697 -41.711044
v 1.068636 1.872461 -41.667076
v 1.045942 1.830536 -41.656494
v 1.045942 1.606315 -41.656494
vt 0.160303 0.708001
vt 0.160340 0.707988
vt 0.160340 0.711543
vt 0.160303 0.711555
vt 0.160702 0.718296
vt 0.160742 0.718296
vt 0.160749 0.723080
vt 0.160709 0.723082
vt 0.163788 0.711392
vt 0.163847 0.711392
vt 0.163854 0.716165
vt 0.163794 0.716167
vt 0.109434 0.668699
vt 0.109726 0.668920
vt 0.105860 0.672393
vt 0.105591 0.672150
vt 0.148968 0.723417
vt 0.149094 0.723420
vt 0.149199 0.728229
vt 0.149072 0.728236
vt 0.164043 0.711392
vt 0.164049 0.716165
vt 0.157217 0.710639
vt 0.157285 0.710691
vt 0.153443 0.714143
vt 0.153380 0.714086
vt 0.164078 0.711392
vt 0.164084 0.716167
vt 0.160675 0.708092
vt 0.161103 0.708092
vt 0.161103 0.711637
vt 0.160675 0.711637
vt 0.157578 0.710912
vt 0.157646 0.710964
vt 0.153774 0.714442
vt 0.153711 0.714385
vt 0.163462 0.723115
vt 0.163422 0.723126
vt 0.163385 0.719641
vt 0.163425 0.719629
vt 0.159787 0.722483
vt 0.159847 0.722473
vt 0.159861 0.725966
vt 0.159801 0.725978
vt 0.162602 0.711429
vt 0.162729 0.711431
vt 0.162843 0.716207
vt 0.162717 0.716214
vt 0.160536 0.707988
vt 0.160536 0.711543
vt 0.160274 0.718296
vt 0.160281 0.723081
vn 0.5801 0.7783 -0.2403
vn 0.8911 0.2639 -0.3691
vn -0.8949 -0.2484 0.3707
vn -0.5947 -0.7652 0.2464
vn -0.5947 -0.7652 0.2463
vn -0.6295 -0.7320 0.2607
vn -0.9078 -0.1860 0.3760
vn -0.1385 0.9887 0.0574
vn 0.1463 0.9874 -0.0606
vn 0.6411 -0.7201 -0.2655
vn 0.5836 -0.7752 -0.2417
vn -0.8902 0.2676 0.3687
vn -0.5690 0.7878 0.2357
vn 0.8941 -0.2518 -0.3704
vn 0.9239 -0.0000 -0.3827
vn 0.9081 -0.1841 -0.3761
vn -0.9239 0.0000 0.3827
usemtl Material_UniTex_dif.png
s 1
f 208/296/157 207/297/158 223/298/158 224/299/157
f 203/300/159 201/301/160 217/302/161 219/303/159
f 200/304/162 213/305/163 229/306/163 216/307/162
f 210/308/164 209/309/165 225/310/165 226/311/164
f 198/312/166 204/313/167 220/314/167 214/315/166
f 213/305/163 212/316/168 228/317/168 229/306/163
f 211/318/169 210/319/164 226/320/164 227/321/169
f 212/316/168 211/322/169 227/323/169 228/317/168
f 206/324/170 205/325/171 221/326/171 222/327/170
f 209/328/165 208/329/157 224/330/157 225/331/165
f 204/332/167 206/333/170 222/334/170 220/335/167
f 199/336/172 198/337/166 214/338/166 215/339/172
f 201/340/160 200/341/162 216/342/162 217/343/161
f 207/297/158 199/344/172 215/345/172 223/298/158
f 202/346/173 203/300/159 219/303/159 218/347/173
o Cube.013
v 8.073744 1.539268 -34.058414
v 8.049128 1.606315 -34.067375
v 8.686163 1.539268 -33.835510
v 8.549904 1.491614 -33.885109
v 8.526718 0.955870 -33.893547
v 8.526718 1.447078 -33.893547
v 8.210014 1.491614 -34.008816
v 8.233206 0.955870 -34.000378
v 8.233206 1.447078 -34.000374
v 8.049128 1.830536 -34.067375
v 8.072668 1.872461 -34.058807
v 8.170424 1.905697 -34.023232
v 8.589500 1.905697 -33.870697
v 8.687262 1.872461 -33.835117
v 8.710791 1.830536 -33.826550
v 8.710791 1.606315 -33.826550
v 11.149057 1.539268 -41.942997
v 11.125311 1.606315 -41.954071
v 11.739710 1.539268 -41.667572
v 11.608297 1.491614 -41.728851
v 11.585930 0.955870 -41.739277
v 11.585930 1.447078 -41.739277
v 11.280481 1.491614 -41.881714
v 11.302855 0.955870 -41.871284
v 11.302849 1.447078 -41.871281
v 11.125311 1.830536 -41.954071
v 11.148016 1.872461 -41.943489
v 11.242298 1.905697 -41.899521
v 11.646486 1.905697 -41.711044
v 11.740774 1.872461 -41.667076
v 11.763468 1.830536 -41.656494
v 11.763468 1.606315 -41.656494
vt 0.163483 0.726463
vt 0.163481 0.722901
vt 0.163516 0.722886
vt 0.163518 0.726449
vt 0.161684 0.716671
vt 0.161684 0.711923
vt 0.161724 0.711924
vt 0.161724 0.716671
vt 0.163482 0.716660
vt 0.163481 0.711923
vt 0.163541 0.711925
vt 0.163541 0.716660
vt 0.112067 0.669585
vt 0.112065 0.674328
vt 0.111677 0.674350
vt 0.111678 0.669577
vt 0.147175 0.722810
vt 0.143411 0.726321
vt 0.143324 0.726242
vt 0.147080 0.722738
vt 0.163737 0.711925
vt 0.163737 0.716660
vt 0.160009 0.711579
vt 0.160007 0.716316
vt 0.159917 0.716321
vt 0.159919 0.711577
vt 0.163772 0.711923
vt 0.163772 0.716660
vt 0.163035 0.714334
vt 0.163034 0.710780
vt 0.163462 0.710762
vt 0.163463 0.714315
vt 0.159530 0.711569
vt 0.159528 0.716342
vt 0.159438 0.716347
vt 0.159439 0.711567
vt 0.162995 0.714324
vt 0.162994 0.710769
vt 0.163713 0.726441
vt 0.163711 0.722878
vt 0.163771 0.722889
vt 0.163773 0.726451
vt 0.162211 0.716671
vt 0.162209 0.711924
vt 0.162335 0.711931
vt 0.162337 0.716668
vt 0.161256 0.716671
vt 0.161256 0.711923
vn -0.5823 0.7806 -0.2271
vn -0.5877 0.7759 -0.2292
vn -0.8988 0.2630 -0.3506
vn -0.8984 0.2648 -0.3504
vn 0.9023 -0.2492 0.3518
vn 0.9027 -0.2475 0.3520
vn 0.6025 -0.7627 0.2349
vn 0.5971 -0.7676 0.2328
vn 0.6376 -0.7291 0.2486
vn 0.6321 -0.7347 0.2464
vn 0.9154 -0.1864 0.3569
vn 0.9155 -0.1855 0.3569
vn 0.1416 0.9884 0.0552
vn 0.1379 0.9890 0.0538
vn -0.1494 0.9871 -0.0583
vn -0.1457 0.9877 -0.0568
vn -0.6437 -0.7229 -0.2511
vn -0.6493 -0.7171 -0.2532
vn -0.5859 -0.7775 -0.2285
vn -0.5912 -0.7728 -0.2306
vn 0.8975 0.2685 0.3499
vn 0.8980 0.2667 0.3501
vn 0.5766 0.7855 0.2248
vn 0.5712 0.7900 0.2227
vn -0.9018 -0.2510 -0.3517
vn -0.9015 -0.2526 -0.3516
vn -0.9317 -0.0000 -0.3633
vn -0.9156 -0.1845 -0.3571
vn -0.9158 -0.1836 -0.3572
vn 0.9317 0.0000 0.3633
usemtl Material_UniTex_dif.png
s 1
f 240/348/174 256/349/175 255/350/176 239/351/177
f 235/352/178 251/353/179 249/354/180 233/355/181
f 232/356/182 248/357/183 261/358/184 245/359/185
f 242/360/186 258/361/187 257/362/188 241/363/189
f 230/364/190 246/365/191 252/366/192 236/367/193
f 245/359/185 261/358/184 260/368/194 244/369/195
f 243/370/196 259/371/197 258/372/187 242/373/186
f 244/369/195 260/368/194 259/374/197 243/375/196
f 238/376/198 254/377/199 253/378/200 237/379/200
f 241/380/189 257/381/188 256/382/175 240/383/174
f 236/384/193 252/385/192 254/377/199 238/376/198
f 231/386/201 247/387/202 246/388/191 230/389/190
f 233/390/181 249/391/180 248/392/183 232/393/182
f 239/351/177 255/350/176 247/387/202 231/386/201
f 234/394/203 250/395/203 251/353/179 235/352/178
o Cube.012
v 11.149057 1.539268 -41.942997
v 11.125311 1.606315 -41.954071
v 11.739710 1.539268 -41.667572
v 11.608297 1.491614 -41.728851
v 11.585930 0.955870 -41.739277
v 11.585930 1.447078 -41.739277
v 11.280481 1.491614 -41.881714
v 11.302855 0.955870 -41.871284
v 11.302849 1.447078 -41.871281
v 11.125311 1.830536 -41.954071
v 11.148016 1.872461 -41.943489
v 11.242298 1.905697 -41.899521
v 11.646486 1.905697 -41.711044
v 11.740774 1.872461 -41.667076
v 11.763468 1.830536 -41.656494
v 11.763468 1.606315 -41.656494
v 14.516332 0.955887 -48.124462
v 14.516332 1.447095 -48.124462
v 14.538694 1.491631 -48.114037
v 14.670118 1.539284 -48.052750
v 14.693871 1.606332 -48.041679
v 14.693871 1.830552 -48.041679
v 14.671154 1.872478 -48.052265
v 14.576878 1.905714 -48.096226
v 14.172700 1.905714 -48.284706
v 14.078418 1.872478 -48.328667
v 14.055713 1.830552 -48.339252
v 14.055713 1.606332 -48.339256
v 14.079459 1.539284 -48.328182
v 14.210877 1.491631 -48.266899
v 14.233245 1.447095 -48.256470
v 14.233245 0.955887 -48.256466
vt 0.163034 0.710780
vt 0.163054 0.707986
vt 0.163481 0.707967
vt 0.163462 0.710762
vt 0.162994 0.710769
vt 0.163014 0.707974
vt 0.143411 0.726321
vt 0.140099 0.729070
vt 0.140012 0.728991
vt 0.143324 0.726242
vt 0.161256 0.711923
vt 0.161272 0.707967
vt 0.161700 0.707967
vt 0.161684 0.711923
vt 0.161740 0.707968
vt 0.161724 0.711924
vt 0.162209 0.711924
vt 0.162476 0.707967
vt 0.162602 0.707974
vt 0.162335 0.711931
vt 0.163481 0.711923
vt 0.163497 0.707967
vt 0.163557 0.707969
vt 0.163541 0.711925
vt 0.163752 0.707968
vt 0.163737 0.711925
vt 0.163788 0.707967
vt 0.163772 0.711923
vt 0.160007 0.716316
vt 0.160274 0.720272
vt 0.160184 0.720277
vt 0.159917 0.716321
vt 0.112065 0.674328
vt 0.112332 0.678285
vt 0.111944 0.678307
vt 0.111677 0.674350
vt 0.159528 0.716342
vt 0.159795 0.720299
vt 0.159705 0.720304
vt 0.159438 0.716347
vt 0.163481 0.722901
vt 0.163500 0.720107
vt 0.163535 0.720092
vt 0.163516 0.722886
vt 0.163730 0.720083
vt 0.163711 0.722878
vt 0.163790 0.720095
vt 0.163771 0.722889
vn -0.8800 -0.2501 -0.4039
vn -0.8799 -0.2506 -0.4038
vn -0.9089 -0.0000 -0.4171
vn -0.5801 -0.7698 -0.2662
vn -0.5786 -0.7712 -0.2655
vn -0.6239 -0.7271 -0.2864
vn -0.6255 -0.7255 -0.2871
vn 0.9089 0.0000 0.4171
vn 0.8800 -0.2501 0.4039
vn 0.8799 -0.2505 0.4038
vn 0.5801 -0.7698 0.2662
vn 0.5786 -0.7712 0.2655
vn 0.6239 -0.7271 0.2863
vn 0.6255 -0.7255 0.2871
vn 0.8931 -0.1854 0.4099
vn 0.8931 -0.1851 0.4099
vn 0.8760 0.2663 0.4020
vn 0.8762 0.2658 0.4021
vn 0.5642 0.7840 0.2589
vn 0.5657 0.7827 0.2596
vn 0.1394 0.9882 0.0640
vn 0.1405 0.9880 0.0645
vn -0.1405 0.9880 -0.0645
vn -0.1394 0.9882 -0.0640
vn -0.5657 0.7827 -0.2596
vn -0.5642 0.7840 -0.2589
vn -0.8762 0.2658 -0.4021
vn -0.8760 0.2663 -0.4020
vn -0.8932 -0.1851 -0.4099
vn -0.8931 -0.1853 -0.4099
usemtl Material_UniTex_dif.png
s 1
f 270/396/204 292/397/205 293/398/206 269/399/206
f 268/400/207 291/401/208 292/397/205 270/396/204
f 262/402/209 290/403/210 291/404/208 268/405/207
f 266/406/211 278/407/211 279/408/212 267/409/213
f 267/409/213 279/408/212 280/410/214 265/411/215
f 265/412/215 280/413/214 281/414/216 264/415/217
f 264/416/217 281/417/216 282/418/218 277/419/219
f 277/419/219 282/418/218 283/420/220 276/421/221
f 276/421/221 283/420/220 284/422/222 275/423/223
f 275/424/223 284/425/222 285/426/224 274/427/225
f 274/428/225 285/429/224 286/430/226 273/431/227
f 273/432/227 286/433/226 287/434/228 272/435/229
f 272/436/229 287/437/228 288/438/230 271/439/231
f 271/439/231 288/438/230 289/440/232 263/441/233
f 263/441/233 289/440/232 290/442/210 262/443/209
o Cube.011
v 18.836395 0.955876 -38.358334
v 18.553307 0.955876 -38.490341
v 19.013927 1.830542 -38.275547
v 18.991222 1.872467 -38.286133
v 18.398487 1.872468 -38.562538
v 18.375771 1.830542 -38.573124
v 18.896938 1.905703 -38.330097
v 19.013927 1.606321 -38.275543
v 18.375771 1.606321 -38.573124
v 18.492764 1.905703 -38.518574
v 18.836395 1.447084 -38.358330
v 18.858761 1.491620 -38.347900
v 18.530945 1.491620 -38.500763
v 18.553307 1.447084 -38.490341
v 18.990181 1.539274 -38.286621
v 18.399521 1.539274 -38.562050
v 21.766787 0.955887 -44.743523
v 21.766787 1.447095 -44.743523
v 21.789160 1.491631 -44.733093
v 21.920578 1.539285 -44.671806
v 21.944328 1.606333 -44.660736
v 21.944328 1.830552 -44.660732
v 21.921625 1.872479 -44.671318
v 21.827343 1.905714 -44.715286
v 21.423155 1.905714 -44.903767
v 21.328867 1.872479 -44.947735
v 21.306173 1.830552 -44.958321
v 21.306173 1.606332 -44.958317
v 21.329931 1.539285 -44.947243
v 21.461349 1.491631 -44.885956
v 21.483711 1.447095 -44.875534
v 21.483711 0.955887 -44.875530
vt 0.166149 0.706494
vt 0.166230 0.702040
vt 0.166438 0.702035
vt 0.166357 0.706489
vt 0.165985 0.706421
vt 0.166066 0.701966
vt 0.166109 0.701975
vt 0.166028 0.706430
vt 0.166085 0.706485
vt 0.166166 0.702031
vt 0.162199 0.706572
vt 0.163110 0.701760
vt 0.163242 0.701785
vt 0.162332 0.706598
vt 0.169143 0.706229
vt 0.169227 0.701775
vt 0.169264 0.701764
vt 0.169179 0.706219
vt 0.169387 0.706214
vt 0.169472 0.701760
vt 0.169536 0.701768
vt 0.169452 0.706223
vt 0.167831 0.706224
vt 0.167915 0.701770
vt 0.168370 0.701760
vt 0.168286 0.706214
vt 0.158071 0.706572
vt 0.158982 0.701760
vt 0.159114 0.701785
vt 0.158203 0.706598
vt 0.147046 0.729247
vt 0.147957 0.734060
vt 0.147862 0.734078
vt 0.146951 0.729266
vt 0.109497 0.677887
vt 0.109958 0.680325
vt 0.109752 0.680365
vt 0.109290 0.677927
vt 0.166475 0.702024
vt 0.166393 0.706479
vt 0.165530 0.706432
vt 0.165611 0.701977
vt 0.147549 0.729149
vt 0.148459 0.733962
vt 0.148364 0.733980
vt 0.147454 0.729168
vt 0.167787 0.706216
vt 0.167872 0.701761
vn 0.8932 -0.1851 0.4099
vn 0.8931 -0.1853 0.4099
vn 0.8760 0.2663 0.4020
vn 0.8762 0.2658 0.4021
vn 0.8799 -0.2506 0.4038
vn 0.8800 -0.2501 0.4038
vn 0.5801 -0.7698 0.2662
vn 0.5786 -0.7712 0.2655
vn 0.6255 -0.7255 0.2871
vn 0.6239 -0.7271 0.2863
vn -0.5642 0.7840 -0.2589
vn -0.5657 0.7827 -0.2596
vn -0.8762 0.2658 -0.4021
vn -0.8760 0.2663 -0.4020
vn -0.8931 -0.1854 -0.4099
vn -0.8931 -0.1851 -0.4099
vn -0.6255 -0.7255 -0.2871
vn -0.6239 -0.7271 -0.2863
vn -0.8800 -0.2500 -0.4039
vn -0.8799 -0.2505 -0.4038
vn -0.9089 -0.0000 -0.4171
vn -0.5786 -0.7711 -0.2656
vn -0.5801 -0.7698 -0.2662
vn -0.1394 0.9882 -0.0640
vn -0.1405 0.9880 -0.0645
vn 0.1405 0.9880 0.0645
vn 0.1394 0.9882 0.0640
vn 0.5641 0.7840 0.2589
vn 0.5657 0.7827 0.2596
vn 0.9089 0.0000 0.4171
usemtl Material_UniTex_dif.png
s 1
f 301/444/234 314/445/235 315/446/236 296/447/237
f 304/448/238 311/449/239 312/450/240 305/451/241
f 308/452/242 313/453/243 314/445/235 301/444/234
f 305/454/241 312/455/240 313/456/243 308/457/242
f 298/458/244 319/459/245 320/460/246 299/461/247
f 302/462/248 321/463/249 322/464/250 309/465/251
f 307/466/252 324/467/253 325/468/254 295/469/254
f 299/461/247 320/460/246 321/463/249 302/462/248
f 309/470/251 322/471/250 323/472/255 306/473/256
f 303/474/257 318/475/258 319/476/245 298/477/244
f 300/478/259 317/479/260 318/480/258 303/481/257
f 296/447/237 315/446/236 316/482/261 297/483/262
f 294/484/263 310/485/263 311/449/239 304/448/238
f 297/486/262 316/487/261 317/488/260 300/489/259
f 306/490/256 323/491/255 324/467/253 307/466/252
o Cube.010
v 16.044258 0.955875 -31.157391
v 15.750740 0.955875 -31.264221
v 18.836395 0.955876 -38.358334
v 18.553307 0.955876 -38.490341
v 16.107035 1.905702 -31.134539
v 15.687963 1.905702 -31.287071
v 16.228331 1.830541 -31.090393
v 16.204790 1.872466 -31.098959
v 15.590214 1.872466 -31.322651
v 15.566668 1.830541 -31.331217
v 16.228331 1.606320 -31.090389
v 15.566668 1.606320 -31.331217
v 16.044258 1.447083 -31.157387
v 16.067450 1.491619 -31.148947
v 15.727560 1.491619 -31.272657
v 15.750740 1.447083 -31.264221
v 16.203709 1.539273 -31.099352
v 15.591295 1.539273 -31.322254
v 19.013927 1.830542 -38.275547
v 18.991222 1.872467 -38.286133
v 18.398487 1.872468 -38.562538
v 18.375771 1.830542 -38.573124
v 18.896938 1.905703 -38.330097
v 19.013927 1.606321 -38.275543
v 18.375771 1.606321 -38.573124
v 18.492764 1.905703 -38.518574
v 18.836395 1.447084 -38.358330
v 18.858761 1.491620 -38.347900
v 18.530945 1.491620 -38.500763
v 18.553307 1.447084 -38.490341
v 18.990181 1.539274 -38.286621
v 18.399521 1.539274 -38.562050
vt 0.166334 0.711486
vt 0.166297 0.711495
vt 0.166357 0.706489
vt 0.166393 0.706479
vt 0.169116 0.711277
vt 0.169079 0.711286
vt 0.169143 0.706229
vt 0.169179 0.706219
vt 0.146775 0.723835
vt 0.146872 0.723825
vt 0.147549 0.729149
vt 0.147454 0.729168
vt 0.166090 0.711500
vt 0.166149 0.706494
vt 0.169324 0.711272
vt 0.169387 0.706214
vt 0.146266 0.723889
vt 0.146363 0.723879
vt 0.147046 0.729247
vt 0.146951 0.729266
vt 0.165969 0.711448
vt 0.165925 0.711441
vt 0.165985 0.706421
vt 0.166028 0.706430
vt 0.167767 0.711268
vt 0.167724 0.711261
vt 0.167787 0.706216
vt 0.167831 0.706224
vt 0.165470 0.711452
vt 0.165530 0.706432
vt 0.168222 0.711258
vt 0.168286 0.706214
vt 0.161655 0.711923
vt 0.161521 0.711908
vt 0.162199 0.706572
vt 0.162332 0.706598
vt 0.166025 0.711493
vt 0.166085 0.706485
vt 0.157519 0.711963
vt 0.157385 0.711949
vt 0.158071 0.706572
vt 0.158203 0.706598
vt 0.169388 0.711279
vt 0.169452 0.706223
vt 0.108944 0.675207
vt 0.109153 0.675185
vt 0.109497 0.677887
vt 0.109290 0.677927
vn 0.5772 0.7854 0.2238
vn 0.8986 0.2667 0.3484
vn 0.8981 0.2686 0.3482
vn 0.5713 0.7903 0.2215
vn -0.8990 0.2649 -0.3487
vn -0.5825 0.7808 -0.2259
vn -0.5883 0.7758 -0.2282
vn -0.8995 0.2630 -0.3489
vn 0.1419 0.9884 0.0550
vn 0.1378 0.9890 0.0534
vn 0.9162 -0.1854 0.3552
vn 0.9160 -0.1864 0.3551
vn -0.9163 -0.1846 -0.3554
vn -0.9165 -0.1836 -0.3555
vn -0.1456 0.9877 -0.0565
vn -0.1497 0.9870 -0.0581
vn 0.5973 -0.7678 0.2316
vn 0.9029 -0.2493 0.3501
vn 0.9034 -0.2475 0.3503
vn 0.6032 -0.7625 0.2339
vn -0.9025 -0.2508 -0.3500
vn -0.5920 -0.7726 -0.2296
vn -0.5862 -0.7776 -0.2273
vn -0.9021 -0.2525 -0.3499
vn 0.9324 -0.0000 0.3615
vn -0.9323 0.0000 -0.3616
vn 0.6384 -0.7288 0.2475
vn 0.6323 -0.7349 0.2452
vn -0.6439 -0.7232 -0.2498
vn -0.6500 -0.7169 -0.2521
usemtl Material_UniTex_dif.png
s 1
f 333/492/264 332/493/265 344/494/266 345/495/267
f 335/496/268 334/497/269 346/498/270 347/499/271
f 330/500/272 333/501/264 345/502/267 348/503/273
f 332/493/265 336/504/274 349/505/275 344/494/266
f 337/506/276 335/496/268 347/499/271 350/507/277
f 334/508/269 331/509/278 351/510/279 346/511/270
f 339/512/280 338/513/281 352/514/282 353/515/283
f 341/516/284 340/517/285 354/518/286 355/519/287
f 338/513/281 326/520/288 328/521/288 352/514/282
f 327/522/289 341/516/284 355/519/287 329/523/289
f 342/524/290 339/525/280 353/526/283 356/527/291
f 336/504/274 342/528/290 356/529/291 349/505/275
f 340/530/285 343/531/292 357/532/293 354/533/286
f 343/534/292 337/506/276 350/507/277 357/535/293
f 331/536/278 330/537/272 348/538/273 351/539/279
o Cube.009
v 0.986495 0.955872 -16.114395
v 1.294106 0.955872 -16.168633
v -0.700486 0.955874 -23.723886
v -0.398774 0.955874 -23.804729
v 1.487013 1.606317 -16.202650
v 1.461207 1.539270 -16.198099
v 0.920697 1.905699 -16.102793
v 1.359898 1.905699 -16.180235
v 0.793587 1.830538 -16.080378
v 0.818249 1.872464 -16.084728
v 1.462346 1.872464 -16.198299
v 1.487013 1.830538 -16.202650
v 0.793587 1.606317 -16.080376
v 0.986495 1.447080 -16.114391
v 0.962193 1.491616 -16.110107
v 1.318402 1.491616 -16.172918
v 1.294106 1.447080 -16.168633
v 0.819388 1.539270 -16.084927
v -0.334240 1.905701 -23.822020
v -0.765019 1.905700 -23.706593
v -0.889697 1.830539 -23.673187
v -0.865504 1.872465 -23.679668
v -0.233761 1.872465 -23.848946
v -0.209563 1.830539 -23.855427
v -0.889697 1.606318 -23.673183
v -0.209563 1.606319 -23.855427
v -0.700486 1.447082 -23.723885
v -0.724324 1.491617 -23.717497
v -0.374947 1.491617 -23.811113
v -0.398774 1.447082 -23.804729
v -0.864388 1.539272 -23.679966
v -0.234877 1.539272 -23.848646
vt 0.107560 0.674696
vt 0.107490 0.671930
vt 0.107700 0.671934
vt 0.107770 0.674682
vt 0.167519 0.712982
vt 0.167503 0.718271
vt 0.167466 0.718264
vt 0.167482 0.712977
vt 0.169585 0.713069
vt 0.169573 0.718412
vt 0.169536 0.718405
vt 0.169549 0.713064
vt 0.144044 0.722841
vt 0.143907 0.717418
vt 0.144004 0.717419
vt 0.144141 0.722834
vt 0.167258 0.718259
vt 0.167275 0.712972
vt 0.169793 0.713074
vt 0.169780 0.718417
vt 0.143534 0.722876
vt 0.143395 0.717408
vt 0.143492 0.717410
vt 0.143631 0.722870
vt 0.167154 0.712997
vt 0.167137 0.718298
vt 0.167094 0.718303
vt 0.167110 0.713000
vt 0.168426 0.713038
vt 0.168413 0.718365
vt 0.168370 0.718370
vt 0.168383 0.713041
vt 0.166639 0.718292
vt 0.166655 0.712989
vt 0.168881 0.713048
vt 0.168868 0.718375
vt 0.163514 0.712889
vt 0.163377 0.718305
vt 0.163242 0.718307
vt 0.163380 0.712880
vt 0.167194 0.718264
vt 0.167210 0.712975
vt 0.159387 0.712971
vt 0.159249 0.718427
vt 0.159114 0.718430
vt 0.159252 0.712962
vt 0.169858 0.713071
vt 0.169845 0.718412
vn 0.1546 0.9874 -0.0343
vn -0.1464 0.9887 0.0325
vn -0.6013 0.7879 0.1333
vn -0.9407 0.2677 0.2085
vn 0.9417 0.2639 -0.2088
vn 0.6130 0.7783 -0.1359
vn -0.9593 -0.1860 0.2127
vn 0.9596 -0.1841 -0.2127
vn -0.6285 -0.7652 0.1393
vn -0.9457 -0.2484 0.2097
vn 0.9449 -0.2517 -0.2095
vn 0.6168 -0.7752 -0.1367
vn -0.9763 -0.0000 0.2164
vn 0.9763 0.0000 -0.2164
vn -0.6652 -0.7319 0.1475
vn 0.6774 -0.7201 -0.1502
usemtl Material_UniTex_dif.png
s 1
f 365/540/294 376/541/294 377/542/295 364/543/295
f 367/544/296 379/545/296 378/546/297 366/547/297
f 369/548/298 381/549/298 380/550/299 368/551/299
f 364/552/295 377/553/295 379/554/296 367/555/296
f 366/547/297 378/546/297 382/556/300 370/557/300
f 362/558/301 383/559/301 381/549/298 369/548/298
f 368/560/299 380/561/299 376/562/294 365/563/294
f 372/564/302 385/565/302 384/566/303 371/567/303
f 374/568/304 387/569/304 386/570/305 373/571/305
f 371/567/303 384/566/303 360/572/306 358/573/306
f 359/574/307 361/575/307 387/569/304 374/568/304
f 375/576/308 388/577/308 385/578/302 372/579/302
f 370/557/300 382/556/300 388/580/308 375/581/308
f 373/582/305 386/583/305 389/584/309 363/585/309
f 363/586/309 389/587/309 383/559/301 362/558/301
o Cube.008
v 2.003842 0.955871 -8.386829
v 2.315013 0.955871 -8.414053
v 0.986495 0.955872 -16.114395
v 1.294106 0.955872 -16.168633
v 2.510152 1.606316 -8.431125
v 2.484048 1.539269 -8.428841
v 2.339589 1.491615 -8.416203
v 1.487013 1.606317 -16.202650
v 1.461207 1.539270 -16.198099
v 1.937289 1.905698 -8.381006
v 2.381566 1.905698 -8.419875
v 1.808703 1.830537 -8.369756
v 1.833657 1.872463 -8.371939
v 2.485198 1.872463 -8.428942
v 2.510152 1.830537 -8.431125
v 1.808703 1.606316 -8.369753
v 2.003842 1.447079 -8.386826
v 1.979266 1.491615 -8.384676
v 2.315013 1.447079 -8.414053
v 1.834807 1.539269 -8.372038
v 0.920697 1.905699 -16.102793
v 1.359898 1.905699 -16.180235
v 0.793587 1.830538 -16.080378
v 0.818249 1.872464 -16.084728
v 1.462346 1.872464 -16.198299
v 1.487013 1.830538 -16.202650
v 0.793587 1.606317 -16.080376
v 0.986495 1.447080 -16.114391
v 0.962193 1.491616 -16.110107
v 1.318402 1.491616 -16.172918
v 1.294106 1.447080 -16.168633
v 0.819388 1.539270 -16.084927
vt 0.169914 0.707648
vt 0.169858 0.713071
vt 0.169793 0.713074
vt 0.169850 0.707649
vt 0.107871 0.677445
vt 0.107560 0.674696
vt 0.107770 0.674682
vt 0.108079 0.677413
vt 0.167579 0.707611
vt 0.167519 0.712982
vt 0.167482 0.712977
vt 0.167542 0.707609
vt 0.169642 0.707644
vt 0.169585 0.713069
vt 0.169549 0.713064
vt 0.169606 0.707641
vt 0.144655 0.728232
vt 0.144044 0.722841
vt 0.144141 0.722834
vt 0.144750 0.728217
vt 0.167275 0.712972
vt 0.167335 0.707604
vt 0.144149 0.728311
vt 0.143534 0.722876
vt 0.143631 0.722870
vt 0.144245 0.728296
vt 0.167214 0.707615
vt 0.167154 0.712997
vt 0.167110 0.713000
vt 0.167171 0.707616
vt 0.168483 0.707628
vt 0.168426 0.713038
vt 0.168383 0.713041
vt 0.168440 0.707630
vt 0.166655 0.712989
vt 0.166715 0.707605
vt 0.168938 0.707639
vt 0.168881 0.713048
vt 0.164123 0.707507
vt 0.163514 0.712889
vt 0.163380 0.712880
vt 0.163990 0.707486
vt 0.167210 0.712975
vt 0.167270 0.707604
vt 0.159999 0.707547
vt 0.159387 0.712971
vt 0.159252 0.712962
vt 0.159866 0.707526
vn 0.6879 -0.7201 -0.0906
vn 0.9745 -0.1841 -0.1283
vn 0.1570 0.9874 -0.0207
vn -0.1487 0.9887 0.0196
vn -0.6106 0.7879 0.0804
vn -0.9553 0.2677 0.1258
vn 0.9563 0.2639 -0.1259
vn 0.6225 0.7783 -0.0820
vn -0.9741 -0.1860 0.1282
vn -0.9742 -0.1860 0.1282
vn -0.6383 -0.7652 0.0840
vn -0.9604 -0.2484 0.1264
vn 0.9595 -0.2517 -0.1263
vn 0.6263 -0.7752 -0.0825
vn -0.9914 -0.0000 0.1305
vn 0.9914 0.0000 -0.1305
vn -0.6756 -0.7319 0.0889
usemtl Material_UniTex_dif.png
s 1
f 395/588/310 398/589/310 397/590/311 394/591/311
f 400/592/312 411/593/312 410/594/313 399/595/313
f 402/596/314 413/597/314 412/598/315 401/599/315
f 404/600/316 415/601/316 414/602/317 403/603/317
f 399/604/313 410/605/313 413/606/314 402/607/314
f 401/599/315 412/598/315 416/608/318 405/609/319
f 394/591/311 397/590/311 415/601/316 404/600/316
f 403/610/317 414/611/317 411/612/312 400/613/312
f 407/614/320 418/615/320 417/616/321 406/617/321
f 408/618/322 420/619/322 419/620/323 396/621/323
f 406/617/321 417/616/321 392/622/324 390/623/324
f 391/624/325 393/625/325 420/619/322 408/618/322
f 409/626/326 421/627/326 418/628/320 407/629/320
f 405/609/319 416/608/318 421/630/326 409/631/326
f 396/632/323 419/633/323 398/634/310 395/635/310
o Cube.007
v 2.343824 0.955870 -0.600002
v 2.343824 1.447078 -0.599999
v 2.319149 1.491614 -0.599999
v 2.174142 1.539268 -0.599999
v 2.147933 1.606315 -0.599999
v 2.147933 1.830536 -0.600002
v 2.172987 1.872461 -0.600002
v 2.277011 1.905697 -0.600002
v 2.722989 1.905697 -0.600002
v 2.827012 1.872461 -0.600002
v 2.852067 1.830536 -0.600002
v 2.852067 1.606315 -0.600002
v 2.825857 1.539268 -0.600002
v 2.680852 1.491614 -0.600002
v 2.656176 1.447078 -0.600002
v 2.656176 0.955870 -0.600002
v 2.174144 1.539268 0.000002
v 2.147934 1.606315 0.000002
v 2.825858 1.539268 -0.000000
v 2.680853 1.491614 -0.000000
v 2.656177 0.955870 -0.000000
v 2.656177 1.447078 -0.000000
v 2.319150 1.491614 0.000002
v 2.343825 0.955870 -0.000000
v 2.343825 1.447078 0.000002
v 2.147934 1.830536 -0.000000
v 2.172989 1.872462 -0.000000
v 2.277013 1.905697 -0.000000
v 2.722990 1.905697 -0.000000
v 2.827013 1.872462 -0.000000
v 2.852068 1.830536 -0.000000
v 2.852068 1.606315 -0.000000
vt 0.168583 0.702179
vt 0.168540 0.702178
vt 0.168549 0.701760
vt 0.168593 0.701760
vt 0.169743 0.702178
vt 0.169706 0.702178
vt 0.169715 0.701760
vt 0.169752 0.701760
vt 0.167646 0.702200
vt 0.167438 0.702195
vt 0.167448 0.701777
vt 0.167656 0.701782
vt 0.167683 0.702201
vt 0.167692 0.701783
vt 0.170015 0.702185
vt 0.169951 0.702183
vt 0.169960 0.701765
vt 0.170024 0.701766
vt 0.108421 0.680157
vt 0.108625 0.680106
vt 0.108676 0.680312
vt 0.108472 0.680363
vt 0.145236 0.733672
vt 0.145330 0.733649
vt 0.145431 0.734055
vt 0.145337 0.734078
vt 0.167318 0.702192
vt 0.167274 0.702191
vt 0.167284 0.701773
vt 0.167327 0.701774
vt 0.167374 0.702194
vt 0.167384 0.701776
vt 0.166819 0.702181
vt 0.166829 0.701763
vt 0.161083 0.702198
vt 0.160952 0.702165
vt 0.161053 0.701760
vt 0.161184 0.701792
vt 0.169038 0.702189
vt 0.169048 0.701771
vt 0.165200 0.702198
vt 0.165069 0.702165
vt 0.165170 0.701760
vt 0.165301 0.701792
vt 0.145733 0.733549
vt 0.145826 0.733526
vt 0.145927 0.733932
vt 0.145833 0.733955
vn 0.9682 -0.2503 -0.0000
vn 0.6374 -0.7705 -0.0000
vn 0.9639 0.2661 -0.0000
vn 0.6215 0.7834 -0.0000
vn -0.9640 0.2661 0.0000
vn -0.9827 -0.1852 0.0000
vn -0.6215 0.7834 0.0000
vn 0.6873 -0.7263 -0.0000
vn 0.9827 -0.1852 -0.0000
vn 0.1540 0.9881 -0.0000
vn -0.1540 0.9881 -0.0000
vn -0.6374 -0.7705 0.0000
vn -0.9682 -0.2503 0.0000
vn -0.6873 -0.7263 0.0000
vn -1.0000 0.0000 0.0000
vn 1.0000 0.0000 -0.0000
usemtl Material_UniTex_dif.png
s 1
f 436/636/327 435/637/328 441/638/328 443/639/327
f 432/640/329 431/641/330 451/642/330 452/643/329
f 427/644/331 426/645/332 439/646/332 447/647/331
f 428/648/333 427/644/331 447/647/331 448/649/333
f 434/650/334 433/651/335 453/652/335 440/653/334
f 430/654/336 429/655/337 449/656/337 450/657/336
f 431/658/330 430/659/336 450/660/336 451/661/330
f 424/662/338 423/663/339 446/664/339 444/665/338
f 426/645/332 425/666/340 438/667/340 439/646/332
f 423/663/339 422/668/341 445/669/341 446/664/339
f 435/670/328 434/671/334 440/672/334 441/673/328
f 433/651/335 432/640/329 452/643/329 453/652/335
f 437/674/342 436/636/327 443/639/327 442/675/342
f 425/676/340 424/677/338 444/678/338 438/679/340
f 429/680/337 428/681/333 448/682/333 449/683/337
o Cube.006
v 2.343824 0.955870 -0.600002
v 2.343824 1.447078 -0.599999
v 2.319149 1.491614 -0.599999
v 2.174142 1.539268 -0.599999
v 2.147933 1.606315 -0.599999
v 2.147933 1.830536 -0.600002
v 2.172987 1.872461 -0.600002
v 2.277011 1.905697 -0.600002
v 2.722989 1.905697 -0.600002
v 2.827012 1.872461 -0.600002
v 2.852067 1.830536 -0.600002
v 2.852067 1.606315 -0.600002
v 2.825857 1.539268 -0.600002
v 2.680852 1.491614 -0.600002
v 2.656176 1.447078 -0.600002
v 2.656176 0.955870 -0.600002
v 2.003842 0.955871 -8.386829
v 2.315013 0.955871 -8.414053
v 2.510152 1.606316 -8.431125
v 2.484048 1.539269 -8.428841
v 2.339589 1.491615 -8.416203
v 1.937289 1.905698 -8.381006
v 2.381566 1.905698 -8.419875
v 1.808703 1.830537 -8.369756
v 1.833657 1.872463 -8.371939
v 2.485198 1.872463 -8.428942
v 2.510152 1.830537 -8.431125
v 1.808703 1.606316 -8.369753
v 2.003842 1.447079 -8.386826
v 1.979266 1.491615 -8.384676
v 2.315013 1.447079 -8.414053
v 1.834807 1.539269 -8.372038
vt 0.170015 0.702185
vt 0.169914 0.707648
vt 0.169850 0.707649
vt 0.169951 0.702183
vt 0.161083 0.702198
vt 0.159999 0.707547
vt 0.159866 0.707526
vt 0.160952 0.702165
vt 0.108421 0.680157
vt 0.107871 0.677445
vt 0.108079 0.677413
vt 0.108625 0.680106
vt 0.167683 0.702201
vt 0.167579 0.707611
vt 0.167542 0.707609
vt 0.167646 0.702200
vt 0.169743 0.702178
vt 0.169642 0.707644
vt 0.169606 0.707641
vt 0.169706 0.702178
vt 0.145733 0.733549
vt 0.144655 0.728232
vt 0.144750 0.728217
vt 0.145826 0.733526
vt 0.167335 0.707604
vt 0.167438 0.702195
vt 0.145236 0.733672
vt 0.144149 0.728311
vt 0.144245 0.728296
vt 0.145330 0.733649
vt 0.167318 0.702192
vt 0.167214 0.707615
vt 0.167171 0.707616
vt 0.167274 0.702191
vt 0.168583 0.702179
vt 0.168483 0.707628
vt 0.168440 0.707630
vt 0.168540 0.702178
vt 0.166715 0.707605
vt 0.166819 0.702181
vt 0.169038 0.702189
vt 0.168938 0.707639
vt 0.165200 0.702198
vt 0.164123 0.707507
vt 0.163990 0.707486
vt 0.165069 0.702165
vt 0.167270 0.707604
vt 0.167374 0.702194
vn 0.6932 -0.7201 -0.0303
vn 0.9820 -0.1841 -0.0429
vn 0.6311 -0.7752 -0.0276
vn 0.1582 0.9874 -0.0069
vn -0.1498 0.9887 0.0065
vn -0.6152 0.7879 0.0269
vn -0.9626 0.2677 0.0420
vn 0.9636 0.2639 -0.0421
vn 0.6273 0.7783 -0.0274
vn -0.9816 -0.1860 0.0429
vn -0.6432 -0.7652 0.0281
vn -0.9677 -0.2484 0.0423
vn 0.9669 -0.2517 -0.0422
vn -0.9990 0.0000 0.0436
vn 0.9990 0.0000 -0.0436
vn -0.6807 -0.7319 0.0297
usemtl Material_UniTex_dif.png
s 1
f 466/684/343 473/685/343 472/686/344 465/687/344
f 467/688/345 474/689/345 473/690/343 466/691/343
f 462/692/346 476/693/346 475/694/347 461/695/347
f 460/696/348 478/697/348 477/698/349 459/699/349
f 464/700/350 480/701/350 479/702/351 463/703/351
f 461/704/347 475/705/347 478/706/348 460/707/348
f 459/699/349 477/698/349 481/708/352 458/709/352
f 465/687/344 472/686/344 480/701/350 464/700/350
f 463/710/351 479/711/351 476/712/346 462/713/346
f 456/714/353 483/715/353 482/716/354 455/717/354
f 468/718/355 484/719/355 474/720/345 467/721/345
f 455/717/354 482/716/354 470/722/356 454/723/356
f 469/724/357 471/725/357 484/719/355 468/718/355
f 457/726/358 485/727/358 483/728/353 456/729/353
f 458/709/352 481/708/352 485/730/358 457/731/358
o Cube.005
v 13.700485 0.955874 -23.723886
v 13.398773 0.955874 -23.804729
v 16.044258 0.955875 -31.157391
v 15.750740 0.955875 -31.264221
v 13.334240 1.905701 -23.822020
v 13.765018 1.905700 -23.706593
v 16.107035 1.905702 -31.134539
v 15.687963 1.905702 -31.287071
v 13.889696 1.830539 -23.673187
v 13.865503 1.872465 -23.679668
v 13.233761 1.872465 -23.848946
v 13.209562 1.830539 -23.855427
v 13.889696 1.606318 -23.673183
v 13.209562 1.606319 -23.855427
v 13.700485 1.447082 -23.723885
v 13.724323 1.491617 -23.717497
v 13.374947 1.491617 -23.811113
v 13.398773 1.447082 -23.804729
v 13.864388 1.539272 -23.679966
v 13.234877 1.539272 -23.848646
v 16.228331 1.830541 -31.090393
v 16.204790 1.872466 -31.098959
v 15.590214 1.872466 -31.322651
v 15.566668 1.830541 -31.331217
v 16.228331 1.606320 -31.090389
v 15.566668 1.606320 -31.331217
v 16.044258 1.447083 -31.157387
v 16.067450 1.491619 -31.148947
v 15.727560 1.491619 -31.272657
v 15.750740 1.447083 -31.264221
v 16.203709 1.539273 -31.099352
v 15.591295 1.539273 -31.322254
vt 0.108772 0.672446
vt 0.108983 0.672442
vt 0.109153 0.675185
vt 0.108944 0.675207
vt 0.166307 0.716654
vt 0.166270 0.716661
vt 0.166297 0.711495
vt 0.166334 0.711486
vt 0.169084 0.716498
vt 0.169048 0.716504
vt 0.169079 0.711286
vt 0.169116 0.711277
vt 0.146439 0.718420
vt 0.146536 0.718418
vt 0.146872 0.723825
vt 0.146775 0.723835
vt 0.166062 0.716666
vt 0.166090 0.711500
vt 0.169292 0.716493
vt 0.169324 0.711272
vt 0.145927 0.718430
vt 0.146024 0.718428
vt 0.146363 0.723879
vt 0.146266 0.723889
vt 0.165941 0.716627
vt 0.165898 0.716622
vt 0.165925 0.711441
vt 0.165969 0.711448
vt 0.167736 0.716473
vt 0.167692 0.716468
vt 0.167724 0.711261
vt 0.167767 0.711268
vt 0.165443 0.716633
vt 0.165470 0.711452
vt 0.168191 0.716463
vt 0.168222 0.711258
vt 0.161319 0.717329
vt 0.161184 0.717326
vt 0.161521 0.711908
vt 0.161655 0.711923
vt 0.165998 0.716661
vt 0.166025 0.711493
vt 0.157180 0.717410
vt 0.157045 0.717408
vt 0.157385 0.711949
vt 0.157519 0.711963
vt 0.169356 0.716498
vt 0.169388 0.711279
vn -0.1510 0.9874 -0.0476
vn 0.1430 0.9887 0.0451
vn 0.5873 0.7879 0.1852
vn 0.9189 0.2677 0.2897
vn -0.9199 0.2640 -0.2900
vn -0.5988 0.7783 -0.1888
vn 0.9371 -0.1860 0.2955
vn -0.9374 -0.1841 -0.2956
vn 0.6139 -0.7653 0.1936
vn 0.9238 -0.2484 0.2913
vn -0.9230 -0.2517 -0.2910
vn -0.6025 -0.7752 -0.1900
vn 0.9537 -0.0000 0.3007
vn -0.9537 0.0000 -0.3007
vn 0.6499 -0.7319 0.2049
vn 0.6498 -0.7319 0.2049
vn -0.6617 -0.7201 -0.2086
usemtl Material_UniTex_dif.png
s 1
f 490/732/359 491/733/360 492/734/360 493/735/359
f 495/736/361 494/737/362 506/738/362 507/739/361
f 497/740/363 496/741/364 508/742/364 509/743/363
f 491/744/360 495/745/361 507/746/361 492/747/360
f 494/737/362 498/748/365 510/749/365 506/738/362
f 499/750/366 497/740/363 509/743/363 511/751/366
f 496/752/364 490/753/359 493/754/359 508/755/364
f 501/756/367 500/757/368 512/758/368 513/759/367
f 503/760/369 502/761/370 514/762/370 515/763/369
f 500/757/368 486/764/371 488/765/371 512/758/368
f 487/766/372 503/760/369 515/763/369 489/767/372
f 504/768/373 501/769/367 513/770/367 516/771/374
f 498/748/365 504/772/373 516/773/374 510/749/365
f 502/774/370 505/775/375 517/776/375 514/777/370
f 505/778/375 499/750/366 511/751/366 517/779/375
o Cube.004
v 12.013506 0.955872 -16.114395
v 11.705894 0.955872 -16.168633
v 13.700485 0.955874 -23.723886
v 13.398773 0.955874 -23.804729
v 11.512987 1.606317 -16.202650
v 11.538794 1.539270 -16.198099
v 12.079304 1.905699 -16.102793
v 11.640102 1.905699 -16.180235
v 12.206413 1.830538 -16.080378
v 12.181751 1.872464 -16.084728
v 11.537654 1.872464 -16.198299
v 11.512987 1.830538 -16.202650
v 12.206413 1.606317 -16.080376
v 12.013506 1.447080 -16.114391
v 12.037807 1.491616 -16.110107
v 11.681599 1.491616 -16.172918
v 11.705894 1.447080 -16.168633
v 12.180613 1.539270 -16.084927
v 13.334240 1.905701 -23.822020
v 13.765018 1.905700 -23.706593
v 13.889696 1.830539 -23.673187
v 13.865503 1.872465 -23.679668
v 13.233761 1.872465 -23.848946
v 13.209562 1.830539 -23.855427
v 13.889696 1.606318 -23.673183
v 13.209562 1.606319 -23.855427
v 13.700485 1.447082 -23.723885
v 13.724323 1.491617 -23.717497
v 13.374947 1.491617 -23.811113
v 13.398773 1.447082 -23.804729
v 13.864388 1.539272 -23.679966
v 13.234877 1.539272 -23.848646
vt 0.108842 0.669680
vt 0.109052 0.669695
vt 0.108983 0.672442
vt 0.108772 0.672446
vt 0.166323 0.721944
vt 0.166286 0.721948
vt 0.166270 0.716661
vt 0.166307 0.716654
vt 0.169097 0.721841
vt 0.169060 0.721846
vt 0.169048 0.716504
vt 0.169084 0.716498
vt 0.146576 0.712997
vt 0.146673 0.713003
vt 0.146536 0.718418
vt 0.146439 0.718420
vt 0.166079 0.721953
vt 0.166062 0.716666
vt 0.169305 0.721836
vt 0.169292 0.716493
vt 0.146066 0.712961
vt 0.146162 0.712968
vt 0.146024 0.718428
vt 0.145927 0.718430
vt 0.165958 0.721928
vt 0.165914 0.721925
vt 0.165898 0.716622
vt 0.165941 0.716627
vt 0.167748 0.721801
vt 0.167705 0.721798
vt 0.167692 0.716468
vt 0.167736 0.716473
vt 0.165459 0.721936
vt 0.165443 0.716633
vt 0.168204 0.721791
vt 0.168191 0.716463
vt 0.161456 0.722744
vt 0.161321 0.722753
vt 0.161184 0.717326
vt 0.161319 0.717329
vt 0.166014 0.721951
vt 0.165998 0.716661
vt 0.157317 0.722866
vt 0.157182 0.722876
vt 0.157045 0.717408
vt 0.157180 0.717410
vt 0.169369 0.721839
vt 0.169356 0.716498
vn -0.1546 0.9874 -0.0343
vn 0.1464 0.9887 0.0325
vn 0.6013 0.7878 0.1333
vn 0.9407 0.2677 0.2085
vn 0.6013 0.7879 0.1333
vn -0.9417 0.2639 -0.2088
vn -0.6130 0.7783 -0.1359
vn 0.9593 -0.1860 0.2127
vn -0.9596 -0.1841 -0.2127
vn 0.6285 -0.7653 0.1393
vn 0.9457 -0.2484 0.2097
vn -0.9449 -0.2517 -0.2095
vn -0.6168 -0.7752 -0.1367
vn 0.9763 -0.0000 0.2164
vn -0.9763 0.0000 -0.2164
vn 0.6652 -0.7319 0.1475
vn -0.6774 -0.7201 -0.1502
usemtl Material_UniTex_dif.png
s 1
f 525/780/376 524/781/377 537/782/377 536/783/376
f 527/784/378 526/785/379 538/786/379 539/787/380
f 529/788/381 528/789/382 540/790/382 541/791/381
f 524/792/377 527/793/378 539/794/380 537/795/377
f 526/785/379 530/796/383 542/797/383 538/786/379
f 522/798/384 529/788/381 541/791/381 543/799/384
f 528/800/382 525/801/376 536/802/376 540/803/382
f 532/804/385 531/805/386 544/806/386 545/807/385
f 534/808/387 533/809/388 546/810/388 547/811/387
f 531/805/386 518/812/389 520/813/389 544/806/386
f 519/814/390 534/808/387 547/811/387 521/815/390
f 535/816/391 532/817/385 545/818/385 548/819/391
f 530/796/383 535/820/391 548/821/391 542/797/383
f 533/822/388 523/823/392 549/824/392 546/825/388
f 523/826/392 522/798/384 543/799/384 549/827/392
o Cube.003
v 10.996158 0.955871 -8.386829
v 10.684987 0.955871 -8.414053
v 12.013506 0.955872 -16.114395
v 11.705894 0.955872 -16.168633
v 10.489848 1.606316 -8.431125
v 10.515952 1.539269 -8.428841
v 10.660411 1.491615 -8.416203
v 11.512987 1.606317 -16.202650
v 11.538794 1.539270 -16.198099
v 11.062711 1.905698 -8.381006
v 10.618434 1.905698 -8.419875
v 11.191297 1.830537 -8.369756
v 11.166343 1.872463 -8.371939
v 10.514802 1.872463 -8.428942
v 10.489848 1.830537 -8.431125
v 11.191297 1.606316 -8.369753
v 10.996158 1.447079 -8.386826
v 11.020734 1.491615 -8.384676
v 10.684987 1.447079 -8.414053
v 11.165193 1.539269 -8.372038
v 12.079304 1.905699 -16.102793
v 11.640102 1.905699 -16.180235
v 12.206413 1.830538 -16.080378
v 12.181751 1.872464 -16.084728
v 11.537654 1.872464 -16.198299
v 11.512987 1.830538 -16.202650
v 12.206413 1.606317 -16.080376
v 12.013506 1.447080 -16.114391
v 12.037807 1.491616 -16.110107
v 11.681599 1.491616 -16.172918
v 11.705894 1.447080 -16.168633
v 12.180613 1.539270 -16.084927
vt 0.169426 0.727262
vt 0.169362 0.727261
vt 0.169305 0.721836
vt 0.169369 0.721839
vt 0.109154 0.666931
vt 0.109361 0.666964
vt 0.109052 0.669695
vt 0.108842 0.669680
vt 0.166383 0.727314
vt 0.166347 0.727317
vt 0.166286 0.721948
vt 0.166323 0.721944
vt 0.169154 0.727266
vt 0.169117 0.727269
vt 0.169060 0.721846
vt 0.169097 0.721841
vt 0.147186 0.707606
vt 0.147282 0.707621
vt 0.146673 0.713003
vt 0.146576 0.712997
vt 0.166139 0.727322
vt 0.166079 0.721953
vt 0.146681 0.707526
vt 0.146776 0.707541
vt 0.146162 0.712968
vt 0.146066 0.712961
vt 0.166018 0.727311
vt 0.165975 0.727310
vt 0.165914 0.721925
vt 0.165958 0.721928
vt 0.167805 0.727210
vt 0.167762 0.727209
vt 0.167705 0.721798
vt 0.167748 0.721801
vt 0.165520 0.727320
vt 0.165459 0.721936
vt 0.168260 0.727200
vt 0.168204 0.721791
vt 0.162065 0.728127
vt 0.161932 0.728147
vt 0.161321 0.722753
vt 0.161456 0.722744
vt 0.166075 0.727321
vt 0.166014 0.721951
vt 0.157930 0.728290
vt 0.157797 0.728311
vt 0.157182 0.722876
vt 0.157317 0.722866
vn -0.6879 -0.7201 -0.0906
vn -0.9745 -0.1841 -0.1283
vn -0.1570 0.9874 -0.0207
vn 0.1487 0.9887 0.0196
vn 0.6106 0.7879 0.0804
vn 0.9553 0.2677 0.1258
vn -0.9563 0.2639 -0.1259
vn -0.6225 0.7783 -0.0820
vn 0.9742 -0.1860 0.1282
vn 0.6383 -0.7652 0.0840
vn 0.9604 -0.2484 0.1264
vn -0.9595 -0.2517 -0.1263
vn -0.6263 -0.7752 -0.0825
vn 0.9914 -0.0000 0.1305
vn -0.9914 0.0000 -0.1305
vn 0.6756 -0.7319 0.0889
usemtl Material_UniTex_dif.png
s 1
f 555/828/393 554/829/394 557/830/394 558/831/393
f 560/832/395 559/833/396 570/834/396 571/835/395
f 562/836/397 561/837/398 572/838/398 573/839/397
f 564/840/399 563/841/400 574/842/400 575/843/399
f 559/844/396 562/845/397 573/846/397 570/847/396
f 561/837/398 565/848/401 576/849/401 572/838/398
f 554/829/394 564/840/399 575/843/399 557/830/394
f 563/850/400 560/851/395 571/852/395 574/853/400
f 567/854/402 566/855/403 577/856/403 578/857/402
f 568/858/404 556/859/405 579/860/405 580/861/404
f 566/855/403 550/862/406 552/863/406 577/856/403
f 551/864/407 568/858/404 580/861/404 553/865/407
f 569/866/408 567/867/402 578/868/402 581/869/408
f 565/848/401 569/870/408 581/871/408 576/849/401
f 556/872/405 555/873/393 558/874/393 579/875/405
o Cube.002
v 10.656177 0.955870 -0.600002
v 10.656177 1.447078 -0.599999
v 10.680851 1.491614 -0.599999
v 10.825858 1.539268 -0.599999
v 10.852068 1.606315 -0.599999
v 10.852068 1.830536 -0.600002
v 10.827013 1.872461 -0.600002
v 10.722989 1.905697 -0.600002
v 10.277012 1.905697 -0.600002
v 10.172988 1.872461 -0.600002
v 10.147934 1.830536 -0.600002
v 10.147934 1.606315 -0.600002
v 10.174143 1.539268 -0.600002
v 10.319149 1.491614 -0.600002
v 10.343824 1.447078 -0.600002
v 10.343824 0.955870 -0.600002
v 10.996158 0.955871 -8.386829
v 10.684987 0.955871 -8.414053
v 10.489848 1.606316 -8.431125
v 10.515952 1.539269 -8.428841
v 10.660411 1.491615 -8.416203
v 11.062711 1.905698 -8.381006
v 10.618434 1.905698 -8.419875
v 11.191297 1.830537 -8.369756
v 11.166343 1.872463 -8.371939
v 10.514802 1.872463 -8.428942
v 10.489848 1.830537 -8.431125
v 11.191297 1.606316 -8.369753
v 10.996158 1.447079 -8.386826
v 11.020734 1.491615 -8.384676
v 10.684987 1.447079 -8.414053
v 11.165193 1.539269 -8.372038
vt 0.169527 0.732726
vt 0.169462 0.732727
vt 0.169362 0.727261
vt 0.169426 0.727262
vt 0.159014 0.733639
vt 0.158883 0.733672
vt 0.157797 0.728311
vt 0.157930 0.728290
vt 0.109703 0.664219
vt 0.109907 0.664270
vt 0.109361 0.666964
vt 0.109154 0.666931
vt 0.166487 0.732725
vt 0.166450 0.732726
vt 0.166347 0.727317
vt 0.166383 0.727314
vt 0.169255 0.732732
vt 0.169218 0.732732
vt 0.169117 0.727269
vt 0.169154 0.727266
vt 0.148264 0.702289
vt 0.148358 0.702312
vt 0.147282 0.707621
vt 0.147186 0.707606
vt 0.166242 0.732730
vt 0.166139 0.727322
vt 0.147768 0.702165
vt 0.147862 0.702189
vt 0.146776 0.707541
vt 0.146681 0.707526
vt 0.166122 0.732733
vt 0.166079 0.732734
vt 0.165975 0.727310
vt 0.166018 0.727311
vt 0.167906 0.732660
vt 0.167862 0.732661
vt 0.167762 0.727209
vt 0.167805 0.727210
vt 0.165623 0.732745
vt 0.165520 0.727320
vt 0.168361 0.732650
vt 0.168260 0.727200
vt 0.163141 0.733436
vt 0.163010 0.733468
vt 0.161932 0.728147
vt 0.162065 0.728127
vt 0.166178 0.732732
vt 0.166075 0.727321
vn -0.6932 -0.7201 -0.0303
vn -0.9820 -0.1841 -0.0429
vn -0.6311 -0.7752 -0.0276
vn -0.1582 0.9874 -0.0069
vn 0.1498 0.9887 0.0065
vn 0.6152 0.7879 0.0269
vn 0.9626 0.2677 0.0420
vn -0.9636 0.2639 -0.0421
vn -0.6273 0.7783 -0.0274
vn 0.9816 -0.1860 0.0429
vn 0.6432 -0.7652 0.0281
vn 0.9677 -0.2484 0.0423
vn -0.9669 -0.2517 -0.0422
vn 0.9990 -0.0000 0.0436
vn -0.9990 0.0000 -0.0436
vn 0.6807 -0.7319 0.0297
usemtl Material_UniTex_dif.png
s 1
f 594/876/409 593/877/410 600/878/410 601/879/409
f 595/880/411 594/881/409 601/882/409 602/883/411
f 590/884/412 589/885/413 603/886/413 604/887/412
f 588/888/414 587/889/415 605/890/415 606/891/414
f 592/892/416 591/893/417 607/894/417 608/895/416
f 589/896/413 588/897/414 606/898/414 603/899/413
f 587/889/415 586/900/418 609/901/418 605/890/415
f 593/877/410 592/892/416 608/895/416 600/878/410
f 591/902/417 590/903/412 604/904/412 607/905/417
f 584/906/419 583/907/420 610/908/420 611/909/419
f 596/910/421 595/911/411 602/912/411 612/913/421
f 583/907/420 582/914/422 598/915/422 610/908/420
f 597/916/423 596/910/421 612/913/421 599/917/423
f 585/918/424 584/919/419 611/920/419 613/921/424
f 586/900/418 585/922/424 613/923/424 609/901/418
o Cube.001
v 10.656177 0.955870 -0.600002
v 10.656177 1.447078 -0.599999
v 10.680851 1.491614 -0.599999
v 10.825858 1.539268 -0.599999
v 10.852068 1.606315 -0.599999
v 10.852068 1.830536 -0.600002
v 10.827013 1.872461 -0.600002
v 10.722989 1.905697 -0.600002
v 10.277012 1.905697 -0.600002
v 10.172988 1.872461 -0.600002
v 10.147934 1.830536 -0.600002
v 10.147934 1.606315 -0.600002
v 10.174143 1.539268 -0.600002
v 10.319149 1.491614 -0.600002
v 10.343824 1.447078 -0.600002
v 10.343824 0.955870 -0.600002
v 10.825856 1.539268 0.000002
v 10.852066 1.606315 0.000002
v 10.174143 1.539268 -0.000000
v 10.319147 1.491614 -0.000000
v 10.343823 0.955870 -0.000000
v 10.343823 1.447078 -0.000000
v 10.680849 1.491614 0.000002
v 10.656175 0.955870 -0.000000
v 10.656175 1.447078 0.000002
v 10.852066 1.830536 -0.000000
v 10.827012 1.872462 -0.000000
v 10.722988 1.905697 -0.000000
v 10.277010 1.905697 -0.000000
v 10.172987 1.872462 -0.000000
v 10.147932 1.830536 -0.000000
v 10.147932 1.606315 -0.000000
vt 0.167906 0.732660
vt 0.168361 0.732650
vt 0.168370 0.733068
vt 0.167915 0.733078
vt 0.163010 0.733468
vt 0.163141 0.733436
vt 0.163242 0.733841
vt 0.163111 0.733874
vt 0.148358 0.702312
vt 0.148264 0.702289
vt 0.148365 0.701883
vt 0.148459 0.701906
vt 0.167862 0.732661
vt 0.167872 0.733079
vt 0.169218 0.732732
vt 0.169255 0.732732
vt 0.169264 0.733150
vt 0.169227 0.733151
vt 0.166242 0.732730
vt 0.166450 0.732726
vt 0.166460 0.733144
vt 0.166252 0.733148
vt 0.166487 0.732725
vt 0.166497 0.733143
vt 0.169462 0.732727
vt 0.169527 0.732726
vt 0.169536 0.733144
vt 0.169472 0.733145
vt 0.109907 0.664270
vt 0.109703 0.664219
vt 0.109754 0.664014
vt 0.109958 0.664064
vt 0.147862 0.702189
vt 0.147768 0.702165
vt 0.147869 0.701760
vt 0.147963 0.701783
vt 0.166079 0.732734
vt 0.166122 0.732733
vt 0.166131 0.733151
vt 0.166088 0.733152
vt 0.166178 0.732732
vt 0.166188 0.733150
vt 0.165623 0.732745
vt 0.165633 0.733163
vt 0.158883 0.733672
vt 0.159014 0.733639
vt 0.159114 0.734045
vt 0.158983 0.734078
vn -0.9682 -0.2503 -0.0000
vn -1.0000 -0.0000 -0.0000
vn 0.6375 -0.7705 0.0000
vn 0.6874 -0.7263 0.0000
vn 0.6873 -0.7263 0.0000
vn 0.6215 0.7834 0.0000
vn 0.1540 0.9881 -0.0000
vn -0.6374 -0.7705 -0.0000
vn -0.6215 0.7834 -0.0000
vn -0.9640 0.2661 -0.0000
vn 0.9827 -0.1852 0.0000
vn 0.9640 0.2661 0.0000
vn -0.9827 -0.1853 -0.0000
vn -0.6874 -0.7263 -0.0000
vn -0.1540 0.9881 -0.0000
vn 0.9682 -0.2503 0.0000
vn 1.0000 -0.0000 0.0000
usemtl Material_UniTex_dif.png
s 1
f 628/924/425 629/925/426 634/926/426 635/927/425
f 616/928/427 617/929/428 630/930/429 636/931/427
f 620/932/430 621/933/431 641/934/431 640/935/430
f 627/936/432 628/924/425 635/927/425 633/937/432
f 623/938/433 624/939/434 644/940/434 643/941/433
f 618/942/435 619/943/436 639/944/436 631/945/435
f 619/943/436 620/946/430 640/947/430 639/944/436
f 625/948/437 626/949/438 632/950/438 645/951/437
f 624/939/434 625/948/437 645/951/437 644/940/434
f 621/952/431 622/953/439 642/954/439 641/955/431
f 622/956/439 623/957/433 643/958/433 642/959/439
f 615/960/440 616/961/427 636/962/427 638/963/440
f 617/964/428 618/942/435 631/945/435 630/965/429
f 614/966/441 615/960/440 638/963/440 637/967/441
f 626/968/438 627/969/432 633/970/432 632/971/438
o Cube.001_Cube.024_Cube.001_Cube.025
v 2.142075 0.500007 -43.688705
v 3.257723 0.200007 -44.216064
v 2.403012 0.200007 -46.024231
v -2.117404 0.200007 -43.887444
v -1.262694 0.200007 -42.079281
v -1.001758 0.500007 -44.414810
v -0.147054 0.500007 -42.606644
v 1.287357 0.500007 -45.496864
vt 0.298500 0.384600
vt 0.597000 0.384600
vt 0.597000 0.289700
vt 0.298500 0.289700
vt 0.597000 0.094900
vt 0.298500 0.094900
vt 0.597000 0.000000
vt 0.298500 0.000000
vn -0.2136 0.9717 0.1010
vn 0.0000 1.0000 0.0000
vn 0.2136 0.9717 -0.1010
usemtl Material.001
s off
f 649/972/442 650/973/442 652/974/442 651/975/442
f 651/975/443 652/974/443 646/976/443 653/977/443
f 646/976/444 647/978/444 648/979/444 653/977/444
o Cube.001_Cube.023_Cube.001_Cube.024
v 4.961562 0.500007 -36.803471
v 6.106788 0.200007 -37.263088
v 5.361876 0.200007 -39.119179
v 0.721625 0.200007 -37.256901
v 1.466537 0.200007 -35.400806
v 1.866843 0.500007 -37.716522
v 2.611747 0.500007 -35.860420
v 4.216659 0.500007 -38.659569
vt 0.298500 0.384600
vt 0.597000 0.384600
vt 0.597000 0.289700
vt 0.298500 0.289700
vt 0.597000 0.094900
vt 0.298500 0.094900
vt 0.597000 0.000000
vt 0.298500 0.000000
vn -0.2192 0.9717 0.0880
vn 0.0000 1.0000 0.0000
vn 0.2192 0.9717 -0.0880
usemtl Material.001
s off
f 657/980/445 658/981/445 660/982/445 659/983/445
f 659/983/446 660/982/446 654/984/446 661/985/446
f 654/984/447 655/986/447 656/987/447 661/985/447
o Cube.001_Cube.022_Cube.001_Cube.023
v 8.000000 0.200007 -5.000000
v 8.000000 0.200007 -3.000000
v 11.765994 0.500007 -5.000000
v 11.765994 0.500007 -3.000000
v 13.000000 0.200007 -3.000000
v 13.000000 0.200007 -5.000000
v 9.234006 0.500007 -3.000000
v 9.234006 0.500007 -5.000000
vt 0.298500 0.905100
vt 0.597000 0.905100
vt 0.597000 1.000000
vt 0.298500 1.000000
vt 0.298500 0.710300
vt 0.298500 0.615400
vt 0.597000 0.615400
vt 0.597000 0.710300
vn 0.2362 0.9717 0.0000
vn -0.2362 0.9717 0.0000
vn 0.0000 1.0000 0.0000
usemtl Material.001
s off
f 664/988/448 665/989/448 666/990/448 667/991/448
f 669/992/449 662/993/449 663/994/449 668/995/449
f 664/988/450 669/992/450 668/995/450 665/989/450
o Cube.001_Cube.021_Cube.001_Cube.022
v 8.800000 0.200008 -11.000000
v 10.034006 0.500009 -13.000000
v 8.800000 0.200009 -13.000000
v 10.034006 0.500008 -11.000000
v 12.565994 0.500008 -11.000000
v 12.565994 0.500009 -13.000000
v 13.800000 0.200008 -11.000000
v 13.800000 0.200009 -13.000000
vt 0.298500 0.710300
vt 0.298500 0.615400
vt 0.597000 0.615400
vt 0.597000 0.710300
vt 0.298500 0.905100
vt 0.597000 0.905100
vt 0.597000 1.000000
vt 0.298500 1.000000
vn -0.2362 0.9717 0.0000
vn 0.2362 0.9717 0.0000
vn 0.0000 1.0000 0.0000
usemtl Material.001
s off
f 671/996/451 672/997/451 670/998/451 673/999/451
f 675/1000/452 674/1001/452 676/1002/452 677/1003/452
f 675/1000/453 671/996/453 673/999/453 674/1001/453
o Cube.001_Cube.020_Cube.001_Cube.021
v 10.100000 0.200010 -19.000000
v 10.100000 0.200010 -21.000000
v 11.334005 0.500010 -21.000000
v 15.100000 0.200010 -21.000000
v 15.100000 0.200010 -19.000000
v 13.865993 0.500010 -21.000000
v 13.865993 0.500010 -19.000000
v 11.334005 0.500010 -19.000000
vt 0.298500 0.905100
vt 0.597000 0.905100
vt 0.597000 1.000000
vt 0.298500 1.000000
vt 0.298500 0.710300
vt 0.597000 0.710300
vt 0.298500 0.615400
vt 0.597000 0.615400
vn 0.2362 0.9717 0.0000
vn 0.0000 1.0000 0.0000
vn -0.2362 0.9717 0.0000
usemtl Material.001
s off
f 683/1004/454 684/1005/454 682/1006/454 681/1007/454
f 683/1004/455 680/1008/455 685/1009/455 684/1005/455
f 680/1008/456 679/1010/456 678/1011/456 685/1009/456
o Cube.001_Cube.019_Cube.001_Cube.020
v 12.400001 0.200010 -27.000000
v 12.400001 0.200010 -29.000000
v 13.634006 0.500010 -29.000000
v 17.400000 0.200010 -29.000000
v 17.400000 0.200010 -27.000000
v 16.165993 0.500010 -29.000000
v 16.165993 0.500010 -27.000000
v 13.634006 0.500010 -27.000000
vt 0.298500 0.905100
vt 0.597000 0.905100
vt 0.597000 1.000000
vt 0.298500 1.000000
vt 0.298500 0.710300
vt 0.597000 0.710300
vt 0.298500 0.615400
vt 0.597000 0.615400
vn 0.2362 0.9717 0.0000
vn 0.0000 1.0000 0.0000
vn -0.2362 0.9717 0.0000
usemtl Material.001
s off
f 691/1012/457 692/1013/457 690/1014/457 689/1015/457
f 691/1012/458 688/1016/458 693/1017/458 692/1013/458
f 688/1016/459 687/1018/459 686/1019/459 693/1017/459
o Cube.001_Cube.018_Cube.001_Cube.019
v 22.350058 -0.499993 -40.468582
v 10.596988 -0.499993 -46.024231
v 9.742277 0.200007 -44.216064
v 9.742277 -0.499993 -44.216064
v 10.596988 0.200007 -46.024231
v 21.495358 0.200007 -38.660419
v 22.350058 0.200007 -40.468582
v 21.495358 -0.499993 -38.660419
vt 1.000000 0.153800
vt 0.895500 0.153800
vt 0.895500 0.000000
vt 1.000000 0.000000
vt 1.000000 0.307700
vt 0.895500 0.307700
vt 0.895500 0.153800
vt 1.000000 0.153800
vt 0.000000 1.000000
vt 0.000000 0.000000
vt 0.298500 0.000000
vt 0.298500 1.000000
vn -0.9041 0.0000 -0.4274
vn 0.9041 0.0000 0.4274
vn 0.0000 -1.0000 -0.0000
usemtl Material.001
s off
f 697/1020/460 696/1021/460 698/1022/460 695/1023/460
f 694/1024/461 700/1025/461 699/1026/461 701/1027/461
f 695/1028/462 694/1029/462 701/1030/462 697/1031/462
o Cube.001_Cube.017_Cube.001_Cube.018
v 19.702753 -0.499993 -34.277248
v 7.638124 -0.499993 -39.119179
v 6.893212 0.200007 -37.263088
v 6.893212 -0.499993 -37.263088
v 7.638124 0.200007 -39.119179
v 18.957850 0.200007 -32.421150
v 19.702753 0.200007 -34.277248
v 18.957850 -0.499993 -32.421150
vt 1.000000 0.153800
vt 0.895500 0.153800
vt 0.895500 0.000000
vt 1.000000 0.000000
vt 1.000000 0.307700
vt 0.895500 0.307700
vt 0.895500 0.153800
vt 1.000000 0.153800
vt 0.000000 1.000000
vt 0.000000 0.000000
vt 0.298500 0.000000
vt 0.298500 1.000000
vn -0.9280 0.0000 -0.3725
vn 0.9281 0.0000 0.3725
vn 0.0000 -1.0000 -0.0000
usemtl Material.001
s off
f 705/1032/463 704/1033/463 706/1034/463 703/1035/463
f 702/1036/464 708/1037/464 707/1038/464 709/1039/464
f 703/1040/465 702/1041/465 709/1042/465 705/1043/465
o Cube.001_Cube.016_Cube.001_Cube.017
v 8.038438 0.500007 -36.803471
v 6.893212 0.200007 -37.263088
v 7.638124 0.200007 -39.119179
v 12.278375 0.200007 -37.256901
v 11.533463 0.200007 -35.400806
v 11.133157 0.500007 -37.716522
v 10.388253 0.500007 -35.860420
v 8.783341 0.500007 -38.659569
vt 0.298500 0.384600
vt 0.298500 0.289700
vt 0.597000 0.289700
vt 0.597000 0.384600
vt 0.298500 0.094900
vt 0.597000 0.094900
vt 0.298500 0.000000
vt 0.597000 0.000000
vn 0.2192 0.9717 0.0880
vn -0.0000 1.0000 0.0000
vn -0.2192 0.9717 -0.0880
usemtl Material.001
s off
f 713/1044/466 715/1045/466 716/1046/466 714/1047/466
f 715/1045/467 717/1048/467 710/1049/467 716/1046/467
f 710/1049/468 717/1048/468 712/1050/468 711/1051/468
o Cube.001_Cube.015_Cube.001_Cube.016
v 15.062524 0.200007 -36.139534
v 14.317620 0.200007 -34.283436
v 18.557550 0.500007 -34.736862
v 17.812654 0.500007 -32.880764
v 18.957850 0.200007 -32.421150
v 19.702753 0.200007 -34.277248
v 15.462831 0.500007 -33.823822
v 16.207750 0.500007 -35.679916
vt 0.298500 0.905100
vt 0.597000 0.905100
vt 0.597000 1.000000
vt 0.298500 1.000000
vt 0.298500 0.710300
vt 0.298500 0.615400
vt 0.597000 0.615400
vt 0.597000 0.710300
vn 0.2192 0.9717 0.0880
vn -0.2192 0.9717 -0.0880
vn -0.0000 1.0000 0.0000
usemtl Material.001
s off
f 720/1052/469 721/1053/469 722/1054/469 723/1055/469
f 725/1056/470 718/1057/470 719/1058/470 724/1059/470
f 720/1052/471 725/1056/471 724/1059/471 721/1053/471
o Cube.001_Cube.014_Cube.001_Cube.015
v 17.829655 0.200007 -42.605373
v 16.974945 0.200007 -40.797211
v 21.234426 0.500007 -40.995949
v 20.379707 0.500007 -39.187782
v 21.495358 0.200007 -38.660419
v 22.350058 0.200007 -40.468582
v 18.090586 0.500007 -40.269852
v 18.945290 0.500007 -42.078011
vt 0.298500 0.905100
vt 0.597000 0.905100
vt 0.597000 1.000000
vt 0.298500 1.000000
vt 0.298500 0.710300
vt 0.298500 0.615400
vt 0.597000 0.615400
vt 0.597000 0.710300
vn 0.2136 0.9717 0.1010
vn -0.2136 0.9717 -0.1010
vn -0.0000 1.0000 0.0000
usemtl Material.001
s off
f 728/1060/472 729/1061/472 730/1062/472 731/1063/472
f 733/1064/473 726/1065/473 727/1066/473 732/1067/473
f 728/1060/474 733/1064/474 732/1067/474 729/1061/474
o Cube.001_Cube.013_Cube.001_Cube.014
v 10.857925 0.500007 -43.688705
v 9.742277 0.200007 -44.216064
v 10.596988 0.200007 -46.024231
v 15.117404 0.200007 -43.887444
v 14.262694 0.200007 -42.079281
v 14.001758 0.500007 -44.414810
v 13.147054 0.500007 -42.606644
v 11.712643 0.500007 -45.496864
vt 0.298500 0.384600
vt 0.298500 0.289700
vt 0.597000 0.289700
vt 0.597000 0.384600
vt 0.298500 0.094900
vt 0.597000 0.094900
vt 0.298500 0.000000
vt 0.597000 0.000000
vn 0.2136 0.9717 0.1010
vn -0.0000 1.0000 0.0000
vn -0.2136 0.9717 -0.1010
usemtl Material.001
s off
f 737/1068/475 739/1069/475 740/1070/475 738/1071/475
f 739/1069/476 741/1072/476 734/1073/476 740/1070/476
f 734/1073/477 741/1072/477 736/1074/477 735/1075/477
o Cube.001_Cube.012_Cube.001_Cube.013
v 13.000000 -0.499993 -5.000000
v 0.000000 -0.499993 -5.000000
v 0.000000 0.200007 -3.000000
v 0.000000 -0.499993 -3.000000
v 0.000000 0.200007 -5.000000
v 13.000000 0.200007 -3.000000
v 13.000000 0.200007 -5.000000
v 13.000000 -0.499993 -3.000000
vt 1.000000 0.153800
vt 0.895500 0.153800
vt 0.895500 0.000000
vt 1.000000 0.000000
vt 1.000000 0.307700
vt 0.895500 0.307700
vt 0.895500 0.153800
vt 1.000000 0.153800
vt 0.000000 1.000000
vt 0.000000 0.000000
vt 0.298500 0.000000
vt 0.298500 1.000000
vn -1.0000 0.0000 0.0000
vn 1.0000 0.0000 0.0000
vn 0.0000 -1.0000 -0.0000
usemtl Material.001
s off
f 745/1076/478 744/1077/478 746/1078/478 743/1079/478
f 742/1080/479 748/1081/479 747/1082/479 749/1083/479
f 743/1084/480 742/1085/480 749/1086/480 745/1087/480
o Cube.001_Cube.011_Cube.001_Cube.012
v -0.800000 -0.499991 -13.000000
v 13.800000 -0.499991 -13.000000
v 13.800000 -0.499992 -11.000000
v -0.800000 -0.499992 -11.000000
v -0.800000 0.200008 -11.000000
v -0.800000 0.200009 -13.000000
v 13.800000 0.200008 -11.000000
v 13.800000 0.200009 -13.000000
vt 0.000000 1.000000
vt 0.000000 0.000000
vt 0.298500 0.000000
vt 0.298500 1.000000
vt 1.000000 0.153800
vt 0.895500 0.153800
vt 0.895500 0.000000
vt 1.000000 0.000000
vt 1.000000 0.307700
vt 0.895500 0.307700
vt 0.895500 0.153800
vt 1.000000 0.153800
vn 0.0000 -1.0000 -0.0000
vn -1.0000 0.0000 0.0000
vn 1.0000 0.0000 0.0000
usemtl Material.001
s off
f 750/1088/481 751/1089/481 752/1090/481 753/1091/481
f 753/1092/482 754/1093/482 755/1094/482 750/1095/482
f 751/1096/483 757/1097/483 756/1098/483 752/1099/483
o Cube.001_Cube.010_Cube.001_Cube.011
v -2.100000 -0.499990 -19.000000
v 15.100000 -0.499990 -21.000000
v 15.100000 0.200010 -21.000000
v 15.100000 0.200010 -19.000000
v 15.100000 -0.499990 -19.000000
v -2.100000 -0.499990 -21.000000
v -2.100000 0.200010 -19.000000
v -2.100000 0.200010 -21.000000
vt 1.000000 0.307700
vt 0.895500 0.307700
vt 0.895500 0.153800
vt 1.000000 0.153800
vt 0.000000 1.000000
vt 0.000000 0.000000
vt 0.298500 0.000000
vt 0.298500 1.000000
vt 1.000000 0.153800
vt 0.895500 0.153800
vt 0.895500 0.000000
vt 1.000000 0.000000
vn 1.0000 0.0000 0.0000
vn 0.0000 -1.0000 -0.0000
vn -1.0000 0.0000 0.0000
usemtl Material.001
s off
f 759/1100/484 760/1101/484 761/1102/484 762/1103/484
f 763/1104/485 759/1105/485 762/1106/485 758/1107/485
f 758/1108/486 764/1109/486 765/1110/486 763/1111/486
o Cube.001_Cube.009_Cube.001_Cube.010
v -4.400000 -0.499990 -27.000000
v 17.400000 -0.499990 -29.000000
v 17.400000 0.200010 -29.000000
v 17.400000 0.200010 -27.000000
v 17.400000 -0.499990 -27.000000
v -4.400000 -0.499990 -29.000000
v -4.400000 0.200010 -27.000000
v -4.400000 0.200010 -29.000000
vt 1.000000 0.307700
vt 0.895500 0.307700
vt 0.895500 0.153800
vt 1.000000 0.153800
vt 0.000000 1.000000
vt 0.000000 0.000000
vt 0.298500 0.000000
vt 0.298500 1.000000
vt 1.000000 0.153800
vt 0.895500 0.153800
vt 0.895500 0.000000
vt 1.000000 0.000000
vn 1.0000 0.0000 0.0000
vn 0.0000 -1.0000 -0.0000
vn -1.0000 0.0000 0.0000
usemtl Material.001
s off
f 767/1112/487 768/1113/487 769/1114/487 770/1115/487
f 771/1116/488 767/1117/488 770/1118/488 766/1119/488
f 766/1120/489 772/1121/489 773/1122/489 771/1123/489
o Cube.001_Cube.008_Cube.001_Cube.009
v -6.702753 -0.499993 -34.277248
v 5.361876 -0.499993 -39.119179
v 6.106788 0.200007 -37.263088
v 6.106788 -0.499993 -37.263088
v 5.361876 0.200007 -39.119179
v -5.957850 0.200007 -32.421150
v -6.702753 0.200007 -34.277248
v -5.957850 -0.499993 -32.421150
vt 1.000000 0.153800
vt 1.000000 0.000000
vt 0.895500 0.000000
vt 0.895500 0.153800
vt 1.000000 0.307700
vt 1.000000 0.153800
vt 0.895500 0.153800
vt 0.895500 0.307700
vt 0.000000 1.000000
vt 0.298500 1.000000
vt 0.298500 0.000000
vt 0.000000 0.000000
vn 0.9280 0.0000 -0.3725
vn -0.9281 0.0000 0.3725
vn -0.0000 -1.0000 -0.0000
usemtl Material.001
s off
f 777/1124/490 775/1125/490 778/1126/490 776/1127/490
f 774/1128/491 781/1129/491 779/1130/491 780/1131/491
f 775/1132/492 777/1133/492 781/1134/492 774/1135/492
o Cube.001_Cube.007_Cube.001_Cube.008
v -9.350058 -0.499993 -40.468582
v 2.403012 -0.499993 -46.024231
v 3.257723 0.200007 -44.216064
v 3.257723 -0.499993 -44.216064
v 2.403012 0.200007 -46.024231
v -8.495358 0.200007 -38.660419
v -9.350058 0.200007 -40.468582
v -8.495358 -0.499993 -38.660419
vt 1.000000 0.153800
vt 1.000000 0.000000
vt 0.895500 0.000000
vt 0.895500 0.153800
vt 1.000000 0.307700
vt 1.000000 0.153800
vt 0.895500 0.153800
vt 0.895500 0.307700
vt 0.000000 1.000000
vt 0.298500 1.000000
vt 0.298500 0.000000
vt 0.000000 0.000000
vn 0.9041 0.0000 -0.4274
vn -0.9041 0.0000 0.4274
vn -0.0000 -1.0000 -0.0000
usemtl Material.001
s off
f 785/1136/493 783/1137/493 786/1138/493 784/1139/493
f 782/1140/494 789/1141/494 787/1142/494 788/1143/494
f 783/1144/495 785/1145/495 789/1146/495 782/1147/495
o Cube.001_Cube.006_Cube.001_Cube.007
v 1.234006 0.500007 -3.000000
v 0.000000 0.200007 -3.000000
v 0.000000 0.200007 -5.000000
v 5.000000 0.200007 -5.000000
v 5.000000 0.200007 -3.000000
v 3.765994 0.500007 -5.000000
v 3.765994 0.500007 -3.000000
v 1.234006 0.500007 -5.000000
vt 0.298500 0.384600
vt 0.298500 0.289700
vt 0.597000 0.289700
vt 0.597000 0.384600
vt 0.298500 0.094900
vt 0.597000 0.094900
vt 0.298500 0.000000
vt 0.597000 0.000000
vn 0.2362 0.9717 0.0000
vn 0.0000 1.0000 0.0000
vn -0.2362 0.9717 0.0000
usemtl Material.001
s off
f 793/1148/496 795/1149/496 796/1150/496 794/1151/496
f 795/1149/497 797/1152/497 790/1153/497 796/1150/497
f 790/1153/498 797/1152/498 792/1154/498 791/1155/498
o Cube.001_Cube.005_Cube.001_Cube.006
v 2.965994 0.500009 -13.000000
v 0.434006 0.500009 -13.000000
v 0.434006 0.500008 -11.000000
v 2.965994 0.500008 -11.000000
v -0.800000 0.200008 -11.000000
v 4.200000 0.200009 -13.000000
v 4.200000 0.200008 -11.000000
v -0.800000 0.200009 -13.000000
vt 0.298500 0.289700
vt 0.298500 0.094900
vt 0.597000 0.094900
vt 0.597000 0.289700
vt 0.298500 0.384600
vt 0.597000 0.384600
vt 0.298500 0.000000
vt 0.597000 0.000000
vn 0.0000 1.0000 0.0000
vn 0.2362 0.9717 0.0000
vn -0.2362 0.9717 0.0000
usemtl Material.001
s off
f 798/1156/499 799/1157/499 800/1158/499 801/1159/499
f 803/1160/500 798/1156/500 801/1159/500 804/1161/500
f 800/1158/501 799/1157/501 805/1162/501 802/1163/501
o Cube.001_Cube.004_Cube.001_Cube.005
v 2.900000 0.200010 -19.000000
v 2.900000 0.200010 -21.000000
v 1.665994 0.500010 -21.000000
v 1.665994 0.500010 -19.000000
v -0.865994 0.500010 -21.000000
v -0.865994 0.500010 -19.000000
v -2.100000 0.200010 -19.000000
v -2.100000 0.200010 -21.000000
vt 0.298500 0.384600
vt 0.298500 0.289700
vt 0.597000 0.289700
vt 0.597000 0.384600
vt 0.298500 0.094900
vt 0.597000 0.094900
vt 0.298500 0.000000
vt 0.597000 0.000000
vn 0.2362 0.9717 0.0000
vn 0.0000 1.0000 0.0000
vn -0.2362 0.9717 0.0000
usemtl Material.001
s off
f 807/1164/502 808/1165/502 809/1166/502 806/1167/502
f 808/1165/503 810/1168/503 811/1169/503 809/1166/503
f 811/1169/504 810/1168/504 813/1170/504 812/1171/504
o Cube.001_Cube.003_Cube.001_Cube.004
v 0.600000 0.200010 -27.000000
v 0.600000 0.200010 -29.000000
v -0.634006 0.500010 -29.000000
v -0.634006 0.500010 -27.000000
v -3.165994 0.500010 -29.000000
v -3.165994 0.500010 -27.000000
v -4.400000 0.200010 -27.000000
v -4.400000 0.200010 -29.000000
vt 0.298500 0.384600
vt 0.298500 0.289700
vt 0.597000 0.289700
vt 0.597000 0.384600
vt 0.298500 0.094900
vt 0.597000 0.094900
vt 0.298500 0.000000
vt 0.597000 0.000000
vn 0.2362 0.9717 0.0000
vn 0.0000 1.0000 0.0000
vn -0.2362 0.9717 0.0000
usemtl Material.001
s off
f 815/1172/505 816/1173/505 817/1174/505 814/1175/505
f 816/1173/506 818/1176/506 819/1177/506 817/1174/506
f 819/1177/507 818/1176/507 821/1178/507 820/1179/507
o Cube.001_Cube.001_Cube.001_Cube.003
v -2.062524 0.200007 -36.139534
v -1.317620 0.200007 -34.283436
v -5.557550 0.500007 -34.736862
v -4.812654 0.500007 -32.880764
v -5.957850 0.200007 -32.421150
v -6.702753 0.200007 -34.277248
v -2.462831 0.500007 -33.823822
v -3.207750 0.500007 -35.679916
vt 0.298500 0.905100
vt 0.298500 1.000000
vt 0.597000 1.000000
vt 0.597000 0.905100
vt 0.298500 0.710300
vt 0.597000 0.710300
vt 0.597000 0.615400
vt 0.298500 0.615400
vn -0.2192 0.9717 0.0880
vn 0.2192 0.9717 -0.0880
vn 0.0000 1.0000 0.0000
usemtl Material.001
s off
f 824/1180/508 827/1181/508 826/1182/508 825/1183/508
f 829/1184/509 828/1185/509 823/1186/509 822/1187/509
f 824/1180/510 825/1183/510 828/1185/510 829/1184/510
o Cube.001_Cube.000_Cube.001_Cube.001
v -4.829655 0.200007 -42.605373
v -3.974945 0.200007 -40.797211
v -8.234426 0.500007 -40.995949
v -7.379707 0.500007 -39.187782
v -8.495358 0.200007 -38.660419
v -9.350058 0.200007 -40.468582
v -5.090586 0.500007 -40.269852
v -5.945290 0.500007 -42.078011
vt 0.298500 0.905100
vt 0.298500 1.000000
vt 0.597000 1.000000
vt 0.597000 0.905100
vt 0.298500 0.710300
vt 0.597000 0.710300
vt 0.597000 0.615400
vt 0.298500 0.615400
vn -0.2136 0.9717 0.1010
vn 0.2136 0.9717 -0.1010
vn 0.0000 1.0000 0.0000
usemtl Material.001
s off
f 832/1188/511 835/1189/511 834/1190/511 833/1191/511
f 837/1192/512 836/1193/512 831/1194/512 830/1195/512
f 832/1188/513 833/1191/513 836/1193/513 837/1192/513
