# Blender v2.79 (sub 0) OBJ File: 'RailLineShort_col.blend'
# www.blender.org
mtllib RailLineShort_col.mtl
o Cube.005
v 10.656177 0.955870 -8.000000
v 10.656177 0.955870 0.000000
v 10.343823 0.955870 -0.000001
v 10.343824 0.955870 -8.000000
v 10.722988 1.905697 -7.999994
v 10.722988 1.905697 0.000006
v 10.277012 1.905697 -0.000001
v 10.277012 1.905697 -8.000000
v 10.852067 1.606315 -7.999997
v 10.825857 1.539268 -7.999997
v 10.825857 1.539268 0.000003
v 10.852066 1.606315 0.000003
v 10.147933 1.606315 -0.000001
v 10.174143 1.539268 -0.000001
v 10.174143 1.539268 -8.000000
v 10.147933 1.606315 -8.000000
v 10.827013 1.872461 -7.999994
v 10.852067 1.830535 -7.999994
v 10.852066 1.830535 0.000006
v 10.827012 1.872461 0.000006
v 10.172987 1.872461 -0.000003
v 10.147933 1.830535 -0.000003
v 10.147933 1.830535 -8.000000
v 10.172987 1.872461 -8.000000
v 10.680851 1.491614 -7.999997
v 10.656177 1.447078 -7.999997
v 10.656176 1.447078 0.000003
v 10.680851 1.491614 0.000003
v 10.319149 1.491614 -0.000001
v 10.343823 1.447078 -0.000001
v 10.343824 1.447078 -8.000000
v 10.319149 1.491614 -8.000000
vt 0.150858 0.730657
vt 0.150858 0.705729
vt 0.151278 0.705729
vt 0.151278 0.730657
vt 0.104168 0.659223
vt 0.105127 0.659223
vt 0.105127 0.684151
vt 0.104168 0.684151
vt 0.152814 0.730657
vt 0.151409 0.730657
vt 0.151409 0.705729
vt 0.152814 0.705729
vt 0.164615 0.705729
vt 0.165013 0.705729
vt 0.165013 0.730657
vt 0.164615 0.730657
vt 0.154351 0.705729
vt 0.155756 0.705729
vt 0.155756 0.730657
vt 0.154351 0.730657
vt 0.164615 0.730657
vt 0.164216 0.730657
vt 0.164216 0.705729
vt 0.164615 0.705729
vt 0.159134 0.730657
vt 0.158493 0.730657
vt 0.158493 0.705729
vt 0.159134 0.705729
vt 0.160479 0.705729
vt 0.161121 0.705729
vt 0.161121 0.730657
vt 0.160479 0.730657
vt 0.160284 0.730657
vt 0.160284 0.705729
vt 0.159330 0.705729
vt 0.159330 0.730657
vt 0.158377 0.730657
vt 0.158377 0.705729
vt 0.161237 0.705729
vt 0.161237 0.730657
vt 0.149899 0.705729
vt 0.149899 0.730657
vt 0.149480 0.730657
vt 0.149480 0.705729
vt 0.151278 0.730657
vt 0.151278 0.705729
vt 0.155887 0.705729
vt 0.155887 0.730657
vn -0.1540 0.9881 0.0000
vn -0.6215 0.7834 0.0000
vn 0.1540 0.9881 0.0000
vn 1.0000 0.0000 0.0000
vn 0.9682 -0.2503 0.0000
vn -0.6374 -0.7705 -0.0000
vn -0.6873 -0.7263 0.0000
vn -1.0000 0.0000 -0.0000
vn -0.9682 -0.2503 -0.0000
vn 0.6374 -0.7705 0.0000
vn 0.6874 -0.7263 0.0000
vn 0.9827 -0.1852 0.0000
vn 0.9640 0.2661 0.0000
vn -0.9827 -0.1852 0.0000
vn -0.9640 0.2661 0.0000
vn 0.6215 0.7834 0.0000
usemtl Material
s 1
f 7/1/1 8/2/1 24/3/2 21/4/2
f 5/5/3 8/6/1 7/7/1 6/8/3
f 1/9/4 26/10/5 27/11/5 2/12/4
f 29/13/6 14/14/7 15/15/7 32/16/6
f 3/17/8 30/18/9 31/19/9 4/20/8
f 25/21/10 10/22/11 11/23/11 28/24/10
f 9/25/12 18/26/13 19/27/13 12/28/12
f 13/29/14 22/30/15 23/31/15 16/32/14
f 13/29/14 16/32/14 15/33/7 14/34/7
f 9/25/12 12/28/12 11/35/11 10/36/11
f 19/27/13 18/26/13 17/37/16 20/38/16
f 23/31/15 22/30/15 21/39/2 24/40/2
f 5/41/3 6/42/3 20/43/16 17/44/16
f 25/45/10 28/46/10 27/11/5 26/10/5
f 29/47/6 32/48/6 31/19/9 30/18/9
o Cube.004
v 0.000000 -0.500000 -5.000000
v 0.000000 -0.500000 -3.000000
v 0.000000 0.200000 -3.000000
v 0.000000 0.200000 -5.000000
v 13.000000 0.200000 -5.000000
v 13.000000 -0.500000 -5.000000
v 13.000000 -0.500000 -3.000000
v 13.000000 0.200000 -3.000000
vt 0.000000 1.000000
vt 0.000000 0.000000
vt 0.298507 0.000000
vt 0.298507 1.000000
vt 1.000000 0.153846
vt 0.895522 0.153846
vt 0.895522 0.000000
vt 1.000000 0.000000
vt 1.000000 0.307692
vt 0.895522 0.307692
vt 0.895522 0.153846
vt 1.000000 0.153846
vn 0.0000 -1.0000 0.0000
vn -1.0000 0.0000 0.0000
vn 1.0000 0.0000 0.0000
usemtl Material_blk_concrete01_dif.tga
s off
f 33/49/17 38/50/17 39/51/17 34/52/17
f 34/53/18 35/54/18 36/55/18 33/56/18
f 38/57/19 37/58/19 40/59/19 39/60/19
o Cube.003
v 11.765994 0.500000 -3.000000
v 11.765994 0.500000 -5.000000
v 9.234006 0.500000 -5.000000
v 9.234006 0.500000 -3.000000
v 8.000000 0.200000 -5.000000
v 8.000000 0.200000 -3.000000
v 13.000000 0.200000 -5.000000
v 13.000000 0.200000 -3.000000
vt 0.298507 0.905076
vt 0.597015 0.905076
vt 0.597015 1.000000
vt 0.298507 1.000000
vt 0.298507 0.710308
vt 0.597015 0.710308
vt 0.298507 0.615385
vt 0.597015 0.615385
vn 0.2362 0.9717 0.0000
vn 0.0000 1.0000 0.0000
vn -0.2362 0.9717 0.0000
usemtl Material_blk_concrete01_dif.tga
s off
f 42/61/20 41/62/20 48/63/20 47/64/20
f 42/61/21 43/65/21 44/66/21 41/62/21
f 43/65/22 45/67/22 46/68/22 44/66/22
o Cube.002_Cube.001
v 1.234006 0.500000 -3.000000
v 1.234006 0.500000 -5.000000
v 3.765994 0.500000 -5.000000
v 3.765994 0.500000 -3.000000
v 5.000000 0.200000 -3.000000
v 5.000000 0.200000 -5.000000
v 0.000000 0.200000 -3.000000
v 0.000000 0.200000 -5.000000
vt 0.298507 0.289692
vt 0.298507 0.094924
vt 0.597015 0.094924
vt 0.597015 0.289692
vt 0.298507 0.384615
vt 0.597015 0.384615
vt 0.298507 0.000000
vt 0.597015 0.000000
vn 0.0000 1.0000 0.0000
vn 0.2362 0.9717 0.0000
vn -0.2362 0.9717 0.0000
usemtl Material_blk_concrete01_dif.tga
s off
f 51/69/23 50/70/23 49/71/23 52/72/23
f 54/73/24 51/69/24 52/72/24 53/74/24
f 49/71/25 50/70/25 56/75/25 55/76/25
o Cube
v 2.656177 0.955870 -8.000000
v 2.656176 0.955870 0.000000
v 2.343823 0.955870 -0.000001
v 2.343824 0.955870 -8.000000
v 2.722989 1.905697 -7.999994
v 2.722988 1.905697 0.000006
v 2.277011 1.905697 -0.000001
v 2.277012 1.905697 -8.000000
v 2.852067 1.606315 -7.999997
v 2.825857 1.539268 -7.999997
v 2.825857 1.539268 0.000003
v 2.852067 1.606315 0.000003
v 2.147933 1.606315 -0.000001
v 2.174143 1.539268 -0.000001
v 2.174143 1.539268 -8.000000
v 2.147933 1.606315 -8.000000
v 2.827013 1.872461 -7.999994
v 2.852067 1.830535 -7.999994
v 2.852067 1.830535 0.000006
v 2.827012 1.872461 0.000006
v 2.172987 1.872461 -0.000003
v 2.147933 1.830535 -0.000003
v 2.147933 1.830535 -8.000000
v 2.172987 1.872461 -8.000000
v 2.680851 1.491614 -7.999997
v 2.656177 1.447078 -7.999997
v 2.656176 1.447078 0.000003
v 2.680851 1.491614 0.000003
v 2.319149 1.491614 -0.000001
v 2.343823 1.447078 -0.000001
v 2.343824 1.447078 -8.000000
v 2.319149 1.491614 -8.000000
vt 0.150858 0.730657
vt 0.150858 0.705729
vt 0.151278 0.705729
vt 0.151278 0.730657
vt 0.104168 0.659223
vt 0.105127 0.659223
vt 0.105127 0.684151
vt 0.104168 0.684151
vt 0.152814 0.730657
vt 0.151409 0.730657
vt 0.151409 0.705729
vt 0.152814 0.705729
vt 0.164615 0.705729
vt 0.165013 0.705729
vt 0.165013 0.730657
vt 0.164615 0.730657
vt 0.154351 0.705729
vt 0.155756 0.705729
vt 0.155756 0.730657
vt 0.154351 0.730657
vt 0.164615 0.730657
vt 0.164216 0.730657
vt 0.164216 0.705729
vt 0.164615 0.705729
vt 0.159134 0.730657
vt 0.158493 0.730657
vt 0.158493 0.705729
vt 0.159134 0.705729
vt 0.160479 0.705729
vt 0.161121 0.705729
vt 0.161121 0.730657
vt 0.160479 0.730657
vt 0.160284 0.730657
vt 0.160284 0.705729
vt 0.159330 0.705729
vt 0.159330 0.730657
vt 0.158377 0.730657
vt 0.158377 0.705729
vt 0.161237 0.705729
vt 0.161237 0.730657
vt 0.149899 0.705729
vt 0.149899 0.730657
vt 0.149480 0.730657
vt 0.149480 0.705729
vt 0.151278 0.730657
vt 0.151278 0.705729
vt 0.155887 0.705729
vt 0.155887 0.730657
vn -0.1540 0.9881 -0.0000
vn -0.6215 0.7834 -0.0000
vn 0.1540 0.9881 0.0000
vn 1.0000 0.0000 0.0000
vn 0.9682 -0.2503 0.0000
vn -0.6374 -0.7705 -0.0000
vn -0.6873 -0.7263 0.0000
vn -1.0000 0.0000 -0.0000
vn -0.9682 -0.2503 -0.0000
vn 0.6374 -0.7705 0.0000
vn 0.6873 -0.7263 0.0000
vn 0.9827 -0.1853 0.0000
vn 0.9640 0.2661 0.0000
vn -0.9827 -0.1852 0.0000
vn -0.9640 0.2661 0.0000
vn 0.6215 0.7834 0.0000
usemtl Material
s 1
f 63/77/26 64/78/26 80/79/27 77/80/27
f 61/81/28 64/82/26 63/83/26 62/84/28
f 57/85/29 82/86/30 83/87/30 58/88/29
f 85/89/31 70/90/32 71/91/32 88/92/31
f 59/93/33 86/94/34 87/95/34 60/96/33
f 81/97/35 66/98/36 67/99/36 84/100/35
f 65/101/37 74/102/38 75/103/38 68/104/37
f 69/105/39 78/106/40 79/107/40 72/108/39
f 69/105/39 72/108/39 71/109/32 70/110/32
f 65/101/37 68/104/37 67/111/36 66/112/36
f 75/103/38 74/102/38 73/113/41 76/114/41
f 79/107/40 78/106/40 77/115/27 80/116/27
f 61/117/28 62/118/28 76/119/41 73/120/41
f 81/121/35 84/122/35 83/87/30 82/86/30
f 85/123/31 88/124/31 87/95/34 86/94/34
