# Blender v2.78 (sub 0) OBJ File: 'RailSwitchRight_col.blend'
# www.blender.org
mtllib RailSwitchLeft_col.mtl
o Cube.010
v -10.656177 0.955876 -39.249939
v -11.493444 0.955876 -41.271286
v -11.776520 0.955876 -41.139278
v -10.656176 0.941982 -38.434528
v -10.343824 0.955876 -37.680443
v -10.656177 1.447084 -39.249939
v -10.825857 1.539274 -40.102589
v -10.680851 1.491620 -39.373955
v -10.852067 1.830542 -40.234280
v -10.852067 1.606321 -40.234280
v -10.722989 1.905703 -39.585670
v -10.827012 1.872468 -40.108395
v -11.954058 1.830542 -41.056496
v -11.931364 1.872468 -41.067081
v -10.827012 1.858573 -38.400940
v -10.852067 1.816648 -38.396057
v -11.471071 1.491620 -41.281715
v -11.493444 1.447084 -41.271286
v -11.776520 1.447084 -41.139275
v -11.798882 1.491620 -41.128857
v -10.680851 1.477726 -38.429691
v -10.656176 1.433190 -38.434525
v -11.315901 1.606321 -41.354073
v -11.339653 1.539275 -41.343002
v -11.432888 1.905703 -41.299522
v -11.338606 1.872468 -41.343491
v -11.930300 1.539274 -41.067566
v -11.954058 1.606321 -41.056492
v -10.852067 1.592427 -38.396053
v -10.825857 1.525380 -38.401207
v -11.315901 1.830542 -41.354073
v -11.837076 1.905703 -41.111046
v -10.722989 1.891809 -38.421398
v -10.343824 1.447084 -37.680443
v -10.319149 1.491619 -37.556469
v -10.174143 1.539274 -36.827831
v -10.277012 1.905703 -37.344719
v -10.172987 1.872467 -36.821991
v -10.147934 1.606321 -36.696129
v -10.147933 1.830541 -36.696129
vt 0.1448 0.7247
vt 0.1449 0.7247
vt 0.1449 0.7255
vt 0.1449 0.7255
vt 0.1443 0.7246
vt 0.1444 0.7246
vt 0.1444 0.7252
vt 0.1443 0.7251
vt 0.1443 0.7247
vt 0.1443 0.7247
vt 0.1443 0.7256
vt 0.1443 0.7256
vt 0.1454 0.7246
vt 0.1455 0.7246
vt 0.1455 0.7248
vt 0.1454 0.7248
vt 0.1517 0.7043
vt 0.1516 0.7043
vt 0.1517 0.7041
vt 0.1518 0.7039
vt 0.1447 0.7247
vt 0.1448 0.7247
vt 0.1448 0.7256
vt 0.1447 0.7256
vt 0.1453 0.7246
vt 0.1454 0.7248
vt 0.1516 0.7253
vt 0.1516 0.7253
vt 0.1517 0.7258
vt 0.1516 0.7255
vt 0.1566 0.7132
vt 0.1566 0.7132
vt 0.1568 0.7141
vt 0.1567 0.7141
vt 0.1519 0.7043
vt 0.1519 0.7043
vt 0.1520 0.7035
vt 0.1521 0.7035
vt 0.1446 0.7246
vt 0.1446 0.7252
vt 0.1453 0.7246
vt 0.1453 0.7248
vt 0.1441 0.7247
vt 0.1441 0.7256
vt 0.1569 0.7148
vt 0.1568 0.7145
vt 0.1521 0.7030
vt 0.1522 0.7028
vt 0.1094 0.6631
vt 0.1093 0.6631
vt 0.1094 0.6628
vt 0.1096 0.6622
vt 0.1095 0.6625
vt 0.1443 0.7260
vt 0.1443 0.7259
vt 0.1448 0.7263
vt 0.1447 0.7262
vt 0.1441 0.7259
vt 0.1449 0.7262
vt 0.1449 0.7263
vn 0.8895 -0.2684 -0.3698
vn 0.5672 -0.7881 -0.2390
vn 0.5801 -0.7788 -0.2389
vn 0.8913 -0.2637 -0.3689
vn -0.5836 0.7752 0.2417
vn -0.8941 0.2518 0.3703
vn -0.9194 0.0982 0.3808
vn -0.7857 0.5261 0.3255
vn 0.8952 0.2491 -0.3695
vn 0.5955 0.7658 -0.2427
vn 0.5828 0.7748 -0.2449
vn 0.8938 0.2507 -0.3719
vn -0.9081 0.1841 0.3761
vn -0.6410 0.7201 0.2655
vn -0.3900 0.9065 0.1615
vn -0.8987 0.2318 0.3723
vn -0.1368 -0.9890 0.0566
vn -0.5801 -0.7783 0.2403
vn -0.3474 -0.9266 0.1439
vn 0.0001 -1.0000 -0.0001
vn 0.6313 0.7315 -0.2577
vn 0.9082 0.1855 -0.3752
vn 0.9076 0.1864 -0.3762
vn 0.6299 0.7310 -0.2625
vn -0.8911 -0.2639 0.3691
vn -0.8694 -0.3384 0.3601
vn 0.1478 -0.9870 -0.0637
vn 0.1587 -0.9853 -0.0640
vn -0.9239 0.0000 0.3827
vn 0.9239 0.0000 -0.3827
vn 0.8375 0.4191 -0.3507
vn 0.3350 0.9303 -0.1496
vn 0.2863 -0.9519 -0.1093
vn 0.7748 -0.5475 -0.3162
vn 0.8718 0.3250 -0.3666
vn 0.9200 0.0883 -0.3818
vn 0.9195 -0.1009 -0.3800
usemtl Material_UniTex_dif.png
s 1
f 13/1/1 14/2/2 15/3/3 16/4/4
f 17/5/5 18/6/6 6/7/7 8/8/8
f 19/9/9 20/10/10 21/11/11 22/12/12
f 23/13/13 24/14/14 7/15/15 10/16/16
f 25/17/17 26/18/18 12/19/19 11/20/20
f 27/21/21 28/22/22 29/23/23 30/24/24
f 31/25/25 23/13/13 10/16/16 9/26/26
f 24/27/14 17/28/5 8/29/8 7/30/15
f 28/22/22 13/1/1 16/4/4 29/23/23
f 20/31/10 27/32/21 30/33/24 21/34/11
f 14/35/2 32/36/27 33/37/28 15/38/3
f 18/6/6 2/39/29 1/40/29 6/7/7
f 26/41/18 31/25/25 9/26/26 12/42/19
f 3/43/30 19/9/9 22/12/12 4/44/30
f 21/34/11 30/33/24 36/45/31 35/46/32
f 15/38/3 33/37/28 37/47/33 38/48/34
f 32/49/27 25/50/17 11/51/20 37/52/33 33/53/28
f 22/12/12 21/11/11 35/54/32 34/55/35
f 30/24/24 29/23/23 39/56/36 36/57/31
f 4/44/30 22/12/12 34/55/35 5/58/30
f 16/4/4 15/3/3 38/59/34 40/60/37
f 29/23/23 16/4/4 40/60/37 39/56/36
o Cube.009
v -11.493444 0.955876 -41.271286
v -11.776520 0.955876 -41.139278
v -14.233229 0.955871 -47.256485
v -14.516304 0.955871 -47.124477
v -14.233229 1.447079 -47.256485
v -14.210855 1.491615 -47.266914
v -14.079437 1.539269 -47.328201
v -14.055685 1.606316 -47.339272
v -14.055685 1.830536 -47.339272
v -14.078390 1.872463 -47.328690
v -14.172672 1.905698 -47.284721
v -14.576860 1.905698 -47.096245
v -14.671148 1.872463 -47.052280
v -14.693842 1.830536 -47.041695
v -14.693842 1.606316 -47.041691
v -14.670084 1.539268 -47.052765
v -14.538666 1.491615 -47.114056
v -14.516304 1.447079 -47.124474
v -11.954058 1.830542 -41.056496
v -11.931364 1.872468 -41.067081
v -11.471071 1.491620 -41.281715
v -11.493444 1.447084 -41.271286
v -11.776520 1.447084 -41.139275
v -11.798882 1.491620 -41.128857
v -11.315901 1.606321 -41.354073
v -11.339653 1.539275 -41.343002
v -11.432888 1.905703 -41.299522
v -11.338606 1.872468 -41.343491
v -11.930300 1.539274 -41.067566
v -11.954058 1.606321 -41.056492
v -11.315901 1.830542 -41.354073
v -11.837076 1.905703 -41.111046
vt 0.1448 0.7247
vt 0.1447 0.7247
vt 0.1447 0.7247
vt 0.1448 0.7247
vt 0.1566 0.7132
vt 0.1566 0.7132
vt 0.1566 0.7132
vt 0.1566 0.7132
vt 0.1446 0.7246
vt 0.1444 0.7246
vt 0.1444 0.7246
vt 0.1446 0.7246
vt 0.1443 0.7247
vt 0.1441 0.7247
vt 0.1441 0.7247
vt 0.1443 0.7247
vt 0.1443 0.7246
vt 0.1443 0.7246
vt 0.1443 0.7247
vt 0.1443 0.7247
vt 0.1516 0.7043
vt 0.1517 0.7043
vt 0.1517 0.7043
vt 0.1516 0.7043
vt 0.1454 0.7246
vt 0.1453 0.7246
vt 0.1453 0.7246
vt 0.1454 0.7246
vt 0.1448 0.7247
vt 0.1448 0.7247
vt 0.1519 0.7043
vt 0.1519 0.7043
vt 0.1519 0.7043
vt 0.1519 0.7043
vt 0.1453 0.7246
vt 0.1453 0.7246
vt 0.1449 0.7247
vt 0.1449 0.7247
vt 0.1093 0.6631
vt 0.1094 0.6631
vt 0.1094 0.6631
vt 0.1093 0.6631
vt 0.1455 0.7246
vt 0.1455 0.7246
vt 0.1516 0.7253
vt 0.1516 0.7253
vt 0.1516 0.7253
vt 0.1516 0.7253
vn 0.8935 0.1851 -0.4090
vn 0.6259 0.7254 -0.2865
vn 0.6241 0.7273 -0.2857
vn 0.8935 0.1854 -0.4090
vn 0.5788 0.7713 -0.2649
vn 0.5805 0.7697 -0.2657
vn -0.9093 0.0000 0.4162
vn -0.8804 0.2501 0.4030
vn -0.8802 0.2506 0.4029
vn 0.8803 0.2505 -0.4030
vn 0.9093 0.0000 -0.4162
vn 0.8804 0.2500 -0.4030
vn -0.5804 0.7697 0.2657
vn -0.5787 0.7713 0.2649
vn -0.5643 -0.7841 0.2583
vn -0.1394 -0.9882 0.0638
vn -0.1406 -0.9880 0.0644
vn -0.5660 -0.7826 0.2591
vn -0.8935 0.1854 0.4090
vn -0.8764 -0.2663 0.4012
vn -0.8766 -0.2657 0.4013
vn -0.8936 0.1851 0.4090
vn 0.8766 -0.2656 -0.4013
vn 0.8764 -0.2663 -0.4012
vn 0.1406 -0.9880 -0.0644
vn 0.5661 -0.7825 -0.2591
vn 0.5643 -0.7841 -0.2583
vn 0.1394 -0.9882 -0.0638
vn -0.6241 0.7272 0.2857
vn -0.6259 0.7253 0.2865
usemtl Material_UniTex_dif.png
s 1
f 70/61/38 69/62/39 56/63/40 55/64/41
f 69/65/39 64/66/42 57/67/43 56/68/40
f 41/69/44 62/70/45 45/71/46 43/72/44
f 63/73/47 42/74/48 44/75/48 58/76/49
f 62/70/45 61/77/50 46/78/51 45/71/46
f 64/79/42 63/73/47 58/76/49 57/80/43
f 68/81/52 67/82/53 51/83/54 50/84/55
f 65/85/56 71/86/57 49/87/58 48/88/59
f 59/89/60 70/61/38 55/64/41 54/90/61
f 72/91/62 60/92/63 53/93/64 52/94/65
f 71/86/57 68/95/52 50/96/55 49/87/58
f 60/97/63 59/89/60 54/90/61 53/98/64
f 67/99/53 72/100/62 52/101/65 51/102/54
f 66/103/66 65/85/56 48/88/59 47/104/67
f 61/105/50 66/106/66 47/107/67 46/108/51
o Cube.008
v -10.343824 0.955880 -64.000000
v -10.343824 1.447088 -64.000000
v -10.319149 1.491624 -64.000000
v -10.174143 1.539278 -64.000000
v -10.147934 1.606325 -64.000000
v -10.147934 1.830546 -64.000000
v -10.172988 1.872472 -64.000000
v -10.277012 1.905707 -64.000000
v -10.722989 1.905707 -63.999992
v -10.827013 1.872472 -63.999992
v -10.852068 1.830546 -63.999992
v -10.852068 1.606325 -63.999996
v -10.825858 1.539278 -63.999996
v -10.680851 1.491624 -63.999996
v -10.656177 1.447088 -63.999996
v -10.656177 0.955880 -64.000000
v -10.656177 0.955876 -39.249939
v -10.343824 0.955876 -37.680443
v -10.343824 0.941982 -38.495853
v -10.656177 1.447084 -39.249939
v -10.825857 1.539274 -40.102589
v -10.680851 1.491620 -39.373955
v -10.852067 1.830542 -40.234280
v -10.852067 1.606321 -40.234280
v -10.147932 1.816648 -38.534348
v -10.172987 1.858573 -38.529434
v -10.722989 1.905703 -39.585670
v -10.827012 1.872468 -40.108395
v -10.343824 1.447084 -37.680443
v -10.343824 1.433190 -38.495853
v -10.319149 1.491619 -37.556469
v -10.174143 1.539274 -36.827831
v -10.174143 1.525380 -38.529213
v -10.319148 1.477726 -38.500729
v -10.277012 1.905703 -37.344719
v -10.172987 1.872467 -36.821991
v -10.147934 1.606321 -36.696129
v -10.277011 1.891809 -38.508987
v -10.147932 1.592427 -38.534348
v -10.147933 1.830541 -36.696129
vt 0.1457 0.7222
vt 0.1455 0.7222
vt 0.1455 0.7149
vt 0.1457 0.7149
vt 0.1475 0.7196
vt 0.1475 0.7196
vt 0.1516 0.7255
vt 0.1517 0.7258
vt 0.1459 0.7149
vt 0.1460 0.7149
vt 0.1460 0.7218
vt 0.1459 0.7218
vt 0.1459 0.7218
vt 0.1459 0.7149
vt 0.1459 0.7233
vt 0.1459 0.7156
vt 0.1459 0.7156
vt 0.1459 0.7233
vt 0.1477 0.7101
vt 0.1518 0.7039
vt 0.1517 0.7041
vt 0.1477 0.7101
vt 0.1455 0.7222
vt 0.1455 0.7149
vt 0.1453 0.7229
vt 0.1451 0.7229
vt 0.1451 0.7226
vt 0.1453 0.7226
vt 0.1451 0.7149
vt 0.1453 0.7149
vt 0.1568 0.7145
vt 0.1569 0.7148
vt 0.1565 0.7142
vt 0.1566 0.7141
vt 0.1522 0.7076
vt 0.1523 0.7076
vt 0.1522 0.7028
vt 0.1521 0.7030
vt 0.1519 0.7034
vt 0.1518 0.7034
vt 0.1458 0.7149
vt 0.1458 0.7149
vt 0.1458 0.7156
vt 0.1458 0.7156
vt 0.1458 0.7233
vt 0.1458 0.7233
vt 0.1459 0.7149
vt 0.1459 0.7149
vt 0.1460 0.7218
vt 0.1460 0.7149
vt 0.1451 0.7229
vt 0.1451 0.7226
vt 0.1451 0.7149
vt 0.1475 0.7099
vt 0.1475 0.7100
vt 0.1067 0.6668
vt 0.1066 0.6667
vt 0.1094 0.6625
vt 0.1096 0.6622
vt 0.1094 0.6628
vn 1.0000 -0.0000 0.0000
vn 0.9682 0.2503 0.0000
vn 0.9952 0.0983 0.0000
vn 0.6375 0.7705 0.0000
vn 0.6873 0.7263 0.0000
vn 0.4219 0.9066 0.0000
vn 0.8503 0.5263 0.0000
vn 0.9827 0.1853 -0.0000
vn 0.9640 -0.2661 -0.0000
vn 0.9409 -0.3387 -0.0000
vn 0.9727 0.2321 -0.0000
vn -0.9639 -0.2661 -0.0001
vn -0.9644 -0.2643 0.0009
vn -0.6267 -0.7793 0.0031
vn -0.6215 -0.7834 -0.0004
vn 0.1460 -0.9893 -0.0000
vn 0.0047 -1.0000 -0.0000
vn 0.3758 -0.9267 -0.0000
vn 0.6215 -0.7834 -0.0000
vn -1.0000 0.0000 0.0000
vn -0.9456 0.3253 -0.0051
vn -0.9679 0.2513 -0.0020
vn -0.9681 0.2504 0.0001
vn -0.3665 0.9304 -0.0101
vn -0.9078 0.4194 -0.0035
vn -0.6826 0.7308 -0.0031
vn -0.6317 0.7752 -0.0048
vn -0.6874 0.7263 0.0004
vn -0.6374 0.7706 0.0004
vn -0.8364 -0.5480 0.0044
vn -0.3058 -0.9521 0.0086
vn -0.1682 -0.9857 0.0025
vn -0.9961 0.0884 -0.0007
vn -0.9825 0.1863 -0.0006
vn -0.9827 0.1852 0.0001
vn -0.9949 -0.1010 0.0008
vn -0.1621 -0.9868 -0.0003
usemtl Material_UniTex_dif.png
s 1
f 88/109/68 87/110/69 92/111/70 89/112/68
f 86/113/71 85/114/72 93/115/73 94/116/74
f 84/117/75 83/118/76 95/119/77 96/120/78
f 84/117/75 96/120/78 93/121/73 85/122/72
f 78/123/79 97/124/80 98/125/81 79/126/82
f 81/127/83 99/128/84 100/129/85 82/130/86
f 86/131/71 94/132/74 92/111/70 87/110/69
f 90/133/87 101/134/88 102/135/89 91/136/87
f 91/136/87 102/135/89 74/137/90 73/138/87
f 103/139/91 104/140/92 105/141/93 106/142/94
f 106/142/94 105/141/93 76/143/95 75/144/96
f 108/145/97 107/146/98 110/147/99 98/148/81
f 104/149/92 109/150/100 111/151/101 105/152/93
f 105/152/93 111/151/101 77/153/102 76/154/95
f 98/125/81 97/124/80 112/155/103 108/156/97
f 100/157/85 95/119/77 83/118/76 82/158/86
f 101/134/88 103/159/91 106/160/94 102/135/89
f 102/135/89 106/160/94 75/161/96 74/137/90
f 109/150/100 112/155/103 97/124/80 111/151/101
f 111/151/101 97/124/80 78/123/79 77/153/102
f 79/162/82 98/148/81 110/147/99 80/163/104
f 81/164/83 80/165/104 110/166/99 107/167/98 99/168/84
o Cube.007
v -19.026985 0.955876 -37.758335
v -18.743896 0.955876 -37.890343
v -21.483681 0.955871 -43.875538
v -21.766769 0.955871 -43.743534
v -21.483681 1.447079 -43.875538
v -21.461319 1.491615 -43.885963
v -21.329895 1.539268 -43.947250
v -21.306145 1.606316 -43.958321
v -21.306145 1.830536 -43.958321
v -21.328861 1.872462 -43.947739
v -21.423138 1.905698 -43.903774
v -21.827312 1.905698 -43.715294
v -21.921597 1.872462 -43.671333
v -21.944302 1.830536 -43.660748
v -21.944302 1.606316 -43.660744
v -21.920555 1.539268 -43.671822
v -21.789135 1.491615 -43.733101
v -21.766769 1.447079 -43.743530
v -19.204517 1.830541 -37.675549
v -19.181812 1.872467 -37.686134
v -18.589077 1.872467 -37.962540
v -18.566360 1.830542 -37.973125
v -19.087528 1.905703 -37.730099
v -19.204517 1.606321 -37.675545
v -18.566360 1.606321 -37.973125
v -18.683353 1.905703 -37.918575
v -19.026985 1.447084 -37.758331
v -19.049351 1.491620 -37.747902
v -18.721535 1.491620 -37.900764
v -18.743896 1.447084 -37.890343
v -19.180771 1.539274 -37.686623
v -18.590111 1.539274 -37.962051
vt 0.1428 0.7238
vt 0.1427 0.7238
vt 0.1427 0.7238
vt 0.1428 0.7238
vt 0.1708 0.7118
vt 0.1707 0.7118
vt 0.1707 0.7118
vt 0.1708 0.7118
vt 0.1596 0.7146
vt 0.1596 0.7146
vt 0.1596 0.7146
vt 0.1596 0.7146
vt 0.1427 0.7238
vt 0.1427 0.7238
vt 0.1708 0.7118
vt 0.1708 0.7118
vt 0.1143 0.6698
vt 0.1144 0.6698
vt 0.1144 0.6698
vt 0.1143 0.6698
vt 0.1428 0.7238
vt 0.1428 0.7238
vt 0.1661 0.7122
vt 0.1660 0.7122
vt 0.1660 0.7122
vt 0.1661 0.7122
vt 0.1707 0.7118
vt 0.1707 0.7118
vt 0.1682 0.7121
vt 0.1682 0.7121
vt 0.1682 0.7121
vt 0.1682 0.7121
vt 0.1566 0.7267
vt 0.1568 0.7267
vt 0.1568 0.7267
vt 0.1566 0.7267
vt 0.1705 0.7118
vt 0.1703 0.7118
vt 0.1703 0.7118
vt 0.1705 0.7118
vt 0.1568 0.7267
vt 0.1568 0.7267
vt 0.1705 0.7118
vt 0.1705 0.7118
vt 0.1593 0.7146
vt 0.1594 0.7146
vt 0.1594 0.7146
vt 0.1593 0.7146
vn -0.8935 0.1854 0.4090
vn -0.8764 -0.2664 0.4012
vn -0.8765 -0.2658 0.4012
vn -0.8936 0.1851 0.4090
vn 0.8766 -0.2657 -0.4013
vn 0.8936 0.1850 -0.4090
vn 0.8935 0.1854 -0.4090
vn 0.8764 -0.2663 -0.4012
vn 0.1406 -0.9880 -0.0644
vn 0.5660 -0.7826 -0.2591
vn 0.5643 -0.7841 -0.2583
vn 0.1394 -0.9882 -0.0638
vn -0.5642 -0.7842 0.2583
vn -0.5660 -0.7827 0.2591
vn -0.1394 -0.9882 0.0638
vn -0.1407 -0.9880 0.0644
vn -0.6241 0.7273 0.2857
vn -0.6259 0.7254 0.2865
vn -0.5805 0.7697 0.2657
vn -0.5788 0.7713 0.2649
vn 0.6259 0.7253 -0.2865
vn 0.6241 0.7272 -0.2857
vn 0.5787 0.7713 -0.2649
vn 0.5805 0.7697 -0.2657
vn -0.9093 0.0000 0.4162
vn -0.8804 0.2500 0.4030
vn -0.8803 0.2505 0.4030
vn 0.8803 0.2506 -0.4029
vn 0.9093 0.0000 -0.4162
vn 0.8804 0.2500 -0.4030
usemtl Material_UniTex_dif.png
s 1
f 137/169/105 134/170/106 121/171/107 120/172/108
f 131/173/109 136/174/110 127/175/111 126/176/112
f 135/177/113 132/178/114 125/179/115 124/180/116
f 134/170/106 133/181/117 122/182/118 121/171/107
f 132/183/114 131/173/109 126/176/112 125/184/115
f 138/185/119 135/186/113 124/187/116 123/188/120
f 144/189/121 137/169/105 120/172/108 119/190/122
f 141/191/123 144/192/121 119/193/122 118/194/124
f 136/174/110 143/195/125 128/196/126 127/175/111
f 143/197/125 140/198/127 129/199/128 128/200/126
f 114/201/129 142/202/130 117/203/131 115/204/129
f 139/205/132 113/206/133 116/207/133 130/208/134
f 142/202/130 141/209/123 118/210/124 117/203/131
f 140/211/127 139/205/132 130/208/134 129/212/128
f 133/213/117 138/214/119 123/215/120 122/216/118
o Cube.006
v -16.044258 0.955875 -30.557390
v -15.750740 0.955875 -30.664221
v -19.026985 0.955876 -37.758335
v -18.743896 0.955876 -37.890343
v -16.107035 1.905702 -30.534540
v -15.687963 1.905702 -30.687071
v -16.228331 1.830541 -30.490393
v -16.204790 1.872466 -30.498960
v -15.590214 1.872466 -30.722652
v -15.566668 1.830541 -30.731218
v -16.228331 1.606320 -30.490391
v -15.566668 1.606320 -30.731218
v -16.044258 1.447083 -30.557388
v -16.067450 1.491618 -30.548948
v -15.727560 1.491618 -30.672659
v -15.750740 1.447083 -30.664221
v -16.203709 1.539273 -30.499352
v -15.591295 1.539273 -30.722256
v -19.204517 1.830541 -37.675549
v -19.181812 1.872467 -37.686134
v -18.589077 1.872467 -37.962540
v -18.566360 1.830542 -37.973125
v -19.087528 1.905703 -37.730099
v -19.204517 1.606321 -37.675545
v -18.566360 1.606321 -37.973125
v -18.683353 1.905703 -37.918575
v -19.026985 1.447084 -37.758331
v -19.049351 1.491620 -37.747902
v -18.721535 1.491620 -37.900764
v -18.743896 1.447084 -37.890343
v -19.180771 1.539274 -37.686623
v -18.590111 1.539274 -37.962051
vt 0.1708 0.7141
vt 0.1708 0.7141
vt 0.1708 0.7118
vt 0.1708 0.7118
vt 0.1427 0.7262
vt 0.1427 0.7262
vt 0.1427 0.7238
vt 0.1427 0.7238
vt 0.1596 0.7122
vt 0.1596 0.7122
vt 0.1596 0.7146
vt 0.1596 0.7146
vt 0.1707 0.7141
vt 0.1707 0.7118
vt 0.1428 0.7262
vt 0.1428 0.7238
vt 0.1593 0.7122
vt 0.1594 0.7122
vt 0.1594 0.7146
vt 0.1593 0.7146
vt 0.1705 0.7142
vt 0.1705 0.7142
vt 0.1705 0.7118
vt 0.1705 0.7118
vt 0.1568 0.7244
vt 0.1568 0.7244
vt 0.1568 0.7267
vt 0.1568 0.7267
vt 0.1703 0.7142
vt 0.1703 0.7118
vt 0.1566 0.7244
vt 0.1566 0.7267
vt 0.1682 0.7145
vt 0.1682 0.7145
vt 0.1682 0.7121
vt 0.1682 0.7121
vt 0.1707 0.7141
vt 0.1707 0.7118
vt 0.1661 0.7146
vt 0.1660 0.7146
vt 0.1660 0.7122
vt 0.1661 0.7122
vt 0.1428 0.7262
vt 0.1428 0.7238
vt 0.1143 0.6682
vt 0.1144 0.6682
vt 0.1144 0.6698
vt 0.1143 0.6698
vn 0.5689 -0.7879 -0.2357
vn 0.8902 -0.2677 -0.3687
vn 0.5690 -0.7879 -0.2357
vn -0.8911 -0.2640 0.3691
vn -0.5800 -0.7784 0.2403
vn 0.1385 -0.9887 -0.0574
vn 0.9078 0.1860 -0.3760
vn -0.9081 0.1841 0.3761
vn -0.1463 -0.9874 0.0606
vn 0.5947 0.7652 -0.2463
vn 0.8949 0.2484 -0.3707
vn -0.8941 0.2517 0.3704
vn -0.5837 0.7752 0.2418
vn 0.9239 0.0000 -0.3827
vn -0.9239 0.0000 0.3827
vn 0.6295 0.7319 -0.2608
vn -0.6410 0.7201 0.2655
usemtl Material_UniTex_dif.png
s 1
f 152/217/135 151/218/136 163/219/136 164/220/137
f 154/221/138 153/222/139 165/223/139 166/224/138
f 149/225/140 152/226/135 164/227/137 167/228/140
f 151/218/136 155/229/141 168/230/141 163/219/136
f 156/231/142 154/221/138 166/224/138 169/232/142
f 153/233/139 150/234/143 170/235/143 165/236/139
f 158/237/144 157/238/145 171/239/145 172/240/144
f 160/241/146 159/242/147 173/243/147 174/244/146
f 157/238/145 145/245/148 147/246/148 171/239/145
f 146/247/149 160/241/146 174/244/146 148/248/149
f 161/249/150 158/250/144 172/251/144 175/252/150
f 155/229/141 161/253/150 175/254/150 168/230/141
f 159/255/147 162/256/151 176/257/151 173/258/147
f 162/259/151 156/231/142 169/232/142 176/260/151
f 150/261/143 149/262/140 167/263/140 170/264/143
o Cube.005
v -13.700485 0.955873 -23.123886
v -13.398773 0.955873 -23.204727
v -16.044258 0.955875 -30.557390
v -15.750740 0.955875 -30.664221
v -13.334240 1.905701 -23.222019
v -13.765018 1.905701 -23.106592
v -16.107035 1.905702 -30.534540
v -15.687963 1.905702 -30.687071
v -13.889696 1.830539 -23.073185
v -13.865503 1.872465 -23.079668
v -13.233761 1.872465 -23.248943
v -13.209562 1.830539 -23.255426
v -13.889696 1.606318 -23.073183
v -13.209562 1.606318 -23.255426
v -13.700485 1.447082 -23.123882
v -13.724323 1.491617 -23.117496
v -13.374947 1.491617 -23.211113
v -13.398773 1.447082 -23.204727
v -13.864388 1.539272 -23.079964
v -13.234877 1.539272 -23.248646
v -16.228331 1.830541 -30.490393
v -16.204790 1.872466 -30.498960
v -15.590214 1.872466 -30.722652
v -15.566668 1.830541 -30.731218
v -16.228331 1.606320 -30.490391
v -15.566668 1.606320 -30.731218
v -16.044258 1.447083 -30.557388
v -16.067450 1.491618 -30.548948
v -15.727560 1.491618 -30.672659
v -15.750740 1.447083 -30.664221
v -16.203709 1.539273 -30.499352
v -15.591295 1.539273 -30.722256
vt 0.1144 0.6666
vt 0.1146 0.6666
vt 0.1144 0.6682
vt 0.1143 0.6682
vt 0.1708 0.7165
vt 0.1708 0.7165
vt 0.1708 0.7141
vt 0.1708 0.7141
vt 0.1427 0.7286
vt 0.1427 0.7286
vt 0.1427 0.7262
vt 0.1427 0.7262
vt 0.1598 0.7098
vt 0.1598 0.7098
vt 0.1596 0.7122
vt 0.1596 0.7122
vt 0.1707 0.7165
vt 0.1707 0.7141
vt 0.1428 0.7286
vt 0.1428 0.7262
vt 0.1595 0.7098
vt 0.1596 0.7098
vt 0.1594 0.7122
vt 0.1593 0.7122
vt 0.1706 0.7166
vt 0.1705 0.7166
vt 0.1705 0.7142
vt 0.1705 0.7142
vt 0.1568 0.7220
vt 0.1568 0.7220
vt 0.1568 0.7244
vt 0.1568 0.7244
vt 0.1703 0.7166
vt 0.1703 0.7142
vt 0.1566 0.7220
vt 0.1566 0.7244
vt 0.1684 0.7169
vt 0.1684 0.7169
vt 0.1682 0.7145
vt 0.1682 0.7145
vt 0.1707 0.7165
vt 0.1707 0.7141
vt 0.1663 0.7170
vt 0.1662 0.7170
vt 0.1660 0.7146
vt 0.1661 0.7146
vt 0.1429 0.7286
vt 0.1428 0.7262
vn -0.1510 -0.9874 0.0476
vn 0.1430 -0.9887 -0.0451
vn 0.5873 -0.7879 -0.1852
vn 0.9189 -0.2677 -0.2897
vn -0.9199 -0.2640 0.2900
vn -0.5988 -0.7783 0.1888
vn 0.9371 0.1860 -0.2955
vn -0.9374 0.1841 0.2956
vn 0.6139 0.7653 -0.1936
vn 0.9238 0.2484 -0.2913
vn -0.9230 0.2517 0.2910
vn -0.6025 0.7752 0.1900
vn 0.9537 0.0000 -0.3007
vn -0.9537 0.0000 0.3007
vn 0.6499 0.7319 -0.2049
vn -0.6617 0.7201 0.2086
usemtl Material_UniTex_dif.png
s 1
f 181/265/152 182/266/153 183/267/153 184/268/152
f 186/269/154 185/270/155 197/271/155 198/272/154
f 188/273/156 187/274/157 199/275/157 200/276/156
f 182/277/153 186/278/154 198/279/154 183/280/153
f 185/270/155 189/281/158 201/282/158 197/271/155
f 190/283/159 188/273/156 200/276/156 202/284/159
f 187/285/157 181/286/152 184/287/152 199/288/157
f 192/289/160 191/290/161 203/291/161 204/292/160
f 194/293/162 193/294/163 205/295/163 206/296/162
f 191/290/161 177/297/164 179/298/164 203/291/161
f 178/299/165 194/293/162 206/296/162 180/300/165
f 195/301/166 192/302/160 204/303/160 207/304/166
f 189/281/158 195/305/166 207/306/166 201/282/158
f 193/307/163 196/308/167 208/309/167 205/310/163
f 196/311/167 190/283/159 202/284/159 208/312/167
o Cube.004
v -12.013506 0.955872 -15.514394
v -11.705894 0.955872 -15.568634
v -13.700485 0.955873 -23.123886
v -13.398773 0.955873 -23.204727
v -11.512987 1.606317 -15.602649
v -11.538794 1.539270 -15.598099
v -12.079304 1.905699 -15.502792
v -11.640102 1.905699 -15.580235
v -12.206413 1.830538 -15.480377
v -12.181751 1.872464 -15.484728
v -11.537654 1.872464 -15.598299
v -11.512987 1.830538 -15.602649
v -12.206413 1.606317 -15.480374
v -12.013506 1.447080 -15.514391
v -12.037807 1.491616 -15.510106
v -11.681599 1.491616 -15.572917
v -11.705894 1.447080 -15.568634
v -12.180613 1.539270 -15.484925
v -13.334240 1.905701 -23.222019
v -13.765018 1.905701 -23.106592
v -13.889696 1.830539 -23.073185
v -13.865503 1.872465 -23.079668
v -13.233761 1.872465 -23.248943
v -13.209562 1.830539 -23.255426
v -13.889696 1.606318 -23.073183
v -13.209562 1.606318 -23.255426
v -13.700485 1.447082 -23.123882
v -13.724323 1.491617 -23.117496
v -13.374947 1.491617 -23.211113
v -13.398773 1.447082 -23.204727
v -13.864388 1.539272 -23.079964
v -13.234877 1.539272 -23.248646
vt 0.1147 0.6651
vt 0.1148 0.6651
vt 0.1146 0.6666
vt 0.1144 0.6666
vt 0.1709 0.7189
vt 0.1709 0.7189
vt 0.1708 0.7165
vt 0.1708 0.7165
vt 0.1428 0.7310
vt 0.1427 0.7310
vt 0.1427 0.7286
vt 0.1427 0.7286
vt 0.1602 0.7074
vt 0.1602 0.7075
vt 0.1598 0.7098
vt 0.1598 0.7098
vt 0.1708 0.7189
vt 0.1707 0.7165
vt 0.1429 0.7310
vt 0.1428 0.7286
vt 0.1600 0.7074
vt 0.1600 0.7074
vt 0.1596 0.7098
vt 0.1595 0.7098
vt 0.1706 0.7190
vt 0.1706 0.7190
vt 0.1705 0.7166
vt 0.1706 0.7166
vt 0.1568 0.7195
vt 0.1568 0.7195
vt 0.1568 0.7220
vt 0.1568 0.7220
vt 0.1704 0.7190
vt 0.1703 0.7166
vt 0.1566 0.7195
vt 0.1566 0.7220
vt 0.1689 0.7193
vt 0.1688 0.7193
vt 0.1684 0.7169
vt 0.1684 0.7169
vt 0.1707 0.7189
vt 0.1707 0.7165
vt 0.1667 0.7194
vt 0.1667 0.7194
vt 0.1662 0.7170
vt 0.1663 0.7170
vt 0.1429 0.7310
vt 0.1429 0.7286
vn -0.1546 -0.9874 0.0343
vn 0.1464 -0.9887 -0.0325
vn 0.6013 -0.7879 -0.1333
vn 0.9407 -0.2677 -0.2085
vn -0.9417 -0.2639 0.2088
vn -0.6130 -0.7783 0.1359
vn 0.9593 0.1860 -0.2127
vn -0.9596 0.1841 0.2127
vn 0.6285 0.7652 -0.1393
vn 0.9457 0.2484 -0.2097
vn 0.6285 0.7653 -0.1393
vn -0.9449 0.2517 0.2095
vn -0.6168 0.7752 0.1367
vn 0.9763 -0.0000 -0.2164
vn -0.9763 0.0000 0.2164
vn 0.6652 0.7319 -0.1475
vn -0.6774 0.7201 0.1502
usemtl Material_UniTex_dif.png
s 1
f 216/313/168 215/314/169 228/315/169 227/316/168
f 218/317/170 217/318/171 229/319/171 230/320/170
f 220/321/172 219/322/173 231/323/173 232/324/172
f 215/325/169 218/326/170 230/327/170 228/328/169
f 217/318/171 221/329/174 233/330/174 229/319/171
f 213/331/175 220/321/172 232/324/172 234/332/175
f 219/333/173 216/334/168 227/335/168 231/336/173
f 223/337/176 222/338/177 235/339/177 236/340/178
f 225/341/179 224/342/180 237/343/180 238/344/179
f 222/338/177 209/345/181 211/346/181 235/339/177
f 210/347/182 225/341/179 238/344/179 212/348/182
f 226/349/183 223/350/176 236/351/178 239/352/183
f 221/329/174 226/353/183 239/354/183 233/330/174
f 224/355/180 214/356/184 240/357/184 237/358/180
f 214/359/184 213/331/175 234/332/175 240/360/184
o Cube.003
v -10.996158 0.955871 -7.786829
v -10.684987 0.955871 -7.814053
v -12.013506 0.955872 -15.514394
v -11.705894 0.955872 -15.568634
v -10.489848 1.606316 -7.831124
v -10.515952 1.539269 -7.828841
v -10.660411 1.491615 -7.816202
v -11.512987 1.606317 -15.602649
v -11.538794 1.539270 -15.598099
v -11.062711 1.905698 -7.781005
v -10.618434 1.905698 -7.819875
v -11.191297 1.830537 -7.769756
v -11.166343 1.872463 -7.771939
v -10.514802 1.872463 -7.828941
v -10.489848 1.830537 -7.831124
v -11.191297 1.606316 -7.769753
v -10.996158 1.447079 -7.786826
v -11.020734 1.491615 -7.784675
v -10.684987 1.447079 -7.814053
v -11.165193 1.539269 -7.772037
v -12.079304 1.905699 -15.502792
v -11.640102 1.905699 -15.580235
v -12.206413 1.830538 -15.480377
v -12.181751 1.872464 -15.484728
v -11.537654 1.872464 -15.598299
v -11.512987 1.830538 -15.602649
v -12.206413 1.606317 -15.480374
v -12.013506 1.447080 -15.514391
v -12.037807 1.491616 -15.510106
v -11.681599 1.491616 -15.572917
v -11.705894 1.447080 -15.568634
v -12.180613 1.539270 -15.484925
vt 0.1429 0.7334
vt 0.1429 0.7334
vt 0.1429 0.7310
vt 0.1429 0.7310
vt 0.1151 0.6636
vt 0.1152 0.6636
vt 0.1148 0.6651
vt 0.1147 0.6651
vt 0.1709 0.7213
vt 0.1709 0.7213
vt 0.1709 0.7189
vt 0.1709 0.7189
vt 0.1428 0.7334
vt 0.1428 0.7334
vt 0.1427 0.7310
vt 0.1428 0.7310
vt 0.1608 0.7051
vt 0.1608 0.7051
vt 0.1602 0.7075
vt 0.1602 0.7074
vt 0.1708 0.7213
vt 0.1708 0.7189
vt 0.1606 0.7051
vt 0.1606 0.7051
vt 0.1600 0.7074
vt 0.1600 0.7074
vt 0.1706 0.7214
vt 0.1706 0.7214
vt 0.1706 0.7190
vt 0.1706 0.7190
vt 0.1567 0.7171
vt 0.1568 0.7171
vt 0.1568 0.7195
vt 0.1568 0.7195
vt 0.1704 0.7214
vt 0.1704 0.7190
vt 0.1565 0.7171
vt 0.1566 0.7195
vt 0.1695 0.7216
vt 0.1694 0.7216
vt 0.1688 0.7193
vt 0.1689 0.7193
vt 0.1708 0.7213
vt 0.1707 0.7189
vt 0.1673 0.7217
vt 0.1673 0.7218
vt 0.1667 0.7194
vt 0.1667 0.7194
vn -0.6879 0.7201 0.0906
vn -0.9745 0.1841 0.1283
vn -0.1570 -0.9874 0.0207
vn 0.1487 -0.9887 -0.0196
vn 0.6106 -0.7879 -0.0804
vn 0.9553 -0.2677 -0.1258
vn -0.9563 -0.2639 0.1259
vn -0.6225 -0.7783 0.0820
vn 0.9742 0.1860 -0.1282
vn 0.6383 0.7652 -0.0840
vn 0.9604 0.2484 -0.1264
vn -0.9595 0.2517 0.1263
vn -0.6263 0.7752 0.0825
vn 0.9914 0.0000 -0.1305
vn -0.9914 0.0000 0.1305
vn 0.6756 0.7319 -0.0889
usemtl Material_UniTex_dif.png
s 1
f 246/361/185 245/362/186 248/363/186 249/364/185
f 251/365/187 250/366/188 261/367/188 262/368/187
f 253/369/189 252/370/190 263/371/190 264/372/189
f 255/373/191 254/374/192 265/375/192 266/376/191
f 250/377/188 253/378/189 264/379/189 261/380/188
f 252/370/190 256/381/193 267/382/193 263/371/190
f 245/362/186 255/373/191 266/376/191 248/363/186
f 254/383/192 251/384/187 262/385/187 265/386/192
f 258/387/194 257/388/195 268/389/195 269/390/194
f 259/391/196 247/392/197 270/393/197 271/394/196
f 257/388/195 241/395/198 243/396/198 268/389/195
f 242/397/199 259/391/196 271/394/196 244/398/199
f 260/399/200 258/400/194 269/401/194 272/402/200
f 256/381/193 260/403/200 272/404/200 267/382/193
f 247/405/197 246/406/185 249/407/185 270/408/197
o Cube.002
v -10.656177 0.955870 -0.000002
v -10.656177 1.447078 0.000001
v -10.680851 1.491613 0.000001
v -10.825858 1.539268 0.000001
v -10.852068 1.606315 0.000001
v -10.852068 1.830535 -0.000002
v -10.827013 1.872461 -0.000001
v -10.722989 1.905697 -0.000001
v -10.277012 1.905697 -0.000001
v -10.172988 1.872461 -0.000001
v -10.147934 1.830535 -0.000002
v -10.147934 1.606315 -0.000002
v -10.174143 1.539268 -0.000002
v -10.319149 1.491613 -0.000002
v -10.343824 1.447078 -0.000002
v -10.343824 0.955870 -0.000002
v -10.996158 0.955871 -7.786829
v -10.684987 0.955871 -7.814053
v -10.489848 1.606316 -7.831124
v -10.515952 1.539269 -7.828841
v -10.660411 1.491615 -7.816202
v -11.062711 1.905698 -7.781005
v -10.618434 1.905698 -7.819875
v -11.191297 1.830537 -7.769756
v -11.166343 1.872463 -7.771939
v -10.514802 1.872463 -7.828941
v -10.489848 1.830537 -7.831124
v -11.191297 1.606316 -7.769753
v -10.996158 1.447079 -7.786826
v -11.020734 1.491615 -7.784675
v -10.684987 1.447079 -7.814053
v -11.165193 1.539269 -7.772037
vt 0.1430 0.7358
vt 0.1429 0.7358
vt 0.1429 0.7334
vt 0.1429 0.7334
vt 0.1682 0.7240
vt 0.1681 0.7240
vt 0.1673 0.7218
vt 0.1673 0.7217
vt 0.1157 0.6621
vt 0.1158 0.6621
vt 0.1152 0.6636
vt 0.1151 0.6636
vt 0.1710 0.7237
vt 0.1710 0.7237
vt 0.1709 0.7213
vt 0.1709 0.7213
vt 0.1429 0.7358
vt 0.1428 0.7358
vt 0.1428 0.7334
vt 0.1428 0.7334
vt 0.1616 0.7029
vt 0.1617 0.7029
vt 0.1608 0.7051
vt 0.1608 0.7051
vt 0.1709 0.7237
vt 0.1708 0.7213
vt 0.1614 0.7028
vt 0.1615 0.7028
vt 0.1606 0.7051
vt 0.1606 0.7051
vt 0.1707 0.7237
vt 0.1707 0.7237
vt 0.1706 0.7214
vt 0.1706 0.7214
vt 0.1567 0.7148
vt 0.1567 0.7148
vt 0.1568 0.7171
vt 0.1567 0.7171
vt 0.1705 0.7237
vt 0.1704 0.7214
vt 0.1565 0.7148
vt 0.1565 0.7171
vt 0.1703 0.7239
vt 0.1703 0.7239
vt 0.1694 0.7216
vt 0.1695 0.7216
vt 0.1708 0.7237
vt 0.1708 0.7213
vn -0.6932 0.7201 0.0303
vn -0.9820 0.1841 0.0429
vn -0.6311 0.7752 0.0276
vn -0.1582 -0.9874 0.0069
vn 0.1498 -0.9887 -0.0065
vn 0.6152 -0.7879 -0.0269
vn 0.9626 -0.2677 -0.0420
vn -0.9636 -0.2639 0.0421
vn -0.6273 -0.7783 0.0274
vn 0.9816 0.1860 -0.0429
vn 0.6432 0.7652 -0.0281
vn 0.9677 0.2484 -0.0423
vn -0.9669 0.2517 0.0422
vn 0.9990 -0.0000 -0.0436
vn -0.9990 0.0000 0.0436
vn 0.6807 0.7319 -0.0297
usemtl Material_UniTex_dif.png
s 1
f 285/409/201 284/410/202 291/411/202 292/412/201
f 286/413/203 285/414/201 292/415/201 293/416/203
f 281/417/204 280/418/205 294/419/205 295/420/204
f 279/421/206 278/422/207 296/423/207 297/424/206
f 283/425/208 282/426/209 298/427/209 299/428/208
f 280/429/205 279/430/206 297/431/206 294/432/205
f 278/422/207 277/433/210 300/434/210 296/423/207
f 284/410/202 283/425/208 299/428/208 291/411/202
f 282/435/209 281/436/204 295/437/204 298/438/209
f 275/439/211 274/440/212 301/441/212 302/442/211
f 287/443/213 286/444/203 293/445/203 303/446/213
f 274/440/212 273/447/214 289/448/214 301/441/212
f 288/449/215 287/443/213 303/446/213 290/450/215
f 276/451/216 275/452/211 302/453/211 304/454/216
f 277/433/210 276/455/216 304/456/216 300/434/210
o Cube.000
v -2.656176 0.955870 0.000001
v -2.656176 1.447078 0.000004
v -2.680851 1.491613 0.000004
v -2.825857 1.539268 0.000004
v -2.852067 1.606315 0.000004
v -2.852067 1.830536 0.000007
v -2.827012 1.872461 0.000007
v -2.722988 1.905697 0.000007
v -2.277011 1.905697 -0.000001
v -2.172987 1.872461 -0.000002
v -2.147933 1.830536 -0.000002
v -2.147933 1.606315 -0.000001
v -2.174143 1.539268 -0.000001
v -2.319149 1.491613 -0.000001
v -2.343824 1.447078 -0.000001
v -2.343824 0.955870 -0.000001
v -2.343824 0.955880 -64.000000
v -2.343824 1.447088 -64.000000
v -2.319149 1.491624 -64.000000
v -2.174143 1.539278 -64.000000
v -2.147933 1.606325 -64.000000
v -2.147933 1.830546 -64.000000
v -2.172987 1.872472 -64.000000
v -2.277011 1.905707 -64.000000
v -2.722988 1.905707 -63.999992
v -2.827013 1.872472 -63.999992
v -2.852067 1.830546 -63.999992
v -2.852067 1.606325 -63.999996
v -2.825857 1.539278 -63.999996
v -2.680851 1.491624 -63.999996
v -2.656176 1.447088 -63.999996
v -2.656176 0.955880 -64.000000
vt 0.1432 0.7346
vt 0.1432 0.7149
vt 0.1432 0.7149
vt 0.1432 0.7346
vt 0.1037 0.6699
vt 0.1038 0.6699
vt 0.1038 0.6828
vt 0.1037 0.6828
vt 0.1435 0.7149
vt 0.1437 0.7149
vt 0.1437 0.7340
vt 0.1435 0.7340
vt 0.1568 0.7148
vt 0.1569 0.7148
vt 0.1569 0.7345
vt 0.1568 0.7345
vt 0.1435 0.7342
vt 0.1433 0.7342
vt 0.1433 0.7149
vt 0.1435 0.7149
vt 0.1457 0.7149
vt 0.1458 0.7149
vt 0.1458 0.7346
vt 0.1457 0.7346
vt 0.1446 0.7149
vt 0.1447 0.7149
vt 0.1447 0.7340
vt 0.1446 0.7340
vt 0.1522 0.7341
vt 0.1521 0.7341
vt 0.1521 0.7148
vt 0.1522 0.7148
vt 0.1522 0.7148
vt 0.1522 0.7341
vt 0.1446 0.7340
vt 0.1446 0.7149
vt 0.1447 0.7149
vt 0.1447 0.7340
vt 0.1521 0.7341
vt 0.1521 0.7148
vt 0.1430 0.7149
vt 0.1430 0.7346
vt 0.1430 0.7346
vt 0.1430 0.7149
vt 0.1437 0.7149
vt 0.1437 0.7340
vt 0.1432 0.7342
vt 0.1432 0.7149
vn -0.1540 -0.9881 -0.0000
vn -0.6215 -0.7834 -0.0000
vn 0.1540 -0.9881 -0.0000
vn 1.0000 0.0000 0.0000
vn 0.9682 0.2503 0.0000
vn -0.6375 0.7705 0.0000
vn -0.6873 0.7263 0.0000
vn -1.0000 0.0000 0.0000
vn -0.9682 0.2503 0.0000
vn 0.6375 0.7705 0.0000
vn 0.6873 0.7263 0.0000
vn 0.9827 0.1853 0.0000
vn 0.9640 -0.2661 -0.0000
vn -0.9827 0.1853 0.0000
vn -0.9640 -0.2661 -0.0000
vn 0.6215 -0.7834 -0.0000
usemtl Material_UniTex_dif.png
s 1
f 313/457/217 328/458/217 327/459/218 314/460/218
f 329/461/219 328/462/217 313/463/217 312/464/219
f 336/465/220 335/466/221 306/467/221 305/468/220
f 318/469/222 317/470/223 324/471/223 323/472/222
f 320/473/224 319/474/225 322/475/225 321/476/224
f 334/477/226 333/478/227 308/479/227 307/480/226
f 332/481/228 331/482/229 310/483/229 309/484/228
f 316/485/230 315/486/231 326/487/231 325/488/230
f 316/485/230 325/488/230 324/489/223 317/490/223
f 332/481/228 309/484/228 308/491/227 333/492/227
f 310/483/229 331/482/229 330/493/232 311/494/232
f 326/487/231 315/486/231 314/495/218 327/496/218
f 329/497/219 312/498/219 311/499/232 330/500/232
f 334/501/226 307/502/226 306/467/221 335/466/221
f 318/503/222 323/504/222 322/475/225 319/474/225
o Cube.001_Cube.025
v 0.000000 -0.499990 -59.000000
v -13.000000 -0.499990 -61.000000
v -13.000000 0.200010 -61.000000
v -13.000000 0.200010 -59.000000
v -13.000000 -0.499990 -59.000000
v 0.000000 -0.499990 -61.000000
v 0.000000 0.200010 -59.000000
v 0.000000 0.200010 -61.000000
vt 1.0000 0.3077
vt 0.8955 0.3077
vt 0.8955 0.1538
vt 1.0000 0.1538
vt 0.0000 1.0000
vt 0.0000 0.0000
vt 0.2985 0.0000
vt 0.2985 1.0000
vt 1.0000 0.1538
vt 0.8955 0.1538
vt 0.8955 0.0000
vt 1.0000 0.0000
vn 1.0000 0.0000 0.0000
vn 0.0000 1.0000 0.0000
vn -1.0000 0.0000 0.0000
usemtl Material.001
s off
f 338/505/233 339/506/233 340/507/233 341/508/233
f 342/509/234 338/510/234 341/511/234 337/512/234
f 337/513/235 343/514/235 344/515/235 342/516/235
o Cube.001_Cube.024
v 0.000000 -0.499991 -53.000000
v -13.000000 -0.499991 -53.000000
v -13.000000 -0.499992 -51.000000
v 0.000000 -0.499992 -51.000000
v 0.000000 0.200008 -51.000000
v 0.000000 0.200009 -53.000000
v -13.000000 0.200008 -51.000000
v -13.000000 0.200009 -53.000000
vt 0.0000 1.0000
vt 0.0000 0.0000
vt 0.2985 0.0000
vt 0.2985 1.0000
vt 1.0000 0.1538
vt 0.8955 0.1538
vt 0.8955 0.0000
vt 1.0000 0.0000
vt 1.0000 0.3077
vt 0.8955 0.3077
vt 0.8955 0.1538
vt 1.0000 0.1538
vn 0.0000 1.0000 0.0000
vn -1.0000 0.0000 0.0000
vn 1.0000 0.0000 0.0000
usemtl Material.001
s off
f 345/517/236 346/518/236 347/519/236 348/520/236
f 348/521/237 349/522/237 350/523/237 345/524/237
f 346/525/238 352/526/238 351/527/238 347/528/238
o Cube.001_Cube.023
v -13.000000 -0.499993 -45.000000
v 0.000000 -0.499993 -45.000000
v 0.000000 0.200007 -43.000000
v 0.000000 -0.499993 -43.000000
v 0.000000 0.200007 -45.000000
v -13.000000 0.200007 -43.000000
v -13.000000 0.200007 -45.000000
v -13.000000 -0.499993 -43.000000
vt 1.0000 0.1538
vt 0.8955 0.1538
vt 0.8955 0.0000
vt 1.0000 0.0000
vt 1.0000 0.3077
vt 0.8955 0.3077
vt 0.8955 0.1538
vt 1.0000 0.1538
vt 0.0000 1.0000
vt 0.0000 0.0000
vt 0.2985 0.0000
vt 0.2985 1.0000
vn -1.0000 0.0000 0.0000
vn 1.0000 0.0000 0.0000
vn 0.0000 1.0000 0.0000
usemtl Material.001
s off
f 356/529/239 355/530/239 357/531/239 354/532/239
f 353/533/240 359/534/240 358/535/240 360/536/240
f 354/537/241 353/538/241 360/539/241 356/540/241
o Cube.001_Cube.022
v 0.000000 -0.499994 -37.000000
v -20.654846 0.200006 -35.000000
v -20.654846 0.200006 -37.000000
v -20.654846 -0.499994 -35.000000
v 0.000000 -0.499994 -35.000000
v -20.654846 -0.499994 -37.000000
v 0.000000 0.200006 -35.000000
v 0.000000 0.200006 -37.000000
vt 1.0000 0.3077
vt 0.8955 0.3077
vt 0.8955 0.1538
vt 1.0000 0.1538
vt 0.0000 1.0000
vt 0.0000 0.0000
vt 0.2985 0.0000
vt 0.2985 1.0000
vt 1.0000 0.1538
vt 0.8955 0.1538
vt 0.8955 0.0000
vt 1.0000 0.0000
vn 1.0000 0.0000 0.0000
vn 0.0000 1.0000 0.0000
vn -1.0000 0.0000 0.0000
usemtl Material.001
s off
f 366/541/242 363/542/242 362/543/242 364/544/242
f 361/545/243 366/546/243 364/547/243 365/548/243
f 365/549/244 367/550/244 368/551/244 361/552/244
o Cube.001_Cube.021
v -17.575806 -0.499995 -29.000000
v -17.575806 0.200005 -29.000000
v -17.575806 0.200004 -27.000000
v -17.575806 -0.499996 -27.000000
v 0.000000 -0.499995 -29.000000
v 0.000000 -0.499996 -27.000000
v 0.000000 0.200004 -27.000000
v 0.000000 0.200005 -29.000000
vt 1.0000 0.3077
vt 0.8955 0.3077
vt 0.8955 0.1538
vt 1.0000 0.1538
vt 0.0000 1.0000
vt 0.0000 0.0000
vt 0.2985 0.0000
vt 0.2985 1.0000
vt 1.0000 0.1538
vt 0.8955 0.1538
vt 0.8955 0.0000
vt 1.0000 0.0000
vn 1.0000 0.0000 0.0000
vn 0.0000 1.0000 0.0000
vn -1.0000 0.0000 0.0000
usemtl Material.001
s off
f 369/553/245 370/554/245 371/555/245 372/556/245
f 373/557/246 369/558/246 372/559/246 374/560/246
f 374/561/247 375/562/247 376/563/247 373/564/247
o Cube.001_Cube.020
v 0.000000 -0.499997 -19.000000
v -15.257965 -0.499997 -19.000000
v 0.000000 0.200003 -21.000000
v 0.000000 0.200003 -19.000000
v -15.257965 -0.499997 -21.000000
v 0.000000 -0.499997 -21.000000
v -15.257965 0.200003 -21.000000
v -15.257965 0.200003 -19.000000
vt 1.0000 0.3077
vt 0.8955 0.3077
vt 0.8955 0.1538
vt 1.0000 0.1538
vt 0.0000 1.0000
vt 0.0000 0.0000
vt 0.2985 0.0000
vt 0.2985 1.0000
vt 1.0000 0.1538
vt 0.8955 0.1538
vt 0.8955 0.0000
vt 1.0000 0.0000
vn 1.0000 0.0000 0.0000
vn 0.0000 1.0000 0.0000
vn -1.0000 0.0000 0.0000
usemtl Material.001
s off
f 381/565/248 383/566/248 384/567/248 378/568/248
f 382/569/249 381/570/249 378/571/249 377/572/249
f 377/573/250 380/574/250 379/575/250 382/576/250
o Cube.001_Cube.019
v 0.000000 0.200002 -11.000000
v 0.000000 -0.499998 -11.000000
v -13.914375 -0.499998 -13.000000
v 0.000000 -0.499998 -13.000000
v -13.914375 0.200002 -13.000000
v -13.914375 0.200002 -11.000000
v -13.914375 -0.499998 -11.000000
v 0.000000 0.200002 -13.000000
vt 1.0000 0.3077
vt 0.8955 0.3077
vt 0.8955 0.1538
vt 1.0000 0.1538
vt 0.0000 1.0000
vt 0.0000 0.0000
vt 0.2985 0.0000
vt 0.2985 1.0000
vt 1.0000 0.1538
vt 0.8955 0.1538
vt 0.8955 0.0000
vt 1.0000 0.0000
vn 1.0000 0.0000 0.0000
vn 0.0000 1.0000 0.0000
vn -1.0000 0.0000 0.0000
usemtl Material.001
s off
f 387/577/251 389/578/251 390/579/251 391/580/251
f 388/581/252 387/582/252 391/583/252 386/584/252
f 386/585/253 385/586/253 392/587/253 388/588/253
o Cube.001_Cube.018
v -13.000000 0.200000 -3.000000
v -13.000000 0.200001 -5.000000
v 0.000000 -0.500000 -3.000000
v 0.000000 -0.499999 -5.000000
v -13.000000 -0.499999 -5.000000
v -13.000000 -0.500000 -3.000000
v 0.000000 0.200000 -3.000000
v 0.000000 0.200001 -5.000000
vt 0.0000 1.0000
vt 0.0000 0.0000
vt 0.2985 0.0000
vt 0.2985 1.0000
vt 1.0000 0.1538
vt 0.8955 0.1538
vt 0.8955 0.0000
vt 1.0000 0.0000
vt 1.0000 0.3077
vt 0.8955 0.3077
vt 0.8955 0.1538
vt 1.0000 0.1538
vn 0.0000 1.0000 0.0000
vn -1.0000 0.0000 0.0000
vn 1.0000 0.0000 0.0000
usemtl Material.001
s off
f 396/589/254 397/590/254 398/591/254 395/592/254
f 395/593/255 399/594/255 400/595/255 396/596/255
f 397/597/256 394/598/256 393/599/256 398/600/256
o Cube.001_Cube.017
v -5.000000 0.200005 -29.000000
v -3.765994 0.500005 -29.000000
v -3.765994 0.500004 -27.000000
v -5.000000 0.200004 -27.000000
v -1.234006 0.500004 -27.000000
v 0.000000 0.200004 -27.000000
v -1.234006 0.500005 -29.000000
v 0.000000 0.200005 -29.000000
vt 0.2985 0.3846
vt 0.2985 0.2897
vt 0.5970 0.2897
vt 0.5970 0.3846
vt 0.5970 0.0949
vt 0.2985 0.0949
vt 0.2985 0.0000
vt 0.5970 0.0000
vn 0.2362 -0.9717 -0.0000
vn -0.2362 -0.9717 -0.0000
vn 0.0000 -1.0000 -0.0000
usemtl Material.001
s off
f 401/601/257 402/602/257 403/603/257 404/604/257
f 405/605/258 407/606/258 408/607/258 406/608/258
f 402/602/259 407/606/259 405/605/259 403/603/259
o Cube.001_Cube.016
v -3.765994 0.500006 -37.000000
v -5.000000 0.200006 -37.000000
v -5.000000 0.200006 -35.000000
v -1.234006 0.500006 -37.000000
v -1.234006 0.500006 -35.000000
v 0.000000 0.200006 -35.000000
v -3.765994 0.500006 -35.000000
v 0.000000 0.200006 -37.000000
vt 0.2985 0.3846
vt 0.2985 0.2897
vt 0.5970 0.2897
vt 0.5970 0.3846
vt 0.2985 0.0949
vt 0.5970 0.0949
vt 0.2985 0.0000
vt 0.5970 0.0000
vn 0.2362 -0.9717 -0.0000
vn 0.0000 -1.0000 -0.0000
vn -0.2362 -0.9717 -0.0000
usemtl Material.001
s off
f 410/609/260 409/610/260 415/611/260 411/612/260
f 409/610/261 412/613/261 413/614/261 415/611/261
f 413/614/262 412/613/262 416/615/262 414/616/262
o Cube.001_Cube.015
v -1.234006 0.500007 -43.000000
v 0.000000 0.200007 -43.000000
v 0.000000 0.200007 -45.000000
v -5.000000 0.200007 -45.000000
v -5.000000 0.200007 -43.000000
v -3.765994 0.500007 -45.000000
v -3.765994 0.500007 -43.000000
v -1.234006 0.500007 -45.000000
vt 0.2985 0.3846
vt 0.2985 0.2897
vt 0.5970 0.2897
vt 0.5970 0.3846
vt 0.2985 0.0949
vt 0.5970 0.0949
vt 0.2985 0.0000
vt 0.5970 0.0000
vn 0.2362 -0.9717 -0.0000
vn 0.0000 -1.0000 -0.0000
vn -0.2362 -0.9717 -0.0000
usemtl Material.001
s off
f 420/617/263 422/618/263 423/619/263 421/620/263
f 422/618/264 424/621/264 417/622/264 423/619/264
f 417/622/265 424/621/265 419/623/265 418/624/265
o Cube.001_Cube.014
v -3.765994 0.500009 -53.000000
v -1.234006 0.500009 -53.000000
v -1.234006 0.500008 -51.000000
v -3.765994 0.500008 -51.000000
v 0.000000 0.200008 -51.000000
v -5.000000 0.200009 -53.000000
v -5.000000 0.200008 -51.000000
v 0.000000 0.200009 -53.000000
vt 0.2985 0.2897
vt 0.2985 0.0949
vt 0.5970 0.0949
vt 0.5970 0.2897
vt 0.2985 0.3846
vt 0.5970 0.3846
vt 0.2985 0.0000
vt 0.5970 0.0000
vn 0.0000 -1.0000 -0.0000
vn 0.2362 -0.9717 -0.0000
vn -0.2362 -0.9717 -0.0000
usemtl Material.001
s off
f 425/625/266 426/626/266 427/627/266 428/628/266
f 430/629/267 425/625/267 428/628/267 431/630/267
f 427/627/268 426/626/268 432/631/268 429/632/268
o Cube.001_Cube.013
v -5.000000 0.200010 -59.000000
v -5.000000 0.200010 -61.000000
v -3.765994 0.500010 -61.000000
v -3.765994 0.500010 -59.000000
v -1.234006 0.500010 -61.000000
v -1.234006 0.500010 -59.000000
v 0.000000 0.200010 -59.000000
v 0.000000 0.200010 -61.000000
vt 0.2985 0.3846
vt 0.2985 0.2897
vt 0.5970 0.2897
vt 0.5970 0.3846
vt 0.2985 0.0949
vt 0.5970 0.0949
vt 0.2985 0.0000
vt 0.5970 0.0000
vn 0.2362 -0.9717 -0.0000
vn 0.0000 -1.0000 -0.0000
vn -0.2362 -0.9717 -0.0000
usemtl Material.001
s off
f 434/633/269 435/634/269 436/635/269 433/636/269
f 435/634/270 437/637/270 438/638/270 436/635/270
f 438/638/271 437/637/271 440/639/271 439/640/271
o Cube.001_Cube.012
v -8.000000 0.200010 -59.000000
v -8.000000 0.200010 -61.000000
v -9.234006 0.500010 -61.000000
v -13.000000 0.200010 -61.000000
v -13.000000 0.200010 -59.000000
v -11.765994 0.500010 -61.000000
v -11.765994 0.500010 -59.000000
v -9.234006 0.500010 -59.000000
vt 0.2985 0.9051
vt 0.5970 0.9051
vt 0.5970 1.0000
vt 0.2985 1.0000
vt 0.2985 0.7103
vt 0.5970 0.7103
vt 0.2985 0.6154
vt 0.5970 0.6154
vn 0.2362 -0.9717 -0.0000
vn 0.0000 -1.0000 -0.0000
vn -0.2362 -0.9717 -0.0000
usemtl Material.001
s off
f 446/641/272 447/642/272 445/643/272 444/644/272
f 446/641/273 443/645/273 448/646/273 447/642/273
f 443/645/274 442/647/274 441/648/274 448/646/274
o Cube.001_Cube.011
v -8.000000 0.200008 -51.000000
v -9.234006 0.500009 -53.000000
v -8.000000 0.200009 -53.000000
v -9.234006 0.500008 -51.000000
v -11.765994 0.500008 -51.000000
v -11.765994 0.500009 -53.000000
v -13.000000 0.200008 -51.000000
v -13.000000 0.200009 -53.000000
vt 0.2985 0.7103
vt 0.2985 0.6154
vt 0.5970 0.6154
vt 0.5970 0.7103
vt 0.2985 0.9051
vt 0.5970 0.9051
vt 0.5970 1.0000
vt 0.2985 1.0000
vn -0.2362 -0.9717 -0.0000
vn 0.2362 -0.9717 -0.0000
vn 0.0000 -1.0000 -0.0000
usemtl Material.001
s off
f 450/649/275 451/650/275 449/651/275 452/652/275
f 454/653/276 453/654/276 455/655/276 456/656/276
f 454/653/277 450/649/277 452/652/277 453/654/277
o Cube.001_Cube.010
v -8.000000 0.200007 -45.000000
v -8.000000 0.200007 -43.000000
v -11.765994 0.500007 -45.000000
v -11.765994 0.500007 -43.000000
v -13.000000 0.200007 -43.000000
v -13.000000 0.200007 -45.000000
v -9.234006 0.500007 -43.000000
v -9.234006 0.500007 -45.000000
vt 0.2985 0.9051
vt 0.5970 0.9051
vt 0.5970 1.0000
vt 0.2985 1.0000
vt 0.2985 0.7103
vt 0.2985 0.6154
vt 0.5970 0.6154
vt 0.5970 0.7103
vn 0.2362 -0.9717 -0.0000
vn -0.2362 -0.9717 -0.0000
vn 0.0000 -1.0000 -0.0000
usemtl Material.001
s off
f 459/657/278 460/658/278 461/659/278 462/660/278
f 464/661/279 457/662/279 458/663/279 463/664/279
f 459/657/280 464/661/280 463/664/280 460/658/280
o Cube.001_Cube.009
v -19.420841 0.500006 -37.000000
v -19.420841 0.500006 -35.000000
v -20.654846 0.200006 -35.000000
v -20.654846 0.200006 -37.000000
v -16.888851 0.500006 -35.000000
v -15.654846 0.200006 -35.000000
v -16.888851 0.500006 -37.000000
v -15.654846 0.200006 -37.000000
vt 0.2985 0.9051
vt 0.5970 0.9051
vt 0.5970 1.0000
vt 0.2985 1.0000
vt 0.2985 0.7103
vt 0.2985 0.6154
vt 0.5970 0.6154
vt 0.5970 0.7103
vn 0.2362 -0.9717 -0.0000
vn -0.2362 -0.9717 -0.0000
vn 0.0000 -1.0000 -0.0000
usemtl Material.001
s off
f 465/665/281 466/666/281 467/667/281 468/668/281
f 471/669/282 472/670/282 470/671/282 469/672/282
f 465/665/283 471/669/283 469/672/283 466/666/283
o Cube.001_Cube.007
v -17.575806 0.200005 -29.000000
v -17.575806 0.200004 -27.000000
v -16.341801 0.500005 -29.000000
v -13.809812 0.500005 -29.000000
v -12.575806 0.200005 -29.000000
v -12.575806 0.200004 -27.000000
v -13.809812 0.500004 -27.000000
v -16.341801 0.500004 -27.000000
vt 0.2985 0.7103
vt 0.2985 0.6154
vt 0.5970 0.6154
vt 0.5970 0.7103
vt 0.2985 0.9051
vt 0.5970 0.9051
vt 0.5970 1.0000
vt 0.2985 1.0000
vn -0.2362 -0.9717 -0.0000
vn 0.2362 -0.9717 -0.0000
vn 0.0000 -1.0000 -0.0000
usemtl Material.001
s off
f 476/673/284 477/674/284 478/675/284 479/676/284
f 475/677/285 480/678/285 474/679/285 473/680/285
f 475/677/286 476/673/286 479/676/286 480/678/286
o Cube.001_Cube.006
v -10.257965 0.200003 -19.000000
v -11.491971 0.500003 -21.000000
v -10.257965 0.200003 -21.000000
v -11.491971 0.500003 -19.000000
v -15.257965 0.200003 -21.000000
v -15.257965 0.200003 -19.000000
v -14.023959 0.500003 -21.000000
v -14.023959 0.500003 -19.000000
vt 0.2985 0.7103
vt 0.2985 0.6154
vt 0.5970 0.6154
vt 0.5970 0.7103
vt 0.2985 0.9051
vt 0.5970 0.9051
vt 0.5970 1.0000
vt 0.2985 1.0000
vn -0.2362 -0.9717 -0.0000
vn 0.2362 -0.9717 -0.0000
vn 0.0000 -1.0000 -0.0000
usemtl Material.001
s off
f 482/681/287 483/682/287 481/683/287 484/684/287
f 487/685/288 488/686/288 486/687/288 485/688/288
f 487/685/289 482/681/289 484/684/289 488/686/289
o Cube.001_Cube.005
v -1.234006 0.500003 -19.000000
v -1.234006 0.500003 -21.000000
v 0.000000 0.200003 -21.000000
v 0.000000 0.200003 -19.000000
v -5.000000 0.200003 -21.000000
v -5.000000 0.200003 -19.000000
v -3.765994 0.500003 -21.000000
v -3.765994 0.500003 -19.000000
vt 0.5970 0.0949
vt 0.2985 0.0949
vt 0.2985 0.0000
vt 0.5970 0.0000
vt 0.2985 0.2897
vt 0.5970 0.2897
vt 0.2985 0.3846
vt 0.5970 0.3846
vn -0.2362 -0.9717 -0.0000
vn 0.0000 -1.0000 -0.0000
vn 0.2362 -0.9717 -0.0000
usemtl Material.001
s off
f 489/689/290 490/690/290 491/691/290 492/692/290
f 495/693/291 490/690/291 489/689/291 496/694/291
f 493/695/292 495/693/292 496/694/292 494/696/292
o Cube.001_Cube.004
v -1.234006 0.500002 -11.000000
v 0.000000 0.200002 -11.000000
v -5.000000 0.200002 -13.000000
v -5.000000 0.200002 -11.000000
v -3.765994 0.500002 -13.000000
v -1.234006 0.500002 -13.000000
v -3.765994 0.500002 -11.000000
v 0.000000 0.200002 -13.000000
vt 0.2985 0.2897
vt 0.2985 0.0949
vt 0.5970 0.0949
vt 0.5970 0.2897
vt 0.2985 0.3846
vt 0.5970 0.3846
vt 0.2985 0.0000
vt 0.5970 0.0000
vn 0.0000 -1.0000 -0.0000
vn 0.2362 -0.9717 -0.0000
vn -0.2362 -0.9717 -0.0000
usemtl Material.001
s off
f 501/697/293 502/698/293 497/699/293 503/700/293
f 499/701/294 501/697/294 503/700/294 500/702/294
f 497/699/295 502/698/295 504/703/295 498/704/295
o Cube.001_Cube.003
v -8.914375 0.200002 -13.000000
v -8.914375 0.200002 -11.000000
v -10.148381 0.500002 -13.000000
v -12.680369 0.500002 -13.000000
v -10.148381 0.500002 -11.000000
v -13.914375 0.200002 -13.000000
v -13.914375 0.200002 -11.000000
v -12.680369 0.500002 -11.000000
vt 0.2985 0.7103
vt 0.2985 0.6154
vt 0.5970 0.6154
vt 0.5970 0.7103
vt 0.2985 0.9051
vt 0.5970 0.9051
vt 0.5970 1.0000
vt 0.2985 1.0000
vn -0.2362 -0.9717 -0.0000
vn 0.2362 -0.9717 -0.0000
vn 0.0000 -1.0000 -0.0000
usemtl Material.001
s off
f 507/705/296 505/706/296 506/707/296 509/708/296
f 508/709/297 512/710/297 511/711/297 510/712/297
f 508/709/298 507/705/298 509/708/298 512/710/298
o Cube.001_Cube.001
v -11.765994 0.500001 -5.000000
v -11.765994 0.500000 -3.000000
v -13.000000 0.200000 -3.000000
v -13.000000 0.200001 -5.000000
v -8.000000 0.200000 -3.000000
v -9.234006 0.500001 -5.000000
v -9.234006 0.500000 -3.000000
v -8.000000 0.200001 -5.000000
vt 0.2985 0.9051
vt 0.5970 0.9051
vt 0.5970 1.0000
vt 0.2985 1.0000
vt 0.2985 0.7103
vt 0.5970 0.7103
vt 0.2985 0.6154
vt 0.5970 0.6154
vn 0.2362 -0.9717 -0.0000
vn 0.0000 -1.0000 -0.0000
vn -0.2362 -0.9717 -0.0000
usemtl Material.001
s off
f 513/713/299 514/714/299 515/715/299 516/716/299
f 513/713/300 518/717/300 519/718/300 514/714/300
f 518/717/301 520/719/301 517/720/301 519/718/301
o Cube.001_Cube.000
v -5.000000 0.200000 -3.000000
v -3.765994 0.500001 -5.000000
v -1.234006 0.500001 -5.000000
v -1.234006 0.500000 -3.000000
v -3.765994 0.500000 -3.000000
v -5.000000 0.200001 -5.000000
v 0.000000 0.200000 -3.000000
v 0.000000 0.200001 -5.000000
vt 0.2985 0.2897
vt 0.2985 0.0949
vt 0.5970 0.0949
vt 0.5970 0.2897
vt 0.2985 0.3846
vt 0.5970 0.3846
vt 0.2985 0.0000
vt 0.5970 0.0000
vn 0.0000 -1.0000 -0.0000
vn 0.2362 -0.9717 -0.0000
vn -0.2362 -0.9717 -0.0000
usemtl Material.001
s off
f 522/721/302 523/722/302 524/723/302 525/724/302
f 526/725/303 522/721/303 525/724/303 521/726/303
f 524/723/304 523/722/304 528/727/304 527/728/304
