# Blender v2.78 (sub 0) OBJ File: 'RailSwitchRightEnding_col.blend'
# www.blender.org
mtllib RailSwitchRightEnding_col.mtl
o Cube.042_Cube.048
v 10.343824 0.955870 -0.000002
v 10.852068 1.606315 0.000001
v 10.174143 1.539268 -0.000002
v 10.852068 1.830535 -0.000002
v 10.147934 1.830535 -0.000002
v 10.680851 1.491614 0.000001
v 10.343824 1.447078 -0.000002
v 10.656177 0.955870 -0.000002
v 10.825858 1.539268 0.000001
v 10.147934 1.606315 -0.000002
v 10.277012 1.905697 -0.000002
v 10.722988 1.905697 -0.000002
v 10.827013 1.872461 -0.000002
v 10.172988 1.872461 -0.000002
v 10.656177 1.447078 0.000001
v 10.319149 1.491614 -0.000002
v 10.343781 0.955864 7.999998
v 10.852025 1.606309 8.000001
v 10.852025 1.830530 7.999998
v 10.343781 1.447072 7.999998
v 10.276970 1.905691 7.999998
v 10.722946 1.905691 7.999998
v 10.826971 1.872456 7.999998
v 10.172945 1.872456 7.999998
v 10.656134 1.447072 8.000001
v 10.656134 0.955864 7.999998
v 10.319106 1.491608 7.999998
v 10.174101 1.539262 7.999998
v 10.825815 1.539262 8.000001
v 10.680809 1.491608 8.000001
v 10.147891 1.606309 7.999998
v 10.147891 1.830530 7.999998
vt 0.1615 0.7028
vt 0.1614 0.7028
vt 0.1614 0.7028
vt 0.1615 0.7028
vt 0.1429 0.7358
vt 0.1429 0.7358
vt 0.1429 0.7358
vt 0.1429 0.7358
vt 0.1428 0.7358
vt 0.1428 0.7358
vt 0.1705 0.7237
vt 0.1707 0.7237
vt 0.1707 0.7237
vt 0.1705 0.7237
vt 0.1710 0.7237
vt 0.1710 0.7237
vt 0.1710 0.7237
vt 0.1710 0.7237
vt 0.1430 0.7358
vt 0.1430 0.7358
vt 0.1708 0.7237
vt 0.1709 0.7237
vt 0.1709 0.7237
vt 0.1708 0.7237
vt 0.1681 0.7240
vt 0.1682 0.7240
vt 0.1682 0.7240
vt 0.1681 0.7240
vt 0.1703 0.7239
vt 0.1703 0.7239
vt 0.1703 0.7239
vt 0.1703 0.7239
vt 0.1567 0.7148
vt 0.1565 0.7148
vt 0.1565 0.7148
vt 0.1567 0.7148
vt 0.1567 0.7148
vt 0.1567 0.7148
vt 0.1158 0.6621
vt 0.1157 0.6621
vt 0.1157 0.6621
vt 0.1158 0.6621
vt 0.1707 0.7237
vt 0.1707 0.7237
vt 0.1617 0.7029
vt 0.1616 0.7029
vt 0.1616 0.7029
vt 0.1617 0.7029
vn -0.1540 0.9881 -0.0000
vn -0.6215 0.7834 -0.0000
vn -0.9640 0.2661 -0.0000
vn -0.9827 -0.1852 -0.0000
vn 1.0000 -0.0000 0.0000
vn 0.9682 -0.2503 0.0000
vn 0.9640 0.2661 0.0000
vn 0.6215 0.7834 0.0000
vn -0.6874 -0.7263 -0.0000
vn 0.6873 -0.7263 0.0000
vn 0.9827 -0.1853 0.0000
vn -0.6374 -0.7705 -0.0000
vn 0.6374 -0.7705 0.0000
vn -0.9682 -0.2503 -0.0000
vn -1.0000 0.0000 -0.0000
vn 0.1540 0.9881 0.0000
usemtl Material
s 1
f 11/1/1 14/2/2 24/3/2 21/4/1
f 5/5/3 10/6/4 31/7/4 32/8/3
f 14/9/2 5/5/3 32/8/3 24/10/2
f 8/11/5 15/12/6 25/13/6 26/14/5
f 4/15/7 13/16/8 23/17/8 19/18/7
f 10/6/4 3/19/9 28/20/9 31/7/4
f 9/21/10 2/22/11 18/23/11 29/24/10
f 3/25/9 16/26/12 27/27/12 28/28/9
f 2/22/11 4/15/7 19/18/7 18/23/11
f 6/29/13 9/30/10 29/31/10 30/32/13
f 7/33/14 1/34/15 17/35/15 20/36/14
f 16/37/12 7/33/14 20/36/14 27/38/12
f 12/39/16 11/40/1 21/41/1 22/42/16
f 15/12/6 6/43/13 30/44/13 25/13/6
f 13/45/8 12/46/16 22/47/16 23/48/8
o Cube.041_Cube.047
v 10.343824 0.955870 -0.000002
v 10.852068 1.606315 0.000001
v 10.174143 1.539268 -0.000002
v 10.852068 1.830535 -0.000002
v 10.147934 1.830535 -0.000002
v 10.680851 1.491614 0.000001
v 10.343824 1.447078 -0.000002
v 10.656177 0.955870 -0.000002
v 10.825858 1.539268 0.000001
v 10.147934 1.606315 -0.000002
v 10.277012 1.905697 -0.000002
v 10.722988 1.905697 -0.000002
v 10.827013 1.872461 -0.000002
v 10.172988 1.872461 -0.000002
v 10.656177 1.447078 0.000001
v 10.319149 1.491614 -0.000002
v 10.996158 0.955870 -7.786829
v 10.684987 0.955870 -7.814052
v 11.191297 1.606315 -7.769753
v 11.165193 1.539268 -7.772038
v 10.515952 1.539268 -7.828841
v 10.489848 1.606315 -7.831125
v 10.618434 1.905697 -7.819875
v 11.062711 1.905697 -7.781006
v 11.191297 1.830535 -7.769756
v 11.166343 1.872461 -7.771939
v 10.514802 1.872461 -7.828942
v 10.489848 1.830535 -7.831125
v 11.020734 1.491614 -7.784676
v 10.996158 1.447078 -7.786826
v 10.684987 1.447078 -7.814052
v 10.660411 1.491614 -7.816203
vt 0.1430 0.7358
vt 0.1429 0.7358
vt 0.1429 0.7334
vt 0.1429 0.7334
vt 0.1682 0.7240
vt 0.1681 0.7240
vt 0.1673 0.7218
vt 0.1673 0.7217
vt 0.1157 0.6621
vt 0.1158 0.6621
vt 0.1152 0.6636
vt 0.1151 0.6636
vt 0.1710 0.7237
vt 0.1710 0.7237
vt 0.1709 0.7213
vt 0.1709 0.7213
vt 0.1429 0.7358
vt 0.1428 0.7358
vt 0.1428 0.7334
vt 0.1428 0.7334
vt 0.1616 0.7029
vt 0.1617 0.7029
vt 0.1608 0.7051
vt 0.1608 0.7051
vt 0.1709 0.7237
vt 0.1708 0.7213
vt 0.1614 0.7028
vt 0.1615 0.7028
vt 0.1606 0.7051
vt 0.1606 0.7051
vt 0.1707 0.7237
vt 0.1707 0.7237
vt 0.1706 0.7214
vt 0.1706 0.7214
vt 0.1567 0.7148
vt 0.1567 0.7148
vt 0.1568 0.7171
vt 0.1567 0.7171
vt 0.1705 0.7237
vt 0.1704 0.7214
vt 0.1565 0.7148
vt 0.1565 0.7171
vt 0.1703 0.7239
vt 0.1703 0.7239
vt 0.1694 0.7216
vt 0.1695 0.7216
vt 0.1708 0.7237
vt 0.1708 0.7213
vn -0.6932 -0.7201 -0.0303
vn -0.9820 -0.1841 -0.0429
vn -0.6311 -0.7752 -0.0276
vn -0.1582 0.9874 -0.0069
vn 0.1498 0.9887 0.0065
vn 0.6152 0.7879 0.0269
vn 0.9626 0.2677 0.0420
vn -0.9636 0.2639 -0.0421
vn -0.6273 0.7783 -0.0274
vn 0.9816 -0.1860 0.0429
vn 0.6432 -0.7652 0.0281
vn 0.9677 -0.2484 0.0423
vn -0.9669 -0.2517 -0.0422
vn 0.9990 -0.0000 0.0436
vn -0.9990 0.0000 -0.0436
vn 0.6807 -0.7319 0.0297
usemtl Material
s 1
f 35/49/17 42/50/18 54/51/18 53/52/17
f 48/53/19 35/54/17 53/55/17 64/56/19
f 43/57/20 44/58/21 56/59/21 55/60/20
f 45/61/22 36/62/23 57/63/23 58/64/22
f 37/65/24 46/66/25 59/67/25 60/68/24
f 44/69/21 45/70/22 58/71/22 56/72/21
f 36/62/23 34/73/26 51/74/26 57/63/23
f 42/50/18 37/65/24 60/68/24 54/51/18
f 46/75/25 43/76/20 55/77/20 59/78/25
f 38/79/27 47/80/28 62/81/28 61/82/27
f 39/83/29 48/84/19 64/85/19 63/86/29
f 47/80/28 40/87/30 49/88/30 62/81/28
f 33/89/31 39/83/29 63/86/29 50/90/31
f 41/91/32 38/92/27 61/93/27 52/94/32
f 34/73/26 41/95/32 52/96/32 51/74/26
o Cube.040_Cube.046
v 10.996158 0.955870 -7.786829
v 10.684987 0.955870 -7.814052
v 11.191297 1.606315 -7.769753
v 11.165193 1.539268 -7.772038
v 10.515952 1.539268 -7.828841
v 10.489848 1.606315 -7.831125
v 10.618434 1.905697 -7.819875
v 11.062711 1.905697 -7.781006
v 11.191297 1.830535 -7.769756
v 11.166343 1.872461 -7.771939
v 10.514802 1.872461 -7.828942
v 10.489848 1.830535 -7.831125
v 11.020734 1.491614 -7.784676
v 10.996158 1.447078 -7.786826
v 10.684987 1.447078 -7.814052
v 10.660411 1.491614 -7.816203
v 12.013506 0.955870 -15.514394
v 11.705894 0.955870 -15.568634
v 12.206413 1.606315 -15.480375
v 12.180613 1.539268 -15.484926
v 11.538794 1.539268 -15.598099
v 11.512987 1.606315 -15.602650
v 11.640102 1.905697 -15.580235
v 12.079304 1.905697 -15.502792
v 12.206413 1.830535 -15.480377
v 12.181751 1.872461 -15.484728
v 11.537655 1.872461 -15.598299
v 11.512987 1.830535 -15.602650
v 12.037807 1.491614 -15.510107
v 12.013506 1.447078 -15.514391
v 11.705894 1.447078 -15.568634
v 11.681599 1.491614 -15.572918
vt 0.1429 0.7334
vt 0.1429 0.7334
vt 0.1429 0.7310
vt 0.1429 0.7310
vt 0.1151 0.6636
vt 0.1152 0.6636
vt 0.1148 0.6651
vt 0.1147 0.6651
vt 0.1709 0.7213
vt 0.1709 0.7213
vt 0.1709 0.7189
vt 0.1709 0.7189
vt 0.1428 0.7334
vt 0.1428 0.7334
vt 0.1427 0.7310
vt 0.1428 0.7310
vt 0.1608 0.7051
vt 0.1608 0.7051
vt 0.1602 0.7075
vt 0.1602 0.7074
vt 0.1708 0.7213
vt 0.1708 0.7189
vt 0.1606 0.7051
vt 0.1606 0.7051
vt 0.1600 0.7074
vt 0.1600 0.7074
vt 0.1706 0.7214
vt 0.1706 0.7214
vt 0.1706 0.7190
vt 0.1706 0.7190
vt 0.1567 0.7171
vt 0.1568 0.7171
vt 0.1568 0.7195
vt 0.1568 0.7195
vt 0.1704 0.7214
vt 0.1704 0.7190
vt 0.1565 0.7171
vt 0.1566 0.7195
vt 0.1695 0.7216
vt 0.1694 0.7216
vt 0.1688 0.7193
vt 0.1689 0.7193
vt 0.1708 0.7213
vt 0.1707 0.7189
vt 0.1673 0.7217
vt 0.1673 0.7218
vt 0.1667 0.7194
vt 0.1667 0.7194
vn -0.6879 -0.7201 -0.0906
vn -0.9745 -0.1841 -0.1283
vn -0.1570 0.9874 -0.0207
vn 0.1487 0.9887 0.0196
vn 0.6106 0.7879 0.0804
vn 0.9553 0.2677 0.1258
vn -0.9563 0.2639 -0.1259
vn -0.6225 0.7783 -0.0820
vn 0.9742 -0.1860 0.1282
vn 0.6382 -0.7652 0.0840
vn 0.9604 -0.2484 0.1264
vn -0.9595 -0.2517 -0.1263
vn -0.6263 -0.7752 -0.0825
vn 0.9914 -0.0000 0.1305
vn -0.9914 0.0000 -0.1305
vn 0.6756 -0.7319 0.0889
usemtl Material
s 1
f 69/97/33 70/98/34 86/99/34 85/100/33
f 71/101/35 72/102/36 88/103/36 87/104/35
f 74/105/37 73/106/38 89/107/38 90/108/37
f 76/109/39 75/110/40 91/111/40 92/112/39
f 72/113/36 74/114/37 90/115/37 88/116/36
f 73/106/38 67/117/41 83/118/41 89/107/38
f 70/98/34 76/109/39 92/112/39 86/99/34
f 75/119/40 71/120/35 87/121/35 91/122/40
f 77/123/42 78/124/43 94/125/43 93/126/42
f 79/127/44 80/128/45 96/129/45 95/130/44
f 78/124/43 65/131/46 81/132/46 94/125/43
f 66/133/47 79/127/44 95/130/44 82/134/47
f 68/135/48 77/136/42 93/137/42 84/138/48
f 67/117/41 68/139/48 84/140/48 83/118/41
f 80/141/45 69/142/33 85/143/33 96/144/45
o Cube.039_Cube.045
v 12.013506 0.955870 -15.514394
v 11.705894 0.955870 -15.568634
v 12.206413 1.606315 -15.480375
v 12.180613 1.539268 -15.484926
v 11.538794 1.539268 -15.598099
v 11.512987 1.606315 -15.602650
v 11.640102 1.905697 -15.580235
v 12.079304 1.905697 -15.502792
v 12.206413 1.830535 -15.480377
v 12.181751 1.872461 -15.484728
v 11.537655 1.872461 -15.598299
v 11.512987 1.830535 -15.602650
v 12.037807 1.491614 -15.510107
v 12.013506 1.447078 -15.514391
v 11.705894 1.447078 -15.568634
v 11.681599 1.491614 -15.572918
v 13.700486 0.955870 -23.123886
v 13.398774 0.955870 -23.204727
v 13.889697 1.606315 -23.073183
v 13.864388 1.539268 -23.079964
v 13.234878 1.539268 -23.248646
v 13.209563 1.606315 -23.255426
v 13.334241 1.905697 -23.222019
v 13.765019 1.905697 -23.106592
v 13.889697 1.830535 -23.073185
v 13.865504 1.872461 -23.079668
v 13.233762 1.872461 -23.248943
v 13.209563 1.830535 -23.255426
v 13.724324 1.491614 -23.117496
v 13.700486 1.447078 -23.123882
v 13.398774 1.447078 -23.204727
v 13.374948 1.491614 -23.211113
vt 0.1147 0.6651
vt 0.1148 0.6651
vt 0.1146 0.6666
vt 0.1144 0.6666
vt 0.1709 0.7189
vt 0.1709 0.7189
vt 0.1708 0.7165
vt 0.1708 0.7165
vt 0.1428 0.7310
vt 0.1427 0.7310
vt 0.1427 0.7286
vt 0.1427 0.7286
vt 0.1602 0.7074
vt 0.1602 0.7075
vt 0.1598 0.7098
vt 0.1598 0.7098
vt 0.1708 0.7189
vt 0.1707 0.7165
vt 0.1429 0.7310
vt 0.1428 0.7286
vt 0.1600 0.7074
vt 0.1600 0.7074
vt 0.1596 0.7098
vt 0.1595 0.7098
vt 0.1706 0.7190
vt 0.1706 0.7190
vt 0.1705 0.7166
vt 0.1706 0.7166
vt 0.1568 0.7195
vt 0.1568 0.7195
vt 0.1568 0.7220
vt 0.1568 0.7220
vt 0.1704 0.7190
vt 0.1703 0.7166
vt 0.1566 0.7195
vt 0.1566 0.7220
vt 0.1689 0.7193
vt 0.1688 0.7193
vt 0.1684 0.7169
vt 0.1684 0.7169
vt 0.1707 0.7189
vt 0.1707 0.7165
vt 0.1667 0.7194
vt 0.1667 0.7194
vt 0.1662 0.7170
vt 0.1663 0.7170
vt 0.1429 0.7310
vt 0.1429 0.7286
vn -0.1546 0.9874 -0.0343
vn 0.1464 0.9887 0.0325
vn 0.6013 0.7879 0.1333
vn 0.9407 0.2677 0.2085
vn -0.9417 0.2639 -0.2088
vn -0.6130 0.7783 -0.1359
vn 0.9593 -0.1860 0.2127
vn -0.9596 -0.1841 -0.2127
vn 0.6285 -0.7652 0.1393
vn 0.9457 -0.2484 0.2097
vn -0.9449 -0.2517 -0.2095
vn -0.6168 -0.7752 -0.1367
vn 0.9763 -0.0000 0.2164
vn -0.9763 0.0000 -0.2164
vn 0.6652 -0.7319 0.1475
vn -0.6774 -0.7201 -0.1502
usemtl Material
s 1
f 103/145/49 104/146/50 120/147/50 119/148/49
f 106/149/51 105/150/52 121/151/52 122/152/51
f 108/153/53 107/154/54 123/155/54 124/156/53
f 104/157/50 106/158/51 122/159/51 120/160/50
f 105/150/52 99/161/55 115/162/55 121/151/52
f 102/163/56 108/153/53 124/156/53 118/164/56
f 107/165/54 103/166/49 119/167/49 123/168/54
f 109/169/57 110/170/58 126/171/58 125/172/57
f 111/173/59 112/174/60 128/175/60 127/176/59
f 110/170/58 97/177/61 113/178/61 126/171/58
f 98/179/62 111/173/59 127/176/59 114/180/62
f 100/181/63 109/182/57 125/183/57 116/184/63
f 99/161/55 100/185/63 116/186/63 115/162/55
f 112/187/60 101/188/64 117/189/64 128/190/60
f 101/191/64 102/163/56 118/164/56 117/192/64
o Cube.038_Cube.044
v 13.700486 0.955870 -23.123886
v 13.398774 0.955870 -23.204727
v 13.889697 1.606315 -23.073183
v 13.864388 1.539268 -23.079964
v 13.234878 1.539268 -23.248646
v 13.209563 1.606315 -23.255426
v 13.334241 1.905697 -23.222019
v 13.765019 1.905697 -23.106592
v 13.889697 1.830535 -23.073185
v 13.865504 1.872461 -23.079668
v 13.233762 1.872461 -23.248943
v 13.209563 1.830535 -23.255426
v 13.724324 1.491614 -23.117496
v 13.700486 1.447078 -23.123882
v 13.398774 1.447078 -23.204727
v 13.374948 1.491614 -23.211113
v 16.044258 0.955870 -30.557392
v 15.750741 0.955870 -30.664223
v 16.228333 1.606315 -30.490391
v 16.203709 1.539268 -30.499352
v 15.591296 1.539268 -30.722256
v 15.566669 1.606315 -30.731218
v 15.687964 1.905697 -30.687071
v 16.107037 1.905697 -30.534540
v 16.228333 1.830535 -30.490393
v 16.204792 1.872461 -30.498960
v 15.590215 1.872461 -30.722652
v 15.566669 1.830535 -30.731218
v 16.067451 1.491614 -30.548948
v 16.044258 1.447078 -30.557388
v 15.750741 1.447078 -30.664223
v 15.727561 1.491614 -30.672659
vt 0.1144 0.6666
vt 0.1146 0.6666
vt 0.1144 0.6682
vt 0.1143 0.6682
vt 0.1708 0.7165
vt 0.1708 0.7165
vt 0.1708 0.7141
vt 0.1708 0.7141
vt 0.1427 0.7286
vt 0.1427 0.7286
vt 0.1427 0.7262
vt 0.1427 0.7262
vt 0.1598 0.7098
vt 0.1598 0.7098
vt 0.1596 0.7122
vt 0.1596 0.7122
vt 0.1707 0.7165
vt 0.1707 0.7141
vt 0.1428 0.7286
vt 0.1428 0.7262
vt 0.1595 0.7098
vt 0.1596 0.7098
vt 0.1594 0.7122
vt 0.1593 0.7122
vt 0.1706 0.7166
vt 0.1705 0.7166
vt 0.1705 0.7142
vt 0.1705 0.7142
vt 0.1568 0.7220
vt 0.1568 0.7220
vt 0.1568 0.7244
vt 0.1568 0.7244
vt 0.1703 0.7166
vt 0.1703 0.7142
vt 0.1566 0.7220
vt 0.1566 0.7244
vt 0.1684 0.7169
vt 0.1684 0.7169
vt 0.1682 0.7145
vt 0.1682 0.7145
vt 0.1707 0.7165
vt 0.1707 0.7141
vt 0.1663 0.7170
vt 0.1662 0.7170
vt 0.1660 0.7146
vt 0.1661 0.7146
vt 0.1429 0.7286
vt 0.1428 0.7262
vn -0.1510 0.9874 -0.0476
vn 0.1430 0.9887 0.0451
vn 0.5873 0.7879 0.1852
vn 0.9189 0.2677 0.2897
vn -0.9199 0.2640 -0.2900
vn -0.5988 0.7783 -0.1888
vn 0.9371 -0.1860 0.2955
vn -0.9374 -0.1841 -0.2956
vn 0.6139 -0.7653 0.1936
vn 0.9238 -0.2484 0.2913
vn -0.9230 -0.2517 -0.2910
vn -0.6025 -0.7752 -0.1900
vn 0.9537 -0.0000 0.3007
vn -0.9537 0.0000 -0.3007
vn 0.6498 -0.7319 0.2049
vn -0.6617 -0.7201 -0.2086
usemtl Material
s 1
f 135/193/65 136/194/66 152/195/66 151/196/65
f 138/197/67 137/198/68 153/199/68 154/200/67
f 140/201/69 139/202/70 155/203/70 156/204/69
f 136/205/66 138/206/67 154/207/67 152/208/66
f 137/198/68 131/209/71 147/210/71 153/199/68
f 134/211/72 140/201/69 156/204/69 150/212/72
f 139/213/70 135/214/65 151/215/65 155/216/70
f 141/217/73 142/218/74 158/219/74 157/220/73
f 143/221/75 144/222/76 160/223/76 159/224/75
f 142/218/74 129/225/77 145/226/77 158/219/74
f 130/227/78 143/221/75 159/224/75 146/228/78
f 132/229/79 141/230/73 157/231/73 148/232/79
f 131/209/71 132/233/79 148/234/79 147/210/71
f 144/235/76 133/236/80 149/237/80 160/238/76
f 133/239/80 134/211/72 150/212/72 149/240/80
o Cube.037_Cube.043
v 16.044258 0.955870 -30.557392
v 15.750741 0.955870 -30.664223
v 16.228333 1.606315 -30.490391
v 16.203709 1.539268 -30.499352
v 15.591296 1.539268 -30.722256
v 15.566669 1.606315 -30.731218
v 15.687964 1.905697 -30.687071
v 16.107037 1.905697 -30.534540
v 16.228333 1.830535 -30.490393
v 16.204792 1.872461 -30.498960
v 15.590215 1.872461 -30.722652
v 15.566669 1.830535 -30.731218
v 16.067451 1.491614 -30.548948
v 16.044258 1.447078 -30.557388
v 15.750741 1.447078 -30.664223
v 15.727561 1.491614 -30.672659
v 19.026985 0.955870 -37.758335
v 18.743896 0.955870 -37.890343
v 19.204517 1.606315 -37.675545
v 19.180771 1.539268 -37.686623
v 18.590111 1.539268 -37.962051
v 18.566360 1.606315 -37.973125
v 18.683353 1.905697 -37.918575
v 19.087528 1.905697 -37.730099
v 19.204517 1.830535 -37.675549
v 19.181812 1.872461 -37.686134
v 18.589077 1.872461 -37.962540
v 18.566360 1.830535 -37.973125
v 19.049351 1.491614 -37.747902
v 19.026985 1.447078 -37.758331
v 18.743896 1.447078 -37.890343
v 18.721535 1.491614 -37.900764
vt 0.1708 0.7141
vt 0.1708 0.7141
vt 0.1708 0.7118
vt 0.1708 0.7118
vt 0.1427 0.7262
vt 0.1427 0.7262
vt 0.1427 0.7238
vt 0.1427 0.7238
vt 0.1596 0.7122
vt 0.1596 0.7122
vt 0.1596 0.7146
vt 0.1596 0.7146
vt 0.1707 0.7141
vt 0.1707 0.7118
vt 0.1428 0.7262
vt 0.1428 0.7238
vt 0.1593 0.7122
vt 0.1594 0.7122
vt 0.1594 0.7146
vt 0.1593 0.7146
vt 0.1705 0.7142
vt 0.1705 0.7142
vt 0.1705 0.7118
vt 0.1705 0.7118
vt 0.1568 0.7244
vt 0.1568 0.7244
vt 0.1568 0.7267
vt 0.1568 0.7267
vt 0.1703 0.7142
vt 0.1703 0.7118
vt 0.1566 0.7244
vt 0.1566 0.7267
vt 0.1682 0.7145
vt 0.1682 0.7145
vt 0.1682 0.7121
vt 0.1682 0.7121
vt 0.1707 0.7141
vt 0.1707 0.7118
vt 0.1661 0.7146
vt 0.1660 0.7146
vt 0.1660 0.7122
vt 0.1661 0.7122
vt 0.1428 0.7262
vt 0.1428 0.7238
vt 0.1143 0.6682
vt 0.1144 0.6682
vt 0.1144 0.6698
vt 0.1143 0.6698
vn 0.5689 0.7879 0.2357
vn 0.8902 0.2677 0.3687
vn -0.8911 0.2640 -0.3691
vn -0.5800 0.7783 -0.2403
vn -0.5800 0.7784 -0.2403
vn 0.1385 0.9887 0.0574
vn 0.9078 -0.1860 0.3760
vn -0.9081 -0.1841 -0.3761
vn -0.1463 0.9874 -0.0606
vn 0.5947 -0.7653 0.2463
vn 0.8949 -0.2484 0.3707
vn -0.8941 -0.2517 -0.3704
vn -0.5837 -0.7752 -0.2418
vn 0.9239 -0.0000 0.3827
vn -0.9239 0.0000 -0.3827
vn 0.6295 -0.7319 0.2608
vn 0.6295 -0.7319 0.2607
vn -0.6410 -0.7201 -0.2655
usemtl Material
s 1
f 170/241/81 169/242/82 185/243/82 186/244/81
f 172/245/83 171/246/84 187/247/85 188/248/83
f 168/249/86 170/250/81 186/251/81 184/252/86
f 169/242/82 163/253/87 179/254/87 185/243/82
f 166/255/88 172/245/83 188/248/83 182/256/88
f 171/257/84 167/258/89 183/259/89 187/260/85
f 173/261/90 174/262/91 190/263/91 189/264/90
f 175/265/92 176/266/93 192/267/93 191/268/92
f 174/262/91 161/269/94 177/270/94 190/263/91
f 162/271/95 175/265/92 191/268/92 178/272/95
f 164/273/96 173/274/90 189/275/90 180/276/97
f 163/253/87 164/277/96 180/278/97 179/254/87
f 176/279/93 165/280/98 181/281/98 192/282/93
f 165/283/98 166/255/88 182/256/88 181/284/98
f 167/285/89 168/286/86 184/287/86 183/288/89
o Cube.036_Cube.042
v 19.026985 0.955870 -37.758335
v 18.743896 0.955870 -37.890343
v 19.204517 1.606315 -37.675545
v 19.180771 1.539268 -37.686623
v 18.590111 1.539268 -37.962051
v 18.566360 1.606315 -37.973125
v 18.683353 1.905697 -37.918575
v 19.087528 1.905697 -37.730099
v 19.204517 1.830535 -37.675549
v 19.181812 1.872461 -37.686134
v 18.589077 1.872461 -37.962540
v 18.566360 1.830535 -37.973125
v 19.049351 1.491614 -37.747902
v 19.026985 1.447078 -37.758331
v 18.743896 1.447078 -37.890343
v 18.721535 1.491614 -37.900764
v 21.766769 0.955880 -43.743526
v 21.483685 0.955880 -43.875534
v 21.944302 1.606324 -43.660736
v 21.920555 1.539277 -43.671814
v 21.329899 1.539277 -43.947243
v 21.306145 1.606324 -43.958317
v 21.423138 1.905706 -43.903767
v 21.827316 1.905706 -43.715290
v 21.944302 1.830545 -43.660740
v 21.921597 1.872471 -43.671326
v 21.328861 1.872471 -43.947731
v 21.306145 1.830545 -43.958317
v 21.789139 1.491623 -43.733093
v 21.766769 1.447088 -43.743523
v 21.483685 1.447088 -43.875534
v 21.461323 1.491623 -43.885956
vt 0.1427 0.7238
vt 0.1427 0.7238
vt 0.1427 0.7238
vt 0.1427 0.7238
vt 0.1596 0.7146
vt 0.1596 0.7146
vt 0.1596 0.7146
vt 0.1596 0.7146
vt 0.1708 0.7118
vt 0.1707 0.7118
vt 0.1707 0.7118
vt 0.1708 0.7118
vt 0.1428 0.7238
vt 0.1428 0.7238
vt 0.1593 0.7146
vt 0.1594 0.7146
vt 0.1594 0.7146
vt 0.1593 0.7146
vt 0.1705 0.7118
vt 0.1705 0.7118
vt 0.1705 0.7118
vt 0.1705 0.7118
vt 0.1568 0.7267
vt 0.1568 0.7267
vt 0.1568 0.7267
vt 0.1568 0.7267
vt 0.1703 0.7118
vt 0.1703 0.7118
vt 0.1566 0.7267
vt 0.1566 0.7267
vt 0.1682 0.7121
vt 0.1682 0.7121
vt 0.1682 0.7121
vt 0.1682 0.7121
vt 0.1707 0.7118
vt 0.1707 0.7118
vt 0.1661 0.7122
vt 0.1660 0.7122
vt 0.1660 0.7122
vt 0.1661 0.7122
vt 0.1428 0.7238
vt 0.1428 0.7238
vt 0.1143 0.6698
vt 0.1144 0.6698
vt 0.1144 0.6698
vt 0.1143 0.6698
vt 0.1708 0.7118
vt 0.1708 0.7118
vn -0.8764 0.2664 -0.4012
vn -0.5642 0.7842 -0.2583
vn -0.5660 0.7827 -0.2591
vn -0.8765 0.2658 -0.4012
vn 0.1406 0.9880 0.0644
vn 0.5660 0.7826 0.2591
vn 0.5643 0.7841 0.2583
vn 0.1394 0.9882 0.0638
vn 0.8766 0.2657 0.4013
vn 0.8936 -0.1850 0.4090
vn 0.8935 -0.1854 0.4090
vn 0.8764 0.2664 0.4012
vn -0.8935 -0.1854 -0.4090
vn -0.8936 -0.1851 -0.4090
vn -0.1394 0.9882 -0.0638
vn -0.1407 0.9880 -0.0644
vn 0.5787 -0.7713 0.2649
vn 0.8803 -0.2506 0.4029
vn 0.8804 -0.2500 0.4030
vn 0.5805 -0.7697 0.2657
vn -0.8804 -0.2500 -0.4030
vn -0.5805 -0.7697 -0.2657
vn -0.5788 -0.7713 -0.2649
vn -0.8803 -0.2505 -0.4030
vn 0.9093 -0.0000 0.4162
vn -0.9093 0.0000 -0.4162
vn 0.6259 -0.7253 0.2865
vn 0.6241 -0.7272 0.2857
vn -0.6241 -0.7273 -0.2857
vn -0.6259 -0.7254 -0.2865
usemtl Material
s 1
f 204/289/99 203/290/100 219/291/101 220/292/102
f 200/293/103 202/294/104 218/295/105 216/296/106
f 201/297/107 195/298/108 211/299/109 217/300/110
f 198/301/111 204/289/99 220/292/102 214/302/112
f 203/303/100 199/304/113 215/305/114 219/306/101
f 205/307/115 206/308/116 222/309/117 221/310/118
f 207/311/119 208/312/120 224/313/121 223/314/122
f 206/308/116 193/315/123 209/316/123 222/309/117
f 194/317/124 207/311/119 223/314/122 210/318/124
f 196/319/125 205/320/115 221/321/118 212/322/126
f 195/298/108 196/323/125 212/324/126 211/299/109
f 208/325/120 197/326/127 213/327/128 224/328/121
f 197/329/127 198/301/111 214/302/112 213/330/128
f 199/331/113 200/332/103 216/333/106 215/334/114
f 202/335/104 201/297/107 217/300/110 218/336/105
o Cube.035_Cube.041
v 11.776520 0.955870 -41.139275
v 11.493444 0.955870 -41.271286
v 11.930300 1.539268 -41.067566
v 11.954058 1.606315 -41.056488
v 11.315901 1.606315 -41.354073
v 11.339653 1.539268 -41.343002
v 11.432888 1.905697 -41.299519
v 11.837076 1.905697 -41.111038
v 11.931364 1.872461 -41.067070
v 11.954058 1.830535 -41.056488
v 11.315901 1.830535 -41.354073
v 11.338606 1.872461 -41.343487
v 11.776520 1.447078 -41.139275
v 11.798882 1.491614 -41.128853
v 11.471071 1.491614 -41.281712
v 11.493444 1.447078 -41.271286
v 14.516305 0.955880 -47.124470
v 14.233231 0.955880 -47.256477
v 14.670085 1.539277 -47.052757
v 14.693843 1.606324 -47.041683
v 14.055687 1.606324 -47.339264
v 14.079439 1.539277 -47.328194
v 14.172674 1.905706 -47.284714
v 14.576861 1.905706 -47.096230
v 14.671149 1.872471 -47.052261
v 14.693843 1.830545 -47.041679
v 14.055687 1.830545 -47.339264
v 14.078392 1.872471 -47.328682
v 14.516305 1.447088 -47.124466
v 14.538667 1.491623 -47.114044
v 14.210857 1.491623 -47.266907
v 14.233231 1.447088 -47.256477
vt 0.1064 0.6699
vt 0.1063 0.6699
vt 0.1063 0.6699
vt 0.1064 0.6699
vt 0.1062 0.6700
vt 0.1062 0.6700
vt 0.1062 0.6700
vt 0.1062 0.6700
vt 0.1064 0.6700
vt 0.1064 0.6700
vt 0.1064 0.6700
vt 0.1064 0.6700
vt 0.1062 0.6700
vt 0.1062 0.6700
vt 0.1064 0.6700
vt 0.1064 0.6700
vt 0.1063 0.6701
vt 0.1063 0.6701
vt 0.1063 0.6701
vt 0.1063 0.6701
vt 0.1064 0.6701
vt 0.1064 0.6701
vt 0.1064 0.6701
vt 0.1064 0.6701
vt 0.1063 0.6702
vt 0.1063 0.6702
vt 0.1062 0.6700
vt 0.1062 0.6700
vt 0.1064 0.6702
vt 0.1064 0.6702
vt 0.1064 0.6700
vt 0.1064 0.6700
vn -0.1394 0.9882 -0.0638
vn 0.1406 0.9880 0.0644
vn 0.1394 0.9882 0.0638
vn -0.1406 0.9880 -0.0644
vn 0.5661 0.7825 0.2591
vn 0.8766 0.2656 0.4013
vn 0.8764 0.2662 0.4012
vn 0.5643 0.7841 0.2583
vn -0.8764 0.2663 -0.4012
vn -0.5643 0.7841 -0.2583
vn -0.5660 0.7826 -0.2591
vn -0.8766 0.2657 -0.4013
vn 0.8935 -0.1851 0.4090
vn 0.8935 -0.1854 0.4090
vn -0.8935 -0.1854 -0.4090
vn -0.8936 -0.1851 -0.4090
vn 0.5788 -0.7713 0.2649
vn 0.8803 -0.2505 0.4030
vn 0.8804 -0.2500 0.4030
vn 0.5805 -0.7697 0.2657
vn -0.8804 -0.2501 -0.4030
vn -0.5804 -0.7697 -0.2657
vn -0.5787 -0.7713 -0.2649
vn -0.8802 -0.2506 -0.4029
vn 0.9093 -0.0000 0.4162
vn 0.6259 -0.7254 0.2865
vn 0.6241 -0.7273 0.2857
vn -0.9093 0.0000 -0.4162
vn -0.6241 -0.7273 -0.2857
vn -0.6259 -0.7254 -0.2865
usemtl Material
s 1
f 231/337/129 232/338/130 248/339/131 247/340/132
f 233/341/133 234/342/134 250/343/135 249/344/136
f 235/345/137 236/346/138 252/347/139 251/348/140
f 232/338/130 233/341/133 249/344/136 248/339/131
f 234/342/134 228/349/141 244/350/142 250/343/135
f 236/346/138 231/337/129 247/340/132 252/347/139
f 229/351/143 235/345/137 251/348/140 245/352/144
f 238/353/145 237/354/146 253/355/147 254/356/148
f 240/357/149 239/358/150 255/359/151 256/360/152
f 237/354/146 225/361/153 241/362/153 253/355/147
f 227/363/154 238/353/145 254/356/148 243/364/155
f 226/365/156 240/357/149 256/360/152 242/366/156
f 228/349/141 227/363/154 243/364/155 244/350/142
f 239/358/150 230/367/157 246/368/158 255/359/151
f 230/367/157 229/351/143 245/352/144 246/368/158
o Cube.034_Cube.040
v 8.526718 0.955870 -33.293545
v 8.233206 0.955870 -33.400379
v 8.686163 1.539268 -33.235512
v 8.710791 1.606315 -33.226547
v 8.049128 1.606315 -33.467377
v 8.073750 1.539268 -33.458420
v 8.170424 1.905697 -33.423229
v 8.589500 1.905697 -33.270691
v 8.687262 1.872461 -33.235107
v 8.710791 1.830535 -33.226543
v 8.049128 1.830535 -33.467377
v 8.072668 1.872461 -33.458809
v 8.526718 1.447078 -33.293541
v 8.549898 1.491614 -33.285107
v 8.210014 1.491614 -33.408817
v 8.233206 1.447078 -33.400379
v 11.776520 0.955870 -41.139275
v 11.493444 0.955870 -41.271286
v 11.930300 1.539268 -41.067566
v 11.954058 1.606315 -41.056488
v 11.315901 1.606315 -41.354073
v 11.339653 1.539268 -41.343002
v 11.432888 1.905697 -41.299519
v 11.837076 1.905697 -41.111038
v 11.931364 1.872461 -41.067070
v 11.954058 1.830535 -41.056488
v 11.315901 1.830535 -41.354073
v 11.338606 1.872461 -41.343487
v 11.776520 1.447078 -41.139275
v 11.798882 1.491614 -41.128853
v 11.471071 1.491614 -41.281712
v 11.493444 1.447078 -41.271286
vt 0.1064 0.6700
vt 0.1064 0.6700
vt 0.1064 0.6700
vt 0.1064 0.6700
vt 0.1064 0.6700
vt 0.1064 0.6700
vt 0.1063 0.6701
vt 0.1063 0.6701
vt 0.1063 0.6701
vt 0.1063 0.6701
vt 0.1064 0.6699
vt 0.1063 0.6699
vt 0.1063 0.6699
vt 0.1064 0.6699
vt 0.1064 0.6701
vt 0.1064 0.6701
vt 0.1064 0.6701
vt 0.1064 0.6701
vt 0.1062 0.6700
vt 0.1062 0.6700
vt 0.1062 0.6700
vt 0.1062 0.6700
vt 0.1063 0.6702
vt 0.1063 0.6702
vt 0.1064 0.6700
vt 0.1064 0.6700
vt 0.1062 0.6700
vt 0.1062 0.6700
vt 0.1064 0.6702
vt 0.1064 0.6702
vt 0.1062 0.6700
vt 0.1062 0.6700
vn -0.9081 -0.1841 -0.3761
vn -0.8911 0.2639 -0.3691
vn -0.6410 -0.7201 -0.2655
vn 0.5948 -0.7652 0.2464
vn 0.8949 -0.2483 0.3707
vn 0.8949 -0.2484 0.3707
vn -0.1463 0.9874 -0.0606
vn 0.1385 0.9887 0.0574
vn -0.8941 -0.2518 -0.3704
vn -0.5836 -0.7752 -0.2417
vn 0.5690 0.7878 0.2357
vn 0.8902 0.2676 0.3687
vn 0.9239 -0.0000 0.3827
vn -0.5801 0.7783 -0.2403
vn 0.6295 -0.7320 0.2607
vn -0.9239 0.0000 -0.3827
vn 0.9078 -0.1860 0.3760
usemtl Material
s 1
f 261/369/159 267/370/160 283/371/160 277/372/159
f 262/373/161 261/369/159 277/372/159 278/374/161
f 270/375/162 269/376/163 285/377/164 286/378/162
f 263/379/165 264/380/166 280/381/166 279/382/165
f 272/383/167 271/384/168 287/385/168 288/386/167
f 265/387/169 266/388/170 282/389/170 281/390/169
f 269/376/163 257/391/171 273/392/171 285/377/164
f 267/370/160 268/393/172 284/394/172 283/371/160
f 259/395/173 270/375/162 286/378/162 275/396/173
f 264/380/166 265/387/169 281/390/169 280/381/166
f 258/397/174 272/383/167 288/386/167 274/398/174
f 266/388/170 260/399/175 276/400/175 282/389/170
f 271/384/168 262/373/161 278/374/161 287/385/168
f 268/393/172 263/379/165 279/382/165 284/394/172
f 260/399/175 259/395/173 275/396/173 276/400/175
o Cube.033_Cube.039
v 5.973083 0.955870 -25.194435
v 5.671371 0.955870 -25.275280
v 6.136979 1.539268 -25.150517
v 6.162293 1.606315 -25.143732
v 5.482154 1.606315 -25.325979
v 5.507463 1.539268 -25.319199
v 5.606837 1.905697 -25.292572
v 6.037616 1.905697 -25.177137
v 6.138101 1.872461 -25.150213
v 6.162293 1.830535 -25.143730
v 5.482154 1.830535 -25.325981
v 5.506352 1.872461 -25.319496
v 5.973083 1.447078 -25.194433
v 5.996909 1.491614 -25.188047
v 5.647532 1.491614 -25.281666
v 5.671371 1.447078 -25.275280
v 8.526718 0.955870 -33.293545
v 8.233206 0.955870 -33.400379
v 8.686163 1.539268 -33.235512
v 8.710791 1.606315 -33.226547
v 8.049128 1.606315 -33.467377
v 8.073750 1.539268 -33.458420
v 8.170424 1.905697 -33.423229
v 8.589500 1.905697 -33.270691
v 8.687262 1.872461 -33.235107
v 8.710791 1.830535 -33.226543
v 8.049128 1.830535 -33.467377
v 8.072668 1.872461 -33.458809
v 8.526718 1.447078 -33.293541
v 8.549898 1.491614 -33.285107
v 8.210014 1.491614 -33.408817
v 8.233206 1.447078 -33.400379
vt 0.1063 0.6701
vt 0.1063 0.6702
vt 0.1063 0.6702
vt 0.1063 0.6701
vt 0.1064 0.6700
vt 0.1064 0.6700
vt 0.1064 0.6700
vt 0.1064 0.6700
vt 0.1062 0.6700
vt 0.1063 0.6701
vt 0.1063 0.6701
vt 0.1062 0.6700
vt 0.1063 0.6699
vt 0.1062 0.6700
vt 0.1062 0.6700
vt 0.1063 0.6699
vt 0.1064 0.6702
vt 0.1064 0.6701
vt 0.1064 0.6701
vt 0.1064 0.6702
vt 0.1062 0.6700
vt 0.1062 0.6700
vt 0.1062 0.6700
vt 0.1062 0.6700
vt 0.1064 0.6701
vt 0.1064 0.6700
vt 0.1064 0.6700
vt 0.1064 0.6701
vt 0.1064 0.6699
vt 0.1064 0.6699
vt 0.1064 0.6700
vt 0.1064 0.6700
vn 0.9238 -0.2483 0.2913
vn 0.9537 -0.0000 0.3007
vn -0.9199 0.2639 -0.2900
vn -0.5988 0.7783 -0.1888
vn 0.6498 -0.7320 0.2049
vn 0.6140 -0.7652 0.1936
vn 0.1430 0.9887 0.0451
vn 0.5874 0.7878 0.1852
vn -0.9537 0.0000 -0.3007
vn -0.9230 -0.2518 -0.2910
vn 0.9189 0.2677 0.2897
vn 0.9371 -0.1860 0.2955
vn -0.6024 -0.7752 -0.1900
vn -0.6618 -0.7201 -0.2087
vn -0.6025 -0.7752 -0.1900
vn -0.1510 0.9874 -0.0476
vn -0.9374 -0.1841 -0.2956
usemtl Material
s 1
f 301/401/176 289/402/177 305/403/177 317/404/176
f 299/405/178 300/406/179 316/407/179 315/408/178
f 291/409/180 302/410/181 318/411/181 307/412/180
f 296/413/182 297/414/183 313/415/183 312/416/182
f 290/417/184 304/418/185 320/419/185 306/420/184
f 298/421/186 292/422/187 308/423/187 314/424/186
f 303/425/188 294/426/189 310/427/189 319/428/190
f 300/406/179 295/429/191 311/430/191 316/407/179
f 292/422/187 291/409/180 307/412/180 308/423/187
f 293/431/192 299/405/178 315/408/178 309/432/192
f 294/426/189 293/431/192 309/432/192 310/427/189
f 302/410/181 301/401/176 317/404/176 318/411/181
f 295/429/191 296/413/182 312/416/182 311/430/191
f 304/418/185 303/425/188 319/428/190 320/419/185
f 297/414/183 298/421/186 314/424/186 313/415/183
o Cube.032_Cube.038
v 4.135042 0.955870 -16.903576
v 3.827436 0.955870 -16.957817
v 4.302149 1.539268 -16.874107
v 4.327955 1.606315 -16.869556
v 3.634523 1.606315 -16.991833
v 3.660324 1.539268 -16.987282
v 3.761638 1.905697 -16.969418
v 4.200840 1.905697 -16.891970
v 4.303288 1.872461 -16.873905
v 4.327955 1.830535 -16.869555
v 3.634523 1.830535 -16.991835
v 3.659191 1.872461 -16.987484
v 4.135042 1.447078 -16.903574
v 4.159344 1.491614 -16.899288
v 3.803135 1.491614 -16.962101
v 3.827436 1.447078 -16.957817
v 5.973083 0.955870 -25.194435
v 5.671371 0.955870 -25.275280
v 6.136979 1.539268 -25.150517
v 6.162293 1.606315 -25.143732
v 5.482154 1.606315 -25.325979
v 5.507463 1.539268 -25.319199
v 5.606837 1.905697 -25.292572
v 6.037616 1.905697 -25.177137
v 6.138101 1.872461 -25.150213
v 6.162293 1.830535 -25.143730
v 5.482154 1.830535 -25.325981
v 5.506352 1.872461 -25.319496
v 5.973083 1.447078 -25.194433
v 5.996909 1.491614 -25.188047
v 5.647532 1.491614 -25.281666
v 5.671371 1.447078 -25.275280
vt 0.1064 0.6701
vt 0.1064 0.6700
vt 0.1064 0.6700
vt 0.1064 0.6701
vt 0.1064 0.6700
vt 0.1064 0.6699
vt 0.1064 0.6699
vt 0.1064 0.6700
vt 0.1062 0.6700
vt 0.1062 0.6700
vt 0.1062 0.6700
vt 0.1062 0.6700
vt 0.1064 0.6700
vt 0.1064 0.6700
vt 0.1064 0.6700
vt 0.1064 0.6700
vt 0.1063 0.6701
vt 0.1063 0.6701
vt 0.1063 0.6701
vt 0.1063 0.6701
vt 0.1063 0.6699
vt 0.1063 0.6699
vt 0.1064 0.6701
vt 0.1064 0.6701
vt 0.1062 0.6700
vt 0.1062 0.6700
vt 0.1062 0.6700
vt 0.1062 0.6700
vt 0.1063 0.6702
vt 0.1063 0.6702
vt 0.1064 0.6702
vt 0.1064 0.6702
vn -0.6167 -0.7752 -0.1367
vn -0.6774 -0.7201 -0.1502
vn -0.6130 0.7783 -0.1359
vn -0.1546 0.9874 -0.0343
vn 0.9593 -0.1860 0.2127
vn 0.6652 -0.7319 0.1475
vn -0.9596 -0.1841 -0.2127
vn -0.9417 0.2639 -0.2088
vn 0.6285 -0.7652 0.1393
vn 0.9457 -0.2484 0.2097
vn 0.1464 0.9887 0.0325
vn -0.9448 -0.2518 -0.2095
vn 0.6012 0.7879 0.1333
vn 0.9407 0.2677 0.2085
vn 0.9763 -0.0000 0.2164
vn -0.9763 0.0000 -0.2164
usemtl Material
s 1
f 335/433/193 326/434/194 342/435/194 351/436/193
f 332/437/195 327/438/196 343/439/196 348/440/195
f 324/441/197 323/442/198 339/443/198 340/444/197
f 325/445/199 331/446/200 347/447/200 341/448/199
f 326/434/194 325/445/199 341/448/199 342/435/194
f 334/449/201 333/450/202 349/451/202 350/452/201
f 327/438/196 328/453/203 344/454/203 343/439/196
f 336/455/204 335/433/193 351/436/193 352/456/204
f 329/457/205 330/458/206 346/459/206 345/460/205
f 333/450/202 321/461/207 337/462/207 349/451/202
f 331/446/200 332/437/195 348/440/195 347/447/200
f 323/442/198 334/449/201 350/452/201 339/443/198
f 328/453/203 329/457/205 345/460/205 344/454/203
f 322/463/208 336/455/204 352/456/204 338/464/208
f 330/458/206 324/441/197 340/444/197 346/459/206
o Cube.031_Cube.037
v 3.026599 0.955870 -8.484072
v 2.715435 0.955870 -8.511297
v 3.195634 1.539268 -8.469280
v 3.221744 1.606315 -8.466997
v 2.520290 1.606315 -8.528370
v 2.546394 1.539268 -8.526087
v 2.648876 1.905697 -8.517120
v 3.093153 1.905697 -8.478244
v 3.196784 1.872461 -8.469177
v 3.221744 1.830535 -8.466994
v 2.520290 1.830535 -8.528372
v 2.545244 1.872461 -8.526188
v 3.026599 1.447078 -8.484070
v 3.051176 1.491614 -8.481919
v 2.690853 1.491614 -8.513448
v 2.715435 1.447078 -8.511297
v 4.135042 0.955870 -16.903576
v 3.827436 0.955870 -16.957817
v 4.302149 1.539268 -16.874107
v 4.327955 1.606315 -16.869556
v 3.634523 1.606315 -16.991833
v 3.660324 1.539268 -16.987282
v 3.761638 1.905697 -16.969418
v 4.200840 1.905697 -16.891970
v 4.303288 1.872461 -16.873905
v 4.327955 1.830535 -16.869555
v 3.634523 1.830535 -16.991835
v 3.659191 1.872461 -16.987484
v 4.135042 1.447078 -16.903574
v 4.159344 1.491614 -16.899288
v 3.803135 1.491614 -16.962101
v 3.827436 1.447078 -16.957817
vt 0.1064 0.6699
vt 0.1063 0.6699
vt 0.1063 0.6699
vt 0.1064 0.6699
vt 0.1064 0.6701
vt 0.1064 0.6701
vt 0.1064 0.6701
vt 0.1064 0.6701
vt 0.1062 0.6700
vt 0.1062 0.6700
vt 0.1062 0.6700
vt 0.1062 0.6700
vt 0.1063 0.6701
vt 0.1063 0.6702
vt 0.1063 0.6702
vt 0.1063 0.6701
vt 0.1064 0.6700
vt 0.1064 0.6700
vt 0.1064 0.6700
vt 0.1064 0.6700
vt 0.1062 0.6700
vt 0.1063 0.6701
vt 0.1063 0.6701
vt 0.1062 0.6700
vt 0.1064 0.6702
vt 0.1064 0.6702
vt 0.1062 0.6700
vt 0.1062 0.6700
vt 0.1064 0.6700
vt 0.1064 0.6700
vt 0.1064 0.6700
vt 0.1064 0.6700
vn -0.1570 0.9874 -0.0207
vn 0.1487 0.9887 0.0196
vn -0.9595 -0.2518 -0.1263
vn -0.6263 -0.7752 -0.0825
vn 0.6105 0.7879 0.0804
vn 0.9553 0.2677 0.1258
vn 0.9604 -0.2484 0.1264
vn 0.9914 -0.0000 0.1305
vn -0.9563 0.2639 -0.1259
vn -0.6225 0.7783 -0.0820
vn 0.6755 -0.7320 0.0889
vn 0.6382 -0.7652 0.0840
vn 0.6383 -0.7652 0.0840
vn 0.6755 -0.7319 0.0889
vn -0.9914 0.0000 -0.1305
vn 0.9741 -0.1860 0.1282
vn -0.6879 -0.7201 -0.0906
vn -0.9745 -0.1841 -0.1283
usemtl Material
s 1
f 359/465/209 360/466/210 376/467/210 375/468/209
f 368/469/211 367/470/212 383/471/212 384/472/211
f 361/473/213 362/474/214 378/475/214 377/476/213
f 365/477/215 353/478/216 369/479/216 381/480/215
f 363/481/217 364/482/218 380/483/218 379/484/217
f 355/485/219 366/486/220 382/487/221 371/488/222
f 360/466/210 361/473/213 377/476/213 376/467/210
f 354/489/223 368/469/211 384/472/211 370/490/223
f 362/474/214 356/491/224 372/492/224 378/475/214
f 367/470/212 358/493/225 374/494/225 383/471/212
f 364/482/218 359/465/209 375/468/209 380/483/218
f 356/491/224 355/485/219 371/488/222 372/492/224
f 357/495/226 363/481/217 379/484/217 373/496/226
f 358/493/225 357/495/226 373/496/226 374/494/225
f 366/486/220 365/477/215 381/480/215 382/487/221
o Cube.030_Cube.036
v 2.656176 0.955870 0.000000
v 2.343823 0.955870 -0.000001
v 2.722988 1.905697 0.000006
v 2.277011 1.905697 -0.000001
v 2.825857 1.539268 0.000003
v 2.852067 1.606315 0.000003
v 2.147933 1.606315 -0.000001
v 2.174143 1.539268 -0.000001
v 2.852067 1.830535 0.000006
v 2.827012 1.872461 0.000006
v 2.172987 1.872461 -0.000003
v 2.147933 1.830535 -0.000003
v 2.656176 1.447078 0.000003
v 2.680851 1.491614 0.000003
v 2.319149 1.491614 -0.000001
v 2.343823 1.447078 -0.000001
v 3.026599 0.955870 -8.484072
v 2.715435 0.955870 -8.511297
v 3.195634 1.539268 -8.469280
v 3.221744 1.606315 -8.466997
v 2.520290 1.606315 -8.528370
v 2.546394 1.539268 -8.526087
v 2.648876 1.905697 -8.517120
v 3.093153 1.905697 -8.478244
v 3.196784 1.872461 -8.469177
v 3.221744 1.830535 -8.466994
v 2.520290 1.830535 -8.528372
v 2.545244 1.872461 -8.526188
v 3.026599 1.447078 -8.484070
v 3.051176 1.491614 -8.481919
v 2.690853 1.491614 -8.513448
v 2.715435 1.447078 -8.511297
vt 0.1063 0.6699
vt 0.1063 0.6699
vt 0.1064 0.6699
vt 0.1064 0.6699
vt 0.1064 0.6701
vt 0.1064 0.6701
vt 0.1064 0.6701
vt 0.1064 0.6701
vt 0.1062 0.6700
vt 0.1062 0.6700
vt 0.1062 0.6700
vt 0.1062 0.6700
vt 0.1063 0.6702
vt 0.1063 0.6702
vt 0.1063 0.6701
vt 0.1063 0.6701
vt 0.1064 0.6700
vt 0.1064 0.6700
vt 0.1064 0.6700
vt 0.1064 0.6700
vt 0.1063 0.6701
vt 0.1063 0.6701
vt 0.1062 0.6700
vt 0.1062 0.6700
vt 0.1064 0.6702
vt 0.1064 0.6702
vt 0.1062 0.6700
vt 0.1062 0.6700
vt 0.1064 0.6700
vt 0.1064 0.6700
vt 0.1064 0.6700
vt 0.1064 0.6700
vn 0.1498 0.9887 0.0065
vn -0.1582 0.9874 -0.0069
vn -0.6311 -0.7752 -0.0276
vn -0.9669 -0.2518 -0.0422
vn 0.9626 0.2678 0.0420
vn 0.6152 0.7879 0.0269
vn 0.9990 -0.0000 0.0436
vn 0.9677 -0.2484 0.0423
vn -0.6273 0.7783 -0.0274
vn -0.9636 0.2639 -0.0421
vn 0.6432 -0.7652 0.0281
vn 0.6807 -0.7320 0.0297
vn -0.9990 0.0000 -0.0436
vn 0.9816 -0.1860 0.0429
vn -0.6932 -0.7201 -0.0303
vn -0.9820 -0.1841 -0.0429
usemtl Material
s 1
f 387/497/227 408/498/227 407/499/228 388/500/228
f 399/501/229 415/502/229 416/503/230 400/504/230
f 393/505/231 410/506/231 409/507/232 394/508/232
f 385/509/233 401/510/233 413/511/234 397/512/234
f 395/513/235 412/514/235 411/515/236 396/516/236
f 398/517/237 414/518/237 403/519/238 389/520/238
f 394/508/232 409/507/232 408/498/227 387/497/227
f 400/504/230 416/503/230 402/521/239 386/522/239
f 390/523/240 404/524/240 410/506/231 393/505/231
f 392/525/241 406/526/241 415/502/229 399/501/229
f 388/500/228 407/499/228 412/514/235 395/513/235
f 389/520/238 403/519/238 404/524/240 390/523/240
f 396/516/236 411/515/236 405/527/242 391/528/242
f 391/528/242 405/527/242 406/526/241 392/525/241
f 397/512/234 413/511/234 414/518/237 398/517/237
o Cube.029_Cube.035
v 2.656176 0.955870 0.000000
v 2.343823 0.955870 -0.000001
v 2.722988 1.905697 0.000006
v 2.277011 1.905697 -0.000001
v 2.825857 1.539268 0.000003
v 2.852067 1.606315 0.000003
v 2.147933 1.606315 -0.000001
v 2.174143 1.539268 -0.000001
v 2.852067 1.830535 0.000006
v 2.827012 1.872461 0.000006
v 2.172987 1.872461 -0.000003
v 2.147933 1.830535 -0.000003
v 2.656176 1.447078 0.000003
v 2.680851 1.491614 0.000003
v 2.319149 1.491614 -0.000001
v 2.343823 1.447078 -0.000001
v 2.656134 0.955864 8.000000
v 2.343781 0.955864 7.999999
v 2.825814 1.539262 8.000004
v 2.852024 1.606309 8.000004
v 2.147891 1.606309 7.999999
v 2.174100 1.539262 7.999999
v 2.276969 1.905691 7.999999
v 2.722946 1.905691 8.000006
v 2.826970 1.872456 8.000006
v 2.852024 1.830530 8.000006
v 2.147891 1.830530 7.999998
v 2.172945 1.872456 7.999998
v 2.656134 1.447072 8.000004
v 2.680809 1.491608 8.000004
v 2.319106 1.491608 7.999999
v 2.343781 1.447072 7.999999
vt 0.1062 0.6700
vt 0.1062 0.6700
vt 0.1062 0.6700
vt 0.1062 0.6700
vt 0.1064 0.6700
vt 0.1064 0.6700
vt 0.1064 0.6700
vt 0.1064 0.6700
vt 0.1063 0.6699
vt 0.1063 0.6699
vt 0.1062 0.6700
vt 0.1062 0.6700
vt 0.1064 0.6699
vt 0.1064 0.6699
vt 0.1064 0.6700
vt 0.1064 0.6700
vt 0.1063 0.6701
vt 0.1063 0.6701
vt 0.1063 0.6701
vt 0.1063 0.6701
vt 0.1064 0.6701
vt 0.1064 0.6701
vt 0.1064 0.6701
vt 0.1064 0.6701
vt 0.1063 0.6702
vt 0.1063 0.6702
vt 0.1062 0.6700
vt 0.1062 0.6700
vt 0.1064 0.6702
vt 0.1064 0.6702
vt 0.1064 0.6700
vt 0.1064 0.6700
vn 0.9640 0.2661 0.0000
vn 0.6215 0.7834 0.0000
vn -0.6215 0.7834 -0.0000
vn -0.9640 0.2661 -0.0000
vn 0.1540 0.9881 0.0000
vn 0.9827 -0.1853 0.0000
vn -0.1540 0.9881 -0.0000
vn -0.9827 -0.1852 -0.0000
vn 0.9682 -0.2503 0.0000
vn 0.6374 -0.7705 0.0000
vn 0.6375 -0.7705 0.0000
vn -0.6375 -0.7705 -0.0000
vn -0.9682 -0.2503 -0.0000
vn -0.6374 -0.7705 -0.0000
vn 1.0000 -0.0000 0.0000
vn 0.6873 -0.7263 0.0000
vn -1.0000 0.0000 -0.0000
vn -0.6873 -0.7263 -0.0000
usemtl Material
s 1
f 425/529/243 426/530/244 441/531/244 442/532/243
f 427/533/245 428/534/246 443/535/246 444/536/245
f 426/530/244 419/537/247 440/538/247 441/531/244
f 422/539/248 425/529/243 442/532/243 436/540/248
f 420/541/249 427/533/245 444/536/245 439/542/249
f 428/534/246 423/543/250 437/544/250 443/535/246
f 429/545/251 430/546/252 446/547/253 445/548/251
f 431/549/254 432/550/255 448/551/255 447/552/256
f 417/553/257 429/545/251 445/548/251 433/554/257
f 430/546/252 421/555/258 435/556/258 446/547/253
f 432/550/255 418/557/259 434/558/259 448/551/255
f 421/555/258 422/539/248 436/540/248 435/556/258
f 424/559/260 431/549/254 447/552/256 438/560/260
f 423/543/250 424/559/260 438/560/260 437/544/250
f 419/537/247 420/541/249 439/542/249 440/538/247
o Cube.028_Cube.034
v 11.482311 0.200000 -46.793365
v 10.637075 0.200000 -44.980751
v 16.013851 0.200000 -44.680275
v 15.168613 0.200000 -42.867661
v 14.050224 0.500000 -43.389172
v 14.895461 0.500000 -45.201790
v 12.600700 0.500000 -46.271851
v 11.755465 0.500000 -44.459236
vt 0.2985 0.3846
vt 0.2985 0.2897
vt 0.5970 0.2897
vt 0.5970 0.3846
vt 0.2985 0.0949
vt 0.5970 0.0949
vt 0.2985 0.0000
vt 0.5970 0.0000
vn 0.2141 0.9717 0.0998
vn 0.0000 1.0000 0.0000
vn -0.2141 0.9717 -0.0998
usemtl Material_blk_concrete01_dif.tga
s off
f 451/561/261 454/562/261 453/563/261 452/564/261
f 454/562/262 455/565/262 456/566/262 453/563/262
f 456/566/263 455/565/263 449/567/263 450/568/263
o Cube.027_Cube.033
v 22.419075 0.200000 -39.486713
v 23.264313 0.200000 -41.299328
v 17.887537 0.200000 -41.599804
v 18.732773 0.200000 -43.412418
v 19.005926 0.500000 -41.078289
v 19.851162 0.500000 -42.890907
v 22.145924 0.500000 -41.820843
v 21.300686 0.500000 -40.008224
vt 0.2985 0.9051
vt 0.5970 0.9051
vt 0.5970 1.0000
vt 0.2985 1.0000
vt 0.2985 0.7103
vt 0.5970 0.7103
vt 0.2985 0.6154
vt 0.5970 0.6154
vn 0.2141 0.9717 0.0998
vn 0.0000 1.0000 0.0000
vn -0.2141 0.9717 -0.0998
usemtl Material_blk_concrete01_dif.tga
s off
f 463/569/264 464/570/264 457/571/264 458/572/264
f 463/569/265 462/573/265 461/574/265 464/570/265
f 462/573/266 460/575/266 459/576/266 461/574/266
o Cube.026_Cube.032
v 22.419075 0.200000 -39.486713
v 22.419075 -0.500000 -39.486713
v 23.264313 -0.500000 -41.299328
v 23.264313 0.200000 -41.299328
v 11.482311 0.200000 -46.793365
v 10.637075 0.200000 -44.980751
v 10.637075 -0.500000 -44.980751
v 11.482311 -0.500000 -46.793365
vt 1.0000 0.3077
vt 0.8955 0.3077
vt 0.8955 0.1538
vt 1.0000 0.1538
vt 0.0000 1.0000
vt 0.0000 0.0000
vt 0.2985 0.0000
vt 0.2985 1.0000
vt 1.0000 0.1538
vt 0.8955 0.1538
vt 0.8955 0.0000
vt 1.0000 0.0000
vn 0.9063 0.0000 0.4226
vn 0.0000 -1.0000 0.0000
vn -0.9063 0.0000 -0.4226
usemtl Material_blk_concrete01_dif.tga
s off
f 467/577/267 468/578/267 465/579/267 466/580/267
f 472/581/268 467/582/268 466/583/268 471/584/268
f 471/585/269 470/586/269 469/587/269 472/588/269
o Cube.023
v 7.994720 0.200000 -39.192226
v 7.229353 0.200000 -37.344467
v 12.614118 0.200000 -37.278809
v 11.848751 0.200000 -35.431049
v 10.708677 0.500000 -35.903282
v 11.474045 0.500000 -37.751041
v 9.134792 0.500000 -38.719990
v 8.369427 0.500000 -36.872231
vt 0.2985 0.3846
vt 0.2985 0.2897
vt 0.5970 0.2897
vt 0.5970 0.3846
vt 0.2985 0.0949
vt 0.5970 0.0949
vt 0.2985 0.0000
vt 0.5970 0.0000
vn 0.2182 0.9717 0.0904
vn 0.0000 1.0000 0.0000
vn -0.2182 0.9717 -0.0904
usemtl Material_blk_concrete01_dif.tga
s off
f 475/589/270 478/590/270 477/591/270 476/592/270
f 478/590/271 479/593/271 480/594/271 477/591/271
f 480/594/272 479/593/272 473/595/272 474/596/272
o Cube.022
v 19.239788 0.200000 -32.369583
v 20.005154 0.200000 -34.217339
v 14.620390 0.200000 -34.282997
v 15.385756 0.200000 -36.130756
v 15.760463 0.500000 -33.810764
v 16.525829 0.500000 -35.658524
v 18.865082 0.500000 -34.689575
v 18.099714 0.500000 -32.841816
vt 0.2985 0.9051
vt 0.5970 0.9051
vt 0.5970 1.0000
vt 0.2985 1.0000
vt 0.2985 0.7103
vt 0.5970 0.7103
vt 0.2985 0.6154
vt 0.5970 0.6154
vn 0.2182 0.9717 0.0904
vn 0.0000 1.0000 0.0000
vn -0.2182 0.9717 -0.0904
usemtl Material_blk_concrete01_dif.tga
s off
f 487/597/273 488/598/273 481/599/273 482/600/273
f 487/597/274 486/601/274 485/602/274 488/598/274
f 486/601/275 484/603/275 483/604/275 485/602/275
o Cube.021
v 19.239788 0.200000 -32.369583
v 19.239788 -0.500000 -32.369583
v 20.005154 -0.500000 -34.217339
v 20.005154 0.200000 -34.217339
v 7.994720 0.200000 -39.192226
v 7.229353 0.200000 -37.344467
v 7.229353 -0.500000 -37.344467
v 7.994720 -0.500000 -39.192226
vt 1.0000 0.3077
vt 0.8955 0.3077
vt 0.8955 0.1538
vt 1.0000 0.1538
vt 0.0000 1.0000
vt 0.0000 0.0000
vt 0.2985 0.0000
vt 0.2985 1.0000
vt 1.0000 0.1538
vt 0.8955 0.1538
vt 0.8955 0.0000
vt 1.0000 0.0000
vn 0.9239 0.0000 0.3827
vn 0.0000 -1.0000 -0.0000
vn -0.9239 0.0000 -0.3827
usemtl Material_blk_concrete01_dif.tga
s off
f 491/605/276 492/606/276 489/607/276 490/608/276
f 496/609/277 491/610/277 490/611/277 495/612/277
f 495/613/278 494/614/278 493/615/278 496/616/278
o Cube.020
v 16.725912 0.200000 -25.207691
v 16.725912 -0.500000 -25.207691
v 17.327324 -0.500000 -27.115124
v 17.327324 0.200000 -27.115124
v 4.929004 0.200000 -31.024300
v 4.327592 0.200000 -29.116865
v 4.327592 -0.500000 -29.116865
v 4.929004 -0.500000 -31.024300
vt 1.0000 0.3077
vt 0.8955 0.3077
vt 0.8955 0.1538
vt 1.0000 0.1538
vt 0.0000 1.0000
vt 0.0000 0.0000
vt 0.2985 0.0000
vt 0.2985 1.0000
vt 1.0000 0.1538
vt 0.8955 0.1538
vt 0.8955 0.0000
vt 1.0000 0.0000
vn 0.9537 0.0000 0.3007
vn 0.0000 -1.0000 0.0000
vn -0.9537 0.0000 -0.3007
usemtl Material_blk_concrete01_dif.tga
s off
f 499/617/279 500/618/279 497/619/279 498/620/279
f 504/621/280 499/622/280 498/623/280 503/624/280
f 503/625/281 502/626/281 501/627/281 504/628/281
o Cube.019
v 16.725912 0.200000 -25.207691
v 17.327324 0.200000 -27.115124
v 11.957328 0.200000 -26.711220
v 12.558739 0.200000 -28.618652
v 13.134220 0.500000 -26.340145
v 13.735632 0.500000 -28.247580
v 16.150433 0.500000 -27.486197
v 15.549020 0.500000 -25.578762
vt 0.2985 0.9051
vt 0.5970 0.9051
vt 0.5970 1.0000
vt 0.2985 1.0000
vt 0.2985 0.7103
vt 0.5970 0.7103
vt 0.2985 0.6154
vt 0.5970 0.6154
vn 0.2253 0.9717 0.0710
vn 0.0000 1.0000 0.0000
vn -0.2253 0.9717 -0.0710
usemtl Material_blk_concrete01_dif.tga
s off
f 511/629/282 512/630/282 505/631/282 506/632/282
f 511/629/283 510/633/283 509/634/283 512/630/283
f 510/633/284 508/635/284 507/636/284 509/634/284
o Cube.018
v 4.929004 0.200000 -31.024300
v 4.327592 0.200000 -29.116865
v 9.697588 0.200000 -29.520771
v 9.096177 0.200000 -27.613337
v 7.919284 0.500000 -27.984409
v 8.520696 0.500000 -29.891844
v 6.105896 0.500000 -30.653227
v 5.504484 0.500000 -28.745792
vt 0.2985 0.3846
vt 0.2985 0.2897
vt 0.5970 0.2897
vt 0.5970 0.3846
vt 0.2985 0.0949
vt 0.5970 0.0949
vt 0.2985 0.0000
vt 0.5970 0.0000
vn 0.2253 0.9717 0.0710
vn 0.0000 1.0000 0.0000
vn -0.2253 0.9717 -0.0710
usemtl Material_blk_concrete01_dif.tga
s off
f 515/637/285 518/638/285 517/639/285 516/640/285
f 518/638/286 519/641/286 520/642/286 517/639/286
f 520/642/287 519/641/287 513/643/287 514/644/287
o Cube.015
v 2.586834 0.200000 -22.620258
v 2.153955 0.200000 -20.667665
v 7.468314 0.200000 -21.538059
v 7.035435 0.200000 -19.585468
v 5.830680 0.500000 -19.852554
v 6.263559 0.500000 -21.805147
v 3.791589 0.500000 -22.353170
v 3.358710 0.500000 -20.400578
vt 0.2985 0.3846
vt 0.2985 0.2897
vt 0.5970 0.2897
vt 0.5970 0.3846
vt 0.2985 0.0949
vt 0.5970 0.0949
vt 0.2985 0.0000
vt 0.5970 0.0000
vn 0.2306 0.9717 0.0511
vn 0.0000 1.0000 0.0000
vn -0.2306 0.9717 -0.0511
usemtl Material_blk_concrete01_dif.tga
s off
f 523/645/288 526/646/288 525/647/288 524/648/288
f 526/646/289 527/649/289 528/650/289 525/647/289
f 528/650/290 527/649/290 521/651/290 522/652/290
o Cube.014
v 14.845803 0.200000 -17.853951
v 15.278683 0.200000 -19.806543
v 9.964323 0.200000 -18.936150
v 10.397202 0.200000 -20.888741
v 11.169079 0.500000 -18.669060
v 11.601957 0.500000 -20.621653
v 14.073927 0.500000 -20.073631
v 13.641048 0.500000 -18.121038
vt 0.2985 0.9051
vt 0.5970 0.9051
vt 0.5970 1.0000
vt 0.2985 1.0000
vt 0.2985 0.7103
vt 0.5970 0.7103
vt 0.2985 0.6154
vt 0.5970 0.6154
vn 0.2306 0.9717 0.0511
vn 0.0000 1.0000 0.0000
vn -0.2306 0.9717 -0.0511
usemtl Material_blk_concrete01_dif.tga
s off
f 535/653/291 536/654/291 529/655/291 530/656/291
f 535/653/292 534/657/292 533/658/292 536/654/292
f 534/657/293 532/659/293 531/660/293 533/658/293
o Cube.013
v 14.845803 0.200000 -17.853951
v 14.845803 -0.500000 -17.853951
v 15.278683 -0.500000 -19.806543
v 15.278683 0.200000 -19.806543
v 2.586834 0.200000 -22.620258
v 2.153955 0.200000 -20.667665
v 2.153955 -0.500000 -20.667665
v 2.586834 -0.500000 -22.620258
vt 1.0000 0.3077
vt 0.8955 0.3077
vt 0.8955 0.1538
vt 1.0000 0.1538
vt 0.0000 1.0000
vt 0.0000 0.0000
vt 0.2985 0.0000
vt 0.2985 1.0000
vt 1.0000 0.1538
vt 0.8955 0.1538
vt 0.8955 0.0000
vt 1.0000 0.0000
vn 0.9763 0.0000 0.2164
vn 0.0000 -1.0000 0.0000
vn -0.9763 0.0000 -0.2164
usemtl Material_blk_concrete01_dif.tga
s off
f 539/661/294 540/662/294 537/663/294 538/664/294
f 544/665/295 539/666/295 538/667/295 543/668/295
f 543/669/296 542/670/296 541/671/296 544/672/296
o Cube.012
v 13.613768 0.200000 -10.364334
v 13.613768 -0.500000 -10.364334
v 13.874819 -0.500000 -12.347224
v 13.874819 0.200000 -12.347224
v 0.986036 0.200000 -14.044065
v 0.724984 0.200000 -12.061174
v 0.724984 -0.500000 -12.061174
v 0.986036 -0.500000 -14.044065
vt 1.0000 0.3077
vt 0.8955 0.3077
vt 0.8955 0.1538
vt 1.0000 0.1538
vt 0.0000 1.0000
vt 0.0000 0.0000
vt 0.2985 0.0000
vt 0.2985 1.0000
vt 1.0000 0.1538
vt 0.8955 0.1538
vt 0.8955 0.0000
vt 1.0000 0.0000
vn 0.9914 0.0000 0.1305
vn 0.0000 -1.0000 -0.0000
vn -0.9914 0.0000 -0.1305
usemtl Material_blk_concrete01_dif.tga
s off
f 547/673/297 548/674/297 545/675/297 546/676/297
f 552/677/298 547/678/298 546/679/298 551/680/298
f 551/681/299 550/682/299 549/683/299 552/684/299
o Cube.011
v 13.613768 0.200000 -10.364334
v 13.874819 0.200000 -12.347224
v 8.656543 0.200000 -11.016966
v 8.917595 0.200000 -12.999855
v 9.879992 0.500000 -10.855896
v 10.141045 0.500000 -12.838785
v 12.651371 0.500000 -12.508294
v 12.390318 0.500000 -10.525404
vt 0.2985 0.9051
vt 0.5970 0.9051
vt 0.5970 1.0000
vt 0.2985 1.0000
vt 0.2985 0.7103
vt 0.5970 0.7103
vt 0.2985 0.6154
vt 0.5970 0.6154
vn 0.2342 0.9717 0.0308
vn 0.0000 1.0000 0.0000
vn -0.2342 0.9717 -0.0308
usemtl Material_blk_concrete01_dif.tga
s off
f 559/685/300 560/686/300 553/687/300 554/688/300
f 559/685/301 558/689/301 557/690/301 560/686/301
f 558/689/302 556/691/302 555/692/302 557/690/302
o Cube.010
v 0.986036 0.200000 -14.044065
v 0.724984 0.200000 -12.061174
v 5.943260 0.200000 -13.391434
v 5.682208 0.200000 -11.408545
v 4.458759 0.500000 -11.569614
v 4.719811 0.500000 -13.552504
v 2.209485 0.500000 -13.882995
v 1.948432 0.500000 -11.900105
vt 0.2985 0.3846
vt 0.2985 0.2897
vt 0.5970 0.2897
vt 0.5970 0.3846
vt 0.2985 0.0949
vt 0.5970 0.0949
vt 0.2985 0.0000
vt 0.5970 0.0000
vn 0.2342 0.9717 0.0308
vn 0.0000 1.0000 0.0000
vn -0.2342 0.9717 -0.0308
usemtl Material_blk_concrete01_dif.tga
s off
f 563/693/303 566/694/303 565/695/303 564/696/303
f 566/694/304 567/697/304 568/698/304 565/695/304
f 568/698/305 567/697/305 561/699/305 562/700/305
o Cube.007
v 0.138794 0.200000 -5.360987
v 0.051556 0.200000 -3.362891
v 5.134035 0.200000 -5.142890
v 5.046797 0.200000 -3.144794
v 3.813965 0.500000 -3.198620
v 3.901204 0.500000 -5.196717
v 1.371626 0.500000 -5.307160
v 1.284387 0.500000 -3.309064
vt 0.2985 0.3846
vt 0.2985 0.2897
vt 0.5970 0.2897
vt 0.5970 0.3846
vt 0.2985 0.0949
vt 0.5970 0.0949
vt 0.2985 0.0000
vt 0.5970 0.0000
vn 0.2360 0.9717 0.0103
vn 0.0000 1.0000 0.0000
vn -0.2360 0.9717 -0.0103
usemtl Material_blk_concrete01_dif.tga
s off
f 571/701/306 574/702/306 573/703/306 572/704/306
f 574/702/307 575/705/307 576/706/307 573/703/307
f 576/706/308 575/705/308 569/707/308 570/708/308
o Cube.006
v 13.039183 0.200000 -2.795839
v 13.126421 0.200000 -4.793935
v 8.043941 0.200000 -3.013936
v 8.131180 0.200000 -5.012033
v 9.276773 0.500000 -2.960109
v 9.364012 0.500000 -4.958205
v 11.893590 0.500000 -4.847762
v 11.806351 0.500000 -2.849665
vt 0.2985 0.9051
vt 0.5970 0.9051
vt 0.5970 1.0000
vt 0.2985 1.0000
vt 0.2985 0.7103
vt 0.5970 0.7103
vt 0.2985 0.6154
vt 0.5970 0.6154
vn 0.2360 0.9717 0.0103
vn 0.0000 1.0000 0.0000
vn -0.2360 0.9717 -0.0103
usemtl Material_blk_concrete01_dif.tga
s off
f 583/709/309 584/710/309 577/711/309 578/712/309
f 583/709/310 582/713/310 581/714/310 584/710/310
f 582/713/311 580/715/311 579/716/311 581/714/311
o Cube.005
v 13.039183 0.200000 -2.795839
v 13.039183 -0.500000 -2.795839
v 13.126421 -0.500000 -4.793935
v 13.126421 0.200000 -4.793935
v 0.138794 0.200000 -5.360987
v 0.051556 0.200000 -3.362891
v 0.051556 -0.500000 -3.362891
v 0.138794 -0.500000 -5.360987
vt 1.0000 0.3077
vt 0.8955 0.3077
vt 0.8955 0.1538
vt 1.0000 0.1538
vt 0.0000 1.0000
vt 0.0000 0.0000
vt 0.2985 0.0000
vt 0.2985 1.0000
vt 1.0000 0.1538
vt 0.8955 0.1538
vt 0.8955 0.0000
vt 1.0000 0.0000
vn 0.9990 0.0000 0.0436
vn 0.0000 -1.0000 0.0000
vn -0.9990 0.0000 -0.0436
usemtl Material_blk_concrete01_dif.tga
s off
f 587/717/312 588/718/312 585/719/312 586/720/312
f 592/721/313 587/722/313 586/723/313 591/724/313
f 591/725/314 590/726/314 589/727/314 592/728/314
o Cube.004
v 13.000000 0.200000 5.000000
v 13.000000 -0.500000 5.000000
v 13.000000 -0.500000 3.000000
v 13.000000 0.200000 3.000000
v 0.000000 0.200000 3.000000
v 0.000000 0.200000 5.000000
v 0.000000 -0.500000 5.000000
v 0.000000 -0.500000 3.000000
vt 1.0000 0.3077
vt 0.8955 0.3077
vt 0.8955 0.1538
vt 1.0000 0.1538
vt 0.0000 1.0000
vt 0.0000 0.0000
vt 0.2985 0.0000
vt 0.2985 1.0000
vt 1.0000 0.1538
vt 0.8955 0.1538
vt 0.8955 0.0000
vt 1.0000 0.0000
vn 1.0000 0.0000 0.0000
vn 0.0000 -1.0000 0.0000
vn -1.0000 0.0000 0.0000
usemtl Material_blk_concrete01_dif.tga
s off
f 595/729/315 596/730/315 593/731/315 594/732/315
f 600/733/316 595/734/316 594/735/316 599/736/316
f 599/737/317 598/738/317 597/739/317 600/740/317
o Cube.003
v 13.000000 0.200000 5.000000
v 13.000000 0.200000 3.000000
v 8.000000 0.200000 5.000000
v 8.000000 0.200000 3.000000
v 9.234006 0.500000 5.000000
v 9.234006 0.500000 3.000000
v 11.765994 0.500000 3.000000
v 11.765994 0.500000 5.000000
vt 0.2985 0.9051
vt 0.5970 0.9051
vt 0.5970 1.0000
vt 0.2985 1.0000
vt 0.2985 0.7103
vt 0.5970 0.7103
vt 0.2985 0.6154
vt 0.5970 0.6154
vn 0.2362 0.9717 0.0000
vn 0.0000 1.0000 0.0000
vn -0.2362 0.9717 0.0000
usemtl Material_blk_concrete01_dif.tga
s off
f 607/741/318 608/742/318 601/743/318 602/744/318
f 607/741/319 606/745/319 605/746/319 608/742/319
f 606/745/320 604/747/320 603/748/320 605/746/320
o Cube.002_Cube.001
v 0.000000 0.200000 3.000000
v 0.000000 0.200000 5.000000
v 5.000000 0.200000 3.000000
v 5.000000 0.200000 5.000000
v 3.765994 0.500000 5.000000
v 3.765994 0.500000 3.000000
v 1.234006 0.500000 3.000000
v 1.234006 0.500000 5.000000
vt 0.2985 0.3846
vt 0.2985 0.2897
vt 0.5970 0.2897
vt 0.5970 0.3846
vt 0.2985 0.0949
vt 0.5970 0.0949
vt 0.2985 0.0000
vt 0.5970 0.0000
vn 0.2362 0.9717 0.0000
vn 0.0000 1.0000 0.0000
vn -0.2362 0.9717 0.0000
usemtl Material_blk_concrete01_dif.tga
s off
f 611/749/321 614/750/321 613/751/321 612/752/321
f 614/750/322 615/753/322 616/754/322 613/751/322
f 616/754/323 615/753/323 609/755/323 610/756/323
