# Blender v2.78 (sub 0) OBJ File: 'RailX_col.blend'
# www.blender.org
mtllib RailX_col.mtl
o Cube.045
v 10.343821 0.955870 -57.000000
v 10.656172 0.955870 -57.000000
v 10.277008 1.905696 -57.000008
v 10.722984 1.905696 -57.000000
v 10.174140 1.539267 -57.000008
v 10.147930 1.606314 -57.000000
v 10.852064 1.606314 -57.000000
v 10.825853 1.539267 -57.000000
v 10.147930 1.830535 -57.000008
v 10.172984 1.872461 -57.000008
v 10.827009 1.872461 -57.000000
v 10.852064 1.830535 -57.000000
v 10.343821 1.447078 -57.000008
v 10.319145 1.491613 -57.000000
v 10.680847 1.491613 -57.000000
v 10.656172 1.447078 -57.000000
v 10.680851 1.491613 -32.680851
v 10.343823 0.955870 -32.343822
v 10.343823 1.447078 -32.343822
v 10.722988 1.905696 -32.722988
v 10.825857 1.539267 -32.825859
v 10.852068 1.606314 -32.852066
v 10.827013 1.872461 -32.827015
v 10.174143 1.539267 -32.174145
v 10.147932 1.606314 -32.147934
v 10.172987 1.872461 -32.172989
v 10.852068 1.830535 -32.852066
v 10.147932 1.830535 -32.147934
v 10.277012 1.905696 -32.277012
v 10.656176 1.447078 -32.656178
v 10.656176 0.955870 -32.656178
v 10.319149 1.491613 -32.319149
vt 0.2187 0.8458
vt 0.2187 0.8403
vt 0.2189 0.8403
vt 0.2189 0.8458
vt 0.2189 0.8403
vt 0.2189 0.8458
vt 0.2187 0.8458
vt 0.2187 0.8403
vt 0.2187 0.8403
vt 0.2187 0.8458
vt 0.2191 0.8403
vt 0.2191 0.8347
vt 0.2191 0.8347
vt 0.2191 0.8403
vt 0.2192 0.8347
vt 0.2192 0.8403
vt 0.2192 0.8347
vt 0.2192 0.8403
vt 0.2187 0.8347
vt 0.2187 0.8403
vt 0.2187 0.8402
vt 0.2187 0.8347
vt 0.1137 0.7913
vt 0.1137 0.7968
vt 0.1136 0.7967
vt 0.1136 0.7913
vt 0.2186 0.8347
vt 0.2186 0.8401
vt 0.2186 0.8401
vt 0.2186 0.8347
vt 0.2190 0.8456
vt 0.2190 0.8403
vt 0.2190 0.8403
vt 0.2190 0.8456
vt 0.2191 0.8403
vt 0.2191 0.8456
vt 0.2191 0.8403
vt 0.2191 0.8456
vt 0.2186 0.8512
vt 0.2240 0.8512
vt 0.2241 0.8512
vt 0.2186 0.8512
vt 0.2189 0.8457
vt 0.2189 0.8403
vt 0.2189 0.8403
vt 0.2189 0.8457
vt 0.2190 0.8403
vt 0.2190 0.8457
vn -1.0000 0.0000 0.0000
vn -0.9595 -0.2816 0.0000
vn -0.9682 -0.2503 0.0000
vn -0.5264 -0.8502 0.0000
vn -0.6375 -0.7705 0.0000
vn -0.8116 -0.5842 0.0000
vn -0.6873 -0.7263 0.0000
vn -0.9868 -0.1620 0.0000
vn -0.9827 -0.1853 0.0000
vn -0.9758 0.2185 0.0000
vn -0.9640 0.2661 0.0000
vn -0.7399 0.6728 0.0000
vn -0.6215 0.7834 0.0000
vn -0.2297 0.9733 0.0000
vn -0.1540 0.9881 0.0000
vn 0.0785 0.9969 -0.0000
vn 0.1540 0.9881 -0.0000
vn 0.5101 0.8601 -0.0000
vn 0.6215 0.7834 -0.0000
vn 0.9537 0.3008 -0.0000
vn 0.9640 0.2661 -0.0000
vn 0.9790 -0.2037 -0.0000
vn 0.9827 -0.1853 -0.0000
vn 0.5743 -0.8186 -0.0000
vn 0.6873 -0.7263 -0.0000
vn 0.7560 -0.6545 -0.0000
vn 0.6374 -0.7705 -0.0000
vn 0.9781 -0.2081 -0.0000
vn 0.9682 -0.2503 -0.0000
vn 1.0000 0.0000 -0.0000
usemtl Material
s 1
f 1/1/1 18/2/1 19/3/2 13/4/3
f 13/4/3 19/3/2 32/5/4 14/6/5
f 14/7/5 32/8/4 24/9/6 5/10/7
f 5/11/7 24/12/6 25/13/8 6/14/9
f 6/14/9 25/13/8 28/15/10 9/16/11
f 9/16/11 28/15/10 26/17/12 10/18/13
f 10/19/13 26/20/12 29/21/14 3/22/15
f 3/23/15 29/24/14 20/25/16 4/26/17
f 4/27/17 20/28/16 23/29/18 11/30/19
f 11/31/19 23/32/18 27/33/20 12/34/21
f 12/34/21 27/33/20 22/35/22 7/36/23
f 7/36/23 22/35/22 21/37/24 8/38/25
f 8/39/25 21/40/24 17/41/26 15/42/27
f 15/43/27 17/44/26 30/45/28 16/46/29
f 16/46/29 30/45/28 31/47/30 2/48/30
o Cube.044
v 35.000000 0.955870 -32.343826
v 35.000000 0.955870 -32.656181
v 34.999992 1.905696 -32.277016
v 35.000000 1.905696 -32.722992
v 34.999996 1.606314 -32.147934
v 34.999996 1.539267 -32.174145
v 35.000000 1.539267 -32.825859
v 35.000000 1.606314 -32.852070
v 34.999992 1.872461 -32.172989
v 34.999992 1.830535 -32.147934
v 35.000000 1.830535 -32.852070
v 35.000000 1.872461 -32.827019
v 34.999996 1.491613 -32.319153
v 34.999996 1.447078 -32.343826
v 35.000000 1.447078 -32.656181
v 35.000000 1.491613 -32.680855
v 10.680851 1.491613 -32.680851
v 10.343823 0.955870 -32.343822
v 10.343823 1.447078 -32.343822
v 10.722988 1.905696 -32.722988
v 10.825857 1.539267 -32.825859
v 10.852068 1.606314 -32.852066
v 10.827013 1.872461 -32.827015
v 10.174143 1.539267 -32.174145
v 10.147932 1.606314 -32.147934
v 10.172987 1.872461 -32.172989
v 10.852068 1.830535 -32.852066
v 10.147932 1.830535 -32.147934
v 10.277012 1.905696 -32.277012
v 10.656176 1.447078 -32.656178
v 10.656176 0.955870 -32.656178
v 10.319149 1.491613 -32.319149
vt 0.2131 0.8403
vt 0.2131 0.8402
vt 0.2187 0.8402
vt 0.2187 0.8403
vt 0.2240 0.8458
vt 0.2241 0.8458
vt 0.2241 0.8512
vt 0.2240 0.8512
vt 0.2189 0.8347
vt 0.2189 0.8401
vt 0.2189 0.8401
vt 0.2189 0.8347
vt 0.2190 0.8401
vt 0.2190 0.8347
vt 0.2190 0.8347
vt 0.2191 0.8347
vt 0.2191 0.8403
vt 0.2190 0.8403
vt 0.2191 0.8403
vt 0.2191 0.8403
vt 0.2191 0.8456
vt 0.2191 0.8456
vt 0.2190 0.8403
vt 0.2190 0.8347
vt 0.2189 0.8402
vt 0.2187 0.8402
vt 0.2187 0.8347
vt 0.2189 0.8347
vt 0.2187 0.8402
vt 0.2187 0.8347
vt 0.2131 0.8403
vt 0.2131 0.8403
vt 0.2187 0.8403
vt 0.2187 0.8403
vt 0.1137 0.7968
vt 0.1082 0.7968
vt 0.1082 0.7967
vt 0.1136 0.7967
vt 0.2131 0.8401
vt 0.2131 0.8401
vt 0.2186 0.8401
vt 0.2186 0.8401
vt 0.2192 0.8456
vt 0.2192 0.8403
vt 0.2192 0.8403
vt 0.2192 0.8456
vt 0.2191 0.8347
vt 0.2191 0.8403
vn 0.0000 0.7834 0.6215
vn 0.0000 0.9881 0.1540
vn 0.0000 0.9733 0.2297
vn -0.0000 0.6728 0.7398
vn -0.0000 -0.7263 -0.6874
vn -0.0000 -0.7705 -0.6375
vn -0.0000 -0.6545 -0.7561
vn -0.0000 -0.8186 -0.5743
vn -0.0000 -0.2503 -0.9682
vn -0.0000 -0.2081 -0.9781
vn -0.0000 0.0000 -1.0000
vn -0.0000 0.2185 0.9758
vn -0.0000 -0.1620 0.9868
vn -0.0000 -0.1853 0.9827
vn -0.0000 0.2661 0.9640
vn -0.0000 -0.2037 -0.9790
vn -0.0000 -0.1852 -0.9827
vn 0.0000 0.0000 1.0000
vn 0.0000 -0.2503 0.9682
vn 0.0000 -0.2816 0.9595
vn 0.0000 -0.7705 0.6375
vn 0.0000 -0.8502 0.5264
vn 0.0000 -0.7263 0.6873
vn 0.0000 -0.5842 0.8116
vn -0.0000 0.9881 -0.1540
vn -0.0000 0.9969 -0.0785
vn -0.0000 0.7834 -0.6216
vn -0.0000 0.8601 -0.5102
vn -0.0000 0.2660 -0.9640
vn -0.0000 0.3007 -0.9537
usemtl Material
s 1
f 41/49/31 35/50/32 61/51/33 58/52/34
f 39/53/35 48/54/36 49/55/37 53/56/38
f 47/57/39 62/58/40 49/59/37 48/60/36
f 63/61/41 62/58/40 47/57/39 34/62/41
f 60/63/42 57/64/43 37/65/44 42/66/45
f 53/67/38 54/68/46 40/69/47 39/70/35
f 41/71/31 58/72/34 60/63/42 42/66/45
f 33/73/48 46/74/49 51/75/50 50/76/48
f 46/74/49 45/77/51 64/78/52 51/75/50
f 45/79/51 38/80/53 56/81/54 64/82/52
f 61/83/33 35/84/32 36/85/55 52/86/56
f 36/87/55 44/88/57 55/89/58 52/90/56
f 43/91/59 59/92/60 55/93/58 44/94/57
f 54/68/46 59/92/60 43/91/59 40/69/47
f 37/65/44 57/64/43 56/95/54 38/96/53
o Cube.043
v 35.000000 0.955870 -24.656179
v 35.000000 0.955870 -24.343826
v 35.000008 1.905697 -24.722992
v 35.000000 1.905697 -24.277016
v 35.000004 1.539267 -24.825859
v 35.000004 1.606315 -24.852070
v 35.000000 1.606315 -24.147936
v 35.000000 1.539267 -24.174145
v 35.000008 1.830535 -24.852070
v 35.000008 1.872461 -24.827015
v 35.000000 1.872461 -24.172989
v 35.000000 1.830535 -24.147936
v 35.000008 1.447078 -24.656179
v 35.000004 1.491614 -24.680855
v 35.000000 1.491614 -24.319153
v 35.000000 1.447078 -24.343826
v 10.680849 1.491614 -24.319149
v 10.343822 0.955870 -24.656178
v 10.343824 1.447078 -24.656178
v 10.722988 1.905697 -24.277012
v 10.825859 1.539267 -24.174145
v 10.852068 1.606315 -24.147934
v 10.827013 1.872461 -24.172989
v 10.174144 1.539267 -24.825859
v 10.147932 1.606315 -24.852068
v 10.172988 1.872461 -24.827013
v 10.852068 1.830535 -24.147934
v 10.147932 1.830535 -24.852068
v 10.277012 1.905697 -24.722988
v 10.656176 1.447078 -24.343824
v 10.656176 0.955870 -24.343824
v 10.319149 1.491614 -24.680851
vt 0.2187 0.8458
vt 0.2187 0.8403
vt 0.2189 0.8403
vt 0.2189 0.8458
vt 0.2189 0.8403
vt 0.2189 0.8458
vt 0.2187 0.8458
vt 0.2187 0.8403
vt 0.2187 0.8403
vt 0.2187 0.8458
vt 0.2191 0.8403
vt 0.2191 0.8347
vt 0.2191 0.8347
vt 0.2191 0.8403
vt 0.2192 0.8347
vt 0.2192 0.8403
vt 0.2192 0.8347
vt 0.2192 0.8403
vt 0.2187 0.8347
vt 0.2187 0.8403
vt 0.2187 0.8402
vt 0.2187 0.8347
vt 0.1137 0.7913
vt 0.1137 0.7968
vt 0.1136 0.7967
vt 0.1136 0.7913
vt 0.2186 0.8347
vt 0.2186 0.8401
vt 0.2186 0.8401
vt 0.2186 0.8347
vt 0.2190 0.8456
vt 0.2190 0.8403
vt 0.2190 0.8403
vt 0.2190 0.8456
vt 0.2191 0.8403
vt 0.2191 0.8456
vt 0.2191 0.8403
vt 0.2191 0.8456
vt 0.2186 0.8512
vt 0.2240 0.8512
vt 0.2241 0.8512
vt 0.2186 0.8512
vt 0.2189 0.8457
vt 0.2189 0.8403
vt 0.2189 0.8403
vt 0.2189 0.8457
vt 0.2190 0.8403
vt 0.2190 0.8457
vn -0.0000 0.0000 -1.0000
vn -0.0000 -0.2816 -0.9595
vn -0.0000 -0.2503 -0.9682
vn -0.0000 -0.8502 -0.5264
vn -0.0000 -0.7705 -0.6375
vn -0.0000 -0.5842 -0.8116
vn -0.0000 -0.7263 -0.6873
vn -0.0000 -0.1620 -0.9868
vn -0.0000 -0.1852 -0.9827
vn -0.0000 0.2185 -0.9758
vn -0.0000 0.2661 -0.9639
vn -0.0000 0.6728 -0.7398
vn -0.0000 0.7834 -0.6215
vn -0.0000 0.9733 -0.2297
vn -0.0000 0.9881 -0.1540
vn 0.0000 0.9969 0.0785
vn 0.0000 0.9881 0.1540
vn -0.0000 0.8601 0.5101
vn -0.0000 0.7834 0.6215
vn -0.0000 0.3008 0.9537
vn 0.0000 0.2661 0.9640
vn 0.0000 -0.2037 0.9790
vn 0.0000 -0.1852 0.9827
vn 0.0000 -0.8186 0.5743
vn 0.0000 -0.7263 0.6873
vn 0.0000 -0.6545 0.7560
vn 0.0000 -0.7705 0.6375
vn 0.0000 -0.2081 0.9781
vn 0.0000 -0.2503 0.9682
vn 0.0000 0.0000 1.0000
usemtl Material
s 1
f 65/97/61 82/98/61 83/99/62 77/100/63
f 77/100/63 83/99/62 96/101/64 78/102/65
f 78/103/65 96/104/64 88/105/66 69/106/67
f 69/107/67 88/108/66 89/109/68 70/110/69
f 70/110/69 89/109/68 92/111/70 73/112/71
f 73/112/71 92/111/70 90/113/72 74/114/73
f 74/115/73 90/116/72 93/117/74 67/118/75
f 67/119/75 93/120/74 84/121/76 68/122/77
f 68/123/77 84/124/76 87/125/78 75/126/79
f 75/127/79 87/128/78 91/129/80 76/130/81
f 76/130/81 91/129/80 86/131/82 71/132/83
f 71/132/83 86/131/82 85/133/84 72/134/85
f 72/135/85 85/136/84 81/137/86 79/138/87
f 79/139/87 81/140/86 94/141/88 80/142/89
f 80/142/89 94/141/88 95/143/90 66/144/90
o Cube.042
v 10.343826 0.955870 -0.000001
v 10.656178 0.955870 -0.000001
v 10.277012 1.905696 -0.000006
v 10.722988 1.905696 -0.000001
v 10.147934 1.606314 -0.000003
v 10.174145 1.539267 -0.000003
v 10.825859 1.539267 -0.000001
v 10.852070 1.606314 -0.000001
v 10.172989 1.872461 -0.000006
v 10.147934 1.830535 -0.000006
v 10.852070 1.830535 -0.000001
v 10.827015 1.872461 -0.000001
v 10.319149 1.491613 -0.000003
v 10.343826 1.447078 -0.000003
v 10.656178 1.447078 -0.000001
v 10.680851 1.491613 -0.000001
v 10.680849 1.491614 -24.319149
v 10.343822 0.955870 -24.656178
v 10.343824 1.447078 -24.656178
v 10.722988 1.905697 -24.277012
v 10.825859 1.539267 -24.174145
v 10.852068 1.606315 -24.147934
v 10.827013 1.872461 -24.172989
v 10.174144 1.539267 -24.825859
v 10.147932 1.606315 -24.852068
v 10.172988 1.872461 -24.827013
v 10.852068 1.830535 -24.147934
v 10.147932 1.830535 -24.852068
v 10.277012 1.905697 -24.722988
v 10.656176 1.447078 -24.343824
v 10.656176 0.955870 -24.343824
v 10.319149 1.491614 -24.680851
vt 0.2131 0.8403
vt 0.2131 0.8402
vt 0.2187 0.8402
vt 0.2187 0.8403
vt 0.2240 0.8458
vt 0.2241 0.8458
vt 0.2241 0.8512
vt 0.2240 0.8512
vt 0.2189 0.8347
vt 0.2189 0.8401
vt 0.2189 0.8401
vt 0.2189 0.8347
vt 0.2190 0.8401
vt 0.2190 0.8347
vt 0.2190 0.8347
vt 0.2191 0.8347
vt 0.2191 0.8403
vt 0.2190 0.8403
vt 0.2191 0.8403
vt 0.2191 0.8403
vt 0.2191 0.8456
vt 0.2191 0.8456
vt 0.2190 0.8403
vt 0.2190 0.8347
vt 0.2189 0.8402
vt 0.2187 0.8402
vt 0.2187 0.8347
vt 0.2189 0.8347
vt 0.2187 0.8402
vt 0.2187 0.8347
vt 0.2131 0.8403
vt 0.2131 0.8403
vt 0.2187 0.8403
vt 0.2187 0.8403
vt 0.1137 0.7968
vt 0.1082 0.7968
vt 0.1082 0.7967
vt 0.1136 0.7967
vt 0.2131 0.8401
vt 0.2131 0.8401
vt 0.2186 0.8401
vt 0.2186 0.8401
vt 0.2192 0.8456
vt 0.2192 0.8403
vt 0.2192 0.8403
vt 0.2192 0.8456
vt 0.2191 0.8347
vt 0.2191 0.8403
vn -0.6215 0.7834 0.0000
vn -0.1540 0.9881 0.0000
vn -0.2297 0.9733 0.0000
vn -0.7398 0.6728 0.0000
vn 0.6873 -0.7263 -0.0000
vn 0.6375 -0.7705 -0.0000
vn 0.7561 -0.6545 -0.0000
vn 0.5743 -0.8186 -0.0000
vn 0.9682 -0.2503 -0.0000
vn 0.9781 -0.2081 -0.0000
vn 1.0000 0.0000 -0.0000
vn -0.9758 0.2185 0.0000
vn -0.9868 -0.1621 0.0000
vn -0.9827 -0.1853 0.0000
vn -0.9639 0.2661 0.0000
vn 0.9790 -0.2037 -0.0000
vn 0.9827 -0.1853 -0.0000
vn -1.0000 0.0000 0.0000
vn -0.9682 -0.2503 0.0000
vn -0.9595 -0.2816 0.0000
vn -0.6374 -0.7705 0.0000
vn -0.5264 -0.8502 0.0000
vn -0.6873 -0.7263 0.0000
vn -0.8116 -0.5842 0.0000
vn 0.1540 0.9881 0.0000
vn 0.0785 0.9969 0.0000
vn 0.6215 0.7834 -0.0000
vn 0.5101 0.8601 -0.0000
vn 0.9639 0.2661 -0.0000
vn 0.9537 0.3008 -0.0000
usemtl Material
s 1
f 105/145/91 99/146/92 125/147/93 122/148/94
f 103/149/95 112/150/96 113/151/97 117/152/98
f 111/153/99 126/154/100 113/155/97 112/156/96
f 127/157/101 126/154/100 111/153/99 98/158/101
f 124/159/102 121/160/103 101/161/104 106/162/105
f 117/163/98 118/164/106 104/165/107 103/166/95
f 105/167/91 122/168/94 124/159/102 106/162/105
f 97/169/108 110/170/109 115/171/110 114/172/108
f 110/170/109 109/173/111 128/174/112 115/171/110
f 109/175/111 102/176/113 120/177/114 128/178/112
f 125/179/93 99/180/92 100/181/115 116/182/116
f 100/183/115 108/184/117 119/185/118 116/186/116
f 107/187/119 123/188/120 119/189/118 108/190/117
f 118/164/106 123/188/120 107/187/119 104/165/107
f 101/161/104 121/160/103 120/191/114 102/192/113
o Cube.041
v 2.656176 0.955870 0.000000
v 2.343824 0.955870 -0.000001
v 2.722988 1.905697 0.000006
v 2.277012 1.905697 -0.000001
v 2.825857 1.539268 0.000003
v 2.852067 1.606315 0.000003
v 2.147933 1.606315 -0.000001
v 2.174142 1.539268 -0.000001
v 2.852067 1.830535 0.000006
v 2.827012 1.872461 0.000006
v 2.172987 1.872461 -0.000003
v 2.147933 1.830535 -0.000003
v 2.656176 1.447078 0.000003
v 2.680851 1.491614 0.000003
v 2.319149 1.491614 -0.000001
v 2.343824 1.447078 -0.000001
v 2.319149 1.491614 -24.319151
v 2.656176 0.955870 -24.656178
v 2.656176 1.447078 -24.656178
v 2.277012 1.905697 -24.277012
v 2.174143 1.539268 -24.174141
v 2.147933 1.606315 -24.147934
v 2.172987 1.872461 -24.172987
v 2.825857 1.539268 -24.825857
v 2.852067 1.606315 -24.852068
v 2.827012 1.872461 -24.827013
v 2.147933 1.830535 -24.147934
v 2.852067 1.830535 -24.852068
v 2.722988 1.905697 -24.722988
v 2.343824 1.447078 -24.343824
v 2.343824 0.955870 -24.343824
v 2.680851 1.491614 -24.680851
vt 0.2187 0.8458
vt 0.2187 0.8403
vt 0.2189 0.8403
vt 0.2189 0.8458
vt 0.2189 0.8403
vt 0.2189 0.8458
vt 0.2187 0.8458
vt 0.2187 0.8403
vt 0.2187 0.8403
vt 0.2187 0.8458
vt 0.2191 0.8403
vt 0.2191 0.8347
vt 0.2191 0.8347
vt 0.2191 0.8403
vt 0.2192 0.8347
vt 0.2192 0.8403
vt 0.2192 0.8347
vt 0.2192 0.8403
vt 0.2187 0.8347
vt 0.2187 0.8403
vt 0.2187 0.8402
vt 0.2187 0.8347
vt 0.1137 0.7913
vt 0.1137 0.7968
vt 0.1136 0.7967
vt 0.1136 0.7913
vt 0.2186 0.8347
vt 0.2186 0.8401
vt 0.2186 0.8401
vt 0.2186 0.8347
vt 0.2190 0.8456
vt 0.2190 0.8403
vt 0.2190 0.8403
vt 0.2190 0.8456
vt 0.2191 0.8403
vt 0.2191 0.8456
vt 0.2191 0.8403
vt 0.2191 0.8456
vt 0.2186 0.8512
vt 0.2240 0.8512
vt 0.2241 0.8512
vt 0.2186 0.8512
vt 0.2189 0.8457
vt 0.2189 0.8403
vt 0.2189 0.8403
vt 0.2189 0.8457
vt 0.2190 0.8403
vt 0.2190 0.8457
vn 1.0000 0.0000 0.0000
vn 0.9595 -0.2816 0.0000
vn 0.9682 -0.2503 0.0000
vn 0.5264 -0.8502 0.0000
vn 0.6374 -0.7705 0.0000
vn 0.8116 -0.5842 0.0000
vn 0.6873 -0.7263 0.0000
vn 0.9868 -0.1620 0.0000
vn 0.9827 -0.1853 0.0000
vn 0.9758 0.2185 0.0000
vn 0.9640 0.2661 0.0000
vn 0.7398 0.6728 0.0000
vn 0.6215 0.7834 0.0000
vn 0.2297 0.9733 0.0000
vn 0.1540 0.9881 0.0000
vn -0.0785 0.9969 0.0000
vn -0.1540 0.9881 0.0000
vn -0.5101 0.8601 0.0000
vn -0.6215 0.7834 0.0000
vn -0.9537 0.3008 0.0000
vn -0.9640 0.2661 0.0000
vn -0.9790 -0.2037 -0.0000
vn -0.9827 -0.1853 -0.0000
vn -0.5743 -0.8186 -0.0000
vn -0.6873 -0.7263 -0.0000
vn -0.7560 -0.6545 -0.0000
vn -0.6374 -0.7705 -0.0000
vn -0.9781 -0.2081 0.0000
vn -0.9682 -0.2503 0.0000
vn -1.0000 0.0000 0.0000
usemtl Material
s 1
f 129/193/121 146/194/121 147/195/122 141/196/123
f 141/196/123 147/195/122 160/197/124 142/198/125
f 142/199/125 160/200/124 152/201/126 133/202/127
f 133/203/127 152/204/126 153/205/128 134/206/129
f 134/206/129 153/205/128 156/207/130 137/208/131
f 137/208/131 156/207/130 154/209/132 138/210/133
f 138/211/133 154/212/132 157/213/134 131/214/135
f 131/215/135 157/216/134 148/217/136 132/218/137
f 132/219/137 148/220/136 151/221/138 139/222/139
f 139/223/139 151/224/138 155/225/140 140/226/141
f 140/226/141 155/225/140 150/227/142 135/228/143
f 135/228/143 150/227/142 149/229/144 136/230/145
f 136/231/145 149/232/144 145/233/146 143/234/147
f 143/235/147 145/236/146 158/237/148 144/238/149
f 144/238/149 158/237/148 159/239/150 130/240/150
o Cube.040
v -22.000000 0.955870 -24.656174
v -22.000000 0.955870 -24.343822
v -21.999994 1.905697 -24.722988
v -22.000000 1.905697 -24.277012
v -21.999996 1.606314 -24.852066
v -21.999996 1.539267 -24.825855
v -22.000000 1.539267 -24.174141
v -22.000000 1.606314 -24.147930
v -21.999994 1.872461 -24.827011
v -21.999994 1.830535 -24.852066
v -22.000000 1.830535 -24.147930
v -22.000000 1.872461 -24.172985
v -21.999996 1.491614 -24.680851
v -21.999996 1.447078 -24.656174
v -22.000000 1.447078 -24.343822
v -22.000000 1.491614 -24.319149
v 2.319149 1.491614 -24.319151
v 2.656176 0.955870 -24.656178
v 2.656176 1.447078 -24.656178
v 2.277012 1.905697 -24.277012
v 2.174143 1.539268 -24.174141
v 2.147933 1.606315 -24.147934
v 2.172987 1.872461 -24.172987
v 2.825857 1.539268 -24.825857
v 2.852067 1.606315 -24.852068
v 2.827012 1.872461 -24.827013
v 2.147933 1.830535 -24.147934
v 2.852067 1.830535 -24.852068
v 2.722988 1.905697 -24.722988
v 2.343824 1.447078 -24.343824
v 2.343824 0.955870 -24.343824
v 2.680851 1.491614 -24.680851
vt 0.2131 0.8403
vt 0.2131 0.8402
vt 0.2187 0.8402
vt 0.2187 0.8403
vt 0.2240 0.8458
vt 0.2241 0.8458
vt 0.2241 0.8512
vt 0.2240 0.8512
vt 0.2189 0.8347
vt 0.2189 0.8401
vt 0.2189 0.8401
vt 0.2189 0.8347
vt 0.2190 0.8401
vt 0.2190 0.8347
vt 0.2190 0.8347
vt 0.2191 0.8347
vt 0.2191 0.8403
vt 0.2190 0.8403
vt 0.2191 0.8403
vt 0.2191 0.8403
vt 0.2191 0.8456
vt 0.2191 0.8456
vt 0.2190 0.8403
vt 0.2190 0.8347
vt 0.2189 0.8402
vt 0.2187 0.8402
vt 0.2187 0.8347
vt 0.2189 0.8347
vt 0.2187 0.8402
vt 0.2187 0.8347
vt 0.2131 0.8403
vt 0.2131 0.8403
vt 0.2187 0.8403
vt 0.2187 0.8403
vt 0.1137 0.7968
vt 0.1082 0.7968
vt 0.1082 0.7967
vt 0.1136 0.7967
vt 0.2131 0.8401
vt 0.2131 0.8401
vt 0.2186 0.8401
vt 0.2186 0.8401
vt 0.2192 0.8456
vt 0.2192 0.8403
vt 0.2192 0.8403
vt 0.2192 0.8456
vt 0.2191 0.8347
vt 0.2191 0.8403
vn 0.0000 0.7834 -0.6215
vn -0.0000 0.9881 -0.1540
vn -0.0000 0.9733 -0.2297
vn 0.0000 0.6728 -0.7398
vn 0.0000 -0.7263 0.6873
vn 0.0000 -0.7705 0.6375
vn 0.0000 -0.6545 0.7561
vn 0.0000 -0.8186 0.5743
vn 0.0000 -0.2503 0.9682
vn 0.0000 -0.2081 0.9781
vn 0.0000 0.0000 1.0000
vn -0.0000 0.2185 -0.9758
vn -0.0000 -0.1620 -0.9868
vn -0.0000 -0.1853 -0.9827
vn -0.0000 0.2661 -0.9640
vn 0.0000 -0.2037 0.9790
vn 0.0000 -0.1852 0.9827
vn -0.0000 0.0000 -1.0000
vn -0.0000 -0.2503 -0.9682
vn -0.0000 -0.2816 -0.9595
vn 0.0000 -0.7705 -0.6374
vn 0.0000 -0.8502 -0.5264
vn -0.0000 -0.7263 -0.6873
vn -0.0000 -0.5842 -0.8116
vn -0.0000 0.9881 0.1540
vn -0.0000 0.9969 0.0785
vn 0.0000 0.7834 0.6215
vn 0.0000 0.8601 0.5101
vn 0.0000 0.2661 0.9640
vn 0.0000 0.3008 0.9537
usemtl Material
s 1
f 169/241/151 163/242/152 189/243/153 186/244/154
f 167/245/155 176/246/156 177/247/157 181/248/158
f 175/249/159 190/250/160 177/251/157 176/252/156
f 191/253/161 190/250/160 175/249/159 162/254/161
f 188/255/162 185/256/163 165/257/164 170/258/165
f 181/259/158 182/260/166 168/261/167 167/262/155
f 169/263/151 186/264/154 188/255/162 170/258/165
f 161/265/168 174/266/169 179/267/170 178/268/168
f 174/266/169 173/269/171 192/270/172 179/267/170
f 173/271/171 166/272/173 184/273/174 192/274/172
f 189/275/153 163/276/152 164/277/175 180/278/176
f 164/279/175 172/280/177 183/281/178 180/282/176
f 171/283/179 187/284/180 183/285/178 172/286/177
f 182/260/166 187/284/180 171/283/179 168/261/167
f 165/257/164 185/256/163 184/287/174 166/288/173
o Cube.039
v -22.000000 0.955870 -32.343819
v -22.000000 0.955870 -32.656170
v -22.000008 1.905696 -32.277004
v -22.000000 1.905696 -32.722980
v -22.000008 1.539267 -32.174141
v -22.000000 1.606314 -32.147926
v -22.000000 1.606314 -32.852062
v -22.000000 1.539267 -32.825851
v -22.000008 1.830535 -32.147926
v -22.000008 1.872461 -32.172981
v -22.000000 1.872461 -32.827007
v -22.000000 1.830535 -32.852062
v -22.000008 1.447078 -32.343819
v -22.000000 1.491613 -32.319141
v -22.000000 1.491613 -32.680843
v -22.000000 1.447078 -32.656170
v 2.319150 1.491613 -32.680851
v 2.656178 0.955870 -32.343822
v 2.656176 1.447078 -32.343822
v 2.277012 1.905696 -32.722988
v 2.174141 1.539267 -32.825855
v 2.147933 1.606314 -32.852066
v 2.172987 1.872461 -32.827011
v 2.825856 1.539267 -32.174141
v 2.852067 1.606314 -32.147934
v 2.827012 1.872461 -32.172989
v 2.147933 1.830535 -32.852066
v 2.852067 1.830535 -32.147934
v 2.722988 1.905696 -32.277012
v 2.343824 1.447078 -32.656178
v 2.343824 0.955870 -32.656178
v 2.680851 1.491613 -32.319149
vt 0.2187 0.8458
vt 0.2187 0.8403
vt 0.2189 0.8403
vt 0.2189 0.8458
vt 0.2189 0.8403
vt 0.2189 0.8458
vt 0.2187 0.8458
vt 0.2187 0.8403
vt 0.2187 0.8403
vt 0.2187 0.8458
vt 0.2191 0.8403
vt 0.2191 0.8347
vt 0.2191 0.8347
vt 0.2191 0.8403
vt 0.2192 0.8347
vt 0.2192 0.8403
vt 0.2192 0.8347
vt 0.2192 0.8403
vt 0.2187 0.8347
vt 0.2187 0.8403
vt 0.2187 0.8402
vt 0.2187 0.8347
vt 0.1137 0.7913
vt 0.1137 0.7968
vt 0.1136 0.7967
vt 0.1136 0.7913
vt 0.2186 0.8347
vt 0.2186 0.8401
vt 0.2186 0.8401
vt 0.2186 0.8347
vt 0.2190 0.8456
vt 0.2190 0.8403
vt 0.2190 0.8403
vt 0.2190 0.8456
vt 0.2191 0.8403
vt 0.2191 0.8456
vt 0.2191 0.8403
vt 0.2191 0.8456
vt 0.2186 0.8512
vt 0.2240 0.8512
vt 0.2241 0.8512
vt 0.2186 0.8512
vt 0.2189 0.8457
vt 0.2189 0.8403
vt 0.2189 0.8403
vt 0.2189 0.8457
vt 0.2190 0.8403
vt 0.2190 0.8457
vn 0.0000 0.0000 1.0000
vn 0.0000 -0.2816 0.9595
vn 0.0000 -0.2503 0.9682
vn 0.0000 -0.8502 0.5264
vn 0.0000 -0.7705 0.6375
vn 0.0000 -0.5842 0.8116
vn 0.0000 -0.7263 0.6873
vn 0.0000 -0.1620 0.9868
vn 0.0000 -0.1853 0.9827
vn 0.0000 0.2185 0.9758
vn 0.0000 0.2661 0.9639
vn 0.0000 0.6728 0.7398
vn 0.0000 0.7834 0.6215
vn 0.0000 0.9733 0.2297
vn 0.0000 0.9881 0.1540
vn -0.0000 0.9969 -0.0785
vn -0.0000 0.9881 -0.1540
vn -0.0000 0.8601 -0.5101
vn -0.0000 0.7834 -0.6215
vn -0.0000 0.3008 -0.9537
vn -0.0000 0.2661 -0.9640
vn -0.0000 -0.2037 -0.9790
vn -0.0000 -0.1853 -0.9827
vn -0.0000 -0.8186 -0.5743
vn -0.0000 -0.7263 -0.6873
vn -0.0000 -0.6545 -0.7561
vn -0.0000 -0.7705 -0.6375
vn -0.0000 -0.2081 -0.9781
vn -0.0000 -0.2503 -0.9682
vn -0.0000 0.0000 -1.0000
usemtl Material
s 1
f 193/289/181 210/290/181 211/291/182 205/292/183
f 205/292/183 211/291/182 224/293/184 206/294/185
f 206/295/185 224/296/184 216/297/186 197/298/187
f 197/299/187 216/300/186 217/301/188 198/302/189
f 198/302/189 217/301/188 220/303/190 201/304/191
f 201/304/191 220/303/190 218/305/192 202/306/193
f 202/307/193 218/308/192 221/309/194 195/310/195
f 195/311/195 221/312/194 212/313/196 196/314/197
f 196/315/197 212/316/196 215/317/198 203/318/199
f 203/319/199 215/320/198 219/321/200 204/322/201
f 204/322/201 219/321/200 214/323/202 199/324/203
f 199/324/203 214/323/202 213/325/204 200/326/205
f 200/327/205 213/328/204 209/329/206 207/330/207
f 207/331/207 209/332/206 222/333/208 208/334/209
f 208/334/209 222/333/208 223/335/210 194/336/210
o Cube.038
v 2.656171 0.955870 -57.000000
v 2.343822 0.955870 -57.000000
v 2.722987 1.905696 -56.999996
v 2.277011 1.905696 -57.000000
v 2.852062 1.606314 -57.000000
v 2.825855 1.539267 -57.000000
v 2.174140 1.539267 -57.000000
v 2.147927 1.606314 -57.000000
v 2.827008 1.872461 -56.999996
v 2.852065 1.830535 -56.999996
v 2.147927 1.830535 -57.000000
v 2.172984 1.872461 -57.000000
v 2.680847 1.491613 -57.000000
v 2.656174 1.447078 -57.000000
v 2.343822 1.447078 -57.000000
v 2.319148 1.491613 -57.000000
v 2.319150 1.491613 -32.680851
v 2.656178 0.955870 -32.343822
v 2.656176 1.447078 -32.343822
v 2.277012 1.905696 -32.722988
v 2.174141 1.539267 -32.825855
v 2.147933 1.606314 -32.852066
v 2.172987 1.872461 -32.827011
v 2.825856 1.539267 -32.174141
v 2.852067 1.606314 -32.147934
v 2.827012 1.872461 -32.172989
v 2.147933 1.830535 -32.852066
v 2.852067 1.830535 -32.147934
v 2.722988 1.905696 -32.277012
v 2.343824 1.447078 -32.656178
v 2.343824 0.955870 -32.656178
v 2.680851 1.491613 -32.319149
vt 0.2131 0.8403
vt 0.2131 0.8402
vt 0.2187 0.8402
vt 0.2187 0.8403
vt 0.2240 0.8458
vt 0.2241 0.8458
vt 0.2241 0.8512
vt 0.2240 0.8512
vt 0.2189 0.8347
vt 0.2189 0.8401
vt 0.2189 0.8401
vt 0.2189 0.8347
vt 0.2190 0.8401
vt 0.2190 0.8347
vt 0.2190 0.8347
vt 0.2191 0.8347
vt 0.2191 0.8403
vt 0.2190 0.8403
vt 0.2191 0.8403
vt 0.2191 0.8403
vt 0.2191 0.8456
vt 0.2191 0.8456
vt 0.2190 0.8403
vt 0.2190 0.8347
vt 0.2189 0.8402
vt 0.2187 0.8402
vt 0.2187 0.8347
vt 0.2189 0.8347
vt 0.2187 0.8402
vt 0.2187 0.8347
vt 0.2131 0.8403
vt 0.2131 0.8403
vt 0.2187 0.8403
vt 0.2187 0.8403
vt 0.1137 0.7968
vt 0.1082 0.7968
vt 0.1082 0.7967
vt 0.1136 0.7967
vt 0.2131 0.8401
vt 0.2131 0.8401
vt 0.2186 0.8401
vt 0.2186 0.8401
vt 0.2192 0.8456
vt 0.2192 0.8403
vt 0.2192 0.8403
vt 0.2192 0.8456
vt 0.2191 0.8347
vt 0.2191 0.8403
vn 0.6215 0.7834 -0.0000
vn 0.1540 0.9881 -0.0000
vn 0.2297 0.9733 -0.0000
vn 0.7398 0.6728 -0.0000
vn -0.6873 -0.7263 0.0000
vn -0.6375 -0.7705 0.0000
vn -0.7560 -0.6545 0.0000
vn -0.5743 -0.8186 0.0000
vn -0.9682 -0.2503 0.0000
vn -0.9781 -0.2081 0.0000
vn -1.0000 0.0000 0.0000
vn 0.9758 0.2185 -0.0000
vn 0.9868 -0.1620 -0.0000
vn 0.9827 -0.1852 -0.0000
vn 0.9639 0.2661 -0.0000
vn -0.9790 -0.2037 0.0000
vn -0.9827 -0.1853 0.0000
vn 1.0000 -0.0000 -0.0000
vn 0.9682 -0.2503 -0.0000
vn 0.9595 -0.2816 -0.0000
vn 0.6375 -0.7705 -0.0000
vn 0.5264 -0.8502 -0.0000
vn 0.6873 -0.7263 -0.0000
vn 0.8116 -0.5842 -0.0000
vn -0.1540 0.9881 0.0000
vn -0.0785 0.9969 0.0000
vn -0.6215 0.7834 0.0000
vn -0.5101 0.8601 0.0000
vn -0.9639 0.2661 0.0000
vn -0.9537 0.3008 0.0000
usemtl Material
s 1
f 233/337/211 227/338/212 253/339/213 250/340/214
f 231/341/215 240/342/216 241/343/217 245/344/218
f 239/345/219 254/346/220 241/347/217 240/348/216
f 255/349/221 254/346/220 239/345/219 226/350/221
f 252/351/222 249/352/223 229/353/224 234/354/225
f 245/355/218 246/356/226 232/357/227 231/358/215
f 233/359/211 250/360/214 252/351/222 234/354/225
f 225/361/228 238/362/229 243/363/230 242/364/228
f 238/362/229 237/365/231 256/366/232 243/363/230
f 237/367/231 230/368/233 248/369/234 256/370/232
f 253/371/213 227/372/212 228/373/235 244/374/236
f 228/375/235 236/376/237 247/377/238 244/378/236
f 235/379/239 251/380/240 247/381/238 236/382/237
f 246/356/226 251/380/240 235/379/239 232/357/227
f 229/353/224 249/352/223 248/383/234 230/384/233
o Cube.037
v 13.000000 0.200000 -52.000000
v 13.000000 -0.500000 -52.000000
v 13.000000 -0.500000 -54.000000
v 13.000000 0.200000 -54.000000
v 0.000000 0.200000 -54.000000
v 0.000000 0.200000 -52.000000
v 0.000000 -0.500000 -52.000000
v 0.000000 -0.500000 -54.000000
vt 1.0000 0.3077
vt 0.8955 0.3077
vt 0.8955 0.1538
vt 1.0000 0.1538
vt 0.0000 1.0000
vt 0.0000 0.0000
vt 0.2985 0.0000
vt 0.2985 1.0000
vt 1.0000 0.1538
vt 0.8955 0.1538
vt 0.8955 0.0000
vt 1.0000 0.0000
vn 1.0000 0.0000 0.0000
vn 0.0000 -1.0000 0.0000
vn -1.0000 0.0000 0.0000
usemtl Material_blk_concrete01_dif.tga
s off
f 259/385/241 260/386/241 257/387/241 258/388/241
f 264/389/242 259/390/242 258/391/242 263/392/242
f 263/393/243 262/394/243 261/395/243 264/396/243
o Cube.036
v 0.000000 -0.500000 -46.000000
v 0.000000 -0.500000 -44.000000
v 0.000000 0.200000 -44.000000
v 0.000000 0.200000 -46.000000
v 13.000000 0.200000 -46.000000
v 13.000000 -0.500000 -46.000000
v 13.000000 -0.500000 -44.000000
v 13.000000 0.200000 -44.000000
vt 0.0000 1.0000
vt 0.0000 0.0000
vt 0.2985 0.0000
vt 0.2985 1.0000
vt 1.0000 0.1538
vt 0.8955 0.1538
vt 0.8955 0.0000
vt 1.0000 0.0000
vt 1.0000 0.3077
vt 0.8955 0.3077
vt 0.8955 0.1538
vt 1.0000 0.1538
vn 0.0000 -1.0000 0.0000
vn -1.0000 0.0000 0.0000
vn 1.0000 0.0000 0.0000
usemtl Material_blk_concrete01_dif.tga
s off
f 265/397/244 270/398/244 271/399/244 266/400/244
f 266/401/245 267/402/245 268/403/245 265/404/245
f 270/405/246 269/406/246 272/407/246 271/408/246
o Cube.035
v 13.000000 0.200000 -36.000000
v 13.000000 -0.500000 -36.000000
v 13.000000 -0.500000 -38.000000
v 13.000000 0.200000 -38.000000
v 0.000000 0.200000 -38.000000
v 0.000000 0.200000 -36.000000
v 0.000000 -0.500000 -36.000000
v 0.000000 -0.500000 -38.000000
vt 1.0000 0.1538
vt 0.8955 0.1538
vt 0.8955 0.0000
vt 1.0000 0.0000
vt 1.0000 0.3077
vt 0.8955 0.3077
vt 0.8955 0.1538
vt 1.0000 0.1538
vt 0.0000 1.0000
vt 0.0000 0.0000
vt 0.2985 0.0000
vt 0.2985 1.0000
vn -1.0000 0.0000 0.0000
vn 1.0000 0.0000 0.0000
vn 0.0000 -1.0000 0.0000
usemtl Material_blk_concrete01_dif.tga
s off
f 279/409/247 278/410/247 277/411/247 280/412/247
f 275/413/248 276/414/248 273/415/248 274/416/248
f 280/417/249 275/418/249 274/419/249 279/420/249
o Cube.034
v -19.000000 -0.500000 -22.000000
v -17.000000 -0.500000 -22.000000
v -17.000000 0.200000 -22.000000
v -19.000000 0.200000 -22.000000
v -19.000000 0.200000 -35.000000
v -19.000000 -0.500000 -35.000000
v -17.000000 -0.500000 -35.000000
v -17.000000 0.200000 -35.000000
vt 0.0000 1.0000
vt 0.0000 0.0000
vt 0.2985 0.0000
vt 0.2985 1.0000
vt 1.0000 0.1538
vt 0.8955 0.1538
vt 0.8955 0.0000
vt 1.0000 0.0000
vt 1.0000 0.3077
vt 0.8955 0.3077
vt 0.8955 0.1538
vt 1.0000 0.1538
vn 0.0000 -1.0000 0.0000
vn 0.0000 0.0000 1.0000
vn 0.0000 0.0000 -1.0000
usemtl Material_blk_concrete01_dif.tga
s off
f 281/421/250 286/422/250 287/423/250 282/424/250
f 282/425/251 283/426/251 284/427/251 281/428/251
f 286/429/252 285/430/252 288/431/252 287/432/252
o Cube.033
v -9.000000 0.200000 -35.000000
v -9.000000 -0.500000 -35.000000
v -11.000000 -0.500000 -35.000000
v -11.000000 0.200000 -35.000000
v -11.000000 0.200000 -22.000000
v -9.000000 0.200000 -22.000000
v -9.000000 -0.500000 -22.000000
v -11.000000 -0.500000 -22.000000
vt 1.0000 0.1538
vt 0.8955 0.1538
vt 0.8955 0.0000
vt 1.0000 0.0000
vt 1.0000 0.3077
vt 0.8955 0.3077
vt 0.8955 0.1538
vt 1.0000 0.1538
vt 0.0000 1.0000
vt 0.0000 0.0000
vt 0.2985 0.0000
vt 0.2985 1.0000
vn 0.0000 0.0000 1.0000
vn 0.0000 0.0000 -1.0000
vn 0.0000 -1.0000 0.0000
usemtl Material_blk_concrete01_dif.tga
s off
f 295/433/253 294/434/253 293/435/253 296/436/253
f 291/437/254 292/438/254 289/439/254 290/440/254
f 296/441/255 291/442/255 290/443/255 295/444/255
o Cube.032
v -3.000000 -0.500000 -22.000000
v -1.000000 -0.500000 -22.000000
v -1.000000 0.200000 -22.000000
v -3.000000 0.200000 -22.000000
v -3.000000 0.200000 -35.000000
v -3.000000 -0.500000 -35.000000
v -1.000000 -0.500000 -35.000000
v -1.000000 0.200000 -35.000000
vt 0.0000 1.0000
vt 0.0000 0.0000
vt 0.2985 0.0000
vt 0.2985 1.0000
vt 1.0000 0.3077
vt 0.8955 0.3077
vt 0.8955 0.1538
vt 1.0000 0.1538
vt 1.0000 0.1538
vt 0.8955 0.1538
vt 0.8955 0.0000
vt 1.0000 0.0000
vn 0.0000 -1.0000 0.0000
vn 0.0000 0.0000 -1.0000
vn 0.0000 0.0000 1.0000
usemtl Material_blk_concrete01_dif.tga
s off
f 297/445/256 302/446/256 303/447/256 298/448/256
f 302/449/257 301/450/257 304/451/257 303/452/257
f 298/453/258 299/454/258 300/455/258 297/456/258
o Cube.031
v 13.000000 0.200000 -3.000000
v 13.000000 -0.500000 -3.000000
v 13.000000 -0.500000 -5.000000
v 13.000000 0.200000 -5.000000
v 0.000000 0.200000 -5.000000
v 0.000000 0.200000 -3.000000
v 0.000000 -0.500000 -3.000000
v 0.000000 -0.500000 -5.000000
vt 1.0000 0.3077
vt 0.8955 0.3077
vt 0.8955 0.1538
vt 1.0000 0.1538
vt 0.0000 1.0000
vt 0.0000 0.0000
vt 0.2985 0.0000
vt 0.2985 1.0000
vt 1.0000 0.1538
vt 0.8955 0.1538
vt 0.8955 0.0000
vt 1.0000 0.0000
vn 1.0000 0.0000 0.0000
vn 0.0000 -1.0000 0.0000
vn -1.0000 0.0000 0.0000
usemtl Material_blk_concrete01_dif.tga
s off
f 307/457/259 308/458/259 305/459/259 306/460/259
f 312/461/260 307/462/260 306/463/260 311/464/260
f 311/465/261 310/466/261 309/467/261 312/468/261
o Cube.030
v 0.000000 -0.500000 -13.000000
v 0.000000 -0.500000 -11.000000
v 0.000000 0.200000 -11.000000
v 0.000000 0.200000 -13.000000
v 13.000000 0.200000 -13.000000
v 13.000000 -0.500000 -13.000000
v 13.000000 -0.500000 -11.000000
v 13.000000 0.200000 -11.000000
vt 1.0000 0.3077
vt 0.8955 0.3077
vt 0.8955 0.1538
vt 1.0000 0.1538
vt 0.0000 1.0000
vt 0.0000 0.0000
vt 0.2985 0.0000
vt 0.2985 1.0000
vt 1.0000 0.1538
vt 0.8955 0.1538
vt 0.8955 0.0000
vt 1.0000 0.0000
vn 1.0000 0.0000 0.0000
vn 0.0000 -1.0000 0.0000
vn -1.0000 0.0000 0.0000
usemtl Material_blk_concrete01_dif.tga
s off
f 318/469/262 317/470/262 320/471/262 319/472/262
f 313/473/263 318/474/263 319/475/263 314/476/263
f 314/477/264 315/478/264 316/479/264 313/480/264
o Cube.029
v 0.000000 -0.500000 -21.000000
v 0.000000 -0.500000 -19.000000
v 0.000000 0.200000 -19.000000
v 0.000000 0.200000 -21.000000
v 13.000000 0.200000 -21.000000
v 13.000000 -0.500000 -21.000000
v 13.000000 -0.500000 -19.000000
v 13.000000 0.200000 -19.000000
vt 0.0000 1.0000
vt 0.0000 0.0000
vt 0.2985 0.0000
vt 0.2985 1.0000
vt 1.0000 0.1538
vt 0.8955 0.1538
vt 0.8955 0.0000
vt 1.0000 0.0000
vt 1.0000 0.3077
vt 0.8955 0.3077
vt 0.8955 0.1538
vt 1.0000 0.1538
vn 0.0000 -1.0000 0.0000
vn -1.0000 0.0000 0.0000
vn 1.0000 0.0000 0.0000
usemtl Material_blk_concrete01_dif.tga
s off
f 321/481/265 326/482/265 327/483/265 322/484/265
f 322/485/266 323/486/266 324/487/266 321/488/266
f 326/489/267 325/490/267 328/491/267 327/492/267
o Cube.028
v 14.000000 -0.500000 -22.000000
v 16.000000 -0.500000 -22.000000
v 16.000000 0.200000 -22.000000
v 14.000000 0.200000 -22.000000
v 14.000000 0.200000 -35.000000
v 14.000000 -0.500000 -35.000000
v 16.000000 -0.500000 -35.000000
v 16.000000 0.200000 -35.000000
vt 1.0000 0.3077
vt 0.8955 0.3077
vt 0.8955 0.1538
vt 1.0000 0.1538
vt 0.0000 1.0000
vt 0.0000 0.0000
vt 0.2985 0.0000
vt 0.2985 1.0000
vt 1.0000 0.1538
vt 0.8955 0.1538
vt 0.8955 0.0000
vt 1.0000 0.0000
vn 0.0000 0.0000 -1.0000
vn 0.0000 -1.0000 0.0000
vn 0.0000 0.0000 1.0000
usemtl Material_blk_concrete01_dif.tga
s off
f 334/493/268 333/494/268 336/495/268 335/496/268
f 329/497/269 334/498/269 335/499/269 330/500/269
f 330/501/270 331/502/270 332/503/270 329/504/270
o Cube.027
v 24.000000 0.200000 -35.000000
v 24.000000 -0.500000 -35.000000
v 22.000000 -0.500000 -35.000000
v 22.000000 0.200000 -35.000000
v 22.000000 0.200000 -22.000000
v 24.000000 0.200000 -22.000000
v 24.000000 -0.500000 -22.000000
v 22.000000 -0.500000 -22.000000
vt 1.0000 0.3077
vt 0.8955 0.3077
vt 0.8955 0.1538
vt 1.0000 0.1538
vt 0.0000 1.0000
vt 0.0000 0.0000
vt 0.2985 0.0000
vt 0.2985 1.0000
vt 1.0000 0.1538
vt 0.8955 0.1538
vt 0.8955 0.0000
vt 1.0000 0.0000
vn 0.0000 0.0000 -1.0000
vn 0.0000 -1.0000 0.0000
vn 0.0000 0.0000 1.0000
usemtl Material_blk_concrete01_dif.tga
s off
f 339/505/271 340/506/271 337/507/271 338/508/271
f 344/509/272 339/510/272 338/511/272 343/512/272
f 343/513/273 342/514/273 341/515/273 344/516/273
o Cube.026
v 32.000000 0.200000 -35.000000
v 32.000000 -0.500000 -35.000000
v 30.000000 -0.500000 -35.000000
v 30.000000 0.200000 -35.000000
v 30.000000 0.200000 -22.000000
v 32.000000 0.200000 -22.000002
v 32.000000 -0.500000 -22.000002
v 30.000000 -0.500000 -22.000000
vt 0.0000 1.0000
vt 0.0000 0.0000
vt 0.2985 0.0000
vt 0.2985 1.0000
vt 1.0000 0.3077
vt 0.8955 0.3077
vt 0.8955 0.1538
vt 1.0000 0.1538
vt 1.0000 0.1538
vt 0.8955 0.1538
vt 0.8955 0.0000
vt 1.0000 0.0000
vn 0.0000 -1.0000 0.0000
vn 0.0000 0.0000 -1.0000
vn 0.0000 0.0000 1.0000
usemtl Material_blk_concrete01_dif.tga
s off
f 352/517/274 347/518/274 346/519/274 351/520/274
f 347/521/275 348/522/275 345/523/275 346/524/275
f 351/525/276 350/526/276 349/527/276 352/528/276
o Cube.025
v -17.000000 0.500000 -33.765991
v -19.000000 0.500000 -33.765991
v -19.000000 0.500000 -31.234005
v -17.000000 0.500000 -31.234005
v -19.000000 0.200000 -30.000000
v -17.000000 0.200000 -30.000000
v -19.000000 0.200000 -35.000000
v -17.000000 0.200000 -35.000000
vt 0.2985 0.7103
vt 0.2985 0.6154
vt 0.5970 0.6154
vt 0.5970 0.7103
vt 0.2985 0.9051
vt 0.5970 0.9051
vt 0.5970 1.0000
vt 0.2985 1.0000
vn 0.0000 0.9717 0.2362
vn 0.0000 0.9717 -0.2362
vn 0.0000 1.0000 0.0000
usemtl Material_blk_concrete01_dif.tga
s off
f 355/529/277 357/530/277 358/531/277 356/532/277
f 354/533/278 353/534/278 360/535/278 359/536/278
f 354/533/279 355/529/279 356/532/279 353/534/279
o Cube.024
v -17.000000 0.500000 -23.234005
v -19.000000 0.500000 -23.234005
v -19.000000 0.500000 -25.765993
v -17.000000 0.500000 -25.765993
v -17.000000 0.200000 -27.000000
v -19.000000 0.200000 -27.000000
v -17.000000 0.200000 -22.000000
v -19.000000 0.200000 -22.000000
vt 0.2985 0.2897
vt 0.2985 0.0949
vt 0.5970 0.0949
vt 0.5970 0.2897
vt 0.2985 0.3846
vt 0.5970 0.3846
vt 0.2985 0.0000
vt 0.5970 0.0000
vn 0.0000 1.0000 0.0000
vn 0.0000 0.9717 -0.2362
vn 0.0000 0.9717 0.2362
usemtl Material_blk_concrete01_dif.tga
s off
f 363/537/280 362/538/280 361/539/280 364/540/280
f 366/541/281 363/537/281 364/540/281 365/542/281
f 361/539/282 362/538/282 368/543/282 367/544/282
o Cube.023
v -9.000000 0.200000 -35.000000
v -11.000000 0.200000 -35.000000
v -9.000000 0.200000 -30.000000
v -11.000000 0.200000 -30.000000
v -9.000000 0.500000 -31.234005
v -11.000000 0.500000 -31.234005
v -11.000000 0.500000 -33.765995
v -9.000000 0.500000 -33.765995
vt 0.2985 0.9051
vt 0.5970 0.9051
vt 0.5970 1.0000
vt 0.2985 1.0000
vt 0.2985 0.7103
vt 0.2985 0.6154
vt 0.5970 0.6154
vt 0.5970 0.7103
vn 0.0000 0.9717 -0.2362
vn 0.0000 0.9717 0.2362
vn 0.0000 1.0000 0.0000
usemtl Material_blk_concrete01_dif.tga
s off
f 375/545/283 376/546/283 369/547/283 370/548/283
f 374/549/284 372/550/284 371/551/284 373/552/284
f 375/545/285 374/549/285 373/552/285 376/546/285
o Cube.022
v -11.000000 0.200000 -22.000000
v -9.000000 0.200000 -22.000000
v -11.000000 0.200000 -27.000000
v -9.000000 0.200000 -27.000000
v -9.000000 0.500000 -25.765993
v -11.000000 0.500000 -25.765993
v -11.000000 0.500000 -23.234005
v -9.000000 0.500000 -23.234005
vt 0.2985 0.3846
vt 0.2985 0.2897
vt 0.5970 0.2897
vt 0.5970 0.3846
vt 0.2985 0.0949
vt 0.5970 0.0949
vt 0.2985 0.0000
vt 0.5970 0.0000
vn 0.0000 0.9717 -0.2362
vn 0.0000 1.0000 0.0000
vn 0.0000 0.9717 0.2362
usemtl Material_blk_concrete01_dif.tga
s off
f 379/553/286 382/554/286 381/555/286 380/556/286
f 382/554/287 383/557/287 384/558/287 381/555/287
f 384/558/288 383/557/288 377/559/288 378/560/288
o Cube.021
v -1.000000 0.500000 -33.765995
v -3.000000 0.500000 -33.765995
v -3.000000 0.500000 -31.234005
v -1.000000 0.500000 -31.234005
v -3.000000 0.200000 -30.000000
v -1.000000 0.200000 -30.000000
v -3.000000 0.200000 -35.000000
v -1.000000 0.200000 -35.000000
vt 0.2985 0.9051
vt 0.2985 0.7103
vt 0.5970 0.7103
vt 0.5970 0.9051
vt 0.5970 1.0000
vt 0.2985 1.0000
vt 0.2985 0.6154
vt 0.5970 0.6154
vn 0.0000 1.0000 0.0000
vn 0.0000 0.9717 -0.2362
vn 0.0000 0.9717 0.2362
usemtl Material_blk_concrete01_dif.tga
s off
f 386/561/289 387/562/289 388/563/289 385/564/289
f 386/561/290 385/564/290 392/565/290 391/566/290
f 387/562/291 389/567/291 390/568/291 388/563/291
o Cube.020
v -1.000000 0.500000 -23.234005
v -3.000000 0.500000 -23.234005
v -3.000000 0.500000 -25.765993
v -1.000000 0.500000 -25.765993
v -1.000000 0.200000 -27.000000
v -3.000000 0.200000 -27.000000
v -1.000000 0.200000 -22.000000
v -3.000000 0.200000 -22.000000
vt 0.2985 0.2897
vt 0.2985 0.0949
vt 0.5970 0.0949
vt 0.5970 0.2897
vt 0.2985 0.3846
vt 0.5970 0.3846
vt 0.2985 0.0000
vt 0.5970 0.0000
vn 0.0000 1.0000 0.0000
vn 0.0000 0.9717 -0.2362
vn 0.0000 0.9717 0.2362
usemtl Material_blk_concrete01_dif.tga
s off
f 395/569/292 394/570/292 393/571/292 396/572/292
f 398/573/293 395/569/293 396/572/293 397/574/293
f 393/571/294 394/570/294 400/575/294 399/576/294
o Cube.019
v 32.000000 0.200000 -35.000000
v 30.000000 0.200000 -35.000000
v 32.000000 0.200000 -30.000002
v 30.000000 0.200000 -30.000002
v 32.000000 0.500000 -31.234007
v 30.000000 0.500000 -31.234007
v 30.000000 0.500000 -33.765995
v 32.000000 0.500000 -33.765995
vt 0.2985 0.9051
vt 0.2985 0.7103
vt 0.5970 0.7103
vt 0.5970 0.9051
vt 0.2985 0.6154
vt 0.5970 0.6154
vt 0.5970 1.0000
vt 0.2985 1.0000
vn 0.0000 1.0000 0.0000
vn 0.0000 0.9717 0.2362
vn 0.0000 0.9717 -0.2362
usemtl Material_blk_concrete01_dif.tga
s off
f 407/577/295 406/578/295 405/579/295 408/580/295
f 406/578/296 404/581/296 403/582/296 405/579/296
f 407/577/297 408/580/297 401/583/297 402/584/297
o Cube.018
v 30.000000 0.200000 -22.000000
v 32.000000 0.200000 -22.000002
v 30.000000 0.200000 -27.000002
v 32.000000 0.200000 -27.000002
v 32.000000 0.500000 -25.765995
v 30.000000 0.500000 -25.765995
v 30.000000 0.500000 -23.234007
v 32.000000 0.500000 -23.234007
vt 0.2985 0.2897
vt 0.2985 0.0949
vt 0.5970 0.0949
vt 0.5970 0.2897
vt 0.2985 0.3846
vt 0.5970 0.3846
vt 0.2985 0.0000
vt 0.5970 0.0000
vn 0.0000 1.0000 0.0000
vn 0.0000 0.9717 -0.2362
vn 0.0000 0.9717 0.2362
usemtl Material_blk_concrete01_dif.tga
s off
f 414/585/298 415/586/298 416/587/298 413/588/298
f 411/589/299 414/585/299 413/588/299 412/590/299
f 416/587/300 415/586/300 409/591/300 410/592/300
o Cube.017
v 24.000000 0.200000 -35.000000
v 22.000000 0.200000 -35.000000
v 24.000000 0.200000 -30.000000
v 22.000000 0.200000 -30.000000
v 24.000000 0.500000 -31.234007
v 22.000000 0.500000 -31.234007
v 22.000000 0.500000 -33.765995
v 24.000000 0.500000 -33.765995
vt 0.2985 0.7103
vt 0.2985 0.6154
vt 0.5970 0.6154
vt 0.5970 0.7103
vt 0.2985 0.9051
vt 0.5970 0.9051
vt 0.5970 1.0000
vt 0.2985 1.0000
vn 0.0000 0.9717 0.2362
vn 0.0000 0.9717 -0.2362
vn 0.0000 1.0000 0.0000
usemtl Material_blk_concrete01_dif.tga
s off
f 422/593/301 420/594/301 419/595/301 421/596/301
f 423/597/302 424/598/302 417/599/302 418/600/302
f 423/597/303 422/593/303 421/596/303 424/598/303
o Cube.016
v 22.000000 0.200000 -22.000000
v 24.000000 0.200000 -22.000000
v 22.000000 0.200000 -27.000000
v 24.000000 0.200000 -27.000000
v 24.000000 0.500000 -25.765995
v 22.000000 0.500000 -25.765995
v 22.000000 0.500000 -23.234007
v 24.000000 0.500000 -23.234007
vt 0.2985 0.2897
vt 0.2985 0.0949
vt 0.5970 0.0949
vt 0.5970 0.2897
vt 0.2985 0.3846
vt 0.5970 0.3846
vt 0.2985 0.0000
vt 0.5970 0.0000
vn 0.0000 1.0000 0.0000
vn 0.0000 0.9717 -0.2362
vn 0.0000 0.9717 0.2362
usemtl Material_blk_concrete01_dif.tga
s off
f 430/601/304 431/602/304 432/603/304 429/604/304
f 427/605/305 430/601/305 429/604/305 428/606/305
f 432/603/306 431/602/306 425/607/306 426/608/306
o Cube.015
v 16.000000 0.500000 -33.765995
v 14.000000 0.500000 -33.765995
v 14.000000 0.500000 -31.234007
v 16.000000 0.500000 -31.234007
v 14.000000 0.200000 -30.000000
v 16.000000 0.200000 -30.000000
v 14.000000 0.200000 -35.000000
v 16.000000 0.200000 -35.000000
vt 0.2985 0.7103
vt 0.2985 0.6154
vt 0.5970 0.6154
vt 0.5970 0.7103
vt 0.2985 0.9051
vt 0.5970 0.9051
vt 0.5970 1.0000
vt 0.2985 1.0000
vn 0.0000 0.9717 0.2362
vn 0.0000 0.9717 -0.2362
vn 0.0000 1.0000 0.0000
usemtl Material_blk_concrete01_dif.tga
s off
f 435/609/307 437/610/307 438/611/307 436/612/307
f 434/613/308 433/614/308 440/615/308 439/616/308
f 434/613/309 435/609/309 436/612/309 433/614/309
o Cube.014
v 16.000000 0.500000 -23.234007
v 14.000001 0.500000 -23.234007
v 14.000000 0.500000 -25.765995
v 16.000000 0.500000 -25.765995
v 16.000000 0.200000 -27.000000
v 14.000000 0.200000 -27.000000
v 16.000000 0.200000 -22.000000
v 14.000000 0.200000 -22.000000
vt 0.5970 0.0949
vt 0.2985 0.0949
vt 0.2985 0.0000
vt 0.5970 0.0000
vt 0.2985 0.2897
vt 0.5970 0.2897
vt 0.2985 0.3846
vt 0.5970 0.3846
vn 0.0000 0.9717 0.2362
vn 0.0000 1.0000 0.0000
vn 0.0000 0.9717 -0.2362
usemtl Material_blk_concrete01_dif.tga
s off
f 441/617/310 442/618/310 448/619/310 447/620/310
f 443/621/311 442/618/311 441/617/311 444/622/311
f 446/623/312 443/621/312 444/622/312 445/624/312
o Cube.013
v 0.000000 0.200000 -5.000000
v 0.000000 0.200000 -3.000000
v 5.000000 0.200000 -5.000000
v 5.000000 0.200000 -3.000000
v 3.765994 0.500000 -3.000000
v 3.765994 0.500000 -5.000000
v 1.234006 0.500000 -5.000000
v 1.234006 0.500000 -3.000000
vt 0.2985 0.2897
vt 0.2985 0.0949
vt 0.5970 0.0949
vt 0.5970 0.2897
vt 0.2985 0.3846
vt 0.5970 0.3846
vt 0.2985 0.0000
vt 0.5970 0.0000
vn 0.0000 1.0000 0.0000
vn 0.2362 0.9717 0.0000
vn -0.2362 0.9717 0.0000
usemtl Material_blk_concrete01_dif.tga
s off
f 454/625/313 455/626/313 456/627/313 453/628/313
f 451/629/314 454/625/314 453/628/314 452/630/314
f 456/627/315 455/626/315 449/631/315 450/632/315
o Cube.012
v 13.000000 0.200000 -3.000000
v 13.000000 0.200000 -5.000000
v 8.000000 0.200000 -3.000000
v 8.000000 0.200000 -5.000000
v 9.234006 0.500000 -3.000000
v 9.234006 0.500000 -5.000000
v 11.765994 0.500000 -5.000000
v 11.765994 0.500000 -3.000000
vt 0.2985 0.7103
vt 0.2985 0.6154
vt 0.5970 0.6154
vt 0.5970 0.7103
vt 0.2985 0.9051
vt 0.5970 0.9051
vt 0.5970 1.0000
vt 0.2985 1.0000
vn -0.2362 0.9717 0.0000
vn 0.2362 0.9717 0.0000
vn 0.0000 1.0000 0.0000
usemtl Material_blk_concrete01_dif.tga
s off
f 462/633/316 460/634/316 459/635/316 461/636/316
f 463/637/317 464/638/317 457/639/317 458/640/317
f 463/637/318 462/633/318 461/636/318 464/638/318
o Cube.011
v 1.234006 0.500000 -11.000000
v 1.234006 0.500000 -13.000000
v 3.765994 0.500000 -13.000000
v 3.765994 0.500000 -11.000000
v 5.000000 0.200000 -11.000000
v 5.000000 0.200000 -13.000000
v 0.000000 0.200000 -11.000000
v 0.000000 0.200000 -13.000000
vt 0.5970 0.0949
vt 0.2985 0.0949
vt 0.2985 0.0000
vt 0.5970 0.0000
vt 0.2985 0.2897
vt 0.5970 0.2897
vt 0.2985 0.3846
vt 0.5970 0.3846
vn -0.2362 0.9717 0.0000
vn 0.0000 1.0000 0.0000
vn 0.2362 0.9717 0.0000
usemtl Material_blk_concrete01_dif.tga
s off
f 465/641/319 466/642/319 472/643/319 471/644/319
f 467/645/320 466/642/320 465/641/320 468/646/320
f 470/647/321 467/645/321 468/646/321 469/648/321
o Cube.010
v 11.765994 0.500000 -11.000000
v 11.765994 0.500000 -13.000000
v 9.234006 0.500000 -13.000000
v 9.234006 0.500000 -11.000000
v 8.000000 0.200000 -13.000000
v 8.000000 0.200000 -11.000000
v 13.000000 0.200000 -13.000000
v 13.000000 0.200000 -11.000000
vt 0.2985 0.7103
vt 0.2985 0.6154
vt 0.5970 0.6154
vt 0.5970 0.7103
vt 0.2985 0.9051
vt 0.5970 0.9051
vt 0.5970 1.0000
vt 0.2985 1.0000
vn -0.2362 0.9717 0.0000
vn 0.2362 0.9717 0.0000
vn 0.0000 1.0000 0.0000
usemtl Material_blk_concrete01_dif.tga
s off
f 475/649/322 477/650/322 478/651/322 476/652/322
f 474/653/323 473/654/323 480/655/323 479/656/323
f 474/653/324 475/649/324 476/652/324 473/654/324
o Cube.009
v 1.234006 0.500000 -19.000000
v 1.234006 0.500000 -21.000000
v 3.765994 0.500000 -21.000000
v 3.765994 0.500000 -19.000000
v 5.000000 0.200000 -19.000000
v 5.000000 0.200000 -21.000000
v 0.000000 0.200000 -19.000000
v 0.000000 0.200000 -21.000000
vt 0.2985 0.2897
vt 0.2985 0.0949
vt 0.5970 0.0949
vt 0.5970 0.2897
vt 0.2985 0.3846
vt 0.5970 0.3846
vt 0.2985 0.0000
vt 0.5970 0.0000
vn 0.0000 1.0000 0.0000
vn 0.2362 0.9717 0.0000
vn -0.2362 0.9717 0.0000
usemtl Material_blk_concrete01_dif.tga
s off
f 483/657/325 482/658/325 481/659/325 484/660/325
f 486/661/326 483/657/326 484/660/326 485/662/326
f 481/659/327 482/658/327 488/663/327 487/664/327
o Cube.008
v 11.765994 0.500000 -19.000000
v 11.765994 0.500000 -21.000000
v 9.234006 0.500000 -21.000000
v 9.234006 0.500000 -19.000000
v 8.000000 0.200000 -21.000000
v 8.000000 0.200000 -19.000000
v 13.000000 0.200000 -21.000000
v 13.000000 0.200000 -19.000000
vt 0.2985 0.9051
vt 0.5970 0.9051
vt 0.5970 1.0000
vt 0.2985 1.0000
vt 0.2985 0.7103
vt 0.5970 0.7103
vt 0.2985 0.6154
vt 0.5970 0.6154
vn 0.2362 0.9717 0.0000
vn 0.0000 1.0000 0.0000
vn -0.2362 0.9717 0.0000
usemtl Material_blk_concrete01_dif.tga
s off
f 490/665/328 489/666/328 496/667/328 495/668/328
f 490/665/329 491/669/329 492/670/329 489/666/329
f 491/669/330 493/671/330 494/672/330 492/670/330
o Cube.007
v 0.000000 0.200000 -38.000000
v 0.000000 0.200000 -36.000000
v 5.000000 0.200000 -38.000000
v 5.000000 0.200000 -36.000000
v 3.765994 0.500000 -36.000000
v 3.765994 0.500000 -38.000000
v 1.234006 0.500000 -38.000000
v 1.234006 0.500000 -36.000000
vt 0.2985 0.3846
vt 0.2985 0.2897
vt 0.5970 0.2897
vt 0.5970 0.3846
vt 0.2985 0.0949
vt 0.5970 0.0949
vt 0.2985 0.0000
vt 0.5970 0.0000
vn 0.2362 0.9717 0.0000
vn 0.0000 1.0000 0.0000
vn -0.2362 0.9717 0.0000
usemtl Material_blk_concrete01_dif.tga
s off
f 499/673/331 502/674/331 501/675/331 500/676/331
f 502/674/332 503/677/332 504/678/332 501/675/332
f 504/678/333 503/677/333 497/679/333 498/680/333
o Cube.006
v 13.000000 0.200000 -36.000000
v 13.000000 0.200000 -38.000000
v 8.000000 0.200000 -36.000000
v 8.000000 0.200000 -38.000000
v 9.234006 0.500000 -36.000000
v 9.234006 0.500000 -38.000000
v 11.765994 0.500000 -38.000000
v 11.765994 0.500000 -36.000000
vt 0.2985 0.9051
vt 0.5970 0.9051
vt 0.5970 1.0000
vt 0.2985 1.0000
vt 0.2985 0.7103
vt 0.2985 0.6154
vt 0.5970 0.6154
vt 0.5970 0.7103
vn 0.2362 0.9717 0.0000
vn -0.2362 0.9717 0.0000
vn 0.0000 1.0000 0.0000
usemtl Material_blk_concrete01_dif.tga
s off
f 511/681/334 512/682/334 505/683/334 506/684/334
f 510/685/335 508/686/335 507/687/335 509/688/335
f 511/681/336 510/685/336 509/688/336 512/682/336
o Cube.005
v 11.765994 0.500000 -44.000000
v 11.765994 0.500000 -46.000000
v 9.234006 0.500000 -46.000000
v 9.234006 0.500000 -44.000000
v 8.000000 0.200000 -46.000000
v 8.000000 0.200000 -44.000000
v 13.000000 0.200000 -46.000000
v 13.000000 0.200000 -44.000000
vt 0.2985 0.7103
vt 0.2985 0.6154
vt 0.5970 0.6154
vt 0.5970 0.7103
vt 0.2985 0.9051
vt 0.5970 0.9051
vt 0.5970 1.0000
vt 0.2985 1.0000
vn -0.2362 0.9717 0.0000
vn 0.2362 0.9717 0.0000
vn 0.0000 1.0000 0.0000
usemtl Material_blk_concrete01_dif.tga
s off
f 515/689/337 517/690/337 518/691/337 516/692/337
f 514/693/338 513/694/338 520/695/338 519/696/338
f 514/693/339 515/689/339 516/692/339 513/694/339
o Cube.004
v 1.234006 0.500000 -44.000000
v 1.234006 0.500000 -46.000000
v 3.765994 0.500000 -46.000000
v 3.765994 0.500000 -44.000000
v 5.000000 0.200000 -44.000000
v 5.000000 0.200000 -46.000000
v 0.000000 0.200000 -44.000000
v 0.000000 0.200000 -46.000000
vt 0.2985 0.2897
vt 0.2985 0.0949
vt 0.5970 0.0949
vt 0.5970 0.2897
vt 0.2985 0.3846
vt 0.5970 0.3846
vt 0.2985 0.0000
vt 0.5970 0.0000
vn 0.0000 1.0000 0.0000
vn 0.2362 0.9717 0.0000
vn -0.2362 0.9717 0.0000
usemtl Material_blk_concrete01_dif.tga
s off
f 523/697/340 522/698/340 521/699/340 524/700/340
f 526/701/341 523/697/341 524/700/341 525/702/341
f 521/699/342 522/698/342 528/703/342 527/704/342
o Cube.003
v 13.000000 0.200000 -52.000000
v 13.000000 0.200000 -54.000000
v 8.000000 0.200000 -52.000000
v 8.000000 0.200000 -54.000000
v 9.234006 0.500000 -52.000000
v 9.234006 0.500000 -54.000000
v 11.765994 0.500000 -54.000000
v 11.765994 0.500000 -52.000000
vt 0.2985 0.9051
vt 0.5970 0.9051
vt 0.5970 1.0000
vt 0.2985 1.0000
vt 0.2985 0.7103
vt 0.5970 0.7103
vt 0.2985 0.6154
vt 0.5970 0.6154
vn 0.2362 0.9717 0.0000
vn 0.0000 1.0000 0.0000
vn -0.2362 0.9717 0.0000
usemtl Material_blk_concrete01_dif.tga
s off
f 535/705/343 536/706/343 529/707/343 530/708/343
f 535/705/344 534/709/344 533/710/344 536/706/344
f 534/709/345 532/711/345 531/712/345 533/710/345
o Cube.002_Cube.001
v 0.000000 0.200000 -54.000000
v 0.000000 0.200000 -52.000000
v 5.000000 0.200000 -54.000000
v 5.000000 0.200000 -52.000000
v 3.765994 0.500000 -52.000000
v 3.765994 0.500000 -54.000000
v 1.234006 0.500000 -54.000000
v 1.234006 0.500000 -52.000000
vt 0.2985 0.3846
vt 0.2985 0.2897
vt 0.5970 0.2897
vt 0.5970 0.3846
vt 0.2985 0.0949
vt 0.5970 0.0949
vt 0.2985 0.0000
vt 0.5970 0.0000
vn 0.2362 0.9717 0.0000
vn 0.0000 1.0000 0.0000
vn -0.2362 0.9717 0.0000
usemtl Material_blk_concrete01_dif.tga
s off
f 539/713/346 542/714/346 541/715/346 540/716/346
f 542/714/347 543/717/347 544/718/347 541/715/347
f 544/718/348 543/717/348 537/719/348 538/720/348
