# Blender v2.78 (sub 0) OBJ File: ''
# www.blender.org
mtllib RailSwitchLeftEnding_col.mtl
o Cube.037_Cube.043
v -16.204792 1.872466 -30.498960
v -16.228333 1.830540 -30.490393
v -19.204517 1.830541 -37.675549
v -19.181812 1.872467 -37.686134
v -15.566669 1.830540 -30.731218
v -15.590215 1.872466 -30.722652
v -18.589077 1.872467 -37.962540
v -18.566360 1.830541 -37.973125
v -16.107037 1.905702 -30.534540
v -19.087528 1.905703 -37.730099
v -16.228333 1.606320 -30.490391
v -19.204517 1.606321 -37.675545
v -15.566669 1.606320 -30.731218
v -18.566360 1.606321 -37.973125
v -15.687964 1.905702 -30.687071
v -18.683353 1.905703 -37.918575
v -16.067451 1.491619 -30.548948
v -16.044258 1.447083 -30.557388
v -19.026985 1.447084 -37.758331
v -19.049351 1.491620 -37.747902
v -15.750741 1.447083 -30.664223
v -15.727561 1.491619 -30.672659
v -18.721535 1.491620 -37.900764
v -18.743896 1.447084 -37.890343
v -16.044258 0.955875 -30.557392
v -19.026985 0.955876 -37.758335
v -15.750741 0.955875 -30.664223
v -18.743896 0.955876 -37.890343
v -16.203709 1.539273 -30.499352
v -19.180771 1.539274 -37.686623
v -15.591296 1.539273 -30.722256
v -18.590111 1.539274 -37.962051
vt 0.1708 0.7141
vt 0.1708 0.7141
vt 0.1708 0.7118
vt 0.1708 0.7118
vt 0.1427 0.7262
vt 0.1427 0.7262
vt 0.1427 0.7238
vt 0.1427 0.7238
vt 0.1596 0.7122
vt 0.1596 0.7122
vt 0.1596 0.7146
vt 0.1596 0.7146
vt 0.1707 0.7141
vt 0.1707 0.7118
vt 0.1428 0.7262
vt 0.1428 0.7238
vt 0.1593 0.7122
vt 0.1594 0.7122
vt 0.1594 0.7146
vt 0.1593 0.7146
vt 0.1705 0.7142
vt 0.1705 0.7142
vt 0.1705 0.7118
vt 0.1705 0.7118
vt 0.1568 0.7244
vt 0.1568 0.7244
vt 0.1568 0.7267
vt 0.1568 0.7267
vt 0.1703 0.7142
vt 0.1703 0.7118
vt 0.1566 0.7244
vt 0.1566 0.7267
vt 0.1682 0.7145
vt 0.1682 0.7145
vt 0.1682 0.7121
vt 0.1682 0.7121
vt 0.1707 0.7141
vt 0.1707 0.7118
vt 0.1661 0.7146
vt 0.1660 0.7146
vt 0.1660 0.7122
vt 0.1661 0.7122
vt 0.1428 0.7262
vt 0.1428 0.7238
vt 0.1143 0.6682
vt 0.1144 0.6682
vt 0.1144 0.6698
vt 0.1143 0.6698
vn 0.5689 -0.7879 -0.2357
vn 0.8902 -0.2677 -0.3687
vn -0.8911 -0.2640 0.3691
vn -0.5800 -0.7783 0.2403
vn -0.5800 -0.7784 0.2403
vn 0.1385 -0.9887 -0.0574
vn 0.9078 0.1860 -0.3760
vn -0.9081 0.1841 0.3761
vn -0.1463 -0.9874 0.0606
vn 0.5947 0.7653 -0.2463
vn 0.8949 0.2484 -0.3707
vn -0.8941 0.2517 0.3704
vn -0.5837 0.7752 0.2418
vn 0.9239 0.0000 -0.3827
vn -0.9239 0.0000 0.3827
vn 0.6295 0.7319 -0.2608
vn -0.6410 0.7201 0.2655
usemtl Material.001
s 1
f 1/1/1 2/2/2 3/3/2 4/4/1
f 5/5/3 6/6/4 7/7/5 8/8/3
f 9/9/6 1/10/1 4/11/1 10/12/6
f 2/2/2 11/13/7 12/14/7 3/3/2
f 13/15/8 5/5/3 8/8/3 14/16/8
f 6/17/4 15/18/9 16/19/9 7/20/5
f 17/21/10 18/22/11 19/23/11 20/24/10
f 21/25/12 22/26/13 23/27/13 24/28/12
f 18/22/11 25/29/14 26/30/14 19/23/11
f 27/31/15 21/25/12 24/28/12 28/32/15
f 29/33/16 17/34/10 20/35/10 30/36/16
f 11/13/7 29/37/16 30/38/16 12/14/7
f 22/39/13 31/40/17 32/41/17 23/42/13
f 31/43/17 13/15/8 14/16/8 32/44/17
f 15/45/9 9/46/6 10/47/6 16/48/9
o Cube.020
v -17.327324 -0.499996 -27.115124
v -17.327324 0.200004 -27.115124
v -16.725912 0.200004 -25.207691
v -16.725912 -0.499996 -25.207691
v -4.929004 -0.499995 -31.024300
v -4.327592 -0.499995 -29.116865
v -4.327592 0.200005 -29.116865
v -4.929004 0.200005 -31.024300
vt 1.0000 0.3077
vt 0.8955 0.3077
vt 0.8955 0.1538
vt 1.0000 0.1538
vt 0.0000 1.0000
vt 0.0000 0.0000
vt 0.2985 0.0000
vt 0.2985 1.0000
vt 1.0000 0.1538
vt 0.8955 0.1538
vt 0.8955 0.0000
vt 1.0000 0.0000
vn 0.9537 0.0000 -0.3007
vn 0.0000 1.0000 0.0000
vn -0.9537 0.0000 0.3007
usemtl Material_blk_concrete01_dif.tga
s off
f 33/49/18 34/50/18 35/51/18 36/52/18
f 37/53/19 33/54/19 36/55/19 38/56/19
f 38/57/20 39/58/20 40/59/20 37/60/20
o Cube.004
v -13.000000 -0.500000 3.000000
v -13.000000 0.200000 3.000000
v -13.000000 0.199999 5.000000
v -13.000000 -0.500001 5.000000
v 0.000000 -0.500000 3.000000
v 0.000000 -0.500001 5.000000
v 0.000000 0.199999 5.000000
v 0.000000 0.200000 3.000000
vt 1.0000 0.3077
vt 0.8955 0.3077
vt 0.8955 0.1538
vt 1.0000 0.1538
vt 0.0000 1.0000
vt 0.0000 0.0000
vt 0.2985 0.0000
vt 0.2985 1.0000
vt 1.0000 0.1538
vt 0.8955 0.1538
vt 0.8955 0.0000
vt 1.0000 0.0000
vn 1.0000 0.0000 0.0000
vn 0.0000 1.0000 0.0000
vn -1.0000 0.0000 0.0000
usemtl Material_blk_concrete01_dif.tga
s off
f 41/61/21 42/62/21 43/63/21 44/64/21
f 45/65/22 41/66/22 44/67/22 46/68/22
f 46/69/23 47/70/23 48/71/23 45/72/23
o Cube.039_Cube.045
v -11.640102 1.905699 -15.580235
v -12.079304 1.905699 -15.502792
v -13.765019 1.905701 -23.106592
v -13.334241 1.905701 -23.222019
v -12.181751 1.872463 -15.484728
v -12.206413 1.830538 -15.480377
v -13.889697 1.830539 -23.073185
v -13.865504 1.872465 -23.079668
v -11.512987 1.830538 -15.602650
v -11.537655 1.872463 -15.598299
v -13.233762 1.872465 -23.248943
v -13.209563 1.830539 -23.255426
v -12.206413 1.606318 -15.480375
v -13.889697 1.606319 -23.073183
v -11.512987 1.606318 -15.602650
v -13.209563 1.606319 -23.255426
v -12.037807 1.491616 -15.510107
v -12.013506 1.447080 -15.514391
v -13.700486 1.447082 -23.123882
v -13.724324 1.491618 -23.117496
v -11.705894 1.447080 -15.568634
v -11.681599 1.491616 -15.572918
v -13.374948 1.491618 -23.211113
v -13.398774 1.447082 -23.204727
v -12.013506 0.955872 -15.514394
v -13.700486 0.955874 -23.123886
v -11.705894 0.955873 -15.568634
v -13.398774 0.955874 -23.204727
v -12.180613 1.539271 -15.484926
v -13.864388 1.539272 -23.079964
v -11.538794 1.539271 -15.598099
v -13.234878 1.539272 -23.248646
vt 0.1147 0.6651
vt 0.1148 0.6651
vt 0.1146 0.6666
vt 0.1144 0.6666
vt 0.1709 0.7189
vt 0.1709 0.7189
vt 0.1708 0.7165
vt 0.1708 0.7165
vt 0.1428 0.7310
vt 0.1427 0.7310
vt 0.1427 0.7286
vt 0.1427 0.7286
vt 0.1602 0.7074
vt 0.1602 0.7075
vt 0.1598 0.7098
vt 0.1598 0.7098
vt 0.1708 0.7189
vt 0.1707 0.7165
vt 0.1429 0.7310
vt 0.1428 0.7286
vt 0.1600 0.7074
vt 0.1600 0.7074
vt 0.1596 0.7098
vt 0.1595 0.7098
vt 0.1706 0.7190
vt 0.1706 0.7190
vt 0.1705 0.7166
vt 0.1706 0.7166
vt 0.1568 0.7195
vt 0.1568 0.7195
vt 0.1568 0.7220
vt 0.1568 0.7220
vt 0.1704 0.7190
vt 0.1703 0.7166
vt 0.1566 0.7195
vt 0.1566 0.7220
vt 0.1689 0.7193
vt 0.1688 0.7193
vt 0.1684 0.7169
vt 0.1684 0.7169
vt 0.1707 0.7189
vt 0.1707 0.7165
vt 0.1667 0.7194
vt 0.1667 0.7194
vt 0.1662 0.7170
vt 0.1663 0.7170
vt 0.1429 0.7310
vt 0.1429 0.7286
vn -0.1546 -0.9874 0.0343
vn 0.1464 -0.9887 -0.0325
vn 0.6013 -0.7879 -0.1333
vn 0.9407 -0.2677 -0.2085
vn -0.9417 -0.2639 0.2088
vn -0.6130 -0.7783 0.1359
vn 0.9593 0.1860 -0.2127
vn -0.9596 0.1841 0.2127
vn 0.6285 0.7652 -0.1393
vn 0.9457 0.2484 -0.2097
vn -0.9449 0.2517 0.2095
vn -0.6168 0.7752 0.1367
vn 0.9763 0.0000 -0.2164
vn -0.9763 0.0000 0.2164
vn 0.6652 0.7319 -0.1475
vn -0.6774 0.7201 0.1502
usemtl Material.001
s 1
f 49/73/24 50/74/25 51/75/25 52/76/24
f 53/77/26 54/78/27 55/79/27 56/80/26
f 57/81/28 58/82/29 59/83/29 60/84/28
f 50/85/25 53/86/26 56/87/26 51/88/25
f 54/78/27 61/89/30 62/90/30 55/79/27
f 63/91/31 57/81/28 60/84/28 64/92/31
f 58/93/29 49/94/24 52/95/24 59/96/29
f 65/97/32 66/98/33 67/99/33 68/100/32
f 69/101/34 70/102/35 71/103/35 72/104/34
f 66/98/33 73/105/36 74/106/36 67/99/33
f 75/107/37 69/101/34 72/104/34 76/108/37
f 77/109/38 65/110/32 68/111/32 78/112/38
f 61/89/30 77/113/38 78/114/38 62/90/30
f 70/115/35 79/116/39 80/117/39 71/118/35
f 79/119/39 63/91/31 64/92/31 80/120/39
o Cube.010
v -5.943260 0.200002 -13.391434
v -4.719811 0.500002 -13.552504
v -4.458759 0.500002 -11.569614
v -5.682208 0.200002 -11.408545
v -2.209485 0.500002 -13.882995
v -1.948432 0.500002 -11.900105
v -0.986036 0.200002 -14.044065
v -0.724984 0.200002 -12.061174
vt 0.2985 0.3846
vt 0.2985 0.2897
vt 0.5970 0.2897
vt 0.5970 0.3846
vt 0.2985 0.0949
vt 0.5970 0.0949
vt 0.2985 0.0000
vt 0.5970 0.0000
vn 0.2342 -0.9717 -0.0308
vn 0.0000 -1.0000 -0.0000
vn -0.2342 -0.9717 0.0308
usemtl Material_blk_concrete01_dif.tga
s off
f 81/121/40 82/122/40 83/123/40 84/124/40
f 82/122/41 85/125/41 86/126/41 83/123/41
f 86/126/42 85/125/42 87/127/42 88/128/42
o Cube.035_Cube.041
v -11.432888 1.905704 -41.299519
v -11.837076 1.905704 -41.111038
v -14.576861 1.905714 -47.096230
v -14.172674 1.905714 -47.284714
v -11.931364 1.872468 -41.067070
v -11.954058 1.830542 -41.056488
v -14.693843 1.830553 -47.041679
v -14.671149 1.872479 -47.052261
v -11.315901 1.830542 -41.354073
v -11.338606 1.872468 -41.343487
v -14.078392 1.872479 -47.328682
v -14.055687 1.830553 -47.339264
v -11.954058 1.606322 -41.056488
v -14.693843 1.606332 -47.041683
v -11.315901 1.606322 -41.354073
v -14.055687 1.606332 -47.339264
v -11.798882 1.491621 -41.128853
v -11.776520 1.447085 -41.139275
v -14.516305 1.447096 -47.124466
v -14.538667 1.491631 -47.114044
v -11.493444 1.447085 -41.271286
v -11.471071 1.491621 -41.281712
v -14.210857 1.491631 -47.266907
v -14.233231 1.447096 -47.256477
v -11.776520 0.955877 -41.139275
v -14.516305 0.955888 -47.124470
v -11.930300 1.539275 -41.067566
v -14.670085 1.539285 -47.052757
v -11.493444 0.955877 -41.271286
v -14.233231 0.955888 -47.256477
v -11.339653 1.539275 -41.343002
v -14.079439 1.539285 -47.328194
vt 0.1064 0.6699
vt 0.1063 0.6699
vt 0.1063 0.6699
vt 0.1064 0.6699
vt 0.1062 0.6700
vt 0.1062 0.6700
vt 0.1062 0.6700
vt 0.1062 0.6700
vt 0.1064 0.6700
vt 0.1064 0.6700
vt 0.1064 0.6700
vt 0.1064 0.6700
vt 0.1062 0.6700
vt 0.1062 0.6700
vt 0.1064 0.6700
vt 0.1064 0.6700
vt 0.1063 0.6701
vt 0.1063 0.6701
vt 0.1063 0.6701
vt 0.1063 0.6701
vt 0.1064 0.6701
vt 0.1064 0.6701
vt 0.1064 0.6701
vt 0.1064 0.6701
vt 0.1063 0.6702
vt 0.1063 0.6702
vt 0.1062 0.6700
vt 0.1062 0.6700
vt 0.1064 0.6702
vt 0.1064 0.6702
vt 0.1064 0.6700
vt 0.1064 0.6700
vn -0.1394 -0.9882 0.0638
vn 0.1406 -0.9880 -0.0644
vn 0.1394 -0.9882 -0.0638
vn -0.1406 -0.9880 0.0644
vn 0.5661 -0.7825 -0.2591
vn 0.8766 -0.2656 -0.4013
vn 0.8764 -0.2662 -0.4012
vn 0.5643 -0.7841 -0.2583
vn -0.8764 -0.2663 0.4012
vn -0.5643 -0.7841 0.2583
vn -0.5660 -0.7826 0.2591
vn -0.8766 -0.2657 0.4013
vn 0.8935 0.1851 -0.4090
vn 0.8935 0.1854 -0.4090
vn -0.8935 0.1854 0.4090
vn -0.8936 0.1851 0.4090
vn 0.5788 0.7713 -0.2649
vn 0.8803 0.2505 -0.4030
vn 0.8804 0.2500 -0.4030
vn 0.5805 0.7697 -0.2657
vn -0.8804 0.2501 0.4030
vn -0.5804 0.7697 0.2657
vn -0.5787 0.7713 0.2649
vn -0.8802 0.2506 0.4029
vn 0.9093 0.0000 -0.4162
vn 0.6259 0.7254 -0.2865
vn 0.6241 0.7273 -0.2857
vn -0.9093 0.0000 0.4162
vn -0.6241 0.7273 0.2857
vn -0.6259 0.7254 0.2865
usemtl Material.001
s 1
f 89/129/43 90/130/44 91/131/45 92/132/46
f 93/133/47 94/134/48 95/135/49 96/136/50
f 97/137/51 98/138/52 99/139/53 100/140/54
f 90/130/44 93/133/47 96/136/50 91/131/45
f 94/134/48 101/141/55 102/142/56 95/135/49
f 98/138/52 89/129/43 92/132/46 99/139/53
f 103/143/57 97/137/51 100/140/54 104/144/58
f 105/145/59 106/146/60 107/147/61 108/148/62
f 109/149/63 110/150/64 111/151/65 112/152/66
f 106/146/60 113/153/67 114/154/67 107/147/61
f 115/155/68 105/145/59 108/148/62 116/156/69
f 117/157/70 109/149/63 112/152/66 118/158/70
f 101/141/55 115/155/68 116/156/69 102/142/56
f 110/150/64 119/159/71 120/160/72 111/151/65
f 119/159/71 103/143/57 104/144/58 120/160/72
o Cube.038_Cube.044
v -13.334241 1.905701 -23.222019
v -13.765019 1.905701 -23.106592
v -16.107037 1.905702 -30.534540
v -15.687964 1.905702 -30.687071
v -13.865504 1.872465 -23.079668
v -13.889697 1.830539 -23.073185
v -16.228333 1.830540 -30.490393
v -16.204792 1.872466 -30.498960
v -13.209563 1.830539 -23.255426
v -13.233762 1.872465 -23.248943
v -15.590215 1.872466 -30.722652
v -15.566669 1.830540 -30.731218
v -13.889697 1.606319 -23.073183
v -16.228333 1.606320 -30.490391
v -13.209563 1.606319 -23.255426
v -15.566669 1.606320 -30.731218
v -13.724324 1.491618 -23.117496
v -13.700486 1.447082 -23.123882
v -16.044258 1.447083 -30.557388
v -16.067451 1.491619 -30.548948
v -13.398774 1.447082 -23.204727
v -13.374948 1.491618 -23.211113
v -15.727561 1.491619 -30.672659
v -15.750741 1.447083 -30.664223
v -13.700486 0.955874 -23.123886
v -16.044258 0.955875 -30.557392
v -13.398774 0.955874 -23.204727
v -15.750741 0.955875 -30.664223
v -13.864388 1.539272 -23.079964
v -16.203709 1.539273 -30.499352
v -13.234878 1.539272 -23.248646
v -15.591296 1.539273 -30.722256
vt 0.1144 0.6666
vt 0.1146 0.6666
vt 0.1144 0.6682
vt 0.1143 0.6682
vt 0.1708 0.7165
vt 0.1708 0.7165
vt 0.1708 0.7141
vt 0.1708 0.7141
vt 0.1427 0.7286
vt 0.1427 0.7286
vt 0.1427 0.7262
vt 0.1427 0.7262
vt 0.1598 0.7098
vt 0.1598 0.7098
vt 0.1596 0.7122
vt 0.1596 0.7122
vt 0.1707 0.7165
vt 0.1707 0.7141
vt 0.1428 0.7286
vt 0.1428 0.7262
vt 0.1595 0.7098
vt 0.1596 0.7098
vt 0.1594 0.7122
vt 0.1593 0.7122
vt 0.1706 0.7166
vt 0.1705 0.7166
vt 0.1705 0.7142
vt 0.1705 0.7142
vt 0.1568 0.7220
vt 0.1568 0.7220
vt 0.1568 0.7244
vt 0.1568 0.7244
vt 0.1703 0.7166
vt 0.1703 0.7142
vt 0.1566 0.7220
vt 0.1566 0.7244
vt 0.1684 0.7169
vt 0.1684 0.7169
vt 0.1682 0.7145
vt 0.1682 0.7145
vt 0.1707 0.7165
vt 0.1707 0.7141
vt 0.1663 0.7170
vt 0.1662 0.7170
vt 0.1660 0.7146
vt 0.1661 0.7146
vt 0.1429 0.7286
vt 0.1428 0.7262
vn -0.1510 -0.9874 0.0476
vn 0.1430 -0.9887 -0.0451
vn 0.5873 -0.7879 -0.1852
vn 0.9189 -0.2677 -0.2897
vn -0.9199 -0.2640 0.2900
vn -0.5988 -0.7783 0.1888
vn 0.9371 0.1860 -0.2955
vn -0.9374 0.1841 0.2956
vn 0.6139 0.7653 -0.1936
vn 0.9238 0.2484 -0.2913
vn -0.9230 0.2517 0.2910
vn -0.6025 0.7752 0.1900
vn 0.9537 0.0000 -0.3007
vn -0.9537 0.0000 0.3007
vn 0.6498 0.7319 -0.2049
vn -0.6617 0.7201 0.2086
usemtl Material.001
s 1
f 121/161/73 122/162/74 123/163/74 124/164/73
f 125/165/75 126/166/76 127/167/76 128/168/75
f 129/169/77 130/170/78 131/171/78 132/172/77
f 122/173/74 125/174/75 128/175/75 123/176/74
f 126/166/76 133/177/79 134/178/79 127/167/76
f 135/179/80 129/169/77 132/172/77 136/180/80
f 130/181/78 121/182/73 124/183/73 131/184/78
f 137/185/81 138/186/82 139/187/82 140/188/81
f 141/189/83 142/190/84 143/191/84 144/192/83
f 138/186/82 145/193/85 146/194/85 139/187/82
f 147/195/86 141/189/83 144/192/83 148/196/86
f 149/197/87 137/198/81 140/199/81 150/200/87
f 133/177/79 149/201/87 150/202/87 134/178/79
f 142/203/84 151/204/88 152/205/88 143/206/84
f 151/207/88 135/179/80 136/180/80 152/208/88
o Cube.029_Cube.035
v -2.852067 1.830535 0.000006
v -2.827012 1.872461 0.000006
v -2.826970 1.872455 8.000006
v -2.852024 1.830529 8.000006
v -2.172987 1.872461 -0.000003
v -2.147933 1.830535 -0.000003
v -2.147891 1.830529 7.999999
v -2.172945 1.872455 7.999999
v -2.722988 1.905697 0.000006
v -2.722946 1.905690 8.000006
v -2.852067 1.606315 0.000003
v -2.852024 1.606308 8.000004
v -2.277011 1.905697 -0.000001
v -2.276969 1.905690 8.000000
v -2.147933 1.606315 -0.000001
v -2.147891 1.606308 8.000000
v -2.656176 1.447078 0.000003
v -2.680851 1.491614 0.000003
v -2.680809 1.491607 8.000004
v -2.656134 1.447071 8.000004
v -2.319149 1.491614 -0.000001
v -2.343823 1.447078 -0.000001
v -2.343781 1.447071 7.999999
v -2.319106 1.491607 8.000000
v -2.656176 0.955870 0.000000
v -2.656134 0.955863 8.000000
v -2.825857 1.539268 0.000003
v -2.825814 1.539261 8.000004
v -2.343823 0.955870 -0.000001
v -2.343781 0.955863 7.999999
v -2.174143 1.539268 -0.000001
v -2.174100 1.539261 8.000000
vt 0.1062 0.6700
vt 0.1062 0.6700
vt 0.1062 0.6700
vt 0.1062 0.6700
vt 0.1064 0.6700
vt 0.1064 0.6700
vt 0.1064 0.6700
vt 0.1064 0.6700
vt 0.1063 0.6699
vt 0.1063 0.6699
vt 0.1062 0.6700
vt 0.1062 0.6700
vt 0.1064 0.6699
vt 0.1064 0.6699
vt 0.1064 0.6700
vt 0.1064 0.6700
vt 0.1063 0.6701
vt 0.1063 0.6701
vt 0.1063 0.6701
vt 0.1063 0.6701
vt 0.1064 0.6701
vt 0.1064 0.6701
vt 0.1064 0.6701
vt 0.1064 0.6701
vt 0.1063 0.6702
vt 0.1063 0.6702
vt 0.1062 0.6700
vt 0.1062 0.6700
vt 0.1064 0.6702
vt 0.1064 0.6702
vt 0.1064 0.6700
vt 0.1064 0.6700
vn 0.9640 -0.2661 -0.0000
vn 0.6215 -0.7834 -0.0000
vn -0.6215 -0.7834 0.0000
vn -0.9640 -0.2661 0.0000
vn 0.1540 -0.9881 -0.0000
vn 0.9827 0.1853 -0.0000
vn -0.1540 -0.9881 -0.0000
vn -0.9827 0.1852 0.0000
vn 0.9682 0.2503 -0.0000
vn 0.6375 0.7705 -0.0000
vn -0.6375 0.7705 0.0000
vn -0.9682 0.2503 0.0000
vn 1.0000 -0.0000 -0.0000
vn 0.6873 0.7263 -0.0000
vn -1.0000 0.0000 0.0000
vn -0.6873 0.7263 0.0000
usemtl Material.001
s 1
f 153/209/89 154/210/90 155/211/90 156/212/89
f 157/213/91 158/214/92 159/215/92 160/216/91
f 154/210/90 161/217/93 162/218/93 155/211/90
f 163/219/94 153/209/89 156/212/89 164/220/94
f 165/221/95 157/213/91 160/216/91 166/222/95
f 158/214/92 167/223/96 168/224/96 159/215/92
f 169/225/97 170/226/98 171/227/98 172/228/97
f 173/229/99 174/230/100 175/231/100 176/232/99
f 177/233/101 169/225/97 172/228/97 178/234/101
f 170/226/98 179/235/102 180/236/102 171/227/98
f 174/230/100 181/237/103 182/238/103 175/231/100
f 179/235/102 163/219/94 164/220/94 180/236/102
f 183/239/104 173/229/99 176/232/99 184/240/104
f 167/223/96 183/239/104 184/240/104 168/224/96
f 161/217/93 165/221/95 166/222/95 162/218/93
o Cube.018
v -9.697588 0.200005 -29.520771
v -8.520696 0.500005 -29.891844
v -7.919284 0.500005 -27.984409
v -9.096177 0.200005 -27.613337
v -6.105896 0.500005 -30.653227
v -5.504484 0.500005 -28.745792
v -4.929004 0.200005 -31.024300
v -4.327592 0.200005 -29.116865
vt 0.2985 0.3846
vt 0.2985 0.2897
vt 0.5970 0.2897
vt 0.5970 0.3846
vt 0.2985 0.0949
vt 0.5970 0.0949
vt 0.2985 0.0000
vt 0.5970 0.0000
vn 0.2253 -0.9717 -0.0710
vn 0.0000 -1.0000 -0.0000
vn -0.2253 -0.9717 0.0710
usemtl Material_blk_concrete01_dif.tga
s off
f 185/241/105 186/242/105 187/243/105 188/244/105
f 186/242/106 189/245/106 190/246/106 187/243/106
f 190/246/107 189/245/107 191/247/107 192/248/107
o Cube.006
v -11.893590 0.500001 -4.847762
v -11.806351 0.500000 -2.849665
v -13.039183 0.200000 -2.795839
v -13.126421 0.200001 -4.793935
v -9.364012 0.500001 -4.958205
v -9.276773 0.500000 -2.960109
v -8.131180 0.200001 -5.012033
v -8.043941 0.200000 -3.013936
vt 0.2985 0.9051
vt 0.5970 0.9051
vt 0.5970 1.0000
vt 0.2985 1.0000
vt 0.2985 0.7103
vt 0.5970 0.7103
vt 0.2985 0.6154
vt 0.5970 0.6154
vn 0.2360 -0.9717 -0.0103
vn 0.0000 -1.0000 -0.0000
vn -0.2360 -0.9717 0.0103
usemtl Material_blk_concrete01_dif.tga
s off
f 193/249/108 194/250/108 195/251/108 196/252/108
f 193/249/109 197/253/109 198/254/109 194/250/109
f 197/253/110 199/255/110 200/256/110 198/254/110
o Cube.042_Cube.048
v -10.277012 1.905697 -0.000002
v -10.172988 1.872461 -0.000002
v -10.172945 1.872455 7.999999
v -10.276970 1.905690 7.999999
v -10.147934 1.830535 -0.000002
v -10.147934 1.606315 -0.000002
v -10.147891 1.606308 7.999999
v -10.147891 1.830529 7.999999
v -10.656177 0.955870 -0.000002
v -10.656177 1.447078 0.000001
v -10.656134 1.447071 8.000001
v -10.656134 0.955863 7.999998
v -10.852068 1.830535 -0.000002
v -10.827013 1.872461 -0.000002
v -10.826971 1.872455 7.999999
v -10.852025 1.830529 7.999999
v -10.174143 1.539268 -0.000002
v -10.174101 1.539261 7.999999
v -10.825858 1.539268 0.000001
v -10.852068 1.606315 0.000001
v -10.852025 1.606308 8.000001
v -10.825815 1.539261 8.000001
v -10.319149 1.491614 -0.000002
v -10.319106 1.491607 7.999999
v -10.680851 1.491614 0.000001
v -10.680809 1.491607 8.000001
v -10.343824 1.447078 -0.000002
v -10.343824 0.955870 -0.000002
v -10.343781 0.955863 7.999998
v -10.343781 1.447071 7.999998
v -10.722988 1.905697 -0.000002
v -10.722946 1.905690 7.999999
vt 0.1615 0.7028
vt 0.1614 0.7028
vt 0.1614 0.7028
vt 0.1615 0.7028
vt 0.1429 0.7358
vt 0.1429 0.7358
vt 0.1429 0.7358
vt 0.1429 0.7358
vt 0.1428 0.7358
vt 0.1428 0.7358
vt 0.1705 0.7237
vt 0.1707 0.7237
vt 0.1707 0.7237
vt 0.1705 0.7237
vt 0.1710 0.7237
vt 0.1710 0.7237
vt 0.1710 0.7237
vt 0.1710 0.7237
vt 0.1430 0.7358
vt 0.1430 0.7358
vt 0.1708 0.7237
vt 0.1709 0.7237
vt 0.1709 0.7237
vt 0.1708 0.7237
vt 0.1681 0.7240
vt 0.1682 0.7240
vt 0.1682 0.7240
vt 0.1681 0.7240
vt 0.1703 0.7239
vt 0.1703 0.7239
vt 0.1703 0.7239
vt 0.1703 0.7239
vt 0.1567 0.7148
vt 0.1565 0.7148
vt 0.1565 0.7148
vt 0.1567 0.7148
vt 0.1567 0.7148
vt 0.1567 0.7148
vt 0.1158 0.6621
vt 0.1157 0.6621
vt 0.1157 0.6621
vt 0.1158 0.6621
vt 0.1707 0.7237
vt 0.1707 0.7237
vt 0.1617 0.7029
vt 0.1616 0.7029
vt 0.1616 0.7029
vt 0.1617 0.7029
vn -0.1540 -0.9881 -0.0000
vn -0.6215 -0.7834 0.0000
vn -0.9640 -0.2661 0.0000
vn -0.9827 0.1852 0.0000
vn 1.0000 -0.0000 -0.0000
vn 0.9682 0.2503 -0.0000
vn 0.9640 -0.2661 -0.0000
vn 0.6215 -0.7834 -0.0000
vn -0.6874 0.7263 0.0000
vn 0.6873 0.7263 -0.0000
vn 0.9827 0.1853 -0.0000
vn -0.6374 0.7705 0.0000
vn 0.6374 0.7705 -0.0000
vn -0.9682 0.2503 0.0000
vn -1.0000 0.0000 0.0000
vn 0.1540 -0.9881 -0.0000
usemtl Material.001
s 1
f 201/257/111 202/258/112 203/259/112 204/260/111
f 205/261/113 206/262/114 207/263/114 208/264/113
f 202/265/112 205/261/113 208/264/113 203/266/112
f 209/267/115 210/268/116 211/269/116 212/270/115
f 213/271/117 214/272/118 215/273/118 216/274/117
f 206/262/114 217/275/119 218/276/119 207/263/114
f 219/277/120 220/278/121 221/279/121 222/280/120
f 217/281/119 223/282/122 224/283/122 218/284/119
f 220/278/121 213/271/117 216/274/117 221/279/121
f 225/285/123 219/286/120 222/287/120 226/288/123
f 227/289/124 228/290/125 229/291/125 230/292/124
f 223/293/122 227/289/124 230/292/124 224/294/122
f 231/295/126 201/296/111 204/297/111 232/298/126
f 210/268/116 225/299/123 226/300/123 211/269/116
f 214/301/118 231/302/126 232/303/126 215/304/118
o Cube.003
v -11.765994 0.500000 3.000000
v -11.765994 0.499999 5.000000
v -13.000000 0.199999 5.000000
v -13.000000 0.200000 3.000000
v -9.234006 0.500000 3.000000
v -9.234006 0.499999 5.000000
v -8.000000 0.200000 3.000000
v -8.000000 0.199999 5.000000
vt 0.2985 0.9051
vt 0.5970 0.9051
vt 0.5970 1.0000
vt 0.2985 1.0000
vt 0.2985 0.7103
vt 0.5970 0.7103
vt 0.2985 0.6154
vt 0.5970 0.6154
vn 0.2362 -0.9717 -0.0000
vn 0.0000 -1.0000 -0.0000
vn -0.2362 -0.9717 -0.0000
usemtl Material_blk_concrete01_dif.tga
s off
f 233/305/127 234/306/127 235/307/127 236/308/127
f 233/305/128 237/309/128 238/310/128 234/306/128
f 237/309/129 239/311/129 240/312/129 238/310/129
o Cube.032_Cube.038
v -3.803135 1.491617 -16.962101
v -3.660324 1.539271 -16.987282
v -5.507463 1.539272 -25.319199
v -5.647532 1.491618 -25.281666
v -3.659191 1.872464 -16.987484
v -3.761638 1.905700 -16.969418
v -5.606837 1.905701 -25.292572
v -5.506352 1.872465 -25.319496
v -4.327955 1.606318 -16.869556
v -4.302149 1.539271 -16.874107
v -6.136979 1.539272 -25.150517
v -6.162293 1.606319 -25.143732
v -3.634523 1.606318 -16.991833
v -3.634523 1.830538 -16.991835
v -5.482154 1.830539 -25.325981
v -5.482154 1.606319 -25.325979
v -4.159344 1.491617 -16.899288
v -4.135042 1.447081 -16.903574
v -5.973083 1.447082 -25.194433
v -5.996909 1.491618 -25.188047
v -4.200840 1.905700 -16.891970
v -6.037616 1.905701 -25.177137
v -3.827436 1.447081 -16.957817
v -5.671371 1.447082 -25.275280
v -4.303288 1.872464 -16.873905
v -4.327955 1.830538 -16.869555
v -6.162293 1.830539 -25.143730
v -6.138101 1.872465 -25.150213
v -4.135042 0.955873 -16.903576
v -5.973083 0.955874 -25.194435
v -3.827436 0.955873 -16.957817
v -5.671371 0.955874 -25.275280
vt 0.1064 0.6701
vt 0.1064 0.6700
vt 0.1064 0.6700
vt 0.1064 0.6701
vt 0.1064 0.6700
vt 0.1064 0.6699
vt 0.1064 0.6699
vt 0.1064 0.6700
vt 0.1062 0.6700
vt 0.1062 0.6700
vt 0.1062 0.6700
vt 0.1062 0.6700
vt 0.1064 0.6700
vt 0.1064 0.6700
vt 0.1064 0.6700
vt 0.1064 0.6700
vt 0.1063 0.6701
vt 0.1063 0.6701
vt 0.1063 0.6701
vt 0.1063 0.6701
vt 0.1063 0.6699
vt 0.1063 0.6699
vt 0.1064 0.6701
vt 0.1064 0.6701
vt 0.1062 0.6700
vt 0.1062 0.6700
vt 0.1062 0.6700
vt 0.1062 0.6700
vt 0.1063 0.6702
vt 0.1063 0.6702
vt 0.1064 0.6702
vt 0.1064 0.6702
vn -0.6167 0.7752 0.1367
vn -0.6774 0.7201 0.1502
vn -0.6130 -0.7783 0.1359
vn -0.1546 -0.9874 0.0343
vn 0.9593 0.1860 -0.2127
vn 0.6652 0.7319 -0.1475
vn -0.9596 0.1841 0.2127
vn -0.9417 -0.2639 0.2088
vn 0.6285 0.7652 -0.1393
vn 0.9457 0.2484 -0.2097
vn 0.1464 -0.9887 -0.0325
vn -0.9448 0.2518 0.2095
vn 0.6013 -0.7879 -0.1333
vn 0.9407 -0.2677 -0.2085
vn 0.9763 0.0000 -0.2164
vn -0.9763 0.0000 0.2164
usemtl Material.001
s 1
f 241/313/130 242/314/131 243/315/131 244/316/130
f 245/317/132 246/318/133 247/319/133 248/320/132
f 249/321/134 250/322/135 251/323/135 252/324/134
f 253/325/136 254/326/137 255/327/137 256/328/136
f 242/314/131 253/325/136 256/328/136 243/315/131
f 257/329/138 258/330/139 259/331/139 260/332/138
f 246/318/133 261/333/140 262/334/140 247/319/133
f 263/335/141 241/313/130 244/316/130 264/336/141
f 265/337/142 266/338/143 267/339/143 268/340/142
f 258/330/139 269/341/144 270/342/144 259/331/139
f 254/326/137 245/317/132 248/320/132 255/327/137
f 250/322/135 257/329/138 260/332/138 251/323/135
f 261/333/140 265/337/142 268/340/142 262/334/140
f 271/343/145 263/335/141 264/336/141 272/344/145
f 266/338/143 249/321/134 252/324/134 267/339/143
o Cube.015
v -7.468314 0.200004 -21.538059
v -6.263559 0.500004 -21.805147
v -5.830680 0.500003 -19.852554
v -7.035435 0.200003 -19.585468
v -3.791589 0.500004 -22.353170
v -3.358710 0.500003 -20.400578
v -2.586834 0.200004 -22.620258
v -2.153955 0.200003 -20.667665
vt 0.2985 0.3846
vt 0.2985 0.2897
vt 0.5970 0.2897
vt 0.5970 0.3846
vt 0.2985 0.0949
vt 0.5970 0.0949
vt 0.2985 0.0000
vt 0.5970 0.0000
vn 0.2306 -0.9717 -0.0511
vn -0.0000 -1.0000 -0.0000
vn -0.2306 -0.9717 0.0511
usemtl Material_blk_concrete01_dif.tga
s off
f 273/345/146 274/346/146 275/347/146 276/348/146
f 274/346/147 277/349/147 278/350/147 275/347/147
f 278/350/148 277/349/148 279/351/148 280/352/148
o Cube.007
v -5.134035 0.200001 -5.142890
v -3.901204 0.500001 -5.196717
v -3.813965 0.500001 -3.198620
v -5.046797 0.200001 -3.144794
v -1.371626 0.500001 -5.307160
v -1.284387 0.500001 -3.309064
v -0.138794 0.200001 -5.360987
v -0.051556 0.200001 -3.362891
vt 0.2985 0.3846
vt 0.2985 0.2897
vt 0.5970 0.2897
vt 0.5970 0.3846
vt 0.2985 0.0949
vt 0.5970 0.0949
vt 0.2985 0.0000
vt 0.5970 0.0000
vn 0.2360 -0.9717 -0.0103
vn 0.0000 -1.0000 -0.0000
vn -0.2360 -0.9717 0.0103
usemtl Material_blk_concrete01_dif.tga
s off
f 281/353/149 282/354/149 283/355/149 284/356/149
f 282/354/150 285/357/150 286/358/150 283/355/150
f 286/358/151 285/357/151 287/359/151 288/360/151
o Cube.030_Cube.036
v -2.722988 1.905697 0.000006
v -3.093153 1.905698 -8.478244
v -2.648876 1.905698 -8.517120
v -2.277011 1.905697 -0.000001
v -2.319149 1.491614 -0.000001
v -2.690853 1.491615 -8.513448
v -2.715435 1.447079 -8.511297
v -2.343823 1.447078 -0.000001
v -2.852067 1.830535 0.000006
v -3.221744 1.830536 -8.466994
v -3.196784 1.872462 -8.469177
v -2.827012 1.872461 0.000006
v -2.656176 0.955870 0.000000
v -3.026599 0.955871 -8.484072
v -3.026599 1.447079 -8.484070
v -2.656176 1.447078 0.000003
v -2.172987 1.872461 -0.000003
v -2.545244 1.872462 -8.526188
v -2.520290 1.830536 -8.528372
v -2.147933 1.830535 -0.000003
v -2.680851 1.491614 0.000003
v -3.051176 1.491615 -8.481919
v -3.195634 1.539269 -8.469280
v -2.825857 1.539268 0.000003
v -2.715435 0.955871 -8.511297
v -2.343823 0.955870 -0.000001
v -2.852067 1.606315 0.000003
v -3.221744 1.606316 -8.466997
v -2.174143 1.539268 -0.000001
v -2.546394 1.539269 -8.526087
v -2.520290 1.606316 -8.528370
v -2.147933 1.606315 -0.000001
vt 0.1063 0.6699
vt 0.1063 0.6699
vt 0.1064 0.6699
vt 0.1064 0.6699
vt 0.1064 0.6701
vt 0.1064 0.6701
vt 0.1064 0.6701
vt 0.1064 0.6701
vt 0.1062 0.6700
vt 0.1062 0.6700
vt 0.1062 0.6700
vt 0.1062 0.6700
vt 0.1063 0.6702
vt 0.1063 0.6702
vt 0.1063 0.6701
vt 0.1063 0.6701
vt 0.1064 0.6700
vt 0.1064 0.6700
vt 0.1064 0.6700
vt 0.1064 0.6700
vt 0.1063 0.6701
vt 0.1063 0.6701
vt 0.1062 0.6700
vt 0.1062 0.6700
vt 0.1064 0.6702
vt 0.1064 0.6702
vt 0.1062 0.6700
vt 0.1062 0.6700
vt 0.1064 0.6700
vt 0.1064 0.6700
vt 0.1064 0.6700
vt 0.1064 0.6700
vn 0.1498 -0.9887 -0.0065
vn -0.1582 -0.9874 0.0069
vn -0.6311 0.7752 0.0276
vn -0.9669 0.2518 0.0422
vn 0.9626 -0.2678 -0.0420
vn 0.6152 -0.7879 -0.0269
vn 0.9990 0.0000 -0.0436
vn 0.9677 0.2484 -0.0423
vn -0.6273 -0.7783 0.0274
vn -0.9636 -0.2639 0.0421
vn 0.6432 0.7652 -0.0281
vn 0.6807 0.7320 -0.0297
vn -0.9990 0.0000 0.0436
vn 0.9816 0.1860 -0.0429
vn -0.6932 0.7201 0.0303
vn -0.9820 0.1841 0.0429
usemtl Material.001
s 1
f 289/361/152 290/362/152 291/363/153 292/364/153
f 293/365/154 294/366/154 295/367/155 296/368/155
f 297/369/156 298/370/156 299/371/157 300/372/157
f 301/373/158 302/374/158 303/375/159 304/376/159
f 305/377/160 306/378/160 307/379/161 308/380/161
f 309/381/162 310/382/162 311/383/163 312/384/163
f 300/372/157 299/371/157 290/362/152 289/361/152
f 296/368/155 295/367/155 313/385/164 314/386/164
f 315/387/165 316/388/165 298/370/156 297/369/156
f 317/389/166 318/390/166 294/366/154 293/365/154
f 292/364/153 291/363/153 306/378/160 305/377/160
f 312/384/163 311/383/163 316/388/165 315/387/165
f 308/380/161 307/379/161 319/391/167 320/392/167
f 320/392/167 319/391/167 318/390/166 317/389/166
f 304/376/159 303/375/159 310/382/162 309/381/162
o Cube.028_Cube.034
v -16.013851 0.200007 -44.680275
v -14.895461 0.500007 -45.201790
v -14.050224 0.500007 -43.389172
v -15.168613 0.200007 -42.867661
v -12.600700 0.500008 -46.271851
v -11.755465 0.500007 -44.459236
v -11.482311 0.200008 -46.793365
v -10.637075 0.200007 -44.980751
vt 0.2985 0.3846
vt 0.2985 0.2897
vt 0.5970 0.2897
vt 0.5970 0.3846
vt 0.2985 0.0949
vt 0.5970 0.0949
vt 0.2985 0.0000
vt 0.5970 0.0000
vn 0.2141 -0.9717 -0.0998
vn -0.0000 -1.0000 -0.0000
vn -0.2141 -0.9717 0.0998
usemtl Material_blk_concrete01_dif.tga
s off
f 321/393/168 322/394/168 323/395/168 324/396/168
f 322/394/169 325/397/169 326/398/169 323/395/169
f 326/398/170 325/397/170 327/399/170 328/400/170
o Cube.026_Cube.032
v -23.264313 -0.499993 -41.299328
v -23.264313 0.200007 -41.299328
v -22.419075 0.200006 -39.486713
v -22.419075 -0.499994 -39.486713
v -11.482311 -0.499992 -46.793365
v -10.637075 -0.499993 -44.980751
v -10.637075 0.200007 -44.980751
v -11.482311 0.200008 -46.793365
vt 1.0000 0.3077
vt 0.8955 0.3077
vt 0.8955 0.1538
vt 1.0000 0.1538
vt 0.0000 1.0000
vt 0.0000 0.0000
vt 0.2985 0.0000
vt 0.2985 1.0000
vt 1.0000 0.1538
vt 0.8955 0.1538
vt 0.8955 0.0000
vt 1.0000 0.0000
vn 0.9063 0.0000 -0.4226
vn 0.0000 1.0000 0.0000
vn -0.9063 0.0000 0.4226
usemtl Material_blk_concrete01_dif.tga
s off
f 329/401/171 330/402/171 331/403/171 332/404/171
f 333/405/172 329/406/172 332/407/172 334/408/172
f 334/409/173 335/410/173 336/411/173 333/412/173
o Cube.021
v -20.005154 -0.499994 -34.217339
v -20.005154 0.200006 -34.217339
v -19.239788 0.200005 -32.369583
v -19.239788 -0.499995 -32.369583
v -7.994720 -0.499994 -39.192226
v -7.229353 -0.499994 -37.344467
v -7.229353 0.200006 -37.344467
v -7.994720 0.200006 -39.192226
vt 1.0000 0.3077
vt 0.8955 0.3077
vt 0.8955 0.1538
vt 1.0000 0.1538
vt 0.0000 1.0000
vt 0.0000 0.0000
vt 0.2985 0.0000
vt 0.2985 1.0000
vt 1.0000 0.1538
vt 0.8955 0.1538
vt 0.8955 0.0000
vt 1.0000 0.0000
vn 0.9239 0.0000 -0.3827
vn -0.0000 1.0000 0.0000
vn -0.9239 0.0000 0.3827
usemtl Material_blk_concrete01_dif.tga
s off
f 337/413/174 338/414/174 339/415/174 340/416/174
f 341/417/175 337/418/175 340/419/175 342/420/175
f 342/421/176 343/422/176 344/423/176 341/424/176
o Cube.027_Cube.033
v -22.145924 0.500007 -41.820843
v -21.300686 0.500006 -40.008224
v -22.419075 0.200006 -39.486713
v -23.264313 0.200007 -41.299328
v -19.851162 0.500007 -42.890907
v -19.005926 0.500007 -41.078289
v -18.732773 0.200007 -43.412418
v -17.887537 0.200007 -41.599804
vt 0.2985 0.9051
vt 0.5970 0.9051
vt 0.5970 1.0000
vt 0.2985 1.0000
vt 0.2985 0.7103
vt 0.5970 0.7103
vt 0.2985 0.6154
vt 0.5970 0.6154
vn 0.2141 -0.9717 -0.0998
vn 0.0000 -1.0000 -0.0000
vn -0.2141 -0.9717 0.0998
usemtl Material_blk_concrete01_dif.tga
s off
f 345/425/177 346/426/177 347/427/177 348/428/177
f 345/425/178 349/429/178 350/430/178 346/426/178
f 349/429/179 351/431/179 352/432/179 350/430/179
o Cube.033_Cube.039
v -5.973083 1.447082 -25.194433
v -5.973083 0.955874 -25.194435
v -8.526718 0.955875 -33.293545
v -8.526718 1.447083 -33.293541
v -5.482154 1.830539 -25.325981
v -5.506352 1.872465 -25.319496
v -8.072668 1.872466 -33.458809
v -8.049128 1.830541 -33.467377
v -6.136979 1.539272 -25.150517
v -5.996909 1.491618 -25.188047
v -8.549898 1.491619 -33.285107
v -8.686163 1.539273 -33.235512
v -6.037616 1.905701 -25.177137
v -6.138101 1.872465 -25.150213
v -8.687262 1.872466 -33.235107
v -8.589500 1.905702 -33.270691
v -5.671371 0.955874 -25.275280
v -5.671371 1.447082 -25.275280
v -8.233206 1.447083 -33.400379
v -8.233206 0.955875 -33.400379
v -6.162293 1.830539 -25.143730
v -6.162293 1.606319 -25.143732
v -8.710791 1.606320 -33.226547
v -8.710791 1.830540 -33.226543
v -5.647532 1.491618 -25.281666
v -5.507463 1.539272 -25.319199
v -8.073750 1.539274 -33.458420
v -8.210014 1.491619 -33.408817
v -5.606837 1.905701 -25.292572
v -8.170424 1.905702 -33.423229
v -5.482154 1.606319 -25.325979
v -8.049128 1.606321 -33.467377
vt 0.1063 0.6701
vt 0.1063 0.6702
vt 0.1063 0.6702
vt 0.1063 0.6701
vt 0.1064 0.6700
vt 0.1064 0.6700
vt 0.1064 0.6700
vt 0.1064 0.6700
vt 0.1062 0.6700
vt 0.1063 0.6701
vt 0.1063 0.6701
vt 0.1062 0.6700
vt 0.1063 0.6699
vt 0.1062 0.6700
vt 0.1062 0.6700
vt 0.1063 0.6699
vt 0.1064 0.6702
vt 0.1064 0.6701
vt 0.1064 0.6701
vt 0.1064 0.6702
vt 0.1062 0.6700
vt 0.1062 0.6700
vt 0.1062 0.6700
vt 0.1062 0.6700
vt 0.1064 0.6701
vt 0.1064 0.6700
vt 0.1064 0.6700
vt 0.1064 0.6701
vt 0.1064 0.6699
vt 0.1064 0.6699
vt 0.1064 0.6700
vt 0.1064 0.6700
vn 0.9238 0.2483 -0.2913
vn 0.9537 0.0000 -0.3007
vn -0.9199 -0.2639 0.2900
vn -0.5988 -0.7783 0.1888
vn 0.6498 0.7320 -0.2049
vn 0.6140 0.7652 -0.1936
vn 0.1430 -0.9887 -0.0451
vn 0.5874 -0.7878 -0.1852
vn -0.9537 0.0000 0.3007
vn -0.9230 0.2518 0.2910
vn 0.9189 -0.2676 -0.2897
vn 0.9371 0.1860 -0.2955
vn -0.6024 0.7752 0.1900
vn -0.6618 0.7201 0.2087
vn -0.1510 -0.9874 0.0476
vn -0.9374 0.1841 0.2956
usemtl Material.001
s 1
f 353/433/180 354/434/181 355/435/181 356/436/180
f 357/437/182 358/438/183 359/439/183 360/440/182
f 361/441/184 362/442/185 363/443/185 364/444/184
f 365/445/186 366/446/187 367/447/187 368/448/186
f 369/449/188 370/450/189 371/451/189 372/452/188
f 373/453/190 374/454/191 375/455/191 376/456/190
f 377/457/192 378/458/193 379/459/193 380/460/192
f 358/438/183 381/461/194 382/462/194 359/439/183
f 374/454/191 361/441/184 364/444/184 375/455/191
f 383/463/195 357/437/182 360/440/182 384/464/195
f 378/458/193 383/463/195 384/464/195 379/459/193
f 362/442/185 353/433/180 356/436/180 363/443/185
f 381/461/194 365/445/186 368/448/186 382/462/194
f 370/450/189 377/457/192 380/460/192 371/451/189
f 366/446/187 373/453/190 376/456/190 367/447/187
o Cube.022
v -18.865082 0.500006 -34.689575
v -18.099714 0.500005 -32.841816
v -19.239788 0.200005 -32.369583
v -20.005154 0.200006 -34.217339
v -16.525829 0.500006 -35.658524
v -15.760463 0.500005 -33.810764
v -15.385756 0.200006 -36.130756
v -14.620390 0.200006 -34.282997
vt 0.2985 0.9051
vt 0.5970 0.9051
vt 0.5970 1.0000
vt 0.2985 1.0000
vt 0.2985 0.7103
vt 0.5970 0.7103
vt 0.2985 0.6154
vt 0.5970 0.6154
vn 0.2182 -0.9717 -0.0904
vn -0.0000 -1.0000 -0.0000
vn -0.2182 -0.9717 0.0904
usemtl Material_blk_concrete01_dif.tga
s off
f 385/465/196 386/466/196 387/467/196 388/468/196
f 385/465/197 389/469/197 390/470/197 386/466/197
f 389/469/198 391/471/198 392/472/198 390/470/198
o Cube.031_Cube.037
v -2.648876 1.905698 -8.517120
v -3.093153 1.905698 -8.478244
v -4.200840 1.905700 -16.891970
v -3.761638 1.905700 -16.969418
v -2.715435 1.447079 -8.511297
v -2.690853 1.491615 -8.513448
v -3.803135 1.491617 -16.962101
v -3.827436 1.447081 -16.957817
v -3.196784 1.872462 -8.469177
v -3.221744 1.830536 -8.466994
v -4.327955 1.830538 -16.869555
v -4.303288 1.872464 -16.873905
v -3.026599 1.447079 -8.484070
v -3.026599 0.955871 -8.484072
v -4.135042 0.955873 -16.903576
v -4.135042 1.447081 -16.903574
v -2.520290 1.830536 -8.528372
v -2.545244 1.872462 -8.526188
v -3.659191 1.872464 -16.987484
v -3.634523 1.830538 -16.991835
v -3.195634 1.539269 -8.469280
v -3.051176 1.491615 -8.481919
v -4.159344 1.491617 -16.899288
v -4.302149 1.539271 -16.874107
v -2.715435 0.955871 -8.511297
v -3.827436 0.955873 -16.957817
v -3.221744 1.606316 -8.466997
v -4.327955 1.606318 -16.869556
v -2.546394 1.539269 -8.526087
v -3.660324 1.539271 -16.987282
v -2.520290 1.606316 -8.528370
v -3.634523 1.606318 -16.991833
vt 0.1064 0.6699
vt 0.1063 0.6699
vt 0.1063 0.6699
vt 0.1064 0.6699
vt 0.1064 0.6701
vt 0.1064 0.6701
vt 0.1064 0.6701
vt 0.1064 0.6701
vt 0.1062 0.6700
vt 0.1062 0.6700
vt 0.1062 0.6700
vt 0.1062 0.6700
vt 0.1063 0.6701
vt 0.1063 0.6702
vt 0.1063 0.6702
vt 0.1063 0.6701
vt 0.1064 0.6700
vt 0.1064 0.6700
vt 0.1064 0.6700
vt 0.1064 0.6700
vt 0.1062 0.6700
vt 0.1063 0.6701
vt 0.1063 0.6701
vt 0.1062 0.6700
vt 0.1064 0.6702
vt 0.1064 0.6702
vt 0.1062 0.6700
vt 0.1062 0.6700
vt 0.1064 0.6700
vt 0.1064 0.6700
vt 0.1064 0.6700
vt 0.1064 0.6700
vn -0.1570 -0.9874 0.0207
vn 0.1487 -0.9887 -0.0196
vn -0.9595 0.2518 0.1263
vn -0.6263 0.7752 0.0825
vn 0.6105 -0.7879 -0.0804
vn 0.9553 -0.2677 -0.1258
vn 0.9604 0.2484 -0.1264
vn 0.9914 0.0000 -0.1305
vn -0.9563 -0.2639 0.1259
vn -0.6225 -0.7783 0.0820
vn 0.6755 0.7319 -0.0889
vn 0.6382 0.7652 -0.0840
vn 0.6383 0.7652 -0.0840
vn -0.9914 0.0000 0.1305
vn 0.9741 0.1860 -0.1282
vn -0.6879 0.7201 0.0906
vn -0.9745 0.1841 0.1283
usemtl Material.001
s 1
f 393/473/199 394/474/200 395/475/200 396/476/199
f 397/477/201 398/478/202 399/479/202 400/480/201
f 401/481/203 402/482/204 403/483/204 404/484/203
f 405/485/205 406/486/206 407/487/206 408/488/205
f 409/489/207 410/490/208 411/491/208 412/492/207
f 413/493/209 414/494/210 415/495/211 416/496/209
f 394/474/200 401/481/203 404/484/203 395/475/200
f 417/497/212 397/477/201 400/480/201 418/498/212
f 402/482/204 419/499/213 420/500/213 403/483/204
f 398/478/202 421/501/214 422/502/214 399/479/202
f 410/490/208 393/473/199 396/476/199 411/491/208
f 419/499/213 413/493/209 416/496/209 420/500/213
f 423/503/215 409/489/207 412/492/207 424/504/215
f 421/501/214 423/503/215 424/504/215 422/502/214
f 414/494/210 405/485/205 408/488/205 415/495/211
o Cube.005
v -13.126421 -0.499999 -4.793935
v -13.126421 0.200001 -4.793935
v -13.039183 0.200000 -2.795839
v -13.039183 -0.500000 -2.795839
v -0.138794 -0.499999 -5.360987
v -0.051556 -0.499999 -3.362891
v -0.051556 0.200001 -3.362891
v -0.138794 0.200001 -5.360987
vt 1.0000 0.3077
vt 0.8955 0.3077
vt 0.8955 0.1538
vt 1.0000 0.1538
vt 0.0000 1.0000
vt 0.0000 0.0000
vt 0.2985 0.0000
vt 0.2985 1.0000
vt 1.0000 0.1538
vt 0.8955 0.1538
vt 0.8955 0.0000
vt 1.0000 0.0000
vn 0.9990 0.0000 -0.0436
vn 0.0000 1.0000 0.0000
vn -0.9990 0.0000 0.0436
usemtl Material_blk_concrete01_dif.tga
s off
f 425/505/216 426/506/216 427/507/216 428/508/216
f 429/509/217 425/510/217 428/511/217 430/512/217
f 430/513/218 431/514/218 432/515/218 429/516/218
o Cube.023
v -12.614118 0.200006 -37.278809
v -11.474045 0.500006 -37.751041
v -10.708677 0.500006 -35.903282
v -11.848751 0.200006 -35.431049
v -9.134792 0.500006 -38.719990
v -8.369427 0.500006 -36.872231
v -7.994720 0.200006 -39.192226
v -7.229353 0.200006 -37.344467
vt 0.2985 0.3846
vt 0.2985 0.2897
vt 0.5970 0.2897
vt 0.5970 0.3846
vt 0.2985 0.0949
vt 0.5970 0.0949
vt 0.2985 0.0000
vt 0.5970 0.0000
vn 0.2182 -0.9717 -0.0904
vn 0.0000 -1.0000 -0.0000
vn -0.2182 -0.9717 0.0904
usemtl Material_blk_concrete01_dif.tga
s off
f 433/517/219 434/518/219 435/519/219 436/520/219
f 434/518/220 437/521/220 438/522/220 435/519/220
f 438/522/221 437/521/221 439/523/221 440/524/221
o Cube.040_Cube.046
v -10.515952 1.539269 -7.828841
v -10.489848 1.606316 -7.831124
v -11.512987 1.606318 -15.602650
v -11.538794 1.539271 -15.598099
v -10.618434 1.905698 -7.819874
v -11.062711 1.905698 -7.781005
v -12.079304 1.905699 -15.502792
v -11.640102 1.905699 -15.580235
v -11.166343 1.872462 -7.771938
v -11.191297 1.830536 -7.769755
v -12.206413 1.830538 -15.480377
v -12.181751 1.872463 -15.484728
v -10.489848 1.830536 -7.831124
v -10.514802 1.872462 -7.828941
v -11.537655 1.872463 -15.598299
v -11.512987 1.830538 -15.602650
v -11.191297 1.606316 -7.769753
v -12.206413 1.606318 -15.480375
v -11.020734 1.491615 -7.784676
v -10.996158 1.447079 -7.786826
v -12.013506 1.447080 -15.514391
v -12.037807 1.491616 -15.510107
v -10.684987 1.447079 -7.814052
v -10.660411 1.491615 -7.816203
v -11.681599 1.491616 -15.572918
v -11.705894 1.447080 -15.568634
v -10.996158 0.955871 -7.786829
v -12.013506 0.955872 -15.514394
v -10.684987 0.955871 -7.814052
v -11.705894 0.955873 -15.568634
v -11.165193 1.539269 -7.772038
v -12.180613 1.539271 -15.484926
vt 0.1429 0.7334
vt 0.1429 0.7334
vt 0.1429 0.7310
vt 0.1429 0.7310
vt 0.1151 0.6636
vt 0.1152 0.6636
vt 0.1148 0.6651
vt 0.1147 0.6651
vt 0.1709 0.7213
vt 0.1709 0.7213
vt 0.1709 0.7189
vt 0.1709 0.7189
vt 0.1428 0.7334
vt 0.1428 0.7334
vt 0.1427 0.7310
vt 0.1428 0.7310
vt 0.1608 0.7051
vt 0.1608 0.7051
vt 0.1602 0.7075
vt 0.1602 0.7074
vt 0.1708 0.7213
vt 0.1708 0.7189
vt 0.1606 0.7051
vt 0.1606 0.7051
vt 0.1600 0.7074
vt 0.1600 0.7074
vt 0.1706 0.7214
vt 0.1706 0.7214
vt 0.1706 0.7190
vt 0.1706 0.7190
vt 0.1567 0.7171
vt 0.1568 0.7171
vt 0.1568 0.7195
vt 0.1568 0.7195
vt 0.1704 0.7214
vt 0.1704 0.7190
vt 0.1565 0.7171
vt 0.1566 0.7195
vt 0.1695 0.7216
vt 0.1694 0.7216
vt 0.1688 0.7193
vt 0.1689 0.7193
vt 0.1708 0.7213
vt 0.1707 0.7189
vt 0.1673 0.7217
vt 0.1673 0.7218
vt 0.1667 0.7194
vt 0.1667 0.7194
vn -0.6879 0.7201 0.0906
vn -0.9745 0.1841 0.1283
vn -0.1570 -0.9874 0.0207
vn 0.1487 -0.9887 -0.0196
vn 0.6106 -0.7879 -0.0804
vn 0.9553 -0.2677 -0.1258
vn -0.9563 -0.2639 0.1259
vn -0.6225 -0.7783 0.0820
vn 0.9742 0.1860 -0.1282
vn 0.6382 0.7652 -0.0840
vn 0.9604 0.2484 -0.1264
vn -0.9595 0.2517 0.1263
vn -0.6263 0.7752 0.0825
vn 0.9914 0.0000 -0.1305
vn -0.9914 0.0000 0.1305
vn 0.6756 0.7319 -0.0889
usemtl Material.001
s 1
f 441/525/222 442/526/223 443/527/223 444/528/222
f 445/529/224 446/530/225 447/531/225 448/532/224
f 449/533/226 450/534/227 451/535/227 452/536/226
f 453/537/228 454/538/229 455/539/229 456/540/228
f 446/541/225 449/542/226 452/543/226 447/544/225
f 450/534/227 457/545/230 458/546/230 451/535/227
f 442/526/223 453/537/228 456/540/228 443/527/223
f 454/547/229 445/548/224 448/549/224 455/550/229
f 459/551/231 460/552/232 461/553/232 462/554/231
f 463/555/233 464/556/234 465/557/234 466/558/233
f 460/552/232 467/559/235 468/560/235 461/553/232
f 469/561/236 463/555/233 466/558/233 470/562/236
f 471/563/237 459/564/231 462/565/231 472/566/237
f 457/545/230 471/567/237 472/568/237 458/546/230
f 464/569/234 441/570/222 444/571/222 465/572/234
o Cube.011
v -12.651371 0.500002 -12.508294
v -12.390318 0.500002 -10.525404
v -13.613768 0.200002 -10.364334
v -13.874819 0.200002 -12.347224
v -10.141045 0.500002 -12.838785
v -9.879992 0.500002 -10.855896
v -8.917595 0.200002 -12.999855
v -8.656543 0.200002 -11.016966
vt 0.2985 0.9051
vt 0.5970 0.9051
vt 0.5970 1.0000
vt 0.2985 1.0000
vt 0.2985 0.7103
vt 0.5970 0.7103
vt 0.2985 0.6154
vt 0.5970 0.6154
vn 0.2342 -0.9717 -0.0308
vn 0.0000 -1.0000 -0.0000
vn -0.2342 -0.9717 0.0308
usemtl Material_blk_concrete01_dif.tga
s off
f 473/573/238 474/574/238 475/575/238 476/576/238
f 473/573/239 477/577/239 478/578/239 474/574/239
f 477/577/240 479/579/240 480/580/240 478/578/240
o Cube.014
v -14.073927 0.500003 -20.073631
v -13.641048 0.500003 -18.121038
v -14.845803 0.200003 -17.853951
v -15.278683 0.200003 -19.806543
v -11.601957 0.500003 -20.621653
v -11.169079 0.500003 -18.669060
v -10.397202 0.200003 -20.888741
v -9.964323 0.200003 -18.936150
vt 0.2985 0.9051
vt 0.5970 0.9051
vt 0.5970 1.0000
vt 0.2985 1.0000
vt 0.2985 0.7103
vt 0.5970 0.7103
vt 0.2985 0.6154
vt 0.5970 0.6154
vn 0.2306 -0.9717 -0.0511
vn -0.0000 -1.0000 -0.0000
vn -0.2306 -0.9717 0.0511
usemtl Material_blk_concrete01_dif.tga
s off
f 481/581/241 482/582/241 483/583/241 484/584/241
f 481/581/242 485/585/242 486/586/242 482/582/242
f 485/585/243 487/587/243 488/588/243 486/586/243
o Cube.013
v -15.278683 -0.499997 -19.806543
v -15.278683 0.200003 -19.806543
v -14.845803 0.200003 -17.853951
v -14.845803 -0.499997 -17.853951
v -2.586834 -0.499996 -22.620258
v -2.153955 -0.499997 -20.667665
v -2.153955 0.200003 -20.667665
v -2.586834 0.200004 -22.620258
vt 1.0000 0.3077
vt 0.8955 0.3077
vt 0.8955 0.1538
vt 1.0000 0.1538
vt 0.0000 1.0000
vt 0.0000 0.0000
vt 0.2985 0.0000
vt 0.2985 1.0000
vt 1.0000 0.1538
vt 0.8955 0.1538
vt 0.8955 0.0000
vt 1.0000 0.0000
vn 0.9763 0.0000 -0.2164
vn -0.0000 1.0000 0.0000
vn -0.9763 0.0000 0.2164
usemtl Material_blk_concrete01_dif.tga
s off
f 489/589/244 490/590/244 491/591/244 492/592/244
f 493/593/245 489/594/245 492/595/245 494/596/245
f 494/597/246 495/598/246 496/599/246 493/600/246
o Cube.036_Cube.042
v -18.566360 1.830541 -37.973125
v -18.589077 1.872467 -37.962540
v -21.328861 1.872478 -43.947731
v -21.306145 1.830552 -43.958317
v -19.087528 1.905703 -37.730099
v -19.181812 1.872467 -37.686134
v -21.921597 1.872478 -43.671326
v -21.827316 1.905713 -43.715290
v -19.204517 1.830541 -37.675549
v -19.204517 1.606321 -37.675545
v -21.944302 1.606331 -43.660736
v -21.944302 1.830552 -43.660740
v -18.566360 1.606321 -37.973125
v -21.306145 1.606331 -43.958317
v -18.683353 1.905703 -37.918575
v -21.423138 1.905713 -43.903767
v -19.049351 1.491620 -37.747902
v -19.026985 1.447084 -37.758331
v -21.766769 1.447095 -43.743523
v -21.789139 1.491630 -43.733093
v -18.743896 1.447084 -37.890343
v -18.721535 1.491620 -37.900764
v -21.461323 1.491630 -43.885956
v -21.483685 1.447095 -43.875534
v -19.026985 0.955876 -37.758335
v -21.766769 0.955887 -43.743526
v -18.743896 0.955876 -37.890343
v -21.483685 0.955887 -43.875534
v -19.180771 1.539274 -37.686623
v -21.920555 1.539284 -43.671814
v -18.590111 1.539274 -37.962051
v -21.329899 1.539284 -43.947243
vt 0.1427 0.7238
vt 0.1427 0.7238
vt 0.1427 0.7238
vt 0.1427 0.7238
vt 0.1596 0.7146
vt 0.1596 0.7146
vt 0.1596 0.7146
vt 0.1596 0.7146
vt 0.1708 0.7118
vt 0.1707 0.7118
vt 0.1707 0.7118
vt 0.1708 0.7118
vt 0.1428 0.7238
vt 0.1428 0.7238
vt 0.1593 0.7146
vt 0.1594 0.7146
vt 0.1594 0.7146
vt 0.1593 0.7146
vt 0.1705 0.7118
vt 0.1705 0.7118
vt 0.1705 0.7118
vt 0.1705 0.7118
vt 0.1568 0.7267
vt 0.1568 0.7267
vt 0.1568 0.7267
vt 0.1568 0.7267
vt 0.1703 0.7118
vt 0.1703 0.7118
vt 0.1566 0.7267
vt 0.1566 0.7267
vt 0.1682 0.7121
vt 0.1682 0.7121
vt 0.1682 0.7121
vt 0.1682 0.7121
vt 0.1707 0.7118
vt 0.1707 0.7118
vt 0.1661 0.7122
vt 0.1660 0.7122
vt 0.1660 0.7122
vt 0.1661 0.7122
vt 0.1428 0.7238
vt 0.1428 0.7238
vt 0.1143 0.6698
vt 0.1144 0.6698
vt 0.1144 0.6698
vt 0.1143 0.6698
vt 0.1708 0.7118
vt 0.1708 0.7118
vn -0.8764 -0.2664 0.4012
vn -0.5642 -0.7842 0.2583
vn -0.5660 -0.7827 0.2591
vn -0.8765 -0.2658 0.4012
vn 0.1406 -0.9880 -0.0644
vn 0.5660 -0.7826 -0.2591
vn 0.5643 -0.7841 -0.2583
vn 0.1394 -0.9882 -0.0638
vn 0.8766 -0.2657 -0.4013
vn 0.8936 0.1850 -0.4090
vn 0.8935 0.1854 -0.4090
vn 0.8764 -0.2664 -0.4012
vn -0.8935 0.1854 0.4090
vn -0.8936 0.1851 0.4090
vn -0.1394 -0.9882 0.0638
vn -0.1407 -0.9880 0.0644
vn 0.5787 0.7713 -0.2649
vn 0.8803 0.2506 -0.4029
vn 0.8804 0.2500 -0.4030
vn 0.5805 0.7697 -0.2657
vn -0.8804 0.2500 0.4030
vn -0.5805 0.7697 0.2657
vn -0.5788 0.7713 0.2649
vn -0.8803 0.2505 0.4030
vn 0.9093 0.0000 -0.4162
vn -0.9093 0.0000 0.4162
vn 0.6259 0.7253 -0.2865
vn 0.6241 0.7272 -0.2857
vn -0.6241 0.7273 0.2857
vn -0.6259 0.7254 0.2865
usemtl Material.001
s 1
f 497/601/247 498/602/248 499/603/249 500/604/250
f 501/605/251 502/606/252 503/607/253 504/608/254
f 505/609/255 506/610/256 507/611/257 508/612/258
f 509/613/259 497/601/247 500/604/250 510/614/260
f 498/615/248 511/616/261 512/617/262 499/618/249
f 513/619/263 514/620/264 515/621/265 516/622/266
f 517/623/267 518/624/268 519/625/269 520/626/270
f 514/620/264 521/627/271 522/628/271 515/621/265
f 523/629/272 517/623/267 520/626/270 524/630/272
f 525/631/273 513/632/263 516/633/266 526/634/274
f 506/610/256 525/635/273 526/636/274 507/611/257
f 518/637/268 527/638/275 528/639/276 519/640/269
f 527/641/275 509/613/259 510/614/260 528/642/276
f 511/643/261 501/644/251 504/645/254 512/646/262
f 502/647/252 505/609/255 508/612/258 503/648/253
o Cube.041_Cube.047
v -10.174143 1.539268 -0.000002
v -10.147934 1.606315 -0.000002
v -10.489848 1.606316 -7.831124
v -10.515952 1.539269 -7.828841
v -10.319149 1.491614 -0.000002
v -10.660411 1.491615 -7.816203
v -10.277012 1.905697 -0.000002
v -10.722988 1.905697 -0.000002
v -11.062711 1.905698 -7.781005
v -10.618434 1.905698 -7.819874
v -10.827013 1.872461 -0.000002
v -10.852068 1.830535 -0.000002
v -11.191297 1.830536 -7.769755
v -11.166343 1.872462 -7.771938
v -10.147934 1.830535 -0.000002
v -10.172988 1.872461 -0.000002
v -10.514802 1.872462 -7.828941
v -10.489848 1.830536 -7.831124
v -10.852068 1.606315 0.000001
v -11.191297 1.606316 -7.769753
v -10.680851 1.491614 0.000001
v -10.656177 1.447078 0.000001
v -10.996158 1.447079 -7.786826
v -11.020734 1.491615 -7.784676
v -10.343824 1.447078 -0.000002
v -10.684987 1.447079 -7.814052
v -10.656177 0.955870 -0.000002
v -10.996158 0.955871 -7.786829
v -10.343824 0.955870 -0.000002
v -10.684987 0.955871 -7.814052
v -10.825858 1.539268 0.000001
v -11.165193 1.539269 -7.772038
vt 0.1430 0.7358
vt 0.1429 0.7358
vt 0.1429 0.7334
vt 0.1429 0.7334
vt 0.1682 0.7240
vt 0.1681 0.7240
vt 0.1673 0.7218
vt 0.1673 0.7217
vt 0.1157 0.6621
vt 0.1158 0.6621
vt 0.1152 0.6636
vt 0.1151 0.6636
vt 0.1710 0.7237
vt 0.1710 0.7237
vt 0.1709 0.7213
vt 0.1709 0.7213
vt 0.1429 0.7358
vt 0.1428 0.7358
vt 0.1428 0.7334
vt 0.1428 0.7334
vt 0.1616 0.7029
vt 0.1617 0.7029
vt 0.1608 0.7051
vt 0.1608 0.7051
vt 0.1709 0.7237
vt 0.1708 0.7213
vt 0.1614 0.7028
vt 0.1615 0.7028
vt 0.1606 0.7051
vt 0.1606 0.7051
vt 0.1707 0.7237
vt 0.1707 0.7237
vt 0.1706 0.7214
vt 0.1706 0.7214
vt 0.1567 0.7148
vt 0.1567 0.7148
vt 0.1568 0.7171
vt 0.1567 0.7171
vt 0.1705 0.7237
vt 0.1704 0.7214
vt 0.1565 0.7148
vt 0.1565 0.7171
vt 0.1703 0.7239
vt 0.1703 0.7239
vt 0.1694 0.7216
vt 0.1695 0.7216
vt 0.1708 0.7237
vt 0.1708 0.7213
vn -0.6932 0.7201 0.0303
vn -0.9820 0.1841 0.0429
vn -0.6311 0.7752 0.0276
vn -0.1582 -0.9874 0.0069
vn 0.1498 -0.9887 -0.0065
vn 0.6152 -0.7879 -0.0269
vn 0.9626 -0.2677 -0.0420
vn -0.9636 -0.2639 0.0421
vn -0.6273 -0.7783 0.0274
vn 0.9816 0.1860 -0.0429
vn 0.6432 0.7652 -0.0281
vn 0.9677 0.2484 -0.0423
vn -0.9669 0.2517 0.0422
vn 0.9990 0.0000 -0.0436
vn -0.9990 0.0000 0.0436
vn 0.6807 0.7320 -0.0297
usemtl Material.001
s 1
f 529/649/277 530/650/278 531/651/278 532/652/277
f 533/653/279 529/654/277 532/655/277 534/656/279
f 535/657/280 536/658/281 537/659/281 538/660/280
f 539/661/282 540/662/283 541/663/283 542/664/282
f 543/665/284 544/666/285 545/667/285 546/668/284
f 536/669/281 539/670/282 542/671/282 537/672/281
f 540/662/283 547/673/286 548/674/286 541/663/283
f 530/650/278 543/665/284 546/668/284 531/651/278
f 544/675/285 535/676/280 538/677/280 545/678/285
f 549/679/287 550/680/288 551/681/288 552/682/287
f 553/683/289 533/684/279 534/685/279 554/686/289
f 550/680/288 555/687/290 556/688/290 551/681/288
f 557/689/291 553/683/289 554/686/289 558/690/291
f 559/691/292 549/692/287 552/693/287 560/694/292
f 547/673/286 559/695/292 560/696/292 548/674/286
o Cube.002_Cube.001
v -5.000000 0.200000 3.000000
v -3.765994 0.500000 3.000000
v -3.765994 0.499999 5.000000
v -5.000000 0.199999 5.000000
v -1.234006 0.500000 3.000000
v -1.234006 0.499999 5.000000
v 0.000000 0.200000 3.000000
v 0.000000 0.199999 5.000000
vt 0.2985 0.3846
vt 0.2985 0.2897
vt 0.5970 0.2897
vt 0.5970 0.3846
vt 0.2985 0.0949
vt 0.5970 0.0949
vt 0.2985 0.0000
vt 0.5970 0.0000
vn 0.2362 -0.9717 -0.0000
vn 0.0000 -1.0000 -0.0000
vn -0.2362 -0.9717 -0.0000
usemtl Material_blk_concrete01_dif.tga
s off
f 561/697/293 562/698/293 563/699/293 564/700/293
f 562/698/294 565/701/294 566/702/294 563/699/294
f 566/702/295 565/701/295 567/703/295 568/704/295
o Cube.012
v -13.874819 -0.499998 -12.347224
v -13.874819 0.200002 -12.347224
v -13.613768 0.200002 -10.364334
v -13.613768 -0.499998 -10.364334
v -0.986036 -0.499998 -14.044065
v -0.724984 -0.499998 -12.061174
v -0.724984 0.200002 -12.061174
v -0.986036 0.200002 -14.044065
vt 1.0000 0.3077
vt 0.8955 0.3077
vt 0.8955 0.1538
vt 1.0000 0.1538
vt 0.0000 1.0000
vt 0.0000 0.0000
vt 0.2985 0.0000
vt 0.2985 1.0000
vt 1.0000 0.1538
vt 0.8955 0.1538
vt 0.8955 0.0000
vt 1.0000 0.0000
vn 0.9914 0.0000 -0.1305
vn -0.0000 1.0000 0.0000
vn -0.9914 0.0000 0.1305
usemtl Material_blk_concrete01_dif.tga
s off
f 569/705/296 570/706/296 571/707/296 572/708/296
f 573/709/297 569/710/297 572/711/297 574/712/297
f 574/713/298 575/714/298 576/715/298 573/716/298
o Cube.034_Cube.040
v -8.049128 1.606321 -33.467377
v -8.049128 1.830541 -33.467377
v -11.315901 1.830542 -41.354073
v -11.315901 1.606322 -41.354073
v -8.073750 1.539274 -33.458420
v -11.339653 1.539275 -41.343002
v -8.549898 1.491619 -33.285107
v -8.526718 1.447083 -33.293541
v -11.776520 1.447085 -41.139275
v -11.798882 1.491621 -41.128853
v -8.170424 1.905702 -33.423229
v -8.589500 1.905702 -33.270691
v -11.837076 1.905704 -41.111038
v -11.432888 1.905704 -41.299519
v -8.233206 1.447083 -33.400379
v -8.210014 1.491619 -33.408817
v -11.471071 1.491621 -41.281712
v -11.493444 1.447085 -41.271286
v -8.687262 1.872466 -33.235107
v -8.710791 1.830540 -33.226543
v -11.954058 1.830542 -41.056488
v -11.931364 1.872468 -41.067070
v -8.526718 0.955875 -33.293545
v -11.776520 0.955877 -41.139275
v -8.072668 1.872466 -33.458809
v -11.338606 1.872468 -41.343487
v -8.686163 1.539273 -33.235512
v -11.930300 1.539275 -41.067566
v -8.233206 0.955875 -33.400379
v -11.493444 0.955877 -41.271286
v -8.710791 1.606320 -33.226547
v -11.954058 1.606322 -41.056488
vt 0.1064 0.6700
vt 0.1064 0.6700
vt 0.1064 0.6700
vt 0.1064 0.6700
vt 0.1064 0.6700
vt 0.1064 0.6700
vt 0.1063 0.6701
vt 0.1063 0.6701
vt 0.1063 0.6701
vt 0.1063 0.6701
vt 0.1064 0.6699
vt 0.1063 0.6699
vt 0.1063 0.6699
vt 0.1064 0.6699
vt 0.1064 0.6701
vt 0.1064 0.6701
vt 0.1064 0.6701
vt 0.1064 0.6701
vt 0.1062 0.6700
vt 0.1062 0.6700
vt 0.1062 0.6700
vt 0.1062 0.6700
vt 0.1063 0.6702
vt 0.1063 0.6702
vt 0.1064 0.6700
vt 0.1064 0.6700
vt 0.1062 0.6700
vt 0.1062 0.6700
vt 0.1064 0.6702
vt 0.1064 0.6702
vt 0.1062 0.6700
vt 0.1062 0.6700
vn -0.9081 0.1841 0.3761
vn -0.8911 -0.2639 0.3691
vn -0.6410 0.7201 0.2655
vn 0.5948 0.7652 -0.2464
vn 0.8949 0.2483 -0.3707
vn 0.8949 0.2484 -0.3707
vn -0.1463 -0.9874 0.0606
vn 0.1385 -0.9887 -0.0574
vn -0.8941 0.2518 0.3704
vn -0.5836 0.7752 0.2417
vn 0.5690 -0.7878 -0.2357
vn 0.8902 -0.2676 -0.3687
vn 0.9239 0.0000 -0.3827
vn -0.5801 -0.7783 0.2403
vn 0.6295 0.7320 -0.2607
vn -0.9239 0.0000 0.3827
vn 0.9078 0.1860 -0.3760
usemtl Material.001
s 1
f 577/717/299 578/718/300 579/719/300 580/720/299
f 581/721/301 577/717/299 580/720/299 582/722/301
f 583/723/302 584/724/303 585/725/304 586/726/302
f 587/727/305 588/728/306 589/729/306 590/730/305
f 591/731/307 592/732/308 593/733/308 594/734/307
f 595/735/309 596/736/310 597/737/310 598/738/309
f 584/724/303 599/739/311 600/740/311 585/725/304
f 578/718/300 601/741/312 602/742/312 579/719/300
f 603/743/313 583/723/302 586/726/302 604/744/313
f 588/728/306 595/735/309 598/738/309 589/729/306
f 605/745/314 591/731/307 594/734/307 606/746/314
f 596/736/310 607/747/315 608/748/315 597/737/310
f 592/732/308 581/721/301 582/722/301 593/733/308
f 601/741/312 587/727/305 590/730/305 602/742/312
f 607/747/315 603/743/313 604/744/313 608/748/315
o Cube.019
v -16.150433 0.500004 -27.486197
v -15.549020 0.500004 -25.578762
v -16.725912 0.200004 -25.207691
v -17.327324 0.200004 -27.115124
v -13.735632 0.500005 -28.247580
v -13.134220 0.500004 -26.340145
v -12.558739 0.200005 -28.618652
v -11.957328 0.200004 -26.711220
vt 0.2985 0.9051
vt 0.5970 0.9051
vt 0.5970 1.0000
vt 0.2985 1.0000
vt 0.2985 0.7103
vt 0.5970 0.7103
vt 0.2985 0.6154
vt 0.5970 0.6154
vn 0.2253 -0.9717 -0.0710
vn 0.0000 -1.0000 -0.0000
vn -0.2253 -0.9717 0.0710
usemtl Material_blk_concrete01_dif.tga
s off
f 609/749/316 610/750/316 611/751/316 612/752/316
f 609/749/317 613/753/317 614/754/317 610/750/317
f 613/753/318 615/755/318 616/756/318 614/754/318
