# Blender v2.78 (sub 0) OBJ File: 'RailSlopeDown10_col.blend'
# www.blender.org
mtllib RailSlopeDown10_col.mtl
o Cube.050
v 10.656177 0.955870 -4.000000
v 10.656177 0.955870 0.000000
v 10.343823 0.955870 -0.000001
v 10.343824 0.955870 -4.000000
v 10.722988 1.905697 -3.999994
v 10.722988 1.905697 0.000006
v 10.277012 1.905697 -0.000001
v 10.277012 1.905697 -4.000000
v 10.852067 1.606315 -3.999997
v 10.825857 1.539268 -3.999997
v 10.825857 1.539268 0.000003
v 10.852066 1.606315 0.000003
v 10.147933 1.606315 -0.000001
v 10.174143 1.539268 -0.000001
v 10.174143 1.539268 -4.000000
v 10.147933 1.606315 -4.000000
v 10.827013 1.872461 -3.999994
v 10.852067 1.830535 -3.999994
v 10.852066 1.830535 0.000006
v 10.827012 1.872461 0.000006
v 10.172987 1.872461 -0.000003
v 10.147933 1.830535 -0.000003
v 10.147933 1.830535 -4.000000
v 10.172987 1.872461 -4.000000
v 10.680851 1.491614 -3.999997
v 10.656177 1.447078 -3.999997
v 10.656176 1.447078 0.000003
v 10.680851 1.491614 0.000003
v 10.319149 1.491614 -0.000001
v 10.343823 1.447078 -0.000001
v 10.343824 1.447078 -4.000000
v 10.319149 1.491614 -4.000000
vt 0.1509 0.7307
vt 0.1509 0.7057
vt 0.1513 0.7057
vt 0.1513 0.7307
vt 0.1042 0.6592
vt 0.1051 0.6592
vt 0.1051 0.6842
vt 0.1042 0.6842
vt 0.1528 0.7307
vt 0.1514 0.7307
vt 0.1514 0.7057
vt 0.1528 0.7057
vt 0.1646 0.7057
vt 0.1650 0.7057
vt 0.1650 0.7307
vt 0.1646 0.7307
vt 0.1544 0.7057
vt 0.1558 0.7057
vt 0.1558 0.7307
vt 0.1544 0.7307
vt 0.1646 0.7307
vt 0.1642 0.7307
vt 0.1642 0.7057
vt 0.1646 0.7057
vt 0.1591 0.7307
vt 0.1585 0.7307
vt 0.1585 0.7057
vt 0.1591 0.7057
vt 0.1605 0.7057
vt 0.1611 0.7057
vt 0.1611 0.7307
vt 0.1605 0.7307
vt 0.1603 0.7307
vt 0.1603 0.7057
vt 0.1593 0.7057
vt 0.1593 0.7307
vt 0.1584 0.7307
vt 0.1584 0.7057
vt 0.1612 0.7057
vt 0.1612 0.7307
vt 0.1499 0.7057
vt 0.1499 0.7307
vt 0.1495 0.7307
vt 0.1495 0.7057
vt 0.1513 0.7307
vt 0.1513 0.7057
vt 0.1559 0.7057
vt 0.1559 0.7307
vn -0.1540 0.9881 0.0000
vn -0.6215 0.7834 0.0000
vn 0.1540 0.9881 0.0000
vn 1.0000 0.0000 0.0000
vn 0.9682 -0.2503 0.0000
vn -0.6374 -0.7705 -0.0000
vn -0.6873 -0.7263 0.0000
vn -1.0000 0.0000 -0.0000
vn -0.9682 -0.2503 -0.0000
vn 0.6374 -0.7705 0.0000
vn 0.6874 -0.7263 0.0000
vn 0.9827 -0.1852 0.0000
vn 0.9640 0.2661 0.0000
vn -0.9827 -0.1852 0.0000
vn -0.9640 0.2661 0.0000
vn 0.6215 0.7834 0.0000
usemtl Material
s 1
f 7/1/1 8/2/1 24/3/2 21/4/2
f 5/5/3 8/6/1 7/7/1 6/8/3
f 1/9/4 26/10/5 27/11/5 2/12/4
f 29/13/6 14/14/7 15/15/7 32/16/6
f 3/17/8 30/18/9 31/19/9 4/20/8
f 25/21/10 10/22/11 11/23/11 28/24/10
f 9/25/12 18/26/13 19/27/13 12/28/12
f 13/29/14 22/30/15 23/31/15 16/32/14
f 13/29/14 16/32/14 15/33/7 14/34/7
f 9/25/12 12/28/12 11/35/11 10/36/11
f 19/27/13 18/26/13 17/37/16 20/38/16
f 23/31/15 22/30/15 21/39/2 24/40/2
f 5/41/3 6/42/3 20/43/16 17/44/16
f 25/45/10 28/46/10 27/11/5 26/10/5
f 29/47/6 32/48/6 31/19/9 30/18/9
o Cube.049
v 10.656177 0.955870 -4.000000
v 10.343824 0.955870 -4.000000
v 10.722988 1.905697 -3.999994
v 10.277012 1.905697 -4.000000
v 10.852067 1.606315 -3.999997
v 10.825857 1.539268 -3.999997
v 10.174143 1.539268 -4.000000
v 10.147933 1.606315 -4.000000
v 10.827013 1.872461 -3.999994
v 10.852067 1.830535 -3.999994
v 10.147933 1.830535 -4.000000
v 10.172987 1.872461 -4.000000
v 10.680851 1.491614 -3.999997
v 10.656177 1.447078 -3.999997
v 10.343824 1.447078 -4.000000
v 10.319149 1.491614 -4.000000
v 10.319149 1.388286 -11.892130
v 10.343824 1.343791 -11.890965
v 10.656177 1.343791 -11.890962
v 10.680851 1.388286 -11.892127
v 10.172987 1.769008 -11.902100
v 10.147933 1.727100 -11.901002
v 10.852067 1.727100 -11.900996
v 10.827013 1.769008 -11.902094
v 10.147933 1.502956 -11.895133
v 10.174143 1.435916 -11.893377
v 10.825857 1.435916 -11.893374
v 10.852067 1.502956 -11.895130
v 10.277012 1.802242 -11.902970
v 10.722988 1.802242 -11.902965
v 10.343824 0.852725 -11.878106
v 10.656177 0.852725 -11.878106
vt 0.1605 0.7307
vt 0.1611 0.7307
vt 0.1611 0.7307
vt 0.1605 0.7307
vt 0.1544 0.7307
vt 0.1558 0.7307
vt 0.1558 0.7307
vt 0.1544 0.7307
vt 0.1051 0.6592
vt 0.1042 0.6592
vt 0.1042 0.6592
vt 0.1051 0.6592
vt 0.1514 0.7307
vt 0.1528 0.7307
vt 0.1528 0.7307
vt 0.1514 0.7307
vt 0.1585 0.7307
vt 0.1591 0.7307
vt 0.1591 0.7307
vt 0.1585 0.7307
vt 0.1499 0.7057
vt 0.1495 0.7057
vt 0.1495 0.7057
vt 0.1499 0.7057
vt 0.1559 0.7307
vt 0.1559 0.7307
vt 0.1603 0.7307
vt 0.1603 0.7307
vt 0.1612 0.7307
vt 0.1612 0.7307
vt 0.1513 0.7307
vt 0.1513 0.7307
vt 0.1584 0.7307
vt 0.1584 0.7307
vt 0.1593 0.7307
vt 0.1593 0.7307
vt 0.1646 0.7307
vt 0.1650 0.7307
vt 0.1650 0.7307
vt 0.1646 0.7307
vt 0.1642 0.7307
vt 0.1646 0.7307
vt 0.1646 0.7307
vt 0.1642 0.7307
vt 0.1513 0.7057
vt 0.1509 0.7057
vt 0.1509 0.7057
vt 0.1513 0.7057
vn -0.9830 -0.1837 0.0024
vn -0.9634 0.2681 -0.0035
vn -1.0000 -0.0000 0.0000
vn -0.9676 -0.2523 0.0033
vn -0.1538 0.9880 -0.0129
vn 0.1538 0.9880 -0.0129
vn 0.9676 -0.2523 0.0033
vn 1.0000 -0.0000 0.0000
vn 0.9634 0.2681 -0.0035
vn 0.9830 -0.1837 0.0024
vn 0.6201 0.7845 -0.0103
vn -0.6359 -0.7717 0.0101
vn -0.6891 -0.7246 0.0095
vn -0.6201 0.7845 -0.0103
vn 0.6359 -0.7717 0.0101
vn 0.6891 -0.7246 0.0095
usemtl Material
s 1
f 40/49/17 43/50/18 54/51/18 57/52/17
f 34/53/19 47/54/20 50/55/20 63/56/19
f 36/57/21 35/58/22 62/59/22 61/60/21
f 46/61/23 33/62/24 64/63/24 51/64/23
f 42/65/25 37/66/26 60/67/26 55/68/25
f 35/69/22 41/70/27 56/71/27 62/72/22
f 47/54/20 48/73/28 49/74/28 50/55/20
f 39/75/29 40/49/17 57/52/17 58/76/29
f 43/50/18 44/77/30 53/78/30 54/51/18
f 45/79/31 46/61/23 51/64/23 52/80/31
f 41/81/27 42/65/25 55/68/25 56/82/27
f 37/66/26 38/83/32 59/84/32 60/67/26
f 48/85/28 39/86/29 58/87/29 49/88/28
f 38/89/32 45/90/31 52/91/31 59/92/32
f 44/93/30 36/94/21 61/95/21 53/96/30
o Cube.048
v 10.656177 0.543390 -19.750814
v 10.343824 0.543390 -19.750814
v 10.722988 1.491945 -19.800518
v 10.277012 1.491945 -19.800524
v 10.852067 1.192979 -19.784853
v 10.825857 1.126009 -19.781342
v 10.174143 1.126009 -19.781345
v 10.147933 1.192979 -19.784855
v 10.827013 1.458757 -19.798779
v 10.852067 1.416872 -19.796585
v 10.147933 1.416872 -19.796591
v 10.172987 1.458757 -19.798784
v 10.680851 1.078401 -19.778849
v 10.656177 1.033975 -19.776520
v 10.343824 1.033975 -19.776522
v 10.319149 1.078401 -19.778852
v 10.319149 1.388286 -11.892130
v 10.343824 1.343791 -11.890965
v 10.656177 1.343791 -11.890962
v 10.680851 1.388286 -11.892127
v 10.172987 1.769008 -11.902100
v 10.147933 1.727100 -11.901002
v 10.852067 1.727100 -11.900996
v 10.827013 1.769008 -11.902094
v 10.147933 1.502956 -11.895133
v 10.174143 1.435916 -11.893377
v 10.825857 1.435916 -11.893374
v 10.852067 1.502956 -11.895130
v 10.277012 1.802242 -11.902970
v 10.722988 1.802242 -11.902965
v 10.343824 0.852725 -11.878106
v 10.656177 0.852725 -11.878106
vt 0.1584 0.7307
vt 0.1585 0.7307
vt 0.1585 0.7307
vt 0.1584 0.7307
vt 0.1611 0.7307
vt 0.1612 0.7307
vt 0.1612 0.7307
vt 0.1611 0.7307
vt 0.1499 0.7057
vt 0.1495 0.7057
vt 0.1495 0.7057
vt 0.1499 0.7057
vt 0.1591 0.7307
vt 0.1591 0.7307
vt 0.1605 0.7307
vt 0.1605 0.7307
vt 0.1513 0.7057
vt 0.1509 0.7057
vt 0.1509 0.7057
vt 0.1513 0.7057
vt 0.1513 0.7307
vt 0.1514 0.7307
vt 0.1514 0.7307
vt 0.1513 0.7307
vt 0.1558 0.7307
vt 0.1559 0.7307
vt 0.1559 0.7307
vt 0.1558 0.7307
vt 0.1528 0.7307
vt 0.1528 0.7307
vt 0.1544 0.7307
vt 0.1544 0.7307
vt 0.1642 0.7307
vt 0.1646 0.7307
vt 0.1646 0.7307
vt 0.1642 0.7307
vt 0.1593 0.7307
vt 0.1593 0.7307
vt 0.1646 0.7307
vt 0.1650 0.7307
vt 0.1650 0.7307
vt 0.1646 0.7307
vt 0.1603 0.7307
vt 0.1603 0.7307
vt 0.1051 0.6592
vt 0.1042 0.6592
vt 0.1042 0.6592
vt 0.1051 0.6592
vn 0.6201 0.7839 -0.0308
vn 0.9634 0.2679 -0.0105
vn -0.9634 0.2679 -0.0105
vn -0.6201 0.7839 -0.0308
vn 0.1538 0.9873 -0.0388
vn 0.9830 -0.1836 0.0072
vn -0.9830 -0.1836 0.0072
vn -0.1538 0.9873 -0.0388
vn 0.6358 -0.7713 0.0303
vn 0.9676 -0.2522 0.0099
vn -0.9676 -0.2522 0.0099
vn -0.6358 -0.7713 0.0303
vn 1.0000 -0.0000 0.0000
vn -1.0000 -0.0000 0.0000
vn 0.6891 -0.7241 0.0284
vn -0.6891 -0.7241 0.0284
usemtl Material
s 1
f 88/97/33 87/98/34 74/99/34 73/100/33
f 86/101/35 85/102/36 76/103/36 75/104/35
f 94/105/37 88/106/33 73/107/33 67/108/37
f 87/98/34 92/109/38 69/110/38 74/99/34
f 89/111/39 86/101/35 75/104/35 72/112/39
f 85/113/36 93/114/40 68/115/40 76/116/36
f 84/117/41 83/118/42 78/119/42 77/120/41
f 82/121/43 81/122/44 80/123/44 79/124/43
f 83/118/42 96/125/45 65/126/45 78/119/42
f 95/127/46 82/121/43 79/124/43 66/128/46
f 91/129/47 84/130/41 77/131/41 70/132/47
f 92/109/38 91/133/47 70/134/47 69/110/38
f 81/135/44 90/136/48 71/137/48 80/138/44
f 90/139/48 89/111/39 72/112/39 71/140/48
f 93/141/40 94/142/37 67/143/37 68/144/40
o Cube.047
v 10.319149 0.562185 -27.654758
v 10.343824 0.517828 -27.651264
v 10.656177 0.517828 -27.651262
v 10.680851 0.562185 -27.654755
v 10.172987 0.941900 -27.684641
v 10.147933 0.900083 -27.681351
v 10.852067 0.900083 -27.681345
v 10.827013 0.941900 -27.684635
v 10.147933 0.676580 -27.663759
v 10.174143 0.609724 -27.658497
v 10.825857 0.609724 -27.658493
v 10.852067 0.676580 -27.663757
v 10.277012 0.975042 -27.687248
v 10.722988 0.975042 -27.687243
v 10.343824 0.028089 -27.612724
v 10.656177 0.028089 -27.612724
v 10.656177 0.543390 -19.750814
v 10.343824 0.543390 -19.750814
v 10.722988 1.491945 -19.800518
v 10.277012 1.491945 -19.800524
v 10.852067 1.192979 -19.784853
v 10.825857 1.126009 -19.781342
v 10.174143 1.126009 -19.781345
v 10.147933 1.192979 -19.784855
v 10.827013 1.458757 -19.798779
v 10.852067 1.416872 -19.796585
v 10.147933 1.416872 -19.796591
v 10.172987 1.458757 -19.798784
v 10.680851 1.078401 -19.778849
v 10.656177 1.033975 -19.776520
v 10.343824 1.033975 -19.776522
v 10.319149 1.078401 -19.778852
vt 0.1642 0.7307
vt 0.1646 0.7307
vt 0.1646 0.7307
vt 0.1642 0.7307
vt 0.1544 0.7307
vt 0.1558 0.7307
vt 0.1558 0.7307
vt 0.1544 0.7307
vt 0.1514 0.7307
vt 0.1528 0.7307
vt 0.1528 0.7307
vt 0.1514 0.7307
vt 0.1559 0.7307
vt 0.1559 0.7307
vt 0.1513 0.7307
vt 0.1513 0.7307
vt 0.1513 0.7057
vt 0.1509 0.7057
vt 0.1509 0.7057
vt 0.1513 0.7057
vt 0.1605 0.7307
vt 0.1611 0.7307
vt 0.1611 0.7307
vt 0.1605 0.7307
vt 0.1585 0.7307
vt 0.1591 0.7307
vt 0.1591 0.7307
vt 0.1585 0.7307
vt 0.1499 0.7057
vt 0.1495 0.7057
vt 0.1495 0.7057
vt 0.1499 0.7057
vt 0.1612 0.7307
vt 0.1612 0.7307
vt 0.1584 0.7307
vt 0.1584 0.7307
vt 0.1051 0.6592
vt 0.1042 0.6592
vt 0.1042 0.6592
vt 0.1051 0.6592
vt 0.1603 0.7307
vt 0.1603 0.7307
vt 0.1646 0.7307
vt 0.1650 0.7307
vt 0.1650 0.7307
vt 0.1646 0.7307
vt 0.1593 0.7307
vt 0.1593 0.7307
vn 0.6892 -0.7230 0.0474
vn 0.6358 -0.7702 0.0505
vn -1.0000 0.0000 0.0000
vn -0.9676 -0.2519 0.0165
vn 0.9676 -0.2519 0.0165
vn 1.0000 0.0000 0.0000
vn -0.6358 -0.7702 0.0505
vn -0.6202 0.7828 -0.0513
vn -0.1538 0.9860 -0.0646
vn -0.9830 -0.1833 0.0120
vn -0.9634 0.2675 -0.0175
vn 0.9634 0.2675 -0.0175
vn 0.9830 -0.1833 0.0120
vn 0.1538 0.9860 -0.0646
vn 0.6202 0.7828 -0.0513
vn -0.6892 -0.7230 0.0474
usemtl Material
s 1
f 118/145/49 125/146/50 100/147/50 107/148/49
f 114/149/51 127/150/52 98/151/52 111/152/51
f 126/153/53 113/154/54 112/155/54 99/156/53
f 127/150/52 128/157/55 97/158/55 98/151/52
f 125/159/50 126/153/53 99/156/53 100/160/50
f 124/161/56 116/162/57 109/163/57 101/164/56
f 120/165/58 123/166/59 102/167/59 105/168/58
f 122/169/60 117/170/61 108/171/61 103/172/60
f 115/173/62 121/174/63 104/175/63 110/176/62
f 123/166/59 124/177/56 101/178/56 102/167/59
f 121/179/63 122/169/60 103/172/60 104/180/63
f 116/181/57 115/182/62 110/183/62 109/184/57
f 119/185/64 120/165/58 105/168/58 106/186/64
f 128/187/55 119/188/64 106/189/64 97/190/55
f 117/170/61 118/191/49 107/192/49 108/171/61
o Cube.046
v 10.656177 -0.692814 -35.458458
v 10.343824 -0.692814 -35.458458
v 10.722988 0.251850 -35.557732
v 10.277012 0.251850 -35.557739
v 10.852067 -0.045903 -35.526443
v 10.825857 -0.112599 -35.519432
v 10.174143 -0.112599 -35.519436
v 10.147933 -0.045903 -35.526447
v 10.827013 0.218799 -35.554260
v 10.852067 0.177074 -35.549877
v 10.147933 0.177074 -35.549881
v 10.172987 0.218799 -35.554268
v 10.680851 -0.160000 -35.514450
v 10.656177 -0.204266 -35.509800
v 10.343824 -0.204266 -35.509804
v 10.319149 -0.160000 -35.514454
v 10.319149 0.562185 -27.654758
v 10.343824 0.517828 -27.651264
v 10.656177 0.517828 -27.651262
v 10.680851 0.562185 -27.654755
v 10.172987 0.941900 -27.684641
v 10.147933 0.900083 -27.681351
v 10.852067 0.900083 -27.681345
v 10.827013 0.941900 -27.684635
v 10.147933 0.676580 -27.663759
v 10.174143 0.609724 -27.658497
v 10.825857 0.609724 -27.658493
v 10.852067 0.676580 -27.663757
v 10.277012 0.975042 -27.687248
v 10.722988 0.975042 -27.687243
v 10.343824 0.028089 -27.612724
v 10.656177 0.028089 -27.612724
vt 0.1051 0.6592
vt 0.1042 0.6592
vt 0.1042 0.6592
vt 0.1051 0.6592
vt 0.1584 0.7307
vt 0.1585 0.7307
vt 0.1585 0.7307
vt 0.1584 0.7307
vt 0.1611 0.7307
vt 0.1612 0.7307
vt 0.1612 0.7307
vt 0.1611 0.7307
vt 0.1499 0.7057
vt 0.1495 0.7057
vt 0.1495 0.7057
vt 0.1499 0.7057
vt 0.1591 0.7307
vt 0.1591 0.7307
vt 0.1605 0.7307
vt 0.1605 0.7307
vt 0.1513 0.7057
vt 0.1509 0.7057
vt 0.1509 0.7057
vt 0.1513 0.7057
vt 0.1513 0.7307
vt 0.1514 0.7307
vt 0.1514 0.7307
vt 0.1513 0.7307
vt 0.1558 0.7307
vt 0.1559 0.7307
vt 0.1559 0.7307
vt 0.1558 0.7307
vt 0.1528 0.7307
vt 0.1528 0.7307
vt 0.1544 0.7307
vt 0.1544 0.7307
vt 0.1642 0.7307
vt 0.1646 0.7307
vt 0.1646 0.7307
vt 0.1642 0.7307
vt 0.1593 0.7307
vt 0.1593 0.7307
vt 0.1646 0.7307
vt 0.1650 0.7307
vt 0.1650 0.7307
vt 0.1646 0.7307
vt 0.1603 0.7307
vt 0.1603 0.7307
vn -0.1538 0.9840 -0.0904
vn 0.1538 0.9840 -0.0904
vn 0.6202 0.7812 -0.0718
vn 0.9634 0.2669 -0.0245
vn -0.9634 0.2669 -0.0245
vn -0.6202 0.7812 -0.0718
vn 0.9830 -0.1830 0.0168
vn -0.9830 -0.1830 0.0168
vn 0.6359 -0.7686 0.0706
vn 0.9676 -0.2514 0.0231
vn 0.9676 -0.2513 0.0231
vn -0.9676 -0.2513 0.0231
vn -0.6359 -0.7686 0.0706
vn -0.9676 -0.2514 0.0231
vn 1.0000 -0.0000 0.0000
vn -1.0000 0.0000 0.0000
vn 0.6892 -0.7216 0.0663
vn -0.6892 -0.7216 0.0663
usemtl Material
s 1
f 157/193/65 158/194/66 131/195/66 132/196/65
f 152/197/67 151/198/68 138/199/68 137/200/67
f 150/201/69 149/202/70 140/203/70 139/204/69
f 158/205/66 152/206/67 137/207/67 131/208/66
f 151/198/68 156/209/71 133/210/71 138/199/68
f 153/211/72 150/201/69 139/204/69 136/212/72
f 149/213/70 157/214/65 132/215/65 140/216/70
f 148/217/73 147/218/74 142/219/75 141/220/73
f 146/221/76 145/222/77 144/223/77 143/224/78
f 147/218/74 160/225/79 129/226/79 142/219/75
f 159/227/80 146/221/76 143/224/78 130/228/80
f 155/229/81 148/230/73 141/231/73 134/232/81
f 156/209/71 155/233/81 134/234/81 133/210/71
f 145/235/77 154/236/82 135/237/82 144/238/77
f 154/239/82 153/211/72 136/212/72 135/240/82
o Cube.045
v 10.319149 -1.087690 -43.352551
v 10.343824 -1.131841 -43.346741
v 10.656177 -1.131841 -43.346741
v 10.680851 -1.087690 -43.352547
v 10.172987 -0.710081 -43.402267
v 10.147933 -0.751668 -43.396790
v 10.852067 -0.751668 -43.396786
v 10.827013 -0.710081 -43.402260
v 10.147933 -0.973958 -43.367527
v 10.174143 -1.040449 -43.358772
v 10.825857 -1.040449 -43.358768
v 10.852067 -0.973958 -43.367523
v 10.277012 -0.677122 -43.406605
v 10.722988 -0.677122 -43.406597
v 10.343824 -1.618856 -43.282623
v 10.656177 -1.618856 -43.282623
v 10.656177 -0.692814 -35.458458
v 10.343824 -0.692814 -35.458458
v 10.722988 0.251850 -35.557732
v 10.277012 0.251850 -35.557739
v 10.852067 -0.045903 -35.526443
v 10.825857 -0.112599 -35.519432
v 10.174143 -0.112599 -35.519436
v 10.147933 -0.045903 -35.526447
v 10.827013 0.218799 -35.554260
v 10.852067 0.177074 -35.549877
v 10.147933 0.177074 -35.549881
v 10.172987 0.218799 -35.554268
v 10.680851 -0.160000 -35.514450
v 10.656177 -0.204266 -35.509800
v 10.343824 -0.204266 -35.509804
v 10.319149 -0.160000 -35.514454
vt 0.1603 0.7307
vt 0.1605 0.7307
vt 0.1605 0.7307
vt 0.1603 0.7307
vt 0.1646 0.7307
vt 0.1650 0.7307
vt 0.1650 0.7307
vt 0.1646 0.7307
vt 0.1591 0.7307
vt 0.1593 0.7307
vt 0.1593 0.7307
vt 0.1591 0.7307
vt 0.1642 0.7307
vt 0.1646 0.7307
vt 0.1646 0.7307
vt 0.1642 0.7307
vt 0.1544 0.7307
vt 0.1558 0.7307
vt 0.1558 0.7307
vt 0.1544 0.7307
vt 0.1514 0.7307
vt 0.1528 0.7307
vt 0.1528 0.7307
vt 0.1514 0.7307
vt 0.1559 0.7307
vt 0.1559 0.7307
vt 0.1513 0.7307
vt 0.1513 0.7307
vt 0.1513 0.7057
vt 0.1509 0.7057
vt 0.1509 0.7057
vt 0.1513 0.7057
vt 0.1611 0.7307
vt 0.1611 0.7307
vt 0.1585 0.7307
vt 0.1585 0.7307
vt 0.1499 0.7057
vt 0.1495 0.7057
vt 0.1495 0.7057
vt 0.1499 0.7057
vt 0.1612 0.7307
vt 0.1612 0.7307
vt 0.1584 0.7307
vt 0.1584 0.7307
vt 0.1051 0.6592
vt 0.1042 0.6592
vt 0.1042 0.6592
vt 0.1051 0.6592
vn -0.6891 -0.7196 0.0852
vn -0.9830 -0.1825 0.0216
vn -0.6359 -0.7664 0.0907
vn 0.9830 -0.1825 0.0216
vn 0.6891 -0.7196 0.0852
vn 0.6359 -0.7664 0.0907
vn -1.0000 -0.0000 0.0000
vn -0.9676 -0.2506 0.0297
vn 0.9676 -0.2506 0.0297
vn 1.0000 -0.0000 0.0000
vn -0.6202 0.7790 -0.0922
vn -0.1538 0.9813 -0.1161
vn -0.9634 0.2662 -0.0315
vn 0.9634 0.2662 -0.0315
vn 0.1538 0.9813 -0.1161
vn 0.6202 0.7790 -0.0922
usemtl Material
s 1
f 183/241/83 184/242/84 169/243/84 170/244/83
f 192/245/85 183/246/83 170/247/83 161/248/85
f 181/249/86 182/250/87 171/251/87 172/252/86
f 182/253/87 189/254/88 164/255/88 171/256/87
f 178/257/89 191/258/90 162/259/90 175/260/89
f 190/261/91 177/262/92 176/263/92 163/264/91
f 191/258/90 192/265/85 161/266/85 162/259/90
f 189/267/88 190/261/91 163/264/91 164/268/88
f 188/269/93 180/270/94 173/271/94 165/272/93
f 184/242/84 187/273/95 166/274/95 169/243/84
f 186/275/96 181/249/86 172/252/86 167/276/96
f 179/277/97 185/278/98 168/279/98 174/280/97
f 187/273/95 188/281/93 165/282/93 166/274/95
f 185/283/98 186/275/96 167/276/96 168/284/98
f 180/285/94 179/286/97 174/287/97 173/288/94
o Cube.044
v 10.656177 -2.749395 -51.079872
v 10.343824 -2.749395 -51.079872
v 10.722988 -1.811231 -51.228455
v 10.277012 -1.811231 -51.228462
v 10.852067 -2.106969 -51.181625
v 10.825857 -2.173208 -51.171131
v 10.174143 -2.173208 -51.171135
v 10.147933 -2.106969 -51.181629
v 10.827013 -1.844076 -51.223259
v 10.852067 -1.885503 -51.216694
v 10.147933 -1.885503 -51.216698
v 10.172987 -1.844076 -51.223267
v 10.680851 -2.220243 -51.163681
v 10.656177 -2.264234 -51.156715
v 10.343824 -2.264234 -51.156719
v 10.319149 -2.220243 -51.163681
v 10.319149 -1.087690 -43.352551
v 10.343824 -1.131841 -43.346741
v 10.656177 -1.131841 -43.346741
v 10.680851 -1.087690 -43.352547
v 10.172987 -0.710081 -43.402267
v 10.147933 -0.751668 -43.396790
v 10.852067 -0.751668 -43.396786
v 10.827013 -0.710081 -43.402260
v 10.147933 -0.973958 -43.367527
v 10.174143 -1.040449 -43.358772
v 10.825857 -1.040449 -43.358768
v 10.852067 -0.973958 -43.367523
v 10.277012 -0.677122 -43.406605
v 10.722988 -0.677122 -43.406597
v 10.343824 -1.618856 -43.282623
v 10.656177 -1.618856 -43.282623
vt 0.1646 0.7307
vt 0.1650 0.7307
vt 0.1650 0.7307
vt 0.1646 0.7307
vt 0.1603 0.7307
vt 0.1605 0.7307
vt 0.1605 0.7307
vt 0.1603 0.7307
vt 0.1051 0.6592
vt 0.1042 0.6592
vt 0.1042 0.6592
vt 0.1051 0.6592
vt 0.1584 0.7307
vt 0.1585 0.7307
vt 0.1585 0.7307
vt 0.1584 0.7307
vt 0.1611 0.7307
vt 0.1612 0.7307
vt 0.1612 0.7307
vt 0.1611 0.7307
vt 0.1499 0.7057
vt 0.1495 0.7057
vt 0.1495 0.7057
vt 0.1499 0.7057
vt 0.1591 0.7307
vt 0.1591 0.7307
vt 0.1513 0.7057
vt 0.1509 0.7057
vt 0.1509 0.7057
vt 0.1513 0.7057
vt 0.1513 0.7307
vt 0.1514 0.7307
vt 0.1514 0.7307
vt 0.1513 0.7307
vt 0.1558 0.7307
vt 0.1559 0.7307
vt 0.1559 0.7307
vt 0.1558 0.7307
vt 0.1528 0.7307
vt 0.1528 0.7307
vt 0.1544 0.7307
vt 0.1544 0.7307
vt 0.1642 0.7307
vt 0.1646 0.7307
vt 0.1646 0.7307
vt 0.1642 0.7307
vt 0.1593 0.7307
vt 0.1593 0.7307
vn -0.6359 -0.7638 0.1107
vn -0.6891 -0.7172 0.1040
vn -0.9830 -0.1818 0.0264
vn -0.1539 0.9779 -0.1418
vn 0.1539 0.9779 -0.1418
vn 0.6202 0.7763 -0.1126
vn 0.9634 0.2653 -0.0385
vn -0.9634 0.2653 -0.0385
vn -0.6202 0.7763 -0.1126
vn 0.9830 -0.1818 0.0264
vn 0.6359 -0.7638 0.1107
vn 0.9677 -0.2497 0.0362
vn 0.9677 -0.2496 0.0362
vn -0.9677 -0.2497 0.0362
vn 1.0000 -0.0000 0.0000
vn -1.0000 -0.0000 0.0000
vn 0.6891 -0.7172 0.1040
usemtl Material
s 1
f 209/289/99 218/290/100 199/291/100 208/292/99
f 218/293/100 217/294/101 200/295/101 199/296/100
f 221/297/102 222/298/103 195/299/103 196/300/102
f 216/301/104 215/302/105 202/303/105 201/304/104
f 214/305/106 213/306/107 204/307/107 203/308/106
f 222/309/103 216/310/104 201/311/104 195/312/103
f 215/302/105 220/313/108 197/314/108 202/303/105
f 217/294/101 214/305/106 203/308/106 200/295/101
f 213/315/107 221/316/102 196/317/102 204/318/107
f 212/319/109 211/320/110 206/321/111 205/322/109
f 210/323/112 209/324/99 208/325/99 207/326/112
f 211/320/110 224/327/113 193/328/113 206/321/111
f 223/329/114 210/323/112 207/326/112 194/330/114
f 219/331/115 212/332/109 205/333/109 198/334/115
f 220/313/108 219/335/115 198/336/115 197/314/108
o Cube.043
v 10.319149 -3.548534 -58.957481
v 10.343824 -3.592319 -58.949371
v 10.656177 -3.592319 -58.949368
v 10.680851 -3.548534 -58.957478
v 10.172987 -3.174060 -59.026894
v 10.147933 -3.215282 -59.019245
v 10.852067 -3.215282 -59.019241
v 10.827013 -3.174060 -59.026886
v 10.147933 -3.435764 -58.978390
v 10.174143 -3.501704 -58.966164
v 10.825857 -3.501704 -58.966164
v 10.852067 -3.435764 -58.978386
v 10.277012 -3.141353 -59.032944
v 10.722988 -3.141353 -59.032936
v 10.343824 -4.075305 -58.859852
v 10.656177 -4.075305 -58.859852
v 10.656177 -2.749395 -51.079872
v 10.343824 -2.749395 -51.079872
v 10.722988 -1.811231 -51.228455
v 10.277012 -1.811231 -51.228462
v 10.852067 -2.106969 -51.181625
v 10.825857 -2.173208 -51.171131
v 10.174143 -2.173208 -51.171135
v 10.147933 -2.106969 -51.181629
v 10.827013 -1.844076 -51.223259
v 10.852067 -1.885503 -51.216694
v 10.147933 -1.885503 -51.216698
v 10.172987 -1.844076 -51.223267
v 10.680851 -2.220243 -51.163681
v 10.656177 -2.264234 -51.156715
v 10.343824 -2.264234 -51.156719
v 10.319149 -2.220243 -51.163681
vt 0.1051 0.6592
vt 0.1042 0.6592
vt 0.1042 0.6592
vt 0.1051 0.6592
vt 0.1603 0.7307
vt 0.1605 0.7307
vt 0.1605 0.7307
vt 0.1603 0.7307
vt 0.1646 0.7307
vt 0.1650 0.7307
vt 0.1650 0.7307
vt 0.1646 0.7307
vt 0.1591 0.7307
vt 0.1593 0.7307
vt 0.1593 0.7307
vt 0.1591 0.7307
vt 0.1642 0.7307
vt 0.1646 0.7307
vt 0.1646 0.7307
vt 0.1642 0.7307
vt 0.1544 0.7307
vt 0.1558 0.7307
vt 0.1558 0.7307
vt 0.1544 0.7307
vt 0.1514 0.7307
vt 0.1528 0.7307
vt 0.1528 0.7307
vt 0.1514 0.7307
vt 0.1559 0.7307
vt 0.1559 0.7307
vt 0.1513 0.7307
vt 0.1513 0.7307
vt 0.1513 0.7057
vt 0.1509 0.7057
vt 0.1509 0.7057
vt 0.1513 0.7057
vt 0.1611 0.7307
vt 0.1611 0.7307
vt 0.1585 0.7307
vt 0.1585 0.7307
vt 0.1499 0.7057
vt 0.1495 0.7057
vt 0.1495 0.7057
vt 0.1499 0.7057
vt 0.1612 0.7307
vt 0.1612 0.7307
vt 0.1584 0.7307
vt 0.1584 0.7307
vn -0.1539 0.9740 -0.1660
vn 0.1539 0.9740 -0.1660
vn -0.6889 -0.7146 0.1218
vn -0.9829 -0.1813 0.0309
vn -0.9830 -0.1810 0.0308
vn -0.6893 -0.7142 0.1217
vn -0.6360 -0.7607 0.1296
vn -0.6357 -0.7610 0.1297
vn 0.9829 -0.1813 0.0309
vn 0.6889 -0.7146 0.1218
vn 0.6892 -0.7142 0.1217
vn 0.9830 -0.1810 0.0308
vn 0.6360 -0.7607 0.1296
vn 0.6357 -0.7610 0.1297
vn -1.0000 -0.0000 0.0000
vn -0.9677 -0.2485 0.0423
vn -0.9676 -0.2489 0.0424
vn 0.9677 -0.2485 0.0423
vn 1.0000 -0.0000 0.0000
vn 0.9676 -0.2489 0.0424
vn -0.6203 0.7732 -0.1318
vn -0.6200 0.7734 -0.1318
vn -0.9635 0.2641 -0.0450
vn -0.9633 0.2645 -0.0451
vn 0.9635 0.2641 -0.0450
vn 0.9633 0.2645 -0.0451
vn 0.6203 0.7732 -0.1318
vn 0.6200 0.7734 -0.1318
usemtl Material
s 1
f 244/337/116 243/338/117 238/339/117 237/340/116
f 247/341/118 248/342/119 233/343/120 234/344/121
f 256/345/122 247/346/118 234/347/121 225/348/123
f 245/349/124 246/350/125 235/351/126 236/352/127
f 246/353/125 253/354/128 228/355/129 235/356/126
f 242/357/130 255/358/131 226/359/132 239/360/130
f 254/361/133 241/362/134 240/363/134 227/364/135
f 255/358/131 256/365/122 225/366/123 226/359/132
f 253/367/128 254/361/133 227/364/135 228/368/129
f 252/369/136 244/370/116 237/371/116 229/372/137
f 248/342/119 251/373/138 230/374/139 233/343/120
f 250/375/140 245/349/124 236/352/127 231/376/141
f 243/377/117 249/378/142 232/379/143 238/380/117
f 251/373/138 252/381/136 229/382/137 230/374/139
f 249/383/142 250/375/140 231/376/141 232/384/143
o Cube.042
v 10.825880 -4.486567 -64.280510
v 10.174167 -4.486567 -64.280510
v 10.147957 -4.420627 -64.292740
v 10.827036 -4.158923 -64.341232
v 10.852091 -4.200145 -64.333588
v 10.147957 -4.200145 -64.333595
v 10.173011 -4.158923 -64.341240
v 10.680875 -4.533397 -64.271820
v 10.656200 -4.577182 -64.263718
v 10.343847 -4.577182 -64.263718
v 10.319172 -4.533397 -64.271828
v 10.319149 -3.548534 -58.957481
v 10.343824 -3.592319 -58.949371
v 10.656177 -3.592319 -58.949368
v 10.680851 -3.548534 -58.957478
v 10.172987 -3.174060 -59.026894
v 10.147933 -3.215282 -59.019245
v 10.852067 -3.215282 -59.019241
v 10.827013 -3.174060 -59.026886
v 10.147933 -3.435764 -58.978390
v 10.174143 -3.501704 -58.966164
v 10.825857 -3.501704 -58.966164
v 10.852067 -3.435764 -58.978386
v 10.277012 -3.141353 -59.032944
v 10.722988 -3.141353 -59.032936
v 10.343824 -4.075305 -58.859852
v 10.656177 -4.075305 -58.859852
v 10.656200 -5.060168 -64.174202
v 10.343847 -5.060168 -64.174202
v 10.723012 -4.126216 -64.347290
v 10.277035 -4.126216 -64.347290
v 10.852091 -4.420627 -64.292732
vt 0.1642 0.7307
vt 0.1646 0.7307
vt 0.1646 0.7307
vt 0.1642 0.7307
vt 0.1591 0.7307
vt 0.1593 0.7307
vt 0.1593 0.7307
vt 0.1591 0.7307
vt 0.1646 0.7307
vt 0.1650 0.7307
vt 0.1650 0.7307
vt 0.1646 0.7307
vt 0.1603 0.7307
vt 0.1605 0.7307
vt 0.1605 0.7307
vt 0.1603 0.7307
vt 0.1051 0.6592
vt 0.1042 0.6592
vt 0.1042 0.6592
vt 0.1051 0.6592
vt 0.1584 0.7307
vt 0.1585 0.7307
vt 0.1585 0.7307
vt 0.1584 0.7307
vt 0.1611 0.7307
vt 0.1612 0.7307
vt 0.1612 0.7307
vt 0.1611 0.7307
vt 0.1499 0.7057
vt 0.1495 0.7057
vt 0.1495 0.7057
vt 0.1499 0.7057
vt 0.1513 0.7057
vt 0.1509 0.7057
vt 0.1509 0.7057
vt 0.1513 0.7057
vt 0.1513 0.7307
vt 0.1514 0.7307
vt 0.1514 0.7307
vt 0.1513 0.7307
vt 0.1558 0.7307
vt 0.1559 0.7307
vt 0.1559 0.7307
vt 0.1558 0.7307
vt 0.1528 0.7307
vt 0.1528 0.7307
vt 0.1544 0.7307
vt 0.1544 0.7307
vn 0.6873 -0.7142 0.1324
vn 0.6374 -0.7577 0.1404
vn 0.6374 -0.7576 0.1404
vn 0.9827 -0.1821 0.0338
vn -0.6374 -0.7577 0.1404
vn -0.6873 -0.7142 0.1324
vn -0.6873 -0.7142 0.1323
vn -0.9827 -0.1821 0.0337
vn -0.1541 0.9715 -0.1800
vn 0.1541 0.9715 -0.1800
vn 0.6216 0.7702 -0.1427
vn 0.9640 0.2616 -0.0485
vn 0.9639 0.2616 -0.0485
vn -0.9640 0.2616 -0.0485
vn -0.6216 0.7702 -0.1427
vn 0.9682 -0.2461 0.0456
vn -0.9682 -0.2461 0.0456
vn 1.0000 0.0000 0.0000
vn -1.0000 0.0000 -0.0000
usemtl Material
s 1
f 278/385/144 271/386/145 264/387/146 257/388/144
f 279/389/147 278/390/144 257/391/144 288/392/147
f 268/393/148 277/394/149 258/395/150 267/396/148
f 277/397/149 276/398/151 259/399/151 258/400/150
f 280/401/152 281/402/153 286/403/153 287/404/152
f 275/405/154 274/406/155 261/407/156 260/408/154
f 273/409/157 272/410/158 263/411/158 262/412/157
f 281/413/153 275/414/154 260/415/154 286/416/153
f 274/406/155 279/389/147 288/392/147 261/407/156
f 276/398/151 273/409/157 262/412/157 259/399/151
f 272/417/158 280/418/152 287/419/152 263/420/158
f 271/421/145 270/422/159 265/423/159 264/424/146
f 269/425/160 268/426/148 267/427/148 266/428/160
f 270/422/159 283/429/161 284/430/161 265/423/159
f 282/431/162 269/425/160 266/428/160 285/432/162
o Cube.041
v 2.825881 -4.486567 -64.280510
v 2.174167 -4.486567 -64.280510
v 2.147956 -4.420627 -64.292740
v 2.827036 -4.158923 -64.341232
v 2.852091 -4.200145 -64.333588
v 2.147956 -4.200145 -64.333595
v 2.173011 -4.158923 -64.341240
v 2.680875 -4.533397 -64.271820
v 2.656200 -4.577182 -64.263718
v 2.343847 -4.577182 -64.263718
v 2.319172 -4.533397 -64.271828
v 2.319149 -3.548534 -58.957481
v 2.343824 -3.592319 -58.949371
v 2.656177 -3.592319 -58.949368
v 2.680851 -3.548534 -58.957478
v 2.172987 -3.174060 -59.026894
v 2.147933 -3.215282 -59.019245
v 2.852067 -3.215282 -59.019241
v 2.827013 -3.174060 -59.026886
v 2.147933 -3.435764 -58.978390
v 2.174143 -3.501704 -58.966164
v 2.825857 -3.501704 -58.966164
v 2.852067 -3.435764 -58.978386
v 2.277012 -3.141353 -59.032944
v 2.722989 -3.141353 -59.032936
v 2.343824 -4.075305 -58.859852
v 2.656177 -4.075305 -58.859852
v 2.656200 -5.060168 -64.174202
v 2.343847 -5.060168 -64.174202
v 2.723012 -4.126216 -64.347290
v 2.277035 -4.126216 -64.347290
v 2.852091 -4.420627 -64.292732
vt 0.1642 0.7307
vt 0.1646 0.7307
vt 0.1646 0.7307
vt 0.1642 0.7307
vt 0.1591 0.7307
vt 0.1593 0.7307
vt 0.1593 0.7307
vt 0.1591 0.7307
vt 0.1646 0.7307
vt 0.1650 0.7307
vt 0.1650 0.7307
vt 0.1646 0.7307
vt 0.1603 0.7307
vt 0.1605 0.7307
vt 0.1605 0.7307
vt 0.1603 0.7307
vt 0.1051 0.6592
vt 0.1042 0.6592
vt 0.1042 0.6592
vt 0.1051 0.6592
vt 0.1584 0.7307
vt 0.1585 0.7307
vt 0.1585 0.7307
vt 0.1584 0.7307
vt 0.1611 0.7307
vt 0.1612 0.7307
vt 0.1612 0.7307
vt 0.1611 0.7307
vt 0.1499 0.7057
vt 0.1495 0.7057
vt 0.1495 0.7057
vt 0.1499 0.7057
vt 0.1513 0.7057
vt 0.1509 0.7057
vt 0.1509 0.7057
vt 0.1513 0.7057
vt 0.1513 0.7307
vt 0.1514 0.7307
vt 0.1514 0.7307
vt 0.1513 0.7307
vt 0.1558 0.7307
vt 0.1559 0.7307
vt 0.1559 0.7307
vt 0.1558 0.7307
vt 0.1528 0.7307
vt 0.1528 0.7307
vt 0.1544 0.7307
vt 0.1544 0.7307
vn 0.6873 -0.7142 0.1324
vn 0.6374 -0.7577 0.1404
vn 0.9827 -0.1821 0.0338
vn -0.6374 -0.7577 0.1404
vn -0.6873 -0.7142 0.1324
vn -0.6873 -0.7142 0.1323
vn -0.9827 -0.1821 0.0337
vn -0.1541 0.9715 -0.1800
vn 0.1541 0.9715 -0.1800
vn 0.6216 0.7702 -0.1427
vn 0.9640 0.2616 -0.0485
vn 0.9639 0.2616 -0.0485
vn -0.9640 0.2616 -0.0485
vn -0.6216 0.7702 -0.1427
vn -0.9639 0.2616 -0.0485
vn 0.9682 -0.2461 0.0456
vn -0.9682 -0.2461 0.0456
vn 1.0000 0.0000 0.0000
vn -1.0000 -0.0000 -0.0000
usemtl Material
s 1
f 310/433/163 303/434/164 296/435/164 289/436/163
f 311/437/165 310/438/163 289/439/163 320/440/165
f 300/441/166 309/442/167 290/443/168 299/444/166
f 309/445/167 308/446/169 291/447/169 290/448/168
f 312/449/170 313/450/171 318/451/171 319/452/170
f 307/453/172 306/454/173 293/455/174 292/456/172
f 305/457/175 304/458/176 295/459/176 294/460/177
f 313/461/171 307/462/172 292/463/172 318/464/171
f 306/454/173 311/437/165 320/440/165 293/455/174
f 308/446/169 305/457/175 294/460/177 291/447/169
f 304/465/176 312/466/170 319/467/170 295/468/176
f 303/469/164 302/470/178 297/471/178 296/472/164
f 301/473/179 300/474/166 299/475/166 298/476/179
f 302/470/178 315/477/180 316/478/180 297/471/178
f 314/479/181 301/473/179 298/476/179 317/480/181
o Cube.040
v 2.319149 -3.548534 -58.957481
v 2.343824 -3.592319 -58.949371
v 2.656177 -3.592319 -58.949368
v 2.680851 -3.548534 -58.957478
v 2.172987 -3.174060 -59.026894
v 2.147933 -3.215282 -59.019245
v 2.852067 -3.215282 -59.019241
v 2.827013 -3.174060 -59.026886
v 2.147933 -3.435764 -58.978390
v 2.174143 -3.501704 -58.966164
v 2.825857 -3.501704 -58.966164
v 2.852067 -3.435764 -58.978386
v 2.277012 -3.141353 -59.032944
v 2.722989 -3.141353 -59.032936
v 2.343824 -4.075305 -58.859852
v 2.656177 -4.075305 -58.859852
v 2.656177 -2.749395 -51.079872
v 2.343824 -2.749395 -51.079872
v 2.722989 -1.811231 -51.228455
v 2.277012 -1.811231 -51.228462
v 2.852067 -2.106969 -51.181625
v 2.825857 -2.173208 -51.171131
v 2.174143 -2.173208 -51.171135
v 2.147933 -2.106969 -51.181629
v 2.827013 -1.844076 -51.223259
v 2.852067 -1.885503 -51.216694
v 2.147933 -1.885503 -51.216698
v 2.172987 -1.844076 -51.223267
v 2.680851 -2.220243 -51.163681
v 2.656177 -2.264234 -51.156715
v 2.343824 -2.264234 -51.156719
v 2.319149 -2.220243 -51.163681
vt 0.1051 0.6592
vt 0.1042 0.6592
vt 0.1042 0.6592
vt 0.1051 0.6592
vt 0.1603 0.7307
vt 0.1605 0.7307
vt 0.1605 0.7307
vt 0.1603 0.7307
vt 0.1646 0.7307
vt 0.1650 0.7307
vt 0.1650 0.7307
vt 0.1646 0.7307
vt 0.1591 0.7307
vt 0.1593 0.7307
vt 0.1593 0.7307
vt 0.1591 0.7307
vt 0.1642 0.7307
vt 0.1646 0.7307
vt 0.1646 0.7307
vt 0.1642 0.7307
vt 0.1544 0.7307
vt 0.1558 0.7307
vt 0.1558 0.7307
vt 0.1544 0.7307
vt 0.1514 0.7307
vt 0.1528 0.7307
vt 0.1528 0.7307
vt 0.1514 0.7307
vt 0.1559 0.7307
vt 0.1559 0.7307
vt 0.1513 0.7307
vt 0.1513 0.7307
vt 0.1513 0.7057
vt 0.1509 0.7057
vt 0.1509 0.7057
vt 0.1513 0.7057
vt 0.1611 0.7307
vt 0.1611 0.7307
vt 0.1585 0.7307
vt 0.1585 0.7307
vt 0.1499 0.7057
vt 0.1495 0.7057
vt 0.1495 0.7057
vt 0.1499 0.7057
vt 0.1612 0.7307
vt 0.1612 0.7307
vt 0.1584 0.7307
vt 0.1584 0.7307
vn -0.1539 0.9740 -0.1660
vn 0.1539 0.9740 -0.1660
vn -0.6889 -0.7146 0.1218
vn -0.9829 -0.1813 0.0309
vn -0.9830 -0.1810 0.0308
vn -0.6893 -0.7142 0.1217
vn -0.6360 -0.7607 0.1296
vn -0.6357 -0.7610 0.1297
vn 0.9829 -0.1813 0.0309
vn 0.6889 -0.7146 0.1218
vn 0.6893 -0.7142 0.1217
vn 0.9830 -0.1810 0.0308
vn 0.6360 -0.7607 0.1296
vn 0.6357 -0.7610 0.1297
vn -1.0000 -0.0000 0.0000
vn -0.9677 -0.2485 0.0424
vn -0.9676 -0.2489 0.0424
vn 0.9677 -0.2485 0.0423
vn 1.0000 -0.0000 0.0000
vn 0.9676 -0.2489 0.0424
vn -0.6203 0.7732 -0.1318
vn -0.6200 0.7734 -0.1318
vn -0.9635 0.2641 -0.0450
vn -0.9633 0.2645 -0.0451
vn 0.9634 0.2641 -0.0450
vn 0.9633 0.2645 -0.0451
vn 0.6203 0.7732 -0.1318
vn 0.6200 0.7734 -0.1318
usemtl Material
s 1
f 340/481/182 339/482/183 334/483/183 333/484/182
f 343/485/184 344/486/185 329/487/186 330/488/187
f 352/489/188 343/490/184 330/491/187 321/492/189
f 341/493/190 342/494/191 331/495/192 332/496/193
f 342/497/191 349/498/194 324/499/195 331/500/192
f 338/501/196 351/502/197 322/503/198 335/504/196
f 350/505/199 337/506/200 336/507/200 323/508/201
f 351/502/197 352/509/188 321/510/189 322/503/198
f 349/511/194 350/505/199 323/508/201 324/512/195
f 348/513/202 340/514/182 333/515/182 325/516/203
f 344/486/185 347/517/204 326/518/205 329/487/186
f 346/519/206 341/493/190 332/496/193 327/520/207
f 339/521/183 345/522/208 328/523/209 334/524/183
f 347/517/204 348/525/202 325/526/203 326/518/205
f 345/527/208 346/519/206 327/520/207 328/528/209
o Cube.039
v 2.656177 -2.749395 -51.079872
v 2.343824 -2.749395 -51.079872
v 2.722989 -1.811231 -51.228455
v 2.277012 -1.811231 -51.228462
v 2.852067 -2.106969 -51.181625
v 2.825857 -2.173208 -51.171131
v 2.174143 -2.173208 -51.171135
v 2.147933 -2.106969 -51.181629
v 2.827013 -1.844076 -51.223259
v 2.852067 -1.885503 -51.216694
v 2.147933 -1.885503 -51.216698
v 2.172987 -1.844076 -51.223267
v 2.680851 -2.220243 -51.163681
v 2.656177 -2.264234 -51.156715
v 2.343824 -2.264234 -51.156719
v 2.319149 -2.220243 -51.163681
v 2.319149 -1.087690 -43.352551
v 2.343824 -1.131841 -43.346741
v 2.656177 -1.131841 -43.346741
v 2.680851 -1.087690 -43.352547
v 2.172987 -0.710081 -43.402267
v 2.147933 -0.751668 -43.396790
v 2.852067 -0.751668 -43.396786
v 2.827013 -0.710081 -43.402260
v 2.147933 -0.973958 -43.367527
v 2.174143 -1.040449 -43.358772
v 2.825857 -1.040449 -43.358768
v 2.852067 -0.973958 -43.367523
v 2.277012 -0.677122 -43.406605
v 2.722989 -0.677122 -43.406597
v 2.343824 -1.618856 -43.282623
v 2.656177 -1.618856 -43.282623
vt 0.1646 0.7307
vt 0.1650 0.7307
vt 0.1650 0.7307
vt 0.1646 0.7307
vt 0.1603 0.7307
vt 0.1605 0.7307
vt 0.1605 0.7307
vt 0.1603 0.7307
vt 0.1051 0.6592
vt 0.1042 0.6592
vt 0.1042 0.6592
vt 0.1051 0.6592
vt 0.1584 0.7307
vt 0.1585 0.7307
vt 0.1585 0.7307
vt 0.1584 0.7307
vt 0.1611 0.7307
vt 0.1612 0.7307
vt 0.1612 0.7307
vt 0.1611 0.7307
vt 0.1499 0.7057
vt 0.1495 0.7057
vt 0.1495 0.7057
vt 0.1499 0.7057
vt 0.1591 0.7307
vt 0.1591 0.7307
vt 0.1513 0.7057
vt 0.1509 0.7057
vt 0.1509 0.7057
vt 0.1513 0.7057
vt 0.1513 0.7307
vt 0.1514 0.7307
vt 0.1514 0.7307
vt 0.1513 0.7307
vt 0.1558 0.7307
vt 0.1559 0.7307
vt 0.1559 0.7307
vt 0.1558 0.7307
vt 0.1528 0.7307
vt 0.1528 0.7307
vt 0.1544 0.7307
vt 0.1544 0.7307
vt 0.1642 0.7307
vt 0.1646 0.7307
vt 0.1646 0.7307
vt 0.1642 0.7307
vt 0.1593 0.7307
vt 0.1593 0.7307
vn -0.6359 -0.7638 0.1107
vn -0.6891 -0.7172 0.1040
vn -0.9830 -0.1818 0.0264
vn -0.1539 0.9779 -0.1418
vn 0.1539 0.9779 -0.1418
vn 0.6202 0.7763 -0.1126
vn 0.9634 0.2653 -0.0385
vn -0.9634 0.2653 -0.0385
vn -0.6202 0.7763 -0.1126
vn 0.9830 -0.1818 0.0264
vn 0.6359 -0.7638 0.1107
vn 0.9677 -0.2497 0.0362
vn 0.9677 -0.2496 0.0362
vn -0.9677 -0.2497 0.0362
vn -0.9677 -0.2496 0.0362
vn 1.0000 0.0000 0.0000
vn -1.0000 -0.0000 0.0000
vn 0.6891 -0.7172 0.1040
usemtl Material
s 1
f 369/529/210 378/530/211 359/531/211 368/532/210
f 378/533/211 377/534/212 360/535/212 359/536/211
f 381/537/213 382/538/214 355/539/214 356/540/213
f 376/541/215 375/542/216 362/543/216 361/544/215
f 374/545/217 373/546/218 364/547/218 363/548/217
f 382/549/214 376/550/215 361/551/215 355/552/214
f 375/542/216 380/553/219 357/554/219 362/543/216
f 377/534/212 374/545/217 363/548/217 360/535/212
f 373/555/218 381/556/213 356/557/213 364/558/218
f 372/559/220 371/560/221 366/561/222 365/562/220
f 370/563/223 369/564/210 368/565/210 367/566/224
f 371/560/221 384/567/225 353/568/225 366/561/222
f 383/569/226 370/563/223 367/566/224 354/570/226
f 379/571/227 372/572/220 365/573/220 358/574/227
f 380/553/219 379/575/227 358/576/227 357/554/219
o Cube.038
v 2.319149 -1.087690 -43.352551
v 2.343824 -1.131841 -43.346741
v 2.656177 -1.131841 -43.346741
v 2.680851 -1.087690 -43.352547
v 2.172987 -0.710081 -43.402267
v 2.147933 -0.751668 -43.396790
v 2.852067 -0.751668 -43.396786
v 2.827013 -0.710081 -43.402260
v 2.147933 -0.973958 -43.367527
v 2.174143 -1.040449 -43.358772
v 2.825857 -1.040449 -43.358768
v 2.852067 -0.973958 -43.367523
v 2.277012 -0.677122 -43.406605
v 2.722989 -0.677122 -43.406597
v 2.343824 -1.618856 -43.282623
v 2.656177 -1.618856 -43.282623
v 2.656177 -0.692814 -35.458458
v 2.343824 -0.692814 -35.458458
v 2.722989 0.251850 -35.557732
v 2.277012 0.251850 -35.557739
v 2.852067 -0.045903 -35.526443
v 2.825857 -0.112599 -35.519432
v 2.174143 -0.112599 -35.519436
v 2.147933 -0.045903 -35.526447
v 2.827013 0.218799 -35.554260
v 2.852067 0.177074 -35.549877
v 2.147933 0.177074 -35.549881
v 2.172987 0.218799 -35.554268
v 2.680851 -0.160000 -35.514450
v 2.656177 -0.204266 -35.509800
v 2.343824 -0.204266 -35.509804
v 2.319149 -0.160000 -35.514454
vt 0.1603 0.7307
vt 0.1605 0.7307
vt 0.1605 0.7307
vt 0.1603 0.7307
vt 0.1646 0.7307
vt 0.1650 0.7307
vt 0.1650 0.7307
vt 0.1646 0.7307
vt 0.1591 0.7307
vt 0.1593 0.7307
vt 0.1593 0.7307
vt 0.1591 0.7307
vt 0.1642 0.7307
vt 0.1646 0.7307
vt 0.1646 0.7307
vt 0.1642 0.7307
vt 0.1544 0.7307
vt 0.1558 0.7307
vt 0.1558 0.7307
vt 0.1544 0.7307
vt 0.1514 0.7307
vt 0.1528 0.7307
vt 0.1528 0.7307
vt 0.1514 0.7307
vt 0.1559 0.7307
vt 0.1559 0.7307
vt 0.1513 0.7307
vt 0.1513 0.7307
vt 0.1513 0.7057
vt 0.1509 0.7057
vt 0.1509 0.7057
vt 0.1513 0.7057
vt 0.1611 0.7307
vt 0.1611 0.7307
vt 0.1585 0.7307
vt 0.1585 0.7307
vt 0.1499 0.7057
vt 0.1495 0.7057
vt 0.1495 0.7057
vt 0.1499 0.7057
vt 0.1612 0.7307
vt 0.1612 0.7307
vt 0.1584 0.7307
vt 0.1584 0.7307
vt 0.1051 0.6592
vt 0.1042 0.6592
vt 0.1042 0.6592
vt 0.1051 0.6592
vn -0.6891 -0.7196 0.0852
vn -0.9830 -0.1825 0.0216
vn -0.6359 -0.7664 0.0907
vn 0.9830 -0.1825 0.0216
vn 0.6891 -0.7196 0.0852
vn 0.6359 -0.7664 0.0907
vn -1.0000 0.0000 0.0000
vn -0.9676 -0.2506 0.0297
vn 0.9676 -0.2506 0.0297
vn 1.0000 0.0000 0.0000
vn -0.6202 0.7790 -0.0922
vn -0.1538 0.9813 -0.1161
vn -0.9634 0.2662 -0.0315
vn 0.9634 0.2662 -0.0315
vn 0.1538 0.9813 -0.1161
vn 0.6202 0.7790 -0.0922
usemtl Material
s 1
f 407/577/228 408/578/229 393/579/229 394/580/228
f 416/581/230 407/582/228 394/583/228 385/584/230
f 405/585/231 406/586/232 395/587/232 396/588/231
f 406/589/232 413/590/233 388/591/233 395/592/232
f 402/593/234 415/594/235 386/595/235 399/596/234
f 414/597/236 401/598/237 400/599/237 387/600/236
f 415/594/235 416/601/230 385/602/230 386/595/235
f 413/603/233 414/597/236 387/600/236 388/604/233
f 412/605/238 404/606/239 397/607/239 389/608/238
f 408/578/229 411/609/240 390/610/240 393/579/229
f 410/611/241 405/585/231 396/588/231 391/612/241
f 403/613/242 409/614/243 392/615/243 398/616/242
f 411/609/240 412/617/238 389/618/238 390/610/240
f 409/619/243 410/611/241 391/612/241 392/620/243
f 404/621/239 403/622/242 398/623/242 397/624/239
o Cube.037
v 2.656177 -0.692814 -35.458458
v 2.343824 -0.692814 -35.458458
v 2.722989 0.251850 -35.557732
v 2.277012 0.251850 -35.557739
v 2.852067 -0.045903 -35.526443
v 2.825857 -0.112599 -35.519432
v 2.174143 -0.112599 -35.519436
v 2.147933 -0.045903 -35.526447
v 2.827013 0.218799 -35.554260
v 2.852067 0.177074 -35.549877
v 2.147933 0.177074 -35.549881
v 2.172987 0.218799 -35.554268
v 2.680851 -0.160000 -35.514450
v 2.656177 -0.204266 -35.509800
v 2.343824 -0.204266 -35.509804
v 2.319149 -0.160000 -35.514454
v 2.319149 0.562185 -27.654758
v 2.343824 0.517828 -27.651264
v 2.656177 0.517828 -27.651262
v 2.680851 0.562185 -27.654755
v 2.172987 0.941900 -27.684641
v 2.147933 0.900083 -27.681351
v 2.852067 0.900083 -27.681345
v 2.827013 0.941900 -27.684635
v 2.147933 0.676580 -27.663759
v 2.174143 0.609724 -27.658497
v 2.825857 0.609724 -27.658493
v 2.852067 0.676580 -27.663757
v 2.277012 0.975042 -27.687248
v 2.722989 0.975042 -27.687243
v 2.343824 0.028089 -27.612724
v 2.656177 0.028089 -27.612724
vt 0.1051 0.6592
vt 0.1042 0.6592
vt 0.1042 0.6592
vt 0.1051 0.6592
vt 0.1584 0.7307
vt 0.1585 0.7307
vt 0.1585 0.7307
vt 0.1584 0.7307
vt 0.1611 0.7307
vt 0.1612 0.7307
vt 0.1612 0.7307
vt 0.1611 0.7307
vt 0.1499 0.7057
vt 0.1495 0.7057
vt 0.1495 0.7057
vt 0.1499 0.7057
vt 0.1591 0.7307
vt 0.1591 0.7307
vt 0.1605 0.7307
vt 0.1605 0.7307
vt 0.1513 0.7057
vt 0.1509 0.7057
vt 0.1509 0.7057
vt 0.1513 0.7057
vt 0.1513 0.7307
vt 0.1514 0.7307
vt 0.1514 0.7307
vt 0.1513 0.7307
vt 0.1558 0.7307
vt 0.1559 0.7307
vt 0.1559 0.7307
vt 0.1558 0.7307
vt 0.1528 0.7307
vt 0.1528 0.7307
vt 0.1544 0.7307
vt 0.1544 0.7307
vt 0.1642 0.7307
vt 0.1646 0.7307
vt 0.1646 0.7307
vt 0.1642 0.7307
vt 0.1593 0.7307
vt 0.1593 0.7307
vt 0.1646 0.7307
vt 0.1650 0.7307
vt 0.1650 0.7307
vt 0.1646 0.7307
vt 0.1603 0.7307
vt 0.1603 0.7307
vn -0.1538 0.9840 -0.0904
vn 0.1538 0.9840 -0.0904
vn 0.6202 0.7812 -0.0718
vn 0.9634 0.2669 -0.0245
vn -0.9634 0.2669 -0.0245
vn -0.6202 0.7812 -0.0718
vn 0.9830 -0.1830 0.0168
vn -0.9830 -0.1830 0.0168
vn 0.6359 -0.7686 0.0706
vn 0.9676 -0.2514 0.0231
vn -0.9676 -0.2514 0.0231
vn -0.6359 -0.7686 0.0706
vn 1.0000 -0.0000 0.0000
vn -1.0000 -0.0000 0.0000
vn 0.6892 -0.7216 0.0663
vn -0.6892 -0.7216 0.0663
usemtl Material
s 1
f 445/625/244 446/626/245 419/627/245 420/628/244
f 440/629/246 439/630/247 426/631/247 425/632/246
f 438/633/248 437/634/249 428/635/249 427/636/248
f 446/637/245 440/638/246 425/639/246 419/640/245
f 439/630/247 444/641/250 421/642/250 426/631/247
f 441/643/251 438/633/248 427/636/248 424/644/251
f 437/645/249 445/646/244 420/647/244 428/648/249
f 436/649/252 435/650/253 430/651/253 429/652/252
f 434/653/254 433/654/255 432/655/255 431/656/254
f 435/650/253 448/657/256 417/658/256 430/651/253
f 447/659/257 434/653/254 431/656/254 418/660/257
f 443/661/258 436/662/252 429/663/252 422/664/258
f 444/641/250 443/665/258 422/666/258 421/642/250
f 433/667/255 442/668/259 423/669/259 432/670/255
f 442/671/259 441/643/251 424/644/251 423/672/259
o Cube.036
v 2.319149 0.562185 -27.654758
v 2.343824 0.517828 -27.651264
v 2.656177 0.517828 -27.651262
v 2.680851 0.562185 -27.654755
v 2.172987 0.941900 -27.684641
v 2.147933 0.900083 -27.681351
v 2.852067 0.900083 -27.681345
v 2.827013 0.941900 -27.684635
v 2.147933 0.676580 -27.663759
v 2.174143 0.609724 -27.658497
v 2.825857 0.609724 -27.658493
v 2.852067 0.676580 -27.663757
v 2.277012 0.975042 -27.687248
v 2.722989 0.975042 -27.687243
v 2.343824 0.028089 -27.612724
v 2.656177 0.028089 -27.612724
v 2.656177 0.543390 -19.750814
v 2.343824 0.543390 -19.750814
v 2.722989 1.491945 -19.800518
v 2.277012 1.491945 -19.800524
v 2.852067 1.192979 -19.784853
v 2.825857 1.126009 -19.781342
v 2.174143 1.126009 -19.781345
v 2.147933 1.192979 -19.784855
v 2.827013 1.458757 -19.798779
v 2.852067 1.416872 -19.796585
v 2.147933 1.416872 -19.796591
v 2.172987 1.458757 -19.798784
v 2.680851 1.078401 -19.778849
v 2.656177 1.033975 -19.776520
v 2.343824 1.033975 -19.776522
v 2.319149 1.078401 -19.778852
vt 0.1642 0.7307
vt 0.1646 0.7307
vt 0.1646 0.7307
vt 0.1642 0.7307
vt 0.1544 0.7307
vt 0.1558 0.7307
vt 0.1558 0.7307
vt 0.1544 0.7307
vt 0.1514 0.7307
vt 0.1528 0.7307
vt 0.1528 0.7307
vt 0.1514 0.7307
vt 0.1559 0.7307
vt 0.1559 0.7307
vt 0.1513 0.7307
vt 0.1513 0.7307
vt 0.1513 0.7057
vt 0.1509 0.7057
vt 0.1509 0.7057
vt 0.1513 0.7057
vt 0.1605 0.7307
vt 0.1611 0.7307
vt 0.1611 0.7307
vt 0.1605 0.7307
vt 0.1585 0.7307
vt 0.1591 0.7307
vt 0.1591 0.7307
vt 0.1585 0.7307
vt 0.1499 0.7057
vt 0.1495 0.7057
vt 0.1495 0.7057
vt 0.1499 0.7057
vt 0.1612 0.7307
vt 0.1612 0.7307
vt 0.1584 0.7307
vt 0.1584 0.7307
vt 0.1051 0.6592
vt 0.1042 0.6592
vt 0.1042 0.6592
vt 0.1051 0.6592
vt 0.1603 0.7307
vt 0.1603 0.7307
vt 0.1646 0.7307
vt 0.1650 0.7307
vt 0.1650 0.7307
vt 0.1646 0.7307
vt 0.1593 0.7307
vt 0.1593 0.7307
vn 0.6892 -0.7230 0.0474
vn 0.6358 -0.7702 0.0505
vn -1.0000 0.0000 0.0000
vn -0.9676 -0.2519 0.0165
vn 0.9676 -0.2519 0.0165
vn 1.0000 0.0000 0.0000
vn -0.6358 -0.7702 0.0505
vn -0.6202 0.7828 -0.0513
vn -0.1538 0.9860 -0.0646
vn -0.9830 -0.1833 0.0120
vn -0.9634 0.2675 -0.0175
vn 0.9634 0.2675 -0.0175
vn 0.9830 -0.1833 0.0120
vn 0.1538 0.9860 -0.0646
vn 0.6202 0.7828 -0.0513
vn -0.6892 -0.7230 0.0474
usemtl Material
s 1
f 470/673/260 477/674/261 452/675/261 459/676/260
f 466/677/262 479/678/263 450/679/263 463/680/262
f 478/681/264 465/682/265 464/683/265 451/684/264
f 479/678/263 480/685/266 449/686/266 450/679/263
f 477/687/261 478/681/264 451/684/264 452/688/261
f 476/689/267 468/690/268 461/691/268 453/692/267
f 472/693/269 475/694/270 454/695/270 457/696/269
f 474/697/271 469/698/272 460/699/272 455/700/271
f 467/701/273 473/702/274 456/703/274 462/704/273
f 475/694/270 476/705/267 453/706/267 454/695/270
f 473/707/274 474/697/271 455/700/271 456/708/274
f 468/709/268 467/710/273 462/711/273 461/712/268
f 471/713/275 472/693/269 457/696/269 458/714/275
f 480/715/266 471/716/275 458/717/275 449/718/266
f 469/698/272 470/719/260 459/720/260 460/699/272
o Cube.035
v 2.656177 0.543390 -19.750814
v 2.343824 0.543390 -19.750814
v 2.722989 1.491945 -19.800518
v 2.277012 1.491945 -19.800524
v 2.852067 1.192979 -19.784853
v 2.825857 1.126009 -19.781342
v 2.174143 1.126009 -19.781345
v 2.147933 1.192979 -19.784855
v 2.827013 1.458757 -19.798779
v 2.852067 1.416872 -19.796585
v 2.147933 1.416872 -19.796591
v 2.172987 1.458757 -19.798784
v 2.680851 1.078401 -19.778849
v 2.656177 1.033975 -19.776520
v 2.343824 1.033975 -19.776522
v 2.319149 1.078401 -19.778852
v 2.319149 1.388286 -11.892130
v 2.343824 1.343791 -11.890965
v 2.656177 1.343791 -11.890962
v 2.680851 1.388286 -11.892127
v 2.172987 1.769008 -11.902100
v 2.147933 1.727100 -11.901002
v 2.852067 1.727100 -11.900996
v 2.827013 1.769008 -11.902094
v 2.147933 1.502956 -11.895133
v 2.174143 1.435916 -11.893377
v 2.825857 1.435916 -11.893374
v 2.852067 1.502956 -11.895130
v 2.277012 1.802242 -11.902970
v 2.722989 1.802242 -11.902965
v 2.343824 0.852725 -11.878106
v 2.656177 0.852725 -11.878106
vt 0.1584 0.7307
vt 0.1585 0.7307
vt 0.1585 0.7307
vt 0.1584 0.7307
vt 0.1611 0.7307
vt 0.1612 0.7307
vt 0.1612 0.7307
vt 0.1611 0.7307
vt 0.1499 0.7057
vt 0.1495 0.7057
vt 0.1495 0.7057
vt 0.1499 0.7057
vt 0.1591 0.7307
vt 0.1591 0.7307
vt 0.1605 0.7307
vt 0.1605 0.7307
vt 0.1513 0.7057
vt 0.1509 0.7057
vt 0.1509 0.7057
vt 0.1513 0.7057
vt 0.1513 0.7307
vt 0.1514 0.7307
vt 0.1514 0.7307
vt 0.1513 0.7307
vt 0.1558 0.7307
vt 0.1559 0.7307
vt 0.1559 0.7307
vt 0.1558 0.7307
vt 0.1528 0.7307
vt 0.1528 0.7307
vt 0.1544 0.7307
vt 0.1544 0.7307
vt 0.1642 0.7307
vt 0.1646 0.7307
vt 0.1646 0.7307
vt 0.1642 0.7307
vt 0.1593 0.7307
vt 0.1593 0.7307
vt 0.1646 0.7307
vt 0.1650 0.7307
vt 0.1650 0.7307
vt 0.1646 0.7307
vt 0.1603 0.7307
vt 0.1603 0.7307
vt 0.1051 0.6592
vt 0.1042 0.6592
vt 0.1042 0.6592
vt 0.1051 0.6592
vn 0.6201 0.7839 -0.0308
vn 0.9634 0.2679 -0.0105
vn -0.9634 0.2679 -0.0105
vn -0.6201 0.7839 -0.0308
vn 0.1538 0.9873 -0.0388
vn 0.9830 -0.1836 0.0072
vn -0.9830 -0.1836 0.0072
vn -0.1538 0.9873 -0.0388
vn 0.6358 -0.7713 0.0303
vn 0.9676 -0.2522 0.0099
vn -0.9676 -0.2522 0.0099
vn -0.6358 -0.7713 0.0303
vn 1.0000 -0.0000 0.0000
vn -1.0000 -0.0000 0.0000
vn 0.6891 -0.7241 0.0284
vn -0.6891 -0.7241 0.0284
usemtl Material
s 1
f 504/721/276 503/722/277 490/723/277 489/724/276
f 502/725/278 501/726/279 492/727/279 491/728/278
f 510/729/280 504/730/276 489/731/276 483/732/280
f 503/722/277 508/733/281 485/734/281 490/723/277
f 505/735/282 502/725/278 491/728/278 488/736/282
f 501/737/279 509/738/283 484/739/283 492/740/279
f 500/741/284 499/742/285 494/743/285 493/744/284
f 498/745/286 497/746/287 496/747/287 495/748/286
f 499/742/285 512/749/288 481/750/288 494/743/285
f 511/751/289 498/745/286 495/748/286 482/752/289
f 507/753/290 500/754/284 493/755/284 486/756/290
f 508/733/281 507/757/290 486/758/290 485/734/281
f 497/759/287 506/760/291 487/761/291 496/762/287
f 506/763/291 505/735/282 488/736/282 487/764/291
f 509/765/283 510/766/280 483/767/280 484/768/283
o Cube.034
v 2.656177 0.955870 -4.000000
v 2.343824 0.955870 -4.000000
v 2.722989 1.905697 -3.999994
v 2.277012 1.905697 -4.000000
v 2.852067 1.606315 -3.999997
v 2.825857 1.539268 -3.999997
v 2.174143 1.539268 -4.000000
v 2.147933 1.606315 -4.000000
v 2.827013 1.872461 -3.999994
v 2.852067 1.830535 -3.999994
v 2.147933 1.830535 -4.000000
v 2.172987 1.872461 -4.000000
v 2.680851 1.491614 -3.999997
v 2.656177 1.447078 -3.999997
v 2.343824 1.447078 -4.000000
v 2.319149 1.491614 -4.000000
v 2.319149 1.388286 -11.892130
v 2.343824 1.343791 -11.890965
v 2.656177 1.343791 -11.890962
v 2.680851 1.388286 -11.892127
v 2.172987 1.769008 -11.902100
v 2.147933 1.727100 -11.901002
v 2.852067 1.727100 -11.900996
v 2.827013 1.769008 -11.902094
v 2.147933 1.502956 -11.895133
v 2.174143 1.435916 -11.893377
v 2.825857 1.435916 -11.893374
v 2.852067 1.502956 -11.895130
v 2.277012 1.802242 -11.902970
v 2.722989 1.802242 -11.902965
v 2.343824 0.852725 -11.878106
v 2.656177 0.852725 -11.878106
vt 0.1605 0.7307
vt 0.1611 0.7307
vt 0.1611 0.7307
vt 0.1605 0.7307
vt 0.1544 0.7307
vt 0.1558 0.7307
vt 0.1558 0.7307
vt 0.1544 0.7307
vt 0.1051 0.6592
vt 0.1042 0.6592
vt 0.1042 0.6592
vt 0.1051 0.6592
vt 0.1514 0.7307
vt 0.1528 0.7307
vt 0.1528 0.7307
vt 0.1514 0.7307
vt 0.1585 0.7307
vt 0.1591 0.7307
vt 0.1591 0.7307
vt 0.1585 0.7307
vt 0.1499 0.7057
vt 0.1495 0.7057
vt 0.1495 0.7057
vt 0.1499 0.7057
vt 0.1559 0.7307
vt 0.1559 0.7307
vt 0.1603 0.7307
vt 0.1603 0.7307
vt 0.1612 0.7307
vt 0.1612 0.7307
vt 0.1513 0.7307
vt 0.1513 0.7307
vt 0.1584 0.7307
vt 0.1584 0.7307
vt 0.1593 0.7307
vt 0.1593 0.7307
vt 0.1646 0.7307
vt 0.1650 0.7307
vt 0.1650 0.7307
vt 0.1646 0.7307
vt 0.1642 0.7307
vt 0.1646 0.7307
vt 0.1646 0.7307
vt 0.1642 0.7307
vt 0.1513 0.7057
vt 0.1509 0.7057
vt 0.1509 0.7057
vt 0.1513 0.7057
vn -0.9830 -0.1837 0.0024
vn -0.9634 0.2681 -0.0035
vn -1.0000 0.0000 0.0000
vn -0.9676 -0.2523 0.0033
vn -0.1538 0.9880 -0.0129
vn 0.1538 0.9880 -0.0129
vn 0.9676 -0.2523 0.0033
vn 1.0000 -0.0000 0.0000
vn 0.9634 0.2681 -0.0035
vn 0.9830 -0.1837 0.0024
vn 0.6201 0.7845 -0.0103
vn -0.6359 -0.7717 0.0101
vn -0.6891 -0.7246 0.0095
vn -0.6201 0.7845 -0.0103
vn 0.6359 -0.7717 0.0101
vn 0.6891 -0.7246 0.0095
usemtl Material
s 1
f 520/769/292 523/770/293 534/771/293 537/772/292
f 514/773/294 527/774/295 530/775/295 543/776/294
f 516/777/296 515/778/297 542/779/297 541/780/296
f 526/781/298 513/782/299 544/783/299 531/784/298
f 522/785/300 517/786/301 540/787/301 535/788/300
f 515/789/297 521/790/302 536/791/302 542/792/297
f 527/774/295 528/793/303 529/794/303 530/775/295
f 519/795/304 520/769/292 537/772/292 538/796/304
f 523/770/293 524/797/305 533/798/305 534/771/293
f 525/799/306 526/781/298 531/784/298 532/800/306
f 521/801/302 522/785/300 535/788/300 536/802/302
f 517/786/301 518/803/307 539/804/307 540/787/301
f 528/805/303 519/806/304 538/807/304 529/808/303
f 518/809/307 525/810/306 532/811/306 539/812/307
f 524/813/305 516/814/296 541/815/296 533/816/305
o Cube.033
v 2.656177 0.955870 -4.000000
v 2.656176 0.955870 0.000000
v 2.343823 0.955870 -0.000001
v 2.343824 0.955870 -4.000000
v 2.722989 1.905697 -3.999994
v 2.722988 1.905697 0.000006
v 2.277011 1.905697 -0.000001
v 2.277012 1.905697 -4.000000
v 2.852067 1.606315 -3.999997
v 2.825857 1.539268 -3.999997
v 2.825857 1.539268 0.000003
v 2.852067 1.606315 0.000003
v 2.147933 1.606315 -0.000001
v 2.174143 1.539268 -0.000001
v 2.174143 1.539268 -4.000000
v 2.147933 1.606315 -4.000000
v 2.827013 1.872461 -3.999994
v 2.852067 1.830535 -3.999994
v 2.852067 1.830535 0.000006
v 2.827012 1.872461 0.000006
v 2.172987 1.872461 -0.000003
v 2.147933 1.830535 -0.000003
v 2.147933 1.830535 -4.000000
v 2.172987 1.872461 -4.000000
v 2.680851 1.491614 -3.999997
v 2.656177 1.447078 -3.999997
v 2.656176 1.447078 0.000003
v 2.680851 1.491614 0.000003
v 2.319149 1.491614 -0.000001
v 2.343823 1.447078 -0.000001
v 2.343824 1.447078 -4.000000
v 2.319149 1.491614 -4.000000
vt 0.1509 0.7307
vt 0.1509 0.7057
vt 0.1513 0.7057
vt 0.1513 0.7307
vt 0.1042 0.6592
vt 0.1051 0.6592
vt 0.1051 0.6842
vt 0.1042 0.6842
vt 0.1528 0.7307
vt 0.1514 0.7307
vt 0.1514 0.7057
vt 0.1528 0.7057
vt 0.1646 0.7057
vt 0.1650 0.7057
vt 0.1650 0.7307
vt 0.1646 0.7307
vt 0.1544 0.7057
vt 0.1558 0.7057
vt 0.1558 0.7307
vt 0.1544 0.7307
vt 0.1646 0.7307
vt 0.1642 0.7307
vt 0.1642 0.7057
vt 0.1646 0.7057
vt 0.1591 0.7307
vt 0.1585 0.7307
vt 0.1585 0.7057
vt 0.1591 0.7057
vt 0.1605 0.7057
vt 0.1611 0.7057
vt 0.1611 0.7307
vt 0.1605 0.7307
vt 0.1603 0.7307
vt 0.1603 0.7057
vt 0.1593 0.7057
vt 0.1593 0.7307
vt 0.1584 0.7307
vt 0.1584 0.7057
vt 0.1612 0.7057
vt 0.1612 0.7307
vt 0.1499 0.7057
vt 0.1499 0.7307
vt 0.1495 0.7307
vt 0.1495 0.7057
vt 0.1513 0.7307
vt 0.1513 0.7057
vt 0.1559 0.7057
vt 0.1559 0.7307
vn -0.1540 0.9881 -0.0000
vn -0.6215 0.7834 -0.0000
vn 0.1540 0.9881 0.0000
vn 1.0000 0.0000 0.0000
vn 0.9682 -0.2503 0.0000
vn -0.6374 -0.7705 -0.0000
vn -0.6873 -0.7263 0.0000
vn -1.0000 0.0000 -0.0000
vn -0.9682 -0.2503 -0.0000
vn 0.6374 -0.7705 0.0000
vn 0.6873 -0.7263 0.0000
vn 0.9827 -0.1853 0.0000
vn 0.9640 0.2661 0.0000
vn -0.9827 -0.1852 0.0000
vn -0.9640 0.2661 0.0000
vn 0.6215 0.7834 0.0000
usemtl Material
s 1
f 551/817/308 552/818/308 568/819/309 565/820/309
f 549/821/310 552/822/308 551/823/308 550/824/310
f 545/825/311 570/826/312 571/827/312 546/828/311
f 573/829/313 558/830/314 559/831/314 576/832/313
f 547/833/315 574/834/316 575/835/316 548/836/315
f 569/837/317 554/838/318 555/839/318 572/840/317
f 553/841/319 562/842/320 563/843/320 556/844/319
f 557/845/321 566/846/322 567/847/322 560/848/321
f 557/845/321 560/848/321 559/849/314 558/850/314
f 553/841/319 556/844/319 555/851/318 554/852/318
f 563/843/320 562/842/320 561/853/323 564/854/323
f 567/847/322 566/846/322 565/855/309 568/856/309
f 549/857/310 550/858/310 564/859/323 561/860/323
f 569/861/317 572/862/317 571/827/312 570/826/312
f 573/863/313 576/864/313 575/835/316 574/834/316
o Cube.031
v 1.234006 -4.349665 -57.778526
v 1.234006 -4.714136 -59.745037
v 3.765994 -4.714136 -59.745037
v 3.765994 -4.349665 -57.778526
v 5.000000 -4.644642 -57.723854
v 5.000000 -5.009113 -59.690365
v 0.000000 -4.644642 -57.723854
v 0.000000 -5.009113 -59.690365
vt 0.2985 0.2897
vt 0.2985 0.0949
vt 0.5970 0.0949
vt 0.5970 0.2897
vt 0.2985 0.3846
vt 0.5970 0.3846
vt 0.2985 0.0000
vt 0.5970 0.0000
vn 0.0000 0.9833 -0.1822
vn 0.2362 0.9554 -0.1771
vn -0.2362 0.9554 -0.1771
usemtl Material_blk_concrete01_dif.tga
s off
f 579/865/324 578/866/324 577/867/324 580/868/324
f 582/869/325 579/865/325 580/868/325 581/870/325
f 577/867/326 578/866/326 584/871/326 583/872/326
o Cube.030
v 11.765994 -4.349665 -57.778526
v 11.765994 -4.714136 -59.745037
v 9.234006 -4.714136 -59.745037
v 9.234006 -4.349665 -57.778526
v 8.000000 -5.009113 -59.690365
v 8.000000 -4.644642 -57.723854
v 13.000000 -5.009113 -59.690365
v 13.000000 -4.644642 -57.723854
vt 0.2985 0.9051
vt 0.5970 0.9051
vt 0.5970 1.0000
vt 0.2985 1.0000
vt 0.2985 0.7103
vt 0.5970 0.7103
vt 0.2985 0.6154
vt 0.5970 0.6154
vn 0.2362 0.9554 -0.1771
vn 0.0000 0.9833 -0.1822
vn -0.2362 0.9554 -0.1771
usemtl Material_blk_concrete01_dif.tga
s off
f 586/873/327 585/874/327 592/875/327 591/876/327
f 586/873/328 587/877/328 588/878/328 585/874/328
f 587/877/329 589/879/329 590/880/329 588/878/329
o Cube.029
v 0.000000 -5.697392 -59.562801
v 0.000000 -5.332920 -57.596291
v 0.000000 -4.644642 -57.723854
v 0.000000 -5.009113 -59.690365
v 13.000000 -5.009113 -59.690365
v 13.000000 -5.697392 -59.562801
v 13.000000 -5.332920 -57.596291
v 13.000000 -4.644642 -57.723854
vt 0.0000 1.0000
vt 0.0000 0.0000
vt 0.2985 0.0000
vt 0.2985 1.0000
vt 1.0000 0.1538
vt 0.8955 0.1538
vt 0.8955 0.0000
vt 1.0000 0.0000
vt 1.0000 0.3077
vt 0.8955 0.3077
vt 0.8955 0.1538
vt 1.0000 0.1538
vn 0.0000 -0.9833 0.1822
vn -1.0000 0.0000 0.0000
vn 1.0000 0.0000 0.0000
usemtl Material_blk_concrete01_dif.tga
s off
f 593/881/330 598/882/330 599/883/330 594/884/330
f 594/885/331 595/886/331 596/887/331 593/888/331
f 598/889/332 597/890/332 600/891/332 599/892/332
o Cube.028
v 0.000000 -4.343796 -51.839817
v 0.000000 -4.030927 -49.864441
v 0.000000 -3.339545 -49.973942
v 0.000000 -3.652414 -51.949318
v 13.000000 -3.652414 -51.949318
v 13.000000 -4.343796 -51.839817
v 13.000000 -4.030927 -49.864441
v 13.000000 -3.339545 -49.973942
vt 0.0000 1.0000
vt 0.0000 0.0000
vt 0.2985 0.0000
vt 0.2985 1.0000
vt 1.0000 0.1538
vt 0.8955 0.1538
vt 0.8955 0.0000
vt 1.0000 0.0000
vt 1.0000 0.3077
vt 0.8955 0.3077
vt 0.8955 0.1538
vt 1.0000 0.1538
vn 0.0000 -0.9877 0.1564
vn -1.0000 0.0000 0.0000
vn 1.0000 0.0000 0.0000
usemtl Material_blk_concrete01_dif.tga
s off
f 601/893/333 606/894/333 607/895/333 602/896/333
f 602/897/334 603/898/334 604/899/334 601/900/334
f 606/901/335 605/902/335 608/903/335 607/904/335
o Cube.027
v 11.765994 -3.043239 -50.020874
v 11.765994 -3.356108 -51.996250
v 9.234006 -3.356108 -51.996250
v 9.234006 -3.043239 -50.020874
v 8.000000 -3.652414 -51.949318
v 8.000000 -3.339545 -49.973942
v 13.000000 -3.652414 -51.949318
v 13.000000 -3.339545 -49.973942
vt 0.2985 0.9051
vt 0.5970 0.9051
vt 0.5970 1.0000
vt 0.2985 1.0000
vt 0.2985 0.7103
vt 0.5970 0.7103
vt 0.2985 0.6154
vt 0.5970 0.6154
vn 0.2362 0.9597 -0.1520
vn 0.0000 0.9877 -0.1564
vn -0.2362 0.9597 -0.1520
usemtl Material_blk_concrete01_dif.tga
s off
f 610/905/336 609/906/336 616/907/336 615/908/336
f 610/905/337 611/909/337 612/910/337 609/906/337
f 611/909/338 613/911/338 614/912/338 612/910/338
o Cube.026
v 1.234006 -3.043239 -50.020874
v 1.234006 -3.356108 -51.996250
v 3.765994 -3.356108 -51.996250
v 3.765994 -3.043239 -50.020874
v 5.000000 -3.339545 -49.973942
v 5.000000 -3.652414 -51.949318
v 0.000000 -3.339545 -49.973942
v 0.000000 -3.652414 -51.949318
vt 0.2985 0.2897
vt 0.2985 0.0949
vt 0.5970 0.0949
vt 0.5970 0.2897
vt 0.2985 0.3846
vt 0.5970 0.3846
vt 0.2985 0.0000
vt 0.5970 0.0000
vn 0.0000 0.9877 -0.1564
vn 0.2362 0.9597 -0.1520
vn -0.2362 0.9597 -0.1520
usemtl Material_blk_concrete01_dif.tga
s off
f 619/913/339 618/914/339 617/915/339 620/916/339
f 622/917/340 619/913/340 620/916/340 621/918/340
f 617/915/341 618/914/341 624/919/341 623/920/341
o Cube.023
v 1.234006 -1.940290 -42.231678
v 1.234006 -2.201342 -44.214569
v 3.765994 -2.201342 -44.214569
v 3.765994 -1.940290 -42.231678
v 5.000000 -2.237723 -42.192520
v 5.000000 -2.498775 -44.175411
v 0.000000 -2.237723 -42.192520
v 0.000000 -2.498775 -44.175411
vt 0.2985 0.2897
vt 0.2985 0.0949
vt 0.5970 0.0949
vt 0.5970 0.2897
vt 0.2985 0.3846
vt 0.5970 0.3846
vt 0.2985 0.0000
vt 0.5970 0.0000
vn 0.0000 0.9914 -0.1305
vn 0.2362 0.9634 -0.1268
vn -0.2362 0.9634 -0.1268
usemtl Material_blk_concrete01_dif.tga
s off
f 627/921/342 626/922/342 625/923/342 628/924/342
f 630/925/343 627/921/343 628/924/343 629/926/343
f 625/923/344 626/922/344 632/927/344 631/928/344
o Cube.022
v 11.765994 -1.940290 -42.231678
v 11.765994 -2.201342 -44.214569
v 9.234006 -2.201342 -44.214569
v 9.234006 -1.940290 -42.231678
v 8.000000 -2.498775 -44.175411
v 8.000000 -2.237723 -42.192520
v 13.000000 -2.498775 -44.175411
v 13.000000 -2.237723 -42.192520
vt 0.2985 0.9051
vt 0.5970 0.9051
vt 0.5970 1.0000
vt 0.2985 1.0000
vt 0.2985 0.7103
vt 0.5970 0.7103
vt 0.2985 0.6154
vt 0.5970 0.6154
vn 0.2362 0.9634 -0.1268
vn 0.0000 0.9914 -0.1305
vn -0.2362 0.9634 -0.1268
usemtl Material_blk_concrete01_dif.tga
s off
f 634/929/345 633/930/345 640/931/345 639/932/345
f 634/929/346 635/933/346 636/934/346 633/930/346
f 635/933/347 637/935/347 638/936/347 636/934/347
o Cube.021
v 0.000000 -3.192787 -44.084042
v 0.000000 -2.931735 -42.101154
v 0.000000 -2.237723 -42.192520
v 0.000000 -2.498775 -44.175411
v 13.000000 -2.498775 -44.175411
v 13.000000 -3.192787 -44.084042
v 13.000000 -2.931735 -42.101154
v 13.000000 -2.237723 -42.192520
vt 0.0000 1.0000
vt 0.0000 0.0000
vt 0.2985 0.0000
vt 0.2985 1.0000
vt 1.0000 0.1538
vt 0.8955 0.1538
vt 0.8955 0.0000
vt 1.0000 0.0000
vt 1.0000 0.3077
vt 0.8955 0.3077
vt 0.8955 0.1538
vt 1.0000 0.1538
vn 0.0000 -0.9914 0.1305
vn -1.0000 0.0000 0.0000
vn 1.0000 0.0000 0.0000
usemtl Material_blk_concrete01_dif.tga
s off
f 641/937/348 646/938/348 647/939/348 642/940/348
f 642/941/349 643/942/349 644/943/349 641/944/349
f 646/945/350 645/946/350 648/947/350 647/948/350
o Cube.020
v 0.000000 -2.245214 -36.300797
v 0.000000 -2.036158 -34.311756
v 0.000000 -1.339992 -34.384926
v 0.000000 -1.549049 -36.373970
v 13.000000 -1.549049 -36.373970
v 13.000000 -2.245214 -36.300797
v 13.000000 -2.036158 -34.311756
v 13.000000 -1.339992 -34.384926
vt 0.0000 1.0000
vt 0.0000 0.0000
vt 0.2985 0.0000
vt 0.2985 1.0000
vt 1.0000 0.1538
vt 0.8955 0.1538
vt 0.8955 0.0000
vt 1.0000 0.0000
vt 1.0000 0.3077
vt 0.8955 0.3077
vt 0.8955 0.1538
vt 1.0000 0.1538
vn 0.0000 -0.9945 0.1045
vn -1.0000 0.0000 0.0000
vn 1.0000 0.0000 0.0000
usemtl Material_blk_concrete01_dif.tga
s off
f 649/949/351 654/950/351 655/951/351 650/952/351
f 650/953/352 651/954/352 652/955/352 649/956/352
f 654/957/353 653/958/353 656/959/353 655/960/353
o Cube.019
v 11.765994 -1.041636 -34.416283
v 11.765994 -1.250693 -36.405327
v 9.234006 -1.250693 -36.405327
v 9.234006 -1.041636 -34.416283
v 8.000000 -1.549049 -36.373970
v 8.000000 -1.339992 -34.384926
v 13.000000 -1.549049 -36.373970
v 13.000000 -1.339992 -34.384926
vt 0.2985 0.9051
vt 0.5970 0.9051
vt 0.5970 1.0000
vt 0.2985 1.0000
vt 0.2985 0.7103
vt 0.5970 0.7103
vt 0.2985 0.6154
vt 0.5970 0.6154
vn 0.2362 0.9664 -0.1016
vn 0.0000 0.9945 -0.1045
vn -0.2362 0.9664 -0.1016
usemtl Material_blk_concrete01_dif.tga
s off
f 658/961/354 657/962/354 664/963/354 663/964/354
f 658/961/355 659/965/355 660/966/355 657/962/355
f 659/965/356 661/967/356 662/968/356 660/966/356
o Cube.018
v 1.234006 -1.041636 -34.416283
v 1.234006 -1.250693 -36.405327
v 3.765994 -1.250693 -36.405327
v 3.765994 -1.041636 -34.416283
v 5.000000 -1.339992 -34.384926
v 5.000000 -1.549049 -36.373970
v 0.000000 -1.339992 -34.384926
v 0.000000 -1.549049 -36.373970
vt 0.2985 0.2897
vt 0.2985 0.0949
vt 0.5970 0.0949
vt 0.5970 0.2897
vt 0.2985 0.3846
vt 0.5970 0.3846
vt 0.2985 0.0000
vt 0.5970 0.0000
vn 0.0000 0.9945 -0.1045
vn 0.2362 0.9664 -0.1016
vn -0.2362 0.9664 -0.1016
usemtl Material_blk_concrete01_dif.tga
s off
f 667/969/357 666/970/357 665/971/357 668/972/357
f 670/973/358 667/969/358 668/972/358 669/974/358
f 665/971/359 666/970/359 672/975/359 671/976/359
o Cube.015
v 1.234006 -0.347881 -26.580042
v 1.234006 -0.504799 -28.573875
v 3.765994 -0.504799 -28.573875
v 3.765994 -0.347881 -26.580042
v 5.000000 -0.646956 -26.556503
v 5.000000 -0.803874 -28.550339
v 0.000000 -0.646956 -26.556503
v 0.000000 -0.803874 -28.550339
vt 0.2985 0.2897
vt 0.2985 0.0949
vt 0.5970 0.0949
vt 0.5970 0.2897
vt 0.2985 0.3846
vt 0.5970 0.3846
vt 0.2985 0.0000
vt 0.5970 0.0000
vn 0.0000 0.9969 -0.0785
vn 0.2362 0.9687 -0.0762
vn -0.2362 0.9687 -0.0762
usemtl Material_blk_concrete01_dif.tga
s off
f 675/977/360 674/978/360 673/979/360 676/980/360
f 678/981/361 675/977/361 676/980/361 677/982/361
f 673/979/362 674/978/362 680/983/362 679/984/362
o Cube.014
v 11.765994 -0.347881 -26.580042
v 11.765994 -0.504799 -28.573875
v 9.234006 -0.504799 -28.573875
v 9.234006 -0.347881 -26.580042
v 8.000000 -0.803874 -28.550339
v 8.000000 -0.646956 -26.556503
v 13.000000 -0.803874 -28.550339
v 13.000000 -0.646956 -26.556503
vt 0.2985 0.9051
vt 0.5970 0.9051
vt 0.5970 1.0000
vt 0.2985 1.0000
vt 0.2985 0.7103
vt 0.5970 0.7103
vt 0.2985 0.6154
vt 0.5970 0.6154
vn 0.2362 0.9687 -0.0762
vn 0.0000 0.9969 -0.0785
vn -0.2362 0.9687 -0.0762
usemtl Material_blk_concrete01_dif.tga
s off
f 682/985/363 681/986/363 688/987/363 687/988/363
f 682/985/364 683/989/364 684/990/364 681/986/364
f 683/989/365 685/991/365 686/992/365 684/990/365
o Cube.013
v 0.000000 -1.501716 -28.495419
v 0.000000 -1.344798 -26.501583
v 0.000000 -0.646956 -26.556503
v 0.000000 -0.803874 -28.550339
v 13.000000 -0.803874 -28.550339
v 13.000000 -1.501716 -28.495419
v 13.000000 -1.344798 -26.501583
v 13.000000 -0.646956 -26.556503
vt 0.0000 1.0000
vt 0.0000 0.0000
vt 0.2985 0.0000
vt 0.2985 1.0000
vt 1.0000 0.1538
vt 0.8955 0.1538
vt 0.8955 0.0000
vt 1.0000 0.0000
vt 1.0000 0.3077
vt 0.8955 0.3077
vt 0.8955 0.1538
vt 1.0000 0.1538
vn 0.0000 -0.9969 0.0785
vn -1.0000 0.0000 0.0000
vn 1.0000 0.0000 0.0000
usemtl Material_blk_concrete01_dif.tga
s off
f 689/993/366 694/994/366 695/995/366 690/996/366
f 690/997/367 691/998/367 692/999/367 689/1000/367
f 694/1001/368 693/1002/368 696/1003/368 695/1004/368
o Cube.012
v 0.000000 -0.962807 -20.673250
v 0.000000 -0.858135 -18.675991
v 0.000000 -0.159095 -18.712626
v 0.000000 -0.263767 -20.709885
v 13.000000 -0.263767 -20.709885
v 13.000000 -0.962807 -20.673250
v 13.000000 -0.858135 -18.675991
v 13.000000 -0.159095 -18.712626
vt 0.0000 1.0000
vt 0.0000 0.0000
vt 0.2985 0.0000
vt 0.2985 1.0000
vt 1.0000 0.1538
vt 0.8955 0.1538
vt 0.8955 0.0000
vt 1.0000 0.0000
vt 1.0000 0.3077
vt 0.8955 0.3077
vt 0.8955 0.1538
vt 1.0000 0.1538
vn 0.0000 -0.9986 0.0523
vn -1.0000 0.0000 0.0000
vn 1.0000 0.0000 0.0000
usemtl Material_blk_concrete01_dif.tga
s off
f 697/1005/369 702/1006/369 703/1007/369 698/1008/369
f 698/1009/370 699/1010/370 700/1011/370 697/1012/370
f 702/1013/371 701/1014/371 704/1015/371 703/1016/371
o Cube.011
v 11.765994 0.140494 -18.728327
v 11.765994 0.035822 -20.725586
v 9.234006 0.035822 -20.725586
v 9.234006 0.140494 -18.728327
v 8.000000 -0.263767 -20.709885
v 8.000000 -0.159095 -18.712626
v 13.000000 -0.263767 -20.709885
v 13.000000 -0.159095 -18.712626
vt 0.2985 0.9051
vt 0.5970 0.9051
vt 0.5970 1.0000
vt 0.2985 1.0000
vt 0.2985 0.7103
vt 0.5970 0.7103
vt 0.2985 0.6154
vt 0.5970 0.6154
vn 0.2362 0.9704 -0.0509
vn 0.0000 0.9986 -0.0523
vn -0.2362 0.9704 -0.0509
usemtl Material_blk_concrete01_dif.tga
s off
f 706/1017/372 705/1018/372 712/1019/372 711/1020/372
f 706/1017/373 707/1021/373 708/1022/373 705/1018/373
f 707/1021/374 709/1023/374 710/1024/374 708/1022/374
o Cube.010
v 1.234006 0.140494 -18.728327
v 1.234006 0.035822 -20.725586
v 3.765994 0.035822 -20.725586
v 3.765994 0.140494 -18.728327
v 5.000000 -0.159095 -18.712626
v 5.000000 -0.263767 -20.709885
v 0.000000 -0.159095 -18.712626
v 0.000000 -0.263767 -20.709885
vt 0.2985 0.2897
vt 0.2985 0.0949
vt 0.5970 0.0949
vt 0.5970 0.2897
vt 0.2985 0.3846
vt 0.5970 0.3846
vt 0.2985 0.0000
vt 0.5970 0.0000
vn 0.0000 0.9986 -0.0523
vn 0.2362 0.9704 -0.0509
vn -0.2362 0.9704 -0.0509
usemtl Material_blk_concrete01_dif.tga
s off
f 715/1025/375 714/1026/375 713/1027/375 716/1028/375
f 718/1029/376 715/1025/376 716/1028/376 717/1030/376
f 713/1027/377 714/1026/377 720/1031/377 719/1032/377
o Cube.007
v 1.234006 0.423190 -10.866516
v 1.234006 0.370836 -12.865831
v 3.765994 0.370836 -12.865831
v 3.765994 0.423190 -10.866516
v 5.000000 0.123293 -10.858664
v 5.000000 0.070939 -12.857978
v 0.000000 0.123293 -10.858664
v 0.000000 0.070939 -12.857978
vt 0.2985 0.2897
vt 0.2985 0.0949
vt 0.5970 0.0949
vt 0.5970 0.2897
vt 0.2985 0.3846
vt 0.5970 0.3846
vt 0.2985 0.0000
vt 0.5970 0.0000
vn 0.0000 0.9997 -0.0262
vn 0.2362 0.9714 -0.0254
vn -0.2362 0.9714 -0.0254
usemtl Material_blk_concrete01_dif.tga
s off
f 723/1033/378 722/1034/378 721/1035/378 724/1036/378
f 726/1037/379 723/1033/379 724/1036/379 725/1038/379
f 721/1035/380 722/1034/380 728/1039/380 727/1040/380
o Cube.006
v 11.765994 0.423190 -10.866516
v 11.765994 0.370836 -12.865831
v 9.234006 0.370836 -12.865831
v 9.234006 0.423190 -10.866516
v 8.000000 0.070939 -12.857978
v 8.000000 0.123293 -10.858664
v 13.000000 0.070939 -12.857978
v 13.000000 0.123293 -10.858664
vt 0.2985 0.9051
vt 0.5970 0.9051
vt 0.5970 1.0000
vt 0.2985 1.0000
vt 0.2985 0.7103
vt 0.5970 0.7103
vt 0.2985 0.6154
vt 0.5970 0.6154
vn 0.2362 0.9714 -0.0254
vn 0.0000 0.9997 -0.0262
vn -0.2362 0.9714 -0.0254
usemtl Material_blk_concrete01_dif.tga
s off
f 730/1041/381 729/1042/381 736/1043/381 735/1044/381
f 730/1041/382 731/1045/382 732/1046/382 729/1042/382
f 731/1045/383 733/1047/383 734/1048/383 732/1046/383
o Cube.005
v 0.000000 -0.628821 -12.839654
v 0.000000 -0.576467 -10.840340
v 0.000000 0.123293 -10.858664
v 0.000000 0.070939 -12.857978
v 13.000000 0.070939 -12.857978
v 13.000000 -0.628821 -12.839654
v 13.000000 -0.576467 -10.840340
v 13.000000 0.123293 -10.858664
vt 0.0000 1.0000
vt 0.0000 0.0000
vt 0.2985 0.0000
vt 0.2985 1.0000
vt 1.0000 0.1538
vt 0.8955 0.1538
vt 0.8955 0.0000
vt 1.0000 0.0000
vt 1.0000 0.3077
vt 0.8955 0.3077
vt 0.8955 0.1538
vt 1.0000 0.1538
vn 0.0000 -0.9997 0.0262
vn -1.0000 0.0000 0.0000
vn 1.0000 0.0000 0.0000
usemtl Material_blk_concrete01_dif.tga
s off
f 737/1049/384 742/1050/384 743/1051/384 738/1052/384
f 738/1053/385 739/1054/385 740/1055/385 737/1056/385
f 742/1057/386 741/1058/386 744/1059/386 743/1060/386
o Cube.004
v 0.000000 -0.500000 -5.000000
v 0.000000 -0.500000 -3.000000
v 0.000000 0.200000 -3.000000
v 0.000000 0.200000 -5.000000
v 13.000000 0.200000 -5.000000
v 13.000000 -0.500000 -5.000000
v 13.000000 -0.500000 -3.000000
v 13.000000 0.200000 -3.000000
vt 0.0000 1.0000
vt 0.0000 0.0000
vt 0.2985 0.0000
vt 0.2985 1.0000
vt 1.0000 0.1538
vt 0.8955 0.1538
vt 0.8955 0.0000
vt 1.0000 0.0000
vt 1.0000 0.3077
vt 0.8955 0.3077
vt 0.8955 0.1538
vt 1.0000 0.1538
vn 0.0000 -1.0000 0.0000
vn -1.0000 0.0000 0.0000
vn 1.0000 0.0000 0.0000
usemtl Material_blk_concrete01_dif.tga
s off
f 745/1061/387 750/1062/387 751/1063/387 746/1064/387
f 746/1065/388 747/1066/388 748/1067/388 745/1068/388
f 750/1069/389 749/1070/389 752/1071/389 751/1072/389
o Cube.003
v 11.765994 0.500000 -3.000000
v 11.765994 0.500000 -5.000000
v 9.234006 0.500000 -5.000000
v 9.234006 0.500000 -3.000000
v 8.000000 0.200000 -5.000000
v 8.000000 0.200000 -3.000000
v 13.000000 0.200000 -5.000000
v 13.000000 0.200000 -3.000000
vt 0.2985 0.9051
vt 0.5970 0.9051
vt 0.5970 1.0000
vt 0.2985 1.0000
vt 0.2985 0.7103
vt 0.5970 0.7103
vt 0.2985 0.6154
vt 0.5970 0.6154
vn 0.2362 0.9717 0.0000
vn 0.0000 1.0000 0.0000
vn -0.2362 0.9717 0.0000
usemtl Material_blk_concrete01_dif.tga
s off
f 754/1073/390 753/1074/390 760/1075/390 759/1076/390
f 754/1073/391 755/1077/391 756/1078/391 753/1074/391
f 755/1077/392 757/1079/392 758/1080/392 756/1078/392
o Cube.002_Cube.001
v 1.234006 0.500000 -3.000000
v 1.234006 0.500000 -5.000000
v 3.765994 0.500000 -5.000000
v 3.765994 0.500000 -3.000000
v 5.000000 0.200000 -3.000000
v 5.000000 0.200000 -5.000000
v 0.000000 0.200000 -3.000000
v 0.000000 0.200000 -5.000000
vt 0.2985 0.2897
vt 0.2985 0.0949
vt 0.5970 0.0949
vt 0.5970 0.2897
vt 0.2985 0.3846
vt 0.5970 0.3846
vt 0.2985 0.0000
vt 0.5970 0.0000
vn 0.0000 1.0000 0.0000
vn 0.2362 0.9717 0.0000
vn -0.2362 0.9717 0.0000
usemtl Material_blk_concrete01_dif.tga
s off
f 763/1081/393 762/1082/393 761/1083/393 764/1084/393
f 766/1085/394 763/1081/394 764/1084/394 765/1086/394
f 761/1083/395 762/1082/395 768/1087/395 767/1088/395
