# Blender v2.78 (sub 0) OBJ File: 'RailLine.blend'
# www.blender.org
mtllib RailLine_col.mtl
o Cube.005_Cube.027
v 10.656177 0.955870 -64.000000
v 10.656177 0.955870 0.000000
v 10.343823 0.955870 -0.000001
v 10.343824 0.955870 -64.000000
v 10.722988 1.905697 -63.999992
v 10.722988 1.905697 0.000006
v 10.277012 1.905697 -0.000001
v 10.277012 1.905697 -64.000000
v 10.852067 1.606315 -63.999996
v 10.825857 1.539268 -63.999996
v 10.825857 1.539268 0.000003
v 10.852066 1.606315 0.000003
v 10.147933 1.606315 -0.000001
v 10.174143 1.539268 -0.000001
v 10.174143 1.539268 -64.000000
v 10.147933 1.606315 -64.000000
v 10.827013 1.872461 -63.999992
v 10.852067 1.830535 -63.999992
v 10.852066 1.830535 0.000006
v 10.827012 1.872461 0.000006
v 10.172987 1.872461 -0.000003
v 10.147933 1.830535 -0.000003
v 10.147933 1.830535 -64.000000
v 10.172987 1.872461 -64.000000
v 10.680851 1.491614 -63.999996
v 10.656177 1.447078 -63.999996
v 10.656176 1.447078 0.000003
v 10.680851 1.491614 0.000003
v 10.319149 1.491614 -0.000001
v 10.343823 1.447078 -0.000001
v 10.343824 1.447078 -64.000000
v 10.319149 1.491614 -64.000000
vt 0.1509 0.7307
vt 0.1509 0.7057
vt 0.1513 0.7057
vt 0.1513 0.7307
vt 0.1042 0.6592
vt 0.1051 0.6592
vt 0.1051 0.6842
vt 0.1042 0.6842
vt 0.1528 0.7307
vt 0.1514 0.7307
vt 0.1514 0.7057
vt 0.1528 0.7057
vt 0.1646 0.7057
vt 0.1650 0.7057
vt 0.1650 0.7307
vt 0.1646 0.7307
vt 0.1544 0.7057
vt 0.1558 0.7057
vt 0.1558 0.7307
vt 0.1544 0.7307
vt 0.1646 0.7307
vt 0.1642 0.7307
vt 0.1642 0.7057
vt 0.1646 0.7057
vt 0.1591 0.7307
vt 0.1585 0.7307
vt 0.1585 0.7057
vt 0.1591 0.7057
vt 0.1605 0.7057
vt 0.1611 0.7057
vt 0.1611 0.7307
vt 0.1605 0.7307
vt 0.1603 0.7307
vt 0.1603 0.7057
vt 0.1593 0.7057
vt 0.1593 0.7307
vt 0.1584 0.7307
vt 0.1584 0.7057
vt 0.1612 0.7057
vt 0.1612 0.7307
vt 0.1499 0.7057
vt 0.1499 0.7307
vt 0.1495 0.7307
vt 0.1495 0.7057
vt 0.1513 0.7307
vt 0.1513 0.7057
vt 0.1559 0.7057
vt 0.1559 0.7307
vn -0.1540 0.9881 0.0000
vn -0.6215 0.7834 0.0000
vn 0.1540 0.9881 0.0000
vn 1.0000 0.0000 0.0000
vn 0.9682 -0.2503 0.0000
vn -0.6374 -0.7705 -0.0000
vn -0.6873 -0.7263 0.0000
vn -1.0000 0.0000 -0.0000
vn -0.9682 -0.2503 -0.0000
vn 0.6374 -0.7705 0.0000
vn 0.6874 -0.7263 0.0000
vn 0.9827 -0.1852 0.0000
vn 0.9640 0.2661 0.0000
vn -0.9827 -0.1853 0.0000
vn -0.9640 0.2661 0.0000
vn 0.6215 0.7834 0.0000
usemtl Material
s 1
f 7/1/1 8/2/1 24/3/2 21/4/2
f 5/5/3 8/6/1 7/7/1 6/8/3
f 1/9/4 26/10/5 27/11/5 2/12/4
f 29/13/6 14/14/7 15/15/7 32/16/6
f 3/17/8 30/18/9 31/19/9 4/20/8
f 25/21/10 10/22/11 11/23/11 28/24/10
f 9/25/12 18/26/13 19/27/13 12/28/12
f 13/29/14 22/30/15 23/31/15 16/32/14
f 13/29/14 16/32/14 15/33/7 14/34/7
f 9/25/12 12/28/12 11/35/11 10/36/11
f 19/27/13 18/26/13 17/37/16 20/38/16
f 23/31/15 22/30/15 21/39/2 24/40/2
f 5/41/3 6/42/3 20/43/16 17/44/16
f 25/45/10 28/46/10 27/11/5 26/10/5
f 29/47/6 32/48/6 31/19/9 30/18/9
o Cube.026
v 1.234006 0.500000 -59.000000
v 1.234006 0.500000 -61.000000
v 3.765994 0.500000 -61.000000
v 3.765994 0.500000 -59.000000
v 5.000000 0.200000 -59.000000
v 5.000000 0.200000 -61.000000
v 0.000000 0.200000 -59.000000
v 0.000000 0.200000 -61.000000
vt 0.2985 0.2897
vt 0.2985 0.0949
vt 0.5970 0.0949
vt 0.5970 0.2897
vt 0.2985 0.3846
vt 0.5970 0.3846
vt 0.2985 0.0000
vt 0.5970 0.0000
vn 0.0000 1.0000 0.0000
vn 0.2362 0.9717 0.0000
vn -0.2362 0.9717 0.0000
usemtl Material_blk_concrete01_dif.tga
s off
f 35/49/17 34/50/17 33/51/17 36/52/17
f 38/53/18 35/49/18 36/52/18 37/54/18
f 33/51/19 34/50/19 40/55/19 39/56/19
o Cube.025
v 11.765994 0.500000 -59.000000
v 11.765994 0.500000 -61.000000
v 9.234006 0.500000 -61.000000
v 9.234006 0.500000 -59.000000
v 8.000000 0.200000 -61.000000
v 8.000000 0.200000 -59.000000
v 13.000000 0.200000 -61.000000
v 13.000000 0.200000 -59.000000
vt 0.2985 0.9051
vt 0.5970 0.9051
vt 0.5970 1.0000
vt 0.2985 1.0000
vt 0.2985 0.7103
vt 0.5970 0.7103
vt 0.2985 0.6154
vt 0.5970 0.6154
vn 0.2362 0.9717 0.0000
vn 0.0000 1.0000 0.0000
vn -0.2362 0.9717 0.0000
usemtl Material_blk_concrete01_dif.tga
s off
f 42/57/20 41/58/20 48/59/20 47/60/20
f 42/57/21 43/61/21 44/62/21 41/58/21
f 43/61/22 45/63/22 46/64/22 44/62/22
o Cube.024
v 0.000000 -0.500000 -61.000000
v 0.000000 -0.500000 -59.000000
v 0.000000 0.200000 -59.000000
v 0.000000 0.200000 -61.000000
v 13.000000 0.200000 -61.000000
v 13.000000 -0.500000 -61.000000
v 13.000000 -0.500000 -59.000000
v 13.000000 0.200000 -59.000000
vt 0.0000 1.0000
vt 0.0000 0.0000
vt 0.2985 0.0000
vt 0.2985 1.0000
vt 1.0000 0.1538
vt 0.8955 0.1538
vt 0.8955 0.0000
vt 1.0000 0.0000
vt 1.0000 0.3077
vt 0.8955 0.3077
vt 0.8955 0.1538
vt 1.0000 0.1538
vn 0.0000 -1.0000 0.0000
vn -1.0000 0.0000 0.0000
vn 1.0000 0.0000 0.0000
usemtl Material_blk_concrete01_dif.tga
s off
f 49/65/23 54/66/23 55/67/23 50/68/23
f 50/69/24 51/70/24 52/71/24 49/72/24
f 54/73/25 53/74/25 56/75/25 55/76/25
o Cube.023
v 0.000000 -0.500000 -53.000000
v 0.000000 -0.500000 -51.000000
v 0.000000 0.200000 -51.000000
v 0.000000 0.200000 -53.000000
v 13.000000 0.200000 -53.000000
v 13.000000 -0.500000 -53.000000
v 13.000000 -0.500000 -51.000000
v 13.000000 0.200000 -51.000000
vt 0.0000 1.0000
vt 0.0000 0.0000
vt 0.2985 0.0000
vt 0.2985 1.0000
vt 1.0000 0.1538
vt 0.8955 0.1538
vt 0.8955 0.0000
vt 1.0000 0.0000
vt 1.0000 0.3077
vt 0.8955 0.3077
vt 0.8955 0.1538
vt 1.0000 0.1538
vn 0.0000 -1.0000 0.0000
vn -1.0000 0.0000 0.0000
vn 1.0000 0.0000 0.0000
usemtl Material_blk_concrete01_dif.tga
s off
f 57/77/26 62/78/26 63/79/26 58/80/26
f 58/81/27 59/82/27 60/83/27 57/84/27
f 62/85/28 61/86/28 64/87/28 63/88/28
o Cube.022
v 11.765994 0.500000 -51.000000
v 11.765994 0.500000 -53.000000
v 9.234006 0.500000 -53.000000
v 9.234006 0.500000 -51.000000
v 8.000000 0.200000 -53.000000
v 8.000000 0.200000 -51.000000
v 13.000000 0.200000 -53.000000
v 13.000000 0.200000 -51.000000
vt 0.2985 0.9051
vt 0.5970 0.9051
vt 0.5970 1.0000
vt 0.2985 1.0000
vt 0.2985 0.7103
vt 0.5970 0.7103
vt 0.2985 0.6154
vt 0.5970 0.6154
vn 0.2362 0.9717 0.0000
vn 0.0000 1.0000 0.0000
vn -0.2362 0.9717 0.0000
usemtl Material_blk_concrete01_dif.tga
s off
f 66/89/29 65/90/29 72/91/29 71/92/29
f 66/89/30 67/93/30 68/94/30 65/90/30
f 67/93/31 69/95/31 70/96/31 68/94/31
o Cube.021
v 1.234006 0.500000 -51.000000
v 1.234006 0.500000 -53.000000
v 3.765994 0.500000 -53.000000
v 3.765994 0.500000 -51.000000
v 5.000000 0.200000 -51.000000
v 5.000000 0.200000 -53.000000
v 0.000000 0.200000 -51.000000
v 0.000000 0.200000 -53.000000
vt 0.2985 0.2897
vt 0.2985 0.0949
vt 0.5970 0.0949
vt 0.5970 0.2897
vt 0.2985 0.3846
vt 0.5970 0.3846
vt 0.2985 0.0000
vt 0.5970 0.0000
vn 0.0000 1.0000 0.0000
vn 0.2362 0.9717 0.0000
vn -0.2362 0.9717 0.0000
usemtl Material_blk_concrete01_dif.tga
s off
f 75/97/32 74/98/32 73/99/32 76/100/32
f 78/101/33 75/97/33 76/100/33 77/102/33
f 73/99/34 74/98/34 80/103/34 79/104/34
o Cube.020
v 1.234006 0.500000 -43.000000
v 1.234006 0.500000 -45.000000
v 3.765994 0.500000 -45.000000
v 3.765994 0.500000 -43.000000
v 5.000000 0.200000 -43.000000
v 5.000000 0.200000 -45.000000
v 0.000000 0.200000 -43.000000
v 0.000000 0.200000 -45.000000
vt 0.2985 0.2897
vt 0.2985 0.0949
vt 0.5970 0.0949
vt 0.5970 0.2897
vt 0.2985 0.3846
vt 0.5970 0.3846
vt 0.2985 0.0000
vt 0.5970 0.0000
vn 0.0000 1.0000 0.0000
vn 0.2362 0.9717 0.0000
vn -0.2362 0.9717 0.0000
usemtl Material_blk_concrete01_dif.tga
s off
f 83/105/35 82/106/35 81/107/35 84/108/35
f 86/109/36 83/105/36 84/108/36 85/110/36
f 81/107/37 82/106/37 88/111/37 87/112/37
o Cube.019
v 11.765994 0.500000 -43.000000
v 11.765994 0.500000 -45.000000
v 9.234006 0.500000 -45.000000
v 9.234006 0.500000 -43.000000
v 8.000000 0.200000 -45.000000
v 8.000000 0.200000 -43.000000
v 13.000000 0.200000 -45.000000
v 13.000000 0.200000 -43.000000
vt 0.2985 0.9051
vt 0.5970 0.9051
vt 0.5970 1.0000
vt 0.2985 1.0000
vt 0.2985 0.7103
vt 0.5970 0.7103
vt 0.2985 0.6154
vt 0.5970 0.6154
vn 0.2362 0.9717 0.0000
vn 0.0000 1.0000 0.0000
vn -0.2362 0.9717 0.0000
usemtl Material_blk_concrete01_dif.tga
s off
f 90/113/38 89/114/38 96/115/38 95/116/38
f 90/113/39 91/117/39 92/118/39 89/114/39
f 91/117/40 93/119/40 94/120/40 92/118/40
o Cube.018
v 0.000000 -0.500000 -45.000000
v 0.000000 -0.500000 -43.000000
v 0.000000 0.200000 -43.000000
v 0.000000 0.200000 -45.000000
v 13.000000 0.200000 -45.000000
v 13.000000 -0.500000 -45.000000
v 13.000000 -0.500000 -43.000000
v 13.000000 0.200000 -43.000000
vt 0.0000 1.0000
vt 0.0000 0.0000
vt 0.2985 0.0000
vt 0.2985 1.0000
vt 1.0000 0.1538
vt 0.8955 0.1538
vt 0.8955 0.0000
vt 1.0000 0.0000
vt 1.0000 0.3077
vt 0.8955 0.3077
vt 0.8955 0.1538
vt 1.0000 0.1538
vn 0.0000 -1.0000 0.0000
vn -1.0000 0.0000 0.0000
vn 1.0000 0.0000 0.0000
usemtl Material_blk_concrete01_dif.tga
s off
f 97/121/41 102/122/41 103/123/41 98/124/41
f 98/125/42 99/126/42 100/127/42 97/128/42
f 102/129/43 101/130/43 104/131/43 103/132/43
o Cube.017
v 0.000000 -0.500000 -37.000000
v 0.000000 -0.500000 -35.000000
v 0.000000 0.200000 -35.000000
v 0.000000 0.200000 -37.000000
v 13.000000 0.200000 -37.000000
v 13.000000 -0.500000 -37.000000
v 13.000000 -0.500000 -35.000000
v 13.000000 0.200000 -35.000000
vt 0.0000 1.0000
vt 0.0000 0.0000
vt 0.2985 0.0000
vt 0.2985 1.0000
vt 1.0000 0.1538
vt 0.8955 0.1538
vt 0.8955 0.0000
vt 1.0000 0.0000
vt 1.0000 0.3077
vt 0.8955 0.3077
vt 0.8955 0.1538
vt 1.0000 0.1538
vn 0.0000 -1.0000 0.0000
vn -1.0000 0.0000 0.0000
vn 1.0000 0.0000 0.0000
usemtl Material_blk_concrete01_dif.tga
s off
f 105/133/44 110/134/44 111/135/44 106/136/44
f 106/137/45 107/138/45 108/139/45 105/140/45
f 110/141/46 109/142/46 112/143/46 111/144/46
o Cube.016
v 11.765994 0.500000 -35.000000
v 11.765994 0.500000 -37.000000
v 9.234006 0.500000 -37.000000
v 9.234006 0.500000 -35.000000
v 8.000000 0.200000 -37.000000
v 8.000000 0.200000 -35.000000
v 13.000000 0.200000 -37.000000
v 13.000000 0.200000 -35.000000
vt 0.2985 0.9051
vt 0.5970 0.9051
vt 0.5970 1.0000
vt 0.2985 1.0000
vt 0.2985 0.7103
vt 0.5970 0.7103
vt 0.2985 0.6154
vt 0.5970 0.6154
vn 0.2362 0.9717 0.0000
vn 0.0000 1.0000 0.0000
vn -0.2362 0.9717 0.0000
usemtl Material_blk_concrete01_dif.tga
s off
f 114/145/47 113/146/47 120/147/47 119/148/47
f 114/145/48 115/149/48 116/150/48 113/146/48
f 115/149/49 117/151/49 118/152/49 116/150/49
o Cube.015
v 1.234006 0.500000 -35.000000
v 1.234006 0.500000 -37.000000
v 3.765994 0.500000 -37.000000
v 3.765994 0.500000 -35.000000
v 5.000000 0.200000 -35.000000
v 5.000000 0.200000 -37.000000
v 0.000000 0.200000 -35.000000
v 0.000000 0.200000 -37.000000
vt 0.2985 0.2897
vt 0.2985 0.0949
vt 0.5970 0.0949
vt 0.5970 0.2897
vt 0.2985 0.3846
vt 0.5970 0.3846
vt 0.2985 0.0000
vt 0.5970 0.0000
vn 0.0000 1.0000 0.0000
vn 0.2362 0.9717 0.0000
vn -0.2362 0.9717 0.0000
usemtl Material_blk_concrete01_dif.tga
s off
f 123/153/50 122/154/50 121/155/50 124/156/50
f 126/157/51 123/153/51 124/156/51 125/158/51
f 121/155/52 122/154/52 128/159/52 127/160/52
o Cube.014
v 1.234006 0.500000 -27.000000
v 1.234006 0.500000 -29.000000
v 3.765994 0.500000 -29.000000
v 3.765994 0.500000 -27.000000
v 5.000000 0.200000 -27.000000
v 5.000000 0.200000 -29.000000
v 0.000000 0.200000 -27.000000
v 0.000000 0.200000 -29.000000
vt 0.2985 0.2897
vt 0.2985 0.0949
vt 0.5970 0.0949
vt 0.5970 0.2897
vt 0.2985 0.3846
vt 0.5970 0.3846
vt 0.2985 0.0000
vt 0.5970 0.0000
vn 0.0000 1.0000 0.0000
vn 0.2362 0.9717 0.0000
vn -0.2362 0.9717 0.0000
usemtl Material_blk_concrete01_dif.tga
s off
f 131/161/53 130/162/53 129/163/53 132/164/53
f 134/165/54 131/161/54 132/164/54 133/166/54
f 129/163/55 130/162/55 136/167/55 135/168/55
o Cube.013
v 11.765994 0.500000 -27.000000
v 11.765994 0.500000 -29.000000
v 9.234006 0.500000 -29.000000
v 9.234006 0.500000 -27.000000
v 8.000000 0.200000 -29.000000
v 8.000000 0.200000 -27.000000
v 13.000000 0.200000 -29.000000
v 13.000000 0.200000 -27.000000
vt 0.2985 0.9051
vt 0.5970 0.9051
vt 0.5970 1.0000
vt 0.2985 1.0000
vt 0.2985 0.7103
vt 0.5970 0.7103
vt 0.2985 0.6154
vt 0.5970 0.6154
vn 0.2362 0.9717 0.0000
vn 0.0000 1.0000 0.0000
vn -0.2362 0.9717 0.0000
usemtl Material_blk_concrete01_dif.tga
s off
f 138/169/56 137/170/56 144/171/56 143/172/56
f 138/169/57 139/173/57 140/174/57 137/170/57
f 139/173/58 141/175/58 142/176/58 140/174/58
o Cube.012
v 0.000000 -0.500000 -29.000000
v 0.000000 -0.500000 -27.000000
v 0.000000 0.200000 -27.000000
v 0.000000 0.200000 -29.000000
v 13.000000 0.200000 -29.000000
v 13.000000 -0.500000 -29.000000
v 13.000000 -0.500000 -27.000000
v 13.000000 0.200000 -27.000000
vt 0.0000 1.0000
vt 0.0000 0.0000
vt 0.2985 0.0000
vt 0.2985 1.0000
vt 1.0000 0.1538
vt 0.8955 0.1538
vt 0.8955 0.0000
vt 1.0000 0.0000
vt 1.0000 0.3077
vt 0.8955 0.3077
vt 0.8955 0.1538
vt 1.0000 0.1538
vn 0.0000 -1.0000 0.0000
vn -1.0000 0.0000 0.0000
vn 1.0000 0.0000 0.0000
usemtl Material_blk_concrete01_dif.tga
s off
f 145/177/59 150/178/59 151/179/59 146/180/59
f 146/181/60 147/182/60 148/183/60 145/184/60
f 150/185/61 149/186/61 152/187/61 151/188/61
o Cube.011
v 0.000000 -0.500000 -21.000000
v 0.000000 -0.500000 -19.000000
v 0.000000 0.200000 -19.000000
v 0.000000 0.200000 -21.000000
v 13.000000 0.200000 -21.000000
v 13.000000 -0.500000 -21.000000
v 13.000000 -0.500000 -19.000000
v 13.000000 0.200000 -19.000000
vt 0.0000 1.0000
vt 0.0000 0.0000
vt 0.2985 0.0000
vt 0.2985 1.0000
vt 1.0000 0.1538
vt 0.8955 0.1538
vt 0.8955 0.0000
vt 1.0000 0.0000
vt 1.0000 0.3077
vt 0.8955 0.3077
vt 0.8955 0.1538
vt 1.0000 0.1538
vn 0.0000 -1.0000 0.0000
vn -1.0000 0.0000 0.0000
vn 1.0000 0.0000 0.0000
usemtl Material_blk_concrete01_dif.tga
s off
f 153/189/62 158/190/62 159/191/62 154/192/62
f 154/193/63 155/194/63 156/195/63 153/196/63
f 158/197/64 157/198/64 160/199/64 159/200/64
o Cube.010
v 11.765994 0.500000 -19.000000
v 11.765994 0.500000 -21.000000
v 9.234006 0.500000 -21.000000
v 9.234006 0.500000 -19.000000
v 8.000000 0.200000 -21.000000
v 8.000000 0.200000 -19.000000
v 13.000000 0.200000 -21.000000
v 13.000000 0.200000 -19.000000
vt 0.2985 0.9051
vt 0.5970 0.9051
vt 0.5970 1.0000
vt 0.2985 1.0000
vt 0.2985 0.7103
vt 0.5970 0.7103
vt 0.2985 0.6154
vt 0.5970 0.6154
vn 0.2362 0.9717 0.0000
vn 0.0000 1.0000 0.0000
vn -0.2362 0.9717 0.0000
usemtl Material_blk_concrete01_dif.tga
s off
f 162/201/65 161/202/65 168/203/65 167/204/65
f 162/201/66 163/205/66 164/206/66 161/202/66
f 163/205/67 165/207/67 166/208/67 164/206/67
o Cube.009
v 1.234006 0.500000 -19.000000
v 1.234006 0.500000 -21.000000
v 3.765994 0.500000 -21.000000
v 3.765994 0.500000 -19.000000
v 5.000000 0.200000 -19.000000
v 5.000000 0.200000 -21.000000
v 0.000000 0.200000 -19.000000
v 0.000000 0.200000 -21.000000
vt 0.2985 0.2897
vt 0.2985 0.0949
vt 0.5970 0.0949
vt 0.5970 0.2897
vt 0.2985 0.3846
vt 0.5970 0.3846
vt 0.2985 0.0000
vt 0.5970 0.0000
vn 0.0000 1.0000 0.0000
vn 0.2362 0.9717 0.0000
vn -0.2362 0.9717 0.0000
usemtl Material_blk_concrete01_dif.tga
s off
f 171/209/68 170/210/68 169/211/68 172/212/68
f 174/213/69 171/209/69 172/212/69 173/214/69
f 169/211/70 170/210/70 176/215/70 175/216/70
o Cube.008
v 1.234006 0.500000 -11.000000
v 1.234006 0.500000 -13.000000
v 3.765994 0.500000 -13.000000
v 3.765994 0.500000 -11.000000
v 5.000000 0.200000 -11.000000
v 5.000000 0.200000 -13.000000
v 0.000000 0.200000 -11.000000
v 0.000000 0.200000 -13.000000
vt 0.2985 0.2897
vt 0.2985 0.0949
vt 0.5970 0.0949
vt 0.5970 0.2897
vt 0.2985 0.3846
vt 0.5970 0.3846
vt 0.2985 0.0000
vt 0.5970 0.0000
vn 0.0000 1.0000 0.0000
vn 0.2362 0.9717 0.0000
vn -0.2362 0.9717 0.0000
usemtl Material_blk_concrete01_dif.tga
s off
f 179/217/71 178/218/71 177/219/71 180/220/71
f 182/221/72 179/217/72 180/220/72 181/222/72
f 177/219/73 178/218/73 184/223/73 183/224/73
o Cube.007
v 11.765994 0.500000 -11.000000
v 11.765994 0.500000 -13.000000
v 9.234006 0.500000 -13.000000
v 9.234006 0.500000 -11.000000
v 8.000000 0.200000 -13.000000
v 8.000000 0.200000 -11.000000
v 13.000000 0.200000 -13.000000
v 13.000000 0.200000 -11.000000
vt 0.2985 0.9051
vt 0.5970 0.9051
vt 0.5970 1.0000
vt 0.2985 1.0000
vt 0.2985 0.7103
vt 0.5970 0.7103
vt 0.2985 0.6154
vt 0.5970 0.6154
vn 0.2362 0.9717 0.0000
vn 0.0000 1.0000 0.0000
vn -0.2362 0.9717 0.0000
usemtl Material_blk_concrete01_dif.tga
s off
f 186/225/74 185/226/74 192/227/74 191/228/74
f 186/225/75 187/229/75 188/230/75 185/226/75
f 187/229/76 189/231/76 190/232/76 188/230/76
o Cube.006
v 0.000000 -0.500000 -13.000000
v 0.000000 -0.500000 -11.000000
v 0.000000 0.200000 -11.000000
v 0.000000 0.200000 -13.000000
v 13.000000 0.200000 -13.000000
v 13.000000 -0.500000 -13.000000
v 13.000000 -0.500000 -11.000000
v 13.000000 0.200000 -11.000000
vt 0.0000 1.0000
vt 0.0000 0.0000
vt 0.2985 0.0000
vt 0.2985 1.0000
vt 1.0000 0.1538
vt 0.8955 0.1538
vt 0.8955 0.0000
vt 1.0000 0.0000
vt 1.0000 0.3077
vt 0.8955 0.3077
vt 0.8955 0.1538
vt 1.0000 0.1538
vn 0.0000 -1.0000 0.0000
vn -1.0000 0.0000 0.0000
vn 1.0000 0.0000 0.0000
usemtl Material_blk_concrete01_dif.tga
s off
f 193/233/77 198/234/77 199/235/77 194/236/77
f 194/237/78 195/238/78 196/239/78 193/240/78
f 198/241/79 197/242/79 200/243/79 199/244/79
o Cube.004
v 0.000000 -0.500000 -5.000000
v 0.000000 -0.500000 -3.000000
v 0.000000 0.200000 -3.000000
v 0.000000 0.200000 -5.000000
v 13.000000 0.200000 -5.000000
v 13.000000 -0.500000 -5.000000
v 13.000000 -0.500000 -3.000000
v 13.000000 0.200000 -3.000000
vt 0.0000 1.0000
vt 0.0000 0.0000
vt 0.2985 0.0000
vt 0.2985 1.0000
vt 1.0000 0.1538
vt 0.8955 0.1538
vt 0.8955 0.0000
vt 1.0000 0.0000
vt 1.0000 0.3077
vt 0.8955 0.3077
vt 0.8955 0.1538
vt 1.0000 0.1538
vn 0.0000 -1.0000 0.0000
vn -1.0000 0.0000 0.0000
vn 1.0000 0.0000 0.0000
usemtl Material_blk_concrete01_dif.tga
s off
f 201/245/80 206/246/80 207/247/80 202/248/80
f 202/249/81 203/250/81 204/251/81 201/252/81
f 206/253/82 205/254/82 208/255/82 207/256/82
o Cube.003
v 11.765994 0.500000 -3.000000
v 11.765994 0.500000 -5.000000
v 9.234006 0.500000 -5.000000
v 9.234006 0.500000 -3.000000
v 8.000000 0.200000 -5.000000
v 8.000000 0.200000 -3.000000
v 13.000000 0.200000 -5.000000
v 13.000000 0.200000 -3.000000
vt 0.2985 0.9051
vt 0.5970 0.9051
vt 0.5970 1.0000
vt 0.2985 1.0000
vt 0.2985 0.7103
vt 0.5970 0.7103
vt 0.2985 0.6154
vt 0.5970 0.6154
vn 0.2362 0.9717 0.0000
vn 0.0000 1.0000 0.0000
vn -0.2362 0.9717 0.0000
usemtl Material_blk_concrete01_dif.tga
s off
f 210/257/83 209/258/83 216/259/83 215/260/83
f 210/257/84 211/261/84 212/262/84 209/258/84
f 211/261/85 213/263/85 214/264/85 212/262/85
o Cube.002_Cube.001
v 1.234006 0.500000 -3.000000
v 1.234006 0.500000 -5.000000
v 3.765994 0.500000 -5.000000
v 3.765994 0.500000 -3.000000
v 5.000000 0.200000 -3.000000
v 5.000000 0.200000 -5.000000
v 0.000000 0.200000 -3.000000
v 0.000000 0.200000 -5.000000
vt 0.2985 0.2897
vt 0.2985 0.0949
vt 0.5970 0.0949
vt 0.5970 0.2897
vt 0.2985 0.3846
vt 0.5970 0.3846
vt 0.2985 0.0000
vt 0.5970 0.0000
vn 0.0000 1.0000 0.0000
vn 0.2362 0.9717 0.0000
vn -0.2362 0.9717 0.0000
usemtl Material_blk_concrete01_dif.tga
s off
f 219/265/86 218/266/86 217/267/86 220/268/86
f 222/269/87 219/265/87 220/268/87 221/270/87
f 217/267/88 218/266/88 224/271/88 223/272/88
o Cube
v 2.656177 0.955870 -64.000000
v 2.656176 0.955870 0.000000
v 2.343823 0.955870 -0.000001
v 2.343824 0.955870 -64.000000
v 2.722989 1.905697 -63.999992
v 2.722988 1.905697 0.000006
v 2.277011 1.905697 -0.000001
v 2.277012 1.905697 -64.000000
v 2.852067 1.606315 -63.999996
v 2.825857 1.539268 -63.999996
v 2.825857 1.539268 0.000003
v 2.852067 1.606315 0.000003
v 2.147933 1.606315 -0.000001
v 2.174143 1.539268 -0.000001
v 2.174143 1.539268 -64.000000
v 2.147933 1.606315 -64.000000
v 2.827013 1.872461 -63.999992
v 2.852067 1.830535 -63.999992
v 2.852067 1.830535 0.000006
v 2.827012 1.872461 0.000006
v 2.172987 1.872461 -0.000003
v 2.147933 1.830535 -0.000003
v 2.147933 1.830535 -64.000000
v 2.172987 1.872461 -64.000000
v 2.680851 1.491614 -63.999996
v 2.656177 1.447078 -63.999996
v 2.656176 1.447078 0.000003
v 2.680851 1.491614 0.000003
v 2.319149 1.491614 -0.000001
v 2.343823 1.447078 -0.000001
v 2.343824 1.447078 -64.000000
v 2.319149 1.491614 -64.000000
vt 0.1509 0.7307
vt 0.1509 0.7057
vt 0.1513 0.7057
vt 0.1513 0.7307
vt 0.1042 0.6592
vt 0.1051 0.6592
vt 0.1051 0.6842
vt 0.1042 0.6842
vt 0.1528 0.7307
vt 0.1514 0.7307
vt 0.1514 0.7057
vt 0.1528 0.7057
vt 0.1646 0.7057
vt 0.1650 0.7057
vt 0.1650 0.7307
vt 0.1646 0.7307
vt 0.1544 0.7057
vt 0.1558 0.7057
vt 0.1558 0.7307
vt 0.1544 0.7307
vt 0.1646 0.7307
vt 0.1642 0.7307
vt 0.1642 0.7057
vt 0.1646 0.7057
vt 0.1591 0.7307
vt 0.1585 0.7307
vt 0.1585 0.7057
vt 0.1591 0.7057
vt 0.1605 0.7057
vt 0.1611 0.7057
vt 0.1611 0.7307
vt 0.1605 0.7307
vt 0.1603 0.7307
vt 0.1603 0.7057
vt 0.1593 0.7057
vt 0.1593 0.7307
vt 0.1584 0.7307
vt 0.1584 0.7057
vt 0.1612 0.7057
vt 0.1612 0.7307
vt 0.1499 0.7057
vt 0.1499 0.7307
vt 0.1495 0.7307
vt 0.1495 0.7057
vt 0.1513 0.7307
vt 0.1513 0.7057
vt 0.1559 0.7057
vt 0.1559 0.7307
vn -0.1540 0.9881 -0.0000
vn -0.6215 0.7834 -0.0000
vn 0.1540 0.9881 0.0000
vn 1.0000 0.0000 0.0000
vn 0.9682 -0.2503 0.0000
vn -0.6374 -0.7705 -0.0000
vn -0.6873 -0.7263 0.0000
vn -1.0000 0.0000 -0.0000
vn -0.9682 -0.2503 -0.0000
vn 0.6374 -0.7705 0.0000
vn 0.6873 -0.7263 0.0000
vn 0.9827 -0.1853 0.0000
vn 0.9640 0.2661 0.0000
vn -0.9827 -0.1853 0.0000
vn -0.9640 0.2661 0.0000
vn -0.9827 -0.1852 0.0000
vn 0.6215 0.7834 0.0000
usemtl Material
s 1
f 231/273/89 232/274/89 248/275/90 245/276/90
f 229/277/91 232/278/89 231/279/89 230/280/91
f 225/281/92 250/282/93 251/283/93 226/284/92
f 253/285/94 238/286/95 239/287/95 256/288/94
f 227/289/96 254/290/97 255/291/97 228/292/96
f 249/293/98 234/294/99 235/295/99 252/296/98
f 233/297/100 242/298/101 243/299/101 236/300/100
f 237/301/102 246/302/103 247/303/103 240/304/104
f 237/301/102 240/304/104 239/305/95 238/306/95
f 233/297/100 236/300/100 235/307/99 234/308/99
f 243/299/101 242/298/101 241/309/105 244/310/105
f 247/303/103 246/302/103 245/311/90 248/312/90
f 229/313/91 230/314/91 244/315/105 241/316/105
f 249/317/98 252/318/98 251/283/93 250/282/93
f 253/319/94 256/320/94 255/291/97 254/290/97
