# Blender 4.5.4 LTS
# www.blender.org
g Cube.002_Cube.101_Cube.002_Cube.001
v 41.257507 -0.174359 -77.920799
v 41.257507 -0.174359 -75.920799
v 43.789490 -0.174359 -75.920799
v 43.789490 -0.174359 -77.920799
v 45.023499 -0.474359 -75.920799
v 45.023499 -0.474359 -77.920799
v 40.023499 -0.474359 -75.920799
v 40.023499 -0.474359 -77.920799
s 1
f 2 1 8 7
f 2 3 4 1
f 3 5 6 4
g Cube.002_Cube.102_Cube.002_Cube.102
v -71.171539 0.281516 50.017990
v -71.147026 0.281516 50.329353
v -71.176758 1.231344 49.951363
v -71.141792 1.231344 50.395973
v -71.184868 0.864915 49.848808
v -71.186897 0.931962 49.822708
v -71.131660 0.931962 50.524666
v -71.133705 0.864915 50.498528
v -71.186897 1.156182 49.822693
v -71.184944 1.198108 49.847672
v -71.133621 1.198108 50.499672
v -71.131660 1.156182 50.524666
v -71.171539 0.772725 50.017990
v -71.173462 0.817261 49.993378
v -71.145088 0.817261 50.353951
v -71.147026 0.772725 50.329353
v -81.499985 0.281516 50.343834
v -81.499985 0.281516 50.656151
v -81.499985 1.231344 50.277000
v -81.499985 1.231344 50.722969
v -81.499985 0.864915 50.174126
v -81.499985 0.931962 50.147942
v -81.499985 0.931962 50.852074
v -81.499985 0.864915 50.825844
v -81.499985 1.156182 50.147926
v -81.499985 1.198108 50.172981
v -81.499985 1.198108 50.827003
v -81.499985 1.156182 50.852074
v -81.499985 0.772725 50.343834
v -81.499985 0.817261 50.319145
v -81.499985 0.817261 50.680824
v -81.499985 0.772725 50.656151
s 0
f 15 31 32 16
f 16 32 39 23
f 13 29 30 14
f 10 24 40 26
f 13 22 38 29
f 9 25 37 21
f 21 37 38 22
f 23 39 40 24
f 15 20 36 31
f 12 28 35 19
f 14 30 33 17
f 11 18 34 27
f 19 35 36 20
f 17 33 34 18
f 11 27 28 12
g Cube.002_Cube.103_Cube.002_Cube.103
v -60.929955 0.281516 48.805832
v -60.881088 0.281516 49.114311
v -60.940392 1.231344 48.739822
v -60.870644 1.231344 49.180321
v -60.956520 0.864915 48.638222
v -60.960594 0.931962 48.612358
v -60.850449 0.931962 49.307816
v -60.854538 0.864915 49.281921
v -60.960594 1.156182 48.612343
v -60.956680 1.198108 48.637085
v -60.854362 1.198108 49.283051
v -60.850449 1.156182 49.307816
v -60.929955 0.772725 48.805832
v -60.933807 0.817261 48.781448
v -60.877228 0.817261 49.138680
v -60.881088 0.772725 49.114311
v -71.171539 0.281516 50.017990
v -71.147026 0.281516 50.329353
v -71.176758 1.231344 49.951363
v -71.141792 1.231344 50.395973
v -71.184868 0.864915 49.848808
v -71.186897 0.931962 49.822708
v -71.131660 0.931962 50.524666
v -71.133705 0.864915 50.498528
v -71.186897 1.156182 49.822693
v -71.184944 1.198108 49.847672
v -71.133621 1.198108 50.499672
v -71.131660 1.156182 50.524666
v -71.171539 0.772725 50.017990
v -71.173462 0.817261 49.993378
v -71.145088 0.817261 50.353951
v -71.147026 0.772725 50.329353
s 0
f 46 62 65 49
f 43 50 66 59
f 51 67 68 52
f 49 65 66 50
f 43 59 60 44
f 47 63 64 48
f 48 64 71 55
f 45 61 62 46
f 42 56 72 58
f 45 54 70 61
f 41 57 69 53
f 53 69 70 54
f 55 71 72 56
f 47 52 68 63
f 44 60 67 51
g Cube.002_Cube.104_Cube.002_Cube.104
v -50.815048 0.281516 46.793869
v -50.742126 0.281516 47.097557
v -50.830635 1.231344 46.728874
v -50.726540 1.231344 47.162552
v -50.854675 0.864915 46.628860
v -50.860771 0.931962 46.603394
v -50.696396 0.931962 47.288063
v -50.702507 0.864915 47.262573
v -50.860771 1.156182 46.603378
v -50.854935 1.198108 46.627731
v -50.702248 1.198108 47.263680
v -50.696396 1.156182 47.288063
v -50.815048 0.772725 46.793869
v -50.820801 0.817261 46.769859
v -50.736374 0.817261 47.121552
v -50.742126 0.772725 47.097557
v -60.929955 0.281516 48.805832
v -60.881088 0.281516 49.114311
v -60.940392 1.231344 48.739822
v -60.870644 1.231344 49.180321
v -60.956520 0.864915 48.638222
v -60.960594 0.931962 48.612358
v -60.850449 0.931962 49.307816
v -60.854538 0.864915 49.281921
v -60.960594 1.156182 48.612343
v -60.956680 1.198108 48.637085
v -60.854362 1.198108 49.283051
v -60.850449 1.156182 49.307816
v -60.929955 0.772725 48.805832
v -60.933807 0.817261 48.781448
v -60.877228 0.817261 49.138680
v -60.881088 0.772725 49.114311
s 0
f 74 88 104 90
f 77 86 102 93
f 73 89 101 85
f 85 101 102 86
f 87 103 104 88
f 79 84 100 95
f 76 92 99 83
f 78 94 97 81
f 75 82 98 91
f 83 99 100 84
f 81 97 98 82
f 75 91 92 76
f 79 95 96 80
f 80 96 103 87
f 77 93 94 78
g Cube.002_Cube.105_Cube.002_Cube.105
v -40.889183 0.281515 43.994499
v -40.792656 0.281515 44.291527
v -40.909813 1.231344 43.930931
v -40.772011 1.231344 44.355103
v -40.941628 0.864915 43.833107
v -40.949707 0.931962 43.808197
v -40.732117 0.931961 44.477859
v -40.740211 0.864914 44.452934
v -40.949707 1.156182 43.808182
v -40.941978 1.198107 43.832008
v -40.739868 1.198107 44.454010
v -40.732117 1.156182 44.477859
v -40.889183 0.772725 43.994499
v -40.896797 0.817261 43.971016
v -40.785042 0.817261 44.315002
v -40.792656 0.772725 44.291527
v -50.815048 0.281516 46.793869
v -50.742126 0.281516 47.097557
v -50.830635 1.231344 46.728874
v -50.726540 1.231344 47.162552
v -50.854675 0.864915 46.628860
v -50.860771 0.931962 46.603394
v -50.696396 0.931962 47.288063
v -50.702507 0.864915 47.262573
v -50.860771 1.156182 46.603378
v -50.854935 1.198108 46.627731
v -50.702248 1.198108 47.263680
v -50.696396 1.156182 47.288063
v -50.815048 0.772725 46.793869
v -50.820801 0.817261 46.769859
v -50.736374 0.817261 47.121552
v -50.742126 0.772725 47.097557
s 0
f 113 129 130 114
f 107 123 124 108
f 111 127 128 112
f 112 128 135 119
f 109 125 126 110
f 106 120 136 122
f 109 118 134 125
f 105 121 133 117
f 117 133 134 118
f 119 135 136 120
f 111 116 132 127
f 108 124 131 115
f 110 126 129 113
f 107 114 130 123
f 115 131 132 116
g Cube.002_Cube.106_Cube.002_Cube.106
v -31.213547 0.281515 40.424980
v -31.094009 0.281515 40.713524
v -31.239105 1.231343 40.363228
v -31.068443 1.231343 40.775284
v -31.278496 0.864914 40.268204
v -31.288506 0.931961 40.244003
v -31.019043 0.931961 40.894531
v -31.029068 0.864914 40.870316
v -31.288506 1.156181 40.243988
v -31.278931 1.198107 40.267136
v -31.028641 1.198107 40.871368
v -31.019043 1.156181 40.894531
v -31.213547 0.772724 40.424980
v -31.222977 0.817260 40.402168
v -31.084579 0.817260 40.736328
v -31.094009 0.772724 40.713524
v -40.889183 0.281515 43.994499
v -40.792656 0.281515 44.291527
v -40.909813 1.231344 43.930931
v -40.772011 1.231344 44.355103
v -40.941628 0.864915 43.833107
v -40.949707 0.931962 43.808197
v -40.732117 0.931961 44.477859
v -40.740211 0.864914 44.452934
v -40.949707 1.156182 43.808182
v -40.941978 1.198107 43.832008
v -40.739868 1.198107 44.454010
v -40.732117 1.156182 44.477859
v -40.889183 0.772725 43.994499
v -40.896797 0.817261 43.971016
v -40.785042 0.817261 44.315002
v -40.792656 0.772725 44.291527
s 0
f 143 148 164 159
f 140 156 163 147
f 142 158 161 145
f 139 146 162 155
f 147 163 164 148
f 145 161 162 146
f 139 155 156 140
f 143 159 160 144
f 144 160 167 151
f 141 157 158 142
f 138 152 168 154
f 141 150 166 157
f 137 153 165 149
f 149 165 166 150
f 151 167 168 152
g Cube.002_Cube.107_Cube.002_Cube.107
v -21.847801 0.281515 36.107330
v -21.705994 0.281515 36.385605
v -21.878120 1.231343 36.047775
v -21.675659 1.231343 36.445168
v -21.924843 0.864914 35.956131
v -21.936729 0.931961 35.932785
v -21.617058 0.931961 36.560173
v -21.628952 0.864914 36.536812
v -21.936729 1.156181 35.932777
v -21.925362 1.198107 35.955101
v -21.628433 1.198107 36.537834
v -21.617058 1.156181 36.560173
v -21.847801 0.772724 36.107330
v -21.858994 0.817260 36.085327
v -21.694801 0.817260 36.407600
v -21.705994 0.772724 36.385605
v -31.213547 0.281515 40.424980
v -31.094009 0.281515 40.713524
v -31.239105 1.231343 40.363228
v -31.068443 1.231343 40.775284
v -31.278496 0.864914 40.268204
v -31.288506 0.931961 40.244003
v -31.019043 0.931961 40.894531
v -31.029068 0.864914 40.870316
v -31.288506 1.156181 40.243988
v -31.278931 1.198107 40.267136
v -31.028641 1.198107 40.871368
v -31.019043 1.156181 40.894531
v -31.213547 0.772724 40.424980
v -31.222977 0.817260 40.402168
v -31.084579 0.817260 40.736328
v -31.094009 0.772724 40.713524
s 0
f 173 189 190 174
f 170 184 200 186
f 173 182 198 189
f 169 185 197 181
f 181 197 198 182
f 183 199 200 184
f 175 180 196 191
f 172 188 195 179
f 174 190 193 177
f 171 178 194 187
f 179 195 196 180
f 177 193 194 178
f 171 187 188 172
f 175 191 192 176
f 176 192 199 183
g Cube.002_Cube.108_Cube.002_Cube.108
v -12.849686 0.281515 31.068153
v -12.686478 0.281515 31.334450
v -12.884583 1.231343 31.011162
v -12.651566 1.231343 31.391449
v -12.938347 0.864914 30.923470
v -12.952034 0.931961 30.901131
v -12.584122 0.931961 31.501503
v -12.597816 0.864914 31.479149
v -12.952034 1.156181 30.901123
v -12.938942 1.198107 30.922485
v -12.597214 1.198107 31.480125
v -12.584122 1.156181 31.501503
v -12.849686 0.772724 31.068153
v -12.862572 0.817260 31.047104
v -12.673592 0.817260 31.355499
v -12.686478 0.772724 31.334450
v -21.847801 0.281515 36.107330
v -21.705994 0.281515 36.385605
v -21.878120 1.231343 36.047775
v -21.675659 1.231343 36.445168
v -21.924843 0.864914 35.956131
v -21.936729 0.931961 35.932785
v -21.617058 0.931961 36.560173
v -21.628952 0.864914 36.536812
v -21.936729 1.156181 35.932777
v -21.925362 1.198107 35.955101
v -21.628433 1.198107 36.537834
v -21.617058 1.156181 36.560173
v -21.847801 0.772724 36.107330
v -21.858994 0.817260 36.085327
v -21.694801 0.817260 36.407600
v -21.705994 0.772724 36.385605
s 0
f 211 227 228 212
f 209 225 226 210
f 203 219 220 204
f 207 223 224 208
f 208 224 231 215
f 205 221 222 206
f 202 216 232 218
f 205 214 230 221
f 201 217 229 213
f 213 229 230 214
f 215 231 232 216
f 207 212 228 223
f 204 220 227 211
f 206 222 225 209
f 203 210 226 219
g Cube.002_Cube.109_Cube.002_Cube.109
v -4.274673 0.281515 25.338531
v -4.091080 0.281515 25.591209
v -4.313938 1.231343 25.284454
v -4.051800 1.231343 25.645287
v -4.374413 0.864914 25.201248
v -4.389812 0.931961 25.180054
v -3.975933 0.931961 25.749710
v -3.991333 0.864914 25.728500
v -4.389809 1.156181 25.180046
v -4.375084 1.198107 25.200317
v -3.990658 1.198107 25.729424
v -3.975933 1.156181 25.749710
v -4.274673 0.772724 25.338531
v -4.289173 0.817260 25.318558
v -4.076576 0.817260 25.611176
v -4.091080 0.772724 25.591209
v -12.849686 0.281515 31.068153
v -12.686478 0.281515 31.334450
v -12.884583 1.231343 31.011162
v -12.651566 1.231343 31.391449
v -12.938347 0.864914 30.923470
v -12.952034 0.931961 30.901131
v -12.584122 0.931961 31.501503
v -12.597816 0.864914 31.479149
v -12.952034 1.156181 30.901123
v -12.938942 1.198107 30.922485
v -12.597214 1.198107 31.480125
v -12.584122 1.156181 31.501503
v -12.849686 0.772724 31.068153
v -12.862572 0.817260 31.047104
v -12.673592 0.817260 31.355499
v -12.686478 0.772724 31.334450
s 0
f 233 249 261 245
f 245 261 262 246
f 247 263 264 248
f 239 244 260 255
f 236 252 259 243
f 238 254 257 241
f 235 242 258 251
f 243 259 260 244
f 241 257 258 242
f 235 251 252 236
f 239 255 256 240
f 240 256 263 247
f 237 253 254 238
f 234 248 264 250
f 237 246 262 253
g Cube.002_Cube.110_Cube.002_Cube.110
v 3.824364 0.281515 18.953789
v 4.027218 0.281515 19.191284
v 3.780975 1.231342 18.902954
v 4.070618 1.231342 19.242104
v 3.714161 0.864913 18.824745
v 3.697144 0.931960 18.804825
v 4.154446 0.931960 19.340256
v 4.137428 0.864913 19.320320
v 3.697147 1.156180 18.804817
v 3.713417 1.198106 18.823875
v 4.138168 1.198106 19.321190
v 4.154446 1.156180 19.340256
v 3.824364 0.772723 18.953789
v 3.808342 0.817259 18.935013
v 4.043243 0.817259 19.210045
v 4.027218 0.772723 19.191284
v -4.274673 0.281515 25.338531
v -4.091080 0.281515 25.591209
v -4.313938 1.231343 25.284454
v -4.051800 1.231343 25.645287
v -4.374413 0.864914 25.201248
v -4.389812 0.931961 25.180054
v -3.975933 0.931961 25.749710
v -3.991333 0.864914 25.728500
v -4.389809 1.156181 25.180046
v -4.375084 1.198107 25.200317
v -3.990658 1.198107 25.729424
v -3.975933 1.156181 25.749710
v -4.274673 0.772724 25.338531
v -4.289173 0.817260 25.318558
v -4.076576 0.817260 25.611176
v -4.091080 0.772724 25.591209
s 0
f 271 287 288 272
f 272 288 295 279
f 269 285 286 270
f 266 280 296 282
f 269 278 294 285
f 265 281 293 277
f 277 293 294 278
f 279 295 296 280
f 271 276 292 287
f 268 284 291 275
f 270 286 289 273
f 267 274 290 283
f 275 291 292 276
f 273 289 290 274
f 267 283 284 268
g Cube.002_Cube.111_Cube.002_Cube.111
v 11.397491 0.281514 11.953270
v 11.618355 0.281514 12.174118
v 11.350250 1.231342 11.905998
v 11.665604 1.231342 12.221375
v 11.277504 0.864913 11.833275
v 11.258976 0.931960 11.814751
v 11.756878 0.931960 12.312645
v 11.738350 0.864913 12.294113
v 11.258980 1.156180 11.814743
v 11.276695 1.198106 11.832466
v 11.739155 1.198106 12.294922
v 11.756878 1.156180 12.312645
v 11.397491 0.772723 11.953270
v 11.380047 0.817259 11.935814
v 11.635803 0.817259 12.191566
v 11.618355 0.772723 12.174118
v 3.824364 0.281515 18.953789
v 4.027218 0.281515 19.191284
v 3.780975 1.231342 18.902954
v 4.070618 1.231342 19.242104
v 3.714161 0.864913 18.824745
v 3.697144 0.931960 18.804825
v 4.154446 0.931960 19.340256
v 4.137428 0.864913 19.320320
v 3.697147 1.156180 18.804817
v 3.713417 1.198106 18.823875
v 4.138168 1.198106 19.321190
v 4.154446 1.156180 19.340256
v 3.824364 0.772723 18.953789
v 3.808342 0.817259 18.935013
v 4.043243 0.817259 19.210045
v 4.027218 0.772723 19.191284
s 0
f 302 318 321 305
f 299 306 322 315
f 307 323 324 308
f 305 321 322 306
f 299 315 316 300
f 303 319 320 304
f 304 320 327 311
f 301 317 318 302
f 298 312 328 314
f 301 310 326 317
f 297 313 325 309
f 309 325 326 310
f 311 327 328 312
f 303 308 324 319
f 300 316 323 307
g Cube.002_Cube.112_Cube.002_Cube.112
v 18.398022 0.281514 4.380157
v 18.635532 0.281514 4.583000
v 18.347218 1.231342 4.336746
v 18.686340 1.231342 4.626404
v 18.268990 0.864913 4.269951
v 18.249065 0.931960 4.252937
v 18.784492 0.931960 4.710228
v 18.764572 0.864913 4.693214
v 18.249069 1.156180 4.252930
v 18.268120 1.198106 4.269203
v 18.765438 1.198106 4.693954
v 18.784492 1.156180 4.710228
v 18.398022 0.772723 4.380157
v 18.379261 0.817259 4.364128
v 18.654293 0.817259 4.599030
v 18.635532 0.772723 4.583000
v 11.397491 0.281514 11.953270
v 11.618355 0.281514 12.174118
v 11.350250 1.231342 11.905998
v 11.665604 1.231342 12.221375
v 11.277504 0.864913 11.833275
v 11.258976 0.931960 11.814751
v 11.756878 0.931960 12.312645
v 11.738350 0.864913 12.294113
v 11.258980 1.156180 11.814743
v 11.276695 1.198106 11.832466
v 11.739155 1.198106 12.294922
v 11.756878 1.156180 12.312645
v 11.397491 0.772723 11.953270
v 11.380047 0.817259 11.935814
v 11.635803 0.817259 12.191566
v 11.618355 0.772723 12.174118
s 0
f 333 342 358 349
f 329 345 357 341
f 341 357 358 342
f 343 359 360 344
f 335 340 356 351
f 332 348 355 339
f 334 350 353 337
f 331 338 354 347
f 339 355 356 340
f 337 353 354 338
f 331 347 348 332
f 335 351 352 336
f 336 352 359 343
f 333 349 350 334
f 330 344 360 346
g Cube.002_Cube.113_Cube.002_Cube.113
v 24.782789 0.281514 -3.718857
v 25.035482 0.281514 -3.535278
v 24.728735 1.231341 -3.758148
v 25.089540 1.231341 -3.495995
v 24.645508 0.864912 -3.818604
v 24.624310 0.931959 -3.834007
v 25.193964 0.931959 -3.420135
v 25.172770 0.864912 -3.435532
v 24.624315 1.156179 -3.834015
v 24.644583 1.198105 -3.819283
v 25.173695 1.198105 -3.434860
v 25.193964 1.156179 -3.420135
v 24.782789 0.772722 -3.718857
v 24.762831 0.817258 -3.733368
v 25.055445 0.817258 -3.520767
v 25.035482 0.772722 -3.535278
v 18.398022 0.281514 4.380157
v 18.635532 0.281514 4.583000
v 18.347218 1.231342 4.336746
v 18.686340 1.231342 4.626404
v 18.268990 0.864913 4.269951
v 18.249065 0.931960 4.252937
v 18.784492 0.931960 4.710228
v 18.764572 0.864913 4.693214
v 18.249069 1.156180 4.252930
v 18.268120 1.198106 4.269203
v 18.765438 1.198106 4.693954
v 18.784492 1.156180 4.710228
v 18.398022 0.772723 4.380157
v 18.379261 0.817259 4.364128
v 18.654293 0.817259 4.599030
v 18.635532 0.772723 4.583000
s 0
f 363 379 380 364
f 367 383 384 368
f 368 384 391 375
f 365 381 382 366
f 362 376 392 378
f 365 374 390 381
f 361 377 389 373
f 373 389 390 374
f 375 391 392 376
f 367 372 388 383
f 364 380 387 371
f 366 382 385 369
f 363 370 386 379
f 371 387 388 372
f 369 385 386 370
g Cube.002_Cube.114_Cube.002_Cube.114
v 30.512434 0.281514 -12.293854
v 30.778753 0.281514 -12.130661
v 30.455465 1.231341 -12.328781
v 30.835726 1.231341 -12.095741
v 30.367750 0.864912 -12.382523
v 30.345409 0.931959 -12.396210
v 30.945780 0.931959 -12.028313
v 30.923445 0.864912 -12.041992
v 30.345413 1.156179 -12.396217
v 30.366776 1.198105 -12.383125
v 30.924417 1.198105 -12.041397
v 30.945780 1.156179 -12.028313
v 30.512434 0.772722 -12.293854
v 30.491400 0.817258 -12.306747
v 30.799793 0.817258 -12.117767
v 30.778753 0.772722 -12.130661
v 24.782789 0.281514 -3.718857
v 25.035482 0.281514 -3.535278
v 24.728735 1.231341 -3.758148
v 25.089540 1.231341 -3.495995
v 24.645508 0.864912 -3.818604
v 24.624310 0.931959 -3.834007
v 25.193964 0.931959 -3.420135
v 25.172770 0.864912 -3.435532
v 24.624315 1.156179 -3.834015
v 24.644583 1.198105 -3.819283
v 25.173695 1.198105 -3.434860
v 25.193964 1.156179 -3.420135
v 24.782789 0.772722 -3.718857
v 24.762831 0.817258 -3.733368
v 25.055445 0.817258 -3.520767
v 25.035482 0.772722 -3.535278
s 0
f 396 412 419 403
f 398 414 417 401
f 395 402 418 411
f 403 419 420 404
f 401 417 418 402
f 395 411 412 396
f 399 415 416 400
f 400 416 423 407
f 397 413 414 398
f 394 408 424 410
f 397 406 422 413
f 393 409 421 405
f 405 421 422 406
f 407 423 424 408
f 399 404 420 415
g Cube.002_Cube.115_Cube.002_Cube.115
v 35.551632 0.281513 -21.291962
v 35.829933 0.281513 -21.150162
v 35.492100 1.231341 -21.322304
v 35.889473 1.231341 -21.119820
v 35.400436 0.864912 -21.369003
v 35.377090 0.931959 -21.380898
v 36.004478 0.931959 -21.061234
v 35.981133 0.864912 -21.073120
v 35.377094 1.156179 -21.380901
v 35.399418 1.198105 -21.369526
v 35.982155 1.198105 -21.072601
v 36.004478 1.156179 -21.061234
v 35.551632 0.772722 -21.291962
v 35.529648 0.817258 -21.303165
v 35.851921 0.817258 -21.138962
v 35.829933 0.772722 -21.150162
v 30.512434 0.281514 -12.293854
v 30.778753 0.281514 -12.130661
v 30.455465 1.231341 -12.328781
v 30.835726 1.231341 -12.095741
v 30.367750 0.864912 -12.382523
v 30.345409 0.931959 -12.396210
v 30.945780 0.931959 -12.028313
v 30.923445 0.864912 -12.041992
v 30.345413 1.156179 -12.396217
v 30.366776 1.198105 -12.383125
v 30.924417 1.198105 -12.041397
v 30.945780 1.156179 -12.028313
v 30.512434 0.772722 -12.293854
v 30.491400 0.817258 -12.306747
v 30.799793 0.817258 -12.117767
v 30.778753 0.772722 -12.130661
s 0
f 429 445 446 430
f 426 440 456 442
f 429 438 454 445
f 425 441 453 437
f 437 453 454 438
f 439 455 456 440
f 431 436 452 447
f 428 444 451 435
f 430 446 449 433
f 427 434 450 443
f 435 451 452 436
f 433 449 450 434
f 427 443 444 428
f 431 447 448 432
f 432 448 455 439
g Cube.002_Cube.116_Cube.002_Cube.116
v 39.869308 0.281513 -30.657700
v 40.157879 0.281513 -30.538174
v 39.807579 1.231340 -30.683277
v 40.219612 1.231340 -30.512596
v 39.712532 0.864911 -30.722641
v 39.688328 0.931958 -30.732666
v 40.338860 0.931958 -30.463211
v 40.314659 0.864911 -30.473232
v 39.688332 1.156178 -30.732674
v 39.711479 1.198104 -30.723083
v 40.315712 1.198104 -30.472794
v 40.338860 1.156178 -30.463211
v 39.869308 0.772721 -30.657700
v 39.846516 0.817257 -30.667145
v 40.180676 0.817257 -30.528732
v 40.157879 0.772721 -30.538174
v 35.551632 0.281513 -21.291962
v 35.829933 0.281513 -21.150162
v 35.492100 1.231341 -21.322304
v 35.889473 1.231341 -21.119820
v 35.400436 0.864912 -21.369003
v 35.377090 0.931959 -21.380898
v 36.004478 0.931959 -21.061234
v 35.981133 0.864912 -21.073120
v 35.377094 1.156179 -21.380901
v 35.399418 1.198105 -21.369526
v 35.982155 1.198105 -21.072601
v 36.004478 1.156179 -21.061234
v 35.551632 0.772722 -21.291962
v 35.529648 0.817258 -21.303165
v 35.851921 0.817258 -21.138962
v 35.829933 0.772722 -21.150162
s 0
f 467 483 484 468
f 465 481 482 466
f 459 475 476 460
f 463 479 480 464
f 464 480 487 471
f 461 477 478 462
f 458 472 488 474
f 461 470 486 477
f 457 473 485 469
f 469 485 486 470
f 471 487 488 472
f 463 468 484 479
f 460 476 483 467
f 462 478 481 465
f 459 466 482 475
g Cube.002_Cube.117_Cube.002_Cube.117
v 43.438850 0.281513 -40.333328
v 43.735909 0.281513 -40.236809
v 43.375305 1.231340 -40.353985
v 43.799458 1.231340 -40.216160
v 43.277462 0.864911 -40.385769
v 43.252544 0.931958 -40.393864
v 43.922215 0.931958 -40.176277
v 43.897297 0.864911 -40.184372
v 43.252548 1.156178 -40.393871
v 43.276375 1.198104 -40.386127
v 43.898384 1.198104 -40.184017
v 43.922215 1.156178 -40.176277
v 43.438850 0.772721 -40.333328
v 43.415386 0.817257 -40.340954
v 43.759377 0.817257 -40.229187
v 43.735909 0.772721 -40.236809
v 39.869308 0.281513 -30.657700
v 40.157879 0.281513 -30.538174
v 39.807579 1.231340 -30.683277
v 40.219612 1.231340 -30.512596
v 39.712532 0.864911 -30.722641
v 39.688328 0.931958 -30.732666
v 40.338860 0.931958 -30.463211
v 40.314659 0.864911 -30.473232
v 39.688332 1.156178 -30.732674
v 39.711479 1.198104 -30.723083
v 40.315712 1.198104 -30.472794
v 40.338860 1.156178 -30.463211
v 39.869308 0.772721 -30.657700
v 39.846516 0.817257 -30.667145
v 40.180676 0.817257 -30.528732
v 40.157879 0.772721 -30.538174
s 0
f 489 505 517 501
f 501 517 518 502
f 503 519 520 504
f 495 500 516 511
f 492 508 515 499
f 494 510 513 497
f 491 498 514 507
f 499 515 516 500
f 497 513 514 498
f 491 507 508 492
f 495 511 512 496
f 496 512 519 503
f 493 509 510 494
f 490 504 520 506
f 493 502 518 509
g Cube.002_Cube.118_Cube.002_Cube.118
v 46.238247 0.281512 -50.259193
v 46.541962 0.281512 -50.186275
v 46.173275 1.231340 -50.274799
v 46.606937 1.231340 -50.170677
v 46.073242 0.864911 -50.298809
v 46.047768 0.931958 -50.304924
v 46.732445 0.931958 -50.140549
v 46.706970 0.864911 -50.146664
v 46.047768 1.156178 -50.304932
v 46.072132 1.198104 -50.299080
v 46.708080 1.198104 -50.146397
v 46.732445 1.156178 -50.140549
v 46.238247 0.772721 -50.259193
v 46.214256 0.817257 -50.264954
v 46.565956 0.817257 -50.180519
v 46.541962 0.772721 -50.186275
v 43.438850 0.281513 -40.333328
v 43.735909 0.281513 -40.236809
v 43.375305 1.231340 -40.353985
v 43.799458 1.231340 -40.216160
v 43.277462 0.864911 -40.385769
v 43.252544 0.931958 -40.393864
v 43.922215 0.931958 -40.176277
v 43.897297 0.864911 -40.184372
v 43.252548 1.156178 -40.393871
v 43.276375 1.198104 -40.386127
v 43.898384 1.198104 -40.184017
v 43.922215 1.156178 -40.176277
v 43.438850 0.772721 -40.333328
v 43.415386 0.817257 -40.340954
v 43.759377 0.817257 -40.229187
v 43.735909 0.772721 -40.236809
s 0
f 527 543 544 528
f 528 544 551 535
f 525 541 542 526
f 522 536 552 538
f 525 534 550 541
f 521 537 549 533
f 533 549 550 534
f 535 551 552 536
f 527 532 548 543
f 524 540 547 531
f 526 542 545 529
f 523 530 546 539
f 531 547 548 532
f 529 545 546 530
f 523 539 540 524
g Cube.002_Cube.119_Cube.002_Cube.119
v 48.250240 0.281512 -60.374100
v 48.558743 0.281512 -60.325233
v 48.184246 1.231339 -60.384560
v 48.624737 1.231339 -60.314781
v 48.082634 0.864910 -60.400642
v 48.056759 0.931957 -60.404739
v 48.752220 0.931957 -60.294594
v 48.726345 0.864910 -60.298691
v 48.056759 1.156177 -60.404747
v 48.081505 1.198103 -60.400829
v 48.727474 1.198103 -60.298512
v 48.752220 1.156177 -60.294594
v 48.250240 0.772720 -60.374100
v 48.225868 0.817256 -60.377960
v 48.583111 0.817256 -60.321377
v 48.558743 0.772720 -60.325233
v 46.238247 0.281512 -50.259193
v 46.541962 0.281512 -50.186275
v 46.173275 1.231340 -50.274799
v 46.606937 1.231340 -50.170677
v 46.073242 0.864911 -50.298809
v 46.047768 0.931958 -50.304924
v 46.732445 0.931958 -50.140549
v 46.706970 0.864911 -50.146664
v 46.047768 1.156178 -50.304932
v 46.072132 1.198104 -50.299080
v 46.708080 1.198104 -50.146397
v 46.732445 1.156178 -50.140549
v 46.238247 0.772721 -50.259193
v 46.214256 0.817257 -50.264954
v 46.565956 0.817257 -50.180519
v 46.541962 0.772721 -50.186275
s 0
f 558 574 577 561
f 555 562 578 571
f 563 579 580 564
f 561 577 578 562
f 555 571 572 556
f 559 575 576 560
f 560 576 583 567
f 557 573 574 558
f 554 568 584 570
f 557 566 582 573
f 553 569 581 565
f 565 581 582 566
f 567 583 584 568
f 559 564 580 575
f 556 572 579 563
g Cube.002_Cube.120_Cube.002_Cube.120
v 49.962421 0.281512 -70.615677
v 50.273808 0.281512 -70.591171
v 49.895813 1.231339 -70.620934
v 50.340420 1.231339 -70.585930
v 49.793255 0.864910 -70.628998
v 49.767136 0.931957 -70.631050
v 50.469097 0.931957 -70.575806
v 50.442978 0.864910 -70.577858
v 49.767136 1.156177 -70.631058
v 49.792114 1.198103 -70.629089
v 50.444118 1.198103 -70.577774
v 50.469097 1.156177 -70.575806
v 49.962421 0.772720 -70.615677
v 49.937824 0.817256 -70.617615
v 50.298405 0.817256 -70.589241
v 50.273808 0.772720 -70.591171
v 48.250240 0.281512 -60.374100
v 48.558743 0.281512 -60.325233
v 48.184246 1.231339 -60.384560
v 48.624737 1.231339 -60.314781
v 48.082634 0.864910 -60.400642
v 48.056759 0.931957 -60.404739
v 48.752220 0.931957 -60.294594
v 48.726345 0.864910 -60.298691
v 48.056759 1.156177 -60.404747
v 48.081505 1.198103 -60.400829
v 48.727474 1.198103 -60.298512
v 48.752220 1.156177 -60.294594
v 48.250240 0.772720 -60.374100
v 48.225868 0.817256 -60.377960
v 48.583111 0.817256 -60.321377
v 48.558743 0.772720 -60.325233
s 0
f 589 598 614 605
f 585 601 613 597
f 597 613 614 598
f 599 615 616 600
f 591 596 612 607
f 588 604 611 595
f 590 606 609 593
f 587 594 610 603
f 595 611 612 596
f 593 609 610 594
f 587 603 604 588
f 591 607 608 592
f 592 608 615 599
f 589 605 606 590
f 586 600 616 602
g Cube.002_Cube.121_Cube.002_Cube.121
v 50.843826 0.281512 -81.000008
v 51.156174 0.281512 -81.000008
v 50.777008 1.231339 -81.000008
v 51.222992 1.231339 -81.000008
v 50.674133 0.864909 -81.000008
v 50.647934 0.931956 -81.000008
v 51.352066 0.931956 -81.000008
v 51.325867 0.864909 -81.000008
v 50.647934 1.156177 -81.000008
v 50.672989 1.198102 -81.000008
v 51.327011 1.198102 -81.000008
v 51.352066 1.156177 -81.000008
v 50.843826 0.772719 -81.000008
v 50.819153 0.817255 -81.000008
v 51.180847 0.817255 -81.000008
v 51.156174 0.772719 -81.000008
v 49.962421 0.281512 -70.615677
v 50.273808 0.281512 -70.591171
v 49.895813 1.231339 -70.620934
v 50.340420 1.231339 -70.585930
v 49.793255 0.864910 -70.628998
v 49.767136 0.931957 -70.631050
v 50.469097 0.931957 -70.575806
v 50.442978 0.864910 -70.577858
v 49.767136 1.156177 -70.631058
v 49.792114 1.198103 -70.629089
v 50.444118 1.198103 -70.577774
v 50.469097 1.156177 -70.575806
v 49.962421 0.772720 -70.615677
v 49.937824 0.817256 -70.617615
v 50.298405 0.817256 -70.589241
v 50.273808 0.772720 -70.591171
s 0
f 620 636 643 627
f 622 638 641 625
f 619 626 642 635
f 627 643 644 628
f 625 641 642 626
f 619 635 636 620
f 623 639 640 624
f 624 640 647 631
f 621 637 638 622
f 618 632 648 634
f 621 630 646 637
f 617 633 645 629
f 629 645 646 630
f 631 647 648 632
f 623 628 644 639
g Cube.002_Cube.122_Cube.002_Cube.122
v 42.843826 0.281512 -81.000008
v 43.156181 0.281512 -81.000008
v 42.777016 1.231339 -81.000008
v 43.222992 1.231339 -81.000008
v 42.674141 0.864909 -81.000008
v 42.647934 0.931956 -81.000008
v 43.352066 0.931956 -81.000008
v 43.325859 0.864909 -81.000008
v 42.647934 1.156177 -81.000008
v 42.672989 1.198102 -81.000008
v 43.327019 1.198102 -81.000008
v 43.352066 1.156177 -81.000008
v 42.843826 0.772719 -81.000008
v 42.819153 0.817255 -81.000008
v 43.180855 0.817255 -81.000008
v 43.156181 0.772719 -81.000008
v 41.987083 0.281512 -71.243355
v 42.298477 0.281512 -71.218842
v 41.920479 1.231339 -71.248604
v 42.365082 1.231339 -71.213600
v 41.817924 0.864910 -71.256668
v 41.791798 0.931957 -71.258720
v 42.493759 0.931957 -71.203476
v 42.467632 0.864910 -71.205536
v 41.791798 1.156177 -71.258728
v 41.816776 1.198103 -71.256767
v 42.468788 1.198103 -71.205444
v 42.493759 1.156177 -71.203476
v 41.987083 0.772720 -71.243355
v 41.962486 0.817256 -71.245285
v 42.323074 0.817256 -71.216911
v 42.298477 0.772720 -71.218842
s 0
f 659 675 676 660
f 651 667 668 652
f 657 673 674 658
f 655 671 672 656
f 656 672 679 663
f 653 669 670 654
f 650 664 680 666
f 653 662 678 669
f 649 665 677 661
f 663 679 680 664
f 661 677 678 662
f 655 660 676 671
f 652 668 675 659
f 654 670 673 657
f 651 658 674 667
g Cube.002_Cube.123_Cube.002_Cube.123
v 41.987083 0.281512 -71.243355
v 42.298477 0.281512 -71.218842
v 41.920479 1.231339 -71.248604
v 42.365082 1.231339 -71.213600
v 41.817924 0.864910 -71.256668
v 41.791798 0.931957 -71.258720
v 42.493759 0.931957 -71.203476
v 42.467632 0.864910 -71.205536
v 41.791798 1.156177 -71.258728
v 41.816776 1.198103 -71.256767
v 42.468788 1.198103 -71.205444
v 42.493759 1.156177 -71.203476
v 41.987083 0.772720 -71.243355
v 41.962486 0.817256 -71.245285
v 42.323074 0.817256 -71.216911
v 42.298477 0.772720 -71.218842
v 40.348732 0.281512 -61.625572
v 40.657242 0.281512 -61.576706
v 40.282745 1.231339 -61.636032
v 40.723228 1.231339 -61.566257
v 40.181137 0.864910 -61.652115
v 40.155251 0.931957 -61.656216
v 40.850716 0.931957 -61.546066
v 40.824829 0.864910 -61.550163
v 40.155254 1.156177 -61.656223
v 40.180000 1.198103 -61.652306
v 40.825977 1.198103 -61.549984
v 40.850716 1.156177 -61.546066
v 40.348732 0.772720 -61.625572
v 40.324364 0.817256 -61.629433
v 40.681610 0.817256 -61.572849
v 40.657242 0.772720 -61.576706
s 0
f 684 700 707 691
f 686 702 705 689
f 683 690 706 699
f 691 707 708 692
f 683 699 700 684
f 689 705 706 690
f 687 703 704 688
f 688 704 711 695
f 685 701 702 686
f 682 696 712 698
f 685 694 710 701
f 681 697 709 693
f 695 711 712 696
f 693 709 710 694
f 687 692 708 703
g Cube.002_Cube.124_Cube.002_Cube.124
v 40.348732 0.281512 -61.625572
v 40.657242 0.281512 -61.576706
v 40.282745 1.231339 -61.636032
v 40.723228 1.231339 -61.566257
v 40.181137 0.864910 -61.652115
v 40.155251 0.931957 -61.656216
v 40.850716 0.931957 -61.546066
v 40.824829 0.864910 -61.550163
v 40.155254 1.156177 -61.656223
v 40.180000 1.198103 -61.652306
v 40.825977 1.198103 -61.549984
v 40.850716 1.156177 -61.546066
v 40.348732 0.772720 -61.625572
v 40.324364 0.817256 -61.629433
v 40.681610 0.817256 -61.572849
v 40.657242 0.772720 -61.576706
v 38.459290 0.281512 -52.126755
v 38.763012 0.281512 -52.053837
v 38.394325 1.231339 -52.142357
v 38.827980 1.231339 -52.038239
v 38.294289 0.864910 -52.166367
v 38.268806 0.931957 -52.172485
v 38.953484 0.931957 -52.008110
v 38.928001 0.864910 -52.014229
v 38.268810 1.156177 -52.172493
v 38.293175 1.198103 -52.166641
v 38.929131 1.198103 -52.013954
v 38.953484 1.156177 -52.008110
v 38.459290 0.772720 -52.126755
v 38.435295 0.817256 -52.132515
v 38.787003 0.817256 -52.048080
v 38.763012 0.772720 -52.053837
s 0
f 720 736 743 727
f 717 733 734 718
f 714 728 744 730
f 717 726 742 733
f 713 729 741 725
f 727 743 744 728
f 725 741 742 726
f 719 724 740 735
f 716 732 739 723
f 718 734 737 721
f 715 722 738 731
f 723 739 740 724
f 715 731 732 716
f 721 737 738 722
f 719 735 736 720
g Cube.002_Cube.125_Cube.002_Cube.125
v 38.459290 0.281512 -52.126755
v 38.763012 0.281512 -52.053837
v 38.394325 1.231339 -52.142357
v 38.827980 1.231339 -52.038239
v 38.294289 0.864910 -52.166367
v 38.268806 0.931957 -52.172485
v 38.953484 0.931957 -52.008110
v 38.928001 0.864910 -52.014229
v 38.268810 1.156177 -52.172493
v 38.293175 1.198103 -52.166641
v 38.929131 1.198103 -52.013954
v 38.953484 1.156177 -52.008110
v 38.459290 0.772720 -52.126755
v 38.435295 0.817256 -52.132515
v 38.787003 0.817256 -52.048080
v 38.763012 0.772720 -52.053837
v 35.830399 0.281513 -42.805470
v 36.127468 0.281513 -42.708942
v 35.766861 1.231340 -42.826118
v 36.191010 1.231340 -42.688297
v 35.669022 0.864911 -42.857903
v 35.644096 0.931958 -42.865997
v 36.313766 0.931958 -42.648411
v 36.288841 0.864911 -42.656509
v 35.644096 1.156178 -42.866005
v 35.667931 1.198104 -42.858265
v 36.289944 1.198104 -42.656151
v 36.313766 1.156178 -42.648411
v 35.830399 0.772721 -42.805470
v 35.806934 0.817257 -42.813091
v 36.150932 0.817257 -42.701321
v 36.127468 0.772721 -42.708942
s 0
f 759 775 776 760
f 757 773 774 758
f 751 756 772 767
f 748 764 771 755
f 750 766 769 753
f 747 754 770 763
f 755 771 772 756
f 747 763 764 748
f 753 769 770 754
f 751 767 768 752
f 752 768 775 759
f 749 765 766 750
f 746 760 776 762
f 749 758 774 765
f 745 761 773 757
g Cube.002_Cube.126_Cube.002_Cube.126
v 35.830399 0.281513 -42.805470
v 36.127468 0.281513 -42.708942
v 35.766861 1.231340 -42.826118
v 36.191010 1.231340 -42.688297
v 35.669022 0.864911 -42.857903
v 35.644096 0.931958 -42.865997
v 36.313766 0.931958 -42.648411
v 36.288841 0.864911 -42.656509
v 35.644096 1.156178 -42.866005
v 35.667931 1.198104 -42.858265
v 36.289944 1.198104 -42.656151
v 36.313766 1.156178 -42.648411
v 35.830399 0.772721 -42.805470
v 35.806934 0.817257 -42.813091
v 36.150932 0.817257 -42.701321
v 36.127468 0.772721 -42.708942
v 32.478275 0.281513 -33.719173
v 32.766853 0.281513 -33.599636
v 32.416550 1.231340 -33.744743
v 32.828579 1.231340 -33.574070
v 32.321507 0.864911 -33.784107
v 32.297295 0.931958 -33.794132
v 32.947826 0.931958 -33.524673
v 32.923615 0.864911 -33.534702
v 32.297295 1.156178 -33.794140
v 32.320446 1.198104 -33.784550
v 32.924686 1.198104 -33.534260
v 32.947826 1.156178 -33.524673
v 32.478275 0.772721 -33.719173
v 32.455482 0.817257 -33.728611
v 32.789650 0.817257 -33.590195
v 32.766853 0.772721 -33.599636
s 0
f 779 786 802 795
f 787 803 804 788
f 779 795 796 780
f 785 801 802 786
f 783 799 800 784
f 784 800 807 791
f 781 797 798 782
f 778 792 808 794
f 781 790 806 797
f 777 793 805 789
f 791 807 808 792
f 789 805 806 790
f 783 788 804 799
f 780 796 803 787
f 782 798 801 785
g Cube.002_Cube.127_Cube.002_Cube.127
v 32.478275 0.281513 -33.719173
v 32.766853 0.281513 -33.599636
v 32.416550 1.231340 -33.744743
v 32.828579 1.231340 -33.574070
v 32.321507 0.864911 -33.784107
v 32.297295 0.931958 -33.794132
v 32.947826 0.931958 -33.524673
v 32.923615 0.864911 -33.534702
v 32.297295 1.156178 -33.794140
v 32.320446 1.198104 -33.784550
v 32.924686 1.198104 -33.534260
v 32.947826 1.156178 -33.524673
v 32.478275 0.772721 -33.719173
v 32.455482 0.817257 -33.728611
v 32.789650 0.817257 -33.590195
v 32.766853 0.772721 -33.599636
v 28.423580 0.281513 -24.923889
v 28.701891 0.281513 -24.782078
v 28.364052 1.231340 -24.954220
v 28.761419 1.231340 -24.751747
v 28.272390 0.864911 -25.000919
v 28.249037 0.931958 -25.012814
v 28.876425 0.931958 -24.693146
v 28.853077 0.864911 -24.705044
v 28.249043 1.156178 -25.012821
v 28.271368 1.198104 -25.001446
v 28.854107 1.198104 -24.704517
v 28.876425 1.156178 -24.693146
v 28.423580 0.772721 -24.923889
v 28.401596 0.817257 -24.935085
v 28.723873 0.817257 -24.770878
v 28.701891 0.772721 -24.782078
s 0
f 813 829 830 814
f 810 824 840 826
f 813 822 838 829
f 809 825 837 821
f 823 839 840 824
f 821 837 838 822
f 815 820 836 831
f 812 828 835 819
f 814 830 833 817
f 811 818 834 827
f 819 835 836 820
f 811 827 828 812
f 817 833 834 818
f 815 831 832 816
f 816 832 839 823
g Cube.002_Cube.128_Cube.002_Cube.128
v 28.423580 0.281513 -24.923889
v 28.701891 0.281513 -24.782078
v 28.364052 1.231340 -24.954220
v 28.761419 1.231340 -24.751747
v 28.272390 0.864911 -25.000919
v 28.249037 0.931958 -25.012814
v 28.876425 0.931958 -24.693146
v 28.853077 0.864911 -24.705044
v 28.249043 1.156178 -25.012821
v 28.271368 1.198104 -25.001446
v 28.854107 1.198104 -24.704517
v 28.876425 1.156178 -24.693146
v 28.423580 0.772721 -24.923889
v 28.401596 0.817257 -24.935085
v 28.723873 0.817257 -24.770878
v 28.701891 0.772721 -24.782078
v 23.691317 0.281513 -16.473846
v 23.957644 0.281513 -16.310638
v 23.634352 1.231341 -16.508755
v 24.014608 1.231341 -16.275730
v 23.546637 0.864912 -16.562504
v 23.524290 0.931959 -16.576191
v 24.124662 0.931959 -16.208286
v 24.102320 0.864912 -16.221977
v 23.524296 1.156179 -16.576199
v 23.545660 1.198105 -16.563110
v 24.103306 1.198105 -16.221375
v 24.124662 1.156179 -16.208286
v 23.691317 0.772722 -16.473846
v 23.670279 0.817258 -16.486732
v 23.978678 0.817258 -16.297749
v 23.957644 0.772722 -16.310638
s 0
f 853 869 870 854
f 847 852 868 863
f 844 860 867 851
f 846 862 865 849
f 843 850 866 859
f 851 867 868 852
f 843 859 860 844
f 849 865 866 850
f 847 863 864 848
f 848 864 871 855
f 845 861 862 846
f 842 856 872 858
f 845 854 870 861
f 841 857 869 853
f 855 871 872 856
g Cube.002_Cube.129_Cube.002_Cube.129
v 23.691317 0.281513 -16.473846
v 23.957644 0.281513 -16.310638
v 23.634352 1.231341 -16.508755
v 24.014608 1.231341 -16.275730
v 23.546637 0.864912 -16.562504
v 23.524290 0.931959 -16.576191
v 24.124662 0.931959 -16.208286
v 24.102320 0.864912 -16.221977
v 23.524296 1.156179 -16.576199
v 23.545660 1.198105 -16.563110
v 24.103306 1.198105 -16.221375
v 24.124662 1.156179 -16.208286
v 23.691317 0.772722 -16.473846
v 23.670279 0.817258 -16.486732
v 23.978678 0.817258 -16.297749
v 23.957644 0.772722 -16.310638
v 18.310658 0.281514 -8.421150
v 18.563362 0.281514 -8.237549
v 18.256607 1.231341 -8.460419
v 18.617409 1.231341 -8.198280
v 18.173382 0.864912 -8.520882
v 18.152176 0.931959 -8.536285
v 18.721832 0.931959 -8.122406
v 18.700634 0.864912 -8.137810
v 18.152184 1.156179 -8.536293
v 18.172455 1.198105 -8.521568
v 18.701569 1.198105 -8.137131
v 18.721832 1.156179 -8.122406
v 18.310658 0.772722 -8.421150
v 18.290695 0.817258 -8.435646
v 18.583317 0.817258 -8.223045
v 18.563362 0.772722 -8.237549
s 0
f 883 899 900 884
f 875 891 892 876
f 881 897 898 882
f 879 895 896 880
f 880 896 903 887
f 877 893 894 878
f 874 888 904 890
f 877 886 902 893
f 873 889 901 885
f 887 903 904 888
f 885 901 902 886
f 879 884 900 895
f 876 892 899 883
f 878 894 897 881
f 875 882 898 891
g Cube.002_Cube.130_Cube.002_Cube.130
v 18.310658 0.281514 -8.421150
v 18.563362 0.281514 -8.237549
v 18.256607 1.231341 -8.460419
v 18.617409 1.231341 -8.198280
v 18.173382 0.864912 -8.520882
v 18.152176 0.931959 -8.536285
v 18.721832 0.931959 -8.122406
v 18.700634 0.864912 -8.137810
v 18.152184 1.156179 -8.536293
v 18.172455 1.198105 -8.521568
v 18.701569 1.198105 -8.137131
v 18.721832 1.156179 -8.122406
v 18.310658 0.772722 -8.421150
v 18.290695 0.817258 -8.435646
v 18.583317 0.817258 -8.223045
v 18.563362 0.772722 -8.237549
v 12.314777 0.281514 -0.815437
v 12.552299 0.281514 -0.612572
v 12.263973 1.231341 -0.858826
v 12.603096 1.231341 -0.569183
v 12.185753 0.864912 -0.925621
v 12.165817 0.931959 -0.942650
v 12.701244 0.931959 -0.485344
v 12.681324 0.864912 -0.502365
v 12.165825 1.156179 -0.942650
v 12.184879 1.198105 -0.926384
v 12.682201 1.198105 -0.501617
v 12.701244 1.156179 -0.485344
v 12.314777 0.772722 -0.815437
v 12.296013 0.817258 -0.831451
v 12.571053 0.817258 -0.596550
v 12.552299 0.772722 -0.612572
s 0
f 909 918 934 925
f 905 921 933 917
f 919 935 936 920
f 917 933 934 918
f 911 916 932 927
f 908 924 931 915
f 910 926 929 913
f 907 914 930 923
f 915 931 932 916
f 907 923 924 908
f 913 929 930 914
f 911 927 928 912
f 912 928 935 919
f 909 925 926 910
f 906 920 936 922
g Cube.002_Cube.131_Cube.002_Cube.131
v 12.314777 0.281514 -0.815437
v 12.552299 0.281514 -0.612572
v 12.263973 1.231341 -0.858826
v 12.603096 1.231341 -0.569183
v 12.185753 0.864912 -0.925621
v 12.165817 0.931959 -0.942650
v 12.701244 0.931959 -0.485344
v 12.681324 0.864912 -0.502365
v 12.165825 1.156179 -0.942650
v 12.184879 1.198105 -0.926384
v 12.682201 1.198105 -0.501617
v 12.701244 1.156179 -0.485344
v 12.314777 0.772722 -0.815437
v 12.296013 0.817258 -0.831451
v 12.571053 0.817258 -0.596550
v 12.552299 0.772722 -0.612572
v 5.740643 0.281514 6.296410
v 5.961517 0.281514 6.517281
v 5.693398 1.231342 6.249168
v 6.008751 1.231342 6.564529
v 5.620659 0.864913 6.176445
v 5.602123 0.931960 6.157906
v 6.100021 0.931960 6.655807
v 6.081497 0.864913 6.637276
v 5.602131 1.156180 6.157906
v 5.619850 1.198106 6.175613
v 6.082314 1.198106 6.638084
v 6.100021 1.156180 6.655807
v 5.740643 0.772723 6.296410
v 5.723190 0.817259 6.278976
v 5.978954 0.817259 6.534729
v 5.961517 0.772723 6.517281
s 0
f 940 956 963 947
f 942 958 961 945
f 939 946 962 955
f 947 963 964 948
f 939 955 956 940
f 945 961 962 946
f 943 959 960 944
f 944 960 967 951
f 941 957 958 942
f 938 952 968 954
f 941 950 966 957
f 937 953 965 949
f 951 967 968 952
f 949 965 966 950
f 943 948 964 959
g Cube.002_Cube.132_Cube.002_Cube.132
v 5.740643 0.281514 6.296410
v 5.961517 0.281514 6.517281
v 5.693398 1.231342 6.249168
v 6.008751 1.231342 6.564529
v 5.620659 0.864913 6.176445
v 5.602123 0.931960 6.157906
v 6.100021 0.931960 6.655807
v 6.081497 0.864913 6.637276
v 5.602131 1.156180 6.157906
v 5.619850 1.198106 6.175613
v 6.082314 1.198106 6.638084
v 6.100021 1.156180 6.655807
v 5.740643 0.772723 6.296410
v 5.723190 0.817259 6.278976
v 5.978954 0.817259 6.534729
v 5.961517 0.772723 6.517281
v -1.371212 0.281514 12.870529
v -1.168350 0.281514 13.108040
v -1.414604 1.231342 12.819725
v -1.124969 1.231342 13.158852
v -1.481415 0.864913 12.741516
v -1.498436 0.931960 12.721581
v -1.041142 0.931960 13.257011
v -1.058155 0.864913 13.237083
v -1.498428 1.156180 12.721581
v -1.482159 1.198106 12.740623
v -1.057404 1.198106 13.237953
v -1.041142 1.156180 13.257011
v -1.371212 0.772723 12.870529
v -1.387245 0.817259 12.851776
v -1.152336 0.817259 13.126808
v -1.168350 0.772723 13.108040
s 0
f 976 992 999 983
f 973 989 990 974
f 970 984 1000 986
f 973 982 998 989
f 969 985 997 981
f 983 999 1000 984
f 981 997 998 982
f 975 980 996 991
f 972 988 995 979
f 974 990 993 977
f 971 978 994 987
f 979 995 996 980
f 971 987 988 972
f 977 993 994 978
f 975 991 992 976
g Cube.002_Cube.133_Cube.002_Cube.133
v -1.371212 0.281514 12.870529
v -1.168350 0.281514 13.108040
v -1.414604 1.231342 12.819725
v -1.124969 1.231342 13.158852
v -1.481415 0.864913 12.741516
v -1.498436 0.931960 12.721581
v -1.041142 0.931960 13.257011
v -1.058155 0.864913 13.237083
v -1.498428 1.156180 12.721581
v -1.482159 1.198106 12.740623
v -1.057404 1.198106 13.237953
v -1.041142 1.156180 13.257011
v -1.371212 0.772723 12.870529
v -1.387245 0.817259 12.851776
v -1.152336 0.817259 13.126808
v -1.168350 0.772723 13.108040
v -8.976944 0.281515 18.866386
v -8.793343 0.281515 19.119080
v -9.016216 1.231342 18.812340
v -8.754082 1.231342 19.173141
v -9.076683 0.864913 18.729126
v -9.092087 0.931960 18.707924
v -8.678215 0.931960 19.277573
v -8.693611 0.864913 19.256371
v -9.092079 1.156180 18.707924
v -9.077358 1.198106 18.728180
v -8.692932 1.198106 19.257301
v -8.678215 1.156180 19.277573
v -8.976944 0.772723 18.866386
v -8.991455 0.817259 18.846436
v -8.778851 0.817259 19.139053
v -8.793343 0.772723 19.119080
s 0
f 1015 1031 1032 1016
f 1013 1029 1030 1014
f 1007 1012 1028 1023
f 1004 1020 1027 1011
f 1006 1022 1025 1009
f 1003 1010 1026 1019
f 1011 1027 1028 1012
f 1003 1019 1020 1004
f 1009 1025 1026 1010
f 1007 1023 1024 1008
f 1008 1024 1031 1015
f 1005 1021 1022 1006
f 1002 1016 1032 1018
f 1005 1014 1030 1021
f 1001 1017 1029 1013
g Cube.002_Cube.134_Cube.002_Cube.134
v -8.976944 0.281515 18.866386
v -8.793343 0.281515 19.119080
v -9.016216 1.231342 18.812340
v -8.754082 1.231342 19.173141
v -9.076683 0.864913 18.729126
v -9.092087 0.931960 18.707924
v -8.678215 0.931960 19.277573
v -8.693611 0.864913 19.256371
v -9.092079 1.156180 18.707924
v -9.077358 1.198106 18.728180
v -8.692932 1.198106 19.257301
v -8.678215 1.156180 19.277573
v -8.976944 0.772723 18.866386
v -8.991455 0.817259 18.846436
v -8.778851 0.817259 19.139053
v -8.793343 0.772723 19.119080
v -17.029663 0.281515 24.247025
v -16.866447 0.281515 24.513344
v -17.064568 1.231342 24.190063
v -16.831551 1.231342 24.570320
v -17.118324 0.864913 24.102356
v -17.132011 0.931960 24.080017
v -16.764114 0.931960 24.680382
v -16.777802 0.864913 24.658035
v -17.132011 1.156180 24.080017
v -17.118919 1.198106 24.101372
v -16.777191 1.198106 24.659019
v -16.764114 1.156180 24.680382
v -17.029663 0.772723 24.247025
v -17.042557 0.817259 24.225998
v -16.853569 0.817259 24.534393
v -16.866447 0.772723 24.513344
s 0
f 1035 1042 1058 1051
f 1043 1059 1060 1044
f 1035 1051 1052 1036
f 1041 1057 1058 1042
f 1039 1055 1056 1040
f 1040 1056 1063 1047
f 1037 1053 1054 1038
f 1034 1048 1064 1050
f 1037 1046 1062 1053
f 1033 1049 1061 1045
f 1047 1063 1064 1048
f 1045 1061 1062 1046
f 1039 1044 1060 1055
f 1036 1052 1059 1043
f 1038 1054 1057 1041
g Cube.002_Cube.135_Cube.002_Cube.135
v -17.029663 0.281515 24.247025
v -16.866447 0.281515 24.513344
v -17.064568 1.231342 24.190063
v -16.831551 1.231342 24.570320
v -17.118324 0.864913 24.102356
v -17.132011 0.931960 24.080017
v -16.764114 0.931960 24.680382
v -16.777802 0.864913 24.658035
v -17.132011 1.156180 24.080017
v -17.118919 1.198106 24.101372
v -16.777191 1.198106 24.659019
v -16.764114 1.156180 24.680382
v -17.029663 0.772723 24.247025
v -17.042557 0.817259 24.225998
v -16.853569 0.817259 24.534393
v -16.866447 0.772723 24.513344
v -25.479713 0.281515 28.979271
v -25.337898 0.281515 29.257568
v -25.510048 1.231343 28.919746
v -25.307579 1.231343 29.317108
v -25.556755 0.864914 28.828087
v -25.568642 0.931961 28.804741
v -25.248985 0.931961 29.432129
v -25.260872 0.864914 29.408775
v -25.568642 1.156181 28.804741
v -25.557274 1.198107 28.827057
v -25.260345 1.198107 29.409798
v -25.248985 1.156181 29.432129
v -25.479713 0.772724 28.979271
v -25.490921 0.817260 28.957291
v -25.326714 0.817260 29.279572
v -25.337898 0.772724 29.257568
s 0
f 1069 1085 1086 1070
f 1066 1080 1096 1082
f 1069 1078 1094 1085
f 1065 1081 1093 1077
f 1079 1095 1096 1080
f 1077 1093 1094 1078
f 1071 1076 1092 1087
f 1068 1084 1091 1075
f 1070 1086 1089 1073
f 1067 1074 1090 1083
f 1075 1091 1092 1076
f 1067 1083 1084 1068
f 1073 1089 1090 1074
f 1071 1087 1088 1072
f 1072 1088 1095 1079
g Cube.002_Cube.136_Cube.002_Cube.136
v -25.479713 0.281515 28.979271
v -25.337898 0.281515 29.257568
v -25.510048 1.231343 28.919746
v -25.307579 1.231343 29.317108
v -25.556755 0.864914 28.828087
v -25.568642 0.931961 28.804741
v -25.248985 0.931961 29.432129
v -25.260872 0.864914 29.408775
v -25.568642 1.156181 28.804741
v -25.557274 1.198107 28.827057
v -25.260345 1.198107 29.409798
v -25.248985 1.156181 29.432129
v -25.479713 0.772724 28.979271
v -25.490921 0.817260 28.957291
v -25.326714 0.817260 29.279572
v -25.337898 0.772724 29.257568
v -34.275002 0.281515 33.033943
v -34.155464 0.281515 33.322510
v -34.300575 1.231343 32.972221
v -34.129906 1.231343 33.384239
v -34.339943 0.864914 32.877182
v -34.349968 0.931961 32.852974
v -34.080521 0.931961 33.503510
v -34.090538 0.864914 33.479294
v -34.349968 1.156181 32.852974
v -34.340385 1.198107 32.876114
v -34.090088 1.198107 33.480354
v -34.080521 1.156181 33.503510
v -34.275002 0.772724 33.033943
v -34.284454 0.817260 33.011147
v -34.146034 0.817260 33.345322
v -34.155464 0.772724 33.322510
s 0
f 1109 1125 1126 1110
f 1103 1108 1124 1119
f 1100 1116 1123 1107
f 1102 1118 1121 1105
f 1099 1106 1122 1115
f 1107 1123 1124 1108
f 1099 1115 1116 1100
f 1105 1121 1122 1106
f 1103 1119 1120 1104
f 1104 1120 1127 1111
f 1101 1117 1118 1102
f 1098 1112 1128 1114
f 1101 1110 1126 1117
f 1097 1113 1125 1109
f 1111 1127 1128 1112
g Cube.002_Cube.137_Cube.002_Cube.137
v -34.275002 0.281515 33.033943
v -34.155464 0.281515 33.322510
v -34.300575 1.231343 32.972221
v -34.129906 1.231343 33.384239
v -34.339943 0.864914 32.877182
v -34.349968 0.931961 32.852974
v -34.080521 0.931961 33.503510
v -34.090538 0.864914 33.479294
v -34.349968 1.156181 32.852974
v -34.340385 1.198107 32.876114
v -34.090088 1.198107 33.480354
v -34.080521 1.156181 33.503510
v -34.275002 0.772724 33.033943
v -34.284454 0.817260 33.011147
v -34.146034 0.817260 33.345322
v -34.155464 0.772724 33.322510
v -43.361305 0.281515 36.386040
v -43.264778 0.281515 36.683105
v -43.381958 1.231343 36.322502
v -43.244141 1.231343 36.746643
v -43.413742 0.864914 36.224670
v -43.421837 0.931961 36.199745
v -43.204262 0.931961 36.869415
v -43.212349 0.864914 36.844490
v -43.421837 1.156181 36.199745
v -43.414101 1.198107 36.223572
v -43.211983 1.198107 36.845589
v -43.204262 1.156181 36.869415
v -43.361305 0.772724 36.386040
v -43.368942 0.817260 36.362572
v -43.257164 0.817260 36.706581
v -43.264778 0.772724 36.683105
s 0
f 1139 1155 1156 1140
f 1131 1147 1148 1132
f 1137 1153 1154 1138
f 1135 1151 1152 1136
f 1136 1152 1159 1143
f 1133 1149 1150 1134
f 1130 1144 1160 1146
f 1133 1142 1158 1149
f 1129 1145 1157 1141
f 1143 1159 1160 1144
f 1141 1157 1158 1142
f 1135 1140 1156 1151
f 1132 1148 1155 1139
f 1134 1150 1153 1137
f 1131 1138 1154 1147
g Cube.002_Cube.138_Cube.002_Cube.138
v -43.361305 0.281515 36.386040
v -43.264778 0.281515 36.683105
v -43.381958 1.231343 36.322502
v -43.244141 1.231343 36.746643
v -43.413742 0.864914 36.224670
v -43.421837 0.931961 36.199745
v -43.204262 0.931961 36.869415
v -43.212349 0.864914 36.844490
v -43.421837 1.156181 36.199745
v -43.414101 1.198107 36.223572
v -43.211983 1.198107 36.845589
v -43.204262 1.156181 36.869415
v -43.361305 0.772724 36.386040
v -43.368942 0.817260 36.362572
v -43.257164 0.817260 36.706581
v -43.264778 0.772724 36.683105
v -52.682602 0.281515 39.014908
v -52.609673 0.281515 39.318626
v -52.698204 1.231343 38.949936
v -52.594093 1.231343 39.383591
v -52.722214 0.864914 38.849915
v -52.728333 0.931961 38.824432
v -52.563972 0.931961 39.509109
v -52.570068 0.864914 39.483627
v -52.728333 1.156181 38.824432
v -52.722488 1.198107 38.848793
v -52.569801 1.198107 39.484749
v -52.563972 1.156181 39.509109
v -52.682602 0.772724 39.014908
v -52.688370 0.817260 38.990906
v -52.603928 0.817260 39.342628
v -52.609673 0.772724 39.318626
s 0
f 1165 1174 1190 1181
f 1161 1177 1189 1173
f 1175 1191 1192 1176
f 1173 1189 1190 1174
f 1167 1172 1188 1183
f 1164 1180 1187 1171
f 1166 1182 1185 1169
f 1163 1170 1186 1179
f 1171 1187 1188 1172
f 1163 1179 1180 1164
f 1169 1185 1186 1170
f 1167 1183 1184 1168
f 1168 1184 1191 1175
f 1165 1181 1182 1166
f 1162 1176 1192 1178
g Cube.002_Cube.139_Cube.002_Cube.139
v -52.682602 0.281515 39.014908
v -52.609673 0.281515 39.318626
v -52.698204 1.231343 38.949936
v -52.594093 1.231343 39.383591
v -52.722214 0.864914 38.849915
v -52.728333 0.931961 38.824432
v -52.563972 0.931961 39.509109
v -52.570068 0.864914 39.483627
v -52.728333 1.156181 38.824432
v -52.722488 1.198107 38.848793
v -52.569801 1.198107 39.484749
v -52.563972 1.156181 39.509109
v -52.682602 0.772724 39.014908
v -52.688370 0.817260 38.990906
v -52.603928 0.817260 39.342628
v -52.609673 0.772724 39.318626
v -62.181419 0.281515 40.904327
v -62.132545 0.281515 41.212830
v -62.191879 1.231343 40.838333
v -62.122116 1.231343 41.278824
v -62.207970 0.864914 40.736732
v -62.212074 0.931961 40.710854
v -62.101936 0.931961 41.406311
v -62.106010 0.864914 41.380432
v -62.212074 1.156181 40.710854
v -62.208153 1.198107 40.735596
v -62.105835 1.198107 41.381569
v -62.101936 1.156181 41.406311
v -62.181419 0.772724 40.904327
v -62.185295 0.817260 40.879944
v -62.128700 0.817260 41.237213
v -62.132545 0.772724 41.212830
s 0
f 1196 1212 1219 1203
f 1198 1214 1217 1201
f 1195 1202 1218 1211
f 1203 1219 1220 1204
f 1195 1211 1212 1196
f 1201 1217 1218 1202
f 1199 1215 1216 1200
f 1200 1216 1223 1207
f 1197 1213 1214 1198
f 1194 1208 1224 1210
f 1197 1206 1222 1213
f 1193 1209 1221 1205
f 1207 1223 1224 1208
f 1205 1221 1222 1206
f 1199 1204 1220 1215
g Cube.002_Cube.140_Cube.002_Cube.140
v -62.181419 0.281515 40.904327
v -62.132545 0.281515 41.212830
v -62.191879 1.231343 40.838333
v -62.122116 1.231343 41.278824
v -62.207970 0.864914 40.736732
v -62.212074 0.931961 40.710854
v -62.101936 0.931961 41.406311
v -62.106010 0.864914 41.380432
v -62.212074 1.156181 40.710854
v -62.208153 1.198107 40.735596
v -62.105835 1.198107 41.381569
v -62.101936 1.156181 41.406311
v -62.181419 0.772724 40.904327
v -62.185295 0.817260 40.879944
v -62.128700 0.817260 41.237213
v -62.132545 0.772724 41.212830
v -71.799202 0.281515 42.042648
v -71.774681 0.281515 42.354042
v -71.804451 1.231343 41.976044
v -71.769463 1.231343 42.420647
v -71.812515 0.864914 41.873489
v -71.814583 0.931961 41.847366
v -71.759346 0.931961 42.549324
v -71.761375 0.864914 42.523209
v -71.814583 1.156181 41.847366
v -71.812614 1.198107 41.872345
v -71.761284 1.198107 42.524353
v -71.759346 1.156181 42.549324
v -71.799202 0.772724 42.042648
v -71.801147 0.817260 42.018044
v -71.772758 0.817260 42.378654
v -71.774681 0.772724 42.354042
s 0
f 1231 1247 1248 1232
f 1232 1248 1255 1239
f 1229 1245 1246 1230
f 1226 1240 1256 1242
f 1229 1238 1254 1245
f 1225 1241 1253 1237
f 1239 1255 1256 1240
f 1237 1253 1254 1238
f 1231 1236 1252 1247
f 1228 1244 1251 1235
f 1230 1246 1249 1233
f 1227 1234 1250 1243
f 1235 1251 1252 1236
f 1227 1243 1244 1228
f 1233 1249 1250 1234
g Cube.002_Cube.141_Cube.002_Cube.141
v -71.799202 0.281515 42.042648
v -71.774681 0.281515 42.354042
v -71.804451 1.231343 41.976044
v -71.769463 1.231343 42.420647
v -71.812515 0.864914 41.873489
v -71.814583 0.931961 41.847366
v -71.759346 0.931961 42.549324
v -71.761375 0.864914 42.523209
v -71.814583 1.156181 41.847366
v -71.812614 1.198107 41.872345
v -71.761284 1.198107 42.524353
v -71.759346 1.156181 42.549324
v -71.799202 0.772724 42.042648
v -71.801147 0.817260 42.018044
v -71.772758 0.817260 42.378654
v -71.774681 0.772724 42.354042
v -81.499985 0.281515 42.343822
v -81.499985 0.281515 42.656178
v -81.499985 1.231344 42.277012
v -81.499985 1.231344 42.722988
v -81.499985 0.864914 42.174145
v -81.499985 0.931961 42.147938
v -81.499985 0.931961 42.852062
v -81.499985 0.864914 42.825871
v -81.499985 1.156182 42.147938
v -81.499985 1.198108 42.172993
v -81.499985 1.198107 42.827023
v -81.499985 1.156182 42.852062
v -81.499985 0.772724 42.343822
v -81.499985 0.817260 42.319141
v -81.499985 0.817260 42.680866
v -81.499985 0.772724 42.656178
s 0
f 1257 1273 1285 1269
f 1271 1287 1288 1272
f 1269 1285 1286 1270
f 1263 1268 1284 1279
f 1260 1276 1283 1267
f 1262 1278 1281 1265
f 1259 1266 1282 1275
f 1267 1283 1284 1268
f 1259 1275 1276 1260
f 1265 1281 1282 1266
f 1263 1279 1280 1264
f 1264 1280 1287 1271
f 1261 1277 1278 1262
f 1258 1272 1288 1274
f 1261 1270 1286 1277
g Cube.002_Cube.142_Cube.002_Cube.142
v -75.947708 -1.174355 53.058296
v -73.953873 -1.174354 52.901344
v -73.953873 -0.474354 52.901344
v -75.947708 -0.474355 53.058296
v -76.967651 -0.474355 40.098351
v -76.967651 -1.174355 40.098351
v -74.973839 -1.174355 39.941422
v -74.973839 -0.474355 39.941422
s 1
f 1289 1294 1295 1290
f 1290 1291 1292 1289
f 1294 1293 1296 1295
g Cube.002_Cube.143_Cube.002_Cube.143
v -65.452873 -1.174355 52.211494
v -63.477493 -1.174354 51.898598
v -63.477493 -0.474354 51.898598
v -65.452873 -0.474355 52.211494
v -67.486504 -0.474355 39.371536
v -67.486504 -1.174355 39.371536
v -65.511131 -1.174355 39.058655
v -65.511131 -0.474355 39.058655
s 1
f 1297 1302 1303 1298
f 1298 1299 1300 1297
f 1302 1301 1304 1303
g Cube.002_Cube.144_Cube.002_Cube.144
v -55.056816 -1.174355 50.543892
v -53.112083 -1.174355 50.076973
v -53.112083 -0.474355 50.076973
v -55.056816 -0.474355 50.543892
v -58.091591 -0.474355 37.903076
v -58.091591 -1.174355 37.903076
v -56.146858 -1.174355 37.436172
v -56.146858 -0.474355 37.436172
s 1
f 1305 1310 1311 1306
f 1306 1307 1308 1305
f 1310 1309 1312 1311
g Cube.002_Cube.145_Cube.002_Cube.145
v -44.823654 -1.174355 48.065758
v -42.921547 -1.174355 47.447708
v -42.921547 -0.474355 47.447708
v -44.823654 -0.474355 48.065758
v -48.840858 -0.474355 35.702026
v -48.840858 -1.174355 35.702026
v -46.938751 -1.174355 35.083977
v -46.938751 -0.474355 35.083977
s 1
f 1313 1318 1319 1314
f 1314 1315 1316 1313
f 1318 1317 1320 1319
g Cube.002_Cube.146_Cube.002_Cube.146
v -34.816460 -1.174355 44.792389
v -32.968712 -1.174355 44.027008
v -32.968712 -0.474355 44.027008
v -34.816460 -0.474355 44.792389
v -39.791328 -0.474355 32.781952
v -39.791328 -1.174355 32.781952
v -37.943581 -1.174355 32.016579
v -37.943581 -0.474355 32.016579
s 1
f 1321 1326 1327 1322
f 1322 1323 1324 1321
f 1326 1325 1328 1327
g Cube.002_Cube.147_Cube.002_Cube.147
v -25.096947 -1.174355 40.743950
v -23.314941 -1.174355 39.835960
v -23.314941 -0.474355 39.835960
v -25.096947 -0.474355 40.743950
v -30.998810 -0.474355 29.160866
v -30.998810 -1.174355 29.160866
v -29.216805 -1.174355 28.252876
v -29.216805 -0.474355 28.252876
s 1
f 1329 1334 1335 1330
f 1330 1331 1332 1329
f 1334 1333 1336 1335
g Cube.002_Cube.148_Cube.002_Cube.148
v -15.725029 -1.174355 35.945412
v -14.019753 -1.174355 34.900406
v -14.019753 -0.474355 34.900406
v -15.725029 -0.474355 35.945412
v -22.517502 -0.474355 24.861084
v -22.517502 -1.174356 24.861084
v -20.812225 -1.174355 23.816078
v -20.812225 -0.474355 23.816078
s 1
f 1337 1342 1343 1338
f 1338 1339 1340 1337
f 1342 1341 1344 1343
g Cube.002_Cube.149_Cube.002_Cube.149
v -6.758492 -1.174355 30.426353
v -5.140461 -1.174355 29.250771
v -5.140461 -0.474355 29.250771
v -6.758492 -0.474355 30.426353
v -14.399696 -0.474356 19.909126
v -14.399696 -1.174356 19.909126
v -12.781662 -1.174356 18.733551
v -12.781662 -0.474355 18.733551
s 1
f 1345 1350 1351 1346
f 1346 1347 1348 1345
f 1350 1349 1352 1351
g Cube.002_Cube.150_Cube.002_Cube.150
v 1.747387 -1.174356 24.220802
v 3.268192 -1.174355 22.921890
v 3.268192 -0.474355 22.921890
v 1.747387 -0.474355 24.220802
v -6.695435 -0.474356 14.335518
v -6.695435 -1.174356 14.335518
v -5.174622 -1.174356 13.036621
v -5.174622 -0.474356 13.036621
s 1
f 1353 1358 1359 1354
f 1354 1355 1356 1353
f 1358 1357 1360 1359
g Cube.002_Cube.151_Cube.002_Cube.151
v 9.740162 -1.174356 17.367004
v 11.154369 -1.174356 15.952782
v 11.154369 -0.474356 15.952782
v 9.740162 -0.474356 17.367004
v 0.547775 -0.474356 8.174622
v 0.547775 -1.174356 8.174622
v 1.961990 -1.174356 6.760406
v 1.961990 -0.474356 6.760406
s 1
f 1361 1366 1367 1362
f 1362 1363 1364 1361
f 1366 1365 1368 1367
g Cube.002_Cube.152_Cube.002_Cube.152
v 17.170555 -1.174356 9.907234
v 18.469448 -1.174356 8.386421
v 18.469448 -0.474356 8.386421
v 17.170555 -0.474356 9.907234
v 7.285282 -0.474356 1.464417
v 7.285282 -1.174356 1.464417
v 8.584175 -1.174356 -0.056397
v 8.584175 -0.474356 -0.056397
s 1
f 1369 1374 1375 1370
f 1370 1371 1372 1369
f 1374 1373 1376 1375
g Cube.002_Cube.153_Cube.002_Cube.153
v 23.992756 -1.174356 1.887482
v 25.168325 -1.174356 0.269447
v 25.168325 -0.474356 0.269447
v 23.992756 -0.474356 1.887482
v 13.475540 -0.474356 -5.753731
v 13.475540 -1.174357 -5.753731
v 14.651108 -1.174356 -7.371758
v 14.651108 -0.474356 -7.371758
s 1
f 1377 1382 1383 1378
f 1378 1379 1380 1377
f 1382 1381 1384 1383
g Cube.002_Cube.154_Cube.002_Cube.154
v 30.164703 -1.174357 -6.642815
v 31.209700 -1.174356 -8.348091
v 31.209700 -0.474356 -8.348091
v 30.164703 -0.474356 -6.642815
v 19.080383 -0.474357 -13.435295
v 19.080383 -1.174357 -13.435295
v 20.125378 -1.174357 -15.140568
v 20.125378 -0.474357 -15.140568
s 1
f 1385 1390 1391 1386
f 1386 1387 1388 1385
f 1390 1389 1392 1391
g Cube.002_Cube.155_Cube.002_Cube.155
v 35.648346 -1.174357 -15.631054
v 36.556328 -1.174357 -17.413063
v 36.556328 -0.474357 -17.413063
v 35.648346 -0.474357 -15.631054
v 24.065266 -0.474357 -21.532928
v 24.065266 -1.174357 -21.532928
v 24.973246 -1.174357 -23.314938
v 24.973246 -0.474357 -23.314938
s 1
f 1393 1398 1399 1394
f 1394 1395 1396 1393
f 1398 1397 1400 1399
g Cube.002_Cube.156_Cube.002_Cube.156
v 40.409878 -1.174357 -25.021832
v 41.175243 -1.174357 -26.869587
v 41.175243 -0.474357 -26.869587
v 40.409878 -0.474357 -25.021832
v 28.399445 -0.474357 -29.996712
v 28.399445 -1.174357 -29.996712
v 29.164810 -1.174357 -31.844467
v 29.164810 -0.474357 -31.844467
s 1
f 1401 1406 1407 1402
f 1402 1403 1404 1401
f 1406 1405 1408 1407
g Cube.002_Cube.157_Cube.002_Cube.157
v 44.419937 -1.174357 -34.757244
v 45.037971 -1.174357 -36.659355
v 45.037971 -0.474357 -36.659355
v 44.419937 -0.474357 -34.757244
v 32.056206 -0.474357 -38.774464
v 32.056206 -1.174358 -38.774464
v 32.674236 -1.174357 -40.676579
v 32.674236 -0.474357 -40.676579
s 1
f 1409 1414 1415 1410
f 1410 1411 1412 1409
f 1414 1413 1416 1415
g Cube.002_Cube.158_Cube.002_Cube.158
v 47.653805 -1.174358 -44.777271
v 48.120693 -1.174358 -46.722012
v 48.120693 -0.474358 -46.722012
v 47.653805 -0.474358 -44.777271
v 35.012993 -0.474358 -47.812057
v 35.012993 -1.174358 -47.812057
v 35.479885 -1.174358 -49.756798
v 35.479885 -0.474358 -49.756798
s 1
f 1417 1422 1423 1418
f 1418 1419 1420 1417
f 1422 1421 1424 1423
g Cube.002_Cube.159_Cube.002_Cube.159
v 50.091537 -1.174358 -55.020138
v 50.404408 -1.174358 -56.995514
v 50.404408 -0.474358 -56.995514
v 50.091537 -0.474358 -55.020138
v 37.251591 -0.474358 -57.053787
v 37.251591 -1.174358 -57.053787
v 37.564461 -1.174358 -59.029160
v 37.564461 -0.474358 -59.029160
s 1
f 1425 1430 1431 1426
f 1426 1427 1428 1425
f 1430 1429 1432 1431
g Cube.002_Cube.160_Cube.002_Cube.160
v 51.718113 -1.174358 -65.422691
v 51.875031 -1.174358 -67.416527
v 51.875031 -0.474358 -67.416527
v 51.718113 -0.474358 -65.422691
v 38.758186 -0.474358 -66.442657
v 38.758186 -1.174358 -66.442657
v 38.915108 -1.174358 -68.436493
v 38.915108 -0.474358 -68.436493
s 1
f 1433 1438 1439 1434
f 1434 1435 1436 1433
f 1438 1437 1440 1439
g Cube.002_Cube.161_Cube.002_Cube.161
v 53.023499 -1.174359 -75.920799
v 53.023499 -1.174359 -77.920799
v 53.023499 -0.474359 -77.920799
v 53.023499 -0.474359 -75.920799
v 40.023499 -0.474359 -75.920799
v 40.023499 -1.174359 -75.920799
v 40.023499 -1.174359 -77.920799
v 40.023499 -0.474359 -77.920799
s 1
f 1441 1446 1447 1442
f 1442 1443 1444 1441
f 1446 1445 1448 1447
g Cube.002_Cube.162_Cube.002_Cube.162
v -74.050697 -0.174354 51.671135
v -76.044525 -0.174354 51.828056
v -76.243195 -0.174355 49.303886
v -74.249352 -0.174354 49.146973
v -74.346169 -0.474355 47.916756
v -76.339996 -0.474355 48.073685
v -73.953873 -0.474354 52.901344
v -75.947708 -0.474355 53.058296
s 1
f 1451 1450 1449 1452
f 1454 1451 1452 1453
f 1449 1450 1456 1455
g Cube.002_Cube.163_Cube.002_Cube.163
v -74.877045 -0.174355 41.171638
v -76.870850 -0.174355 41.328537
v -76.672180 -0.174355 43.852722
v -74.678360 -0.174355 43.695801
v -76.575394 -0.474355 45.082932
v -74.581558 -0.474355 44.926010
v -76.967651 -0.474355 40.098351
v -74.973839 -0.474355 39.941422
s 1
f 1458 1457 1464 1463
f 1458 1459 1460 1457
f 1459 1461 1462 1460
g Cube.002_Cube.164_Cube.002_Cube.164
v -65.318115 -0.174355 40.277489
v -67.293472 -0.174355 40.590332
v -66.897377 -0.174355 43.091141
v -64.921997 -0.174355 42.778275
v -66.704369 -0.474355 44.309967
v -64.728973 -0.474355 43.997093
v -67.486504 -0.474355 39.371536
v -65.511131 -0.474355 39.058655
s 1
f 1466 1465 1472 1471
f 1466 1467 1468 1465
f 1467 1469 1470 1468
g Cube.002_Cube.165_Cube.002_Cube.165
v -63.670540 -0.174354 50.679787
v -65.645912 -0.174354 50.992653
v -66.042015 -0.174355 48.491852
v -64.066620 -0.174354 48.178978
v -64.259659 -0.474355 46.960159
v -66.235039 -0.474355 47.273033
v -63.477493 -0.474354 51.898598
v -65.452873 -0.474355 52.211494
s 1
f 1475 1474 1473 1476
f 1478 1475 1476 1477
f 1473 1474 1480 1479
g Cube.002_Cube.166_Cube.002_Cube.166
v -53.400154 -0.174354 48.877060
v -55.344894 -0.174355 49.343956
v -55.935989 -0.174355 46.881943
v -53.991226 -0.174354 46.415039
v -54.279297 -0.474355 45.215134
v -56.224045 -0.474355 45.682022
v -53.112083 -0.474355 50.076973
v -55.056816 -0.474355 50.543892
s 1
f 1483 1482 1481 1484
f 1486 1483 1484 1485
f 1481 1482 1488 1487
g Cube.002_Cube.167_Cube.002_Cube.167
v -55.858803 -0.174355 38.636101
v -57.803528 -0.174355 39.102966
v -57.212440 -0.174355 41.564995
v -55.267708 -0.174355 41.098099
v -56.924400 -0.474355 42.764915
v -54.979645 -0.474355 42.298019
v -58.091591 -0.474355 37.903076
v -56.146858 -0.474355 37.436172
s 1
f 1490 1489 1496 1495
f 1490 1491 1492 1489
f 1491 1493 1494 1492
g Cube.002_Cube.168_Cube.002_Cube.168
v -46.557434 -0.174355 36.257607
v -48.459541 -0.174355 36.875618
v -47.677109 -0.174355 39.283676
v -45.774994 -0.174355 38.665634
v -47.295807 -0.474355 40.457298
v -45.393677 -0.474355 39.839256
v -48.840858 -0.474355 35.702026
v -46.938751 -0.474355 35.083977
s 1
f 1498 1497 1504 1503
f 1498 1499 1500 1497
f 1499 1501 1502 1500
g Cube.002_Cube.169_Cube.002_Cube.169
v -43.302872 -0.174354 46.274094
v -45.204987 -0.174355 46.892128
v -45.987427 -0.174355 44.484085
v -44.085289 -0.174355 43.866043
v -44.466614 -0.474355 42.692429
v -46.368736 -0.474355 43.310463
v -42.921547 -0.474355 47.447708
v -44.823654 -0.474355 48.065758
s 1
f 1507 1506 1505 1508
f 1510 1507 1508 1509
f 1505 1506 1512 1511
g Cube.002_Cube.170_Cube.002_Cube.170
v -33.440941 -0.174355 42.886925
v -35.288704 -0.174355 43.652290
v -36.257660 -0.174355 41.313065
v -34.409882 -0.174355 40.547691
v -34.882111 -0.474355 39.407608
v -36.729874 -0.474355 40.172974
v -32.968712 -0.474355 44.027008
v -34.816460 -0.474355 44.792389
s 1
f 1515 1514 1513 1516
f 1518 1515 1516 1517
f 1513 1514 1520 1519
g Cube.002_Cube.171_Cube.002_Cube.171
v -37.471359 -0.174355 33.156662
v -39.319107 -0.174355 33.922012
v -38.350159 -0.174355 36.261261
v -36.502396 -0.174355 35.495888
v -37.877945 -0.474355 37.401344
v -36.030174 -0.474355 36.635971
v -39.791328 -0.474355 32.781952
v -37.943581 -0.474355 32.016579
s 1
f 1522 1521 1528 1527
f 1522 1523 1524 1521
f 1523 1525 1526 1524
g Cube.002_Cube.172_Cube.002_Cube.172
v -28.656586 -0.174355 29.352394
v -30.438591 -0.174355 30.260361
v -29.289093 -0.174355 32.516380
v -27.507080 -0.174355 31.608391
v -28.728882 -0.474355 33.615898
v -26.946861 -0.474355 32.707909
v -30.998810 -0.474355 29.160866
v -29.216805 -0.474355 28.252876
s 1
f 1530 1529 1536 1535
f 1530 1531 1532 1529
f 1531 1533 1534 1532
g Cube.002_Cube.173_Cube.002_Cube.173
v -23.875160 -0.174355 38.736443
v -25.657181 -0.174355 39.644424
v -26.806686 -0.174355 37.388428
v -25.024658 -0.174355 36.480438
v -25.584877 -0.474355 35.380920
v -27.366890 -0.474355 36.288902
v -23.314941 -0.474355 39.835960
v -25.096947 -0.474355 40.743950
s 1
f 1539 1538 1537 1540
f 1542 1539 1540 1541
f 1537 1538 1544 1543
g Cube.002_Cube.174_Cube.002_Cube.174
v -14.664520 -0.174355 33.848236
v -16.369804 -0.174355 34.893227
v -17.692764 -0.174355 32.734375
v -15.987473 -0.174355 31.689377
v -16.632233 -0.474355 30.637192
v -18.337517 -0.474355 31.682198
v -14.019753 -0.474355 34.900406
v -15.725029 -0.474355 35.945412
s 1
f 1547 1546 1545 1548
f 1550 1547 1548 1549
f 1545 1546 1552 1551
g Cube.002_Cube.175_Cube.002_Cube.175
v -20.167465 -0.174355 24.868256
v -21.872734 -0.174355 25.913239
v -20.549782 -0.174355 28.072113
v -18.844505 -0.174355 27.027115
v -19.905029 -0.474355 29.124290
v -18.199738 -0.474355 28.079285
v -22.517502 -0.474355 24.861084
v -20.812225 -0.474355 23.816078
s 1
f 1554 1553 1560 1559
f 1554 1555 1556 1553
f 1555 1557 1558 1556
g Cube.002_Cube.176_Cube.002_Cube.176
v -12.056335 -0.174355 19.731895
v -13.674362 -0.174355 20.907448
v -12.186104 -0.174355 22.955872
v -10.568073 -0.174355 21.780304
v -11.460781 -0.474355 23.954216
v -9.842743 -0.474355 22.778633
v -14.399696 -0.474356 19.909126
v -12.781662 -0.474355 18.733551
s 1
f 1562 1561 1568 1567
f 1562 1563 1564 1561
f 1563 1565 1566 1564
g Cube.002_Cube.177_Cube.002_Cube.177
v -5.865791 -0.174355 28.252434
v -7.483829 -0.174355 29.428001
v -8.972092 -0.174355 27.379601
v -7.354050 -0.174355 26.204025
v -8.079376 -0.474355 25.205673
v -9.697414 -0.474355 26.381256
v -5.140461 -0.474355 29.250771
v -6.758492 -0.474355 30.426353
s 1
f 1571 1570 1569 1572
f 1574 1571 1572 1573
f 1569 1570 1576 1575
g Cube.002_Cube.178_Cube.002_Cube.178
v 2.466774 -0.174355 21.983543
v 0.945957 -0.174355 23.282440
v -0.698433 -0.174355 21.357117
v 0.822384 -0.174355 20.058220
v 0.020962 -0.474355 19.119850
v -1.499851 -0.474356 20.418762
v 3.268192 -0.474355 22.921890
v 1.747387 -0.474355 24.220802
s 1
f 1579 1578 1577 1580
f 1582 1579 1580 1581
f 1577 1578 1584 1583
g Cube.002_Cube.179_Cube.002_Cube.179
v -4.373203 -0.174356 13.974976
v -5.894012 -0.174356 15.273857
v -4.249619 -0.174356 17.199196
v -2.728813 -0.174356 15.900299
v -3.448204 -0.474356 18.137550
v -1.927391 -0.474356 16.838646
v -6.695435 -0.474356 14.335518
v -5.174622 -0.474356 13.036621
s 1
f 1586 1585 1592 1591
f 1586 1587 1588 1585
f 1587 1589 1590 1588
g Cube.002_Cube.180_Cube.002_Cube.180
v 10.281799 -0.174356 15.080200
v 8.867580 -0.174356 16.494423
v 7.077198 -0.174356 14.704056
v 8.491417 -0.174356 13.289841
v 7.618843 -0.474356 12.417244
v 6.204628 -0.474356 13.831474
v 11.154369 -0.474356 15.952782
v 9.740162 -0.474356 17.367004
s 1
f 1595 1594 1593 1596
f 1598 1595 1596 1597
f 1593 1594 1600 1599
g Cube.002_Cube.181_Cube.002_Cube.181
v 2.834560 -0.174356 7.632988
v 1.420349 -0.174356 9.047188
v 3.210735 -0.174356 10.837570
v 4.624943 -0.174356 9.423363
v 4.083302 -0.474356 11.710159
v 5.497517 -0.474356 10.295929
v 0.547775 -0.474356 8.174622
v 1.961990 -0.474356 6.760406
s 1
f 1602 1601 1608 1607
f 1602 1603 1604 1601
f 1603 1605 1606 1604
g Cube.002_Cube.182_Cube.002_Cube.182
v 9.522518 -0.174356 0.745026
v 8.223625 -0.174356 2.265839
v 10.148964 -0.174356 3.910217
v 11.447853 -0.174356 2.389412
v 11.087303 -0.474356 4.711655
v 12.386200 -0.474356 3.190834
v 7.285282 -0.474356 1.464417
v 8.584175 -0.474356 -0.056397
s 1
f 1610 1609 1616 1615
f 1610 1611 1612 1609
f 1611 1613 1614 1612
g Cube.002_Cube.183_Cube.002_Cube.183
v 17.531101 -0.174356 7.584991
v 16.232204 -0.174356 9.105804
v 14.306870 -0.174356 7.461426
v 15.605766 -0.174356 5.940613
v 14.667423 -0.474356 5.139168
v 13.368523 -0.474356 6.659996
v 18.469448 -0.474356 8.386421
v 17.170555 -0.474356 9.907234
s 1
f 1619 1618 1617 1620
f 1622 1619 1620 1621
f 1617 1618 1624 1623
g Cube.002_Cube.184_Cube.002_Cube.184
v 24.169992 -0.174356 -0.455887
v 22.994421 -0.174356 1.162148
v 20.946003 -0.174356 -0.326111
v 22.121574 -0.174356 -1.944138
v 21.123241 -0.474356 -2.669487
v 19.947670 -0.474356 -1.051445
v 25.168325 -0.474356 0.269447
v 23.992756 -0.474356 1.887482
s 1
f 1627 1626 1625 1628
f 1630 1627 1628 1629
f 1625 1626 1632 1631
g Cube.002_Cube.185_Cube.002_Cube.185
v 15.649441 -0.174356 -6.646423
v 14.473873 -0.174356 -5.028397
v 16.522289 -0.174356 -3.540138
v 17.697853 -0.174356 -5.158165
v 17.520618 -0.474356 -2.814796
v 18.696190 -0.474356 -4.432838
v 13.475540 -0.474356 -5.753731
v 14.651108 -0.474356 -7.371758
s 1
f 1634 1633 1640 1639
f 1634 1635 1636 1633
f 1635 1637 1638 1636
g Cube.002_Cube.186_Cube.002_Cube.186
v 30.157536 -0.174356 -8.992859
v 29.112537 -0.174356 -7.287582
v 26.953667 -0.174356 -8.610535
v 27.998665 -0.174356 -10.315811
v 26.946501 -0.474356 -10.960587
v 25.901501 -0.474357 -9.255302
v 31.209700 -0.474356 -8.348091
v 30.164703 -0.474356 -6.642815
s 1
f 1643 1642 1641 1644
f 1646 1643 1644 1645
f 1641 1642 1648 1647
g Cube.002_Cube.187_Cube.002_Cube.187
v 21.177544 -0.174356 -14.495796
v 20.132549 -0.174357 -12.790527
v 22.291418 -0.174357 -11.467567
v 23.336411 -0.174356 -13.172844
v 23.343582 -0.474357 -10.822800
v 24.388578 -0.474357 -12.528084
v 19.080383 -0.474357 -13.435295
v 20.125378 -0.474357 -15.140568
s 1
f 1650 1649 1656 1655
f 1650 1651 1652 1649
f 1651 1653 1654 1652
g Cube.002_Cube.188_Cube.002_Cube.188
v 35.456818 -0.174357 -17.973297
v 34.548836 -0.174357 -16.191284
v 32.292824 -0.174357 -17.340775
v 33.200806 -0.174357 -19.122787
v 32.101295 -0.474357 -19.683022
v 31.193314 -0.474357 -17.901005
v 36.556328 -0.474357 -17.413063
v 35.648346 -0.474357 -15.631054
s 1
f 1659 1658 1657 1660
f 1662 1659 1660 1661
f 1657 1658 1664 1663
g Cube.002_Cube.189_Cube.002_Cube.189
v 26.072754 -0.174357 -22.754707
v 25.164774 -0.174357 -20.972702
v 27.420788 -0.174357 -19.823204
v 28.328764 -0.174357 -21.605213
v 28.520296 -0.474357 -19.262974
v 29.428276 -0.474357 -21.044987
v 24.065266 -0.474357 -21.532928
v 24.973246 -0.474357 -23.314938
s 1
f 1666 1665 1672 1671
f 1666 1667 1668 1665
f 1667 1669 1670 1668
g Cube.002_Cube.190_Cube.002_Cube.190
v 30.304886 -0.174357 -31.372234
v 29.539518 -0.174357 -29.524479
v 31.878767 -0.174357 -28.555534
v 32.644131 -0.174357 -30.403290
v 33.018841 -0.474357 -28.083298
v 33.784206 -0.474357 -29.931057
v 28.399445 -0.474357 -29.996712
v 29.164810 -0.474357 -31.844467
s 1
f 1674 1673 1680 1679
f 1674 1675 1676 1673
f 1675 1677 1678 1676
g Cube.002_Cube.191_Cube.002_Cube.191
v 40.035168 -0.174357 -27.341827
v 39.269802 -0.174357 -25.494064
v 36.930553 -0.174357 -26.463009
v 37.695923 -0.174357 -28.310772
v 36.555847 -0.474357 -28.783009
v 35.790478 -0.474357 -26.935246
v 41.175243 -0.474357 -26.869587
v 40.409878 -0.474357 -25.021832
s 1
f 1683 1682 1681 1684
f 1686 1683 1684 1685
f 1681 1682 1688 1687
g Cube.002_Cube.192_Cube.002_Cube.192
v 43.864357 -0.174357 -37.040688
v 43.246323 -0.174357 -35.138573
v 40.838264 -0.174357 -35.920998
v 41.456303 -0.174357 -37.823112
v 40.282688 -0.474357 -38.204445
v 39.664654 -0.474357 -36.302330
v 45.037971 -0.474357 -36.659355
v 44.419937 -0.474357 -34.757244
s 1
f 1691 1690 1689 1692
f 1694 1691 1692 1693
f 1689 1690 1696 1695
g Cube.002_Cube.193_Cube.002_Cube.193
v 33.847847 -0.174357 -40.295246
v 33.229813 -0.174357 -38.393135
v 35.637875 -0.174357 -37.610710
v 36.255905 -0.174357 -39.512821
v 36.811485 -0.474357 -37.229382
v 37.429520 -0.474357 -39.131493
v 32.056206 -0.474357 -38.774464
v 32.674236 -0.474357 -40.676579
s 1
f 1698 1697 1704 1703
f 1698 1699 1700 1697
f 1699 1701 1702 1700
g Cube.002_Cube.194_Cube.002_Cube.194
v 38.783276 -0.174358 -58.836121
v 38.470406 -0.174358 -56.860741
v 40.971214 -0.174358 -56.464653
v 41.284084 -0.174358 -58.440033
v 42.190033 -0.474358 -56.271614
v 42.502903 -0.474358 -58.246990
v 37.251591 -0.474358 -57.053787
v 37.564461 -0.474358 -59.029160
s 1
f 1706 1705 1712 1711
f 1706 1707 1708 1705
f 1707 1709 1710 1708
g Cube.002_Cube.195_Cube.002_Cube.195
v 49.185593 -0.174358 -57.188557
v 48.872723 -0.174358 -55.213181
v 46.371914 -0.174358 -55.609268
v 46.684784 -0.174358 -57.584648
v 45.465965 -0.474358 -57.777687
v 45.153099 -0.474358 -55.802311
v 50.404408 -0.474358 -56.995514
v 50.091537 -0.474358 -55.020138
s 1
f 1715 1714 1713 1716
f 1718 1715 1716 1717
f 1713 1714 1720 1719
g Cube.002_Cube.196_Cube.002_Cube.196
v 46.920780 -0.174358 -47.010086
v 46.453892 -0.174358 -45.065346
v 43.991867 -0.174358 -45.656425
v 44.458759 -0.174358 -47.601166
v 43.258846 -0.474358 -47.889240
v 42.791954 -0.474358 -45.944500
v 48.120693 -0.474358 -46.722012
v 47.653805 -0.474358 -44.777271
s 1
f 1723 1722 1721 1724
f 1726 1723 1724 1725
f 1721 1722 1728 1727
g Cube.002_Cube.197_Cube.002_Cube.197
v 36.679798 -0.174358 -49.468727
v 36.212906 -0.174358 -47.523987
v 38.674931 -0.174358 -46.932907
v 39.141823 -0.174358 -48.877647
v 39.874844 -0.474358 -46.644836
v 40.341736 -0.474358 -48.589569
v 35.012993 -0.474358 -47.812057
v 35.479885 -0.474358 -49.756798
s 1
f 1730 1729 1736 1735
f 1730 1731 1732 1729
f 1731 1733 1734 1732
g Cube.002_Cube.198_Cube.002_Cube.198
v 40.145309 -0.174358 -68.339676
v 39.988392 -0.174358 -66.345840
v 42.512569 -0.174358 -66.147186
v 42.669487 -0.174358 -68.141022
v 43.742775 -0.474358 -66.050362
v 43.899693 -0.474358 -68.044197
v 38.758186 -0.474358 -66.442657
v 38.915108 -0.474358 -68.436493
s 1
f 1738 1737 1744 1743
f 1738 1739 1740 1737
f 1739 1741 1742 1740
g Cube.002_Cube.199_Cube.002_Cube.199
v 50.644825 -0.174358 -67.513344
v 50.487907 -0.174358 -65.519516
v 47.963730 -0.174358 -65.718170
v 48.120651 -0.174358 -67.712006
v 46.890446 -0.474358 -67.808823
v 46.733528 -0.474358 -65.814987
v 51.875031 -0.474358 -67.416527
v 51.718113 -0.474358 -65.422691
s 1
f 1747 1746 1745 1748
f 1750 1747 1748 1749
f 1745 1746 1752 1751
g Cube.002_Cube.200_Cube.002_Cube.200
v 51.789490 -0.174359 -77.920799
v 51.789490 -0.174359 -75.920799
v 49.257507 -0.174359 -75.920799
v 49.257507 -0.174359 -77.920799
v 48.023499 -0.474359 -77.920799
v 48.023499 -0.474359 -75.920799
v 53.023499 -0.474359 -77.920799
v 53.023499 -0.474359 -75.920799
s 1
f 1755 1754 1753 1756
f 1758 1755 1756 1757
f 1753 1754 1760 1759
