# Blender 4.5.4 LTS
# www.blender.org
mtllib BroomWide.mtl
o stockBasic_geo
v 0.008439 0.523502 -0.062894
v 0.008439 0.523502 0.077639
v 0.008439 0.519850 -0.075940
v 0.008439 0.519840 0.092936
v -0.081842 0.500637 -0.015363
v -0.061330 0.500657 -0.053433
v -0.081588 0.500657 0.029994
v -0.028424 0.500665 -0.077275
v 0.008439 0.500657 -0.083798
v -0.033636 0.500628 0.092669
v -0.066720 0.500647 0.065509
v 0.008439 0.500599 0.099802
v 0.077525 0.523494 -0.010061
v 0.062050 0.523474 -0.038899
v 0.078475 0.523484 0.021068
v 0.039185 0.523494 -0.056142
v 0.036998 0.523484 0.074054
v 0.061368 0.523494 0.056276
v 0.090879 0.519850 -0.013227
v 0.071775 0.519840 -0.047864
v 0.093518 0.519821 0.026713
v 0.044529 0.519879 -0.069532
v 0.042568 0.519821 0.088625
v 0.072168 0.519821 0.065203
v 0.098720 0.500637 -0.015363
v 0.078208 0.500657 -0.053433
v 0.098466 0.500657 0.029994
v 0.045301 0.500665 -0.077275
v 0.050514 0.500628 0.092669
v 0.083596 0.500647 0.065509
v -0.410364 0.499244 0.829793
v -0.356308 0.499244 0.903873
v -0.411682 0.499254 -0.834171
v -0.256508 0.499225 0.941945
v -0.357956 0.499254 -0.916797
v -0.269120 0.499264 -0.956315
v -0.269120 -0.351229 -0.956315
v -0.353328 -0.351229 -0.920763
v -0.411682 -0.351234 -0.834171
v -0.410371 -0.349587 -0.103965
v -0.410364 -0.352111 0.829793
v -0.347591 -0.351812 0.916005
v -0.256508 -0.351255 0.941945
v 0.462560 0.499244 0.829793
v 0.408504 0.499235 0.903873
v 0.463878 0.499254 -0.834171
v 0.308704 0.499225 0.941945
v 0.410152 0.499254 -0.916797
v 0.321317 0.499264 -0.956315
v 0.321317 -0.351229 -0.956315
v 0.431928 -0.352855 -0.894901
v 0.455406 -0.352653 -0.280889
v 0.462628 -0.351234 -0.834171
v 0.399944 -0.351244 0.909747
v 0.462560 -0.351239 0.829793
v 0.308704 -0.351250 0.941945
v -0.450026 -0.514988 -0.782215
v -0.170284 -0.518714 -0.778325
v -0.175317 -0.525909 -0.612463
v -0.451307 -0.522596 -0.617803
v -0.414835 -0.427380 0.308097
v -0.453023 -0.512593 0.314123
v -0.431026 -0.511633 0.477315
v -0.387900 -0.428376 0.495245
v 0.543520 -0.523204 -0.619633
v 0.270656 -0.525599 -0.614903
v 0.260601 -0.519457 -0.781757
v 0.534115 -0.515649 -0.779317
v -0.384693 -0.428557 -0.917253
v -0.393924 -0.432149 -0.730565
v -0.351667 -0.353273 -0.897037
v -0.395896 -0.435560 0.957889
v -0.368771 -0.353727 0.692389
v -0.417375 -0.498390 0.694601
v -0.422918 -0.506906 0.493719
v -0.425081 -0.524588 0.707645
v -0.344039 -0.354047 0.685139
v -0.369952 -0.440783 0.732975
v -0.403809 -0.441361 0.741291
v -0.401841 -0.427374 0.273001
v -0.361919 -0.355868 0.294057
v -0.364300 -0.355678 0.060981
v -0.399341 -0.429217 0.067161
v -0.385040 -0.444592 0.676441
v -0.359001 -0.355734 0.508139
v -0.430832 -0.504284 -0.970279
v -0.437513 -0.512955 -0.813037
v -0.429242 -0.497141 0.802021
v -0.433137 -0.517724 1.024187
v -0.426303 -0.511830 -0.316825
v -0.397670 -0.425672 -0.515189
v -0.423858 -0.512397 -0.515111
v -0.414014 -0.505616 -0.799077
v -0.412172 -0.506163 -0.779927
v -0.384277 -0.429594 -0.302025
v -0.442716 -0.521295 -0.307975
v -0.443529 -0.521636 -0.126243
v -0.383637 -0.428747 -0.090307
v -0.143779 -0.512448 -0.316441
v -0.157164 -0.520531 -0.309119
v -0.404265 -0.497678 0.798283
v -0.353322 -0.356571 -0.287985
v -0.304513 -0.520747 -0.112511
v -0.158632 -0.519840 -0.157827
v -0.164788 -0.519416 -0.106941
v -0.398303 -0.513233 -0.525335
v -0.400445 -0.512748 -0.591405
v -0.399709 -0.471449 -0.543567
v -0.423957 -0.469364 -0.554783
v -0.384451 -0.504026 -0.108391
v -0.429245 -0.510415 0.100197
v -0.381185 -0.429232 -0.068031
v -0.426674 -0.510890 -0.054221
v -0.368835 -0.426822 0.297567
v -0.401259 -0.501074 0.302755
v -0.441541 -0.514482 0.104621
v -0.360047 -0.427586 -0.079781
v -0.368038 -0.397838 -0.074897
v -0.444973 -0.515401 0.272847
v -0.424308 -0.535756 0.523475
v -0.435017 -0.527891 0.847111
v -0.363176 -0.356406 -0.491003
v -0.361436 -0.356204 -0.706759
v -0.399733 -0.501136 0.282691
v -0.372806 -0.427194 0.285285
v -0.382037 -0.353417 0.313895
v -0.218180 -0.528975 0.845891
v -0.224207 -0.499866 0.799961
v -0.229390 -0.499650 0.693379
v -0.238270 -0.529625 0.700093
v -0.134779 -0.538306 0.522025
v -0.134238 -0.531276 0.689411
v -0.115615 -0.523999 1.026781
v -0.108291 -0.517362 0.490971
v -0.230146 -0.514379 0.287421
v -0.160232 -0.512211 0.432913
v -0.179570 -0.514565 0.100959
v -0.169559 -0.513812 0.179161
v -0.158873 -0.511726 0.467245
v -0.170005 -0.513512 0.248969
v -0.392647 -0.504067 -0.059029
v -0.359686 -0.427597 -0.071463
v -0.360108 -0.356911 -0.072303
v -0.311303 -0.511138 -0.055213
v -0.289544 -0.511963 0.042593
v -0.169855 -0.512005 0.090507
v -0.168507 -0.510611 0.055869
v -0.314224 -0.507050 -0.106483
v -0.285833 -0.519901 0.037941
v -0.160774 -0.517114 0.049843
v -0.320316 -0.507030 -0.060861
v -0.115537 -0.506410 0.484411
v -0.114382 -0.513543 -0.971271
v -0.158870 -0.517879 -0.811817
v -0.140377 -0.354604 -0.928089
v 0.236346 -0.354139 -0.937319
v 0.230070 -0.432030 -0.937853
v -0.132750 -0.434352 -0.938617
v 0.255919 -0.354315 -0.899401
v 0.476354 -0.430414 -0.914737
v 0.492825 -0.436592 -0.731557
v 0.471434 -0.433011 0.944309
v 0.208339 -0.433527 0.972537
v 0.511185 -0.503716 -0.971193
v 0.239564 -0.509827 -0.972415
v 0.248761 -0.431689 -0.919771
v 0.224891 -0.524103 1.023959
v 0.512033 -0.518229 1.016481
v 0.522405 -0.511943 -0.818607
v 0.526011 -0.525703 0.843831
v 0.493383 -0.451167 0.734959
v -0.129181 -0.432701 0.973453
v 0.510181 -0.512666 -0.513813
v 0.482657 -0.431292 -0.503055
v 0.478108 -0.432732 -0.309499
v 0.513381 -0.512448 -0.324223
v 0.544936 -0.514947 -0.167747
v 0.430365 -0.507040 -0.177283
v 0.435340 -0.432603 -0.223669
v 0.487206 -0.431921 -0.206197
v 0.427835 -0.505461 -0.314001
v 0.435153 -0.431777 -0.297521
v 0.473736 -0.424794 0.496389
v 0.460252 -0.351688 0.472279
v 0.505505 -0.469891 -0.751849
v 0.466030 -0.510106 -0.801211
v 0.459867 -0.512934 -0.521979
v 0.458076 -0.511241 -0.589651
v 0.486004 -0.433671 0.007195
v 0.546976 -0.515329 0.021997
v 0.516650 -0.511417 0.034127
v 0.534479 -0.515504 0.110801
v 0.515091 -0.511117 0.095543
v 0.485109 -0.433635 0.064719
v 0.457385 -0.352261 0.026575
v -0.096839 -0.514018 -1.000339
v 0.226315 -0.514255 -0.994005
v -0.144998 -0.434740 -0.925037
v -0.150963 -0.355094 -0.904971
v 0.468097 -0.510632 -0.786487
v 0.477614 -0.429341 0.285743
v 0.527785 -0.514947 0.270635
v 0.523004 -0.513853 0.466177
v 0.449243 -0.499866 0.480825
v 0.452914 -0.498938 0.557041
v 0.515980 -0.537717 0.608617
v 0.518264 -0.528417 0.786305
v 0.459744 -0.499350 0.775623
v 0.462666 -0.498235 0.788517
v 0.526351 -0.513977 0.297033
v 0.496618 -0.514493 0.285591
v 0.228358 -0.517899 -0.810749
v 0.209705 -0.521512 -0.785037
v -0.103902 -0.521171 -0.789309
v -0.119609 -0.509693 -0.787555
v -0.160900 -0.509074 -0.772371
v 0.233142 -0.510581 -0.783741
v 0.201829 -0.511499 0.574971
v 0.206599 -0.499608 0.557653
v 0.246411 -0.499701 0.481665
v 0.263342 -0.514245 0.474417
v 0.267026 -0.513925 0.284675
v 0.267956 -0.516175 0.106377
v 0.255612 -0.511757 0.097069
v 0.253944 -0.513925 0.030541
v 0.263274 -0.514431 -0.176597
v 0.255687 -0.509053 -0.181859
v 0.241620 -0.509239 -0.275931
v 0.255217 -0.508330 -0.307135
v 0.255088 -0.512903 -0.313161
v 0.260890 -0.512603 -0.553641
v 0.258609 -0.514018 -0.594151
v 0.212241 -0.539276 0.610677
v 0.207709 -0.535436 0.676823
v -0.154178 -0.514802 -0.699665
v -0.151495 -0.511902 -0.584921
v 0.255959 -0.518250 -0.602543
v 0.232015 -0.510890 -0.762685
v 0.230983 -0.510467 -0.797549
v -0.111730 -0.509496 -0.769627
v -0.126559 -0.519086 -0.510763
v 0.256031 -0.518673 -0.575231
v -0.117815 -0.522255 -0.524191
v -0.122173 -0.519571 -0.277075
v 0.235713 -0.516319 -0.279517
v -0.138470 -0.512294 -0.520603
v 0.222269 -0.534342 0.825825
v -0.118288 -0.529625 0.834981
v -0.220019 -0.529759 0.835743
v -0.108859 -0.539131 0.835055
v 0.219184 -0.503407 0.782871
v 0.209000 -0.529717 0.797825
v 0.208894 -0.529521 0.813847
v -0.223601 -0.539812 0.702533
v -0.035626 -0.539864 0.684759
v -0.223114 -0.540752 0.833835
v -0.032626 -0.543136 0.824911
v 0.194330 -0.536613 0.810565
v -0.105628 -0.517021 0.669803
v 0.195209 -0.514348 0.658437
v 0.247528 -0.500960 0.285207
v 0.215544 -0.499639 0.482885
v 0.220502 -0.501219 0.258123
v 0.202210 -0.514358 0.458319
v 0.208816 -0.513873 0.264837
v -0.106663 -0.517445 0.457175
v -0.103731 -0.507154 0.450917
v -0.151467 -0.518652 0.433675
v -0.154498 -0.518446 0.258201
v -0.030893 -0.508754 0.249273
v -0.018689 -0.502086 0.245765
v -0.030648 -0.508051 0.082113
v -0.021914 -0.502137 0.082267
v 0.243796 -0.502302 0.114159
v -0.170267 -0.513440 0.286583
v 0.094336 -0.515267 -0.147147
v 0.110882 -0.514523 0.062507
v 0.253440 -0.508939 -0.099235
v 0.240507 -0.504036 0.032447
v 0.245744 -0.501311 -0.093361
v 0.132698 -0.510622 -0.105263
v 0.129320 -0.511644 -0.272117
v 0.126760 -0.504625 -0.100761
v 0.125061 -0.506008 -0.271199
v 0.123770 -0.502137 0.063957
v 0.101433 -0.506307 -0.150047
v -0.145662 -0.511282 -0.161337
v -0.140592 -0.510467 -0.276311
v -0.019343 -0.502509 0.065711
v -0.151876 -0.502323 0.058159
v -0.153739 -0.502333 0.082573
v -0.410360 -0.351466 0.590917
v 0.008439 0.543169 -0.062551
v 0.008439 0.543122 0.079661
v 0.064874 0.543142 -0.035504
v 0.077916 0.543132 -0.008230
v 0.078055 0.543150 0.023165
v 0.040881 0.543142 -0.056103
v 0.063945 0.543113 0.053263
v 0.039934 0.543122 0.072870
v -0.060647 0.523494 -0.010061
v -0.045172 0.523474 -0.038899
v -0.047996 0.543142 -0.035504
v -0.061038 0.543132 -0.008230
v -0.061177 0.543150 0.023165
v -0.061597 0.523484 0.021068
v -0.024004 0.543142 -0.056103
v -0.022307 0.523494 -0.056142
v -0.047067 0.543113 0.053263
v -0.023056 0.543122 0.072870
v -0.020120 0.523484 0.074054
v -0.044490 0.523494 0.056276
v -0.074001 0.519850 -0.013227
v -0.054897 0.519840 -0.047864
v -0.076638 0.519821 0.026713
v -0.027651 0.519879 -0.069532
v -0.055290 0.519821 0.065203
v -0.025690 0.519821 0.088625
vn 0.7435 0.6493 -0.1599
vn 0.9698 -0.0059 -0.2437
vn 0.6007 0.6751 -0.4283
vn 0.7728 -0.0104 -0.6346
vn 0.9760 -0.0106 0.2177
vn 0.7424 0.6489 0.1666
vn 0.4059 -0.0238 -0.9136
vn 0.0020 0.6688 -0.7434
vn 0.3335 0.6347 -0.6971
vn -0.0000 0.0148 -0.9999
vn 0.3593 0.6615 0.6583
vn 0.7814 -0.0147 0.6239
vn 0.6017 0.6618 0.4472
vn 0.4024 -0.0206 0.9152
vn -0.0077 0.6433 0.7656
vn -0.0000 -0.0912 0.9958
vn 0.2434 0.9674 -0.0697
vn 0.1991 0.9658 -0.1663
vn 0.2009 0.9657 -0.1645
vn 0.2438 0.9675 -0.0667
vn 0.2316 0.9715 0.0509
vn 0.2282 0.9716 0.0621
vn 0.1015 0.9673 -0.2323
vn -0.0000 0.9667 -0.2558
vn 0.1048 0.9673 -0.2308
vn -0.0000 0.9668 -0.2557
vn 0.0895 0.9723 0.2159
vn 0.1860 0.9712 0.1490
vn 0.0913 0.9723 0.2154
vn 0.1857 0.9712 0.1495
vn -0.0000 0.9725 0.2329
vn -0.0000 0.9725 0.2328
vn 0.6973 0.3951 -0.5981
vn 0.8909 0.3764 -0.2543
vn 0.7010 0.4018 -0.5892
vn 0.8924 0.3846 -0.2362
vn 0.9311 0.3067 0.1975
vn 0.9200 0.3146 0.2339
vn 0.3917 0.3611 -0.8463
vn -0.0000 0.3791 -0.9254
vn -0.0000 0.3789 -0.9254
vn 0.3684 0.3706 -0.8526
vn 0.3535 0.3363 0.8729
vn 0.4125 0.3484 0.8417
vn 0.7045 0.4071 0.5814
vn 0.7236 0.4396 0.5322
vn -0.0000 0.3287 0.9444
vn -0.0000 0.3176 0.9482
vn -0.0019 1.0000 0.0009
vn -0.0014 1.0000 0.0012
vn -0.0014 1.0000 0.0005
vn -0.0056 1.0000 0.0001
vn -0.0002 1.0000 0.0016
vn -0.0006 1.0000 0.0016
vn -0.0020 1.0000 -0.0009
vn -0.0019 1.0000 -0.0009
vn -0.0000 1.0000 0.0017
vn 0.0003 1.0000 -0.0016
vn -0.0011 1.0000 -0.0013
vn -0.0015 1.0000 -0.0012
vn -0.0000 1.0000 -0.0016
vn -0.0197 0.0010 -0.9998
vn -0.6675 0.0014 -0.7446
vn -0.6712 -0.0021 -0.7413
vn -0.0210 0.0006 -0.9998
vn -0.9878 -0.0006 -0.1560
vn -1.0000 -0.0004 0.0009
vn -0.9901 -0.0014 -0.1402
vn -0.6194 0.0050 0.7851
vn -0.9610 -0.0003 0.2764
vn -0.5261 0.2113 0.8237
vn -0.9828 -0.0002 0.1845
vn 0.0071 0.1663 0.9861
vn -0.0147 0.0030 0.9999
vn 0.0008 1.0000 0.0005
vn 0.0013 1.0000 0.0012
vn 0.0018 1.0000 0.0009
vn 0.0054 1.0000 0.0001
vn 0.0002 1.0000 0.0016
vn 0.0008 1.0000 0.0013
vn 0.0018 1.0000 -0.0009
vn 0.0019 1.0000 -0.0008
vn 0.0003 1.0000 0.0016
vn -0.0000 1.0000 -0.0014
vn 0.0010 1.0000 -0.0012
vn 0.0004 1.0000 -0.0015
vn 0.0436 0.0066 -0.9990
vn 0.0435 -0.0035 -0.9990
vn 0.6590 -0.0091 -0.7521
vn 0.7198 0.1765 -0.6713
vn 0.9916 -0.0143 -0.1283
vn 0.9943 0.1069 0.0055
vn 0.9803 0.1755 -0.0909
vn 0.6130 -0.0034 0.7901
vn 0.9716 0.1907 0.1399
vn 0.9848 -0.0112 0.1732
vn 0.3988 0.2895 0.8702
vn 0.0218 -0.0021 0.9998
vn 0.0149 0.1575 0.9874
vn -0.0121 -0.9989 -0.0454
vn -0.0122 -0.9989 -0.0452
vn -0.0149 -0.9987 -0.0485
vn -0.0089 -0.9991 -0.0417
vn -0.9063 0.4044 0.1229
vn -0.8956 0.4185 0.1510
vn -0.9154 0.3914 0.0940
vn -0.9009 0.4158 0.1246
vn 0.0242 -0.9993 -0.0293
vn 0.0103 -0.9990 -0.0432
vn 0.0124 -0.9990 -0.0419
vn -0.0012 -0.9985 -0.0554
vn -0.8799 0.4745 -0.0247
vn -0.8810 0.4724 -0.0271
vn -0.9121 0.4083 -0.0381
vn -0.8928 0.4491 0.0353
vn -0.8469 0.5263 0.0757
vn -0.9022 0.4294 0.0402
vn -0.8927 0.4478 0.0499
vn -0.9201 0.3830 0.0823
vn -0.9656 0.2597 0.0117
vn -0.2174 -0.4059 -0.8877
vn -0.2102 -0.5017 -0.8391
vn -0.1804 -0.5955 -0.7828
vn -0.2222 -0.4126 -0.8834
vn -0.9066 0.4199 -0.0418
vn -0.8886 0.4588 -0.0041
vn -0.8776 0.4794 -0.0007
vn -0.9189 0.3900 -0.0595
vn -0.8968 0.4364 0.0731
vn -0.9261 0.3659 0.0922
vn -0.8517 0.5240 -0.0073
vn -0.8612 0.5075 -0.0261
vn -0.9150 0.4032 0.0155
vn -0.9169 0.3984 0.0230
vn -0.9132 0.4070 0.0189
vn -0.9098 0.4012 0.1064
vn -0.8413 0.5377 -0.0553
vn -0.9083 0.4181 0.0081
vn -0.9572 0.2890 -0.0126
vn -0.9795 0.1753 0.0992
vn -0.8962 0.4432 0.0212
vn -0.8310 0.5451 -0.1112
vn -0.8400 0.5426 -0.0027
vn -0.8784 0.4778 0.0098
vn 0.0001 -0.6791 -0.7340
vn -0.0025 -0.6725 -0.7401
vn -0.0012 -0.6726 -0.7400
vn 0.0017 -0.6795 -0.7336
vn -0.1629 -0.7046 -0.6907
vn -0.1609 -0.6988 -0.6970
vn -0.9227 0.3842 0.0303
vn 0.0141 -0.9999 0.0068
vn 0.0079 -1.0000 0.0044
vn 0.0164 -0.9998 0.0070
vn -0.2455 -0.6244 0.7415
vn -0.2453 -0.6246 0.7414
vn -0.3672 0.1100 -0.9236
vn -0.3674 0.1096 -0.9236
vn -0.3674 0.1099 -0.9235
vn -0.3052 -0.6819 0.6647
vn -0.2671 -0.6156 0.7414
vn -0.2573 -0.6859 0.6807
vn -0.2913 -0.6748 0.6781
vn -0.9973 -0.0013 0.0738
vn -0.9983 -0.0077 0.0575
vn -0.9989 -0.0139 0.0449
vn -0.2196 -0.2256 0.9491
vn -0.8778 0.2950 -0.3774
vn -0.9121 0.4023 -0.0786
vn -0.8746 0.4845 -0.0161
vn -0.2228 0.0304 -0.9744
vn -0.2578 0.0427 -0.9653
vn -0.2218 -0.0012 -0.9751
vn -0.2225 0.0305 -0.9745
vn -0.9315 0.3495 -0.1012
vn -0.3881 -0.2304 0.8923
vn -0.3844 -0.2492 0.8889
vn -0.3882 -0.2226 0.8943
vn -0.8523 0.5228 -0.0179
vn -0.8979 0.4398 -0.0156
vn -0.9991 0.0412 -0.0067
vn -0.9829 0.1844 -0.0002
vn -0.8465 0.5073 0.1613
vn -0.0841 0.5675 -0.8190
vn -0.0840 0.5677 -0.8190
vn -0.0840 0.5677 -0.8189
vn -0.8981 0.4391 0.0231
vn -0.9126 0.4077 -0.0307
vn -0.2990 0.0377 0.9535
vn -0.3295 0.1512 0.9320
vn -0.3195 0.0089 0.9476
vn -0.3124 0.1506 0.9379
vn -0.9310 0.3592 0.0648
vn -0.9484 0.2622 0.1781
vn -0.9462 0.2900 0.1436
vn -0.9370 0.3476 0.0354
vn -0.9143 0.3836 0.1301
vn -0.5131 0.2249 -0.8283
vn -0.9470 0.1073 0.3029
vn -0.3893 -0.0535 0.9196
vn -0.6397 0.3378 -0.6904
vn -0.7991 0.5933 0.0970
vn -0.0342 -0.8402 -0.5411
vn 0.0856 -0.8246 -0.5592
vn 0.0370 -0.8440 -0.5350
vn -0.0183 -0.8445 -0.5352
vn -0.0050 -0.8448 -0.5351
vn -0.0106 -0.9999 0.0023
vn -0.0081 -1.0000 0.0044
vn 0.0019 -0.9999 0.0155
vn -0.0206 -0.9997 -0.0088
vn 0.0375 0.2392 0.9702
vn 0.0188 0.4099 0.9119
vn 0.0251 0.2422 0.9699
vn 0.0305 0.4044 0.9141
vn -0.0137 -0.9986 0.0514
vn 0.0222 -0.9994 0.0260
vn -0.0162 -0.9985 0.0518
vn -0.0362 -0.9971 0.0666
vn -0.0115 -0.9991 0.0420
vn -0.0158 -0.9988 0.0455
vn -0.0409 -0.9988 0.0276
vn -0.0013 -0.9977 0.0671
vn -0.0504 -0.9986 0.0177
vn -0.0084 -0.7992 -0.6010
vn -0.0225 -0.7420 -0.6700
vn -0.0182 -0.6958 -0.7180
vn -0.0334 -0.7466 -0.6644
vn -0.0190 -0.9998 0.0048
vn -0.0040 -0.9999 0.0102
vn -0.0302 -0.9992 0.0272
vn 0.0128 -0.9997 0.0226
vn -0.0119 -0.9999 -0.0115
vn -0.0038 -0.9999 0.0097
vn 0.0016 -1.0000 0.0013
vn -0.2845 -0.9587 0.0009
vn -0.1124 -0.3948 -0.9119
vn -0.0778 -0.9970 -0.0036
vn -0.0589 -0.4336 0.8992
vn -0.0590 -0.4330 0.8995
vn -0.0587 -0.4329 0.8995
vn 0.0002 -0.9999 0.0141
vn 0.0048 -1.0000 0.0050
vn -0.1416 -0.1138 -0.9834
vn -0.0856 -0.3439 -0.9351
vn -0.1319 -0.1818 -0.9744
vn -0.1458 -0.1248 -0.9814
vn -0.9809 0.1921 -0.0316
vn -0.9519 0.3050 -0.0285
vn -0.0045 -1.0000 -0.0071
vn -0.0124 -0.9999 0.0043
vn -0.0269 -0.9995 0.0189
vn 0.0044 -0.9998 -0.0188
vn -0.0098 -0.7232 -0.6905
vn -0.0096 -0.7272 -0.6864
vn -0.0140 -0.9657 -0.2594
vn -0.0149 -0.9675 -0.2524
vn -0.0349 -0.9979 0.0554
vn -0.0639 -0.9920 0.1089
vn -0.5815 -0.8113 0.0603
vn -0.7488 -0.6593 0.0680
vn -0.7372 -0.6746 0.0382
vn -0.8235 -0.5477 0.1478
vn -0.1517 -0.6043 0.7821
vn -0.0571 -0.5671 0.8216
vn -0.0717 -0.5645 0.8223
vn 0.0124 -0.5477 0.8366
vn -0.8448 -0.5026 0.1837
vn -0.3874 -0.9205 -0.0513
vn -0.0464 -0.7457 -0.6647
vn -0.0337 -0.7324 -0.6800
vn -0.0422 -0.9991 -0.0062
vn -0.0421 -0.9991 -0.0068
vn -0.0385 -0.9992 -0.0100
vn -0.0455 -0.9990 -0.0039
vn -0.0481 -0.6269 0.7776
vn -0.0614 -0.5628 0.8243
vn -0.0856 -0.4638 0.8818
vn -0.0849 -0.4512 0.8884
vn -0.3896 -0.2111 0.8965
vn -0.9254 0.3592 -0.1207
vn -0.9883 0.1351 -0.0703
vn -0.9800 0.1789 -0.0874
vn -0.9262 0.3535 -0.1312
vn -0.1416 -0.1534 -0.9780
vn -0.9632 -0.2655 0.0415
vn 0.0098 -0.9621 0.2724
vn -0.0862 -0.9305 0.3561
vn -0.0474 -0.9576 0.2841
vn 0.0007 -1.0000 0.0002
vn -0.0282 -0.9988 -0.0409
vn -0.0203 -0.9987 -0.0474
vn -0.0492 -0.9986 -0.0167
vn -0.0009 -0.9976 -0.0689
vn -0.0020 0.1144 -0.9934
vn -0.0050 0.2983 -0.9545
vn 0.0016 0.3346 -0.9424
vn -0.0066 0.0248 -0.9997
vn 0.0205 0.2543 -0.9669
vn 0.0225 0.2598 -0.9654
vn -0.0031 0.5023 -0.8647
vn 0.9029 0.4158 -0.1093
vn 0.9355 0.3532 0.0063
vn 0.8715 0.4751 0.1215
vn 0.0603 0.5670 0.8215
vn 0.0123 0.4282 0.9036
vn 0.0112 0.6021 -0.7983
vn 0.0010 0.4471 -0.8945
vn 0.0090 0.5680 -0.8230
vn 0.0454 0.5156 0.8557
vn 0.0737 0.6260 0.7764
vn 0.8998 0.4324 -0.0579
vn 0.8899 0.4544 -0.0409
vn 0.8843 0.4641 0.0522
vn 0.9451 0.3266 -0.0113
vn 0.8840 0.4647 0.0514
vn -0.0194 0.5120 0.8588
vn 0.0031 0.4365 0.8997
vn 0.9236 0.3828 0.0187
vn 0.9401 0.3409 0.0034
vn 0.9459 0.3241 0.0145
vn 0.9437 0.3308 0.0001
vn 0.0435 -0.5300 -0.8469
vn 0.1587 -0.5328 -0.8312
vn 0.0981 -0.5356 -0.8388
vn 0.1575 -0.3773 -0.9126
vn 0.1056 -0.1630 0.9810
vn 0.1985 -0.2158 0.9561
vn 0.1014 -0.4913 0.8651
vn 0.9914 -0.1299 -0.0180
vn 0.9960 -0.0889 -0.0095
vn 0.9880 -0.1544 -0.0080
vn 0.9968 -0.0790 -0.0151
vn 0.2552 -0.2472 0.9348
vn 0.9571 0.2897 -0.0065
vn 0.9953 0.0964 -0.0024
vn 0.9690 -0.2469 -0.0052
vn 0.2539 -0.2608 0.9314
vn 0.2607 -0.6045 -0.7528
vn 0.0874 -0.8409 0.5341
vn 0.1451 -0.8204 0.5531
vn 0.0559 -0.8945 0.4436
vn 0.1566 0.1813 -0.9709
vn 0.1249 -0.7464 0.6537
vn 0.0966 -0.8392 0.5352
vn 0.1149 -0.7763 0.6199
vn 0.9646 -0.2618 -0.0321
vn 0.9062 0.4229 0.0011
vn 0.8151 0.5792 0.0071
vn 0.9004 0.4350 -0.0024
vn 0.8044 0.5941 0.0008
vn 0.3831 0.4338 0.8155
vn 0.3833 0.4338 0.8154
vn 0.6062 -0.0799 -0.7913
vn 0.6061 -0.0800 -0.7913
vn 0.6060 -0.0801 -0.7914
vn 0.9204 0.3905 0.0211
vn 0.9292 0.3692 0.0169
vn 0.9294 0.3685 0.0190
vn 0.9898 0.1424 -0.0097
vn 0.8921 0.4518 0.0071
vn -0.0017 0.6053 -0.7960
vn 0.0007 0.5737 -0.8191
vn 0.7744 0.1695 -0.6096
vn 0.7001 0.3760 -0.6070
vn 0.7107 0.3708 -0.5978
vn 0.8128 0.0884 -0.5759
vn -0.8613 -0.0130 -0.5079
vn -0.8317 0.0397 -0.5537
vn -0.8425 -0.0034 -0.5387
vn -0.8174 0.0546 -0.5735
vn -0.8200 0.0317 -0.5715
vn -0.8280 0.0404 -0.5593
vn -0.0243 0.2469 -0.9687
vn -0.0093 0.4621 -0.8868
vn -0.0279 0.2680 -0.9630
vn -0.0041 0.4104 -0.9119
vn -0.0077 0.5625 -0.8268
vn -0.0062 0.5183 -0.8552
vn 0.1302 0.5112 -0.8496
vn 0.1241 -0.4895 -0.8631
vn 0.1314 0.5693 -0.8115
vn 0.9284 0.3715 0.0094
vn 0.8547 0.5188 0.0199
vn 0.8629 0.5046 0.0271
vn 0.1445 -0.2452 0.9586
vn 0.1441 -0.2455 0.9586
vn 0.1444 -0.2454 0.9586
vn 0.1963 -0.6533 -0.7312
vn 0.9524 -0.3020 -0.0422
vn 0.1416 0.5792 0.8028
vn 0.1414 0.5790 0.8029
vn 0.1416 0.5791 0.8029
vn 0.9567 0.2899 -0.0275
vn 0.9511 0.3062 -0.0413
vn 0.0828 -0.8417 -0.5335
vn 0.0613 -0.8413 -0.5371
vn 0.1749 -0.7868 -0.5919
vn 0.3567 0.0813 -0.9307
vn 0.9828 0.1805 0.0403
vn 0.9707 0.2189 0.0987
vn -0.0224 0.5471 0.8368
vn -0.0428 0.6067 0.7938
vn 0.0211 -0.9984 -0.0527
vn 0.0198 -0.9985 -0.0503
vn 0.0227 -0.9982 -0.0555
vn -0.0128 -0.2576 -0.9662
vn 0.2866 -0.9570 -0.0457
vn 0.1840 -0.9824 -0.0312
vn 0.1733 -0.9839 -0.0442
vn 0.3058 -0.9511 -0.0428
vn -0.0003 -0.9994 -0.0344
vn 0.0601 -0.9976 -0.0332
vn -0.0014 -0.9994 -0.0333
vn 0.0129 -0.9993 -0.0353
vn 0.0189 -0.9986 -0.0485
vn 0.0096 -0.9999 -0.0091
vn 0.0063 -1.0000 0.0044
vn -0.0022 -1.0000 0.0028
vn 0.0612 -0.9975 -0.0349
vn -0.0020 -1.0000 0.0044
vn -0.0173 -0.9226 0.3855
vn -0.0185 -0.9246 0.3805
vn -0.0085 -0.8899 0.4560
vn -0.0170 -0.9996 0.0221
vn -0.0134 -0.9995 -0.0290
vn -0.0180 -0.9995 0.0275
vn -0.0190 -0.9982 -0.0568
vn -0.0647 -0.9022 0.4264
vn 0.0023 -0.9119 0.4104
vn -0.0048 -0.9065 0.4222
vn -0.0502 -0.9116 0.4080
vn 0.0159 0.4609 -0.8873
vn 0.0341 0.2274 -0.9732
vn -0.0060 0.4655 -0.8850
vn 0.0542 0.2189 -0.9742
vn 0.0102 -0.8812 0.4726
vn -0.0114 -0.2515 -0.9678
vn 0.8736 0.4865 0.0068
vn 0.8672 0.4978 0.0115
vn 0.4331 0.0954 0.8963
vn -0.0022 -0.7970 -0.6040
vn 0.0005 -0.8026 -0.5965
vn 0.0008 -0.8245 -0.5659
vn 0.0043 -1.0000 0.0016
vn 0.0045 -0.9999 0.0130
vn 0.0088 -0.9999 -0.0068
vn -0.0023 -0.9998 0.0196
vn 0.0226 -0.4813 0.8763
vn 0.0093 -0.6324 0.7746
vn 0.0497 -0.4758 0.8782
vn -0.0101 -0.6341 0.7732
vn -0.0026 -1.0000 0.0026
vn 0.0059 -1.0000 -0.0062
vn 0.0004 -1.0000 -0.0002
vn 0.0029 -0.9994 -0.0337
vn -0.0019 -0.9995 0.0313
vn 0.0011 -1.0000 -0.0017
vn 0.0005 -0.9842 0.1769
vn -0.0166 -0.9859 0.1666
vn 0.0839 -0.9909 0.1052
vn 0.1034 -0.9773 0.1851
vn 0.0971 -0.9828 -0.1568
vn -0.0142 -0.9989 -0.0448
vn -0.0092 -0.9883 -0.1523
vn -0.0036 -1.0000 0.0007
vn -0.0096 -0.9999 0.0064
vn 0.0240 -0.6757 -0.7368
vn 0.0160 -0.9998 -0.0083
vn 0.0230 -0.9997 -0.0126
vn 0.0118 -0.9999 0.0081
vn 0.0068 -0.9999 0.0085
vn 0.0272 -0.6796 -0.7331
vn 0.0264 -0.7571 0.6528
vn 0.0272 -0.7523 0.6583
vn 0.0045 -1.0000 0.0013
vn 0.0009 -1.0000 0.0021
vn -0.0035 -1.0000 0.0068
vn 0.0108 -0.9993 -0.0358
vn -0.2753 -0.9613 -0.0109
vn 0.0003 -0.9995 -0.0309
vn 0.0020 -0.8767 0.4810
vn 0.0055 -0.9983 0.0583
vn 0.0037 -0.9987 0.0508
vn 0.0047 -0.9988 0.0488
vn 0.7645 -0.6337 -0.1184
vn 0.1887 -0.9817 0.0259
vn -0.5900 -0.8074 0.0001
vn -0.5816 -0.8128 0.0327
vn -0.5910 -0.8066 -0.0064
vn 0.6569 -0.7479 -0.0957
vn 0.3928 -0.9193 -0.0236
vn 0.4880 -0.8728 0.0089
vn -0.0090 -0.8886 0.4587
vn -0.4028 -0.4693 0.7858
vn -0.8375 0.5462 -0.0150
vn -0.8835 0.4685 -0.0008
vn -0.9993 -0.0196 0.0323
vn -0.3596 -0.9331 0.0106
vn -0.3510 -0.9363 -0.0133
vn -0.3521 -0.9351 -0.0406
vn -0.3667 -0.9303 0.0125
vn 0.0111 -0.9973 -0.0724
vn 0.0110 -0.9994 -0.0315
vn 0.0046 -0.9992 -0.0405
vn 0.4236 -0.9057 -0.0163
vn 0.4222 -0.9064 0.0093
vn -0.3054 -0.9517 -0.0303
vn 0.0240 -0.9533 0.3011
vn 0.0259 -0.9604 0.2775
vn 0.7834 -0.6074 -0.1317
vn -0.0060 -0.9984 -0.0566
vn 0.0053 -1.0000 0.0075
vn 0.0047 -0.9999 0.0115
vn -0.0045 -0.9981 -0.0609
vn 0.5354 -0.8195 0.2042
vn -0.0003 -0.9901 -0.1400
vn -0.0080 -0.8783 0.4781
vn 0.0029 -0.8860 0.4637
vn -0.0010 -0.8823 0.4707
vn -0.0121 -0.8806 0.4737
vn -0.5532 -0.7945 0.2507
vn 0.8246 -0.5651 -0.0267
vn 0.8268 -0.5619 -0.0269
vn 0.8522 -0.5230 -0.0153
vn 0.0435 -0.9639 0.2626
vn 0.0449 -0.9648 0.2592
vn 0.0443 -0.9638 0.2630
vn 0.0449 -0.9648 0.2591
vn 0.8565 -0.5160 -0.0103
vn -0.0531 -0.8848 0.4630
vn -0.3440 -0.9385 0.0296
vn -0.3323 -0.9427 0.0282
vn -0.4122 -0.9109 -0.0169
vn 0.0131 -0.9993 0.0342
vn 0.0091 -1.0000 -0.0022
vn 0.0135 -0.9999 -0.0083
vn -0.0685 -0.9975 -0.0146
vn 0.0040 -1.0000 -0.0064
vn 0.0035 -1.0000 -0.0077
vn 0.0318 -0.9993 -0.0198
vn -0.0073 -0.9999 0.0091
vn -0.4441 -0.8959 0.0105
vn 0.0155 -0.9977 -0.0654
vn 0.0037 -0.9991 -0.0432
vn 0.7475 -0.6532 -0.1206
vn 0.4980 -0.8671 0.0103
vn -0.3456 -0.9378 0.0318
vn -0.3818 -0.9241 -0.0164
vn -0.4078 -0.9131 -0.0051
vn 0.0232 -0.9986 0.0485
vn -0.0030 -0.9970 0.0776
vn 0.0155 -0.9983 0.0563
vn 0.0151 -0.9983 0.0565
vn -0.0055 -0.9998 0.0180
vn 0.0018 -0.9969 0.0782
vn -0.7098 -0.7038 0.0305
vn 0.0105 -0.9979 0.0635
vn 0.0389 -0.9987 0.0314
vn 0.0237 0.4732 0.8806
vn 0.0280 0.4099 0.9117
vn 0.0263 0.4705 0.8820
vn 0.0181 0.4075 0.9130
vn 0.0500 -0.8244 -0.5638
vn 0.0193 -0.9963 0.0840
vn 0.0193 -0.9963 0.0841
vn 0.0194 -0.9963 0.0840
vn 0.0444 -0.8068 -0.5891
vn -0.0473 -0.9019 -0.4294
vn -0.0974 -0.3743 -0.9222
vn -0.0886 -0.5319 -0.8421
vn 0.0042 -0.6163 -0.7875
vn -0.1005 -0.3667 -0.9249
vn -0.0653 -0.7144 0.6967
vn 0.0086 -0.1609 0.9869
vn 0.0720 -0.6042 0.7936
vn 0.0040 -0.9986 0.0524
vn -0.0081 -0.9999 -0.0143
vn 0.0344 -0.9993 -0.0120
vn 0.0310 -0.9995 -0.0055
vn -0.0128 -0.9999 -0.0071
vn 0.0623 -0.5531 0.8308
vn 0.0664 -0.5521 0.8311
vn 0.0246 -0.9995 -0.0173
vn 0.0413 -0.9985 -0.0373
vn 0.4463 -0.8942 0.0351
vn 0.6675 -0.7436 0.0375
vn 0.7104 -0.7028 -0.0377
vn 0.0032 -0.9272 -0.3745
vn 0.4515 -0.8915 0.0373
vn 0.9345 -0.3557 0.0105
vn -0.0192 -0.6502 -0.7595
vn -0.0267 -0.7060 -0.7077
vn -0.0273 -0.6483 -0.7609
vn 0.0060 -0.9989 0.0471
vn 0.5128 -0.8585 0.0090
vn 0.5826 -0.8127 0.0097
vn 0.5864 -0.8094 0.0311
vn 0.5162 -0.8564 -0.0114
vn -0.8910 -0.4493 -0.0656
vn -0.8836 -0.4612 -0.0806
vn -0.8608 -0.5074 -0.0407
vn -0.8540 -0.5172 -0.0570
vn -0.0020 -0.7925 -0.6098
vn -0.0043 -0.7977 -0.6030
vn -0.5735 -0.8192 0.0066
vn -0.6302 -0.7764 -0.0058
vn -0.6301 -0.7765 -0.0114
vn -0.5741 -0.8188 0.0070
vn -0.3437 -0.9390 0.0101
vn -0.5600 -0.8280 0.0288
vn -0.0023 -0.9999 0.0099
vn -0.0040 -1.0000 -0.0054
vn 0.7368 -0.6757 0.0232
vn 0.6931 -0.7196 0.0434
vn 0.7246 -0.6888 0.0224
vn 0.7371 -0.6754 0.0227
vn 0.0150 -0.9999 0.0053
vn 0.0070 -1.0000 -0.0020
vn 0.0191 -0.9997 0.0142
vn 0.0090 -1.0000 0.0018
vn 0.0099 -1.0000 0.0009
vn 0.0099 -0.9997 0.0245
vn 0.9216 -0.3880 0.0137
vn -0.0335 -0.7870 0.6160
vn 0.0008 -0.7905 0.6124
vn -0.1065 -0.4360 0.8936
vn 0.0130 -0.9999 -0.0010
vn 0.0125 -0.9999 -0.0016
vn 0.0124 -0.9999 -0.0019
vn 0.0117 -0.9999 -0.0029
vn 0.9339 -0.3574 0.0118
vn 0.0476 -0.5076 -0.8603
vn 0.0158 -0.8507 -0.5255
vn 0.0427 -0.7579 -0.6510
vn 0.0465 -0.5217 -0.8519
vn 0.0440 -0.5037 -0.8628
vn 0.0401 -0.9992 -0.0041
vn 0.0257 -0.9993 -0.0267
vn -0.1120 -0.9936 0.0147
vn 0.5029 -0.8643 -0.0078
vn 0.5332 -0.8460 -0.0062
vn 0.5320 -0.8467 -0.0060
vn 0.5040 -0.8636 -0.0106
vn 0.0014 -1.0000 0.0040
vn 0.0114 -0.9999 -0.0062
vn 0.0054 -0.9998 -0.0178
vn 0.0028 -1.0000 0.0068
vn 0.0305 -0.8593 -0.5105
vn 0.0164 -0.9998 0.0105
vn -0.4631 -0.8860 0.0252
vn -0.4199 -0.9070 0.0306
vn -0.4103 -0.9118 0.0159
vn -0.4590 -0.8880 0.0274
vn -0.3026 -0.9531 -0.0000
vn -0.0248 -0.5254 -0.8505
vn -0.2716 -0.2612 0.9263
vn 0.0855 -0.9957 0.0369
vn -0.8775 -0.4703 -0.0936
vn -0.9568 -0.0652 -0.2835
vn -0.8227 -0.5672 -0.0382
vn -0.9406 0.0655 -0.3330
vn 0.0734 -0.9961 0.0488
vn 0.0085 -0.5203 -0.8539
vn 0.0084 -0.5202 -0.8540
vn 0.0083 -0.5203 -0.8540
vn -0.9836 -0.1707 0.0589
vn -0.9821 0.0652 0.1769
vn -0.9896 0.0560 0.1326
vn -0.7442 -0.6657 0.0548
vn -0.9548 0.2934 0.0470
vn -0.9627 0.1371 0.2335
vn -0.9825 0.0691 0.1727
vn 0.0017 -0.0175 0.9998
vn -0.0023 -0.1504 0.9886
vn 0.0137 -0.9999 0.0065
vn -0.0001 -0.9998 0.0186
vn 0.0066 -1.0000 -0.0018
vn -0.5799 -0.8144 -0.0217
vn -0.6453 -0.7632 -0.0324
vn -0.5716 -0.8204 -0.0144
vn -0.5873 -0.8090 0.0229
vn -0.5994 -0.8005 0.0002
vn -0.5996 -0.8003 -0.0062
vn -0.7204 -0.6921 -0.0450
vn 0.0251 -0.9997 0.0010
vn 0.0142 -0.9999 0.0071
vn 0.0404 -0.4776 0.8776
vn -0.3596 -0.7542 0.5494
vn 0.0280 -0.5130 0.8579
vn 0.6809 -0.6715 0.2924
vn 0.7531 -0.5540 0.3548
vn 0.6753 -0.6718 0.3044
vn 0.7584 -0.5560 0.3402
vn 0.0159 -0.9996 -0.0216
vn 0.0139 -0.9999 0.0018
vn -0.6814 -0.4436 0.5821
vn -0.7202 -0.6935 0.0203
vn -0.7212 -0.6925 0.0179
vn -0.0183 -0.1256 0.9919
vn -0.0308 -0.6270 0.7784
vn -0.0297 -0.6210 0.7832
vn -0.0307 -0.6210 0.7832
vn -0.0321 -0.6271 0.7783
vn 0.0292 -0.9994 -0.0164
vn -0.0573 -0.9983 -0.0098
vn 0.0341 -0.9992 -0.0199
vn -0.0855 -0.9949 0.0527
vn -0.0410 -0.9990 -0.0152
vn 0.7570 -0.6508 -0.0585
vn 0.7074 -0.7046 -0.0560
vn 0.7071 -0.7049 -0.0562
vn 0.7577 -0.6499 -0.0601
vn 0.0458 -0.3571 -0.9329
vn 0.0505 -0.4257 -0.9035
vn 0.0407 -0.3565 -0.9334
vn 0.0564 -0.4271 -0.9024
vn 0.0109 -0.9999 0.0075
vn 0.0165 -0.9999 -0.0002
vn 0.0147 -0.9998 -0.0123
vn -0.0171 -0.1180 0.9929
vn 0.5363 -0.8440 0.0131
vn 0.5170 -0.8559 0.0137
vn 0.5351 -0.8447 0.0136
vn 0.5225 -0.8525 0.0104
vn 0.5174 -0.8557 0.0012
vn -0.4391 -0.8950 0.0791
vn 0.0030 -0.9999 -0.0106
vn -0.0287 -0.2078 0.9778
vn -0.0169 -0.5412 0.8407
vn -0.0784 -0.1952 0.9776
vn -0.0160 -0.4811 0.8765
vn -0.0489 -0.0758 -0.9959
vn -0.0096 -0.5538 -0.8326
vn -0.1089 -0.0536 -0.9926
vn 0.0269 -0.5583 -0.8292
vn -0.0071 -0.9994 0.0335
vn -0.0053 -0.9996 0.0263
vn 0.4946 -0.8691 -0.0076
vn 0.4696 -0.8827 0.0147
vn 0.4761 -0.8793 -0.0082
vn 0.4930 -0.8699 0.0164
vn 0.8367 0.0312 -0.5467
vn 0.8069 0.0164 -0.5905
vn 0.0094 -0.9990 -0.0434
vn -0.0054 -0.9989 -0.0475
vn -0.0051 -0.9970 -0.0776
vn -0.0236 -0.9798 -0.1986
vn -0.0091 -0.9977 -0.0672
vn 0.0078 -0.9914 -0.1310
vn 0.0159 -0.9982 -0.0578
vn 0.0127 -0.9994 -0.0311
vn -0.0166 -0.9993 -0.0321
vn -0.0920 -0.9958 0.0007
vn -0.0899 -0.9959 -0.0034
vn -0.1112 -0.9938 0.0042
vn -0.1422 -0.9898 -0.0024
vn -0.1200 -0.9928 -0.0001
vn -0.1463 -0.9892 0.0007
vn -0.0894 -0.9960 -0.0027
vn -0.0427 -0.9991 -0.0027
vn -1.0000 -0.0000 -0.0000
vn -0.1296 -0.9916 -0.0005
vn -0.1194 -0.9928 0.0004
vn -0.0866 -0.9959 0.0244
vn -0.0076 -0.9999 0.0094
vn -0.0099 -0.9999 0.0082
vn -0.0723 -0.9974 -0.0019
vn -0.1522 -0.9874 0.0443
vn -0.0872 -0.9955 -0.0367
vn 0.8293 0.5587 -0.0110
vn 0.8389 0.5441 -0.0158
vn -0.6090 0.6675 -0.4283
vn -0.9698 -0.0059 -0.2437
vn -0.7294 0.6590 -0.1835
vn -0.7728 -0.0104 -0.6346
vn -0.9760 -0.0106 0.2177
vn -0.7288 0.6663 0.1580
vn -0.4058 -0.0238 -0.9136
vn -0.3133 0.6471 -0.6950
vn -0.3593 0.6615 0.6583
vn -0.7814 -0.0147 0.6238
vn -0.4024 -0.0206 0.9152
vn -0.6004 0.6574 0.4554
vn -0.1991 0.9658 -0.1663
vn -0.2434 0.9674 -0.0697
vn -0.2009 0.9657 -0.1645
vn -0.2443 0.9674 -0.0669
vn -0.2316 0.9715 0.0508
vn -0.2282 0.9716 0.0621
vn -0.1015 0.9673 -0.2323
vn -0.1048 0.9673 -0.2308
vn -0.0913 0.9723 0.2153
vn -0.1860 0.9712 0.1490
vn -0.0895 0.9723 0.2159
vn -0.1857 0.9712 0.1495
vn -0.6973 0.3951 -0.5981
vn -0.8909 0.3764 -0.2543
vn -0.8923 0.3846 -0.2363
vn -0.7010 0.4018 -0.5892
vn -0.9311 0.3067 0.1975
vn -0.9200 0.3146 0.2338
vn -0.3917 0.3611 -0.8463
vn -0.3683 0.3706 -0.8527
vn -0.4126 0.3483 0.8417
vn -0.3535 0.3363 0.8729
vn -0.7045 0.4071 0.5814
vn -0.7236 0.4396 0.5321
vt 0.424962 0.694531
vt 0.425817 0.638671
vt 0.439155 0.694539
vt 0.441176 0.638664
vt 0.411196 0.638669
vt 0.410209 0.694541
vt 0.454623 0.638669
vt 0.469959 0.694502
vt 0.454005 0.694536
vt 0.469773 0.638629
vt 0.380045 0.694521
vt 0.392800 0.638671
vt 0.394601 0.694526
vt 0.378640 0.638664
vt 0.364519 0.694512
vt 0.364764 0.638654
vt 0.525744 0.710685
vt 0.507807 0.708820
vt 0.511955 0.703894
vt 0.524369 0.717213
vt 0.540369 0.710849
vt 0.543157 0.718070
vt 0.497008 0.696537
vt 0.499221 0.678981
vt 0.503318 0.693574
vt 0.492866 0.679438
vt 0.572293 0.694110
vt 0.561197 0.707935
vt 0.565305 0.691315
vt 0.556860 0.702691
vt 0.574673 0.677746
vt 0.567287 0.677560
vt 0.860602 0.386452
vt 0.880166 0.434305
vt 0.859747 0.434305
vt 0.879274 0.386452
vt 0.898159 0.386452
vt 0.901578 0.434305
vt 0.844166 0.386452
vt 0.822722 0.434305
vt 0.826517 0.386452
vt 0.840560 0.434305
vt 0.936626 0.386452
vt 0.939822 0.434305
vt 0.918894 0.386452
vt 0.919701 0.434305
vt 0.953089 0.386452
vt 0.959978 0.434305
vt 0.035960 0.387268
vt 0.200527 0.347107
vt 0.217290 0.354126
vt 0.238715 0.354246
vt 0.187700 0.331487
vt 0.018470 0.377900
vt 0.428775 0.387508
vt 0.256675 0.344563
vt 0.184320 0.311811
vt 0.009484 0.360602
vt 0.453158 0.311623
vt 0.453158 0.378192
vt 0.267952 0.329026
vt 0.271016 0.311826
vt 0.736371 0.488857
vt 0.667883 0.539345
vt 0.667883 0.488842
vt 0.736355 0.539345
vt 0.914994 0.062399
vt 0.743067 0.062399
vt 0.914994 0.013019
vt 0.501794 0.013019
vt 0.523195 0.062399
vt 0.501794 0.062399
vt 0.523195 0.013019
vt 0.157112 0.548694
vt 0.206953 0.549130
vt 0.206908 0.568515
vt 0.156790 0.565637
vt 0.937139 0.013019
vt 0.937139 0.062399
vt 0.217290 0.269118
vt 0.200530 0.276137
vt 0.035960 0.235973
vt 0.238717 0.268998
vt 0.187700 0.291756
vt 0.018470 0.245342
vt 0.256678 0.278681
vt 0.428775 0.235738
vt 0.009484 0.262639
vt 0.267952 0.294218
vt 0.448274 0.245051
vt 0.453158 0.260453
vt 0.787443 0.539345
vt 0.787455 0.488877
vt 0.805403 0.488864
vt 0.811419 0.539345
vt 0.035625 0.013414
vt 0.166050 0.064717
vt 0.035637 0.063819
vt 0.451042 0.013414
vt 0.427977 0.063013
vt 0.427596 0.013414
vt 0.451042 0.062258
vt 0.208325 0.451568
vt 0.159124 0.433333
vt 0.208760 0.432174
vt 0.158099 0.473941
vt 0.020341 0.065045
vt 0.014115 0.013414
vt 0.907968 0.638629
vt 0.859780 0.678062
vt 0.859780 0.638629
vt 0.907968 0.678062
vt 0.909974 0.271790
vt 0.836299 0.232371
vt 0.909146 0.227430
vt 0.835464 0.271009
vt 0.285598 0.985674
vt 0.238243 0.985674
vt 0.285598 0.946717
vt 0.238243 0.946717
vt 0.787555 0.220433
vt 0.743692 0.223579
vt 0.783005 0.156415
vt 0.581228 0.386452
vt 0.654119 0.386452
vt 0.658684 0.440759
vt 0.847571 0.180949
vt 0.840492 0.228346
vt 0.824687 0.178048
vt 0.733460 0.676034
vt 0.656123 0.681254
vt 0.654920 0.676034
vt 0.733737 0.681254
vt 0.557624 0.156415
vt 0.507442 0.219480
vt 0.502647 0.156415
vt 0.555868 0.221070
vt 0.894802 0.184799
vt 0.972584 0.223953
vt 0.799915 0.286664
vt 0.762921 0.294234
vt 0.533138 0.431941
vt 0.582522 0.440759
vt 0.509169 0.386452
vt 0.973978 0.182175
vt 0.646749 0.293263
vt 0.693152 0.217951
vt 0.693207 0.293263
vt 0.979225 0.939133
vt 0.913432 0.939133
vt 0.913432 0.935283
vt 0.642935 0.221333
vt 0.644203 0.301761
vt 0.601510 0.301761
vt 0.593118 0.220598
vt 0.557832 0.935225
vt 0.606734 0.935225
vt 0.606734 0.943133
vt 0.557832 0.943133
vt 0.603361 0.681254
vt 0.603444 0.676034
vt 0.639538 0.156415
vt 0.262606 0.560431
vt 0.287706 0.550614
vt 0.286820 0.561519
vt 0.893980 0.970209
vt 0.960012 0.973505
vt 0.886603 0.973505
vt 0.914798 0.903309
vt 0.990739 0.900581
vt 0.990739 0.905635
vt 0.825022 0.867573
vt 0.787342 0.865061
vt 0.786747 0.859833
vt 0.835740 0.858909
vt 0.832549 0.724188
vt 0.872606 0.718745
vt 0.908840 0.724196
vt 0.909808 0.832875
vt 0.840899 0.824751
vt 0.927245 0.824751
vt 0.550572 0.292363
vt 0.587789 0.221033
vt 0.584430 0.292305
vt 0.472757 0.976298
vt 0.539352 0.968880
vt 0.540550 0.976298
vt 0.461546 0.968880
vt 0.546437 0.295414
vt 0.833214 0.121715
vt 0.807430 0.118593
vt 0.834685 0.117059
vt 0.702317 0.256204
vt 0.507244 0.296260
vt 0.815314 0.221531
vt 0.505666 0.424892
vt 0.898272 0.171246
vt 0.015021 0.834711
vt 0.080405 0.829754
vt 0.088812 0.835367
vt 0.687396 0.156415
vt 0.738221 0.156415
vt 0.740126 0.715184
vt 0.676184 0.708622
vt 0.740840 0.710648
vt 0.662949 0.715184
vt 0.757254 0.791142
vt 0.822396 0.791240
vt 0.822063 0.794199
vt 0.757306 0.795878
vt 0.974616 0.269901
vt 0.604987 0.976298
vt 0.884413 0.791680
vt 0.803065 0.715184
vt 0.606873 0.968880
vt 0.848206 0.156415
vt 0.680562 0.461644
vt 0.680997 0.433447
vt 0.685360 0.433447
vt 0.717378 0.461702
vt 0.717378 0.433447
vt 0.492988 0.838667
vt 0.524872 0.813892
vt 0.524872 0.838667
vt 0.492988 0.813892
vt 0.325799 0.852228
vt 0.358373 0.876852
vt 0.325799 0.876852
vt 0.358373 0.852228
vt 0.270375 0.920669
vt 0.238243 0.920669
vt 0.238243 0.878502
vt 0.288626 0.878455
vt 0.288626 0.920669
vt 0.905246 0.610741
vt 0.942248 0.568181
vt 0.960232 0.610741
vt 0.905246 0.568181
vt 0.457818 0.544212
vt 0.408152 0.514948
vt 0.462374 0.524702
vt 0.408152 0.541015
vt 0.315503 0.658508
vt 0.324271 0.706627
vt 0.280902 0.669400
vt 0.286408 0.706627
vt 0.255647 0.658508
vt 0.276379 0.705598
vt 0.236977 0.705598
vt 0.236977 0.659458
vt 0.978371 0.389111
vt 0.978371 0.421108
vt 0.965694 0.384087
vt 0.551152 0.685349
vt 0.519406 0.689306
vt 0.519619 0.684563
vt 0.127027 0.798945
vt 0.097552 0.810194
vt 0.089715 0.797561
vt 0.324271 0.658508
vt 0.272684 0.658508
vt 0.033085 0.861039
vt 0.099385 0.856496
vt 0.104422 0.861039
vt 0.031308 0.856496
vt 0.588903 0.156415
vt 0.589485 0.193624
vt 0.417319 0.922022
vt 0.441216 0.945301
vt 0.420674 0.945161
vt 0.441216 0.908912
vt 0.477537 0.331708
vt 0.479554 0.328191
vt 0.522553 0.331708
vt 0.524209 0.328191
vt 0.396827 0.910295
vt 0.396434 0.918470
vt 0.312308 0.627788
vt 0.324364 0.623309
vt 0.325583 0.635553
vt 0.290190 0.635553
vt 0.753267 0.906455
vt 0.732968 0.906455
vt 0.732968 0.900581
vt 0.754341 0.900581
vt 0.289117 0.627788
vt 0.313496 0.623309
vt 0.104422 0.841982
vt 0.099385 0.845125
vt 0.346804 0.921185
vt 0.335091 0.933537
vt 0.335091 0.921185
vt 0.346804 0.933537
vt 0.231867 0.587843
vt 0.246972 0.576476
vt 0.235221 0.599825
vt 0.247306 0.600755
vt 0.900266 0.121139
vt 0.735141 0.802638
vt 0.668590 0.802638
vt 0.668507 0.800492
vt 0.735141 0.791142
vt 0.005456 0.861039
vt 0.642644 0.802638
vt 0.989267 0.714644
vt 0.942088 0.714644
vt 0.934756 0.708622
vt 0.988021 0.708622
vt 0.287706 0.513844
vt 0.238243 0.514590
vt 0.781949 0.638629
vt 0.830027 0.676430
vt 0.781949 0.676430
vt 0.837667 0.638629
vt 0.005857 0.667437
vt 0.073899 0.606329
vt 0.076363 0.667437
vt 0.005857 0.606329
vt 0.833532 0.519298
vt 0.835416 0.488842
vt 0.903691 0.488842
vt 0.016834 0.132957
vt 0.059997 0.138238
vt 0.451042 0.134423
vt 0.087863 0.421000
vt 0.086116 0.466924
vt 0.969366 0.488842
vt 0.900722 0.527665
vt 0.969366 0.536773
vt 0.006253 0.463144
vt 0.011915 0.413649
vt 0.040180 0.204220
vt 0.004114 0.197193
vt 0.430796 0.215514
vt 0.405498 0.150235
vt 0.471538 0.208993
vt 0.005456 0.521921
vt 0.085980 0.525453
vt 0.156082 0.204208
vt 0.113844 0.133410
vt 0.159449 0.134541
vt 0.111418 0.204423
vt 0.076944 0.765724
vt 0.142378 0.779809
vt 0.076436 0.775473
vt 0.148912 0.760329
vt 0.144441 0.882987
vt 0.075640 0.882987
vt 0.138818 0.869837
vt 0.546761 0.339144
vt 0.611049 0.356635
vt 0.546636 0.356635
vt 0.611049 0.326002
vt 0.074219 0.874468
vt 0.349345 0.127142
vt 0.343594 0.063509
vt 0.477537 0.356635
vt 0.005456 0.882987
vt 0.005456 0.770275
vt 0.432797 0.835508
vt 0.432797 0.876437
vt 0.422278 0.841004
vt 0.969107 0.452457
vt 0.968902 0.461056
vt 0.898025 0.452457
vt 0.286580 0.733657
vt 0.211715 0.746343
vt 0.199017 0.733657
vt 0.829873 0.747269
vt 0.829938 0.763281
vt 0.758563 0.749584
vt 0.234128 0.135294
vt 0.185294 0.206616
vt 0.183846 0.133913
vt 0.229978 0.206904
vt 0.809529 0.935283
vt 0.883668 0.935353
vt 0.813637 0.940726
vt 0.755269 0.550110
vt 0.750695 0.554339
vt 0.682653 0.551963
vt 0.247684 0.135214
vt 0.235852 0.203019
vt 0.250316 0.202707
vt 0.238538 0.064242
vt 0.055387 0.167328
vt 0.147608 0.667437
vt 0.147608 0.606329
vt 0.573232 0.458077
vt 0.639135 0.451622
vt 0.643223 0.458077
vt 0.572694 0.451622
vt 0.832189 0.545458
vt 0.899117 0.545458
vt 0.832302 0.550880
vt 0.899248 0.550880
vt 0.965433 0.550880
vt 0.966216 0.545458
vt 0.508735 0.508244
vt 0.575485 0.543355
vt 0.508735 0.543355
vt 0.577109 0.500769
vt 0.644418 0.543355
vt 0.644418 0.488842
vt 0.540004 0.882114
vt 0.528961 0.875419
vt 0.540004 0.841271
vt 0.299755 0.131266
vt 0.258651 0.206982
vt 0.296308 0.206306
vt 0.720946 0.836796
vt 0.642644 0.834051
vt 0.707600 0.824751
vt 0.821145 0.454927
vt 0.886961 0.462355
vt 0.784877 0.464541
vt 0.405492 0.446045
vt 0.468785 0.463374
vt 0.402555 0.463782
vt 0.933682 0.867879
vt 0.865224 0.867879
vt 0.907516 0.858909
vt 0.417673 0.217606
vt 0.375818 0.225710
vt 0.474398 0.599686
vt 0.464945 0.571355
vt 0.474398 0.530957
vt 0.716236 0.858909
vt 0.716772 0.864708
vt 0.642644 0.868709
vt 0.083193 0.571742
vt 0.009968 0.576845
vt 0.774129 0.363699
vt 0.724938 0.326002
vt 0.774129 0.326002
vt 0.492575 0.882114
vt 0.744237 0.939265
vt 0.787416 0.935283
vt 0.783103 0.939996
vt 0.737545 0.935283
vt 0.198731 0.963991
vt 0.143615 0.914015
vt 0.198731 0.914015
vt 0.142121 0.963991
vt 0.724938 0.363699
vt 0.287960 0.598471
vt 0.266179 0.598471
vt 0.811528 0.564868
vt 0.858608 0.564868
vt 0.811528 0.613707
vt 0.576571 0.818646
vt 0.567408 0.806739
vt 0.615386 0.806739
vt 0.680797 0.386837
vt 0.725025 0.391112
vt 0.681455 0.391112
vt 0.731927 0.386837
vt 0.371578 0.494140
vt 0.416473 0.485754
vt 0.422967 0.494140
vt 0.367850 0.485754
vt 0.386606 0.979036
vt 0.344153 0.970640
vt 0.387434 0.970640
vt 0.338407 0.979036
vt 0.199017 0.780533
vt 0.488300 0.875419
vt 0.342406 0.205163
vt 0.302564 0.205421
vt 0.717748 0.871097
vt 0.610566 0.747269
vt 0.567408 0.758120
vt 0.567408 0.747269
vt 0.431979 0.394289
vt 0.414071 0.428900
vt 0.414071 0.394289
vt 0.431979 0.435126
vt 0.208590 0.308772
vt 0.240814 0.321514
vt 0.205844 0.321514
vt 0.253405 0.308772
vt 0.159515 0.738217
vt 0.115951 0.738217
vt 0.159515 0.692430
vt 0.118645 0.692430
vt 0.115934 0.697382
vt 0.112351 0.691546
vt 0.073950 0.738217
vt 0.074746 0.691546
vt 0.069490 0.694360
vt 0.069525 0.738217
vt 0.055061 0.693973
vt 0.053763 0.738217
vt 0.050509 0.689550
vt 0.005456 0.738217
vt 0.005456 0.689550
vt 0.148912 0.809649
vt 0.282186 0.830219
vt 0.252198 0.830219
vt 0.249590 0.808161
vt 0.282186 0.799323
vt 0.142378 0.809649
vt 0.144441 0.839677
vt 0.138818 0.839833
vt 0.908083 0.314474
vt 0.908083 0.360269
vt 0.899303 0.312468
vt 0.864937 0.304718
vt 0.863461 0.360269
vt 0.899128 0.295774
vt 0.211715 0.782117
vt 0.492072 0.747277
vt 0.545296 0.747269
vt 0.492072 0.763243
vt 0.558822 0.475649
vt 0.515396 0.475269
vt 0.558507 0.472438
vt 0.941028 0.292141
vt 0.946843 0.283005
vt 0.984426 0.292141
vt 0.857119 0.975163
vt 0.814038 0.980582
vt 0.813982 0.970209
vt 0.354147 0.577165
vt 0.371865 0.570137
vt 0.393839 0.577165
vt 0.619830 0.818984
vt 0.747231 0.859377
vt 0.755741 0.296147
vt 0.717113 0.302701
vt 0.908913 0.708622
vt 0.606170 0.841096
vt 0.569347 0.849487
vt 0.567408 0.841096
vt 0.609415 0.849519
vt 0.800103 0.425733
vt 0.727564 0.408219
vt 0.793016 0.389746
vt 0.737963 0.945994
vt 0.732968 0.945994
vt 0.611161 0.841096
vt 0.381099 0.835508
vt 0.381727 0.841004
vt 0.229290 0.425850
vt 0.228615 0.422395
vt 0.266137 0.422776
vt 0.140713 0.989493
vt 0.181374 0.986104
vt 0.181374 0.989493
vt 0.140713 0.986104
vt 0.741253 0.945994
vt 0.733566 0.389746
vt 0.702222 0.936141
vt 0.646687 0.947037
vt 0.642644 0.936141
vt 0.701029 0.947037
vt 0.809529 0.970263
vt 0.388121 0.724532
vt 0.392794 0.718818
vt 0.397554 0.722557
vt 0.826423 0.901810
vt 0.892685 0.907679
vt 0.824687 0.907400
vt 0.892212 0.901810
vt 0.399250 0.718706
vt 0.206937 0.782815
vt 0.031493 0.991490
vt 0.045639 0.981159
vt 0.048570 0.984383
vt 0.864542 0.295774
vt 0.797188 0.368833
vt 0.797188 0.313326
vt 0.858898 0.368833
vt 0.875763 0.569383
vt 0.875763 0.613707
vt 0.861019 0.569661
vt 0.859639 0.613707
vt 0.046250 0.991490
vt 0.800609 0.432171
vt 0.737057 0.449478
vt 0.354147 0.568725
vt 0.398128 0.563169
vt 0.005456 0.988213
vt 0.092605 0.991490
vt 0.101657 0.984383
vt 0.117043 0.959046
vt 0.064744 0.913893
vt 0.117043 0.913893
vt 0.064601 0.959046
vt 0.960232 0.564868
vt 0.941873 0.564868
vt 0.494320 0.925901
vt 0.492072 0.918084
vt 0.539146 0.918084
vt 0.005456 0.913893
vt 0.005456 0.959046
vt 0.288986 0.748339
vt 0.332637 0.772692
vt 0.290933 0.772692
vt 0.342618 0.748339
vt 0.420794 0.599686
vt 0.623205 0.471542
vt 0.580840 0.470146
vt 0.622607 0.468372
vt 0.423443 0.571355
vt 0.418801 0.593851
vt 0.080201 0.790210
vt 0.064196 0.797649
vt 0.047369 0.790210
vt 0.082344 0.799678
vt 0.871710 0.750693
vt 0.852051 0.747725
vt 0.885125 0.747725
vt 0.545296 0.791140
vt 0.365472 0.786647
vt 0.399546 0.786647
vt 0.398013 0.818370
vt 0.365472 0.818370
vt 0.926783 0.759830
vt 0.924445 0.753541
vt 0.440322 0.818370
vt 0.440322 0.786647
vt 0.342403 0.532985
vt 0.339377 0.526477
vt 0.343141 0.526315
vt 0.364519 0.599686
vt 0.310824 0.531289
vt 0.335857 0.503496
vt 0.005456 0.810194
vt 0.058175 0.810194
vt 0.005456 0.790210
vt 0.492072 0.791140
vt 0.604527 0.885365
vt 0.567325 0.899425
vt 0.562658 0.879980
vt 0.607310 0.899425
vt 0.385166 0.523325
vt 0.385166 0.549344
vt 0.367949 0.530701
vt 0.367949 0.549344
vt 0.567408 0.783730
vt 0.620532 0.783730
vt 0.713317 0.651127
vt 0.757367 0.638629
vt 0.759491 0.651127
vt 0.712819 0.638629
vt 0.670886 0.638629
vt 0.668822 0.642606
vt 0.414198 0.435126
vt 0.359495 0.435126
vt 0.818786 0.836542
vt 0.765001 0.836542
vt 0.771007 0.824751
vt 0.817295 0.824751
vt 0.988923 0.342908
vt 0.988923 0.363128
vt 0.935793 0.314133
vt 0.935793 0.363128
vt 0.935793 0.321110
vt 0.988923 0.314133
vt 0.747046 0.836542
vt 0.906525 0.800941
vt 0.958951 0.791142
vt 0.968106 0.801203
vt 0.640666 0.326002
vt 0.702825 0.326002
vt 0.640666 0.369485
vt 0.702825 0.369485
vt 0.743058 0.824751
vt 0.645409 0.900723
vt 0.708411 0.900723
vt 0.686561 0.908312
vt 0.684060 0.914028
vt 0.642644 0.911557
vt 0.234348 0.633416
vt 0.272684 0.633416
vt 0.234348 0.656727
vt 0.950318 0.830521
vt 0.988790 0.824751
vt 0.988875 0.830521
vt 0.949358 0.824751
vt 0.359495 0.474916
vt 0.327302 0.428900
vt 0.319234 0.475005
vt 0.367643 0.428900
vt 0.710855 0.905804
vt 0.280969 0.658508
vt 0.935280 0.085801
vt 0.970027 0.080360
vt 0.976829 0.085801
vt 0.935323 0.080360
vt 0.978930 0.080360
vt 0.462374 0.515006
vt 0.969595 0.795590
vt 0.940222 0.722724
vt 0.120519 0.854402
vt 0.129901 0.846359
vt 0.129901 0.854402
vt 0.120519 0.846359
vt 0.931026 0.715747
vt 0.989091 0.638629
vt 0.989797 0.647875
vt 0.937451 0.647875
vt 0.195483 0.606329
vt 0.205373 0.637848
vt 0.169720 0.631001
vt 0.205373 0.606329
vt 0.169720 0.606329
vt 0.196651 0.638685
vt 0.196044 0.641116
vt 0.869619 0.758323
vt 0.852052 0.758323
vt 0.333380 0.598471
vt 0.333380 0.550614
vt 0.238508 0.557435
vt 0.604440 0.642606
vt 0.622773 0.647209
vt 0.603361 0.647650
vt 0.673117 0.651127
vt 0.653858 0.651127
vt 0.653115 0.642606
vt 0.624349 0.653921
vt 0.230538 0.848637
vt 0.230538 0.808161
vt 0.663294 0.756662
vt 0.682896 0.753181
vt 0.665208 0.761659
vt 0.417040 0.716999
vt 0.426144 0.721395
vt 0.418580 0.723122
vt 0.426150 0.717172
vt 0.251943 0.799323
vt 0.251971 0.848637
vt 0.682907 0.747863
vt 0.643492 0.753144
vt 0.642644 0.747863
vt 0.727207 0.756902
vt 0.268633 0.849440
vt 0.289560 0.849440
vt 0.289560 0.855614
vt 0.268633 0.855614
vt 0.314333 0.449731
vt 0.277338 0.448825
vt 0.307972 0.428900
vt 0.277338 0.428900
vt 0.262771 0.453139
vt 0.642749 0.969711
vt 0.692830 0.969711
vt 0.692830 0.979164
vt 0.642749 0.979164
vt 0.776987 0.975808
vt 0.735851 0.968242
vt 0.778900 0.968242
vt 0.732968 0.975653
vt 0.262771 0.495254
vt 0.234994 0.495254
vt 0.234994 0.448353
vt 0.729080 0.747863
vt 0.187296 0.870314
vt 0.195314 0.842776
vt 0.195314 0.870314
vt 0.187296 0.834200
vt 0.195314 0.834200
vt 0.101765 0.991490
vt 0.314333 0.474520
vt 0.800029 0.900581
vt 0.778605 0.913170
vt 0.802574 0.913170
vt 0.756336 0.913170
vt 0.710804 0.411972
vt 0.690355 0.403906
vt 0.713029 0.407058
vt 0.686303 0.411972
vt 0.319086 0.497637
vt 0.314333 0.497637
vt 0.376432 0.447536
vt 0.384251 0.454896
vt 0.376432 0.454896
vt 0.384251 0.447536
vt 0.507450 0.451622
vt 0.507760 0.458077
vt 0.496285 0.115312
vt 0.533366 0.115312
vt 0.520384 0.133771
vt 0.536603 0.125354
vt 0.631518 0.133771
vt 0.607482 0.125354
vt 0.647600 0.125290
vt 0.647413 0.118939
vt 0.609681 0.118939
vt 0.900790 0.081732
vt 0.915727 0.091598
vt 0.870683 0.091598
vt 0.819741 0.091598
vt 0.720860 0.091598
vt 0.728348 0.081732
vt 0.771794 0.091598
vt 0.629657 0.087147
vt 0.564237 0.081732
vt 0.579450 0.062399
vt 0.689377 0.091598
vt 0.634341 0.091598
vt 0.540257 0.090424
vt 0.487397 0.090424
vt 0.507816 0.081732
vt 0.583775 0.091559
vt 0.541935 0.093562
vt 0.921527 0.091598
vt 0.140785 0.920719
vt 0.086553 0.214138
vt 0.048915 0.207477
s 1
f 296/1/1 13/2/2 295/3/3
f 295/3/3 13/2/2 14/4/4
f 296/1/1 15/5/5 13/2/2
f 15/5/5 296/1/1 297/6/6
f 16/7/7 293/8/8 298/9/9
f 293/8/8 16/7/7 1/10/10
f 300/11/11 18/12/12 299/13/13
f 18/12/12 300/11/11 17/14/14
f 294/15/15 17/14/14 300/11/11
f 17/14/14 294/15/15 2/16/16
f 13/17/17 20/18/18 14/19/19
f 20/18/18 13/17/17 19/20/20
f 15/21/21 19/20/20 13/17/17
f 21/22/22 19/20/20 15/21/21
f 22/23/23 1/24/24 16/25/25
f 1/24/24 22/23/23 3/26/26
f 23/27/27 24/28/28 17/29/29
f 24/28/28 18/30/30 17/29/29
f 4/31/31 17/29/29 2/32/32
f 17/29/29 4/31/31 23/27/27
f 20/33/33 25/34/34 26/35/35
f 25/34/34 20/33/33 19/36/36
f 21/37/37 25/34/34 19/36/36
f 25/34/34 21/37/37 27/38/38
f 22/39/39 9/40/40 3/41/41
f 9/40/40 22/39/39 28/42/42
f 23/43/43 29/44/44 24/45/45
f 24/45/45 29/44/44 30/46/46
f 4/47/47 12/48/48 23/43/43
f 12/48/48 29/44/44 23/43/43
f 24/45/45 27/38/38 21/37/37
f 27/38/38 24/45/45 30/46/46
f 298/9/9 14/4/4 16/7/7
f 14/4/4 298/9/9 295/3/3
f 299/13/13 15/5/5 297/6/6
f 15/5/5 299/13/13 18/12/12
f 20/18/18 16/25/25 14/19/19
f 16/25/25 20/18/18 22/23/23
f 21/22/22 18/30/30 24/28/28
f 18/30/30 21/22/22 15/21/21
f 20/33/33 28/42/42 22/39/39
f 28/42/42 20/33/33 26/35/35
f 31/49/49 11/50/50 7/51/51
f 31/49/49 7/51/51 5/52/52
f 10/53/53 31/49/49 32/54/54
f 31/49/49 10/53/53 11/50/50
f 33/55/55 5/52/52 6/56/56
f 12/57/57 10/53/53 34/58/53
f 36/59/58 35/60/59 8/61/60
f 9/62/61 36/59/58 8/61/60
f 5/52/52 33/55/55 31/49/49
f 36/63/62 38/64/63 35/65/64
f 38/64/63 36/63/62 37/66/65
f 39/67/66 40/68/67 33/69/68
f 32/70/69 41/71/70 42/72/71
f 41/71/70 32/70/69 31/73/72
f 10/53/53 32/54/54 34/58/53
f 43/74/73 34/75/74 32/76/69
f 32/76/69 42/77/71 43/74/73
f 8/61/60 33/55/55 6/56/56
f 33/55/55 8/61/60 35/60/59
f 39/67/66 33/69/68 35/78/64
f 35/78/64 38/79/63 39/67/66
f 27/80/75 30/81/76 44/82/77
f 25/83/78 27/80/75 44/82/77
f 29/84/79 45/85/80 44/82/77
f 29/84/79 44/82/77 30/81/76
f 26/86/81 25/83/78 46/87/82
f 12/57/57 47/88/83 29/84/79
f 47/88/83 12/57/57 34/58/53
f 28/89/84 48/90/85 49/91/86
f 36/59/58 9/62/61 49/91/86
f 49/91/86 9/62/61 28/89/84
f 44/82/77 46/87/82 25/83/78
f 50/92/87 37/66/65 49/93/88
f 36/63/62 49/93/88 37/66/65
f 48/94/89 50/92/87 49/93/88
f 50/92/87 48/94/89 51/95/90
f 46/96/91 52/97/92 53/98/93
f 45/99/94 55/100/95 44/101/96
f 55/100/95 45/99/94 54/102/97
f 47/88/83 45/85/80 29/84/79
f 47/103/98 54/104/97 45/105/94
f 54/104/97 47/103/98 56/106/99
f 48/90/85 28/89/84 46/87/82
f 46/87/82 28/89/84 26/86/81
f 46/96/91 51/107/90 48/108/89
f 51/107/90 46/96/91 53/98/93
f 60/109/100 58/110/101 59/111/102
f 58/110/101 60/109/100 57/112/103
f 61/113/104 63/114/105 64/115/106
f 63/114/105 61/113/104 62/116/107
f 65/117/108 66/118/109 68/119/110
f 66/118/109 67/120/111 68/119/110
f 69/121/112 70/122/113 71/123/114
f 72/124/115 42/125/116 73/126/117
f 74/127/118 75/128/119 76/129/120
f 73/130/121 78/131/122 79/132/123
f 78/131/122 73/130/121 77/133/124
f 82/134/125 80/135/126 81/136/127
f 80/135/126 82/134/125 83/137/128
f 84/138/129 85/139/130 64/115/106
f 69/121/112 86/140/131 87/141/132
f 88/142/133 72/124/115 79/143/134
f 72/124/115 88/142/133 89/144/135
f 84/138/129 77/145/136 85/139/130
f 90/146/137 91/147/138 92/148/139
f 70/149/140 93/150/140 94/151/140
f 95/152/141 90/146/137 96/153/142
f 97/154/143 98/155/144 96/153/142
f 90/156/145 99/157/146 100/158/147
f 90/156/145 100/158/147 96/159/148
f 79/132/123 101/160/149 88/161/150
f 101/160/149 79/132/123 78/131/122
f 102/162/151 95/152/141 98/155/144
f 103/163/152 104/164/153 105/165/154
f 84/138/129 75/128/119 74/127/118
f 75/128/119 84/138/129 64/115/106
f 93/166/155 70/167/155 87/168/156
f 91/169/157 106/170/158 92/171/159
f 107/172/160 108/173/161 109/174/162
f 109/174/162 60/175/163 107/172/160
f 91/176/164 108/177/165 106/178/166
f 110/179/167 98/180/167 97/181/167
f 111/182/168 112/183/169 113/184/170
f 115/185/171 61/186/172 114/187/173
f 61/186/172 115/185/171 62/188/174
f 116/189/175 83/137/128 111/182/168
f 117/190/176 118/191/177 98/192/178
f 83/137/128 82/134/125 112/183/169
f 87/141/132 70/122/113 69/121/112
f 70/122/113 109/193/179 91/147/138
f 75/128/119 64/115/106 63/114/105
f 116/189/175 80/135/126 83/137/128
f 80/135/126 116/189/175 119/194/180
f 73/126/117 79/143/134 72/124/115
f 76/129/120 75/128/119 120/195/181
f 89/144/135 88/142/133 121/196/182
f 77/145/136 84/138/129 78/197/183
f 70/198/184 94/199/185 57/200/186
f 102/162/151 91/147/138 95/152/141
f 91/147/138 122/201/187 123/202/188
f 71/123/114 70/122/113 123/202/188
f 80/203/189 124/204/190 125/205/191
f 124/204/190 80/203/189 119/206/192
f 115/207/193 114/208/194 125/209/195
f 125/209/195 124/210/196 115/207/193
f 126/211/197 64/115/106 85/139/130
f 64/115/106 126/211/197 61/113/104
f 61/186/172 81/212/198 114/187/173
f 114/208/194 81/213/199 125/209/195
f 125/205/191 81/214/200 80/203/189
f 81/212/198 61/186/172 126/215/201
f 101/216/202 78/197/183 74/127/118
f 78/197/183 84/138/129 74/127/118
f 121/217/203 88/218/204 101/219/205
f 101/219/205 127/220/206 121/217/203
f 127/220/206 101/219/205 128/221/207
f 101/222/208 129/223/209 128/224/210
f 129/223/209 101/222/208 74/225/211
f 129/226/212 76/227/213 130/228/214
f 76/227/213 129/226/212 74/229/215
f 130/230/216 76/231/217 120/232/218
f 120/232/218 131/233/219 130/230/216
f 132/234/220 130/230/216 131/233/219
f 89/235/221 127/236/222 133/237/223
f 127/236/222 89/235/221 121/238/224
f 131/239/225 75/240/226 134/241/227
f 75/240/226 131/239/225 120/242/228
f 136/243/229 63/244/230 135/245/231
f 63/244/230 62/246/232 135/245/231
f 138/247/233 119/248/234 116/249/235
f 138/247/233 116/249/235 137/250/236
f 115/251/237 135/252/237 62/253/237
f 135/254/238 115/255/238 124/256/238
f 135/257/239 124/258/240 119/259/241
f 139/260/242 63/244/230 136/243/229
f 119/248/234 140/261/243 135/245/231
f 112/262/244 141/263/245 113/264/246
f 142/265/247 141/263/245 112/262/244
f 143/266/248 118/267/249 82/134/125
f 98/155/144 118/267/249 102/162/151
f 145/268/250 113/269/251 144/270/252
f 113/269/251 145/268/250 111/271/253
f 116/272/254 111/273/255 137/274/256
f 111/273/255 146/275/257 137/274/256
f 111/271/253 145/268/250 146/276/258
f 146/276/258 145/268/250 147/277/259
f 144/278/260 148/279/261 103/280/262
f 103/280/262 149/281/263 144/278/260
f 147/282/264 145/283/265 149/284/266
f 149/284/266 150/285/267 147/282/264
f 144/278/260 149/281/263 145/286/268
f 151/287/269 148/279/261 144/278/260
f 144/288/270 113/264/246 141/263/245
f 144/288/270 141/263/245 151/289/271
f 151/290/272 110/291/273 148/292/274
f 110/291/273 151/290/272 141/293/275
f 110/294/276 97/295/277 148/296/278
f 148/296/278 97/295/277 103/297/279
f 111/182/168 83/137/128 112/183/169
f 110/298/280 117/190/176 98/192/178
f 141/299/281 142/300/282 117/301/283
f 117/301/283 110/302/284 141/299/281
f 118/303/285 142/265/247 112/262/244
f 142/300/282 118/304/286 117/301/283
f 82/134/125 118/267/249 112/183/169
f 102/162/151 118/267/249 143/266/248
f 63/305/287 139/306/288 152/307/289
f 63/305/287 152/307/289 75/308/287
f 100/309/290 103/163/152 96/310/235
f 96/153/142 98/155/144 95/152/141
f 91/147/138 90/146/137 95/152/141
f 86/311/291 154/312/292 87/313/293
f 154/312/292 86/311/291 153/314/294
f 155/315/295 157/316/296 158/317/297
f 157/316/296 155/315/295 156/318/298
f 159/319/299 51/320/300 160/321/301
f 51/107/90 53/98/93 160/322/302
f 53/98/93 161/323/303 160/322/302
f 55/100/95 54/102/97 162/324/304
f 56/106/99 162/325/305 54/104/97
f 162/325/305 56/106/99 163/326/306
f 160/321/301 164/327/307 166/328/308
f 166/328/308 164/327/307 165/329/309
f 162/325/305 167/330/310 168/331/311
f 167/330/310 162/325/305 163/326/306
f 169/332/312 164/333/313 160/322/302
f 162/324/304 170/334/314 171/335/315
f 170/334/314 162/324/304 168/336/316
f 163/326/306 133/337/317 167/330/310
f 133/337/317 163/326/306 172/338/318
f 176/339/319 174/340/320 175/341/321
f 174/340/320 176/339/319 173/342/322
f 180/343/323 178/344/324 179/345/325
f 178/344/324 180/343/323 177/346/326
f 176/347/327 175/348/328 181/349/329
f 179/350/330 181/351/331 182/352/332
f 181/351/331 179/350/330 178/353/333
f 175/348/328 182/354/334 181/349/329
f 55/100/95 183/355/335 184/356/336
f 179/350/330 182/352/332 52/357/337
f 175/348/328 52/358/338 182/354/334
f 180/343/323 179/345/325 52/359/339
f 169/360/340 185/361/341 186/362/342
f 173/363/343 187/364/343 174/365/343
f 174/366/344 188/367/345 65/368/346
f 187/369/347 188/370/347 174/371/347
f 189/372/348 177/373/349 180/374/350
f 177/373/349 189/372/348 190/375/351
f 190/376/352 189/377/353 191/378/353
f 192/379/354 193/380/355 194/381/356
f 194/382/357 191/383/358 189/372/348
f 191/383/358 194/382/357 193/384/359
f 195/385/360 180/374/350 52/97/92
f 180/374/350 195/385/360 189/372/348
f 189/372/348 195/385/360 194/382/357
f 160/322/302 161/323/303 169/332/312
f 174/340/320 185/386/361 161/323/303
f 157/316/296 196/387/362 158/317/297
f 196/387/362 157/316/296 197/388/363
f 157/389/364 165/390/365 197/391/366
f 165/390/365 157/389/364 166/392/367
f 155/393/368 158/394/369 199/395/370
f 199/395/370 158/394/369 198/396/371
f 158/394/369 153/397/372 198/396/371
f 153/397/372 158/394/369 196/398/373
f 199/399/374 69/400/375 71/401/376
f 69/400/375 199/399/374 198/402/377
f 198/402/377 86/403/378 69/400/375
f 86/403/378 198/402/377 153/404/379
f 68/405/380 200/406/381 185/407/382
f 175/341/321 174/340/320 52/97/92
f 52/97/92 174/340/320 53/98/93
f 174/340/320 161/323/303 53/98/93
f 201/408/383 192/409/384 194/382/357
f 192/409/384 201/408/383 202/410/385
f 203/411/386 183/412/387 204/413/388
f 205/414/389 183/415/389 206/416/389
f 204/417/390 183/418/390 205/419/390
f 194/382/357 195/385/360 201/408/383
f 207/420/391 171/421/392 208/422/393
f 207/423/394 206/424/395 171/335/315
f 183/355/335 55/100/95 171/335/315
f 170/425/396 209/426/397 171/427/398
f 210/428/399 211/429/400 201/430/401
f 162/324/304 171/335/315 55/100/95
f 56/106/99 43/74/73 172/338/318
f 56/106/99 172/338/318 163/326/306
f 72/431/402 172/338/318 43/74/73
f 72/431/402 133/337/317 172/338/318
f 133/337/317 72/431/402 89/432/403
f 169/433/404 165/434/405 164/435/406
f 200/406/381 68/405/380 67/436/407
f 212/437/408 197/438/409 165/439/410
f 213/440/411 197/438/409 212/437/408
f 213/441/412 196/442/413 197/443/414
f 196/442/413 213/441/412 214/444/415
f 165/434/405 169/433/404 212/445/416
f 91/147/138 123/202/188 70/122/113
f 102/162/151 122/201/187 91/147/138
f 150/446/417 149/447/418 105/165/154
f 149/447/418 103/163/152 105/165/154
f 90/448/419 92/449/420 99/450/421
f 107/451/422 60/452/423 59/453/424
f 93/454/425 216/455/426 94/456/427
f 216/455/426 93/454/425 215/457/428
f 93/458/429 154/459/430 215/460/431
f 154/459/430 93/458/429 87/461/432
f 58/462/433 94/463/434 216/464/435
f 94/463/434 58/462/433 57/465/436
f 188/367/345 66/466/437 65/368/346
f 200/406/381 67/436/407 217/467/438
f 183/355/335 203/468/439 201/408/383
f 201/408/383 203/468/439 210/469/440
f 202/470/441 201/430/401 211/429/400
f 205/471/442 218/472/443 219/473/444
f 205/474/445 220/475/446 204/476/447
f 220/475/446 205/474/445 219/477/448
f 221/478/449 204/479/450 220/480/451
f 204/479/450 221/478/449 203/481/452
f 221/482/453 222/483/454 203/484/455
f 203/484/455 222/483/454 210/485/456
f 210/485/456 222/483/454 211/486/457
f 211/486/457 222/483/454 202/487/458
f 202/487/458 222/483/454 223/488/459
f 202/487/458 223/488/459 192/489/460
f 193/490/461 223/488/459 224/491/462
f 223/488/459 193/490/461 192/489/460
f 224/491/462 191/492/463 193/490/461
f 191/492/463 224/491/462 225/493/464
f 191/492/463 225/493/464 190/494/465
f 190/494/465 226/495/466 177/496/467
f 226/495/466 190/494/465 225/493/464
f 177/346/326 226/497/468 178/344/324
f 178/498/469 227/499/470 228/500/471
f 178/498/469 228/500/471 181/501/472
f 226/497/468 227/502/473 178/344/324
f 230/503/474 181/349/329 229/504/475
f 181/349/329 230/503/474 176/347/327
f 173/505/476 176/506/477 187/507/478
f 231/508/479 187/507/478 230/509/480
f 187/507/478 231/508/479 188/510/481
f 66/466/437 188/367/345 232/511/482
f 230/509/480 187/507/478 176/506/477
f 233/512/483 206/513/484 234/514/485
f 208/515/486 171/516/486 209/517/486
f 183/355/335 171/335/315 206/424/395
f 183/355/335 201/408/383 184/356/336
f 184/356/336 201/408/383 195/385/360
f 215/518/487 154/519/487 153/520/487
f 153/521/488 214/522/489 215/523/490
f 58/524/491 235/525/492 59/526/493
f 59/453/424 236/527/494 107/451/422
f 91/528/495 109/174/162 108/173/161
f 109/193/179 57/529/496 60/530/497
f 57/529/496 109/193/179 70/122/113
f 107/531/498 106/178/166 108/177/165
f 238/532/499 66/533/500 237/534/501
f 66/533/500 238/532/499 67/535/502
f 237/536/503 235/537/504 238/538/505
f 213/440/411 217/539/506 238/540/507
f 238/532/499 217/541/508 67/535/502
f 212/542/509 169/360/340 186/362/342
f 186/362/342 239/543/510 212/542/509
f 200/544/511 186/545/511 185/546/511
f 185/386/361 169/332/312 161/323/303
f 217/547/512 186/548/513 200/549/514
f 186/548/513 217/547/512 239/550/515
f 217/539/506 213/440/411 239/551/516
f 239/551/516 213/440/411 212/437/408
f 216/455/426 240/552/517 235/537/504
f 240/553/518 213/554/519 238/555/520
f 213/554/519 240/553/518 214/556/521
f 214/522/489 240/557/522 215/523/490
f 240/552/517 216/455/426 215/457/428
f 238/538/505 235/537/504 240/552/517
f 231/558/523 242/559/524 232/560/525
f 243/561/526 231/562/527 241/563/528
f 231/562/527 243/561/526 242/564/529
f 232/560/525 242/559/524 237/565/530
f 232/511/482 237/566/531 66/466/437
f 236/567/532 243/568/533 241/569/534
f 232/570/535 188/510/481 231/508/479
f 244/571/536 241/572/537 245/573/538
f 230/509/480 245/573/538 231/508/479
f 245/573/538 241/572/537 231/508/479
f 107/574/539 236/575/540 106/576/541
f 246/577/542 106/576/541 236/575/540
f 241/569/534 246/578/543 236/567/532
f 242/579/544 243/580/545 235/537/504
f 216/581/546 235/525/492 58/524/491
f 236/582/547 59/526/493 235/525/492
f 237/536/503 242/579/544 235/537/504
f 99/450/421 92/449/420 106/576/541
f 99/450/421 106/576/541 246/577/542
f 235/583/548 243/568/533 236/567/532
f 241/569/534 99/584/549 246/578/543
f 99/584/549 241/569/534 244/585/550
f 168/586/551 247/587/552 170/588/553
f 247/587/552 168/586/551 167/589/554
f 127/236/222 248/590/555 133/237/223
f 127/236/222 249/591/556 248/590/555
f 248/592/557 250/593/557 133/594/557
f 167/589/554 250/595/558 247/587/552
f 250/595/558 167/589/554 133/596/559
f 252/597/560 208/598/561 251/599/562
f 208/598/561 252/597/560 207/600/563
f 209/426/397 170/425/396 247/601/564
f 209/602/565 251/603/566 208/604/567
f 247/601/564 251/605/568 209/426/397
f 253/606/569 251/605/568 247/601/564
f 254/607/570 132/608/571 255/609/572
f 132/608/571 254/607/570 130/610/573
f 250/611/574 256/612/575 257/613/576
f 207/614/577 234/514/485 206/513/484
f 254/615/578 255/616/579 257/617/580
f 254/615/578 257/617/580 256/618/581
f 253/619/582 257/613/576 258/620/583
f 257/613/576 253/619/582 250/611/574
f 258/621/584 255/616/579 234/622/585
f 255/616/579 258/621/584 257/617/580
f 258/623/586 252/624/587 253/625/588
f 250/626/589 253/606/569 247/601/564
f 234/627/590 252/624/587 258/623/586
f 253/625/588 252/624/587 251/628/591
f 260/629/592 255/609/572 259/630/593
f 255/609/572 260/629/592 234/631/594
f 252/632/595 234/514/485 207/614/577
f 259/630/593 255/609/572 132/608/571
f 259/633/596 131/634/597 134/635/598
f 131/634/597 259/633/596 132/636/599
f 218/637/600 233/638/601 260/639/602
f 260/639/602 233/638/601 234/640/603
f 218/472/443 205/471/442 233/641/604
f 205/471/442 206/642/605 233/641/604
f 261/643/606 221/644/607 220/645/608
f 221/644/607 261/643/606 222/646/609
f 223/647/610 222/646/609 224/648/611
f 262/649/612 263/650/613 220/475/446
f 262/649/612 220/475/446 219/477/448
f 263/651/614 262/652/615 264/653/616
f 263/651/614 264/653/616 265/654/617
f 218/655/618 260/656/619 266/657/620
f 259/658/621 134/659/622 260/656/619
f 218/655/618 266/657/620 264/660/623
f 262/652/615 219/661/624 264/653/616
f 264/662/625 267/663/626 268/664/627
f 264/665/628 268/666/629 265/667/630
f 268/666/629 269/668/631 265/667/630
f 218/669/632 264/653/616 219/661/624
f 265/670/633 269/671/634 270/672/635
f 271/673/636 263/674/637 265/670/633
f 265/670/633 270/672/635 271/673/636
f 138/247/233 272/675/638 270/676/639
f 272/675/638 138/247/233 146/677/640
f 271/678/641 272/679/642 273/680/643
f 272/679/642 271/678/641 270/681/644
f 271/682/645 274/683/646 263/650/613
f 274/683/646 271/682/645 273/684/647
f 263/650/613 274/683/646 261/685/648
f 261/685/648 220/475/446 263/650/613
f 269/671/634 140/686/649 270/672/635
f 135/245/231 140/261/243 275/687/650
f 268/688/651 275/689/652 269/690/653
f 275/689/652 268/688/651 136/691/654
f 269/690/653 275/689/652 140/692/655
f 134/241/227 75/240/226 152/693/656
f 135/245/231 275/687/650 136/243/229
f 268/664/627 267/663/626 136/694/657
f 139/306/288 136/695/658 152/307/289
f 152/696/659 266/697/660 134/698/661
f 266/697/660 152/696/659 267/699/662
f 136/695/658 267/700/663 152/307/289
f 266/701/664 267/702/665 264/703/666
f 130/704/667 256/705/668 128/706/669
f 256/705/668 130/704/667 254/707/670
f 129/708/671 130/704/667 128/706/669
f 128/706/669 249/709/672 127/710/673
f 248/711/674 249/712/675 256/612/575
f 248/711/674 256/612/575 250/611/574
f 256/705/668 249/709/672 128/706/669
f 277/713/676 150/446/417 105/165/154
f 277/713/676 105/165/154 276/714/677
f 276/714/677 105/165/154 104/164/153
f 100/309/290 104/164/153 103/163/152
f 97/715/678 96/310/235 103/163/152
f 226/716/679 278/717/680 227/718/681
f 274/719/682 222/646/609 261/643/606
f 222/646/609 274/719/682 224/648/611
f 279/720/683 224/648/611 274/719/682
f 224/648/611 279/720/683 225/721/684
f 226/716/679 225/721/684 278/717/680
f 279/720/683 278/717/680 225/721/684
f 278/717/680 279/720/683 280/722/685
f 227/499/470 281/723/686 282/724/687
f 227/499/470 282/724/687 228/500/471
f 228/725/688 282/726/689 245/727/690
f 245/728/691 229/729/692 228/730/693
f 229/729/692 245/728/691 230/731/694
f 229/732/695 181/501/472 228/500/471
f 278/733/696 281/723/686 227/499/470
f 284/734/697 281/735/698 283/736/699
f 281/735/698 284/734/697 282/726/689
f 284/734/697 244/737/700 282/726/689
f 280/738/701 283/739/702 281/740/703
f 280/738/701 281/740/703 278/741/704
f 285/742/705 283/743/706 279/744/707
f 279/744/707 283/743/706 280/745/708
f 283/743/706 285/742/705 286/746/709
f 286/747/710 285/748/711 277/749/712
f 286/747/710 277/749/712 276/750/713
f 276/751/714 287/752/715 286/753/716
f 287/752/715 276/751/714 104/754/717
f 286/746/709 287/755/718 288/756/719
f 286/746/709 288/756/719 284/757/720
f 286/746/709 284/757/720 283/743/706
f 284/734/697 288/758/721 244/737/700
f 104/759/722 288/760/723 287/761/724
f 288/760/723 104/759/722 100/762/725
f 288/760/723 100/762/725 99/763/726
f 99/584/549 244/585/550 288/764/727
f 244/737/700 245/727/690 282/726/689
f 285/742/705 274/683/646 273/684/647
f 279/744/707 274/683/646 285/742/705
f 285/742/705 273/684/647 289/765/728
f 150/285/267 277/766/729 289/767/730
f 285/768/731 289/767/730 277/766/729
f 150/285/267 290/769/732 147/282/264
f 290/769/732 150/285/267 289/767/730
f 272/770/733 291/771/734 273/772/735
f 291/771/734 272/770/733 146/773/736
f 273/684/647 291/774/737 290/775/738
f 273/684/647 290/775/738 289/765/728
f 137/250/236 146/677/640 138/247/233
f 140/261/243 138/247/233 270/676/639
f 140/261/243 119/248/234 138/247/233
f 291/776/739 147/777/740 290/778/741
f 147/777/740 291/776/739 146/779/742
f 160/321/301 166/328/308 159/319/299
f 159/780/743 166/392/367 156/781/744
f 156/781/744 166/392/367 157/389/364
f 51/782/745 159/783/746 50/784/747
f 159/783/746 156/785/748 50/784/747
f 156/785/748 37/786/749 50/784/747
f 155/787/750 37/786/749 156/785/748
f 37/786/749 155/787/750 38/788/751
f 71/789/752 38/788/751 199/790/753
f 39/791/754 71/792/752 123/793/755
f 123/793/755 122/794/756 39/791/754
f 143/795/757 40/796/758 102/797/759
f 40/796/758 126/798/760 292/799/761
f 41/71/70 31/73/72 292/800/762
f 33/69/68 40/68/67 31/73/72
f 143/795/757 82/801/763 40/796/758
f 40/796/758 82/801/763 126/798/760
f 81/802/764 126/798/760 82/801/763
f 73/803/765 42/804/766 41/805/767
f 73/803/765 41/805/767 292/799/761
f 85/806/768 77/807/769 292/799/761
f 292/799/761 77/807/769 73/803/765
f 126/798/760 85/806/768 292/799/761
f 40/68/67 292/800/762 31/73/72
f 34/75/74 56/106/99 47/103/98
f 56/106/99 34/75/74 43/74/73
f 42/77/71 72/431/402 43/74/73
f 46/96/91 44/101/96 195/385/360
f 46/96/91 195/385/360 52/97/92
f 55/100/95 184/356/336 44/101/96
f 195/385/360 44/101/96 184/356/336
f 39/791/754 38/808/751 71/792/752
f 155/787/750 199/790/753 38/788/751
f 134/659/622 266/657/620 260/656/619
f 214/444/415 153/809/770 196/442/413
f 65/810/771 185/386/361 174/340/320
f 185/386/361 65/810/771 68/811/772
f 40/796/758 39/791/754 122/794/756
f 40/796/758 122/794/756 102/797/759
f 303/3/773 301/2/774 304/1/775
f 301/2/774 303/3/773 302/4/776
f 304/1/775 306/5/777 305/6/778
f 306/5/777 304/1/775 301/2/774
f 308/7/779 307/9/780 293/8/8
f 293/8/8 1/10/10 308/7/779
f 310/11/781 312/12/782 311/14/783
f 312/12/782 310/11/781 309/13/784
f 310/11/781 311/14/783 294/15/15
f 294/15/15 311/14/783 2/16/16
f 314/18/785 301/17/786 302/19/787
f 301/17/786 314/18/785 313/20/788
f 306/21/789 301/17/786 313/20/788
f 313/20/788 315/22/790 306/21/789
f 316/23/791 1/24/24 3/26/26
f 1/24/24 316/23/791 308/25/792
f 311/29/793 317/28/794 318/27/795
f 317/28/794 311/29/793 312/30/796
f 311/29/793 4/31/31 2/32/32
f 4/31/31 311/29/793 318/27/795
f 314/33/797 5/34/798 313/36/799
f 5/34/798 314/33/797 6/35/800
f 313/36/799 5/34/798 315/37/801
f 315/37/801 5/34/798 7/38/802
f 316/39/803 9/40/40 8/42/804
f 9/40/40 316/39/803 3/41/41
f 10/44/805 318/43/806 317/45/807
f 317/45/807 11/46/808 10/44/805
f 318/43/806 12/48/48 4/47/47
f 12/48/48 318/43/806 10/44/805
f 315/37/801 7/38/802 317/45/807
f 317/45/807 7/38/802 11/46/808
f 307/9/780 302/4/776 303/3/773
f 302/4/776 307/9/780 308/7/779
f 309/13/784 306/5/777 312/12/782
f 306/5/777 309/13/784 305/6/778
f 308/25/792 314/18/785 302/19/787
f 314/18/785 308/25/792 316/23/791
f 315/22/790 317/28/794 312/30/796
f 315/22/790 312/30/796 306/21/789
f 316/39/803 8/42/804 314/33/797
f 314/33/797 8/42/804 6/35/800
f 296/1/1 295/3/3 298/9/9 293/8/8 307/9/780 303/3/773 304/1/775 305/6/778 309/13/784 310/11/781 294/15/15 300/11/11 299/13/13 297/6/6
