# Blender 4.5.4 LTS
# www.blender.org
o stockBasic_geo
v 0.008439 0.523502 -0.062894
v 0.008439 0.523502 0.077639
v 0.008439 0.519850 -0.075940
v 0.008439 0.519840 0.092936
v -0.081842 0.500637 -0.015363
v -0.061330 0.500657 -0.053433
v -0.081588 0.500657 0.029994
v -0.028424 0.500665 -0.077275
v 0.008439 0.500657 -0.083798
v -0.033636 0.500628 0.092669
v -0.066720 0.500647 0.065509
v 0.008439 0.500599 0.099802
v 0.077525 0.523494 -0.010061
v 0.062050 0.523474 -0.038899
v 0.078475 0.523484 0.021068
v 0.039185 0.523494 -0.056142
v 0.036998 0.523484 0.074054
v 0.061368 0.523494 0.056276
v 0.090879 0.519850 -0.013227
v 0.071775 0.519840 -0.047864
v 0.093518 0.519821 0.026713
v 0.044529 0.519879 -0.069532
v 0.042568 0.519821 0.088625
v 0.072168 0.519821 0.065203
v 0.098720 0.500637 -0.015363
v 0.078208 0.500657 -0.053433
v 0.098466 0.500657 0.029994
v 0.045301 0.500665 -0.077275
v 0.050514 0.500628 0.092669
v 0.083596 0.500647 0.065509
v -0.410364 0.499244 0.414056
v -0.356308 0.499244 0.451096
v -0.411682 0.499254 -0.417926
v -0.256508 0.499225 0.470132
v -0.357956 0.499254 -0.459239
v -0.269120 0.499264 -0.478998
v -0.269120 -0.351229 -0.478998
v -0.353328 -0.351229 -0.461222
v -0.411682 -0.351234 -0.417926
v -0.410371 -0.349587 -0.052823
v -0.410364 -0.352111 0.414056
v -0.347591 -0.351812 0.457162
v -0.256508 -0.351255 0.470132
v 0.462560 0.499244 0.414056
v 0.408504 0.499235 0.451096
v 0.463878 0.499254 -0.417926
v 0.308704 0.499225 0.470132
v 0.410152 0.499254 -0.459239
v 0.321317 0.499264 -0.478998
v 0.321317 -0.351229 -0.478998
v 0.431928 -0.352855 -0.448291
v 0.455406 -0.352653 -0.141285
v 0.462628 -0.351234 -0.417926
v 0.399944 -0.351244 0.454033
v 0.462560 -0.351239 0.414056
v 0.308704 -0.351250 0.470132
v -0.450026 -0.514988 -0.391948
v -0.170284 -0.518714 -0.390003
v -0.175317 -0.525909 -0.307072
v -0.451307 -0.522596 -0.309742
v -0.414835 -0.427380 0.153208
v -0.453023 -0.512593 0.156221
v -0.431026 -0.511633 0.237817
v -0.387900 -0.428376 0.246782
v 0.543520 -0.523204 -0.310657
v 0.270656 -0.525599 -0.308292
v 0.260601 -0.519457 -0.391719
v 0.534115 -0.515649 -0.390499
v -0.384693 -0.428557 -0.459467
v -0.393924 -0.432149 -0.366123
v -0.351667 -0.353273 -0.449359
v -0.395896 -0.435560 0.478104
v -0.368771 -0.353727 0.345354
v -0.417375 -0.498390 0.346460
v -0.422918 -0.506906 0.246019
v -0.425081 -0.524588 0.352982
v -0.344039 -0.354047 0.341729
v -0.369952 -0.440783 0.365647
v -0.403809 -0.441361 0.369805
v -0.401841 -0.427374 0.135660
v -0.361919 -0.355868 0.146188
v -0.364300 -0.355678 0.029650
v -0.399341 -0.429217 0.032740
v -0.385040 -0.444592 0.337380
v -0.359001 -0.355734 0.253229
v -0.430832 -0.504284 -0.485980
v -0.437513 -0.512955 -0.407359
v -0.429242 -0.497141 0.400170
v -0.433137 -0.517724 0.511253
v -0.426303 -0.511830 -0.159253
v -0.397670 -0.425672 -0.258435
v -0.423858 -0.512397 -0.258396
v -0.414014 -0.505616 -0.400379
v -0.412172 -0.506163 -0.390804
v -0.384277 -0.429594 -0.151853
v -0.442716 -0.521295 -0.154828
v -0.443529 -0.521636 -0.063962
v -0.383637 -0.428747 -0.045994
v -0.143779 -0.512448 -0.159061
v -0.157164 -0.520531 -0.155400
v -0.404265 -0.497678 0.398301
v -0.353322 -0.356571 -0.144833
v -0.304513 -0.520747 -0.057096
v -0.158632 -0.519840 -0.079754
v -0.164788 -0.519416 -0.054311
v -0.398303 -0.513233 -0.263508
v -0.400445 -0.512748 -0.296543
v -0.399709 -0.471449 -0.272624
v -0.423957 -0.469364 -0.278232
v -0.384451 -0.504026 -0.055036
v -0.429245 -0.510415 0.049258
v -0.381185 -0.429232 -0.034856
v -0.426674 -0.510890 -0.027951
v -0.368835 -0.426822 0.147943
v -0.401259 -0.501074 0.150537
v -0.441541 -0.514482 0.051470
v -0.360047 -0.427586 -0.040731
v -0.368038 -0.397838 -0.038289
v -0.444973 -0.515401 0.135583
v -0.424308 -0.535756 0.260897
v -0.435017 -0.527891 0.422715
v -0.363176 -0.356406 -0.246342
v -0.361436 -0.356204 -0.354220
v -0.399733 -0.501136 0.140505
v -0.372806 -0.427194 0.141802
v -0.382037 -0.353417 0.156107
v -0.218180 -0.528975 0.422105
v -0.224207 -0.499866 0.399140
v -0.229390 -0.499650 0.345849
v -0.238270 -0.529625 0.349206
v -0.134779 -0.538306 0.260172
v -0.134238 -0.531276 0.343865
v -0.115615 -0.523999 0.512550
v -0.108291 -0.517362 0.244645
v -0.230146 -0.514379 0.142870
v -0.160232 -0.512211 0.215616
v -0.179570 -0.514565 0.049639
v -0.169559 -0.513812 0.088740
v -0.158873 -0.511726 0.232782
v -0.170005 -0.513512 0.123644
v -0.392647 -0.504067 -0.030355
v -0.359686 -0.427597 -0.036572
v -0.360108 -0.356911 -0.036992
v -0.311303 -0.511138 -0.028447
v -0.289544 -0.511963 0.020456
v -0.169855 -0.512005 0.044413
v -0.168507 -0.510611 0.027094
v -0.314224 -0.507050 -0.054082
v -0.285833 -0.519901 0.018130
v -0.160774 -0.517114 0.024081
v -0.320316 -0.507030 -0.031271
v -0.115537 -0.506410 0.241365
v -0.114382 -0.513543 -0.486476
v -0.158870 -0.517879 -0.406749
v -0.140377 -0.354604 -0.464885
v 0.236346 -0.354139 -0.469500
v 0.230070 -0.432030 -0.469767
v -0.132750 -0.434352 -0.470149
v 0.255919 -0.354315 -0.450541
v 0.476354 -0.430414 -0.458209
v 0.492825 -0.436592 -0.366619
v 0.471434 -0.433011 0.471314
v 0.208339 -0.433527 0.485428
v 0.511185 -0.503716 -0.486437
v 0.239564 -0.509827 -0.487048
v 0.248761 -0.431689 -0.460726
v 0.224891 -0.524103 0.511139
v 0.512033 -0.518229 0.507400
v 0.522405 -0.511943 -0.410144
v 0.526011 -0.525703 0.421075
v 0.493383 -0.451167 0.366639
v -0.129181 -0.432701 0.485886
v 0.510181 -0.512666 -0.257747
v 0.482657 -0.431292 -0.252368
v 0.478108 -0.432732 -0.155590
v 0.513381 -0.512448 -0.162952
v 0.544936 -0.514947 -0.084714
v 0.430365 -0.507040 -0.089482
v 0.435340 -0.432603 -0.112675
v 0.487206 -0.431921 -0.103939
v 0.427835 -0.505461 -0.157841
v 0.435153 -0.431777 -0.149601
v 0.473736 -0.424794 0.247354
v 0.460252 -0.351688 0.235299
v 0.505505 -0.469891 -0.376765
v 0.466030 -0.510106 -0.401446
v 0.459867 -0.512934 -0.261830
v 0.458076 -0.511241 -0.295666
v 0.486004 -0.433671 0.002757
v 0.546976 -0.515329 0.010158
v 0.516650 -0.511417 0.016223
v 0.534479 -0.515504 0.054560
v 0.515091 -0.511117 0.046931
v 0.485109 -0.433635 0.031519
v 0.457385 -0.352261 0.012447
v -0.096839 -0.514018 -0.501010
v 0.226315 -0.514255 -0.497843
v -0.144998 -0.434740 -0.463359
v -0.150963 -0.355094 -0.453326
v 0.468097 -0.510632 -0.394084
v 0.477614 -0.429341 0.142031
v 0.527785 -0.514947 0.134477
v 0.523004 -0.513853 0.232248
v 0.449243 -0.499866 0.239572
v 0.452914 -0.498938 0.277680
v 0.515980 -0.537717 0.303468
v 0.518264 -0.528417 0.392312
v 0.459744 -0.499350 0.386971
v 0.462666 -0.498235 0.393418
v 0.526351 -0.513977 0.147676
v 0.496618 -0.514493 0.141955
v 0.228358 -0.517899 -0.406215
v 0.209705 -0.521512 -0.393359
v -0.103902 -0.521171 -0.395495
v -0.119609 -0.509693 -0.394618
v -0.160900 -0.509074 -0.387026
v 0.233142 -0.510581 -0.392711
v 0.201829 -0.511499 0.286645
v 0.206599 -0.499608 0.277986
v 0.246411 -0.499701 0.239992
v 0.263342 -0.514245 0.236368
v 0.267026 -0.513925 0.141497
v 0.267956 -0.516175 0.052348
v 0.255612 -0.511757 0.047694
v 0.253944 -0.513925 0.014430
v 0.263274 -0.514431 -0.089139
v 0.255687 -0.509053 -0.091770
v 0.241620 -0.509239 -0.138806
v 0.255217 -0.508330 -0.154408
v 0.255088 -0.512903 -0.157421
v 0.260890 -0.512603 -0.277661
v 0.258609 -0.514018 -0.297916
v 0.212241 -0.539276 0.304498
v 0.207709 -0.535436 0.337571
v -0.154178 -0.514802 -0.350673
v -0.151495 -0.511902 -0.293301
v 0.255959 -0.518250 -0.302112
v 0.232015 -0.510890 -0.382183
v 0.230983 -0.510467 -0.399615
v -0.111730 -0.509496 -0.385654
v -0.126559 -0.519086 -0.256222
v 0.256031 -0.518673 -0.288456
v -0.117815 -0.522255 -0.262936
v -0.122173 -0.519571 -0.139378
v 0.235713 -0.516319 -0.140599
v -0.138470 -0.512294 -0.261142
v 0.222269 -0.534342 0.412072
v -0.118288 -0.529625 0.416650
v -0.220019 -0.529759 0.417031
v -0.108859 -0.539131 0.416687
v 0.219184 -0.503407 0.390595
v 0.209000 -0.529717 0.398072
v 0.208894 -0.529521 0.406083
v -0.223601 -0.539812 0.350426
v -0.035626 -0.539864 0.341539
v -0.223114 -0.540752 0.416077
v -0.032626 -0.543136 0.411615
v 0.194330 -0.536613 0.404442
v -0.105628 -0.517021 0.334061
v 0.195209 -0.514348 0.328378
v 0.247528 -0.500960 0.141763
v 0.215544 -0.499639 0.240602
v 0.220502 -0.501219 0.128221
v 0.202210 -0.514358 0.228319
v 0.208816 -0.513873 0.131578
v -0.106663 -0.517445 0.227747
v -0.103731 -0.507154 0.224618
v -0.151467 -0.518652 0.215997
v -0.154498 -0.518446 0.128260
v -0.030893 -0.508754 0.123796
v -0.018689 -0.502086 0.122042
v -0.030648 -0.508051 0.040216
v -0.021914 -0.502137 0.040293
v 0.243796 -0.502302 0.056239
v -0.170267 -0.513440 0.142451
v 0.094336 -0.515267 -0.074414
v 0.110882 -0.514523 0.030413
v 0.253440 -0.508939 -0.050458
v 0.240507 -0.504036 0.015383
v 0.245744 -0.501311 -0.047521
v 0.132698 -0.510622 -0.053472
v 0.129320 -0.511644 -0.136899
v 0.126760 -0.504625 -0.051221
v 0.125061 -0.506008 -0.136440
v 0.123770 -0.502137 0.031138
v 0.101433 -0.506307 -0.075864
v -0.145662 -0.511282 -0.081509
v -0.140592 -0.510467 -0.138996
v -0.019343 -0.502509 0.032015
v -0.151876 -0.502323 0.028239
v -0.153739 -0.502333 0.040446
v -0.410360 -0.351466 0.294618
v 0.008439 0.543169 -0.062551
v 0.008439 0.543122 0.079661
v 0.064874 0.543142 -0.035504
v 0.077916 0.543132 -0.008230
v 0.078055 0.543150 0.023165
v 0.040881 0.543142 -0.056103
v 0.063945 0.543113 0.053263
v 0.039934 0.543122 0.072870
v -0.060647 0.523494 -0.010061
v -0.045172 0.523474 -0.038899
v -0.047996 0.543142 -0.035504
v -0.061038 0.543132 -0.008230
v -0.061177 0.543150 0.023165
v -0.061597 0.523484 0.021068
v -0.024004 0.543142 -0.056103
v -0.022307 0.523494 -0.056142
v -0.047067 0.543113 0.053263
v -0.023056 0.543122 0.072870
v -0.020120 0.523484 0.074054
v -0.044490 0.523494 0.056276
v -0.074001 0.519850 -0.013227
v -0.054897 0.519840 -0.047864
v -0.076638 0.519821 0.026713
v -0.027651 0.519879 -0.069532
v -0.055290 0.519821 0.065203
v -0.025690 0.519821 0.088625
vn 0.7435 0.6493 -0.1599
vn 0.9698 -0.0059 -0.2437
vn 0.6007 0.6751 -0.4283
vn 0.7728 -0.0104 -0.6346
vn 0.9760 -0.0106 0.2177
vn 0.7424 0.6489 0.1666
vn 0.4059 -0.0238 -0.9136
vn 0.0020 0.6688 -0.7434
vn 0.3335 0.6347 -0.6971
vn -0.0000 0.0148 -0.9999
vn 0.3593 0.6615 0.6583
vn 0.7814 -0.0147 0.6239
vn 0.6017 0.6618 0.4472
vn 0.4024 -0.0206 0.9152
vn -0.0077 0.6433 0.7656
vn -0.0000 -0.0912 0.9958
vn 0.2434 0.9674 -0.0697
vn 0.1991 0.9658 -0.1663
vn 0.2009 0.9657 -0.1645
vn 0.2438 0.9675 -0.0667
vn 0.2316 0.9715 0.0509
vn 0.2282 0.9716 0.0621
vn 0.1015 0.9673 -0.2323
vn -0.0000 0.9667 -0.2558
vn 0.1048 0.9673 -0.2308
vn -0.0000 0.9668 -0.2557
vn 0.0895 0.9723 0.2159
vn 0.1860 0.9712 0.1490
vn 0.0913 0.9722 0.2154
vn 0.1857 0.9712 0.1495
vn -0.0000 0.9725 0.2329
vn -0.0000 0.9725 0.2328
vn 0.6973 0.3951 -0.5981
vn 0.8909 0.3764 -0.2543
vn 0.7010 0.4018 -0.5892
vn 0.8924 0.3846 -0.2362
vn 0.9311 0.3067 0.1975
vn 0.9200 0.3146 0.2339
vn 0.3917 0.3611 -0.8463
vn -0.0000 0.3791 -0.9254
vn -0.0000 0.3789 -0.9255
vn 0.3684 0.3706 -0.8526
vn 0.3535 0.3363 0.8729
vn 0.4125 0.3484 0.8417
vn 0.7045 0.4071 0.5814
vn 0.7236 0.4396 0.5322
vn -0.0000 0.3287 0.9444
vn -0.0000 0.3176 0.9482
vn -0.0025 1.0000 0.0016
vn -0.0021 1.0000 0.0019
vn -0.0010 1.0000 0.0007
vn -0.0057 1.0000 -0.0001
vn -0.0006 1.0000 0.0032
vn -0.0008 1.0000 0.0031
vn -0.0025 1.0000 -0.0015
vn -0.0024 1.0000 -0.0016
vn -0.0000 1.0000 0.0037
vn -0.0003 1.0000 0.0035
vn 0.0003 1.0000 -0.0033
vn -0.0013 1.0000 -0.0025
vn -0.0019 1.0000 -0.0025
vn -0.0000 1.0000 -0.0034
vn 0.0739 0.0005 -0.9973
vn -0.4480 0.0016 -0.8940
vn -0.4490 -0.0025 -0.8936
vn 0.0683 0.0006 -0.9977
vn -0.9495 -0.0000 -0.3138
vn -1.0000 -0.0006 0.0018
vn -0.9545 -0.0015 -0.2981
vn -0.3984 0.0047 0.9172
vn -0.9011 -0.0002 0.4335
vn -0.3476 0.1139 0.9307
vn -0.9390 -0.0004 0.3439
vn 0.0645 0.0772 0.9949
vn 0.0677 0.0029 0.9977
vn 0.0004 1.0000 0.0007
vn 0.0020 1.0000 0.0019
vn 0.0023 1.0000 0.0015
vn 0.0054 1.0000 -0.0001
vn 0.0006 1.0000 0.0032
vn 0.0011 1.0000 0.0027
vn 0.0022 1.0000 -0.0015
vn 0.0024 1.0000 -0.0014
vn 0.0004 1.0000 0.0035
vn 0.0002 1.0000 -0.0028
vn 0.0013 1.0000 -0.0024
vn 0.0001 1.0000 -0.0032
vn -0.0657 0.0085 -0.9978
vn -0.0501 -0.0034 -0.9987
vn 0.4355 -0.0096 -0.9002
vn 0.4928 0.1210 -0.8617
vn 0.9571 -0.0161 -0.2893
vn 0.9919 0.1270 0.0096
vn 0.9509 0.1867 -0.2467
vn 0.3907 -0.0039 0.9205
vn 0.9302 0.2043 0.3049
vn 0.9429 -0.0125 0.3328
vn 0.1922 0.1142 0.9747
vn -0.0613 -0.0027 0.9981
vn -0.0540 0.0796 0.9954
vn -0.0123 -0.9957 -0.0914
vn -0.0119 -0.9960 -0.0887
vn -0.0148 -0.9957 -0.0920
vn -0.0089 -0.9961 -0.0877
vn -0.8838 0.3975 0.2468
vn -0.8651 0.3993 0.3034
vn -0.9039 0.3884 0.1793
vn -0.8816 0.4071 0.2387
vn 0.0246 -0.9967 -0.0771
vn 0.0112 -0.9967 -0.0807
vn 0.0114 -0.9959 -0.0893
vn -0.0018 -0.9957 -0.0924
vn -0.8837 0.4644 -0.0579
vn -0.8807 0.4701 -0.0576
vn -0.9105 0.4061 -0.0774
vn -0.8936 0.4435 0.0698
vn -0.8397 0.5219 0.1501
vn -0.8875 0.4505 0.0964
vn -0.8870 0.4541 0.0842
vn -0.9128 0.3523 0.2066
vn -0.9702 0.2415 0.0203
vn -0.1015 -0.2233 -0.9694
vn -0.1229 -0.2883 -0.9496
vn -0.1078 -0.3545 -0.9288
vn -0.1036 -0.2294 -0.9678
vn -0.9107 0.4060 -0.0759
vn -0.8916 0.4526 -0.0140
vn -0.8778 0.4789 0.0091
vn -0.9103 0.3935 -0.1282
vn -0.8809 0.4391 0.1766
vn -0.9129 0.3670 0.1788
vn -0.8516 0.5240 -0.0146
vn -0.8580 0.5120 -0.0408
vn -0.9233 0.3826 0.0350
vn -0.9136 0.4040 0.0456
vn -0.9202 0.3895 0.0395
vn -0.8986 0.3974 0.1861
vn -0.8330 0.4663 -0.2978
vn -0.9043 0.4265 0.0199
vn -0.9570 0.2890 -0.0253
vn -0.9653 0.1728 0.1956
vn -0.8956 0.4416 0.0534
vn -0.8295 0.5391 -0.1462
vn -0.8399 0.5426 -0.0055
vn -0.8785 0.4775 0.0140
vn 0.0006 -0.4192 -0.9079
vn -0.0025 -0.4139 -0.9103
vn -0.0011 -0.4141 -0.9102
vn 0.0024 -0.4198 -0.9076
vn -0.1186 -0.4495 -0.8854
vn -0.1173 -0.4414 -0.8896
vn -0.9239 0.3788 0.0544
vn 0.0137 -0.9999 0.0080
vn 0.0082 -0.9999 0.0126
vn 0.0166 -0.9997 0.0186
vn -0.1505 -0.3839 0.9110
vn -0.1506 -0.3840 0.9110
vn -0.1952 0.0584 -0.9790
vn -0.1953 0.0580 -0.9790
vn -0.1954 0.0583 -0.9790
vn -0.2252 -0.4393 0.8696
vn -0.1197 -0.4049 0.9065
vn -0.1332 -0.4554 0.8803
vn -0.2128 -0.4256 0.8795
vn -0.9892 -0.0013 0.1465
vn -0.9918 -0.0053 0.1274
vn -0.9968 -0.0165 0.0781
vn -0.1141 -0.1173 0.9865
vn -0.8188 0.4224 -0.3887
vn -0.9035 0.3883 -0.1811
vn -0.8743 0.4843 -0.0321
vn -0.1142 0.0158 -0.9933
vn -0.1272 0.0205 -0.9917
vn -0.1124 0.0008 -0.9937
vn -0.9041 0.3879 -0.1795
vn -0.2116 -0.1236 0.9695
vn -0.2094 -0.1357 0.9684
vn -0.2108 -0.1203 0.9701
vn -0.8505 0.5250 -0.0317
vn -0.8976 0.4396 -0.0314
vn -0.9991 0.0412 -0.0134
vn -0.9829 0.1844 -0.0003
vn -0.8202 0.4609 0.3387
vn -0.0491 0.3273 -0.9436
vn -0.0490 0.3274 -0.9436
vn -0.0489 0.3275 -0.9436
vn -0.8973 0.4395 0.0420
vn -0.9095 0.4116 -0.0588
vn -0.1217 0.0109 0.9925
vn -0.2004 0.0951 0.9751
vn -0.1317 0.0036 0.9913
vn -0.1951 0.0935 0.9763
vn -0.9353 0.3538 -0.0063
vn -0.8771 0.2368 0.4179
vn -0.8818 0.2728 0.3846
vn -0.9377 0.3454 -0.0361
vn -0.8971 0.3670 0.2460
vn -0.3044 0.1406 -0.9421
vn -0.8386 0.0950 0.5364
vn -0.2071 -0.0284 0.9779
vn -0.4103 0.2167 -0.8858
vn -0.7881 0.5851 0.1913
vn -0.0318 -0.6089 -0.7926
vn 0.1136 -0.6013 -0.7909
vn 0.0499 -0.6202 -0.7829
vn -0.0167 -0.6191 -0.7851
vn -0.0036 -0.6196 -0.7849
vn -0.0100 -0.9999 0.0102
vn -0.0088 -1.0000 0.0030
vn 0.0023 -0.9999 0.0137
vn -0.0215 -0.9998 -0.0003
vn 0.0175 0.1248 0.9920
vn 0.0124 0.2171 0.9761
vn 0.0031 0.1418 0.9899
vn 0.0259 0.1978 0.9799
vn -0.0118 -0.9954 0.0953
vn 0.0228 -0.9960 0.0865
vn -0.0193 -0.9937 0.1103
vn -0.0368 -0.9934 0.1087
vn -0.0115 -0.9964 0.0838
vn -0.0128 -0.9948 0.1014
vn -0.0441 -0.9955 0.0833
vn 0.0025 -0.9951 0.0987
vn -0.0505 -0.9959 0.0748
vn 0.0032 -0.5593 -0.8290
vn -0.0182 -0.4876 -0.8729
vn -0.0102 -0.4479 -0.8940
vn -0.0301 -0.4956 -0.8680
vn -0.0182 -0.9997 0.0183
vn -0.0055 -0.9998 0.0173
vn -0.0326 -0.9991 0.0253
vn 0.0133 -0.9995 0.0287
vn -0.0059 -0.9998 -0.0192
vn -0.0040 -1.0000 0.0045
vn 0.0019 -1.0000 -0.0041
vn -0.3031 -0.9529 -0.0052
vn -0.0601 -0.2111 -0.9756
vn -0.0778 -0.9969 -0.0065
vn -0.0777 -0.9970 -0.0065
vn -0.0320 -0.2339 0.9717
vn -0.0319 -0.2335 0.9718
vn -0.0316 -0.2335 0.9718
vn 0.0002 -0.9996 0.0282
vn 0.0053 -1.0000 0.0084
vn -0.0701 -0.0570 -0.9959
vn -0.0543 -0.1768 -0.9827
vn -0.0838 -0.0828 -0.9930
vn -0.0735 -0.0615 -0.9954
vn -0.9794 0.1918 -0.0631
vn -0.9436 0.3252 -0.0625
vn -0.0066 -1.0000 0.0011
vn -0.0139 -0.9999 0.0067
vn -0.0244 -0.9996 0.0130
vn 0.0043 -0.9999 -0.0156
vn -0.0063 -0.4641 -0.8858
vn -0.0060 -0.4667 -0.8844
vn -0.0119 -0.8841 -0.4671
vn -0.0135 -0.8869 -0.4617
vn -0.0342 -0.9993 0.0152
vn -0.0658 -0.9955 0.0686
vn -0.5965 -0.7969 0.0956
vn -0.7176 -0.6943 0.0551
vn -0.7001 -0.7102 0.0740
vn -0.7733 -0.5630 0.2916
vn -0.1631 -0.3424 0.9253
vn -0.0188 -0.3385 0.9408
vn -0.0355 -0.3326 0.9424
vn 0.0056 -0.2953 0.9554
vn -0.8050 -0.4790 0.3501
vn -0.3859 -0.9169 -0.1022
vn -0.0468 -0.4858 -0.8728
vn -0.0306 -0.4650 -0.8848
vn -0.0423 -0.9990 -0.0119
vn -0.0418 -0.9990 -0.0145
vn -0.0383 -0.9992 -0.0150
vn -0.0458 -0.9989 -0.0119
vn -0.0287 -0.3737 0.9271
vn -0.0348 -0.3215 0.9463
vn -0.0489 -0.2511 0.9667
vn -0.0463 -0.2458 0.9682
vn -0.2110 -0.1143 0.9708
vn -0.9000 0.3464 -0.2646
vn -0.9915 0.1276 -0.0248
vn -0.9878 0.1466 -0.0524
vn -0.8986 0.3420 -0.2747
vn -0.0706 -0.0780 -0.9945
vn -0.9607 -0.2649 0.0827
vn 0.0089 -0.8701 0.4928
vn -0.0951 -0.8585 0.5039
vn -0.0592 -0.9475 0.3141
vn 0.0018 -1.0000 0.0042
vn 0.0024 -1.0000 -0.0001
vn -0.0265 -0.9950 -0.0962
vn -0.0208 -0.9965 -0.0810
vn -0.0499 -0.9961 -0.0727
vn 0.0027 -0.9949 -0.1008
vn -0.0007 0.0579 -0.9983
vn -0.0018 0.1639 -0.9865
vn 0.0024 0.1759 -0.9844
vn 0.0057 0.0204 -0.9998
vn 0.0105 0.1303 -0.9914
vn 0.0116 0.1333 -0.9910
vn -0.0116 0.2921 -0.9563
vn 0.9048 0.3784 -0.1954
vn 0.9354 0.3536 -0.0073
vn 0.8763 0.4237 0.2292
vn 0.0189 0.3409 0.9399
vn -0.0042 0.2390 0.9710
vn 0.0083 0.3553 -0.9347
vn -0.0030 0.2563 -0.9666
vn 0.0128 0.3295 -0.9441
vn 0.0281 0.2850 0.9581
vn 0.0719 0.3680 0.9270
vn 0.8949 0.4347 -0.1012
vn 0.8876 0.4532 -0.0817
vn 0.8806 0.4624 0.1036
vn 0.9418 0.3363 -0.0023
vn 0.8805 0.4629 0.1025
vn -0.0126 0.2830 0.9590
vn 0.0122 0.2426 0.9701
vn 0.9300 0.3672 0.0159
vn 0.9358 0.3521 0.0189
vn 0.9440 0.3276 0.0391
vn 0.9435 0.3311 -0.0164
vn -0.0444 -0.3140 -0.9484
vn 0.1314 -0.2997 -0.9449
vn -0.0138 -0.2793 -0.9601
vn 0.1346 -0.1843 -0.9736
vn 0.0557 -0.0695 0.9960
vn 0.0979 -0.1131 0.9888
vn 0.0627 -0.2767 0.9589
vn 0.9893 -0.1445 -0.0219
vn 0.9960 -0.0851 -0.0272
vn 0.9870 -0.1602 -0.0134
vn 0.9962 -0.0796 -0.0345
vn 0.1341 -0.1297 0.9824
vn 0.9536 0.3008 -0.0164
vn 0.9951 0.0985 -0.0070
vn 0.9690 -0.2469 -0.0104
vn 0.1338 -0.1374 0.9814
vn 0.1583 -0.3679 -0.9163
vn 0.0583 -0.6045 0.7944
vn 0.1050 -0.5923 0.7988
vn 0.0560 -0.7954 0.6036
vn 0.0804 0.0927 -0.9924
vn 0.0800 0.0927 -0.9925
vn 0.0827 -0.4941 0.8655
vn 0.0774 -0.6426 0.7623
vn 0.0856 -0.5126 0.8544
vn 0.9631 -0.2614 -0.0641
vn 0.9079 0.4189 0.0127
vn 0.8115 0.5844 0.0045
vn 0.8950 0.4461 0.0022
vn 0.8046 0.5938 -0.0068
vn 0.2217 0.2508 0.9423
vn 0.2219 0.2509 0.9423
vn 0.2219 0.2508 0.9423
vn 0.3578 -0.0467 -0.9326
vn 0.3577 -0.0468 -0.9326
vn 0.3576 -0.0469 -0.9327
vn 0.9173 0.3961 0.0414
vn 0.9287 0.3688 0.0383
vn 0.9288 0.3683 0.0408
vn 0.9905 0.1374 -0.0045
vn 0.8935 0.4490 0.0088
vn -0.0023 0.3566 -0.9342
vn -0.0063 0.3346 -0.9423
vn 0.5526 0.1085 -0.8263
vn 0.4755 0.2725 -0.8365
vn 0.4859 0.2637 -0.8333
vn 0.5775 0.0804 -0.8125
vn -0.6633 -0.0096 -0.7483
vn -0.6040 0.0249 -0.7966
vn -0.6429 -0.0068 -0.7659
vn -0.5919 0.0332 -0.8053
vn -0.5865 0.0242 -0.8096
vn -0.5952 0.0298 -0.8031
vn -0.0110 0.1255 -0.9920
vn 0.0001 0.2572 -0.9664
vn -0.0107 0.1351 -0.9908
vn -0.0006 0.2255 -0.9743
vn -0.0056 0.3242 -0.9460
vn -0.0117 0.2934 -0.9559
vn 0.0695 0.3084 -0.9487
vn 0.0859 -0.2729 -0.9582
vn 0.0758 0.3301 -0.9409
vn 0.9261 0.3767 0.0214
vn 0.8565 0.5138 0.0494
vn 0.8618 0.5036 0.0613
vn 0.0750 -0.1262 0.9892
vn 0.0748 -0.1265 0.9891
vn 0.0750 -0.1264 0.9891
vn 0.1216 -0.4048 -0.9063
vn 0.9498 -0.3012 -0.0842
vn 0.0829 0.3382 0.9374
vn 0.0828 0.3380 0.9375
vn 0.0830 0.3381 0.9374
vn 0.9556 0.2895 -0.0549
vn 0.9505 0.3016 -0.0743
vn 0.0624 -0.6082 -0.7914
vn 0.0259 -0.6265 -0.7790
vn 0.1222 -0.5494 -0.8266
vn 0.1881 0.0428 -0.9812
vn 0.9845 0.1663 0.0560
vn 0.9680 0.2156 0.1284
vn 0.0079 0.3207 0.9471
vn -0.0460 0.3512 0.9351
vn 0.0215 -0.9940 -0.1073
vn 0.0190 -0.9950 -0.0984
vn 0.0226 -0.9936 -0.1105
vn -0.0075 -0.1311 -0.9913
vn 0.3392 -0.9373 0.0804
vn 0.1772 -0.9830 -0.0487
vn 0.1725 -0.9845 -0.0315
vn 0.2480 -0.9688 -0.0044
vn -0.0002 -0.9976 -0.0690
vn 0.0526 -0.9962 -0.0689
vn -0.0015 -0.9977 -0.0679
vn 0.0085 -0.9975 -0.0697
vn 0.0189 -0.9951 -0.0968
vn 0.0088 -0.9999 0.0054
vn 0.0032 -0.9999 0.0107
vn -0.0022 -1.0000 0.0057
vn 0.0727 -0.9972 -0.0162
vn -0.0007 -1.0000 0.0043
vn -0.0144 -0.7692 0.6388
vn -0.0154 -0.7720 0.6354
vn -0.0061 -0.6970 0.7171
vn -0.0125 -0.9999 -0.0049
vn -0.0139 -0.9987 -0.0494
vn -0.0156 -0.9999 0.0003
vn -0.0264 -0.9988 -0.0400
vn -0.0701 -0.7072 0.7035
vn 0.0152 -0.7619 0.6475
vn 0.0054 -0.7505 0.6608
vn -0.0519 -0.7276 0.6841
vn 0.0010 0.2360 -0.9718
vn 0.0262 0.1338 -0.9907
vn -0.0225 0.2401 -0.9705
vn 0.0464 0.1279 -0.9907
vn 0.0116 -0.6782 0.7348
vn -0.0058 -0.1289 -0.9916
vn 0.8713 0.4903 0.0202
vn 0.8669 0.4978 0.0282
vn 0.2352 0.0519 0.9705
vn -0.0022 -0.5505 -0.8348
vn 0.0017 -0.5590 -0.8292
vn 0.0006 -0.5888 -0.8083
vn 0.0036 -0.9999 0.0135
vn 0.0050 -0.9998 0.0169
vn 0.0084 -1.0000 0.0052
vn -0.0039 -0.9998 0.0206
vn 0.0212 -0.2764 0.9608
vn -0.0006 -0.3727 0.9279
vn 0.0495 -0.2742 0.9604
vn -0.0214 -0.3733 0.9275
vn -0.0027 -1.0000 0.0009
vn 0.0062 -1.0000 -0.0008
vn 0.0001 -1.0000 0.0004
vn -0.0021 -0.9995 -0.0317
vn -0.0009 -0.9976 0.0698
vn 0.0027 -1.0000 0.0030
vn -0.0026 -0.9999 -0.0165
vn -0.0265 -0.9891 0.1449
vn 0.1381 -0.9868 -0.0841
vn 0.1688 -0.9749 0.1454
vn 0.1406 -0.9887 0.0513
vn -0.0117 -0.9995 -0.0281
vn -0.0111 -0.9894 -0.1451
vn -0.0038 -1.0000 0.0027
vn -0.0095 -0.9999 0.0045
vn 0.0134 -0.4168 -0.9089
vn 0.0168 -0.9997 -0.0199
vn 0.0228 -0.9997 -0.0121
vn 0.0104 -0.9999 0.0033
vn 0.0071 -1.0000 -0.0033
vn 0.0169 -0.4205 -0.9071
vn 0.0152 -0.4985 0.8668
vn 0.0148 -0.4907 0.8712
vn 0.0044 -1.0000 0.0024
vn 0.0014 -1.0000 0.0036
vn -0.0025 -1.0000 0.0002
vn 0.0110 -0.9996 -0.0268
vn -0.2634 -0.9590 -0.1046
vn -0.0006 -0.9984 -0.0559
vn 0.0006 -0.6777 0.7353
vn 0.0055 -0.9932 0.1161
vn 0.0036 -0.9947 0.1026
vn 0.0051 -0.9949 0.1008
vn 0.7489 -0.6207 -0.2320
vn 0.1885 -0.9807 0.0518
vn -0.5900 -0.8074 0.0003
vn -0.5842 -0.8072 0.0845
vn -0.5888 -0.8055 0.0677
vn 0.6044 -0.7772 -0.1750
vn 0.4234 -0.9042 -0.0555
vn 0.4741 -0.8805 0.0055
vn -0.0072 -0.6956 0.7184
vn -0.2381 -0.2780 0.9306
vn -0.8481 0.5295 -0.0193
vn -0.8843 0.4668 0.0096
vn -0.9977 -0.0195 0.0644
vn -0.3632 -0.9317 -0.0044
vn -0.3341 -0.9425 -0.0008
vn -0.3389 -0.9408 0.0090
vn -0.3639 -0.9314 -0.0018
vn 0.0056 -0.9948 -0.1021
vn 0.0155 -0.9950 -0.0987
vn 0.0061 -0.9962 -0.0867
vn 0.4225 -0.9053 -0.0444
vn 0.4220 -0.9064 0.0190
vn -0.3050 -0.9504 -0.0606
vn 0.0192 -0.8018 0.5973
vn 0.0072 -0.8183 0.5747
vn 0.7638 -0.5922 -0.2568
vn -0.0129 -0.9979 -0.0634
vn 0.0109 -0.9995 -0.0293
vn 0.0067 -0.9997 -0.0243
vn -0.0069 -0.9976 -0.0691
vn 0.5097 -0.8346 0.2091
vn -0.0205 -0.9797 -0.1993
vn -0.0020 -0.6718 0.7407
vn 0.0103 -0.6987 0.7154
vn 0.0046 -0.6907 0.7232
vn -0.0082 -0.6763 0.7365
vn -0.5074 -0.7283 0.4605
vn 0.8237 -0.5645 -0.0533
vn 0.8294 -0.5566 -0.0486
vn 0.8471 -0.5304 -0.0318
vn 0.0382 -0.8796 0.4742
vn 0.0406 -0.8796 0.4740
vn 0.0396 -0.8792 0.4749
vn 0.0409 -0.8796 0.4739
vn 0.8564 -0.5158 -0.0205
vn -0.0414 -0.6903 0.7223
vn -0.3516 -0.9336 0.0683
vn -0.3377 -0.9401 0.0464
vn -0.3792 -0.9251 0.0174
vn 0.0131 -0.9976 0.0682
vn 0.0091 -0.9999 -0.0045
vn 0.0125 -0.9999 -0.0110
vn -0.0566 -0.9981 -0.0235
vn 0.0040 -0.9999 -0.0139
vn 0.0035 -0.9999 -0.0145
vn 0.0303 -0.9995 -0.0032
vn -0.0070 -1.0000 0.0062
vn -0.4452 -0.8937 0.0564
vn 0.0147 -0.9966 -0.0812
vn 0.0037 -0.9963 -0.0861
vn 0.7317 -0.6394 -0.2360
vn 0.4979 -0.8670 0.0205
vn -0.3451 -0.9364 0.0635
vn -0.3981 -0.9172 0.0117
vn -0.3835 -0.9234 0.0181
vn 0.0238 -0.9953 0.0936
vn -0.0035 -0.9917 0.1283
vn 0.0151 -0.9948 0.1010
vn 0.0163 -0.9940 0.1077
vn -0.0057 -0.9989 0.0473
vn 0.0020 -0.9882 0.1535
vn -0.7088 -0.7028 0.0610
vn 0.0082 -0.9900 0.1405
vn 0.0399 -0.9931 0.1098
vn 0.0147 0.2569 0.9663
vn 0.0132 0.2211 0.9752
vn 0.0177 0.2495 0.9682
vn 0.0029 0.2202 0.9754
vn 0.0395 -0.5780 -0.8151
vn 0.0193 -0.9862 0.1642
vn 0.0191 -0.9862 0.1643
vn 0.0196 -0.9862 0.1641
vn 0.0310 -0.5634 -0.8256
vn -0.0940 -0.7309 -0.6760
vn -0.0505 -0.1997 -0.9785
vn -0.0512 -0.3024 -0.9518
vn 0.0185 -0.3638 -0.9313
vn -0.0528 -0.1943 -0.9795
vn -0.0537 -0.5092 0.8590
vn 0.0055 -0.0619 0.9981
vn 0.0435 -0.3439 0.9380
vn 0.0038 -0.9946 0.1041
vn -0.0099 -0.9997 -0.0221
vn 0.0345 -0.9988 -0.0349
vn 0.0320 -0.9991 -0.0282
vn -0.0128 -0.9998 -0.0142
vn 0.0321 -0.3215 0.9464
vn 0.0366 -0.3233 0.9456
vn 0.0236 -0.9994 -0.0241
vn 0.0429 -0.9982 -0.0430
vn 0.4492 -0.8908 0.0692
vn 0.6497 -0.7580 0.0578
vn 0.7591 -0.6509 0.0025
vn 0.0027 -0.7775 -0.6289
vn 0.4505 -0.8897 0.0745
vn 0.9344 -0.3557 0.0210
vn -0.0140 -0.3919 -0.9199
vn 0.0017 -0.4508 -0.8926
vn -0.0234 -0.3885 -0.9211
vn 0.0059 -0.9956 0.0940
vn 0.5328 -0.8457 0.0308
vn 0.5652 -0.8248 0.0145
vn 0.5791 -0.8152 0.0124
vn 0.5235 -0.8512 0.0378
vn -0.8818 -0.4470 -0.1504
vn -0.8718 -0.4713 -0.1336
vn -0.8660 -0.4886 -0.1068
vn -0.8536 -0.5142 -0.0835
vn -0.0010 -0.5444 -0.8388
vn -0.0046 -0.5520 -0.8338
vn -0.5770 -0.8167 0.0114
vn -0.6229 -0.7823 -0.0064
vn -0.6289 -0.7774 -0.0063
vn -0.5710 -0.8209 0.0104
vn -0.3436 -0.9389 0.0201
vn -0.5522 -0.8316 0.0585
vn -0.0030 -0.9999 0.0130
vn -0.0042 -1.0000 0.0022
vn 0.7352 -0.6763 0.0456
vn 0.6977 -0.7101 0.0952
vn 0.7315 -0.6791 0.0610
vn 0.7366 -0.6748 0.0458
vn 0.0126 -0.9999 0.0029
vn 0.0104 -0.9994 -0.0334
vn 0.0173 -0.9997 0.0166
vn 0.0090 -1.0000 0.0035
vn 0.0100 -0.9999 0.0032
vn 0.0099 -0.9987 0.0490
vn 0.9018 -0.4297 0.0466
vn -0.0229 -0.5384 0.8424
vn 0.0158 -0.5510 0.8344
vn 0.0032 -0.2770 0.9609
vn 0.0130 -0.9999 -0.0030
vn 0.0126 -0.9999 -0.0030
vn 0.0123 -0.9999 -0.0040
vn 0.0117 -0.9999 -0.0042
vn 0.9337 -0.3574 0.0236
vn 0.0275 -0.2809 -0.9593
vn 0.0063 -0.6336 -0.7737
vn 0.0341 -0.5132 -0.8576
vn 0.0273 -0.2909 -0.9564
vn 0.0232 -0.2810 -0.9594
vn 0.0420 -0.9991 -0.0087
vn 0.0263 -0.9992 -0.0307
vn -0.0947 -0.9935 -0.0625
vn 0.5064 -0.8622 -0.0111
vn 0.5287 -0.8486 -0.0157
vn 0.5320 -0.8466 -0.0165
vn 0.5046 -0.8633 -0.0100
vn 0.0008 -1.0000 0.0044
vn 0.0105 -0.9999 0.0075
vn 0.0050 -1.0000 -0.0026
vn 0.0026 -0.9999 0.0138
vn 0.0229 -0.6438 -0.7649
vn 0.0168 -0.9997 0.0152
vn -0.4399 -0.8960 0.0599
vn -0.4275 -0.9031 0.0400
vn -0.4049 -0.9136 0.0383
vn -0.4585 -0.8861 0.0682
vn -0.3024 -0.9532 -0.0003
vn -0.0139 -0.2950 -0.9554
vn -0.1435 -0.1387 0.9799
vn 0.0938 -0.9943 0.0508
vn -0.8863 -0.3737 -0.2737
vn -0.8847 -0.1778 -0.4310
vn -0.8209 -0.5660 -0.0763
vn -0.8147 0.0569 -0.5771
vn 0.0730 -0.9927 0.0965
vn 0.0049 -0.2910 -0.9567
vn 0.0047 -0.2909 -0.9567
vn 0.0046 -0.2910 -0.9567
vn -0.9732 -0.1918 0.1269
vn -0.9581 -0.0369 0.2840
vn -0.9712 0.0802 0.2243
vn -0.7415 -0.6679 0.0636
vn -0.9517 0.2924 0.0937
vn -0.8870 0.1368 0.4410
vn -0.9413 0.0662 0.3309
vn 0.0066 -0.0123 0.9999
vn -0.0060 -0.0646 0.9979
vn 0.0149 -0.9998 0.0093
vn 0.0006 -0.9998 0.0216
vn 0.0066 -1.0000 -0.0037
vn -0.5853 -0.8100 -0.0369
vn -0.6432 -0.7632 -0.0620
vn -0.5714 -0.8202 -0.0288
vn -0.5835 -0.8103 0.0551
vn -0.6029 -0.7978 0.0049
vn -0.6003 -0.7998 -0.0014
vn -0.7182 -0.6900 -0.0897
vn 0.0255 -0.9997 0.0064
vn 0.0133 -0.9998 0.0126
vn 0.0225 -0.2623 0.9647
vn -0.3731 -0.5893 0.7166
vn 0.0104 -0.2952 0.9554
vn 0.6134 -0.5874 0.5279
vn 0.6342 -0.4864 0.6010
vn 0.6058 -0.6013 0.5210
vn 0.6420 -0.4746 0.6021
vn 0.0157 -0.9989 -0.0438
vn 0.0138 -0.9999 0.0035
vn -0.6695 -0.3949 0.6292
vn -0.7233 -0.6899 0.0295
vn -0.7213 -0.6921 0.0289
vn -0.0100 -0.0623 0.9980
vn -0.0187 -0.3730 0.9276
vn -0.0168 -0.3688 0.9294
vn -0.0179 -0.3687 0.9294
vn -0.0201 -0.3732 0.9276
vn 0.0286 -0.9995 -0.0148
vn -0.0597 -0.9982 0.0036
vn 0.0395 -0.9991 -0.0170
vn -0.0853 -0.9958 0.0327
vn -0.0444 -0.9990 -0.0074
vn 0.7498 -0.6510 -0.1187
vn 0.7039 -0.7008 -0.1152
vn 0.7061 -0.6987 -0.1148
vn 0.7536 -0.6465 -0.1186
vn 0.0222 -0.1937 -0.9808
vn 0.0294 -0.2245 -0.9740
vn 0.0168 -0.1937 -0.9809
vn 0.0356 -0.2257 -0.9735
vn 0.0108 -0.9999 0.0012
vn 0.0169 -0.9998 -0.0064
vn 0.0187 -0.9998 -0.0090
vn -0.0086 -0.0592 0.9982
vn 0.5315 -0.8466 0.0281
vn 0.5201 -0.8538 0.0213
vn 0.5354 -0.8441 0.0300
vn 0.5194 -0.8543 0.0179
vn 0.5174 -0.8558 0.0023
vn -0.4350 -0.8867 0.1567
vn 0.0029 -0.9999 0.0119
vn -0.0337 -0.1320 0.9907
vn -0.0032 -0.3015 0.9535
vn -0.0847 -0.1316 0.9877
vn -0.0165 -0.2602 0.9654
vn -0.0469 -0.0786 -0.9958
vn 0.0043 -0.3022 -0.9532
vn -0.1078 -0.0682 -0.9918
vn 0.0440 -0.3063 -0.9509
vn -0.0081 -0.9994 0.0329
vn -0.0069 -0.9997 0.0254
vn 0.4797 -0.8773 0.0155
vn 0.4838 -0.8751 0.0077
vn 0.4760 -0.8791 0.0250
vn 0.4898 -0.8718 -0.0010
vn 0.6187 0.0225 -0.7853
vn 0.5880 0.0171 -0.8087
vn 0.0094 -0.9962 -0.0865
vn -0.0061 -0.9983 -0.0587
vn -0.0083 -0.9930 -0.1182
vn -0.0343 -0.9468 -0.3200
vn -0.0084 -0.9942 -0.1069
vn 0.0137 -0.9742 -0.2252
vn -0.0022 -0.9921 -0.1253
vn 0.0187 -0.9956 -0.0914
vn -0.0167 -0.9980 -0.0606
vn -0.1025 -0.9946 -0.0158
vn -0.0855 -0.9963 -0.0108
vn -0.1091 -0.9940 0.0062
vn -0.1415 -0.9899 -0.0032
vn -0.1164 -0.9932 0.0002
vn -0.1488 -0.9889 0.0030
vn -0.0910 -0.9959 -0.0023
vn -0.0441 -0.9990 -0.0030
vn -1.0000 -0.0000 -0.0000
vn -0.1307 -0.9914 0.0006
vn -0.1194 -0.9928 0.0010
vn -0.0808 -0.9965 0.0198
vn -0.0076 -0.9998 0.0186
vn -0.0152 -0.9998 0.0123
vn -0.0691 -0.9976 0.0034
vn -0.1661 -0.9855 0.0334
vn -0.0869 -0.9935 -0.0731
vn 0.8310 0.5555 -0.0288
vn 0.8380 0.5442 -0.0401
vn -0.6090 0.6675 -0.4283
vn -0.9698 -0.0059 -0.2437
vn -0.7294 0.6590 -0.1835
vn -0.7728 -0.0104 -0.6346
vn -0.9760 -0.0106 0.2177
vn -0.7288 0.6663 0.1580
vn -0.4058 -0.0238 -0.9136
vn -0.3133 0.6471 -0.6950
vn -0.3593 0.6615 0.6583
vn -0.7814 -0.0147 0.6238
vn -0.4024 -0.0206 0.9152
vn -0.6004 0.6574 0.4554
vn -0.1991 0.9658 -0.1663
vn -0.2434 0.9674 -0.0697
vn -0.2009 0.9657 -0.1645
vn -0.2441 0.9674 -0.0668
vn -0.2316 0.9715 0.0508
vn -0.2282 0.9716 0.0621
vn -0.1015 0.9673 -0.2323
vn -0.1048 0.9673 -0.2308
vn -0.0913 0.9723 0.2154
vn -0.1860 0.9712 0.1490
vn -0.0895 0.9723 0.2159
vn -0.1857 0.9712 0.1495
vn -0.6973 0.3951 -0.5981
vn -0.8909 0.3764 -0.2543
vn -0.8924 0.3846 -0.2363
vn -0.7010 0.4018 -0.5892
vn -0.9311 0.3067 0.1975
vn -0.9200 0.3146 0.2338
vn -0.3917 0.3611 -0.8463
vn -0.3683 0.3706 -0.8527
vn -0.4126 0.3483 0.8417
vn -0.3535 0.3363 0.8729
vn -0.7045 0.4071 0.5814
vn -0.7236 0.4396 0.5321
vt 0.424962 0.694531
vt 0.425817 0.638671
vt 0.439155 0.694539
vt 0.441176 0.638664
vt 0.411196 0.638669
vt 0.410209 0.694541
vt 0.454623 0.638669
vt 0.469959 0.694502
vt 0.454005 0.694536
vt 0.469773 0.638629
vt 0.380045 0.694521
vt 0.392800 0.638671
vt 0.394601 0.694526
vt 0.378640 0.638664
vt 0.364519 0.694512
vt 0.364764 0.638654
vt 0.525744 0.710685
vt 0.507807 0.708820
vt 0.511955 0.703894
vt 0.524369 0.717213
vt 0.540369 0.710849
vt 0.543157 0.718070
vt 0.497008 0.696537
vt 0.499221 0.678981
vt 0.503318 0.693574
vt 0.492866 0.679438
vt 0.572293 0.694110
vt 0.561197 0.707935
vt 0.565305 0.691315
vt 0.556860 0.702691
vt 0.574673 0.677746
vt 0.567287 0.677560
vt 0.860602 0.386452
vt 0.880166 0.434305
vt 0.859747 0.434305
vt 0.879274 0.386452
vt 0.898159 0.386452
vt 0.901578 0.434305
vt 0.844166 0.386452
vt 0.822722 0.434305
vt 0.826517 0.386452
vt 0.840560 0.434305
vt 0.936626 0.386452
vt 0.939822 0.434305
vt 0.918894 0.386452
vt 0.919701 0.434305
vt 0.953089 0.386452
vt 0.959978 0.434305
vt 0.035960 0.387268
vt 0.200527 0.347107
vt 0.217290 0.354126
vt 0.238715 0.354246
vt 0.187700 0.331487
vt 0.018470 0.377900
vt 0.428775 0.387508
vt 0.256675 0.344563
vt 0.184320 0.311811
vt 0.009484 0.360602
vt 0.453158 0.311623
vt 0.453158 0.378192
vt 0.267952 0.329026
vt 0.271016 0.311826
vt 0.736371 0.488857
vt 0.667883 0.539345
vt 0.667883 0.488842
vt 0.736355 0.539345
vt 0.914994 0.062399
vt 0.743067 0.062399
vt 0.914994 0.013019
vt 0.501794 0.013019
vt 0.523195 0.062399
vt 0.501794 0.062399
vt 0.523195 0.013019
vt 0.157112 0.548694
vt 0.206953 0.549130
vt 0.206908 0.568515
vt 0.156790 0.565637
vt 0.937139 0.013019
vt 0.937139 0.062399
vt 0.217290 0.269118
vt 0.200530 0.276137
vt 0.035960 0.235973
vt 0.238717 0.268998
vt 0.187700 0.291756
vt 0.018470 0.245342
vt 0.256678 0.278681
vt 0.428775 0.235738
vt 0.009484 0.262639
vt 0.267952 0.294218
vt 0.448274 0.245051
vt 0.453158 0.260453
vt 0.787443 0.539345
vt 0.787455 0.488877
vt 0.805403 0.488864
vt 0.811419 0.539345
vt 0.035625 0.013414
vt 0.166050 0.064717
vt 0.035637 0.063819
vt 0.451042 0.013414
vt 0.427977 0.063013
vt 0.427596 0.013414
vt 0.451042 0.062258
vt 0.208325 0.451568
vt 0.159124 0.433333
vt 0.208760 0.432174
vt 0.158099 0.473941
vt 0.020341 0.065045
vt 0.014115 0.013414
vt 0.907968 0.638629
vt 0.859780 0.678062
vt 0.859780 0.638629
vt 0.907968 0.678062
vt 0.909974 0.271790
vt 0.836299 0.232371
vt 0.909146 0.227430
vt 0.835464 0.271009
vt 0.285598 0.985674
vt 0.238243 0.985674
vt 0.285598 0.946717
vt 0.238243 0.946717
vt 0.787555 0.220433
vt 0.743692 0.223579
vt 0.783005 0.156415
vt 0.581228 0.386452
vt 0.654119 0.386452
vt 0.658684 0.440759
vt 0.847571 0.180949
vt 0.840492 0.228346
vt 0.824687 0.178048
vt 0.733460 0.676034
vt 0.656123 0.681254
vt 0.654920 0.676034
vt 0.733737 0.681254
vt 0.557624 0.156415
vt 0.507442 0.219480
vt 0.502647 0.156415
vt 0.555868 0.221070
vt 0.894802 0.184799
vt 0.972584 0.223953
vt 0.799915 0.286664
vt 0.762921 0.294234
vt 0.533138 0.431941
vt 0.582522 0.440759
vt 0.509169 0.386452
vt 0.973978 0.182175
vt 0.646749 0.293263
vt 0.693152 0.217951
vt 0.693207 0.293263
vt 0.979225 0.939133
vt 0.913432 0.939133
vt 0.913432 0.935283
vt 0.642935 0.221333
vt 0.644203 0.301761
vt 0.601510 0.301761
vt 0.593118 0.220598
vt 0.557832 0.935225
vt 0.606734 0.935225
vt 0.606734 0.943133
vt 0.557832 0.943133
vt 0.603361 0.681254
vt 0.603444 0.676034
vt 0.639538 0.156415
vt 0.262606 0.560431
vt 0.287706 0.550614
vt 0.286820 0.561519
vt 0.893980 0.970209
vt 0.960012 0.973505
vt 0.886603 0.973505
vt 0.914798 0.903309
vt 0.990739 0.900581
vt 0.990739 0.905635
vt 0.825022 0.867573
vt 0.787342 0.865061
vt 0.786747 0.859833
vt 0.835740 0.858909
vt 0.832549 0.724188
vt 0.872606 0.718745
vt 0.908840 0.724196
vt 0.909808 0.832875
vt 0.840899 0.824751
vt 0.927245 0.824751
vt 0.550572 0.292363
vt 0.587789 0.221033
vt 0.584430 0.292305
vt 0.472757 0.976298
vt 0.539352 0.968880
vt 0.540550 0.976298
vt 0.461546 0.968880
vt 0.546437 0.295414
vt 0.833214 0.121715
vt 0.807430 0.118593
vt 0.834685 0.117059
vt 0.702317 0.256204
vt 0.507244 0.296260
vt 0.815314 0.221531
vt 0.505666 0.424892
vt 0.898272 0.171246
vt 0.015021 0.834711
vt 0.080405 0.829754
vt 0.088812 0.835367
vt 0.687396 0.156415
vt 0.738221 0.156415
vt 0.740126 0.715184
vt 0.676184 0.708622
vt 0.740840 0.710648
vt 0.662949 0.715184
vt 0.757254 0.791142
vt 0.822396 0.791240
vt 0.822063 0.794199
vt 0.757306 0.795878
vt 0.974616 0.269901
vt 0.604987 0.976298
vt 0.884413 0.791680
vt 0.803065 0.715184
vt 0.606873 0.968880
vt 0.848206 0.156415
vt 0.680562 0.461644
vt 0.680997 0.433447
vt 0.685360 0.433447
vt 0.717378 0.461702
vt 0.717378 0.433447
vt 0.492988 0.838667
vt 0.524872 0.813892
vt 0.524872 0.838667
vt 0.492988 0.813892
vt 0.325799 0.852228
vt 0.358373 0.876852
vt 0.325799 0.876852
vt 0.358373 0.852228
vt 0.270375 0.920669
vt 0.238243 0.920669
vt 0.238243 0.878502
vt 0.288626 0.878455
vt 0.288626 0.920669
vt 0.905246 0.610741
vt 0.942248 0.568181
vt 0.960232 0.610741
vt 0.905246 0.568181
vt 0.457818 0.544212
vt 0.408152 0.514948
vt 0.462374 0.524702
vt 0.408152 0.541015
vt 0.315503 0.658508
vt 0.324271 0.706627
vt 0.280902 0.669400
vt 0.286408 0.706627
vt 0.255647 0.658508
vt 0.276379 0.705598
vt 0.236977 0.705598
vt 0.236977 0.659458
vt 0.978371 0.389111
vt 0.978371 0.421108
vt 0.965694 0.384087
vt 0.551152 0.685349
vt 0.519406 0.689306
vt 0.519619 0.684563
vt 0.127027 0.798945
vt 0.097552 0.810194
vt 0.089715 0.797561
vt 0.324271 0.658508
vt 0.272684 0.658508
vt 0.033085 0.861039
vt 0.099385 0.856496
vt 0.104422 0.861039
vt 0.031308 0.856496
vt 0.588903 0.156415
vt 0.589485 0.193624
vt 0.417319 0.922022
vt 0.441216 0.945301
vt 0.420674 0.945161
vt 0.441216 0.908912
vt 0.477537 0.331708
vt 0.479554 0.328191
vt 0.522553 0.331708
vt 0.524209 0.328191
vt 0.396827 0.910295
vt 0.396434 0.918470
vt 0.312308 0.627788
vt 0.324364 0.623309
vt 0.325583 0.635553
vt 0.290190 0.635553
vt 0.753267 0.906455
vt 0.732968 0.906455
vt 0.732968 0.900581
vt 0.754341 0.900581
vt 0.289117 0.627788
vt 0.313496 0.623309
vt 0.104422 0.841982
vt 0.099385 0.845125
vt 0.346804 0.921185
vt 0.335091 0.933537
vt 0.335091 0.921185
vt 0.346804 0.933537
vt 0.231867 0.587843
vt 0.246972 0.576476
vt 0.235221 0.599825
vt 0.247306 0.600755
vt 0.900266 0.121139
vt 0.735141 0.802638
vt 0.668590 0.802638
vt 0.668507 0.800492
vt 0.735141 0.791142
vt 0.005456 0.861039
vt 0.642644 0.802638
vt 0.989267 0.714644
vt 0.942088 0.714644
vt 0.934756 0.708622
vt 0.988021 0.708622
vt 0.287706 0.513844
vt 0.238243 0.514590
vt 0.781949 0.638629
vt 0.830027 0.676430
vt 0.781949 0.676430
vt 0.837667 0.638629
vt 0.005857 0.667437
vt 0.073899 0.606329
vt 0.076363 0.667437
vt 0.005857 0.606329
vt 0.833532 0.519298
vt 0.835416 0.488842
vt 0.903691 0.488842
vt 0.016834 0.132957
vt 0.059997 0.138238
vt 0.451042 0.134423
vt 0.087863 0.421000
vt 0.086116 0.466924
vt 0.969366 0.488842
vt 0.900722 0.527665
vt 0.969366 0.536773
vt 0.006253 0.463144
vt 0.011915 0.413649
vt 0.040180 0.204220
vt 0.004114 0.197193
vt 0.430796 0.215514
vt 0.405498 0.150235
vt 0.471538 0.208993
vt 0.005456 0.521921
vt 0.085980 0.525453
vt 0.156082 0.204208
vt 0.113844 0.133410
vt 0.159449 0.134541
vt 0.111418 0.204423
vt 0.076944 0.765724
vt 0.142378 0.779809
vt 0.076436 0.775473
vt 0.148912 0.760329
vt 0.144441 0.882987
vt 0.075640 0.882987
vt 0.138818 0.869837
vt 0.546761 0.339144
vt 0.611049 0.356635
vt 0.546636 0.356635
vt 0.611049 0.326002
vt 0.074219 0.874468
vt 0.349345 0.127142
vt 0.343594 0.063509
vt 0.477537 0.356635
vt 0.005456 0.882987
vt 0.005456 0.770275
vt 0.432797 0.835508
vt 0.432797 0.876437
vt 0.422278 0.841004
vt 0.969107 0.452457
vt 0.968902 0.461056
vt 0.898025 0.452457
vt 0.286580 0.733657
vt 0.211715 0.746343
vt 0.199017 0.733657
vt 0.829873 0.747269
vt 0.829938 0.763281
vt 0.758563 0.749584
vt 0.234128 0.135294
vt 0.185294 0.206616
vt 0.183846 0.133913
vt 0.229978 0.206904
vt 0.809529 0.935283
vt 0.883668 0.935353
vt 0.813637 0.940726
vt 0.755269 0.550110
vt 0.750695 0.554339
vt 0.682653 0.551963
vt 0.247684 0.135214
vt 0.235852 0.203019
vt 0.250316 0.202707
vt 0.238538 0.064242
vt 0.055387 0.167328
vt 0.147608 0.667437
vt 0.147608 0.606329
vt 0.573232 0.458077
vt 0.639135 0.451622
vt 0.643223 0.458077
vt 0.572694 0.451622
vt 0.832189 0.545458
vt 0.899117 0.545458
vt 0.832302 0.550880
vt 0.899248 0.550880
vt 0.965433 0.550880
vt 0.966216 0.545458
vt 0.508735 0.508244
vt 0.575485 0.543355
vt 0.508735 0.543355
vt 0.577109 0.500769
vt 0.644418 0.543355
vt 0.644418 0.488842
vt 0.540004 0.882114
vt 0.528961 0.875419
vt 0.540004 0.841271
vt 0.299755 0.131266
vt 0.258651 0.206982
vt 0.296308 0.206306
vt 0.720946 0.836796
vt 0.642644 0.834051
vt 0.707600 0.824751
vt 0.821145 0.454927
vt 0.886961 0.462355
vt 0.784877 0.464541
vt 0.405492 0.446045
vt 0.468785 0.463374
vt 0.402555 0.463782
vt 0.933682 0.867879
vt 0.865224 0.867879
vt 0.907516 0.858909
vt 0.417673 0.217606
vt 0.375818 0.225710
vt 0.474398 0.599686
vt 0.464945 0.571355
vt 0.474398 0.530957
vt 0.716236 0.858909
vt 0.716772 0.864708
vt 0.642644 0.868709
vt 0.083193 0.571742
vt 0.009968 0.576845
vt 0.774129 0.363699
vt 0.724938 0.326002
vt 0.774129 0.326002
vt 0.492575 0.882114
vt 0.744237 0.939265
vt 0.787416 0.935283
vt 0.783103 0.939996
vt 0.737545 0.935283
vt 0.198731 0.963991
vt 0.143615 0.914015
vt 0.198731 0.914015
vt 0.142121 0.963991
vt 0.724938 0.363699
vt 0.287960 0.598471
vt 0.266179 0.598471
vt 0.811528 0.564868
vt 0.858608 0.564868
vt 0.811528 0.613707
vt 0.576571 0.818646
vt 0.567408 0.806739
vt 0.615386 0.806739
vt 0.680797 0.386837
vt 0.725025 0.391112
vt 0.681455 0.391112
vt 0.731927 0.386837
vt 0.371578 0.494140
vt 0.416473 0.485754
vt 0.422967 0.494140
vt 0.367850 0.485754
vt 0.386606 0.979036
vt 0.344153 0.970640
vt 0.387434 0.970640
vt 0.338407 0.979036
vt 0.199017 0.780533
vt 0.488300 0.875419
vt 0.342406 0.205163
vt 0.302564 0.205421
vt 0.717748 0.871097
vt 0.610566 0.747269
vt 0.567408 0.758120
vt 0.567408 0.747269
vt 0.431979 0.394289
vt 0.414071 0.428900
vt 0.414071 0.394289
vt 0.431979 0.435126
vt 0.208590 0.308772
vt 0.240814 0.321514
vt 0.205844 0.321514
vt 0.253405 0.308772
vt 0.159515 0.738217
vt 0.115951 0.738217
vt 0.159515 0.692430
vt 0.118645 0.692430
vt 0.115934 0.697382
vt 0.112351 0.691546
vt 0.073950 0.738217
vt 0.074746 0.691546
vt 0.069490 0.694360
vt 0.069525 0.738217
vt 0.055061 0.693973
vt 0.053763 0.738217
vt 0.050509 0.689550
vt 0.005456 0.738217
vt 0.005456 0.689550
vt 0.148912 0.809649
vt 0.282186 0.830219
vt 0.252198 0.830219
vt 0.249590 0.808161
vt 0.282186 0.799323
vt 0.142378 0.809649
vt 0.144441 0.839677
vt 0.138818 0.839833
vt 0.908083 0.314474
vt 0.908083 0.360269
vt 0.899303 0.312468
vt 0.864937 0.304718
vt 0.863461 0.360269
vt 0.899128 0.295774
vt 0.211715 0.782117
vt 0.492072 0.747277
vt 0.545296 0.747269
vt 0.492072 0.763243
vt 0.558822 0.475649
vt 0.515396 0.475269
vt 0.558507 0.472438
vt 0.941028 0.292141
vt 0.946843 0.283005
vt 0.984426 0.292141
vt 0.857119 0.975163
vt 0.814038 0.980582
vt 0.813982 0.970209
vt 0.354147 0.577165
vt 0.371865 0.570137
vt 0.393839 0.577165
vt 0.619830 0.818984
vt 0.747231 0.859377
vt 0.755741 0.296147
vt 0.717113 0.302701
vt 0.908913 0.708622
vt 0.606170 0.841096
vt 0.569347 0.849487
vt 0.567408 0.841096
vt 0.609415 0.849519
vt 0.800103 0.425733
vt 0.727564 0.408219
vt 0.793016 0.389746
vt 0.737963 0.945994
vt 0.732968 0.945994
vt 0.611161 0.841096
vt 0.381099 0.835508
vt 0.381727 0.841004
vt 0.229290 0.425850
vt 0.228615 0.422395
vt 0.266137 0.422776
vt 0.140713 0.989493
vt 0.181374 0.986104
vt 0.181374 0.989493
vt 0.140713 0.986104
vt 0.741253 0.945994
vt 0.733566 0.389746
vt 0.702222 0.936141
vt 0.646687 0.947037
vt 0.642644 0.936141
vt 0.701029 0.947037
vt 0.809529 0.970263
vt 0.388121 0.724532
vt 0.392794 0.718818
vt 0.397554 0.722557
vt 0.826423 0.901810
vt 0.892685 0.907679
vt 0.824687 0.907400
vt 0.892212 0.901810
vt 0.399250 0.718706
vt 0.206937 0.782815
vt 0.031493 0.991490
vt 0.045639 0.981159
vt 0.048570 0.984383
vt 0.864542 0.295774
vt 0.797188 0.368833
vt 0.797188 0.313326
vt 0.858898 0.368833
vt 0.875763 0.569383
vt 0.875763 0.613707
vt 0.861019 0.569661
vt 0.859639 0.613707
vt 0.046250 0.991490
vt 0.800609 0.432171
vt 0.737057 0.449478
vt 0.354147 0.568725
vt 0.398128 0.563169
vt 0.005456 0.988213
vt 0.092605 0.991490
vt 0.101657 0.984383
vt 0.117043 0.959046
vt 0.064744 0.913893
vt 0.117043 0.913893
vt 0.064601 0.959046
vt 0.960232 0.564868
vt 0.941873 0.564868
vt 0.494320 0.925901
vt 0.492072 0.918084
vt 0.539146 0.918084
vt 0.005456 0.913893
vt 0.005456 0.959046
vt 0.288986 0.748339
vt 0.332637 0.772692
vt 0.290933 0.772692
vt 0.342618 0.748339
vt 0.420794 0.599686
vt 0.623205 0.471542
vt 0.580840 0.470146
vt 0.622607 0.468372
vt 0.423443 0.571355
vt 0.418801 0.593851
vt 0.080201 0.790210
vt 0.064196 0.797649
vt 0.047369 0.790210
vt 0.082344 0.799678
vt 0.871710 0.750693
vt 0.852051 0.747725
vt 0.885125 0.747725
vt 0.545296 0.791140
vt 0.365472 0.786647
vt 0.399546 0.786647
vt 0.398013 0.818370
vt 0.365472 0.818370
vt 0.926783 0.759830
vt 0.924445 0.753541
vt 0.440322 0.818370
vt 0.440322 0.786647
vt 0.342403 0.532985
vt 0.339377 0.526477
vt 0.343141 0.526315
vt 0.364519 0.599686
vt 0.310824 0.531289
vt 0.335857 0.503496
vt 0.005456 0.810194
vt 0.058175 0.810194
vt 0.005456 0.790210
vt 0.492072 0.791140
vt 0.604527 0.885365
vt 0.567325 0.899425
vt 0.562658 0.879980
vt 0.607310 0.899425
vt 0.385166 0.523325
vt 0.385166 0.549344
vt 0.367949 0.530701
vt 0.367949 0.549344
vt 0.567408 0.783730
vt 0.620532 0.783730
vt 0.713317 0.651127
vt 0.757367 0.638629
vt 0.759491 0.651127
vt 0.712819 0.638629
vt 0.670886 0.638629
vt 0.668822 0.642606
vt 0.414198 0.435126
vt 0.359495 0.435126
vt 0.818786 0.836542
vt 0.765001 0.836542
vt 0.771007 0.824751
vt 0.817295 0.824751
vt 0.988923 0.342908
vt 0.988923 0.363128
vt 0.935793 0.314133
vt 0.935793 0.363128
vt 0.935793 0.321110
vt 0.988923 0.314133
vt 0.747046 0.836542
vt 0.906525 0.800941
vt 0.958951 0.791142
vt 0.968106 0.801203
vt 0.640666 0.326002
vt 0.702825 0.326002
vt 0.640666 0.369485
vt 0.702825 0.369485
vt 0.743058 0.824751
vt 0.645409 0.900723
vt 0.708411 0.900723
vt 0.686561 0.908312
vt 0.684060 0.914028
vt 0.642644 0.911557
vt 0.234348 0.633416
vt 0.272684 0.633416
vt 0.234348 0.656727
vt 0.950318 0.830521
vt 0.988790 0.824751
vt 0.988875 0.830521
vt 0.949358 0.824751
vt 0.359495 0.474916
vt 0.327302 0.428900
vt 0.319234 0.475005
vt 0.367643 0.428900
vt 0.710855 0.905804
vt 0.280969 0.658508
vt 0.935280 0.085801
vt 0.970027 0.080360
vt 0.976829 0.085801
vt 0.935323 0.080360
vt 0.978930 0.080360
vt 0.462374 0.515006
vt 0.969595 0.795590
vt 0.940222 0.722724
vt 0.120519 0.854402
vt 0.129901 0.846359
vt 0.129901 0.854402
vt 0.120519 0.846359
vt 0.931026 0.715747
vt 0.989091 0.638629
vt 0.989797 0.647875
vt 0.937451 0.647875
vt 0.195483 0.606329
vt 0.205373 0.637848
vt 0.169720 0.631001
vt 0.205373 0.606329
vt 0.169720 0.606329
vt 0.196651 0.638685
vt 0.196044 0.641116
vt 0.869619 0.758323
vt 0.852052 0.758323
vt 0.333380 0.598471
vt 0.333380 0.550614
vt 0.238508 0.557435
vt 0.604440 0.642606
vt 0.622773 0.647209
vt 0.603361 0.647650
vt 0.673117 0.651127
vt 0.653858 0.651127
vt 0.653115 0.642606
vt 0.624349 0.653921
vt 0.230538 0.848637
vt 0.230538 0.808161
vt 0.663294 0.756662
vt 0.682896 0.753181
vt 0.665208 0.761659
vt 0.417040 0.716999
vt 0.426144 0.721395
vt 0.418580 0.723122
vt 0.426150 0.717172
vt 0.251943 0.799323
vt 0.251971 0.848637
vt 0.682907 0.747863
vt 0.643492 0.753144
vt 0.642644 0.747863
vt 0.727207 0.756902
vt 0.268633 0.849440
vt 0.289560 0.849440
vt 0.289560 0.855614
vt 0.268633 0.855614
vt 0.314333 0.449731
vt 0.277338 0.448825
vt 0.307972 0.428900
vt 0.277338 0.428900
vt 0.262771 0.453139
vt 0.642749 0.969711
vt 0.692830 0.969711
vt 0.692830 0.979164
vt 0.642749 0.979164
vt 0.776987 0.975808
vt 0.735851 0.968242
vt 0.778900 0.968242
vt 0.732968 0.975653
vt 0.262771 0.495254
vt 0.234994 0.495254
vt 0.234994 0.448353
vt 0.729080 0.747863
vt 0.187296 0.870314
vt 0.195314 0.842776
vt 0.195314 0.870314
vt 0.187296 0.834200
vt 0.195314 0.834200
vt 0.101765 0.991490
vt 0.314333 0.474520
vt 0.800029 0.900581
vt 0.778605 0.913170
vt 0.802574 0.913170
vt 0.756336 0.913170
vt 0.710804 0.411972
vt 0.690355 0.403906
vt 0.713029 0.407058
vt 0.686303 0.411972
vt 0.319086 0.497637
vt 0.314333 0.497637
vt 0.376432 0.447536
vt 0.384251 0.454896
vt 0.376432 0.454896
vt 0.384251 0.447536
vt 0.507450 0.451622
vt 0.507760 0.458077
vt 0.496285 0.115312
vt 0.533366 0.115312
vt 0.520384 0.133771
vt 0.536603 0.125354
vt 0.631518 0.133771
vt 0.607482 0.125354
vt 0.647600 0.125290
vt 0.647413 0.118939
vt 0.609681 0.118939
vt 0.900790 0.081732
vt 0.915727 0.091598
vt 0.870683 0.091598
vt 0.819741 0.091598
vt 0.720860 0.091598
vt 0.728348 0.081732
vt 0.771794 0.091598
vt 0.629657 0.087147
vt 0.564237 0.081732
vt 0.579450 0.062399
vt 0.689377 0.091598
vt 0.634341 0.091598
vt 0.540257 0.090424
vt 0.487397 0.090424
vt 0.507816 0.081732
vt 0.583775 0.091559
vt 0.541935 0.093562
vt 0.921527 0.091598
vt 0.140785 0.920719
vt 0.086553 0.214138
vt 0.048915 0.207477
s 1
f 296/1/1 13/2/2 295/3/3
f 295/3/3 13/2/2 14/4/4
f 296/1/1 15/5/5 13/2/2
f 15/5/5 296/1/1 297/6/6
f 16/7/7 293/8/8 298/9/9
f 293/8/8 16/7/7 1/10/10
f 300/11/11 18/12/12 299/13/13
f 18/12/12 300/11/11 17/14/14
f 294/15/15 17/14/14 300/11/11
f 17/14/14 294/15/15 2/16/16
f 13/17/17 20/18/18 14/19/19
f 20/18/18 13/17/17 19/20/20
f 15/21/21 19/20/20 13/17/17
f 21/22/22 19/20/20 15/21/21
f 22/23/23 1/24/24 16/25/25
f 1/24/24 22/23/23 3/26/26
f 23/27/27 24/28/28 17/29/29
f 24/28/28 18/30/30 17/29/29
f 4/31/31 17/29/29 2/32/32
f 17/29/29 4/31/31 23/27/27
f 20/33/33 25/34/34 26/35/35
f 25/34/34 20/33/33 19/36/36
f 21/37/37 25/34/34 19/36/36
f 25/34/34 21/37/37 27/38/38
f 22/39/39 9/40/40 3/41/41
f 9/40/40 22/39/39 28/42/42
f 23/43/43 29/44/44 24/45/45
f 24/45/45 29/44/44 30/46/46
f 4/47/47 12/48/48 23/43/43
f 12/48/48 29/44/44 23/43/43
f 24/45/45 27/38/38 21/37/37
f 27/38/38 24/45/45 30/46/46
f 298/9/9 14/4/4 16/7/7
f 14/4/4 298/9/9 295/3/3
f 299/13/13 15/5/5 297/6/6
f 15/5/5 299/13/13 18/12/12
f 20/18/18 16/25/25 14/19/19
f 16/25/25 20/18/18 22/23/23
f 21/22/22 18/30/30 24/28/28
f 18/30/30 21/22/22 15/21/21
f 20/33/33 28/42/42 22/39/39
f 28/42/42 20/33/33 26/35/35
f 31/49/49 11/50/50 7/51/51
f 31/49/49 7/51/51 5/52/52
f 10/53/53 31/49/49 32/54/54
f 31/49/49 10/53/53 11/50/50
f 33/55/55 5/52/52 6/56/56
f 12/57/57 10/53/53 34/58/58
f 36/59/59 35/60/60 8/61/61
f 9/62/62 36/59/59 8/61/61
f 5/52/52 33/55/55 31/49/49
f 36/63/63 38/64/64 35/65/65
f 38/64/64 36/63/63 37/66/66
f 39/67/67 40/68/68 33/69/69
f 32/70/70 41/71/71 42/72/72
f 41/71/71 32/70/70 31/73/73
f 10/53/53 32/54/54 34/58/58
f 43/74/74 34/75/75 32/76/70
f 32/76/70 42/77/72 43/74/74
f 8/61/61 33/55/55 6/56/56
f 33/55/55 8/61/61 35/60/60
f 39/67/67 33/69/69 35/78/65
f 35/78/65 38/79/64 39/67/67
f 27/80/76 30/81/77 44/82/78
f 25/83/79 27/80/76 44/82/78
f 29/84/80 45/85/81 44/82/78
f 29/84/80 44/82/78 30/81/77
f 26/86/82 25/83/79 46/87/83
f 12/57/57 47/88/84 29/84/80
f 47/88/84 12/57/57 34/58/58
f 28/89/85 48/90/86 49/91/87
f 36/59/59 9/62/62 49/91/87
f 49/91/87 9/62/62 28/89/85
f 44/82/78 46/87/83 25/83/79
f 50/92/88 37/66/66 49/93/89
f 36/63/63 49/93/89 37/66/66
f 48/94/90 50/92/88 49/93/89
f 50/92/88 48/94/90 51/95/91
f 46/96/92 52/97/93 53/98/94
f 45/99/95 55/100/96 44/101/97
f 55/100/96 45/99/95 54/102/98
f 47/88/84 45/85/81 29/84/80
f 47/103/99 54/104/98 45/105/95
f 54/104/98 47/103/99 56/106/100
f 48/90/86 28/89/85 46/87/83
f 46/87/83 28/89/85 26/86/82
f 46/96/92 51/107/91 48/108/90
f 51/107/91 46/96/92 53/98/94
f 60/109/101 58/110/102 59/111/103
f 58/110/102 60/109/101 57/112/104
f 61/113/105 63/114/106 64/115/107
f 63/114/106 61/113/105 62/116/108
f 65/117/109 66/118/110 68/119/111
f 66/118/110 67/120/112 68/119/111
f 69/121/113 70/122/114 71/123/115
f 72/124/116 42/125/117 73/126/118
f 74/127/119 75/128/120 76/129/121
f 73/130/122 78/131/123 79/132/124
f 78/131/123 73/130/122 77/133/125
f 82/134/126 80/135/127 81/136/128
f 80/135/127 82/134/126 83/137/129
f 84/138/130 85/139/131 64/115/107
f 69/121/113 86/140/132 87/141/133
f 88/142/134 72/124/116 79/143/135
f 72/124/116 88/142/134 89/144/136
f 84/138/130 77/145/137 85/139/131
f 90/146/138 91/147/139 92/148/140
f 70/149/141 93/150/141 94/151/141
f 95/152/142 90/146/138 96/153/143
f 97/154/144 98/155/145 96/153/143
f 90/156/146 99/157/147 100/158/148
f 90/156/146 100/158/148 96/159/149
f 79/132/124 101/160/150 88/161/151
f 101/160/150 79/132/124 78/131/123
f 102/162/152 95/152/142 98/155/145
f 103/163/153 104/164/154 105/165/155
f 84/138/130 75/128/120 74/127/119
f 75/128/120 84/138/130 64/115/107
f 93/166/156 70/167/156 87/168/157
f 91/169/158 106/170/159 92/171/160
f 107/172/161 108/173/162 109/174/163
f 109/174/163 60/175/164 107/172/161
f 91/176/165 108/177/166 106/178/167
f 110/179/168 98/180/168 97/181/168
f 111/182/169 112/183/170 113/184/171
f 115/185/172 61/186/173 114/187/174
f 61/186/173 115/185/172 62/188/172
f 116/189/175 83/137/129 111/182/169
f 117/190/176 118/191/177 98/192/178
f 83/137/129 82/134/126 112/183/170
f 87/141/133 70/122/114 69/121/113
f 70/122/114 109/193/179 91/147/139
f 75/128/120 64/115/107 63/114/106
f 116/189/175 80/135/127 83/137/129
f 80/135/127 116/189/175 119/194/180
f 73/126/118 79/143/135 72/124/116
f 76/129/121 75/128/120 120/195/181
f 89/144/136 88/142/134 121/196/182
f 77/145/137 84/138/130 78/197/183
f 70/198/184 94/199/185 57/200/186
f 102/162/152 91/147/139 95/152/142
f 91/147/139 122/201/187 123/202/188
f 71/123/115 70/122/114 123/202/188
f 80/203/189 124/204/190 125/205/191
f 124/204/190 80/203/189 119/206/192
f 115/207/193 114/208/194 125/209/195
f 125/209/195 124/210/196 115/207/193
f 126/211/197 64/115/107 85/139/131
f 64/115/107 126/211/197 61/113/105
f 61/186/173 81/212/198 114/187/174
f 114/208/194 81/213/199 125/209/195
f 125/205/191 81/214/200 80/203/189
f 81/212/198 61/186/173 126/215/201
f 101/216/202 78/197/183 74/127/119
f 78/197/183 84/138/130 74/127/119
f 121/217/203 88/218/204 101/219/205
f 101/219/205 127/220/206 121/217/203
f 127/220/206 101/219/205 128/221/207
f 101/222/208 129/223/209 128/224/210
f 129/223/209 101/222/208 74/225/211
f 129/226/212 76/227/213 130/228/214
f 76/227/213 129/226/212 74/229/215
f 130/230/216 76/231/217 120/232/218
f 120/232/218 131/233/219 130/230/216
f 132/234/220 130/230/216 131/233/219
f 89/235/221 127/236/222 133/237/223
f 127/236/222 89/235/221 121/238/224
f 131/239/225 75/240/226 134/241/227
f 75/240/226 131/239/225 120/242/228
f 136/243/229 63/244/230 135/245/231
f 63/244/230 62/246/232 135/245/231
f 138/247/233 119/248/234 116/249/235
f 138/247/233 116/249/235 137/250/236
f 115/251/237 135/252/237 62/253/237
f 135/254/238 115/255/239 124/256/238
f 135/257/240 124/258/241 119/259/242
f 139/260/243 63/244/230 136/243/229
f 119/248/234 140/261/244 135/245/231
f 112/262/245 141/263/246 113/264/247
f 142/265/248 141/263/246 112/262/245
f 143/266/249 118/267/250 82/134/126
f 98/155/145 118/267/250 102/162/152
f 145/268/251 113/269/252 144/270/253
f 113/269/252 145/268/251 111/271/254
f 116/272/255 111/273/256 137/274/257
f 111/273/256 146/275/258 137/274/257
f 111/271/254 145/268/251 146/276/259
f 146/276/259 145/268/251 147/277/260
f 144/278/261 148/279/262 103/280/263
f 103/280/263 149/281/264 144/278/261
f 147/282/265 145/283/266 149/284/267
f 149/284/267 150/285/268 147/282/265
f 144/278/261 149/281/264 145/286/269
f 151/287/270 148/279/262 144/278/261
f 144/288/271 113/264/247 141/263/246
f 144/288/271 141/263/246 151/289/272
f 151/290/273 110/291/274 148/292/275
f 110/291/274 151/290/273 141/293/276
f 110/294/277 97/295/278 148/296/279
f 148/296/279 97/295/278 103/297/280
f 111/182/169 83/137/129 112/183/170
f 110/298/281 117/190/176 98/192/178
f 141/299/282 142/300/283 117/301/284
f 117/301/284 110/302/285 141/299/282
f 118/303/286 142/265/248 112/262/245
f 142/300/283 118/304/287 117/301/284
f 82/134/126 118/267/250 112/183/170
f 102/162/152 118/267/250 143/266/249
f 63/305/288 139/306/289 152/307/290
f 63/305/288 152/307/290 75/308/288
f 100/309/291 103/163/153 96/310/292
f 96/153/143 98/155/145 95/152/142
f 91/147/139 90/146/138 95/152/142
f 86/311/293 154/312/294 87/313/295
f 154/312/294 86/311/293 153/314/296
f 155/315/297 157/316/298 158/317/299
f 157/316/298 155/315/297 156/318/300
f 159/319/301 51/320/302 160/321/303
f 51/107/91 53/98/94 160/322/304
f 53/98/94 161/323/305 160/322/304
f 55/100/96 54/102/98 162/324/306
f 56/106/100 162/325/307 54/104/98
f 162/325/307 56/106/100 163/326/308
f 160/321/303 164/327/309 166/328/310
f 166/328/310 164/327/309 165/329/311
f 162/325/307 167/330/312 168/331/313
f 167/330/312 162/325/307 163/326/308
f 169/332/314 164/333/315 160/322/304
f 162/324/306 170/334/316 171/335/317
f 170/334/316 162/324/306 168/336/318
f 163/326/308 133/337/319 167/330/312
f 133/337/319 163/326/308 172/338/320
f 176/339/321 174/340/322 175/341/323
f 174/340/322 176/339/321 173/342/324
f 180/343/325 178/344/326 179/345/327
f 178/344/326 180/343/325 177/346/328
f 176/347/329 175/348/330 181/349/331
f 179/350/332 181/351/333 182/352/334
f 181/351/333 179/350/332 178/353/335
f 175/348/330 182/354/336 181/349/331
f 55/100/96 183/355/337 184/356/338
f 179/350/332 182/352/334 52/357/339
f 175/348/330 52/358/340 182/354/336
f 180/343/325 179/345/327 52/359/341
f 169/360/342 185/361/343 186/362/344
f 173/363/345 187/364/345 174/365/346
f 174/366/347 188/367/348 65/368/349
f 187/369/350 188/370/350 174/371/350
f 189/372/351 177/373/352 180/374/353
f 177/373/352 189/372/351 190/375/354
f 190/376/355 189/377/356 191/378/357
f 192/379/358 193/380/359 194/381/360
f 194/382/361 191/383/362 189/372/351
f 191/383/362 194/382/361 193/384/363
f 195/385/364 180/374/353 52/97/93
f 180/374/353 195/385/364 189/372/351
f 189/372/351 195/385/364 194/382/361
f 160/322/304 161/323/305 169/332/314
f 174/340/322 185/386/365 161/323/305
f 157/316/298 196/387/366 158/317/299
f 196/387/366 157/316/298 197/388/367
f 157/389/368 165/390/369 197/391/370
f 165/390/369 157/389/368 166/392/371
f 155/393/372 158/394/373 199/395/374
f 199/395/374 158/394/373 198/396/375
f 158/394/373 153/397/376 198/396/375
f 153/397/376 158/394/373 196/398/377
f 199/399/378 69/400/379 71/401/380
f 69/400/379 199/399/378 198/402/381
f 198/402/381 86/403/382 69/400/379
f 86/403/382 198/402/381 153/404/383
f 68/405/384 200/406/385 185/407/386
f 175/341/323 174/340/322 52/97/93
f 52/97/93 174/340/322 53/98/94
f 174/340/322 161/323/305 53/98/94
f 201/408/387 192/409/388 194/382/361
f 192/409/388 201/408/387 202/410/389
f 203/411/390 183/412/391 204/413/392
f 205/414/393 183/415/393 206/416/393
f 204/417/394 183/418/394 205/419/394
f 194/382/361 195/385/364 201/408/387
f 207/420/395 171/421/396 208/422/397
f 207/423/398 206/424/399 171/335/317
f 183/355/337 55/100/96 171/335/317
f 170/425/400 209/426/401 171/427/402
f 210/428/403 211/429/404 201/430/405
f 162/324/306 171/335/317 55/100/96
f 56/106/100 43/74/74 172/338/320
f 56/106/100 172/338/320 163/326/308
f 72/431/406 172/338/320 43/74/74
f 72/431/406 133/337/319 172/338/320
f 133/337/319 72/431/406 89/432/407
f 169/433/408 165/434/409 164/435/410
f 200/406/385 68/405/384 67/436/411
f 212/437/412 197/438/413 165/439/414
f 213/440/415 197/438/413 212/437/412
f 213/441/416 196/442/417 197/443/418
f 196/442/417 213/441/416 214/444/419
f 165/434/409 169/433/408 212/445/420
f 91/147/139 123/202/188 70/122/114
f 102/162/152 122/201/187 91/147/139
f 150/446/421 149/447/422 105/165/155
f 149/447/422 103/163/153 105/165/155
f 90/448/423 92/449/424 99/450/425
f 107/451/426 60/452/427 59/453/428
f 93/454/429 216/455/430 94/456/431
f 216/455/430 93/454/429 215/457/432
f 93/458/433 154/459/434 215/460/435
f 154/459/434 93/458/433 87/461/436
f 58/462/437 94/463/438 216/464/439
f 94/463/438 58/462/437 57/465/440
f 188/367/348 66/466/441 65/368/349
f 200/406/385 67/436/411 217/467/442
f 183/355/337 203/468/443 201/408/387
f 201/408/387 203/468/443 210/469/444
f 202/470/445 201/430/405 211/429/404
f 205/471/446 218/472/447 219/473/448
f 205/474/449 220/475/450 204/476/451
f 220/475/450 205/474/449 219/477/452
f 221/478/453 204/479/454 220/480/455
f 204/479/454 221/478/453 203/481/456
f 221/482/457 222/483/458 203/484/459
f 203/484/459 222/483/458 210/485/460
f 210/485/460 222/483/458 211/486/461
f 211/486/461 222/483/458 202/487/462
f 202/487/462 222/483/458 223/488/463
f 202/487/462 223/488/463 192/489/464
f 193/490/465 223/488/463 224/491/466
f 223/488/463 193/490/465 192/489/464
f 224/491/466 191/492/467 193/490/465
f 191/492/467 224/491/466 225/493/468
f 191/492/467 225/493/468 190/494/469
f 190/494/469 226/495/470 177/496/471
f 226/495/470 190/494/469 225/493/468
f 177/346/328 226/497/472 178/344/326
f 178/498/473 227/499/474 228/500/475
f 178/498/473 228/500/475 181/501/476
f 226/497/472 227/502/477 178/344/326
f 230/503/478 181/349/331 229/504/479
f 181/349/331 230/503/478 176/347/329
f 173/505/480 176/506/481 187/507/482
f 231/508/483 187/507/482 230/509/484
f 187/507/482 231/508/483 188/510/485
f 66/466/441 188/367/348 232/511/486
f 230/509/484 187/507/482 176/506/481
f 233/512/487 206/513/488 234/514/489
f 208/515/490 171/516/490 209/517/490
f 183/355/337 171/335/317 206/424/399
f 183/355/337 201/408/387 184/356/338
f 184/356/338 201/408/387 195/385/364
f 215/518/491 154/519/491 153/520/491
f 153/521/492 214/522/493 215/523/494
f 58/524/495 235/525/496 59/526/497
f 59/453/428 236/527/498 107/451/426
f 91/528/499 109/174/163 108/173/162
f 109/193/179 57/529/500 60/530/501
f 57/529/500 109/193/179 70/122/114
f 107/531/502 106/178/167 108/177/166
f 238/532/503 66/533/504 237/534/505
f 66/533/504 238/532/503 67/535/506
f 237/536/507 235/537/508 238/538/509
f 213/440/415 217/539/510 238/540/511
f 238/532/503 217/541/512 67/535/506
f 212/542/513 169/360/342 186/362/344
f 186/362/344 239/543/514 212/542/513
f 200/544/515 186/545/515 185/546/515
f 185/386/365 169/332/314 161/323/305
f 217/547/516 186/548/517 200/549/518
f 186/548/517 217/547/516 239/550/519
f 217/539/510 213/440/415 239/551/520
f 239/551/520 213/440/415 212/437/412
f 216/455/430 240/552/521 235/537/508
f 240/553/522 213/554/523 238/555/524
f 213/554/523 240/553/522 214/556/525
f 214/522/493 240/557/526 215/523/494
f 240/552/521 216/455/430 215/457/432
f 238/538/509 235/537/508 240/552/521
f 231/558/527 242/559/528 232/560/529
f 243/561/530 231/562/531 241/563/532
f 231/562/531 243/561/530 242/564/533
f 232/560/529 242/559/528 237/565/534
f 232/511/486 237/566/535 66/466/441
f 236/567/536 243/568/537 241/569/538
f 232/570/539 188/510/485 231/508/483
f 244/571/540 241/572/541 245/573/542
f 230/509/484 245/573/542 231/508/483
f 245/573/542 241/572/541 231/508/483
f 107/574/543 236/575/544 106/576/545
f 246/577/546 106/576/545 236/575/544
f 241/569/538 246/578/547 236/567/536
f 242/579/548 243/580/549 235/537/508
f 216/581/550 235/525/496 58/524/495
f 236/582/551 59/526/497 235/525/496
f 237/536/507 242/579/548 235/537/508
f 99/450/425 92/449/424 106/576/545
f 99/450/425 106/576/545 246/577/546
f 235/583/552 243/568/537 236/567/536
f 241/569/538 99/584/553 246/578/547
f 99/584/553 241/569/538 244/585/554
f 168/586/555 247/587/556 170/588/557
f 247/587/556 168/586/555 167/589/558
f 127/236/222 248/590/559 133/237/223
f 127/236/222 249/591/560 248/590/559
f 248/592/561 250/593/561 133/594/561
f 167/589/558 250/595/562 247/587/556
f 250/595/562 167/589/558 133/596/563
f 252/597/564 208/598/565 251/599/566
f 208/598/565 252/597/564 207/600/567
f 209/426/401 170/425/400 247/601/568
f 209/602/569 251/603/570 208/604/571
f 247/601/568 251/605/572 209/426/401
f 253/606/573 251/605/572 247/601/568
f 254/607/574 132/608/575 255/609/576
f 132/608/575 254/607/574 130/610/577
f 250/611/578 256/612/579 257/613/580
f 207/614/581 234/514/489 206/513/488
f 254/615/582 255/616/583 257/617/584
f 254/615/582 257/617/584 256/618/585
f 253/619/586 257/613/580 258/620/587
f 257/613/580 253/619/586 250/611/578
f 258/621/588 255/616/583 234/622/589
f 255/616/583 258/621/588 257/617/584
f 258/623/590 252/624/591 253/625/592
f 250/626/593 253/606/573 247/601/568
f 234/627/594 252/624/591 258/623/590
f 253/625/592 252/624/591 251/628/595
f 260/629/596 255/609/576 259/630/597
f 255/609/576 260/629/596 234/631/598
f 252/632/599 234/514/489 207/614/581
f 259/630/597 255/609/576 132/608/575
f 259/633/600 131/634/601 134/635/602
f 131/634/601 259/633/600 132/636/603
f 218/637/604 233/638/605 260/639/606
f 260/639/606 233/638/605 234/640/607
f 218/472/447 205/471/446 233/641/608
f 205/471/446 206/642/609 233/641/608
f 261/643/610 221/644/611 220/645/612
f 221/644/611 261/643/610 222/646/613
f 223/647/614 222/646/613 224/648/615
f 262/649/616 263/650/617 220/475/450
f 262/649/616 220/475/450 219/477/452
f 263/651/618 262/652/619 264/653/620
f 263/651/618 264/653/620 265/654/621
f 218/655/622 260/656/623 266/657/624
f 259/658/625 134/659/626 260/656/623
f 218/655/622 266/657/624 264/660/627
f 262/652/619 219/661/628 264/653/620
f 264/662/629 267/663/630 268/664/631
f 264/665/632 268/666/633 265/667/634
f 268/666/633 269/668/635 265/667/634
f 218/669/636 264/653/620 219/661/628
f 265/670/637 269/671/638 270/672/639
f 271/673/640 263/674/641 265/670/637
f 265/670/637 270/672/639 271/673/640
f 138/247/233 272/675/642 270/676/643
f 272/675/642 138/247/233 146/677/644
f 271/678/645 272/679/646 273/680/647
f 272/679/646 271/678/645 270/681/648
f 271/682/649 274/683/650 263/650/617
f 274/683/650 271/682/649 273/684/651
f 263/650/617 274/683/650 261/685/652
f 261/685/652 220/475/450 263/650/617
f 269/671/638 140/686/653 270/672/639
f 135/245/231 140/261/244 275/687/654
f 268/688/655 275/689/656 269/690/657
f 275/689/656 268/688/655 136/691/658
f 269/690/657 275/689/656 140/692/659
f 134/241/227 75/240/226 152/693/660
f 135/245/231 275/687/654 136/243/229
f 268/664/631 267/663/630 136/694/661
f 139/306/289 136/695/662 152/307/290
f 152/696/663 266/697/664 134/698/665
f 266/697/664 152/696/663 267/699/666
f 136/695/662 267/700/667 152/307/290
f 266/701/668 267/702/669 264/703/670
f 130/704/671 256/705/672 128/706/673
f 256/705/672 130/704/671 254/707/674
f 129/708/675 130/704/671 128/706/673
f 128/706/673 249/709/676 127/710/677
f 248/711/678 249/712/679 256/612/579
f 248/711/678 256/612/579 250/611/578
f 256/705/672 249/709/676 128/706/673
f 277/713/680 150/446/421 105/165/155
f 277/713/680 105/165/155 276/714/681
f 276/714/681 105/165/155 104/164/154
f 100/309/291 104/164/154 103/163/153
f 97/715/682 96/310/292 103/163/153
f 226/716/683 278/717/684 227/718/685
f 274/719/686 222/646/613 261/643/610
f 222/646/613 274/719/686 224/648/615
f 279/720/687 224/648/615 274/719/686
f 224/648/615 279/720/687 225/721/688
f 226/716/683 225/721/688 278/717/684
f 279/720/687 278/717/684 225/721/688
f 278/717/684 279/720/687 280/722/689
f 227/499/474 281/723/690 282/724/691
f 227/499/474 282/724/691 228/500/475
f 228/725/692 282/726/693 245/727/694
f 245/728/695 229/729/696 228/730/697
f 229/729/696 245/728/695 230/731/698
f 229/732/699 181/501/476 228/500/475
f 278/733/700 281/723/690 227/499/474
f 284/734/701 281/735/702 283/736/703
f 281/735/702 284/734/701 282/726/693
f 284/734/701 244/737/704 282/726/693
f 280/738/705 283/739/706 281/740/707
f 280/738/705 281/740/707 278/741/708
f 285/742/709 283/743/710 279/744/711
f 279/744/711 283/743/710 280/745/712
f 283/743/710 285/742/709 286/746/713
f 286/747/714 285/748/715 277/749/716
f 286/747/714 277/749/716 276/750/717
f 276/751/718 287/752/719 286/753/720
f 287/752/719 276/751/718 104/754/721
f 286/746/713 287/755/722 288/756/723
f 286/746/713 288/756/723 284/757/724
f 286/746/713 284/757/724 283/743/710
f 284/734/701 288/758/725 244/737/704
f 104/759/726 288/760/727 287/761/728
f 288/760/727 104/759/726 100/762/729
f 288/760/727 100/762/729 99/763/730
f 99/584/553 244/585/554 288/764/731
f 244/737/704 245/727/694 282/726/693
f 285/742/709 274/683/650 273/684/651
f 279/744/711 274/683/650 285/742/709
f 285/742/709 273/684/651 289/765/732
f 150/285/268 277/766/733 289/767/734
f 285/768/735 289/767/734 277/766/733
f 150/285/268 290/769/736 147/282/265
f 290/769/736 150/285/268 289/767/734
f 272/770/737 291/771/738 273/772/739
f 291/771/738 272/770/737 146/773/740
f 273/684/651 291/774/741 290/775/742
f 273/684/651 290/775/742 289/765/732
f 137/250/236 146/677/644 138/247/233
f 140/261/244 138/247/233 270/676/643
f 140/261/244 119/248/234 138/247/233
f 291/776/743 147/777/744 290/778/745
f 147/777/744 291/776/743 146/779/746
f 160/321/303 166/328/310 159/319/301
f 159/780/747 166/392/371 156/781/748
f 156/781/748 166/392/371 157/389/368
f 51/782/749 159/783/750 50/784/751
f 159/783/750 156/785/752 50/784/751
f 156/785/752 37/786/753 50/784/751
f 155/787/754 37/786/753 156/785/752
f 37/786/753 155/787/754 38/788/755
f 71/789/756 38/788/755 199/790/757
f 39/791/758 71/792/756 123/793/759
f 123/793/759 122/794/760 39/791/758
f 143/795/761 40/796/762 102/797/763
f 40/796/762 126/798/764 292/799/765
f 41/71/71 31/73/73 292/800/766
f 33/69/69 40/68/68 31/73/73
f 143/795/761 82/801/767 40/796/762
f 40/796/762 82/801/767 126/798/764
f 81/802/768 126/798/764 82/801/767
f 73/803/769 42/804/770 41/805/771
f 73/803/769 41/805/771 292/799/765
f 85/806/772 77/807/773 292/799/765
f 292/799/765 77/807/773 73/803/769
f 126/798/764 85/806/772 292/799/765
f 40/68/68 292/800/766 31/73/73
f 34/75/75 56/106/100 47/103/99
f 56/106/100 34/75/75 43/74/74
f 42/77/72 72/431/406 43/74/74
f 46/96/92 44/101/97 195/385/364
f 46/96/92 195/385/364 52/97/93
f 55/100/96 184/356/338 44/101/97
f 195/385/364 44/101/97 184/356/338
f 39/791/758 38/808/755 71/792/756
f 155/787/754 199/790/757 38/788/755
f 134/659/626 266/657/624 260/656/623
f 214/444/419 153/809/774 196/442/417
f 65/810/775 185/386/365 174/340/322
f 185/386/365 65/810/775 68/811/776
f 40/796/762 39/791/758 122/794/760
f 40/796/762 122/794/760 102/797/763
f 303/3/777 301/2/778 304/1/779
f 301/2/778 303/3/777 302/4/780
f 304/1/779 306/5/781 305/6/782
f 306/5/781 304/1/779 301/2/778
f 308/7/783 307/9/784 293/8/8
f 293/8/8 1/10/10 308/7/783
f 310/11/785 312/12/786 311/14/787
f 312/12/786 310/11/785 309/13/788
f 310/11/785 311/14/787 294/15/15
f 294/15/15 311/14/787 2/16/16
f 314/18/789 301/17/790 302/19/791
f 301/17/790 314/18/789 313/20/792
f 306/21/793 301/17/790 313/20/792
f 313/20/792 315/22/794 306/21/793
f 316/23/795 1/24/24 3/26/26
f 1/24/24 316/23/795 308/25/796
f 311/29/797 317/28/798 318/27/799
f 317/28/798 311/29/797 312/30/800
f 311/29/797 4/31/31 2/32/32
f 4/31/31 311/29/797 318/27/799
f 314/33/801 5/34/802 313/36/803
f 5/34/802 314/33/801 6/35/804
f 313/36/803 5/34/802 315/37/805
f 315/37/805 5/34/802 7/38/806
f 316/39/807 9/40/40 8/42/808
f 9/40/40 316/39/807 3/41/41
f 10/44/809 318/43/810 317/45/811
f 317/45/811 11/46/812 10/44/809
f 318/43/810 12/48/48 4/47/47
f 12/48/48 318/43/810 10/44/809
f 315/37/805 7/38/806 317/45/811
f 317/45/811 7/38/806 11/46/812
f 307/9/784 302/4/780 303/3/777
f 302/4/780 307/9/784 308/7/783
f 309/13/788 306/5/781 312/12/786
f 306/5/781 309/13/788 305/6/782
f 308/25/796 314/18/789 302/19/791
f 314/18/789 308/25/796 316/23/795
f 315/22/794 317/28/798 312/30/800
f 315/22/794 312/30/800 306/21/793
f 316/39/807 8/42/808 314/33/801
f 314/33/801 8/42/808 6/35/804
f 296/1/1 295/3/3 298/9/9 293/8/8 307/9/784 303/3/777 304/1/779 305/6/782 309/13/788 310/11/785 294/15/15 300/11/11 299/13/13 297/6/6
