# Blender 5.0.1
# www.blender.org
g CircleCol_Circle.001
g CircleCol.001_Circle.002
v -15.606159 -2.756247 -127.999992
v -19.098928 -7.983538 -127.999992
v 15.606168 -2.756234 -127.999992
v 19.098938 -7.983526 -127.999992
v -15.606162 -2.756324 127.999992
v -19.098928 -7.983619 127.999992
v 15.606171 -2.756315 127.999992
v 19.098938 -7.983603 127.999992
s 1
f 5 7 3 1
f 6 8 7 5
f 6 2 4 8
f 2 1 3 4
g CircleCol.002_Circle.003
v 15.606168 -2.756234 -127.999992
v 19.098938 -7.983526 -127.999992
v 19.862885 0.737164 -127.999992
v 24.308336 -3.708279 -127.999992
v 15.606171 -2.756315 127.999992
v 19.098938 -7.983603 127.999992
v 19.862885 0.737084 127.999992
v 24.308336 -3.708365 127.999992
s 1
f 9 11 12 10
f 15 13 14 16
f 12 16 14 10
f 9 13 15 11
g CircleCol.003_Circle.004
v 19.862885 0.737164 -127.999992
v 24.308336 -3.708279 -127.999992
v 23.356274 4.993881 -127.999992
v 28.583572 1.501119 -127.999992
v 19.862885 0.737084 127.999992
v 24.308336 -3.708365 127.999992
v 23.356277 4.993803 127.999992
v 28.583572 1.501042 127.999992
s 1
f 17 19 20 18
f 23 21 22 24
f 20 24 22 18
f 17 21 23 19
g CircleCol.004_Circle.005
v 23.356274 4.993881 -127.999992
v 28.583572 1.501119 -127.999992
v 25.952101 9.850336 -127.999992
v 31.760359 7.444483 -127.999992
v 23.356277 4.993803 127.999992
v 28.583572 1.501042 127.999992
v 25.952101 9.850260 127.999992
v 31.760359 7.444405 127.999992
s 1
f 25 27 28 26
f 31 29 30 32
f 28 32 30 26
f 25 29 31 27
g CircleCol.005_Circle.006
v 25.952101 9.850336 -127.999992
v 31.760359 7.444483 -127.999992
v 27.550598 15.119900 -127.999992
v 33.716618 13.893410 -127.999992
v 25.952101 9.850260 127.999992
v 31.760359 7.444405 127.999992
v 27.550598 15.119822 127.999992
v 33.716618 13.893330 127.999992
s 1
f 33 35 36 34
f 39 37 38 40
f 36 40 38 34
f 33 37 39 35
g CircleCol.006_Circle.007
v 27.550598 15.119900 -127.999992
v 33.716618 13.893410 -127.999992
v 28.090343 20.600058 -127.999992
v 34.377155 20.600061 -127.999992
v 27.550598 15.119822 127.999992
v 33.716618 13.893330 127.999992
v 28.090343 20.599979 127.999992
v 34.377155 20.599983 127.999992
s 1
f 41 43 44 42
f 47 45 46 48
f 44 48 46 42
f 41 45 47 43
g CircleCol.007_Circle.008
v 28.090343 20.600058 -127.999992
v 34.377155 20.600061 -127.999992
v 27.550589 26.080214 -127.999985
v 33.716599 27.306719 -127.999985
v 28.090343 20.599979 127.999992
v 34.377155 20.599983 127.999992
v 27.550589 26.080135 127.999992
v 33.716599 27.306637 127.999992
s 1
f 49 51 52 50
f 55 53 54 56
f 52 56 54 50
f 49 53 55 51
g CircleCol.008_Circle.009
v 27.550589 26.080214 -127.999985
v 33.716599 27.306719 -127.999985
v 25.952078 31.349771 -127.999985
v 31.760336 33.755638 -127.999985
v 27.550589 26.080135 127.999992
v 33.716599 27.306637 127.999992
v 25.952078 31.349689 128.000000
v 31.760336 33.755558 128.000000
s 1
f 57 59 60 58
f 63 61 62 64
f 60 64 62 58
f 57 61 63 59
g CircleCol.009_Circle.010
v 25.952078 31.349771 -127.999985
v 31.760336 33.755638 -127.999985
v 23.356247 36.206215 -127.999985
v 28.583538 39.698990 -127.999985
v 25.952078 31.349689 128.000000
v 31.760336 33.755558 128.000000
v 23.356247 36.206131 128.000000
v 28.583538 39.698906 128.000000
s 1
f 65 67 68 66
f 71 69 70 72
f 68 72 70 66
f 65 69 71 67
g CircleCol.010_Circle.011
v 23.356247 36.206215 -127.999985
v 28.583538 39.698990 -127.999985
v 19.862846 40.462929 -127.999985
v 24.308287 44.908379 -127.999985
v 23.356247 36.206131 128.000000
v 28.583538 39.698906 128.000000
v 19.862846 40.462849 128.000000
v 24.308287 44.908302 128.000000
s 1
f 73 75 76 74
f 79 77 78 80
f 76 80 78 74
f 73 77 79 75
g CircleCol.011_Circle.012
v 19.862846 40.462929 -127.999985
v 24.308287 44.908379 -127.999985
v 15.606125 43.956318 -127.999985
v 19.098886 49.183617 -127.999985
v 19.862846 40.462849 128.000000
v 24.308287 44.908302 128.000000
v 15.606122 43.956238 128.000000
v 19.098886 49.183540 128.000000
s 1
f 81 83 84 82
f 87 85 86 88
f 84 88 86 82
f 81 85 87 83
g CircleCol.012_Circle.013
v 15.606125 43.956318 -127.999985
v 19.098886 49.183617 -127.999985
v 10.749672 46.552139 -127.999985
v 13.155519 52.360394 -127.999992
v 15.606122 43.956238 128.000000
v 19.098886 49.183540 128.000000
v 10.749668 46.552063 128.000000
v 13.155519 52.360321 127.999992
s 1
f 89 91 92 90
f 95 93 94 96
f 92 96 94 90
f 89 93 95 91
g CircleCol.013_Circle.014
v 10.749672 46.552139 -127.999985
v 13.155519 52.360394 -127.999992
v 5.480108 48.150631 -127.999985
v 6.706599 54.316647 -127.999992
v 10.749668 46.552063 128.000000
v 13.155519 52.360321 127.999992
v 5.480108 48.150555 128.000000
v 6.706596 54.316574 127.999992
s 1
f 97 99 100 98
f 103 101 102 104
f 100 104 102 98
f 97 101 103 99
g CircleCol.014_Circle.015
v 0.000000 48.690376 -127.999985
v -0.000003 54.977184 -127.999992
v 5.480108 48.150631 -127.999985
v 6.706599 54.316647 -127.999992
v 0.000000 48.690296 128.000000
v -0.000003 54.977104 127.999992
v 5.480108 48.150555 128.000000
v 6.706596 54.316574 127.999992
s 1
f 107 105 106 108
f 109 111 112 110
f 108 106 110 112
f 107 111 109 105
g CircleCol.015_Circle.016
v 0.000000 48.690376 -127.999985
v -5.480155 48.150623 -127.999985
v -6.706654 54.316639 -127.999992
v -0.000003 54.977184 -127.999992
v -5.480158 48.150555 128.000000
v 0.000000 48.690296 128.000000
v -0.000003 54.977104 127.999992
v -6.706654 54.316566 127.999992
s 1
f 113 114 115 116
f 117 118 119 120
f 115 120 119 116
f 113 118 117 114
g CircleCol.016_Circle.017
v -5.480155 48.150623 -127.999985
v -6.706654 54.316639 -127.999992
v -10.749715 46.552116 -127.999985
v -13.155572 52.360378 -127.999992
v -5.480158 48.150555 128.000000
v -6.706654 54.316566 127.999992
v -10.749712 46.552044 128.000000
v -13.155572 52.360306 127.999992
s 1
f 121 123 124 122
f 127 125 126 128
f 121 125 127 123
f 124 128 126 122
g CircleCol.017_Circle.018
v -10.749715 46.552116 -127.999985
v -13.155572 52.360378 -127.999992
v -15.606165 43.956299 -127.999985
v -19.098928 49.183586 -127.999985
v -10.749712 46.552044 128.000000
v -13.155572 52.360306 127.999992
v -15.606162 43.956223 128.000000
v -19.098928 49.183514 128.000000
s 1
f 129 131 132 130
f 135 133 134 136
f 129 133 135 131
f 132 136 134 130
g CircleCol.018_Circle.019
v -15.606165 43.956299 -127.999985
v -19.098928 49.183586 -127.999985
v -19.862875 40.462898 -127.999985
v -24.308323 44.908352 -127.999985
v -15.606162 43.956223 128.000000
v -19.098928 49.183514 128.000000
v -19.862877 40.462826 128.000000
v -24.308323 44.908268 128.000000
s 1
f 137 139 140 138
f 143 141 142 144
f 140 144 142 138
f 137 141 143 139
g CircleCol.019_Circle.020
v -19.862875 40.462898 -127.999985
v -24.308323 44.908352 -127.999985
v -23.356274 36.206181 -127.999985
v -28.583567 39.698948 -127.999985
v -19.862877 40.462826 128.000000
v -24.308323 44.908268 128.000000
v -23.356274 36.206108 128.000000
v -28.583567 39.698872 128.000000
s 1
f 145 147 148 146
f 151 149 150 152
f 148 152 150 146
f 145 149 151 147
g CircleCol.020_Circle.021
v -23.356274 36.206181 -127.999985
v -28.583567 39.698948 -127.999985
v -25.952099 31.349741 -127.999985
v -31.760357 33.755604 -127.999985
v -23.356274 36.206108 128.000000
v -28.583567 39.698872 128.000000
v -25.952099 31.349663 128.000000
v -31.760357 33.755524 128.000000
s 1
f 153 155 156 154
f 159 157 158 160
f 156 160 158 154
f 153 157 159 155
g CircleCol.021_Circle.022
v -25.952099 31.349741 -127.999985
v -31.760357 33.755604 -127.999985
v -27.550602 26.080187 -127.999985
v -33.716618 27.306681 -127.999985
v -25.952099 31.349663 128.000000
v -31.760357 33.755524 128.000000
v -27.550602 26.080109 127.999992
v -33.716618 27.306606 127.999992
s 1
f 161 163 164 162
f 167 165 166 168
f 164 168 166 162
f 161 165 167 163
g CircleCol.022_Circle.023
v -27.550602 26.080187 -127.999985
v -33.716618 27.306681 -127.999985
v -28.090349 20.600035 -127.999992
v -34.377159 20.600035 -127.999992
v -27.550602 26.080109 127.999992
v -33.716618 27.306606 127.999992
v -28.090349 20.599953 127.999992
v -34.377159 20.599953 127.999992
s 1
f 169 171 172 170
f 175 173 174 176
f 172 176 174 170
f 169 173 175 171
g CircleCol.023_Circle.024
v -28.090349 20.600035 -127.999992
v -34.377159 20.600035 -127.999992
v -27.550602 15.119879 -127.999992
v -33.716618 13.893385 -127.999992
v -28.090349 20.599953 127.999992
v -34.377159 20.599953 127.999992
v -27.550602 15.119801 127.999992
v -33.716618 13.893303 127.999992
s 1
f 177 179 180 178
f 183 181 182 184
f 180 184 182 178
f 177 181 183 179
g CircleCol.024_Circle.025
v -27.550602 15.119879 -127.999992
v -33.716618 13.893385 -127.999992
v -25.952099 9.850321 -127.999992
v -31.760357 7.444464 -127.999992
v -27.550602 15.119801 127.999992
v -33.716618 13.893303 127.999992
v -25.952099 9.850245 127.999992
v -31.760357 7.444384 127.999992
s 1
f 185 187 188 186
f 191 189 190 192
f 188 192 190 186
f 185 189 191 187
g CircleCol.025_Circle.026
v -25.952099 9.850321 -127.999992
v -31.760357 7.444464 -127.999992
v -23.356274 4.993864 -127.999992
v -28.583567 1.501100 -127.999992
v -25.952099 9.850245 127.999992
v -31.760357 7.444384 127.999992
v -23.356274 4.993784 127.999992
v -28.583567 1.501020 127.999992
s 1
f 193 195 196 194
f 199 197 198 200
f 196 200 198 194
f 193 197 199 195
g CircleCol.026_Circle.027
v -23.356274 4.993864 -127.999992
v -28.583567 1.501100 -127.999992
v -19.862877 0.737151 -127.999992
v -24.308323 -3.708297 -127.999992
v -23.356274 4.993784 127.999992
v -28.583567 1.501020 127.999992
v -19.862877 0.737069 127.999992
v -24.308323 -3.708375 127.999992
s 1
f 201 203 204 202
f 207 205 206 208
f 204 208 206 202
f 201 205 207 203
g CircleCol.027_Circle.028
v -19.862877 0.737151 -127.999992
v -24.308323 -3.708297 -127.999992
v -15.606159 -2.756247 -127.999992
v -19.098928 -7.983538 -127.999992
v -19.862877 0.737069 127.999992
v -24.308323 -3.708375 127.999992
v -15.606162 -2.756324 127.999992
v -19.098928 -7.983619 127.999992
s 1
f 209 211 212 210
f 215 213 214 216
f 212 216 214 210
f 209 213 215 211
