# Blender 5.0.1
# www.blender.org
g TubeCurveCol_env_ruin_tube_01_col
v 39.498199 16.387581 -92.647224
v 39.498196 24.278042 -92.647232
v 43.819786 15.772012 -91.145966
v 43.819786 25.104820 -91.145973
v 34.055458 15.772015 -53.640839
v 34.055454 25.104828 -53.640839
v 29.553001 16.387587 -54.451885
v 29.552998 24.278049 -54.451889
s 1
f 7 8 2 1
f 4 3 1 2
f 3 5 7 1
f 2 8 6 4
f 3 4 6 5
f 7 5 6 8
g TubeCurveCol.002_env_ruin_tube_01_col.003
v 25.239056 16.387589 -14.686192
v 29.553001 16.387587 -54.451885
v 25.239052 24.278051 -14.686195
v 29.809746 15.772018 -14.489408
v 34.055458 15.772015 -53.640839
v 29.809742 25.104830 -14.489410
v 34.055454 25.104828 -53.640839
v 29.552998 24.278049 -54.451889
s 1
f 9 11 16 10
f 13 12 9 10
f 14 11 9 12
f 13 15 14 12
f 16 11 14 15
f 13 10 16 15
g TubeCurveCol.003_env_ruin_tube_01_col.004
v -7.520729 16.387581 -108.980919
v -7.520727 24.278042 -108.980927
v -11.842321 15.772015 -110.482178
v -19.433762 16.387587 -63.276096
v -19.433762 24.278049 -63.276096
v -23.936226 15.772018 -64.087143
v -23.936218 25.104828 -64.087143
v -11.842314 25.104818 -110.482178
s 1
f 24 18 17 19
f 20 17 18 21
f 19 17 20 22
f 19 22 23 24
f 18 24 23 21
g TubeCurveCol.004_env_ruin_tube_01_col.005
v -24.490070 16.387589 -16.827213
v -24.490070 24.278051 -16.827213
v -19.433762 16.387587 -63.276096
v -29.060764 15.772022 -17.023998
v -23.936226 15.772018 -64.087143
v -29.060757 25.104830 -17.023998
v -23.936218 25.104828 -64.087143
v -19.433762 24.278049 -63.276096
s 1
f 25 27 32 26
f 30 28 25 26
f 29 27 25 28
f 29 28 30 31
f 32 31 30 26
g TubeCurveCol.005_env_ruin_tube_01_col.006
v -0.372692 49.900955 -54.907509
v 0.339031 45.192039 -54.791149
v 1.353601 49.900955 -64.447922
v 8.837839 49.900955 -53.401688
v 8.126114 45.192039 -53.518047
v 10.510430 49.900955 -62.644073
v 9.802855 45.192043 -62.783463
v 2.061174 45.192043 -64.308533
s 1
f 37 36 33 34
f 33 35 40 34
f 36 38 35 33
f 36 37 39 38
f 39 40 35 38
f 34 40 39 37
g TubeCurveCol.006_env_ruin_tube_01_col.007
v 2.120974 -0.654421 -123.621597
v 2.120974 -7.212246 -123.621597
v 2.120974 -0.000011 -123.621597
v 9.094997 -14.139909 -120.728233
v 41.086311 -0.000007 -107.455780
v -15.699102 -0.000006 -62.603405
v -15.699102 -7.212241 -62.603409
v 25.818354 -0.000003 -55.124668
v 25.818354 -7.212243 -55.124668
v 41.086311 -7.212248 -107.455780
v 18.387550 -14.139904 -56.463215
v 34.112286 -14.139909 -110.349144
v -8.268299 -14.139904 -61.264862
v 41.086311 -0.654420 -107.455780
s 1
f 47 46 43 41 42
f 41 43 42
f 42 43 44
f 44 43 45 52
f 43 46 48 45
f 54 45 48 49 50
f 52 50 49 51
f 44 52 51 53
f 42 44 53 47
f 52 45 50
s 0
f 50 45 54
g TubeCurveCol.007_env_ruin_tube_01_col.008
v -21.092834 -0.654412 0.000000
v -21.092834 -7.212236 0.000001
v -21.092834 -0.000002 0.000000
v 21.092834 0.000002 -0.000000
v -13.542435 -14.139899 0.000001
v -15.699102 -0.000006 -62.603405
v 25.818354 -0.000003 -55.124668
v -15.699102 -7.212241 -62.603409
v -8.268299 -14.139904 -61.264862
v 18.387550 -14.139904 -56.463215
v 13.542435 -14.139899 0.000001
v 25.818354 -7.212243 -55.124668
v 21.092834 -7.212238 0.000001
v 21.092834 -0.654411 0.000000
s 1
f 55 57 60 62 56
f 56 57 55
f 60 57 58 61
f 57 59 65 58
f 59 57 56
f 62 63 59 56
f 63 64 65 59
f 64 66 67 65
f 66 61 58 68 67
f 67 58 65
s 0
f 68 58 67
g TubeCurveCol.008_env_ruin_tube_01_col.009
v -11.842329 15.772015 -110.482185
v -3.936104 -0.654420 -107.735672
v -5.609797 15.772014 -126.828918
v -7.541155 16.387581 -108.988014
v -1.404074 16.387579 -125.084061
v 0.567438 -0.000010 -106.171204
v 6.524572 -0.000011 -121.794647
v 2.120974 -0.654421 -123.621597
s 1
f 69 70 74 72
f 69 71 76 70
f 71 69 72 73
f 75 73 72 74
f 70 76 75 74
f 76 71 73 75
g TubeCurveCol.009_env_ruin_tube_01_col.010
v 41.086311 -0.654420 -107.455780
v 35.913570 -0.654418 -93.892471
v 48.817070 15.772010 -104.248466
v 36.682709 -0.000007 -109.282730
v 44.611351 16.387579 -105.993317
v 31.410028 -0.000005 -95.456940
v 39.518616 16.387581 -92.640137
v 43.819786 15.772012 -91.145966
s 1
f 80 77 78 82
f 78 77 79 84
f 79 77 80 81
f 81 80 82 83
f 78 84 83 82
f 79 81 83 84
g TubeCurveCol.010_env_ruin_tube_01_col.011
v 44.611351 16.387579 -105.993317
v 48.817070 15.772010 -104.248466
v 44.611351 24.278042 -105.993324
v 39.518616 16.387581 -92.640137
v 39.518616 24.278042 -92.640137
v 43.819786 15.772012 -91.145966
v 43.819786 25.104820 -91.145973
v 48.817070 25.104820 -104.248466
s 1
f 86 90 88 85
f 85 87 92 86
f 87 85 88 89
f 88 90 91 89
f 86 92 91 90
f 92 87 89 91
g TubeCurveCol.011_env_ruin_tube_01_col.012
v 44.611351 24.278042 -105.993324
v 48.817070 25.104820 -104.248466
v 38.075340 38.165825 -108.704964
v 39.518616 24.278042 -92.640137
v 32.834267 38.165829 -94.962189
v 43.819786 25.104820 -91.145973
v 35.913574 41.531246 -93.892479
v 41.086311 41.531250 -107.455780
s 1
f 94 98 96 93
f 100 94 93 95
f 95 93 96 97
f 97 96 98 99
f 98 94 100 99
f 100 95 97 99
g TubeCurveCol.012_env_ruin_tube_01_col.013
v 25.247711 45.242035 -114.026848
v 38.075340 38.165825 -108.704964
v 25.913834 49.900951 -113.750488
v 19.715509 45.242031 -99.519455
v 32.834267 38.165829 -94.962189
v 20.396748 49.900951 -99.282799
v 35.913574 41.531246 -93.892479
v 41.086311 41.531250 -107.455780
s 1
f 104 101 102 105
f 101 103 108 102
f 103 101 104 106
f 104 105 107 106
f 103 106 107 108
f 108 107 105 102
g TubeCurveCol.013_env_ruin_tube_01_col.014
v 25.247711 45.242035 -114.026848
v 25.913834 49.900951 -113.750488
v 17.959581 45.242035 -117.050522
v 19.715509 45.242031 -99.519455
v 12.261971 45.242031 -102.108704
v 20.396748 49.900951 -99.282799
v 11.580733 49.900951 -102.345360
v 17.293461 49.900951 -117.326881
s 1
f 110 114 112 109
f 109 111 116 110
f 111 109 112 113
f 112 114 115 113
f 110 116 115 114
f 116 111 113 115
g TubeCurveCol.014_env_ruin_tube_01_col.015
v 17.959581 45.242035 -117.050522
v 17.293461 49.900951 -117.326881
v 5.131937 38.165833 -122.372421
v 12.261971 45.242031 -102.108704
v -0.856804 38.165836 -106.665977
v 11.580733 49.900951 -102.345360
v -3.936104 41.531258 -107.735680
v 2.120974 41.531261 -123.621597
s 1
f 118 122 120 117
f 124 118 117 119
f 119 117 120 121
f 121 120 122 123
f 122 118 124 123
f 124 119 121 123
g TubeCurveCol.015_env_ruin_tube_01_col.016
v -11.842329 25.104818 -110.482185
v -3.936104 41.531258 -107.735680
v -5.609797 25.104820 -126.828918
v -7.541155 24.278042 -108.988022
v -1.404074 24.278042 -125.084061
v -0.856804 38.165836 -106.665977
v 5.131937 38.165833 -122.372421
v 2.120974 41.531261 -123.621597
s 1
f 128 130 126 125
f 126 132 127 125
f 127 129 128 125
f 129 131 130 128
f 132 126 130 131
f 127 132 131 129
g TubeCurveCol.016_env_ruin_tube_01_col.017
v -11.842329 25.104818 -110.482185
v -5.609797 25.104820 -126.828918
v -11.842329 15.772015 -110.482185
v -7.541155 24.278042 -108.988022
v -1.404074 24.278042 -125.084061
v -7.541155 16.387581 -108.988014
v -1.404074 16.387579 -125.084061
v -5.609797 15.772014 -126.828918
s 1
f 134 133 136 137
f 134 140 135 133
f 138 136 133 135
f 139 137 136 138
f 140 139 138 135
f 137 139 140 134
g TubeCurveCol.017_env_ruin_tube_01_col.018
v 21.092834 -0.654411 0.000000
v 21.447803 -0.654413 -14.849421
v 29.462517 15.772017 -0.000001
v 16.325294 0.000002 -0.000000
v 24.909210 16.387589 -0.000001
v 16.684677 -0.000000 -15.054490
v 25.260653 16.387589 -14.685263
v 29.809746 15.772018 -14.489408
s 1
f 144 146 142 141
f 142 148 143 141
f 143 145 144 141
f 145 147 146 144
f 142 146 147 148
f 143 148 147 145
g TubeCurveCol.018_env_ruin_tube_01_col.019
v 24.909206 24.278049 -0.000002
v 17.833019 38.165833 -0.000003
v 29.462513 25.104828 -0.000002
v 25.260649 24.278051 -14.685266
v 18.191008 38.165840 -14.989638
v 29.809742 25.104830 -14.489410
v 21.447805 41.531261 -14.849421
v 21.092831 41.531254 -0.000001
s 1
f 150 153 152 149
f 156 150 149 151
f 151 149 152 154
f 153 155 154 152
f 154 155 156 151
f 156 155 153 150
g TubeCurveCol.019_env_ruin_tube_01_col.020
v 3.945238 45.242039 -0.000003
v 4.666412 49.900955 -0.000004
v 17.833019 38.165833 -0.000003
v 4.316077 45.242043 -15.587004
v 18.191008 38.165840 -14.989638
v 5.036584 49.900963 -15.555984
v 21.447805 41.531261 -14.849421
v 21.092831 41.531254 -0.000001
s 1
f 158 162 160 157
f 157 159 164 158
f 160 161 159 157
f 160 162 163 161
f 158 164 163 162
f 164 159 161 163
g TubeCurveCol.020_env_ruin_tube_01_col.021
v 3.945238 45.242039 -0.000003
v -3.945228 45.242039 -0.000003
v 4.666412 49.900955 -0.000004
v 4.316077 45.242043 -15.587004
v -3.567087 45.242043 -15.926403
v 5.036584 49.900963 -15.555984
v -4.287592 49.900963 -15.957423
v -4.666400 49.900955 -0.000004
s 1
f 166 169 168 165
f 165 167 172 166
f 167 165 168 170
f 168 169 171 170
f 167 170 171 172
f 172 171 169 166
g TubeCurveCol.021_env_ruin_tube_01_col.022
v -3.945228 45.242039 -0.000003
v -17.833027 38.165840 -0.000003
v -4.666400 49.900955 -0.000004
v -3.567087 45.242043 -15.926403
v -17.442034 38.165848 -16.523771
v -4.287592 49.900963 -15.957423
v -20.698824 41.531273 -16.663986
v -21.092838 41.531265 -0.000003
s 1
f 174 177 176 173
f 180 174 173 175
f 175 173 176 178
f 177 179 178 176
f 178 179 180 175
f 180 179 177 174
g TubeCurveCol.022_env_ruin_tube_01_col.023
v -29.060772 25.104830 -17.023998
v -20.698824 41.531273 -16.663986
v -29.462524 25.104828 -0.000002
v -24.511675 24.278051 -16.828144
v -24.909214 24.278049 -0.000002
v -17.442034 38.165848 -16.523771
v -17.833027 38.165840 -0.000003
v -21.092838 41.531265 -0.000003
s 1
f 184 181 182 186
f 182 181 183 188
f 183 181 184 185
f 185 184 186 187
f 188 187 186 182
f 183 185 187 188
g TubeCurveCol.023_env_ruin_tube_01_col.024
v -29.060772 15.772022 -17.023998
v -29.462524 15.772021 -0.000001
v -20.698822 -0.654412 -16.663984
v -24.511675 16.387589 -16.828142
v -15.935697 -0.000002 -16.458914
v -24.909214 16.387589 -0.000001
v -16.325294 -0.000002 0.000000
v -21.092834 -0.654412 0.000000
s 1
f 190 194 192 189
f 189 191 196 190
f 189 192 193 191
f 195 193 192 194
f 196 195 194 190
f 191 193 195 196
g TubeCurveCol.024_env_ruin_tube_01_col.025
v -29.060772 25.104830 -17.023998
v -29.462524 25.104828 -0.000002
v -29.060772 15.772022 -17.023998
v -24.511675 24.278051 -16.828144
v -24.511675 16.387589 -16.828142
v -24.909214 24.278049 -0.000002
v -24.909214 16.387589 -0.000001
v -29.462524 15.772021 -0.000001
s 1
f 198 202 200 197
f 198 197 199 204
f 201 199 197 200
f 203 201 200 202
f 202 198 204 203
f 204 199 201 203
g TubeCurveCol.025_env_ruin_tube_01_col.026
v 24.909210 16.387589 -0.000001
v 24.909206 24.278049 -0.000002
v 29.462517 15.772017 -0.000001
v 25.260653 16.387589 -14.685263
v 25.260649 24.278051 -14.685266
v 29.809746 15.772018 -14.489408
v 29.809742 25.104830 -14.489410
v 29.462513 25.104828 -0.000002
s 1
f 206 209 208 205
f 205 207 212 206
f 207 205 208 210
f 208 209 211 210
f 207 210 211 212
f 212 211 209 206
g TubeCurveCol.026_env_ruin_tube_01_col.027
v -8.611999 47.145920 -7.141857
v -8.611997 53.344959 -7.141861
v 8.831193 47.145916 -6.814223
v -3.525333 47.145908 -60.410439
v -3.525331 53.344959 -60.410450
v 13.644584 47.145908 -57.317543
v 13.644583 53.344944 -57.317543
v 8.831189 53.344944 -6.814224
s 1
f 216 213 214 217
f 213 215 220 214
f 216 218 215 213
f 215 218 219 220
f 214 220 219 217
g TubeCurveCol.027_env_ruin_tube_01_col.028
v 10.868690 53.344948 -112.192108
v -3.525331 53.344959 -60.410450
v 27.152021 53.344948 -105.929108
v 10.868693 47.145905 -112.192108
v 27.152020 47.145908 -105.929108
v -3.525333 47.145908 -60.410439
v 13.644584 47.145908 -57.317543
v 13.644583 53.344944 -57.317543
s 1
f 224 226 222 221
f 222 228 223 221
f 221 223 225 224
f 224 225 227 226
f 227 225 223 228
g TubeCurveCol.028_env_ruin_tube_01_col.029
v -15.724282 0.110819 -57.418625
v -13.905077 0.110816 -67.473717
v -23.643280 15.859071 -58.713326
v -11.806186 -0.065808 -56.911217
v -20.366783 16.387590 -58.064552
v -10.053570 -0.065812 -66.580528
v -18.483259 16.387585 -68.489990
v -21.777813 15.859067 -69.025108
s 1
f 229 230 234 232
f 230 229 231 236
f 232 233 231 229
f 232 234 235 233
f 230 236 235 234
f 235 236 231 233
g TubeCurveCol.029_env_ruin_tube_01_col.030
v -23.643276 24.806566 -58.713322
v -15.724281 40.554813 -57.418625
v -20.366783 24.278051 -58.064552
v -21.777813 24.806559 -69.025108
v -13.905076 40.554817 -67.473724
v -18.483259 24.278046 -68.489990
v -11.514464 38.118225 -67.002632
v -13.319620 38.118225 -57.025478
s 1
f 238 241 240 237
f 244 238 237 239
f 242 239 237 240
f 241 243 242 240
f 243 244 239 242
f 243 241 238 244
g TubeCurveCol.030_env_ruin_tube_01_col.031
v -15.724281 40.554813 -57.418625
v -0.182375 48.578949 -54.877632
v -13.319620 38.118225 -57.025478
v -13.905076 40.554817 -67.473724
v -11.514464 38.118225 -67.002632
v 1.546031 48.578957 -64.428940
v 2.074910 45.175522 -64.324715
v 0.349612 45.175518 -54.790657
s 1
f 245 246 250 248
f 245 247 252 246
f 249 247 245 248
f 251 249 248 250
f 251 250 246 252
f 247 249 251 252
g TubeCurveCol.031_env_ruin_tube_01_col.032
v 32.108776 24.806557 -49.598259
v 28.801609 24.278044 -50.043007
v 24.189785 40.554813 -50.892960
v 33.648537 24.806559 -58.102837
v 25.775810 40.554817 -59.654236
v 30.391779 24.278046 -58.840797
v 23.385201 38.118225 -60.125328
v 21.785128 38.118225 -51.286102
s 1
f 258 256 253 254
f 260 254 253 255
f 255 253 256 257
f 257 256 258 259
f 259 258 254 260
f 259 260 255 257
g TubeCurveCol.032_env_ruin_tube_01_col.033
v 24.189777 0.110814 -50.892960
v 25.775801 0.110816 -59.654232
v 32.108772 15.859063 -49.598259
v 20.308777 -0.065814 -51.647102
v 21.878593 -0.065812 -60.302143
v 28.801609 16.387583 -50.043007
v 30.391779 16.387585 -58.840797
v 33.648537 15.859067 -58.102837
s 1
f 261 264 265 262
f 262 268 263 261
f 264 261 263 266
f 264 266 267 265
f 267 266 263 268
f 262 265 267 268
g TubeCurveCol.033_env_ruin_tube_01_col.034
v 24.189785 40.554813 -50.892960
v 21.785128 38.118225 -51.286102
v 8.647883 48.578949 -53.433949
v 25.775810 40.554817 -59.654236
v 10.324703 48.578957 -62.699020
v 23.385201 38.118225 -60.125328
v 9.795824 45.175522 -62.803238
v 8.115896 45.175518 -53.520927
s 1
f 274 272 269 270
f 269 271 276 270
f 269 272 273 271
f 275 273 272 274
f 270 276 275 274
f 275 276 271 273
g TubeCurveCol.034_env_ruin_tube_01_col.035
v 95.291100 16.387571 -185.498260
v 95.291092 24.278032 -185.498276
v 98.763405 15.772003 -182.519516
v 70.436264 16.387579 -153.357208
v 70.436264 24.278038 -153.357208
v 74.215523 15.772011 -150.778992
v 74.215515 25.104818 -150.778992
v 98.763405 25.104813 -182.519516
s 1
f 284 279 277 278
f 280 281 278 277
f 279 282 280 277
f 280 282 283 281
f 279 284 283 282
f 278 281 283 284
g TubeCurveCol.035_env_ruin_tube_01_col.036
v 50.445004 16.387575 -119.057121
v 70.436264 16.387579 -153.357208
v 50.445007 24.278036 -119.057121
v 54.561283 15.772006 -117.060585
v 74.215523 15.772011 -150.778992
v 54.561283 25.104815 -117.060593
v 74.215515 25.104818 -150.778992
v 70.436264 24.278038 -153.357208
s 1
f 285 287 292 286
f 289 288 285 286
f 290 287 285 288
f 289 291 290 288
f 292 287 290 291
f 289 286 292 291
g TubeCurveCol.036_env_ruin_tube_01_col.037
v 57.512360 16.387571 -217.907150
v 57.512360 24.278032 -217.907150
v 54.040047 15.772003 -220.885910
v 29.317970 16.387575 -181.408142
v 29.317970 24.278038 -181.408142
v 25.538713 15.772004 -183.986359
v 25.538719 25.104816 -183.986359
v 54.040047 25.104813 -220.885910
s 1
f 300 294 293 295
f 296 293 294 297
f 295 293 296 298
f 295 298 299 300
f 294 300 299 297
g TubeCurveCol.037_env_ruin_tube_01_col.038
v 5.659845 16.387581 -140.779434
v 5.659847 24.278042 -140.779434
v 29.317970 16.387575 -181.408142
v 1.543560 15.772013 -142.775970
v 25.538713 15.772004 -183.986359
v 1.543570 25.104820 -142.775955
v 25.538719 25.104816 -183.986359
v 29.317970 24.278038 -181.408142
s 1
f 301 303 308 302
f 306 304 301 302
f 305 303 301 304
f 305 304 306 307
f 308 307 306 302
g TubeCurveCol.038_env_ruin_tube_01_col.039
v 43.332039 49.900948 -165.975739
v 43.933750 45.192032 -165.578201
v 48.784966 49.900951 -173.972473
v 51.118874 49.900948 -160.831161
v 50.517162 45.192032 -161.228699
v 56.419613 49.900951 -168.604645
v 55.829662 45.192032 -169.019440
v 49.374916 45.192032 -173.557693
s 1
f 313 312 309 310
f 309 311 316 310
f 312 314 311 309
f 312 313 315 314
f 315 316 311 314
f 310 316 315 313
g TubeCurveCol.039_env_ruin_tube_01_col.040
v 71.229195 -0.654428 -227.699692
v 71.229187 -7.212252 -227.699692
v 71.229195 -0.000017 -227.699692
v 76.816956 -14.139914 -222.621750
v 102.449211 -0.000018 -199.328201
v 32.452770 -0.000017 -179.269638
v 32.452770 -7.212253 -179.269638
v 67.301514 -0.000009 -155.495773
v 67.301514 -7.212251 -155.495773
v 102.449211 -7.212258 -199.328201
v 61.064281 -14.139915 -159.750824
v 96.861443 -14.139920 -204.406143
v 38.690006 -14.139915 -175.014587
v 102.449211 -0.654431 -199.328201
s 1
f 323 322 319 317 318
f 317 319 318
f 318 319 320
f 320 319 321 328
f 319 322 324 321
f 330 321 324 325 326
f 328 326 325 327
f 320 328 327 329
f 318 320 329 323
f 328 321 326
s 0
f 326 321 330
g TubeCurveCol.040_env_ruin_tube_01_col.041
v 2.120974 -0.654421 -123.621597
v 2.120974 -7.212246 -123.621597
v 2.120974 -0.000011 -123.621597
v 41.086311 -0.000007 -107.455780
v 9.094997 -14.139909 -120.728233
v 32.452770 -0.000017 -179.269638
v 67.301514 -0.000009 -155.495773
v 32.452770 -7.212253 -179.269638
v 38.690006 -14.139915 -175.014587
v 61.064281 -14.139915 -159.750824
v 34.112286 -14.139909 -110.349144
v 67.301514 -7.212251 -155.495773
v 41.086311 -7.212248 -107.455780
v 41.086311 -0.654420 -107.455780
s 1
f 331 333 336 338 332
f 332 333 331
f 336 333 334 337
f 333 335 341 334
f 335 333 332
f 338 339 335 332
f 339 340 341 335
f 340 342 343 341
f 342 337 334 344 343
f 343 334 341
s 0
f 344 334 343
g TubeCurveCol.041_env_ruin_tube_01_col.042
v 54.040039 15.772003 -220.885925
v 60.392529 -0.654430 -215.436371
v 65.035110 15.772005 -233.328629
v 57.495945 16.387571 -217.921234
v 68.404839 16.387575 -230.266357
v 64.011032 -0.000020 -212.332199
v 74.757469 -0.000018 -224.493332
v 71.229195 -0.654428 -227.699692
s 1
f 345 346 350 348
f 345 347 352 346
f 347 345 348 349
f 351 349 348 350
f 346 352 351 350
f 352 347 349 351
g TubeCurveCol.042_env_ruin_tube_01_col.043
v 102.449211 -0.654431 -199.328201
v 92.410919 -0.654426 -187.969055
v 108.643303 15.771996 -193.699280
v 98.920937 -0.000018 -202.534561
v 105.273575 16.387568 -196.761551
v 88.792419 -0.000014 -191.073227
v 95.307503 16.387571 -185.484192
v 98.763405 15.772003 -182.519516
s 1
f 356 353 354 358
f 354 353 355 360
f 355 353 356 357
f 357 356 358 359
f 354 360 359 358
f 355 357 359 360
g TubeCurveCol.043_env_ruin_tube_01_col.044
v 105.273575 16.387568 -196.761551
v 108.643303 15.771996 -193.699280
v 105.273575 24.278027 -196.761551
v 95.307503 16.387571 -185.484192
v 95.307495 24.278032 -185.484192
v 98.763405 15.772003 -182.519516
v 98.763405 25.104813 -182.519516
v 108.643303 25.104805 -193.699280
s 1
f 362 366 364 361
f 361 363 368 362
f 363 361 364 365
f 364 366 367 365
f 362 368 367 366
f 368 363 365 367
g TubeCurveCol.044_env_ruin_tube_01_col.045
v 105.273575 24.278027 -196.761551
v 108.643303 25.104805 -193.699280
v 100.036751 38.165806 -201.520569
v 95.307495 24.278032 -185.484192
v 89.936760 38.165821 -190.091537
v 98.763405 25.104813 -182.519516
v 92.410919 41.531242 -187.969055
v 102.449226 41.531227 -199.328217
s 1
f 370 374 372 369
f 376 370 369 371
f 371 369 372 373
f 373 372 374 375
f 374 370 376 375
f 376 371 373 375
g TubeCurveCol.045_env_ruin_tube_01_col.046
v 89.758934 45.242016 -210.860626
v 100.036751 38.165806 -201.520569
v 90.292648 49.900936 -210.375610
v 79.396111 45.242027 -199.133957
v 89.936760 38.165821 -190.091537
v 79.943474 49.900944 -198.664383
v 92.410919 41.531242 -187.969055
v 102.449226 41.531227 -199.328217
s 1
f 380 377 378 381
f 377 379 384 378
f 379 377 380 382
f 380 381 383 382
f 379 382 383 384
f 384 383 381 378
g TubeCurveCol.046_env_ruin_tube_01_col.047
v 89.758934 45.242016 -210.860626
v 90.292648 49.900936 -210.375610
v 83.919502 45.242016 -216.167267
v 79.396111 45.242027 -199.133957
v 73.407349 45.242027 -204.271469
v 79.943474 49.900944 -198.664383
v 72.859985 49.900944 -204.741028
v 83.385788 49.900936 -216.652283
s 1
f 386 390 388 385
f 385 387 392 386
f 387 385 388 389
f 388 390 391 389
f 386 392 391 390
f 392 387 389 391
g TubeCurveCol.047_env_ruin_tube_01_col.048
v 83.919502 45.242016 -216.167267
v 83.385788 49.900936 -216.652283
v 73.641663 38.165829 -225.507355
v 73.407349 45.242027 -204.271469
v 62.866680 38.165825 -213.313889
v 72.859985 49.900944 -204.741028
v 60.392525 41.531250 -215.436371
v 71.229202 41.531254 -227.699692
s 1
f 394 398 396 393
f 400 394 393 395
f 395 393 396 397
f 397 396 398 399
f 398 394 400 399
f 400 395 397 399
g TubeCurveCol.048_env_ruin_tube_01_col.049
v 54.040039 25.104813 -220.885925
v 60.392525 41.531250 -215.436371
v 65.035110 25.104816 -233.328629
v 57.495945 24.278032 -217.921234
v 68.404839 24.278036 -230.266357
v 62.866680 38.165825 -213.313889
v 73.641663 38.165829 -225.507355
v 71.229202 41.531254 -227.699692
s 1
f 404 406 402 401
f 402 408 403 401
f 403 405 404 401
f 405 407 406 404
f 408 402 406 407
f 403 408 407 405
g TubeCurveCol.049_env_ruin_tube_01_col.050
v 54.040039 25.104813 -220.885925
v 65.035110 25.104816 -233.328629
v 54.040039 15.772003 -220.885925
v 57.495945 24.278032 -217.921234
v 68.404839 24.278036 -230.266357
v 57.495945 16.387571 -217.921234
v 68.404839 16.387575 -230.266357
v 65.035110 15.772005 -233.328629
s 1
f 410 409 412 413
f 410 416 411 409
f 414 412 409 411
f 415 413 412 414
f 416 415 414 411
f 413 415 416 410
g TubeCurveCol.050_env_ruin_tube_01_col.051
v 41.086311 -0.654420 -107.455780
v 47.030670 -0.654421 -120.713188
v 48.817070 15.772010 -104.248466
v 36.682709 -0.000007 -109.282730
v 44.611351 16.387579 -105.993317
v 42.741085 -0.000009 -122.793777
v 50.464455 16.387575 -119.047684
v 54.561283 15.772006 -117.060585
s 1
f 420 422 418 417
f 418 424 419 417
f 419 421 420 417
f 421 423 422 420
f 418 422 423 424
f 419 424 423 421
g TubeCurveCol.051_env_ruin_tube_01_col.052
v 44.611351 24.278042 -105.993324
v 38.075340 38.165825 -108.704964
v 48.817070 25.104820 -104.248466
v 50.464451 24.278036 -119.047691
v 44.097656 38.165821 -122.135803
v 54.561283 25.104815 -117.060593
v 47.030670 41.531242 -120.713188
v 41.086311 41.531250 -107.455780
s 1
f 426 429 428 425
f 432 426 425 427
f 427 425 428 430
f 429 431 430 428
f 430 431 432 427
f 432 431 429 426
g TubeCurveCol.052_env_ruin_tube_01_col.053
v 25.247711 45.242035 -114.026848
v 25.913834 49.900951 -113.750488
v 38.075340 38.165825 -108.704964
v 31.602148 45.242027 -128.196548
v 44.097656 38.165821 -122.135803
v 32.251022 49.900944 -127.881821
v 47.030670 41.531242 -120.713188
v 41.086311 41.531250 -107.455780
s 1
f 434 438 436 433
f 433 435 440 434
f 436 437 435 433
f 436 438 439 437
f 434 440 439 438
f 440 435 437 439
g TubeCurveCol.053_env_ruin_tube_01_col.054
v 25.247711 45.242035 -114.026848
v 17.959581 45.242035 -117.050522
v 25.913834 49.900951 -113.750488
v 31.602148 45.242027 -128.196548
v 24.502712 45.242027 -131.640015
v 32.251022 49.900944 -127.881821
v 23.853838 49.900944 -131.954742
v 17.293461 49.900951 -117.326881
s 1
f 442 445 444 441
f 441 443 448 442
f 443 441 444 446
f 444 445 447 446
f 443 446 447 448
f 448 447 445 442
g TubeCurveCol.054_env_ruin_tube_01_col.055
v 17.959581 45.242035 -117.050522
v 5.131937 38.165833 -122.372421
v 17.293461 49.900951 -117.326881
v 24.502712 45.242027 -131.640015
v 12.007179 38.165825 -137.700760
v 23.853838 49.900944 -131.954742
v 9.074173 41.531254 -139.123367
v 2.120974 41.531261 -123.621597
s 1
f 450 453 452 449
f 456 450 449 451
f 451 449 452 454
f 453 455 454 452
f 454 455 456 451
f 456 455 453 450
g TubeCurveCol.055_env_ruin_tube_01_col.056
v 1.543558 25.104820 -142.775970
v 9.074173 41.531254 -139.123367
v -5.609797 25.104820 -126.828918
v 5.640392 24.278042 -140.788864
v -1.404074 24.278042 -125.084061
v 12.007179 38.165825 -137.700760
v 5.131937 38.165833 -122.372421
v 2.120974 41.531261 -123.621597
s 1
f 460 457 458 462
f 458 457 459 464
f 459 457 460 461
f 461 460 462 463
f 464 463 462 458
f 459 461 463 464
g TubeCurveCol.056_env_ruin_tube_01_col.057
v 1.543554 15.772013 -142.775970
v -5.609797 15.772014 -126.828918
v 9.074171 -0.654421 -139.123367
v 5.640390 16.387581 -140.788864
v 13.363759 -0.000012 -137.042770
v -1.404074 16.387579 -125.084061
v 6.524572 -0.000011 -121.794647
v 2.120974 -0.654421 -123.621597
s 1
f 466 470 468 465
f 465 467 472 466
f 465 468 469 467
f 471 469 468 470
f 472 471 470 466
f 467 469 471 472
g TubeCurveCol.057_env_ruin_tube_01_col.058
v 1.543558 25.104820 -142.775970
v -5.609797 25.104820 -126.828918
v 1.543554 15.772013 -142.775970
v 5.640392 24.278042 -140.788864
v 5.640390 16.387581 -140.788864
v -1.404074 24.278042 -125.084061
v -1.404074 16.387579 -125.084061
v -5.609797 15.772014 -126.828918
s 1
f 474 478 476 473
f 474 473 475 480
f 477 475 473 476
f 479 477 476 478
f 478 474 480 479
f 480 475 477 479
g TubeCurveCol.058_env_ruin_tube_01_col.059
v 44.611351 16.387579 -105.993317
v 44.611351 24.278042 -105.993324
v 48.817070 15.772010 -104.248466
v 50.464455 16.387575 -119.047684
v 50.464451 24.278036 -119.047691
v 54.561283 15.772006 -117.060585
v 54.561283 25.104815 -117.060593
v 48.817070 25.104820 -104.248466
s 1
f 482 485 484 481
f 481 483 488 482
f 483 481 484 486
f 484 485 487 486
f 483 486 487 488
f 488 487 485 482
g TubeCurveCol.059_env_ruin_tube_01_col.060
v 16.381144 47.145901 -125.505142
v 16.381149 53.344944 -125.505142
v 32.316486 47.145897 -118.403236
v 42.671116 47.145901 -172.298615
v 42.671112 53.344944 -172.298630
v 57.083126 47.145901 -162.466736
v 57.083122 53.344936 -162.466736
v 32.316486 53.344929 -118.403236
s 1
f 492 489 490 493
f 489 491 496 490
f 492 494 491 489
f 491 494 495 496
f 490 496 495 493
g TubeCurveCol.060_env_ruin_tube_01_col.061
v 75.655167 53.344936 -214.106964
v 42.671112 53.344944 -172.298630
v 88.705597 53.344936 -202.528595
v 75.655167 47.145889 -214.106949
v 88.705597 47.145889 -202.528595
v 42.671116 47.145901 -172.298615
v 57.083126 47.145901 -162.466736
v 57.083122 53.344936 -162.466736
s 1
f 500 502 498 497
f 498 504 499 497
f 497 499 501 500
f 500 501 503 502
f 503 501 499 504
g TubeCurveCol.061_env_ruin_tube_01_col.062
v 30.353914 0.110807 -174.551575
v 36.070885 0.110807 -182.935226
v 23.658991 15.859059 -178.974777
v 33.721954 -0.065820 -172.483505
v 26.381924 16.387575 -177.042465
v 39.227383 -0.065819 -180.555847
v 32.300095 16.387577 -185.722183
v 29.507040 15.859060 -187.550720
s 1
f 505 506 510 508
f 506 505 507 512
f 508 509 507 505
f 508 510 511 509
f 506 512 511 510
f 511 512 507 509
g TubeCurveCol.062_env_ruin_tube_01_col.063
v 23.658991 24.806553 -178.974777
v 30.353912 40.554810 -174.551575
v 26.381924 24.278036 -177.042480
v 29.507040 24.806553 -187.550720
v 36.070892 40.554806 -182.935242
v 32.300095 24.278040 -185.722183
v 38.064045 38.118221 -181.533707
v 32.386875 38.118217 -173.208435
s 1
f 514 517 516 513
f 520 514 513 515
f 518 515 513 516
f 517 519 518 516
f 519 520 515 518
f 519 517 514 520
g TubeCurveCol.063_env_ruin_tube_01_col.064
v 30.353912 40.554810 -174.551575
v 43.493443 48.578953 -165.870544
v 32.386875 38.118217 -173.208435
v 36.070892 40.554806 -182.935242
v 38.064045 38.118221 -181.533707
v 48.953156 48.578945 -173.876831
v 49.394104 45.175518 -173.566772
v 43.943199 45.175522 -165.573410
s 1
f 521 522 526 524
f 521 523 528 522
f 525 523 521 524
f 527 525 524 526
f 527 526 522 528
f 523 525 527 528
g TubeCurveCol.064_env_ruin_tube_01_col.065
v 70.793221 24.806553 -147.834122
v 67.956726 24.278038 -149.594131
v 64.098297 40.554810 -152.257324
v 75.718430 24.806555 -155.056335
v 69.154587 40.554806 -159.671829
v 73.043427 24.278042 -157.054138
v 67.161430 38.118221 -161.073349
v 62.065338 38.118217 -153.600464
s 1
f 534 532 529 530
f 536 530 529 531
f 531 529 532 533
f 533 532 534 535
f 535 534 530 536
f 535 536 531 533
g TubeCurveCol.065_env_ruin_tube_01_col.066
v 64.098297 0.110808 -152.257324
v 69.154579 0.110807 -159.671829
v 70.793221 15.859060 -147.834122
v 60.867584 -0.065819 -154.533676
v 65.855316 -0.065822 -161.846619
v 67.956726 16.387575 -149.594131
v 73.043427 16.387577 -157.054138
v 75.718422 15.859059 -155.056335
s 1
f 537 540 541 538
f 538 544 539 537
f 540 537 539 542
f 540 542 543 541
f 543 542 539 544
f 538 541 543 544
g TubeCurveCol.066_env_ruin_tube_01_col.067
v 64.098297 40.554810 -152.257324
v 62.065338 38.118217 -153.600464
v 50.958771 48.578953 -160.938354
v 69.154587 40.554806 -159.671829
v 56.272320 48.578945 -168.730225
v 67.161430 38.118221 -161.073349
v 55.831371 45.175518 -169.040298
v 50.509014 45.175522 -161.235504
s 1
f 550 548 545 546
f 545 547 552 546
f 545 548 549 547
f 551 549 548 550
f 546 552 551 550
f 551 552 547 549
g TubeCurveCol.067_env_ruin_tube_01_col.068
v 176.469452 16.387562 -269.813751
v 176.469452 24.278023 -269.813751
v 179.787292 15.771991 -266.663849
v 145.603912 16.387564 -238.407516
v 145.603912 24.278025 -238.407516
v 148.839920 15.771996 -235.173615
v 148.839920 25.104805 -235.173615
v 179.787277 25.104805 -266.663849
s 1
f 560 555 553 554
f 556 557 554 553
f 555 558 556 553
f 556 558 559 557
f 555 560 559 558
f 554 557 559 560
g TubeCurveCol.068_env_ruin_tube_01_col.069
v 115.628647 16.387568 -207.915253
v 145.603912 16.387564 -238.407516
v 115.628647 24.278030 -207.915253
v 118.946487 15.772000 -204.765350
v 148.839920 15.771996 -235.173615
v 118.946487 25.104809 -204.765350
v 148.839920 25.104805 -235.173615
v 145.603912 24.278025 -238.407516
s 1
f 561 563 568 562
f 565 564 561 562
f 566 563 561 564
f 565 567 566 564
f 568 563 566 567
f 565 562 568 567
g TubeCurveCol.069_env_ruin_tube_01_col.070
v 140.371384 16.387568 -304.084686
v 140.371384 24.278030 -304.084686
v 137.053543 15.771998 -307.234589
v 110.396103 16.387571 -273.592468
v 110.396103 24.278032 -273.592468
v 107.160080 15.772003 -276.826355
v 107.160095 25.104811 -276.826355
v 137.053543 25.104805 -307.234589
s 1
f 576 570 569 571
f 572 569 570 573
f 571 569 572 574
f 571 574 575 576
f 570 576 575 573
g TubeCurveCol.070_env_ruin_tube_01_col.071
v 79.530579 16.387575 -242.186218
v 79.530586 24.278038 -242.186218
v 110.396103 16.387571 -273.592468
v 76.212738 15.772004 -245.336121
v 107.160080 15.772003 -276.826355
v 76.212753 25.104816 -245.336121
v 107.160095 25.104811 -276.826355
v 110.396103 24.278032 -273.592468
s 1
f 577 579 584 578
f 582 580 577 578
f 581 579 577 580
f 581 580 582 583
f 584 583 582 578
g TubeCurveCol.071_env_ruin_tube_01_col.072
v 121.317131 49.900936 -255.914215
v 121.827522 45.192020 -255.404724
v 128.064041 49.900940 -262.665466
v 127.922203 49.900936 -249.320709
v 127.411812 45.192020 -249.830200
v 134.669098 49.900940 -256.071960
v 134.158691 45.192020 -256.581451
v 128.574432 45.192020 -262.155975
s 1
f 589 588 585 586
f 585 587 592 586
f 588 590 587 585
f 588 589 591 590
f 591 592 587 590
f 586 592 591 589
g TubeCurveCol.072_env_ruin_tube_01_col.073
v 153.550827 -0.654439 -312.671783
v 153.550827 -7.212262 -312.671783
v 153.550827 -0.000028 -312.671783
v 159.138580 -14.139924 -307.593872
v 184.770828 -0.000025 -284.300323
v 113.080315 -0.000023 -270.910065
v 113.080315 -7.212259 -270.910065
v 142.919785 -0.000021 -241.089996
v 142.919785 -7.212262 -241.089996
v 184.770828 -7.212265 -284.300323
v 137.579102 -14.139924 -246.427200
v 179.183075 -14.139927 -289.378235
v 118.420982 -14.139922 -265.572876
v 184.770828 -0.654438 -284.300323
s 1
f 599 598 595 593 594
f 593 595 594
f 594 595 596
f 596 595 597 604
f 595 598 600 597
f 606 597 600 601 602
f 604 602 601 603
f 596 604 603 605
f 594 596 605 599
f 604 597 602
s 0
f 602 597 606
g TubeCurveCol.073_env_ruin_tube_01_col.074
v 71.229195 -0.654428 -227.699692
v 71.229187 -7.212252 -227.699692
v 71.229195 -0.000017 -227.699692
v 102.449211 -0.000018 -199.328201
v 76.816956 -14.139914 -222.621750
v 113.080315 -0.000023 -270.910065
v 142.919785 -0.000021 -241.089996
v 113.080315 -7.212259 -270.910065
v 118.420982 -14.139922 -265.572876
v 137.579102 -14.139924 -246.427200
v 96.861443 -14.139920 -204.406143
v 142.919785 -7.212262 -241.089996
v 102.449211 -7.212258 -199.328201
v 102.449211 -0.654431 -199.328201
s 1
f 607 609 612 614 608
f 608 609 607
f 612 609 610 613
f 609 611 617 610
f 611 609 608
f 614 615 611 608
f 615 616 617 611
f 616 618 619 617
f 618 613 610 620 619
f 619 610 617
s 0
f 620 610 619
g TubeCurveCol.074_env_ruin_tube_01_col.075
v 137.053528 15.771998 -307.234619
v 143.123413 -0.654437 -301.471954
v 147.356735 15.771993 -318.300720
v 140.355698 16.387568 -304.099579
v 150.726471 16.387564 -315.238464
v 146.580948 -0.000027 -298.189423
v 157.079102 -0.000029 -309.465454
v 153.550827 -0.654439 -312.671783
s 1
f 621 622 626 624
f 621 623 628 622
f 623 621 624 625
f 627 625 624 626
f 622 628 627 626
f 628 623 625 627
g TubeCurveCol.075_env_ruin_tube_01_col.076
v 184.770828 -0.654438 -284.300323
v 173.717407 -0.654437 -272.426483
v 190.964920 15.771989 -278.671387
v 181.242554 -0.000025 -287.506653
v 187.595184 16.387556 -281.733643
v 170.259872 -0.000024 -275.709015
v 176.485123 16.387562 -269.798859
v 179.787292 15.771991 -266.663849
s 1
f 632 629 630 634
f 630 629 631 636
f 631 629 632 633
f 633 632 634 635
f 630 636 635 634
f 631 633 635 636
g TubeCurveCol.076_env_ruin_tube_01_col.077
v 187.595184 16.387556 -281.733643
v 190.964920 15.771989 -278.671387
v 187.595184 24.278017 -281.733643
v 176.485123 16.387562 -269.798859
v 176.485123 24.278023 -269.798859
v 179.787292 15.771991 -266.663849
v 179.787277 25.104805 -266.663849
v 190.964920 25.104795 -278.671387
s 1
f 638 642 640 637
f 637 639 644 638
f 639 637 640 641
f 640 642 643 641
f 638 644 643 642
f 644 639 641 643
g TubeCurveCol.077_env_ruin_tube_01_col.078
v 187.595184 24.278017 -281.733643
v 190.964920 25.104795 -278.671387
v 182.358368 38.165802 -286.492676
v 176.485123 24.278023 -269.798859
v 171.353317 38.165813 -274.670929
v 179.787277 25.104805 -266.663849
v 173.717407 41.531235 -272.426483
v 184.770844 41.531227 -284.300323
s 1
f 646 650 648 645
f 652 646 645 647
f 647 645 648 649
f 649 648 650 651
f 650 646 652 651
f 652 647 649 651
g TubeCurveCol.078_env_ruin_tube_01_col.079
v 172.080551 45.242008 -295.832733
v 182.358368 38.165802 -286.492676
v 172.614273 49.900921 -295.347717
v 161.281586 45.242020 -284.232880
v 171.353317 38.165813 -274.670929
v 161.804611 49.900932 -283.736328
v 173.717407 41.531235 -272.426483
v 184.770844 41.531227 -284.300323
s 1
f 656 653 654 657
f 653 655 660 654
f 655 653 656 658
f 656 657 659 658
f 655 658 659 660
f 660 659 657 654
g TubeCurveCol.079_env_ruin_tube_01_col.080
v 172.080551 45.242008 -295.832733
v 172.614273 49.900921 -295.347717
v 166.241119 45.242008 -301.139374
v 161.281586 45.242020 -284.232880
v 155.559250 45.242020 -289.665588
v 161.804611 49.900932 -283.736328
v 155.036240 49.900932 -290.162109
v 165.707413 49.900921 -301.624390
s 1
f 662 666 664 661
f 661 663 668 662
f 663 661 664 665
f 664 666 667 665
f 662 668 667 666
f 668 663 665 667
g TubeCurveCol.080_env_ruin_tube_01_col.081
v 166.241119 45.242008 -301.139374
v 165.707413 49.900921 -301.624390
v 155.963287 38.165810 -310.479462
v 155.559250 45.242020 -289.665588
v 145.487503 38.165817 -299.227539
v 155.036240 49.900932 -290.162109
v 143.123428 41.531242 -301.471954
v 153.550827 41.531235 -312.671814
s 1
f 670 674 672 669
f 676 670 669 671
f 671 669 672 673
f 673 672 674 675
f 674 670 676 675
f 676 671 673 675
g TubeCurveCol.081_env_ruin_tube_01_col.082
v 137.053528 25.104805 -307.234619
v 143.123428 41.531242 -301.471954
v 147.356735 25.104803 -318.300720
v 140.355698 24.278030 -304.099579
v 150.726471 24.278023 -315.238464
v 145.487503 38.165817 -299.227539
v 155.963287 38.165810 -310.479462
v 153.550827 41.531235 -312.671814
s 1
f 680 682 678 677
f 678 684 679 677
f 679 681 680 677
f 681 683 682 680
f 684 678 682 683
f 679 684 683 681
g TubeCurveCol.082_env_ruin_tube_01_col.083
v 137.053528 25.104805 -307.234619
v 147.356735 25.104803 -318.300720
v 137.053528 15.771998 -307.234619
v 140.355698 24.278030 -304.099579
v 150.726471 24.278023 -315.238464
v 140.355698 16.387568 -304.099579
v 150.726471 16.387564 -315.238464
v 147.356735 15.771993 -318.300720
s 1
f 686 685 688 689
f 686 692 687 685
f 690 688 685 687
f 691 689 688 690
f 692 691 690 687
f 689 691 692 686
g TubeCurveCol.083_env_ruin_tube_01_col.084
v 102.449211 -0.654431 -199.328201
v 112.876602 -0.654430 -210.528000
v 108.643303 15.771996 -193.699280
v 98.920937 -0.000018 -202.534561
v 105.273575 16.387568 -196.761551
v 109.419083 -0.000017 -213.810532
v 115.644325 16.387568 -207.900375
v 118.946487 15.772000 -204.765350
s 1
f 696 698 694 693
f 694 700 695 693
f 695 697 696 693
f 697 699 698 696
f 694 698 699 700
f 695 700 699 697
g TubeCurveCol.084_env_ruin_tube_01_col.085
v 105.273575 24.278027 -196.761551
v 100.036751 38.165806 -201.520569
v 108.643303 25.104805 -193.699280
v 115.644325 24.278030 -207.900375
v 110.512520 38.165821 -212.772430
v 118.946487 25.104809 -204.765350
v 112.876602 41.531239 -210.528015
v 102.449226 41.531227 -199.328217
s 1
f 702 705 704 701
f 708 702 701 703
f 703 701 704 706
f 705 707 706 704
f 706 707 708 703
f 708 707 705 702
g TubeCurveCol.085_env_ruin_tube_01_col.086
v 89.758934 45.242016 -210.860626
v 90.292648 49.900936 -210.375610
v 100.036751 38.165806 -201.520569
v 100.440788 45.242027 -222.334381
v 110.512520 38.165821 -212.772430
v 100.963806 49.900944 -221.837845
v 112.876602 41.531239 -210.528015
v 102.449226 41.531227 -199.328217
s 1
f 710 714 712 709
f 709 711 716 710
f 712 713 711 709
f 712 714 715 713
f 710 716 715 714
f 716 711 713 715
g TubeCurveCol.086_env_ruin_tube_01_col.087
v 89.758934 45.242016 -210.860626
v 83.919502 45.242016 -216.167267
v 90.292648 49.900936 -210.375610
v 100.440788 45.242027 -222.334381
v 94.718452 45.242027 -227.767090
v 100.963806 49.900944 -221.837845
v 94.195442 49.900944 -228.263626
v 83.385788 49.900936 -216.652283
s 1
f 718 721 720 717
f 717 719 724 718
f 719 717 720 722
f 720 721 723 722
f 719 722 723 724
f 724 723 721 718
g TubeCurveCol.087_env_ruin_tube_01_col.088
v 83.919502 45.242016 -216.167267
v 73.641663 38.165829 -225.507355
v 83.385788 49.900936 -216.652283
v 94.718452 45.242027 -227.767090
v 84.646706 38.165825 -237.329041
v 94.195442 49.900944 -228.263626
v 82.282623 41.531250 -239.573471
v 71.229202 41.531254 -227.699692
s 1
f 726 729 728 725
f 732 726 725 727
f 727 725 728 730
f 729 731 730 728
f 730 731 732 727
f 732 731 729 726
g TubeCurveCol.088_env_ruin_tube_01_col.089
v 76.212738 25.104816 -245.336121
v 82.282623 41.531250 -239.573471
v 65.035110 25.104816 -233.328629
v 79.514900 24.278038 -242.201111
v 68.404839 24.278036 -230.266357
v 84.646706 38.165825 -237.329041
v 73.641663 38.165829 -225.507355
v 71.229202 41.531254 -227.699692
s 1
f 736 733 734 738
f 734 733 735 740
f 735 733 736 737
f 737 736 738 739
f 740 739 738 734
f 735 737 739 740
g TubeCurveCol.089_env_ruin_tube_01_col.090
v 76.212738 15.772004 -245.336121
v 65.035110 15.772005 -233.328629
v 82.282623 -0.654431 -239.573471
v 79.514900 16.387575 -242.201111
v 85.740143 -0.000021 -236.290939
v 68.404839 16.387575 -230.266357
v 74.757469 -0.000018 -224.493332
v 71.229195 -0.654428 -227.699692
s 1
f 742 746 744 741
f 741 743 748 742
f 741 744 745 743
f 747 745 744 746
f 748 747 746 742
f 743 745 747 748
g TubeCurveCol.090_env_ruin_tube_01_col.091
v 76.212738 25.104816 -245.336121
v 65.035110 25.104816 -233.328629
v 76.212738 15.772004 -245.336121
v 79.514900 24.278038 -242.201111
v 79.514900 16.387575 -242.201111
v 68.404839 24.278036 -230.266357
v 68.404839 16.387575 -230.266357
v 65.035110 15.772005 -233.328629
s 1
f 750 754 752 749
f 750 749 751 756
f 753 751 749 752
f 755 753 752 754
f 754 750 756 755
f 756 751 753 755
g TubeCurveCol.091_env_ruin_tube_01_col.092
v 105.273575 16.387568 -196.761551
v 105.273575 24.278027 -196.761551
v 108.643303 15.771996 -193.699280
v 115.644325 16.387568 -207.900375
v 115.644325 24.278030 -207.900375
v 118.946487 15.772000 -204.765350
v 118.946487 25.104809 -204.765350
v 108.643303 25.104805 -193.699280
s 1
f 758 761 760 757
f 757 759 764 758
f 759 757 760 762
f 760 761 763 762
f 759 762 763 764
f 764 763 761 758
g TubeCurveCol.092_env_ruin_tube_01_col.093
v 85.171776 47.145901 -224.581940
v 85.171776 53.344940 -224.581940
v 97.960220 47.145897 -212.714844
v 121.829819 47.145893 -262.166168
v 121.829819 53.344940 -262.166168
v 134.170197 47.145893 -249.833801
v 134.170197 53.344929 -249.833801
v 97.960220 53.344933 -212.714844
s 1
f 768 765 766 769
f 765 767 772 766
f 768 770 767 765
f 767 770 771 772
f 766 772 771 769
g TubeCurveCol.093_env_ruin_tube_01_col.094
v 158.039825 53.344936 -299.285126
v 121.829819 53.344940 -262.166168
v 170.828262 53.344936 -287.418030
v 158.039825 47.145889 -299.285095
v 170.828262 47.145893 -287.418030
v 121.829819 47.145893 -262.166168
v 134.170197 47.145893 -249.833801
v 134.170197 53.344929 -249.833801
s 1
f 776 778 774 773
f 774 780 775 773
f 773 775 777 776
f 776 777 779 778
f 779 777 775 780
g TubeCurveCol.094_env_ruin_tube_01_col.095
v 110.308891 0.110799 -266.904877
v 117.067886 0.110800 -273.668274
v 104.630005 15.859050 -272.573853
v 113.192917 -0.065829 -264.202515
v 106.918488 16.387569 -270.143158
v 119.775543 -0.065830 -270.789398
v 113.823334 16.387566 -277.052490
v 111.389000 15.859050 -279.337219
s 1
f 781 782 786 784
f 782 781 783 788
f 784 785 783 781
f 784 786 787 785
f 782 788 787 786
f 787 788 783 785
g TubeCurveCol.095_env_ruin_tube_01_col.096
v 104.630005 24.806543 -272.573853
v 110.308891 40.554798 -266.904907
v 106.918488 24.278030 -270.143158
v 111.389000 24.806541 -279.337219
v 117.067886 40.554794 -273.668274
v 113.823334 24.278027 -277.052490
v 118.792320 38.118206 -271.946869
v 112.033325 38.118210 -265.183472
s 1
f 790 793 792 789
f 796 790 789 791
f 794 791 789 792
f 793 795 794 792
f 795 796 791 794
f 795 793 790 796
g TubeCurveCol.096_env_ruin_tube_01_col.097
v 110.308891 40.554798 -266.904907
v 121.454330 48.578938 -255.778946
v 112.033325 38.118210 -265.183472
v 117.067886 40.554794 -273.668274
v 118.792320 38.118206 -271.946869
v 128.213318 48.578934 -262.542328
v 128.594818 45.175499 -262.161499
v 121.835831 45.175507 -255.398117
s 1
f 797 798 802 800
f 797 799 804 798
f 801 799 797 800
f 803 801 800 802
f 803 802 798 804
f 799 801 803 804
g TubeCurveCol.097_env_ruin_tube_01_col.098
v 144.611023 24.806545 -232.662766
v 142.176697 24.278030 -234.947479
v 138.932144 40.554802 -238.331711
v 151.369995 24.806541 -239.426132
v 145.691132 40.554794 -245.095093
v 149.081512 24.278027 -241.856812
v 143.966690 38.118206 -246.816498
v 137.207718 38.118210 -240.053131
s 1
f 810 808 805 806
f 812 806 805 807
f 807 805 808 809
f 809 808 810 811
f 811 810 806 812
f 811 812 807 809
g TubeCurveCol.098_env_ruin_tube_01_col.099
v 138.932144 0.110799 -238.331711
v 145.691116 0.110796 -245.095093
v 144.611023 15.859051 -232.662766
v 136.224472 -0.065829 -241.210587
v 142.807098 -0.065830 -247.797455
v 142.176697 16.387569 -234.947479
v 149.081512 16.387566 -241.856812
v 151.369995 15.859045 -239.426147
s 1
f 813 816 817 814
f 814 820 815 813
f 816 813 815 818
f 816 818 819 817
f 819 818 815 820
f 814 817 819 820
g TubeCurveCol.099_env_ruin_tube_01_col.100
v 138.932144 40.554802 -238.331711
v 137.207718 38.118210 -240.053131
v 127.786705 48.578938 -249.457657
v 145.691132 40.554794 -245.095093
v 134.545685 48.578934 -256.221039
v 143.966690 38.118206 -246.816498
v 134.164185 45.175499 -256.601868
v 127.405205 45.175507 -249.838486
s 1
f 826 824 821 822
f 821 823 828 822
f 821 824 825 823
f 827 825 824 826
f 822 828 827 826
f 827 828 823 825
g TubeCurveCol.100_env_ruin_tube_01_col.101
v 250.340179 16.387554 -371.220551
v 250.340164 24.278015 -371.220551
v 254.456451 15.771983 -369.224030
v 226.682022 16.387558 -330.591858
v 226.682022 24.278019 -330.591858
v 230.461273 15.771988 -328.013641
v 230.461273 25.104797 -328.013641
v 254.456451 25.104795 -369.224030
s 1
f 836 831 829 830
f 832 833 830 829
f 831 834 832 829
f 832 834 835 833
f 831 836 835 834
f 830 833 835 836
g TubeCurveCol.101_env_ruin_tube_01_col.102
v 198.487671 16.387564 -294.092804
v 226.682022 16.387558 -330.591858
v 198.487671 24.278025 -294.092804
v 201.959976 15.771997 -291.114044
v 230.461273 15.771988 -328.013641
v 201.959976 25.104805 -291.114044
v 230.461273 25.104797 -328.013641
v 226.682022 24.278019 -330.591858
s 1
f 837 839 844 838
f 841 840 837 838
f 842 839 837 840
f 841 843 842 840
f 844 839 842 843
f 841 838 844 843
g TubeCurveCol.102_env_ruin_tube_01_col.103
v 205.555008 16.387554 -392.942841
v 205.555008 24.278015 -392.942841
v 201.438721 15.771986 -394.939362
v 185.563736 16.387558 -358.642792
v 185.563736 24.278017 -358.642792
v 181.784485 15.771987 -361.220978
v 181.784485 25.104795 -361.220978
v 201.438721 25.104794 -394.939362
s 1
f 852 846 845 847
f 848 845 846 849
f 847 845 848 850
f 847 850 851 852
f 846 852 851 849
g TubeCurveCol.103_env_ruin_tube_01_col.104
v 160.708923 16.387562 -326.501678
v 160.708923 24.278023 -326.501678
v 185.563736 16.387558 -358.642792
v 157.236618 15.771993 -329.480438
v 181.784485 15.771987 -361.220978
v 157.236618 25.104803 -329.480438
v 181.784485 25.104795 -361.220978
v 185.563736 24.278017 -358.642792
s 1
f 853 855 860 854
f 858 856 853 854
f 857 855 853 856
f 857 856 858 859
f 860 859 858 854
g TubeCurveCol.104_env_ruin_tube_01_col.105
v 199.569427 49.900940 -343.379578
v 200.159363 45.192017 -342.964752
v 204.870544 49.900940 -351.152710
v 207.203766 49.900940 -338.011292
v 206.613846 45.192017 -338.426117
v 212.657074 49.900940 -346.007690
v 212.055389 45.192020 -346.405243
v 205.472229 45.192020 -350.755157
s 1
f 865 864 861 862
f 861 863 868 862
f 864 866 863 861
f 864 865 867 866
f 867 868 863 866
f 862 868 867 865
g TubeCurveCol.105_env_ruin_tube_01_col.106
v 214.913681 -0.654449 -404.544159
v 214.913681 -7.212274 -404.544159
v 214.913681 -0.000039 -404.544159
v 221.887695 -14.139935 -401.650787
v 253.879013 -0.000033 -388.378326
v 188.698547 -0.000034 -356.504272
v 188.698547 -7.212270 -356.504272
v 223.547302 -0.000029 -332.730408
v 223.547302 -7.212270 -332.730408
v 253.879013 -7.212274 -388.378326
v 217.310059 -14.139934 -336.985474
v 246.904999 -14.139935 -391.271698
v 194.935791 -14.139934 -352.249207
v 253.879013 -0.654445 -388.378326
s 1
f 875 874 871 869 870
f 869 871 870
f 870 871 872
f 872 871 873 880
f 871 874 876 873
f 882 873 876 877 878
f 880 878 877 879
f 872 880 879 881
f 870 872 881 875
f 880 873 878
s 0
f 878 873 882
g TubeCurveCol.106_env_ruin_tube_01_col.107
v 153.550827 -0.654439 -312.671783
v 153.550827 -7.212262 -312.671783
v 153.550827 -0.000028 -312.671783
v 184.770828 -0.000025 -284.300323
v 159.138580 -14.139924 -307.593872
v 188.698547 -0.000034 -356.504272
v 223.547302 -0.000029 -332.730408
v 188.698547 -7.212270 -356.504272
v 194.935791 -14.139934 -352.249207
v 217.310059 -14.139934 -336.985474
v 179.183075 -14.139927 -289.378235
v 223.547302 -7.212270 -332.730408
v 184.770828 -7.212265 -284.300323
v 184.770828 -0.654438 -284.300323
s 1
f 883 885 888 890 884
f 884 885 883
f 888 885 886 889
f 885 887 893 886
f 887 885 884
f 890 891 887 884
f 891 892 893 887
f 892 894 895 893
f 894 889 886 896 895
f 895 886 893
s 0
f 896 886 895
g TubeCurveCol.107_env_ruin_tube_01_col.108
v 201.438721 15.771986 -394.939392
v 208.969330 -0.654447 -391.286774
v 207.182907 15.771984 -407.751465
v 205.535553 16.387554 -392.952271
v 211.388626 16.387554 -406.006592
v 213.258926 -0.000037 -389.206177
v 219.317276 -0.000039 -402.717194
v 214.913681 -0.654449 -404.544159
s 1
f 897 898 902 900
f 897 899 904 898
f 899 897 900 901
f 903 901 900 902
f 898 904 903 902
f 904 899 901 903
g TubeCurveCol.108_env_ruin_tube_01_col.109
v 253.879013 -0.654445 -388.378326
v 246.925842 -0.654445 -372.876617
v 261.609772 15.771984 -385.171021
v 249.475418 -0.000033 -390.205292
v 257.404053 16.387554 -386.915894
v 242.636246 -0.000032 -374.957214
v 250.359619 16.387554 -371.211121
v 254.456451 15.771983 -369.224030
s 1
f 908 905 906 910
f 906 905 907 912
f 907 905 908 909
f 909 908 910 911
f 906 912 911 910
f 907 909 911 912
g TubeCurveCol.109_env_ruin_tube_01_col.110
v 257.404053 16.387554 -386.915894
v 261.609772 15.771984 -385.171021
v 257.404053 24.278013 -386.915894
v 250.359619 16.387554 -371.211121
v 250.359619 24.278015 -371.211121
v 254.456451 15.771983 -369.224030
v 254.456451 25.104795 -369.224030
v 261.609772 25.104792 -385.171021
s 1
f 914 918 916 913
f 913 915 920 914
f 915 913 916 917
f 916 918 919 917
f 914 920 919 918
f 920 915 917 919
g TubeCurveCol.110_env_ruin_tube_01_col.111
v 257.404053 24.278013 -386.915894
v 261.609772 25.104792 -385.171021
v 250.868042 38.165798 -389.627533
v 250.359619 24.278015 -371.211121
v 243.992828 38.165798 -374.299225
v 254.456451 25.104795 -369.224030
v 246.925842 41.531219 -372.876617
v 253.879013 41.531219 -388.378326
s 1
f 922 926 924 921
f 928 922 921 923
f 923 921 924 925
f 925 924 926 927
f 926 922 928 927
f 928 923 925 927
g TubeCurveCol.111_env_ruin_tube_01_col.112
v 238.040421 45.242004 -394.949402
v 250.868042 38.165798 -389.627533
v 238.706543 49.900921 -394.673035
v 231.497314 45.242004 -380.359955
v 243.992828 38.165798 -374.299225
v 232.146179 49.900925 -380.045227
v 246.925842 41.531219 -372.876617
v 253.879013 41.531219 -388.378326
s 1
f 932 929 930 933
f 929 931 936 930
f 931 929 932 934
f 932 933 935 934
f 931 934 935 936
f 936 935 933 930
g TubeCurveCol.112_env_ruin_tube_01_col.113
v 238.040421 45.242004 -394.949402
v 238.706543 49.900921 -394.673035
v 230.752289 45.242004 -397.973083
v 231.497314 45.242004 -380.359955
v 224.397873 45.242004 -383.803436
v 232.146179 49.900925 -380.045227
v 223.748993 49.900925 -384.118164
v 230.086166 49.900921 -398.249451
s 1
f 938 942 940 937
f 937 939 944 938
f 939 937 940 941
f 940 942 943 941
f 938 944 943 942
f 944 939 941 943
g TubeCurveCol.113_env_ruin_tube_01_col.114
v 230.752289 45.242004 -397.973083
v 230.086166 49.900921 -398.249451
v 217.924637 38.165806 -403.294983
v 224.397873 45.242004 -383.803436
v 211.902344 38.165806 -389.864166
v 223.748993 49.900925 -384.118164
v 208.969330 41.531231 -391.286774
v 214.913681 41.531235 -404.544159
s 1
f 946 950 948 945
f 952 946 945 947
f 947 945 948 949
f 949 948 950 951
f 950 946 952 951
f 952 947 949 951
g TubeCurveCol.114_env_ruin_tube_01_col.115
v 201.438721 25.104794 -394.939392
v 208.969330 41.531231 -391.286774
v 207.182907 25.104792 -407.751465
v 205.535553 24.278015 -392.952271
v 211.388626 24.278013 -406.006592
v 211.902344 38.165806 -389.864166
v 217.924637 38.165806 -403.294983
v 214.913681 41.531235 -404.544159
s 1
f 956 958 954 953
f 954 960 955 953
f 955 957 956 953
f 957 959 958 956
f 960 954 958 959
f 955 960 959 957
g TubeCurveCol.115_env_ruin_tube_01_col.116
v 201.438721 25.104794 -394.939392
v 207.182907 25.104792 -407.751465
v 201.438721 15.771986 -394.939392
v 205.535553 24.278015 -392.952271
v 211.388626 24.278013 -406.006592
v 205.535553 16.387554 -392.952271
v 211.388626 16.387554 -406.006592
v 207.182907 15.771984 -407.751465
s 1
f 962 961 964 965
f 962 968 963 961
f 966 964 961 963
f 967 965 964 966
f 968 967 966 963
f 965 967 968 962
g TubeCurveCol.116_env_ruin_tube_01_col.117
v 184.770828 -0.654438 -284.300323
v 195.607498 -0.654436 -296.563568
v 190.964920 15.771989 -278.671387
v 181.242554 -0.000025 -287.506653
v 187.595184 16.387556 -281.733643
v 191.988998 -0.000024 -299.667755
v 198.504074 16.387564 -294.078735
v 201.959976 15.771997 -291.114044
s 1
f 972 974 970 969
f 970 976 971 969
f 971 973 972 969
f 973 975 974 972
f 970 974 975 976
f 971 976 975 973
g TubeCurveCol.117_env_ruin_tube_01_col.118
v 187.595184 24.278017 -281.733643
v 182.358368 38.165802 -286.492676
v 190.964920 25.104795 -278.671387
v 198.504074 24.278025 -294.078735
v 193.133331 38.165810 -298.686066
v 201.959976 25.104805 -291.114044
v 195.607483 41.531235 -296.563599
v 184.770844 41.531227 -284.300323
s 1
f 978 981 980 977
f 984 978 977 979
f 979 977 980 982
f 981 983 982 980
f 982 983 984 979
f 984 983 981 978
g TubeCurveCol.118_env_ruin_tube_01_col.119
v 172.080551 45.242008 -295.832733
v 172.614273 49.900921 -295.347717
v 182.358368 38.165802 -286.492676
v 182.592682 45.242020 -307.728485
v 193.133331 38.165810 -298.686066
v 183.140045 49.900940 -307.258911
v 195.607483 41.531235 -296.563599
v 184.770844 41.531227 -284.300323
s 1
f 986 990 988 985
f 985 987 992 986
f 988 989 987 985
f 988 990 991 989
f 986 992 991 990
f 992 987 989 991
g TubeCurveCol.119_env_ruin_tube_01_col.120
v 172.080551 45.242008 -295.832733
v 166.241119 45.242008 -301.139374
v 172.614273 49.900921 -295.347717
v 182.592682 45.242020 -307.728485
v 176.603912 45.242020 -312.865997
v 183.140045 49.900940 -307.258911
v 176.056549 49.900940 -313.335571
v 165.707413 49.900921 -301.624390
s 1
f 994 997 996 993
f 993 995 1000 994
f 995 993 996 998
f 996 997 999 998
f 995 998 999 1000
f 1000 999 997 994
g TubeCurveCol.120_env_ruin_tube_01_col.121
v 166.241119 45.242008 -301.139374
v 155.963287 38.165810 -310.479462
v 165.707413 49.900921 -301.624390
v 176.603912 45.242020 -312.865997
v 166.063248 38.165817 -321.908417
v 176.056549 49.900940 -313.335571
v 163.589096 41.531246 -324.030914
v 153.550827 41.531235 -312.671814
s 1
f 1002 1005 1004 1001
f 1008 1002 1001 1003
f 1003 1001 1004 1006
f 1005 1007 1006 1004
f 1006 1007 1008 1003
f 1008 1007 1005 1002
g TubeCurveCol.121_env_ruin_tube_01_col.122
v 157.236603 25.104803 -329.480469
v 163.589096 41.531246 -324.030914
v 147.356735 25.104803 -318.300720
v 160.692520 24.278023 -326.515778
v 150.726471 24.278023 -315.238464
v 166.063248 38.165817 -321.908417
v 155.963287 38.165810 -310.479462
v 153.550827 41.531235 -312.671814
s 1
f 1012 1009 1010 1014
f 1010 1009 1011 1016
f 1011 1009 1012 1013
f 1013 1012 1014 1015
f 1016 1015 1014 1010
f 1011 1013 1015 1016
g TubeCurveCol.122_env_ruin_tube_01_col.123
v 157.236603 15.771993 -329.480438
v 147.356735 15.771993 -318.300720
v 163.589096 -0.654443 -324.030914
v 160.692520 16.387562 -326.515778
v 167.207596 -0.000032 -320.926727
v 150.726471 16.387564 -315.238464
v 157.079102 -0.000029 -309.465454
v 153.550827 -0.654439 -312.671783
s 1
f 1018 1022 1020 1017
f 1017 1019 1024 1018
f 1017 1020 1021 1019
f 1023 1021 1020 1022
f 1024 1023 1022 1018
f 1019 1021 1023 1024
g TubeCurveCol.123_env_ruin_tube_01_col.124
v 157.236603 25.104803 -329.480469
v 147.356735 25.104803 -318.300720
v 157.236603 15.771993 -329.480438
v 160.692520 24.278023 -326.515778
v 160.692520 16.387562 -326.515778
v 150.726471 24.278023 -315.238464
v 150.726471 16.387564 -315.238464
v 147.356735 15.771993 -318.300720
s 1
f 1026 1030 1028 1025
f 1026 1025 1027 1032
f 1029 1027 1025 1028
f 1031 1029 1028 1030
f 1030 1026 1032 1031
f 1032 1027 1029 1031
g TubeCurveCol.124_env_ruin_tube_01_col.125
v 187.595184 16.387556 -281.733643
v 187.595184 24.278017 -281.733643
v 190.964920 15.771989 -278.671387
v 198.504074 16.387564 -294.078735
v 198.504074 24.278025 -294.078735
v 201.959976 15.771997 -291.114044
v 201.959976 25.104805 -291.114044
v 190.964920 25.104795 -278.671387
s 1
f 1034 1037 1036 1033
f 1033 1035 1040 1034
f 1035 1033 1036 1038
f 1036 1037 1039 1038
f 1035 1038 1039 1040
f 1040 1039 1037 1034
g TubeCurveCol.125_env_ruin_tube_01_col.126
v 167.294434 47.145889 -309.471375
v 167.294434 53.344936 -309.471375
v 180.344864 47.145885 -297.893005
v 198.916885 47.145878 -349.533264
v 198.916885 53.344921 -349.533264
v 213.328888 47.145878 -339.701385
v 213.328888 53.344910 -339.701385
v 180.344864 53.344921 -297.893005
s 1
f 1044 1041 1042 1045
f 1041 1043 1048 1042
f 1044 1046 1043 1041
f 1043 1046 1047 1048
f 1042 1048 1047 1045
g TubeCurveCol.126_env_ruin_tube_01_col.127
v 223.683517 53.344921 -393.596741
v 198.916885 53.344921 -349.533264
v 239.618851 53.344921 -386.494812
v 223.683517 47.145874 -393.596710
v 239.618851 47.145878 -386.494812
v 198.916885 47.145878 -349.533264
v 213.328888 47.145878 -339.701385
v 213.328888 53.344910 -339.701385
s 1
f 1052 1054 1050 1049
f 1050 1056 1051 1049
f 1049 1051 1053 1052
f 1052 1053 1055 1054
f 1055 1053 1051 1056
g TubeCurveCol.127_env_ruin_tube_01_col.128
v 186.845428 0.110791 -352.328125
v 191.901718 0.110790 -359.742676
v 180.281570 15.859044 -356.943604
v 190.144684 -0.065837 -350.153351
v 182.956573 16.387558 -354.945831
v 195.132416 -0.065839 -357.466309
v 188.043289 16.387556 -362.405823
v 185.206787 15.859043 -364.165894
s 1
f 1057 1058 1062 1060
f 1058 1057 1059 1064
f 1060 1061 1059 1057
f 1060 1062 1063 1061
f 1058 1064 1063 1062
f 1063 1064 1059 1061
g TubeCurveCol.128_env_ruin_tube_01_col.129
v 180.281586 24.806541 -356.943604
v 186.845428 40.554794 -352.328125
v 182.956573 24.278021 -354.945831
v 185.206787 24.806536 -364.165894
v 191.901718 40.554794 -359.742676
v 188.043289 24.278019 -362.405823
v 193.934677 38.118202 -358.399536
v 188.838577 38.118202 -350.926605
s 1
f 1066 1069 1068 1065
f 1072 1066 1065 1067
f 1070 1067 1065 1068
f 1069 1071 1070 1068
f 1071 1072 1067 1070
f 1071 1069 1066 1072
g TubeCurveCol.129_env_ruin_tube_01_col.130
v 186.845428 40.554794 -352.328125
v 199.727692 48.578934 -343.269714
v 188.838577 38.118202 -350.926605
v 191.901718 40.554794 -359.742676
v 193.934677 38.118202 -358.399536
v 205.041245 48.578934 -351.061646
v 205.491013 45.175507 -350.764496
v 200.168640 45.175503 -342.959656
s 1
f 1073 1074 1078 1076
f 1073 1075 1080 1074
f 1077 1075 1073 1076
f 1079 1077 1076 1078
f 1079 1078 1074 1080
f 1075 1077 1079 1080
g TubeCurveCol.130_env_ruin_tube_01_col.131
v 226.492966 24.806536 -324.449219
v 223.699921 24.278023 -326.277802
v 219.929123 40.554794 -329.064697
v 232.341034 24.806538 -333.025208
v 225.646118 40.554794 -337.448425
v 229.618088 24.278019 -334.957458
v 223.613144 38.118206 -338.791565
v 217.935959 38.118206 -330.466248
s 1
f 1086 1084 1081 1082
f 1088 1082 1081 1083
f 1083 1081 1084 1085
f 1085 1084 1086 1087
f 1087 1086 1082 1088
f 1087 1088 1083 1085
g TubeCurveCol.131_env_ruin_tube_01_col.132
v 219.929108 0.110788 -329.064697
v 225.646103 0.110788 -337.448425
v 226.492966 15.859041 -324.449219
v 216.772614 -0.065838 -331.444122
v 222.278046 -0.065838 -339.516479
v 223.699921 16.387560 -326.277802
v 229.618088 16.387556 -334.957458
v 232.341034 15.859040 -333.025208
s 1
f 1089 1092 1093 1090
f 1090 1096 1091 1089
f 1092 1089 1091 1094
f 1092 1094 1095 1093
f 1095 1094 1091 1096
f 1090 1093 1095 1096
g TubeCurveCol.132_env_ruin_tube_01_col.133
v 219.929123 40.554794 -329.064697
v 217.935959 38.118206 -330.466248
v 207.046860 48.578934 -338.123108
v 225.646118 40.554794 -337.448425
v 212.506577 48.578934 -346.129456
v 223.613144 38.118206 -338.791565
v 212.056824 45.175507 -346.426605
v 206.605911 45.175503 -338.433167
s 1
f 1102 1100 1097 1098
f 1097 1099 1104 1098
f 1097 1100 1101 1099
f 1103 1101 1100 1102
f 1098 1104 1103 1102
f 1103 1104 1099 1101
g TubeCurveCol.133_env_ruin_tube_01_col.134
v 280.490082 16.387543 -495.172791
v 280.490082 24.278006 -495.172791
v 285.060760 15.771974 -494.976013
v 275.433777 16.387547 -448.723877
v 275.433777 24.278009 -448.723877
v 279.936249 15.771977 -447.912842
v 279.936249 25.104788 -447.912842
v 285.060760 25.104784 -494.976013
s 1
f 1112 1107 1105 1106
f 1108 1109 1106 1105
f 1107 1110 1108 1105
f 1108 1110 1111 1109
f 1107 1112 1111 1110
f 1106 1109 1111 1112
g TubeCurveCol.134_env_ruin_tube_01_col.135
v 263.520721 16.387552 -403.019043
v 275.433777 16.387547 -448.723877
v 263.520721 24.278013 -403.019043
v 267.842316 15.771982 -401.517761
v 279.936249 15.771977 -447.912842
v 267.842316 25.104794 -401.517792
v 279.936249 25.104788 -447.912842
v 275.433777 24.278009 -448.723877
s 1
f 1113 1115 1120 1114
f 1117 1116 1113 1114
f 1118 1115 1113 1116
f 1117 1119 1118 1116
f 1120 1115 1118 1119
f 1117 1114 1120 1119
g TubeCurveCol.135_env_ruin_tube_01_col.136
v 230.760956 16.387550 -497.313782
v 230.760956 24.278013 -497.313782
v 226.190262 15.771981 -497.510590
v 226.447021 16.387554 -457.548096
v 226.447021 24.278017 -457.548096
v 221.944550 15.771985 -458.359131
v 221.944565 25.104795 -458.359131
v 226.190277 25.104792 -497.510590
s 1
f 1128 1122 1121 1123
f 1124 1121 1122 1125
f 1123 1121 1124 1126
f 1123 1126 1127 1128
f 1122 1128 1127 1125
g TubeCurveCol.136_env_ruin_tube_01_col.137
v 216.501801 16.387552 -419.352722
v 216.501801 24.278015 -419.352722
v 226.447021 16.387554 -457.548096
v 212.180206 15.771982 -420.853973
v 221.944550 15.771985 -458.359131
v 212.180206 25.104794 -420.853973
v 221.944565 25.104795 -458.359131
v 226.447021 24.278017 -457.548096
s 1
f 1129 1131 1136 1130
f 1134 1132 1129 1130
f 1133 1131 1129 1132
f 1133 1132 1134 1135
f 1136 1135 1134 1130
g TubeCurveCol.137_env_ruin_tube_01_col.138
v 245.486053 49.900925 -449.337006
v 246.193619 45.192009 -449.197571
v 247.159317 49.900928 -458.579285
v 254.642761 49.900925 -447.532562
v 253.935196 45.192009 -447.671997
v 256.369751 49.900928 -457.072876
v 255.658035 45.192009 -457.189270
v 247.871033 45.192009 -458.462891
s 1
f 1141 1140 1137 1138
f 1137 1139 1144 1138
f 1140 1142 1139 1137
f 1140 1141 1143 1142
f 1143 1144 1139 1142
f 1138 1144 1143 1141
g TubeCurveCol.138_env_ruin_tube_01_col.139
v 234.907166 -0.654457 -512.000061
v 234.907166 -7.212281 -512.000061
v 234.907166 -0.000046 -512.000061
v 242.457565 -14.139944 -512.000061
v 277.092834 -0.000043 -512.000061
v 230.181671 -0.000042 -456.875397
v 230.181671 -7.212277 -456.875397
v 271.699127 -0.000038 -449.396698
v 271.699127 -7.212279 -449.396698
v 277.092834 -7.212283 -512.000061
v 264.268341 -14.139940 -450.735229
v 269.542419 -14.139944 -512.000061
v 237.612473 -14.139940 -455.536865
v 277.092834 -0.654455 -512.000061
s 1
f 1151 1150 1147 1145 1146
f 1145 1147 1146
f 1146 1147 1148
f 1148 1147 1149 1156
f 1147 1150 1152 1149
f 1158 1149 1152 1153 1154
f 1156 1154 1153 1155
f 1148 1156 1155 1157
f 1146 1148 1157 1151
f 1156 1149 1154
s 0
f 1154 1149 1158
g TubeCurveCol.139_env_ruin_tube_01_col.140
v 214.913681 -0.654449 -404.544159
v 214.913681 -7.212274 -404.544159
v 214.913681 -0.000039 -404.544159
v 253.879013 -0.000033 -388.378326
v 221.887695 -14.139935 -401.650787
v 230.181671 -0.000042 -456.875397
v 271.699127 -0.000038 -449.396698
v 230.181671 -7.212277 -456.875397
v 237.612473 -14.139940 -455.536865
v 264.268341 -14.139940 -450.735229
v 246.904999 -14.139935 -391.271698
v 271.699127 -7.212279 -449.396698
v 253.879013 -7.212274 -388.378326
v 253.879013 -0.654445 -388.378326
s 1
f 1159 1161 1164 1166 1160
f 1160 1161 1159
f 1164 1161 1162 1165
f 1161 1163 1169 1162
f 1163 1161 1160
f 1166 1167 1163 1160
f 1167 1168 1169 1163
f 1168 1170 1171 1169
f 1170 1165 1162 1172 1171
f 1171 1162 1169
s 0
f 1172 1162 1171
g TubeCurveCol.140_env_ruin_tube_01_col.141
v 226.190262 15.771981 -497.510590
v 234.552200 -0.654454 -497.150574
v 226.537476 15.771976 -512.000061
v 230.739349 16.387550 -497.314728
v 231.090790 16.387545 -512.000061
v 239.315338 -0.000044 -496.945496
v 239.674713 -0.000047 -512.000061
v 234.907166 -0.654457 -512.000061
s 1
f 1173 1174 1178 1176
f 1173 1175 1180 1174
f 1175 1173 1176 1177
f 1179 1177 1176 1178
f 1174 1180 1179 1178
f 1180 1175 1177 1179
g TubeCurveCol.141_env_ruin_tube_01_col.142
v 277.092834 -0.654455 -512.000061
v 276.698822 -0.654455 -495.335999
v 285.462524 15.771973 -512.000061
v 272.325287 -0.000043 -512.000061
v 280.909210 16.387545 -512.000061
v 271.935699 -0.000043 -495.541077
v 280.511688 16.387543 -495.171844
v 285.060760 15.771974 -494.976013
s 1
f 1184 1181 1182 1186
f 1182 1181 1183 1188
f 1183 1181 1184 1185
f 1185 1184 1186 1187
f 1182 1188 1187 1186
f 1183 1185 1187 1188
g TubeCurveCol.142_env_ruin_tube_01_col.143
v 280.909210 16.387545 -512.000061
v 285.462524 15.771973 -512.000061
v 280.909210 24.278006 -512.000061
v 280.511688 16.387543 -495.171844
v 280.511688 24.278006 -495.171844
v 285.060760 15.771974 -494.976013
v 285.060760 25.104784 -494.976013
v 285.462524 25.104784 -512.000061
s 1
f 1190 1194 1192 1189
f 1189 1191 1196 1190
f 1191 1189 1192 1193
f 1192 1194 1195 1193
f 1190 1196 1195 1194
f 1196 1191 1193 1195
g TubeCurveCol.143_env_ruin_tube_01_col.144
v 280.909210 24.278006 -512.000061
v 285.462524 25.104784 -512.000061
v 273.833008 38.165787 -512.000061
v 280.511688 24.278006 -495.171844
v 273.442047 38.165798 -495.476227
v 285.060760 25.104784 -494.976013
v 276.698822 41.531219 -495.335999
v 277.092834 41.531208 -512.000061
s 1
f 1198 1202 1200 1197
f 1204 1198 1197 1199
f 1199 1197 1200 1201
f 1201 1200 1202 1203
f 1202 1198 1204 1203
f 1204 1199 1201 1203
g TubeCurveCol.144_env_ruin_tube_01_col.145
v 259.945251 45.241993 -512.000061
v 273.833008 38.165787 -512.000061
v 260.666412 49.900909 -512.000061
v 259.567108 45.242001 -496.073578
v 273.442047 38.165798 -495.476227
v 260.287628 49.900921 -496.042572
v 276.698822 41.531219 -495.335999
v 277.092834 41.531208 -512.000061
s 1
f 1208 1205 1206 1209
f 1205 1207 1212 1206
f 1207 1205 1208 1210
f 1208 1209 1211 1210
f 1207 1210 1211 1212
f 1212 1211 1209 1206
g TubeCurveCol.145_env_ruin_tube_01_col.146
v 259.945251 45.241993 -512.000061
v 260.666412 49.900909 -512.000061
v 252.054779 45.241993 -512.000061
v 259.567108 45.242001 -496.073578
v 251.683945 45.242001 -496.412994
v 260.287628 49.900921 -496.042572
v 250.963440 49.900921 -496.444000
v 251.333603 49.900909 -512.000061
s 1
f 1214 1218 1216 1213
f 1213 1215 1220 1214
f 1215 1213 1216 1217
f 1216 1218 1219 1217
f 1214 1220 1219 1218
f 1220 1215 1217 1219
g TubeCurveCol.146_env_ruin_tube_01_col.147
v 252.054779 45.241993 -512.000061
v 251.333603 49.900909 -512.000061
v 238.166977 38.165794 -512.000061
v 251.683945 45.242001 -496.412994
v 237.808990 38.165806 -497.010345
v 250.963440 49.900921 -496.444000
v 234.552200 41.531231 -497.150574
v 234.907166 41.531219 -512.000061
s 1
f 1222 1226 1224 1221
f 1228 1222 1221 1223
f 1223 1221 1224 1225
f 1225 1224 1226 1227
f 1226 1222 1228 1227
f 1228 1223 1225 1227
g TubeCurveCol.147_env_ruin_tube_01_col.148
v 226.190262 25.104792 -497.510590
v 234.552200 41.531231 -497.150574
v 226.537476 25.104784 -512.000061
v 230.739349 24.278013 -497.314728
v 231.090790 24.278006 -512.000061
v 237.808990 38.165806 -497.010345
v 238.166977 38.165794 -512.000061
v 234.907166 41.531219 -512.000061
s 1
f 1232 1234 1230 1229
f 1230 1236 1231 1229
f 1231 1233 1232 1229
f 1233 1235 1234 1232
f 1236 1230 1234 1235
f 1231 1236 1235 1233
g TubeCurveCol.148_env_ruin_tube_01_col.149
v 226.190262 25.104792 -497.510590
v 226.537476 25.104784 -512.000061
v 226.190262 15.771981 -497.510590
v 230.739349 24.278013 -497.314728
v 231.090790 24.278006 -512.000061
v 230.739349 16.387550 -497.314728
v 231.090790 16.387545 -512.000061
v 226.537476 15.771976 -512.000061
s 1
f 1238 1237 1240 1241
f 1238 1244 1239 1237
f 1242 1240 1237 1239
f 1243 1241 1240 1242
f 1244 1243 1242 1239
f 1241 1243 1244 1238
g TubeCurveCol.149_env_ruin_tube_01_col.150
v 253.879013 -0.654445 -388.378326
v 259.936096 -0.654447 -404.264282
v 261.609772 15.771984 -385.171021
v 249.475418 -0.000033 -390.205292
v 257.404053 16.387554 -386.915894
v 255.432556 -0.000034 -405.828735
v 263.541138 16.387552 -403.011932
v 267.842316 15.771982 -401.517761
s 1
f 1248 1250 1246 1245
f 1246 1252 1247 1245
f 1247 1249 1248 1245
f 1249 1251 1250 1248
f 1246 1250 1251 1252
f 1247 1252 1251 1249
g TubeCurveCol.150_env_ruin_tube_01_col.151
v 257.404053 24.278013 -386.915894
v 250.868042 38.165798 -389.627533
v 261.609772 25.104792 -385.171021
v 263.541138 24.278013 -403.011932
v 256.856781 38.165794 -405.333984
v 267.842316 25.104794 -401.517792
v 259.936096 41.531212 -404.264282
v 253.879013 41.531219 -388.378326
s 1
f 1254 1257 1256 1253
f 1260 1254 1253 1255
f 1255 1253 1256 1258
f 1257 1259 1258 1256
f 1258 1259 1260 1255
f 1260 1259 1257 1254
g TubeCurveCol.151_env_ruin_tube_01_col.152
v 238.040421 45.242004 -394.949402
v 238.706543 49.900921 -394.673035
v 250.868042 38.165798 -389.627533
v 243.738037 45.242001 -409.891266
v 256.856781 38.165794 -405.333984
v 244.419266 49.900921 -409.654602
v 259.936096 41.531212 -404.264282
v 253.879013 41.531219 -388.378326
s 1
f 1262 1266 1264 1261
f 1261 1263 1268 1262
f 1264 1265 1263 1261
f 1264 1266 1267 1265
f 1262 1268 1267 1266
f 1268 1263 1265 1267
g TubeCurveCol.152_env_ruin_tube_01_col.153
v 238.040421 45.242004 -394.949402
v 230.752289 45.242004 -397.973083
v 238.706543 49.900921 -394.673035
v 243.738037 45.242001 -409.891266
v 236.284500 45.242001 -412.480499
v 244.419266 49.900921 -409.654602
v 235.603256 49.900921 -412.717163
v 230.086166 49.900921 -398.249451
s 1
f 1270 1273 1272 1269
f 1269 1271 1276 1270
f 1271 1269 1272 1274
f 1272 1273 1275 1274
f 1271 1274 1275 1276
f 1276 1275 1273 1270
g TubeCurveCol.153_env_ruin_tube_01_col.154
v 230.752289 45.242004 -397.973083
v 217.924637 38.165806 -403.294983
v 230.086166 49.900921 -398.249451
v 236.284500 45.242001 -412.480499
v 223.165710 38.165802 -417.037781
v 235.603256 49.900921 -412.717163
v 220.086426 41.531227 -418.107483
v 214.913681 41.531235 -404.544159
s 1
f 1278 1281 1280 1277
f 1284 1278 1277 1279
f 1279 1277 1280 1282
f 1281 1283 1282 1280
f 1282 1283 1284 1279
f 1284 1283 1281 1278
g TubeCurveCol.154_env_ruin_tube_01_col.155
v 212.180206 25.104794 -420.853973
v 220.086426 41.531227 -418.107483
v 207.182907 25.104792 -407.751465
v 216.481369 24.278015 -419.359833
v 211.388626 24.278013 -406.006592
v 223.165710 38.165802 -417.037781
v 217.924637 38.165806 -403.294983
v 214.913681 41.531235 -404.544159
s 1
f 1288 1285 1286 1290
f 1286 1285 1287 1292
f 1287 1285 1288 1289
f 1289 1288 1290 1291
f 1292 1291 1290 1286
f 1287 1289 1291 1292
g TubeCurveCol.155_env_ruin_tube_01_col.156
v 212.180206 15.771982 -420.854004
v 207.182907 15.771984 -407.751465
v 220.086426 -0.654450 -418.107483
v 216.481369 16.387552 -419.359833
v 224.589966 -0.000040 -416.543030
v 211.388626 16.387554 -406.006592
v 219.317276 -0.000039 -402.717194
v 214.913681 -0.654449 -404.544159
s 1
f 1294 1298 1296 1293
f 1293 1295 1300 1294
f 1293 1296 1297 1295
f 1299 1297 1296 1298
f 1300 1299 1298 1294
f 1295 1297 1299 1300
g TubeCurveCol.156_env_ruin_tube_01_col.157
v 212.180206 25.104794 -420.853973
v 207.182907 25.104792 -407.751465
v 212.180206 15.771982 -420.854004
v 216.481369 24.278015 -419.359833
v 216.481369 16.387552 -419.359833
v 211.388626 24.278013 -406.006592
v 211.388626 16.387554 -406.006592
v 207.182907 15.771984 -407.751465
s 1
f 1302 1306 1304 1301
f 1302 1301 1303 1308
f 1305 1303 1301 1304
f 1307 1305 1304 1306
f 1306 1302 1308 1307
f 1308 1303 1305 1307
g TubeCurveCol.157_env_ruin_tube_01_col.158
v 257.404053 16.387554 -386.915894
v 257.404053 24.278013 -386.915894
v 261.609772 15.771984 -385.171021
v 263.541138 16.387552 -403.011932
v 263.541138 24.278013 -403.011932
v 267.842316 15.771982 -401.517761
v 267.842316 25.104794 -401.517792
v 261.609772 25.104792 -385.171021
s 1
f 1310 1313 1312 1309
f 1309 1311 1316 1310
f 1311 1309 1312 1314
f 1312 1313 1315 1314
f 1311 1314 1315 1316
f 1316 1315 1313 1310
g TubeCurveCol.158_env_ruin_tube_01_col.159
v 228.847977 47.145882 -406.070831
v 228.847977 53.344925 -406.070831
v 245.131317 47.145878 -399.807831
v 242.355453 47.145874 -454.682434
v 242.355453 53.344921 -454.682434
v 259.525360 47.145874 -451.589539
v 259.525360 53.344913 -451.589539
v 245.131317 53.344910 -399.807831
s 1
f 1320 1317 1318 1321
f 1317 1319 1324 1318
f 1320 1322 1319 1317
f 1319 1322 1323 1324
f 1318 1324 1323 1321
g TubeCurveCol.159_env_ruin_tube_01_col.160
v 247.168823 53.344921 -505.185852
v 242.355453 53.344921 -454.682434
v 264.612000 53.344921 -504.858215
v 247.168823 47.145870 -505.185852
v 264.612000 47.145874 -504.858215
v 242.355453 47.145874 -454.682434
v 259.525360 47.145874 -451.589539
v 259.525360 53.344913 -451.589539
s 1
f 1328 1330 1326 1325
f 1326 1332 1327 1325
f 1325 1327 1329 1328
f 1328 1329 1331 1330
f 1331 1329 1327 1332
g TubeCurveCol.160_env_ruin_tube_01_col.161
v 230.224197 0.110781 -452.345703
v 231.810242 0.110783 -461.107025
v 222.351456 15.859034 -453.897095
v 234.121414 -0.065846 -451.697815
v 225.608215 16.387550 -453.159149
v 235.691238 -0.065845 -460.352905
v 227.198395 16.387552 -461.956970
v 223.891251 15.859033 -462.401733
s 1
f 1333 1334 1338 1336
f 1334 1333 1335 1340
f 1336 1337 1335 1333
f 1336 1338 1339 1337
f 1334 1340 1339 1338
f 1339 1340 1335 1337
g TubeCurveCol.161_env_ruin_tube_01_col.162
v 222.351456 24.806528 -453.897095
v 230.224182 40.554787 -452.345703
v 225.608215 24.278011 -453.159149
v 223.891251 24.806528 -462.401733
v 231.810242 40.554771 -461.107025
v 227.198395 24.278013 -461.956970
v 234.214905 38.118187 -460.713898
v 232.614807 38.118198 -451.874634
s 1
f 1342 1345 1344 1341
f 1348 1342 1341 1343
f 1346 1343 1341 1344
f 1345 1347 1346 1344
f 1347 1348 1343 1346
f 1347 1345 1342 1348
g TubeCurveCol.162_env_ruin_tube_01_col.163
v 230.224182 40.554787 -452.345703
v 245.675308 48.578926 -449.300934
v 232.614807 38.118198 -451.874634
v 231.810242 40.554771 -461.107025
v 234.214905 38.118187 -460.713898
v 247.352158 48.578911 -458.566040
v 247.884140 45.175480 -458.479065
v 246.204178 45.175491 -449.196716
s 1
f 1349 1350 1354 1352
f 1349 1351 1356 1350
f 1353 1351 1349 1352
f 1355 1353 1352 1354
f 1355 1354 1350 1356
f 1351 1353 1355 1356
g TubeCurveCol.163_env_ruin_tube_01_col.164
v 277.777802 24.806528 -442.974854
v 274.483246 24.278011 -443.509979
v 269.905090 40.554787 -444.526245
v 279.643311 24.806520 -453.286682
v 271.724304 40.554771 -454.581390
v 276.366791 24.278006 -453.935425
v 269.319641 38.118187 -454.974518
v 267.514465 38.118198 -444.997314
s 1
f 1362 1360 1357 1358
f 1364 1358 1357 1359
f 1359 1357 1360 1361
f 1361 1360 1362 1363
f 1363 1362 1358 1364
f 1363 1364 1359 1361
g TubeCurveCol.164_env_ruin_tube_01_col.165
v 269.905090 0.110781 -444.526245
v 271.724304 0.110778 -454.581390
v 277.777802 15.859034 -442.974854
v 266.053589 -0.065848 -445.419434
v 267.806213 -0.065849 -455.088806
v 274.483246 16.387550 -443.509979
v 276.366791 16.387545 -453.935425
v 279.643311 15.859025 -453.286682
s 1
f 1365 1368 1369 1366
f 1366 1372 1367 1365
f 1368 1365 1367 1370
f 1368 1370 1371 1369
f 1371 1370 1367 1372
f 1366 1369 1371 1372
g TubeCurveCol.165_env_ruin_tube_01_col.166
v 269.905090 40.554787 -444.526245
v 267.514465 38.118198 -444.997314
v 254.453979 48.578926 -447.571014
v 271.724304 40.554771 -454.581390
v 256.182404 48.578911 -457.122375
v 269.319641 38.118187 -454.974518
v 255.650421 45.175480 -457.209351
v 253.925095 45.175491 -447.675232
s 1
f 1378 1376 1373 1374
f 1373 1375 1380 1374
f 1373 1376 1377 1375
f 1379 1377 1376 1378
f 1374 1380 1379 1378
f 1379 1380 1375 1377
