# Blender 5.0.1
# www.blender.org
g env_ruin_tube_01_col_env_ruin_tube_01_col.167
v 24.887594 16.387581 -110.947777
v 24.887590 24.278042 -110.947777
v 24.887594 16.387587 -17.052116
v 24.887590 24.278048 -17.052116
v 29.462517 15.772011 -110.947777
v 29.462513 25.104820 -110.947777
v 29.462517 15.772018 -17.052116
v 29.462513 25.104826 -17.052116
s 1
f 5 6 8 7
f 3 4 2 1
f 2 4 8 6
f 5 7 3 1
f 6 5 1 2
f 8 4 3 7
g env_ruin_tube_01_col.002_env_ruin_tube_01_col.168
v -24.887590 16.387581 -110.947777
v -24.887590 16.387587 -17.052116
v -24.887590 24.278042 -110.947777
v -29.462517 15.772011 -110.947777
v -29.462509 25.104820 -110.947777
v -29.462517 15.772018 -17.052116
v -29.462509 25.104826 -17.052116
v -24.887590 24.278048 -17.052116
s 1
f 12 9 10 14
f 10 9 11 16
f 13 11 9 12
f 12 14 15 13
f 15 14 10 16
f 11 13 15 16
g env_ruin_tube_01_col.003_env_ruin_tube_01_col.169
v -4.666403 49.900955 -58.826683
v -3.945231 45.192039 -58.826683
v -4.666403 49.900955 -69.152122
v 4.666409 49.900955 -58.826683
v 3.945235 45.192039 -58.826683
v 4.666409 49.900955 -69.152122
v 3.945235 45.192039 -69.152122
v -3.945231 45.192039 -69.152122
s 1
f 21 20 17 18
f 17 19 24 18
f 20 22 19 17
f 20 21 23 22
f 23 24 19 22
f 18 24 23 21
g env_ruin_tube_01_col.004_env_ruin_tube_01_col.170
v -21.092834 -0.654423 -127.999893
v -21.092834 -7.212247 -127.999893
v -21.092834 -0.000013 -127.999893
v -13.542435 -14.139909 -127.999893
v 21.092834 -0.000007 -127.999893
v -21.092834 -0.000003 0.000000
v 21.092834 0.000003 -0.000000
v -13.542435 -14.139899 0.000001
v -21.092834 -7.212237 0.000001
v -21.092834 -0.654413 0.000000
v 13.542435 -14.139899 0.000001
v 13.542435 -14.139909 -127.999893
v 21.092834 -7.212237 0.000001
v 21.092834 -7.212247 -127.999893
v 21.092834 -0.654409 0.000000
v 21.092834 -0.654419 -127.999893
s 1
f 34 30 27 25 26 33
f 25 27 26
f 26 27 28
f 28 27 29 36
f 27 30 31 29
f 30 32 35 31
f 32 30 33
f 33 30 34
f 26 28 32 33
f 28 36 35 32
f 36 38 37 35
f 37 31 35
f 40 29 31 39 37 38
s 0
f 39 31 37
s 1
f 36 29 38
s 0
f 38 29 40
g env_ruin_tube_01_col.005_env_ruin_tube_01_col.171
v -29.462524 15.772011 -110.947777
v -21.092834 -0.654422 -110.947777
v -29.462524 15.772010 -127.999893
v -24.909214 16.387581 -110.947777
v -24.909214 16.387579 -127.999893
v -16.325294 -0.000011 -110.947777
v -16.325294 -0.000013 -127.999893
v -21.092834 -0.654423 -127.999893
s 1
f 41 42 46 44
f 41 43 48 42
f 43 41 44 45
f 47 45 44 46
f 42 48 47 46
f 48 43 45 47
g env_ruin_tube_01_col.006_env_ruin_tube_01_col.172
v 21.092834 -0.654419 -127.999893
v 21.092834 -0.654418 -110.947777
v 29.462517 15.772010 -127.999893
v 16.325294 -0.000007 -127.999893
v 24.909210 16.387579 -127.999893
v 16.325294 -0.000006 -110.947777
v 24.909210 16.387581 -110.947777
v 29.462517 15.772011 -110.947777
s 1
f 52 49 50 54
f 50 49 51 56
f 51 49 52 53
f 53 52 54 55
f 50 56 55 54
f 51 53 55 56
g env_ruin_tube_01_col.007_env_ruin_tube_01_col.173
v 24.909210 16.387579 -127.999893
v 29.462517 15.772010 -127.999893
v 24.909206 24.278040 -127.999893
v 24.909210 16.387581 -110.947777
v 24.909206 24.278042 -110.947777
v 29.462517 15.772011 -110.947777
v 29.462513 25.104820 -110.947777
v 29.462513 25.104818 -127.999893
s 1
f 58 62 60 57
f 57 59 64 58
f 59 57 60 61
f 60 62 63 61
f 58 64 63 62
f 64 59 61 63
g env_ruin_tube_01_col.008_env_ruin_tube_01_col.174
v 24.909206 24.278040 -127.999893
v 29.462513 25.104818 -127.999893
v 17.833015 38.165821 -127.999893
v 24.909206 24.278042 -110.947777
v 17.833015 38.165825 -110.947777
v 29.462513 25.104820 -110.947777
v 21.092831 41.531246 -110.947777
v 21.092831 41.531242 -127.999893
s 1
f 66 70 68 65
f 72 66 65 67
f 67 65 68 69
f 69 68 70 71
f 70 66 72 71
f 72 67 69 71
g env_ruin_tube_01_col.009_env_ruin_tube_01_col.175
v 3.945235 45.242027 -127.999893
v 17.833015 38.165821 -127.999893
v 4.666409 49.900944 -127.999893
v 3.945235 45.242031 -110.947777
v 17.833015 38.165825 -110.947777
v 4.666409 49.900948 -110.947777
v 21.092831 41.531246 -110.947777
v 21.092831 41.531242 -127.999893
s 1
f 76 73 74 77
f 73 75 80 74
f 75 73 76 78
f 76 77 79 78
f 75 78 79 80
f 80 79 77 74
g env_ruin_tube_01_col.010_env_ruin_tube_01_col.176
v 3.945235 45.242027 -127.999893
v 4.666409 49.900944 -127.999893
v -3.945231 45.242027 -127.999893
v 3.945235 45.242031 -110.947777
v -3.945231 45.242031 -110.947777
v 4.666409 49.900948 -110.947777
v -4.666403 49.900948 -110.947777
v -4.666403 49.900944 -127.999893
s 1
f 82 86 84 81
f 81 83 88 82
f 83 81 84 85
f 84 86 87 85
f 82 88 87 86
f 88 83 85 87
g env_ruin_tube_01_col.011_env_ruin_tube_01_col.177
v -3.945231 45.242027 -127.999893
v -4.666403 49.900944 -127.999893
v -17.833031 38.165829 -127.999893
v -3.945231 45.242031 -110.947777
v -17.833031 38.165833 -110.947777
v -4.666403 49.900948 -110.947777
v -21.092838 41.531258 -110.947777
v -21.092838 41.531254 -127.999893
s 1
f 90 94 92 89
f 96 90 89 91
f 91 89 92 93
f 93 92 94 95
f 94 90 96 95
f 96 91 93 95
g env_ruin_tube_01_col.012_env_ruin_tube_01_col.178
v -29.462524 25.104820 -110.947777
v -21.092838 41.531258 -110.947777
v -29.462524 25.104818 -127.999893
v -24.909214 24.278042 -110.947777
v -24.909214 24.278040 -127.999893
v -17.833031 38.165833 -110.947777
v -17.833031 38.165829 -127.999893
v -21.092838 41.531254 -127.999893
s 1
f 100 102 98 97
f 98 104 99 97
f 99 101 100 97
f 101 103 102 100
f 104 98 102 103
f 99 104 103 101
g env_ruin_tube_01_col.013_env_ruin_tube_01_col.179
v -29.462524 25.104820 -110.947777
v -29.462524 25.104818 -127.999893
v -29.462524 15.772011 -110.947777
v -24.909214 24.278042 -110.947777
v -24.909214 24.278040 -127.999893
v -24.909214 16.387581 -110.947777
v -24.909214 16.387579 -127.999893
v -29.462524 15.772010 -127.999893
s 1
f 106 105 108 109
f 106 112 107 105
f 110 108 105 107
f 111 109 108 110
f 112 111 110 107
f 109 111 112 106
g env_ruin_tube_01_col.014_env_ruin_tube_01_col.180
v 21.092834 -0.654409 0.000000
v 21.092834 -0.654411 -17.052114
v 29.462517 15.772019 -0.000001
v 16.325294 0.000003 -0.000000
v 24.909210 16.387589 -0.000001
v 16.325294 0.000002 -17.052114
v 24.909210 16.387587 -17.052116
v 29.462517 15.772018 -17.052116
s 1
f 116 118 114 113
f 114 120 115 113
f 115 117 116 113
f 117 119 118 116
f 114 118 119 120
f 115 120 119 117
g env_ruin_tube_01_col.015_env_ruin_tube_01_col.181
v 24.909206 24.278049 -0.000002
v 17.833015 38.165833 -0.000003
v 29.462513 25.104828 -0.000002
v 24.909206 24.278048 -17.052116
v 17.833015 38.165833 -17.052118
v 29.462513 25.104826 -17.052116
v 21.092831 41.531254 -17.052118
v 21.092831 41.531254 -0.000003
s 1
f 122 125 124 121
f 128 122 121 123
f 123 121 124 126
f 125 127 126 124
f 126 127 128 123
f 128 127 125 122
g env_ruin_tube_01_col.016_env_ruin_tube_01_col.182
v 3.945235 45.242039 -0.000003
v 4.666409 49.900955 -0.000004
v 17.833015 38.165833 -0.000003
v 3.945235 45.242039 -17.052118
v 17.833015 38.165833 -17.052118
v 4.666409 49.900955 -17.052118
v 21.092831 41.531254 -17.052118
v 21.092831 41.531254 -0.000003
s 1
f 130 134 132 129
f 129 131 136 130
f 132 133 131 129
f 132 134 135 133
f 130 136 135 134
f 136 131 133 135
g env_ruin_tube_01_col.017_env_ruin_tube_01_col.183
v 3.945235 45.242039 -0.000003
v -3.945231 45.242039 -0.000003
v 4.666409 49.900955 -0.000004
v 3.945235 45.242039 -17.052118
v -3.945231 45.242039 -17.052118
v 4.666409 49.900955 -17.052118
v -4.666403 49.900955 -17.052118
v -4.666403 49.900955 -0.000004
s 1
f 138 141 140 137
f 137 139 144 138
f 139 137 140 142
f 140 141 143 142
f 139 142 143 144
f 144 143 141 138
g env_ruin_tube_01_col.018_env_ruin_tube_01_col.184
v -3.945231 45.242039 -0.000003
v -17.833031 38.165840 -0.000003
v -4.666403 49.900955 -0.000004
v -3.945231 45.242039 -17.052118
v -17.833031 38.165840 -17.052118
v -4.666403 49.900955 -17.052118
v -21.092838 41.531265 -17.052118
v -21.092838 41.531265 -0.000003
s 1
f 146 149 148 145
f 152 146 145 147
f 147 145 148 150
f 149 151 150 148
f 150 151 152 147
f 152 151 149 146
g env_ruin_tube_01_col.019_env_ruin_tube_01_col.185
v -29.462524 25.104826 -17.052116
v -21.092838 41.531265 -17.052118
v -29.462524 25.104828 -0.000002
v -24.909214 24.278048 -17.052116
v -24.909214 24.278049 -0.000002
v -17.833031 38.165840 -17.052118
v -17.833031 38.165840 -0.000003
v -21.092838 41.531265 -0.000003
s 1
f 156 153 154 158
f 154 153 155 160
f 155 153 156 157
f 157 156 158 159
f 160 159 158 154
f 155 157 159 160
g env_ruin_tube_01_col.020_env_ruin_tube_01_col.186
v -29.462524 15.772018 -17.052116
v -29.462524 15.772019 -0.000001
v -21.092834 -0.654415 -17.052114
v -24.909214 16.387587 -17.052116
v -16.325294 -0.000004 -17.052114
v -24.909214 16.387589 -0.000001
v -16.325294 -0.000003 0.000000
v -21.092834 -0.654413 0.000000
s 1
f 162 166 164 161
f 161 163 168 162
f 161 164 165 163
f 167 165 164 166
f 168 167 166 162
f 163 165 167 168
g env_ruin_tube_01_col.021_env_ruin_tube_01_col.187
v -29.462524 25.104826 -17.052116
v -29.462524 25.104828 -0.000002
v -29.462524 15.772018 -17.052116
v -24.909214 24.278048 -17.052116
v -24.909214 16.387587 -17.052116
v -24.909214 24.278049 -0.000002
v -24.909214 16.387589 -0.000001
v -29.462524 15.772019 -0.000001
s 1
f 170 174 172 169
f 170 169 171 176
f 173 171 169 172
f 175 173 172 174
f 174 170 176 175
f 176 171 173 175
g env_ruin_tube_01_col.022_env_ruin_tube_01_col.188
v 24.909210 16.387589 -0.000001
v 24.909206 24.278049 -0.000002
v 29.462517 15.772019 -0.000001
v 24.909210 16.387587 -17.052116
v 24.909206 24.278048 -17.052116
v 29.462517 15.772018 -17.052116
v 29.462513 25.104826 -17.052116
v 29.462513 25.104828 -0.000002
s 1
f 178 181 180 177
f 177 179 184 178
f 179 177 180 182
f 180 181 183 182
f 179 182 183 184
f 184 183 181 178
g env_ruin_tube_01_col.023_env_ruin_tube_01_col.189
v -8.723129 47.145912 -7.549794
v -8.723129 53.344955 -7.549798
v 8.723139 47.145908 -7.549794
v -8.723123 47.145901 -120.450104
v -8.723127 53.344948 -120.450111
v 8.723133 47.145905 -120.450104
v 8.723133 53.344948 -120.450111
v 8.723133 53.344940 -7.549794
s 1
f 188 185 186 189
f 185 187 192 186
f 188 190 187 185
f 189 191 190 188
f 187 190 191 192
f 186 192 191 189
g env_ruin_tube_01_col.024_env_ruin_tube_01_col.190
v -20.221996 0.110816 -58.827988
v -20.221996 0.110816 -69.171906
v -28.246132 15.859066 -58.827988
v -16.271765 -0.065811 -58.962952
v -24.909214 16.387585 -58.716389
v -16.271765 -0.065812 -69.036957
v -24.909214 16.387583 -69.283516
v -28.246132 15.859066 -69.171906
s 1
f 193 194 198 196
f 194 193 195 200
f 196 197 195 193
f 196 198 199 197
f 194 200 199 198
f 199 200 195 197
g env_ruin_tube_01_col.025_env_ruin_tube_01_col.191
v -28.246132 24.806561 -58.827988
v -20.222000 40.554813 -58.827991
v -24.909214 24.278046 -58.716389
v -28.246132 24.806559 -69.171906
v -20.222000 40.554813 -69.171906
v -24.909214 24.278044 -69.283516
v -17.785412 38.118225 -69.171906
v -17.785412 38.118225 -58.827991
s 1
f 202 205 204 201
f 208 202 201 203
f 206 203 201 204
f 205 207 206 204
f 207 208 203 206
f 207 205 202 208
g env_ruin_tube_01_col.026_env_ruin_tube_01_col.192
v -20.222000 40.554813 -58.827991
v -4.473747 48.578953 -58.827991
v -17.785412 38.118225 -58.827991
v -20.222000 40.554813 -69.171906
v -17.785412 38.118225 -69.171906
v -4.473747 48.578953 -69.171906
v -3.934697 45.175522 -69.171906
v -3.934697 45.175522 -58.827991
s 1
f 209 210 214 212
f 209 211 216 210
f 213 211 209 212
f 215 213 212 214
f 215 214 210 216
f 211 213 215 216
g env_ruin_tube_01_col.027_env_ruin_tube_01_col.193
v 28.246132 24.806561 -58.827988
v 24.909214 24.278046 -58.716389
v 20.222000 40.554813 -58.827991
v 28.246132 24.806559 -69.171906
v 20.222000 40.554813 -69.171906
v 24.909214 24.278044 -69.283516
v 17.785416 38.118225 -69.171906
v 17.785416 38.118225 -58.827991
s 1
f 222 220 217 218
f 224 218 217 219
f 219 217 220 221
f 221 220 222 223
f 223 222 218 224
f 223 224 219 221
g env_ruin_tube_01_col.028_env_ruin_tube_01_col.194
v 20.221996 0.110816 -58.827988
v 20.221996 0.110816 -69.171906
v 28.246132 15.859066 -58.827988
v 16.271765 -0.065811 -58.962952
v 16.271765 -0.065812 -69.036957
v 24.909214 16.387585 -58.716389
v 24.909214 16.387583 -69.283516
v 28.246132 15.859066 -69.171906
s 1
f 225 228 229 226
f 226 232 227 225
f 228 225 227 230
f 228 230 231 229
f 231 230 227 232
f 226 229 231 232
g env_ruin_tube_01_col.029_env_ruin_tube_01_col.195
v 20.222000 40.554813 -58.827991
v 17.785416 38.118225 -58.827991
v 4.473749 48.578953 -58.827991
v 20.222000 40.554813 -69.171906
v 4.473749 48.578953 -69.171906
v 17.785416 38.118225 -69.171906
v 3.934699 45.175522 -69.171906
v 3.934699 45.175522 -58.827991
s 1
f 238 236 233 234
f 233 235 240 234
f 233 236 237 235
f 239 237 236 238
f 234 240 239 238
f 239 240 235 237
