# Blender 5.0.0
# www.blender.org
g Scraphill_col_Scraphill_col
v 0.000000 -2.976040 -10.000000
v -1.950903 -2.976040 -9.807853
v -3.826835 -2.976040 -9.238795
v -5.555702 -2.976040 -8.314696
v -7.071068 -2.976040 -7.071068
v -8.314696 -2.976040 -5.555702
v -9.238795 -2.976040 -3.826835
v -9.807853 -2.976040 -1.950903
v -10.000000 -2.976040 0.000000
v -9.807853 -2.976040 1.950903
v -9.238795 -2.976040 3.826835
v -8.314696 -2.976040 5.555702
v -7.071068 -2.976040 7.071068
v -5.555702 -2.976040 8.314696
v -3.826835 -2.976040 9.238795
v -1.950903 -2.976040 9.807853
v 0.000000 -2.976040 10.000000
v 1.950903 -2.976040 9.807853
v 3.826835 -2.976040 9.238795
v 5.555702 -2.976040 8.314696
v 7.071068 -2.976040 7.071068
v 8.314696 -2.976040 5.555702
v 9.238795 -2.976040 3.826835
v 9.807853 -2.976040 1.950903
v 10.000000 -2.976040 0.000000
v 9.807853 -2.976040 -1.950903
v 9.238795 -2.976040 -3.826835
v 8.314696 -2.976040 -5.555702
v 7.071068 -2.976040 -7.071068
v 5.555702 -2.976040 -8.314696
v 3.826835 -2.976040 -9.238795
v 1.950903 -2.976040 -9.807853
v -0.000000 -1.811657 -7.759447
v -1.513793 -1.811657 -7.610351
v -2.969412 -1.811657 -7.168794
v -4.310917 -1.811657 -6.451744
v -5.486757 -1.811657 -5.486757
v -6.451744 -1.811657 -4.310918
v -7.168794 -1.811657 -2.969412
v -7.610351 -1.811657 -1.513793
v -7.759447 -1.811657 -0.000000
v -7.610351 -1.811657 1.513793
v -7.168794 -1.811657 2.969412
v -6.451744 -1.811657 4.310917
v -5.486757 -1.811657 5.486757
v -4.310917 -1.811657 6.451744
v -2.969412 -1.811657 7.168794
v -1.513793 -1.811657 7.610351
v -0.000000 -1.811657 7.759447
v 1.513793 -1.811657 7.610351
v 2.969412 -1.811657 7.168794
v 4.310917 -1.811657 6.451744
v 5.486757 -1.811657 5.486757
v 6.451744 -1.811657 4.310917
v 7.168794 -1.811657 2.969412
v 7.610351 -1.811657 1.513793
v 7.759447 -1.811657 -0.000000
v 7.610351 -1.811657 -1.513793
v 7.168794 -1.811657 -2.969412
v 6.451744 -1.811657 -4.310918
v 5.486757 -1.811657 -5.486757
v 4.310917 -1.811657 -6.451744
v 2.969412 -1.811657 -7.168794
v 1.513793 -1.811657 -7.610351
v -0.000000 -0.750014 -6.257733
v -1.220823 -0.750014 -6.137492
v -2.394731 -0.750014 -5.781391
v -3.476610 -0.750014 -5.203115
v -4.424885 -0.750014 -4.424885
v -5.203115 -0.750014 -3.476610
v -5.781391 -0.750014 -2.394731
v -6.137492 -0.750014 -1.220823
v -6.257733 -0.750014 -0.000000
v -6.137492 -0.750014 1.220823
v -5.781391 -0.750014 2.394731
v -5.203115 -0.750014 3.476610
v -4.424885 -0.750014 4.424885
v -3.476610 -0.750014 5.203115
v -2.394731 -0.750014 5.781391
v -1.220823 -0.750014 6.137492
v -0.000000 -0.750014 6.257733
v 1.220823 -0.750014 6.137492
v 2.394731 -0.750014 5.781391
v 3.476610 -0.750014 5.203115
v 4.424885 -0.750014 4.424885
v 5.203115 -0.750014 3.476610
v 5.781391 -0.750014 2.394731
v 6.137492 -0.750014 1.220823
v 6.257733 -0.750014 -0.000000
v 6.137492 -0.750014 -1.220823
v 5.781391 -0.750014 -2.394731
v 5.203115 -0.750014 -3.476610
v 4.424885 -0.750014 -4.424885
v 3.476610 -0.750014 -5.203115
v 2.394731 -0.750014 -5.781391
v 1.220823 -0.750014 -6.137492
v 0.000000 0.243136 -5.117266
v -0.998329 0.243136 -5.018938
v -1.958293 0.243136 -4.727736
v -2.843000 0.243136 -4.254851
v -3.618453 0.243136 -3.618453
v -4.254851 0.243136 -2.843001
v -4.727736 0.243136 -1.958293
v -5.018938 0.243136 -0.998329
v -5.117266 0.243136 -0.000000
v -5.018938 0.243136 0.998329
v -4.727736 0.243136 1.958293
v -4.254851 0.243136 2.843000
v -3.618453 0.243136 3.618453
v -2.843000 0.243136 4.254851
v -1.958293 0.243136 4.727736
v -0.998329 0.243136 5.018938
v 0.000000 0.243136 5.117266
v 0.998329 0.243136 5.018938
v 1.958293 0.243136 4.727736
v 2.843001 0.243136 4.254851
v 3.618453 0.243136 3.618453
v 4.254851 0.243136 2.843000
v 4.727736 0.243136 1.958293
v 5.018938 0.243136 0.998329
v 5.117266 0.243136 -0.000000
v 5.018938 0.243136 -0.998329
v 4.727736 0.243136 -1.958293
v 4.254851 0.243136 -2.843001
v 3.618453 0.243136 -3.618453
v 2.843001 0.243136 -4.254851
v 1.958293 0.243136 -4.727736
v 0.998329 0.243136 -5.018938
v 0.000000 1.236287 -3.493119
v -0.681474 1.236287 -3.426000
v -1.336759 1.236287 -3.227222
v -1.940673 1.236287 -2.904423
v -2.470008 1.236287 -2.470009
v -2.904423 1.236287 -1.940674
v -3.227222 1.236287 -1.336759
v -3.426000 1.236287 -0.681474
v -3.493119 1.236287 -0.000000
v -3.426000 1.236287 0.681474
v -3.227222 1.236287 1.336759
v -2.904423 1.236287 1.940673
v -2.470008 1.236287 2.470008
v -1.940673 1.236287 2.904423
v -1.336759 1.236287 3.227222
v -0.681474 1.236287 3.426000
v 0.000000 1.236287 3.493119
v 0.681474 1.236287 3.426000
v 1.336759 1.236287 3.227222
v 1.940674 1.236287 2.904423
v 2.470008 1.236287 2.470008
v 2.904423 1.236287 1.940673
v 3.227222 1.236287 1.336759
v 3.426000 1.236287 0.681474
v 3.493119 1.236287 -0.000000
v 3.426000 1.236287 -0.681474
v 3.227222 1.236287 -1.336759
v 2.904423 1.236287 -1.940674
v 2.470008 1.236287 -2.470009
v 1.940674 1.236287 -2.904423
v 1.336759 1.236287 -3.227222
v 0.681474 1.236287 -3.426000
v 0.000000 1.818479 -2.263054
v -0.441500 1.818479 -2.219569
v -0.866033 1.818479 -2.090789
v -1.257285 1.818479 -1.881660
v -1.600220 1.818479 -1.600221
v -1.881660 1.818479 -1.257285
v -2.090789 1.818479 -0.866033
v -2.219569 1.818479 -0.441500
v -2.263053 1.818479 -0.000000
v -2.219569 1.818479 0.441500
v -2.090789 1.818479 0.866033
v -1.881660 1.818479 1.257285
v -1.600220 1.818479 1.600220
v -1.257285 1.818479 1.881660
v -0.866033 1.818479 2.090789
v -0.441500 1.818479 2.219569
v 0.000000 1.818479 2.263054
v 0.441500 1.818479 2.219569
v 0.866033 1.818479 2.090789
v 1.257285 1.818479 1.881660
v 1.600220 1.818479 1.600220
v 1.881660 1.818479 1.257285
v 2.090789 1.818479 0.866033
v 2.219570 1.818479 0.441500
v 2.263054 1.818479 -0.000000
v 2.219570 1.818479 -0.441500
v 2.090789 1.818479 -0.866033
v 1.881660 1.818479 -1.257285
v 1.600220 1.818479 -1.600221
v 1.257285 1.818479 -1.881660
v 0.866033 1.818479 -2.090789
v 0.441500 1.818479 -2.219569
v 0.000000 2.023959 -0.907294
v -0.177004 2.023959 -0.889861
v -0.347206 2.023959 -0.838230
v -0.504065 2.023959 -0.754387
v -0.641553 2.023959 -0.641554
v -0.754387 2.023959 -0.504066
v -0.838230 2.023959 -0.347206
v -0.889860 2.023959 -0.177004
v -0.907294 2.023959 -0.000000
v -0.889860 2.023959 0.177004
v -0.838230 2.023959 0.347206
v -0.754387 2.023959 0.504065
v -0.641553 2.023959 0.641553
v -0.504065 2.023959 0.754387
v -0.347206 2.023959 0.838230
v -0.177004 2.023959 0.889860
v 0.000000 2.023959 0.907294
v 0.177004 2.023959 0.889860
v 0.347206 2.023959 0.838230
v 0.504066 2.023959 0.754387
v 0.641554 2.023959 0.641553
v 0.754387 2.023959 0.504065
v 0.838230 2.023959 0.347206
v 0.889861 2.023959 0.177004
v 0.907294 2.023959 -0.000000
v 0.889861 2.023959 -0.177004
v 0.838230 2.023959 -0.347206
v 0.754387 2.023959 -0.504066
v 0.641554 2.023959 -0.641554
v 0.504066 2.023959 -0.754387
v 0.347206 2.023959 -0.838230
v 0.177004 2.023959 -0.889861
vn 0.1344 0.8864 -0.4430
vn 0.1344 0.8864 0.4430
vn -0.3578 0.8864 -0.2937
vn 0.0454 0.8864 -0.4607
vn 0.2182 0.8864 0.4082
vn -0.4082 0.8864 -0.2182
vn 0.2937 0.8864 0.3578
vn -0.4430 0.8864 -0.1344
vn 0.3578 0.8864 0.2937
vn -0.4607 0.8864 -0.0454
vn 0.4082 0.8864 0.2182
vn -0.4607 0.8864 0.0454
vn 0.4430 0.8864 0.1344
vn -0.4430 0.8864 0.1344
vn 0.4607 0.8864 0.0454
vn -0.4082 0.8864 0.2182
vn 0.4607 0.8864 -0.0454
vn -0.3578 0.8864 0.2937
vn 0.4430 0.8864 -0.1344
vn -0.2937 0.8864 0.3578
vn 0.4082 0.8864 -0.2182
vn -0.2182 0.8864 0.4082
vn -0.0454 0.8864 -0.4607
vn 0.3578 0.8864 -0.2937
vn -0.1344 0.8864 0.4430
vn -0.1344 0.8864 -0.4430
vn 0.2937 0.8864 -0.3578
vn -0.0454 0.8864 0.4607
vn -0.2182 0.8864 -0.4082
vn 0.2182 0.8864 -0.4082
vn 0.0454 0.8864 0.4607
vn -0.2937 0.8864 -0.3578
vn 0.5542 0.8152 -0.1681
vn -0.3674 0.8152 0.4477
vn 0.5107 0.8152 -0.2730
vn -0.2730 0.8152 0.5107
vn -0.0568 0.8152 -0.5763
vn 0.4477 0.8152 -0.3674
vn -0.1681 0.8152 0.5542
vn -0.1681 0.8152 -0.5542
vn 0.3674 0.8152 -0.4477
vn -0.0568 0.8152 0.5763
vn -0.2730 0.8152 -0.5107
vn 0.2730 0.8152 -0.5107
vn 0.0568 0.8152 0.5763
vn -0.3674 0.8152 -0.4477
vn 0.1681 0.8152 -0.5542
vn 0.1681 0.8152 0.5542
vn -0.4477 0.8152 -0.3674
vn 0.0568 0.8152 -0.5763
vn 0.2730 0.8152 0.5107
vn -0.5107 0.8152 -0.2730
vn 0.3674 0.8152 0.4477
vn -0.5542 0.8152 -0.1681
vn 0.4477 0.8152 0.3674
vn -0.5763 0.8152 -0.0568
vn 0.5107 0.8152 0.2730
vn -0.5763 0.8152 0.0568
vn 0.5542 0.8152 0.1681
vn -0.5542 0.8152 0.1681
vn 0.5763 0.8152 0.0568
vn -0.5107 0.8152 0.2730
vn 0.5763 0.8152 -0.0568
vn -0.4477 0.8152 0.3674
vn -0.1912 0.7526 -0.6302
vn 0.4178 0.7526 -0.5090
vn -0.0645 0.7526 0.6554
vn -0.3104 0.7526 -0.5808
vn 0.3104 0.7526 -0.5808
vn 0.0645 0.7526 0.6554
vn -0.4178 0.7526 -0.5090
vn 0.1912 0.7526 -0.6302
vn 0.1912 0.7526 0.6302
vn -0.5090 0.7526 -0.4178
vn 0.0645 0.7526 -0.6554
vn 0.3104 0.7526 0.5808
vn -0.5808 0.7526 -0.3104
vn 0.4178 0.7526 0.5090
vn -0.6302 0.7526 -0.1912
vn 0.5090 0.7526 0.4178
vn -0.6554 0.7526 -0.0645
vn 0.5808 0.7526 0.3104
vn -0.6554 0.7526 0.0645
vn 0.6302 0.7526 0.1912
vn -0.6302 0.7526 0.1912
vn 0.6554 0.7526 0.0645
vn -0.5808 0.7526 0.3104
vn 0.6554 0.7526 -0.0645
vn -0.5090 0.7526 0.4178
vn 0.6302 0.7526 -0.1912
vn -0.4178 0.7526 0.5090
vn 0.5808 0.7526 -0.3104
vn -0.3104 0.7526 0.5808
vn -0.0645 0.7526 -0.6554
vn 0.5090 0.7526 -0.4178
vn -0.1912 0.7526 0.6302
vn -0.4047 0.8520 -0.3321
vn 0.0513 0.8520 -0.5210
vn 0.2468 0.8520 0.4617
vn -0.4617 0.8520 -0.2468
vn 0.3321 0.8520 0.4047
vn -0.5010 0.8520 -0.1520
vn 0.4047 0.8520 0.3321
vn -0.5210 0.8520 -0.0513
vn 0.4617 0.8520 0.2468
vn -0.5210 0.8520 0.0513
vn 0.5010 0.8520 0.1520
vn -0.5010 0.8520 0.1520
vn 0.5210 0.8520 0.0513
vn -0.4617 0.8520 0.2468
vn 0.5210 0.8520 -0.0513
vn -0.4047 0.8520 0.3321
vn 0.5010 0.8520 -0.1520
vn -0.3321 0.8520 0.4047
vn 0.4617 0.8520 -0.2468
vn -0.2468 0.8520 0.4617
vn -0.0513 0.8520 -0.5210
vn 0.4047 0.8520 -0.3321
vn -0.1520 0.8520 0.5010
vn -0.1520 0.8520 -0.5010
vn 0.3321 0.8520 -0.4047
vn -0.0513 0.8520 0.5210
vn -0.2468 0.8520 -0.4617
vn 0.2468 0.8520 -0.4617
vn 0.0513 0.8520 0.5210
vn -0.3321 0.8520 -0.4047
vn 0.1520 0.8520 -0.5010
vn 0.1520 0.8520 0.5010
vn -0.4274 0.9031 -0.0421
vn 0.3788 0.9031 0.2025
vn -0.4274 0.9031 0.0421
vn 0.4110 0.9031 0.1247
vn -0.4110 0.9031 0.1247
vn 0.4274 0.9031 0.0421
vn -0.3788 0.9031 0.2025
vn 0.4274 0.9031 -0.0421
vn -0.3320 0.9031 0.2725
vn 0.4110 0.9031 -0.1247
vn -0.2725 0.9031 0.3320
vn 0.3788 0.9031 -0.2025
vn -0.2025 0.9031 0.3788
vn -0.0421 0.9031 -0.4274
vn 0.3320 0.9031 -0.2725
vn -0.1247 0.9031 0.4110
vn -0.1247 0.9031 -0.4110
vn 0.2725 0.9031 -0.3320
vn -0.0421 0.9031 0.4274
vn -0.2025 0.9031 -0.3788
vn 0.2025 0.9031 -0.3788
vn 0.0421 0.9031 0.4274
vn -0.2725 0.9031 -0.3320
vn 0.1247 0.9031 -0.4110
vn 0.1247 0.9031 0.4110
vn -0.3320 0.9031 -0.2725
vn 0.0421 0.9031 -0.4274
vn 0.2025 0.9031 0.3788
vn -0.3788 0.9031 -0.2025
vn 0.2725 0.9031 0.3320
vn -0.4110 0.9031 -0.1247
vn 0.3320 0.9031 0.2725
vn -0.1328 0.9886 0.0710
vn 0.1498 0.9886 -0.0148
vn -0.1164 0.9886 0.0955
vn 0.1441 0.9886 -0.0437
vn -0.0955 0.9886 0.1164
vn 0.1328 0.9886 -0.0710
vn -0.0710 0.9886 0.1328
vn -0.0148 0.9886 -0.1498
vn 0.1164 0.9886 -0.0955
vn -0.0437 0.9886 0.1441
vn -0.0437 0.9886 -0.1441
vn 0.0955 0.9886 -0.1164
vn -0.0148 0.9886 0.1498
vn -0.0710 0.9886 -0.1328
vn 0.0710 0.9886 -0.1328
vn 0.0148 0.9886 0.1498
vn -0.0955 0.9886 -0.1164
vn 0.0437 0.9886 -0.1441
vn 0.0437 0.9886 0.1441
vn -0.1164 0.9886 -0.0955
vn 0.0148 0.9886 -0.1498
vn 0.0710 0.9886 0.1328
vn -0.1328 0.9886 -0.0710
vn 0.0955 0.9886 0.1164
vn -0.1441 0.9886 -0.0437
vn 0.1164 0.9886 0.0955
vn -0.1498 0.9886 -0.0148
vn 0.1328 0.9886 0.0710
vn -0.1498 0.9886 0.0148
vn 0.1441 0.9886 0.0437
vn -0.1441 0.9886 0.0437
vn 0.1498 0.9886 0.0148
vn -0.0000 1.0000 -0.0000
vt 0.000000 0.000000
s 0
f 32/1/1 64/1/1 63/1/1 31/1/1
f 19/1/2 51/1/2 50/1/2 18/1/2
f 6/1/3 38/1/3 37/1/3 5/1/3
f 1/1/4 33/1/4 64/1/4 32/1/4
f 20/1/5 52/1/5 51/1/5 19/1/5
f 7/1/6 39/1/6 38/1/6 6/1/6
f 21/1/7 53/1/7 52/1/7 20/1/7
f 8/1/8 40/1/8 39/1/8 7/1/8
f 22/1/9 54/1/9 53/1/9 21/1/9
f 9/1/10 41/1/10 40/1/10 8/1/10
f 23/1/11 55/1/11 54/1/11 22/1/11
f 10/1/12 42/1/12 41/1/12 9/1/12
f 24/1/13 56/1/13 55/1/13 23/1/13
f 11/1/14 43/1/14 42/1/14 10/1/14
f 25/1/15 57/1/15 56/1/15 24/1/15
f 12/1/16 44/1/16 43/1/16 11/1/16
f 26/1/17 58/1/17 57/1/17 25/1/17
f 13/1/18 45/1/18 44/1/18 12/1/18
f 27/1/19 59/1/19 58/1/19 26/1/19
f 14/1/20 46/1/20 45/1/20 13/1/20
f 28/1/21 60/1/21 59/1/21 27/1/21
f 15/1/22 47/1/22 46/1/22 14/1/22
f 2/1/23 34/1/23 33/1/23 1/1/23
f 29/1/24 61/1/24 60/1/24 28/1/24
f 16/1/25 48/1/25 47/1/25 15/1/25
f 3/1/26 35/1/26 34/1/26 2/1/26
f 30/1/27 62/1/27 61/1/27 29/1/27
f 17/1/28 49/1/28 48/1/28 16/1/28
f 4/1/29 36/1/29 35/1/29 3/1/29
f 31/1/30 63/1/30 62/1/30 30/1/30
f 18/1/31 50/1/31 49/1/31 17/1/31
f 5/1/32 37/1/32 36/1/32 4/1/32
f 59/1/33 91/1/33 90/1/33 58/1/33
f 46/1/34 78/1/34 77/1/34 45/1/34
f 60/1/35 92/1/35 91/1/35 59/1/35
f 47/1/36 79/1/36 78/1/36 46/1/36
f 34/1/37 66/1/37 65/1/37 33/1/37
f 61/1/38 93/1/38 92/1/38 60/1/38
f 48/1/39 80/1/39 79/1/39 47/1/39
f 35/1/40 67/1/40 66/1/40 34/1/40
f 62/1/41 94/1/41 93/1/41 61/1/41
f 49/1/42 81/1/42 80/1/42 48/1/42
f 36/1/43 68/1/43 67/1/43 35/1/43
f 63/1/44 95/1/44 94/1/44 62/1/44
f 50/1/45 82/1/45 81/1/45 49/1/45
f 37/1/46 69/1/46 68/1/46 36/1/46
f 64/1/47 96/1/47 95/1/47 63/1/47
f 51/1/48 83/1/48 82/1/48 50/1/48
f 38/1/49 70/1/49 69/1/49 37/1/49
f 33/1/50 65/1/50 96/1/50 64/1/50
f 52/1/51 84/1/51 83/1/51 51/1/51
f 39/1/52 71/1/52 70/1/52 38/1/52
f 53/1/53 85/1/53 84/1/53 52/1/53
f 40/1/54 72/1/54 71/1/54 39/1/54
f 54/1/55 86/1/55 85/1/55 53/1/55
f 41/1/56 73/1/56 72/1/56 40/1/56
f 55/1/57 87/1/57 86/1/57 54/1/57
f 42/1/58 74/1/58 73/1/58 41/1/58
f 56/1/59 88/1/59 87/1/59 55/1/59
f 43/1/60 75/1/60 74/1/60 42/1/60
f 57/1/61 89/1/61 88/1/61 56/1/61
f 44/1/62 76/1/62 75/1/62 43/1/62
f 58/1/63 90/1/63 89/1/63 57/1/63
f 45/1/64 77/1/64 76/1/64 44/1/64
f 67/1/65 99/1/65 98/1/65 66/1/65
f 94/1/66 126/1/66 125/1/66 93/1/66
f 81/1/67 113/1/67 112/1/67 80/1/67
f 68/1/68 100/1/68 99/1/68 67/1/68
f 95/1/69 127/1/69 126/1/69 94/1/69
f 82/1/70 114/1/70 113/1/70 81/1/70
f 69/1/71 101/1/71 100/1/71 68/1/71
f 96/1/72 128/1/72 127/1/72 95/1/72
f 83/1/73 115/1/73 114/1/73 82/1/73
f 70/1/74 102/1/74 101/1/74 69/1/74
f 65/1/75 97/1/75 128/1/75 96/1/75
f 84/1/76 116/1/76 115/1/76 83/1/76
f 71/1/77 103/1/77 102/1/77 70/1/77
f 85/1/78 117/1/78 116/1/78 84/1/78
f 72/1/79 104/1/79 103/1/79 71/1/79
f 86/1/80 118/1/80 117/1/80 85/1/80
f 73/1/81 105/1/81 104/1/81 72/1/81
f 87/1/82 119/1/82 118/1/82 86/1/82
f 74/1/83 106/1/83 105/1/83 73/1/83
f 88/1/84 120/1/84 119/1/84 87/1/84
f 75/1/85 107/1/85 106/1/85 74/1/85
f 89/1/86 121/1/86 120/1/86 88/1/86
f 76/1/87 108/1/87 107/1/87 75/1/87
f 90/1/88 122/1/88 121/1/88 89/1/88
f 77/1/89 109/1/89 108/1/89 76/1/89
f 91/1/90 123/1/90 122/1/90 90/1/90
f 78/1/91 110/1/91 109/1/91 77/1/91
f 92/1/92 124/1/92 123/1/92 91/1/92
f 79/1/93 111/1/93 110/1/93 78/1/93
f 66/1/94 98/1/94 97/1/94 65/1/94
f 93/1/95 125/1/95 124/1/95 92/1/95
f 80/1/96 112/1/96 111/1/96 79/1/96
f 102/1/97 134/1/97 133/1/97 101/1/97
f 97/1/98 129/1/98 160/1/98 128/1/98
f 116/1/99 148/1/99 147/1/99 115/1/99
f 103/1/100 135/1/100 134/1/100 102/1/100
f 117/1/101 149/1/101 148/1/101 116/1/101
f 104/1/102 136/1/102 135/1/102 103/1/102
f 118/1/103 150/1/103 149/1/103 117/1/103
f 105/1/104 137/1/104 136/1/104 104/1/104
f 119/1/105 151/1/105 150/1/105 118/1/105
f 106/1/106 138/1/106 137/1/106 105/1/106
f 120/1/107 152/1/107 151/1/107 119/1/107
f 107/1/108 139/1/108 138/1/108 106/1/108
f 121/1/109 153/1/109 152/1/109 120/1/109
f 108/1/110 140/1/110 139/1/110 107/1/110
f 122/1/111 154/1/111 153/1/111 121/1/111
f 109/1/112 141/1/112 140/1/112 108/1/112
f 123/1/113 155/1/113 154/1/113 122/1/113
f 110/1/114 142/1/114 141/1/114 109/1/114
f 124/1/115 156/1/115 155/1/115 123/1/115
f 111/1/116 143/1/116 142/1/116 110/1/116
f 98/1/117 130/1/117 129/1/117 97/1/117
f 125/1/118 157/1/118 156/1/118 124/1/118
f 112/1/119 144/1/119 143/1/119 111/1/119
f 99/1/120 131/1/120 130/1/120 98/1/120
f 126/1/121 158/1/121 157/1/121 125/1/121
f 113/1/122 145/1/122 144/1/122 112/1/122
f 100/1/123 132/1/123 131/1/123 99/1/123
f 127/1/124 159/1/124 158/1/124 126/1/124
f 114/1/125 146/1/125 145/1/125 113/1/125
f 101/1/126 133/1/126 132/1/126 100/1/126
f 128/1/127 160/1/127 159/1/127 127/1/127
f 115/1/128 147/1/128 146/1/128 114/1/128
f 137/1/129 169/1/129 168/1/129 136/1/129
f 151/1/130 183/1/130 182/1/130 150/1/130
f 138/1/131 170/1/131 169/1/131 137/1/131
f 152/1/132 184/1/132 183/1/132 151/1/132
f 139/1/133 171/1/133 170/1/133 138/1/133
f 153/1/134 185/1/134 184/1/134 152/1/134
f 140/1/135 172/1/135 171/1/135 139/1/135
f 154/1/136 186/1/136 185/1/136 153/1/136
f 141/1/137 173/1/137 172/1/137 140/1/137
f 155/1/138 187/1/138 186/1/138 154/1/138
f 142/1/139 174/1/139 173/1/139 141/1/139
f 156/1/140 188/1/140 187/1/140 155/1/140
f 143/1/141 175/1/141 174/1/141 142/1/141
f 130/1/142 162/1/142 161/1/142 129/1/142
f 157/1/143 189/1/143 188/1/143 156/1/143
f 144/1/144 176/1/144 175/1/144 143/1/144
f 131/1/145 163/1/145 162/1/145 130/1/145
f 158/1/146 190/1/146 189/1/146 157/1/146
f 145/1/147 177/1/147 176/1/147 144/1/147
f 132/1/148 164/1/148 163/1/148 131/1/148
f 159/1/149 191/1/149 190/1/149 158/1/149
f 146/1/150 178/1/150 177/1/150 145/1/150
f 133/1/151 165/1/151 164/1/151 132/1/151
f 160/1/152 192/1/152 191/1/152 159/1/152
f 147/1/153 179/1/153 178/1/153 146/1/153
f 134/1/154 166/1/154 165/1/154 133/1/154
f 129/1/155 161/1/155 192/1/155 160/1/155
f 148/1/156 180/1/156 179/1/156 147/1/156
f 135/1/157 167/1/157 166/1/157 134/1/157
f 149/1/158 181/1/158 180/1/158 148/1/158
f 136/1/159 168/1/159 167/1/159 135/1/159
f 150/1/160 182/1/160 181/1/160 149/1/160
f 172/1/161 204/1/161 203/1/161 171/1/161
f 186/1/162 218/1/162 217/1/162 185/1/162
f 173/1/163 205/1/163 204/1/163 172/1/163
f 187/1/164 219/1/164 218/1/164 186/1/164
f 174/1/165 206/1/165 205/1/165 173/1/165
f 188/1/166 220/1/166 219/1/166 187/1/166
f 175/1/167 207/1/167 206/1/167 174/1/167
f 162/1/168 194/1/168 193/1/168 161/1/168
f 189/1/169 221/1/169 220/1/169 188/1/169
f 176/1/170 208/1/170 207/1/170 175/1/170
f 163/1/171 195/1/171 194/1/171 162/1/171
f 190/1/172 222/1/172 221/1/172 189/1/172
f 177/1/173 209/1/173 208/1/173 176/1/173
f 164/1/174 196/1/174 195/1/174 163/1/174
f 191/1/175 223/1/175 222/1/175 190/1/175
f 178/1/176 210/1/176 209/1/176 177/1/176
f 165/1/177 197/1/177 196/1/177 164/1/177
f 192/1/178 224/1/178 223/1/178 191/1/178
f 179/1/179 211/1/179 210/1/179 178/1/179
f 166/1/180 198/1/180 197/1/180 165/1/180
f 161/1/181 193/1/181 224/1/181 192/1/181
f 180/1/182 212/1/182 211/1/182 179/1/182
f 167/1/183 199/1/183 198/1/183 166/1/183
f 181/1/184 213/1/184 212/1/184 180/1/184
f 168/1/185 200/1/185 199/1/185 167/1/185
f 182/1/186 214/1/186 213/1/186 181/1/186
f 169/1/187 201/1/187 200/1/187 168/1/187
f 183/1/188 215/1/188 214/1/188 182/1/188
f 170/1/189 202/1/189 201/1/189 169/1/189
f 184/1/190 216/1/190 215/1/190 183/1/190
f 171/1/191 203/1/191 202/1/191 170/1/191
f 185/1/192 217/1/192 216/1/192 184/1/192
f 194/1/193 195/1/193 196/1/193 197/1/193 198/1/193 199/1/193 200/1/193 201/1/193 202/1/193 203/1/193 204/1/193 205/1/193 206/1/193 207/1/193 208/1/193 209/1/193 210/1/193 211/1/193 212/1/193 213/1/193 214/1/193 215/1/193 216/1/193 217/1/193 218/1/193 219/1/193 220/1/193 221/1/193 222/1/193 223/1/193 224/1/193 193/1/193
