<?xml version="1.0" encoding="utf-8"?>
<COLLADA xmlns="http://www.collada.org/2005/11/COLLADASchema" version="1.4.1" xmlns:xsi="http://www.w3.org/2001/XMLSchema-instance">
  <asset>
    <contributor>
      <author>Blender User</author>
      <authoring_tool>Blender 2.79.0 commit date:2018-02-21, commit time:10:41, hash:8928d99270f</authoring_tool>
    </contributor>
    <created>2018-04-05T17:28:39</created>
    <modified>2018-04-05T17:28:39</modified>
    <unit name="meter" meter="1"/>
    <up_axis>Z_UP</up_axis>
  </asset>
  <library_images>
    <image id="blk_bricks01_UVMapping_png_001" name="blk_bricks01_UVMapping_png_001">
      <init_from>blk_bricks01_UVMapping.png.001.png</init_from>
    </image>
  </library_images>
  <library_effects>
    <effect id="None-effect">
      <profile_COMMON>
        <newparam sid="blk_bricks01_UVMapping_png_001-surface">
          <surface type="2D">
            <init_from>blk_bricks01_UVMapping_png_001</init_from>
          </surface>
        </newparam>
        <newparam sid="blk_bricks01_UVMapping_png_001-sampler">
          <sampler2D>
            <source>blk_bricks01_UVMapping_png_001-surface</source>
          </sampler2D>
        </newparam>
        <technique sid="common">
          <phong>
            <emission>
              <color sid="emission">0 0 0 1</color>
            </emission>
            <ambient>
              <color sid="ambient">0 0 0 1</color>
            </ambient>
            <diffuse>
              <texture texture="blk_bricks01_UVMapping_png_001-sampler"/>
            </diffuse>
            <specular>
              <color sid="specular">0.8 0.8 0.8 1</color>
            </specular>
            <shininess>
              <float sid="shininess">1</float>
            </shininess>
            <transparent opaque="A_ONE">
              <color>1 1 1 1</color>
            </transparent>
            <index_of_refraction>
              <float sid="index_of_refraction">1</float>
            </index_of_refraction>
          </phong>
        </technique>
      </profile_COMMON>
    </effect>
  </library_effects>
  <library_materials>
    <material id="None-material" name="None">
      <instance_effect url="#None-effect"/>
    </material>
  </library_materials>
  <library_geometries>
    <geometry id="Cube_Cube_001-mesh" name="Cube_Cube.001">
      <mesh>
        <source id="Cube_Cube_001-mesh-positions">
          <float_array id="Cube_Cube_001-mesh-positions-array" count="24">-8 -0.5000004 -8 -8 -0.4999977 8 -8 0.5000021 8 -8 0.4999994 -8 8 0.5000004 8 8 0.4999977 -8 8 -0.4999994 8 8 -0.5000021 -8</float_array>
          <technique_common>
            <accessor source="#Cube_Cube_001-mesh-positions-array" count="8" stride="3">
              <param name="X" type="float"/>
              <param name="Y" type="float"/>
              <param name="Z" type="float"/>
            </accessor>
          </technique_common>
        </source>
        <source id="Cube_Cube_001-mesh-normals">
          <float_array id="Cube_Cube_001-mesh-normals-array" count="66">-1 -8.9683e-7 0 -1 4.19992e-7 0 -1 -9.53674e-7 0 0 1 -1.69501e-7 0 1 -1.69501e-7 0 1 -1.71363e-7 1 8.9683e-7 0 1 -4.19992e-7 0 1 -4.76837e-7 0 0 -1 1.69501e-7 0 -1 1.69501e-7 0 -1 1.67638e-7 0 -4.76837e-7 -1 0 -4.76837e-7 -1 0 -4.76837e-7 -1 0 4.76837e-7 1 0 4.76837e-7 1 -1 4.76837e-7 0 0 1 -1.67638e-7 1 9.53674e-7 0 0 -1 1.71363e-7 0 -4.76837e-7 -1</float_array>
          <technique_common>
            <accessor source="#Cube_Cube_001-mesh-normals-array" count="22" stride="3">
              <param name="X" type="float"/>
              <param name="Y" type="float"/>
              <param name="Z" type="float"/>
            </accessor>
          </technique_common>
        </source>
        <source id="Cube_Cube_001-mesh-map-0">
          <float_array id="Cube_Cube_001-mesh-map-0-array" count="72">0.4375 3.40625 0.5625002 5.40625 0.5624999 3.40625 0.5000001 5.40625 2.5 3.40625 0.5000001 3.40625 0.5625001 5.40625 0.4374997 3.40625 0.5624997 3.40625 0.5 5.40625 -1.5 3.40625 0.5 3.40625 2.5 3.468749 0.5000001 3.34375 0.5000001 3.46875 -1.5 3.46875 0.5 3.34375 0.5 3.46875 0.4375 3.40625 0.4375003 5.40625 0.5625002 5.40625 0.5000001 5.40625 2.5 5.40625 2.5 3.40625 0.5625001 5.40625 0.4375001 5.40625 0.4374997 3.40625 0.5 5.40625 -1.5 5.40625 -1.5 3.40625 2.5 3.468749 2.5 3.34375 0.5000001 3.34375 -1.5 3.46875 -1.5 3.34375 0.5 3.34375</float_array>
          <technique_common>
            <accessor source="#Cube_Cube_001-mesh-map-0-array" count="36" stride="2">
              <param name="S" type="float"/>
              <param name="T" type="float"/>
            </accessor>
          </technique_common>
        </source>
        <vertices id="Cube_Cube_001-mesh-vertices">
          <input semantic="POSITION" source="#Cube_Cube_001-mesh-positions"/>
        </vertices>
        <triangles material="None-material" count="12">
          <input semantic="VERTEX" source="#Cube_Cube_001-mesh-vertices" offset="0"/>
          <input semantic="NORMAL" source="#Cube_Cube_001-mesh-normals" offset="1"/>
          <input semantic="TEXCOORD" source="#Cube_Cube_001-mesh-map-0" offset="2" set="0"/>
          <p>0 0 0 2 1 1 3 2 2 2 3 3 5 4 4 3 5 5 4 6 6 7 7 7 5 8 8 6 9 9 0 10 10 7 11 11 5 12 12 0 13 13 3 14 14 2 15 15 6 15 16 4 16 17 0 0 18 1 17 19 2 1 20 2 3 21 4 18 22 5 4 23 4 6 24 6 19 25 7 7 26 6 9 27 1 20 28 0 10 29 5 12 30 7 21 31 0 13 32 2 15 33 1 16 34 6 15 35</p>
        </triangles>
      </mesh>
    </geometry>
  </library_geometries>
  <library_controllers/>
  <library_visual_scenes>
    <visual_scene id="Scene" name="Scene">
      <node id="Cube_Cube_001" name="Cube_Cube_001" type="NODE">
        <matrix sid="transform">1 0 0 0 0 -1.62921e-7 -1 0 0 1 -1.62921e-7 0 0 0 0 1</matrix>
        <instance_geometry url="#Cube_Cube_001-mesh" name="Cube_Cube_001">
          <bind_material>
            <technique_common>
              <instance_material symbol="None-material" target="#None-material"/>
            </technique_common>
          </bind_material>
        </instance_geometry>
      </node>
    </visual_scene>
  </library_visual_scenes>
  <scene>
    <instance_visual_scene url="#Scene"/>
  </scene>
</COLLADA>