# Blender v2.78 (sub 0) OBJ File: 'BigPipe.blend'
# www.blender.org
mtllib BigPipe.mtl
o Circle
v -1.950902 1.192134 -5.000004
v 0.000002 0.999989 -5.000004
v 0.000003 -0.089418 -5.000004
v -2.163434 0.123659 -5.000004
v 8.314698 5.444314 -45.000004
v 7.071071 3.928947 -45.000004
v 7.841399 3.158621 -45.000004
v 9.220508 4.839071 -45.000004
v 9.238797 7.173183 -45.000004
v 10.245277 6.756285 -45.000004
v 1.950906 1.192135 -5.000004
v 2.163440 0.123661 -5.000004
v 9.807853 9.049117 -45.000004
v 10.876328 8.836584 -45.000004
v 3.826838 1.761194 -5.000003
v 4.243736 0.754713 -5.000004
v 9.999998 11.000021 -45.000004
v 11.089405 11.000022 -45.000004
v 5.555706 2.685294 -5.000003
v 6.160948 1.779485 -5.000003
v 9.807849 12.950925 -45.000000
v 10.876323 13.163458 -45.000000
v 7.071071 3.928922 -5.000003
v 7.841399 3.158596 -5.000003
v 9.238789 14.826857 -45.000000
v 10.245270 15.243756 -45.000000
v 8.314698 5.444290 -5.000003
v 9.220508 4.839049 -5.000003
v 8.314688 16.555725 -45.000000
v 9.220496 17.160967 -45.000000
v -1.950904 20.807863 -45.000000
v -0.000001 21.000011 -45.000000
v -0.000001 22.089417 -45.000000
v -2.163437 21.876335 -45.000000
v 9.238797 7.173160 -5.000003
v 10.245277 6.756262 -5.000003
v 7.071057 18.071089 -45.000000
v 7.841383 18.841415 -45.000000
v -3.826835 20.238806 -45.000000
v -4.243733 21.245285 -45.000000
v 9.807853 9.049093 -5.000002
v 10.876328 8.836562 -5.000002
v 5.555689 19.314714 -45.000000
v 6.160931 20.220524 -45.000000
v -5.555703 19.314707 -45.000000
v -6.160945 20.220516 -45.000000
v 9.999998 10.999997 -5.000002
v 11.089405 10.999998 -5.000002
v 3.826820 20.238811 -45.000000
v 4.243716 21.245293 -45.000000
v -7.071068 18.071079 -45.000000
v -7.841395 18.841406 -45.000000
v 9.807849 12.950901 -5.000002
v 10.876323 13.163436 -5.000002
v 1.950887 20.807865 -45.000000
v 2.163419 21.876339 -45.000000
v -8.314697 16.555714 -45.000000
v -9.220506 17.160955 -45.000000
v 9.238789 14.826832 -5.000001
v 10.245270 15.243731 -5.000001
v -9.238795 14.826845 -45.000000
v -10.245276 15.243744 -45.000000
v 8.314688 16.555700 -5.000001
v 9.220496 17.160940 -5.000001
v -0.000001 20.999987 -5.000000
v -1.950904 20.807838 -5.000000
v -2.163437 21.876316 -5.000000
v -0.000001 22.089394 -5.000000
v -9.807853 12.950915 -45.000000
v -10.876328 13.163447 -45.000000
v 7.071057 18.071062 -5.000001
v 7.841383 18.841391 -5.000001
v -3.826835 20.238781 -5.000000
v -4.243733 21.245262 -5.000000
v -10.000000 11.000012 -45.000004
v -11.089407 11.000012 -45.000004
v 5.555689 19.314690 -5.000000
v 6.160931 20.220501 -5.000000
v -5.555703 19.314682 -5.000000
v -6.160945 20.220491 -5.000000
v -9.807854 9.049109 -45.000004
v -10.876328 8.836576 -45.000004
v 3.826820 20.238789 -5.000000
v 4.243716 21.245270 -5.000000
v -7.071068 18.071054 -5.000001
v -7.841395 18.841379 -5.000001
v -9.238796 7.173178 -45.000004
v -10.245276 6.756280 -45.000004
v 1.950887 20.807842 -5.000000
v 2.163418 21.876316 -5.000000
v -8.314697 16.555689 -5.000001
v -9.220506 17.160931 -5.000001
v -8.314697 5.444308 -45.000004
v -9.220506 4.839065 -45.000004
v -9.238795 14.826821 -5.000001
v -10.245276 15.243718 -5.000001
v -7.071068 3.928943 -45.000004
v -7.841395 3.158616 -45.000004
v -9.807853 12.950891 -5.000002
v -10.876328 13.163424 -5.000002
v -5.555702 2.685315 -45.000004
v -6.160945 1.779504 -45.000004
v -10.000000 10.999988 -5.000002
v -11.089407 10.999988 -5.000002
v -3.826833 1.761214 -45.000004
v -4.243731 0.754732 -45.000004
v -9.807854 9.049085 -5.000002
v -10.876328 8.836554 -5.000002
v -1.950902 1.192157 -45.000004
v -2.163434 0.123681 -45.000004
v -9.238796 7.173155 -5.000003
v -10.245276 6.756255 -5.000003
v 0.000002 1.000012 -45.000004
v 0.000003 -0.089396 -45.000004
v -8.314697 5.444284 -5.000003
v -9.220506 4.839042 -5.000003
v 1.950906 1.192158 -45.000004
v 2.163440 0.123682 -45.000004
v -7.071068 3.928919 -5.000003
v -7.841395 3.158591 -5.000003
v 3.826838 1.761217 -45.000004
v 4.243736 0.754735 -45.000004
v -5.555702 2.685291 -5.000003
v -6.160945 1.779482 -5.000003
v 5.555706 2.685317 -45.000004
v 6.160948 1.779508 -45.000004
v -3.826833 1.761191 -5.000003
v -4.243731 0.754711 -5.000004
v 0.000000 20.061417 -50.000000
v -1.767792 19.887302 -50.000000
v -2.163437 21.876339 -50.000000
v -0.000001 22.089418 -50.000000
v -3.467650 19.371655 -50.000000
v -4.243733 21.245287 -50.000000
v -5.034247 18.534294 -50.000000
v -6.160945 20.220516 -50.000000
v -6.407379 17.407391 -50.000000
v -7.841395 18.841408 -50.000000
v -7.534282 16.034256 -50.000000
v -9.220506 17.160955 -50.000000
v -8.371645 14.467662 -50.000000
v -10.245276 15.243747 -50.000000
v -8.887291 12.767806 -50.000000
v -10.876328 13.163449 -50.000000
v -9.061403 11.000014 -50.000004
v -11.089407 11.000014 -50.000004
v -8.887291 9.232223 -50.000004
v -10.876328 8.836579 -50.000004
v -8.371645 7.532365 -50.000004
v -10.245276 6.756282 -50.000004
v -7.534282 5.965766 -50.000004
v -9.220506 4.839068 -50.000004
v -6.407380 4.592633 -50.000004
v -7.841395 3.158617 -50.000004
v -5.034245 3.465730 -50.000004
v -6.160945 1.779507 -50.000004
v -3.467648 2.628366 -50.000004
v -4.243731 0.754733 -50.000004
v -1.767792 2.112722 -50.000004
v -2.163434 0.123684 -50.000004
v 0.000002 1.938611 -50.000004
v 0.000003 -0.089393 -50.000004
v 1.767796 2.112722 -50.000004
v 2.163440 0.123685 -50.000004
v 3.467651 2.628369 -50.000004
v 4.243736 0.754737 -50.000004
v 5.034248 3.465734 -50.000004
v 6.160948 1.779511 -50.000004
v 6.407382 4.592637 -50.000004
v 7.841399 3.158623 -50.000004
v 7.534282 5.965771 -50.000004
v 9.220508 4.839074 -50.000004
v 8.371646 7.532370 -50.000004
v 10.245277 6.756288 -50.000004
v 8.887290 9.232229 -50.000004
v 10.876328 8.836587 -50.000004
v 9.061401 11.000022 -50.000004
v 11.089405 11.000024 -50.000004
v 8.887287 12.767815 -50.000000
v 10.876323 13.163461 -50.000000
v 8.371638 14.467671 -50.000000
v 10.245270 15.243758 -50.000000
v 7.534273 16.034267 -50.000000
v 9.220496 17.160969 -50.000000
v 6.407370 17.407400 -50.000000
v 7.841383 18.841417 -50.000000
v 5.034234 18.534300 -50.000000
v 6.160931 20.220526 -50.000000
v 3.467636 19.371662 -50.000000
v 4.243716 21.245293 -50.000000
v 1.767777 19.887304 -50.000000
v 2.163419 21.876343 -50.000000
v -1.767793 19.887276 -0.000001
v 0.000000 20.061386 -0.000001
v -0.000001 22.089390 -0.000000
v -2.163437 21.876312 -0.000000
v -3.467649 19.371628 -0.000001
v -4.243733 21.245260 -0.000000
v -5.034246 18.534266 -0.000001
v -6.160945 20.220490 -0.000001
v -6.407380 17.407364 -0.000001
v -7.841395 18.841377 -0.000001
v -7.534282 16.034229 -0.000001
v -9.220506 17.160927 -0.000001
v -8.371645 14.467633 -0.000001
v -10.245276 15.243717 -0.000001
v -8.887291 12.767777 -0.000002
v -10.876328 13.163422 -0.000002
v -9.061403 10.999985 -0.000002
v -11.089407 10.999985 -0.000002
v -8.887291 9.232194 -0.000002
v -10.876328 8.836550 -0.000002
v -8.371645 7.532337 -0.000003
v -10.245276 6.756253 -0.000003
v -7.534282 5.965737 -0.000003
v -9.220506 4.839039 -0.000003
v -6.407380 4.592603 -0.000003
v -7.841395 3.158589 -0.000003
v -5.034246 3.465702 -0.000003
v -6.160945 1.779478 -0.000004
v -3.467648 2.628339 -0.000003
v -4.243731 0.754707 -0.000004
v -1.767791 2.112693 -0.000003
v -2.163434 0.123655 -0.000004
v 0.000002 1.938582 -0.000003
v 0.000003 -0.089422 -0.000004
v 1.767796 2.112694 -0.000003
v 2.163440 0.123657 -0.000004
v 3.467652 2.628340 -0.000003
v 4.243736 0.754709 -0.000004
v 5.034249 3.465705 -0.000003
v 6.160948 1.779483 -0.000004
v 6.407382 4.592608 -0.000003
v 7.841399 3.158592 -0.000003
v 7.534283 5.965743 -0.000003
v 9.220508 4.839046 -0.000003
v 8.371646 7.532342 -0.000003
v 10.245277 6.756260 -0.000003
v 8.887290 9.232201 -0.000002
v 10.876328 8.836558 -0.000002
v 9.061401 10.999993 -0.000002
v 11.089405 10.999995 -0.000002
v 8.887287 12.767786 -0.000002
v 10.876323 13.163432 -0.000002
v 8.371638 14.467643 -0.000001
v 10.245270 15.243729 -0.000001
v 7.534273 16.034237 -0.000001
v 9.220496 17.160938 -0.000001
v 6.407370 17.407372 -0.000001
v 7.841383 18.841389 -0.000001
v 5.034233 18.534271 -0.000001
v 6.160931 20.220497 -0.000001
v 3.467635 19.371634 -0.000001
v 4.243716 21.245266 -0.000000
v 1.767777 19.887276 -0.000001
v 2.163418 21.876314 -0.000000
vt 0.6419 0.1594
vt 0.6460 0.1610
vt 0.6441 0.1620
vt 0.6394 0.1602
vt 0.5859 0.1418
vt 0.5810 0.1431
vt 0.5790 0.1421
vt 0.5844 0.1407
vt 0.5912 0.1409
vt 0.5902 0.1397
vt 0.6509 0.1623
vt 0.6492 0.1634
vt 0.5968 0.1405
vt 0.5966 0.1392
vt 0.6560 0.1631
vt 0.6553 0.1644
vt 0.6027 0.1405
vt 0.6029 0.1392
vt 0.6618 0.1636
vt 0.6614 0.1649
vt 0.6083 0.1409
vt 0.6092 0.1397
vt 0.6674 0.1636
vt 0.6679 0.1649
vt 0.6136 0.1418
vt 0.6151 0.1407
vt 0.6733 0.1631
vt 0.6743 0.1644
vt 0.6183 0.1431
vt 0.6204 0.1421
vt 0.6277 0.1554
vt 0.6290 0.1532
vt 0.6321 0.1533
vt 0.6309 0.1558
vt 0.6786 0.1623
vt 0.6801 0.1634
vt 0.6224 0.1447
vt 0.6248 0.1439
vt 0.6256 0.1575
vt 0.6285 0.1581
vt 0.6833 0.1610
vt 0.6855 0.1620
vt 0.6256 0.1466
vt 0.6285 0.1460
vt 0.6224 0.1594
vt 0.6248 0.1602
vt 0.6874 0.1594
vt 0.6898 0.1602
vt 0.6277 0.1487
vt 0.6309 0.1483
vt 0.6183 0.1610
vt 0.6204 0.1620
vt 0.6906 0.1575
vt 0.6935 0.1581
vt 0.6290 0.1509
vt 0.6321 0.1508
vt 0.6136 0.1623
vt 0.6151 0.1634
vt 0.6928 0.1554
vt 0.6959 0.1558
vt 0.6083 0.1631
vt 0.6092 0.1644
vt 0.6940 0.1532
vt 0.6971 0.1533
vt 0.6833 0.1431
vt 0.6786 0.1418
vt 0.6801 0.1407
vt 0.6855 0.1421
vt 0.6027 0.1636
vt 0.6029 0.1649
vt 0.6940 0.1509
vt 0.6971 0.1508
vt 0.6733 0.1409
vt 0.6743 0.1397
vt 0.5968 0.1636
vt 0.5966 0.1649
vt 0.6928 0.1487
vt 0.6959 0.1483
vt 0.6674 0.1405
vt 0.6679 0.1392
vt 0.5912 0.1631
vt 0.5902 0.1644
vt 0.6906 0.1466
vt 0.6935 0.1460
vt 0.6618 0.1405
vt 0.6614 0.1392
vt 0.5859 0.1623
vt 0.5844 0.1634
vt 0.6874 0.1447
vt 0.6898 0.1439
vt 0.6560 0.1409
vt 0.6553 0.1397
vt 0.5810 0.1610
vt 0.5790 0.1620
vt 0.6509 0.1418
vt 0.6492 0.1407
vt 0.5769 0.1594
vt 0.5744 0.1602
vt 0.6460 0.1431
vt 0.6441 0.1421
vt 0.5737 0.1575
vt 0.5710 0.1581
vt 0.6419 0.1447
vt 0.6394 0.1439
vt 0.5715 0.1554
vt 0.5686 0.1558
vt 0.6387 0.1466
vt 0.6358 0.1460
vt 0.5705 0.1532
vt 0.5671 0.1533
vt 0.6365 0.1487
vt 0.6333 0.1483
vt 0.5705 0.1509
vt 0.5671 0.1508
vt 0.6353 0.1509
vt 0.6321 0.1508
vt 0.5715 0.1487
vt 0.5686 0.1483
vt 0.6353 0.1532
vt 0.6321 0.1533
vt 0.5737 0.1466
vt 0.5710 0.1460
vt 0.6365 0.1554
vt 0.6333 0.1558
vt 0.5769 0.1447
vt 0.5744 0.1439
vt 0.6387 0.1575
vt 0.6358 0.1581
vt 0.4152 0.1858
vt 0.4205 0.1858
vt 0.4210 0.1881
vt 0.4147 0.1881
vt 0.4256 0.1853
vt 0.4273 0.1876
vt 0.4305 0.1846
vt 0.4332 0.1866
vt 0.4346 0.1834
vt 0.4385 0.1852
vt 0.4385 0.1820
vt 0.4429 0.1834
vt 0.4415 0.1802
vt 0.4466 0.1813
vt 0.4434 0.1783
vt 0.4490 0.1790
vt 0.4444 0.1763
vt 0.4502 0.1765
vt 0.4444 0.1742
vt 0.4502 0.1740
vt 0.4434 0.1722
vt 0.4490 0.1715
vt 0.4415 0.1703
vt 0.4466 0.1692
vt 0.4385 0.1686
vt 0.4429 0.1671
vt 0.4346 0.1671
vt 0.4385 0.1653
vt 0.4305 0.1660
vt 0.4332 0.1639
vt 0.4256 0.1652
vt 0.4273 0.1630
vt 0.4205 0.1648
vt 0.4210 0.1625
vt 0.4152 0.1648
vt 0.4147 0.1625
vt 0.4101 0.1652
vt 0.4083 0.1630
vt 0.4052 0.1660
vt 0.4025 0.1639
vt 0.4008 0.1671
vt 0.3971 0.1653
vt 0.3971 0.1686
vt 0.3925 0.1671
vt 0.3942 0.1703
vt 0.3891 0.1692
vt 0.3923 0.1722
vt 0.3867 0.1715
vt 0.3913 0.1742
vt 0.3855 0.1740
vt 0.3913 0.1763
vt 0.3855 0.1765
vt 0.3923 0.1783
vt 0.3867 0.1790
vt 0.3942 0.1802
vt 0.3891 0.1813
vt 0.3971 0.1820
vt 0.3925 0.1834
vt 0.4008 0.1834
vt 0.3971 0.1852
vt 0.4052 0.1846
vt 0.4025 0.1866
vt 0.4101 0.1853
vt 0.4083 0.1876
vt 0.4573 0.1722
vt 0.4563 0.1742
vt 0.4502 0.1740
vt 0.4517 0.1715
vt 0.4592 0.1703
vt 0.4539 0.1692
vt 0.4622 0.1686
vt 0.4575 0.1671
vt 0.4658 0.1671
vt 0.4622 0.1653
vt 0.4702 0.1660
vt 0.4673 0.1639
vt 0.4751 0.1652
vt 0.4734 0.1630
vt 0.4802 0.1648
vt 0.4797 0.1625
vt 0.4855 0.1648
vt 0.4860 0.1625
vt 0.4904 0.1652
vt 0.4924 0.1630
vt 0.4953 0.1660
vt 0.4982 0.1639
vt 0.4997 0.1671
vt 0.5036 0.1653
vt 0.5033 0.1686
vt 0.5079 0.1671
vt 0.5062 0.1703
vt 0.5116 0.1692
vt 0.5084 0.1722
vt 0.5140 0.1715
vt 0.5094 0.1742
vt 0.5152 0.1740
vt 0.5094 0.1763
vt 0.5152 0.1765
vt 0.5084 0.1783
vt 0.5140 0.1790
vt 0.5062 0.1802
vt 0.5116 0.1813
vt 0.5033 0.1820
vt 0.5079 0.1834
vt 0.4997 0.1834
vt 0.5036 0.1852
vt 0.4953 0.1846
vt 0.4982 0.1866
vt 0.4904 0.1853
vt 0.4924 0.1876
vt 0.4855 0.1858
vt 0.4860 0.1881
vt 0.4802 0.1858
vt 0.4797 0.1881
vt 0.4751 0.1853
vt 0.4734 0.1876
vt 0.4702 0.1846
vt 0.4673 0.1866
vt 0.4658 0.1834
vt 0.4622 0.1852
vt 0.4622 0.1820
vt 0.4575 0.1834
vt 0.4592 0.1802
vt 0.4539 0.1813
vt 0.4573 0.1783
vt 0.4517 0.1790
vt 0.4563 0.1763
vt 0.4502 0.1765
vt 0.7359 0.5726
vt 0.7200 0.5726
vt 0.7200 0.3142
vt 0.7359 0.3142
vt 0.4356 0.5726
vt 0.4198 0.5726
vt 0.4198 0.3142
vt 0.4356 0.3142
vt 0.7042 0.5726
vt 0.7042 0.3142
vt 0.4040 0.5726
vt 0.4040 0.3142
vt 0.6886 0.5726
vt 0.6886 0.3142
vt 0.3881 0.5726
vt 0.3881 0.3142
vt 0.6728 0.5726
vt 0.6728 0.3142
vt 0.3723 0.5726
vt 0.3723 0.3142
vt 0.6570 0.5726
vt 0.6570 0.3142
vt 0.3565 0.5726
vt 0.3565 0.3142
vt 0.6411 0.5726
vt 0.6411 0.3142
vt 0.3407 0.5726
vt 0.3407 0.3142
vt 0.6253 0.5726
vt 0.6253 0.3142
vt 0.3248 0.5726
vt 0.3248 0.3142
vt 0.5462 0.5726
vt 0.5303 0.5726
vt 0.5303 0.3142
vt 0.5462 0.3142
vt 0.6095 0.5726
vt 0.6095 0.3142
vt 0.3090 0.5726
vt 0.3090 0.3142
vt 0.5145 0.5726
vt 0.5145 0.3142
vt 0.5937 0.5726
vt 0.5937 0.3142
vt 0.8150 0.5726
vt 0.7992 0.5726
vt 0.7992 0.3142
vt 0.8150 0.3142
vt 0.4987 0.5726
vt 0.4987 0.3142
vt 0.5778 0.5726
vt 0.5778 0.3142
vt 0.7833 0.5726
vt 0.7833 0.3142
vt 0.4829 0.5726
vt 0.4829 0.3142
vt 0.5620 0.5726
vt 0.5620 0.3142
vt 0.7675 0.5726
vt 0.7675 0.3142
vt 0.4673 0.5726
vt 0.4673 0.3142
vt 0.7517 0.5726
vt 0.7517 0.3142
vt 0.4514 0.5726
vt 0.4514 0.3142
vt 0.4877 0.1504
vt 0.4877 0.1479
vt 0.5172 0.1479
vt 0.5172 0.1504
vt 0.5966 0.1693
vt 0.5966 0.1670
vt 0.6260 0.1670
vt 0.6260 0.1693
vt 0.4502 0.1625
vt 0.4502 0.0463
vt 0.4546 0.0463
vt 0.4546 0.1625
vt 0.3752 0.0463
vt 0.3752 0.1625
vt 0.3716 0.1625
vt 0.3716 0.0463
vt 0.6874 0.0507
vt 0.6874 0.0484
vt 0.7169 0.0484
vt 0.7169 0.0507
vt 0.5966 0.1649
vt 0.6260 0.1649
vt 0.4877 0.1529
vt 0.5172 0.1529
vt 0.6874 0.0532
vt 0.7169 0.0532
vt 0.5627 0.1625
vt 0.5627 0.1642
vt 0.5333 0.1642
vt 0.5333 0.1625
vt 0.4877 0.1553
vt 0.5172 0.1553
vt 0.6874 0.0557
vt 0.7169 0.0557
vt 0.5627 0.1663
vt 0.5333 0.1663
vt 0.5627 0.1785
vt 0.5627 0.1806
vt 0.5333 0.1806
vt 0.5333 0.1785
vt 0.6874 0.0582
vt 0.7169 0.0582
vt 0.5627 0.1687
vt 0.5333 0.1687
vt 0.5627 0.1824
vt 0.5333 0.1824
vt 0.6874 0.0605
vt 0.7169 0.0605
vt 0.5627 0.1711
vt 0.5333 0.1711
vt 0.7169 0.0644
vt 0.7169 0.0665
vt 0.6874 0.0665
vt 0.6874 0.0644
vt 0.6874 0.0626
vt 0.7169 0.0626
vt 0.5627 0.1737
vt 0.5333 0.1737
vt 0.7169 0.0688
vt 0.6874 0.0688
vt 0.6874 0.0644
vt 0.7169 0.0644
vt 0.5627 0.1762
vt 0.5333 0.1762
vt 0.7169 0.0713
vt 0.6874 0.0713
vt 0.7169 0.0986
vt 0.7169 0.1007
vt 0.6874 0.1007
vt 0.6874 0.0986
vt 0.7169 0.0738
vt 0.6874 0.0738
vt 0.7169 0.0962
vt 0.6874 0.0962
vt 0.7169 0.0763
vt 0.6874 0.0763
vt 0.7169 0.0938
vt 0.6874 0.0938
vt 0.7169 0.0787
vt 0.6874 0.0787
vt 0.7169 0.0912
vt 0.6874 0.0912
vt 0.7169 0.0808
vt 0.6874 0.0808
vt 0.7169 0.0888
vt 0.6874 0.0888
vt 0.7169 0.0825
vt 0.6874 0.0825
vt 0.7169 0.0864
vt 0.6874 0.0864
vt 0.6874 0.1188
vt 0.6874 0.1167
vt 0.7169 0.1167
vt 0.7169 0.1188
vt 0.7169 0.0843
vt 0.6874 0.0843
vt 0.6874 0.1144
vt 0.7169 0.1144
vt 0.7169 0.0825
vt 0.6874 0.0825
vt 0.6874 0.1119
vt 0.7169 0.1119
vt 0.5671 0.1670
vt 0.5671 0.1649
vt 0.5966 0.1649
vt 0.5966 0.1670
vt 0.6874 0.1094
vt 0.7169 0.1094
vt 0.5671 0.1693
vt 0.5966 0.1693
vt 0.6874 0.1069
vt 0.7169 0.1069
vt 0.5671 0.1718
vt 0.5966 0.1718
vt 0.6874 0.1046
vt 0.7169 0.1046
vt 0.5671 0.1743
vt 0.5966 0.1743
vt 0.6874 0.1025
vt 0.7169 0.1025
vt 0.5671 0.1768
vt 0.5966 0.1768
vt 0.6874 0.1007
vt 0.7169 0.1007
vt 0.5671 0.1791
vt 0.5966 0.1791
vt 0.5966 0.1812
vt 0.5966 0.1791
vt 0.6260 0.1791
vt 0.6260 0.1812
vt 0.5671 0.1812
vt 0.5966 0.1812
vt 0.5966 0.1768
vt 0.6260 0.1768
vt 0.4877 0.1410
vt 0.4877 0.1392
vt 0.5172 0.1392
vt 0.5172 0.1410
vt 0.5966 0.1743
vt 0.6260 0.1743
vt 0.4877 0.1431
vt 0.5172 0.1431
vt 0.4877 0.1573
vt 0.5172 0.1573
vt 0.5966 0.1718
vt 0.6260 0.1718
vt 0.4877 0.1454
vt 0.5172 0.1454
vt 0.4877 0.1591
vt 0.5172 0.1591
vt 0.6874 0.0463
vt 0.7169 0.0463
vt 0.4595 0.0463
vt 0.4595 0.1625
vt 0.4646 0.0463
vt 0.4646 0.1625
vt 0.4700 0.0463
vt 0.4700 0.1625
vt 0.4751 0.0463
vt 0.4751 0.1625
vt 0.4799 0.0463
vt 0.4799 0.1625
vt 0.4841 0.0463
vt 0.4841 0.1625
vt 0.4877 0.0463
vt 0.4877 0.1625
vt 0.4127 0.1625
vt 0.4127 0.0463
vt 0.4171 0.0463
vt 0.4171 0.1625
vt 0.4220 0.0463
vt 0.4220 0.1625
vt 0.4271 0.0463
vt 0.4271 0.1625
vt 0.4322 0.0463
vt 0.4322 0.1625
vt 0.4373 0.0463
vt 0.4373 0.1625
vt 0.4422 0.0463
vt 0.4422 0.1625
vt 0.4466 0.0463
vt 0.4466 0.1625
vt 0.4502 0.0463
vt 0.4502 0.1625
vt 0.5671 0.0463
vt 0.5671 0.1625
vt 0.5630 0.1625
vt 0.5630 0.0463
vt 0.5581 0.1625
vt 0.5581 0.0463
vt 0.5530 0.1625
vt 0.5530 0.0463
vt 0.5476 0.1625
vt 0.5476 0.0463
vt 0.5425 0.1625
vt 0.5425 0.0463
vt 0.5376 0.1625
vt 0.5376 0.0463
vt 0.5333 0.1625
vt 0.5333 0.0463
vt 0.4127 0.0463
vt 0.4127 0.1625
vt 0.4091 0.1625
vt 0.4091 0.0463
vt 0.4047 0.1625
vt 0.4047 0.0463
vt 0.3998 0.1625
vt 0.3998 0.0463
vt 0.3947 0.1625
vt 0.3947 0.0463
vt 0.3896 0.1625
vt 0.3896 0.0463
vt 0.3845 0.1625
vt 0.3845 0.0463
vt 0.3796 0.1625
vt 0.3796 0.0463
vn 0.0000 0.0000 -1.0000
vn 0.0000 0.0000 1.0000
vn 0.7071 -0.7071 -0.0000
vn 0.8315 -0.5556 -0.0000
vn -0.9808 0.1951 0.0000
vn -1.0000 0.0000 -0.0000
vn 0.9239 -0.3827 -0.0000
vn -0.9808 -0.1951 -0.0000
vn 0.9808 -0.1951 -0.0000
vn -0.9239 -0.3827 -0.0000
vn 1.0000 0.0000 0.0000
vn -0.8315 -0.5556 -0.0000
vn 0.9808 0.1951 0.0000
vn -0.7071 -0.7071 -0.0000
vn 0.9239 0.3827 0.0000
vn -0.5556 -0.8315 -0.0000
vn 0.8315 0.5556 0.0000
vn -0.3827 -0.9239 -0.0000
vn -0.0000 1.0000 0.0000
vn -0.1951 0.9808 0.0000
vn 0.7071 0.7071 0.0000
vn -0.1951 -0.9808 -0.0000
vn -0.3827 0.9239 0.0000
vn 0.5556 0.8315 0.0000
vn 0.0000 -1.0000 -0.0000
vn -0.5556 0.8315 0.0000
vn 0.3827 0.9239 0.0000
vn 0.1951 -0.9808 -0.0000
vn -0.7071 0.7071 0.0000
vn 0.1951 0.9808 0.0000
vn 0.3827 -0.9239 -0.0000
vn -0.8315 0.5556 0.0000
vn 0.5556 -0.8315 -0.0000
vn -0.9239 0.3827 0.0000
usemtl Material.001
s off
f 1/1/1 2/2/1 3/3/1 4/4/1
f 5/5/2 6/6/2 7/7/2 8/8/2
f 9/9/2 5/5/2 8/8/2 10/10/2
f 2/2/1 11/11/1 12/12/1 3/3/1
f 13/13/2 9/9/2 10/10/2 14/14/2
f 11/11/1 15/15/1 16/16/1 12/12/1
f 17/17/2 13/13/2 14/14/2 18/18/2
f 15/15/1 19/19/1 20/20/1 16/16/1
f 21/21/2 17/17/2 18/18/2 22/22/2
f 19/19/1 23/23/1 24/24/1 20/20/1
f 25/25/2 21/21/2 22/22/2 26/26/2
f 23/23/1 27/27/1 28/28/1 24/24/1
f 29/29/2 25/25/2 26/26/2 30/30/2
f 31/31/2 32/32/2 33/33/2 34/34/2
f 27/27/1 35/35/1 36/36/1 28/28/1
f 37/37/2 29/29/2 30/30/2 38/38/2
f 39/39/2 31/31/2 34/34/2 40/40/2
f 35/35/1 41/41/1 42/42/1 36/36/1
f 43/43/2 37/37/2 38/38/2 44/44/2
f 45/45/2 39/39/2 40/40/2 46/46/2
f 41/41/1 47/47/1 48/48/1 42/42/1
f 49/49/2 43/43/2 44/44/2 50/50/2
f 51/51/2 45/45/2 46/46/2 52/52/2
f 47/47/1 53/53/1 54/54/1 48/48/1
f 55/55/2 49/49/2 50/50/2 56/56/2
f 57/57/2 51/51/2 52/52/2 58/58/2
f 53/53/1 59/59/1 60/60/1 54/54/1
f 32/32/2 55/55/2 56/56/2 33/33/2
f 61/61/2 57/57/2 58/58/2 62/62/2
f 59/59/1 63/63/1 64/64/1 60/60/1
f 65/65/1 66/66/1 67/67/1 68/68/1
f 69/69/2 61/61/2 62/62/2 70/70/2
f 63/63/1 71/71/1 72/72/1 64/64/1
f 66/66/1 73/73/1 74/74/1 67/67/1
f 75/75/2 69/69/2 70/70/2 76/76/2
f 71/71/1 77/77/1 78/78/1 72/72/1
f 73/73/1 79/79/1 80/80/1 74/74/1
f 81/81/2 75/75/2 76/76/2 82/82/2
f 77/77/1 83/83/1 84/84/1 78/78/1
f 79/79/1 85/85/1 86/86/1 80/80/1
f 87/87/2 81/81/2 82/82/2 88/88/2
f 83/83/1 89/89/1 90/90/1 84/84/1
f 85/85/1 91/91/1 92/92/1 86/86/1
f 93/93/2 87/87/2 88/88/2 94/94/2
f 89/89/1 65/65/1 68/68/1 90/90/1
f 91/91/1 95/95/1 96/96/1 92/92/1
f 97/97/2 93/93/2 94/94/2 98/98/2
f 95/95/1 99/99/1 100/100/1 96/96/1
f 101/101/2 97/97/2 98/98/2 102/102/2
f 99/99/1 103/103/1 104/104/1 100/100/1
f 105/105/2 101/101/2 102/102/2 106/106/2
f 103/103/1 107/107/1 108/108/1 104/104/1
f 109/109/2 105/105/2 106/106/2 110/110/2
f 107/107/1 111/111/1 112/112/1 108/108/1
f 113/113/2 109/109/2 110/110/2 114/114/2
f 111/111/1 115/115/1 116/116/1 112/112/1
f 117/117/2 113/113/2 114/114/2 118/118/2
f 115/115/1 119/119/1 120/120/1 116/116/1
f 121/121/2 117/117/2 118/118/2 122/122/2
f 119/119/1 123/123/1 124/124/1 120/120/1
f 125/125/2 121/121/2 122/122/2 126/126/2
f 123/123/1 127/127/1 128/128/1 124/124/1
f 6/6/2 125/125/2 126/126/2 7/7/2
f 127/127/1 1/1/1 4/4/1 128/128/1
f 129/129/1 130/130/1 131/131/1 132/132/1
f 130/130/1 133/133/1 134/134/1 131/131/1
f 133/133/1 135/135/1 136/136/1 134/134/1
f 135/135/1 137/137/1 138/138/1 136/136/1
f 137/137/1 139/139/1 140/140/1 138/138/1
f 139/139/1 141/141/1 142/142/1 140/140/1
f 141/141/1 143/143/1 144/144/1 142/142/1
f 143/143/1 145/145/1 146/146/1 144/144/1
f 145/145/1 147/147/1 148/148/1 146/146/1
f 147/147/1 149/149/1 150/150/1 148/148/1
f 149/149/1 151/151/1 152/152/1 150/150/1
f 151/151/1 153/153/1 154/154/1 152/152/1
f 153/153/1 155/155/1 156/156/1 154/154/1
f 155/155/1 157/157/1 158/158/1 156/156/1
f 157/157/1 159/159/1 160/160/1 158/158/1
f 159/159/1 161/161/1 162/162/1 160/160/1
f 161/161/1 163/163/1 164/164/1 162/162/1
f 163/163/1 165/165/1 166/166/1 164/164/1
f 165/165/1 167/167/1 168/168/1 166/166/1
f 167/167/1 169/169/1 170/170/1 168/168/1
f 169/169/1 171/171/1 172/172/1 170/170/1
f 171/171/1 173/173/1 174/174/1 172/172/1
f 173/173/1 175/175/1 176/176/1 174/174/1
f 175/175/1 177/177/1 178/178/1 176/176/1
f 177/177/1 179/179/1 180/180/1 178/178/1
f 179/179/1 181/181/1 182/182/1 180/180/1
f 181/181/1 183/183/1 184/184/1 182/182/1
f 183/183/1 185/185/1 186/186/1 184/184/1
f 185/185/1 187/187/1 188/188/1 186/186/1
f 187/187/1 189/189/1 190/190/1 188/188/1
f 189/189/1 191/191/1 192/192/1 190/190/1
f 191/191/1 129/129/1 132/132/1 192/192/1
f 193/193/2 194/194/2 195/195/2 196/196/2
f 197/197/2 193/193/2 196/196/2 198/198/2
f 199/199/2 197/197/2 198/198/2 200/200/2
f 201/201/2 199/199/2 200/200/2 202/202/2
f 203/203/2 201/201/2 202/202/2 204/204/2
f 205/205/2 203/203/2 204/204/2 206/206/2
f 207/207/2 205/205/2 206/206/2 208/208/2
f 209/209/2 207/207/2 208/208/2 210/210/2
f 211/211/2 209/209/2 210/210/2 212/212/2
f 213/213/2 211/211/2 212/212/2 214/214/2
f 215/215/2 213/213/2 214/214/2 216/216/2
f 217/217/2 215/215/2 216/216/2 218/218/2
f 219/219/2 217/217/2 218/218/2 220/220/2
f 221/221/2 219/219/2 220/220/2 222/222/2
f 223/223/2 221/221/2 222/222/2 224/224/2
f 225/225/2 223/223/2 224/224/2 226/226/2
f 227/227/2 225/225/2 226/226/2 228/228/2
f 229/229/2 227/227/2 228/228/2 230/230/2
f 231/231/2 229/229/2 230/230/2 232/232/2
f 233/233/2 231/231/2 232/232/2 234/234/2
f 235/235/2 233/233/2 234/234/2 236/236/2
f 237/237/2 235/235/2 236/236/2 238/238/2
f 239/239/2 237/237/2 238/238/2 240/240/2
f 241/241/2 239/239/2 240/240/2 242/242/2
f 243/243/2 241/241/2 242/242/2 244/244/2
f 245/245/2 243/243/2 244/244/2 246/246/2
f 247/247/2 245/245/2 246/246/2 248/248/2
f 249/249/2 247/247/2 248/248/2 250/250/2
f 251/251/2 249/249/2 250/250/2 252/252/2
f 253/253/2 251/251/2 252/252/2 254/254/2
f 255/255/2 253/253/2 254/254/2 256/256/2
f 194/194/2 255/255/2 256/256/2 195/195/2
s 1
f 6/257/3 5/258/4 27/259/4 23/260/3
f 69/261/5 75/262/6 103/263/6 99/264/5
f 5/258/4 9/265/7 35/266/7 27/259/4
f 75/262/6 81/267/8 107/268/8 103/263/6
f 9/265/7 13/269/9 41/270/9 35/266/7
f 81/267/8 87/271/10 111/272/10 107/268/8
f 13/269/9 17/273/11 47/274/11 41/270/9
f 87/271/10 93/275/12 115/276/12 111/272/10
f 17/273/11 21/277/13 53/278/13 47/274/11
f 93/275/12 97/279/14 119/280/14 115/276/12
f 21/277/13 25/281/15 59/282/15 53/278/13
f 97/279/14 101/283/16 123/284/16 119/280/14
f 25/281/15 29/285/17 63/286/17 59/282/15
f 101/283/16 105/287/18 127/288/18 123/284/16
f 32/289/19 31/290/20 66/291/20 65/292/19
f 29/285/17 37/293/21 71/294/21 63/286/17
f 105/287/18 109/295/22 1/296/22 127/288/18
f 31/290/20 39/297/23 73/298/23 66/291/20
f 37/293/21 43/299/24 77/300/24 71/294/21
f 109/301/22 113/302/25 2/303/25 1/304/22
f 39/297/23 45/305/26 79/306/26 73/298/23
f 43/299/24 49/307/27 83/308/27 77/300/24
f 113/302/25 117/309/28 11/310/28 2/303/25
f 45/305/26 51/311/29 85/312/29 79/306/26
f 49/307/27 55/313/30 89/314/30 83/308/27
f 117/309/28 121/315/31 15/316/31 11/310/28
f 51/311/29 57/317/32 91/318/32 85/312/29
f 55/313/30 32/289/19 65/292/19 89/314/30
f 121/315/31 125/319/33 19/320/33 15/316/31
f 57/317/32 61/321/34 95/322/34 91/318/32
f 125/319/33 6/257/3 23/260/3 19/320/33
f 61/321/34 69/261/5 99/264/5 95/322/34
f 50/323/27 44/324/24 188/325/24 190/326/27
f 42/327/9 48/328/11 242/329/11 240/330/9
f 133/331/31 197/332/31 199/333/33 135/334/33
f 130/335/28 193/336/28 197/337/31 133/338/31
f 52/339/29 46/340/26 136/341/26 138/342/29
f 48/328/11 54/343/13 244/344/13 242/329/11
f 56/345/30 50/323/27 190/326/27 192/346/30
f 58/347/32 52/339/29 138/342/29 140/348/32
f 54/349/13 60/350/15 246/351/15 244/352/13
f 33/353/19 56/345/30 192/346/30 132/354/19
f 62/355/34 58/347/32 140/348/32 142/356/34
f 60/350/15 64/357/17 248/358/17 246/351/15
f 68/359/19 67/360/20 196/361/20 195/362/19
f 70/363/5 62/355/34 142/356/34 144/364/5
f 64/357/17 72/365/21 250/366/21 248/358/17
f 67/360/20 74/367/23 198/368/23 196/361/20
f 76/369/6 70/363/5 144/364/5 146/370/6
f 72/365/21 78/371/24 252/372/24 250/366/21
f 74/373/23 80/374/26 200/375/26 198/376/23
f 82/377/8 76/369/6 146/370/6 148/378/8
f 78/371/24 84/379/27 254/380/27 252/372/24
f 80/374/26 86/381/29 202/382/29 200/375/26
f 88/383/10 82/377/8 148/378/8 150/384/10
f 84/379/27 90/385/30 256/386/30 254/380/27
f 86/381/29 92/387/32 204/388/32 202/382/29
f 94/389/12 88/390/10 150/391/10 152/392/12
f 90/385/30 68/359/19 195/362/19 256/386/30
f 92/387/32 96/393/34 206/394/34 204/388/32
f 98/395/14 94/389/12 152/392/12 154/396/14
f 96/393/34 100/397/5 208/398/5 206/394/34
f 102/399/16 98/395/14 154/396/14 156/400/16
f 100/397/5 104/401/6 210/402/6 208/398/5
f 106/403/18 102/399/16 156/400/16 158/404/18
f 104/401/6 108/405/8 212/406/8 210/402/6
f 110/407/22 106/403/18 158/404/18 160/408/22
f 108/405/8 112/409/10 214/410/10 212/406/8
f 114/411/25 110/407/22 160/408/22 162/412/25
f 112/413/10 116/414/12 216/415/12 214/416/10
f 118/417/28 114/411/25 162/412/25 164/418/28
f 116/414/12 120/419/14 218/420/14 216/415/12
f 122/421/31 118/417/28 164/418/28 166/422/31
f 120/419/14 124/423/16 220/424/16 218/420/14
f 126/425/33 122/426/31 166/427/31 168/428/33
f 124/423/16 128/429/18 222/430/18 220/424/16
f 7/431/3 126/425/33 168/428/33 170/432/3
f 128/429/18 4/433/22 224/434/22 222/430/18
f 8/435/4 7/431/3 170/432/3 172/436/4
f 4/433/22 3/437/25 226/438/25 224/434/22
f 10/439/7 8/435/4 172/436/4 174/440/7
f 3/437/25 12/441/28 228/442/28 226/438/25
f 14/443/9 10/439/7 174/440/7 176/444/9
f 12/441/28 16/445/31 230/446/31 228/442/28
f 18/447/11 14/443/9 176/444/9 178/448/11
f 16/449/31 20/450/33 232/451/33 230/452/31
f 22/453/13 18/447/11 178/448/11 180/454/13
f 20/450/33 24/455/3 234/456/3 232/451/33
f 26/457/15 22/458/13 180/459/13 182/460/15
f 24/455/3 28/461/4 236/462/4 234/456/3
f 30/463/17 26/457/15 182/460/15 184/464/17
f 34/465/20 33/353/19 132/354/19 131/466/20
f 28/461/4 36/467/7 238/468/7 236/462/4
f 38/469/21 30/463/17 184/464/17 186/470/21
f 40/471/23 34/465/20 131/466/20 134/472/23
f 36/467/7 42/327/9 240/330/9 238/468/7
f 44/324/24 38/469/21 186/470/21 188/325/24
f 46/340/26 40/473/23 134/474/23 136/341/26
f 135/334/33 199/333/33 201/475/3 137/476/3
f 137/476/3 201/475/3 203/477/4 139/478/4
f 139/478/4 203/477/4 205/479/7 141/480/7
f 141/480/7 205/479/7 207/481/9 143/482/9
f 143/482/9 207/481/9 209/483/11 145/484/11
f 145/484/11 209/483/11 211/485/13 147/486/13
f 147/486/13 211/485/13 213/487/15 149/488/15
f 149/489/15 213/490/15 215/491/17 151/492/17
f 151/492/17 215/491/17 217/493/21 153/494/21
f 153/494/21 217/493/21 219/495/24 155/496/24
f 155/496/24 219/495/24 221/497/27 157/498/27
f 157/498/27 221/497/27 223/499/30 159/500/30
f 159/500/30 223/499/30 225/501/19 161/502/19
f 161/502/19 225/501/19 227/503/20 163/504/20
f 163/504/20 227/503/20 229/505/23 165/506/23
f 165/507/23 229/508/23 231/509/26 167/510/26
f 167/510/26 231/509/26 233/511/29 169/512/29
f 169/512/29 233/511/29 235/513/32 171/514/32
f 171/514/32 235/513/32 237/515/34 173/516/34
f 173/516/34 237/515/34 239/517/5 175/518/5
f 175/518/5 239/517/5 241/519/6 177/520/6
f 177/520/6 241/519/6 243/521/8 179/522/8
f 179/523/8 243/524/8 245/525/10 181/526/10
f 181/526/10 245/525/10 247/527/12 183/528/12
f 183/528/12 247/527/12 249/529/14 185/530/14
f 185/530/14 249/529/14 251/531/16 187/532/16
f 187/532/16 251/531/16 253/533/18 189/534/18
f 189/534/18 253/533/18 255/535/22 191/536/22
f 191/536/22 255/535/22 194/537/25 129/538/25
f 129/538/25 194/537/25 193/336/28 130/335/28
