# Blender v2.78 (sub 0) OBJ File: 'Leitplanke.blend'
# www.blender.org
mtllib Leitplanke.mtl
o Cube
v 7.000035 5.200000 0.200072
v 5.000035 5.200000 0.200072
v 7.000034 6.800000 0.200072
v 5.000035 6.800000 0.200072
v 7.000035 5.000000 0.500072
v 5.000035 5.000000 0.500072
v 7.000035 7.000000 0.500072
v 5.000035 7.000000 0.500072
v 7.000035 8.000000 0.500072
v 5.000035 8.000000 0.500072
v 7.000035 4.000000 0.500072
v 5.000035 4.000000 0.500072
v 7.000035 8.000000 0.000072
v 5.000035 8.000000 0.000072
v 7.000035 4.000000 0.000072
v 5.000035 4.000000 0.000072
v 7.000035 5.000000 0.100072
v 7.000035 5.100000 0.000072
v 7.000035 5.070711 0.070783
v 5.000035 5.100000 0.000072
v 5.000035 5.000000 0.100072
v -0.249965 3.999999 0.433073
v 7.000035 6.900000 0.000072
v 7.000035 7.000000 0.100072
v 7.000035 6.929289 0.070783
v 5.000035 7.000000 0.100072
v 5.000035 6.900000 0.000072
v -0.249965 4.999999 0.433073
v 7.000035 5.200000 0.600072
v 7.000035 5.100000 0.700072
v 7.000035 5.129290 0.629361
v 5.000035 5.100000 0.700072
v 5.000035 5.200000 0.600072
v -0.249965 6.999999 0.433073
v 7.000034 6.900000 0.700072
v 7.000034 6.800000 0.600072
v 7.000035 6.870710 0.629361
v 5.000035 6.800000 0.600072
v 5.000035 6.900000 0.700072
v -0.249965 7.999999 0.433073
v 7.000034 8.200000 0.600072
v 7.000034 8.099999 0.700072
v 7.000035 8.129289 0.629361
v 5.000035 8.099999 0.700072
v 5.000035 8.200000 0.600072
v -0.099965 6.799999 0.173266
v 7.000035 3.900000 0.700072
v 7.000035 3.800000 0.600072
v 7.000035 3.870711 0.629361
v 5.000035 3.800000 0.600072
v 5.000035 3.900000 0.700072
v -0.099965 5.199999 0.173266
v 7.000035 8.099999 0.000072
v 7.000034 8.200000 0.100072
v 5.000035 8.200000 0.100072
v 5.000035 8.099999 0.000072
v 7.000035 3.800000 0.100072
v 7.000035 3.900000 0.000072
v 5.000035 3.900000 0.000072
v 5.000035 3.800000 0.100072
v 6.700035 5.370000 0.000072
v 5.300035 5.370000 0.000072
v 6.700035 6.630000 0.000072
v 5.300035 6.630000 0.000072
v 5.619792 5.689756 -0.099928
v 6.380279 5.689756 -0.099928
v 6.380279 6.310244 -0.099928
v 5.619792 6.310244 -0.099928
v 5.300035 5.370000 -0.099928
v 6.700035 5.370000 -0.099928
v 6.700035 6.630000 -0.099928
v 5.300035 6.630000 -0.099928
v 5.619792 5.689756 -1.499928
v 5.719792 5.689756 -1.599928
v 6.280279 5.689756 -1.599928
v 6.380279 5.689756 -1.499928
v 6.380279 6.310244 -1.499928
v 6.280279 6.310244 -1.599928
v 5.719792 6.310244 -1.599928
v 5.619792 6.310244 -1.499928
v 5.735368 -1.264084 -0.405763
v 5.735368 -1.264084 -1.453708
v 6.264702 -1.264084 -0.405763
v 6.264702 -1.264084 -1.453708
v 5.792059 6.919594 -0.517998
v 5.735368 6.874074 -0.405763
v 5.792059 6.919594 -1.341473
v 5.735368 6.874074 -1.453708
v 6.208010 6.919594 -0.517998
v 6.264702 6.874074 -0.405763
v 6.208010 6.919594 -1.341473
v 6.264702 6.874074 -1.453708
v 6.550035 6.550000 -0.197932
v 6.463432 6.500000 -0.197932
v 6.463432 6.400000 -0.197932
v 6.550035 6.350000 -0.197932
v 6.636637 6.400000 -0.197932
v 6.636637 6.500000 -0.197932
v 6.463432 6.500000 0.302364
v 6.550035 6.550000 0.302364
v 6.463432 6.400000 0.302364
v 6.550035 6.350000 0.302364
v 6.636637 6.400000 0.302364
v 6.636637 6.500000 0.302364
v 5.450035 5.450000 -0.197932
v 5.536637 5.500000 -0.197932
v 5.536637 5.600000 -0.197932
v 5.450035 5.650000 -0.197932
v 5.363432 5.600000 -0.197932
v 5.363432 5.500000 -0.197932
v 5.536637 5.500000 0.302364
v 5.450035 5.450000 0.302364
v 5.536637 5.600000 0.302364
v 5.450035 5.650000 0.302364
v 5.363432 5.600000 0.302364
v 5.363432 5.500000 0.302364
v 5.450035 6.550000 -0.197932
v 5.536637 6.500000 -0.197932
v 5.536637 6.400000 -0.197932
v 5.450035 6.350000 -0.197932
v 5.363432 6.400000 -0.197932
v 5.363432 6.500000 -0.197932
v 5.536637 6.500000 0.302364
v 5.450035 6.550000 0.302364
v 5.536637 6.400000 0.302364
v 5.450035 6.350000 0.302364
v 5.363432 6.400000 0.302364
v 5.363432 6.500000 0.302364
v 6.550035 5.450000 -0.197932
v 6.463432 5.500000 -0.197932
v 6.463432 5.600000 -0.197932
v 6.550035 5.650000 -0.197932
v 6.636637 5.600000 -0.197932
v 6.636637 5.500000 -0.197932
v 6.463432 5.500000 0.302364
v 6.550035 5.450000 0.302364
v 6.463432 5.600000 0.302364
v 6.550035 5.650000 0.302364
v 6.636637 5.600000 0.302364
v 6.636637 5.500000 0.302364
v 27.000034 5.200000 0.200072
v 25.000034 5.200000 0.200072
v 27.000034 6.800000 0.200072
v 25.000034 6.800000 0.200072
v 27.000034 5.000000 0.500072
v 25.000034 5.000000 0.500072
v 27.000034 7.000000 0.500072
v 25.000034 7.000000 0.500072
v 27.000034 8.000000 0.500072
v 25.000034 8.000000 0.500072
v 27.000034 4.000000 0.500072
v 25.000034 4.000000 0.500072
v 27.000034 8.000000 0.000072
v 25.000034 8.000000 0.000072
v 27.000034 4.000000 0.000072
v 25.000034 4.000000 0.000072
v 27.000034 5.000000 0.100072
v 27.000034 5.100000 0.000072
v 27.000034 5.070711 0.070783
v 25.000034 5.100000 0.000072
v 25.000034 5.000000 0.100072
v 25.000034 5.070711 0.070783
v 27.000034 6.900000 0.000072
v 27.000034 7.000000 0.100072
v 27.000034 6.929289 0.070783
v 25.000034 7.000000 0.100072
v 25.000034 6.900000 0.000072
v 25.000034 6.929289 0.070783
v 27.000034 5.200000 0.600072
v 27.000034 5.100000 0.700072
v 27.000034 5.129290 0.629361
v 25.000034 5.100000 0.700072
v 25.000034 5.200000 0.600072
v 25.000034 5.129290 0.629361
v 27.000034 6.900000 0.700072
v 27.000034 6.800000 0.600072
v 27.000034 6.870710 0.629361
v 25.000034 6.800000 0.600072
v 25.000034 6.900000 0.700072
v 25.000034 6.870710 0.629361
v 27.000034 8.200000 0.600072
v 27.000034 8.099999 0.700072
v 27.000034 8.129289 0.629361
v 25.000034 8.099999 0.700072
v 25.000034 8.200000 0.600072
v 25.000034 8.129289 0.629361
v 27.000034 3.900000 0.700072
v 27.000034 3.800000 0.600072
v 27.000034 3.870711 0.629361
v 25.000034 3.800000 0.600072
v 25.000034 3.900000 0.700072
v 25.000034 3.870711 0.629361
v 27.000034 8.099999 0.000072
v 27.000034 8.200000 0.100072
v 25.000034 8.200000 0.100072
v 25.000034 8.099999 0.000072
v 27.000034 3.800000 0.100072
v 27.000034 3.900000 0.000072
v 25.000034 3.900000 0.000072
v 25.000034 3.800000 0.100072
v 26.700035 5.370000 0.000072
v 25.300035 5.370000 0.000072
v 26.700035 6.630000 0.000072
v 25.300034 6.630000 0.000072
v 25.619791 5.689756 -0.099928
v 26.380278 5.689756 -0.099928
v 26.380278 6.310244 -0.099928
v 25.619791 6.310244 -0.099928
v 25.300035 5.370000 -0.099928
v 26.700035 5.370000 -0.099928
v 26.700035 6.630000 -0.099928
v 25.300034 6.630000 -0.099928
v 25.619791 5.689756 -1.499928
v 25.719791 5.689756 -1.599928
v 26.280277 5.689756 -1.599928
v 26.380278 5.689756 -1.499928
v 26.380278 6.310244 -1.499928
v 26.280277 6.310244 -1.599928
v 25.719791 6.310244 -1.599928
v 25.619791 6.310244 -1.499928
v 25.735365 -1.264084 -0.405763
v 25.735365 -1.264084 -1.453708
v 26.264702 -1.264084 -0.405763
v 26.264702 -1.264084 -1.453708
v 25.792059 6.919594 -0.517998
v 25.735365 6.874074 -0.405763
v 25.792059 6.919594 -1.341473
v 25.735365 6.874074 -1.453708
v 26.208010 6.919594 -0.517998
v 26.264702 6.874074 -0.405763
v 26.208010 6.919594 -1.341473
v 26.264702 6.874074 -1.453708
v 26.550034 6.550000 -0.197932
v 26.463432 6.500000 -0.197932
v 26.463432 6.400000 -0.197932
v 26.550034 6.350000 -0.197932
v 26.636637 6.400000 -0.197932
v 26.636637 6.500000 -0.197932
v 26.463432 6.500000 0.302364
v 26.550034 6.550000 0.302364
v 26.463432 6.400000 0.302364
v 26.550034 6.350000 0.302364
v 26.636637 6.400000 0.302364
v 26.636637 6.500000 0.302364
v 25.450035 5.450000 -0.197932
v 25.536636 5.500000 -0.197932
v 25.536636 5.600000 -0.197932
v 25.450035 5.650000 -0.197932
v 25.363432 5.600000 -0.197932
v 25.363432 5.500000 -0.197932
v 25.536636 5.500000 0.302364
v 25.450035 5.450000 0.302364
v 25.536636 5.600000 0.302364
v 25.450035 5.650000 0.302364
v 25.363432 5.600000 0.302364
v 25.363432 5.500000 0.302364
v 25.450035 6.550000 -0.197932
v 25.536636 6.500000 -0.197932
v 25.536636 6.400000 -0.197932
v 25.450035 6.350000 -0.197932
v 25.363432 6.400000 -0.197932
v 25.363432 6.500000 -0.197932
v 25.536636 6.500000 0.302364
v 25.450035 6.550000 0.302364
v 25.536636 6.400000 0.302364
v 25.450035 6.350000 0.302364
v 25.363432 6.400000 0.302364
v 25.363432 6.500000 0.302364
v 26.550034 5.450000 -0.197932
v 26.463432 5.500000 -0.197932
v 26.463432 5.600000 -0.197932
v 26.550034 5.650000 -0.197932
v 26.636637 5.600000 -0.197932
v 26.636637 5.500000 -0.197932
v 26.463432 5.500000 0.302364
v 26.550034 5.450000 0.302364
v 26.463432 5.600000 0.302364
v 26.550034 5.650000 0.302364
v 26.636637 5.600000 0.302364
v 26.636637 5.500000 0.302364
v 0.000035 5.199999 0.200061
v 0.000035 6.799999 0.200061
v 0.000035 7.999999 0.500060
v 0.000035 6.999999 0.500060
v 0.000035 4.999999 0.500060
v 0.000035 3.999999 0.500060
v 0.000035 4.999999 0.100060
v 0.000035 6.999999 0.100061
v 0.000035 5.099999 0.700061
v 0.000035 5.199999 0.600061
v 0.000035 6.799999 0.600061
v 0.000035 6.899999 0.700061
v 0.000035 8.099998 0.700061
v 0.000035 8.199999 0.600061
v 0.000035 3.799999 0.600061
v 0.000035 3.899999 0.700061
v 0.000035 8.099998 0.000061
v 0.000035 8.199999 0.100060
v 0.000035 3.799999 0.100060
v -0.049965 4.999999 0.086663
v -0.049965 6.999999 0.086663
v -0.349965 5.099999 0.606278
v -0.299966 5.199999 0.519676
v -0.299966 6.799999 0.519676
v -0.349965 6.899999 0.606278
v -0.349965 8.099998 0.606278
v -0.299966 8.199999 0.519676
v -0.299966 3.799999 0.519676
v -0.349965 3.899999 0.606278
v -0.049965 8.199999 0.086663
v -0.049965 3.799999 0.086663
v -0.432978 3.999999 0.250061
v -0.432978 4.999999 0.250061
v -0.432978 6.999999 0.250061
v -0.432978 7.999999 0.250061
v -0.173170 6.799999 0.100061
v -0.173170 5.199999 0.100061
v 0.000035 7.999999 0.000061
v -0.086568 4.999999 0.050061
v -0.086568 6.999999 0.050060
v -0.606183 5.099999 0.350061
v -0.519580 5.199999 0.300060
v -0.519580 6.799999 0.300060
v -0.606183 6.899999 0.350061
v -0.606183 8.099998 0.350061
v -0.519580 8.199999 0.300060
v -0.519580 3.799999 0.300060
v -0.606183 3.899999 0.350061
v -0.086568 8.199999 0.050060
v -0.086568 3.799999 0.050060
v -0.499965 3.999999 0.000061
v -0.499965 4.999999 0.000061
v -0.499965 6.999999 0.000061
v -0.499965 7.999999 0.000061
v -0.199965 6.799999 0.000061
v -0.199965 5.199999 0.000061
v 0.000035 3.999999 0.000061
v 0.000035 5.099999 0.000061
v -0.099965 4.999999 0.000061
v -0.099965 6.999999 0.000060
v 0.000035 6.899999 0.000061
v -0.699965 5.099999 0.000061
v -0.599965 5.199999 0.000061
v -0.599965 6.799999 0.000060
v -0.699965 6.899999 0.000061
v -0.699965 8.099998 0.000061
v -0.599965 8.199999 0.000060
v -0.599965 3.799999 0.000061
v -0.699965 3.899999 0.000061
v -0.099965 8.199999 0.000060
v -0.099965 3.799999 0.000060
v 0.000035 3.899999 0.000061
v 32.000034 5.200000 0.200072
v 32.000034 6.800000 0.200072
v 32.000034 5.000000 0.500072
v 32.000034 7.000000 0.500072
v 32.000034 8.000000 0.500072
v 32.000034 4.000000 0.500072
v 32.000034 5.000000 0.100072
v 32.000034 7.000000 0.100072
v 32.000034 5.200000 0.600072
v 32.000034 5.100000 0.700072
v 32.000034 6.900000 0.700072
v 32.000034 6.800000 0.600072
v 32.000034 8.200000 0.600072
v 32.000034 8.099999 0.700072
v 32.000034 3.900000 0.700072
v 32.000034 3.800000 0.600072
v 32.000034 8.200000 0.100072
v 32.000034 3.800000 0.100072
v 32.100037 5.200000 0.173277
v 32.100037 6.800000 0.173277
v 32.250034 8.000000 0.433085
v 32.250034 7.000000 0.433085
v 32.250034 5.000000 0.433085
v 32.250034 4.000000 0.433085
v 32.000034 4.000000 0.000072
v 32.050034 5.000000 0.086674
v 32.050034 7.000000 0.086675
v 32.300034 5.200000 0.519687
v 32.350037 5.100000 0.606290
v 32.350037 6.900000 0.606290
v 32.300034 6.800000 0.519687
v 32.300034 8.200000 0.519687
v 32.350037 8.099999 0.606290
v 32.350037 3.900000 0.606290
v 32.300034 3.800000 0.519687
v 32.050034 8.200000 0.086675
v 32.050034 3.800000 0.086674
v 32.173241 5.200000 0.100072
v 32.173241 6.800000 0.100072
v 32.433044 8.000000 0.250072
v 32.433044 7.000000 0.250072
v 32.433044 5.000000 0.250072
v 32.433044 4.000000 0.250072
v 32.086636 5.000000 0.050072
v 32.000034 5.100000 0.000072
v 32.000034 6.900000 0.000072
v 32.086636 7.000000 0.050072
v 32.519650 5.200000 0.300072
v 32.606255 5.100000 0.350072
v 32.606255 6.900000 0.350072
v 32.519650 6.800000 0.300072
v 32.519650 8.200000 0.300072
v 32.606255 8.099999 0.350072
v 32.606255 3.900000 0.350072
v 32.519650 3.800000 0.300072
v 32.086636 8.200000 0.050072
v 32.000034 8.099999 0.000072
v 32.000034 3.900000 0.000072
v 32.086636 3.800000 0.050072
v 32.200035 5.200000 0.000071
v 32.200035 6.800000 0.000071
v 32.500034 8.000000 0.000072
v 32.500034 7.000000 0.000072
v 32.500034 5.000000 0.000072
v 32.500034 4.000000 0.000072
v 32.000034 8.000000 0.000072
v 32.100033 5.000000 0.000073
v 32.100033 7.000000 0.000073
v 32.600037 5.200000 0.000072
v 32.700035 5.100000 0.000071
v 32.700035 6.900000 0.000071
v 32.600037 6.800000 0.000072
v 32.600037 8.200000 0.000072
v 32.700035 8.099999 0.000071
v 32.700035 3.900000 0.000071
v 32.600037 3.800000 0.000072
v 32.100033 8.200000 0.000073
v 32.100033 3.800000 0.000073
vt 0.1055 0.6784
vt 0.1056 0.6784
vt 0.1056 0.6796
vt 0.1055 0.6796
vt 0.1005 0.7421
vt 0.1006 0.7421
vt 0.1006 0.7451
vt 0.1005 0.7451
vt 0.1016 0.6784
vt 0.1016 0.6796
vt 0.1015 0.6796
vt 0.1015 0.6784
vt 0.1084 0.8633
vt 0.1084 0.8641
vt 0.1071 0.8641
vt 0.1071 0.8633
vt 0.1073 0.8602
vt 0.1073 0.8594
vt 0.1074 0.8594
vt 0.1074 0.8602
vt 0.1071 0.8585
vt 0.1071 0.8593
vt 0.1070 0.8593
vt 0.1070 0.8585
vt 0.1074 0.8625
vt 0.1074 0.8633
vt 0.1073 0.8633
vt 0.1073 0.8625
vt 0.1072 0.8626
vt 0.1072 0.8618
vt 0.1073 0.8618
vt 0.1073 0.8626
vt 0.1074 0.8643
vt 0.1074 0.8648
vt 0.1071 0.8650
vt 0.1071 0.8641
vt 0.1081 0.8648
vt 0.1081 0.8643
vt 0.1084 0.8641
vt 0.1084 0.8650
vt 0.1091 0.8650
vt 0.1084 0.8650
vt 0.1084 0.8642
vt 0.1085 0.8641
vt 0.1090 0.8641
vt 0.1091 0.8642
vt 0.1099 0.8650
vt 0.1091 0.8650
vt 0.1091 0.8642
vt 0.1092 0.8641
vt 0.1098 0.8641
vt 0.1099 0.8642
vt 0.0781 0.8670
vt 0.0786 0.8670
vt 0.0786 0.8675
vt 0.0781 0.8675
vt 0.0776 0.8652
vt 0.0776 0.8604
vt 0.0786 0.8604
vt 0.0786 0.8652
vt 0.0786 0.8604
vt 0.0786 0.8556
vt 0.0796 0.8556
vt 0.0796 0.8604
vt 0.0786 0.8669
vt 0.0791 0.8669
vt 0.0791 0.8675
vt 0.0786 0.8675
vt 0.0807 0.8604
vt 0.0807 0.8556
vt 0.0812 0.8556
vt 0.0812 0.8604
vt 0.0786 0.8669
vt 0.0786 0.8675
vt 0.0781 0.8669
vt 0.0781 0.8675
vt 0.0801 0.8652
vt 0.0801 0.8604
vt 0.0807 0.8604
vt 0.0807 0.8652
vt 0.0164 0.9531
vt 0.0163 0.9532
vt 0.0163 0.9531
vt 0.0163 0.9531
vt 0.0163 0.9531
vt 0.0164 0.9531
vt 0.0152 0.9601
vt 0.0152 0.9601
vt 0.0153 0.9600
vt 0.0154 0.9601
vt 0.0154 0.9601
vt 0.0153 0.9602
vt 0.0136 0.9561
vt 0.0137 0.9561
vt 0.0137 0.9564
vt 0.0136 0.9564
vt 0.0164 0.9490
vt 0.0165 0.9490
vt 0.0165 0.9493
vt 0.0164 0.9493
vt 0.0163 0.9600
vt 0.0162 0.9600
vt 0.0162 0.9597
vt 0.0163 0.9597
vt 0.0135 0.9561
vt 0.0135 0.9564
vt 0.0155 0.9586
vt 0.0156 0.9586
vt 0.0156 0.9589
vt 0.0155 0.9589
vt 0.0154 0.9586
vt 0.0154 0.9589
vt 0.0137 0.9552
vt 0.0137 0.9553
vt 0.0136 0.9553
vt 0.0135 0.9553
vt 0.0135 0.9552
vt 0.0136 0.9552
vt 0.0157 0.9585
vt 0.0156 0.9586
vt 0.0156 0.9585
vt 0.0156 0.9585
vt 0.0156 0.9584
vt 0.0157 0.9585
vt 0.0133 0.9574
vt 0.0133 0.9574
vt 0.0133 0.9577
vt 0.0133 0.9577
vt 0.0163 0.9531
vt 0.0162 0.9531
vt 0.0162 0.9528
vt 0.0163 0.9528
vt 0.0164 0.9493
vt 0.0165 0.9493
vt 0.0165 0.9496
vt 0.0164 0.9496
vt 0.0132 0.9574
vt 0.0132 0.9577
vt 0.0153 0.9586
vt 0.0154 0.9586
vt 0.0154 0.9589
vt 0.0153 0.9589
vt 0.0152 0.9586
vt 0.0152 0.9589
vt 0.0158 0.9586
vt 0.0157 0.9585
vt 0.0157 0.9585
vt 0.0158 0.9584
vt 0.0159 0.9585
vt 0.0159 0.9585
vt 0.0145 0.9601
vt 0.0144 0.9601
vt 0.0143 0.9601
vt 0.0143 0.9600
vt 0.0144 0.9600
vt 0.0145 0.9600
vt 0.0134 0.9574
vt 0.0134 0.9577
vt 0.0133 0.9577
vt 0.0133 0.9574
vt 0.0158 0.9600
vt 0.0158 0.9597
vt 0.0159 0.9597
vt 0.0159 0.9600
vt 0.0165 0.9484
vt 0.0165 0.9487
vt 0.0164 0.9487
vt 0.0164 0.9484
vt 0.0135 0.9574
vt 0.0135 0.9577
vt 0.0134 0.9577
vt 0.0134 0.9580
vt 0.0133 0.9580
vt 0.0133 0.9577
vt 0.0135 0.9577
vt 0.0135 0.9580
vt 0.0156 0.9585
vt 0.0155 0.9586
vt 0.0154 0.9585
vt 0.0154 0.9585
vt 0.0155 0.9584
vt 0.0156 0.9585
vt 0.0159 0.9531
vt 0.0159 0.9531
vt 0.0160 0.9531
vt 0.0161 0.9531
vt 0.0161 0.9531
vt 0.0160 0.9532
vt 0.0133 0.9577
vt 0.0133 0.9580
vt 0.0132 0.9580
vt 0.0132 0.9577
vt 0.0165 0.9487
vt 0.0165 0.9490
vt 0.0164 0.9490
vt 0.0164 0.9487
vt 0.0161 0.9600
vt 0.0161 0.9597
vt 0.0162 0.9597
vt 0.0162 0.9600
vt 0.0133 0.9577
vt 0.0133 0.9580
vt 0.0136 0.9549
vt 0.0136 0.9552
vt 0.0135 0.9552
vt 0.0135 0.9549
vt 0.0137 0.9549
vt 0.0137 0.9552
vt 0.1055 0.6666
vt 0.1056 0.6666
vt 0.1056 0.6678
vt 0.1055 0.6678
vt 0.1016 0.6666
vt 0.1016 0.6678
vt 0.1015 0.6678
vt 0.1015 0.6666
vt 0.1071 0.8641
vt 0.1071 0.8650
vt 0.1059 0.8650
vt 0.1059 0.8641
vt 0.1073 0.8614
vt 0.1073 0.8606
vt 0.1074 0.8606
vt 0.1074 0.8614
vt 0.1072 0.8618
vt 0.1072 0.8626
vt 0.1071 0.8626
vt 0.1071 0.8618
vt 0.1073 0.8625
vt 0.1073 0.8618
vt 0.1074 0.8618
vt 0.1074 0.8625
vt 0.1071 0.8618
vt 0.1071 0.8626
vt 0.1070 0.8626
vt 0.1070 0.8618
vt 0.1062 0.8635
vt 0.1062 0.8639
vt 0.1059 0.8641
vt 0.1059 0.8633
vt 0.1068 0.8639
vt 0.1068 0.8635
vt 0.1071 0.8633
vt 0.1071 0.8641
vt 0.1095 0.8563
vt 0.1102 0.8563
vt 0.1102 0.8571
vt 0.1101 0.8571
vt 0.1096 0.8571
vt 0.1095 0.8571
vt 0.1095 0.8571
vt 0.1102 0.8571
vt 0.1102 0.8580
vt 0.1101 0.8580
vt 0.1096 0.8580
vt 0.1095 0.8580
vt 0.0814 0.8655
vt 0.0818 0.8655
vt 0.0818 0.8660
vt 0.0814 0.8660
vt 0.0786 0.8556
vt 0.0786 0.8604
vt 0.0776 0.8604
vt 0.0776 0.8556
vt 0.0807 0.8556
vt 0.0807 0.8604
vt 0.0796 0.8604
vt 0.0796 0.8556
vt 0.0776 0.8669
vt 0.0781 0.8669
vt 0.0781 0.8675
vt 0.0776 0.8675
vt 0.0791 0.8652
vt 0.0791 0.8604
vt 0.0796 0.8604
vt 0.0796 0.8652
vt 0.0819 0.8654
vt 0.0819 0.8660
vt 0.0814 0.8654
vt 0.0814 0.8660
vt 0.0796 0.8652
vt 0.0796 0.8604
vt 0.0801 0.8604
vt 0.0801 0.8652
vt 0.0154 0.9585
vt 0.0153 0.9586
vt 0.0152 0.9585
vt 0.0152 0.9585
vt 0.0153 0.9584
vt 0.0154 0.9585
vt 0.0155 0.9600
vt 0.0156 0.9601
vt 0.0156 0.9601
vt 0.0155 0.9602
vt 0.0154 0.9601
vt 0.0154 0.9601
vt 0.0156 0.9600
vt 0.0156 0.9600
vt 0.0156 0.9597
vt 0.0156 0.9597
vt 0.0164 0.9600
vt 0.0163 0.9600
vt 0.0163 0.9597
vt 0.0164 0.9597
vt 0.0146 0.9600
vt 0.0145 0.9600
vt 0.0145 0.9597
vt 0.0146 0.9597
vt 0.0157 0.9600
vt 0.0157 0.9597
vt 0.0153 0.9597
vt 0.0154 0.9597
vt 0.0154 0.9600
vt 0.0153 0.9600
vt 0.0152 0.9597
vt 0.0152 0.9600
vt 0.0158 0.9531
vt 0.0159 0.9531
vt 0.0159 0.9531
vt 0.0158 0.9532
vt 0.0157 0.9531
vt 0.0157 0.9531
vt 0.0163 0.9531
vt 0.0162 0.9532
vt 0.0161 0.9531
vt 0.0161 0.9531
vt 0.0162 0.9531
vt 0.0163 0.9531
vt 0.0144 0.9597
vt 0.0145 0.9597
vt 0.0145 0.9600
vt 0.0144 0.9600
vt 0.0160 0.9600
vt 0.0159 0.9600
vt 0.0159 0.9597
vt 0.0160 0.9597
vt 0.0164 0.9528
vt 0.0165 0.9528
vt 0.0165 0.9531
vt 0.0164 0.9531
vt 0.0143 0.9597
vt 0.0143 0.9600
vt 0.0158 0.9528
vt 0.0159 0.9528
vt 0.0159 0.9531
vt 0.0158 0.9531
vt 0.0157 0.9528
vt 0.0157 0.9531
vt 0.0156 0.9601
vt 0.0156 0.9600
vt 0.0157 0.9601
vt 0.0157 0.9601
vt 0.0156 0.9602
vt 0.0156 0.9601
vt 0.0163 0.9601
vt 0.0162 0.9601
vt 0.0161 0.9601
vt 0.0161 0.9600
vt 0.0162 0.9600
vt 0.0163 0.9600
vt 0.0160 0.9528
vt 0.0160 0.9531
vt 0.0159 0.9531
vt 0.0159 0.9528
vt 0.0161 0.9531
vt 0.0161 0.9528
vt 0.0162 0.9528
vt 0.0162 0.9531
vt 0.0164 0.9600
vt 0.0164 0.9597
vt 0.0165 0.9597
vt 0.0165 0.9600
vt 0.0161 0.9528
vt 0.0161 0.9531
vt 0.0155 0.9597
vt 0.0155 0.9600
vt 0.0154 0.9600
vt 0.0154 0.9597
vt 0.0156 0.9597
vt 0.0156 0.9600
vt 0.0137 0.9564
vt 0.0137 0.9565
vt 0.0136 0.9565
vt 0.0135 0.9565
vt 0.0135 0.9564
vt 0.0136 0.9564
vt 0.0159 0.9600
vt 0.0160 0.9601
vt 0.0160 0.9601
vt 0.0159 0.9602
vt 0.0158 0.9601
vt 0.0158 0.9601
vt 0.0158 0.9586
vt 0.0158 0.9589
vt 0.0157 0.9589
vt 0.0157 0.9586
vt 0.0164 0.9528
vt 0.0164 0.9531
vt 0.0163 0.9531
vt 0.0163 0.9528
vt 0.0157 0.9600
vt 0.0157 0.9597
vt 0.0158 0.9597
vt 0.0158 0.9600
vt 0.0159 0.9586
vt 0.0159 0.9589
vt 0.0156 0.9589
vt 0.0156 0.9586
vt 0.0157 0.9586
vt 0.0157 0.9589
vt 0.0156 0.9589
vt 0.0156 0.9586
vt 0.1005 0.7409
vt 0.1005 0.7303
vt 0.1006 0.7303
vt 0.1006 0.7409
vt 0.1046 0.7409
vt 0.1046 0.7303
vt 0.1047 0.7303
vt 0.1047 0.7409
vt 0.1046 0.7421
vt 0.1047 0.7421
vt 0.1047 0.7451
vt 0.1046 0.7451
vt 0.1018 0.7452
vt 0.1018 0.7455
vt 0.1017 0.7455
vt 0.1005 0.7455
vt 0.1004 0.7455
vt 0.1004 0.7452
vt 0.1006 0.7454
vt 0.1016 0.7454
vt 0.1016 0.7452
vt 0.1017 0.7451
vt 0.1035 0.7451
vt 0.1036 0.7452
vt 0.1036 0.7454
vt 0.1046 0.7454
vt 0.1048 0.7452
vt 0.1048 0.7455
vt 0.1047 0.7455
vt 0.1035 0.7455
vt 0.1034 0.7455
vt 0.1034 0.7452
vt 0.1006 0.7291
vt 0.1005 0.7291
vt 0.1005 0.7261
vt 0.1006 0.7261
vt 0.1047 0.7291
vt 0.1046 0.7291
vt 0.1046 0.7261
vt 0.1047 0.7261
vt 0.1034 0.7260
vt 0.1034 0.7258
vt 0.1035 0.7257
vt 0.1047 0.7257
vt 0.1048 0.7258
vt 0.1048 0.7261
vt 0.1046 0.7258
vt 0.1036 0.7258
vt 0.1036 0.7261
vt 0.1035 0.7261
vt 0.1017 0.7261
vt 0.1016 0.7261
vt 0.1016 0.7258
vt 0.1006 0.7258
vt 0.1004 0.7261
vt 0.1004 0.7258
vt 0.1005 0.7257
vt 0.1017 0.7257
vt 0.1018 0.7258
vt 0.1018 0.7260
vt 0.1129 0.7290
vt 0.1125 0.7290
vt 0.1125 0.7261
vt 0.1129 0.7261
vt 0.8824 0.6542
vt 0.9936 0.6542
vt 0.9936 0.7209
vt 0.8824 0.7209
vt 0.1151 0.6665
vt 0.1151 0.6677
vt 0.1147 0.6677
vt 0.1147 0.6665
vt 0.1095 0.6629
vt 0.1079 0.6629
vt 0.1079 0.6617
vt 0.1095 0.6617
vt 0.1091 0.7289
vt 0.1090 0.7289
vt 0.1090 0.7259
vt 0.1091 0.7259
vt 0.1193 0.7276
vt 0.1193 0.7276
vt 0.1193 0.7265
vt 0.1193 0.7265
vt 0.1195 0.7266
vt 0.1195 0.7275
vt 0.1199 0.7265
vt 0.1199 0.7265
vt 0.1198 0.7264
vt 0.1198 0.7258
vt 0.1199 0.7258
vt 0.1199 0.7258
vt 0.1035 0.7421
vt 0.1036 0.7421
vt 0.1036 0.7451
vt 0.1088 0.6676
vt 0.1088 0.6664
vt 0.1100 0.6664
vt 0.1100 0.6676
vt 0.1027 0.6784
vt 0.1045 0.6784
vt 0.1045 0.6796
vt 0.1027 0.6796
vt 0.1194 0.7264
vt 0.1199 0.7266
vt 0.1160 0.6783
vt 0.1160 0.6795
vt 0.1157 0.6795
vt 0.1157 0.6783
vt 0.1198 0.7276
vt 0.1199 0.7275
vt 0.1199 0.7276
vt 0.1199 0.7283
vt 0.1199 0.7283
vt 0.1198 0.7282
vt 0.1091 0.7420
vt 0.1101 0.7420
vt 0.1101 0.7449
vt 0.1091 0.7449
vt 0.1110 0.6783
vt 0.1110 0.6795
vt 0.1100 0.6795
vt 0.1100 0.6783
vt 0.1152 0.7420
vt 0.1157 0.7420
vt 0.1157 0.7450
vt 0.1152 0.7450
vt 0.1139 0.6665
vt 0.1139 0.6677
vt 0.1135 0.6677
vt 0.1135 0.6665
vt 0.1199 0.7283
vt 0.1194 0.7283
vt 0.1193 0.7283
vt 0.1193 0.7282
vt 0.1110 0.6795
vt 0.1110 0.6783
vt 0.1120 0.6783
vt 0.1120 0.6795
vt 0.1132 0.6784
vt 0.1132 0.6796
vt 0.1128 0.6796
vt 0.1128 0.6784
vt 0.1141 0.7290
vt 0.1137 0.7290
vt 0.1137 0.7260
vt 0.1141 0.7260
vt 0.1147 0.6665
vt 0.1147 0.6677
vt 0.1142 0.6677
vt 0.1142 0.6665
vt 0.1121 0.6677
vt 0.1121 0.6665
vt 0.1126 0.6665
vt 0.1126 0.6677
vt 0.1199 0.7257
vt 0.1193 0.7258
vt 0.1193 0.7258
vt 0.1194 0.7257
vt 0.1161 0.6795
vt 0.1161 0.6783
vt 0.1166 0.6783
vt 0.1166 0.6795
vt 0.1016 0.7421
vt 0.1017 0.7421
vt 0.1016 0.7451
vt 0.1152 0.6677
vt 0.1152 0.6665
vt 0.1157 0.6665
vt 0.1157 0.6677
vt 0.1194 0.7276
vt 0.1137 0.7290
vt 0.1132 0.7290
vt 0.1132 0.7261
vt 0.1137 0.7261
vt 0.1004 0.7421
vt 0.1004 0.7451
vt 0.1199 0.7275
vt 0.1147 0.7420
vt 0.1151 0.7420
vt 0.1151 0.7450
vt 0.1147 0.7450
vt 0.1078 0.7289
vt 0.1077 0.7289
vt 0.1077 0.7259
vt 0.1078 0.7259
vt 0.1046 0.6784
vt 0.1046 0.6796
vt 0.1026 0.6796
vt 0.1026 0.6784
vt 0.1087 0.6676
vt 0.1087 0.6664
vt 0.1086 0.6676
vt 0.1086 0.6664
vt 0.1087 0.6664
vt 0.1087 0.6676
vt 0.1073 0.6676
vt 0.1073 0.6664
vt 0.1074 0.6664
vt 0.1074 0.6676
vt 0.1120 0.6677
vt 0.1120 0.6665
vt 0.1014 0.6796
vt 0.1014 0.6784
vt 0.1127 0.6665
vt 0.1127 0.6677
vt 0.1103 0.8610
vt 0.1097 0.8610
vt 0.1097 0.8601
vt 0.1103 0.8601
vt 0.1084 0.8651
vt 0.1090 0.8651
vt 0.1090 0.8654
vt 0.1084 0.8654
vt 0.1097 0.8585
vt 0.1103 0.8585
vt 0.1103 0.8593
vt 0.1097 0.8593
vt 0.1084 0.8650
vt 0.1090 0.8650
vt 0.1090 0.8655
vt 0.1084 0.8655
vt 0.1189 0.7339
vt 0.1192 0.7339
vt 0.1194 0.7339
vt 0.1193 0.7340
vt 0.1190 0.7340
vt 0.1188 0.7339
vt 0.8825 0.6541
vt 0.9937 0.6541
vt 0.9937 0.7209
vt 0.8825 0.7209
vt 0.1151 0.6783
vt 0.1151 0.6795
vt 0.1147 0.6795
vt 0.1147 0.6783
vt 0.1095 0.6747
vt 0.1079 0.6747
vt 0.1079 0.6736
vt 0.1095 0.6736
vt 0.1190 0.7349
vt 0.1193 0.7349
vt 0.1194 0.7350
vt 0.1192 0.7350
vt 0.1189 0.7350
vt 0.1188 0.7350
vt 0.1194 0.7313
vt 0.1194 0.7313
vt 0.1194 0.7324
vt 0.1194 0.7324
vt 0.1192 0.7323
vt 0.1192 0.7314
vt 0.1188 0.7324
vt 0.1188 0.7324
vt 0.1190 0.7324
vt 0.1190 0.7330
vt 0.1188 0.7331
vt 0.1188 0.7331
vt 0.1192 0.7333
vt 0.1188 0.7333
vt 0.1188 0.7332
vt 0.1189 0.7332
vt 0.1193 0.7332
vt 0.1194 0.7332
vt 0.1088 0.6794
vt 0.1088 0.6782
vt 0.1100 0.6782
vt 0.1100 0.6794
vt 0.1027 0.6666
vt 0.1045 0.6666
vt 0.1045 0.6678
vt 0.1027 0.6678
vt 0.1193 0.7324
vt 0.1189 0.7323
vt 0.1160 0.6665
vt 0.1160 0.6677
vt 0.1157 0.6677
vt 0.1157 0.6665
vt 0.1190 0.7313
vt 0.1188 0.7313
vt 0.1188 0.7313
vt 0.1188 0.7306
vt 0.1188 0.7306
vt 0.1190 0.7307
vt 0.1188 0.7350
vt 0.1188 0.7339
vt 0.1110 0.6664
vt 0.1110 0.6676
vt 0.1100 0.6676
vt 0.1100 0.6664
vt 0.1194 0.7332
vt 0.1194 0.7339
vt 0.1139 0.6784
vt 0.1139 0.6796
vt 0.1135 0.6796
vt 0.1135 0.6784
vt 0.1189 0.7305
vt 0.1193 0.7305
vt 0.1194 0.7306
vt 0.1194 0.7307
vt 0.1110 0.6676
vt 0.1110 0.6664
vt 0.1120 0.6664
vt 0.1120 0.6676
vt 0.1132 0.6665
vt 0.1132 0.6677
vt 0.1128 0.6677
vt 0.1128 0.6665
vt 0.1194 0.7350
vt 0.1194 0.7357
vt 0.1194 0.7357
vt 0.1192 0.7356
vt 0.1147 0.6784
vt 0.1147 0.6796
vt 0.1142 0.6796
vt 0.1142 0.6784
vt 0.1121 0.6796
vt 0.1121 0.6784
vt 0.1126 0.6784
vt 0.1126 0.6796
vt 0.1189 0.7332
vt 0.1194 0.7330
vt 0.1194 0.7331
vt 0.1193 0.7332
vt 0.1161 0.6677
vt 0.1161 0.6665
vt 0.1166 0.6665
vt 0.1166 0.6677
vt 0.1193 0.7358
vt 0.1189 0.7358
vt 0.1188 0.7357
vt 0.1188 0.7356
vt 0.1152 0.6795
vt 0.1152 0.6783
vt 0.1157 0.6783
vt 0.1157 0.6795
vt 0.1193 0.7313
vt 0.1189 0.7314
vt 0.1046 0.6666
vt 0.1046 0.6678
vt 0.1026 0.6678
vt 0.1026 0.6666
vt 0.1087 0.6794
vt 0.1087 0.6782
vt 0.1086 0.6794
vt 0.1086 0.6782
vt 0.1087 0.6782
vt 0.1087 0.6794
vt 0.1073 0.6794
vt 0.1073 0.6782
vt 0.1074 0.6782
vt 0.1074 0.6794
vt 0.1120 0.6796
vt 0.1120 0.6784
vt 0.1014 0.6678
vt 0.1014 0.6666
vt 0.1127 0.6784
vt 0.1127 0.6796
vt 0.1103 0.8601
vt 0.1097 0.8601
vt 0.1097 0.8593
vt 0.1103 0.8593
vt 0.1081 0.8653
vt 0.1075 0.8653
vt 0.1075 0.8650
vt 0.1081 0.8650
vt 0.1084 0.8633
vt 0.1090 0.8633
vt 0.1090 0.8641
vt 0.1084 0.8641
vt 0.1081 0.8654
vt 0.1075 0.8654
vt 0.1075 0.8650
vt 0.1081 0.8650
vt 0.1129 0.7302
vt 0.1129 0.7409
vt 0.1125 0.7409
vt 0.1125 0.7302
vt 0.1077 0.7301
vt 0.1077 0.7407
vt 0.1076 0.7407
vt 0.1076 0.7301
vt 0.1064 0.7407
vt 0.1064 0.7301
vt 0.1063 0.7407
vt 0.1063 0.7301
vt 0.1137 0.7302
vt 0.1137 0.7409
vt 0.1132 0.7409
vt 0.1132 0.7302
vt 0.1004 0.7409
vt 0.1004 0.7303
vt 0.1147 0.7302
vt 0.1147 0.7408
vt 0.1142 0.7408
vt 0.1142 0.7302
vt 0.1091 0.7408
vt 0.1091 0.7301
vt 0.1101 0.7301
vt 0.1101 0.7408
vt 0.1147 0.7408
vt 0.1147 0.7302
vt 0.1151 0.7302
vt 0.1151 0.7408
vt 0.1016 0.7409
vt 0.1016 0.7303
vt 0.1017 0.7303
vt 0.1017 0.7409
vt 0.1035 0.7303
vt 0.1035 0.7409
vt 0.1036 0.7303
vt 0.1036 0.7409
vt 0.1141 0.7302
vt 0.1141 0.7408
vt 0.1137 0.7408
vt 0.1137 0.7302
vt 0.1101 0.7408
vt 0.1101 0.7301
vt 0.1110 0.7301
vt 0.1110 0.7408
vt 0.1152 0.7408
vt 0.1152 0.7302
vt 0.1157 0.7302
vt 0.1157 0.7408
vt 0.1117 0.7302
vt 0.1117 0.7409
vt 0.1116 0.7409
vt 0.1116 0.7302
vt 0.1111 0.7409
vt 0.1111 0.7302
vt 0.1110 0.7409
vt 0.1110 0.7302
vt 0.1090 0.7301
vt 0.1090 0.7407
vt 0.1078 0.7407
vt 0.1078 0.7301
vt 0.1077 0.7407
vt 0.1077 0.7301
vt 0.1118 0.7409
vt 0.1118 0.7302
vt 0.1122 0.7302
vt 0.1122 0.7409
vt 0.1063 0.7299
vt 0.1063 0.7406
vt 0.1048 0.7406
vt 0.1048 0.7299
vt 0.1076 0.7289
vt 0.1064 0.7289
vt 0.1064 0.7259
vt 0.1076 0.7259
vt 0.1063 0.7289
vt 0.1063 0.7259
vt 0.1117 0.7290
vt 0.1116 0.7290
vt 0.1116 0.7261
vt 0.1117 0.7261
vt 0.1118 0.7421
vt 0.1122 0.7421
vt 0.1122 0.7450
vt 0.1118 0.7450
vt 0.1063 0.7287
vt 0.1048 0.7287
vt 0.1048 0.7258
vt 0.1063 0.7258
vt 0.1147 0.7290
vt 0.1142 0.7290
vt 0.1142 0.7260
vt 0.1147 0.7260
vt 0.1101 0.7420
vt 0.1110 0.7420
vt 0.1110 0.7449
vt 0.1101 0.7449
vt 0.1077 0.7289
vt 0.1077 0.7259
vt 0.1111 0.7290
vt 0.1111 0.7261
vt 0.1126 0.7259
vt 0.1129 0.7260
vt 0.1101 0.7451
vt 0.1091 0.7451
vt 0.1152 0.7450
vt 0.1151 0.7450
vt 0.1138 0.7259
vt 0.1141 0.7260
vt 0.1132 0.7261
vt 0.1136 0.7259
vt 0.1110 0.7451
vt 0.1101 0.7451
vt 0.1078 0.7257
vt 0.1090 0.7257
vt 0.1152 0.7451
vt 0.1063 0.7258
vt 0.1064 0.7257
vt 0.1112 0.7259
vt 0.1116 0.7261
vt 0.1142 0.7259
vt 0.1076 0.7257
vt 0.1077 0.7258
vt 0.1122 0.7451
vt 0.1119 0.7452
vt 0.1036 0.7451
vt 0.1091 0.7258
vt 0.1004 0.7451
vt 0.1147 0.7451
vt 0.1048 0.7257
vt 0.1063 0.7257
vt 0.1124 0.7261
vt 0.1125 0.7259
vt 0.1117 0.7260
vt 0.1139 0.7258
vt 0.1141 0.7260
vt 0.1142 0.7260
vt 0.1123 0.7451
vt 0.1121 0.7453
vt 0.1151 0.7450
vt 0.1131 0.7260
vt 0.1134 0.7258
vt 0.1149 0.7452
vt 0.1118 0.7452
vt 0.1121 0.7454
vt 0.1170 0.7315
vt 0.1170 0.7305
vt 0.1171 0.7305
vt 0.1171 0.7315
vt 0.1128 0.7258
vt 0.1130 0.7260
vt 0.1128 0.7257
vt 0.1114 0.7258
vt 0.1101 0.7452
vt 0.1091 0.7452
vt 0.1200 0.7331
vt 0.1200 0.7338
vt 0.1198 0.7338
vt 0.1198 0.7331
vt 0.1137 0.7259
vt 0.1134 0.7257
vt 0.1110 0.7452
vt 0.1101 0.7452
vt 0.1194 0.7346
vt 0.1194 0.7339
vt 0.1197 0.7339
vt 0.1197 0.7346
vt 0.1111 0.7259
vt 0.1114 0.7257
vt 0.1154 0.7452
vt 0.1131 0.7261
vt 0.1144 0.7258
vt 0.1197 0.7347
vt 0.1200 0.7346
vt 0.1200 0.7347
vt 0.1117 0.7257
vt 0.1117 0.7260
vt 0.1168 0.7327
vt 0.1168 0.7321
vt 0.1170 0.7321
vt 0.1170 0.7327
vt 0.1194 0.7338
vt 0.1194 0.7331
vt 0.1197 0.7339
vt 0.1200 0.7339
vt 0.1200 0.7339
vt 0.1168 0.7321
vt 0.1168 0.7315
vt 0.1170 0.7315
vt 0.1170 0.7321
vt 0.1197 0.7330
vt 0.1194 0.7330
vt 0.1157 0.7453
vt 0.1131 0.7260
vt 0.1147 0.7257
vt 0.1142 0.7257
vt 0.1142 0.7260
vt 0.1124 0.7452
vt 0.1124 0.7454
vt 0.1152 0.7450
vt 0.1131 0.7257
vt 0.1152 0.7453
vt 0.1197 0.7339
vt 0.1194 0.7339
vt 0.1172 0.7305
vt 0.1172 0.7315
vt 0.1131 0.7257
vt 0.1131 0.7260
vt 0.1151 0.7290
vt 0.1147 0.7290
vt 0.1147 0.7260
vt 0.1151 0.7260
vt 0.1036 0.7291
vt 0.1035 0.7291
vt 0.1036 0.7261
vt 0.1110 0.7421
vt 0.1111 0.7421
vt 0.1111 0.7450
vt 0.1110 0.7450
vt 0.1125 0.7421
vt 0.1129 0.7421
vt 0.1129 0.7450
vt 0.1125 0.7450
vt 0.1063 0.7419
vt 0.1064 0.7419
vt 0.1064 0.7449
vt 0.1063 0.7449
vt 0.1076 0.7419
vt 0.1076 0.7449
vt 0.1137 0.7421
vt 0.1137 0.7450
vt 0.1132 0.7450
vt 0.1132 0.7421
vt 0.1141 0.7420
vt 0.1141 0.7450
vt 0.1137 0.7450
vt 0.1137 0.7420
vt 0.1116 0.7421
vt 0.1117 0.7421
vt 0.1117 0.7450
vt 0.1116 0.7450
vt 0.1077 0.7419
vt 0.1077 0.7449
vt 0.1142 0.7420
vt 0.1147 0.7420
vt 0.1147 0.7450
vt 0.1142 0.7450
vt 0.1101 0.7289
vt 0.1091 0.7289
vt 0.1091 0.7260
vt 0.1101 0.7260
vt 0.1063 0.7418
vt 0.1063 0.7447
vt 0.1048 0.7447
vt 0.1048 0.7418
vt 0.1157 0.7290
vt 0.1152 0.7290
vt 0.1152 0.7260
vt 0.1157 0.7260
vt 0.1077 0.7419
vt 0.1078 0.7419
vt 0.1078 0.7449
vt 0.1077 0.7449
vt 0.1118 0.7290
vt 0.1118 0.7261
vt 0.1122 0.7261
vt 0.1122 0.7290
vt 0.1090 0.7419
vt 0.1090 0.7449
vt 0.1017 0.7291
vt 0.1016 0.7291
vt 0.1016 0.7261
vt 0.1004 0.7291
vt 0.1004 0.7261
vt 0.1110 0.7289
vt 0.1101 0.7289
vt 0.1101 0.7260
vt 0.1110 0.7260
vt 0.1016 0.7261
vt 0.1111 0.7452
vt 0.1112 0.7452
vt 0.1114 0.7453
vt 0.1114 0.7454
vt 0.1136 0.7452
vt 0.1132 0.7451
vt 0.1147 0.7259
vt 0.1151 0.7260
vt 0.1117 0.7261
vt 0.1118 0.7259
vt 0.1119 0.7259
vt 0.1116 0.7451
vt 0.1063 0.7448
vt 0.1048 0.7448
vt 0.1129 0.7451
vt 0.1126 0.7452
vt 0.1077 0.7451
vt 0.1076 0.7451
vt 0.1091 0.7258
vt 0.1101 0.7258
vt 0.1090 0.7451
vt 0.1078 0.7451
vt 0.1064 0.7451
vt 0.1063 0.7451
vt 0.1101 0.7258
vt 0.1110 0.7258
vt 0.1142 0.7451
vt 0.1004 0.7261
vt 0.1141 0.7450
vt 0.1138 0.7451
vt 0.1152 0.7259
vt 0.1122 0.7260
vt 0.1036 0.7261
vt 0.1131 0.7451
vt 0.1134 0.7453
vt 0.1131 0.7454
vt 0.1131 0.7451
vt 0.1144 0.7452
vt 0.1131 0.7450
vt 0.1141 0.7450
vt 0.1139 0.7452
vt 0.1154 0.7258
vt 0.1117 0.7451
vt 0.1121 0.7258
vt 0.1123 0.7260
vt 0.1142 0.7450
vt 0.1152 0.7260
vt 0.1151 0.7260
vt 0.1149 0.7258
vt 0.1121 0.7257
vt 0.1169 0.7315
vt 0.1169 0.7305
vt 0.1169 0.7305
vt 0.1169 0.7315
vt 0.1130 0.7451
vt 0.1128 0.7453
vt 0.1125 0.7452
vt 0.1128 0.7454
vt 0.1091 0.7257
vt 0.1101 0.7257
vt 0.1196 0.7370
vt 0.1196 0.7363
vt 0.1199 0.7363
vt 0.1199 0.7370
vt 0.1137 0.7452
vt 0.1134 0.7454
vt 0.1101 0.7257
vt 0.1110 0.7257
vt 0.1194 0.7355
vt 0.1194 0.7347
vt 0.1197 0.7347
vt 0.1197 0.7355
vt 0.1152 0.7257
vt 0.1152 0.7260
vt 0.1199 0.7370
vt 0.1202 0.7370
vt 0.1202 0.7370
vt 0.1117 0.7451
vt 0.1117 0.7454
vt 0.1170 0.7305
vt 0.1170 0.7315
vt 0.1131 0.7452
vt 0.1131 0.7454
vt 0.1197 0.7347
vt 0.1200 0.7347
vt 0.1200 0.7347
vt 0.1170 0.7327
vt 0.1170 0.7333
vt 0.1168 0.7333
vt 0.1168 0.7327
vt 0.1202 0.7363
vt 0.1197 0.7355
vt 0.1200 0.7355
vt 0.1200 0.7355
vt 0.1170 0.7333
vt 0.1170 0.7339
vt 0.1168 0.7339
vt 0.1168 0.7333
vt 0.1199 0.7362
vt 0.1202 0.7362
vt 0.1147 0.7453
vt 0.1142 0.7450
vt 0.1142 0.7453
vt 0.1157 0.7257
vt 0.1124 0.7257
vt 0.1124 0.7260
vn 0.0000 0.0000 -1.0000
vn -0.0000 0.0000 1.0000
vn 1.0000 -0.0000 0.0000
vn 0.0000 -1.0000 0.0000
vn -1.0000 -0.0000 0.0000
vn 0.0000 1.0000 0.0000
vn -0.6261 0.7798 0.0000
vn 0.0000 0.9267 -0.3758
vn 0.6261 0.7798 0.0000
vn 0.0000 0.9267 0.3758
vn 0.5000 -0.8660 0.0000
vn -0.5000 -0.8660 0.0000
vn -0.5000 0.8660 0.0000
vn 0.5000 0.8660 0.0000
vn -0.0000 -0.7071 0.7071
vn -0.0877 -0.7044 0.7044
vn -0.0987 -0.7037 0.7037
vn 0.0000 -0.7071 -0.7071
vn 0.0877 -0.7044 -0.7044
vn 0.2019 -0.7412 -0.6402
vn 0.1305 0.0000 -0.9914
vn 0.0000 0.7071 -0.7071
vn 0.2019 0.7412 -0.6402
vn 0.0877 0.7044 -0.7044
vn -0.0000 0.7071 0.7071
vn -0.0987 0.7037 0.7037
vn -0.0877 0.7044 0.7044
vn -0.9239 0.0000 -0.3827
vn 0.3827 -0.0000 -0.9239
vn -0.3827 0.0000 -0.9239
vn 0.9239 0.0000 -0.3827
vn -0.1305 0.0000 0.9914
vn 0.5000 0.0000 -0.8660
vn 0.3536 0.7071 -0.6124
vn -0.5000 0.0000 0.8660
vn -0.3536 0.7071 0.6124
vn 0.3536 -0.7071 -0.6124
vn -0.3536 -0.7071 0.6124
vn 0.6124 -0.7071 -0.3535
vn 0.6124 -0.7071 -0.3536
vn 0.6124 0.7071 -0.3536
vn -0.6124 0.7071 0.3536
vn -0.8660 0.0000 0.5000
vn -0.6124 -0.7071 0.3536
vn 0.8660 0.0000 -0.5000
vn -0.6947 -0.6947 0.1862
vn 0.9659 0.0000 -0.2588
vn -0.9659 0.0000 0.2588
vn -0.6947 0.6947 0.1862
vn 0.6947 0.6947 -0.1861
vn 0.6947 -0.6947 -0.1862
vn 0.6947 0.6947 -0.1862
vn -0.2019 -0.7412 -0.6402
vn -0.0877 -0.7044 -0.7044
vn 0.0987 -0.7037 0.7037
vn 0.0877 -0.7044 0.7044
vn 0.0877 0.7044 0.7044
vn 0.0987 0.7037 0.7037
vn 0.1305 0.0000 0.9914
vn -0.1305 0.0000 -0.9914
vn -0.0877 0.7044 -0.7044
vn -0.2019 0.7412 -0.6402
vn -0.3536 0.7071 -0.6124
vn 0.3536 -0.7071 0.6124
vn 0.3535 -0.7071 0.6124
vn 0.6124 -0.7071 0.3536
vn 0.3536 0.7071 0.6124
vn 0.3535 0.7071 0.6124
vn 0.5000 0.0000 0.8660
vn -0.5000 0.0000 -0.8660
vn -0.3536 -0.7071 -0.6124
vn -0.6124 0.7071 -0.3536
vn -0.6124 -0.7071 -0.3536
vn 0.6124 0.7071 0.3536
vn 0.8660 0.0000 0.5000
vn -0.8660 0.0000 -0.5000
vn 0.6948 0.6947 0.1862
vn 0.9659 0.0000 0.2588
vn 0.6948 -0.6947 0.1862
vn -0.9659 0.0000 -0.2588
vn 0.6947 -0.6947 0.1862
vn -0.6948 0.6947 -0.1862
vn -0.6947 -0.6948 -0.1861
vn -0.6947 -0.6947 -0.1862
usemtl Material
s off
f 15/1/1 58/2/1 59/3/1 16/4/1
f 56/5/1 14/6/1 318/7/1 297/8/1
f 13/9/1 14/10/1 56/11/1 53/12/1
f 63/13/2 64/14/2 62/15/2 61/16/2
f 63/17/3 61/18/3 70/19/3 71/20/3
f 61/21/4 62/22/4 69/23/4 70/24/4
f 62/25/5 64/26/5 72/27/5 69/28/5
f 64/29/6 63/30/6 71/31/6 72/32/6
f 65/33/1 66/34/1 70/35/1 69/36/1
f 67/37/1 68/38/1 72/39/1 71/40/1
f 66/34/1 67/37/1 71/40/1 70/35/1
f 68/38/1 65/33/1 69/36/1 72/39/1
f 68/41/6 67/42/6 77/43/6 78/44/6 79/45/6 80/46/6
f 66/47/4 65/48/4 73/49/4 74/50/4 75/51/4 76/52/4
f 91/53/6 87/54/6 85/55/6 89/56/6
f 84/57/3 92/58/3 90/59/3 83/60/3
f 81/61/5 86/62/5 88/63/5 82/64/5
f 82/65/4 84/66/4 83/67/4 81/68/4
f 82/69/1 88/70/1 92/71/1 84/72/1
f 85/55/7 87/54/7 88/73/7 86/74/7
f 87/54/8 91/53/8 92/75/8 88/73/8
f 91/53/9 89/56/9 90/76/9 92/75/9
f 89/56/10 85/55/10 86/74/10 90/76/10
f 83/77/2 90/78/2 86/79/2 81/80/2
f 94/81/1 93/82/1 98/83/1 97/84/1 96/85/1 95/86/1
f 99/87/2 101/88/2 102/89/2 103/90/2 104/91/2 100/92/2
f 96/93/11 97/94/11 103/95/11 102/96/11
f 94/97/5 95/98/5 101/99/5 99/100/5
f 97/101/3 98/102/3 104/103/3 103/104/3
f 95/105/12 96/93/12 102/96/12 101/106/12
f 93/107/13 94/108/13 99/109/13 100/110/13
f 98/111/14 93/107/14 100/110/14 104/112/14
f 106/113/1 105/114/1 110/115/1 109/116/1 108/117/1 107/118/1
f 111/119/2 113/120/2 114/121/2 115/122/2 116/123/2 112/124/2
f 108/125/13 109/126/13 115/127/13 114/128/13
f 106/129/3 107/130/3 113/131/3 111/132/3
f 109/133/5 110/134/5 116/135/5 115/136/5
f 107/137/14 108/125/14 114/128/14 113/138/14
f 105/139/11 106/140/11 111/141/11 112/142/11
f 110/143/12 105/139/12 112/142/12 116/144/12
f 118/145/1 119/146/1 120/147/1 121/148/1 122/149/1 117/150/1
f 123/151/2 124/152/2 128/153/2 127/154/2 126/155/2 125/156/2
f 120/157/12 126/158/12 127/159/12 121/160/12
f 118/161/3 123/162/3 125/163/3 119/164/3
f 121/165/5 127/166/5 128/167/5 122/168/5
f 119/169/11 125/170/11 126/158/11 120/157/11
f 117/171/14 124/172/14 123/173/14 118/174/14
f 122/175/13 128/176/13 124/172/13 117/171/13
f 130/177/1 131/178/1 132/179/1 133/180/1 134/181/1 129/182/1
f 135/183/2 136/184/2 140/185/2 139/186/2 138/187/2 137/188/2
f 132/189/14 138/190/14 139/191/14 133/192/14
f 130/193/5 135/194/5 137/195/5 131/196/5
f 133/197/3 139/198/3 140/199/3 134/200/3
f 131/201/13 137/202/13 138/190/13 132/189/13
f 129/203/12 136/204/12 135/205/12 130/206/12
f 134/207/11 140/208/11 136/204/11 129/203/11
f 155/209/1 198/210/1 199/211/1 156/212/1
f 153/213/1 154/214/1 196/215/1 193/216/1
f 203/217/2 204/218/2 202/219/2 201/220/2
f 203/221/3 201/222/3 210/223/3 211/224/3
f 201/225/4 202/226/4 209/227/4 210/228/4
f 202/229/5 204/230/5 212/231/5 209/232/5
f 204/233/6 203/234/6 211/235/6 212/236/6
f 205/237/1 206/238/1 210/239/1 209/240/1
f 207/241/1 208/242/1 212/243/1 211/244/1
f 206/238/1 207/241/1 211/244/1 210/239/1
f 208/242/1 205/237/1 209/240/1 212/243/1
f 208/245/6 207/246/6 217/247/6 218/248/6 219/249/6 220/250/6
f 206/251/4 205/252/4 213/253/4 214/254/4 215/255/4 216/256/4
f 231/257/6 227/258/6 225/259/6 229/260/6
f 224/261/3 232/262/3 230/263/3 223/264/3
f 221/265/5 226/266/5 228/267/5 222/268/5
f 222/269/4 224/270/4 223/271/4 221/272/4
f 222/273/1 228/274/1 232/275/1 224/276/1
f 225/259/7 227/258/7 228/277/7 226/278/7
f 227/258/8 231/257/8 232/279/8 228/277/8
f 231/257/9 229/260/9 230/280/9 232/279/9
f 229/260/10 225/259/10 226/278/10 230/280/10
f 223/281/2 230/282/2 226/283/2 221/284/2
f 234/285/1 233/286/1 238/287/1 237/288/1 236/289/1 235/290/1
f 239/291/2 241/292/2 242/293/2 243/294/2 244/295/2 240/296/2
f 236/297/11 237/298/11 243/299/11 242/300/11
f 234/301/5 235/302/5 241/303/5 239/304/5
f 237/305/3 238/306/3 244/307/3 243/308/3
f 235/309/12 236/297/12 242/300/12 241/310/12
f 233/311/13 234/312/13 239/313/13 240/314/13
f 238/315/14 233/311/14 240/314/14 244/316/14
f 246/317/1 245/318/1 250/319/1 249/320/1 248/321/1 247/322/1
f 251/323/2 253/324/2 254/325/2 255/326/2 256/327/2 252/328/2
f 248/329/13 249/330/13 255/331/13 254/332/13
f 246/333/3 247/334/3 253/335/3 251/336/3
f 249/337/5 250/338/5 256/339/5 255/340/5
f 247/341/14 248/329/14 254/332/14 253/342/14
f 245/343/11 246/344/11 251/345/11 252/346/11
f 250/347/12 245/343/12 252/346/12 256/348/12
f 258/349/1 259/350/1 260/351/1 261/352/1 262/353/1 257/354/1
f 263/355/2 264/356/2 268/357/2 267/358/2 266/359/2 265/360/2
f 260/361/12 266/362/12 267/363/12 261/364/12
f 258/365/3 263/366/3 265/367/3 259/368/3
f 261/369/5 267/370/5 268/371/5 262/372/5
f 259/373/11 265/374/11 266/362/11 260/361/11
f 257/375/14 264/376/14 263/377/14 258/378/14
f 262/379/13 268/380/13 264/376/13 257/375/13
f 270/381/1 271/382/1 272/383/1 273/384/1 274/385/1 269/386/1
f 275/387/2 276/388/2 280/389/2 279/390/2 278/391/2 277/392/2
f 272/393/14 278/394/14 279/395/14 273/396/14
f 270/397/5 275/398/5 277/399/5 271/400/5
f 273/401/3 279/402/3 280/403/3 274/404/3
f 271/405/13 277/406/13 278/394/13 272/393/13
f 269/407/12 276/408/12 275/409/12 270/410/12
f 274/411/11 280/412/11 276/408/11 269/407/11
f 53/413/1 196/414/1 154/415/1 13/416/1
f 15/417/1 156/418/1 199/419/1 58/420/1
f 16/421/1 59/422/1 352/423/1 337/424/1
f 335/425/1 344/426/1 345/427/1 346/428/1 347/429/1 350/430/1 297/8/1 318/7/1 334/431/1 333/432/1 340/433/1 341/434/1 338/435/1 339/436/1 332/437/1 331/438/1 337/424/1 352/423/1 351/439/1 348/440/1 349/441/1 342/442/1 343/443/1 336/444/1
f 153/445/1 193/446/1 409/447/1 418/448/1
f 198/449/1 155/450/1 377/451/1 410/452/1
f 412/453/1 421/454/1 422/455/1 427/456/1 428/457/1 430/458/1 410/452/1 377/451/1 417/459/1 416/460/1 419/461/1 397/462/1 398/463/1 420/464/1 415/465/1 414/466/1 418/448/1 409/447/1 429/467/1 425/468/1 426/469/1 423/470/1 424/471/1 413/472/1
s 1
f 4/473/4 38/474/4 291/475/4 282/476/4
f 39/477/2 35/478/2 42/479/2 44/480/2
f 21/481/4 17/482/4 5/483/4 6/484/4
f 1/485/2 3/486/2 4/487/2 2/488/2
f 50/489/15 51/490/15 296/491/16 295/492/17
f 19/493/3 18/494/3 23/495/3 25/496/3 3/497/3 1/498/3
f 35/499/3 37/500/3 7/501/3 9/502/3 43/503/3 42/504/3
f 20/505/18 21/506/18 287/507/19 338/435/20
f 30/508/2 32/509/2 51/510/2 47/511/2
f 23/512/1 18/513/1 20/514/1 27/515/1
f 3/497/3 25/496/3 24/516/3 7/501/3 37/500/3 36/517/3
f 24/518/6 26/519/6 8/520/6 7/521/6
f 5/522/3 31/523/3 30/524/3 47/525/3 49/526/3 11/527/3
f 10/528/1 8/529/1 284/530/21 283/531/21
f 7/532/1 8/533/1 10/534/1 9/535/1
f 12/536/6 16/537/6 337/538/6 286/539/6
f 4/540/4 3/541/4 36/542/4 38/543/4
f 11/527/3 49/526/3 48/544/3 57/545/3 58/546/3 15/547/3
f 6/548/1 5/549/1 11/550/1 12/551/1
f 1/552/6 2/553/6 33/554/6 29/555/6
f 21/556/4 6/557/4 285/558/4 287/559/4
f 45/560/6 41/561/6 54/562/6 55/563/6
f 48/564/4 50/565/4 60/566/4 57/567/4
f 41/568/3 43/503/3 9/502/3 13/569/3 53/570/3 54/571/3
f 12/572/6 11/573/6 15/574/6 16/575/6
f 26/576/22 27/577/22 341/434/23 288/578/24
f 9/579/4 10/580/4 14/581/4 13/582/4
f 17/583/3 18/494/3 19/493/3
f 45/584/6 55/585/6 298/586/6 294/587/6
f 23/495/3 24/516/3 25/496/3
f 55/588/22 56/5/22 297/8/23 298/589/24
f 29/590/3 30/524/3 31/523/3
f 8/591/6 26/592/6 288/593/6 284/594/6
f 35/499/3 36/517/3 37/500/3
f 41/568/3 42/504/3 43/503/3
f 27/577/1 20/505/1 338/435/1 341/434/1
f 47/525/3 48/544/3 49/526/3
f 32/595/25 33/596/25 290/597/26 289/598/27
f 17/599/18 21/600/18 20/514/18 18/513/18
f 23/512/22 27/515/22 26/601/22 24/602/22
f 29/603/25 33/604/25 32/509/25 30/508/25
f 35/605/15 39/606/15 38/607/15 36/608/15
f 41/609/25 45/610/25 44/611/25 42/612/25
f 47/613/15 51/614/15 50/565/15 48/564/15
f 17/583/3 19/493/3 1/498/3 29/590/3 31/523/3 5/522/3
f 53/12/22 56/11/22 55/615/22 54/616/22
f 57/567/18 60/566/18 59/617/18 58/618/18
f 65/619/5 68/620/5 80/621/28 73/622/28
f 78/623/29 75/624/29 74/625/30 79/626/30
f 67/627/3 66/628/3 76/629/31 77/630/31
f 77/631/31 76/632/31 75/624/29 78/623/29
f 73/633/28 80/634/28 79/626/30 74/625/30
f 166/635/3 148/636/3 180/637/3 178/638/3 144/639/3 168/640/3
f 179/641/2 175/642/2 182/643/2 184/644/2
f 161/645/4 157/646/4 145/647/4 146/648/4
f 141/649/2 143/650/2 144/651/2 142/652/2
f 142/653/3 173/654/3 174/655/3 146/656/3 161/657/3 162/658/3
f 159/659/3 158/660/3 163/661/3 165/662/3 143/663/3 141/664/3
f 175/665/3 177/666/3 147/667/3 149/668/3 183/669/3 182/670/3
f 150/671/3 154/672/3 196/673/3 195/674/3 185/675/3 186/676/3
f 170/677/2 172/678/2 191/679/2 187/680/2
f 163/681/1 158/682/1 160/683/1 167/684/1
f 143/663/3 165/662/3 164/685/3 147/667/3 177/666/3 176/686/3
f 164/687/6 166/688/6 148/689/6 147/690/6
f 145/691/3 171/692/3 170/693/3 187/694/3 189/695/3 151/696/3
f 142/653/3 162/658/3 160/697/3 167/698/3 168/640/3 144/639/3
f 147/699/1 148/700/1 150/701/1 149/702/1
f 148/636/3 150/671/3 186/676/3 184/703/3 179/704/3 180/637/3
f 144/705/4 143/706/4 176/707/4 178/708/4
f 151/696/3 189/695/3 188/709/3 197/710/3 198/711/3 155/712/3
f 146/713/1 145/714/1 151/715/1 152/716/1
f 141/717/6 142/718/6 173/719/6 169/720/6
f 172/721/3 191/722/3 192/723/3 152/724/3 146/656/3 174/655/3
f 185/725/6 181/726/6 194/727/6 195/728/6
f 188/729/4 190/730/4 200/731/4 197/732/4
f 181/733/3 183/669/3 149/668/3 153/734/3 193/735/3 194/736/3
f 152/737/6 151/738/6 155/739/6 156/740/6
f 190/741/3 200/742/3 199/743/3 156/744/3 152/724/3 192/723/3
f 149/745/4 150/746/4 154/747/4 153/748/4
f 157/749/3 158/660/3 159/659/3
f 160/697/3 162/658/3 161/657/3
f 163/661/3 164/685/3 165/662/3
f 166/635/3 168/640/3 167/698/3
f 169/750/3 170/693/3 171/692/3
f 172/721/3 174/655/3 173/654/3
f 175/665/3 176/686/3 177/666/3
f 178/638/3 180/637/3 179/704/3
f 181/733/3 182/670/3 183/669/3
f 184/703/3 186/676/3 185/675/3
f 187/694/3 188/709/3 189/695/3
f 190/741/3 192/723/3 191/722/3
f 157/751/18 161/752/18 160/683/18 158/682/18
f 163/681/22 167/684/22 166/753/22 164/754/22
f 169/755/25 173/756/25 172/678/25 170/677/25
f 175/757/15 179/758/15 178/759/15 176/760/15
f 181/761/25 185/762/25 184/763/25 182/764/25
f 187/765/15 191/766/15 190/730/15 188/729/15
f 157/749/3 159/659/3 141/664/3 169/750/3 171/692/3 145/691/3
f 193/216/22 196/215/22 195/767/22 194/768/22
f 197/732/18 200/731/18 199/769/18 198/770/18
f 205/771/5 208/772/5 220/773/28 213/774/28
f 218/775/29 215/776/29 214/777/30 219/778/30
f 207/779/3 206/780/3 216/781/31 217/782/31
f 217/783/31 216/784/31 215/776/29 218/775/29
f 213/785/28 220/786/28 219/778/30 214/777/30
f 3/787/4 144/788/4 178/789/4 36/790/4
f 36/791/15 178/792/15 179/793/15 35/794/15
f 35/794/2 179/793/2 184/795/2 42/796/2
f 42/796/25 184/795/25 185/797/25 41/798/25
f 41/799/6 185/800/6 195/801/6 54/802/6
f 54/803/22 195/804/22 196/414/22 53/413/22
f 13/805/4 154/806/4 150/807/4 9/808/4
f 9/809/1 150/810/1 148/811/1 7/812/1
f 7/813/6 148/814/6 166/815/6 24/816/6
f 24/817/22 166/818/22 167/819/22 23/820/22
f 23/820/1 167/819/1 160/821/1 18/822/1
f 18/822/18 160/821/18 161/823/18 17/824/18
f 17/825/4 161/826/4 146/827/4 5/828/4
f 5/829/1 146/830/1 152/831/1 11/832/1
f 11/833/6 152/834/6 156/835/6 15/836/6
f 58/837/18 199/838/18 200/839/18 57/840/18
f 57/840/4 200/839/4 190/841/4 48/842/4
f 48/842/15 190/841/15 191/843/15 47/844/15
f 47/845/2 191/846/2 172/847/2 30/848/2
f 30/848/25 172/847/25 173/849/25 29/850/25
f 29/851/6 173/852/6 142/853/6 1/854/6
f 1/855/2 142/856/2 144/857/2 3/858/2
f 39/859/2 44/860/2 293/861/32 292/862/32
f 44/860/25 45/863/25 294/864/26 293/861/27
f 59/865/18 60/866/18 299/867/19 352/868/20
f 33/869/6 2/870/6 281/871/6 290/872/6
f 2/873/2 4/874/2 282/875/32 281/876/32
f 14/877/4 10/878/4 283/879/4 318/880/4
f 6/881/1 12/882/1 286/883/21 285/884/21
f 38/885/15 39/859/15 292/862/16 291/886/17
f 60/866/4 50/887/4 295/888/4 299/867/4
f 51/490/2 32/595/2 289/598/32 296/491/32
f 282/476/4 291/475/4 304/889/4 46/890/4
f 283/531/21 284/530/21 34/891/33 40/892/33
f 288/593/24 341/893/23 301/894/34
f 287/559/4 285/558/4 28/895/4 300/896/4
f 294/587/6 298/586/6 310/897/6 307/898/6
f 285/884/21 286/883/21 22/899/33 28/900/33
f 296/491/32 289/598/32 302/901/35 309/902/35
f 286/539/6 337/538/6 22/903/6
f 293/861/27 294/864/26 307/904/36 306/905/36
f 299/867/4 295/888/4 308/906/4 311/907/4
f 318/880/4 283/879/4 40/908/4
f 292/862/32 293/861/32 306/905/35 305/909/35
f 289/598/27 290/597/26 303/910/36 302/901/36
f 290/872/6 281/871/6 52/911/6 303/912/6
f 338/435/20 287/507/19 300/913/37
f 295/492/17 296/491/16 309/902/38 308/914/38
f 298/589/24 297/8/23 310/915/34
f 284/594/6 288/593/6 301/894/6 34/916/6
f 352/868/20 299/867/19 311/907/37
f 281/876/32 282/875/32 46/917/35 52/918/35
f 291/475/17 292/919/16 305/920/38 304/889/38
f 352/868/20 311/907/37 330/921/39
f 300/896/4 28/895/4 313/922/4 319/923/4
f 338/924/20 300/896/37 319/923/40
f 303/912/6 52/911/6 317/925/6 322/926/6
f 301/894/34 341/893/23 320/927/41
f 307/898/6 310/897/6 329/928/6 326/929/6
f 34/916/6 301/894/6 320/927/6 314/930/6
f 302/931/36 303/912/36 322/926/42 321/932/42
f 52/933/35 46/934/35 316/935/43 317/936/43
f 46/890/4 304/889/4 323/937/4 316/938/4
f 304/889/38 305/920/38 324/939/44 323/937/44
f 311/907/4 308/906/4 327/940/4 330/921/4
f 40/892/33 34/891/33 314/941/45 315/942/45
f 309/943/35 302/944/35 321/945/43 328/946/43
f 306/947/36 307/898/36 326/929/42 325/948/42
f 28/900/33 22/899/33 312/949/45 313/950/45
f 305/951/35 306/952/35 325/953/43 324/954/43
f 308/906/38 309/955/38 328/956/44 327/940/44
f 22/903/6 337/538/6 312/957/6
f 310/897/34 297/958/23 329/928/41
f 318/880/4 40/908/4 315/959/4
f 323/960/44 324/954/44 345/961/46 344/962/46
f 330/921/4 327/940/4 348/963/4 351/964/4
f 315/965/45 314/966/45 333/967/47 334/968/47
f 328/946/43 321/945/43 342/969/48 349/970/48
f 325/953/42 326/971/42 347/972/49 346/973/49
f 313/974/45 312/975/45 331/976/47 332/977/47
f 324/954/43 325/953/43 346/973/48 345/961/48
f 327/978/44 328/946/44 349/970/46 348/979/46
f 312/957/6 337/538/6 331/980/6
f 329/928/41 297/958/23 350/981/50
f 318/880/4 315/959/4 334/982/4
f 352/868/20 330/921/39 351/964/51
f 319/923/4 313/922/4 332/983/4 339/984/4
f 338/924/20 319/923/40 339/984/51
f 322/926/6 317/925/6 336/985/6 343/986/6
f 320/927/41 341/893/23 340/987/52
f 326/929/6 329/928/6 350/981/6 347/988/6
f 314/930/6 320/927/6 340/987/6 333/989/6
f 321/945/42 322/990/42 343/991/49 342/969/49
f 317/936/43 316/935/43 335/992/48 336/993/48
f 316/938/4 323/937/4 344/994/4 335/995/4
f 164/996/6 147/997/6 356/998/6 360/999/6
f 157/1000/18 158/1001/18 397/462/53 359/1002/54
f 187/1003/15 188/1004/15 368/1005/55 367/1006/56
f 176/1007/4 143/1008/4 354/1009/4 364/1010/4
f 181/1011/25 182/1012/25 366/1013/57 365/1014/58
f 175/1015/2 363/1016/59 366/1013/59 182/1012/2
f 181/1017/6 365/1018/6 369/1019/6 194/1020/6
f 157/1021/4 359/1022/4 355/1023/4 145/1024/4
f 197/1025/18 198/1026/18 410/1027/53 370/1028/54
f 175/1015/15 176/1029/15 364/1030/55 363/1016/56
f 149/1031/4 153/1032/4 418/1033/4 357/1034/4
f 188/1004/4 197/1025/4 370/1028/4 368/1005/4
f 147/1035/1 149/1036/1 357/1037/60 356/1038/60
f 141/1039/2 353/1040/59 354/1041/59 143/1042/2
f 155/1043/6 151/1044/6 358/1045/6 377/1046/6
f 169/1047/25 170/1048/25 362/1049/57 361/1050/58
f 169/1051/6 361/1052/6 353/1053/6 141/1054/6
f 187/1055/2 367/1056/59 362/1049/59 170/1048/2
f 163/1057/22 164/1058/22 360/1059/61 398/463/62
f 193/446/22 194/1060/22 369/1061/61 409/447/62
f 158/1001/1 163/1057/1 398/463/1 397/462/1
f 151/1062/1 145/1063/1 355/1064/60 358/1065/60
f 398/463/62 360/1059/61 379/1066/63
f 386/1067/64 387/1068/65 407/1069/66 406/1070/66
f 369/1019/6 365/1018/6 384/1071/6 388/1072/6
f 360/999/6 356/998/6 374/1073/6 379/1074/6
f 361/1052/58 362/1075/57 381/1076/67 380/1077/68
f 368/1005/4 370/1028/4 389/1078/4 387/1068/4
f 354/1041/59 353/1040/59 371/1079/69 372/1080/69
f 364/1010/4 354/1009/4 372/1081/4 383/1082/4
f 363/1016/56 364/1030/55 383/1083/65 382/1084/64
f 356/1038/60 357/1037/60 373/1085/70 374/1086/70
f 362/1049/59 367/1056/59 386/1087/69 381/1088/69
f 365/1014/58 366/1013/57 385/1089/67 384/1090/68
f 358/1065/60 355/1064/60 375/1091/70 376/1092/70
f 366/1013/59 363/1016/59 382/1084/69 385/1089/69
f 367/1006/56 368/1005/55 387/1068/65 386/1067/64
f 357/1034/4 418/1033/4 373/1093/4
f 409/447/62 369/1061/61 388/1094/63
f 355/1023/4 359/1022/4 378/1095/4 375/1096/4
f 377/1046/6 358/1045/6 376/1097/6
f 370/1028/54 410/1027/53 389/1078/71
f 353/1053/6 361/1052/6 380/1077/6 371/1098/6
f 359/1002/54 397/462/53 378/1099/71
f 408/1100/6 404/1101/6 425/1102/6 429/1103/6
f 373/1093/4 418/1033/4 392/1104/4
f 409/1105/62 388/1072/63 408/1100/72
f 375/1096/4 378/1095/4 396/1106/4 394/1107/4
f 377/1046/6 376/1097/6 395/1108/6
f 389/1078/71 410/1027/53 411/1109/73
f 371/1098/6 380/1077/6 400/1110/6 390/1111/6
f 378/1095/71 397/1112/53 396/1106/73
f 398/1113/62 379/1074/63 399/1114/72
f 388/1072/6 384/1071/6 404/1101/6 408/1100/6
f 379/1074/6 374/1073/6 393/1115/6 399/1114/6
f 380/1077/68 381/1076/67 401/1116/74 400/1110/74
f 387/1068/4 389/1078/4 411/1109/4 407/1069/4
f 372/1117/69 371/1118/69 390/1119/75 391/1120/75
f 383/1082/4 372/1081/4 391/1121/4 403/1122/4
f 382/1123/64 383/1082/65 403/1122/66 402/1124/66
f 374/1086/70 373/1085/70 392/1125/76 393/1126/76
f 381/1127/69 386/1128/69 406/1129/75 401/1130/75
f 384/1071/68 385/1131/67 405/1132/74 404/1101/74
f 376/1092/70 375/1091/70 394/1133/76 395/1134/76
f 385/1135/69 382/1136/69 402/1137/75 405/1138/75
f 399/1114/6 393/1115/6 415/1139/6 420/1140/6
f 400/1141/74 401/1130/74 422/1142/77 421/1143/77
f 407/1069/4 411/1109/4 430/1144/4 428/1145/4
f 391/1120/75 390/1119/75 412/1146/78 413/1147/78
f 403/1122/4 391/1121/4 413/1148/4 424/1149/4
f 402/1137/66 403/1150/66 424/1151/79 423/1152/79
f 393/1153/76 392/1154/76 414/1155/80 415/1156/80
f 401/1130/75 406/1129/75 427/1157/78 422/1142/78
f 404/1158/74 405/1138/74 426/1159/77 425/1160/77
f 395/1161/76 394/1162/76 416/1163/80 417/1164/80
f 405/1138/75 402/1137/75 423/1152/78 426/1159/78
f 406/1129/66 407/1165/66 428/1166/81 427/1157/81
f 392/1104/4 418/1033/4 414/1167/4
f 409/1105/62 408/1100/72 429/1103/82
f 394/1107/4 396/1106/4 419/1168/4 416/1169/4
f 377/1046/6 395/1108/6 417/1170/6
f 411/1109/73 410/1027/53 430/1144/83
f 390/1111/6 400/1110/6 421/1171/6 412/1172/6
f 396/1106/73 397/1112/53 419/1168/84
f 398/1113/62 399/1114/72 420/1140/82
