<?xml version="1.0" encoding="utf-8"?>
<COLLADA xmlns="http://www.collada.org/2005/11/COLLADASchema" version="1.4.1" xmlns:xsi="http://www.w3.org/2001/XMLSchema-instance">
  <asset>
    <contributor>
      <author>Blender User</author>
      <authoring_tool>Blender 2.79.0 commit date:2018-02-21, commit time:10:41, hash:8928d99270f</authoring_tool>
    </contributor>
    <created>2018-04-03T20:34:05</created>
    <modified>2018-04-03T20:34:05</modified>
    <unit name="meter" meter="1"/>
    <up_axis>Z_UP</up_axis>
  </asset>
  <library_images>
    <image id="TexturesCom_3x3_Concrete6_1024_albedo_tif_001" name="TexturesCom_3x3_Concrete6_1024_albedo_tif_001">
      <init_from>TexturesCom_3x3_Concrete6_1024_albedo.tif.001.tif</init_from>
    </image>
  </library_images>
  <library_effects>
    <effect id="None-effect">
      <profile_COMMON>
        <newparam sid="TexturesCom_3x3_Concrete6_1024_albedo_tif_001-surface">
          <surface type="2D">
            <init_from>TexturesCom_3x3_Concrete6_1024_albedo_tif_001</init_from>
          </surface>
        </newparam>
        <newparam sid="TexturesCom_3x3_Concrete6_1024_albedo_tif_001-sampler">
          <sampler2D>
            <source>TexturesCom_3x3_Concrete6_1024_albedo_tif_001-surface</source>
          </sampler2D>
        </newparam>
        <technique sid="common">
          <phong>
            <emission>
              <color sid="emission">0 0 0 1</color>
            </emission>
            <ambient>
              <color sid="ambient">0 0 0 1</color>
            </ambient>
            <diffuse>
              <texture texture="TexturesCom_3x3_Concrete6_1024_albedo_tif_001-sampler"/>
            </diffuse>
            <specular>
              <color sid="specular">0.8 0.8 0.8 1</color>
            </specular>
            <shininess>
              <float sid="shininess">1</float>
            </shininess>
            <transparent opaque="A_ONE">
              <color>1 1 1 1</color>
            </transparent>
            <index_of_refraction>
              <float sid="index_of_refraction">1</float>
            </index_of_refraction>
          </phong>
        </technique>
      </profile_COMMON>
    </effect>
  </library_effects>
  <library_materials>
    <material id="None-material" name="None">
      <instance_effect url="#None-effect"/>
    </material>
  </library_materials>
  <library_geometries>
    <geometry id="Circle_002-mesh" name="Circle.002">
      <mesh>
        <source id="Circle_002-mesh-positions">
          <float_array id="Circle_002-mesh-positions-array" count="138">0 -7e-6 -1.84332e-6 0 -7e-6 -13 13.5 25.40964 -13 16.1337 25.15198 -13 1.027626 17.13164 -13 2.275161 19.44999 -13 0 12 -13 0.2593985 14.61609 -13 8.333773 24.38889 -13 10.86628 25.15198 -13 25.97237 17.13166 -13 24.72483 19.45001 -13 5.999802 23.1497 -13 18.66621 24.3889 -13 21.00018 23.14971 -13 23.04593 21.48205 -13 3.954059 21.48204 -13 26.7406 14.6161 -13 27 4e-6 -13 27 4e-6 -1.84332e-6 13.5 25.40964 -1.84332e-6 10.86628 25.15198 -1.84332e-6 24.72483 19.45001 -1.84332e-6 18.66621 24.3889 -1.84332e-6 16.1337 25.15198 -1.84332e-6 1.027626 17.13164 -1.84332e-6 2.275161 19.44999 -1.84332e-6 21.00018 23.14971 -1.84332e-6 8.333773 24.38889 -1.84332e-6 5.999802 23.1497 -1.84332e-6 3.954059 21.48204 -1.84332e-6 23.04593 21.48205 -1.84332e-6 0.2593985 14.61609 -1.84332e-6 0 12 -1.84332e-6 -1 -7e-6 -1.84332e-6 -1 -7e-6 -13 -1 28.99999 -6.71902e-6 -1 28.99999 -13.00001 28 4e-6 -13 28 4e-6 -1.84332e-6 28 29 -13.00001 28 29 -6.71902e-6 27 12.00001 -13 25.97237 17.13166 -1.84332e-6 27 12.00001 -1.84332e-6 26.7406 14.6161 -1.84332e-6</float_array>
          <technique_common>
            <accessor source="#Circle_002-mesh-positions-array" count="46" stride="3">
              <param name="X" type="float"/>
              <param name="Y" type="float"/>
              <param name="Z" type="float"/>
            </accessor>
          </technique_common>
        </source>
        <source id="Circle_002-mesh-normals">
          <float_array id="Circle_002-mesh-normals-array" count="234">0 -1 0 -0.1938565 -0.9810299 0 0.9229838 -0.3848388 0 0.8297733 -0.5581007 0 0.9805379 -0.1963298 0 0.9229838 -0.3848389 0 -0.9229834 -0.38484 0 -0.9805378 -0.1963306 0 -0.7047736 -0.7094323 0 -0.8297721 -0.5581024 0 -0.8297728 -0.5581014 0 0.1938573 -0.9810298 0 0 -1 0 -0.3805347 -0.9247667 0 -0.3805342 -0.9247669 0 0.5530411 -0.8331541 0 0.380536 -0.9247661 0 0.3805362 -0.924766 0 -0.9987794 -0.04939597 0 -1 0 0 0.1938572 -0.9810298 0 0.7047743 -0.7094317 0 0.7047742 -0.7094318 0 0.7071067 -0.7071068 0 0.9987794 -0.04939585 0 0.7071068 -0.7071068 0 -0.9229831 -0.3848407 0 -0.5530395 -0.8331551 0 -0.7047736 -0.7094324 0 -0.9987794 -0.04939597 0 -0.5530403 -0.8331546 0 -3.94624e-7 1 0 0 -1 0 0 -9.51977e-7 -1 0 1.358e-6 1 1 0 0 0.9987794 -0.04939585 0 -3.94624e-7 1 0 -1 0 0 0 0 -1 -2.10466e-6 -1.64426e-7 -1 3.15699e-6 -1.64427e-7 -1 0 -1.76051e-7 -1 -1.60978e-6 -2.57644e-7 -1 0 -1.76051e-7 -1 2.14637e-6 -2.57641e-7 -1 -1.95555e-7 -3.04952e-7 -1 -6.72526e-7 -3.52845e-7 -1 0 -3.04954e-7 -1 6.72526e-7 -3.52844e-7 -1 1.61356e-7 -4.12616e-7 -1 -6.83378e-7 -4.98434e-7 -1 6.45424e-7 -4.12616e-7 -1 0 -4.98434e-7 -1 0 -6.42334e-7 -1 -1.8073e-7 -9.51976e-7 -1 4.05816e-7 -6.42332e-7 -1 0 -1.3281e-6 -1 0 0 1 -2.01753e-6 1.68127e-7 1 2.01753e-6 1.68127e-7 1 1.81547e-6 1.80011e-7 1 -1.81547e-6 1.80013e-7 1 -8.62633e-7 2.6344e-7 1 8.62631e-7 2.63443e-7 1 5.79462e-7 3.11817e-7 1 -5.79465e-7 3.11818e-7 1 -4.36677e-7 3.60786e-7 1 4.36676e-7 3.60787e-7 1 3.43929e-7 4.21903e-7 1 -3.4393e-7 4.21903e-7 1 -2.70592e-7 5.09652e-7 1 2.7059e-7 5.09653e-7 1 1.97901e-7 6.56792e-7 1 -1.97901e-7 6.56789e-7 1 0 9.73404e-7 1 0 9.73403e-7 1 1 -1.61897e-7 0</float_array>
          <technique_common>
            <accessor source="#Circle_002-mesh-normals-array" count="78" stride="3">
              <param name="X" type="float"/>
              <param name="Y" type="float"/>
              <param name="Z" type="float"/>
            </accessor>
          </technique_common>
        </source>
        <source id="Circle_002-mesh-map-0">
          <float_array id="Circle_002-mesh-map-0-array" count="528">1.668908 2.069849 0.8661169 1.90721 1.668908 1.907209 1.668908 0.4277837 0.8661165 0.2732875 1.668908 0.2732874 1.668908 0.5890548 0.8661165 0.4277839 1.668908 0.4277837 2.471701 1.184075 1.668908 1.022804 2.471701 1.022804 2.471701 1.480357 1.668909 1.338572 2.471701 1.338572 1.668908 2.232489 0.8661169 2.069849 1.668908 2.069849 1.668908 1.907209 0.8661165 1.750818 1.668908 1.750818 1.668909 2.53301 0.8661169 2.38888 1.668908 2.38888 2.471701 0.8609563 1.668908 0.1315024 2.471701 0.1315024 1.668908 2.38888 0.8661165 2.232489 1.668908 2.232489 1.668908 0.2732874 0.8661165 0.1315026 1.668908 0.1315024 1.668909 2.659341 0.8661169 2.53301 1.668909 2.53301 0.8661165 1.480357 1.668908 0.7509025 1.668908 1.480357 1.668908 0.7509025 0.8661165 0.5890548 1.668908 0.5890548 2.471701 1.338572 1.668908 1.184075 2.471701 1.184075 1.668908 1.606688 0.8661165 1.480357 1.668908 1.480357 2.471701 1.022804 1.668908 0.8609563 2.471701 0.8609563 1.668908 1.750818 0.8661165 1.606688 1.668908 1.606688 -1.54226 0.1315024 -0.7394675 1.922346 -1.542259 1.922346 2.039427 -0.8565493 2.10118 -1.659341 2.10118 -0.8565493 0.8661165 1.894349 0.06332451 0.1315028 0.8661165 0.1315024 0.4702998 -0.7639197 0.4862114 -0.601279 0.2485837 0.1315019 2.10118 -0.8565493 2.039427 -0.05375742 2.039427 -0.8565493 -1.54226 -1.659341 0.2485834 -1.659341 -0.6468382 -1.437624 0.06332427 0.1315026 -0.7394675 1.894349 -0.7394675 0.1315024 1.668908 2.069849 0.8661169 2.069849 0.8661169 1.90721 1.668908 0.4277837 0.8661165 0.4277839 0.8661165 0.2732875 1.668908 0.5890548 0.8661165 0.5890548 0.8661165 0.4277839 2.471701 1.184075 1.668908 1.184075 1.668908 1.022804 2.471701 1.480357 1.668908 1.480357 1.668909 1.338572 1.668908 2.232489 0.8661165 2.232489 0.8661169 2.069849 1.668908 1.907209 0.8661169 1.90721 0.8661165 1.750818 1.668909 2.53301 0.8661169 2.53301 0.8661169 2.38888 2.471701 0.8609563 1.668908 0.8609563 1.668908 0.1315024 1.668908 2.38888 0.8661169 2.38888 0.8661165 2.232489 1.668908 0.2732874 0.8661165 0.2732875 0.8661165 0.1315026 1.668909 2.659341 0.8661169 2.659341 0.8661169 2.53301 0.8661165 1.480357 0.8661165 0.7509025 1.668908 0.7509025 1.668908 0.7509025 0.8661165 0.7509025 0.8661165 0.5890548 2.471701 1.338572 1.668909 1.338572 1.668908 1.184075 1.668908 1.606688 0.8661165 1.606688 0.8661165 1.480357 2.471701 1.022804 1.668908 1.022804 1.668908 0.8609563 1.668908 1.750818 0.8661165 1.750818 0.8661165 1.606688 -1.54226 0.1315024 -0.7394679 0.1315024 -0.7394675 1.922346 2.039427 -0.8565493 2.039427 -1.659341 2.10118 -1.659341 0.8661165 1.894349 0.06332451 1.894349 0.06332451 0.1315028 2.039427 -1.659341 2.039427 -1.597587 1.298388 -1.597588 0.2485835 -1.659341 2.039427 -1.659341 1.298388 -1.597588 2.039427 0.06974917 2.039427 0.1315024 1.298388 0.06974899 2.039427 0.1315024 0.2485837 0.1315019 1.298388 0.06974899 0.2485835 -1.659341 1.298388 -1.597588 1.136836 -1.581569 0.2485835 -1.659341 1.136836 -1.581569 0.9814922 -1.534128 1.136836 0.05373024 1.298388 0.06974899 0.2485837 0.1315019 0.9814924 0.00628966 1.136836 0.05373024 0.2485837 0.1315019 0.2485835 -1.659341 0.9814922 -1.534128 0.8383262 -1.457089 0.2485835 -1.659341 0.8383262 -1.457089 0.712841 -1.353411 0.8383271 -0.07074964 0.9814924 0.00628966 0.2485837 0.1315019 0.7128412 -0.1744269 0.8383271 -0.07074964 0.2485837 0.1315019 0.2485835 -1.659341 0.712841 -1.353411 0.6098578 -1.22708 0.2485835 -1.659341 0.6098578 -1.22708 0.5333341 -1.08295 0.609858 -0.3007582 0.7128412 -0.1744269 0.2485837 0.1315019 0.5333344 -0.4448884 0.609858 -0.3007582 0.2485837 0.1315019 0.2485835 -1.659341 0.5333341 -1.08295 0.4862114 -0.9265592 0.2485835 -1.659341 0.4862114 -0.9265592 0.4702998 -0.7639197 0.4862114 -0.601279 0.5333344 -0.4448884 0.2485837 0.1315019 0.2485835 -1.659341 0.4702998 -0.7639197 0.2485837 0.1315019 2.10118 -0.8565493 2.10118 -0.05375742 2.039427 -0.05375742 -1.480506 -0.6095371 -1.480506 0.1315019 -1.54226 0.1315019 0.2485834 -1.659341 0.2485835 0.1315024 0.1868302 -0.6095365 0.2485835 0.1315024 0.1868304 0.1315024 0.1868302 -0.6095365 -1.480506 -0.6095371 -1.54226 0.1315019 -1.54226 -1.659341 -1.464488 -0.771089 -1.480506 -0.6095371 -1.54226 -1.659341 0.2485834 -1.659341 0.1868302 -0.6095365 0.1708115 -0.7710884 0.2485834 -1.659341 0.1708115 -0.7710884 0.1233711 -0.9264321 -1.417047 -0.9264327 -1.464488 -0.771089 -1.54226 -1.659341 -1.340007 -1.069598 -1.417047 -0.9264327 -1.54226 -1.659341 0.2485834 -1.659341 0.1233711 -0.9264321 0.04633176 -1.069598 0.2485834 -1.659341 0.04633176 -1.069598 -0.05734544 -1.195083 -1.23633 -1.195084 -1.340007 -1.069598 -1.54226 -1.659341 -1.109999 -1.298067 -1.23633 -1.195084 -1.54226 -1.659341 0.2485834 -1.659341 -0.05734544 -1.195083 -0.1836767 -1.298067 0.2485834 -1.659341 -0.1836767 -1.298067 -0.327807 -1.37459 -0.9658681 -1.37459 -1.109999 -1.298067 -1.54226 -1.659341 -0.8094775 -1.421713 -0.9658681 -1.37459 -1.54226 -1.659341 0.2485834 -1.659341 -0.327807 -1.37459 -0.4841974 -1.421713 -0.6468382 -1.437624 -0.8094775 -1.421713 -1.54226 -1.659341 0.2485834 -1.659341 -0.4841974 -1.421713 -0.6468382 -1.437624 0.06332427 0.1315026 0.06332451 1.894349 -0.7394675 1.894349</float_array>
          <technique_common>
            <accessor source="#Circle_002-mesh-map-0-array" count="264" stride="2">
              <param name="S" type="float"/>
              <param name="T" type="float"/>
            </accessor>
          </technique_common>
        </source>
        <vertices id="Circle_002-mesh-vertices">
          <input semantic="POSITION" source="#Circle_002-mesh-positions"/>
        </vertices>
        <triangles material="None-material" count="88">
          <input semantic="VERTEX" source="#Circle_002-mesh-vertices" offset="0"/>
          <input semantic="NORMAL" source="#Circle_002-mesh-normals" offset="1"/>
          <input semantic="TEXCOORD" source="#Circle_002-mesh-map-0" offset="2" set="0"/>
          <p>20 0 0 3 1 1 24 1 2 25 2 3 5 3 4 26 3 5 32 4 6 4 5 7 25 2 8 43 6 9 17 7 10 45 7 11 31 8 12 11 9 13 22 10 14 21 11 15 2 12 16 20 0 17 24 1 18 13 13 19 23 14 20 29 15 21 8 16 22 28 17 23 44 18 24 18 19 25 19 19 26 28 17 27 9 20 28 21 11 29 26 3 30 16 21 31 30 22 32 30 22 33 12 15 34 29 15 35 1 23 36 33 24 37 0 25 38 33 24 39 7 4 40 32 4 41 22 10 42 10 26 43 43 6 44 27 27 45 15 28 46 31 8 47 45 7 48 42 29 49 44 18 50 23 14 51 14 30 52 27 27 53 41 31 54 37 31 55 36 31 56 38 32 57 19 32 58 18 32 59 36 19 60 35 19 61 34 19 62 2 33 63 9 33 64 37 33 65 34 32 66 1 23 67 0 25 68 41 34 69 36 34 70 20 34 71 38 35 72 41 35 73 39 35 74 20 0 75 2 12 76 3 1 77 25 2 78 4 5 79 5 3 80 32 4 81 7 4 82 4 5 83 43 6 84 10 26 85 17 7 86 31 8 87 15 28 88 11 9 89 21 11 90 9 20 91 2 12 92 24 1 93 3 1 94 13 13 95 29 15 96 12 15 97 8 16 98 44 18 99 42 29 100 18 19 101 28 17 102 8 16 103 9 20 104 26 3 105 5 3 106 16 21 107 30 22 108 16 21 109 12 15 110 1 23 111 6 36 112 33 24 113 33 24 114 6 36 115 7 4 116 22 10 117 11 9 118 10 26 119 27 27 120 14 30 121 15 28 122 45 7 123 17 7 124 42 29 125 23 14 126 13 13 127 14 30 128 41 37 129 40 37 130 37 37 131 38 32 132 39 32 133 19 32 134 36 38 135 37 38 136 35 38 137 38 39 138 18 39 139 42 39 140 40 40 141 38 40 142 42 40 143 1 39 144 35 39 145 6 39 146 35 41 147 37 41 148 6 41 149 40 42 150 42 42 151 17 42 152 40 43 153 17 43 154 10 43 155 7 44 156 6 44 157 37 44 158 4 45 159 7 45 160 37 45 161 40 46 162 10 46 163 11 46 164 40 47 165 11 47 166 15 47 167 5 48 168 4 48 169 37 48 170 16 49 171 5 49 172 37 49 173 40 50 174 15 50 175 14 50 176 40 51 177 14 51 178 13 51 179 12 52 180 16 52 181 37 52 182 8 53 183 12 53 184 37 53 185 40 54 186 13 54 187 3 54 188 40 55 189 3 55 190 2 55 191 9 56 192 8 56 193 37 56 194 40 57 195 2 57 196 37 57 197 34 32 198 35 32 199 1 23 200 44 58 201 19 58 202 39 58 203 36 59 204 34 59 205 33 59 206 34 58 207 0 58 208 33 58 209 44 60 210 39 60 211 41 60 212 45 61 213 44 61 214 41 61 215 36 62 216 33 62 217 32 62 218 36 63 219 32 63 220 25 63 221 43 64 222 45 64 223 41 64 224 22 65 225 43 65 226 41 65 227 36 66 228 25 66 229 26 66 230 36 67 231 26 67 232 30 67 233 31 68 234 22 68 235 41 68 236 27 69 237 31 69 238 41 69 239 36 70 240 30 70 241 29 70 242 36 71 243 29 71 244 28 71 245 23 72 246 27 72 247 41 72 248 24 73 249 23 73 250 41 73 251 36 74 252 28 74 253 21 74 254 20 75 255 24 75 256 41 75 257 36 76 258 21 76 259 20 76 260 38 77 261 40 77 262 41 77 263</p>
        </triangles>
      </mesh>
    </geometry>
  </library_geometries>
  <library_controllers/>
  <library_visual_scenes>
    <visual_scene id="Scene" name="Scene">
      <node id="Circle_002" name="Circle_002" type="NODE">
        <matrix sid="transform">1 0 0 0 0 -1.62921e-7 -1 0 0 1 -1.62921e-7 0 0 0 0 1</matrix>
        <instance_geometry url="#Circle_002-mesh" name="Circle_002">
          <bind_material>
            <technique_common>
              <instance_material symbol="None-material" target="#None-material"/>
            </technique_common>
          </bind_material>
        </instance_geometry>
      </node>
    </visual_scene>
  </library_visual_scenes>
  <scene>
    <instance_visual_scene url="#Scene"/>
  </scene>
</COLLADA>