<?xml version="1.0" encoding="utf-8"?>
<COLLADA xmlns="http://www.collada.org/2005/11/COLLADASchema" version="1.4.1" xmlns:xsi="http://www.w3.org/2001/XMLSchema-instance">
  <asset>
    <contributor>
      <author>Blender User</author>
      <authoring_tool>Blender 2.79.0 commit date:2018-02-21, commit time:10:41, hash:8928d99270f</authoring_tool>
    </contributor>
    <created>2018-04-03T20:23:41</created>
    <modified>2018-04-03T20:23:41</modified>
    <unit name="meter" meter="1"/>
    <up_axis>Z_UP</up_axis>
  </asset>
  <library_images>
    <image id="TexturesCom_3x3_Concrete6_1024_albedo_tif_001" name="TexturesCom_3x3_Concrete6_1024_albedo_tif_001">
      <init_from>TexturesCom_3x3_Concrete6_1024_albedo.tif.001.tif</init_from>
    </image>
  </library_images>
  <library_effects>
    <effect id="None-effect">
      <profile_COMMON>
        <newparam sid="TexturesCom_3x3_Concrete6_1024_albedo_tif_001-surface">
          <surface type="2D">
            <init_from>TexturesCom_3x3_Concrete6_1024_albedo_tif_001</init_from>
          </surface>
        </newparam>
        <newparam sid="TexturesCom_3x3_Concrete6_1024_albedo_tif_001-sampler">
          <sampler2D>
            <source>TexturesCom_3x3_Concrete6_1024_albedo_tif_001-surface</source>
          </sampler2D>
        </newparam>
        <technique sid="common">
          <phong>
            <emission>
              <color sid="emission">0 0 0 1</color>
            </emission>
            <ambient>
              <color sid="ambient">0 0 0 1</color>
            </ambient>
            <diffuse>
              <texture texture="TexturesCom_3x3_Concrete6_1024_albedo_tif_001-sampler"/>
            </diffuse>
            <specular>
              <color sid="specular">0.8 0.8 0.8 1</color>
            </specular>
            <shininess>
              <float sid="shininess">1</float>
            </shininess>
            <transparent opaque="A_ONE">
              <color>1 1 1 1</color>
            </transparent>
            <index_of_refraction>
              <float sid="index_of_refraction">1</float>
            </index_of_refraction>
          </phong>
        </technique>
      </profile_COMMON>
    </effect>
  </library_effects>
  <library_materials>
    <material id="None-material" name="None">
      <instance_effect url="#None-effect"/>
    </material>
  </library_materials>
  <library_geometries>
    <geometry id="Circle_002-mesh" name="Circle.002">
      <mesh>
        <source id="Circle_002-mesh-positions">
          <float_array id="Circle_002-mesh-positions-array" count="24">0 -1.22191e-6 -1 13 8.96064e-7 -0.9999997 0 29 -1.000005 13 29 -1.000005 13 29 -4.82053e-6 0 29 -4.98444e-6 13 1.05898e-6 2.75671e-7 0 -1.05898e-6 -2.6077e-7</float_array>
          <technique_common>
            <accessor source="#Circle_002-mesh-positions-array" count="8" stride="3">
              <param name="X" type="float"/>
              <param name="Y" type="float"/>
              <param name="Z" type="float"/>
            </accessor>
          </technique_common>
        </source>
        <source id="Circle_002-mesh-normals">
          <float_array id="Circle_002-mesh-normals-array" count="36">0 1.62885e-7 1 -1.46719e-7 1 0 0 -1.60316e-7 -1 -1 0 0 1.62921e-7 -1 1.62921e-7 1 0 0 0 1.75731e-7 1 -1.46719e-7 1 0 0 -1.76759e-7 -1 -1 0 0 1.62921e-7 -1 1.62921e-7 1 0 0</float_array>
          <technique_common>
            <accessor source="#Circle_002-mesh-normals-array" count="12" stride="3">
              <param name="X" type="float"/>
              <param name="Y" type="float"/>
              <param name="Z" type="float"/>
            </accessor>
          </technique_common>
        </source>
        <source id="Circle_002-mesh-map-0">
          <float_array id="Circle_002-mesh-map-0-array" count="72">0.3965516 1.499999 1.293103 -0.4999997 1.293103 1.499999 1.431035 0.3965516 1.5 -0.4999997 1.5 0.3965516 0.3965514 1.499999 -0.5 -0.4999994 0.3965512 -0.4999997 1.293103 1.499999 1.362068 -0.4999997 1.362069 1.499999 1.431034 1.293103 1.5 0.3965517 1.5 1.293103 1.431034 1.499999 1.362069 -0.4999997 1.431034 -0.4999997 0.3965516 1.499999 0.3965514 -0.4999997 1.293103 -0.4999997 1.431035 0.3965516 1.431034 -0.4999997 1.5 -0.4999997 0.3965514 1.499999 -0.4999998 1.499999 -0.5 -0.4999994 1.293103 1.499999 1.293103 -0.4999997 1.362068 -0.4999997 1.431034 1.293103 1.431034 0.3965517 1.5 0.3965517 1.431034 1.499999 1.362069 1.499999 1.362069 -0.4999997</float_array>
          <technique_common>
            <accessor source="#Circle_002-mesh-map-0-array" count="36" stride="2">
              <param name="S" type="float"/>
              <param name="T" type="float"/>
            </accessor>
          </technique_common>
        </source>
        <vertices id="Circle_002-mesh-vertices">
          <input semantic="POSITION" source="#Circle_002-mesh-positions"/>
        </vertices>
        <triangles material="None-material" count="12">
          <input semantic="VERTEX" source="#Circle_002-mesh-vertices" offset="0"/>
          <input semantic="NORMAL" source="#Circle_002-mesh-normals" offset="1"/>
          <input semantic="TEXCOORD" source="#Circle_002-mesh-map-0" offset="2" set="0"/>
          <p>6 0 0 5 0 1 7 0 2 5 1 3 3 1 4 2 1 5 2 2 6 1 2 7 0 2 8 7 3 9 2 3 10 0 3 11 6 4 12 0 4 13 1 4 14 6 5 15 3 5 16 4 5 17 6 6 18 4 6 19 5 6 20 5 7 21 4 7 22 3 7 23 2 8 24 3 8 25 1 8 26 7 9 27 5 9 28 2 9 29 6 10 30 7 10 31 0 10 32 6 11 33 1 11 34 3 11 35</p>
        </triangles>
      </mesh>
    </geometry>
  </library_geometries>
  <library_controllers/>
  <library_visual_scenes>
    <visual_scene id="Scene" name="Scene">
      <node id="Circle_002" name="Circle_002" type="NODE">
        <matrix sid="transform">1 0 0 0 0 -1.62921e-7 -1 0 0 1 -1.62921e-7 0 0 0 0 1</matrix>
        <instance_geometry url="#Circle_002-mesh" name="Circle_002">
          <bind_material>
            <technique_common>
              <instance_material symbol="None-material" target="#None-material"/>
            </technique_common>
          </bind_material>
        </instance_geometry>
      </node>
    </visual_scene>
  </library_visual_scenes>
  <scene>
    <instance_visual_scene url="#Scene"/>
  </scene>
</COLLADA>