<?xml version="1.0" encoding="utf-8"?>
<COLLADA xmlns="http://www.collada.org/2005/11/COLLADASchema" version="1.4.1" xmlns:xsi="http://www.w3.org/2001/XMLSchema-instance">
  <asset>
    <contributor>
      <author>Blender User</author>
      <authoring_tool>Blender 2.79.0 commit date:2018-02-21, commit time:10:41, hash:8928d99270f</authoring_tool>
    </contributor>
    <created>2018-04-03T20:35:59</created>
    <modified>2018-04-03T20:35:59</modified>
    <unit name="meter" meter="1"/>
    <up_axis>Z_UP</up_axis>
  </asset>
  <library_images>
    <image id="TexturesCom_3x3_Concrete6_1024_albedo_tif_001" name="TexturesCom_3x3_Concrete6_1024_albedo_tif_001">
      <init_from>TexturesCom_3x3_Concrete6_1024_albedo.tif.001.tif</init_from>
    </image>
  </library_images>
  <library_effects>
    <effect id="None-effect">
      <profile_COMMON>
        <newparam sid="TexturesCom_3x3_Concrete6_1024_albedo_tif_001-surface">
          <surface type="2D">
            <init_from>TexturesCom_3x3_Concrete6_1024_albedo_tif_001</init_from>
          </surface>
        </newparam>
        <newparam sid="TexturesCom_3x3_Concrete6_1024_albedo_tif_001-sampler">
          <sampler2D>
            <source>TexturesCom_3x3_Concrete6_1024_albedo_tif_001-surface</source>
          </sampler2D>
        </newparam>
        <technique sid="common">
          <phong>
            <emission>
              <color sid="emission">0 0 0 1</color>
            </emission>
            <ambient>
              <color sid="ambient">0 0 0 1</color>
            </ambient>
            <diffuse>
              <texture texture="TexturesCom_3x3_Concrete6_1024_albedo_tif_001-sampler"/>
            </diffuse>
            <specular>
              <color sid="specular">0.8 0.8 0.8 1</color>
            </specular>
            <shininess>
              <float sid="shininess">1</float>
            </shininess>
            <transparent opaque="A_ONE">
              <color>1 1 1 1</color>
            </transparent>
            <index_of_refraction>
              <float sid="index_of_refraction">1</float>
            </index_of_refraction>
          </phong>
        </technique>
      </profile_COMMON>
    </effect>
  </library_effects>
  <library_materials>
    <material id="None-material" name="None">
      <instance_effect url="#None-effect"/>
    </material>
  </library_materials>
  <library_geometries>
    <geometry id="Circle_002-mesh" name="Circle.002">
      <mesh>
        <source id="Circle_002-mesh-positions">
          <float_array id="Circle_002-mesh-positions-array" count="300">25.67206 6.000007 -13 25.67206 9.000009 -13 27 9.000009 -13 27 6.000007 -13 9.53674e-7 -8.05899e-6 0 9.53674e-7 -8.05899e-6 -13 1.327947 -5.05898e-6 -13 1.327947 -5.05898e-6 0 13.5 24.17205 -13 13.5 25.40964 -13 16.1337 25.15198 -13 15.87463 23.93817 -13 2.254488 16.65804 -13 1.027626 17.13164 -13 2.275161 19.44999 -13 3.379306 18.76243 -13 1.327947 12 -13 9.53674e-7 12 -13 0.2594004 14.61609 -13 1.561829 14.37465 -13 8.841957 23.24551 -13 8.333774 24.38889 -13 10.86628 25.15198 -13 11.12535 23.93817 -13 25.97237 17.13166 -13 24.74551 16.65806 -13 23.62069 18.76244 -13 24.72483 19.45001 -13 6.737569 22.12069 -13 5.999803 23.1497 -13 9.53674e-7 2.999994 -13 1.327947 2.999996 -13 18.15803 23.24552 -13 18.66621 24.3889 -13 22.10693 20.60695 -13 20.26242 22.1207 -13 21.00018 23.14971 -13 23.04593 21.48205 -13 4.893058 20.60694 -13 3.95406 21.48204 -13 25.67206 12.00001 -13 25.43817 14.37466 -13 26.7406 14.6161 -13 27 12.00001 -13 1.327947 8.999998 -13 9.53674e-7 8.999998 -13 25.67206 5.94102e-6 -13 25.67206 3.000007 -13 27 3.000006 -13 27 2.94102e-6 -13 27 2.94102e-6 0 25.67206 5.94102e-6 0 1.327947 5.999997 -13 9.53674e-7 5.999996 -13 1.327947 5.999997 0 1.327947 8.999998 0 9.53674e-7 8.999998 0 9.53674e-7 5.999996 0 13.5 24.17205 0 13.5 25.40964 0 10.86628 25.15198 0 11.12535 23.93817 0 24.74551 16.65806 0 25.97237 17.13166 0 24.72483 19.45001 0 23.62069 18.76244 0 25.67206 12.00001 0 27 12.00001 0 26.7406 14.6161 0 25.43817 14.37466 0 18.15803 23.24552 0 18.66621 24.3889 0 16.1337 25.15198 0 15.87463 23.93817 0 1.027626 17.13164 0 2.254488 16.65804 0 3.379306 18.76243 0 2.275161 19.44999 0 20.26242 22.1207 0 21.00018 23.14971 0 27 3.000006 0 25.67206 3.000007 0 8.841957 23.24551 0 8.333774 24.38889 0 4.893058 20.60694 0 6.737569 22.12069 0 5.999803 23.1497 0 3.95406 21.48204 0 22.10693 20.60695 0 23.04593 21.48205 0 1.327947 12 0 1.561829 14.37465 0 0.2594004 14.61609 0 9.53674e-7 12 0 25.67206 9.000009 0 27 9.000009 0 1.327947 2.999996 0 9.53674e-7 2.999994 0 25.67206 6.000007 0 27 6.000007 0</float_array>
          <technique_common>
            <accessor source="#Circle_002-mesh-positions-array" count="100" stride="3">
              <param name="X" type="float"/>
              <param name="Y" type="float"/>
              <param name="Z" type="float"/>
            </accessor>
          </technique_common>
        </source>
        <source id="Circle_002-mesh-normals">
          <float_array id="Circle_002-mesh-normals-array" count="279">0 0 -1 2.25913e-6 -1 0 4.86767e-7 0 -1 1.23177e-6 0 -1 -4.54234e-7 0 -1 1.48683e-6 0 -1 4.13226e-7 0 -1 5.80908e-7 0 -1 -1.13662e-6 0 -1 -6.32658e-7 0 -1 -6.23993e-7 0 -1 -2.20387e-6 0 -1 1.12262e-6 0 -1 -1.91509e-6 0 -1 -2.25914e-6 -1 0 1.43631e-6 0 -1 9.5754e-7 0 -1 0 0 1 0.1938564 0.9810299 0 0 1 0 0.1938564 0.9810299 0 -0.8297733 0.5581008 0 -0.9229839 0.3848386 0 -0.8297732 0.5581008 0 -0.9229839 0.3848385 0 -0.980538 0.1963298 0 -0.7071058 -0.7071078 0 -0.5555698 -0.83147 0 -0.5555694 -0.8314702 0 0.9805378 0.1963306 0 0.9229834 0.38484 0 0.9805377 0.1963313 0 0.1950902 -0.9807854 0 0.382683 -0.9238797 0 0.382683 -0.9238798 0 0.5555704 -0.8314695 0 0.8297725 0.5581019 0 0.7047733 0.7094327 0 0.8297722 0.5581024 0 0.7071067 -0.7071069 0 0.7071068 -0.7071067 0 -1 0 0 0.8314695 -0.5555704 0 0.8314697 -0.5555702 0 0 1 0 -0.1938573 0.9810298 0 0.9238796 -0.3826833 0 0.9238797 -0.3826832 0 0.380535 0.9247667 0 0.3805344 0.9247668 0 -0.3805362 0.9247661 0 -0.5530411 0.833154 0 -0.9987955 -0.04906761 0 -0.980785 -0.1950919 0 -0.9807852 -0.195091 0 1 0 0 -0.1938573 0.9810298 0 0.9987792 0.04939687 0 -0.9987955 -0.04906851 0 -0.923879 -0.3826848 0 -0.923879 -0.382685 0 -0.7047742 0.7094317 0 -0.7047741 0.7094318 0 -0.5530411 0.8331541 0 -0.9987794 0.04939603 0 0.9807854 -0.1950901 0 0.9987955 -0.04906755 0 0.9987956 -0.04906749 0 -0.8314689 -0.5555715 0 -0.8314688 -0.5555715 0 -0.7071062 -0.7071074 0 -0.980538 0.1963297 0 -0.3826822 -0.9238801 0 -0.382682 -0.9238802 0 7.7688e-7 -1 0 0.1950904 -0.9807853 0 -0.1950891 -0.9807856 0 -0.1950889 -0.9807856 0 8.00711e-7 -1 0 0.7047733 0.7094327 0 0.5530402 0.8331546 0 0.9987794 0.04939609 0 2.25913e-6 -1 0 -5.84439e-7 0 -1 -1.1105e-6 0 -1 -5.80906e-7 0 -1 1.13662e-6 0 -1 4.38324e-7 0 -1 -7.57058e-7 0 -1 9.14226e-7 0 -1 -6.23994e-7 0 -1 1.43632e-6 0 -1 -2.25913e-6 -1 0</float_array>
          <technique_common>
            <accessor source="#Circle_002-mesh-normals-array" count="93" stride="3">
              <param name="X" type="float"/>
              <param name="Y" type="float"/>
              <param name="Z" type="float"/>
            </accessor>
          </technique_common>
        </source>
        <source id="Circle_002-mesh-map-0">
          <float_array id="Circle_002-mesh-map-0-array" count="1176">-0.4642183 -1.418053 -0.2790887 -1.5 -0.2790889 -1.418053 1.814005 0.9683917 1.732057 0.1661642 1.814004 0.1661642 -1.476853 -0.6669183 -1.386049 -0.8134563 -1.400482 -0.6669183 -0.9367942 0.02704 -1.109085 0.02576422 -1.066655 -0.04237234 -0.6493474 0.08421671 -0.8107858 0.1501563 -0.7958866 0.0697838 -1.343305 -0.3794714 -1.460953 -0.504392 -1.386049 -0.5203791 -0.9367946 -1.360876 -1.109086 -1.3596 -0.9660205 -1.436585 -1.273893 -0.24961 -1.413863 -0.3481115 -1.343305 -0.3794714 -0.09395921 0.1661641 0.09117007 0.08421695 0.09117031 0.1661641 -0.9660201 0.1027493 -0.7958866 0.0697838 -0.8107858 0.1501563 -1.343305 -0.954364 -1.460953 -0.829443 -1.413863 -0.9857237 -1.18048 -1.19805 -1.337393 -1.129753 -1.234483 -1.255995 -1.273893 -1.084225 -1.413863 -0.9857237 -1.337393 -1.129753 -1.18048 -0.1357856 -1.337393 -0.2040827 -1.273893 -0.24961 -1.386049 -0.5203791 -1.476853 -0.6669183 -1.400482 -0.6669183 -0.6493477 -1.418053 -0.8107861 -1.483992 -0.6493477 -1.5 -1.066655 -0.04237234 -1.234482 -0.07784032 -1.18048 -0.1357856 -0.7958868 -1.40362 -0.9660205 -1.436585 -0.8107861 -1.483992 -0.6493477 -1.418053 -0.4642183 -1.5 -0.4642183 -1.418053 -0.6493474 0.08421671 -0.4642181 0.166164 -0.6493475 0.1661639 -1.066656 -1.291463 -1.234483 -1.255995 -1.109086 -1.3596 0.09116995 -1.418053 -0.09395945 -1.5 0.09117007 -1.5 1.814004 0.9683917 1.732057 1.770619 1.732057 0.9683917 -0.09395945 -1.418053 -0.2790887 -1.5 -0.09395945 -1.5 -0.4642181 0.166164 -0.2790887 0.08421683 -0.2790886 0.166164 -0.2790886 0.166164 -0.09395933 0.08421683 -0.09395921 0.1661641 0.4614292 0.08421647 0.6465586 0.1661636 0.4614292 0.1661638 1.659193 -0.6669183 1.56839 -0.5203793 1.582823 -0.6669183 1.119135 -1.360876 1.291426 -1.3596 1.248996 -1.291463 0.8316885 -1.418053 0.9931269 -1.483993 0.9782274 -1.40362 1.525646 -0.9543643 1.643294 -0.8294433 1.56839 -0.8134563 1.119135 0.02703976 1.291425 0.02576398 1.14836 0.1027491 1.456234 -1.084226 1.596204 -0.9857242 1.525646 -0.9543643 0.2763002 -1.5 0.0911709 -1.418053 0.09117066 -1.5 1.148361 -1.436585 0.9782274 -1.40362 0.9931269 -1.483993 1.525646 -0.3794716 1.643294 -0.5043922 1.596204 -0.3481116 1.36282 -0.1357858 1.519734 -0.2040828 1.416823 -0.07784044 1.456234 -0.2496101 1.596204 -0.3481116 1.519734 -0.2040828 1.362821 -1.19805 1.519734 -1.129753 1.456234 -1.084226 1.56839 -0.8134563 1.659193 -0.6669183 1.582823 -0.6669183 0.831688 0.08421647 0.9931262 0.1501561 0.831688 0.1661636 1.248996 -1.291463 1.416823 -1.255995 1.362821 -1.19805 0.9782272 0.06978356 1.14836 0.1027491 0.9931262 0.1501561 0.831688 0.08421647 0.6465586 0.1661636 0.6465586 0.08421647 0.8316885 -1.418053 0.6465591 -1.5 0.8316885 -1.5 1.248996 -0.04237246 1.416823 -0.07784044 1.291425 0.02576398 0.09117043 0.08421659 0.2762997 0.1661638 0.09117031 0.1661638 0.2762998 0.08421659 0.4614292 0.1661638 0.2762997 0.1661638 0.6465591 -1.418053 0.4614297 -1.5 0.6465591 -1.5 0.4614297 -1.5 0.2763003 -1.418053 0.2763002 -1.5 2.461421 -1.09755 1.659194 -0.9373487 1.659194 -1.09755 -0.6746253 0.2915987 -1.476853 0.4346917 -1.476853 0.291599 -0.6746253 0.4346912 -1.476853 0.5899429 -1.476853 0.4346917 0.1276023 1.437736 0.9298297 1.55156 0.1276024 1.55156 0.1276023 1.068126 -0.6746248 1.223377 -0.6746248 1.068126 0.1276025 2.115406 0.9298299 2.256314 0.1276025 2.256314 0.1276025 2.256314 0.9298299 2.386176 0.1276025 2.386176 0.1276024 1.36647 -0.6746249 1.491904 -0.6746247 1.36647 0.1276025 2.386176 0.9298299 2.5 0.1276024 2.5 0.9298299 1.437735 0.1276025 1.252606 0.9298299 1.252606 1.732057 1.437735 0.9298301 1.323944 1.732057 1.323944 2.461421 -0.9373489 1.659194 -0.7740465 1.659194 -0.9373487 1.732057 1.323944 0.9298301 1.194108 1.732057 1.194108 2.461421 -1.248498 1.659194 -1.09755 1.659193 -1.248497 2.461421 -0.6139208 1.659194 -0.4631248 1.659194 -0.6139207 0.9298299 0.697218 0.1276024 0.550684 0.9298297 0.550684 0.1276022 0.1661642 -0.674625 0.3512938 -0.6746249 0.1661642 2.461421 -0.7740467 1.659194 -0.6139207 1.659194 -0.7740465 0.1276021 0.3512937 -0.6746249 0.5364232 -0.674625 0.3512938 0.9298299 1.067477 0.1276024 0.8823474 0.9298299 0.8823474 0.9298299 1.252606 0.1276025 1.067477 0.9298299 1.067477 0.1276021 0.536423 -0.6746249 0.7215524 -0.6746249 0.5364232 0.1276022 0.7215524 -0.6746249 0.9066818 -0.6746249 0.7215524 0.9298299 0.8823474 0.1276025 0.697218 0.9298299 0.697218 0.9298297 0.550684 0.1276024 0.4097916 0.9298297 0.4097914 -0.674625 1.306775 -1.476852 1.491905 -1.476852 1.306775 -0.674625 1.121646 -1.476852 1.306775 -1.476852 1.121646 -0.6746252 0.9365163 -1.476852 1.121646 -1.476852 0.9365165 1.732057 0.3512936 0.9298299 0.1661642 1.732057 0.1661642 1.732057 0.536423 0.9298299 0.3512937 1.732057 0.3512936 1.732057 0.7215521 0.9298299 0.536423 1.732057 0.536423 -0.6746254 0.1661642 -1.476853 0.291599 -1.476853 0.1661646 2.461421 -0.4631249 1.659194 -0.3274536 1.659194 -0.4631248 -0.6746252 0.7513869 -1.476852 0.9365165 -1.476852 0.7513871 1.732057 1.053215 0.9298299 0.9066815 1.732057 0.9066815 0.9298297 0.4097914 0.1276024 0.2799555 0.9298297 0.2799552 0.9298297 0.2799552 0.1276023 0.1661645 0.9298297 0.1661642 -0.6746253 0.5899427 -1.476852 0.7513871 -1.476853 0.5899429 0.1276024 1.55156 0.9298299 1.681421 0.1276024 1.681421 0.1276024 1.968867 0.9298299 2.115406 0.1276025 2.115406 0.1276024 1.681421 0.9298299 1.822329 0.1276024 1.822329 0.1276022 1.223377 -0.6746247 1.36647 -0.6746248 1.223377 0.1276024 1.822329 0.9298299 1.968867 0.1276024 1.968867 1.732057 0.9066815 0.9298299 0.7215524 1.732057 0.7215521 2.461421 -1.5 1.659193 -1.384388 1.659193 -1.5 0.1276022 0.9066818 -0.6746248 1.068126 -0.6746249 0.9066818 2.461421 -1.384388 1.659193 -1.248497 1.659193 -1.384388 1.732057 1.194108 0.9298299 1.053215 1.732057 1.053215 -0.4642183 -1.418053 -0.4642183 -1.5 -0.2790887 -1.5 1.814005 0.9683917 1.732057 0.9683917 1.732057 0.1661642 -1.476853 -0.6669183 -1.460953 -0.829443 -1.386049 -0.8134563 -0.9367942 0.02704 -0.9660201 0.1027493 -1.109085 0.02576422 -0.6493474 0.08421671 -0.6493475 0.1661639 -0.8107858 0.1501563 -1.343305 -0.3794714 -1.413863 -0.3481115 -1.460953 -0.504392 -0.9367946 -1.360876 -1.066656 -1.291463 -1.109086 -1.3596 -1.273893 -0.24961 -1.337393 -0.2040827 -1.413863 -0.3481115 -0.09395921 0.1661641 -0.09395933 0.08421683 0.09117007 0.08421695 -0.9660201 0.1027493 -0.9367942 0.02704 -0.7958866 0.0697838 -1.343305 -0.954364 -1.386049 -0.8134563 -1.460953 -0.829443 -1.18048 -1.19805 -1.273893 -1.084225 -1.337393 -1.129753 -1.273893 -1.084225 -1.343305 -0.954364 -1.413863 -0.9857237 -1.18048 -0.1357856 -1.234482 -0.07784032 -1.337393 -0.2040827 -1.386049 -0.5203791 -1.460953 -0.504392 -1.476853 -0.6669183 -0.6493477 -1.418053 -0.7958868 -1.40362 -0.8107861 -1.483992 -1.066655 -0.04237234 -1.109085 0.02576422 -1.234482 -0.07784032 -0.7958868 -1.40362 -0.9367946 -1.360876 -0.9660205 -1.436585 -0.6493477 -1.418053 -0.6493477 -1.5 -0.4642183 -1.5 -0.6493474 0.08421671 -0.464218 0.08421671 -0.4642181 0.166164 -1.066656 -1.291463 -1.18048 -1.19805 -1.234483 -1.255995 0.09116995 -1.418053 -0.09395945 -1.418053 -0.09395945 -1.5 1.814004 0.9683917 1.814004 1.770619 1.732057 1.770619 -0.09395945 -1.418053 -0.2790889 -1.418053 -0.2790887 -1.5 -0.4642181 0.166164 -0.464218 0.08421671 -0.2790887 0.08421683 -0.2790886 0.166164 -0.2790887 0.08421683 -0.09395933 0.08421683 0.4614292 0.08421647 0.6465586 0.08421647 0.6465586 0.1661636 1.659193 -0.6669183 1.643294 -0.5043922 1.56839 -0.5203793 1.119135 -1.360876 1.148361 -1.436585 1.291426 -1.3596 0.8316885 -1.418053 0.8316885 -1.5 0.9931269 -1.483993 1.525646 -0.9543643 1.596204 -0.9857242 1.643294 -0.8294433 1.119135 0.02703976 1.248996 -0.04237246 1.291425 0.02576398 1.456234 -1.084226 1.519734 -1.129753 1.596204 -0.9857242 0.2763002 -1.5 0.2763003 -1.418053 0.0911709 -1.418053 1.148361 -1.436585 1.119135 -1.360876 0.9782274 -1.40362 1.525646 -0.3794716 1.56839 -0.5203793 1.643294 -0.5043922 1.36282 -0.1357858 1.456234 -0.2496101 1.519734 -0.2040828 1.456234 -0.2496101 1.525646 -0.3794716 1.596204 -0.3481116 1.362821 -1.19805 1.416823 -1.255995 1.519734 -1.129753 1.56839 -0.8134563 1.643294 -0.8294433 1.659193 -0.6669183 0.831688 0.08421647 0.9782272 0.06978356 0.9931262 0.1501561 1.248996 -1.291463 1.291426 -1.3596 1.416823 -1.255995 0.9782272 0.06978356 1.119135 0.02703976 1.14836 0.1027491 0.831688 0.08421647 0.831688 0.1661636 0.6465586 0.1661636 0.8316885 -1.418053 0.6465591 -1.418053 0.6465591 -1.5 1.248996 -0.04237246 1.36282 -0.1357858 1.416823 -0.07784044 0.09117043 0.08421659 0.2762998 0.08421659 0.2762997 0.1661638 0.2762998 0.08421659 0.4614292 0.08421647 0.4614292 0.1661638 0.6465591 -1.418053 0.4614297 -1.418053 0.4614297 -1.5 0.4614297 -1.5 0.4614297 -1.418053 0.2763003 -1.418053 2.461421 -1.09755 2.461421 -0.9373489 1.659194 -0.9373487 -0.6746253 0.2915987 -0.6746253 0.4346912 -1.476853 0.4346917 -0.6746253 0.4346912 -0.6746253 0.5899427 -1.476853 0.5899429 0.1276023 1.437736 0.9298297 1.437736 0.9298297 1.55156 0.1276023 1.068126 0.1276022 1.223377 -0.6746248 1.223377 0.1276025 2.115406 0.9298299 2.115406 0.9298299 2.256314 0.1276025 2.256314 0.9298299 2.256314 0.9298299 2.386176 0.1276024 1.36647 0.1276023 1.491904 -0.6746249 1.491904 0.1276025 2.386176 0.9298299 2.386176 0.9298299 2.5 0.9298299 1.437735 0.1276025 1.437736 0.1276025 1.252606 1.732057 1.437735 0.9298301 1.437735 0.9298301 1.323944 2.461421 -0.9373489 2.461421 -0.7740467 1.659194 -0.7740465 1.732057 1.323944 0.9298301 1.323944 0.9298301 1.194108 2.461421 -1.248498 2.461421 -1.09755 1.659194 -1.09755 2.461421 -0.6139208 2.461421 -0.4631249 1.659194 -0.4631248 0.9298299 0.697218 0.1276025 0.697218 0.1276024 0.550684 0.1276022 0.1661642 0.1276021 0.3512937 -0.674625 0.3512938 2.461421 -0.7740467 2.461421 -0.6139208 1.659194 -0.6139207 0.1276021 0.3512937 0.1276021 0.536423 -0.6746249 0.5364232 0.9298299 1.067477 0.1276025 1.067477 0.1276024 0.8823474 0.9298299 1.252606 0.1276025 1.252606 0.1276025 1.067477 0.1276021 0.536423 0.1276022 0.7215524 -0.6746249 0.7215524 0.1276022 0.7215524 0.1276022 0.9066818 -0.6746249 0.9066818 0.9298299 0.8823474 0.1276024 0.8823474 0.1276025 0.697218 0.9298297 0.550684 0.1276024 0.550684 0.1276024 0.4097916 -0.674625 1.306775 -0.6746249 1.491904 -1.476852 1.491905 -0.674625 1.121646 -0.674625 1.306775 -1.476852 1.306775 -0.6746252 0.9365163 -0.674625 1.121646 -1.476852 1.121646 1.732057 0.3512936 0.9298299 0.3512937 0.9298299 0.1661642 1.732057 0.536423 0.9298299 0.536423 0.9298299 0.3512937 1.732057 0.7215521 0.9298299 0.7215524 0.9298299 0.536423 -0.6746254 0.1661642 -0.6746253 0.2915987 -1.476853 0.291599 2.461421 -0.4631249 2.461421 -0.3274537 1.659194 -0.3274536 -0.6746252 0.7513869 -0.6746252 0.9365163 -1.476852 0.9365165 1.732057 1.053215 0.9298299 1.053215 0.9298299 0.9066815 0.9298297 0.4097914 0.1276024 0.4097916 0.1276024 0.2799555 0.9298297 0.2799552 0.1276024 0.2799555 0.1276023 0.1661645 -0.6746253 0.5899427 -0.6746252 0.7513869 -1.476852 0.7513871 0.1276024 1.55156 0.9298297 1.55156 0.9298299 1.681421 0.1276024 1.968867 0.9298299 1.968867 0.9298299 2.115406 0.1276024 1.681421 0.9298299 1.681421 0.9298299 1.822329 0.1276022 1.223377 0.1276024 1.36647 -0.6746247 1.36647 0.1276024 1.822329 0.9298299 1.822329 0.9298299 1.968867 1.732057 0.9066815 0.9298299 0.9066815 0.9298299 0.7215524 2.461421 -1.5 2.461421 -1.384388 1.659193 -1.384388 0.1276022 0.9066818 0.1276023 1.068126 -0.6746248 1.068126 2.461421 -1.384388 2.461421 -1.248498 1.659193 -1.248497 1.732057 1.194108 0.9298301 1.194108 0.9298299 1.053215</float_array>
          <technique_common>
            <accessor source="#Circle_002-mesh-map-0-array" count="588" stride="2">
              <param name="S" type="float"/>
              <param name="T" type="float"/>
            </accessor>
          </technique_common>
        </source>
        <vertices id="Circle_002-mesh-vertices">
          <input semantic="POSITION" source="#Circle_002-mesh-positions"/>
        </vertices>
        <triangles material="None-material" count="196">
          <input semantic="VERTEX" source="#Circle_002-mesh-vertices" offset="0"/>
          <input semantic="NORMAL" source="#Circle_002-mesh-normals" offset="1"/>
          <input semantic="TEXCOORD" source="#Circle_002-mesh-map-0" offset="2" set="0"/>
          <p>1 0 0 3 0 1 0 0 2 5 1 3 7 1 4 4 1 5 9 2 6 11 2 7 8 2 8 12 3 9 14 3 10 15 3 11 16 4 12 18 4 13 19 4 14 20 0 15 22 0 16 23 0 17 25 0 18 27 0 19 24 0 20 28 0 21 21 0 22 20 0 23 30 5 24 6 5 25 5 5 26 13 6 27 19 6 28 18 6 29 32 7 30 10 7 31 33 7 32 34 8 33 36 8 34 37 8 35 35 0 36 33 0 37 36 0 38 38 9 39 29 9 40 28 9 41 23 0 42 9 0 43 8 0 44 40 0 45 42 0 46 43 0 47 15 10 48 39 10 49 38 10 50 41 11 51 24 11 52 42 11 53 40 0 54 2 0 55 1 0 56 16 0 57 45 0 58 17 0 59 26 12 60 37 12 61 27 12 62 46 13 63 48 13 64 49 13 65 49 14 66 51 14 67 46 14 68 47 0 69 3 0 70 48 0 71 45 15 72 52 15 73 53 15 74 53 16 75 31 16 76 30 16 77 54 17 78 56 17 79 57 17 80 59 17 81 61 17 82 58 17 83 62 17 84 64 17 85 65 17 86 66 17 87 68 17 88 69 17 89 70 17 90 72 17 91 73 17 92 75 17 93 77 17 94 74 17 95 78 17 96 71 17 97 70 17 98 80 17 99 51 17 100 50 17 101 63 17 102 69 17 103 68 17 104 82 17 105 60 17 106 83 17 107 84 17 108 86 17 109 87 17 110 85 17 111 83 17 112 86 17 113 88 17 114 79 17 115 78 17 116 73 17 117 59 17 118 58 17 119 90 17 120 92 17 121 93 17 122 65 17 123 89 17 124 88 17 125 91 17 126 74 17 127 92 17 128 90 17 129 56 17 130 55 17 131 66 17 132 95 17 133 67 17 134 76 17 135 87 17 136 77 17 137 7 17 138 97 17 139 4 17 140 96 17 141 57 17 142 97 17 143 94 17 144 99 17 145 95 17 146 99 17 147 81 17 148 80 17 149 10 18 150 59 19 151 72 20 152 14 21 153 74 22 154 77 23 155 13 24 156 92 25 157 74 22 158 34 26 159 78 27 160 35 28 161 42 29 162 63 30 163 68 31 164 23 32 165 82 33 166 20 34 167 20 34 168 85 35 169 28 35 170 27 36 171 89 37 172 64 38 173 28 35 174 84 39 175 38 40 176 46 41 177 81 41 178 47 41 179 38 40 180 76 42 181 15 43 182 9 44 183 60 45 184 59 19 185 15 43 186 75 46 187 12 47 188 33 48 189 72 20 190 71 49 191 21 50 192 86 51 193 83 50 194 40 52 195 69 53 196 41 54 197 49 55 198 80 55 199 50 55 200 22 56 201 83 50 202 60 45 203 48 55 204 99 55 205 80 55 206 0 41 207 94 41 208 1 41 209 47 41 210 98 41 211 0 41 212 3 55 213 95 55 214 99 55 215 2 55 216 67 57 217 95 55 218 1 41 219 66 58 220 40 52 221 41 54 222 62 59 223 25 60 224 30 41 225 4 41 226 97 41 227 53 41 228 97 41 229 57 41 230 45 41 231 57 41 232 56 41 233 31 55 234 7 55 235 6 55 236 52 55 237 96 55 238 31 55 239 44 55 240 54 55 241 52 55 242 39 61 243 77 23 244 87 62 245 29 63 246 87 62 247 86 51 248 17 64 249 56 41 250 93 64 251 19 65 252 90 66 253 16 67 254 25 60 255 65 68 256 26 69 257 26 69 258 88 70 259 34 26 260 18 71 261 93 64 262 92 25 263 35 28 264 70 72 265 32 73 266 8 74 267 61 75 268 23 32 269 32 73 270 73 76 271 11 77 272 24 30 273 64 38 274 63 30 275 11 77 276 58 78 277 8 74 278 16 67 279 55 55 280 44 55 281 37 79 282 79 80 283 89 37 284 43 81 285 68 31 286 67 57 287 36 80 288 71 49 289 79 80 290 12 47 291 91 65 292 19 65 293 1 0 294 2 0 295 3 0 296 5 82 297 6 82 298 7 82 299 9 83 300 10 83 301 11 83 302 12 84 303 13 84 304 14 84 305 16 0 306 17 0 307 18 0 308 20 85 309 21 85 310 22 85 311 25 0 312 26 0 313 27 0 314 28 0 315 29 0 316 21 0 317 30 0 318 31 0 319 6 0 320 13 0 321 12 0 322 19 0 323 32 0 324 11 0 325 10 0 326 34 9 327 35 9 328 36 9 329 35 0 330 32 0 331 33 0 332 38 86 333 39 86 334 29 86 335 23 87 336 22 87 337 9 87 338 40 88 339 41 88 340 42 88 341 15 0 342 14 0 343 39 0 344 41 89 345 25 89 346 24 89 347 40 0 348 43 0 349 2 0 350 16 0 351 44 0 352 45 0 353 26 90 354 34 90 355 37 90 356 46 91 357 47 91 358 48 91 359 49 92 360 50 92 361 51 92 362 47 0 363 0 0 364 3 0 365 45 0 366 44 0 367 52 0 368 53 0 369 52 0 370 31 0 371 54 17 372 55 17 373 56 17 374 59 17 375 60 17 376 61 17 377 62 17 378 63 17 379 64 17 380 66 17 381 67 17 382 68 17 383 70 17 384 71 17 385 72 17 386 75 17 387 76 17 388 77 17 389 78 17 390 79 17 391 71 17 392 80 17 393 81 17 394 51 17 395 63 17 396 62 17 397 69 17 398 82 17 399 61 17 400 60 17 401 84 17 402 85 17 403 86 17 404 85 17 405 82 17 406 83 17 407 88 17 408 89 17 409 79 17 410 73 17 411 72 17 412 59 17 413 90 17 414 91 17 415 92 17 416 65 17 417 64 17 418 89 17 419 91 17 420 75 17 421 74 17 422 90 17 423 93 17 424 56 17 425 66 17 426 94 17 427 95 17 428 76 17 429 84 17 430 87 17 431 7 17 432 96 17 433 97 17 434 96 17 435 54 17 436 57 17 437 94 17 438 98 17 439 99 17 440 99 17 441 98 17 442 81 17 443 10 18 444 9 44 445 59 19 446 14 21 447 13 24 448 74 22 449 13 24 450 18 71 451 92 25 452 34 26 453 88 70 454 78 27 455 42 29 456 24 30 457 63 30 458 23 32 459 61 75 460 82 33 461 20 34 462 82 33 463 85 35 464 27 36 465 37 79 466 89 37 467 28 35 468 85 35 469 84 39 470 46 41 471 51 41 472 81 41 473 38 40 474 84 39 475 76 42 476 9 44 477 22 56 478 60 45 479 15 43 480 76 42 481 75 46 482 33 48 483 10 18 484 72 20 485 21 50 486 29 63 487 86 51 488 40 52 489 66 58 490 69 53 491 49 55 492 48 55 493 80 55 494 22 56 495 21 50 496 83 50 497 48 55 498 3 55 499 99 55 500 0 41 501 98 41 502 94 41 503 47 41 504 81 41 505 98 41 506 3 55 507 2 55 508 95 55 509 2 55 510 43 81 511 67 57 512 1 41 513 94 41 514 66 58 515 41 54 516 69 53 517 62 59 518 30 41 519 5 41 520 4 41 521 53 41 522 30 41 523 97 41 524 45 41 525 53 41 526 57 41 527 31 55 528 96 55 529 7 55 530 52 55 531 54 55 532 96 55 533 44 55 534 55 55 535 54 55 536 39 61 537 14 21 538 77 23 539 29 63 540 39 61 541 87 62 542 17 64 543 45 41 544 56 41 545 19 65 546 91 65 547 90 66 548 25 60 549 62 59 550 65 68 551 26 69 552 65 68 553 88 70 554 18 71 555 17 64 556 93 64 557 35 28 558 78 27 559 70 72 560 8 74 561 58 78 562 61 75 563 32 73 564 70 72 565 73 76 566 24 30 567 27 36 568 64 38 569 11 77 570 73 76 571 58 78 572 16 67 573 90 66 574 55 55 575 37 79 576 36 80 577 79 80 578 43 81 579 42 29 580 68 31 581 36 80 582 33 48 583 71 49 584 12 47 585 75 46 586 91 65 587</p>
        </triangles>
      </mesh>
    </geometry>
  </library_geometries>
  <library_controllers/>
  <library_visual_scenes>
    <visual_scene id="Scene" name="Scene">
      <node id="Circle_002" name="Circle_002" type="NODE">
        <matrix sid="transform">1 0 0 0 0 -1.62921e-7 -1 0 0 1 -1.62921e-7 0 0 0 0 1</matrix>
        <instance_geometry url="#Circle_002-mesh" name="Circle_002">
          <bind_material>
            <technique_common>
              <instance_material symbol="None-material" target="#None-material"/>
            </technique_common>
          </bind_material>
        </instance_geometry>
      </node>
    </visual_scene>
  </library_visual_scenes>
  <scene>
    <instance_visual_scene url="#Scene"/>
  </scene>
</COLLADA>