# Blender v2.79 (sub 0) OBJ File: ''
# www.blender.org
mtllib WaterRound.mtl
o Circle.001
v -7.803609 0.000006 -39.231400
v -15.307333 0.000006 -36.955170
v -22.222807 0.000005 -33.258774
v -28.284266 0.000005 -28.284258
v -33.258785 0.000004 -22.222794
v -36.955181 0.000002 -15.307325
v -39.231411 0.000001 -7.803603
v -40.000000 -0.000000 0.000009
v -39.231411 -0.000001 7.803618
v -36.955181 -0.000002 15.307343
v -33.258785 -0.000004 22.222822
v -28.284266 -0.000005 28.284285
v -22.222803 -0.000005 33.258797
v -15.307327 -0.000006 36.955196
v -7.803599 -0.000006 39.231422
v 0.000017 -0.000007 40.000008
v 7.803633 -0.000006 39.231419
v 15.307359 -0.000006 36.955185
v 22.222834 -0.000005 33.258785
v 28.284294 -0.000005 28.284267
v 33.258801 -0.000004 22.222799
v 36.955196 -0.000002 15.307319
v 39.231419 -0.000001 7.803589
v 40.000000 0.000000 -0.000027
v 39.231403 0.000001 -7.803643
v 36.955166 0.000002 -15.307369
v 33.258759 0.000004 -22.222837
v 28.284241 0.000005 -28.284292
v 22.222769 0.000005 -33.258804
v 15.307287 0.000006 -36.955193
v 7.803557 0.000006 -39.231411
v 0.000003 0.000007 -39.999989
v -7.803609 0.000006 -39.231400
v -15.307333 0.000006 -36.955170
v -22.222807 0.000005 -33.258774
v -28.284266 0.000005 -28.284258
v -33.258785 0.000004 -22.222794
v -36.955181 0.000002 -15.307325
v -39.231411 0.000001 -7.803603
v -40.000000 -0.000000 0.000009
v -39.231411 -0.000001 7.803618
v -36.955181 -0.000002 15.307343
v -33.258785 -0.000004 22.222822
v -28.284266 -0.000005 28.284285
v -22.222803 -0.000005 33.258797
v -15.307327 -0.000006 36.955196
v -7.803599 -0.000006 39.231422
v 0.000017 -0.000007 40.000008
v 7.803633 -0.000006 39.231419
v 15.307359 -0.000006 36.955185
v 22.222834 -0.000005 33.258785
v 28.284294 -0.000005 28.284267
v 33.258801 -0.000004 22.222799
v 36.955196 -0.000002 15.307319
v 39.231419 -0.000001 7.803589
v 40.000000 0.000000 -0.000027
v 39.231403 0.000001 -7.803643
v 36.955166 0.000002 -15.307369
v 33.258759 0.000004 -22.222837
v 28.284241 0.000005 -28.284292
v 22.222769 0.000005 -33.258804
v 15.307287 0.000006 -36.955193
v 7.803557 0.000006 -39.231411
v 0.000003 0.000007 -39.999989
vt 0.888299 0.181334
vt 0.999900 0.549237
vt 0.818667 0.888295
vt 0.736791 0.943003
vt 0.645815 0.980686
vt 0.549236 0.999897
vt 0.450764 0.999897
vt 0.354185 0.980686
vt 0.263209 0.943003
vt 0.181333 0.888295
vt 0.111703 0.818666
vt 0.056995 0.736790
vt 0.019311 0.645815
vt 0.000100 0.549236
vt 0.000100 0.450764
vt 0.019310 0.354185
vt 0.181331 0.111703
vt 0.056993 0.263210
vt 0.111701 0.181333
vt 0.263208 0.056995
vt 0.354184 0.019311
vt 0.450764 0.000100
vt 0.549236 0.000100
vt 0.645816 0.019311
vt 0.736792 0.056995
vt 0.818669 0.111703
vt 0.943007 0.263210
vt 0.980690 0.354186
vt 0.999900 0.450766
vt 0.980688 0.645816
vt 0.943005 0.736791
vt 0.888297 0.818666
vt 0.888299 0.181334
vt 0.818667 0.888295
vt 0.999900 0.549237
vt 0.645815 0.980686
vt 0.736791 0.943003
vt 0.450764 0.999897
vt 0.549236 0.999897
vt 0.263209 0.943003
vt 0.354185 0.980686
vt 0.181333 0.888295
vt 0.111703 0.818666
vt 0.019311 0.645815
vt 0.056995 0.736790
vt 0.000100 0.450764
vt 0.000100 0.549236
vt 0.181331 0.111703
vt 0.019310 0.354185
vt 0.056993 0.263210
vt 0.111701 0.181333
vt 0.354184 0.019311
vt 0.263208 0.056995
vt 0.549236 0.000100
vt 0.450764 0.000100
vt 0.645816 0.019311
vt 0.736792 0.056995
vt 0.818669 0.111703
vt 0.980690 0.354186
vt 0.943007 0.263210
vt 0.999900 0.450766
vt 0.943005 0.736791
vt 0.980688 0.645816
vt 0.888297 0.818666
vn -0.0000 1.0000 0.0000
vn 0.0000 -1.0000 -0.0000
usemtl None.001
s 1
f 24/1/1 28/2/1 32/3/1
f 32/3/1 1/4/1 2/5/1
f 2/5/1 3/6/1 4/7/1
f 4/7/1 5/8/1 6/9/1
f 6/9/1 7/10/1 4/7/1
f 7/10/1 8/11/1 4/7/1
f 8/11/1 9/12/1 10/13/1
f 10/13/1 11/14/1 12/15/1
f 12/15/1 13/16/1 16/17/1
f 13/16/1 14/18/1 16/17/1
f 14/18/1 15/19/1 16/17/1
f 16/17/1 17/20/1 18/21/1
f 18/21/1 19/22/1 20/23/1
f 20/23/1 21/24/1 24/1/1
f 21/24/1 22/25/1 24/1/1
f 22/25/1 23/26/1 24/1/1
f 24/1/1 25/27/1 26/28/1
f 26/28/1 27/29/1 24/1/1
f 27/29/1 28/2/1 24/1/1
f 28/2/1 29/30/1 30/31/1
f 30/31/1 31/32/1 28/2/1
f 31/32/1 32/3/1 28/2/1
f 32/3/1 2/5/1 4/7/1
f 8/11/1 10/13/1 12/15/1
f 16/17/1 18/21/1 20/23/1
f 4/7/1 8/11/1 12/15/1
f 16/17/1 4/7/1 12/15/1
f 20/23/1 24/1/1 32/3/1
f 16/17/1 20/23/1 32/3/1 4/7/1
f 56/33/2 64/34/2 60/35/2
f 64/34/2 34/36/2 33/37/2
f 34/36/2 36/38/2 35/39/2
f 36/38/2 38/40/2 37/41/2
f 38/40/2 36/38/2 39/42/2
f 39/42/2 36/38/2 40/43/2
f 40/43/2 42/44/2 41/45/2
f 42/44/2 44/46/2 43/47/2
f 44/46/2 48/48/2 45/49/2
f 45/49/2 48/48/2 46/50/2
f 46/50/2 48/48/2 47/51/2
f 48/48/2 50/52/2 49/53/2
f 50/52/2 52/54/2 51/55/2
f 52/54/2 56/33/2 53/56/2
f 53/56/2 56/33/2 54/57/2
f 54/57/2 56/33/2 55/58/2
f 56/33/2 58/59/2 57/60/2
f 58/59/2 56/33/2 59/61/2
f 59/61/2 56/33/2 60/35/2
f 60/35/2 62/62/2 61/63/2
f 62/62/2 60/35/2 63/64/2
f 63/64/2 60/35/2 64/34/2
f 64/34/2 36/38/2 34/36/2
f 40/43/2 44/46/2 42/44/2
f 48/48/2 52/54/2 50/52/2
f 36/38/2 44/46/2 40/43/2
f 48/48/2 44/46/2 36/38/2
f 52/54/2 64/34/2 56/33/2
f 48/48/2 36/38/2 64/34/2 52/54/2
