# Blender v2.78 (sub 0) OBJ File: ''
# www.blender.org
mtllib MonoStraight4x_col.mtl
o Circle
v 0.500000 0.835000 -0.000000
v 0.371801 0.809500 -0.000000
v 0.263119 0.736881 -0.000000
v 0.190500 0.628199 -0.000000
v 0.165000 0.500000 -0.000000
v 0.190500 0.371801 -0.000000
v 0.263119 0.263119 -0.000000
v 0.371801 0.190500 -0.000000
v 0.500000 0.165000 -0.000000
v 0.628199 0.190500 -0.000000
v 0.736881 0.263119 -0.000000
v 0.809500 0.371801 -0.000000
v 0.835000 0.500000 -0.000000
v 0.809500 0.628199 -0.000000
v 0.736881 0.736881 -0.000000
v 0.628199 0.809500 -0.000000
v 0.500000 0.835001 -4.000000
v 0.371801 0.809500 -4.000000
v 0.263119 0.736881 -4.000000
v 0.190500 0.628199 -4.000000
v 0.165000 0.500000 -4.000000
v 0.190500 0.371801 -4.000000
v 0.263119 0.263120 -4.000000
v 0.371801 0.190501 -4.000000
v 0.500000 0.165000 -4.000000
v 0.628199 0.190501 -4.000000
v 0.736881 0.263120 -4.000000
v 0.809500 0.371801 -4.000000
v 0.835000 0.500000 -4.000000
v 0.809500 0.628199 -4.000000
v 0.736881 0.736881 -4.000000
v 0.628199 0.809500 -4.000000
vn 0.0000 -0.0000 1.0000
vn -0.0000 0.0000 -1.0000
vn -1.0000 0.0000 0.0000
vn -0.9239 -0.3827 -0.0000
vn 1.0000 -0.0000 -0.0000
vn 0.9239 0.3827 0.0000
vn -0.7071 -0.7071 -0.0000
vn 0.7071 0.7071 0.0000
vn -0.3827 -0.9239 -0.0000
vn 0.3827 0.9239 0.0000
vn -0.0000 -1.0000 -0.0000
vn -0.0000 1.0000 0.0000
vn -0.3827 0.9239 0.0000
vn 0.3827 -0.9239 -0.0000
vn -0.7071 0.7071 0.0000
vn 0.7071 -0.7071 -0.0000
vn -0.9239 0.3827 0.0000
vn 0.9239 -0.3827 -0.0000
usemtl None
s off
f 2//1 3//1 4//1 5//1 6//1 7//1 8//1 9//1 10//1 11//1 12//1 13//1 14//1 15//1 16//1 1//1
f 18//2 17//2 32//2 31//2 30//2 29//2 28//2 27//2 26//2 25//2 24//2 23//2 22//2 21//2 20//2 19//2
s 1
f 5//3 21//3 22//4 6//4
f 13//5 29//5 30//6 14//6
f 6//4 22//4 23//7 7//7
f 14//6 30//6 31//8 15//8
f 7//7 23//7 24//9 8//9
f 15//8 31//8 32//10 16//10
f 8//9 24//9 25//11 9//11
f 1//12 17//12 18//13 2//13
f 16//10 32//10 17//12 1//12
f 9//11 25//11 26//14 10//14
f 2//13 18//13 19//15 3//15
f 10//14 26//14 27//16 11//16
f 3//15 19//15 20//17 4//17
f 11//16 27//16 28//18 12//18
f 4//17 20//17 21//3 5//3
f 12//18 28//18 29//5 13//5
