# Blender v2.78 (sub 0) OBJ File: 'MonoRail45Flat.blend'
# www.blender.org
mtllib MonoRail45Flat_col.mtl
o Circle.018
v 38.410702 0.804880 -93.589294
v 38.335007 0.733345 -93.664993
v 38.284416 0.626286 -93.715584
v 38.266655 0.500000 -93.733345
v 38.284416 0.373714 -93.715584
v 38.335007 0.266655 -93.664993
v 38.410702 0.195120 -93.589294
v 38.500000 0.170000 -93.500000
v 38.589298 0.195120 -93.410706
v 38.664993 0.266655 -93.335007
v 38.715584 0.373714 -93.284416
v 38.733345 0.500000 -93.266655
v 38.715584 0.626286 -93.284416
v 38.664993 0.733345 -93.335007
v 38.589298 0.804880 -93.410706
v 38.500000 0.830000 -93.500000
v 41.410702 0.804880 -96.589294
v 41.500000 0.830000 -96.500000
v 41.335007 0.733345 -96.664993
v 41.284416 0.626286 -96.715584
v 41.266655 0.500000 -96.733345
v 41.284416 0.373714 -96.715584
v 41.335007 0.266655 -96.664993
v 41.410702 0.195120 -96.589294
v 41.500000 0.170000 -96.500000
v 41.589298 0.195120 -96.410706
v 41.664993 0.266655 -96.335007
v 41.715584 0.373714 -96.284416
v 41.733345 0.500000 -96.266655
v 41.715584 0.626286 -96.284416
v 41.664993 0.733345 -96.335007
v 41.589298 0.804880 -96.410706
vn 0.5000 -0.7071 0.5000
vn 0.6533 -0.3827 0.6533
vn -0.6533 0.3827 -0.6533
vn -0.7071 -0.0000 -0.7071
vn 0.7071 -0.0000 0.7071
vn -0.6533 -0.3827 -0.6533
vn 0.6533 0.3827 0.6533
vn -0.5000 -0.7071 -0.5000
vn 0.5000 0.7071 0.5000
vn -0.2706 -0.9239 -0.2706
vn 0.2706 0.9239 0.2706
vn 0.0000 -1.0000 0.0000
vn -0.0000 1.0000 -0.0000
vn -0.2706 0.9239 -0.2706
vn 0.2706 -0.9239 0.2706
vn -0.5000 0.7071 -0.5000
usemtl None
s 1
f 10//1 27//1 28//2 11//2
f 3//3 20//3 21//4 4//4
f 11//2 28//2 29//5 12//5
f 4//4 21//4 22//6 5//6
f 12//5 29//5 30//7 13//7
f 5//6 22//6 23//8 6//8
f 13//7 30//7 31//9 14//9
f 6//8 23//8 24//10 7//10
f 14//9 31//9 32//11 15//11
f 7//10 24//10 25//12 8//12
f 16//13 18//13 17//14 1//14
f 15//11 32//11 18//13 16//13
f 8//12 25//12 26//15 9//15
f 1//14 17//14 19//16 2//16
f 9//15 26//15 27//1 10//1
f 2//16 19//16 20//3 3//3
o Circle.017
v 38.410702 0.804880 -93.589294
v 38.335007 0.733345 -93.664993
v 38.284416 0.626286 -93.715584
v 38.266655 0.500000 -93.733345
v 38.284416 0.373714 -93.715584
v 38.335007 0.266655 -93.664993
v 38.410702 0.195120 -93.589294
v 38.500000 0.170000 -93.500000
v 38.589298 0.195120 -93.410706
v 38.664993 0.266655 -93.335007
v 38.715584 0.373714 -93.284416
v 38.733345 0.500000 -93.266655
v 38.715584 0.626286 -93.284416
v 38.664993 0.733345 -93.335007
v 38.589298 0.804880 -93.410706
v 38.500000 0.830000 -93.500000
v 34.217079 0.804880 -88.821487
v 34.296349 0.733345 -88.749535
v 34.349323 0.626286 -88.701454
v 34.367924 0.500000 -88.684563
v 34.349319 0.373714 -88.701454
v 34.296345 0.266655 -88.749542
v 34.217072 0.195120 -88.821480
v 34.123566 0.170000 -88.906357
v 34.030060 0.195120 -88.991234
v 33.950790 0.266655 -89.063179
v 33.897808 0.373714 -89.111275
v 33.879211 0.500000 -89.128151
v 33.897812 0.626286 -89.111267
v 33.950790 0.733345 -89.063179
v 34.030060 0.804880 -88.991234
v 34.123566 0.830000 -88.906364
vn -0.2790 0.9228 -0.2658
vn -0.0022 1.0000 -0.0021
vn -0.5131 0.7055 -0.4888
vn -0.6692 0.3816 -0.6376
vn -0.7240 0.0000 -0.6898
vn -0.6692 -0.3816 -0.6376
vn -0.5131 -0.7055 -0.4888
vn -0.2790 -0.9228 -0.2658
vn -0.0022 -1.0000 -0.0021
vn 0.2753 -0.9249 0.2623
vn 0.5109 -0.7085 0.4868
vn 0.6686 -0.3837 0.6370
vn 0.7240 -0.0000 0.6898
vn 0.6686 0.3837 0.6370
vn 0.5109 0.7085 0.4868
vn 0.2753 0.9249 0.2623
usemtl None
s 1
f 63//17 64//18 48//18 33//17
f 62//19 63//17 33//17 34//19
f 61//20 62//19 34//19 35//20
f 60//21 61//20 35//20 36//21
f 59//22 60//21 36//21 37//22
f 58//23 59//22 37//22 38//23
f 57//24 58//23 38//23 39//24
f 56//25 57//24 39//24 40//25
f 55//26 56//25 40//25 41//26
f 54//27 55//26 41//26 42//27
f 53//28 54//27 42//27 43//28
f 52//29 53//28 43//28 44//29
f 51//30 52//29 44//29 45//30
f 50//31 51//30 45//30 46//31
f 49//32 50//31 46//31 47//32
f 64//18 49//32 47//32 48//18
o Circle.016
v 30.083477 0.804880 -84.040092
v 34.217079 0.804880 -88.821487
v 30.166124 0.733345 -83.972054
v 34.296349 0.733345 -88.749535
v 30.221348 0.626286 -83.926582
v 34.349323 0.626286 -88.701454
v 30.240753 0.500000 -83.910622
v 34.367924 0.500000 -88.684563
v 30.221352 0.373715 -83.926582
v 34.349319 0.373714 -88.701454
v 30.166113 0.266655 -83.972061
v 34.296345 0.266655 -88.749542
v 30.083477 0.195120 -84.040092
v 34.217072 0.195120 -88.821480
v 29.985977 0.170000 -84.120361
v 34.123566 0.170000 -88.906357
v 29.888481 0.195120 -84.200630
v 34.030060 0.195120 -88.991234
v 29.805841 0.266655 -84.268669
v 33.950790 0.266655 -89.063179
v 29.750597 0.373714 -84.314140
v 33.897808 0.373714 -89.111275
v 29.731211 0.500000 -84.330101
v 33.879211 0.500000 -89.128151
v 29.750603 0.626286 -84.314140
v 33.897812 0.626286 -89.111267
v 29.805841 0.733345 -84.268661
v 33.950790 0.733345 -89.063179
v 29.888481 0.804880 -84.200630
v 34.030060 0.804880 -88.991234
v 34.123566 0.830000 -88.906364
v 29.985977 0.830000 -84.120361
vn 0.2876 0.9249 0.2487
vn 0.5339 0.7085 0.4615
vn 0.6986 0.3837 0.6040
vn 0.6986 0.3837 0.6039
vn 0.7565 0.0000 0.6540
vn 0.6986 -0.3837 0.6039
vn 0.5339 -0.7085 0.4615
vn 0.2877 -0.9249 0.2487
vn -0.0023 -1.0000 -0.0020
vn -0.2915 -0.9228 -0.2520
vn -0.5361 -0.7055 -0.4635
vn -0.6993 -0.3816 -0.6045
vn -0.7565 0.0000 -0.6540
vn -0.6993 0.3816 -0.6045
vn -0.5361 0.7055 -0.4635
vn -0.2915 0.9228 -0.2520
vn -0.0023 1.0000 -0.0020
usemtl None
s 1
f 65//33 67//34 68//34 66//33
f 67//34 69//35 70//36 68//34
f 69//35 71//37 72//37 70//36
f 71//37 73//38 74//38 72//37
f 73//38 75//39 76//39 74//38
f 75//39 77//40 78//40 76//39
f 77//40 79//41 80//41 78//40
f 79//41 81//42 82//42 80//41
f 81//42 83//43 84//43 82//42
f 83//43 85//44 86//44 84//43
f 85//44 87//45 88//45 86//44
f 87//45 89//46 90//46 88//45
f 89//46 91//47 92//47 90//46
f 91//47 93//48 94//48 92//47
f 93//48 96//49 95//49 94//48
f 96//49 65//33 66//33 95//49
o Circle.015
v 26.194483 0.804880 -79.077362
v 30.083477 0.804880 -84.040092
v 26.280308 0.733345 -79.013374
v 30.166124 0.733345 -83.972054
v 26.337660 0.626286 -78.970612
v 30.221348 0.626286 -83.926582
v 26.357801 0.500000 -78.955597
v 30.240753 0.500000 -83.910622
v 26.337660 0.373715 -78.970612
v 30.221352 0.373715 -83.926582
v 26.280296 0.266655 -79.013382
v 30.166113 0.266655 -83.972061
v 26.194479 0.195120 -79.077362
v 30.083477 0.195120 -84.040092
v 26.093237 0.170000 -79.152847
v 29.985977 0.170000 -84.120361
v 25.991989 0.195120 -79.228325
v 29.888481 0.195120 -84.200630
v 25.906172 0.266655 -79.292313
v 29.805841 0.266655 -84.268669
v 25.848803 0.373715 -79.335075
v 29.750597 0.373714 -84.314140
v 25.828672 0.500000 -79.350090
v 29.731211 0.500000 -84.330101
v 25.848808 0.626286 -79.335075
v 29.750603 0.626286 -84.314140
v 25.906166 0.733345 -79.292313
v 29.805841 0.733345 -84.268661
v 25.991995 0.804880 -79.228325
v 29.888481 0.804880 -84.200630
v 29.985977 0.830000 -84.120361
v 26.093231 0.830000 -79.152847
vn 0.2993 0.9249 0.2345
vn 0.5555 0.7085 0.4353
vn 0.7269 0.3837 0.5696
vn 0.7871 0.0000 0.6168
vn 0.7269 -0.3837 0.5696
vn 0.5555 -0.7085 0.4353
vn 0.2993 -0.9249 0.2345
vn -0.0024 -1.0000 -0.0018
vn -0.3033 -0.9228 -0.2377
vn -0.5578 -0.7055 -0.4371
vn -0.7276 -0.3816 -0.5701
vn -0.7871 0.0000 -0.6168
vn -0.7276 0.3816 -0.5701
vn -0.5578 0.7055 -0.4371
vn -0.3033 0.9228 -0.2377
vn -0.0024 1.0000 -0.0018
vn -0.0024 1.0000 -0.0019
usemtl None
s 1
f 97//50 99//51 100//51 98//50
f 99//51 101//52 102//52 100//51
f 101//52 103//53 104//53 102//52
f 103//53 105//54 106//54 104//53
f 105//54 107//55 108//55 106//54
f 107//55 109//56 110//56 108//55
f 109//56 111//57 112//57 110//56
f 111//57 113//58 114//58 112//57
f 113//58 115//59 116//59 114//58
f 115//59 117//60 118//60 116//59
f 117//60 119//61 120//61 118//60
f 119//61 121//62 122//62 120//61
f 121//62 123//63 124//63 122//62
f 123//63 125//64 126//64 124//63
f 125//64 128//65 127//66 126//64
f 128//65 97//50 98//50 127//66
o Circle.014
v 22.556097 0.804880 -73.944160
v 26.194483 0.804880 -79.077362
v 22.644890 0.733345 -73.884377
v 26.280308 0.733345 -79.013374
v 22.704237 0.626286 -73.844414
v 26.337660 0.626286 -78.970612
v 22.725075 0.500000 -73.830391
v 26.357801 0.500000 -78.955597
v 22.704237 0.373715 -73.844414
v 26.337660 0.373715 -78.970612
v 22.644886 0.266655 -73.884377
v 26.280296 0.266655 -79.013382
v 22.556097 0.195120 -73.944160
v 26.194479 0.195120 -79.077362
v 22.451334 0.170000 -74.014694
v 26.093237 0.170000 -79.152847
v 22.346582 0.195120 -74.085220
v 25.991989 0.195120 -79.228325
v 22.257790 0.266655 -74.145012
v 25.906172 0.266655 -79.292313
v 22.198442 0.373715 -74.184975
v 25.848803 0.373715 -79.335075
v 22.177610 0.500000 -74.198997
v 25.828672 0.500000 -79.350090
v 22.198437 0.626286 -74.184975
v 25.848808 0.626286 -79.335075
v 22.257790 0.733345 -74.145012
v 25.906166 0.733345 -79.292313
v 22.346588 0.804880 -74.085220
v 25.991995 0.804880 -79.228325
v 26.093231 0.830000 -79.152847
v 22.451340 0.830000 -74.014694
vn 0.3102 0.9249 0.2199
vn 0.5757 0.7085 0.4081
vn 0.7534 0.3837 0.5340
vn 0.8158 -0.0000 0.5783
vn 0.7534 -0.3837 0.5340
vn 0.5757 -0.7085 0.4081
vn 0.3102 -0.9249 0.2199
vn -0.0024 -1.0000 -0.0017
vn -0.3144 -0.9228 -0.2228
vn -0.5782 -0.7055 -0.4098
vn -0.7541 -0.3816 -0.5345
vn -0.8158 0.0000 -0.5783
vn -0.7541 0.3816 -0.5345
vn -0.7541 0.3815 -0.5345
vn -0.5782 0.7055 -0.4098
vn -0.3144 0.9228 -0.2228
vn -0.0024 1.0000 -0.0017
usemtl None
s 1
f 129//67 131//68 132//68 130//67
f 131//68 133//69 134//69 132//68
f 133//69 135//70 136//70 134//69
f 135//70 137//71 138//71 136//70
f 137//71 139//72 140//72 138//71
f 139//72 141//73 142//73 140//72
f 141//73 143//74 144//74 142//73
f 143//74 145//75 146//75 144//74
f 145//75 147//76 148//76 146//75
f 147//76 149//77 150//77 148//76
f 149//77 151//78 152//78 150//77
f 151//78 153//79 154//80 152//78
f 153//79 155//81 156//81 154//80
f 155//81 157//82 158//82 156//81
f 157//82 160//83 159//83 158//82
f 160//83 129//67 130//67 159//83
o Circle.013
v 19.174305 0.804880 -68.651329
v 22.556097 0.804880 -73.944160
v 19.265879 0.733346 -68.595871
v 22.644890 0.733345 -73.884377
v 19.327074 0.626286 -68.558815
v 22.704237 0.626286 -73.844414
v 19.348564 0.500000 -68.545799
v 22.725075 0.500000 -73.830391
v 19.327074 0.373715 -68.558815
v 22.704237 0.373715 -73.844414
v 19.265873 0.266655 -68.595879
v 22.644886 0.266655 -73.884377
v 19.174314 0.195120 -68.651329
v 22.556097 0.195120 -73.944160
v 19.066290 0.170000 -68.716751
v 22.451334 0.170000 -74.014694
v 18.958271 0.195120 -68.782166
v 22.346582 0.195120 -74.085220
v 18.866697 0.266655 -68.837616
v 22.257790 0.266655 -74.145012
v 18.805502 0.373715 -68.874687
v 22.198442 0.373715 -74.184975
v 18.784012 0.500000 -68.887688
v 22.177610 0.500000 -74.198997
v 18.805502 0.626286 -68.874680
v 22.198437 0.626286 -74.184975
v 18.866697 0.733346 -68.837616
v 22.257790 0.733345 -74.145012
v 18.958271 0.804880 -68.782158
v 22.346588 0.804880 -74.085220
v 22.451340 0.830000 -74.014694
v 19.066286 0.830000 -68.716751
vn 0.3204 0.9249 0.2047
vn 0.5947 0.7085 0.3800
vn 0.7782 0.3837 0.4972
vn 0.8427 -0.0000 0.5384
vn 0.7782 -0.3837 0.4972
vn 0.5947 -0.7085 0.3800
vn 0.3204 -0.9249 0.2047
vn -0.0025 -1.0000 -0.0016
vn -0.3247 -0.9228 -0.2075
vn -0.5972 -0.7055 -0.3816
vn -0.7789 -0.3816 -0.4977
vn -0.8427 -0.0000 -0.5384
vn -0.7789 0.3816 -0.4977
vn -0.5972 0.7055 -0.3816
vn -0.3247 0.9228 -0.2075
vn -0.0025 1.0000 -0.0016
usemtl None
s 1
f 161//84 163//85 164//85 162//84
f 163//85 165//86 166//86 164//85
f 165//86 167//87 168//87 166//86
f 167//87 169//88 170//88 168//87
f 169//88 171//89 172//89 170//88
f 171//89 173//90 174//90 172//89
f 173//90 175//91 176//91 174//90
f 175//91 177//92 178//92 176//91
f 177//92 179//93 180//93 178//92
f 179//93 181//94 182//94 180//93
f 181//94 183//95 184//95 182//94
f 183//95 185//96 186//96 184//95
f 185//96 187//97 188//97 186//96
f 187//97 189//98 190//98 188//97
f 189//98 192//99 191//99 190//98
f 192//99 161//84 162//84 191//99
o Circle.012
v 16.055134 0.804880 -63.209740
v 19.174305 0.804880 -68.651329
v 16.149265 0.733346 -63.158752
v 19.265879 0.733346 -68.595871
v 16.212173 0.626286 -63.124683
v 19.327074 0.626286 -68.558815
v 16.234268 0.500000 -63.112717
v 19.348564 0.500000 -68.545799
v 16.212179 0.373715 -63.124680
v 19.327074 0.373715 -68.558815
v 16.149265 0.266655 -63.158756
v 19.265873 0.266655 -68.595879
v 16.055134 0.195120 -63.209732
v 19.174314 0.195120 -68.651329
v 15.944098 0.170000 -63.269886
v 19.066290 0.170000 -68.716751
v 15.833053 0.195120 -63.330032
v 18.958271 0.195120 -68.782166
v 15.738926 0.266655 -63.381016
v 18.866697 0.266655 -68.837616
v 15.676019 0.373715 -63.415089
v 18.805502 0.373715 -68.874687
v 15.653934 0.500000 -63.427055
v 18.784012 0.500000 -68.887688
v 15.676019 0.626286 -63.415089
v 18.805502 0.626286 -68.874680
v 15.738926 0.733346 -63.381012
v 18.866697 0.733346 -68.837616
v 15.833058 0.804881 -63.330032
v 18.958271 0.804880 -68.782158
v 19.066286 0.830000 -68.716751
v 15.944098 0.830000 -63.269882
vn 0.3299 0.9249 0.1891
vn 0.6123 0.7085 0.3509
vn 0.6123 0.7085 0.3510
vn 0.8012 0.3837 0.4592
vn 0.8676 0.0000 0.4973
vn 0.8012 -0.3837 0.4592
vn 0.6122 -0.7085 0.3509
vn 0.3299 -0.9249 0.1891
vn -0.0026 -1.0000 -0.0015
vn -0.3343 -0.9228 -0.1916
vn -0.6148 -0.7055 -0.3524
vn -0.8019 -0.3816 -0.4597
vn -0.8676 0.0000 -0.4973
vn -0.8019 0.3816 -0.4597
vn -0.6148 0.7055 -0.3524
vn -0.3343 0.9228 -0.1916
vn -0.0026 1.0000 -0.0015
usemtl None
s 1
f 193//100 195//101 196//102 194//100
f 195//101 197//103 198//103 196//102
f 197//103 199//104 200//104 198//103
f 199//104 201//105 202//105 200//104
f 201//105 203//106 204//106 202//105
f 203//106 205//107 206//107 204//106
f 205//107 207//108 208//108 206//107
f 207//108 209//109 210//109 208//108
f 209//109 211//110 212//110 210//109
f 211//110 213//111 214//111 212//110
f 213//111 215//112 216//112 214//111
f 215//112 217//113 218//113 216//112
f 217//113 219//114 220//114 218//113
f 219//114 221//115 222//115 220//114
f 221//115 224//116 223//116 222//115
f 224//116 193//100 194//100 223//116
o Circle.011
v 13.204577 0.804881 -57.630238
v 16.055134 0.804880 -63.209740
v 13.301061 0.733346 -57.583851
v 16.149265 0.733346 -63.158752
v 13.365539 0.626286 -57.552853
v 16.212173 0.626286 -63.124683
v 13.388173 0.500000 -57.541965
v 16.234268 0.500000 -63.112717
v 13.365534 0.373715 -57.552853
v 16.212179 0.373715 -63.124680
v 13.301050 0.266655 -57.583855
v 16.149265 0.266655 -63.158756
v 13.204582 0.195120 -57.630238
v 16.055134 0.195120 -63.209732
v 13.090773 0.170000 -57.684963
v 15.944098 0.170000 -63.269886
v 12.976957 0.195120 -57.739681
v 15.833053 0.195120 -63.330032
v 12.880484 0.266655 -57.786072
v 15.738926 0.266655 -63.381016
v 12.816001 0.373715 -57.817074
v 15.676019 0.373715 -63.415089
v 12.793356 0.500000 -57.827957
v 15.653934 0.500000 -63.427055
v 12.816001 0.626286 -57.817074
v 15.676019 0.626286 -63.415089
v 12.880484 0.733346 -57.786072
v 15.738926 0.733346 -63.381012
v 12.976957 0.804881 -57.739681
v 15.833058 0.804881 -63.330032
v 15.944098 0.830000 -63.269882
v 13.090773 0.830000 -57.684959
vn 0.3386 0.9249 0.1730
vn 0.6284 0.7085 0.3211
vn 0.8224 0.3837 0.4201
vn 0.8905 -0.0000 0.4550
vn 0.8224 -0.3837 0.4201
vn 0.6284 -0.7085 0.3211
vn 0.3386 -0.9249 0.1730
vn -0.0027 -1.0000 -0.0014
vn -0.3432 -0.9228 -0.1753
vn -0.6311 -0.7055 -0.3224
vn -0.8231 -0.3816 -0.4205
vn -0.8905 0.0000 -0.4550
vn -0.8231 0.3816 -0.4205
vn -0.6311 0.7055 -0.3224
vn -0.3432 0.9228 -0.1753
vn -0.0027 1.0000 -0.0014
usemtl None
s 1
f 225//117 227//118 228//118 226//117
f 227//118 229//119 230//119 228//118
f 229//119 231//120 232//120 230//119
f 231//120 233//121 234//121 232//120
f 233//121 235//122 236//122 234//121
f 235//122 237//123 238//123 236//122
f 237//123 239//124 240//124 238//123
f 239//124 241//125 242//125 240//124
f 241//125 243//126 244//126 242//125
f 243//126 245//127 246//127 244//126
f 245//127 247//128 248//128 246//127
f 247//128 249//129 250//129 248//128
f 249//129 251//130 252//130 250//129
f 251//130 253//131 254//131 252//130
f 253//131 256//132 255//132 254//131
f 256//132 225//117 226//117 255//132
o Circle.010
v 10.628626 0.804881 -51.923687
v 13.204577 0.804881 -57.630238
v 10.727240 0.733346 -51.882019
v 13.301061 0.733346 -57.583851
v 10.793142 0.626286 -51.854179
v 13.365539 0.626286 -57.552853
v 10.816280 0.500000 -51.844402
v 13.388173 0.500000 -57.541965
v 10.793142 0.373715 -51.854179
v 13.365534 0.373715 -57.552853
v 10.727229 0.266655 -51.882027
v 13.301050 0.266655 -57.583855
v 10.628632 0.195120 -51.923687
v 13.204582 0.195120 -57.630238
v 10.512293 0.170000 -51.972836
v 13.090773 0.170000 -57.684963
v 10.395970 0.195120 -52.021988
v 12.976957 0.195120 -57.739681
v 10.297358 0.266655 -52.063652
v 12.880484 0.266655 -57.786072
v 10.231454 0.373715 -52.091499
v 12.816001 0.373715 -57.817074
v 10.208316 0.500000 -52.101273
v 12.793356 0.500000 -57.827957
v 10.231454 0.626286 -52.091499
v 12.816001 0.626286 -57.817074
v 10.297358 0.733346 -52.063652
v 12.880484 0.733346 -57.786072
v 10.395970 0.804881 -52.021984
v 12.976957 0.804881 -57.739681
v 13.090773 0.830000 -57.684959
v 10.512299 0.830000 -51.972836
vn 0.3465 0.9249 0.1564
vn 0.6432 0.7085 0.2903
vn 0.3466 0.9249 0.1564
vn 0.8417 0.3837 0.3799
vn 0.9114 -0.0000 0.4114
vn 0.8417 -0.3837 0.3799
vn 0.6432 -0.7085 0.2903
vn 0.3466 -0.9249 0.1564
vn -0.0028 -1.0000 -0.0012
vn -0.0027 -1.0000 -0.0012
vn -0.3512 -0.9228 -0.1585
vn -0.6459 -0.7055 -0.2916
vn -0.8425 -0.3816 -0.3803
vn -0.9114 0.0000 -0.4114
vn -0.8425 0.3816 -0.3803
vn -0.6459 0.7055 -0.2916
vn -0.3512 0.9228 -0.1585
vn -0.0027 1.0000 -0.0012
usemtl None
s 1
f 257//133 259//134 260//134 258//135
f 259//134 261//136 262//136 260//134
f 261//136 263//137 264//137 262//136
f 263//137 265//138 266//138 264//137
f 265//138 267//139 268//139 266//138
f 267//139 269//140 270//140 268//139
f 269//140 271//141 272//142 270//140
f 271//141 273//143 274//143 272//142
f 273//143 275//144 276//144 274//143
f 275//144 277//145 278//145 276//144
f 277//145 279//146 280//146 278//145
f 279//146 281//147 282//147 280//146
f 281//147 283//148 284//148 282//147
f 283//148 285//149 286//149 284//148
f 285//149 288//150 287//150 286//149
f 288//150 257//133 258//135 287//150
o Circle.009
v 8.333276 0.804881 -46.100941
v 10.628626 0.804881 -51.923687
v 8.433803 0.733346 -46.064125
v 10.727240 0.733346 -51.882019
v 8.500975 0.626286 -46.039520
v 10.793142 0.626286 -51.854179
v 8.524561 0.500000 -46.030880
v 10.816280 0.500000 -51.844402
v 8.500979 0.373715 -46.039516
v 10.793142 0.373715 -51.854179
v 8.433792 0.266655 -46.064129
v 10.727229 0.266655 -51.882027
v 8.333276 0.195120 -46.100941
v 10.628632 0.195120 -51.923687
v 8.214692 0.170000 -46.144379
v 10.512293 0.170000 -51.972836
v 8.096119 0.195120 -46.187809
v 10.395970 0.195120 -52.021988
v 7.995592 0.266655 -46.224628
v 10.297358 0.266655 -52.063652
v 7.928404 0.373715 -46.249237
v 10.231454 0.373715 -52.091499
v 7.904829 0.500000 -46.257874
v 10.208316 0.500000 -52.101273
v 7.928410 0.626286 -46.249237
v 10.231454 0.626286 -52.091499
v 7.995597 0.733346 -46.224628
v 10.297358 0.733346 -52.063652
v 8.096113 0.804881 -46.187809
v 10.395970 0.804881 -52.021984
v 10.512299 0.830000 -51.972836
v 8.214692 0.830000 -46.144379
vn 0.3537 0.9249 0.1394
vn 0.6565 0.7085 0.2588
vn 0.8591 0.3837 0.3387
vn 0.9303 0.0000 0.3667
vn 0.8591 -0.3837 0.3387
vn 0.6565 -0.7085 0.2588
vn 0.3537 -0.9249 0.1394
vn -0.0028 -1.0000 -0.0011
vn -0.3585 -0.9228 -0.1413
vn -0.6593 -0.7055 -0.2599
vn -0.8599 -0.3815 -0.3390
vn -0.9303 0.0000 -0.3667
vn -0.8599 0.3815 -0.3390
vn -0.6593 0.7055 -0.2599
vn -0.3585 0.9228 -0.1413
vn -0.0028 1.0000 -0.0011
usemtl None
s 1
f 289//151 291//152 292//152 290//151
f 291//152 293//153 294//153 292//152
f 293//153 295//154 296//154 294//153
f 295//154 297//155 298//155 296//154
f 297//155 299//156 300//156 298//155
f 299//156 301//157 302//157 300//156
f 301//157 303//158 304//158 302//157
f 303//158 305//159 306//159 304//158
f 305//159 307//160 308//160 306//159
f 307//160 309//161 310//161 308//160
f 309//161 311//162 312//162 310//161
f 311//162 313//163 314//163 312//162
f 313//163 315//164 316//164 314//163
f 315//164 317//165 318//165 316//164
f 317//165 320//166 319//166 318//165
f 320//166 289//151 290//151 319//166
o Circle.008
v 6.324520 0.804881 -40.172855
v 8.333276 0.804881 -46.100941
v 6.426728 0.733346 -40.140999
v 8.433803 0.733346 -46.064125
v 6.495023 0.626286 -40.119713
v 8.500975 0.626286 -46.039520
v 6.519002 0.500000 -40.112236
v 8.524561 0.500000 -46.030880
v 6.495023 0.373715 -40.119709
v 8.500979 0.373715 -46.039516
v 6.426718 0.266655 -40.141003
v 8.433792 0.266655 -46.064129
v 6.324520 0.195120 -40.172855
v 8.333276 0.195120 -46.100941
v 6.203957 0.170000 -40.210442
v 8.214692 0.170000 -46.144379
v 6.083395 0.195120 -40.248016
v 8.096119 0.195120 -46.187809
v 5.981196 0.266655 -40.279869
v 7.995592 0.266655 -46.224628
v 5.912886 0.373715 -40.301163
v 7.928404 0.373715 -46.249237
v 5.888912 0.500000 -40.308636
v 7.904829 0.500000 -46.257874
v 5.912886 0.626286 -40.301163
v 7.928410 0.626286 -46.249237
v 5.981196 0.733346 -40.279869
v 7.995597 0.733346 -46.224628
v 6.083395 0.804881 -40.248016
v 8.096113 0.804881 -46.187809
v 8.214692 0.830000 -46.144379
v 6.203962 0.830000 -40.210434
vn 0.3601 0.9249 0.1220
vn 0.6684 0.7085 0.2265
vn 0.8746 0.3837 0.2964
vn 0.9471 0.0000 0.3209
vn 0.8746 -0.3837 0.2964
vn 0.6683 -0.7085 0.2265
vn 0.6684 -0.7085 0.2265
vn 0.3601 -0.9249 0.1220
vn -0.0029 -1.0000 -0.0010
vn -0.3650 -0.9227 -0.1237
vn -0.3650 -0.9228 -0.1237
vn -0.6712 -0.7055 -0.2274
vn -0.8755 -0.3815 -0.2967
vn -0.9471 0.0000 -0.3209
vn -0.8755 0.3815 -0.2967
vn -0.6712 0.7055 -0.2274
vn -0.3650 0.9227 -0.1237
vn -0.3650 0.9228 -0.1237
vn -0.0029 1.0000 -0.0010
usemtl None
s 1
f 321//167 323//168 324//168 322//167
f 323//168 325//169 326//169 324//168
f 325//169 327//170 328//170 326//169
f 327//170 329//171 330//171 328//170
f 329//171 331//172 332//173 330//171
f 331//172 333//174 334//174 332//173
f 333//174 335//175 336//175 334//174
f 335//175 337//176 338//177 336//175
f 337//176 339//178 340//178 338//177
f 339//178 341//179 342//179 340//178
f 341//179 343//180 344//180 342//179
f 343//180 345//181 346//181 344//180
f 345//181 347//182 348//182 346//181
f 347//182 349//183 350//184 348//182
f 349//183 352//185 351//185 350//184
f 352//185 321//167 322//167 351//185
o Circle.007
v 4.608363 0.804881 -34.150288
v 6.324520 0.804881 -40.172855
v 4.712016 0.733346 -34.123505
v 6.426728 0.733346 -40.140999
v 4.781278 0.626286 -34.105610
v 6.495023 0.626286 -40.119713
v 4.805599 0.500000 -34.099323
v 6.519002 0.500000 -40.112236
v 4.781278 0.373715 -34.105610
v 6.495023 0.373715 -40.119709
v 4.712001 0.266655 -34.123508
v 6.426718 0.266655 -40.141003
v 4.608377 0.195120 -34.150288
v 6.324520 0.195120 -40.172855
v 4.486088 0.170000 -34.181881
v 6.203957 0.170000 -40.210442
v 4.363833 0.195120 -34.213470
v 6.083395 0.195120 -40.248016
v 4.260180 0.266655 -34.240250
v 5.981196 0.266655 -40.279869
v 4.190913 0.373715 -34.258148
v 5.912886 0.373715 -40.301163
v 4.166587 0.500000 -34.264435
v 5.888912 0.500000 -40.308636
v 4.190903 0.626286 -34.258152
v 5.912886 0.626286 -40.301163
v 4.260185 0.733346 -34.240250
v 5.981196 0.733346 -40.279869
v 4.363828 0.804881 -34.213470
v 6.083395 0.804881 -40.248016
v 6.203962 0.830000 -40.210434
v 4.486093 0.830000 -34.181877
vn 0.3656 0.9249 0.1042
vn 0.6787 0.7085 0.1934
vn 0.8881 0.3837 0.2531
vn 0.9617 0.0000 0.2740
vn 0.8881 -0.3837 0.2531
vn 0.6787 -0.7085 0.1934
vn 0.3656 -0.9249 0.1042
vn 0.3657 -0.9249 0.1042
vn -0.0030 -1.0000 -0.0008
vn -0.0029 -1.0000 -0.0008
vn -0.3707 -0.9227 -0.1056
vn -0.3706 -0.9227 -0.1056
vn -0.6816 -0.7055 -0.1942
vn -0.8890 -0.3815 -0.2533
vn -0.9617 -0.0000 -0.2740
vn -0.8890 0.3815 -0.2533
vn -0.6816 0.7055 -0.1942
vn -0.3707 0.9227 -0.1056
vn -0.0030 1.0000 -0.0008
vn -0.0029 1.0000 -0.0008
usemtl None
s 1
f 353//186 355//187 356//187 354//186
f 355//187 357//188 358//188 356//187
f 357//188 359//189 360//189 358//188
f 359//189 361//190 362//190 360//189
f 361//190 363//191 364//191 362//190
f 363//191 365//192 366//193 364//191
f 365//192 367//194 368//195 366//193
f 367//194 369//196 370//197 368//195
f 369//196 371//198 372//198 370//197
f 371//198 373//199 374//199 372//198
f 373//199 375//200 376//200 374//199
f 375//200 377//201 378//201 376//200
f 377//201 379//202 380//202 378//201
f 379//202 381//203 382//203 380//202
f 381//203 384//204 383//205 382//203
f 384//204 353//186 354//186 383//205
o Circle.006
v 3.190803 0.804881 -28.044088
v 4.608363 0.804881 -34.150288
v 3.295645 0.733346 -28.022488
v 4.712016 0.733346 -34.123505
v 3.365718 0.626286 -28.008055
v 4.781278 0.626286 -34.105610
v 3.390311 0.500000 -28.002985
v 4.805599 0.500000 -34.099323
v 3.365718 0.373715 -28.008055
v 4.781278 0.373715 -34.105610
v 3.295635 0.266655 -28.022491
v 4.712001 0.266655 -34.123508
v 3.190803 0.195120 -28.044090
v 4.608377 0.195120 -34.150288
v 3.067103 0.170000 -28.069571
v 4.486088 0.170000 -34.181881
v 2.943424 0.195120 -28.095049
v 4.363833 0.195120 -34.213470
v 2.838572 0.266655 -28.116650
v 4.260180 0.266655 -34.240250
v 2.768499 0.373715 -28.131084
v 4.190913 0.373715 -34.258148
v 2.743906 0.500000 -28.136152
v 4.166587 0.500000 -34.264435
v 2.768494 0.626286 -28.131086
v 4.190903 0.626286 -34.258152
v 2.838582 0.733346 -28.116648
v 4.260185 0.733346 -34.240250
v 2.943424 0.804881 -28.095049
v 4.363828 0.804881 -34.213470
v 4.486093 0.830000 -34.181877
v 3.067108 0.830000 -28.069571
vn 0.3703 0.9249 0.0860
vn 0.6874 0.7085 0.1596
vn 0.8995 0.3837 0.2088
vn 0.9741 0.0000 0.2261
vn 0.8995 -0.3837 0.2088
vn 0.6874 -0.7085 0.1596
vn 0.3703 -0.9249 0.0860
vn 0.3704 -0.9249 0.0860
vn -0.0030 -1.0000 -0.0007
vn -0.3755 -0.9227 -0.0872
vn -0.3754 -0.9227 -0.0872
vn -0.6904 -0.7055 -0.1603
vn -0.9004 -0.3815 -0.2090
vn -0.9741 -0.0000 -0.2261
vn -0.9004 0.3815 -0.2090
vn -0.6904 0.7055 -0.1603
vn -0.3755 0.9227 -0.0872
vn -0.3754 0.9227 -0.0872
vn -0.0030 1.0000 -0.0007
usemtl None
s 1
f 385//206 387//207 388//207 386//206
f 387//207 389//208 390//208 388//207
f 389//208 391//209 392//209 390//208
f 391//209 393//210 394//210 392//209
f 393//210 395//211 396//211 394//210
f 395//211 397//212 398//213 396//211
f 397//212 399//214 400//214 398//213
f 399//214 401//215 402//216 400//214
f 401//215 403//217 404//217 402//216
f 403//217 405//218 406//218 404//217
f 405//218 407//219 408//219 406//218
f 407//219 409//220 410//220 408//219
f 409//220 411//221 412//221 410//220
f 411//221 413//222 414//223 412//221
f 413//222 416//224 415//224 414//223
f 416//224 385//206 386//206 415//224
o Circle.005
v 2.077822 0.804881 -21.865112
v 3.190803 0.804881 -28.044088
v 2.183616 0.733346 -21.848791
v 3.295645 0.733346 -28.022488
v 2.254328 0.626286 -21.837885
v 3.365718 0.626286 -28.008055
v 2.279147 0.500000 -21.834057
v 3.390311 0.500000 -28.002985
v 2.254333 0.373715 -21.837887
v 3.365718 0.373715 -28.008055
v 2.183611 0.266655 -21.848793
v 3.295635 0.266655 -28.022491
v 2.077822 0.195120 -21.865112
v 3.190803 0.195120 -28.044090
v 1.952994 0.170000 -21.884365
v 3.067103 0.170000 -28.069571
v 1.828197 0.195120 -21.903614
v 2.943424 0.195120 -28.095049
v 1.722403 0.266655 -21.919933
v 2.838572 0.266655 -28.116650
v 1.651686 0.373715 -21.930841
v 2.768499 0.373715 -28.131084
v 1.626872 0.500000 -21.934669
v 2.743906 0.500000 -28.136152
v 1.651686 0.626286 -21.930841
v 2.768494 0.626286 -28.131086
v 1.722398 0.733346 -21.919933
v 2.838582 0.733346 -28.116648
v 1.828197 0.804881 -21.903614
v 2.943424 0.804881 -28.095049
v 3.067108 0.830000 -28.069571
v 1.953004 0.830000 -21.884363
vn 0.3741 0.9249 0.0674
vn 0.6945 0.7086 0.1251
vn 0.6945 0.7085 0.1251
vn 0.9088 0.3837 0.1637
vn 0.9842 0.0000 0.1773
vn 0.9088 -0.3837 0.1637
vn 0.6945 -0.7086 0.1251
vn 0.3741 -0.9249 0.0674
vn -0.0031 -1.0000 -0.0006
vn -0.3794 -0.9227 -0.0683
vn -0.3793 -0.9227 -0.0683
vn -0.6975 -0.7055 -0.1256
vn -0.9097 -0.3815 -0.1639
vn -0.9842 -0.0000 -0.1773
vn -0.9097 0.3815 -0.1639
vn -0.6975 0.7055 -0.1256
vn -0.3794 0.9227 -0.0683
vn -0.3793 0.9227 -0.0683
vn -0.0031 1.0000 -0.0006
usemtl None
s 1
f 417//225 419//226 420//227 418//225
f 419//226 421//228 422//228 420//227
f 421//228 423//229 424//229 422//228
f 423//229 425//230 426//230 424//229
f 425//230 427//231 428//231 426//230
f 427//231 429//232 430//232 428//231
f 429//232 431//233 432//233 430//232
f 431//233 433//234 434//235 432//233
f 433//234 435//236 436//236 434//235
f 435//236 437//237 438//237 436//236
f 437//237 439//238 440//238 438//237
f 439//238 441//239 442//239 440//238
f 441//239 443//240 444//240 442//239
f 443//240 445//241 446//242 444//240
f 445//241 448//243 447//243 446//242
f 448//243 417//225 418//225 447//243
o Circle.004
v 1.275404 0.804880 -15.624209
v 2.077822 0.804881 -21.865112
v 1.381902 0.733346 -15.613259
v 2.183616 0.733346 -21.848791
v 1.453063 0.626286 -15.605943
v 2.254328 0.626286 -21.837885
v 1.478043 0.500000 -15.603373
v 2.279147 0.500000 -21.834057
v 1.453063 0.373715 -15.605942
v 2.254333 0.373715 -21.837887
v 1.381887 0.266655 -15.613259
v 2.183611 0.266655 -21.848793
v 1.275414 0.195120 -15.624208
v 2.077822 0.195120 -21.865112
v 1.149770 0.170000 -15.637127
v 1.952994 0.170000 -21.884365
v 1.024168 0.195120 -15.650044
v 1.828197 0.195120 -21.903614
v 0.917669 0.266655 -15.660994
v 1.722403 0.266655 -21.919933
v 0.846509 0.373715 -15.668312
v 1.651686 0.373715 -21.930841
v 0.821513 0.500000 -15.670881
v 1.626872 0.500000 -21.934669
v 0.846488 0.626286 -15.668312
v 1.651686 0.626286 -21.930841
v 0.917669 0.733346 -15.660994
v 1.722398 0.733346 -21.919933
v 1.024157 0.804881 -15.650044
v 1.828197 0.804881 -21.903614
v 1.953004 0.830000 -21.884363
v 1.149781 0.830000 -15.637127
vn 0.3770 0.9249 0.0485
vn 0.6999 0.7086 0.0900
vn 0.9159 0.3837 0.1178
vn 0.9918 0.0000 0.1275
vn 0.9159 -0.3837 0.1178
vn 0.6999 -0.7086 0.0900
vn 0.3770 -0.9249 0.0485
vn -0.0032 -1.0000 -0.0004
vn -0.0031 -1.0000 -0.0004
vn -0.3824 -0.9227 -0.0492
vn -0.3823 -0.9227 -0.0492
vn -0.7030 -0.7054 -0.0904
vn -0.9168 -0.3815 -0.1179
vn -0.9918 -0.0000 -0.1275
vn -0.9168 0.3815 -0.1179
vn -0.7030 0.7054 -0.0904
vn -0.7030 0.7055 -0.0904
vn -0.3823 0.9227 -0.0492
vn -0.0031 1.0000 -0.0004
usemtl None
s 1
f 449//244 451//245 452//245 450//244
f 451//245 453//246 454//246 452//245
f 453//246 455//247 456//247 454//246
f 455//247 457//248 458//248 456//247
f 457//248 459//249 460//249 458//248
f 459//249 461//250 462//250 460//249
f 461//250 463//251 464//252 462//250
f 463//251 465//253 466//254 464//252
f 465//253 467//255 468//255 466//254
f 467//255 469//256 470//256 468//255
f 469//256 471//257 472//257 470//256
f 471//257 473//258 474//258 472//257
f 473//258 475//259 476//260 474//258
f 475//259 477//261 478//261 476//260
f 477//261 480//262 479//262 478//261
f 480//262 449//244 450//244 479//262
o Circle.003
v 0.789567 0.804880 -9.332227
v 1.275404 0.804880 -15.624209
v 0.896479 0.733345 -9.326725
v 1.381902 0.733346 -15.613259
v 0.967921 0.626286 -9.323048
v 1.453063 0.626286 -15.605943
v 0.993008 0.500000 -9.321756
v 1.478043 0.500000 -15.603373
v 0.967916 0.373715 -9.323048
v 1.453063 0.373715 -15.605942
v 0.896469 0.266655 -9.326725
v 1.381887 0.266655 -15.613259
v 0.789567 0.195120 -9.332228
v 1.275414 0.195120 -15.624208
v 0.663431 0.170000 -9.338719
v 1.149770 0.170000 -15.637127
v 0.537334 0.195120 -9.345209
v 1.024168 0.195120 -15.650044
v 0.430422 0.266655 -9.350712
v 0.917669 0.266655 -15.660994
v 0.358970 0.373715 -9.354389
v 0.846509 0.373715 -15.668312
v 0.333894 0.500000 -9.355680
v 0.821513 0.500000 -15.670881
v 0.358970 0.626286 -9.354389
v 0.846488 0.626286 -15.668312
v 0.430432 0.733346 -9.350712
v 0.917669 0.733346 -15.660994
v 0.537334 0.804880 -9.345209
v 1.024157 0.804881 -15.650044
v 1.149781 0.830000 -15.637127
v 0.663451 0.830000 -9.338718
vn 0.7035 0.7086 0.0543
vn 0.3790 0.9249 0.0293
vn 0.3789 0.9250 0.0293
vn 0.9207 0.3837 0.0711
vn 0.9970 -0.0000 0.0770
vn 0.9207 -0.3837 0.0711
vn 0.7035 -0.7086 0.0543
vn 0.3790 -0.9249 0.0293
vn -0.0032 -1.0000 -0.0002
vn -0.3844 -0.9227 -0.0297
vn -0.7067 -0.7054 -0.0546
vn -0.9216 -0.3815 -0.0712
vn -0.9970 -0.0000 -0.0770
vn -0.9216 0.3815 -0.0712
vn -0.7067 0.7054 -0.0546
vn -0.3844 0.9227 -0.0297
vn -0.0032 1.0000 -0.0002
vn -0.0031 1.0000 -0.0002
usemtl None
s 1
f 483//263 484//263 482//264 481//265
f 485//266 486//266 484//263 483//263
f 487//267 488//267 486//266 485//266
f 489//268 490//268 488//267 487//267
f 491//269 492//269 490//268 489//268
f 493//270 494//270 492//269 491//269
f 495//271 496//271 494//270 493//270
f 497//272 498//272 496//271 495//271
f 499//273 500//273 498//272 497//272
f 501//274 502//274 500//273 499//273
f 503//275 504//275 502//274 501//274
f 505//276 506//276 504//275 503//275
f 507//277 508//277 506//276 505//276
f 509//278 510//278 508//277 507//277
f 512//279 511//280 510//278 509//278
f 481//265 482//264 511//280 512//279
o Circle.002
v 0.500000 0.830000 -3.000000
v 0.626288 0.804880 -3.000000
v 0.733340 0.733345 -3.000000
v 0.804883 0.626286 -3.000000
v 0.830000 0.500000 -3.000000
v 0.804883 0.373714 -3.000000
v 0.733340 0.266655 -3.000000
v 0.626288 0.195120 -3.000000
v 0.500000 0.170000 -3.000000
v 0.373712 0.195120 -3.000000
v 0.266660 0.266655 -3.000000
v 0.195117 0.373714 -3.000000
v 0.170000 0.500000 -3.000000
v 0.195117 0.626286 -3.000000
v 0.266660 0.733345 -3.000000
v 0.373712 0.804880 -3.000000
v 0.789567 0.804880 -9.332227
v 0.896479 0.733345 -9.326725
v 0.967921 0.626286 -9.323048
v 0.993008 0.500000 -9.321756
v 0.967916 0.373715 -9.323048
v 0.896469 0.266655 -9.326725
v 0.789567 0.195120 -9.332228
v 0.663431 0.170000 -9.338719
v 0.537334 0.195120 -9.345209
v 0.430422 0.266655 -9.350712
v 0.358970 0.373715 -9.354389
v 0.333894 0.500000 -9.355680
v 0.358970 0.626286 -9.354389
v 0.430432 0.733346 -9.350712
v 0.537334 0.804880 -9.345209
v 0.663451 0.830000 -9.338718
vn 0.7054 0.7086 0.0182
vn 0.3800 0.9250 0.0098
vn 0.3799 0.9250 0.0098
vn 0.9231 0.3837 0.0238
vn 0.9997 -0.0000 0.0258
vn 0.9231 -0.3837 0.0238
vn 0.7054 -0.7086 0.0182
vn 0.3799 -0.9250 0.0098
vn 0.3800 -0.9250 0.0098
vn -0.0032 -1.0000 -0.0001
vn -0.3854 -0.9227 -0.0099
vn -0.7086 -0.7054 -0.0183
vn -0.9241 -0.3815 -0.0238
vn -0.9997 -0.0000 -0.0258
vn -0.9241 0.3815 -0.0238
vn -0.7086 0.7054 -0.0183
vn -0.3854 0.9227 -0.0099
vn -0.0032 1.0000 -0.0001
usemtl None
s 1
f 515//281 530//281 529//282 514//283
f 516//284 531//284 530//281 515//281
f 517//285 532//285 531//284 516//284
f 518//286 533//286 532//285 517//285
f 519//287 534//287 533//286 518//286
f 520//288 535//289 534//287 519//287
f 521//290 536//290 535//289 520//288
f 522//291 537//291 536//290 521//290
f 523//292 538//292 537//291 522//291
f 524//293 539//293 538//292 523//292
f 525//294 540//294 539//293 524//293
f 526//295 541//295 540//294 525//294
f 527//296 542//296 541//295 526//295
f 528//297 543//297 542//296 527//296
f 513//298 544//298 543//297 528//297
f 514//283 529//282 544//298 513//298
o Circle.001
v 0.500000 0.830000 -3.000000
v 0.626288 0.804880 -3.000000
v 0.733340 0.733345 -3.000000
v 0.804883 0.626286 -3.000000
v 0.830000 0.500000 -3.000000
v 0.804883 0.373714 -3.000000
v 0.733340 0.266655 -3.000000
v 0.626288 0.195120 -3.000000
v 0.500000 0.170000 -3.000000
v 0.373712 0.195120 -3.000000
v 0.266660 0.266655 -3.000000
v 0.195117 0.373714 -3.000000
v 0.170000 0.500000 -3.000000
v 0.195117 0.626286 -3.000000
v 0.266660 0.733345 -3.000000
v 0.373712 0.804880 -3.000000
v 0.500000 0.830000 0.000000
v 0.626288 0.804880 0.000000
v 0.733340 0.733345 0.000000
v 0.804883 0.626285 0.000000
v 0.830000 0.500000 0.000000
v 0.804883 0.373714 0.000000
v 0.733340 0.266655 0.000000
v 0.626288 0.195120 0.000000
v 0.500000 0.170000 0.000000
v 0.373712 0.195120 0.000000
v 0.266660 0.266655 0.000000
v 0.195117 0.373714 0.000000
v 0.170000 0.500000 0.000000
v 0.195117 0.626286 0.000000
v 0.266660 0.733345 0.000000
v 0.373712 0.804880 0.000000
vn -0.3827 0.9239 0.0000
vn -0.7071 0.7071 0.0000
vn 0.0000 -1.0000 -0.0000
vn 0.3827 -0.9239 -0.0000
vn 0.3827 0.9239 0.0000
vn 0.0000 1.0000 0.0000
vn -0.3827 -0.9239 -0.0000
vn 0.7071 0.7071 0.0000
vn -0.7071 -0.7071 -0.0000
vn 0.9239 0.3827 0.0000
vn -0.9239 -0.3827 -0.0000
vn 1.0000 0.0000 0.0000
vn -1.0000 -0.0000 -0.0000
vn 0.9239 -0.3827 -0.0000
vn -0.9239 0.3827 0.0000
vn 0.7071 -0.7071 -0.0000
usemtl None
s 1
f 560//299 559//300 575//300 576//299
f 553//301 552//302 568//302 569//301
f 546//303 545//304 561//304 562//303
f 545//304 560//299 576//299 561//304
f 554//305 553//301 569//301 570//305
f 547//306 546//303 562//303 563//306
f 555//307 554//305 570//305 571//307
f 548//308 547//306 563//306 564//308
f 556//309 555//307 571//307 572//309
f 549//310 548//308 564//308 565//310
f 557//311 556//309 572//309 573//311
f 550//312 549//310 565//310 566//312
f 558//313 557//311 573//311 574//313
f 551//314 550//312 566//312 567//314
f 559//300 558//313 574//313 575//300
f 552//302 551//314 567//314 568//302
