# Blender v2.78 (sub 0) OBJ File: 'RollerCoasterRailLine.blend'
# www.blender.org
mtllib RollerCoasterRail8xLine_col.mtl
o Circle.001
v 8.500000 0.830000 -0.000000
v 8.373714 0.804880 -0.000000
v 8.266655 0.733345 -0.000000
v 8.195120 0.626286 -0.000000
v 8.170000 0.500000 -0.000000
v 8.195120 0.373714 -0.000000
v 8.266655 0.266655 -0.000000
v 8.373714 0.195120 -0.000000
v 8.500000 0.170000 -0.000000
v 8.626286 0.195120 -0.000000
v 8.733345 0.266655 -0.000000
v 8.804880 0.373714 -0.000000
v 8.830000 0.500000 -0.000000
v 8.804880 0.626286 -0.000000
v 8.733345 0.733345 -0.000000
v 8.626286 0.804880 -0.000000
v 8.500000 0.830002 -8.000000
v 8.373714 0.804882 -8.000000
v 8.266655 0.733347 -8.000000
v 8.195120 0.626287 -8.000000
v 8.170000 0.500002 -8.000000
v 8.195120 0.373716 -8.000000
v 8.266655 0.266656 -8.000000
v 8.373714 0.195121 -8.000000
v 8.500000 0.170002 -8.000000
v 8.626286 0.195121 -8.000000
v 8.733345 0.266656 -8.000000
v 8.804880 0.373716 -8.000000
v 8.830000 0.500002 -8.000000
v 8.804880 0.626287 -8.000000
v 8.733345 0.733347 -8.000000
v 8.626286 0.804882 -8.000000
vt 0.0211 0.0000
vt 0.0211 1.0000
vt 0.0000 1.0000
vt 0.0000 0.0000
vt 0.6796 0.0000
vt 0.6796 1.0000
vt 0.6520 1.0000
vt 0.6520 0.0000
vt 0.1274 1.0000
vt 0.1274 0.0000
vt 0.1485 0.0000
vt 0.1485 1.0000
vt 0.6221 1.0000
vt 0.6221 0.0000
vt 0.1761 0.0000
vt 0.1761 1.0000
vt 0.5945 1.0000
vt 0.5945 0.0000
vt 0.2060 0.0000
vt 0.2060 1.0000
vt 0.2336 0.0000
vt 0.2336 1.0000
vt 0.2547 0.0000
vt 0.2547 1.0000
vt 0.8498 0.0000
vt 0.8498 1.0000
vt 0.8222 1.0000
vt 0.8222 0.0000
vt 0.7923 1.0000
vt 0.7923 0.0000
vt 0.7647 1.0000
vt 0.7647 0.0000
vt 0.1273 0.0000
vt 0.1274 1.0000
vt 0.1062 1.0000
vt 0.1062 0.0000
vt 0.0786 1.0000
vt 0.0786 0.0000
vt 0.0487 1.0000
vt 0.0487 0.0000
vn 1.0000 -0.0000 0.0000
vn 0.9239 0.3827 0.0000
vn 0.7071 0.7071 0.0000
vn -0.0000 1.0000 0.0000
vn -0.3827 0.9239 0.0000
vn 0.3827 0.9239 0.0000
vn -0.7071 0.7071 0.0000
vn -0.9239 0.3827 0.0000
vn -1.0000 0.0000 -0.0000
vn -0.9239 -0.3827 -0.0000
vn -0.7071 -0.7071 -0.0000
vn -0.3827 -0.9239 -0.0000
vn -0.0000 -1.0000 -0.0000
vn 0.3827 -0.9239 -0.0000
vn 0.7071 -0.7071 -0.0000
vn 0.9239 -0.3827 -0.0000
usemtl None
s 1
f 13/1/1 29/2/1 30/3/2 14/4/2
f 14/5/2 30/6/2 31/7/3 15/8/3
f 1/9/4 17/10/4 18/11/5 2/12/5
f 15/8/3 31/7/3 32/13/6 16/14/6
f 2/12/5 18/11/5 19/15/7 3/16/7
f 16/14/6 32/13/6 17/17/4 1/18/4
f 3/16/7 19/15/7 20/19/8 4/20/8
f 4/20/8 20/19/8 21/21/9 5/22/9
f 5/22/9 21/21/9 22/23/10 6/24/10
f 6/25/10 22/26/10 23/27/11 7/28/11
f 7/28/11 23/27/11 24/29/12 8/30/12
f 8/30/12 24/29/12 25/31/13 9/32/13
f 9/33/13 25/34/13 26/35/14 10/36/14
f 10/36/14 26/35/14 27/37/15 11/38/15
f 11/38/15 27/37/15 28/39/16 12/40/16
f 12/40/16 28/39/16 29/2/1 13/1/1
o Circle
v 0.500000 0.830000 -0.000000
v 0.373715 0.804880 -0.000000
v 0.266655 0.733345 -0.000000
v 0.195120 0.626286 -0.000000
v 0.170000 0.500000 -0.000000
v 0.195120 0.373714 -0.000000
v 0.266655 0.266655 -0.000000
v 0.373715 0.195120 -0.000000
v 0.500000 0.170000 -0.000000
v 0.626285 0.195120 -0.000000
v 0.733345 0.266655 -0.000000
v 0.804880 0.373714 -0.000000
v 0.830000 0.500000 -0.000000
v 0.804880 0.626286 -0.000000
v 0.733345 0.733345 -0.000000
v 0.626285 0.804880 -0.000000
v 0.500000 0.830002 -8.000000
v 0.373715 0.804882 -8.000000
v 0.266655 0.733347 -8.000000
v 0.195120 0.626287 -8.000000
v 0.170000 0.500002 -8.000000
v 0.195120 0.373716 -8.000000
v 0.266655 0.266656 -8.000000
v 0.373715 0.195121 -8.000000
v 0.500000 0.170002 -8.000000
v 0.626285 0.195121 -8.000000
v 0.733345 0.266656 -8.000000
v 0.804880 0.373716 -8.000000
v 0.830000 0.500002 -8.000000
v 0.804880 0.626287 -8.000000
v 0.733345 0.733347 -8.000000
v 0.626285 0.804882 -8.000000
vt 0.3609 0.0000
vt 0.3609 1.0000
vt 0.3333 1.0000
vt 0.3333 0.0000
vt 0.7072 0.0000
vt 0.7072 1.0000
vt 0.6796 1.0000
vt 0.6796 0.0000
vt 0.3034 1.0000
vt 0.3034 0.0000
vt 0.2758 1.0000
vt 0.2758 0.0000
vt 0.2547 1.0000
vt 0.2547 0.0000
vt 0.5945 0.0000
vt 0.5945 1.0000
vt 0.5669 1.0000
vt 0.5669 0.0000
vt 0.5370 1.0000
vt 0.5370 0.0000
vt 0.5094 1.0000
vt 0.5094 0.0000
vt 0.4883 1.0000
vt 0.4883 0.0000
vt 0.4607 1.0000
vt 0.4607 0.0000
vt 0.4308 1.0000
vt 0.4308 0.0000
vt 0.4032 1.0000
vt 0.4032 0.0000
vt 0.3821 1.0000
vt 0.3821 0.0000
vt 0.7647 0.0000
vt 0.7647 1.0000
vt 0.7371 1.0000
vt 0.7371 0.0000
vt 0.3821 0.0000
vt 0.3821 1.0000
vn -0.3827 0.9239 0.0000
vn -0.7071 0.7071 0.0000
vn 0.3827 0.9239 0.0000
vn -0.0000 1.0000 0.0000
vn -0.9239 0.3827 0.0000
vn -1.0000 0.0000 -0.0000
vn -0.9239 -0.3827 -0.0000
vn -0.7071 -0.7071 -0.0000
vn -0.3827 -0.9239 -0.0000
vn -0.0000 -1.0000 -0.0000
vn 0.3827 -0.9239 -0.0000
vn 0.7071 -0.7071 -0.0000
vn 0.9239 -0.3827 -0.0000
vn 1.0000 -0.0000 0.0000
vn 0.9239 0.3827 0.0000
vn 0.7071 0.7071 0.0000
usemtl None
s 1
f 34/41/17 50/42/17 51/43/18 35/44/18
f 48/45/19 64/46/19 49/47/20 33/48/20
f 35/44/18 51/43/18 52/49/21 36/50/21
f 36/50/21 52/49/21 53/51/22 37/52/22
f 37/52/22 53/51/22 54/53/23 38/54/23
f 38/55/23 54/56/23 55/57/24 39/58/24
f 39/58/24 55/57/24 56/59/25 40/60/25
f 40/60/25 56/59/25 57/61/26 41/62/26
f 41/62/26 57/61/26 58/63/27 42/64/27
f 42/64/27 58/63/27 59/65/28 43/66/28
f 43/66/28 59/65/28 60/67/29 44/68/29
f 44/68/29 60/67/29 61/69/30 45/70/30
f 45/70/30 61/69/30 62/71/31 46/72/31
f 46/73/31 62/74/31 63/75/32 47/76/32
f 33/77/20 49/78/20 50/42/17 34/41/17
f 47/76/32 63/75/32 64/46/19 48/45/19
