# Blender v2.78 (sub 0) OBJ File: 'RollerCoasterRailLine_col.blend'
# www.blender.org
mtllib RollerCoasterRailLine_col.mtl
o Circle.001_Circle.002
v 8.565029 0.826928 -0.000000
v 8.627561 0.807960 -0.000000
v 8.685190 0.777157 -0.000000
v 8.735703 0.735702 -0.000000
v 8.777157 0.685190 -0.000000
v 8.807960 0.627561 -0.000000
v 8.826928 0.565030 -0.000000
v 8.833333 0.500000 -0.000000
v 8.826928 0.434970 -0.000000
v 8.807961 0.372439 -0.000000
v 8.777157 0.314810 -0.000000
v 8.735703 0.264298 -0.000000
v 8.685190 0.222843 -0.000000
v 8.627562 0.192040 -0.000000
v 8.565030 0.173071 -0.000000
v 8.500000 0.166667 -0.000000
v 8.434970 0.173071 -0.000000
v 8.372438 0.192040 -0.000000
v 8.314810 0.222843 -0.000000
v 8.264297 0.264298 -0.000000
v 8.222843 0.314810 -0.000000
v 8.192039 0.372439 -0.000000
v 8.173071 0.434970 -0.000000
v 8.166666 0.500000 -0.000000
v 8.173071 0.565030 -0.000000
v 8.192039 0.627561 -0.000000
v 8.222843 0.685190 -0.000000
v 8.264297 0.735702 -0.000000
v 8.314810 0.777156 -0.000000
v 8.372438 0.807960 -0.000000
v 8.434970 0.826928 -0.000000
v 8.500000 0.833333 -0.000000
v 8.565029 0.826932 -64.000000
v 8.627561 0.807964 -64.000000
v 8.685190 0.777161 -64.000000
v 8.735703 0.735706 -64.000000
v 8.777157 0.685194 -64.000000
v 8.807960 0.627565 -64.000000
v 8.826928 0.565034 -64.000000
v 8.833333 0.500004 -64.000000
v 8.826928 0.434974 -64.000000
v 8.807961 0.372443 -64.000000
v 8.777157 0.314814 -64.000000
v 8.735703 0.264302 -64.000000
v 8.685190 0.222847 -64.000000
v 8.627562 0.192044 -64.000000
v 8.500000 0.166671 -64.000000
v 8.434970 0.173075 -64.000000
v 8.372438 0.192044 -64.000000
v 8.314810 0.222847 -64.000000
v 8.264297 0.264302 -64.000000
v 8.222843 0.314814 -64.000000
v 8.192039 0.372443 -64.000000
v 8.173071 0.434974 -64.000000
v 8.166666 0.500004 -64.000000
v 8.173071 0.565034 -64.000000
v 8.192039 0.627565 -64.000000
v 8.222843 0.685194 -64.000000
v 8.264297 0.735706 -64.000000
v 8.314810 0.777160 -64.000000
v 8.372438 0.807964 -64.000000
v 8.434970 0.826932 -64.000000
v 8.500000 0.833337 -64.000000
v 8.565030 0.173075 -64.000000
vt 0.0000 0.0000
vt 0.0000 0.0000
vt 0.0000 0.0000
vt 0.0000 0.0000
vt 0.0000 0.0000
vt 0.0000 0.0000
vt 0.0000 0.0000
vt 0.0000 0.0000
vt 0.0000 0.0000
vt 0.0000 0.0000
vt 0.0000 0.0000
vt 0.0000 0.0000
vt 0.0000 0.0000
vt 0.0000 0.0000
vt 0.0000 0.0000
vt 0.0000 0.0000
vt 0.0000 0.0000
vt 0.0000 0.0000
vt 0.0000 0.0000
vt 0.0000 0.0000
vt 0.0000 0.0000
vt 0.0000 0.0000
vt 0.0000 0.0000
vt 0.0000 0.0000
vt 0.0000 0.0000
vt 0.0000 0.0000
vt 0.0000 0.0000
vt 0.0000 0.0000
vt 0.0000 0.0000
vt 0.0000 0.0000
vt 0.0000 0.0000
vt 0.0000 0.0000
vt 0.0000 0.0000
vt 0.0000 0.0000
vt 0.0000 0.0000
vt 0.0000 0.0000
vt 0.0000 0.0000
vt 0.0000 0.0000
vt 0.0000 0.0000
vt 0.0000 0.0000
vt 0.0000 0.0000
vt 0.0000 0.0000
vt 0.0000 0.0000
vt 0.0000 0.0000
vt 0.0000 0.0000
vt 0.0000 0.0000
vt 0.0000 0.0000
vt 0.0000 0.0000
vt 0.0000 0.0000
vt 0.0000 0.0000
vt 0.0000 0.0000
vt 0.0000 0.0000
vt 0.0000 0.0000
vt 0.0000 0.0000
vt 0.0000 0.0000
vt 0.0000 0.0000
vt 0.0000 0.0000
vt 0.0000 0.0000
vt 0.0000 0.0000
vt 0.0000 0.0000
vt 0.0000 0.0000
vt 0.0000 0.0000
vt 0.0000 0.0000
vt 0.0000 0.0000
vn -0.4714 -0.8819 -0.0000
vn 0.0000 -0.0000 1.0000
vn 0.9569 0.2903 0.0000
vn -0.0980 0.9952 0.0000
vn -0.0980 -0.9952 -0.0000
vn -0.2903 0.9569 0.0000
vn 0.7730 0.6344 0.0000
vn -0.4714 0.8819 0.0000
vn 0.4714 0.8819 0.0000
vn 0.4714 -0.8819 -0.0000
vn -0.6344 0.7730 0.0000
vn 0.0980 0.9952 0.0000
vn 0.7730 -0.6344 -0.0000
vn -0.7730 0.6344 0.0000
vn 0.9569 -0.2903 -0.0000
vn -0.8819 0.4714 0.0000
vn 0.9952 -0.0980 -0.0000
vn 0.0000 0.0000 -1.0000
vn -0.2903 -0.9569 -0.0000
vn -0.6344 -0.7730 -0.0000
vn 0.8819 -0.4714 -0.0000
vn -0.7730 -0.6344 -0.0000
vn 0.6344 -0.7730 -0.0000
vn -0.8819 -0.4714 -0.0000
vn 0.2903 -0.9569 -0.0000
vn -0.9569 -0.2903 -0.0000
vn 0.2903 0.9569 0.0000
vn 0.0980 -0.9952 -0.0000
vn -0.9952 -0.0980 -0.0000
vn 0.6344 0.7730 0.0000
vn -0.9952 0.0980 0.0000
vn 0.8819 0.4714 0.0000
vn -0.9569 0.2903 0.0000
vn 0.9952 0.0980 0.0000
usemtl None
s off
f 19/1/1 50/2/1 49/3/1 18/4/1
f 1/5/2 32/6/2 31/7/2 30/8/2 29/9/2 28/10/2 27/11/2 26/12/2 25/13/2 24/14/2 23/15/2 22/16/2 21/17/2 20/18/2 19/1/2 18/4/2 17/19/2 16/20/2 15/21/2 14/22/2 13/23/2 12/24/2 11/25/2 10/26/2 9/27/2 8/28/2 7/29/2 6/30/2 5/31/2 4/32/2 3/33/2 2/34/2
f 7/29/3 39/35/3 38/36/3 6/30/3
f 32/6/4 63/37/4 62/38/4 31/7/4
f 17/19/5 48/39/5 47/40/5 16/20/5
f 31/7/6 62/38/6 61/41/6 30/8/6
f 5/31/7 37/42/7 36/43/7 4/32/7
f 30/8/8 61/41/8 60/44/8 29/9/8
f 3/33/9 35/45/9 34/46/9 2/34/9
f 14/22/10 46/47/10 45/48/10 13/23/10
f 29/9/11 60/44/11 59/49/11 28/10/11
f 1/5/12 33/50/12 63/37/12 32/6/12
f 12/24/13 44/51/13 43/52/13 11/25/13
f 28/10/14 59/49/14 58/53/14 27/11/14
f 10/26/15 42/54/15 41/55/15 9/27/15
f 27/11/16 58/53/16 57/56/16 26/12/16
f 9/27/17 41/55/17 40/57/17 8/28/17
f 33/50/18 34/46/18 35/45/18 36/43/18 37/42/18 38/36/18 39/35/18 40/57/18 41/55/18 42/54/18 43/52/18 44/51/18 45/48/18 46/47/18 64/58/18 47/40/18 48/39/18 49/3/18 50/2/18 51/59/18 52/60/18 53/61/18 54/62/18 55/63/18 56/64/18 57/56/18 58/53/18 59/49/18 60/44/18 61/41/18 62/38/18 63/37/18
f 18/4/19 49/3/19 48/39/19 17/19/19
f 20/18/20 51/59/20 50/2/20 19/1/20
f 11/25/21 43/52/21 42/54/21 10/26/21
f 21/17/22 52/60/22 51/59/22 20/18/22
f 13/23/23 45/48/23 44/51/23 12/24/23
f 22/16/24 53/61/24 52/60/24 21/17/24
f 15/21/25 64/58/25 46/47/25 14/22/25
f 23/15/26 54/62/26 53/61/26 22/16/26
f 2/34/27 34/46/27 33/50/27 1/5/27
f 16/20/28 47/40/28 64/58/28 15/21/28
f 24/14/29 55/63/29 54/62/29 23/15/29
f 4/32/30 36/43/30 35/45/30 3/33/30
f 25/13/31 56/64/31 55/63/31 24/14/31
f 6/30/32 38/36/32 37/42/32 5/31/32
f 26/12/33 57/56/33 56/64/33 25/13/33
f 8/28/34 40/57/34 39/35/34 7/29/34
o Circle
v 0.565030 0.826928 -0.000000
v 0.627561 0.807960 -0.000000
v 0.685190 0.777157 -0.000000
v 0.735702 0.735702 -0.000000
v 0.777156 0.685190 -0.000000
v 0.807960 0.627561 -0.000000
v 0.826928 0.565030 -0.000000
v 0.833333 0.500000 -0.000000
v 0.826928 0.434970 -0.000000
v 0.807960 0.372439 -0.000000
v 0.777157 0.314810 -0.000000
v 0.735702 0.264298 -0.000000
v 0.685190 0.222843 -0.000000
v 0.627561 0.192040 -0.000000
v 0.565030 0.173071 -0.000000
v 0.500000 0.166667 -0.000000
v 0.434970 0.173071 -0.000000
v 0.372439 0.192040 -0.000000
v 0.314810 0.222843 -0.000000
v 0.264298 0.264298 -0.000000
v 0.222843 0.314810 -0.000000
v 0.192040 0.372439 -0.000000
v 0.173072 0.434970 -0.000000
v 0.166667 0.500000 -0.000000
v 0.173072 0.565030 -0.000000
v 0.192040 0.627561 -0.000000
v 0.222843 0.685190 -0.000000
v 0.264298 0.735702 -0.000000
v 0.314810 0.777156 -0.000000
v 0.372439 0.807960 -0.000000
v 0.434970 0.826928 -0.000000
v 0.500000 0.833333 -0.000000
v 0.565030 0.826932 -64.000000
v 0.627561 0.807964 -64.000000
v 0.685190 0.777161 -64.000000
v 0.735702 0.735706 -64.000000
v 0.777156 0.685194 -64.000000
v 0.807960 0.627565 -64.000000
v 0.826928 0.565034 -64.000000
v 0.833333 0.500004 -64.000000
v 0.826928 0.434974 -64.000000
v 0.807960 0.372443 -64.000000
v 0.777157 0.314814 -64.000000
v 0.735702 0.264302 -64.000000
v 0.685190 0.222847 -64.000000
v 0.627561 0.192044 -64.000000
v 0.500000 0.166671 -64.000000
v 0.434970 0.173075 -64.000000
v 0.372439 0.192044 -64.000000
v 0.314810 0.222847 -64.000000
v 0.264298 0.264302 -64.000000
v 0.222843 0.314814 -64.000000
v 0.192040 0.372443 -64.000000
v 0.173072 0.434974 -64.000000
v 0.166667 0.500004 -64.000000
v 0.173072 0.565034 -64.000000
v 0.192040 0.627565 -64.000000
v 0.222843 0.685194 -64.000000
v 0.264298 0.735706 -64.000000
v 0.314810 0.777160 -64.000000
v 0.372439 0.807964 -64.000000
v 0.434970 0.826932 -64.000000
v 0.500000 0.833337 -64.000000
v 0.565030 0.173075 -64.000000
vt 0.0000 0.0000
vt 0.0000 0.0000
vt 0.0000 0.0000
vt 0.0000 0.0000
vt 0.0000 0.0000
vt 0.0000 0.0000
vt 0.0000 0.0000
vt 0.0000 0.0000
vt 0.0000 0.0000
vt 0.0000 0.0000
vt 0.0000 0.0000
vt 0.0000 0.0000
vt 0.0000 0.0000
vt 0.0000 0.0000
vt 0.0000 0.0000
vt 0.0000 0.0000
vt 0.0000 0.0000
vt 0.0000 0.0000
vt 0.0000 0.0000
vt 0.0000 0.0000
vt 0.0000 0.0000
vt 0.0000 0.0000
vt 0.0000 0.0000
vt 0.0000 0.0000
vt 0.0000 0.0000
vt 0.0000 0.0000
vt 0.0000 0.0000
vt 0.0000 0.0000
vt 0.0000 0.0000
vt 0.0000 0.0000
vt 0.0000 0.0000
vt 0.0000 0.0000
vt 0.0000 0.0000
vt 0.0000 0.0000
vt 0.0000 0.0000
vt 0.0000 0.0000
vt 0.0000 0.0000
vt 0.0000 0.0000
vt 0.0000 0.0000
vt 0.0000 0.0000
vt 0.0000 0.0000
vt 0.0000 0.0000
vt 0.0000 0.0000
vt 0.0000 0.0000
vt 0.0000 0.0000
vt 0.0000 0.0000
vt 0.0000 0.0000
vt 0.0000 0.0000
vt 0.0000 0.0000
vt 0.0000 0.0000
vt 0.0000 0.0000
vt 0.0000 0.0000
vt 0.0000 0.0000
vt 0.0000 0.0000
vt 0.0000 0.0000
vt 0.0000 0.0000
vt 0.0000 0.0000
vt 0.0000 0.0000
vt 0.0000 0.0000
vt 0.0000 0.0000
vt 0.0000 0.0000
vt 0.0000 0.0000
vt 0.0000 0.0000
vt 0.0000 0.0000
vn -0.4714 -0.8819 -0.0000
vn 0.0000 -0.0000 1.0000
vn 0.9569 0.2903 0.0000
vn -0.0980 0.9952 0.0000
vn -0.0980 -0.9952 -0.0000
vn -0.2903 0.9569 0.0000
vn 0.7730 0.6344 0.0000
vn -0.4714 0.8819 0.0000
vn 0.4714 0.8819 0.0000
vn 0.4714 -0.8819 -0.0000
vn -0.6344 0.7730 0.0000
vn 0.0980 0.9952 0.0000
vn 0.7730 -0.6344 -0.0000
vn -0.7730 0.6344 0.0000
vn 0.9569 -0.2903 -0.0000
vn -0.8819 0.4714 0.0000
vn 0.9952 -0.0980 -0.0000
vn 0.0000 0.0000 -1.0000
vn -0.2903 -0.9569 -0.0000
vn -0.6344 -0.7730 -0.0000
vn 0.8819 -0.4714 -0.0000
vn -0.7730 -0.6344 -0.0000
vn 0.6344 -0.7730 -0.0000
vn -0.8819 -0.4714 -0.0000
vn 0.2903 -0.9569 -0.0000
vn -0.9569 -0.2903 -0.0000
vn 0.2903 0.9569 0.0000
vn 0.0980 -0.9952 -0.0000
vn -0.9952 -0.0980 -0.0000
vn 0.6344 0.7730 0.0000
vn -0.9952 0.0980 0.0000
vn 0.8819 0.4714 0.0000
vn -0.9569 0.2903 0.0000
vn 0.9952 0.0980 0.0000
usemtl None
s off
f 83/65/35 114/66/35 113/67/35 82/68/35
f 65/69/36 96/70/36 95/71/36 94/72/36 93/73/36 92/74/36 91/75/36 90/76/36 89/77/36 88/78/36 87/79/36 86/80/36 85/81/36 84/82/36 83/65/36 82/68/36 81/83/36 80/84/36 79/85/36 78/86/36 77/87/36 76/88/36 75/89/36 74/90/36 73/91/36 72/92/36 71/93/36 70/94/36 69/95/36 68/96/36 67/97/36 66/98/36
f 71/93/37 103/99/37 102/100/37 70/94/37
f 96/70/38 127/101/38 126/102/38 95/71/38
f 81/83/39 112/103/39 111/104/39 80/84/39
f 95/71/40 126/102/40 125/105/40 94/72/40
f 69/95/41 101/106/41 100/107/41 68/96/41
f 94/72/42 125/105/42 124/108/42 93/73/42
f 67/97/43 99/109/43 98/110/43 66/98/43
f 78/86/44 110/111/44 109/112/44 77/87/44
f 93/73/45 124/108/45 123/113/45 92/74/45
f 65/69/46 97/114/46 127/101/46 96/70/46
f 76/88/47 108/115/47 107/116/47 75/89/47
f 92/74/48 123/113/48 122/117/48 91/75/48
f 74/90/49 106/118/49 105/119/49 73/91/49
f 91/75/50 122/117/50 121/120/50 90/76/50
f 73/91/51 105/119/51 104/121/51 72/92/51
f 97/114/52 98/110/52 99/109/52 100/107/52 101/106/52 102/100/52 103/99/52 104/121/52 105/119/52 106/118/52 107/116/52 108/115/52 109/112/52 110/111/52 128/122/52 111/104/52 112/103/52 113/67/52 114/66/52 115/123/52 116/124/52 117/125/52 118/126/52 119/127/52 120/128/52 121/120/52 122/117/52 123/113/52 124/108/52 125/105/52 126/102/52 127/101/52
f 82/68/53 113/67/53 112/103/53 81/83/53
f 84/82/54 115/123/54 114/66/54 83/65/54
f 75/89/55 107/116/55 106/118/55 74/90/55
f 85/81/56 116/124/56 115/123/56 84/82/56
f 77/87/57 109/112/57 108/115/57 76/88/57
f 86/80/58 117/125/58 116/124/58 85/81/58
f 79/85/59 128/122/59 110/111/59 78/86/59
f 87/79/60 118/126/60 117/125/60 86/80/60
f 66/98/61 98/110/61 97/114/61 65/69/61
f 80/84/62 111/104/62 128/122/62 79/85/62
f 88/78/63 119/127/63 118/126/63 87/79/63
f 68/96/64 100/107/64 99/109/64 67/97/64
f 89/77/65 120/128/65 119/127/65 88/78/65
f 70/94/66 102/100/66 101/106/66 69/95/66
f 90/76/67 121/120/67 120/128/67 89/77/67
f 72/92/68 104/121/68 103/99/68 71/93/68
