# Blender v2.78 (sub 0) OBJ File: 'RollerCoasterRailLoop.blend'
# www.blender.org
mtllib RollerCoasterRailShort_col.mtl
o Circle.001
v 8.500000 0.830000 -0.000000
v 8.373714 0.804880 -0.000000
v 8.266655 0.733346 -0.000000
v 8.195119 0.626285 -0.000000
v 8.170000 0.500000 -0.000000
v 8.195119 0.373715 -0.000000
v 8.266655 0.266654 -0.000000
v 8.373714 0.195120 -0.000000
v 8.500000 0.170000 -0.000000
v 8.626286 0.195119 -0.000000
v 8.733345 0.266654 -0.000000
v 8.804881 0.373715 -0.000000
v 8.830000 0.500000 -0.000000
v 8.804881 0.626285 -0.000000
v 8.733345 0.733346 -0.000000
v 8.626286 0.804881 -0.000000
v 8.626286 0.804881 -1.000000
v 8.733345 0.733346 -1.000000
v 8.804881 0.626285 -1.000000
v 8.830000 0.500000 -1.000000
v 8.804881 0.373715 -1.000000
v 8.733345 0.266654 -1.000000
v 8.626286 0.195119 -1.000000
v 8.500000 0.170000 -1.000000
v 8.373714 0.195120 -1.000000
v 8.266655 0.266654 -1.000000
v 8.195119 0.373715 -1.000000
v 8.170000 0.500000 -1.000000
v 8.195119 0.626285 -1.000000
v 8.266655 0.733346 -1.000000
v 8.373714 0.804880 -1.000000
v 8.500000 0.830000 -1.000000
vt 0.6979 1.0000
vt 0.6979 0.6667
vt 0.7517 0.6667
vt 0.7517 1.0000
vt 0.6396 1.0000
vt 0.6396 0.6667
vt 0.5858 1.0000
vt 0.5858 0.6667
vt 0.7391 0.3333
vt 0.7391 0.6667
vt 0.6808 0.6667
vt 0.6808 0.3333
vt 0.6270 0.3333
vt 0.6270 0.6667
vt 0.5858 0.3333
vt 0.7929 0.3333
vt 0.7929 0.6667
vt 0.8467 0.3333
vt 0.8467 0.6667
vt 0.9050 0.3333
vt 0.9050 0.6667
vt 0.9588 0.3333
vt 0.9588 0.6667
vt 1.0000 0.3333
vt 1.0000 0.6667
vt 0.6396 0.0000
vt 0.6396 0.3333
vt 0.5858 0.3333
vt 0.5858 0.0000
vt 0.6979 0.0000
vt 0.6979 0.3333
vt 0.7517 0.0000
vt 0.7517 0.3333
vt 0.7929 0.0000
vt 0.7929 0.3333
vt 0.7929 0.6667
vt 0.7929 1.0000
vn -1.0000 0.0000 0.0000
vn -0.9239 -0.3827 0.0000
vn -0.9239 0.3827 0.0000
vn -0.7071 0.7071 0.0000
vn 0.3827 0.9239 0.0000
vn -0.0000 1.0000 0.0000
vn -0.3827 0.9239 0.0000
vn 0.7071 0.7071 0.0000
vn 0.9239 0.3827 0.0000
vn 1.0000 0.0000 0.0000
vn 0.9239 -0.3827 0.0000
vn 0.7071 -0.7071 0.0000
vn 0.3827 -0.9239 0.0000
vn -0.0000 -1.0000 0.0000
vn -0.3827 -0.9239 0.0000
vn -0.7071 -0.7071 0.0000
usemtl None
s 1
f 5/1/1 28/2/1 27/3/2 6/4/2
f 4/5/3 29/6/3 28/2/1 5/1/1
f 3/7/4 30/8/4 29/6/3 4/5/3
f 16/9/5 17/10/5 32/11/6 1/12/6
f 2/13/7 31/14/7 30/8/4 3/15/4
f 15/16/8 18/17/8 17/10/5 16/9/5
f 1/12/6 32/11/6 31/14/7 2/13/7
f 14/18/9 19/19/9 18/17/8 15/16/8
f 13/20/10 20/21/10 19/19/9 14/18/9
f 12/22/11 21/23/11 20/21/10 13/20/10
f 11/24/12 22/25/12 21/23/11 12/22/11
f 10/26/13 23/27/13 22/28/12 11/29/12
f 9/30/14 24/31/14 23/27/13 10/26/13
f 8/32/15 25/33/15 24/31/14 9/30/14
f 7/34/16 26/35/16 25/33/15 8/32/15
f 6/4/2 27/3/2 26/36/16 7/37/16
o Circle
v 0.500000 0.830000 -0.000000
v 0.373715 0.804880 -0.000000
v 0.266654 0.733346 -0.000000
v 0.195119 0.626285 -0.000000
v 0.170000 0.500000 -0.000000
v 0.195119 0.373715 -0.000000
v 0.266654 0.266654 -0.000000
v 0.373715 0.195120 -0.000000
v 0.500000 0.170000 -0.000000
v 0.626285 0.195119 -0.000000
v 0.733346 0.266654 -0.000000
v 0.804881 0.373715 -0.000000
v 0.830000 0.500000 -0.000000
v 0.804881 0.626285 -0.000000
v 0.733346 0.733346 -0.000000
v 0.626285 0.804881 -0.000000
v 0.626285 0.804881 -1.000000
v 0.733346 0.733346 -1.000000
v 0.804881 0.626285 -1.000000
v 0.830000 0.500000 -1.000000
v 0.804881 0.373715 -1.000000
v 0.733346 0.266654 -1.000000
v 0.626285 0.195119 -1.000000
v 0.500000 0.170000 -1.000000
v 0.373715 0.195120 -1.000000
v 0.266654 0.266654 -1.000000
v 0.195119 0.373715 -1.000000
v 0.170000 0.500000 -1.000000
v 0.195119 0.626285 -1.000000
v 0.266654 0.733346 -1.000000
v 0.373715 0.804880 -1.000000
v 0.500000 0.830000 -1.000000
vt 0.3730 0.6539
vt 0.3730 0.9872
vt 0.3192 0.9872
vt 0.3192 0.6539
vt 0.4142 0.6539
vt 0.4142 0.9872
vt 0.9588 0.3333
vt 0.9588 0.0000
vt 1.0000 0.0000
vt 1.0000 0.3333
vt 0.9050 0.3333
vt 0.9050 0.0000
vt 0.8467 0.3333
vt 0.8467 0.0000
vt 0.7929 0.3333
vt 0.7929 0.0000
vt 0.0538 0.9872
vt 0.0538 0.6539
vt 0.1121 0.6539
vt 0.1121 0.9872
vt 0.1659 0.9872
vt 0.1659 0.6539
vt 0.2071 0.6539
vt 0.2071 0.9872
vt 0.0000 0.9872
vt 0.0000 0.6539
vt 0.9462 1.0000
vt 0.9462 0.6667
vt 1.0000 0.6667
vt 1.0000 1.0000
vt 0.8879 1.0000
vt 0.8879 0.6667
vt 0.8341 1.0000
vt 0.8341 0.6667
vt 0.7929 1.0000
vt 0.7929 0.6667
vt 0.2609 0.6539
vt 0.2609 0.9872
vt 0.2071 0.9872
vt 0.2071 0.6539
vn -0.3827 -0.9239 0.0000
vn -0.0000 -1.0000 0.0000
vn -0.7071 -0.7071 0.0000
vn -0.9239 -0.3827 0.0000
vn -1.0000 0.0000 0.0000
vn -0.9239 0.3827 0.0000
vn -0.7071 0.7071 0.0000
vn 0.3827 0.9239 0.0000
vn -0.0000 1.0000 0.0000
vn -0.3827 0.9239 0.0000
vn 0.7071 0.7071 0.0000
vn 0.9239 0.3827 0.0000
vn 1.0000 0.0000 0.0000
vn 0.9239 -0.3827 0.0000
vn 0.7071 -0.7071 0.0000
vn 0.3827 -0.9239 0.0000
usemtl None
s 1
f 40/38/17 57/39/17 56/40/18 41/41/18
f 39/42/19 58/43/19 57/39/17 40/38/17
f 38/44/20 59/45/20 58/46/19 39/47/19
f 37/48/21 60/49/21 59/45/20 38/44/20
f 36/50/22 61/51/22 60/49/21 37/48/21
f 35/52/23 62/53/23 61/51/22 36/50/22
f 48/54/24 49/55/24 64/56/25 33/57/25
f 34/58/26 63/59/26 62/60/23 35/61/23
f 47/62/27 50/63/27 49/55/24 48/54/24
f 33/57/25 64/56/25 63/59/26 34/58/26
f 46/64/28 51/65/28 50/66/27 47/67/27
f 45/68/29 52/69/29 51/65/28 46/64/28
f 44/70/30 53/71/30 52/69/29 45/68/29
f 43/72/31 54/73/31 53/71/30 44/70/30
f 42/74/32 55/75/32 54/76/31 43/77/31
f 41/41/18 56/40/18 55/75/32 42/74/32
