# Blender v2.79 (sub 0) OBJ File: '8x8Bricks.blend'
# www.blender.org
mtllib 16x16Grass_col.mtl
o Cube_Cube.001
v 15.999999 1.000001 -16.000000
v 15.999999 1.000000 0.000000
v 15.999999 0.000000 -0.000000
v 15.999999 0.000001 -16.000000
v 0.000000 0.000002 -0.000000
v 0.000000 0.000003 -16.000000
v 0.000000 1.000002 0.000000
v 0.000000 1.000003 -16.000000
vt 0.500000 -2.562500
vt -0.500000 -2.562500
vt -0.500000 -2.625000
vt 0.500000 -2.625000
vt 0.500000 -2.562500
vt 0.500000 -3.562500
vt -0.500000 -3.562500
vt -0.500000 -2.562500
vt 0.500000 -2.625000
vt -0.500000 -2.625000
vt -0.500000 -2.562500
vt 0.500000 -2.562500
vt 0.500000 -3.562500
vt 1.500000 -3.562500
vt 1.500000 -2.562500
vt 0.500000 -2.500000
vt -0.500000 -2.500000
vt -0.500000 -2.437500
vt 0.500000 -2.437500
vt 0.500000 -2.625000
vt 1.500000 -2.625000
vt 1.500000 -2.562500
vt 0.500000 -2.562500
vn 1.0000 0.0000 0.0000
vn -0.0000 -1.0000 -0.0000
vn -1.0000 0.0000 0.0000
vn 0.0000 1.0000 0.0000
vn 0.0000 0.0000 -1.0000
vn -0.0000 -0.0000 1.0000
usemtl None
s off
f 1/1/1 2/2/1 3/3/1 4/4/1
f 4/5/2 3/6/2 5/7/2 6/8/2
f 6/9/3 5/10/3 7/11/3 8/12/3
f 8/12/4 7/13/4 2/14/4 1/15/4
f 4/16/5 6/17/5 8/18/5 1/19/5
f 5/20/6 3/21/6 2/22/6 7/23/6
