# Blender v2.78 (sub 0) OBJ File: 'BigPipe_col.blend'
# www.blender.org
mtllib BigPipe_col.mtl
o Circle.098
v -0.000001 21.000011 -45.000000
v -0.000001 22.089417 -45.000000
v 1.950887 20.807865 -45.000000
v 2.163419 21.876339 -45.000000
v 0.000000 20.061417 -50.000000
v -0.000001 22.089418 -50.000000
v 1.767777 19.887304 -50.000000
v 2.163419 21.876343 -50.000000
vt 0.6290 0.1532
vt 0.6290 0.1509
vt 0.6321 0.1508
vt 0.6321 0.1533
vt 0.4101 0.1853
vt 0.4152 0.1858
vt 0.4147 0.1881
vt 0.4083 0.1876
vt 0.4877 0.1553
vt 0.4877 0.1529
vt 0.5172 0.1529
vt 0.5172 0.1553
vn 0.0000 0.0000 1.0000
vn -0.0000 0.0000 -1.0000
vn 0.0980 0.9952 0.0000
usemtl Material.001
s off
f 1/1/1 3/2/1 4/3/1 2/4/1
f 7/5/2 5/6/2 6/7/2 8/8/2
s 1
f 2/9/3 4/10/3 8/11/3 6/12/3
o Circle.097
v 3.826820 20.238811 -45.000000
v 4.243716 21.245293 -45.000000
v 1.950887 20.807865 -45.000000
v 2.163419 21.876339 -45.000000
v 3.467636 19.371662 -50.000000
v 4.243716 21.245293 -50.000000
v 1.767777 19.887304 -50.000000
v 2.163419 21.876343 -50.000000
vt 0.6290 0.1509
vt 0.6277 0.1487
vt 0.6309 0.1483
vt 0.6321 0.1508
vt 0.4052 0.1846
vt 0.4101 0.1853
vt 0.4083 0.1876
vt 0.4025 0.1866
vt 0.4877 0.1529
vt 0.4877 0.1504
vt 0.5172 0.1504
vt 0.5172 0.1529
vn 0.0000 0.0000 1.0000
vn 0.0000 0.0000 -1.0000
vn 0.2903 0.9569 0.0000
usemtl Material.001
s off
f 11/13/4 9/14/4 10/15/4 12/16/4
f 13/17/5 15/18/5 16/19/5 14/20/5
s 1
f 12/21/6 10/22/6 14/23/6 16/24/6
o Circle.096
v 5.555689 19.314714 -45.000000
v 6.160931 20.220524 -45.000000
v 3.826820 20.238811 -45.000000
v 4.243716 21.245293 -45.000000
v 5.034234 18.534300 -50.000000
v 6.160931 20.220526 -50.000000
v 3.467636 19.371662 -50.000000
v 4.243716 21.245293 -50.000000
vt 0.6277 0.1487
vt 0.6256 0.1466
vt 0.6285 0.1460
vt 0.6309 0.1483
vt 0.4008 0.1834
vt 0.4052 0.1846
vt 0.4025 0.1866
vt 0.3971 0.1852
vt 0.4877 0.1504
vt 0.4877 0.1479
vt 0.5172 0.1479
vt 0.5172 0.1504
vn -0.0000 0.0000 1.0000
vn 0.0000 0.0000 -1.0000
vn 0.4714 0.8819 0.0000
usemtl Material.001
s off
f 19/25/7 17/26/7 18/27/7 20/28/7
f 21/29/8 23/30/8 24/31/8 22/32/8
s 1
f 20/33/9 18/34/9 22/35/9 24/36/9
o Circle.095
v 7.071057 18.071089 -45.000000
v 7.841383 18.841415 -45.000000
v 5.555689 19.314714 -45.000000
v 6.160931 20.220524 -45.000000
v 6.407370 17.407400 -50.000000
v 7.841383 18.841417 -50.000000
v 5.034234 18.534300 -50.000000
v 6.160931 20.220526 -50.000000
vt 0.6256 0.1466
vt 0.6224 0.1447
vt 0.6248 0.1439
vt 0.6285 0.1460
vt 0.3971 0.1820
vt 0.4008 0.1834
vt 0.3971 0.1852
vt 0.3925 0.1834
vt 0.4877 0.1479
vt 0.4877 0.1454
vt 0.5172 0.1454
vt 0.5172 0.1479
vn -0.0000 0.0000 1.0000
vn 0.0000 0.0000 -1.0000
vn 0.6344 0.7730 0.0000
usemtl Material.001
s off
f 27/37/10 25/38/10 26/39/10 28/40/10
f 29/41/11 31/42/11 32/43/11 30/44/11
s 1
f 28/45/12 26/46/12 30/47/12 32/48/12
o Circle.094
v 8.314688 16.555725 -45.000000
v 9.220496 17.160967 -45.000000
v 7.071057 18.071089 -45.000000
v 7.841383 18.841415 -45.000000
v 7.534273 16.034267 -50.000000
v 9.220496 17.160969 -50.000000
v 6.407370 17.407400 -50.000000
v 7.841383 18.841417 -50.000000
vt 0.6224 0.1447
vt 0.6183 0.1431
vt 0.6204 0.1421
vt 0.6248 0.1439
vt 0.3942 0.1802
vt 0.3971 0.1820
vt 0.3925 0.1834
vt 0.3891 0.1813
vt 0.4877 0.1454
vt 0.4877 0.1431
vt 0.5172 0.1431
vt 0.5172 0.1454
vn 0.0000 0.0000 1.0000
vn -0.0000 0.0000 -1.0000
vn 0.7730 0.6344 0.0000
usemtl Material.001
s off
f 35/49/13 33/50/13 34/51/13 36/52/13
f 37/53/14 39/54/14 40/55/14 38/56/14
s 1
f 36/57/15 34/58/15 38/59/15 40/60/15
o Circle.093
v 9.238789 14.826857 -45.000000
v 10.245270 15.243756 -45.000000
v 8.314688 16.555725 -45.000000
v 9.220496 17.160967 -45.000000
v 8.371638 14.467671 -50.000000
v 10.245270 15.243758 -50.000000
v 7.534273 16.034267 -50.000000
v 9.220496 17.160969 -50.000000
vt 0.6183 0.1431
vt 0.6136 0.1418
vt 0.6151 0.1407
vt 0.6204 0.1421
vt 0.3923 0.1783
vt 0.3942 0.1802
vt 0.3891 0.1813
vt 0.3867 0.1790
vt 0.4877 0.1431
vt 0.4877 0.1410
vt 0.5172 0.1410
vt 0.5172 0.1431
vn 0.0000 0.0000 1.0000
vn 0.0000 0.0000 -1.0000
vn 0.8819 0.4714 0.0000
usemtl Material.001
s off
f 43/61/16 41/62/16 42/63/16 44/64/16
f 45/65/17 47/66/17 48/67/17 46/68/17
s 1
f 44/69/18 42/70/18 46/71/18 48/72/18
o Circle.092
v 9.807849 12.950925 -45.000000
v 10.876323 13.163458 -45.000000
v 9.238789 14.826857 -45.000000
v 10.245270 15.243756 -45.000000
v 8.887287 12.767815 -50.000000
v 10.876323 13.163461 -50.000000
v 8.371638 14.467671 -50.000000
v 10.245270 15.243758 -50.000000
vt 0.6136 0.1418
vt 0.6083 0.1409
vt 0.6092 0.1397
vt 0.6151 0.1407
vt 0.3913 0.1763
vt 0.3923 0.1783
vt 0.3867 0.1790
vt 0.3855 0.1765
vt 0.4877 0.1410
vt 0.4877 0.1392
vt 0.5172 0.1392
vt 0.5172 0.1410
vn 0.0000 0.0000 1.0000
vn 0.0000 0.0000 -1.0000
vn 0.9569 0.2903 0.0000
usemtl Material.001
s off
f 51/73/19 49/74/19 50/75/19 52/76/19
f 53/77/20 55/78/20 56/79/20 54/80/20
s 1
f 52/81/21 50/82/21 54/83/21 56/84/21
o Circle.091
v 9.999998 11.000021 -45.000004
v 11.089405 11.000022 -45.000004
v 9.807849 12.950925 -45.000000
v 10.876323 13.163458 -45.000000
v 9.061401 11.000022 -50.000004
v 11.089405 11.000024 -50.000004
v 8.887287 12.767815 -50.000000
v 10.876323 13.163461 -50.000000
vt 0.6083 0.1409
vt 0.6027 0.1405
vt 0.6029 0.1392
vt 0.6092 0.1397
vt 0.3913 0.1742
vt 0.3913 0.1763
vt 0.3855 0.1765
vt 0.3855 0.1740
vt 0.5671 0.1812
vt 0.5671 0.1791
vt 0.5966 0.1791
vt 0.5966 0.1812
vn 0.0000 -0.0000 1.0000
vn -0.0000 0.0000 -1.0000
vn 0.9952 0.0980 0.0000
usemtl Material.001
s off
f 59/85/22 57/86/22 58/87/22 60/88/22
f 61/89/23 63/90/23 64/91/23 62/92/23
s 1
f 60/93/24 58/94/24 62/95/24 64/96/24
o Circle.090
v 9.807853 9.049117 -45.000004
v 10.876328 8.836584 -45.000004
v 9.999998 11.000021 -45.000004
v 11.089405 11.000022 -45.000004
v 8.887290 9.232229 -50.000004
v 10.876328 8.836587 -50.000004
v 9.061401 11.000022 -50.000004
v 11.089405 11.000024 -50.000004
vt 0.6027 0.1405
vt 0.5968 0.1405
vt 0.5966 0.1392
vt 0.6029 0.1392
vt 0.3923 0.1722
vt 0.3913 0.1742
vt 0.3855 0.1740
vt 0.3867 0.1715
vt 0.5671 0.1791
vt 0.5671 0.1768
vt 0.5966 0.1768
vt 0.5966 0.1791
vn 0.0000 0.0000 1.0000
vn 0.0000 0.0000 -1.0000
vn 0.9952 -0.0980 -0.0000
usemtl Material.001
s off
f 67/97/25 65/98/25 66/99/25 68/100/25
f 69/101/26 71/102/26 72/103/26 70/104/26
s 1
f 68/105/27 66/106/27 70/107/27 72/108/27
o Circle.089
v 9.238797 7.173183 -45.000004
v 10.245277 6.756285 -45.000004
v 9.807853 9.049117 -45.000004
v 10.876328 8.836584 -45.000004
v 8.371646 7.532370 -50.000004
v 10.245277 6.756288 -50.000004
v 8.887290 9.232229 -50.000004
v 10.876328 8.836587 -50.000004
vt 0.5968 0.1405
vt 0.5912 0.1409
vt 0.5902 0.1397
vt 0.5966 0.1392
vt 0.3942 0.1703
vt 0.3923 0.1722
vt 0.3867 0.1715
vt 0.3891 0.1692
vt 0.5671 0.1768
vt 0.5671 0.1743
vt 0.5966 0.1743
vt 0.5966 0.1768
vn 0.0000 0.0000 1.0000
vn 0.0000 0.0000 -1.0000
vn 0.9569 -0.2903 -0.0000
usemtl Material.001
s off
f 75/109/28 73/110/28 74/111/28 76/112/28
f 77/113/29 79/114/29 80/115/29 78/116/29
s 1
f 76/117/30 74/118/30 78/119/30 80/120/30
o Circle.088
v 8.314698 5.444314 -45.000004
v 9.220508 4.839071 -45.000004
v 9.238797 7.173183 -45.000004
v 10.245277 6.756285 -45.000004
v 7.534282 5.965771 -50.000004
v 9.220508 4.839074 -50.000004
v 8.371646 7.532370 -50.000004
v 10.245277 6.756288 -50.000004
vt 0.5912 0.1409
vt 0.5859 0.1418
vt 0.5844 0.1407
vt 0.5902 0.1397
vt 0.3971 0.1686
vt 0.3942 0.1703
vt 0.3891 0.1692
vt 0.3925 0.1671
vt 0.5671 0.1743
vt 0.5671 0.1718
vt 0.5966 0.1718
vt 0.5966 0.1743
vn 0.0000 0.0000 1.0000
vn 0.0000 0.0000 -1.0000
vn 0.8819 -0.4714 -0.0000
usemtl Material.001
s off
f 83/121/31 81/122/31 82/123/31 84/124/31
f 85/125/32 87/126/32 88/127/32 86/128/32
s 1
f 84/129/33 82/130/33 86/131/33 88/132/33
o Circle.087
v 8.314698 5.444314 -45.000004
v 7.071071 3.928947 -45.000004
v 7.841399 3.158621 -45.000004
v 9.220508 4.839071 -45.000004
v 6.407382 4.592637 -50.000004
v 7.841399 3.158623 -50.000004
v 7.534282 5.965771 -50.000004
v 9.220508 4.839074 -50.000004
vt 0.5859 0.1418
vt 0.5810 0.1431
vt 0.5790 0.1421
vt 0.5844 0.1407
vt 0.4008 0.1671
vt 0.3971 0.1686
vt 0.3925 0.1671
vt 0.3971 0.1653
vt 0.5671 0.1718
vt 0.5671 0.1693
vt 0.5966 0.1693
vt 0.5966 0.1718
vn 0.0000 0.0000 1.0000
vn 0.0000 0.0000 -1.0000
vn 0.7730 -0.6344 -0.0000
usemtl Material.001
s off
f 89/133/34 90/134/34 91/135/34 92/136/34
f 93/137/35 95/138/35 96/139/35 94/140/35
s 1
f 92/141/36 91/142/36 94/143/36 96/144/36
o Circle.086
v 7.071071 3.928947 -45.000004
v 7.841399 3.158621 -45.000004
v 5.555706 2.685317 -45.000004
v 6.160948 1.779508 -45.000004
v 5.034248 3.465734 -50.000004
v 6.160948 1.779511 -50.000004
v 6.407382 4.592637 -50.000004
v 7.841399 3.158623 -50.000004
vt 0.5810 0.1431
vt 0.5769 0.1447
vt 0.5744 0.1439
vt 0.5790 0.1421
vt 0.4052 0.1660
vt 0.4008 0.1671
vt 0.3971 0.1653
vt 0.4025 0.1639
vt 0.5671 0.1693
vt 0.5671 0.1670
vt 0.5966 0.1670
vt 0.5966 0.1693
vn 0.0000 0.0000 1.0000
vn -0.0000 0.0000 -1.0000
vn 0.6344 -0.7730 -0.0000
usemtl Material.001
s off
f 97/145/37 99/146/37 100/147/37 98/148/37
f 101/149/38 103/150/38 104/151/38 102/152/38
s 1
f 98/153/39 100/154/39 102/155/39 104/156/39
o Circle.085
v 3.826838 1.761217 -45.000004
v 4.243736 0.754735 -45.000004
v 5.555706 2.685317 -45.000004
v 6.160948 1.779508 -45.000004
v 3.467651 2.628369 -50.000004
v 4.243736 0.754737 -50.000004
v 5.034248 3.465734 -50.000004
v 6.160948 1.779511 -50.000004
vt 0.5769 0.1447
vt 0.5737 0.1466
vt 0.5710 0.1460
vt 0.5744 0.1439
vt 0.4101 0.1652
vt 0.4052 0.1660
vt 0.4025 0.1639
vt 0.4083 0.1630
vt 0.5671 0.1670
vt 0.5671 0.1649
vt 0.5966 0.1649
vt 0.5966 0.1670
vn 0.0000 0.0000 1.0000
vn 0.0000 0.0000 -1.0000
vn 0.4714 -0.8819 -0.0000
usemtl Material.001
s off
f 107/157/40 105/158/40 106/159/40 108/160/40
f 109/161/41 111/162/41 112/163/41 110/164/41
s 1
f 108/165/42 106/166/42 110/167/42 112/168/42
o Circle.084
v 1.950906 1.192158 -45.000004
v 2.163440 0.123682 -45.000004
v 3.826838 1.761217 -45.000004
v 4.243736 0.754735 -45.000004
v 1.767796 2.112722 -50.000004
v 2.163440 0.123685 -50.000004
v 3.467651 2.628369 -50.000004
v 4.243736 0.754737 -50.000004
vt 0.5737 0.1466
vt 0.5715 0.1487
vt 0.5686 0.1483
vt 0.5710 0.1460
vt 0.4152 0.1648
vt 0.4101 0.1652
vt 0.4083 0.1630
vt 0.4147 0.1625
vt 0.7169 0.0825
vt 0.7169 0.0843
vt 0.6874 0.0843
vt 0.6874 0.0825
vn -0.0000 0.0000 1.0000
vn -0.0000 0.0000 -1.0000
vn 0.2903 -0.9569 -0.0000
usemtl Material.001
s off
f 115/169/43 113/170/43 114/171/43 116/172/43
f 117/173/44 119/174/44 120/175/44 118/176/44
s 1
f 116/177/45 114/178/45 118/179/45 120/180/45
o Circle.083
v 0.000002 1.000012 -45.000004
v 0.000003 -0.089396 -45.000004
v 1.950906 1.192158 -45.000004
v 2.163440 0.123682 -45.000004
v 0.000002 1.938611 -50.000004
v 0.000003 -0.089393 -50.000004
v 1.767796 2.112722 -50.000004
v 2.163440 0.123685 -50.000004
vt 0.5715 0.1487
vt 0.5705 0.1509
vt 0.5671 0.1508
vt 0.5686 0.1483
vt 0.4205 0.1648
vt 0.4152 0.1648
vt 0.4147 0.1625
vt 0.4210 0.1625
vt 0.7169 0.0843
vt 0.7169 0.0864
vt 0.6874 0.0864
vt 0.6874 0.0843
vn 0.0000 0.0000 1.0000
vn -0.0000 0.0000 -1.0000
vn 0.0980 -0.9952 -0.0000
usemtl Material.001
s off
f 123/181/46 121/182/46 122/183/46 124/184/46
f 125/185/47 127/186/47 128/187/47 126/188/47
s 1
f 124/189/48 122/190/48 126/191/48 128/192/48
o Circle.082
v -1.950902 1.192157 -45.000004
v -2.163434 0.123681 -45.000004
v 0.000002 1.000012 -45.000004
v 0.000003 -0.089396 -45.000004
v -1.767792 2.112722 -50.000004
v -2.163434 0.123684 -50.000004
v 0.000002 1.938611 -50.000004
v 0.000003 -0.089393 -50.000004
vt 0.5705 0.1509
vt 0.5705 0.1532
vt 0.5671 0.1533
vt 0.5671 0.1508
vt 0.4256 0.1652
vt 0.4205 0.1648
vt 0.4210 0.1625
vt 0.4273 0.1630
vt 0.7169 0.0864
vt 0.7169 0.0888
vt 0.6874 0.0888
vt 0.6874 0.0864
vn -0.0000 0.0000 1.0000
vn 0.0000 0.0000 -1.0000
vn -0.0980 -0.9952 -0.0000
usemtl Material.001
s off
f 131/193/49 129/194/49 130/195/49 132/196/49
f 133/197/50 135/198/50 136/199/50 134/200/50
s 1
f 132/201/51 130/202/51 134/203/51 136/204/51
o Circle.081
v -3.826833 1.761214 -45.000004
v -4.243731 0.754732 -45.000004
v -1.950902 1.192157 -45.000004
v -2.163434 0.123681 -45.000004
v -3.467648 2.628366 -50.000004
v -4.243731 0.754733 -50.000004
v -1.767792 2.112722 -50.000004
v -2.163434 0.123684 -50.000004
vt 0.5705 0.1532
vt 0.5715 0.1554
vt 0.5686 0.1558
vt 0.5671 0.1533
vt 0.4305 0.1660
vt 0.4256 0.1652
vt 0.4273 0.1630
vt 0.4332 0.1639
vt 0.7169 0.0888
vt 0.7169 0.0912
vt 0.6874 0.0912
vt 0.6874 0.0888
vn 0.0000 0.0000 1.0000
vn 0.0000 0.0000 -1.0000
vn -0.2903 -0.9569 -0.0000
usemtl Material.001
s off
f 139/205/52 137/206/52 138/207/52 140/208/52
f 141/209/53 143/210/53 144/211/53 142/212/53
s 1
f 140/213/54 138/214/54 142/215/54 144/216/54
o Circle.080
v -5.555702 2.685315 -45.000004
v -6.160945 1.779504 -45.000004
v -3.826833 1.761214 -45.000004
v -4.243731 0.754732 -45.000004
v -5.034245 3.465730 -50.000004
v -6.160945 1.779507 -50.000004
v -3.467648 2.628366 -50.000004
v -4.243731 0.754733 -50.000004
vt 0.5715 0.1554
vt 0.5737 0.1575
vt 0.5710 0.1581
vt 0.5686 0.1558
vt 0.4346 0.1671
vt 0.4305 0.1660
vt 0.4332 0.1639
vt 0.4385 0.1653
vt 0.7169 0.0912
vt 0.7169 0.0938
vt 0.6874 0.0938
vt 0.6874 0.0912
vn -0.0000 0.0000 1.0000
vn 0.0000 0.0000 -1.0000
vn -0.4714 -0.8819 -0.0000
usemtl Material.001
s off
f 147/217/55 145/218/55 146/219/55 148/220/55
f 149/221/56 151/222/56 152/223/56 150/224/56
s 1
f 148/225/57 146/226/57 150/227/57 152/228/57
o Circle.079
v -7.071068 3.928943 -45.000004
v -7.841395 3.158616 -45.000004
v -5.555702 2.685315 -45.000004
v -6.160945 1.779504 -45.000004
v -6.407380 4.592633 -50.000004
v -7.841395 3.158617 -50.000004
v -5.034245 3.465730 -50.000004
v -6.160945 1.779507 -50.000004
vt 0.5737 0.1575
vt 0.5769 0.1594
vt 0.5744 0.1602
vt 0.5710 0.1581
vt 0.4385 0.1686
vt 0.4346 0.1671
vt 0.4385 0.1653
vt 0.4429 0.1671
vt 0.7169 0.0938
vt 0.7169 0.0962
vt 0.6874 0.0962
vt 0.6874 0.0938
vn -0.0000 0.0000 1.0000
vn 0.0000 0.0000 -1.0000
vn -0.6344 -0.7730 -0.0000
usemtl Material.001
s off
f 155/229/58 153/230/58 154/231/58 156/232/58
f 157/233/59 159/234/59 160/235/59 158/236/59
s 1
f 156/237/60 154/238/60 158/239/60 160/240/60
o Circle.078
v -8.314697 5.444308 -45.000004
v -9.220506 4.839065 -45.000004
v -7.071068 3.928943 -45.000004
v -7.841395 3.158616 -45.000004
v -7.534282 5.965766 -50.000004
v -9.220506 4.839068 -50.000004
v -6.407380 4.592633 -50.000004
v -7.841395 3.158617 -50.000004
vt 0.5769 0.1594
vt 0.5810 0.1610
vt 0.5790 0.1620
vt 0.5744 0.1602
vt 0.4415 0.1703
vt 0.4385 0.1686
vt 0.4429 0.1671
vt 0.4466 0.1692
vt 0.7169 0.0962
vt 0.7169 0.0986
vt 0.6874 0.0986
vt 0.6874 0.0962
vn 0.0000 0.0000 1.0000
vn 0.0000 0.0000 -1.0000
vn -0.7730 -0.6344 -0.0000
usemtl Material.001
s off
f 163/241/61 161/242/61 162/243/61 164/244/61
f 165/245/62 167/246/62 168/247/62 166/248/62
s 1
f 164/249/63 162/250/63 166/251/63 168/252/63
o Circle.077
v -9.238796 7.173178 -45.000004
v -10.245276 6.756280 -45.000004
v -8.314697 5.444308 -45.000004
v -9.220506 4.839065 -45.000004
v -8.371645 7.532365 -50.000004
v -10.245276 6.756282 -50.000004
v -7.534282 5.965766 -50.000004
v -9.220506 4.839068 -50.000004
vt 0.5810 0.1610
vt 0.5859 0.1623
vt 0.5844 0.1634
vt 0.5790 0.1620
vt 0.4434 0.1722
vt 0.4415 0.1703
vt 0.4466 0.1692
vt 0.4490 0.1715
vt 0.7169 0.0986
vt 0.7169 0.1007
vt 0.6874 0.1007
vt 0.6874 0.0986
vn 0.0000 0.0000 1.0000
vn 0.0000 0.0000 -1.0000
vn -0.8819 -0.4714 -0.0000
usemtl Material.001
s off
f 171/253/64 169/254/64 170/255/64 172/256/64
f 173/257/65 175/258/65 176/259/65 174/260/65
s 1
f 172/261/66 170/262/66 174/263/66 176/264/66
o Circle.076
v -9.807854 9.049109 -45.000004
v -10.876328 8.836576 -45.000004
v -9.238796 7.173178 -45.000004
v -10.245276 6.756280 -45.000004
v -8.887291 9.232223 -50.000004
v -10.876328 8.836579 -50.000004
v -8.371645 7.532365 -50.000004
v -10.245276 6.756282 -50.000004
vt 0.5859 0.1623
vt 0.5912 0.1631
vt 0.5902 0.1644
vt 0.5844 0.1634
vt 0.4444 0.1742
vt 0.4434 0.1722
vt 0.4490 0.1715
vt 0.4502 0.1740
vt 0.6874 0.0644
vt 0.6874 0.0626
vt 0.7169 0.0626
vt 0.7169 0.0644
vn -0.0000 0.0000 1.0000
vn 0.0000 0.0000 -1.0000
vn -0.9569 -0.2903 -0.0000
usemtl Material.001
s off
f 179/265/67 177/266/67 178/267/67 180/268/67
f 181/269/68 183/270/68 184/271/68 182/272/68
s 1
f 180/273/69 178/274/69 182/275/69 184/276/69
o Circle.075
v -10.000000 11.000012 -45.000004
v -11.089407 11.000012 -45.000004
v -9.807854 9.049109 -45.000004
v -10.876328 8.836576 -45.000004
v -9.061403 11.000014 -50.000004
v -11.089407 11.000014 -50.000004
v -8.887291 9.232223 -50.000004
v -10.876328 8.836579 -50.000004
vt 0.5912 0.1631
vt 0.5968 0.1636
vt 0.5966 0.1649
vt 0.5902 0.1644
vt 0.4444 0.1763
vt 0.4444 0.1742
vt 0.4502 0.1740
vt 0.4502 0.1765
vt 0.6874 0.0626
vt 0.6874 0.0605
vt 0.7169 0.0605
vt 0.7169 0.0626
vn 0.0000 0.0000 1.0000
vn 0.0000 0.0000 -1.0000
vn -0.9952 -0.0980 -0.0000
usemtl Material.001
s off
f 187/277/70 185/278/70 186/279/70 188/280/70
f 189/281/71 191/282/71 192/283/71 190/284/71
s 1
f 188/285/72 186/286/72 190/287/72 192/288/72
o Circle.074
v -9.807853 12.950915 -45.000000
v -10.876328 13.163447 -45.000000
v -10.000000 11.000012 -45.000004
v -11.089407 11.000012 -45.000004
v -8.887291 12.767806 -50.000000
v -10.876328 13.163449 -50.000000
v -9.061403 11.000014 -50.000004
v -11.089407 11.000014 -50.000004
vt 0.5968 0.1636
vt 0.6027 0.1636
vt 0.6029 0.1649
vt 0.5966 0.1649
vt 0.4434 0.1783
vt 0.4444 0.1763
vt 0.4502 0.1765
vt 0.4490 0.1790
vt 0.6874 0.0605
vt 0.6874 0.0582
vt 0.7169 0.0582
vt 0.7169 0.0605
vn 0.0000 -0.0000 1.0000
vn 0.0000 0.0000 -1.0000
vn -0.9952 0.0980 0.0000
usemtl Material.001
s off
f 195/289/73 193/290/73 194/291/73 196/292/73
f 197/293/74 199/294/74 200/295/74 198/296/74
s 1
f 196/297/75 194/298/75 198/299/75 200/300/75
o Circle.073
v -9.238795 14.826845 -45.000000
v -10.245276 15.243744 -45.000000
v -9.807853 12.950915 -45.000000
v -10.876328 13.163447 -45.000000
v -8.371645 14.467662 -50.000000
v -10.245276 15.243747 -50.000000
v -8.887291 12.767806 -50.000000
v -10.876328 13.163449 -50.000000
vt 0.6027 0.1636
vt 0.6083 0.1631
vt 0.6092 0.1644
vt 0.6029 0.1649
vt 0.4415 0.1802
vt 0.4434 0.1783
vt 0.4490 0.1790
vt 0.4466 0.1813
vt 0.6874 0.0582
vt 0.6874 0.0557
vt 0.7169 0.0557
vt 0.7169 0.0582
vn 0.0000 0.0000 1.0000
vn 0.0000 0.0000 -1.0000
vn -0.9569 0.2903 0.0000
usemtl Material.001
s off
f 203/301/76 201/302/76 202/303/76 204/304/76
f 205/305/77 207/306/77 208/307/77 206/308/77
s 1
f 204/309/78 202/310/78 206/311/78 208/312/78
o Circle.072
v -8.314697 16.555714 -45.000000
v -9.220506 17.160955 -45.000000
v -9.238795 14.826845 -45.000000
v -10.245276 15.243744 -45.000000
v -7.534282 16.034256 -50.000000
v -9.220506 17.160955 -50.000000
v -8.371645 14.467662 -50.000000
v -10.245276 15.243747 -50.000000
vt 0.6083 0.1631
vt 0.6136 0.1623
vt 0.6151 0.1634
vt 0.6092 0.1644
vt 0.4385 0.1820
vt 0.4415 0.1802
vt 0.4466 0.1813
vt 0.4429 0.1834
vt 0.6874 0.0557
vt 0.6874 0.0532
vt 0.7169 0.0532
vt 0.7169 0.0557
vn -0.0000 0.0000 1.0000
vn 0.0000 0.0000 -1.0000
vn -0.8819 0.4714 0.0000
usemtl Material.001
s off
f 211/313/79 209/314/79 210/315/79 212/316/79
f 213/317/80 215/318/80 216/319/80 214/320/80
s 1
f 212/321/81 210/322/81 214/323/81 216/324/81
o Circle.071
v -7.071068 18.071079 -45.000000
v -7.841395 18.841406 -45.000000
v -8.314697 16.555714 -45.000000
v -9.220506 17.160955 -45.000000
v -6.407379 17.407391 -50.000000
v -7.841395 18.841408 -50.000000
v -7.534282 16.034256 -50.000000
v -9.220506 17.160955 -50.000000
vt 0.6136 0.1623
vt 0.6183 0.1610
vt 0.6204 0.1620
vt 0.6151 0.1634
vt 0.4346 0.1834
vt 0.4385 0.1820
vt 0.4429 0.1834
vt 0.4385 0.1852
vt 0.6874 0.0532
vt 0.6874 0.0507
vt 0.7169 0.0507
vt 0.7169 0.0532
vn 0.0000 0.0000 1.0000
vn 0.0000 0.0000 -1.0000
vn -0.7730 0.6344 0.0000
usemtl Material.001
s off
f 219/325/82 217/326/82 218/327/82 220/328/82
f 221/329/83 223/330/83 224/331/83 222/332/83
s 1
f 220/333/84 218/334/84 222/335/84 224/336/84
o Circle.070
v -5.555703 19.314707 -45.000000
v -6.160945 20.220516 -45.000000
v -7.071068 18.071079 -45.000000
v -7.841395 18.841406 -45.000000
v -5.034247 18.534294 -50.000000
v -6.160945 20.220516 -50.000000
v -6.407379 17.407391 -50.000000
v -7.841395 18.841408 -50.000000
vt 0.6183 0.1610
vt 0.6224 0.1594
vt 0.6248 0.1602
vt 0.6204 0.1620
vt 0.4305 0.1846
vt 0.4346 0.1834
vt 0.4385 0.1852
vt 0.4332 0.1866
vt 0.6874 0.0507
vt 0.6874 0.0484
vt 0.7169 0.0484
vt 0.7169 0.0507
vn 0.0000 0.0000 1.0000
vn 0.0000 0.0000 -1.0000
vn -0.6344 0.7730 0.0000
usemtl Material.001
s off
f 227/337/85 225/338/85 226/339/85 228/340/85
f 229/341/86 231/342/86 232/343/86 230/344/86
s 1
f 228/345/87 226/346/87 230/347/87 232/348/87
o Circle.069
v -3.826835 20.238806 -45.000000
v -4.243733 21.245285 -45.000000
v -5.555703 19.314707 -45.000000
v -6.160945 20.220516 -45.000000
v -3.467650 19.371655 -50.000000
v -4.243733 21.245287 -50.000000
v -5.034247 18.534294 -50.000000
v -6.160945 20.220516 -50.000000
vt 0.6224 0.1594
vt 0.6256 0.1575
vt 0.6285 0.1581
vt 0.6248 0.1602
vt 0.4256 0.1853
vt 0.4305 0.1846
vt 0.4332 0.1866
vt 0.4273 0.1876
vt 0.6874 0.0484
vt 0.6874 0.0463
vt 0.7169 0.0463
vt 0.7169 0.0484
vn 0.0000 0.0000 1.0000
vn -0.0000 0.0000 -1.0000
vn -0.4714 0.8819 0.0000
usemtl Material.001
s off
f 235/349/88 233/350/88 234/351/88 236/352/88
f 237/353/89 239/354/89 240/355/89 238/356/89
s 1
f 236/357/90 234/358/90 238/359/90 240/360/90
o Circle.068
v -1.950904 20.807863 -45.000000
v -2.163437 21.876335 -45.000000
v -3.826835 20.238806 -45.000000
v -4.243733 21.245285 -45.000000
v -1.767792 19.887302 -50.000000
v -2.163437 21.876339 -50.000000
v -3.467650 19.371655 -50.000000
v -4.243733 21.245287 -50.000000
vt 0.6256 0.1575
vt 0.6277 0.1554
vt 0.6309 0.1558
vt 0.6285 0.1581
vt 0.4205 0.1858
vt 0.4256 0.1853
vt 0.4273 0.1876
vt 0.4210 0.1881
vt 0.4877 0.1591
vt 0.4877 0.1573
vt 0.5172 0.1573
vt 0.5172 0.1591
vn 0.0000 0.0000 1.0000
vn 0.0000 0.0000 -1.0000
vn -0.2903 0.9569 0.0000
usemtl Material.001
s off
f 243/361/91 241/362/91 242/363/91 244/364/91
f 245/365/92 247/366/92 248/367/92 246/368/92
s 1
f 244/369/93 242/370/93 246/371/93 248/372/93
o Circle.067
v -0.000001 22.089418 -50.000000
v -2.163437 21.876339 -50.000000
v -1.767792 19.887302 -50.000000
v 0.000000 20.061417 -50.000000
v -2.163437 21.876335 -45.000000
v -0.000001 22.089417 -45.000000
v -0.000001 21.000011 -45.000000
v -1.950904 20.807863 -45.000000
vt 0.4152 0.1858
vt 0.4205 0.1858
vt 0.4210 0.1881
vt 0.4147 0.1881
vt 0.6277 0.1554
vt 0.6290 0.1532
vt 0.6321 0.1533
vt 0.6309 0.1558
vt 0.4877 0.1573
vt 0.4877 0.1553
vt 0.5172 0.1553
vt 0.5172 0.1573
vn 0.0000 0.0000 -1.0000
vn -0.0000 0.0000 1.0000
vn -0.0980 0.9952 0.0000
usemtl Material.001
s off
f 252/373/94 251/374/94 250/375/94 249/376/94
f 256/377/95 255/378/95 254/379/95 253/380/95
s 1
f 253/381/96 254/382/96 249/383/96 250/384/96
o Circle.066
v 2.163418 21.876314 -0.000000
v 1.767777 19.887276 -0.000001
v -0.000001 22.089390 -0.000000
v 0.000000 20.061386 -0.000001
v 2.163418 21.876316 -5.000000
v 1.950887 20.807842 -5.000000
v -0.000001 22.089394 -5.000000
v -0.000001 20.999987 -5.000000
vt 0.4563 0.1742
vt 0.4563 0.1763
vt 0.4502 0.1765
vt 0.4502 0.1740
vt 0.6874 0.1447
vt 0.6833 0.1431
vt 0.6855 0.1421
vt 0.6898 0.1439
vt 0.5627 0.1762
vt 0.5627 0.1785
vt 0.5333 0.1785
vt 0.5333 0.1762
vn -0.0000 -0.0000 1.0000
vn -0.0000 0.0000 -1.0000
vn 0.0980 0.9952 0.0000
usemtl Material.001
s off
f 260/385/97 258/386/97 257/387/97 259/388/97
f 262/389/98 264/390/98 263/391/98 261/392/98
s 1
f 261/393/99 263/394/99 259/395/99 257/396/99
o Circle.065
v 2.163418 21.876314 -0.000000
v 1.767777 19.887276 -0.000001
v 4.243716 21.245266 -0.000000
v 3.467635 19.371634 -0.000001
v 2.163418 21.876316 -5.000000
v 1.950887 20.807842 -5.000000
v 4.243716 21.245270 -5.000000
v 3.826820 20.238789 -5.000000
vt 0.4563 0.1763
vt 0.4573 0.1783
vt 0.4517 0.1790
vt 0.4502 0.1765
vt 0.6906 0.1466
vt 0.6874 0.1447
vt 0.6898 0.1439
vt 0.6935 0.1460
vt 0.5627 0.1737
vt 0.5627 0.1762
vt 0.5333 0.1762
vt 0.5333 0.1737
vn -0.0000 -0.0000 1.0000
vn 0.0000 0.0000 -1.0000
vn 0.2903 0.9569 0.0000
usemtl Material.001
s off
f 266/397/100 268/398/100 267/399/100 265/400/100
f 272/401/101 270/402/101 269/403/101 271/404/101
s 1
f 271/405/102 269/406/102 265/407/102 267/408/102
o Circle.064
v 4.243716 21.245266 -0.000000
v 3.467635 19.371634 -0.000001
v 6.160931 20.220497 -0.000001
v 5.034233 18.534271 -0.000001
v 4.243716 21.245270 -5.000000
v 3.826820 20.238789 -5.000000
v 6.160931 20.220501 -5.000000
v 5.555689 19.314690 -5.000000
vt 0.4573 0.1783
vt 0.4592 0.1802
vt 0.4539 0.1813
vt 0.4517 0.1790
vt 0.6928 0.1487
vt 0.6906 0.1466
vt 0.6935 0.1460
vt 0.6959 0.1483
vt 0.5627 0.1711
vt 0.5627 0.1737
vt 0.5333 0.1737
vt 0.5333 0.1711
vn 0.0000 -0.0000 1.0000
vn 0.0000 0.0000 -1.0000
vn 0.4714 0.8819 0.0000
usemtl Material.001
s off
f 274/409/103 276/410/103 275/411/103 273/412/103
f 280/413/104 278/414/104 277/415/104 279/416/104
s 1
f 279/417/105 277/418/105 273/419/105 275/420/105
o Circle.063
v 6.160931 20.220497 -0.000001
v 5.034233 18.534271 -0.000001
v 7.841383 18.841389 -0.000001
v 6.407370 17.407372 -0.000001
v 6.160931 20.220501 -5.000000
v 5.555689 19.314690 -5.000000
v 7.841383 18.841391 -5.000001
v 7.071057 18.071062 -5.000001
vt 0.4592 0.1802
vt 0.4622 0.1820
vt 0.4575 0.1834
vt 0.4539 0.1813
vt 0.6940 0.1509
vt 0.6928 0.1487
vt 0.6959 0.1483
vt 0.6971 0.1508
vt 0.5627 0.1687
vt 0.5627 0.1711
vt 0.5333 0.1711
vt 0.5333 0.1687
vn 0.0000 -0.0000 1.0000
vn -0.0000 0.0000 -1.0000
vn 0.6344 0.7730 0.0000
usemtl Material.001
s off
f 282/421/106 284/422/106 283/423/106 281/424/106
f 288/425/107 286/426/107 285/427/107 287/428/107
s 1
f 287/429/108 285/430/108 281/431/108 283/432/108
o Circle.062
v 7.841383 18.841389 -0.000001
v 6.407370 17.407372 -0.000001
v 9.220496 17.160938 -0.000001
v 7.534273 16.034237 -0.000001
v 7.841383 18.841391 -5.000001
v 7.071057 18.071062 -5.000001
v 9.220496 17.160940 -5.000001
v 8.314688 16.555700 -5.000001
vt 0.4622 0.1820
vt 0.4658 0.1834
vt 0.4622 0.1852
vt 0.4575 0.1834
vt 0.6940 0.1532
vt 0.6940 0.1509
vt 0.6971 0.1508
vt 0.6971 0.1533
vt 0.5627 0.1663
vt 0.5627 0.1687
vt 0.5333 0.1687
vt 0.5333 0.1663
vn 0.0000 -0.0000 1.0000
vn 0.0000 0.0000 -1.0000
vn 0.7730 0.6344 0.0000
usemtl Material.001
s off
f 290/433/109 292/434/109 291/435/109 289/436/109
f 296/437/110 294/438/110 293/439/110 295/440/110
s 1
f 295/441/111 293/442/111 289/443/111 291/444/111
o Circle.061
v 9.220496 17.160938 -0.000001
v 7.534273 16.034237 -0.000001
v 10.245270 15.243729 -0.000001
v 8.371638 14.467643 -0.000001
v 9.220496 17.160940 -5.000001
v 8.314688 16.555700 -5.000001
v 10.245270 15.243731 -5.000001
v 9.238789 14.826832 -5.000001
vt 0.4658 0.1834
vt 0.4702 0.1846
vt 0.4673 0.1866
vt 0.4622 0.1852
vt 0.6928 0.1554
vt 0.6940 0.1532
vt 0.6971 0.1533
vt 0.6959 0.1558
vt 0.5627 0.1642
vt 0.5627 0.1663
vt 0.5333 0.1663
vt 0.5333 0.1642
vn 0.0000 -0.0000 1.0000
vn -0.0000 0.0000 -1.0000
vn 0.8819 0.4714 0.0000
usemtl Material.001
s off
f 298/445/112 300/446/112 299/447/112 297/448/112
f 304/449/113 302/450/113 301/451/113 303/452/113
s 1
f 303/453/114 301/454/114 297/455/114 299/456/114
o Circle.060
v 10.245270 15.243729 -0.000001
v 8.371638 14.467643 -0.000001
v 10.876323 13.163432 -0.000002
v 8.887287 12.767786 -0.000002
v 10.245270 15.243731 -5.000001
v 9.238789 14.826832 -5.000001
v 10.876323 13.163436 -5.000002
v 9.807849 12.950901 -5.000002
vt 0.4702 0.1846
vt 0.4751 0.1853
vt 0.4734 0.1876
vt 0.4673 0.1866
vt 0.6906 0.1575
vt 0.6928 0.1554
vt 0.6959 0.1558
vt 0.6935 0.1581
vt 0.5627 0.1625
vt 0.5627 0.1642
vt 0.5333 0.1642
vt 0.5333 0.1625
vn 0.0000 -0.0000 1.0000
vn 0.0000 0.0000 -1.0000
vn 0.9569 0.2903 0.0000
usemtl Material.001
s off
f 306/457/115 308/458/115 307/459/115 305/460/115
f 312/461/116 310/462/116 309/463/116 311/464/116
s 1
f 311/465/117 309/466/117 305/467/117 307/468/117
o Circle.059
v 10.876323 13.163432 -0.000002
v 8.887287 12.767786 -0.000002
v 11.089405 10.999995 -0.000002
v 9.061401 10.999993 -0.000002
v 10.876323 13.163436 -5.000002
v 9.807849 12.950901 -5.000002
v 11.089405 10.999998 -5.000002
v 9.999998 10.999997 -5.000002
vt 0.4751 0.1853
vt 0.4802 0.1858
vt 0.4797 0.1881
vt 0.4734 0.1876
vt 0.6874 0.1594
vt 0.6906 0.1575
vt 0.6935 0.1581
vt 0.6898 0.1602
vt 0.5966 0.1670
vt 0.5966 0.1649
vt 0.6260 0.1649
vt 0.6260 0.1670
vn 0.0000 -0.0000 1.0000
vn 0.0000 0.0000 -1.0000
vn 0.9952 0.0980 0.0000
usemtl Material.001
s off
f 314/469/118 316/470/118 315/471/118 313/472/118
f 320/473/119 318/474/119 317/475/119 319/476/119
s 1
f 319/477/120 317/478/120 313/479/120 315/480/120
o Circle.058
v 11.089405 10.999995 -0.000002
v 9.061401 10.999993 -0.000002
v 10.876328 8.836558 -0.000002
v 8.887290 9.232201 -0.000002
v 11.089405 10.999998 -5.000002
v 9.999998 10.999997 -5.000002
v 10.876328 8.836562 -5.000002
v 9.807853 9.049093 -5.000002
vt 0.4802 0.1858
vt 0.4855 0.1858
vt 0.4860 0.1881
vt 0.4797 0.1881
vt 0.6833 0.1610
vt 0.6874 0.1594
vt 0.6898 0.1602
vt 0.6855 0.1620
vt 0.5966 0.1693
vt 0.5966 0.1670
vt 0.6260 0.1670
vt 0.6260 0.1693
vn 0.0000 -0.0000 1.0000
vn 0.0000 0.0000 -1.0000
vn 0.9952 -0.0980 -0.0000
usemtl Material.001
s off
f 322/481/121 324/482/121 323/483/121 321/484/121
f 328/485/122 326/486/122 325/487/122 327/488/122
s 1
f 327/489/123 325/490/123 321/491/123 323/492/123
o Circle.057
v 10.876328 8.836558 -0.000002
v 8.887290 9.232201 -0.000002
v 10.245277 6.756260 -0.000003
v 8.371646 7.532342 -0.000003
v 10.876328 8.836562 -5.000002
v 9.807853 9.049093 -5.000002
v 10.245277 6.756262 -5.000003
v 9.238797 7.173160 -5.000003
vt 0.4855 0.1858
vt 0.4904 0.1853
vt 0.4924 0.1876
vt 0.4860 0.1881
vt 0.6786 0.1623
vt 0.6833 0.1610
vt 0.6855 0.1620
vt 0.6801 0.1634
vt 0.5966 0.1718
vt 0.5966 0.1693
vt 0.6260 0.1693
vt 0.6260 0.1718
vn -0.0000 -0.0000 1.0000
vn -0.0000 0.0000 -1.0000
vn 0.9569 -0.2903 -0.0000
usemtl Material.001
s off
f 330/493/124 332/494/124 331/495/124 329/496/124
f 336/497/125 334/498/125 333/499/125 335/500/125
s 1
f 335/501/126 333/502/126 329/503/126 331/504/126
o Circle.056
v 10.245277 6.756260 -0.000003
v 8.371646 7.532342 -0.000003
v 9.220508 4.839046 -0.000003
v 7.534283 5.965743 -0.000003
v 10.245277 6.756262 -5.000003
v 9.238797 7.173160 -5.000003
v 9.220508 4.839049 -5.000003
v 8.314698 5.444290 -5.000003
vt 0.4904 0.1853
vt 0.4953 0.1846
vt 0.4982 0.1866
vt 0.4924 0.1876
vt 0.6733 0.1631
vt 0.6786 0.1623
vt 0.6801 0.1634
vt 0.6743 0.1644
vt 0.5966 0.1743
vt 0.5966 0.1718
vt 0.6260 0.1718
vt 0.6260 0.1743
vn -0.0000 -0.0000 1.0000
vn 0.0000 0.0000 -1.0000
vn 0.8819 -0.4714 -0.0000
usemtl Material.001
s off
f 338/505/127 340/506/127 339/507/127 337/508/127
f 344/509/128 342/510/128 341/511/128 343/512/128
s 1
f 343/513/129 341/514/129 337/515/129 339/516/129
o Circle.055
v 9.220508 4.839046 -0.000003
v 7.534283 5.965743 -0.000003
v 7.841399 3.158592 -0.000003
v 6.407382 4.592608 -0.000003
v 9.220508 4.839049 -5.000003
v 8.314698 5.444290 -5.000003
v 7.841399 3.158596 -5.000003
v 7.071071 3.928922 -5.000003
vt 0.4953 0.1846
vt 0.4997 0.1834
vt 0.5036 0.1852
vt 0.4982 0.1866
vt 0.6674 0.1636
vt 0.6733 0.1631
vt 0.6743 0.1644
vt 0.6679 0.1649
vt 0.5966 0.1768
vt 0.5966 0.1743
vt 0.6260 0.1743
vt 0.6260 0.1768
vn 0.0000 -0.0000 1.0000
vn 0.0000 0.0000 -1.0000
vn 0.7730 -0.6344 -0.0000
usemtl Material.001
s off
f 346/517/130 348/518/130 347/519/130 345/520/130
f 352/521/131 350/522/131 349/523/131 351/524/131
s 1
f 351/525/132 349/526/132 345/527/132 347/528/132
o Circle.054
v 7.841399 3.158592 -0.000003
v 6.407382 4.592608 -0.000003
v 6.160948 1.779483 -0.000004
v 5.034249 3.465705 -0.000003
v 7.841399 3.158596 -5.000003
v 7.071071 3.928922 -5.000003
v 6.160948 1.779485 -5.000003
v 5.555706 2.685294 -5.000003
vt 0.4997 0.1834
vt 0.5033 0.1820
vt 0.5079 0.1834
vt 0.5036 0.1852
vt 0.6618 0.1636
vt 0.6674 0.1636
vt 0.6679 0.1649
vt 0.6614 0.1649
vt 0.5966 0.1791
vt 0.5966 0.1768
vt 0.6260 0.1768
vt 0.6260 0.1791
vn 0.0000 -0.0000 1.0000
vn 0.0000 0.0000 -1.0000
vn 0.6344 -0.7730 -0.0000
usemtl Material.001
s off
f 354/529/133 356/530/133 355/531/133 353/532/133
f 360/533/134 358/534/134 357/535/134 359/536/134
s 1
f 359/537/135 357/538/135 353/539/135 355/540/135
o Circle.053
v 6.160948 1.779483 -0.000004
v 5.034249 3.465705 -0.000003
v 4.243736 0.754709 -0.000004
v 3.467652 2.628340 -0.000003
v 6.160948 1.779485 -5.000003
v 5.555706 2.685294 -5.000003
v 4.243736 0.754713 -5.000004
v 3.826838 1.761194 -5.000003
vt 0.5033 0.1820
vt 0.5062 0.1802
vt 0.5116 0.1813
vt 0.5079 0.1834
vt 0.6560 0.1631
vt 0.6618 0.1636
vt 0.6614 0.1649
vt 0.6553 0.1644
vt 0.5966 0.1812
vt 0.5966 0.1791
vt 0.6260 0.1791
vt 0.6260 0.1812
vn 0.0000 -0.0000 1.0000
vn 0.0000 0.0000 -1.0000
vn 0.4714 -0.8819 -0.0000
usemtl Material.001
s off
f 362/541/136 364/542/136 363/543/136 361/544/136
f 368/545/137 366/546/137 365/547/137 367/548/137
s 1
f 367/549/138 365/550/138 361/551/138 363/552/138
o Circle.052
v 4.243736 0.754709 -0.000004
v 3.467652 2.628340 -0.000003
v 2.163440 0.123657 -0.000004
v 1.767796 2.112694 -0.000003
v 4.243736 0.754713 -5.000004
v 3.826838 1.761194 -5.000003
v 2.163440 0.123661 -5.000004
v 1.950906 1.192135 -5.000004
vt 0.5062 0.1802
vt 0.5084 0.1783
vt 0.5140 0.1790
vt 0.5116 0.1813
vt 0.6509 0.1623
vt 0.6560 0.1631
vt 0.6553 0.1644
vt 0.6492 0.1634
vt 0.6874 0.1025
vt 0.6874 0.1007
vt 0.7169 0.1007
vt 0.7169 0.1025
vn -0.0000 -0.0000 1.0000
vn 0.0000 0.0000 -1.0000
vn 0.2903 -0.9569 -0.0000
usemtl Material.001
s off
f 370/553/139 372/554/139 371/555/139 369/556/139
f 376/557/140 374/558/140 373/559/140 375/560/140
s 1
f 375/561/141 373/562/141 369/563/141 371/564/141
o Circle.051
v 2.163440 0.123657 -0.000004
v 1.767796 2.112694 -0.000003
v 0.000003 -0.089422 -0.000004
v 0.000002 1.938582 -0.000003
v 2.163440 0.123661 -5.000004
v 1.950906 1.192135 -5.000004
v 0.000003 -0.089418 -5.000004
v 0.000002 0.999989 -5.000004
vt 0.5084 0.1783
vt 0.5094 0.1763
vt 0.5152 0.1765
vt 0.5140 0.1790
vt 0.6460 0.1610
vt 0.6509 0.1623
vt 0.6492 0.1634
vt 0.6441 0.1620
vt 0.6874 0.1046
vt 0.6874 0.1025
vt 0.7169 0.1025
vt 0.7169 0.1046
vn 0.0000 -0.0000 1.0000
vn -0.0000 0.0000 -1.0000
vn 0.0980 -0.9952 -0.0000
usemtl Material.001
s off
f 378/565/142 380/566/142 379/567/142 377/568/142
f 384/569/143 382/570/143 381/571/143 383/572/143
s 1
f 383/573/144 381/574/144 377/575/144 379/576/144
o Circle.050
v 0.000003 -0.089422 -0.000004
v 0.000002 1.938582 -0.000003
v -2.163434 0.123655 -0.000004
v -1.767791 2.112693 -0.000003
v -2.163434 0.123659 -5.000004
v 0.000003 -0.089418 -5.000004
v 0.000002 0.999989 -5.000004
v -1.950902 1.192134 -5.000004
vt 0.5094 0.1763
vt 0.5094 0.1742
vt 0.5152 0.1740
vt 0.5152 0.1765
vt 0.6419 0.1594
vt 0.6460 0.1610
vt 0.6441 0.1620
vt 0.6394 0.1602
vt 0.6874 0.1069
vt 0.6874 0.1046
vt 0.7169 0.1046
vt 0.7169 0.1069
vn -0.0000 -0.0000 1.0000
vn 0.0000 0.0000 -1.0000
vn -0.0980 -0.9952 -0.0000
usemtl Material.001
s off
f 386/577/145 388/578/145 387/579/145 385/580/145
f 392/581/146 391/582/146 390/583/146 389/584/146
s 1
f 389/585/147 390/586/147 385/587/147 387/588/147
o Circle.049
v -2.163434 0.123655 -0.000004
v -1.767791 2.112693 -0.000003
v -4.243731 0.754707 -0.000004
v -3.467648 2.628339 -0.000003
v -4.243731 0.754711 -5.000004
v -3.826833 1.761191 -5.000003
v -2.163434 0.123659 -5.000004
v -1.950902 1.192134 -5.000004
vt 0.5094 0.1742
vt 0.5084 0.1722
vt 0.5140 0.1715
vt 0.5152 0.1740
vt 0.6387 0.1575
vt 0.6419 0.1594
vt 0.6394 0.1602
vt 0.6358 0.1581
vt 0.6874 0.1094
vt 0.6874 0.1069
vt 0.7169 0.1069
vt 0.7169 0.1094
vn 0.0000 -0.0000 1.0000
vn 0.0000 0.0000 -1.0000
vn -0.2903 -0.9569 -0.0000
usemtl Material.001
s off
f 394/589/148 396/590/148 395/591/148 393/592/148
f 398/593/149 400/594/149 399/595/149 397/596/149
s 1
f 397/597/150 399/598/150 393/599/150 395/600/150
o Circle.048
v -4.243731 0.754707 -0.000004
v -3.467648 2.628339 -0.000003
v -6.160945 1.779478 -0.000004
v -5.034246 3.465702 -0.000003
v -4.243731 0.754711 -5.000004
v -3.826833 1.761191 -5.000003
v -6.160945 1.779482 -5.000003
v -5.555702 2.685291 -5.000003
vt 0.5084 0.1722
vt 0.5062 0.1703
vt 0.5116 0.1692
vt 0.5140 0.1715
vt 0.6365 0.1554
vt 0.6387 0.1575
vt 0.6358 0.1581
vt 0.6333 0.1558
vt 0.6874 0.1119
vt 0.6874 0.1094
vt 0.7169 0.1094
vt 0.7169 0.1119
vn -0.0000 -0.0000 1.0000
vn 0.0000 0.0000 -1.0000
vn -0.4714 -0.8819 -0.0000
usemtl Material.001
s off
f 402/601/151 404/602/151 403/603/151 401/604/151
f 408/605/152 406/606/152 405/607/152 407/608/152
s 1
f 407/609/153 405/610/153 401/611/153 403/612/153
o Circle.047
v -6.160945 1.779478 -0.000004
v -5.034246 3.465702 -0.000003
v -7.841395 3.158589 -0.000003
v -6.407380 4.592603 -0.000003
v -6.160945 1.779482 -5.000003
v -5.555702 2.685291 -5.000003
v -7.841395 3.158591 -5.000003
v -7.071068 3.928919 -5.000003
vt 0.5062 0.1703
vt 0.5033 0.1686
vt 0.5079 0.1671
vt 0.5116 0.1692
vt 0.6353 0.1532
vt 0.6365 0.1554
vt 0.6333 0.1558
vt 0.6321 0.1533
vt 0.6874 0.1144
vt 0.6874 0.1119
vt 0.7169 0.1119
vt 0.7169 0.1144
vn -0.0000 -0.0000 1.0000
vn -0.0000 0.0000 -1.0000
vn -0.6344 -0.7730 -0.0000
usemtl Material.001
s off
f 410/613/154 412/614/154 411/615/154 409/616/154
f 416/617/155 414/618/155 413/619/155 415/620/155
s 1
f 415/621/156 413/622/156 409/623/156 411/624/156
o Circle.046
v -7.841395 3.158589 -0.000003
v -6.407380 4.592603 -0.000003
v -9.220506 4.839039 -0.000003
v -7.534282 5.965737 -0.000003
v -7.841395 3.158591 -5.000003
v -7.071068 3.928919 -5.000003
v -9.220506 4.839042 -5.000003
v -8.314697 5.444284 -5.000003
vt 0.5033 0.1686
vt 0.4997 0.1671
vt 0.5036 0.1653
vt 0.5079 0.1671
vt 0.6353 0.1509
vt 0.6353 0.1532
vt 0.6321 0.1533
vt 0.6321 0.1508
vt 0.6874 0.1167
vt 0.6874 0.1144
vt 0.7169 0.1144
vt 0.7169 0.1167
vn 0.0000 -0.0000 1.0000
vn 0.0000 0.0000 -1.0000
vn -0.7730 -0.6344 -0.0000
usemtl Material.001
s off
f 418/625/157 420/626/157 419/627/157 417/628/157
f 424/629/158 422/630/158 421/631/158 423/632/158
s 1
f 423/633/159 421/634/159 417/635/159 419/636/159
o Circle.045
v -9.220506 4.839039 -0.000003
v -7.534282 5.965737 -0.000003
v -10.245276 6.756253 -0.000003
v -8.371645 7.532337 -0.000003
v -9.220506 4.839042 -5.000003
v -8.314697 5.444284 -5.000003
v -10.245276 6.756255 -5.000003
v -9.238796 7.173155 -5.000003
vt 0.4997 0.1671
vt 0.4953 0.1660
vt 0.4982 0.1639
vt 0.5036 0.1653
vt 0.6365 0.1487
vt 0.6353 0.1509
vt 0.6321 0.1508
vt 0.6333 0.1483
vt 0.6874 0.1188
vt 0.6874 0.1167
vt 0.7169 0.1167
vt 0.7169 0.1188
vn -0.0000 -0.0000 1.0000
vn 0.0000 0.0000 -1.0000
vn -0.8819 -0.4714 -0.0000
usemtl Material.001
s off
f 426/637/160 428/638/160 427/639/160 425/640/160
f 432/641/161 430/642/161 429/643/161 431/644/161
s 1
f 431/645/162 429/646/162 425/647/162 427/648/162
o Circle.044
v -10.245276 6.756253 -0.000003
v -8.371645 7.532337 -0.000003
v -10.876328 8.836550 -0.000002
v -8.887291 9.232194 -0.000002
v -10.245276 6.756255 -5.000003
v -9.238796 7.173155 -5.000003
v -10.876328 8.836554 -5.000002
v -9.807854 9.049085 -5.000002
vt 0.4953 0.1660
vt 0.4904 0.1652
vt 0.4924 0.1630
vt 0.4982 0.1639
vt 0.6387 0.1466
vt 0.6365 0.1487
vt 0.6333 0.1483
vt 0.6358 0.1460
vt 0.7169 0.0808
vt 0.7169 0.0825
vt 0.6874 0.0825
vt 0.6874 0.0808
vn 0.0000 -0.0000 1.0000
vn 0.0000 0.0000 -1.0000
vn -0.9569 -0.2903 -0.0000
usemtl Material.001
s off
f 434/649/163 436/650/163 435/651/163 433/652/163
f 440/653/164 438/654/164 437/655/164 439/656/164
s 1
f 439/657/165 437/658/165 433/659/165 435/660/165
o Circle.043
v -10.876328 8.836550 -0.000002
v -8.887291 9.232194 -0.000002
v -11.089407 10.999985 -0.000002
v -9.061403 10.999985 -0.000002
v -10.876328 8.836554 -5.000002
v -9.807854 9.049085 -5.000002
v -11.089407 10.999988 -5.000002
v -10.000000 10.999988 -5.000002
vt 0.4904 0.1652
vt 0.4855 0.1648
vt 0.4860 0.1625
vt 0.4924 0.1630
vt 0.6419 0.1447
vt 0.6387 0.1466
vt 0.6358 0.1460
vt 0.6394 0.1439
vt 0.7169 0.0787
vt 0.7169 0.0808
vt 0.6874 0.0808
vt 0.6874 0.0787
vn 0.0000 -0.0000 1.0000
vn -0.0000 0.0000 -1.0000
vn -0.9952 -0.0980 -0.0000
usemtl Material.001
s off
f 442/661/166 444/662/166 443/663/166 441/664/166
f 448/665/167 446/666/167 445/667/167 447/668/167
s 1
f 447/669/168 445/670/168 441/671/168 443/672/168
o Circle.042
v -11.089407 10.999985 -0.000002
v -9.061403 10.999985 -0.000002
v -10.876328 13.163422 -0.000002
v -8.887291 12.767777 -0.000002
v -11.089407 10.999988 -5.000002
v -10.000000 10.999988 -5.000002
v -10.876328 13.163424 -5.000002
v -9.807853 12.950891 -5.000002
vt 0.4855 0.1648
vt 0.4802 0.1648
vt 0.4797 0.1625
vt 0.4860 0.1625
vt 0.6460 0.1431
vt 0.6419 0.1447
vt 0.6394 0.1439
vt 0.6441 0.1421
vt 0.7169 0.0763
vt 0.7169 0.0787
vt 0.6874 0.0787
vt 0.6874 0.0763
vn 0.0000 -0.0000 1.0000
vn 0.0000 0.0000 -1.0000
vn -0.9952 0.0980 0.0000
usemtl Material.001
s off
f 450/673/169 452/674/169 451/675/169 449/676/169
f 456/677/170 454/678/170 453/679/170 455/680/170
s 1
f 455/681/171 453/682/171 449/683/171 451/684/171
o Circle.041
v -10.876328 13.163422 -0.000002
v -8.887291 12.767777 -0.000002
v -10.245276 15.243717 -0.000001
v -8.371645 14.467633 -0.000001
v -10.876328 13.163424 -5.000002
v -9.807853 12.950891 -5.000002
v -10.245276 15.243718 -5.000001
v -9.238795 14.826821 -5.000001
vt 0.4802 0.1648
vt 0.4751 0.1652
vt 0.4734 0.1630
vt 0.4797 0.1625
vt 0.6509 0.1418
vt 0.6460 0.1431
vt 0.6441 0.1421
vt 0.6492 0.1407
vt 0.7169 0.0738
vt 0.7169 0.0763
vt 0.6874 0.0763
vt 0.6874 0.0738
vn 0.0000 -0.0000 1.0000
vn -0.0000 0.0000 -1.0000
vn -0.9569 0.2903 0.0000
usemtl Material.001
s off
f 458/685/172 460/686/172 459/687/172 457/688/172
f 464/689/173 462/690/173 461/691/173 463/692/173
s 1
f 463/693/174 461/694/174 457/695/174 459/696/174
o Circle.040
v -10.245276 15.243717 -0.000001
v -8.371645 14.467633 -0.000001
v -9.220506 17.160927 -0.000001
v -7.534282 16.034229 -0.000001
v -10.245276 15.243718 -5.000001
v -9.238795 14.826821 -5.000001
v -9.220506 17.160931 -5.000001
v -8.314697 16.555689 -5.000001
vt 0.4751 0.1652
vt 0.4702 0.1660
vt 0.4673 0.1639
vt 0.4734 0.1630
vt 0.6560 0.1409
vt 0.6509 0.1418
vt 0.6492 0.1407
vt 0.6553 0.1397
vt 0.7169 0.0713
vt 0.7169 0.0738
vt 0.6874 0.0738
vt 0.6874 0.0713
vn 0.0000 -0.0000 1.0000
vn 0.0000 0.0000 -1.0000
vn -0.8819 0.4714 0.0000
usemtl Material.001
s off
f 466/697/175 468/698/175 467/699/175 465/700/175
f 472/701/176 470/702/176 469/703/176 471/704/176
s 1
f 471/705/177 469/706/177 465/707/177 467/708/177
o Circle.039
v -9.220506 17.160927 -0.000001
v -7.534282 16.034229 -0.000001
v -7.841395 18.841377 -0.000001
v -6.407380 17.407364 -0.000001
v -9.220506 17.160931 -5.000001
v -8.314697 16.555689 -5.000001
v -7.841395 18.841379 -5.000001
v -7.071068 18.071054 -5.000001
vt 0.4702 0.1660
vt 0.4658 0.1671
vt 0.4622 0.1653
vt 0.4673 0.1639
vt 0.6618 0.1405
vt 0.6560 0.1409
vt 0.6553 0.1397
vt 0.6614 0.1392
vt 0.7169 0.0688
vt 0.7169 0.0713
vt 0.6874 0.0713
vt 0.6874 0.0688
vn 0.0000 -0.0000 1.0000
vn 0.0000 0.0000 -1.0000
vn -0.7730 0.6344 0.0000
usemtl Material.001
s off
f 474/709/178 476/710/178 475/711/178 473/712/178
f 480/713/179 478/714/179 477/715/179 479/716/179
s 1
f 479/717/180 477/718/180 473/719/180 475/720/180
o Circle.038
v -7.841395 18.841377 -0.000001
v -6.407380 17.407364 -0.000001
v -6.160945 20.220490 -0.000001
v -5.034246 18.534266 -0.000001
v -7.841395 18.841379 -5.000001
v -7.071068 18.071054 -5.000001
v -6.160945 20.220491 -5.000000
v -5.555703 19.314682 -5.000000
vt 0.4658 0.1671
vt 0.4622 0.1686
vt 0.4575 0.1671
vt 0.4622 0.1653
vt 0.6674 0.1405
vt 0.6618 0.1405
vt 0.6614 0.1392
vt 0.6679 0.1392
vt 0.7169 0.0665
vt 0.7169 0.0688
vt 0.6874 0.0688
vt 0.6874 0.0665
vn 0.0000 -0.0000 1.0000
vn 0.0000 0.0000 -1.0000
vn -0.6344 0.7730 0.0000
usemtl Material.001
s off
f 482/721/181 484/722/181 483/723/181 481/724/181
f 488/725/182 486/726/182 485/727/182 487/728/182
s 1
f 487/729/183 485/730/183 481/731/183 483/732/183
o Circle.037
v -6.160945 20.220490 -0.000001
v -5.034246 18.534266 -0.000001
v -4.243733 21.245260 -0.000000
v -3.467649 19.371628 -0.000001
v -6.160945 20.220491 -5.000000
v -5.555703 19.314682 -5.000000
v -4.243733 21.245262 -5.000000
v -3.826835 20.238781 -5.000000
vt 0.4622 0.1686
vt 0.4592 0.1703
vt 0.4539 0.1692
vt 0.4575 0.1671
vt 0.6733 0.1409
vt 0.6674 0.1405
vt 0.6679 0.1392
vt 0.6743 0.1397
vt 0.7169 0.0644
vt 0.7169 0.0665
vt 0.6874 0.0665
vt 0.6874 0.0644
vn -0.0000 -0.0000 1.0000
vn 0.0000 0.0000 -1.0000
vn -0.4714 0.8819 0.0000
usemtl Material.001
s off
f 490/733/184 492/734/184 491/735/184 489/736/184
f 496/737/185 494/738/185 493/739/185 495/740/185
s 1
f 495/741/186 493/742/186 489/743/186 491/744/186
o Circle.036
v -4.243733 21.245260 -0.000000
v -3.467649 19.371628 -0.000001
v -2.163437 21.876312 -0.000000
v -1.767793 19.887276 -0.000001
v -4.243733 21.245262 -5.000000
v -3.826835 20.238781 -5.000000
v -2.163437 21.876316 -5.000000
v -1.950904 20.807838 -5.000000
vt 0.4592 0.1703
vt 0.4573 0.1722
vt 0.4517 0.1715
vt 0.4539 0.1692
vt 0.6786 0.1418
vt 0.6733 0.1409
vt 0.6743 0.1397
vt 0.6801 0.1407
vt 0.5627 0.1806
vt 0.5627 0.1824
vt 0.5333 0.1824
vt 0.5333 0.1806
vn 0.0000 -0.0000 1.0000
vn -0.0000 0.0000 -1.0000
vn -0.2903 0.9569 0.0000
usemtl Material.001
s off
f 498/745/187 500/746/187 499/747/187 497/748/187
f 504/749/188 502/750/188 501/751/188 503/752/188
s 1
f 503/753/189 501/754/189 497/755/189 499/756/189
o Circle.035
v -0.000001 20.999987 -5.000000
v -1.950904 20.807838 -5.000000
v -2.163437 21.876316 -5.000000
v -0.000001 22.089394 -5.000000
v -1.767793 19.887276 -0.000001
v 0.000000 20.061386 -0.000001
v -0.000001 22.089390 -0.000000
v -2.163437 21.876312 -0.000000
vt 0.6833 0.1431
vt 0.6786 0.1418
vt 0.6801 0.1407
vt 0.6855 0.1421
vt 0.4573 0.1722
vt 0.4563 0.1742
vt 0.4502 0.1740
vt 0.4517 0.1715
vt 0.5627 0.1785
vt 0.5627 0.1806
vt 0.5333 0.1806
vt 0.5333 0.1785
vn 0.0000 0.0000 -1.0000
vn 0.0000 -0.0000 1.0000
vn -0.0980 0.9952 0.0000
usemtl Material.001
s off
f 505/757/190 506/758/190 507/759/190 508/760/190
f 509/761/191 510/762/191 511/763/191 512/764/191
s 1
f 508/765/192 507/766/192 512/767/192 511/768/192
o Circle.034
v 1.767777 19.887276 -0.000001
v 0.000000 20.061386 -0.000001
v 1.767777 19.887304 -50.000000
v 0.000000 20.061417 -50.000000
v 1.950887 20.807842 -5.000000
v -0.000001 20.999987 -5.000000
v 1.950887 20.807865 -45.000000
v -0.000001 21.000011 -45.000000
vt 0.3845 0.0463
vt 0.3845 0.1625
vt 0.3796 0.1625
vt 0.3796 0.0463
vt 0.5620 0.5726
vt 0.5462 0.5726
vt 0.5462 0.3142
vt 0.5620 0.3142
vn -0.0980 -0.9952 -0.0000
vn 0.0980 0.9952 0.0000
usemtl Material.001
s 1
f 515/769/193 513/770/193 514/771/193 516/772/193
f 519/773/194 520/774/194 518/775/194 517/776/194
o Circle.033
v 1.767777 19.887276 -0.000001
v 3.467635 19.371634 -0.000001
v 1.767777 19.887304 -50.000000
v 3.467636 19.371662 -50.000000
v 1.950887 20.807842 -5.000000
v 3.826820 20.238789 -5.000000
v 1.950887 20.807865 -45.000000
v 3.826820 20.238811 -45.000000
vt 0.3896 0.0463
vt 0.3896 0.1625
vt 0.3845 0.1625
vt 0.3845 0.0463
vt 0.5778 0.5726
vt 0.5620 0.5726
vt 0.5620 0.3142
vt 0.5778 0.3142
vn -0.2903 -0.9569 -0.0000
vn 0.2903 0.9569 0.0000
usemtl Material.001
s 1
f 524/777/195 522/778/195 521/779/195 523/780/195
f 528/781/196 527/782/196 525/783/196 526/784/196
o Circle.032
v 3.467635 19.371634 -0.000001
v 5.034233 18.534271 -0.000001
v 3.467636 19.371662 -50.000000
v 5.034234 18.534300 -50.000000
v 3.826820 20.238789 -5.000000
v 5.555689 19.314690 -5.000000
v 3.826820 20.238811 -45.000000
v 5.555689 19.314714 -45.000000
vt 0.3947 0.0463
vt 0.3947 0.1625
vt 0.3896 0.1625
vt 0.3896 0.0463
vt 0.5937 0.5726
vt 0.5778 0.5726
vt 0.5778 0.3142
vt 0.5937 0.3142
vn -0.4714 -0.8819 -0.0000
vn 0.4714 0.8819 0.0000
usemtl Material.001
s 1
f 532/785/197 530/786/197 529/787/197 531/788/197
f 536/789/198 535/790/198 533/791/198 534/792/198
o Circle.031
v 5.034233 18.534271 -0.000001
v 6.407370 17.407372 -0.000001
v 5.034234 18.534300 -50.000000
v 6.407370 17.407400 -50.000000
v 5.555689 19.314690 -5.000000
v 7.071057 18.071062 -5.000001
v 5.555689 19.314714 -45.000000
v 7.071057 18.071089 -45.000000
vt 0.3998 0.0463
vt 0.3998 0.1625
vt 0.3947 0.1625
vt 0.3947 0.0463
vt 0.6095 0.5726
vt 0.5937 0.5726
vt 0.5937 0.3142
vt 0.6095 0.3142
vn -0.6344 -0.7730 -0.0000
vn 0.6344 0.7730 0.0000
usemtl Material.001
s 1
f 540/793/199 538/794/199 537/795/199 539/796/199
f 544/797/200 543/798/200 541/799/200 542/800/200
o Circle.030
v 6.407370 17.407372 -0.000001
v 7.534273 16.034237 -0.000001
v 6.407370 17.407400 -50.000000
v 7.534273 16.034267 -50.000000
v 7.071057 18.071062 -5.000001
v 8.314688 16.555700 -5.000001
v 7.071057 18.071089 -45.000000
v 8.314688 16.555725 -45.000000
vt 0.4047 0.0463
vt 0.4047 0.1625
vt 0.3998 0.1625
vt 0.3998 0.0463
vt 0.6253 0.5726
vt 0.6095 0.5726
vt 0.6095 0.3142
vt 0.6253 0.3142
vn -0.7730 -0.6344 -0.0000
vn 0.7730 0.6344 0.0000
usemtl Material.001
s 1
f 548/801/201 546/802/201 545/803/201 547/804/201
f 552/805/202 551/806/202 549/807/202 550/808/202
o Circle.029
v 7.534273 16.034237 -0.000001
v 8.371638 14.467643 -0.000001
v 7.534273 16.034267 -50.000000
v 8.371638 14.467671 -50.000000
v 8.314688 16.555700 -5.000001
v 9.238789 14.826832 -5.000001
v 8.314688 16.555725 -45.000000
v 9.238789 14.826857 -45.000000
vt 0.4091 0.0463
vt 0.4091 0.1625
vt 0.4047 0.1625
vt 0.4047 0.0463
vt 0.6411 0.5726
vt 0.6253 0.5726
vt 0.6253 0.3142
vt 0.6411 0.3142
vn -0.8819 -0.4714 -0.0000
vn 0.8819 0.4714 0.0000
usemtl Material.001
s 1
f 556/809/203 554/810/203 553/811/203 555/812/203
f 560/813/204 559/814/204 557/815/204 558/816/204
o Circle.028
v 8.371638 14.467643 -0.000001
v 8.887287 12.767786 -0.000002
v 8.371638 14.467671 -50.000000
v 8.887287 12.767815 -50.000000
v 9.238789 14.826832 -5.000001
v 9.807849 12.950901 -5.000002
v 9.238789 14.826857 -45.000000
v 9.807849 12.950925 -45.000000
vt 0.4127 0.0463
vt 0.4127 0.1625
vt 0.4091 0.1625
vt 0.4091 0.0463
vt 0.6570 0.5726
vt 0.6411 0.5726
vt 0.6411 0.3142
vt 0.6570 0.3142
vn -0.9569 -0.2903 -0.0000
vn 0.9569 0.2903 0.0000
usemtl Material.001
s 1
f 564/817/205 562/818/205 561/819/205 563/820/205
f 568/821/206 567/822/206 565/823/206 566/824/206
o Circle.027
v 8.887287 12.767786 -0.000002
v 9.061401 10.999993 -0.000002
v 8.887287 12.767815 -50.000000
v 9.061401 11.000022 -50.000004
v 9.807849 12.950901 -5.000002
v 9.999998 10.999997 -5.000002
v 9.807849 12.950925 -45.000000
v 9.999998 11.000021 -45.000004
vt 0.5376 0.0463
vt 0.5376 0.1625
vt 0.5333 0.1625
vt 0.5333 0.0463
vt 0.6728 0.5726
vt 0.6570 0.5726
vt 0.6570 0.3142
vt 0.6728 0.3142
vn -0.9952 -0.0980 -0.0000
vn 0.9952 0.0980 0.0000
usemtl Material.001
s 1
f 572/825/207 570/826/207 569/827/207 571/828/207
f 576/829/208 575/830/208 573/831/208 574/832/208
o Circle.026
v 9.061401 10.999993 -0.000002
v 8.887290 9.232201 -0.000002
v 9.061401 11.000022 -50.000004
v 8.887290 9.232229 -50.000004
v 9.999998 10.999997 -5.000002
v 9.807853 9.049093 -5.000002
v 9.999998 11.000021 -45.000004
v 9.807853 9.049117 -45.000004
vt 0.5425 0.0463
vt 0.5425 0.1625
vt 0.5376 0.1625
vt 0.5376 0.0463
vt 0.6886 0.5726
vt 0.6728 0.5726
vt 0.6728 0.3142
vt 0.6886 0.3142
vn -0.9952 0.0980 0.0000
vn 0.9952 -0.0980 -0.0000
usemtl Material.001
s 1
f 580/833/209 578/834/209 577/835/209 579/836/209
f 584/837/210 583/838/210 581/839/210 582/840/210
o Circle.025
v 8.887290 9.232201 -0.000002
v 8.371646 7.532342 -0.000003
v 8.887290 9.232229 -50.000004
v 8.371646 7.532370 -50.000004
v 9.807853 9.049093 -5.000002
v 9.238797 7.173160 -5.000003
v 9.807853 9.049117 -45.000004
v 9.238797 7.173183 -45.000004
vt 0.5476 0.0463
vt 0.5476 0.1625
vt 0.5425 0.1625
vt 0.5425 0.0463
vt 0.7042 0.5726
vt 0.6886 0.5726
vt 0.6886 0.3142
vt 0.7042 0.3142
vn -0.9569 0.2903 0.0000
vn 0.9569 -0.2903 -0.0000
usemtl Material.001
s 1
f 588/841/211 586/842/211 585/843/211 587/844/211
f 592/845/212 591/846/212 589/847/212 590/848/212
o Circle.024
v 8.371646 7.532342 -0.000003
v 7.534283 5.965743 -0.000003
v 8.371646 7.532370 -50.000004
v 7.534282 5.965771 -50.000004
v 9.238797 7.173160 -5.000003
v 8.314698 5.444290 -5.000003
v 9.238797 7.173183 -45.000004
v 8.314698 5.444314 -45.000004
vt 0.5530 0.0463
vt 0.5530 0.1625
vt 0.5476 0.1625
vt 0.5476 0.0463
vt 0.7200 0.5726
vt 0.7042 0.5726
vt 0.7042 0.3142
vt 0.7200 0.3142
vn -0.8819 0.4714 0.0000
vn 0.8819 -0.4714 -0.0000
usemtl Material.001
s 1
f 596/849/213 594/850/213 593/851/213 595/852/213
f 600/853/214 599/854/214 597/855/214 598/856/214
o Circle.023
v 7.534283 5.965743 -0.000003
v 6.407382 4.592608 -0.000003
v 7.534282 5.965771 -50.000004
v 6.407382 4.592637 -50.000004
v 8.314698 5.444290 -5.000003
v 7.071071 3.928922 -5.000003
v 7.071071 3.928947 -45.000004
v 8.314698 5.444314 -45.000004
vt 0.5581 0.0463
vt 0.5581 0.1625
vt 0.5530 0.1625
vt 0.5530 0.0463
vt 0.7359 0.5726
vt 0.7200 0.5726
vt 0.7200 0.3142
vt 0.7359 0.3142
vn -0.7730 0.6344 0.0000
vn 0.7730 -0.6344 -0.0000
usemtl Material.001
s 1
f 604/857/215 602/858/215 601/859/215 603/860/215
f 607/861/216 608/862/216 605/863/216 606/864/216
o Circle.022
v 6.407382 4.592608 -0.000003
v 5.034249 3.465705 -0.000003
v 6.407382 4.592637 -50.000004
v 5.034248 3.465734 -50.000004
v 5.555706 2.685317 -45.000004
v 7.071071 3.928922 -5.000003
v 5.555706 2.685294 -5.000003
v 7.071071 3.928947 -45.000004
vt 0.5630 0.0463
vt 0.5630 0.1625
vt 0.5581 0.1625
vt 0.5581 0.0463
vt 0.7517 0.5726
vt 0.7359 0.5726
vt 0.7359 0.3142
vt 0.7517 0.3142
vn -0.6344 0.7730 0.0000
vn 0.6344 -0.7730 -0.0000
usemtl Material.001
s 1
f 612/865/217 610/866/217 609/867/217 611/868/217
f 613/869/218 616/870/218 614/871/218 615/872/218
o Circle.021
v 5.034249 3.465705 -0.000003
v 3.467652 2.628340 -0.000003
v 5.034248 3.465734 -50.000004
v 3.467651 2.628369 -50.000004
v 5.555706 2.685317 -45.000004
v 3.826838 1.761217 -45.000004
v 5.555706 2.685294 -5.000003
v 3.826838 1.761194 -5.000003
vt 0.5671 0.0463
vt 0.5671 0.1625
vt 0.5630 0.1625
vt 0.5630 0.0463
vt 0.7675 0.5726
vt 0.7517 0.5726
vt 0.7517 0.3142
vt 0.7675 0.3142
vn -0.4714 0.8819 0.0000
vn 0.4714 -0.8819 -0.0000
usemtl Material.001
s 1
f 620/873/219 618/874/219 617/875/219 619/876/219
f 622/877/220 621/878/220 623/879/220 624/880/220
o Circle.020
v 3.467652 2.628340 -0.000003
v 1.767796 2.112694 -0.000003
v 3.467651 2.628369 -50.000004
v 1.767796 2.112722 -50.000004
v 3.826838 1.761217 -45.000004
v 1.950906 1.192158 -45.000004
v 3.826838 1.761194 -5.000003
v 1.950906 1.192135 -5.000004
vt 0.4466 0.1625
vt 0.4466 0.0463
vt 0.4502 0.0463
vt 0.4502 0.1625
vt 0.7833 0.5726
vt 0.7675 0.5726
vt 0.7675 0.3142
vt 0.7833 0.3142
vn -0.2903 0.9569 0.0000
vn 0.2903 -0.9569 -0.0000
usemtl Material.001
s 1
f 628/881/221 626/882/221 625/883/221 627/884/221
f 630/885/222 629/886/222 631/887/222 632/888/222
o Circle.019
v 1.767796 2.112694 -0.000003
v 0.000002 1.938582 -0.000003
v 1.767796 2.112722 -50.000004
v 0.000002 1.938611 -50.000004
v 1.950906 1.192158 -45.000004
v 0.000002 1.000012 -45.000004
v 1.950906 1.192135 -5.000004
v 0.000002 0.999989 -5.000004
vt 0.4422 0.1625
vt 0.4422 0.0463
vt 0.4466 0.0463
vt 0.4466 0.1625
vt 0.7992 0.5726
vt 0.7833 0.5726
vt 0.7833 0.3142
vt 0.7992 0.3142
vn -0.0980 0.9952 0.0000
vn 0.0980 -0.9952 -0.0000
usemtl Material.001
s 1
f 636/889/223 634/890/223 633/891/223 635/892/223
f 638/893/224 637/894/224 639/895/224 640/896/224
o Circle.018
v 0.000002 1.938582 -0.000003
v -1.767791 2.112693 -0.000003
v 0.000002 1.938611 -50.000004
v -1.767792 2.112722 -50.000004
v 0.000002 1.000012 -45.000004
v -1.950902 1.192157 -45.000004
v 0.000002 0.999989 -5.000004
v -1.950902 1.192134 -5.000004
vt 0.4373 0.1625
vt 0.4373 0.0463
vt 0.4422 0.0463
vt 0.4422 0.1625
vt 0.8150 0.5726
vt 0.7992 0.5726
vt 0.7992 0.3142
vt 0.8150 0.3142
vn 0.0980 0.9952 0.0000
vn -0.0980 -0.9952 -0.0000
usemtl Material.001
s 1
f 644/897/225 642/898/225 641/899/225 643/900/225
f 646/901/226 645/902/226 647/903/226 648/904/226
o Circle.017
v -1.767791 2.112693 -0.000003
v -3.467648 2.628339 -0.000003
v -1.767792 2.112722 -50.000004
v -3.467648 2.628366 -50.000004
v -3.826833 1.761191 -5.000003
v -1.950902 1.192157 -45.000004
v -3.826833 1.761214 -45.000004
v -1.950902 1.192134 -5.000004
vt 0.4322 0.1625
vt 0.4322 0.0463
vt 0.4373 0.0463
vt 0.4373 0.1625
vt 0.3248 0.5726
vt 0.3090 0.5726
vt 0.3090 0.3142
vt 0.3248 0.3142
vn 0.2903 0.9569 0.0000
vn -0.2903 -0.9569 -0.0000
usemtl Material.001
s 1
f 652/905/227 650/906/227 649/907/227 651/908/227
f 655/909/228 654/910/228 656/911/228 653/912/228
o Circle.016
v -3.467648 2.628339 -0.000003
v -5.034246 3.465702 -0.000003
v -3.467648 2.628366 -50.000004
v -5.034245 3.465730 -50.000004
v -3.826833 1.761191 -5.000003
v -5.555702 2.685291 -5.000003
v -3.826833 1.761214 -45.000004
v -5.555702 2.685315 -45.000004
vt 0.4271 0.1625
vt 0.4271 0.0463
vt 0.4322 0.0463
vt 0.4322 0.1625
vt 0.3407 0.5726
vt 0.3248 0.5726
vt 0.3248 0.3142
vt 0.3407 0.3142
vn 0.4714 0.8819 0.0000
vn -0.4714 -0.8819 -0.0000
usemtl Material.001
s 1
f 660/913/229 658/914/229 657/915/229 659/916/229
f 664/917/230 663/918/230 661/919/230 662/920/230
o Circle.015
v -5.034246 3.465702 -0.000003
v -6.407380 4.592603 -0.000003
v -5.034245 3.465730 -50.000004
v -6.407380 4.592633 -50.000004
v -5.555702 2.685291 -5.000003
v -7.071068 3.928919 -5.000003
v -5.555702 2.685315 -45.000004
v -7.071068 3.928943 -45.000004
vt 0.4220 0.1625
vt 0.4220 0.0463
vt 0.4271 0.0463
vt 0.4271 0.1625
vt 0.3565 0.5726
vt 0.3407 0.5726
vt 0.3407 0.3142
vt 0.3565 0.3142
vn 0.6344 0.7730 0.0000
vn -0.6344 -0.7730 -0.0000
usemtl Material.001
s 1
f 668/921/231 666/922/231 665/923/231 667/924/231
f 672/925/232 671/926/232 669/927/232 670/928/232
o Circle.014
v -6.407380 4.592603 -0.000003
v -7.534282 5.965737 -0.000003
v -6.407380 4.592633 -50.000004
v -7.534282 5.965766 -50.000004
v -7.071068 3.928919 -5.000003
v -8.314697 5.444284 -5.000003
v -7.071068 3.928943 -45.000004
v -8.314697 5.444308 -45.000004
vt 0.4171 0.1625
vt 0.4171 0.0463
vt 0.4220 0.0463
vt 0.4220 0.1625
vt 0.3723 0.5726
vt 0.3565 0.5726
vt 0.3565 0.3142
vt 0.3723 0.3142
vn 0.7730 0.6344 0.0000
vn -0.7730 -0.6344 -0.0000
usemtl Material.001
s 1
f 676/929/233 674/930/233 673/931/233 675/932/233
f 680/933/234 679/934/234 677/935/234 678/936/234
o Circle.013
v -7.534282 5.965737 -0.000003
v -8.371645 7.532337 -0.000003
v -7.534282 5.965766 -50.000004
v -8.371645 7.532365 -50.000004
v -8.314697 5.444284 -5.000003
v -9.238796 7.173155 -5.000003
v -8.314697 5.444308 -45.000004
v -9.238796 7.173178 -45.000004
vt 0.4127 0.1625
vt 0.4127 0.0463
vt 0.4171 0.0463
vt 0.4171 0.1625
vt 0.3881 0.5726
vt 0.3723 0.5726
vt 0.3723 0.3142
vt 0.3881 0.3142
vn 0.8819 0.4714 0.0000
vn -0.8819 -0.4714 -0.0000
usemtl Material.001
s 1
f 684/937/235 682/938/235 681/939/235 683/940/235
f 688/941/236 687/942/236 685/943/236 686/944/236
o Circle.012
v -8.371645 7.532337 -0.000003
v -8.887291 9.232194 -0.000002
v -8.371645 7.532365 -50.000004
v -8.887291 9.232223 -50.000004
v -9.238796 7.173155 -5.000003
v -9.807854 9.049085 -5.000002
v -9.238796 7.173178 -45.000004
v -9.807854 9.049109 -45.000004
vt 0.4841 0.1625
vt 0.4841 0.0463
vt 0.4877 0.0463
vt 0.4877 0.1625
vt 0.4040 0.5726
vt 0.3881 0.5726
vt 0.3881 0.3142
vt 0.4040 0.3142
vn 0.9569 0.2903 0.0000
vn -0.9569 -0.2903 -0.0000
usemtl Material.001
s 1
f 692/945/237 690/946/237 689/947/237 691/948/237
f 696/949/238 695/950/238 693/951/238 694/952/238
o Circle.011
v -8.887291 9.232194 -0.000002
v -9.061403 10.999985 -0.000002
v -8.887291 9.232223 -50.000004
v -9.061403 11.000014 -50.000004
v -9.807854 9.049085 -5.000002
v -10.000000 10.999988 -5.000002
v -9.807854 9.049109 -45.000004
v -10.000000 11.000012 -45.000004
vt 0.4799 0.1625
vt 0.4799 0.0463
vt 0.4841 0.0463
vt 0.4841 0.1625
vt 0.4198 0.5726
vt 0.4040 0.5726
vt 0.4040 0.3142
vt 0.4198 0.3142
vn 0.9952 0.0980 0.0000
vn -0.9952 -0.0980 -0.0000
usemtl Material.001
s 1
f 700/953/239 698/954/239 697/955/239 699/956/239
f 704/957/240 703/958/240 701/959/240 702/960/240
o Circle.010
v -9.061403 10.999985 -0.000002
v -8.887291 12.767777 -0.000002
v -9.061403 11.000014 -50.000004
v -8.887291 12.767806 -50.000000
v -10.000000 10.999988 -5.000002
v -9.807853 12.950891 -5.000002
v -10.000000 11.000012 -45.000004
v -9.807853 12.950915 -45.000000
vt 0.4751 0.1625
vt 0.4751 0.0463
vt 0.4799 0.0463
vt 0.4799 0.1625
vt 0.4356 0.5726
vt 0.4198 0.5726
vt 0.4198 0.3142
vt 0.4356 0.3142
vn 0.9952 -0.0980 -0.0000
vn -0.9952 0.0980 0.0000
usemtl Material.001
s 1
f 708/961/241 706/962/241 705/963/241 707/964/241
f 712/965/242 711/966/242 709/967/242 710/968/242
o Circle.009
v -8.887291 12.767777 -0.000002
v -8.371645 14.467633 -0.000001
v -8.887291 12.767806 -50.000000
v -8.371645 14.467662 -50.000000
v -9.807853 12.950891 -5.000002
v -9.238795 14.826821 -5.000001
v -9.807853 12.950915 -45.000000
v -9.238795 14.826845 -45.000000
vt 0.4700 0.1625
vt 0.4700 0.0463
vt 0.4751 0.0463
vt 0.4751 0.1625
vt 0.4514 0.5726
vt 0.4356 0.5726
vt 0.4356 0.3142
vt 0.4514 0.3142
vn 0.9569 -0.2903 -0.0000
vn -0.9569 0.2903 0.0000
usemtl Material.001
s 1
f 716/969/243 714/970/243 713/971/243 715/972/243
f 720/973/244 719/974/244 717/975/244 718/976/244
o Circle.008
v -8.371645 14.467633 -0.000001
v -7.534282 16.034229 -0.000001
v -8.371645 14.467662 -50.000000
v -7.534282 16.034256 -50.000000
v -9.238795 14.826821 -5.000001
v -8.314697 16.555689 -5.000001
v -9.238795 14.826845 -45.000000
v -8.314697 16.555714 -45.000000
vt 0.4646 0.1625
vt 0.4646 0.0463
vt 0.4700 0.0463
vt 0.4700 0.1625
vt 0.4673 0.5726
vt 0.4514 0.5726
vt 0.4514 0.3142
vt 0.4673 0.3142
vn 0.8819 -0.4714 -0.0000
vn -0.8819 0.4714 0.0000
usemtl Material.001
s 1
f 724/977/245 722/978/245 721/979/245 723/980/245
f 728/981/246 727/982/246 725/983/246 726/984/246
o Circle.007
v -7.534282 16.034229 -0.000001
v -6.407380 17.407364 -0.000001
v -7.534282 16.034256 -50.000000
v -6.407379 17.407391 -50.000000
v -8.314697 16.555689 -5.000001
v -7.071068 18.071054 -5.000001
v -8.314697 16.555714 -45.000000
v -7.071068 18.071079 -45.000000
vt 0.4595 0.1625
vt 0.4595 0.0463
vt 0.4646 0.0463
vt 0.4646 0.1625
vt 0.4829 0.5726
vt 0.4673 0.5726
vt 0.4673 0.3142
vt 0.4829 0.3142
vn 0.7730 -0.6344 -0.0000
vn -0.7730 0.6344 0.0000
usemtl Material.001
s 1
f 732/985/247 730/986/247 729/987/247 731/988/247
f 736/989/248 735/990/248 733/991/248 734/992/248
o Circle.006
v -6.407380 17.407364 -0.000001
v -5.034246 18.534266 -0.000001
v -6.407379 17.407391 -50.000000
v -5.034247 18.534294 -50.000000
v -7.071068 18.071054 -5.000001
v -5.555703 19.314682 -5.000000
v -7.071068 18.071079 -45.000000
v -5.555703 19.314707 -45.000000
vt 0.4546 0.1625
vt 0.4546 0.0463
vt 0.4595 0.0463
vt 0.4595 0.1625
vt 0.4987 0.5726
vt 0.4829 0.5726
vt 0.4829 0.3142
vt 0.4987 0.3142
vn 0.6344 -0.7730 -0.0000
vn -0.6344 0.7730 0.0000
usemtl Material.001
s 1
f 740/993/249 738/994/249 737/995/249 739/996/249
f 744/997/250 743/998/250 741/999/250 742/1000/250
o Circle.005
v -5.034246 18.534266 -0.000001
v -3.467649 19.371628 -0.000001
v -5.034247 18.534294 -50.000000
v -3.467650 19.371655 -50.000000
v -5.555703 19.314682 -5.000000
v -3.826835 20.238781 -5.000000
v -5.555703 19.314707 -45.000000
v -3.826835 20.238806 -45.000000
vt 0.4502 0.1625
vt 0.4502 0.0463
vt 0.4546 0.0463
vt 0.4546 0.1625
vt 0.5145 0.5726
vt 0.4987 0.5726
vt 0.4987 0.3142
vt 0.5145 0.3142
vn 0.4714 -0.8819 -0.0000
vn -0.4714 0.8819 0.0000
usemtl Material.001
s 1
f 748/1001/251 746/1002/251 745/1003/251 747/1004/251
f 752/1005/252 751/1006/252 749/1007/252 750/1008/252
o Circle.004
v -3.467649 19.371628 -0.000001
v -1.767793 19.887276 -0.000001
v -3.467650 19.371655 -50.000000
v -1.767792 19.887302 -50.000000
v -3.826835 20.238781 -5.000000
v -1.950904 20.807838 -5.000000
v -3.826835 20.238806 -45.000000
v -1.950904 20.807863 -45.000000
vt 0.3752 0.0463
vt 0.3752 0.1625
vt 0.3716 0.1625
vt 0.3716 0.0463
vt 0.5303 0.5726
vt 0.5145 0.5726
vt 0.5145 0.3142
vt 0.5303 0.3142
vn 0.2903 -0.9569 -0.0000
vn -0.2903 0.9569 0.0000
usemtl Material.001
s 1
f 756/1009/253 754/1010/253 753/1011/253 755/1012/253
f 760/1013/254 759/1014/254 757/1015/254 758/1016/254
o Circle.003
v -1.950904 20.807863 -45.000000
v -0.000001 21.000011 -45.000000
v -0.000001 20.999987 -5.000000
v -1.950904 20.807838 -5.000000
v 0.000000 20.061417 -50.000000
v -1.767792 19.887302 -50.000000
v -1.767793 19.887276 -0.000001
v 0.000000 20.061386 -0.000001
vt 0.5462 0.5726
vt 0.5303 0.5726
vt 0.5303 0.3142
vt 0.5462 0.3142
vt 0.3796 0.0463
vt 0.3796 0.1625
vt 0.3752 0.1625
vt 0.3752 0.0463
vn -0.0980 0.9952 0.0000
vn 0.0980 -0.9952 -0.0000
usemtl Material.001
s 1
f 762/1017/255 761/1018/255 764/1019/255 763/1020/255
f 765/1021/256 768/1022/256 767/1023/256 766/1024/256
