# Blender v2.79 (sub 0) OBJ File: 'CGBurger.blend'
# www.blender.org
mtllib CGBurger_col.mtl
o Plane
v -10.128279 -9.795675 0.000000
v -10.434337 4.413196 0.000000
v -9.940231 6.544389 0.000000
v -8.961594 8.074429 0.000000
v -7.524882 9.517037 0.000000
v -6.048445 10.435061 0.000000
v -2.136495 11.659092 0.000000
v -9.701655 -10.011907 -0.000000
v -9.933665 -9.795675 1.975929
v -10.233844 4.413196 2.035638
v -9.749233 6.544389 1.939243
v -8.789399 8.074429 1.748320
v -7.380293 9.517037 1.468032
v -5.932226 10.435061 1.179993
v -2.095443 11.659092 0.416809
v -9.515241 -10.011907 1.892699
v -9.357308 -9.795675 3.875925
v -9.640070 4.413196 3.993048
v -9.183577 6.544389 3.803962
v -8.279433 8.074429 3.429454
v -6.952084 9.517037 2.879648
v -5.588034 10.435061 2.314640
v -1.973864 11.659092 0.817601
v -8.963161 -10.011907 3.712663
v -8.421355 -9.795675 5.626970
v -8.675834 4.413196 5.797008
v -8.265000 6.544389 5.522497
v -7.451293 8.074429 4.978795
v -6.256711 9.517037 4.180601
v -5.029098 10.435061 3.360336
v -1.776430 11.659092 1.186973
v -8.066631 -10.011907 5.389951
v -7.161774 -9.795675 7.161774
v -7.378190 4.413196 7.378190
v -7.028805 6.544389 7.028805
v -6.336803 8.074429 6.336803
v -5.320895 9.517037 5.320895
v -4.276896 10.435061 4.276896
v -1.510730 11.659092 1.510730
v -6.860106 -10.011907 6.860106
v -5.626970 -9.795675 8.421356
v -5.797007 4.413196 8.675835
v -5.522496 6.544389 8.265001
v -4.978794 8.074429 7.451293
v -4.180600 9.517037 6.256711
v -3.360336 10.435061 5.029099
v -1.186973 11.659092 1.776431
v -5.389950 -10.011907 8.066632
v -3.875924 -9.795675 9.357308
v -3.993048 4.413196 9.640070
v -3.803962 6.544389 9.183577
v -3.429453 8.074429 8.279433
v -2.879647 9.517037 6.952084
v -2.314640 10.435061 5.588034
v -0.817601 11.659092 1.973864
v -3.712662 -10.011907 8.963161
v -1.975928 -9.795675 9.933666
v -2.035637 4.413196 10.233845
v -1.939242 6.544389 9.749233
v -1.748319 8.074429 8.789399
v -1.468031 9.517037 7.380294
v -1.179993 10.435061 5.932226
v -0.416809 11.659092 2.095443
v -1.892698 -10.011907 9.515241
v 0.000000 -9.795675 10.128279
v 0.000000 4.413196 10.434337
v 0.000000 6.544389 9.940231
v 0.000000 8.074429 8.961594
v 0.000000 9.517037 7.524882
v 0.000000 10.435061 6.048445
v 0.000000 11.659092 2.136495
v 0.000000 -10.011907 9.701655
v 1.975929 -9.795675 9.933665
v 2.035638 4.413196 10.233844
v 1.939243 6.544389 9.749233
v 1.748320 8.074429 8.789399
v 1.468032 9.517037 7.380293
v 1.179993 10.435061 5.932226
v 0.416809 11.659092 2.095443
v 1.892699 -10.011907 9.515241
v 3.875925 -9.795675 9.357308
v 3.993049 4.413196 9.640070
v 3.803963 6.544389 9.183577
v 3.429454 8.074429 8.279433
v 2.879648 9.517037 6.952084
v 2.314640 10.435061 5.588034
v 0.817601 11.659092 1.973864
v 3.712663 -10.011907 8.963161
v 5.626972 -9.795675 8.421355
v 5.797009 4.413196 8.675834
v 5.522498 6.544389 8.265000
v 4.978796 8.074429 7.451292
v 4.180601 9.517037 6.256710
v 3.360337 10.435061 5.029098
v 1.186973 11.659092 1.776430
v 5.389952 -10.011907 8.066631
v 7.161774 -9.795675 7.161774
v 7.378190 4.413196 7.378190
v 7.028805 6.544389 7.028805
v 6.336803 8.074429 6.336803
v 5.320895 9.517037 5.320895
v 4.276896 10.435061 4.276896
v 1.510730 11.659092 1.510730
v 6.860106 -10.011907 6.860106
v 8.421356 -9.795675 5.626970
v 8.675835 4.413196 5.797007
v 8.265001 6.544389 5.522496
v 7.451293 8.074429 4.978794
v 6.256711 9.517037 4.180600
v 5.029099 10.435061 3.360336
v 1.776431 11.659092 1.186973
v 8.066632 -10.011907 5.389950
v 9.357310 -9.795675 3.875923
v 9.640071 4.413196 3.993046
v 9.183578 6.544389 3.803961
v 8.279433 8.074429 3.429452
v 6.952085 9.517037 2.879647
v 5.588035 10.435061 2.314639
v 1.973864 11.659092 0.817601
v 8.963161 -10.011907 3.712661
v 9.933666 -9.795675 1.975929
v 10.233845 4.413196 2.035638
v 9.749233 6.544389 1.939243
v 8.789399 8.074429 1.748320
v 7.380294 9.517037 1.468032
v 5.932226 10.435061 1.179993
v 2.095443 11.659092 0.416809
v 9.515241 -10.011907 1.892699
v 10.128279 -9.795675 -0.000001
v 10.434337 4.413196 -0.000001
v 9.940231 6.544389 -0.000001
v 8.961594 8.074429 -0.000001
v 7.524882 9.517037 -0.000001
v 6.048445 10.435061 -0.000001
v 2.136495 11.659092 -0.000000
v 9.701655 -10.011907 -0.000001
v 9.933665 -9.795675 -1.975931
v 10.233844 4.413196 -2.035640
v 9.749233 6.544389 -1.939245
v 8.789399 8.074429 -1.748322
v 7.380293 9.517037 -1.468033
v 5.932226 10.435061 -1.179994
v 2.095443 11.659092 -0.416810
v 9.515241 -10.011907 -1.892701
v 9.357308 -9.795675 -3.875924
v 9.640070 4.413196 -3.993048
v 9.183577 6.544389 -3.803962
v 8.279433 8.074429 -3.429453
v 6.952084 9.517037 -2.879647
v 5.588034 10.435061 -2.314640
v 1.973864 11.659092 -0.817601
v 8.963161 -10.011907 -3.712662
v 8.421355 -9.795675 -5.626971
v 8.675834 4.413196 -5.797008
v 8.265000 6.544389 -5.522498
v 7.451292 8.074429 -4.978795
v 6.256710 9.517037 -4.180601
v 5.029098 10.435061 -3.360336
v 1.776430 11.659092 -1.186973
v 8.066631 -10.011907 -5.389951
v 7.161773 -9.795675 -7.161776
v 7.378189 4.413196 -7.378191
v 7.028804 6.544389 -7.028807
v 6.336802 8.074429 -6.336804
v 5.320893 9.517037 -5.320895
v 4.276896 10.435061 -4.276897
v 1.510730 11.659092 -1.510730
v 6.860105 -10.011907 -6.860107
v 5.626968 -9.795675 -8.421357
v 5.797005 4.413196 -8.675836
v 5.522495 6.544389 -8.265002
v 4.978793 8.074429 -7.451294
v 4.180599 9.517037 -6.256712
v 3.360334 10.435061 -5.029099
v 1.186972 11.659092 -1.776431
v 5.389949 -10.011907 -8.066633
v 3.875921 -9.795675 -9.357310
v 3.993045 4.413196 -9.640072
v 3.803959 6.544389 -9.183578
v 3.429451 8.074429 -8.279434
v 2.879646 9.517037 -6.952085
v 2.314638 10.435061 -5.588035
v 0.817600 11.659092 -1.973864
v 3.712660 -10.011907 -8.963162
v 1.975930 -9.795675 -9.933665
v 2.035639 4.413196 -10.233844
v 1.939244 6.544389 -9.749233
v 1.748321 8.074429 -8.789399
v 1.468032 9.517037 -7.380293
v 1.179993 10.435061 -5.932226
v 0.416810 11.659092 -2.095443
v 1.892700 -10.011907 -9.515241
v -0.000000 -9.795675 -10.128279
v -0.000000 4.413196 -10.434337
v -0.000000 6.544389 -9.940231
v -0.000000 8.074429 -8.961594
v -0.000000 9.517037 -7.524882
v -0.000000 10.435061 -6.048445
v -0.000000 11.659092 -2.136495
v -0.000000 -10.011907 -9.701655
v -1.975930 -9.795675 -9.933665
v -2.035639 4.413196 -10.233844
v -1.939244 6.544389 -9.749233
v -1.748321 8.074429 -8.789399
v -1.468032 9.517037 -7.380293
v -1.179994 10.435061 -5.932226
v -0.416810 11.659092 -2.095443
v -1.892700 -10.011907 -9.515241
v -3.875926 -9.795675 -9.357308
v -3.993050 4.413196 -9.640069
v -3.803964 6.544389 -9.183576
v -3.429455 8.074429 -8.279432
v -2.879649 9.517037 -6.952083
v -2.314641 10.435061 -5.588033
v -0.817602 11.659092 -1.973863
v -3.712664 -10.011907 -8.963160
v -5.626972 -9.795675 -8.421354
v -5.797009 4.413196 -8.675833
v -5.522499 6.544389 -8.264999
v -4.978796 8.074429 -7.451292
v -4.180602 9.517037 -6.256710
v -3.360337 10.435061 -5.029097
v -1.186973 11.659092 -1.776430
v -5.389953 -10.011907 -8.066630
v -7.161777 -9.795675 -7.161772
v -7.378192 4.413196 -7.378188
v -7.028808 6.544389 -7.028803
v -6.336806 8.074429 -6.336801
v -5.320897 9.517037 -5.320893
v -4.276898 10.435061 -4.276895
v -1.510730 11.659092 -1.510729
v -6.860108 -10.011907 -6.860103
v -8.421355 -9.795675 -5.626971
v -8.675834 4.413196 -5.797008
v -8.265000 6.544389 -5.522498
v -7.451293 8.074429 -4.978795
v -6.256711 9.517037 -4.180601
v -5.029098 10.435061 -3.360336
v -1.776430 11.659092 -1.186973
v -8.066631 -10.011907 -5.389951
v -9.357309 -9.795675 -3.875924
v -9.640070 4.413196 -3.993048
v -9.183578 6.544389 -3.803962
v -8.279433 8.074429 -3.429453
v -6.952085 9.517037 -2.879647
v -5.588035 10.435061 -2.314640
v -1.973864 11.659092 -0.817601
v -8.963161 -10.011907 -3.712662
v -9.933666 -9.795675 -1.975928
v -10.233845 4.413196 -2.035637
v -9.749233 6.544389 -1.939242
v -8.789399 8.074429 -1.748319
v -7.380294 9.517037 -1.468031
v -5.932226 10.435061 -1.179993
v -2.095443 11.659092 -0.416809
v -9.515241 -10.011907 -1.892698
vt 0.584472 0.356357
vt 0.584558 0.356374
vt 0.586918 0.348594
vt 0.030605 0.590027
vt 0.071781 0.653823
vt 0.024321 0.653823
vt 0.030605 0.590027
vt 0.077153 0.599285
vt 0.049214 0.528682
vt 0.093061 0.546844
vt 0.079433 0.472146
vt 0.118894 0.498513
vt 0.120101 0.422592
vt 0.153660 0.456151
vt 0.169655 0.381924
vt 0.196022 0.421385
vt 0.226190 0.351705
vt 0.244352 0.395552
vt 0.287535 0.333096
vt 0.296794 0.379644
vt 0.351332 0.326813
vt 0.351332 0.374272
vt 0.415128 0.333096
vt 0.405869 0.379644
vt 0.476473 0.351705
vt 0.458311 0.395552
vt 0.533009 0.381924
vt 0.506642 0.421385
vt 0.582563 0.422592
vt 0.549004 0.456151
vt 0.623231 0.472146
vt 0.583770 0.498513
vt 0.653450 0.528682
vt 0.609603 0.546844
vt 0.672059 0.590027
vt 0.625511 0.599285
vt 0.678342 0.653823
vt 0.630882 0.653823
vt 0.672059 0.717620
vt 0.625511 0.708361
vt 0.653450 0.778964
vt 0.609603 0.760803
vt 0.623231 0.835500
vt 0.583770 0.809133
vt 0.582563 0.885054
vt 0.549004 0.851495
vt 0.533009 0.925722
vt 0.506642 0.886261
vt 0.476473 0.955941
vt 0.458311 0.912094
vt 0.415128 0.974550
vt 0.405870 0.928002
vt 0.351332 0.980833
vt 0.351332 0.933374
vt 0.287535 0.974550
vt 0.296794 0.928002
vt 0.226190 0.955941
vt 0.244352 0.912094
vt 0.169655 0.925722
vt 0.196022 0.886261
vt 0.120101 0.885054
vt 0.153660 0.851495
vt 0.079433 0.835500
vt 0.118894 0.809133
vt 0.049214 0.778964
vt 0.093061 0.760803
vt 0.030605 0.717619
vt 0.077153 0.708361
vt 0.114462 0.653823
vt 0.119013 0.607612
vt 0.132492 0.563177
vt 0.154382 0.522225
vt 0.183839 0.486331
vt 0.219734 0.456873
vt 0.260686 0.434984
vt 0.305121 0.421504
vt 0.351332 0.416953
vt 0.397543 0.421504
vt 0.441978 0.434984
vt 0.482930 0.456873
vt 0.518824 0.486331
vt 0.548282 0.522225
vt 0.570171 0.563177
vt 0.583651 0.607612
vt 0.588202 0.653823
vt 0.583651 0.700034
vt 0.570171 0.744469
vt 0.548282 0.785421
vt 0.518824 0.821316
vt 0.482930 0.850773
vt 0.441978 0.872662
vt 0.397543 0.886142
vt 0.351332 0.890693
vt 0.305121 0.886142
vt 0.260686 0.872662
vt 0.219734 0.850773
vt 0.183839 0.821316
vt 0.154382 0.785421
vt 0.132492 0.744469
vt 0.119013 0.700034
vt 0.155953 0.653823
vt 0.159707 0.615707
vt 0.170826 0.579055
vt 0.188880 0.545277
vt 0.213178 0.515670
vt 0.242785 0.491372
vt 0.276564 0.473317
vt 0.313215 0.462199
vt 0.351332 0.458444
vt 0.389448 0.462199
vt 0.426100 0.473317
vt 0.459878 0.491372
vt 0.489485 0.515670
vt 0.513783 0.545277
vt 0.531838 0.579055
vt 0.542956 0.615707
vt 0.546710 0.653823
vt 0.542956 0.691940
vt 0.531838 0.728591
vt 0.513783 0.762370
vt 0.489485 0.791977
vt 0.459878 0.816275
vt 0.426100 0.834329
vt 0.389448 0.845447
vt 0.351332 0.849202
vt 0.313215 0.845447
vt 0.276564 0.834329
vt 0.242785 0.816274
vt 0.213178 0.791977
vt 0.188880 0.762370
vt 0.170826 0.728591
vt 0.159707 0.691940
vt 0.196515 0.653823
vt 0.199489 0.623620
vt 0.208299 0.594577
vt 0.222606 0.567811
vt 0.241860 0.544351
vt 0.265320 0.525097
vt 0.292086 0.510791
vt 0.321128 0.501981
vt 0.351332 0.499006
vt 0.381535 0.501981
vt 0.410578 0.510791
vt 0.437344 0.525097
vt 0.460804 0.544351
vt 0.480058 0.567811
vt 0.494364 0.594577
vt 0.503174 0.623620
vt 0.506149 0.653823
vt 0.503174 0.684026
vt 0.494364 0.713069
vt 0.480058 0.739835
vt 0.460804 0.763295
vt 0.437344 0.782549
vt 0.410578 0.796856
vt 0.381535 0.805665
vt 0.351332 0.808640
vt 0.321128 0.805665
vt 0.292086 0.796855
vt 0.265320 0.782549
vt 0.241859 0.763295
vt 0.222606 0.739835
vt 0.208299 0.713069
vt 0.199489 0.684026
vt 0.294090 0.653823
vt 0.295190 0.642656
vt 0.298447 0.631917
vt 0.303737 0.622021
vt 0.310856 0.613347
vt 0.319530 0.606228
vt 0.329426 0.600938
vt 0.340164 0.597681
vt 0.351332 0.596581
vt 0.362499 0.597681
vt 0.373237 0.600938
vt 0.383134 0.606228
vt 0.391808 0.613347
vt 0.398927 0.622021
vt 0.404217 0.631917
vt 0.407474 0.642656
vt 0.408574 0.653823
vt 0.407474 0.664990
vt 0.404217 0.675729
vt 0.398927 0.685625
vt 0.391808 0.694299
vt 0.383134 0.701418
vt 0.373237 0.706708
vt 0.362499 0.709965
vt 0.351332 0.711065
vt 0.340164 0.709965
vt 0.329426 0.706708
vt 0.319530 0.701418
vt 0.310856 0.694299
vt 0.303737 0.685625
vt 0.298447 0.675729
vt 0.295190 0.664990
vt 0.586272 0.356715
vt 0.585508 0.364465
vt 0.586272 0.372215
vt 0.588532 0.379667
vt 0.592203 0.386535
vt 0.597144 0.392555
vt 0.603164 0.397496
vt 0.610032 0.401167
vt 0.617484 0.403428
vt 0.625234 0.404191
vt 0.632985 0.403428
vt 0.640437 0.401167
vt 0.647305 0.397496
vt 0.653325 0.392555
vt 0.658265 0.386535
vt 0.661936 0.379667
vt 0.664197 0.372215
vt 0.664960 0.364465
vt 0.664197 0.356715
vt 0.661936 0.349262
vt 0.658265 0.342394
vt 0.653325 0.336374
vt 0.647305 0.331434
vt 0.640437 0.327763
vt 0.632985 0.325502
vt 0.625234 0.324739
vt 0.617484 0.325502
vt 0.610032 0.327763
vt 0.603164 0.331434
vt 0.597144 0.336374
vt 0.592203 0.342394
vt 0.588532 0.349262
vt 0.586837 0.348560
vt 0.590751 0.341424
vt 0.049214 0.528682
vt 0.590677 0.341375
vt 0.595909 0.335139
vt 0.079433 0.472146
vt 0.595846 0.335077
vt 0.602193 0.329981
vt 0.120101 0.422592
vt 0.602144 0.329908
vt 0.609363 0.326149
vt 0.169655 0.381924
vt 0.609329 0.326067
vt 0.617143 0.323789
vt 0.226190 0.351705
vt 0.617126 0.323702
vt 0.625234 0.322992
vt 0.287535 0.333096
vt 0.625234 0.322904
vt 0.633325 0.323789
vt 0.351332 0.326813
vt 0.633343 0.323702
vt 0.641105 0.326149
vt 0.415128 0.333096
vt 0.641139 0.326067
vt 0.648275 0.329982
vt 0.476473 0.351705
vt 0.648324 0.329908
vt 0.654560 0.335139
vt 0.533009 0.381924
vt 0.654623 0.335077
vt 0.659718 0.341424
vt 0.582563 0.422592
vt 0.659791 0.341375
vt 0.663550 0.348594
vt 0.623231 0.472146
vt 0.663632 0.348560
vt 0.665910 0.356374
vt 0.653450 0.528682
vt 0.665997 0.356357
vt 0.666707 0.364465
vt 0.672059 0.590027
vt 0.666796 0.364465
vt 0.665910 0.372556
vt 0.678342 0.653823
vt 0.665997 0.372573
vt 0.663550 0.380336
vt 0.672059 0.717620
vt 0.663632 0.380370
vt 0.659718 0.387506
vt 0.653450 0.778964
vt 0.659791 0.387555
vt 0.654560 0.393791
vt 0.623231 0.835500
vt 0.654623 0.393853
vt 0.648275 0.398948
vt 0.582563 0.885054
vt 0.648324 0.399022
vt 0.641105 0.402781
vt 0.533009 0.925722
vt 0.641139 0.402863
vt 0.633325 0.405141
vt 0.476473 0.955941
vt 0.633343 0.405228
vt 0.625234 0.405938
vt 0.415128 0.974550
vt 0.625234 0.406026
vt 0.617143 0.405141
vt 0.351332 0.980833
vt 0.617126 0.405228
vt 0.609363 0.402781
vt 0.287535 0.974550
vt 0.609329 0.402863
vt 0.602193 0.398948
vt 0.226190 0.955941
vt 0.602144 0.399022
vt 0.595909 0.393791
vt 0.169655 0.925722
vt 0.595846 0.393853
vt 0.590751 0.387506
vt 0.120101 0.885054
vt 0.590677 0.387555
vt 0.586918 0.380336
vt 0.079433 0.835500
vt 0.586837 0.380370
vt 0.584558 0.372556
vt 0.049214 0.778964
vt 0.584472 0.372573
vt 0.583761 0.364465
vt 0.030605 0.717619
vt 0.583673 0.364465
vt 0.024321 0.653823
vn -0.9756 0.1021 0.1941
vn -0.8386 -0.5185 0.1668
vn -0.7899 -0.5185 0.3272
vn -0.9190 0.1021 0.3807
vn -0.9232 0.3842 0.0000
vn -0.9948 0.1021 0.0000
vn -0.9055 0.3842 0.1801
vn -0.8529 0.3842 0.3533
vn -0.8271 0.1021 0.5527
vn -0.7676 0.3842 0.5129
vn -0.7034 0.1021 0.7034
vn -0.6528 0.3842 0.6528
vn -0.5527 0.1021 0.8271
vn -0.5129 0.3842 0.7676
vn -0.3807 0.1021 0.9190
vn -0.3533 0.3842 0.8529
vn -0.1941 0.1021 0.9756
vn -0.1801 0.3842 0.9055
vn 0.0000 0.1021 0.9948
vn 0.0000 0.3842 0.9232
vn 0.1941 0.1021 0.9756
vn 0.1801 0.3842 0.9055
vn 0.3807 0.1021 0.9190
vn 0.3533 0.3842 0.8529
vn 0.5527 0.1021 0.8271
vn 0.5129 0.3842 0.7676
vn 0.7034 0.1021 0.7034
vn 0.6528 0.3842 0.6528
vn 0.8271 0.1021 0.5527
vn 0.7676 0.3842 0.5129
vn 0.9190 0.1021 0.3807
vn 0.8529 0.3842 0.3533
vn 0.9756 0.1021 0.1941
vn 0.9055 0.3842 0.1801
vn 0.9948 0.1021 0.0000
vn 0.9232 0.3842 0.0000
vn 0.9756 0.1021 -0.1941
vn 0.9055 0.3842 -0.1801
vn 0.9190 0.1021 -0.3807
vn 0.8529 0.3842 -0.3533
vn 0.8271 0.1021 -0.5527
vn 0.7676 0.3842 -0.5129
vn 0.7034 0.1021 -0.7034
vn 0.6528 0.3842 -0.6528
vn 0.5527 0.1021 -0.8271
vn 0.5129 0.3842 -0.7676
vn 0.3807 0.1021 -0.9190
vn 0.3533 0.3842 -0.8529
vn 0.1941 0.1021 -0.9756
vn 0.1801 0.3842 -0.9055
vn 0.0000 0.1021 -0.9948
vn 0.0000 0.3842 -0.9232
vn -0.1941 0.1021 -0.9756
vn -0.1801 0.3842 -0.9055
vn -0.3807 0.1021 -0.9190
vn -0.3533 0.3842 -0.8529
vn -0.5527 0.1021 -0.8271
vn -0.5129 0.3842 -0.7676
vn -0.7034 0.1021 -0.7034
vn -0.6528 0.3842 -0.6528
vn -0.8271 0.1021 -0.5527
vn -0.7676 0.3842 -0.5129
vn -0.9190 0.1021 -0.3807
vn -0.8529 0.3842 -0.3533
vn -0.9756 0.1021 -0.1941
vn -0.9055 0.3842 -0.1801
vn -0.7825 0.6226 0.0000
vn -0.7675 0.6226 0.1527
vn -0.7230 0.6226 0.2994
vn -0.6507 0.6226 0.4347
vn -0.5533 0.6226 0.5533
vn -0.4347 0.6226 0.6507
vn -0.2994 0.6226 0.7230
vn -0.1527 0.6226 0.7675
vn 0.0000 0.6226 0.7825
vn 0.1527 0.6226 0.7675
vn 0.2994 0.6226 0.7230
vn 0.4347 0.6226 0.6507
vn 0.5533 0.6226 0.5533
vn 0.6507 0.6226 0.4347
vn 0.7230 0.6226 0.2994
vn 0.7675 0.6226 0.1527
vn 0.7825 0.6226 0.0000
vn 0.7675 0.6226 -0.1527
vn 0.7230 0.6226 -0.2994
vn 0.6507 0.6226 -0.4347
vn 0.5533 0.6226 -0.5533
vn 0.4347 0.6226 -0.6507
vn 0.2994 0.6226 -0.7230
vn 0.1527 0.6226 -0.7675
vn 0.0000 0.6226 -0.7825
vn -0.1527 0.6226 -0.7675
vn -0.2994 0.6226 -0.7230
vn -0.4347 0.6226 -0.6507
vn -0.5533 0.6226 -0.5533
vn -0.6507 0.6226 -0.4347
vn -0.7230 0.6226 -0.2994
vn -0.7675 0.6226 -0.1527
vn -0.6268 0.7791 0.0000
vn -0.6148 0.7791 0.1223
vn -0.5791 0.7791 0.2398
vn -0.5212 0.7791 0.3482
vn -0.4432 0.7791 0.4432
vn -0.3482 0.7791 0.5212
vn -0.2398 0.7791 0.5791
vn -0.1223 0.7791 0.6148
vn 0.0000 0.7791 0.6268
vn 0.1223 0.7791 0.6148
vn 0.2398 0.7791 0.5791
vn 0.3482 0.7791 0.5212
vn 0.4432 0.7791 0.4432
vn 0.5212 0.7791 0.3482
vn 0.5791 0.7791 0.2398
vn 0.6148 0.7791 0.1223
vn 0.6268 0.7791 0.0000
vn 0.6148 0.7791 -0.1223
vn 0.5791 0.7791 -0.2398
vn 0.5212 0.7791 -0.3482
vn 0.4432 0.7791 -0.4432
vn 0.3482 0.7791 -0.5212
vn 0.2398 0.7791 -0.5791
vn 0.1223 0.7791 -0.6148
vn 0.0000 0.7791 -0.6268
vn -0.1223 0.7791 -0.6148
vn -0.2398 0.7791 -0.5791
vn -0.3482 0.7791 -0.5212
vn -0.4432 0.7791 -0.4432
vn -0.5212 0.7791 -0.3482
vn -0.5791 0.7791 -0.2398
vn -0.6148 0.7791 -0.1223
vn -0.4231 0.9061 0.0000
vn -0.4150 0.9061 0.0825
vn -0.3909 0.9061 0.1619
vn -0.3518 0.9061 0.2351
vn -0.2992 0.9061 0.2992
vn -0.2351 0.9061 0.3518
vn -0.1619 0.9061 0.3909
vn -0.0825 0.9061 0.4150
vn 0.0000 0.9061 0.4231
vn 0.0825 0.9061 0.4150
vn 0.1619 0.9061 0.3909
vn 0.2351 0.9061 0.3518
vn 0.2992 0.9061 0.2992
vn 0.3518 0.9061 0.2351
vn 0.3909 0.9061 0.1619
vn 0.4150 0.9061 0.0825
vn 0.4231 0.9061 0.0000
vn 0.4150 0.9061 -0.0825
vn 0.3909 0.9061 -0.1619
vn 0.3518 0.9061 -0.2351
vn 0.2992 0.9061 -0.2992
vn 0.2351 0.9061 -0.3518
vn 0.1619 0.9061 -0.3909
vn 0.0825 0.9061 -0.4150
vn 0.0000 0.9061 -0.4231
vn -0.0825 0.9061 -0.4150
vn -0.1619 0.9061 -0.3909
vn -0.2351 0.9061 -0.3518
vn -0.2992 0.9061 -0.2992
vn -0.3518 0.9061 -0.2351
vn -0.3909 0.9061 -0.1619
vn -0.4150 0.9061 -0.0825
vn -0.1602 0.9871 0.0000
vn -0.1571 0.9871 0.0313
vn -0.1480 0.9871 0.0613
vn -0.1332 0.9871 0.0890
vn -0.1133 0.9871 0.1133
vn -0.0890 0.9871 0.1332
vn -0.0613 0.9871 0.1480
vn -0.0313 0.9871 0.1571
vn 0.0000 0.9871 0.1602
vn 0.0313 0.9871 0.1571
vn 0.0613 0.9871 0.1480
vn 0.0890 0.9871 0.1332
vn 0.1133 0.9871 0.1133
vn 0.1332 0.9871 0.0890
vn 0.1480 0.9871 0.0613
vn 0.1571 0.9871 0.0313
vn 0.1602 0.9871 0.0000
vn 0.1571 0.9871 -0.0313
vn 0.1480 0.9871 -0.0613
vn 0.1332 0.9871 -0.0890
vn 0.1133 0.9871 -0.1133
vn 0.0890 0.9871 -0.1332
vn 0.0613 0.9871 -0.1480
vn 0.0313 0.9871 -0.1571
vn 0.0000 0.9871 -0.1602
vn -0.0313 0.9871 -0.1571
vn -0.0613 0.9871 -0.1480
vn -0.0890 0.9871 -0.1332
vn -0.1133 0.9871 -0.1133
vn -0.1332 0.9871 -0.0890
vn -0.1480 0.9871 -0.0613
vn -0.1571 0.9871 -0.0313
vn -0.2413 -0.9692 0.0480
vn -0.2460 -0.9692 0.0000
vn -0.2413 -0.9692 -0.0480
vn -0.2273 -0.9692 -0.0941
vn -0.2046 -0.9692 -0.1367
vn -0.1740 -0.9692 -0.1740
vn -0.1367 -0.9692 -0.2046
vn -0.0941 -0.9692 -0.2273
vn -0.0480 -0.9692 -0.2413
vn 0.0000 -0.9692 -0.2460
vn 0.0480 -0.9692 -0.2413
vn 0.0941 -0.9692 -0.2273
vn 0.1367 -0.9692 -0.2046
vn 0.1740 -0.9692 -0.1740
vn 0.2046 -0.9692 -0.1367
vn 0.2273 -0.9692 -0.0941
vn 0.2413 -0.9692 -0.0480
vn 0.2460 -0.9692 0.0000
vn 0.2413 -0.9692 0.0480
vn 0.2273 -0.9692 0.0941
vn 0.2046 -0.9692 0.1367
vn 0.1740 -0.9692 0.1740
vn 0.1367 -0.9692 0.2046
vn 0.0941 -0.9692 0.2273
vn 0.0480 -0.9692 0.2413
vn 0.0000 -0.9692 0.2460
vn -0.0480 -0.9692 0.2413
vn -0.0941 -0.9692 0.2273
vn -0.1367 -0.9692 0.2046
vn -0.1740 -0.9692 0.1740
vn -0.2046 -0.9692 0.1367
vn -0.2273 -0.9692 0.0941
vn -0.7109 -0.5185 0.4750
vn -0.6046 -0.5185 0.6046
vn -0.4750 -0.5185 0.7109
vn -0.3272 -0.5185 0.7899
vn -0.1668 -0.5185 0.8386
vn 0.0000 -0.5185 0.8550
vn 0.1668 -0.5185 0.8386
vn 0.3272 -0.5185 0.7899
vn 0.4750 -0.5185 0.7109
vn 0.6046 -0.5185 0.6046
vn 0.7109 -0.5185 0.4750
vn 0.7899 -0.5185 0.3272
vn 0.8386 -0.5185 0.1668
vn 0.8550 -0.5185 0.0000
vn 0.8386 -0.5185 -0.1668
vn 0.7899 -0.5185 -0.3272
vn 0.7109 -0.5185 -0.4750
vn 0.6046 -0.5185 -0.6046
vn 0.4750 -0.5185 -0.7109
vn 0.3272 -0.5185 -0.7899
vn 0.1668 -0.5185 -0.8386
vn 0.0000 -0.5185 -0.8550
vn -0.1668 -0.5185 -0.8386
vn -0.3272 -0.5185 -0.7899
vn -0.4750 -0.5185 -0.7109
vn -0.6046 -0.5185 -0.6046
vn -0.7109 -0.5185 -0.4750
vn -0.7899 -0.5185 -0.3272
vn -0.8386 -0.5185 -0.1668
vn -0.8550 -0.5185 0.0000
usemtl Material.001
s 1
f 10/1/1 9/2/2 17/3/3 18/4/4
f 3/5/5 2/6/6 10/7/1 11/8/7
f 11/8/7 10/7/1 18/9/4 19/10/8
f 19/10/8 18/9/4 26/11/9 27/12/10
f 27/12/10 26/11/9 34/13/11 35/14/12
f 35/14/12 34/13/11 42/15/13 43/16/14
f 43/16/14 42/15/13 50/17/15 51/18/16
f 51/18/16 50/17/15 58/19/17 59/20/18
f 59/20/18 58/19/17 66/21/19 67/22/20
f 67/22/20 66/21/19 74/23/21 75/24/22
f 75/24/22 74/23/21 82/25/23 83/26/24
f 83/26/24 82/25/23 90/27/25 91/28/26
f 91/28/26 90/27/25 98/29/27 99/30/28
f 99/30/28 98/29/27 106/31/29 107/32/30
f 107/32/30 106/31/29 114/33/31 115/34/32
f 115/34/32 114/33/31 122/35/33 123/36/34
f 123/36/34 122/35/33 130/37/35 131/38/36
f 131/38/36 130/37/35 138/39/37 139/40/38
f 139/40/38 138/39/37 146/41/39 147/42/40
f 147/42/40 146/41/39 154/43/41 155/44/42
f 155/44/42 154/43/41 162/45/43 163/46/44
f 163/46/44 162/45/43 170/47/45 171/48/46
f 171/48/46 170/47/45 178/49/47 179/50/48
f 179/50/48 178/49/47 186/51/49 187/52/50
f 187/52/50 186/51/49 194/53/51 195/54/52
f 195/54/52 194/53/51 202/55/53 203/56/54
f 203/56/54 202/55/53 210/57/55 211/58/56
f 211/58/56 210/57/55 218/59/57 219/60/58
f 219/60/58 218/59/57 226/61/59 227/62/60
f 227/62/60 226/61/59 234/63/61 235/64/62
f 235/64/62 234/63/61 242/65/63 243/66/64
f 243/66/64 242/65/63 250/67/65 251/68/66
f 251/68/66 250/67/65 2/6/6 3/5/5
f 4/69/67 3/5/5 11/8/7 12/70/68
f 12/70/68 11/8/7 19/10/8 20/71/69
f 20/71/69 19/10/8 27/12/10 28/72/70
f 28/72/70 27/12/10 35/14/12 36/73/71
f 36/73/71 35/14/12 43/16/14 44/74/72
f 44/74/72 43/16/14 51/18/16 52/75/73
f 52/75/73 51/18/16 59/20/18 60/76/74
f 60/76/74 59/20/18 67/22/20 68/77/75
f 68/77/75 67/22/20 75/24/22 76/78/76
f 76/78/76 75/24/22 83/26/24 84/79/77
f 84/79/77 83/26/24 91/28/26 92/80/78
f 92/80/78 91/28/26 99/30/28 100/81/79
f 100/81/79 99/30/28 107/32/30 108/82/80
f 108/82/80 107/32/30 115/34/32 116/83/81
f 116/83/81 115/34/32 123/36/34 124/84/82
f 124/84/82 123/36/34 131/38/36 132/85/83
f 132/85/83 131/38/36 139/40/38 140/86/84
f 140/86/84 139/40/38 147/42/40 148/87/85
f 148/87/85 147/42/40 155/44/42 156/88/86
f 156/88/86 155/44/42 163/46/44 164/89/87
f 164/89/87 163/46/44 171/48/46 172/90/88
f 172/90/88 171/48/46 179/50/48 180/91/89
f 180/91/89 179/50/48 187/52/50 188/92/90
f 188/92/90 187/52/50 195/54/52 196/93/91
f 196/93/91 195/54/52 203/56/54 204/94/92
f 204/94/92 203/56/54 211/58/56 212/95/93
f 212/95/93 211/58/56 219/60/58 220/96/94
f 220/96/94 219/60/58 227/62/60 228/97/95
f 228/97/95 227/62/60 235/64/62 236/98/96
f 236/98/96 235/64/62 243/66/64 244/99/97
f 244/99/97 243/66/64 251/68/66 252/100/98
f 252/100/98 251/68/66 3/5/5 4/69/67
f 5/101/99 4/69/67 12/70/68 13/102/100
f 13/102/100 12/70/68 20/71/69 21/103/101
f 21/103/101 20/71/69 28/72/70 29/104/102
f 29/104/102 28/72/70 36/73/71 37/105/103
f 37/105/103 36/73/71 44/74/72 45/106/104
f 45/106/104 44/74/72 52/75/73 53/107/105
f 53/107/105 52/75/73 60/76/74 61/108/106
f 61/108/106 60/76/74 68/77/75 69/109/107
f 69/109/107 68/77/75 76/78/76 77/110/108
f 77/110/108 76/78/76 84/79/77 85/111/109
f 85/111/109 84/79/77 92/80/78 93/112/110
f 93/112/110 92/80/78 100/81/79 101/113/111
f 101/113/111 100/81/79 108/82/80 109/114/112
f 109/114/112 108/82/80 116/83/81 117/115/113
f 117/115/113 116/83/81 124/84/82 125/116/114
f 125/116/114 124/84/82 132/85/83 133/117/115
f 133/117/115 132/85/83 140/86/84 141/118/116
f 141/118/116 140/86/84 148/87/85 149/119/117
f 149/119/117 148/87/85 156/88/86 157/120/118
f 157/120/118 156/88/86 164/89/87 165/121/119
f 165/121/119 164/89/87 172/90/88 173/122/120
f 173/122/120 172/90/88 180/91/89 181/123/121
f 181/123/121 180/91/89 188/92/90 189/124/122
f 189/124/122 188/92/90 196/93/91 197/125/123
f 197/125/123 196/93/91 204/94/92 205/126/124
f 205/126/124 204/94/92 212/95/93 213/127/125
f 213/127/125 212/95/93 220/96/94 221/128/126
f 221/128/126 220/96/94 228/97/95 229/129/127
f 229/129/127 228/97/95 236/98/96 237/130/128
f 237/130/128 236/98/96 244/99/97 245/131/129
f 245/131/129 244/99/97 252/100/98 253/132/130
f 253/132/130 252/100/98 4/69/67 5/101/99
f 6/133/131 5/101/99 13/102/100 14/134/132
f 14/134/132 13/102/100 21/103/101 22/135/133
f 22/135/133 21/103/101 29/104/102 30/136/134
f 30/136/134 29/104/102 37/105/103 38/137/135
f 38/137/135 37/105/103 45/106/104 46/138/136
f 46/138/136 45/106/104 53/107/105 54/139/137
f 54/139/137 53/107/105 61/108/106 62/140/138
f 62/140/138 61/108/106 69/109/107 70/141/139
f 70/141/139 69/109/107 77/110/108 78/142/140
f 78/142/140 77/110/108 85/111/109 86/143/141
f 86/143/141 85/111/109 93/112/110 94/144/142
f 94/144/142 93/112/110 101/113/111 102/145/143
f 102/145/143 101/113/111 109/114/112 110/146/144
f 110/146/144 109/114/112 117/115/113 118/147/145
f 118/147/145 117/115/113 125/116/114 126/148/146
f 126/148/146 125/116/114 133/117/115 134/149/147
f 134/149/147 133/117/115 141/118/116 142/150/148
f 142/150/148 141/118/116 149/119/117 150/151/149
f 150/151/149 149/119/117 157/120/118 158/152/150
f 158/152/150 157/120/118 165/121/119 166/153/151
f 166/153/151 165/121/119 173/122/120 174/154/152
f 174/154/152 173/122/120 181/123/121 182/155/153
f 182/155/153 181/123/121 189/124/122 190/156/154
f 190/156/154 189/124/122 197/125/123 198/157/155
f 198/157/155 197/125/123 205/126/124 206/158/156
f 206/158/156 205/126/124 213/127/125 214/159/157
f 214/159/157 213/127/125 221/128/126 222/160/158
f 222/160/158 221/128/126 229/129/127 230/161/159
f 230/161/159 229/129/127 237/130/128 238/162/160
f 238/162/160 237/130/128 245/131/129 246/163/161
f 246/163/161 245/131/129 253/132/130 254/164/162
f 254/164/162 253/132/130 5/101/99 6/133/131
f 7/165/163 6/133/131 14/134/132 15/166/164
f 15/166/164 14/134/132 22/135/133 23/167/165
f 23/167/165 22/135/133 30/136/134 31/168/166
f 31/168/166 30/136/134 38/137/135 39/169/167
f 39/169/167 38/137/135 46/138/136 47/170/168
f 47/170/168 46/138/136 54/139/137 55/171/169
f 55/171/169 54/139/137 62/140/138 63/172/170
f 63/172/170 62/140/138 70/141/139 71/173/171
f 71/173/171 70/141/139 78/142/140 79/174/172
f 79/174/172 78/142/140 86/143/141 87/175/173
f 87/175/173 86/143/141 94/144/142 95/176/174
f 95/176/174 94/144/142 102/145/143 103/177/175
f 103/177/175 102/145/143 110/146/144 111/178/176
f 111/178/176 110/146/144 118/147/145 119/179/177
f 119/179/177 118/147/145 126/148/146 127/180/178
f 127/180/178 126/148/146 134/149/147 135/181/179
f 135/181/179 134/149/147 142/150/148 143/182/180
f 143/182/180 142/150/148 150/151/149 151/183/181
f 151/183/181 150/151/149 158/152/150 159/184/182
f 159/184/182 158/152/150 166/153/151 167/185/183
f 167/185/183 166/153/151 174/154/152 175/186/184
f 175/186/184 174/154/152 182/155/153 183/187/185
f 183/187/185 182/155/153 190/156/154 191/188/186
f 191/188/186 190/156/154 198/157/155 199/189/187
f 199/189/187 198/157/155 206/158/156 207/190/188
f 207/190/188 206/158/156 214/159/157 215/191/189
f 215/191/189 214/159/157 222/160/158 223/192/190
f 223/192/190 222/160/158 230/161/159 231/193/191
f 231/193/191 230/161/159 238/162/160 239/194/192
f 239/194/192 238/162/160 246/163/161 247/195/193
f 247/195/193 246/163/161 254/164/162 255/196/194
f 255/196/194 254/164/162 6/133/131 7/165/163
f 15/166/164 23/167/165 31/168/166 39/169/167 47/170/168 55/171/169 63/172/170 71/173/171 79/174/172 87/175/173 95/176/174 103/177/175 111/178/176 119/179/177 127/180/178 135/181/179 143/182/180 151/183/181 159/184/182 167/185/183 175/186/184 183/187/185 191/188/186 199/189/187 207/190/188 215/191/189 223/192/190 231/193/191 239/194/192 247/195/193 255/196/194 7/165/163
f 16/197/195 8/198/196 256/199/197 248/200/198 240/201/199 232/202/200 224/203/201 216/204/202 208/205/203 200/206/204 192/207/205 184/208/206 176/209/207 168/210/208 160/211/209 152/212/210 144/213/211 136/214/212 128/215/213 120/216/214 112/217/215 104/218/216 96/219/217 88/220/218 80/221/219 72/222/220 64/223/221 56/224/222 48/225/223 40/226/224 32/227/225 24/228/226
f 18/229/4 17/3/3 25/230/227 26/231/9
f 26/232/9 25/230/227 33/233/228 34/234/11
f 34/235/11 33/233/228 41/236/229 42/237/13
f 42/238/13 41/236/229 49/239/230 50/240/15
f 50/241/15 49/239/230 57/242/231 58/243/17
f 58/244/17 57/242/231 65/245/232 66/246/19
f 66/247/19 65/245/232 73/248/233 74/249/21
f 74/250/21 73/248/233 81/251/234 82/252/23
f 82/253/23 81/251/234 89/254/235 90/255/25
f 90/256/25 89/254/235 97/257/236 98/258/27
f 98/259/27 97/257/236 105/260/237 106/261/29
f 106/262/29 105/260/237 113/263/238 114/264/31
f 114/265/31 113/263/238 121/266/239 122/267/33
f 122/268/33 121/266/239 129/269/240 130/270/35
f 130/271/35 129/269/240 137/272/241 138/273/37
f 138/274/37 137/272/241 145/275/242 146/276/39
f 146/277/39 145/275/242 153/278/243 154/279/41
f 154/280/41 153/278/243 161/281/244 162/282/43
f 162/283/43 161/281/244 169/284/245 170/285/45
f 170/286/45 169/284/245 177/287/246 178/288/47
f 178/289/47 177/287/246 185/290/247 186/291/49
f 186/292/49 185/290/247 193/293/248 194/294/51
f 194/295/51 193/293/248 201/296/249 202/297/53
f 202/298/53 201/296/249 209/299/250 210/300/55
f 210/301/55 209/299/250 217/302/251 218/303/57
f 218/304/57 217/302/251 225/305/252 226/306/59
f 226/307/59 225/305/252 233/308/253 234/309/61
f 234/310/61 233/308/253 241/311/254 242/312/63
f 242/313/63 241/311/254 249/314/255 250/315/65
f 250/316/65 249/314/255 1/317/256 2/318/6
f 1/317/256 8/198/196 16/197/195 9/2/2
f 9/2/2 16/197/195 24/228/226 17/3/3
f 17/3/3 24/228/226 32/227/225 25/230/227
f 25/230/227 32/227/225 40/226/224 33/233/228
f 33/233/228 40/226/224 48/225/223 41/236/229
f 41/236/229 48/225/223 56/224/222 49/239/230
f 49/239/230 56/224/222 64/223/221 57/242/231
f 57/242/231 64/223/221 72/222/220 65/245/232
f 65/245/232 72/222/220 80/221/219 73/248/233
f 73/248/233 80/221/219 88/220/218 81/251/234
f 81/251/234 88/220/218 96/219/217 89/254/235
f 89/254/235 96/219/217 104/218/216 97/257/236
f 97/257/236 104/218/216 112/217/215 105/260/237
f 105/260/237 112/217/215 120/216/214 113/263/238
f 113/263/238 120/216/214 128/215/213 121/266/239
f 121/266/239 128/215/213 136/214/212 129/269/240
f 129/269/240 136/214/212 144/213/211 137/272/241
f 137/272/241 144/213/211 152/212/210 145/275/242
f 145/275/242 152/212/210 160/211/209 153/278/243
f 153/278/243 160/211/209 168/210/208 161/281/244
f 161/281/244 168/210/208 176/209/207 169/284/245
f 169/284/245 176/209/207 184/208/206 177/287/246
f 177/287/246 184/208/206 192/207/205 185/290/247
f 185/290/247 192/207/205 200/206/204 193/293/248
f 193/293/248 200/206/204 208/205/203 201/296/249
f 201/296/249 208/205/203 216/204/202 209/299/250
f 209/299/250 216/204/202 224/203/201 217/302/251
f 217/302/251 224/203/201 232/202/200 225/305/252
f 225/305/252 232/202/200 240/201/199 233/308/253
f 233/308/253 240/201/199 248/200/198 241/311/254
f 241/311/254 248/200/198 256/199/197 249/314/255
f 249/314/255 256/199/197 8/198/196 1/317/256
f 2/319/6 1/317/256 9/2/2 10/320/1
