# Blender v2.78 (sub 0) OBJ File: 'kANEimer_col.blend'
# www.blender.org
mtllib kANEimer_col.mtl
o Curve.109_Mesh.109
v 0.000001 0.582935 -7.252154
v -1.259324 0.582935 -7.141979
v -1.235673 0.683500 -7.007849
v 0.000001 0.683500 -7.115954
vt 0.0000 0.0000
vt 0.0000 0.0000
vt 0.0000 0.0000
vt 0.0000 0.0000
vn -0.0519 0.8034 -0.5932
usemtl Material
s off
f 4/1/1 1/2/1 2/3/1 3/4/1
o Curve.108_Mesh.108
v -1.259324 0.582935 -7.141979
v -2.480383 0.582934 -6.814798
v -2.433798 0.683499 -6.686814
v -1.235673 0.683500 -7.007849
vt 0.0000 0.0000
vt 0.0000 0.0000
vt 0.0000 0.0000
vt 0.0000 0.0000
vn -0.1541 0.8034 -0.5752
usemtl Material
s off
f 8/5/2 5/6/2 6/7/2 7/8/2
o Curve.107_Mesh.107
v -2.480383 0.582934 -6.814798
v -3.626078 0.582934 -6.280553
v -3.557979 0.683499 -6.162598
v -2.433798 0.683499 -6.686814
vt 0.0000 0.0000
vt 0.0000 0.0000
vt 0.0000 0.0000
vt 0.0000 0.0000
vn -0.2517 0.8034 -0.5397
usemtl Material
s off
f 12/9/3 9/10/3 10/11/3 11/12/3
o Curve.106_Mesh.106
v -4.661597 0.582934 -5.555470
v -3.626078 0.582934 -6.280553
v -4.574048 0.683499 -5.451137
v -3.557979 0.683499 -6.162598
vt 0.0000 0.0000
vt 0.0000 0.0000
vt 0.0000 0.0000
vt 0.0000 0.0000
vn -0.3415 0.8034 -0.4878
usemtl Material
s off
f 16/13/4 14/14/4 13/15/4 15/16/4
o Curve.105_Mesh.105
v -4.661597 0.582934 -5.555470
v -5.555472 0.582934 -4.661596
v -5.451137 0.683499 -4.574047
v -4.574048 0.683499 -5.451137
vt 0.0000 0.0000
vt 0.0000 0.0000
vt 0.0000 0.0000
vt 0.0000 0.0000
vn -0.4210 0.8034 -0.4211
usemtl Material
s off
f 20/17/5 17/18/5 18/19/5 19/20/5
o Curve.104_Mesh.104
v -5.555472 0.582934 -4.661596
v -6.280551 0.582934 -3.626081
v -6.162596 0.683499 -3.557982
v -5.451137 0.683499 -4.574047
vt 0.0000 0.0000
vt 0.0000 0.0000
vt 0.0000 0.0000
vt 0.0000 0.0000
vn -0.4878 0.8034 -0.3415
usemtl Material
s off
f 24/21/6 21/22/6 22/23/6 23/24/6
o Curve.103_Mesh.103
v -6.280551 0.582934 -3.626081
v -6.814795 0.582934 -2.480387
v -6.686811 0.683499 -2.433801
v -6.162596 0.683499 -3.557982
vt 0.0000 0.0000
vt 0.0000 0.0000
vt 0.0000 0.0000
vt 0.0000 0.0000
vn -0.5397 0.8034 -0.2516
usemtl Material
s off
f 28/25/7 25/26/7 26/27/7 27/28/7
o Curve.102_Mesh.102
v -6.814795 0.582934 -2.480387
v -7.141980 0.582934 -1.259327
v -7.007850 0.683499 -1.235676
v -6.686811 0.683499 -2.433801
vt 0.0000 0.0000
vt 0.0000 0.0000
vt 0.0000 0.0000
vt 0.0000 0.0000
vn -0.5752 0.8034 -0.1541
usemtl Material
s off
f 32/29/8 29/30/8 30/31/8 31/32/8
o Curve.101_Mesh.101
v -7.141980 0.582934 -1.259327
v -7.252154 0.582934 0.000004
v -7.007850 0.683499 -1.235676
v -7.115954 0.683499 0.000003
vt 0.0000 0.0000
vt 0.0000 0.0000
vt 0.0000 0.0000
vt 0.0000 0.0000
vn -0.5932 0.8034 -0.0519
usemtl Material
s off
f 35/33/9 33/34/9 34/35/9 36/36/9
o Curve.100_Mesh.100
v 1.259328 0.582934 -7.141980
v -0.000002 0.582934 -7.252154
v 1.235677 0.683499 -7.007850
v -0.000002 0.683499 -7.115953
vt 0.0000 0.0000
vt 0.0000 0.0000
vt 0.0000 0.0000
vt 0.0000 0.0000
vn 0.0519 0.8034 -0.5932
usemtl Material
s off
f 39/37/10 37/38/10 38/39/10 40/40/10
o Curve.099_Mesh.099
v 2.480388 0.582934 -6.814795
v 1.259328 0.582934 -7.141980
v 1.235677 0.683499 -7.007850
v 2.433802 0.683499 -6.686810
vt 0.0000 0.0000
vt 0.0000 0.0000
vt 0.0000 0.0000
vt 0.0000 0.0000
vn 0.1541 0.8034 -0.5752
usemtl Material
s off
f 44/41/11 41/42/11 42/43/11 43/44/11
o Curve.098_Mesh.098
v 3.626082 0.582934 -6.280551
v 2.480388 0.582934 -6.814795
v 2.433802 0.683499 -6.686810
v 3.557983 0.683499 -6.162596
vt 0.0000 0.0000
vt 0.0000 0.0000
vt 0.0000 0.0000
vt 0.0000 0.0000
vn 0.2516 0.8034 -0.5397
usemtl Material
s off
f 48/45/12 45/46/12 46/47/12 47/48/12
o Curve.097_Mesh.097
v 4.661597 0.582934 -5.555471
v 3.626082 0.582934 -6.280551
v 3.557983 0.683499 -6.162596
v 4.574048 0.683499 -5.451136
vt 0.0000 0.0000
vt 0.0000 0.0000
vt 0.0000 0.0000
vt 0.0000 0.0000
vn 0.3415 0.8034 -0.4878
usemtl Material
s off
f 52/49/13 49/50/13 50/51/13 51/52/13
o Curve.096_Mesh.096
v 5.555471 0.582934 -4.661596
v 4.661597 0.582934 -5.555471
v 4.574048 0.683499 -5.451136
v 5.451138 0.683499 -4.574046
vt 0.0000 0.0000
vt 0.0000 0.0000
vt 0.0000 0.0000
vt 0.0000 0.0000
vn 0.4210 0.8034 -0.4210
usemtl Material
s off
f 56/53/14 53/54/14 54/55/14 55/56/14
o Curve.095_Mesh.095
v 5.555471 0.582934 -4.661596
v 6.280554 0.582934 -3.626077
v 5.451138 0.683499 -4.574046
v 6.162599 0.683499 -3.557977
vt 0.0000 0.0000
vt 0.0000 0.0000
vt 0.0000 0.0000
vt 0.0000 0.0000
vn 0.4878 0.8034 -0.3415
usemtl Material
s off
f 60/57/15 58/58/15 57/59/15 59/60/15
o Curve.094_Mesh.094
v 6.814798 0.582934 -2.480382
v 6.280554 0.582934 -3.626077
v 6.162599 0.683499 -3.557977
v 6.686814 0.683499 -2.433797
vt 0.0000 0.0000
vt 0.0000 0.0000
vt 0.0000 0.0000
vt 0.0000 0.0000
vn 0.5397 0.8034 -0.2517
usemtl Material
s off
f 64/61/16 61/62/16 62/63/16 63/64/16
o Curve.093_Mesh.093
v 7.141980 0.582935 -1.259322
v 6.814798 0.582934 -2.480382
v 6.686814 0.683499 -2.433797
v 7.007850 0.683500 -1.235672
vt 0.0000 0.0000
vt 0.0000 0.0000
vt 0.0000 0.0000
vt 0.0000 0.0000
vn 0.5752 0.8034 -0.1541
usemtl Material
s off
f 68/65/17 65/66/17 66/67/17 67/68/17
o Curve.092_Mesh.092
v 7.252154 0.582935 0.000003
v 7.141980 0.582935 -1.259322
v 7.007850 0.683500 -1.235672
v 7.115954 0.683500 0.000003
vt 0.0000 0.0000
vt 0.0000 0.0000
vt 0.0000 0.0000
vt 0.0000 0.0000
vn 0.5932 0.8034 -0.0519
usemtl Material
s off
f 72/69/18 69/70/18 70/71/18 71/72/18
o Curve.091_Mesh.091
v -0.000005 0.582935 7.252154
v 1.259320 0.582935 7.141980
v 1.235670 0.683500 7.007850
v -0.000005 0.683500 7.115954
vt 0.0000 0.0000
vt 0.0000 0.0000
vt 0.0000 0.0000
vt 0.0000 0.0000
vn 0.0519 0.8034 0.5932
usemtl Material
s off
f 76/73/19 73/74/19 74/75/19 75/76/19
o Curve.090_Mesh.090
v 1.259320 0.582935 7.141980
v 2.480380 0.582934 6.814799
v 2.433795 0.683499 6.686815
v 1.235670 0.683500 7.007850
vt 0.0000 0.0000
vt 0.0000 0.0000
vt 0.0000 0.0000
vt 0.0000 0.0000
vn 0.1541 0.8034 0.5752
usemtl Material
s off
f 80/77/20 77/78/20 78/79/20 79/80/20
o Curve.089_Mesh.089
v 2.480380 0.582934 6.814799
v 3.626075 0.582934 6.280555
v 3.557975 0.683499 6.162600
v 2.433795 0.683499 6.686815
vt 0.0000 0.0000
vt 0.0000 0.0000
vt 0.0000 0.0000
vt 0.0000 0.0000
vn 0.2517 0.8034 0.5397
usemtl Material
s off
f 84/81/21 81/82/21 82/83/21 83/84/21
o Curve.088_Mesh.088
v 4.661594 0.582934 5.555473
v 3.626075 0.582934 6.280555
v 4.574045 0.683499 5.451139
v 3.557975 0.683499 6.162600
vt 0.0000 0.0000
vt 0.0000 0.0000
vt 0.0000 0.0000
vt 0.0000 0.0000
vn 0.3415 0.8034 0.4878
usemtl Material
s off
f 88/85/22 86/86/22 85/87/22 87/88/22
o Curve.087_Mesh.087
v 4.661594 0.582934 5.555473
v 5.555470 0.582934 4.661598
v 5.451134 0.683499 4.574050
v 4.574045 0.683499 5.451139
vt 0.0000 0.0000
vt 0.0000 0.0000
vt 0.0000 0.0000
vt 0.0000 0.0000
vn 0.4211 0.8034 0.4211
usemtl Material
s off
f 92/89/23 89/90/23 90/91/23 91/92/23
o Curve.086_Mesh.086
v 5.555470 0.582934 4.661598
v 6.280550 0.582934 3.626084
v 6.162594 0.683499 3.557985
v 5.451134 0.683499 4.574050
vt 0.0000 0.0000
vt 0.0000 0.0000
vt 0.0000 0.0000
vt 0.0000 0.0000
vn 0.4878 0.8034 0.3415
usemtl Material
s off
f 96/93/24 93/94/24 94/95/24 95/96/24
o Curve.085_Mesh.085
v 6.280550 0.582934 3.626084
v 6.814794 0.582934 2.480390
v 6.686810 0.683499 2.433804
v 6.162594 0.683499 3.557985
vt 0.0000 0.0000
vt 0.0000 0.0000
vt 0.0000 0.0000
vt 0.0000 0.0000
vn 0.5397 0.8034 0.2516
usemtl Material
s off
f 100/97/25 97/98/25 98/99/25 99/100/25
o Curve.084_Mesh.084
v 6.814794 0.582934 2.480390
v 7.141979 0.582934 1.259330
v 7.007849 0.683499 1.235679
v 6.686810 0.683499 2.433804
vt 0.0000 0.0000
vt 0.0000 0.0000
vt 0.0000 0.0000
vt 0.0000 0.0000
vn 0.5752 0.8034 0.1541
usemtl Material
s off
f 104/101/26 101/102/26 102/103/26 103/104/26
o Curve.083_Mesh.083
v 7.141979 0.582934 1.259330
v 7.252154 0.582934 -0.000000
v 7.007849 0.683499 1.235679
v 7.115953 0.683499 -0.000000
vt 0.0000 0.0000
vt 0.0000 0.0000
vt 0.0000 0.0000
vt 0.0000 0.0000
vn 0.5932 0.8034 0.0519
usemtl Material
s off
f 107/105/27 105/106/27 106/107/27 108/108/27
o Curve.082_Mesh.082
v -1.259331 0.582934 7.141979
v 0.000000 0.582934 7.252154
v -1.235679 0.683499 7.007849
v 0.000000 0.683499 7.115953
vt 0.0000 0.0000
vt 0.0000 0.0000
vt 0.0000 0.0000
vt 0.0000 0.0000
vn -0.0519 0.8034 0.5932
usemtl Material
s off
f 111/109/28 109/110/28 110/111/28 112/112/28
o Curve.081_Mesh.081
v -2.480390 0.582934 6.814794
v -1.259331 0.582934 7.141979
v -1.235679 0.683499 7.007849
v -2.433804 0.683499 6.686810
vt 0.0000 0.0000
vt 0.0000 0.0000
vt 0.0000 0.0000
vt 0.0000 0.0000
vn -0.1541 0.8034 0.5752
usemtl Material
s off
f 116/113/29 113/114/29 114/115/29 115/116/29
o Curve.080_Mesh.080
v -3.626084 0.582934 6.280549
v -2.480390 0.582934 6.814794
v -2.433804 0.683499 6.686810
v -3.557985 0.683499 6.162594
vt 0.0000 0.0000
vt 0.0000 0.0000
vt 0.0000 0.0000
vt 0.0000 0.0000
vn -0.2517 0.8034 0.5397
usemtl Material
s off
f 120/117/30 117/118/30 118/119/30 119/120/30
o Curve.079_Mesh.079
v -4.661599 0.582934 5.555470
v -3.626084 0.582934 6.280549
v -3.557985 0.683499 6.162594
v -4.574050 0.683499 5.451134
vt 0.0000 0.0000
vt 0.0000 0.0000
vt 0.0000 0.0000
vt 0.0000 0.0000
vn -0.3415 0.8034 0.4878
usemtl Material
s off
f 124/121/31 121/122/31 122/123/31 123/124/31
o Curve.078_Mesh.078
v -5.555473 0.582934 4.661594
v -4.661599 0.582934 5.555470
v -4.574050 0.683499 5.451134
v -5.451139 0.683499 4.574044
vt 0.0000 0.0000
vt 0.0000 0.0000
vt 0.0000 0.0000
vt 0.0000 0.0000
vn -0.4211 0.8034 0.4211
usemtl Material
s off
f 128/125/32 125/126/32 126/127/32 127/128/32
o Curve.077_Mesh.077
v -5.555473 0.582934 4.661594
v -6.280555 0.582934 3.626074
v -5.451139 0.683499 4.574044
v -6.162600 0.683499 3.557975
vt 0.0000 0.0000
vt 0.0000 0.0000
vt 0.0000 0.0000
vt 0.0000 0.0000
vn -0.4878 0.8034 0.3415
usemtl Material
s off
f 132/129/33 130/130/33 129/131/33 131/132/33
o Curve.076_Mesh.076
v -6.814799 0.582934 2.480380
v -6.280555 0.582934 3.626074
v -6.162600 0.683499 3.557975
v -6.686815 0.683499 2.433794
vt 0.0000 0.0000
vt 0.0000 0.0000
vt 0.0000 0.0000
vt 0.0000 0.0000
vn -0.5397 0.8034 0.2517
usemtl Material
s off
f 136/133/34 133/134/34 134/135/34 135/136/34
o Curve.075_Mesh.075
v -7.141980 0.582935 1.259320
v -6.814799 0.582934 2.480380
v -6.686815 0.683499 2.433794
v -7.007850 0.683500 1.235669
vt 0.0000 0.0000
vt 0.0000 0.0000
vt 0.0000 0.0000
vt 0.0000 0.0000
vn -0.5752 0.8034 0.1541
usemtl Material
s off
f 140/137/35 137/138/35 138/139/35 139/140/35
o Curve.074_Mesh.074
v -7.252154 0.582935 -0.000005
v -7.141980 0.582935 1.259320
v -7.007850 0.683500 1.235669
v -7.115954 0.683500 -0.000005
vt 0.0000 0.0000
vt 0.0000 0.0000
vt 0.0000 0.0000
vt 0.0000 0.0000
vn -0.5932 0.8034 0.0519
usemtl Material
s off
f 144/141/36 141/142/36 142/143/36 143/144/36
o Curve.073_Mesh.073
v -7.386055 -0.000001 -1.302361
v -7.385790 0.672644 -1.302316
v -7.500000 -0.000001 0.000004
v -7.499730 0.672644 0.000004
v -7.252154 -0.000001 0.000004
v -7.141980 -0.000001 -1.259327
v -7.141980 0.582934 -1.259327
v -7.252154 0.582934 0.000004
vt 0.6387 0.2748
vt 0.6387 0.2681
vt 0.6423 0.2681
vt 0.6423 0.2748
vt 0.3707 0.1176
vt 0.3707 0.1245
vt 0.3693 0.1246
vt 0.3693 0.1175
vt 0.4311 0.3429
vt 0.4312 0.3488
vt 0.4280 0.3488
vt 0.4280 0.3429
vn -0.9962 0.0004 -0.0872
vn 0.0000 -1.0000 -0.0000
vn 0.9962 0.0000 0.0872
usemtl Material_kANAsset_dif.png
s 1
f 145/145/37 147/146/37 148/147/37 146/148/37
f 150/149/38 149/150/38 147/151/38 145/152/38
f 149/153/39 150/154/39 151/155/39 152/156/39
o Curve.072_Mesh.072
v -7.141980 0.582934 -1.259327
v -6.814795 0.582934 -2.480387
v -7.141980 -0.000001 -1.259327
v -6.814795 -0.000001 -2.480387
v -7.385790 0.672644 -1.302316
v -7.386055 -0.000001 -1.302361
v -7.047441 0.672644 -2.565061
v -7.047691 -0.000001 -2.565151
vt 0.4312 0.3488
vt 0.4312 0.3541
vt 0.4280 0.3541
vt 0.4280 0.3488
vt 0.3719 0.1108
vt 0.3707 0.1176
vt 0.3693 0.1175
vt 0.3706 0.1104
vt 0.6387 0.2810
vt 0.6387 0.2748
vt 0.6423 0.2748
vt 0.6424 0.2810
vn 0.9659 0.0000 0.2588
vn 0.0000 -1.0000 0.0000
vn -0.9659 0.0004 -0.2588
usemtl Material_kANAsset_dif.png
s 1
f 155/157/40 156/158/40 154/159/40 153/160/40
f 156/161/41 155/162/41 158/163/41 160/164/41
f 160/165/42 158/166/42 157/167/42 159/168/42
o Curve.071_Mesh.071
v -6.814795 0.582934 -2.480387
v -6.280551 0.582934 -3.626081
v -6.814795 -0.000001 -2.480387
v -6.280551 -0.000001 -3.626081
v -7.047441 0.672644 -2.565061
v -7.047691 -0.000001 -2.565151
v -6.494957 0.672644 -3.749867
v -6.495187 -0.000001 -3.750001
vt 0.6426 0.0802
vt 0.6426 0.0847
vt 0.6394 0.0847
vt 0.6394 0.0802
vt 0.3742 0.1043
vt 0.3719 0.1108
vt 0.3706 0.1104
vt 0.3730 0.1037
vt 0.6387 0.2865
vt 0.6387 0.2810
vt 0.6424 0.2810
vt 0.6424 0.2865
vn 0.9063 0.0000 0.4226
vn 0.0000 -1.0000 0.0000
vn -0.9063 0.0004 -0.4226
usemtl Material_kANAsset_dif.png
s 1
f 163/169/43 164/170/43 162/171/43 161/172/43
f 164/173/44 163/174/44 166/175/44 168/176/44
f 168/177/45 166/178/45 165/179/45 167/180/45
o Curve.070_Mesh.070
v -6.280551 0.582934 -3.626081
v -5.555472 0.582934 -4.661596
v -6.280551 -0.000001 -3.626081
v -5.555472 -0.000001 -4.661596
v -5.745122 0.672644 -4.820731
v -6.494957 0.672644 -3.749867
v -6.495187 -0.000001 -3.750001
v -5.745332 -0.000001 -4.820907
vt 0.6426 0.0847
vt 0.6425 0.0900
vt 0.6394 0.0900
vt 0.6394 0.0847
vt 0.3777 0.0983
vt 0.3742 0.1043
vt 0.3730 0.1037
vt 0.3766 0.0975
vt 0.4242 0.3043
vt 0.4243 0.2981
vt 0.4279 0.2981
vt 0.4279 0.3043
vn 0.8192 0.0000 0.5736
vn 0.0000 -1.0000 -0.0000
vn -0.8192 0.0004 -0.5736
usemtl Material_kANAsset_dif.png
s 1
f 171/181/46 172/182/46 170/183/46 169/184/46
f 172/185/47 171/186/47 175/187/47 176/188/47
f 176/189/48 175/190/48 174/191/48 173/192/48
o Curve.069_Mesh.069
v -5.555472 0.582934 -4.661596
v -4.661597 0.582934 -5.555470
v -5.555472 -0.000001 -4.661596
v -4.661598 -0.000000 -5.555470
v -4.820733 0.672644 -5.745127
v -4.820908 -0.000000 -5.745332
v -5.745122 0.672644 -4.820731
v -5.745332 -0.000001 -4.820907
vt 0.6425 0.0900
vt 0.6425 0.0960
vt 0.6393 0.0960
vt 0.6394 0.0900
vt 0.3821 0.0930
vt 0.3777 0.0983
vt 0.3766 0.0975
vt 0.3811 0.0921
vt 0.4242 0.3110
vt 0.4242 0.3043
vt 0.4279 0.3043
vt 0.4279 0.3110
vn 0.7071 0.0000 0.7071
vn 0.0000 -1.0000 -0.0000
vn -0.7071 0.0004 -0.7071
usemtl Material_kANAsset_dif.png
s 1
f 179/193/49 180/194/49 178/195/49 177/196/49
f 180/197/50 179/198/50 184/199/50 182/200/50
f 182/201/51 184/202/51 183/203/51 181/204/51
o Curve.068_Mesh.068
v -3.626078 0.582935 -6.280553
v -4.661597 0.582934 -5.555470
v -4.661598 -0.000000 -5.555470
v -3.626078 -0.000000 -6.280553
v -4.820733 0.672644 -5.745127
v -4.820908 -0.000000 -5.745332
v -3.749863 0.672645 -6.494953
v -3.749998 -0.000000 -6.495188
vt 0.6425 0.0960
vt 0.6425 0.1025
vt 0.6393 0.1025
vt 0.6393 0.0960
vt 0.3874 0.0886
vt 0.3821 0.0930
vt 0.3811 0.0921
vt 0.3866 0.0875
vt 0.4242 0.3181
vt 0.4242 0.3110
vt 0.4279 0.3110
vt 0.4279 0.3181
vn 0.5736 0.0000 0.8192
vn 0.0000 -1.0000 -0.0000
vn -0.5736 0.0004 -0.8192
usemtl Material_kANAsset_dif.png
s 1
f 187/205/52 188/206/52 185/207/52 186/208/52
f 188/209/53 187/210/53 190/211/53 192/212/53
f 192/213/54 190/214/54 189/215/54 191/216/54
o Curve.067_Mesh.067
v -3.626078 0.582935 -6.280553
v -2.480383 0.582934 -6.814798
v -3.626078 -0.000000 -6.280553
v -2.480383 -0.000000 -6.814798
v -3.749863 0.672645 -6.494953
v -3.749998 -0.000000 -6.495188
v -2.565059 0.672644 -7.047439
v -2.565148 -0.000000 -7.047694
vt 0.6425 0.1025
vt 0.6425 0.1093
vt 0.6393 0.1093
vt 0.6393 0.1025
vt 0.3934 0.0852
vt 0.3874 0.0886
vt 0.3866 0.0875
vt 0.3928 0.0839
vt 0.4242 0.3252
vt 0.4242 0.3181
vt 0.4279 0.3181
vt 0.4279 0.3252
vn 0.4226 0.0000 0.9063
vn -0.0000 -1.0000 0.0000
vn -0.4226 0.0004 -0.9063
usemtl Material_kANAsset_dif.png
s 1
f 195/217/55 196/218/55 194/219/55 193/220/55
f 196/221/56 195/222/56 198/223/56 200/224/56
f 200/225/57 198/226/57 197/227/57 199/228/57
o Curve.066_Mesh.066
v -2.480383 0.582934 -6.814798
v -1.259324 0.582935 -7.141979
v -2.480383 -0.000000 -6.814798
v -1.259323 -0.000000 -7.141979
v -2.565059 0.672644 -7.047439
v -2.565148 -0.000000 -7.047694
v -1.302314 0.672645 -7.385788
v -1.302364 -0.000000 -7.386058
vt 0.6425 0.1093
vt 0.6425 0.1162
vt 0.6393 0.1162
vt 0.6393 0.1093
vt 0.3998 0.0828
vt 0.3934 0.0852
vt 0.3928 0.0839
vt 0.3995 0.0815
vt 0.4242 0.3322
vt 0.4242 0.3252
vt 0.4279 0.3252
vt 0.4279 0.3322
vn 0.2588 0.0000 0.9659
vn 0.0000 -1.0000 0.0000
vn -0.2588 0.0004 -0.9659
usemtl Material_kANAsset_dif.png
s 1
f 203/229/58 204/230/58 202/231/58 201/232/58
f 204/233/59 203/234/59 206/235/59 208/236/59
f 208/237/60 206/238/60 205/239/60 207/240/60
o Curve.065_Mesh.065
v -1.259324 0.582935 -7.141979
v 0.000001 0.582935 -7.252154
v -1.259323 -0.000000 -7.141979
v 0.000001 0.000000 -7.252154
v -1.302314 0.672645 -7.385788
v -1.302364 -0.000000 -7.386058
v 0.000001 0.672645 -7.499729
v 0.000001 0.000000 -7.499999
vt 0.6425 0.1162
vt 0.6425 0.1230
vt 0.6393 0.1230
vt 0.6393 0.1162
vt 0.4066 0.0816
vt 0.3998 0.0828
vt 0.3995 0.0815
vt 0.4065 0.0802
vt 0.4242 0.3389
vt 0.4242 0.3322
vt 0.4279 0.3322
vt 0.4279 0.3389
vn 0.0872 0.0000 0.9962
vn 0.0000 -1.0000 -0.0000
vn -0.0872 0.0004 -0.9962
usemtl Material_kANAsset_dif.png
s 1
f 211/241/61 212/242/61 210/243/61 209/244/61
f 212/245/62 211/246/62 214/247/62 216/248/62
f 216/249/63 214/250/63 213/251/63 215/252/63
o Curve.064_Mesh.064
v 7.141980 0.582935 -1.259322
v 7.252154 0.582935 0.000003
v 7.141980 -0.000000 -1.259322
v 7.252154 0.000000 0.000003
v 7.385789 0.672645 -1.302312
v 7.386059 -0.000000 -1.302362
v 7.499729 0.672645 0.000003
v 7.499999 0.000000 0.000003
vt 0.6425 0.1162
vt 0.6425 0.1230
vt 0.6393 0.1230
vt 0.6393 0.1162
vt 0.4066 0.0816
vt 0.3998 0.0828
vt 0.3995 0.0815
vt 0.4065 0.0802
vt 0.4242 0.3389
vt 0.4242 0.3322
vt 0.4279 0.3322
vt 0.4279 0.3389
vn -0.9962 0.0000 0.0872
vn 0.0000 -1.0000 0.0000
vn 0.9962 0.0004 -0.0872
usemtl Material_kANAsset_dif.png
s 1
f 219/253/64 220/254/64 218/255/64 217/256/64
f 220/257/65 219/258/65 222/259/65 224/260/65
f 224/261/66 222/262/66 221/263/66 223/264/66
o Curve.063_Mesh.063
v 6.814798 0.582934 -2.480382
v 7.141980 0.582935 -1.259322
v 6.814798 -0.000000 -2.480382
v 7.141980 -0.000000 -1.259322
v 7.047439 0.672644 -2.565057
v 7.047694 -0.000000 -2.565147
v 7.385789 0.672645 -1.302312
v 7.386059 -0.000000 -1.302362
vt 0.6425 0.1093
vt 0.6425 0.1162
vt 0.6393 0.1162
vt 0.6393 0.1093
vt 0.3998 0.0828
vt 0.3934 0.0852
vt 0.3928 0.0839
vt 0.3995 0.0815
vt 0.4242 0.3322
vt 0.4242 0.3252
vt 0.4279 0.3252
vt 0.4279 0.3322
vn -0.9659 0.0000 0.2588
vn -0.0000 -1.0000 0.0000
vn 0.9659 0.0004 -0.2588
usemtl Material_kANAsset_dif.png
s 1
f 227/265/67 228/266/67 226/267/67 225/268/67
f 228/269/68 227/270/68 230/271/68 232/272/68
f 232/273/69 230/274/69 229/275/69 231/276/69
o Curve.062_Mesh.062
v 6.280554 0.582935 -3.626077
v 6.814798 0.582934 -2.480382
v 6.280554 -0.000000 -3.626077
v 6.814798 -0.000000 -2.480382
v 6.494954 0.672645 -3.749861
v 6.495189 -0.000000 -3.749997
v 7.047439 0.672644 -2.565057
v 7.047694 -0.000000 -2.565147
vt 0.6425 0.1025
vt 0.6425 0.1093
vt 0.6393 0.1093
vt 0.6393 0.1025
vt 0.3934 0.0852
vt 0.3874 0.0886
vt 0.3866 0.0875
vt 0.3928 0.0839
vt 0.4242 0.3252
vt 0.4242 0.3181
vt 0.4279 0.3181
vt 0.4279 0.3252
vn -0.9063 0.0000 0.4226
vn -0.0000 -1.0000 -0.0000
vn 0.9063 0.0004 -0.4226
usemtl Material_kANAsset_dif.png
s 1
f 235/277/70 236/278/70 234/279/70 233/280/70
f 236/281/71 235/282/71 238/283/71 240/284/71
f 240/285/72 238/286/72 237/287/72 239/288/72
o Curve.061_Mesh.061
v 6.280554 0.582935 -3.626077
v 5.555471 0.582934 -4.661596
v 5.555471 -0.000000 -4.661596
v 6.280554 -0.000000 -3.626077
v 5.745128 0.672644 -4.820731
v 5.745333 -0.000000 -4.820907
v 6.494954 0.672645 -3.749861
v 6.495189 -0.000000 -3.749997
vt 0.6425 0.0960
vt 0.6425 0.1025
vt 0.6393 0.1025
vt 0.6393 0.0960
vt 0.3874 0.0886
vt 0.3821 0.0930
vt 0.3811 0.0921
vt 0.3866 0.0875
vt 0.4242 0.3181
vt 0.4242 0.3110
vt 0.4279 0.3110
vt 0.4279 0.3181
vn -0.8192 0.0000 0.5736
vn 0.0000 -1.0000 0.0000
vn 0.8192 0.0004 -0.5736
usemtl Material_kANAsset_dif.png
s 1
f 243/289/73 244/290/73 241/291/73 242/292/73
f 244/293/74 243/294/74 246/295/74 248/296/74
f 248/297/75 246/298/75 245/299/75 247/300/75
o Curve.060_Mesh.060
v 4.661597 0.582934 -5.555471
v 5.555471 0.582934 -4.661596
v 4.661597 -0.000001 -5.555471
v 5.555471 -0.000000 -4.661596
v 5.745128 0.672644 -4.820731
v 5.745333 -0.000000 -4.820907
v 4.820732 0.672644 -5.745121
v 4.820908 -0.000001 -5.745332
vt 0.6425 0.0900
vt 0.6425 0.0960
vt 0.6393 0.0960
vt 0.6394 0.0900
vt 0.3821 0.0930
vt 0.3777 0.0983
vt 0.3766 0.0975
vt 0.3811 0.0921
vt 0.4242 0.3110
vt 0.4242 0.3043
vt 0.4279 0.3043
vt 0.4279 0.3110
vn -0.7071 0.0000 0.7071
vn 0.0000 -1.0000 0.0000
vn 0.7071 0.0004 -0.7071
usemtl Material_kANAsset_dif.png
s 1
f 251/301/76 252/302/76 250/303/76 249/304/76
f 252/305/77 251/306/77 256/307/77 254/308/77
f 254/309/78 256/310/78 255/311/78 253/312/78
o Curve.059_Mesh.059
v 3.626082 0.582934 -6.280551
v 4.661597 0.582934 -5.555471
v 3.626082 -0.000001 -6.280551
v 4.661597 -0.000001 -5.555471
v 4.820732 0.672644 -5.745121
v 3.749868 0.672644 -6.494957
v 3.750003 -0.000001 -6.495186
v 4.820908 -0.000001 -5.745332
vt 0.6426 0.0847
vt 0.6425 0.0900
vt 0.6394 0.0900
vt 0.6394 0.0847
vt 0.3777 0.0983
vt 0.3742 0.1043
vt 0.3730 0.1037
vt 0.3766 0.0975
vt 0.4242 0.3043
vt 0.4243 0.2981
vt 0.4279 0.2981
vt 0.4279 0.3043
vn -0.5736 0.0000 0.8192
vn 0.0000 -1.0000 0.0000
vn 0.5736 0.0004 -0.8192
usemtl Material_kANAsset_dif.png
s 1
f 259/313/79 260/314/79 258/315/79 257/316/79
f 260/317/80 259/318/80 263/319/80 264/320/80
f 264/321/81 263/322/81 262/323/81 261/324/81
o Curve.058_Mesh.058
v 2.480388 0.582934 -6.814795
v 3.626082 0.582934 -6.280551
v 2.480388 -0.000001 -6.814795
v 3.626082 -0.000001 -6.280551
v 2.565062 0.672644 -7.047441
v 2.565152 -0.000001 -7.047690
v 3.749868 0.672644 -6.494957
v 3.750003 -0.000001 -6.495186
vt 0.6426 0.0802
vt 0.6426 0.0847
vt 0.6394 0.0847
vt 0.6394 0.0802
vt 0.3742 0.1043
vt 0.3719 0.1108
vt 0.3706 0.1104
vt 0.3730 0.1037
vt 0.6387 0.2865
vt 0.6387 0.2810
vt 0.6424 0.2810
vt 0.6424 0.2865
vn -0.4226 0.0000 0.9063
vn -0.0000 -1.0000 0.0000
vn 0.4226 0.0004 -0.9063
usemtl Material_kANAsset_dif.png
s 1
f 267/325/82 268/326/82 266/327/82 265/328/82
f 268/329/83 267/330/83 270/331/83 272/332/83
f 272/333/84 270/334/84 269/335/84 271/336/84
o Curve.057_Mesh.057
v 1.259328 0.582934 -7.141980
v 2.480388 0.582934 -6.814795
v 1.259328 -0.000001 -7.141980
v 2.480388 -0.000001 -6.814795
v 1.302317 0.672644 -7.385790
v 1.302363 -0.000001 -7.386055
v 2.565062 0.672644 -7.047441
v 2.565152 -0.000001 -7.047690
vt 0.4312 0.3488
vt 0.4312 0.3541
vt 0.4280 0.3541
vt 0.4280 0.3488
vt 0.3719 0.1108
vt 0.3707 0.1176
vt 0.3693 0.1175
vt 0.3706 0.1104
vt 0.6387 0.2810
vt 0.6387 0.2748
vt 0.6423 0.2748
vt 0.6424 0.2810
vn -0.2588 0.0000 0.9659
vn -0.0000 -1.0000 0.0000
vn 0.2588 0.0004 -0.9659
usemtl Material_kANAsset_dif.png
s 1
f 275/337/85 276/338/85 274/339/85 273/340/85
f 276/341/86 275/342/86 278/343/86 280/344/86
f 280/345/87 278/346/87 277/347/87 279/348/87
o Curve.056_Mesh.056
v 1.302363 -0.000001 -7.386055
v 1.302317 0.672644 -7.385790
v -0.000003 -0.000001 -7.500000
v -0.000002 0.672644 -7.499729
v -0.000002 -0.000001 -7.252154
v 1.259328 -0.000001 -7.141980
v 1.259328 0.582934 -7.141980
v -0.000002 0.582934 -7.252154
vt 0.6387 0.2748
vt 0.6387 0.2681
vt 0.6423 0.2681
vt 0.6423 0.2748
vt 0.3707 0.1176
vt 0.3707 0.1245
vt 0.3693 0.1246
vt 0.3693 0.1175
vt 0.4311 0.3429
vt 0.4312 0.3488
vt 0.4280 0.3488
vt 0.4280 0.3429
vn 0.0872 0.0004 -0.9962
vn 0.0000 -1.0000 0.0000
vn -0.0872 0.0000 0.9962
usemtl Material_kANAsset_dif.png
s 1
f 281/349/88 283/350/88 284/351/88 282/352/88
f 286/353/89 285/354/89 283/355/89 281/356/89
f 285/357/90 286/358/90 287/359/90 288/360/90
o Curve.055_Mesh.055
v 7.386055 -0.000001 1.302365
v 7.385789 0.672644 1.302320
v 7.500000 -0.000001 -0.000000
v 7.499729 0.672644 -0.000000
v 7.252154 -0.000001 -0.000000
v 7.141979 -0.000001 1.259330
v 7.141979 0.582934 1.259330
v 7.252154 0.582934 -0.000000
vt 0.6387 0.2748
vt 0.6387 0.2681
vt 0.6423 0.2681
vt 0.6423 0.2748
vt 0.3707 0.1176
vt 0.3707 0.1245
vt 0.3693 0.1246
vt 0.3693 0.1175
vt 0.4311 0.3429
vt 0.4312 0.3488
vt 0.4280 0.3488
vt 0.4280 0.3429
vn 0.9962 0.0004 0.0872
vn -0.0000 -1.0000 0.0000
vn -0.9962 0.0000 -0.0872
usemtl Material_kANAsset_dif.png
s 1
f 289/361/91 291/362/91 292/363/91 290/364/91
f 294/365/92 293/366/92 291/367/92 289/368/92
f 293/369/93 294/370/93 295/371/93 296/372/93
o Curve.054_Mesh.054
v 7.141979 0.582934 1.259330
v 6.814794 0.582934 2.480390
v 7.141979 -0.000001 1.259330
v 6.814794 -0.000001 2.480390
v 7.385789 0.672644 1.302320
v 7.386055 -0.000001 1.302365
v 7.047440 0.672644 2.565064
v 7.047689 -0.000001 2.565154
vt 0.4312 0.3488
vt 0.4312 0.3541
vt 0.4280 0.3541
vt 0.4280 0.3488
vt 0.3719 0.1108
vt 0.3707 0.1176
vt 0.3693 0.1175
vt 0.3706 0.1104
vt 0.6387 0.2810
vt 0.6387 0.2748
vt 0.6423 0.2748
vt 0.6424 0.2810
vn -0.9659 0.0000 -0.2588
vn -0.0000 -1.0000 -0.0000
vn 0.9659 0.0004 0.2588
usemtl Material_kANAsset_dif.png
s 1
f 299/373/94 300/374/94 298/375/94 297/376/94
f 300/377/95 299/378/95 302/379/95 304/380/95
f 304/381/96 302/382/96 301/383/96 303/384/96
o Curve.053_Mesh.053
v 6.814794 0.582934 2.480390
v 6.280550 0.582934 3.626084
v 6.814794 -0.000001 2.480390
v 6.280550 -0.000001 3.626084
v 7.047440 0.672644 2.565064
v 7.047689 -0.000001 2.565154
v 6.494956 0.672644 3.749870
v 6.495185 -0.000001 3.750004
vt 0.6426 0.0802
vt 0.6426 0.0847
vt 0.6394 0.0847
vt 0.6394 0.0802
vt 0.3742 0.1043
vt 0.3719 0.1108
vt 0.3706 0.1104
vt 0.3730 0.1037
vt 0.6387 0.2865
vt 0.6387 0.2810
vt 0.6424 0.2810
vt 0.6424 0.2865
vn -0.9063 0.0000 -0.4226
vn -0.0000 -1.0000 -0.0000
vn 0.9063 0.0004 0.4226
usemtl Material_kANAsset_dif.png
s 1
f 307/385/97 308/386/97 306/387/97 305/388/97
f 308/389/98 307/390/98 310/391/98 312/392/98
f 312/393/99 310/394/99 309/395/99 311/396/99
o Curve.052_Mesh.052
v 6.280550 0.582934 3.626084
v 5.555470 0.582934 4.661598
v 6.280550 -0.000001 3.626084
v 5.555470 -0.000001 4.661598
v 5.745120 0.672644 4.820733
v 6.494956 0.672644 3.749870
v 6.495185 -0.000001 3.750004
v 5.745330 -0.000001 4.820909
vt 0.6426 0.0847
vt 0.6425 0.0900
vt 0.6394 0.0900
vt 0.6394 0.0847
vt 0.3777 0.0983
vt 0.3742 0.1043
vt 0.3730 0.1037
vt 0.3766 0.0975
vt 0.4242 0.3043
vt 0.4243 0.2981
vt 0.4279 0.2981
vt 0.4279 0.3043
vn -0.8192 0.0000 -0.5736
vn -0.0000 -1.0000 0.0000
vn 0.8192 0.0004 0.5736
usemtl Material_kANAsset_dif.png
s 1
f 315/397/100 316/398/100 314/399/100 313/400/100
f 316/401/101 315/402/101 319/403/101 320/404/101
f 320/405/102 319/406/102 318/407/102 317/408/102
o Curve.051_Mesh.051
v 5.555470 0.582934 4.661598
v 4.661594 0.582934 5.555473
v 5.555470 -0.000001 4.661598
v 4.661595 -0.000000 5.555473
v 4.820730 0.672644 5.745130
v 4.820905 -0.000000 5.745335
v 5.745120 0.672644 4.820733
v 5.745330 -0.000001 4.820909
vt 0.6425 0.0900
vt 0.6425 0.0960
vt 0.6393 0.0960
vt 0.6394 0.0900
vt 0.3821 0.0930
vt 0.3777 0.0983
vt 0.3766 0.0975
vt 0.3811 0.0921
vt 0.4242 0.3110
vt 0.4242 0.3043
vt 0.4279 0.3043
vt 0.4279 0.3110
vn -0.7071 -0.0000 -0.7071
vn -0.0000 -1.0000 0.0000
vn 0.7071 0.0004 0.7071
usemtl Material_kANAsset_dif.png
s 1
f 323/409/103 324/410/103 322/411/103 321/412/103
f 324/413/104 323/414/104 328/415/104 326/416/104
f 326/417/105 328/418/105 327/419/105 325/420/105
o Curve.050_Mesh.050
v 3.626075 0.582935 6.280555
v 4.661594 0.582934 5.555473
v 4.661595 -0.000000 5.555473
v 3.626075 -0.000000 6.280555
v 4.820730 0.672644 5.745130
v 4.820905 -0.000000 5.745335
v 3.749859 0.672645 6.494955
v 3.749995 -0.000000 6.495190
vt 0.6425 0.0960
vt 0.6425 0.1025
vt 0.6393 0.1025
vt 0.6393 0.0960
vt 0.3874 0.0886
vt 0.3821 0.0930
vt 0.3811 0.0921
vt 0.3866 0.0875
vt 0.4242 0.3181
vt 0.4242 0.3110
vt 0.4279 0.3110
vt 0.4279 0.3181
vn -0.5736 -0.0000 -0.8192
vn -0.0000 -1.0000 0.0000
vn 0.5736 0.0004 0.8192
usemtl Material_kANAsset_dif.png
s 1
f 331/421/106 332/422/106 329/423/106 330/424/106
f 332/425/107 331/426/107 334/427/107 336/428/107
f 336/429/108 334/430/108 333/431/108 335/432/108
o Curve.049_Mesh.049
v 3.626075 0.582935 6.280555
v 2.480380 0.582934 6.814799
v 3.626075 -0.000000 6.280555
v 2.480380 -0.000000 6.814799
v 3.749859 0.672645 6.494955
v 3.749995 -0.000000 6.495190
v 2.565055 0.672644 7.047440
v 2.565145 -0.000000 7.047695
vt 0.6425 0.1025
vt 0.6425 0.1093
vt 0.6393 0.1093
vt 0.6393 0.1025
vt 0.3934 0.0852
vt 0.3874 0.0886
vt 0.3866 0.0875
vt 0.3928 0.0839
vt 0.4242 0.3252
vt 0.4242 0.3181
vt 0.4279 0.3181
vt 0.4279 0.3252
vn -0.4226 0.0000 -0.9063
vn 0.0000 -1.0000 -0.0000
vn 0.4226 0.0004 0.9063
usemtl Material_kANAsset_dif.png
s 1
f 339/433/109 340/434/109 338/435/109 337/436/109
f 340/437/110 339/438/110 342/439/110 344/440/110
f 344/441/111 342/442/111 341/443/111 343/444/111
o Curve.048_Mesh.048
v 2.480380 0.582934 6.814799
v 1.259320 0.582935 7.141980
v 2.480380 -0.000000 6.814799
v 1.259319 -0.000000 7.141980
v 2.565055 0.672644 7.047440
v 2.565145 -0.000000 7.047695
v 1.302310 0.672645 7.385789
v 1.302360 -0.000000 7.386059
vt 0.6425 0.1093
vt 0.6425 0.1162
vt 0.6393 0.1162
vt 0.6393 0.1093
vt 0.3998 0.0828
vt 0.3934 0.0852
vt 0.3928 0.0839
vt 0.3995 0.0815
vt 0.4242 0.3322
vt 0.4242 0.3252
vt 0.4279 0.3252
vt 0.4279 0.3322
vn -0.2588 0.0000 -0.9659
vn -0.0000 -1.0000 -0.0000
vn 0.2588 0.0004 0.9659
usemtl Material_kANAsset_dif.png
s 1
f 347/445/112 348/446/112 346/447/112 345/448/112
f 348/449/113 347/450/113 350/451/113 352/452/113
f 352/453/114 350/454/114 349/455/114 351/456/114
o Curve.047_Mesh.047
v 1.259320 0.582935 7.141980
v -0.000005 0.582935 7.252154
v 1.259319 -0.000000 7.141980
v -0.000005 0.000000 7.252154
v 1.302310 0.672645 7.385789
v 1.302360 -0.000000 7.386059
v -0.000005 0.672645 7.499729
v -0.000005 0.000000 7.499999
vt 0.6425 0.1162
vt 0.6425 0.1230
vt 0.6393 0.1230
vt 0.6393 0.1162
vt 0.4066 0.0816
vt 0.3998 0.0828
vt 0.3995 0.0815
vt 0.4065 0.0802
vt 0.4242 0.3389
vt 0.4242 0.3322
vt 0.4279 0.3322
vt 0.4279 0.3389
vn -0.0872 0.0000 -0.9962
vn -0.0000 -1.0000 0.0000
vn 0.0872 0.0004 0.9962
usemtl Material_kANAsset_dif.png
s 1
f 355/457/115 356/458/115 354/459/115 353/460/115
f 356/461/116 355/462/116 358/463/116 360/464/116
f 360/465/117 358/466/117 357/467/117 359/468/117
o Curve.046_Mesh.046
v -7.141980 0.582935 1.259320
v -7.252154 0.582935 -0.000005
v -7.141980 -0.000000 1.259319
v -7.252154 0.000000 -0.000006
v -7.385789 0.672645 1.302310
v -7.386059 -0.000000 1.302360
v -7.499729 0.672645 -0.000005
v -7.499999 0.000000 -0.000006
vt 0.6425 0.1162
vt 0.6425 0.1230
vt 0.6393 0.1230
vt 0.6393 0.1162
vt 0.4066 0.0816
vt 0.3998 0.0828
vt 0.3995 0.0815
vt 0.4065 0.0802
vt 0.4242 0.3389
vt 0.4242 0.3322
vt 0.4279 0.3322
vt 0.4279 0.3389
vn 0.9962 0.0000 -0.0872
vn -0.0000 -1.0000 -0.0000
vn -0.9962 0.0004 0.0872
usemtl Material_kANAsset_dif.png
s 1
f 363/469/118 364/470/118 362/471/118 361/472/118
f 364/473/119 363/474/119 366/475/119 368/476/119
f 368/477/120 366/478/120 365/479/120 367/480/120
o Curve.045_Mesh.045
v -6.814799 0.582934 2.480380
v -7.141980 0.582935 1.259320
v -6.814799 -0.000000 2.480379
v -7.141980 -0.000000 1.259319
v -7.047440 0.672644 2.565055
v -7.047695 -0.000000 2.565145
v -7.385789 0.672645 1.302310
v -7.386059 -0.000000 1.302360
vt 0.6425 0.1093
vt 0.6425 0.1162
vt 0.6393 0.1162
vt 0.6393 0.1093
vt 0.3998 0.0828
vt 0.3934 0.0852
vt 0.3928 0.0839
vt 0.3995 0.0815
vt 0.4242 0.3322
vt 0.4242 0.3252
vt 0.4279 0.3252
vt 0.4279 0.3322
vn 0.9659 0.0000 -0.2588
vn 0.0000 -1.0000 -0.0000
vn -0.9659 0.0004 0.2588
usemtl Material_kANAsset_dif.png
s 1
f 371/481/121 372/482/121 370/483/121 369/484/121
f 372/485/122 371/486/122 374/487/122 376/488/122
f 376/489/123 374/490/123 373/491/123 375/492/123
o Curve.044_Mesh.044
v -6.280555 0.582935 3.626074
v -6.814799 0.582934 2.480380
v -6.280555 -0.000000 3.626075
v -6.814799 -0.000000 2.480379
v -6.494955 0.672645 3.749859
v -6.495190 -0.000000 3.749994
v -7.047440 0.672644 2.565055
v -7.047695 -0.000000 2.565145
vt 0.6425 0.1025
vt 0.6425 0.1093
vt 0.6393 0.1093
vt 0.6393 0.1025
vt 0.3934 0.0852
vt 0.3874 0.0886
vt 0.3866 0.0875
vt 0.3928 0.0839
vt 0.4242 0.3252
vt 0.4242 0.3181
vt 0.4279 0.3181
vt 0.4279 0.3252
vn 0.9063 0.0000 -0.4226
vn 0.0000 -1.0000 0.0000
vn -0.9063 0.0004 0.4226
usemtl Material_kANAsset_dif.png
s 1
f 379/493/124 380/494/124 378/495/124 377/496/124
f 380/497/125 379/498/125 382/499/125 384/500/125
f 384/501/126 382/502/126 381/503/126 383/504/126
o Curve.043_Mesh.043
v -6.280555 0.582935 3.626074
v -5.555473 0.582934 4.661594
v -5.555473 -0.000000 4.661594
v -6.280555 -0.000000 3.626075
v -5.745130 0.672644 4.820729
v -5.745335 -0.000000 4.820904
v -6.494955 0.672645 3.749859
v -6.495190 -0.000000 3.749994
vt 0.6425 0.0960
vt 0.6425 0.1025
vt 0.6393 0.1025
vt 0.6393 0.0960
vt 0.3874 0.0886
vt 0.3821 0.0930
vt 0.3811 0.0921
vt 0.3866 0.0875
vt 0.4242 0.3181
vt 0.4242 0.3110
vt 0.4279 0.3110
vt 0.4279 0.3181
vn 0.8192 0.0000 -0.5736
vn -0.0000 -1.0000 -0.0000
vn -0.8192 0.0004 0.5736
usemtl Material_kANAsset_dif.png
s 1
f 387/505/127 388/506/127 385/507/127 386/508/127
f 388/509/128 387/510/128 390/511/128 392/512/128
f 392/513/129 390/514/129 389/515/129 391/516/129
o Curve.042_Mesh.042
v -4.661599 0.582934 5.555470
v -5.555473 0.582934 4.661594
v -4.661599 -0.000001 5.555470
v -5.555473 -0.000000 4.661594
v -5.745130 0.672644 4.820729
v -5.745335 -0.000000 4.820904
v -4.820734 0.672644 5.745119
v -4.820910 -0.000001 5.745329
vt 0.6425 0.0900
vt 0.6425 0.0960
vt 0.6393 0.0960
vt 0.6394 0.0900
vt 0.3821 0.0930
vt 0.3777 0.0983
vt 0.3766 0.0975
vt 0.3811 0.0921
vt 0.4242 0.3110
vt 0.4242 0.3043
vt 0.4279 0.3043
vt 0.4279 0.3110
vn 0.7071 -0.0000 -0.7071
vn -0.0000 -1.0000 -0.0000
vn -0.7071 0.0004 0.7071
usemtl Material_kANAsset_dif.png
s 1
f 395/517/130 396/518/130 394/519/130 393/520/130
f 396/521/131 395/522/131 400/523/131 398/524/131
f 398/525/132 400/526/132 399/527/132 397/528/132
o Curve.041_Mesh.041
v -3.626084 0.582934 6.280549
v -4.661599 0.582934 5.555470
v -3.626084 -0.000001 6.280549
v -4.661599 -0.000001 5.555470
v -4.820734 0.672644 5.745119
v -3.749870 0.672644 6.494955
v -3.750005 -0.000001 6.495184
v -4.820910 -0.000001 5.745329
vt 0.6426 0.0847
vt 0.6425 0.0900
vt 0.6394 0.0900
vt 0.6394 0.0847
vt 0.3777 0.0983
vt 0.3742 0.1043
vt 0.3730 0.1037
vt 0.3766 0.0975
vt 0.4242 0.3043
vt 0.4243 0.2981
vt 0.4279 0.2981
vt 0.4279 0.3043
vn 0.5736 0.0000 -0.8192
vn -0.0000 -1.0000 -0.0000
vn -0.5736 0.0004 0.8192
usemtl Material_kANAsset_dif.png
s 1
f 403/529/133 404/530/133 402/531/133 401/532/133
f 404/533/134 403/534/134 407/535/134 408/536/134
f 408/537/135 407/538/135 406/539/135 405/540/135
o Curve.040_Mesh.040
v -2.480390 0.582934 6.814794
v -3.626084 0.582934 6.280549
v -2.480390 -0.000001 6.814794
v -3.626084 -0.000001 6.280549
v -2.565064 0.672644 7.047440
v -2.565155 -0.000001 7.047689
v -3.749870 0.672644 6.494955
v -3.750005 -0.000001 6.495184
vt 0.6426 0.0802
vt 0.6426 0.0847
vt 0.6394 0.0847
vt 0.6394 0.0802
vt 0.3742 0.1043
vt 0.3719 0.1108
vt 0.3706 0.1104
vt 0.3730 0.1037
vt 0.6387 0.2865
vt 0.6387 0.2810
vt 0.6424 0.2810
vt 0.6424 0.2865
vn 0.4226 0.0000 -0.9063
vn 0.0000 -1.0000 -0.0000
vn -0.4226 0.0004 0.9063
usemtl Material_kANAsset_dif.png
s 1
f 411/541/136 412/542/136 410/543/136 409/544/136
f 412/545/137 411/546/137 414/547/137 416/548/137
f 416/549/138 414/550/138 413/551/138 415/552/138
o Curve.039_Mesh.039
v -1.259331 0.582934 7.141979
v -2.480390 0.582934 6.814794
v -1.259331 -0.000001 7.141979
v -2.480390 -0.000001 6.814794
v -1.302320 0.672644 7.385789
v -1.302365 -0.000001 7.386055
v -2.565064 0.672644 7.047440
v -2.565155 -0.000001 7.047689
vt 0.4312 0.3488
vt 0.4312 0.3541
vt 0.4280 0.3541
vt 0.4280 0.3488
vt 0.3719 0.1108
vt 0.3707 0.1176
vt 0.3693 0.1175
vt 0.3706 0.1104
vt 0.6387 0.2810
vt 0.6387 0.2748
vt 0.6423 0.2748
vt 0.6424 0.2810
vn 0.2588 0.0000 -0.9659
vn 0.0000 -1.0000 -0.0000
vn -0.2588 0.0004 0.9659
usemtl Material_kANAsset_dif.png
s 1
f 419/553/139 420/554/139 418/555/139 417/556/139
f 420/557/140 419/558/140 422/559/140 424/560/140
f 424/561/141 422/562/141 421/563/141 423/564/141
o Curve.038_Mesh.038
v -1.302365 -0.000001 7.386055
v -1.302320 0.672644 7.385789
v 0.000000 -0.000001 7.500000
v 0.000000 0.672644 7.499729
v 0.000000 -0.000001 7.252154
v -1.259331 -0.000001 7.141979
v -1.259331 0.582934 7.141979
v 0.000000 0.582934 7.252154
vt 0.6387 0.2748
vt 0.6387 0.2681
vt 0.6423 0.2681
vt 0.6423 0.2748
vt 0.3707 0.1176
vt 0.3707 0.1245
vt 0.3693 0.1246
vt 0.3693 0.1175
vt 0.4311 0.3429
vt 0.4312 0.3488
vt 0.4280 0.3488
vt 0.4280 0.3429
vn -0.0872 0.0004 0.9962
vn -0.0000 -1.0000 -0.0000
vn 0.0872 0.0000 -0.9962
usemtl Material_kANAsset_dif.png
s 1
f 425/565/142 427/566/142 428/567/142 426/568/142
f 430/569/143 429/570/143 427/571/143 425/572/143
f 429/573/144 430/574/144 431/575/144 432/576/144
o Curve.037_Mesh.037
v 0.918132 11.040312 -5.199926
v 0.000000 11.040312 -5.280254
v 0.000005 0.585951 -6.827395
v 1.185565 0.585950 -6.723670
v 0.959315 11.162110 -5.433478
v 0.000000 11.162110 -5.517407
v 0.000005 0.683501 -7.115955
v 1.235675 0.683500 -7.007851
vt 0.3820 0.3033
vt 0.5906 0.3504
vt 0.3745 0.2434
vt 0.5976 0.2905
vt 0.5967 0.3504
vt 0.3803 0.2434
vt 0.3767 0.3033
vt 0.5921 0.2905
vt 0.3767 0.3033
vt 0.5921 0.2905
vt 0.3803 0.2434
vt 0.5967 0.3504
vn 0.0862 0.1502 -0.9849
vn 0.0280 -0.9470 -0.3201
vn -0.0399 0.8888 0.4565
vn -0.0862 -0.1459 0.9855
usemtl Material_kANAsset_dif.png
s 1
f 437/577/145 440/578/145 439/579/145 438/580/145
f 440/578/146 436/581/146 435/582/146 439/579/146
f 433/583/147 437/577/147 438/580/147 434/584/147
f 436/585/148 433/586/148 434/587/148 435/588/148
o Curve.036_Mesh.036
v 1.808368 11.040312 -4.961391
v 0.918132 11.040312 -5.199926
v 1.185565 0.585950 -6.723670
v 2.335110 0.585951 -6.415651
v 0.959315 11.162110 -5.433478
v 1.889479 11.162110 -5.184240
v 1.235675 0.683500 -7.007851
v 2.433800 0.683501 -6.686811
vt 0.5849 0.3505
vt 0.5906 0.3504
vt 0.3745 0.2434
vt 0.3693 0.2434
vt 0.3720 0.3033
vt 0.3767 0.3033
vt 0.5921 0.2905
vt 0.5871 0.2906
vt 0.3720 0.3033
vt 0.5871 0.2906
vt 0.3745 0.2434
vt 0.5906 0.3504
vt 0.3693 0.2434
vt 0.3745 0.2434
vt 0.3767 0.3033
vt 0.3720 0.3033
vn 0.0832 -0.9470 -0.3104
vn -0.1186 0.8888 0.4426
vn -0.2561 -0.1458 0.9556
vn 0.2559 0.1502 -0.9550
usemtl Material_kANAsset_dif.png
s 1
f 448/589/149 444/590/149 443/591/149 447/592/149
f 441/593/150 446/594/150 445/595/150 442/596/150
f 444/597/151 441/598/151 442/599/151 443/600/151
f 448/601/152 447/602/152 445/603/152 446/604/152
o Curve.035_Mesh.035
v 2.643657 11.040312 -4.571889
v 1.808368 11.040312 -4.961391
v 2.335110 0.585951 -6.415651
v 3.413695 0.585950 -5.912695
v 1.889479 11.162110 -5.184240
v 2.762231 11.162110 -4.777270
v 2.433800 0.683501 -6.686811
v 3.557980 0.683501 -6.162601
vt 0.5799 0.3505
vt 0.5849 0.3505
vt 0.5799 0.2287
vt 0.5756 0.2286
vt 0.5729 0.2885
vt 0.5769 0.2885
vt 0.5871 0.2906
vt 0.5826 0.2906
vt 0.5729 0.2885
vt 0.5826 0.2906
vt 0.5799 0.2287
vt 0.5849 0.3505
vt 0.5756 0.2286
vt 0.5799 0.2287
vt 0.5769 0.2885
vt 0.5729 0.2885
vn 0.1358 -0.9470 -0.2912
vn -0.1937 0.8888 0.4153
vn -0.4181 -0.1458 0.8966
vn 0.4178 0.1502 -0.8960
usemtl Material_kANAsset_dif.png
s 1
f 456/605/153 452/606/153 451/607/153 455/608/153
f 449/609/154 454/610/154 453/611/154 450/612/154
f 452/613/155 449/614/155 450/615/155 451/616/155
f 456/617/156 455/618/156 453/619/156 454/620/156
o Curve.034_Mesh.034
v 3.398618 11.040310 -4.043259
v 2.643657 11.040312 -4.571889
v 3.413695 0.585950 -5.912695
v 4.388565 0.585951 -5.230086
v 2.762231 11.162110 -4.777270
v 3.551058 11.162106 -4.224926
v 3.557980 0.683501 -6.162601
v 4.574050 0.683500 -5.451136
vt 0.5662 0.2905
vt 0.5729 0.2885
vt 0.5645 0.2286
vt 0.5704 0.2286
vt 0.5627 0.3505
vt 0.5683 0.3505
vt 0.5756 0.2286
vt 0.5682 0.2885
vt 0.5611 0.2905
vt 0.5682 0.2885
vt 0.5611 0.2905
vt 0.5756 0.2286
vt 0.5683 0.3505
vn 0.5671 0.1501 -0.8099
vn 0.1843 -0.9470 -0.2632
vn -0.2628 0.8888 0.3754
vn -0.5675 -0.1457 0.8104
usemtl Material_kANAsset_dif.png
s 1
f 461/621/157 462/622/157 464/623/157 463/624/157
f 464/625/158 460/626/158 459/627/158 463/624/158
f 457/628/159 462/622/159 461/621/159 458/629/159
f 460/630/160 457/631/160 458/632/160 459/633/160
o Curve.033_Mesh.033
v 4.050313 11.040312 -3.391564
v 3.398618 11.040310 -4.043259
v 4.388565 0.585951 -5.230086
v 5.230089 0.585950 -4.388561
v 3.551058 11.162106 -4.224926
v 4.231980 11.162110 -3.543998
v 4.574050 0.683500 -5.451136
v 5.451139 0.683501 -4.574050
vt 0.5645 0.2286
vt 0.5611 0.2905
vt 0.5682 0.2885
vt 0.5645 0.2286
vt 0.5566 0.3505
vt 0.5627 0.3505
vt 0.5704 0.2286
vt 0.5629 0.2885
vt 0.5556 0.2905
vt 0.5629 0.2885
vt 0.5556 0.2905
vt 0.5704 0.2286
vt 0.5627 0.3505
vn 0.6991 0.1501 -0.6991
vn 0.2272 -0.9470 -0.2272
vn -0.3240 0.8888 0.3240
vn -0.6996 -0.1457 0.6996
usemtl Material_kANAsset_dif.png
s 1
f 471/634/161 469/635/161 470/636/161 472/637/161
f 472/638/162 468/639/162 467/640/162 471/634/162
f 465/641/163 470/636/163 469/635/163 466/642/163
f 468/643/164 465/644/164 466/645/164 467/646/164
o Curve.032_Mesh.032
v 4.578943 11.040311 -2.636598
v 4.050313 11.040312 -3.391564
v 5.230089 0.585950 -4.388561
v 5.912694 0.585950 -3.413696
v 4.231980 11.162110 -3.543998
v 4.784324 11.162110 -2.755177
v 5.451139 0.683501 -4.574050
v 6.162600 0.683500 -3.557976
vt 0.5502 0.3505
vt 0.5566 0.3505
vt 0.5645 0.2286
vt 0.5581 0.2286
vt 0.5572 0.2885
vt 0.5629 0.2885
vt 0.5556 0.2905
vt 0.5499 0.2905
vt 0.5572 0.2885
vt 0.5499 0.2905
vt 0.5645 0.2286
vt 0.5566 0.3505
vt 0.5581 0.2286
vt 0.5645 0.2286
vt 0.5629 0.2885
vt 0.5572 0.2885
vn 0.2632 -0.9470 -0.1843
vn -0.3754 0.8888 0.2628
vn -0.8104 -0.1456 0.5675
vn 0.8099 0.1500 -0.5671
usemtl Material_kANAsset_dif.png
s 1
f 480/647/165 476/648/165 475/649/165 479/650/165
f 473/651/166 478/652/166 477/653/166 474/654/166
f 476/655/167 473/656/167 474/657/167 475/658/167
f 480/659/168 479/660/168 477/661/168 478/662/168
o Curve.031_Mesh.031
v 4.968446 11.040312 -1.801309
v 4.578943 11.040311 -2.636598
v 5.912694 0.585950 -3.413696
v 6.415649 0.585950 -2.335105
v 4.784324 11.162110 -2.755177
v 5.191295 11.162110 -1.882420
v 6.162600 0.683500 -3.557976
v 6.686814 0.683501 -2.433800
vt 0.5437 0.3505
vt 0.5502 0.3505
vt 0.5581 0.2286
vt 0.5514 0.2286
vt 0.5511 0.2885
vt 0.5572 0.2885
vt 0.5499 0.2905
vt 0.5440 0.2905
vt 0.5511 0.2885
vt 0.5440 0.2905
vt 0.5581 0.2286
vt 0.5502 0.3505
vt 0.5514 0.2286
vt 0.5581 0.2286
vt 0.5572 0.2885
vt 0.5511 0.2885
vn 0.2912 -0.9470 -0.1358
vn -0.4153 0.8888 0.1937
vn -0.8967 -0.1455 0.4181
vn 0.8961 0.1499 -0.4178
usemtl Material_kANAsset_dif.png
s 1
f 488/663/169 484/664/169 483/665/169 487/666/169
f 481/667/170 486/668/170 485/669/170 482/670/170
f 484/671/171 481/672/171 482/673/171 483/674/171
f 488/675/172 487/676/172 485/677/172 486/678/172
o Curve.030_Mesh.030
v 5.206986 11.040312 -0.911078
v 4.968446 11.040312 -1.801309
v 6.415649 0.585950 -2.335105
v 6.723669 0.585950 -1.185565
v 5.191295 11.162110 -1.882420
v 5.440532 11.162110 -0.952255
v 6.686814 0.683501 -2.433800
v 7.007849 0.683500 -1.235671
vt 0.5514 0.2286
vt 0.5511 0.2885
vt 0.5511 0.2885
vt 0.5380 0.2286
vt 0.5373 0.3505
vt 0.5437 0.3505
vt 0.5514 0.2286
vt 0.5447 0.2286
vt 0.5450 0.2885
vt 0.5440 0.2905
vt 0.5383 0.2905
vt 0.5450 0.2885
vt 0.5383 0.2905
vt 0.5514 0.2286
vt 0.5437 0.3505
vn 0.9550 0.1498 -0.2559
vn 0.3104 -0.9470 -0.0832
vn -0.4426 0.8888 0.1186
vn -0.9557 -0.1454 0.2561
usemtl Material_kANAsset_dif.png
s 1
f 495/679/173 493/680/173 494/681/173 496/682/173
f 496/683/174 492/684/174 491/685/174 495/686/174
f 489/687/175 494/681/175 493/688/175 490/689/175
f 492/690/176 489/691/176 490/692/176 491/693/176
o Curve.029_Mesh.029
v 5.287309 11.040311 0.007054
v 5.206986 11.040312 -0.911078
v 6.723669 0.585950 -1.185565
v 6.827394 0.585950 -0.000000
v 5.440532 11.162110 -0.952255
v 5.524463 11.162110 0.007054
v 7.007849 0.683500 -1.235671
v 7.115959 0.683500 -0.000000
vt 0.5383 0.2905
vt 0.5390 0.2885
vt 0.5312 0.3505
vt 0.5380 0.2286
vt 0.5373 0.3505
vt 0.5447 0.2286
vt 0.5390 0.2885
vt 0.5450 0.2885
vt 0.5328 0.2905
vt 0.5390 0.2885
vt 0.5328 0.2905
vt 0.5447 0.2286
vt 0.5373 0.3505
vn 0.9850 0.1497 -0.0862
vn 0.3201 -0.9470 -0.0280
vn -0.4565 0.8888 0.0399
vn -0.9856 -0.1453 0.0862
usemtl Material_kANAsset_dif.png
s 1
f 501/694/177 502/695/177 504/696/177 503/697/177
f 504/696/178 500/698/178 499/699/178 503/697/178
f 497/700/179 502/701/179 501/694/179 498/702/179
f 500/703/180 497/704/180 498/705/180 499/706/180
o Curve.028_Mesh.028
v 5.206981 11.040311 0.925187
v 5.287309 11.040311 0.007054
v 6.827394 0.585950 -0.000000
v 6.723669 0.585950 1.185564
v 5.524463 11.162110 0.007054
v 5.440532 11.162110 0.966369
v 7.115959 0.683500 -0.000000
v 7.007849 0.683500 1.235674
vt 0.5256 0.3505
vt 0.5312 0.3505
vt 0.5380 0.2286
vt 0.5316 0.2286
vt 0.5333 0.2885
vt 0.5390 0.2885
vt 0.5328 0.2905
vt 0.5277 0.2905
vt 0.5333 0.2885
vt 0.5277 0.2905
vt 0.5380 0.2286
vt 0.5312 0.3505
vt 0.5316 0.2286
vt 0.5380 0.2286
vt 0.5390 0.2885
vt 0.5333 0.2885
vn 0.3201 -0.9470 0.0280
vn -0.4565 0.8888 -0.0399
vn -0.9856 -0.1451 -0.0862
vn 0.9850 0.1495 0.0862
usemtl Material_kANAsset_dif.png
s 1
f 512/707/181 508/708/181 507/709/181 511/710/181
f 505/711/182 510/712/182 509/713/182 506/714/182
f 508/715/183 505/716/183 506/717/183 507/718/183
f 512/719/184 511/720/184 509/721/184 510/722/184
o Curve.027_Mesh.027
v 4.968446 11.040311 1.815423
v 5.206981 11.040311 0.925187
v 6.723669 0.585950 1.185564
v 6.415649 0.585950 2.335104
v 5.440532 11.162110 0.966369
v 5.191295 11.162110 1.896534
v 7.007849 0.683500 1.235674
v 6.686814 0.683500 2.433799
vt 0.5280 0.2885
vt 0.5233 0.2905
vt 0.5316 0.2286
vt 0.5256 0.3505
vt 0.5206 0.3505
vt 0.5256 0.3505
vt 0.5316 0.2286
vt 0.5258 0.2286
vt 0.5280 0.2885
vt 0.5333 0.2885
vt 0.5277 0.2905
vt 0.5233 0.2905
vt 0.5258 0.2286
vt 0.5316 0.2286
vt 0.5333 0.2885
vt 0.5280 0.2885
vn -0.9557 -0.1450 -0.2561
vn 0.3104 -0.9470 0.0832
vn -0.4426 0.8888 -0.1186
vn 0.9551 0.1494 0.2559
usemtl Material_kANAsset_dif.png
s 1
f 516/723/185 513/724/185 514/725/185 515/726/185
f 520/727/186 516/728/186 515/729/186 519/730/186
f 513/731/187 518/732/187 517/733/187 514/734/187
f 520/735/188 519/736/188 517/737/188 518/738/188
o Curve.026_Mesh.026
v 4.578943 11.040312 2.650712
v 4.968446 11.040311 1.815423
v 6.415649 0.585950 2.335104
v 5.912694 0.585950 3.413695
v 5.191295 11.162110 1.896534
v 4.784324 11.162110 2.769285
v 6.686814 0.683500 2.433799
v 6.162600 0.683500 3.557980
vt 0.5234 0.2885
vt 0.5795 0.0803
vt 0.5258 0.2286
vt 0.5866 0.1403
vt 0.5258 0.2286
vt 0.5280 0.2885
vt 0.5280 0.2885
vt 0.6297 0.2286
vt 0.5816 0.1402
vt 0.5866 0.1403
vt 0.5258 0.2286
vt 0.5206 0.2287
vt 0.5234 0.2885
vt 0.5840 0.0804
vt 0.5795 0.0803
vn -0.8967 -0.1449 -0.4182
vn 0.8961 0.1493 0.4179
vn 0.2912 -0.9470 0.1358
vn -0.4153 0.8888 -0.1937
usemtl Material_kANAsset_dif.png
s 1
f 524/739/189 521/740/189 522/741/189 523/742/189
f 527/743/190 525/744/190 526/745/190 528/746/190
f 528/747/191 524/748/191 523/749/191 527/750/191
f 521/751/192 526/745/192 525/752/192 522/753/192
o Curve.025_Mesh.025
v 4.050313 11.040311 3.405672
v 4.578943 11.040312 2.650712
v 5.912694 0.585950 3.413695
v 5.230084 0.585950 4.388560
v 4.784324 11.162110 2.769285
v 6.162600 0.683500 3.557980
v 4.231980 11.162108 3.558112
v 5.451139 0.683499 4.574049
vt 0.6275 0.2885
vt 0.5745 0.0803
vt 0.6349 0.2286
vt 0.5816 0.1402
vt 0.5760 0.1402
vt 0.6297 0.2286
vt 0.5795 0.0803
vt 0.6322 0.2885
vt 0.5816 0.1402
vt 0.6349 0.2286
vt 0.6275 0.2885
vt 0.5745 0.0803
vn -0.8105 -0.1448 -0.5675
vn 0.8100 0.1492 0.5672
vn 0.2632 -0.9470 0.1843
vn -0.3754 0.8888 -0.2628
usemtl Material_kANAsset_dif.png
s 1
f 532/754/193 529/755/193 530/756/193 531/757/193
f 536/758/194 534/759/194 533/760/194 535/761/194
f 536/758/195 532/762/195 531/763/195 534/759/195
f 529/764/196 535/761/196 533/760/196 530/765/196
o Curve.024_Mesh.024
v 3.398618 11.040311 4.057368
v 4.050313 11.040311 3.405672
v 5.230084 0.585950 4.388560
v 4.388565 0.585949 5.230084
v 3.551053 11.162108 4.239040
v 4.231980 11.162108 3.558112
v 5.451139 0.683499 4.574049
v 4.574050 0.683499 5.451138
vt 0.6222 0.2885
vt 0.5690 0.0803
vt 0.6297 0.2286
vt 0.5760 0.1402
vt 0.5699 0.1402
vt 0.5760 0.1402
vt 0.6297 0.2286
vt 0.6238 0.2286
vt 0.6222 0.2885
vt 0.6275 0.2885
vt 0.5745 0.0803
vt 0.5690 0.0803
vt 0.6238 0.2286
vt 0.6297 0.2286
vt 0.6275 0.2885
vt 0.6222 0.2885
vn -0.6997 -0.1447 -0.6997
vn 0.2272 -0.9470 0.2272
vn -0.3240 0.8888 -0.3240
vn 0.6992 0.1491 0.6992
usemtl Material_kANAsset_dif.png
s 1
f 540/766/197 537/767/197 538/768/197 539/769/197
f 544/770/198 540/771/198 539/772/198 543/773/198
f 537/774/199 541/775/199 542/776/199 538/777/199
f 544/778/200 543/779/200 542/780/200 541/781/200
o Curve.023_Mesh.023
v 2.643657 11.040311 4.585997
v 3.398618 11.040311 4.057368
v 4.388565 0.585949 5.230084
v 3.413695 0.585949 5.912695
v 2.762231 11.162108 4.791378
v 3.557980 0.683499 6.162599
v 3.551053 11.162108 4.239040
v 4.574050 0.683499 5.451138
vt 0.6165 0.2885
vt 0.5632 0.0803
vt 0.6238 0.2286
vt 0.5699 0.1402
vt 0.5635 0.1401
vt 0.5699 0.1402
vt 0.6238 0.2286
vt 0.6175 0.2286
vt 0.6165 0.2885
vt 0.6222 0.2885
vt 0.5690 0.0803
vt 0.5632 0.0803
vt 0.6175 0.2286
vt 0.6238 0.2286
vt 0.6222 0.2885
vt 0.6165 0.2885
vn -0.5675 -0.1447 -0.8105
vn 0.1843 -0.9470 0.2632
vn -0.2628 0.8888 -0.3754
vn 0.5672 0.1491 0.8100
usemtl Material_kANAsset_dif.png
s 1
f 548/782/201 545/783/201 546/784/201 547/785/201
f 550/786/202 548/787/202 547/788/202 552/789/202
f 545/790/203 549/791/203 551/792/203 546/793/203
f 550/794/204 552/795/204 551/796/204 549/797/204
o Curve.022_Mesh.022
v 1.808363 11.040312 4.975499
v 2.643657 11.040311 4.585997
v 3.413695 0.585949 5.912695
v 2.335105 0.585949 6.415649
v 2.762231 11.162108 4.791378
v 1.889474 11.162108 5.198350
v 3.557980 0.683499 6.162599
v 2.433800 0.683499 6.686814
vt 0.6105 0.2885
vt 0.5574 0.0802
vt 0.6175 0.2286
vt 0.5635 0.1401
vt 0.6165 0.2885
vt 0.5574 0.0802
vt 0.5570 0.1401
vt 0.6175 0.2286
vt 0.5635 0.1401
vt 0.6175 0.2286
vt 0.6108 0.2286
vt 0.6105 0.2885
vt 0.6165 0.2885
vt 0.5632 0.0803
vt 0.5574 0.0802
vn -0.4182 -0.1446 -0.8968
vn 0.4179 0.1490 0.8962
vn 0.1358 -0.9470 0.2912
vn -0.1937 0.8888 -0.4153
usemtl Material_kANAsset_dif.png
s 1
f 556/798/205 553/799/205 554/800/205 555/801/205
f 557/802/206 558/803/206 560/804/206 559/805/206
f 560/804/207 556/806/207 555/807/207 559/808/207
f 553/809/208 558/810/208 557/811/208 554/812/208
o Curve.021_Mesh.021
v 1.808363 11.040312 4.975499
v 0.918132 11.040311 5.214041
v 2.335105 0.585949 6.415649
v 1.185565 0.585949 6.723669
v 1.889474 11.162108 5.198350
v 0.959310 11.162105 5.447587
v 2.433800 0.683499 6.686814
v 1.235675 0.683499 7.007849
vt 0.6044 0.2885
vt 0.5516 0.0803
vt 0.6108 0.2286
vt 0.5570 0.1401
vt 0.5574 0.0802
vt 0.6044 0.2885
vt 0.5506 0.1401
vt 0.6041 0.2286
vt 0.5570 0.1401
vt 0.6108 0.2286
vt 0.6044 0.2885
vt 0.6105 0.2885
vt 0.5516 0.0803
vn -0.2561 -0.1446 -0.9558
vn 0.2559 0.1490 0.9551
vn 0.0832 -0.9470 0.3104
vn -0.1186 0.8888 -0.4426
usemtl Material_kANAsset_dif.png
s 1
f 564/813/209 562/814/209 561/815/209 563/816/209
f 565/817/210 566/818/210 568/819/210 567/820/210
f 568/819/211 564/821/211 563/822/211 567/820/211
f 562/823/212 566/824/212 565/817/212 561/825/212
o Curve.020_Mesh.020
v 0.000000 11.040311 5.294364
v 0.918132 11.040311 5.214041
v 1.185565 0.585949 6.723669
v 0.000000 0.585949 6.827395
v 0.959310 11.162105 5.447587
v 0.000000 11.162105 5.531517
v 0.000000 0.683499 7.115953
v 1.235675 0.683499 7.007849
vt 0.5984 0.2885
vt 0.5461 0.0803
vt 0.6041 0.2286
vt 0.5506 0.1401
vt 0.5445 0.1402
vt 0.5506 0.1401
vt 0.6041 0.2286
vt 0.5974 0.2286
vt 0.5984 0.2885
vt 0.6044 0.2885
vt 0.5516 0.0803
vt 0.5461 0.0803
vt 0.5974 0.2286
vt 0.6041 0.2286
vt 0.6044 0.2885
vt 0.5984 0.2885
vn -0.0862 -0.1445 -0.9857
vn 0.0280 -0.9470 0.3201
vn -0.0399 0.8888 -0.4565
vn 0.0862 0.1490 0.9851
usemtl Material_kANAsset_dif.png
s 1
f 572/826/213 569/827/213 570/828/213 571/829/213
f 575/830/214 572/831/214 571/832/214 576/833/214
f 569/834/215 574/835/215 573/836/215 570/837/215
f 575/838/216 576/839/216 573/840/216 574/841/216
o Curve.019_Mesh.019
v 0.000000 11.040311 5.294364
v 0.000000 0.585949 6.827395
v -0.918137 11.040307 5.214041
v -1.185570 0.585949 6.723669
v 0.000000 11.162105 5.531517
v -0.959320 11.162105 5.447587
v -1.235679 0.683499 7.007849
v 0.000000 0.683499 7.115953
vt 0.5926 0.2885
vt 0.5411 0.0803
vt 0.5974 0.2286
vt 0.5445 0.1402
vt 0.5389 0.1402
vt 0.5445 0.1402
vt 0.5974 0.2286
vt 0.5910 0.2286
vt 0.5926 0.2885
vt 0.5984 0.2885
vt 0.5461 0.0803
vt 0.5411 0.0803
vt 0.5910 0.2286
vt 0.5974 0.2286
vt 0.5984 0.2885
vt 0.5926 0.2885
vn 0.0862 -0.1445 -0.9857
vn -0.0280 -0.9470 0.3201
vn 0.0399 0.8888 -0.4565
vn -0.0862 0.1490 0.9851
usemtl Material_kANAsset_dif.png
s 1
f 580/842/217 579/843/217 577/844/217 578/845/217
f 583/846/218 580/847/218 578/848/218 584/849/218
f 579/850/219 582/851/219 581/852/219 577/853/219
f 583/854/220 584/855/220 581/856/220 582/857/220
o Curve.018_Mesh.018
v -0.918137 11.040307 5.214041
v -1.808373 11.040312 4.975499
v -2.335109 0.585949 6.415649
v -1.185570 0.585949 6.723669
v -0.959320 11.162105 5.447587
v -1.889484 11.162108 5.198350
v -1.235679 0.683499 7.007849
v -2.433804 0.683499 6.686810
vt 0.5873 0.2885
vt 0.5366 0.0803
vt 0.5910 0.2286
vt 0.5389 0.1402
vt 0.5910 0.2286
vt 0.5926 0.2885
vt 0.5926 0.2885
vt 0.5799 0.2286
vt 0.5339 0.1402
vt 0.5389 0.1402
vt 0.5910 0.2286
vt 0.5851 0.2286
vt 0.5873 0.2885
vt 0.5411 0.0803
vt 0.5366 0.0803
vn 0.2561 -0.1446 -0.9558
vn -0.2559 0.1490 0.9551
vn -0.0832 -0.9470 0.3104
vn 0.1186 0.8888 -0.4426
usemtl Material_kANAsset_dif.png
s 1
f 587/858/221 586/859/221 585/860/221 588/861/221
f 591/862/222 589/863/222 590/864/222 592/865/222
f 592/866/223 587/867/223 588/868/223 591/869/223
f 586/870/224 590/864/224 589/871/224 585/872/224
o Curve.017_Mesh.017
v -2.643656 11.040311 4.585997
v -3.413700 0.585949 5.912695
v -1.808373 11.040312 4.975499
v -2.335109 0.585949 6.415649
v -1.889484 11.162108 5.198350
v -2.762236 11.162108 4.791378
v -2.433804 0.683499 6.686810
v -3.557985 0.683499 6.162594
vt 0.5826 0.2885
vt 0.5329 0.0804
vt 0.5851 0.2286
vt 0.5339 0.1402
vt 0.5799 0.2286
vt 0.5366 0.0803
vt 0.5873 0.2885
vt 0.6372 0.1618
vt 0.5298 0.1403
vt 0.5339 0.1402
vt 0.5851 0.2286
vt 0.5826 0.2885
vt 0.5329 0.0804
vn 0.4182 -0.1446 -0.8968
vn -0.4179 0.1490 0.8962
vn -0.1358 -0.9470 0.2912
vn 0.1937 0.8888 -0.4153
usemtl Material_kANAsset_dif.png
s 1
f 594/873/225 593/874/225 595/875/225 596/876/225
f 599/877/226 597/878/226 598/879/226 600/880/226
f 600/881/227 594/882/227 596/883/227 599/877/227
f 593/884/228 598/879/228 597/878/228 595/885/228
o Curve.016_Mesh.016
v -3.398622 11.040311 4.057368
v -2.643656 11.040311 4.585997
v -3.413700 0.585949 5.912695
v -4.388565 0.585949 5.230084
v -2.762236 11.162108 4.791378
v -3.551058 11.162108 4.239035
v -3.557985 0.683499 6.162594
v -4.574050 0.683499 5.451134
vt 0.6297 0.2217
vt 0.6322 0.0803
vt 0.6372 0.1618
vt 0.6393 0.1402
vt 0.6343 0.1402
vt 0.6393 0.1402
vt 0.6372 0.1618
vt 0.6313 0.1618
vt 0.6297 0.2217
vt 0.6350 0.2217
vt 0.6367 0.0803
vt 0.6322 0.0803
vt 0.6313 0.1618
vt 0.6372 0.1618
vt 0.6350 0.2217
vt 0.6297 0.2217
vn 0.5675 -0.1447 -0.8105
vn -0.1843 -0.9470 0.2632
vn 0.2628 0.8888 -0.3754
vn -0.5672 0.1491 0.8100
usemtl Material_kANAsset_dif.png
s 1
f 604/886/229 601/887/229 602/888/229 603/889/229
f 608/890/230 604/891/230 603/892/230 607/893/230
f 601/894/231 606/895/231 605/896/231 602/897/231
f 608/898/232 607/899/232 605/900/232 606/901/232
o Curve.015_Mesh.015
v -4.050318 11.040311 3.405672
v -3.398622 11.040311 4.057368
v -4.388565 0.585949 5.230084
v -5.230089 0.585950 4.388560
v -4.231986 11.162108 3.558107
v -3.551058 11.162108 4.239035
v -4.574050 0.683499 5.451134
v -5.451139 0.683499 4.574044
vt 0.6240 0.2217
vt 0.6271 0.0803
vt 0.6313 0.1618
vt 0.6343 0.1402
vt 0.6287 0.1402
vt 0.6343 0.1402
vt 0.6313 0.1618
vt 0.6249 0.1618
vt 0.6240 0.2217
vt 0.6297 0.2217
vt 0.6322 0.0803
vt 0.6271 0.0803
vt 0.6249 0.1618
vt 0.6313 0.1618
vt 0.6297 0.2217
vt 0.6240 0.2217
vn 0.6997 -0.1447 -0.6997
vn -0.2272 -0.9470 0.2272
vn 0.3240 0.8888 -0.3240
vn -0.6992 0.1491 0.6992
usemtl Material_kANAsset_dif.png
s 1
f 612/902/233 609/903/233 610/904/233 611/905/233
f 616/906/234 612/907/234 611/908/234 615/909/234
f 609/910/235 613/911/235 614/912/235 610/913/235
f 616/914/236 615/915/236 614/916/236 613/917/236
o Curve.014_Mesh.014
v -4.578948 11.040311 2.650707
v -4.050318 11.040311 3.405672
v -5.230089 0.585950 4.388560
v -5.912694 0.585950 3.413695
v -4.784329 11.162110 2.769280
v -4.231986 11.162108 3.558107
v -5.451139 0.683499 4.574044
v -6.162600 0.683500 3.557975
vt 0.6179 0.2217
vt 0.6216 0.0803
vt 0.6249 0.1618
vt 0.6287 0.1402
vt 0.6183 0.1618
vt 0.6271 0.0803
vt 0.6216 0.0803
vt 0.6226 0.1402
vt 0.6287 0.1402
vt 0.6249 0.1618
vt 0.6179 0.2217
vt 0.6240 0.2217
vt 0.6216 0.0803
vn 0.8105 -0.1448 -0.5675
vn -0.8100 0.1492 0.5672
vn -0.2632 -0.9470 0.1843
vn 0.3754 0.8888 -0.2628
usemtl Material_kANAsset_dif.png
s 1
f 620/918/237 617/919/237 618/920/237 619/921/237
f 623/922/238 622/923/238 621/924/238 624/925/238
f 624/925/239 620/926/239 619/927/239 623/922/239
f 617/928/240 621/929/240 622/923/240 618/930/240
o Curve.013_Mesh.013
v -4.968451 11.040311 1.815418
v -4.578948 11.040311 2.650707
v -5.912694 0.585950 3.413695
v -6.415649 0.585950 2.335104
v -4.784329 11.162110 2.769280
v -5.191301 11.162110 1.896529
v -6.162600 0.683500 3.557975
v -6.686815 0.683500 2.433794
vt 0.6118 0.2217
vt 0.6159 0.0802
vt 0.6183 0.1618
vt 0.6226 0.1402
vt 0.6216 0.0803
vt 0.6118 0.2217
vt 0.6162 0.1402
vt 0.6115 0.1618
vt 0.6226 0.1402
vt 0.6183 0.1618
vt 0.6118 0.2217
vt 0.6179 0.2217
vt 0.6159 0.0802
vn 0.8967 -0.1449 -0.4182
vn -0.8961 0.1493 0.4179
vn -0.2912 -0.9470 0.1358
vn 0.4153 0.8888 -0.1937
usemtl Material_kANAsset_dif.png
s 1
f 628/931/241 625/932/241 626/933/241 627/934/241
f 629/935/242 630/936/242 632/937/242 631/938/242
f 632/937/243 628/939/243 627/940/243 631/938/243
f 625/941/244 630/942/244 629/935/244 626/943/244
o Curve.012_Mesh.012
v -5.206985 11.040308 0.925187
v -4.968451 11.040311 1.815418
v -6.415649 0.585950 2.335104
v -6.723670 0.585950 1.185560
v -5.191301 11.162110 1.896529
v -5.440532 11.162106 0.966364
v -6.686815 0.683500 2.433794
v -7.007850 0.683500 1.235669
vt 0.6058 0.2217
vt 0.6100 0.0802
vt 0.6115 0.1618
vt 0.6162 0.1402
vt 0.6097 0.1402
vt 0.6162 0.1402
vt 0.6115 0.1618
vt 0.6048 0.1618
vt 0.6058 0.2217
vt 0.6118 0.2217
vt 0.6159 0.0802
vt 0.6100 0.0802
vt 0.6048 0.1618
vt 0.6115 0.1618
vt 0.6118 0.2217
vt 0.6058 0.2217
vn 0.9557 -0.1450 -0.2561
vn -0.3104 -0.9470 0.0832
vn 0.4426 0.8888 -0.1186
vn -0.9551 0.1494 0.2559
usemtl Material_kANAsset_dif.png
s 1
f 636/944/245 633/945/245 634/946/245 635/947/245
f 640/948/246 636/949/246 635/950/246 639/951/246
f 633/952/247 638/953/247 637/954/247 634/955/247
f 640/956/248 639/957/248 637/958/248 638/959/248
o Curve.011_Mesh.011
v -5.287313 11.040308 0.007054
v -5.206985 11.040308 0.925187
v -6.723670 0.585950 1.185560
v -6.827394 0.585950 -0.000005
v -5.440532 11.162106 0.966364
v -5.524463 11.162106 0.007054
v -7.007850 0.683500 1.235669
v -7.115954 0.683500 -0.000005
vt 0.6001 0.2217
vt 0.6043 0.0803
vt 0.6048 0.1618
vt 0.6097 0.1402
vt 0.6033 0.1402
vt 0.6097 0.1402
vt 0.6048 0.1618
vt 0.5985 0.1618
vt 0.6001 0.2217
vt 0.6058 0.2217
vt 0.6100 0.0802
vt 0.6043 0.0803
vt 0.5985 0.1618
vt 0.6048 0.1618
vt 0.6058 0.2217
vt 0.6001 0.2217
vn 0.9856 -0.1451 -0.0862
vn -0.3201 -0.9470 0.0280
vn 0.4565 0.8888 -0.0399
vn -0.9850 0.1495 0.0862
usemtl Material_kANAsset_dif.png
s 1
f 644/960/249 641/961/249 642/962/249 643/963/249
f 648/964/250 644/965/250 643/966/250 647/967/250
f 641/968/251 646/969/251 645/970/251 642/971/251
f 648/972/252 647/973/252 645/974/252 646/975/252
o Curve.010_Mesh.010
v -5.206985 11.040308 -0.911077
v -5.287313 11.040308 0.007054
v -6.827394 0.585950 -0.000005
v -6.723670 0.585950 -1.185565
v -5.524463 11.162106 0.007054
v -5.440532 11.162106 -0.952260
v -7.115954 0.683500 -0.000005
v -7.007850 0.683500 -1.235676
vt 0.5948 0.2217
vt 0.5988 0.0803
vt 0.5985 0.1618
vt 0.6033 0.1402
vt 0.5985 0.1618
vt 0.6001 0.2217
vt 0.6001 0.2217
vt 0.5874 0.1618
vt 0.5972 0.1402
vt 0.6033 0.1402
vt 0.5985 0.1618
vt 0.5926 0.1618
vt 0.5948 0.2217
vt 0.6043 0.0803
vt 0.5988 0.0803
vn 0.9856 -0.1453 0.0862
vn -0.9850 0.1497 -0.0862
vn -0.3201 -0.9470 -0.0280
vn 0.4565 0.8888 0.0399
usemtl Material_kANAsset_dif.png
s 1
f 652/976/253 649/977/253 650/978/253 651/979/253
f 655/980/254 653/981/254 654/982/254 656/983/254
f 656/984/255 652/985/255 651/986/255 655/987/255
f 649/988/256 654/982/256 653/989/256 650/990/256
o Curve.009_Mesh.009
v -4.968451 11.040311 -1.801314
v -5.206985 11.040308 -0.911077
v -6.723670 0.585950 -1.185565
v -6.415649 0.585950 -2.335110
v -5.440532 11.162106 -0.952260
v -5.191296 11.162110 -1.882424
v -7.007850 0.683500 -1.235676
v -6.686810 0.683500 -2.433805
vt 0.5916 0.1402
vt 0.5874 0.1618
vt 0.5988 0.0803
vt 0.5948 0.2217
vt 0.5972 0.1402
vt 0.5926 0.1618
vt 0.5901 0.2217
vt 0.5937 0.0803
vt 0.5901 0.2217
vt 0.5937 0.0803
vt 0.5926 0.1618
vt 0.5972 0.1402
vn -0.9550 0.1498 -0.2559
vn -0.3104 -0.9470 -0.0832
vn 0.4426 0.8888 0.1186
vn 0.9557 -0.1454 0.2561
usemtl Material_kANAsset_dif.png
s 1
f 664/991/257 663/992/257 661/993/257 662/994/257
f 664/991/258 660/995/258 659/996/258 663/992/258
f 657/997/259 662/994/259 661/993/259 658/998/259
f 660/999/260 657/1000/260 658/1001/260 659/1002/260
o Curve.008_Mesh.008
v -4.578942 11.040311 -2.636603
v -4.968451 11.040311 -1.801314
v -6.415649 0.585950 -2.335110
v -5.912694 0.585950 -3.413701
v -5.191296 11.162110 -1.882424
v -4.784323 11.162110 -2.755177
v -6.686810 0.683500 -2.433805
v -6.162600 0.683500 -3.557981
vt 0.5866 0.1402
vt 0.5916 0.1402
vt 0.4242 0.2434
vt 0.4190 0.2434
vt 0.4169 0.3033
vt 0.4216 0.3033
vt 0.5937 0.0803
vt 0.5893 0.0803
vt 0.4169 0.3033
vt 0.5893 0.0803
vt 0.4242 0.2434
vt 0.5916 0.1402
vt 0.4190 0.2434
vt 0.4242 0.2434
vt 0.4216 0.3033
vt 0.4169 0.3033
vn -0.2912 -0.9470 -0.1358
vn 0.4153 0.8888 0.1937
vn 0.8967 -0.1455 0.4181
vn -0.8961 0.1499 -0.4178
usemtl Material_kANAsset_dif.png
s 1
f 672/1003/261 668/1004/261 667/1005/261 671/1006/261
f 665/1007/262 670/1008/262 669/1009/262 666/1010/262
f 668/1011/263 665/1012/263 666/1013/263 667/1014/263
f 672/1015/264 671/1016/264 669/1017/264 670/1018/264
o Curve.007_Mesh.007
v -4.050313 11.040310 -3.391564
v -4.578942 11.040311 -2.636603
v -5.912694 0.585950 -3.413701
v -5.230084 0.585950 -4.388566
v -4.784323 11.162110 -2.755177
v -4.231986 11.162110 -3.544004
v -6.162600 0.683500 -3.557981
v -5.451139 0.683501 -4.574050
vt 0.6277 0.3505
vt 0.6326 0.3505
vt 0.4190 0.2434
vt 0.4132 0.2434
vt 0.4116 0.3033
vt 0.4169 0.3033
vt 0.6300 0.2906
vt 0.6255 0.2906
vt 0.4116 0.3033
vt 0.6255 0.2906
vt 0.4190 0.2434
vt 0.6326 0.3505
vt 0.4132 0.2434
vt 0.4190 0.2434
vt 0.4169 0.3033
vt 0.4116 0.3033
vn -0.2632 -0.9470 -0.1843
vn 0.3754 0.8888 0.2628
vn 0.8104 -0.1456 0.5675
vn -0.8099 0.1500 -0.5671
usemtl Material_kANAsset_dif.png
s 1
f 680/1019/265 676/1020/265 675/1021/265 679/1022/265
f 673/1023/266 678/1024/266 677/1025/266 674/1026/266
f 676/1027/267 673/1028/267 674/1029/267 675/1030/267
f 680/1031/268 679/1032/268 677/1033/268 678/1034/268
o Curve.006_Mesh.006
v -3.398618 11.040312 -4.043259
v -4.050313 11.040310 -3.391564
v -5.230084 0.585950 -4.388566
v -4.388560 0.585951 -5.230091
v -4.231986 11.162110 -3.544004
v -3.551053 11.162106 -4.224931
v -5.451139 0.683501 -4.574050
v -4.574045 0.683500 -5.451140
vt 0.4068 0.2433
vt 0.6255 0.2906
vt 0.6205 0.2905
vt 0.6221 0.3504
vt 0.6277 0.3505
vt 0.4132 0.2434
vt 0.4058 0.3033
vt 0.4116 0.3033
vt 0.6205 0.2905
vt 0.4058 0.3033
vt 0.6205 0.2905
vt 0.4132 0.2434
vt 0.6277 0.3505
vn -0.6991 0.1501 -0.6991
vn -0.2272 -0.9470 -0.2272
vn 0.3240 0.8888 0.3240
vn 0.6996 -0.1457 0.6996
usemtl Material_kANAsset_dif.png
s 1
f 687/1035/269 685/1036/269 686/1037/269 688/1038/269
f 688/1038/270 684/1039/270 683/1040/270 687/1035/270
f 681/1041/271 686/1042/271 685/1036/271 682/1043/271
f 684/1044/272 681/1045/272 682/1046/272 683/1047/272
o Curve.005_Mesh.005
v -2.643652 11.040312 -4.571889
v -3.398618 11.040312 -4.043259
v -4.388560 0.585951 -5.230091
v -3.413695 0.585950 -5.912695
v -3.551053 11.162106 -4.224931
v -2.762231 11.162110 -4.777270
v -4.574045 0.683500 -5.451140
v -3.557974 0.683501 -6.162601
vt 0.6205 0.2905
vt 0.3998 0.3032
vt 0.6160 0.3504
vt 0.4001 0.2433
vt 0.6221 0.3504
vt 0.4068 0.2433
vt 0.3998 0.3032
vt 0.4058 0.3033
vt 0.6150 0.2905
vt 0.3998 0.3032
vt 0.6150 0.2905
vt 0.4068 0.2433
vt 0.6221 0.3504
vn -0.5671 0.1501 -0.8099
vn -0.1843 -0.9470 -0.2632
vn 0.2628 0.8888 0.3754
vn 0.5675 -0.1457 0.8104
usemtl Material_kANAsset_dif.png
s 1
f 693/1048/273 694/1049/273 696/1050/273 695/1051/273
f 696/1050/274 692/1052/274 691/1053/274 695/1051/274
f 689/1054/275 694/1055/275 693/1048/275 690/1056/275
f 692/1057/276 689/1058/276 690/1059/276 691/1060/276
o Curve.004_Mesh.004
v -1.808363 11.040312 -4.961391
v -2.643652 11.040312 -4.571889
v -3.413695 0.585950 -5.912695
v -2.335105 0.585951 -6.415651
v -2.762231 11.162110 -4.777270
v -1.889474 11.162110 -5.184240
v -3.557974 0.683501 -6.162601
v -2.433800 0.683501 -6.686816
vt 0.6096 0.3504
vt 0.6160 0.3504
vt 0.4001 0.2433
vt 0.3934 0.2433
vt 0.3937 0.3032
vt 0.3998 0.3032
vt 0.6150 0.2905
vt 0.6092 0.2905
vt 0.3937 0.3032
vt 0.6092 0.2905
vt 0.4001 0.2433
vt 0.6160 0.3504
vt 0.3934 0.2433
vt 0.4001 0.2433
vt 0.3998 0.3032
vt 0.3937 0.3032
vn -0.1358 -0.9470 -0.2912
vn 0.1937 0.8888 0.4153
vn 0.4181 -0.1458 0.8966
vn -0.4178 0.1502 -0.8960
usemtl Material_kANAsset_dif.png
s 1
f 704/1061/277 700/1062/277 699/1063/277 703/1064/277
f 697/1065/278 702/1066/278 701/1067/278 698/1068/278
f 700/1069/279 697/1070/279 698/1071/279 699/1072/279
f 704/1073/280 703/1074/280 701/1075/280 702/1076/280
o Curve.003_Mesh.003
v -0.918132 11.040312 -5.199931
v -1.808363 11.040312 -4.961391
v -2.335105 0.585951 -6.415651
v -1.185560 0.585950 -6.723670
v -1.889474 11.162110 -5.184240
v -0.959309 11.162110 -5.433478
v -2.433800 0.683501 -6.686816
v -1.235670 0.683500 -7.007851
vt 0.6031 0.3504
vt 0.6096 0.3504
vt 0.3934 0.2433
vt 0.3867 0.2433
vt 0.3877 0.3033
vt 0.3937 0.3032
vt 0.6092 0.2905
vt 0.6034 0.2905
vt 0.3877 0.3033
vt 0.6034 0.2905
vt 0.3934 0.2433
vt 0.6096 0.3504
vt 0.3867 0.2433
vt 0.3934 0.2433
vt 0.3937 0.3032
vt 0.3877 0.3033
vn -0.0832 -0.9470 -0.3104
vn 0.1186 0.8888 0.4426
vn 0.2561 -0.1458 0.9556
vn -0.2559 0.1502 -0.9550
usemtl Material_kANAsset_dif.png
s 1
f 712/1077/281 708/1078/281 707/1079/281 711/1080/281
f 705/1081/282 710/1082/282 709/1083/282 706/1084/282
f 708/1085/283 705/1086/283 706/1087/283 707/1088/283
f 712/1089/284 711/1090/284 709/1091/284 710/1092/284
o Curve.002_Mesh.002
v 0.000005 0.683501 -7.115955
v -1.235670 0.683500 -7.007851
v -0.959309 11.162110 -5.433478
v 0.000000 11.162110 -5.517407
v 0.000005 0.585951 -6.827395
v -1.185560 0.585950 -6.723670
v -0.918132 11.040312 -5.199931
v 0.000000 11.040312 -5.280254
vt 0.3820 0.3033
vt 0.5976 0.2905
vt 0.3867 0.2433
vt 0.6031 0.3504
vt 0.3820 0.3033
vt 0.3877 0.3033
vt 0.6034 0.2905
vt 0.5976 0.2905
vt 0.5967 0.3504
vt 0.6031 0.3504
vt 0.3867 0.2433
vt 0.3803 0.2434
vt 0.3745 0.2434
vn 0.0862 -0.1459 0.9855
vn 0.0399 0.8888 0.4565
vn -0.0280 -0.9470 -0.3201
vn -0.0862 0.1502 -0.9849
usemtl Material_kANAsset_dif.png
s 1
f 717/1093/285 720/1094/285 719/1095/285 718/1096/285
f 720/1097/286 716/1098/286 715/1099/286 719/1100/286
f 713/1101/287 717/1102/287 718/1103/287 714/1104/287
f 715/1099/288 716/1098/288 713/1105/288 714/1104/288
o Curve.001_Mesh.000
v 4.231980 11.162108 3.558112
v 3.551053 11.162108 4.239040
v -3.551058 11.162108 4.239035
v -4.231986 11.162108 3.558107
v -0.959309 11.162110 -5.433478
v 0.000000 11.162110 -5.517407
v 4.784324 11.162110 2.769285
v -2.762236 11.162108 4.791378
v -1.889474 11.162110 -5.184240
v 5.191295 11.162110 1.896534
v -1.889484 11.162108 5.198350
v -2.762231 11.162110 -4.777270
v 5.440532 11.162110 0.966369
v -0.959320 11.162105 5.447587
v -3.551053 11.162106 -4.224931
v 5.524463 11.162110 0.007054
v 0.000000 11.162105 5.531517
v -4.231986 11.162110 -3.544004
v 5.440532 11.162110 -0.952255
v -4.784323 11.162110 -2.755177
v 5.191295 11.162110 -1.882420
v -5.191296 11.162110 -1.882424
v 4.784324 11.162110 -2.755177
v -5.440532 11.162106 -0.952260
v 4.231980 11.162110 -3.543998
v -5.524463 11.162106 0.007054
v 3.551058 11.162106 -4.224926
v 0.959310 11.162105 5.447587
v -5.440532 11.162106 0.966364
v 2.762231 11.162110 -4.777270
v 1.889474 11.162108 5.198350
v -5.191301 11.162110 1.896529
v 1.889479 11.162110 -5.184240
v 2.762231 11.162108 4.791378
v -4.784329 11.162110 2.769280
v 0.959315 11.162110 -5.433478
v 4.780254 11.475497 -2.752824
v 5.186880 11.475500 -1.880814
v -5.435906 11.475497 -0.951442
v -5.186885 11.475497 -1.880819
v 4.228383 11.475501 -3.540980
v -5.519768 11.475497 0.007055
v 3.548034 11.475501 -4.221329
v 0.958497 11.475495 5.442963
v 0.000000 11.475497 5.526817
v -5.435906 11.475497 0.965551
v 2.759883 11.475501 -4.773200
v 1.887869 11.475500 5.193934
v -5.186885 11.475497 1.894923
v 1.887873 11.475501 -5.179825
v 2.759879 11.475497 4.787313
v -4.780258 11.475497 2.766933
v 0.958497 11.475501 -5.428848
v 3.548034 11.475497 4.235438
v -4.228388 11.475495 3.555089
v 0.000000 11.475501 -5.512709
v 4.228383 11.475500 3.555089
v -3.548039 11.475497 4.235438
v -0.958498 11.475501 -5.428848
v 4.780254 11.475497 2.766938
v -2.759884 11.475497 4.787308
v -1.887869 11.475498 -5.179825
v 5.186880 11.475500 1.894928
v -1.887873 11.475497 5.193934
v -2.759877 11.475501 -4.773200
v 5.435903 11.475500 0.965551
v -0.958501 11.475495 5.442958
v -3.548033 11.475501 -4.221334
v 5.519762 11.475500 0.007055
v -4.228383 11.475501 -3.540980
v 5.435903 11.475500 -0.951442
v -4.780253 11.475497 -2.752830
v -1.808373 11.040312 4.975499
v -0.918137 11.040307 5.214041
v 0.918132 11.040311 5.214041
v 0.000000 11.040311 5.294364
v -2.643656 11.040311 4.585997
v -3.398622 11.040311 4.057368
v -4.050318 11.040311 3.405672
v -4.578948 11.040311 2.650707
v -4.968451 11.040311 1.815418
v -5.206985 11.040308 0.925187
v -5.287313 11.040308 0.007054
v -5.206985 11.040308 -0.911077
v -4.968451 11.040311 -1.801314
v -4.578942 11.040311 -2.636603
v -4.050313 11.040310 -3.391564
v -3.398618 11.040312 -4.043259
v -2.643652 11.040312 -4.571889
v -1.808363 11.040312 -4.961391
v -0.918132 11.040312 -5.199931
v 0.000000 11.040312 -5.280254
v 0.918132 11.040312 -5.199926
v 1.808368 11.040312 -4.961391
v 2.643657 11.040312 -4.571889
v 3.398618 11.040310 -4.043259
v 4.050313 11.040312 -3.391564
v 4.578943 11.040311 -2.636598
v 4.968446 11.040312 -1.801309
v 5.206986 11.040312 -0.911078
v 5.287309 11.040311 0.007054
v 5.206981 11.040311 0.925187
v 4.968446 11.040311 1.815423
v 4.578943 11.040312 2.650712
v 4.050313 11.040311 3.405672
v 3.398618 11.040311 4.057368
v 2.643657 11.040311 4.585997
v 1.808363 11.040312 4.975499
vt 0.5454 0.2276
vt 0.5399 0.2256
vt 0.5348 0.2226
vt 0.5303 0.2189
vt 0.5266 0.2144
vt 0.5236 0.2094
vt 0.5216 0.2039
vt 0.5206 0.1981
vt 0.5206 0.1923
vt 0.5216 0.1865
vt 0.5236 0.1810
vt 0.5266 0.1760
vt 0.5303 0.1715
vt 0.5348 0.1677
vt 0.5399 0.1648
vt 0.5454 0.1628
vt 0.5511 0.1618
vt 0.5570 0.1618
vt 0.5627 0.1628
vt 0.5682 0.1648
vt 0.5733 0.1677
vt 0.5777 0.1715
vt 0.5815 0.1760
vt 0.5844 0.1810
vt 0.5864 0.1865
vt 0.5874 0.1923
vt 0.5874 0.1981
vt 0.5864 0.2039
vt 0.5844 0.2094
vt 0.5815 0.2144
vt 0.5777 0.2189
vt 0.5733 0.2226
vt 0.5682 0.2256
vt 0.5627 0.2276
vt 0.5570 0.2286
vt 0.5511 0.2286
vt 0.0000 0.0000
vt 0.5206 0.1981
vt 0.5216 0.2039
vt 0.5236 0.2094
vt 0.5216 0.2039
vt 0.5236 0.2094
vt 0.5266 0.2144
vt 0.5266 0.2144
vt 0.5303 0.2189
vt 0.5303 0.2189
vt 0.5348 0.2226
vt 0.5348 0.2226
vt 0.5399 0.2256
vt 0.5399 0.2256
vt 0.5454 0.2276
vt 0.5454 0.2276
vt 0.5511 0.2286
vt 0.5511 0.2286
vt 0.5570 0.2286
vt 0.5570 0.2286
vt 0.5627 0.2276
vt 0.5627 0.2276
vt 0.5682 0.2256
vt 0.5682 0.2256
vt 0.5733 0.2226
vt 0.5733 0.2226
vt 0.5777 0.2189
vt 0.5777 0.2189
vt 0.5815 0.2144
vt 0.5815 0.2144
vt 0.5844 0.2094
vt 0.5844 0.2094
vt 0.5864 0.2039
vt 0.5864 0.2039
vt 0.5874 0.1981
vt 0.5874 0.1981
vt 0.5874 0.1923
vt 0.5874 0.1923
vt 0.5864 0.1865
vt 0.5864 0.1865
vt 0.5844 0.1810
vt 0.5844 0.1810
vt 0.5815 0.1760
vt 0.5815 0.1760
vt 0.5777 0.1715
vt 0.5777 0.1715
vt 0.5733 0.1677
vt 0.5733 0.1677
vt 0.5682 0.1648
vt 0.5682 0.1648
vt 0.5627 0.1628
vt 0.5627 0.1628
vt 0.5570 0.1618
vt 0.5570 0.1618
vt 0.5511 0.1618
vt 0.5511 0.1618
vt 0.5454 0.1628
vt 0.5454 0.1628
vt 0.5399 0.1648
vt 0.5399 0.1648
vt 0.5348 0.1677
vt 0.5348 0.1677
vt 0.5303 0.1715
vt 0.5303 0.1715
vt 0.5266 0.1760
vt 0.5266 0.1760
vt 0.5236 0.1810
vt 0.5236 0.1810
vt 0.5216 0.1865
vt 0.5216 0.1865
vt 0.5206 0.1923
vt 0.5206 0.1923
vt 0.0000 0.0000
vt 0.0000 0.0000
vt 0.5206 0.1981
vt 0.0000 0.0000
vt 0.5303 0.2189
vt 0.5348 0.2226
vt 0.5399 0.2256
vt 0.5454 0.2276
vt 0.5511 0.2286
vt 0.5570 0.2286
vt 0.5627 0.2276
vt 0.5682 0.2256
vt 0.5733 0.2226
vt 0.5777 0.2189
vt 0.5815 0.2144
vt 0.5844 0.2094
vt 0.5864 0.2039
vt 0.5874 0.1981
vt 0.5874 0.1923
vt 0.5864 0.1865
vt 0.5844 0.1810
vt 0.5815 0.1760
vt 0.5777 0.1715
vt 0.5733 0.1677
vt 0.5682 0.1648
vt 0.5627 0.1628
vt 0.5570 0.1618
vt 0.5511 0.1618
vt 0.5454 0.1628
vt 0.5399 0.1648
vt 0.5348 0.1677
vt 0.5303 0.1715
vt 0.5266 0.1760
vt 0.5236 0.1810
vt 0.5216 0.1865
vt 0.5206 0.1923
vt 0.5206 0.1981
vt 0.5216 0.2039
vt 0.5236 0.2094
vt 0.5348 0.2226
vt 0.5303 0.2189
vt 0.5399 0.2256
vt 0.5348 0.2226
vt 0.5454 0.2276
vt 0.5399 0.2256
vt 0.5511 0.2286
vt 0.5454 0.2276
vt 0.5570 0.2286
vt 0.5511 0.2286
vt 0.5627 0.2276
vt 0.5570 0.2286
vt 0.5682 0.2256
vt 0.5627 0.2276
vt 0.5733 0.2226
vt 0.5682 0.2256
vt 0.5777 0.2189
vt 0.5733 0.2226
vt 0.5815 0.2144
vt 0.5777 0.2189
vt 0.5844 0.2094
vt 0.5815 0.2144
vt 0.5864 0.2039
vt 0.5844 0.2094
vt 0.5874 0.1981
vt 0.5864 0.2039
vt 0.5874 0.1923
vt 0.5874 0.1981
vt 0.5864 0.1865
vt 0.5874 0.1923
vt 0.5844 0.1810
vt 0.5864 0.1865
vt 0.5815 0.1760
vt 0.5844 0.1810
vt 0.5777 0.1715
vt 0.5815 0.1760
vt 0.5733 0.1677
vt 0.5777 0.1715
vt 0.5682 0.1648
vt 0.5733 0.1677
vt 0.5627 0.1628
vt 0.5682 0.1648
vt 0.5570 0.1618
vt 0.5627 0.1628
vt 0.5511 0.1618
vt 0.5570 0.1618
vt 0.5454 0.1628
vt 0.5511 0.1618
vt 0.5399 0.1648
vt 0.5454 0.1628
vt 0.5348 0.1677
vt 0.5399 0.1648
vt 0.5303 0.1715
vt 0.5348 0.1677
vt 0.5266 0.1760
vt 0.5303 0.1715
vt 0.5236 0.1810
vt 0.5266 0.1760
vt 0.5216 0.1865
vt 0.5236 0.1810
vt 0.5206 0.1923
vt 0.5216 0.1865
vt 0.0000 0.0000
vt 0.5206 0.1923
vt 0.5206 0.1981
vt 0.5236 0.2094
vt 0.5216 0.2039
vt 0.5266 0.2144
vt 0.0000 0.0000
vt 0.5236 0.2094
vt 0.5266 0.2144
vt 0.5303 0.2189
vt 0.0000 0.0000
vn 0.0000 -1.0000 -0.0000
vn -0.3500 -0.8895 0.2937
vn -0.3957 -0.8895 0.2284
vn -0.2937 -0.8895 0.3500
vn -0.2284 -0.8895 0.3956
vn -0.1563 -0.8895 0.4293
vn -0.0793 -0.8895 0.4499
vn 0.0000 -0.8895 0.4568
vn 0.0793 -0.8895 0.4499
vn 0.1563 -0.8895 0.4293
vn 0.2284 -0.8895 0.3956
vn 0.2937 -0.8895 0.3500
vn 0.3500 -0.8895 0.2937
vn 0.3957 -0.8895 0.2284
vn 0.4293 -0.8895 0.1563
vn 0.4499 -0.8895 0.0793
vn 0.4569 -0.8895 -0.0000
vn 0.4499 -0.8895 -0.0793
vn 0.4293 -0.8895 -0.1563
vn 0.3957 -0.8895 -0.2284
vn 0.3500 -0.8895 -0.2937
vn 0.2937 -0.8895 -0.3500
vn 0.2284 -0.8895 -0.3956
vn 0.1563 -0.8895 -0.4293
vn 0.0793 -0.8895 -0.4499
vn 0.0000 -0.8895 -0.4569
vn -0.0793 -0.8895 -0.4499
vn -0.1563 -0.8895 -0.4293
vn -0.2284 -0.8895 -0.3956
vn -0.2937 -0.8895 -0.3500
vn -0.3500 -0.8895 -0.2937
vn -0.3957 -0.8895 -0.2284
vn -0.4293 -0.8895 -0.1563
vn -0.4499 -0.8895 -0.0793
vn -0.4569 -0.8895 0.0000
vn -0.4499 -0.8895 0.0793
vn -0.4293 -0.8895 0.1563
vn -0.0000 1.0000 0.0000
vn -0.3420 0.0150 0.9396
vn -0.1736 0.0150 0.9847
vn -0.0000 0.0150 0.9999
vn 0.1736 0.0150 0.9847
vn 0.3420 0.0150 0.9396
vn 0.4999 0.0150 0.8659
vn 0.6427 0.0150 0.7660
vn 0.7660 0.0150 0.6427
vn 0.8659 0.0150 0.4999
vn 0.9396 0.0150 0.3420
vn 0.9847 0.0150 0.1736
vn 0.9999 0.0150 -0.0000
vn 0.9847 0.0150 -0.1736
vn 0.9396 0.0150 -0.3420
vn 0.8659 0.0150 -0.4999
vn 0.7660 0.0150 -0.6427
vn 0.6427 0.0150 -0.7660
vn 0.4999 0.0150 -0.8659
vn 0.3420 0.0150 -0.9396
vn 0.1736 0.0150 -0.9847
vn -0.0000 0.0150 -0.9999
vn -0.1736 0.0150 -0.9847
vn -0.3420 0.0150 -0.9396
vn -0.4999 0.0150 -0.8659
vn -0.6427 0.0150 -0.7660
vn -0.7660 0.0150 -0.6427
vn -0.8659 0.0150 -0.4999
vn -0.9396 0.0150 -0.3420
vn -0.9847 0.0150 -0.1736
vn -0.9999 0.0150 0.0000
vn -0.9847 0.0150 0.1736
vn -0.9396 0.0150 0.3420
vn -0.8659 0.0150 0.4999
vn -0.7660 0.0150 0.6427
vn -0.6427 0.0150 0.7660
vn -0.4999 0.0150 0.8659
usemtl Material_kANAsset_dif.png
s 1
f 795/1106/289 796/1107/289 794/1108/289 793/1109/289 797/1110/289 798/1111/289 799/1112/289 800/1113/289 801/1114/289 802/1115/289 803/1116/289 804/1117/289 805/1118/289 806/1119/289 807/1120/289 808/1121/289 809/1122/289 810/1123/289 811/1124/289 812/1125/289 813/1126/289 814/1127/289 815/1128/289 816/1129/289 817/1130/289 818/1131/289 819/1132/289 820/1133/289 821/1134/289 822/1135/289 823/1136/289 824/1137/289 825/1138/289 826/1139/289 827/1140/289 828/1141/289
f 799/1112/290 724/1142/290 755/1143/291 800/1144/291
f 798/1111/292 723/1145/292 724/1146/290 799/1147/290
f 797/1110/293 728/1148/293 723/1145/292 798/1149/292
f 793/1109/294 731/1150/294 728/1148/293 797/1151/293
f 794/1108/295 734/1152/295 731/1150/294 793/1153/294
f 796/1107/296 737/1154/296 734/1152/295 794/1155/295
f 795/1106/297 748/1156/297 737/1154/296 796/1157/296
f 828/1141/298 751/1158/298 748/1156/297 795/1159/297
f 827/1140/299 754/1160/299 751/1158/298 828/1161/298
f 826/1139/300 722/1162/300 754/1160/299 827/1163/299
f 825/1138/301 721/1164/301 722/1162/300 826/1165/300
f 824/1137/302 727/1166/302 721/1164/301 825/1167/301
f 823/1136/303 730/1168/303 727/1166/302 824/1169/302
f 822/1135/304 733/1170/304 730/1168/303 823/1171/303
f 821/1134/305 736/1172/305 733/1170/304 822/1173/304
f 820/1133/306 739/1174/306 736/1172/305 821/1175/305
f 819/1132/307 741/1176/307 739/1174/306 820/1177/306
f 818/1131/308 743/1178/308 741/1176/307 819/1179/307
f 817/1130/309 745/1180/309 743/1178/308 818/1181/308
f 816/1129/310 747/1182/310 745/1180/309 817/1183/309
f 815/1128/311 750/1184/311 747/1182/310 816/1185/310
f 814/1127/312 753/1186/312 750/1184/311 815/1187/311
f 813/1126/313 756/1188/313 753/1186/312 814/1189/312
f 812/1125/314 726/1190/314 756/1188/313 813/1191/313
f 811/1124/315 725/1192/315 726/1190/314 812/1193/314
f 810/1123/316 729/1194/316 725/1192/315 811/1195/315
f 809/1122/317 732/1196/317 729/1194/316 810/1197/316
f 808/1121/318 735/1198/318 732/1196/317 809/1199/317
f 807/1120/319 738/1200/319 735/1198/318 808/1201/318
f 806/1119/320 740/1202/320 738/1200/319 807/1203/319
f 805/1118/321 742/1204/321 740/1202/320 806/1205/320
f 804/1117/322 744/1206/322 742/1204/321 805/1207/321
f 803/1116/323 746/1208/323 744/1206/322 804/1209/322
f 802/1115/324 749/1210/324 746/1208/323 803/1211/323
f 801/1114/325 752/1212/325 749/1210/324 802/1213/324
f 800/1214/291 755/1215/291 752/1212/325 801/1216/325
f 781/1217/326 784/1218/326 787/1219/326 765/1220/326 764/1221/326 768/1222/326 771/1223/326 774/1224/326 777/1225/326 780/1226/326 783/1227/326 786/1228/326 789/1229/326 791/1230/326 758/1231/326 757/1232/326 761/1233/326 763/1234/326 767/1235/326 770/1236/326 773/1237/326 776/1238/326 779/1239/326 782/1240/326 785/1241/326 788/1242/326 790/1243/326 792/1244/326 760/1245/326 759/1246/326 762/1247/326 766/1248/326 769/1249/326 772/1250/326 775/1251/326 778/1252/326
f 784/1218/327 731/1253/327 734/1152/328 787/1254/328
f 787/1219/328 734/1255/328 737/1154/329 765/1256/329
f 765/1220/329 737/1257/329 748/1156/330 764/1258/330
f 764/1221/330 748/1259/330 751/1158/331 768/1260/331
f 768/1222/331 751/1261/331 754/1160/332 771/1262/332
f 771/1223/332 754/1263/332 722/1162/333 774/1264/333
f 774/1224/333 722/1265/333 721/1164/334 777/1266/334
f 777/1225/334 721/1267/334 727/1166/335 780/1268/335
f 780/1226/335 727/1269/335 730/1168/336 783/1270/336
f 783/1227/336 730/1271/336 733/1170/337 786/1272/337
f 786/1228/337 733/1273/337 736/1172/338 789/1274/338
f 789/1229/338 736/1275/338 739/1174/339 791/1276/339
f 791/1230/339 739/1277/339 741/1176/340 758/1278/340
f 758/1231/340 741/1279/340 743/1178/341 757/1280/341
f 757/1232/341 743/1281/341 745/1180/342 761/1282/342
f 761/1233/342 745/1283/342 747/1182/343 763/1284/343
f 763/1234/343 747/1285/343 750/1184/344 767/1286/344
f 767/1235/344 750/1287/344 753/1186/345 770/1288/345
f 770/1236/345 753/1289/345 756/1188/346 773/1290/346
f 773/1237/346 756/1291/346 726/1190/347 776/1292/347
f 776/1238/347 726/1293/347 725/1192/348 779/1294/348
f 779/1239/348 725/1295/348 729/1194/349 782/1296/349
f 782/1240/349 729/1297/349 732/1196/350 785/1298/350
f 785/1241/350 732/1299/350 735/1198/351 788/1300/351
f 788/1242/351 735/1301/351 738/1200/352 790/1302/352
f 790/1243/352 738/1303/352 740/1202/353 792/1304/353
f 792/1244/353 740/1305/353 742/1204/354 760/1306/354
f 760/1245/354 742/1307/354 744/1206/355 759/1308/355
f 759/1246/355 744/1309/355 746/1208/356 762/1310/356
f 762/1247/356 746/1311/356 749/1210/357 766/1312/357
f 766/1248/357 749/1313/357 752/1212/358 769/1314/358
f 769/1249/358 752/1315/358 755/1143/359 772/1316/359
f 772/1250/359 755/1215/359 724/1146/360 775/1317/360
f 775/1251/360 724/1318/360 723/1145/361 778/1319/361
f 778/1252/361 723/1320/361 728/1321/362 781/1322/362
f 781/1323/362 728/1324/362 731/1150/327 784/1325/327
