# Blender v2.78 (sub 0) OBJ File: 'Leitplanke.blend'
# www.blender.org
mtllib Leitplanke_col.mtl
o Cube.002
v 25.735365 -1.264084 -0.405763
v 25.735365 -1.264084 -1.453708
v 26.264702 -1.264084 -0.405763
v 26.264702 -1.264084 -1.453708
v 25.792059 6.919594 -0.517998
v 25.735365 6.874074 -0.405763
v 25.792059 6.919594 -1.341473
v 25.735365 6.874074 -1.453708
v 26.208010 6.919594 -0.517998
v 26.264702 6.874074 -0.405763
v 26.208010 6.919594 -1.341473
v 26.264702 6.874074 -1.453708
vt 0.0814 0.8655
vt 0.0818 0.8655
vt 0.0818 0.8660
vt 0.0814 0.8660
vt 0.0786 0.8556
vt 0.0786 0.8604
vt 0.0776 0.8604
vt 0.0776 0.8556
vt 0.0807 0.8556
vt 0.0807 0.8604
vt 0.0796 0.8604
vt 0.0796 0.8556
vt 0.0776 0.8669
vt 0.0781 0.8669
vt 0.0781 0.8675
vt 0.0776 0.8675
vt 0.0791 0.8652
vt 0.0791 0.8604
vt 0.0796 0.8604
vt 0.0796 0.8652
vt 0.0819 0.8654
vt 0.0819 0.8660
vt 0.0814 0.8654
vt 0.0814 0.8660
vt 0.0796 0.8652
vt 0.0796 0.8604
vt 0.0801 0.8604
vt 0.0801 0.8652
vn 0.0000 1.0000 0.0000
vn 1.0000 0.0000 0.0000
vn -1.0000 0.0000 0.0000
vn 0.0000 -1.0000 0.0000
vn 0.0000 0.0000 -1.0000
vn -0.6261 0.7798 0.0000
vn 0.0000 0.9267 -0.3758
vn 0.6261 0.7798 0.0000
vn 0.0000 0.9267 0.3758
vn 0.0000 0.0000 1.0000
usemtl Material
s off
f 11/1/1 7/2/1 5/3/1 9/4/1
f 4/5/2 12/6/2 10/7/2 3/8/2
f 1/9/3 6/10/3 8/11/3 2/12/3
f 2/13/4 4/14/4 3/15/4 1/16/4
f 2/17/5 8/18/5 12/19/5 4/20/5
f 5/3/6 7/2/6 8/21/6 6/22/6
f 7/2/7 11/1/7 12/23/7 8/21/7
f 11/1/8 9/4/8 10/24/8 12/23/8
f 9/4/9 5/3/9 6/22/9 10/24/9
f 3/25/10 10/26/10 6/27/10 1/28/10
o Cube.001
v 5.735368 -1.264084 -0.405763
v 5.735368 -1.264084 -1.453708
v 6.264702 -1.264084 -0.405763
v 6.264702 -1.264084 -1.453708
v 5.792059 6.919594 -0.517998
v 5.735368 6.874074 -0.405763
v 5.792059 6.919594 -1.341473
v 5.735368 6.874074 -1.453708
v 6.208010 6.919594 -0.517998
v 6.264702 6.874074 -0.405763
v 6.208010 6.919594 -1.341473
v 6.264702 6.874074 -1.453708
vt 0.0781 0.8670
vt 0.0786 0.8670
vt 0.0786 0.8675
vt 0.0781 0.8675
vt 0.0776 0.8652
vt 0.0776 0.8604
vt 0.0786 0.8604
vt 0.0786 0.8652
vt 0.0786 0.8604
vt 0.0786 0.8556
vt 0.0796 0.8556
vt 0.0796 0.8604
vt 0.0786 0.8669
vt 0.0791 0.8669
vt 0.0791 0.8675
vt 0.0786 0.8675
vt 0.0807 0.8604
vt 0.0807 0.8556
vt 0.0812 0.8556
vt 0.0812 0.8604
vt 0.0786 0.8669
vt 0.0786 0.8675
vt 0.0781 0.8669
vt 0.0781 0.8675
vt 0.0801 0.8652
vt 0.0801 0.8604
vt 0.0807 0.8604
vt 0.0807 0.8652
vn 0.0000 1.0000 0.0000
vn 1.0000 0.0000 0.0000
vn -1.0000 0.0000 0.0000
vn 0.0000 -1.0000 0.0000
vn 0.0000 0.0000 -1.0000
vn -0.6261 0.7798 0.0000
vn 0.0000 0.9267 -0.3758
vn 0.6261 0.7798 0.0000
vn 0.0000 0.9267 0.3758
vn 0.0000 0.0000 1.0000
usemtl Material
s off
f 23/29/11 19/30/11 17/31/11 21/32/11
f 16/33/12 24/34/12 22/35/12 15/36/12
f 13/37/13 18/38/13 20/39/13 14/40/13
f 14/41/14 16/42/14 15/43/14 13/44/14
f 14/45/15 20/46/15 24/47/15 16/48/15
f 17/31/16 19/30/16 20/49/16 18/50/16
f 19/30/17 23/29/17 24/51/17 20/49/17
f 23/29/18 21/32/18 22/52/18 24/51/18
f 21/32/19 17/31/19 18/50/19 22/52/19
f 15/53/20 22/54/20 18/55/20 13/56/20
o Cube
v 0.000035 8.099998 0.700061
v 0.000035 8.199999 0.600061
v 0.000035 3.799999 0.600061
v 0.000035 3.899999 0.700061
v 0.000035 8.199999 0.100060
v 0.000035 3.799999 0.100060
v -0.349965 8.099998 0.606278
v -0.299966 8.199999 0.519676
v -0.299966 3.799999 0.519676
v -0.349965 3.899999 0.606278
v -0.049965 8.199999 0.086663
v -0.049965 3.799999 0.086663
v -0.606183 8.099998 0.350061
v -0.519580 8.199999 0.300060
v -0.519580 3.799999 0.300060
v -0.606183 3.899999 0.350061
v -0.086568 8.199999 0.050060
v -0.086568 3.799999 0.050060
v -0.699965 8.099998 0.000061
v -0.599965 8.199999 0.000060
v -0.599965 3.799999 0.000061
v -0.699965 3.899999 0.000061
v -0.099965 8.199999 0.000060
v -0.099965 3.799999 0.000060
v 32.000034 8.200000 0.600072
v 32.000034 8.099999 0.700072
v 32.000034 3.900000 0.700072
v 32.000034 3.800000 0.600072
v 32.000034 8.200000 0.100072
v 32.000034 3.800000 0.100072
v 32.300034 8.200000 0.519687
v 32.350037 8.099999 0.606290
v 32.350037 3.900000 0.606290
v 32.300034 3.800000 0.519687
v 32.050034 8.200000 0.086675
v 32.050034 3.800000 0.086674
v 32.519650 8.200000 0.300072
v 32.606255 8.099999 0.350072
v 32.606255 3.900000 0.350072
v 32.519650 3.800000 0.300072
v 32.086636 8.200000 0.050072
v 32.086636 3.800000 0.050072
v 32.600037 8.200000 0.000072
v 32.700035 8.099999 0.000071
v 32.700035 3.900000 0.000071
v 32.600037 3.800000 0.000072
v 32.100033 8.200000 0.000073
v 32.100033 3.800000 0.000073
vt 0.1137 0.7261
vt 0.1132 0.7261
vt 0.1132 0.7261
vt 0.1136 0.7259
vt 0.1064 0.7259
vt 0.1063 0.7259
vt 0.1063 0.7258
vt 0.1064 0.7257
vt 0.1116 0.7261
vt 0.1111 0.7261
vt 0.1112 0.7259
vt 0.1116 0.7261
vt 0.1091 0.7259
vt 0.1090 0.7259
vt 0.1090 0.7257
vt 0.1091 0.7258
vt 0.1131 0.7260
vt 0.1134 0.7258
vt 0.1114 0.7258
vt 0.1117 0.7260
vt 0.1137 0.7259
vt 0.1134 0.7257
vt 0.1111 0.7259
vt 0.1114 0.7257
vt 0.1117 0.7257
vt 0.1117 0.7260
vt 0.1197 0.7339
vt 0.1197 0.7339
vt 0.1200 0.7339
vt 0.1200 0.7339
vt 0.1197 0.7330
vt 0.1198 0.7331
vt 0.1194 0.7331
vt 0.1194 0.7330
vt 0.1131 0.7260
vt 0.1131 0.7257
vt 0.1111 0.7452
vt 0.1112 0.7452
vt 0.1114 0.7453
vt 0.1114 0.7454
vt 0.1132 0.7450
vt 0.1137 0.7450
vt 0.1136 0.7452
vt 0.1132 0.7451
vt 0.1111 0.7450
vt 0.1116 0.7450
vt 0.1116 0.7451
vt 0.1063 0.7449
vt 0.1064 0.7449
vt 0.1064 0.7451
vt 0.1063 0.7451
vt 0.1110 0.7450
vt 0.1131 0.7451
vt 0.1134 0.7453
vt 0.1131 0.7454
vt 0.1131 0.7451
vt 0.1117 0.7451
vt 0.1137 0.7452
vt 0.1134 0.7454
vt 0.1117 0.7451
vt 0.1117 0.7454
vt 0.1197 0.7355
vt 0.1197 0.7355
vt 0.1200 0.7355
vt 0.1200 0.7355
vt 0.1199 0.7363
vt 0.1199 0.7362
vt 0.1202 0.7362
vt 0.1202 0.7363
vn 0.0000 1.0000 0.0000
vn -0.1862 0.6947 0.6947
vn -0.3536 0.7071 0.6124
vn 0.0000 -1.0000 0.0000
vn -0.1862 -0.6947 0.6947
vn -0.3536 -0.7071 0.6124
vn -0.6124 0.7071 0.3536
vn -0.6124 -0.7071 0.3536
vn -0.6947 0.6947 0.1862
vn -0.6947 -0.6947 0.1862
vn 0.3536 -0.7071 0.6124
vn 0.3535 -0.7071 0.6124
vn 0.6124 -0.7071 0.3536
vn 0.1862 0.6947 0.6947
vn 0.3536 0.7071 0.6124
vn 0.3535 0.7071 0.6124
vn 0.1862 -0.6947 0.6947
vn 0.6124 0.7071 0.3536
vn 0.6948 0.6947 0.1862
vn 0.6947 -0.6947 0.1862
usemtl Material
s 1
f 26/57/21 29/58/21 35/59/21 32/60/21
f 25/61/22 26/62/22 32/63/23 31/64/23
f 30/65/24 27/66/24 33/67/24 36/68/24
f 27/69/25 28/70/25 34/71/26 33/72/26
f 32/60/21 35/59/21 41/73/21 38/74/21
f 36/68/24 33/67/24 39/75/24 42/76/24
f 31/77/23 32/60/23 38/74/27 37/78/27
f 33/67/26 34/79/26 40/80/28 39/75/28
f 42/76/24 39/75/24 45/81/24 48/82/24
f 37/83/27 38/84/27 44/85/29 43/86/29
f 39/87/28 40/88/28 46/89/30 45/90/30
f 38/74/21 41/73/21 47/91/21 44/92/21
f 57/93/31 58/94/32 64/95/33 63/96/33
f 53/97/21 49/98/21 55/99/21 59/100/21
f 52/101/24 54/102/24 60/103/24 58/94/24
f 49/104/34 50/105/34 56/106/35 55/107/36
f 51/108/37 52/101/37 58/94/32 57/93/31
f 65/109/21 61/110/21 67/111/21 71/112/21
f 59/100/21 55/99/21 61/110/21 65/109/21
f 58/94/24 60/103/24 66/113/24 64/95/24
f 55/99/36 56/114/35 62/115/38 61/110/38
f 64/95/24 66/113/24 72/116/24 70/117/24
f 61/118/38 62/119/38 68/120/39 67/121/39
f 63/122/33 64/123/33 70/124/40 69/125/40
