# Blender v2.79 (sub 0) OBJ File: 'Moonbo_col.blend'
# www.blender.org
mtllib Moonbo_col.mtl
o Sphere.034_Sphere.038
v 0.000000 11.103348 -2.208594
v 0.000000 10.459126 -4.332312
v 0.000000 9.412965 -6.289543
v 0.000000 8.005069 -8.005069
v 0.000000 6.289541 -9.412965
v 0.000000 4.332311 -10.459126
v 0.000000 2.208594 -11.103348
v 0.000000 0.000001 -11.320876
v 0.000000 -2.208592 -11.103348
v 0.000000 -9.412965 -6.289541
v 0.430876 11.103348 -2.166156
v 0.845193 10.459126 -4.249068
v 1.227030 9.412965 -6.168690
v 1.561712 8.005069 -7.851253
v 1.836379 6.289541 -9.232097
v 2.040475 4.332311 -10.258157
v 2.166157 2.208594 -10.890000
v 2.208594 0.000001 -11.103348
v 2.166157 -2.208592 -10.890000
v 2.040475 -4.332310 -10.258157
v 1.836379 -6.289541 -9.232097
v 1.561712 -8.005069 -7.851253
v 1.227030 -9.412965 -6.168689
v 0.845192 -10.459127 -4.249065
v 0.430875 -11.103348 -2.166153
v 0.845194 11.103348 -2.040474
v 1.657905 10.459126 -4.002534
v 2.406905 9.412965 -5.810779
v 3.063408 8.005069 -7.395718
v 3.602187 6.289541 -8.696445
v 4.002535 4.332311 -9.662971
v 4.249069 2.208594 -10.258156
v 4.332313 0.000001 -10.459126
v 4.249069 -2.208592 -10.258156
v 4.002535 -4.332310 -9.662972
v 3.602187 -6.289541 -8.696445
v 3.063408 -8.005069 -7.395718
v 2.406905 -9.412965 -5.810778
v 1.657905 -10.459127 -4.002532
v 0.845192 -11.103348 -2.040472
v 1.227031 11.103348 -1.836378
v 2.406906 10.459126 -3.602186
v 3.494284 9.412965 -5.229562
v 4.447380 8.005069 -6.655970
v 5.229565 6.289541 -7.826594
v 5.810780 4.332311 -8.696445
v 6.168691 2.208594 -9.232095
v 6.289545 0.000001 -9.412963
v 6.168691 -2.208592 -9.232095
v 5.810780 -4.332310 -8.696445
v 5.229565 -6.289541 -7.826594
v 4.447380 -8.005069 -6.655970
v 3.494284 -9.412965 -5.229561
v 2.406905 -10.459127 -3.602184
v 1.227029 -11.103348 -1.836376
v 1.561714 11.103348 -1.561710
v 3.063410 10.459126 -3.063406
v 4.447381 9.412965 -4.447376
v 5.660440 8.005069 -5.660437
v 6.655974 6.289541 -6.655970
v 7.395720 4.332311 -7.395717
v 7.851255 2.208594 -7.851251
v 8.005071 0.000001 -8.005066
v 7.851255 -2.208592 -7.851251
v 7.395720 -4.332310 -7.395718
v 6.655974 -6.289541 -6.655970
v 5.660440 -8.005069 -5.660437
v 4.447380 -9.412965 -4.447376
v 3.063408 -10.459127 -3.063405
v 1.561712 -11.103348 -1.561708
v 1.836381 11.103348 -1.227027
v 3.602189 10.459126 -2.406902
v 5.229566 9.412965 -3.494281
v 6.655974 8.005069 -4.447376
v 7.826597 6.289541 -5.229560
v 8.696447 4.332311 -5.810777
v 9.232099 2.208594 -6.168687
v 9.412967 0.000001 -6.289539
v 9.232099 -2.208592 -6.168687
v 8.696447 -4.332310 -5.810778
v 7.826597 -6.289541 -5.229560
v 6.655974 -8.005069 -4.447376
v 5.229565 -9.412965 -3.494280
v 3.602187 -10.459127 -2.406901
v 1.836379 -11.103348 -1.227026
v 2.040478 11.103348 -0.845190
v 4.002537 10.459126 -1.657902
v 5.810782 9.412965 -2.406901
v 7.395721 8.005069 -3.063405
v 8.696447 6.289541 -3.602183
v 9.662974 4.332311 -4.002532
v 10.258159 2.208594 -4.249063
v 10.459129 0.000001 -4.332309
v 10.258159 -2.208592 -4.249063
v 9.662974 -4.332310 -4.002532
v 8.696447 -6.289541 -3.602183
v 7.395721 -8.005069 -3.063405
v 5.810781 -9.412965 -2.406900
v 4.002536 -10.459127 -1.657901
v 2.040475 -11.103348 -0.845189
v 2.166159 11.103348 -0.430872
v 4.249071 10.459126 -0.845189
v 6.168693 9.412965 -1.227026
v 7.851255 8.005069 -1.561708
v 9.232099 6.289541 -1.836375
v 10.258159 4.332311 -2.040472
v 10.890001 2.208594 -2.166152
v 11.103350 0.000001 -2.208590
v 10.890001 -2.208592 -2.166152
v 10.258159 -4.332310 -2.040472
v 9.232099 -6.289541 -1.836375
v 7.851255 -8.005069 -1.561708
v 6.168692 -9.412965 -1.227025
v 4.249069 -10.459127 -0.845189
v 2.166156 -11.103348 -0.430872
v 2.208597 11.103348 0.000004
v 4.332315 10.459126 0.000004
v 6.289545 9.412965 0.000004
v 8.005071 8.005069 0.000004
v 9.412967 6.289541 0.000004
v 10.459128 4.332311 0.000003
v 11.103348 2.208594 0.000004
v 11.320881 0.000001 0.000004
v 11.103348 -2.208592 0.000004
v 10.459128 -4.332310 0.000003
v 9.412967 -6.289541 0.000004
v 8.005071 -8.005069 0.000004
v 6.289544 -9.412965 0.000004
v 4.332313 -10.459127 0.000003
v 2.208594 -11.103348 0.000003
v 2.166159 11.103348 0.430880
v 4.249071 10.459126 0.845196
v 6.168693 9.412965 1.227033
v 7.851255 8.005069 1.561715
v 9.232099 6.289541 1.836382
v 10.258159 4.332311 2.040478
v 10.890000 2.208594 2.166160
v 11.103350 0.000001 2.208598
v 10.890000 -2.208592 2.166160
v 10.258159 -4.332310 2.040477
v 9.232099 -6.289541 1.836382
v 7.851255 -8.005069 1.561715
v 6.168691 -9.412965 1.227033
v 4.249069 -10.459127 0.845196
v 2.166156 -11.103348 0.430879
v 2.040477 11.103348 0.845197
v 4.002536 10.459126 1.657909
v 5.810781 9.412965 2.406908
v 7.395720 8.005069 3.063411
v 8.696446 6.289541 3.602190
v 9.662974 4.332311 4.002538
v 10.258156 2.208594 4.249072
v 10.459128 0.000001 4.332317
v 10.258156 -2.208592 4.249072
v 9.662974 -4.332310 4.002537
v 8.696446 -6.289541 3.602190
v 7.395720 -8.005069 3.063411
v 5.810780 -9.412965 2.406908
v 4.002535 -10.459127 1.657908
v 2.040475 -11.103348 0.845196
v 1.836381 11.103348 1.227034
v 3.602188 10.459126 2.406908
v 5.229565 9.412965 3.494287
v 6.655973 8.005069 4.447382
v 7.826595 6.289541 5.229568
v 8.696446 4.332311 5.810782
v 9.232096 2.208594 6.168694
v 9.412966 0.000001 6.289547
v 9.232096 -2.208592 6.168694
v 8.696446 -4.332310 5.810782
v 7.826595 -6.289541 5.229568
v 6.655973 -8.005069 4.447382
v 5.229564 -9.412965 3.494287
v 3.602186 -10.459127 2.406908
v 1.836379 -11.103348 1.227033
v 1.561713 11.103348 1.561717
v 3.063409 10.459126 3.063412
v 4.447379 9.412965 4.447382
v 5.660439 8.005069 5.660442
v 6.655971 6.289541 6.655975
v 7.395720 4.332311 7.395723
v 7.851253 2.208594 7.851256
v 8.005069 0.000001 8.005073
v 7.851253 -2.208592 7.851256
v 7.395720 -4.332310 7.395723
v 6.655971 -6.289541 6.655975
v 5.660439 -8.005069 5.660442
v 4.447378 -9.412965 4.447382
v 3.063407 -10.459127 3.063411
v 1.561712 -11.103348 1.561715
v 1.227030 11.103348 1.836384
v 2.406905 10.459126 3.602191
v 3.494283 9.412965 5.229568
v 4.447378 8.005069 6.655975
v 5.229563 6.289541 7.826598
v 5.810780 4.332311 8.696448
v 6.168688 2.208594 9.232100
v 6.289543 0.000001 9.412970
v 6.168688 -2.208592 9.232100
v 5.810780 -4.332310 8.696448
v 5.229563 -6.289541 7.826598
v 4.447378 -8.005069 6.655975
v 3.494282 -9.412965 5.229567
v 2.406904 -10.459127 3.602189
v 1.227029 -11.103348 1.836382
v 0.000000 -11.320876 0.000004
v 0.845193 11.103348 2.040480
v 1.657905 10.459126 4.002539
v 2.406904 9.412965 5.810784
v 3.063407 8.005069 7.395723
v 3.602185 6.289541 8.696448
v 4.002535 4.332311 9.662976
v 4.249066 2.208594 10.258159
v 4.332311 0.000001 10.459131
v 4.249066 -2.208592 10.258159
v 4.002535 -4.332310 9.662976
v 3.602185 -6.289541 8.696448
v 3.063407 -8.005069 7.395723
v 2.406903 -9.412965 5.810782
v 1.657904 -10.459127 4.002538
v 0.845192 -11.103348 2.040478
v 0.430876 11.103348 2.166162
v 0.845193 10.459126 4.249073
v 1.227029 9.412965 6.168695
v 1.561711 8.005069 7.851257
v 1.836377 6.289541 9.232099
v 2.040475 4.332311 10.258161
v 2.166155 2.208594 10.890003
v 2.208593 0.000001 11.103354
v 2.166155 -2.208592 10.890003
v 2.040475 -4.332310 10.258161
v 1.836377 -6.289541 9.232099
v 1.561711 -8.005069 7.851257
v 1.227028 -9.412965 6.168694
v 0.845192 -10.459127 4.249071
v 0.430875 -11.103348 2.166160
v -0.000000 11.103348 2.208599
v 0.000000 10.459126 4.332316
v 0.000000 9.412965 6.289547
v -0.000000 8.005069 8.005072
v -0.000001 6.289541 9.412966
v 0.000001 4.332311 10.459129
v -0.000001 2.208594 11.103348
v -0.000001 0.000001 11.320881
v -0.000001 -2.208592 11.103348
v 0.000001 -4.332310 10.459129
v -0.000001 -6.289541 9.412966
v -0.000000 -8.005069 8.005072
v -0.000000 -9.412965 6.289545
v 0.000000 -10.459127 4.332315
v 0.000000 -11.103348 2.208597
v -0.430876 11.103348 2.166162
v -0.845192 10.459126 4.249073
v -1.227029 9.412965 6.168695
v -1.561712 8.005069 7.851256
v -1.836379 6.289541 9.232098
v -2.040474 4.332311 10.258161
v -2.166156 2.208594 10.890001
v -2.208595 0.000001 11.103354
v -2.166156 -2.208592 10.890001
v -2.040474 -4.332310 10.258161
v -1.836379 -6.289541 9.232098
v -1.561712 -8.005069 7.851256
v -1.227029 -9.412965 6.168693
v -0.845192 -10.459127 4.249071
v -0.430875 -11.103348 2.166160
v -0.845193 11.103348 2.040480
v -1.657904 10.459126 4.002538
v -2.406904 9.412965 5.810784
v -3.063407 8.005069 7.395722
v -3.602186 6.289541 8.696445
v -4.002533 4.332311 9.662976
v -4.249068 2.208594 10.258157
v -4.332314 0.000001 10.459129
v -4.249068 -2.208592 10.258157
v -4.002533 -4.332310 9.662976
v -3.602186 -6.289541 8.696445
v -3.063407 -8.005069 7.395722
v -2.406903 -9.412965 5.810782
v -1.657904 -10.459127 4.002536
v -0.845192 -11.103348 2.040478
v -1.227030 11.103348 1.836383
v -2.406903 10.459126 3.602189
v -3.494282 9.412965 5.229568
v -4.447378 8.005069 6.655974
v -5.229562 6.289541 7.826594
v -5.810779 4.332311 8.696448
v -6.168689 2.208594 9.232097
v -6.289544 0.000001 9.412967
v -6.168689 -2.208592 9.232097
v -5.810779 -4.332310 8.696448
v -5.229562 -6.289541 7.826594
v -4.447378 -8.005069 6.655974
v -3.494282 -9.412965 5.229566
v -2.406903 -10.459127 3.602188
v -1.227028 -11.103348 1.836381
v -0.000003 11.320876 0.000006
v -1.561713 11.103348 1.561716
v -3.063407 10.459126 3.063411
v -4.447378 9.412965 4.447382
v -5.660438 8.005069 5.660441
v -6.655970 6.289541 6.655971
v -7.395718 4.332311 7.395722
v -7.851252 2.208594 7.851253
v -8.005070 0.000001 8.005071
v -7.851252 -2.208592 7.851253
v -7.395718 -4.332310 7.395722
v -6.655970 -6.289541 6.655971
v -5.660438 -8.005069 5.660441
v -4.447377 -9.412965 4.447381
v -3.063406 -10.459127 3.063409
v -1.561711 -11.103348 1.561715
v -1.836380 11.103348 1.227033
v -3.602186 10.459126 2.406907
v -5.229564 9.412965 3.494286
v -6.655971 8.005069 4.447381
v -7.826593 6.289541 5.229564
v -8.696445 4.332311 5.810782
v -9.232095 2.208594 6.168689
v -9.412965 0.000001 6.289544
v -9.232095 -2.208592 6.168689
v -8.696445 -4.332310 5.810782
v -7.826593 -6.289541 5.229564
v -6.655971 -8.005069 4.447381
v -5.229562 -9.412965 3.494284
v -3.602185 -10.459127 2.406906
v -1.836378 -11.103348 1.227032
v -2.040476 11.103348 0.845196
v -4.002534 10.459126 1.657907
v -5.810779 9.412965 2.406907
v -7.395719 8.005069 3.063409
v -8.696442 6.289541 3.602186
v -9.662972 4.332311 4.002538
v -10.258153 2.208594 4.249067
v -10.459126 0.000001 4.332313
v -10.258153 -2.208592 4.249067
v -9.662972 -4.332310 4.002538
v -8.696442 -6.289541 3.602186
v -7.395719 -8.005069 3.063409
v -5.810778 -9.412965 2.406906
v -4.002533 -10.459127 1.657906
v -2.040473 -11.103348 0.845195
v -2.166158 11.103348 0.430879
v -4.249067 10.459126 0.845195
v -6.168690 9.412965 1.227032
v -7.851253 8.005069 1.561714
v -9.232094 6.289541 1.836379
v -10.258157 4.332311 2.040478
v -10.889997 2.208594 2.166156
v -11.103348 0.000001 2.208595
v -10.889997 -2.208592 2.166156
v -10.258157 -4.332310 2.040478
v -9.232094 -6.289541 1.836379
v -7.851253 -8.005069 1.561714
v -6.168688 -9.412965 1.227031
v -4.249065 -10.459127 0.845195
v -2.166155 -11.103348 0.430879
v -2.208595 11.103348 0.000004
v -4.332311 10.459126 0.000003
v -6.289541 9.412965 0.000003
v -8.005068 8.005069 0.000002
v -9.412961 6.289541 0.000002
v -10.459126 4.332311 0.000004
v -11.103344 2.208594 0.000001
v -11.320873 0.000001 0.000002
v -11.103344 -2.208592 0.000001
v -10.459126 -4.332310 0.000004
v -9.412961 -6.289541 0.000002
v -8.005068 -8.005069 0.000002
v -6.289540 -9.412965 0.000003
v -4.332310 -10.459127 0.000003
v -2.208593 -11.103348 0.000004
v -2.166157 11.103348 -0.430872
v -4.249067 10.459126 -0.845189
v -6.168689 9.412965 -1.227026
v -7.851253 8.005069 -1.561709
v -9.232092 6.289541 -1.836376
v -10.258156 4.332311 -2.040471
v -10.889996 2.208594 -2.166154
v -11.103345 0.000001 -2.208591
v -10.889996 -2.208592 -2.166154
v -10.258156 -4.332310 -2.040471
v -9.232092 -6.289541 -1.836376
v -7.851253 -8.005069 -1.561709
v -6.168688 -9.412965 -1.227026
v -4.249065 -10.459127 -0.845189
v -2.166155 -11.103348 -0.430871
v -2.040476 11.103348 -0.845189
v -4.002533 10.459126 -1.657900
v -5.810778 9.412965 -2.406900
v -7.395717 8.005069 -3.063405
v -8.696441 6.289541 -3.602183
v -9.662971 4.332311 -4.002531
v -10.258150 2.208594 -4.249064
v -10.459122 0.000001 -4.332309
v -10.258150 -2.208592 -4.249064
v -9.662971 -4.332310 -4.002531
v -8.696441 -6.289541 -3.602183
v -7.395717 -8.005069 -3.063405
v -5.810776 -9.412965 -2.406900
v -4.002532 -10.459127 -1.657900
v -2.040473 -11.103348 -0.845188
v -1.836380 11.103348 -1.227026
v -3.602185 10.459126 -2.406900
v -5.229561 9.412965 -3.494279
v -6.655970 8.005069 -4.447375
v -7.826589 6.289541 -5.229558
v -8.696445 4.332311 -5.810775
v -9.232091 2.208594 -6.168685
v -9.412961 0.000001 -6.289538
v -9.232091 -2.208592 -6.168685
v -8.696445 -4.332310 -5.810775
v -7.826589 -6.289541 -5.229558
v -6.655970 -8.005069 -4.447375
v -5.229560 -9.412965 -3.494278
v -3.602184 -10.459127 -2.406899
v -1.836378 -11.103348 -1.227025
v -1.561712 11.103348 -1.561709
v -3.063406 10.459126 -3.063403
v -4.447376 9.412965 -4.447374
v -5.660436 8.005069 -5.660434
v -6.655966 6.289541 -6.655966
v -7.395718 4.332311 -7.395714
v -7.851247 2.208594 -7.851247
v -8.005063 0.000001 -8.005065
v -7.851247 -2.208592 -7.851247
v -7.395718 -4.332310 -7.395714
v -6.655966 -6.289541 -6.655966
v -5.660436 -8.005069 -5.660434
v -4.447375 -9.412965 -4.447373
v -3.063405 -10.459127 -3.063402
v -1.561711 -11.103348 -1.561707
v -1.227029 11.103348 -1.836376
v -2.406902 10.459126 -3.602181
v -3.494281 9.412965 -5.229558
v -4.447376 8.005069 -6.655968
v -5.229558 6.289541 -7.826588
v -5.810778 4.332311 -8.696441
v -6.168684 2.208594 -9.232089
v -6.289536 0.000001 -9.412960
v -6.168684 -2.208592 -9.232089
v -5.810778 -4.332310 -8.696441
v -5.229558 -6.289541 -7.826588
v -4.447376 -8.005069 -6.655968
v -3.494280 -9.412965 -5.229558
v -2.406902 -10.459127 -3.602180
v -1.227028 -11.103348 -1.836374
v -0.845192 11.103348 -2.040472
v -1.657903 10.459126 -4.002530
v -2.406902 9.412965 -5.810774
v -3.063405 8.005069 -7.395715
v -3.602180 6.289541 -8.696438
v -4.002533 4.332311 -9.662967
v -4.249062 2.208594 -10.258148
v -4.332307 0.000001 -10.459119
v -4.249062 -2.208592 -10.258148
v -4.002533 -4.332310 -9.662967
v -3.602180 -6.289541 -8.696438
v -3.063405 -8.005069 -7.395715
v -2.406901 -9.412965 -5.810773
v -1.657902 -10.459127 -4.002529
v -0.845192 -11.103348 -2.040470
v -0.430875 11.103348 -2.166154
v -0.845191 10.459126 -4.249063
v -1.227027 9.412965 -6.168685
v -1.561710 8.005069 -7.851249
v -1.836374 6.289541 -9.232088
v -2.040473 4.332311 -10.258151
v -2.166152 2.208594 -10.889990
v -2.208589 0.000001 -11.103340
v -2.166152 -2.208592 -10.889990
v -2.040473 -4.332310 -10.258151
v -1.836374 -6.289541 -9.232088
v -1.561710 -8.005069 -7.851249
v -1.227027 -9.412965 -6.168683
v -0.845191 -10.459127 -4.249062
v -0.430875 -11.103348 -2.166152
v 0.000001 -4.332310 -10.459121
v 0.000003 -6.289541 -9.412954
v 0.000002 -8.005069 -8.005063
v 0.000001 -10.459127 -4.332306
v 0.000000 -11.103348 -2.208589
vt 0.074360 0.930771
vt 0.072764 0.930771
vt 0.072764 0.933963
vt 0.074360 0.933963
vt 0.074360 0.953116
vt 0.072764 0.953116
vt 0.072764 0.956308
vt 0.074360 0.956308
vt 0.074360 0.927579
vt 0.072764 0.927579
vt 0.074360 0.949924
vt 0.072764 0.949924
vt 0.074360 0.924387
vt 0.072764 0.924387
vt 0.074360 0.946732
vt 0.072764 0.946732
vt 0.074360 0.921195
vt 0.072764 0.921195
vt 0.074360 0.943540
vt 0.072764 0.943540
vt 0.074360 0.918002
vt 0.072764 0.918002
vt 0.074360 0.940348
vt 0.072764 0.940348
vt 0.074360 0.914810
vt 0.072764 0.914810
vt 0.074360 0.937155
vt 0.072764 0.937155
vt 0.074360 0.959500
vt 0.072764 0.959500
vt 0.097475 0.962693
vt 0.098215 0.911618
vt 0.071168 0.914810
vt 0.071168 0.933963
vt 0.071168 0.937155
vt 0.071168 0.956308
vt 0.071168 0.959500
vt 0.071168 0.930771
vt 0.071168 0.953116
vt 0.071168 0.927579
vt 0.071168 0.949924
vt 0.071168 0.924387
vt 0.071168 0.946732
vt 0.071168 0.921195
vt 0.071168 0.943540
vt 0.071168 0.918002
vt 0.071168 0.940348
vt 0.069572 0.921195
vt 0.069572 0.924387
vt 0.069572 0.943540
vt 0.069572 0.946732
vt 0.069572 0.918002
vt 0.069572 0.940348
vt 0.069572 0.914810
vt 0.069572 0.937155
vt 0.069572 0.959500
vt 0.046401 0.962693
vt 0.047141 0.911618
vt 0.069572 0.933963
vt 0.069572 0.956308
vt 0.069572 0.930771
vt 0.069572 0.953116
vt 0.069572 0.927579
vt 0.069572 0.949924
vt 0.067976 0.956308
vt 0.067975 0.959500
vt 0.067976 0.930771
vt 0.067976 0.933963
vt 0.067976 0.953116
vt 0.067976 0.927579
vt 0.067976 0.949924
vt 0.067976 0.924387
vt 0.067976 0.946732
vt 0.067976 0.921195
vt 0.067976 0.943540
vt 0.067976 0.918002
vt 0.067976 0.940348
vt 0.067976 0.914810
vt 0.067976 0.937155
vt 0.066379 0.943540
vt 0.066379 0.946732
vt 0.066379 0.918002
vt 0.066379 0.921195
vt 0.066379 0.940348
vt 0.066379 0.914810
vt 0.066379 0.937155
vt 0.066379 0.959500
vt 0.066379 0.933963
vt 0.066379 0.956308
vt 0.066379 0.930771
vt 0.066379 0.953116
vt 0.066379 0.927579
vt 0.066379 0.949924
vt 0.066379 0.924387
vt 0.064783 0.930771
vt 0.064783 0.933963
vt 0.064783 0.953116
vt 0.064783 0.956308
vt 0.064783 0.927579
vt 0.064783 0.949924
vt 0.064783 0.924387
vt 0.064783 0.946732
vt 0.064783 0.921195
vt 0.064783 0.943540
vt 0.064783 0.918002
vt 0.064783 0.940348
vt 0.064783 0.914810
vt 0.064783 0.937155
vt 0.064783 0.959500
vt 0.063187 0.918002
vt 0.063187 0.921195
vt 0.063187 0.940348
vt 0.063187 0.943540
vt 0.063187 0.914810
vt 0.063187 0.937155
vt 0.063187 0.959500
vt 0.063187 0.933963
vt 0.063187 0.956308
vt 0.063187 0.930771
vt 0.063187 0.953116
vt 0.063187 0.927579
vt 0.063187 0.949924
vt 0.063187 0.924387
vt 0.063187 0.946732
vt 0.061591 0.953116
vt 0.061591 0.956308
vt 0.061591 0.927579
vt 0.061591 0.930771
vt 0.061591 0.949924
vt 0.061591 0.924387
vt 0.061591 0.946732
vt 0.061591 0.921195
vt 0.061591 0.943540
vt 0.061591 0.918002
vt 0.061591 0.940348
vt 0.061591 0.914810
vt 0.061591 0.937155
vt 0.061591 0.959500
vt 0.061591 0.933963
vt 0.059995 0.940348
vt 0.059995 0.943540
vt 0.059995 0.914810
vt 0.059995 0.918002
vt 0.059995 0.937155
vt 0.059995 0.959500
vt 0.059995 0.933963
vt 0.059995 0.956308
vt 0.059995 0.930771
vt 0.059995 0.953116
vt 0.059995 0.927579
vt 0.059995 0.949924
vt 0.059995 0.924387
vt 0.059995 0.946732
vt 0.059995 0.921195
vt 0.058399 0.927579
vt 0.058399 0.930771
vt 0.058399 0.949924
vt 0.058399 0.953116
vt 0.058399 0.924387
vt 0.058399 0.946732
vt 0.058399 0.921195
vt 0.058399 0.943540
vt 0.058399 0.918002
vt 0.058399 0.940348
vt 0.058399 0.914810
vt 0.058399 0.937155
vt 0.058399 0.959500
vt 0.058399 0.933963
vt 0.058399 0.956308
vt 0.056803 0.914810
vt 0.056803 0.918002
vt 0.056803 0.937155
vt 0.056803 0.940348
vt 0.056803 0.959500
vt 0.056803 0.933963
vt 0.056803 0.956308
vt 0.056803 0.930771
vt 0.056803 0.953116
vt 0.056803 0.927579
vt 0.056803 0.949924
vt 0.056803 0.924387
vt 0.056803 0.946732
vt 0.056803 0.921195
vt 0.056803 0.943540
vt 0.055207 0.924387
vt 0.055207 0.927579
vt 0.055207 0.946732
vt 0.055207 0.949924
vt 0.055207 0.921195
vt 0.055207 0.943540
vt 0.055207 0.918002
vt 0.055207 0.940348
vt 0.055207 0.914810
vt 0.055207 0.937155
vt 0.055207 0.959500
vt 0.055207 0.933963
vt 0.055207 0.956308
vt 0.055207 0.930771
vt 0.055207 0.953116
vt 0.053611 0.959500
vt 0.053611 0.914810
vt 0.053611 0.933963
vt 0.053611 0.937155
vt 0.053611 0.956308
vt 0.053611 0.930771
vt 0.053611 0.953116
vt 0.053611 0.927579
vt 0.053611 0.949924
vt 0.053611 0.924387
vt 0.053611 0.946732
vt 0.053611 0.921195
vt 0.053611 0.943540
vt 0.053611 0.918002
vt 0.053611 0.940348
vt 0.052015 0.946732
vt 0.052015 0.949924
vt 0.052015 0.921195
vt 0.052015 0.924387
vt 0.052015 0.943540
vt 0.052015 0.918002
vt 0.052015 0.940348
vt 0.052015 0.914810
vt 0.052015 0.937155
vt 0.052015 0.959500
vt 0.052015 0.933963
vt 0.052015 0.956308
vt 0.052015 0.930771
vt 0.052015 0.953116
vt 0.052015 0.927579
vt 0.050419 0.933963
vt 0.050419 0.937155
vt 0.050419 0.956308
vt 0.050419 0.959500
vt 0.050419 0.930771
vt 0.050419 0.953116
vt 0.050419 0.927579
vt 0.050419 0.949924
vt 0.050419 0.924387
vt 0.050419 0.946732
vt 0.050419 0.921195
vt 0.050419 0.943540
vt 0.050419 0.918002
vt 0.050419 0.940348
vt 0.050419 0.914810
vt 0.048823 0.921195
vt 0.048823 0.924387
vt 0.048823 0.943540
vt 0.048823 0.946732
vt 0.048823 0.918002
vt 0.048823 0.940348
vt 0.048823 0.914810
vt 0.048823 0.937155
vt 0.048823 0.959500
vt 0.048823 0.933963
vt 0.048823 0.956308
vt 0.048823 0.930771
vt 0.048823 0.953116
vt 0.048823 0.927579
vt 0.048823 0.949924
vt 0.047226 0.956308
vt 0.047226 0.959500
vt 0.047226 0.930771
vt 0.047226 0.933963
vt 0.047226 0.953116
vt 0.047226 0.927579
vt 0.047226 0.949924
vt 0.047226 0.924387
vt 0.047226 0.946732
vt 0.047226 0.921195
vt 0.047226 0.943540
vt 0.047226 0.918002
vt 0.047226 0.940348
vt 0.047226 0.914810
vt 0.047226 0.937155
vt 0.045630 0.943540
vt 0.045630 0.946732
vt 0.045630 0.918002
vt 0.045630 0.921195
vt 0.045630 0.940348
vt 0.045630 0.914810
vt 0.045630 0.937155
vt 0.045630 0.959500
vt 0.045630 0.933963
vt 0.045630 0.956308
vt 0.045630 0.930771
vt 0.045630 0.953116
vt 0.045630 0.927579
vt 0.045630 0.949924
vt 0.045630 0.924387
vt 0.044034 0.930771
vt 0.044034 0.933963
vt 0.044034 0.953116
vt 0.044034 0.956308
vt 0.044034 0.927579
vt 0.044034 0.949924
vt 0.044034 0.924387
vt 0.044034 0.946732
vt 0.044034 0.921195
vt 0.044034 0.943540
vt 0.044034 0.918002
vt 0.044034 0.940348
vt 0.044034 0.914810
vt 0.044034 0.937155
vt 0.044034 0.959500
vt 0.042438 0.918002
vt 0.042438 0.921195
vt 0.042438 0.940348
vt 0.042438 0.943540
vt 0.042438 0.914810
vt 0.042438 0.937155
vt 0.042438 0.959500
vt 0.042438 0.933963
vt 0.042438 0.956308
vt 0.042438 0.930771
vt 0.042438 0.953116
vt 0.042438 0.927579
vt 0.042438 0.949924
vt 0.042438 0.924387
vt 0.042438 0.946732
vt 0.040842 0.927579
vt 0.040842 0.930771
vt 0.040842 0.949924
vt 0.040842 0.953116
vt 0.040842 0.924387
vt 0.040842 0.946732
vt 0.040842 0.921195
vt 0.040842 0.943540
vt 0.040842 0.918002
vt 0.040842 0.940348
vt 0.040842 0.914810
vt 0.040842 0.937155
vt 0.040842 0.959500
vt 0.040842 0.933963
vt 0.040842 0.956308
vt 0.039246 0.914810
vt 0.039246 0.918002
vt 0.039246 0.937155
vt 0.039246 0.940348
vt 0.039246 0.959500
vt 0.039246 0.933963
vt 0.039246 0.956308
vt 0.039246 0.930771
vt 0.039246 0.953116
vt 0.039246 0.927579
vt 0.039246 0.949924
vt 0.039246 0.924387
vt 0.039246 0.946732
vt 0.039246 0.921195
vt 0.039246 0.943540
vt 0.037650 0.949924
vt 0.037650 0.953116
vt 0.037650 0.924387
vt 0.037650 0.927579
vt 0.037650 0.946732
vt 0.037650 0.921195
vt 0.037650 0.943540
vt 0.037650 0.918002
vt 0.037650 0.940348
vt 0.037650 0.914810
vt 0.037650 0.937155
vt 0.037650 0.959500
vt 0.037650 0.933963
vt 0.037650 0.956308
vt 0.037650 0.930771
vt 0.036054 0.937155
vt 0.036054 0.940348
vt 0.036054 0.959500
vt 0.036054 0.914810
vt 0.036054 0.933963
vt 0.036054 0.956308
vt 0.036054 0.930771
vt 0.036054 0.953116
vt 0.036054 0.927579
vt 0.036054 0.949924
vt 0.036054 0.924387
vt 0.036054 0.946732
vt 0.036054 0.921195
vt 0.036054 0.943540
vt 0.036054 0.918002
vt 0.034458 0.924387
vt 0.034458 0.927579
vt 0.034458 0.946732
vt 0.034458 0.949924
vt 0.034458 0.921195
vt 0.034458 0.943540
vt 0.034458 0.918002
vt 0.034458 0.940348
vt 0.034458 0.914810
vt 0.034458 0.937155
vt 0.034458 0.959500
vt 0.034458 0.933963
vt 0.034458 0.956308
vt 0.034458 0.930771
vt 0.034458 0.953116
vt 0.032862 0.959500
vt 0.032862 0.914810
vt 0.032862 0.933963
vt 0.032862 0.937155
vt 0.032862 0.956308
vt 0.032862 0.930771
vt 0.032862 0.953116
vt 0.032862 0.927579
vt 0.032862 0.949924
vt 0.032862 0.924387
vt 0.032862 0.946732
vt 0.032862 0.921195
vt 0.032862 0.943540
vt 0.032862 0.918002
vt 0.032862 0.940348
vt 0.031266 0.946732
vt 0.031266 0.949924
vt 0.031266 0.921195
vt 0.031266 0.924387
vt 0.031266 0.943540
vt 0.031266 0.918002
vt 0.031266 0.940348
vt 0.031266 0.914810
vt 0.031266 0.937155
vt 0.031266 0.959500
vt 0.031266 0.933963
vt 0.031266 0.956308
vt 0.031266 0.930771
vt 0.031266 0.953116
vt 0.031266 0.927579
vt 0.029670 0.933963
vt 0.029670 0.937155
vt 0.029670 0.956308
vt 0.029670 0.959500
vt 0.029670 0.930771
vt 0.029670 0.953116
vt 0.029670 0.927579
vt 0.029670 0.949924
vt 0.029670 0.924387
vt 0.029670 0.946732
vt 0.029670 0.921194
vt 0.029670 0.943540
vt 0.029670 0.918002
vt 0.029670 0.940348
vt 0.029670 0.914810
vt 0.028073 0.921194
vt 0.028073 0.924387
vt 0.028073 0.943540
vt 0.028073 0.946732
vt 0.028073 0.918002
vt 0.028073 0.940348
vt 0.028073 0.914810
vt 0.028073 0.937155
vt 0.028073 0.959500
vt 0.028073 0.933963
vt 0.028073 0.956308
vt 0.028073 0.930771
vt 0.028073 0.953116
vt 0.028073 0.927579
vt 0.028073 0.949924
vt 0.026477 0.930771
vt 0.026477 0.933963
vt 0.026477 0.953116
vt 0.026477 0.956308
vt 0.026477 0.927579
vt 0.026477 0.949924
vt 0.026477 0.924387
vt 0.026477 0.946732
vt 0.026477 0.921194
vt 0.026477 0.943540
vt 0.026477 0.918002
vt 0.026477 0.940348
vt 0.026477 0.914810
vt 0.026477 0.937155
vt 0.026477 0.959500
vt 0.024881 0.918002
vt 0.024881 0.921194
vt 0.024881 0.940348
vt 0.024881 0.943540
vt 0.024881 0.914810
vt 0.024881 0.937155
vt 0.024881 0.959500
vt 0.024881 0.933963
vt 0.024881 0.956308
vt 0.024881 0.930771
vt 0.024881 0.953116
vt 0.024881 0.927579
vt 0.024881 0.949924
vt 0.024881 0.924387
vt 0.024881 0.946732
vt 0.023285 0.953116
vt 0.023285 0.956308
vt 0.023285 0.927579
vt 0.023285 0.930771
vt 0.023285 0.949924
vt 0.023285 0.924387
vt 0.023285 0.946732
vt 0.023285 0.921195
vt 0.023285 0.943540
vt 0.023285 0.918002
vt 0.023285 0.940348
vt 0.023285 0.914810
vt 0.023285 0.937155
vt 0.075956 0.959500
vt 0.023285 0.933963
vt 0.075956 0.956308
vn 0.0000 0.3805 0.9247
vn -0.1804 0.3805 0.9070
vn -0.1914 0.1939 0.9622
vn 0.0000 0.1939 0.9810
vn 0.0000 -0.8286 0.5598
vn -0.1092 -0.8286 0.5490
vn -0.0757 -0.9217 0.3804
vn 0.0000 -0.9217 0.3879
vn 0.0000 0.5528 0.8333
vn -0.1626 0.5528 0.8173
vn 0.0000 -0.7040 0.7101
vn -0.1385 -0.7040 0.6965
vn 0.0000 0.7040 0.7101
vn -0.1385 0.7040 0.6965
vn 0.0000 -0.5528 0.8333
vn -0.1626 -0.5528 0.8173
vn 0.0000 0.8286 0.5598
vn -0.1092 0.8286 0.5490
vn 0.0000 -0.3805 0.9247
vn -0.1804 -0.3805 0.9070
vn 0.0000 0.9217 0.3879
vn -0.0757 0.9217 0.3804
vn 0.0000 -0.1939 0.9810
vn -0.1914 -0.1939 0.9622
vn 0.0000 0.9796 0.2010
vn -0.0392 0.9796 0.1971
vn 0.0000 0.0000 1.0000
vn -0.1951 0.0000 0.9808
vn 0.0000 -0.9796 0.2010
vn -0.0392 -0.9796 0.1971
vn 0.0000 -1.0000 0.0000
vn 0.0000 1.0000 0.0000
vn -0.0769 0.9796 0.1856
vn -0.3754 0.1939 0.9063
vn -0.3827 0.0000 0.9239
vn -0.1484 -0.9217 0.3583
vn -0.0769 -0.9796 0.1856
vn -0.3539 0.3805 0.8544
vn -0.2142 -0.8286 0.5171
vn -0.3189 0.5528 0.7699
vn -0.2717 -0.7040 0.6561
vn -0.2717 0.7040 0.6561
vn -0.3189 -0.5528 0.7699
vn -0.2142 0.8286 0.5171
vn -0.3539 -0.3805 0.8544
vn -0.1484 0.9217 0.3583
vn -0.3754 -0.1939 0.9063
vn -0.3110 0.8286 0.4654
vn -0.3945 0.7040 0.5904
vn -0.5137 -0.3805 0.7689
vn -0.4630 -0.5528 0.6929
vn -0.2155 0.9217 0.3225
vn -0.5450 -0.1939 0.8157
vn -0.1116 0.9796 0.1671
vn -0.5556 0.0000 0.8314
vn -0.1116 -0.9796 0.1671
vn -0.5450 0.1939 0.8157
vn -0.2155 -0.9217 0.3225
vn -0.5137 0.3805 0.7689
vn -0.3110 -0.8286 0.4654
vn -0.4630 0.5528 0.6929
vn -0.3945 -0.7040 0.5904
vn -0.2743 -0.9217 0.2743
vn -0.1421 -0.9796 0.1421
vn -0.6539 0.3805 0.6539
vn -0.6937 0.1939 0.6937
vn -0.3958 -0.8286 0.3958
vn -0.5893 0.5528 0.5893
vn -0.5021 -0.7040 0.5021
vn -0.5021 0.7040 0.5021
vn -0.5893 -0.5528 0.5893
vn -0.3958 0.8286 0.3958
vn -0.6539 -0.3805 0.6539
vn -0.2743 0.9217 0.2743
vn -0.6937 -0.1939 0.6937
vn -0.1421 0.9796 0.1421
vn -0.7071 0.0000 0.7071
vn -0.7689 -0.3805 0.5137
vn -0.6929 -0.5528 0.4630
vn -0.3225 0.9217 0.2155
vn -0.4654 0.8286 0.3110
vn -0.8157 -0.1939 0.5450
vn -0.1671 0.9796 0.1116
vn -0.8314 0.0000 0.5556
vn -0.1671 -0.9796 0.1116
vn -0.8157 0.1939 0.5450
vn -0.3225 -0.9217 0.2155
vn -0.7689 0.3805 0.5137
vn -0.4654 -0.8286 0.3110
vn -0.6929 0.5528 0.4630
vn -0.5904 -0.7040 0.3945
vn -0.5904 0.7040 0.3945
vn -0.8544 0.3805 0.3539
vn -0.9063 0.1939 0.3754
vn -0.5171 -0.8286 0.2142
vn -0.3583 -0.9217 0.1484
vn -0.7699 0.5528 0.3189
vn -0.6561 -0.7040 0.2717
vn -0.6561 0.7040 0.2717
vn -0.7699 -0.5528 0.3189
vn -0.5171 0.8286 0.2142
vn -0.8544 -0.3805 0.3539
vn -0.3583 0.9217 0.1484
vn -0.9063 -0.1939 0.3754
vn -0.1856 0.9796 0.0769
vn -0.9239 0.0000 0.3827
vn -0.1856 -0.9796 0.0769
vn -0.3804 0.9217 0.0757
vn -0.5490 0.8286 0.1092
vn -0.9622 -0.1939 0.1914
vn -0.9070 -0.3805 0.1804
vn -0.1971 0.9796 0.0392
vn -0.9808 0.0000 0.1951
vn -0.1971 -0.9796 0.0392
vn -0.9622 0.1939 0.1914
vn -0.3804 -0.9217 0.0757
vn -0.9070 0.3805 0.1804
vn -0.5490 -0.8286 0.1092
vn -0.8173 0.5528 0.1626
vn -0.6965 -0.7040 0.1385
vn -0.6965 0.7040 0.1385
vn -0.8173 -0.5528 0.1626
vn -0.5598 -0.8286 0.0000
vn -0.3879 -0.9217 0.0000
vn -0.8333 0.5528 0.0000
vn -0.9247 0.3805 0.0000
vn -0.7101 -0.7040 0.0000
vn -0.7101 0.7040 0.0000
vn -0.8333 -0.5528 0.0000
vn -0.5598 0.8286 0.0000
vn -0.9247 -0.3805 0.0000
vn -0.3879 0.9217 0.0000
vn -0.9810 -0.1939 0.0000
vn -0.2010 0.9796 0.0000
vn -1.0000 0.0000 0.0000
vn -0.2010 -0.9796 0.0000
vn -0.9810 0.1939 0.0000
vn -0.9622 -0.1939 -0.1914
vn -0.9070 -0.3805 -0.1804
vn -0.1971 0.9796 -0.0392
vn -0.3804 0.9217 -0.0757
vn -0.9808 0.0000 -0.1951
vn -0.1971 -0.9796 -0.0392
vn -0.9622 0.1939 -0.1914
vn -0.3804 -0.9217 -0.0757
vn -0.9070 0.3805 -0.1804
vn -0.5490 -0.8286 -0.1092
vn -0.8173 0.5528 -0.1626
vn -0.6965 -0.7040 -0.1385
vn -0.6965 0.7040 -0.1385
vn -0.8173 -0.5528 -0.1626
vn -0.5490 0.8286 -0.1092
vn -0.7699 0.5528 -0.3189
vn -0.8544 0.3805 -0.3539
vn -0.6561 -0.7040 -0.2717
vn -0.5171 -0.8286 -0.2142
vn -0.6561 0.7040 -0.2717
vn -0.7699 -0.5528 -0.3189
vn -0.5171 0.8286 -0.2142
vn -0.8544 -0.3805 -0.3539
vn -0.3583 0.9217 -0.1484
vn -0.9063 -0.1939 -0.3754
vn -0.1856 0.9796 -0.0769
vn -0.9239 0.0000 -0.3827
vn -0.1856 -0.9796 -0.0769
vn -0.9063 0.1939 -0.3754
vn -0.3583 -0.9217 -0.1484
vn -0.1671 0.9796 -0.1116
vn -0.3225 0.9217 -0.2155
vn -0.8314 0.0000 -0.5556
vn -0.8157 -0.1939 -0.5450
vn -0.1671 -0.9796 -0.1116
vn -0.8157 0.1939 -0.5450
vn -0.3225 -0.9217 -0.2155
vn -0.7689 0.3805 -0.5137
vn -0.4654 -0.8286 -0.3110
vn -0.6929 0.5528 -0.4630
vn -0.5904 -0.7040 -0.3945
vn -0.5904 0.7040 -0.3945
vn -0.6929 -0.5528 -0.4630
vn -0.4654 0.8286 -0.3110
vn -0.7689 -0.3805 -0.5137
vn -0.5021 0.7040 -0.5021
vn -0.5893 0.5528 -0.5893
vn -0.5893 -0.5528 -0.5893
vn -0.5021 -0.7040 -0.5021
vn -0.3958 0.8286 -0.3958
vn -0.6539 -0.3805 -0.6539
vn -0.2743 0.9217 -0.2743
vn -0.6937 -0.1939 -0.6937
vn -0.1421 0.9796 -0.1421
vn -0.7071 0.0000 -0.7071
vn -0.1421 -0.9796 -0.1421
vn -0.6937 0.1939 -0.6937
vn -0.2743 -0.9217 -0.2743
vn -0.6539 0.3805 -0.6539
vn -0.3958 -0.8286 -0.3958
vn -0.1116 -0.9796 -0.1671
vn -0.1116 0.9796 -0.1671
vn -0.5450 0.1939 -0.8157
vn -0.5556 0.0000 -0.8314
vn -0.2155 -0.9217 -0.3225
vn -0.5137 0.3805 -0.7689
vn -0.3110 -0.8286 -0.4654
vn -0.4630 0.5528 -0.6929
vn -0.3945 -0.7040 -0.5904
vn -0.3945 0.7040 -0.5904
vn -0.4630 -0.5528 -0.6929
vn -0.3110 0.8286 -0.4654
vn -0.5137 -0.3805 -0.7689
vn -0.2155 0.9217 -0.3225
vn -0.5450 -0.1939 -0.8157
vn -0.3189 -0.5528 -0.7699
vn -0.2717 -0.7040 -0.6561
vn -0.2142 0.8286 -0.5171
vn -0.2717 0.7040 -0.6561
vn -0.3539 -0.3805 -0.8544
vn -0.1484 0.9217 -0.3583
vn -0.3754 -0.1939 -0.9063
vn -0.0769 0.9796 -0.1856
vn -0.3827 0.0000 -0.9239
vn -0.0769 -0.9796 -0.1856
vn -0.3754 0.1939 -0.9063
vn -0.1484 -0.9217 -0.3583
vn -0.3539 0.3805 -0.8544
vn -0.2142 -0.8286 -0.5171
vn -0.3189 0.5528 -0.7699
vn -0.1914 0.1939 -0.9622
vn -0.1951 0.0000 -0.9808
vn -0.0757 -0.9217 -0.3804
vn -0.0392 -0.9796 -0.1971
vn -0.1804 0.3805 -0.9070
vn -0.1092 -0.8286 -0.5490
vn -0.1626 0.5528 -0.8173
vn -0.1385 -0.7040 -0.6965
vn -0.1385 0.7040 -0.6965
vn -0.1626 -0.5528 -0.8173
vn -0.1092 0.8286 -0.5490
vn -0.1804 -0.3805 -0.9070
vn -0.0757 0.9217 -0.3804
vn -0.1914 -0.1939 -0.9622
vn -0.0392 0.9796 -0.1971
vn 0.0000 0.8286 -0.5598
vn 0.0000 0.7040 -0.7101
vn 0.0000 -0.3805 -0.9247
vn 0.0000 -0.5528 -0.8333
vn 0.0000 0.9217 -0.3879
vn 0.0000 -0.1939 -0.9810
vn 0.0000 0.9796 -0.2010
vn 0.0000 0.0000 -1.0000
vn 0.0000 -0.9796 -0.2010
vn 0.0000 0.1939 -0.9810
vn 0.0000 -0.9217 -0.3879
vn 0.0000 0.3805 -0.9247
vn 0.0000 -0.8286 -0.5598
vn 0.0000 0.5528 -0.8333
vn 0.0000 -0.7040 -0.7101
vn 0.0757 -0.9217 -0.3804
vn 0.0392 -0.9796 -0.1971
vn 0.1804 0.3805 -0.9070
vn 0.1914 0.1939 -0.9622
vn 0.1092 -0.8286 -0.5490
vn 0.1626 0.5528 -0.8173
vn 0.1385 -0.7040 -0.6965
vn 0.1385 0.7040 -0.6965
vn 0.1626 -0.5528 -0.8173
vn 0.1092 0.8286 -0.5490
vn 0.1804 -0.3805 -0.9070
vn 0.0757 0.9217 -0.3804
vn 0.1914 -0.1939 -0.9622
vn 0.0392 0.9796 -0.1971
vn 0.1951 0.0000 -0.9808
vn 0.3539 -0.3805 -0.8544
vn 0.3189 -0.5528 -0.7699
vn 0.1484 0.9217 -0.3583
vn 0.2142 0.8286 -0.5171
vn 0.3754 -0.1939 -0.9063
vn 0.0769 0.9796 -0.1856
vn 0.3827 0.0000 -0.9239
vn 0.0769 -0.9796 -0.1856
vn 0.3754 0.1939 -0.9063
vn 0.1484 -0.9217 -0.3583
vn 0.3539 0.3805 -0.8544
vn 0.2142 -0.8286 -0.5171
vn 0.3189 0.5528 -0.7699
vn 0.2717 -0.7040 -0.6561
vn 0.2717 0.7040 -0.6561
vn 0.5137 0.3805 -0.7689
vn 0.5450 0.1939 -0.8157
vn 0.3110 -0.8286 -0.4654
vn 0.2155 -0.9217 -0.3225
vn 0.4630 0.5528 -0.6929
vn 0.3945 -0.7040 -0.5904
vn 0.3945 0.7040 -0.5904
vn 0.4630 -0.5528 -0.6929
vn 0.3110 0.8286 -0.4654
vn 0.5137 -0.3805 -0.7689
vn 0.2155 0.9217 -0.3225
vn 0.5450 -0.1939 -0.8157
vn 0.1116 0.9796 -0.1671
vn 0.5556 0.0000 -0.8314
vn 0.1116 -0.9796 -0.1671
vn 0.2743 0.9217 -0.2743
vn 0.3958 0.8286 -0.3958
vn 0.6937 -0.1939 -0.6937
vn 0.6539 -0.3805 -0.6539
vn 0.1421 0.9796 -0.1421
vn 0.7071 0.0000 -0.7071
vn 0.1421 -0.9796 -0.1421
vn 0.6937 0.1939 -0.6937
vn 0.2743 -0.9217 -0.2743
vn 0.6539 0.3805 -0.6539
vn 0.3958 -0.8286 -0.3958
vn 0.5893 0.5528 -0.5893
vn 0.5021 -0.7040 -0.5021
vn 0.5021 0.7040 -0.5021
vn 0.5893 -0.5528 -0.5893
vn 0.6929 0.5528 -0.4630
vn 0.7689 0.3805 -0.5137
vn 0.5904 -0.7040 -0.3945
vn 0.4654 -0.8286 -0.3110
vn 0.5904 0.7040 -0.3945
vn 0.6929 -0.5528 -0.4630
vn 0.4654 0.8286 -0.3110
vn 0.7689 -0.3805 -0.5137
vn 0.3225 0.9217 -0.2155
vn 0.8157 -0.1939 -0.5450
vn 0.1671 0.9796 -0.1116
vn 0.8314 0.0000 -0.5556
vn 0.1671 -0.9796 -0.1116
vn 0.8157 0.1939 -0.5450
vn 0.3225 -0.9217 -0.2155
vn 0.1856 0.9796 -0.0769
vn 0.3583 0.9217 -0.1484
vn 0.9239 0.0000 -0.3827
vn 0.9063 -0.1939 -0.3754
vn 0.1856 -0.9796 -0.0769
vn 0.9063 0.1939 -0.3754
vn 0.3583 -0.9217 -0.1484
vn 0.8544 0.3805 -0.3539
vn 0.5171 -0.8286 -0.2142
vn 0.7699 0.5528 -0.3189
vn 0.6561 -0.7040 -0.2717
vn 0.6561 0.7040 -0.2717
vn 0.7699 -0.5528 -0.3189
vn 0.5171 0.8286 -0.2142
vn 0.8544 -0.3805 -0.3539
vn 0.6965 -0.7040 -0.1385
vn 0.5490 -0.8286 -0.1092
vn 0.6965 0.7040 -0.1385
vn 0.8173 0.5528 -0.1626
vn 0.8173 -0.5528 -0.1626
vn 0.5490 0.8286 -0.1092
vn 0.9070 -0.3805 -0.1804
vn 0.3804 0.9217 -0.0757
vn 0.9622 -0.1939 -0.1914
vn 0.1971 0.9796 -0.0392
vn 0.9808 0.0000 -0.1951
vn 0.1971 -0.9796 -0.0392
vn 0.9622 0.1939 -0.1914
vn 0.3804 -0.9217 -0.0757
vn 0.9070 0.3805 -0.1804
vn 1.0000 0.0000 0.0000
vn 0.9810 -0.1939 0.0000
vn 0.2010 -0.9796 0.0000
vn 0.2010 0.9796 0.0000
vn 0.9810 0.1939 0.0000
vn 0.3879 -0.9217 0.0000
vn 0.9247 0.3805 0.0000
vn 0.5598 -0.8286 0.0000
vn 0.8333 0.5528 0.0000
vn 0.7101 -0.7040 0.0000
vn 0.7101 0.7040 0.0000
vn 0.8333 -0.5528 0.0000
vn 0.5598 0.8286 0.0000
vn 0.9247 -0.3805 0.0000
vn 0.3879 0.9217 0.0000
vn 0.6965 0.7040 0.1385
vn 0.8173 0.5528 0.1626
vn 0.8173 -0.5528 0.1626
vn 0.6965 -0.7040 0.1385
vn 0.5490 0.8286 0.1092
vn 0.9070 -0.3805 0.1804
vn 0.3804 0.9217 0.0757
vn 0.9622 -0.1939 0.1914
vn 0.1971 0.9796 0.0392
vn 0.9808 0.0000 0.1951
vn 0.1971 -0.9796 0.0392
vn 0.9622 0.1939 0.1914
vn 0.3804 -0.9217 0.0757
vn 0.9070 0.3805 0.1804
vn 0.5490 -0.8286 0.1092
vn 0.1856 -0.9796 0.0769
vn 0.1856 0.9796 0.0769
vn 0.9063 0.1939 0.3754
vn 0.9239 0.0000 0.3827
vn 0.3583 -0.9217 0.1484
vn 0.8544 0.3805 0.3539
vn 0.5171 -0.8286 0.2142
vn 0.7699 0.5528 0.3189
vn 0.6561 -0.7040 0.2717
vn 0.6561 0.7040 0.2717
vn 0.7699 -0.5528 0.3189
vn 0.5171 0.8286 0.2142
vn 0.8544 -0.3805 0.3539
vn 0.3583 0.9217 0.1484
vn 0.9063 -0.1939 0.3754
vn 0.6929 -0.5528 0.4630
vn 0.5904 -0.7040 0.3945
vn 0.4654 0.8286 0.3110
vn 0.5904 0.7040 0.3945
vn 0.7689 -0.3805 0.5137
vn 0.3225 0.9217 0.2155
vn 0.8157 -0.1939 0.5450
vn 0.1671 0.9796 0.1116
vn 0.8314 0.0000 0.5556
vn 0.1671 -0.9796 0.1116
vn 0.8157 0.1939 0.5450
vn 0.3225 -0.9217 0.2155
vn 0.7689 0.3805 0.5137
vn 0.4654 -0.8286 0.3110
vn 0.6929 0.5528 0.4630
vn 0.6937 0.1939 0.6937
vn 0.7071 0.0000 0.7071
vn 0.2743 -0.9217 0.2743
vn 0.1421 -0.9796 0.1421
vn 0.6539 0.3805 0.6539
vn 0.3958 -0.8286 0.3958
vn 0.5893 0.5528 0.5893
vn 0.5021 -0.7040 0.5021
vn 0.5021 0.7040 0.5021
vn 0.5893 -0.5528 0.5893
vn 0.3958 0.8286 0.3958
vn 0.6539 -0.3805 0.6539
vn 0.2743 0.9217 0.2743
vn 0.6937 -0.1939 0.6937
vn 0.1421 0.9796 0.1421
vn 0.3110 0.8286 0.4654
vn 0.3945 0.7040 0.5904
vn 0.5137 -0.3805 0.7689
vn 0.4630 -0.5528 0.6929
vn 0.2155 0.9217 0.3225
vn 0.5450 -0.1939 0.8157
vn 0.1116 0.9796 0.1671
vn 0.5556 0.0000 0.8314
vn 0.1116 -0.9796 0.1671
vn 0.5450 0.1939 0.8157
vn 0.2155 -0.9217 0.3225
vn 0.5137 0.3805 0.7689
vn 0.3110 -0.8286 0.4654
vn 0.4630 0.5528 0.6929
vn 0.3945 -0.7040 0.5904
vn 0.3539 0.3805 0.8544
vn 0.3754 0.1939 0.9063
vn 0.2142 -0.8286 0.5171
vn 0.1484 -0.9217 0.3583
vn 0.3189 0.5528 0.7699
vn 0.2717 -0.7040 0.6561
vn 0.2717 0.7040 0.6561
vn 0.3189 -0.5528 0.7699
vn 0.2142 0.8286 0.5171
vn 0.3539 -0.3805 0.8544
vn 0.1484 0.9217 0.3583
vn 0.3754 -0.1939 0.9063
vn 0.0769 0.9796 0.1856
vn 0.3827 0.0000 0.9239
vn 0.0769 -0.9796 0.1856
vn 0.0757 0.9217 0.3804
vn 0.1092 0.8286 0.5490
vn 0.1914 -0.1939 0.9622
vn 0.1804 -0.3805 0.9070
vn 0.0392 0.9796 0.1971
vn 0.1951 0.0000 0.9808
vn 0.0392 -0.9796 0.1971
vn 0.1914 0.1939 0.9622
vn 0.0757 -0.9217 0.3804
vn 0.1804 0.3805 0.9070
vn 0.1092 -0.8286 0.5490
vn 0.1626 0.5528 0.8173
vn 0.1385 -0.7040 0.6965
vn 0.1385 0.7040 0.6965
vn 0.1626 -0.5528 0.8173
usemtl None
s 1
f 478/1/1 20/2/2 19/3/3 9/4/4
f 3/5/5 13/6/6 12/7/7 2/8/8
f 479/9/9 21/10/10 20/2/2 478/1/1
f 4/11/11 14/12/12 13/6/6 3/5/5
f 480/13/13 22/14/14 21/10/10 479/9/9
f 5/15/15 15/16/16 14/12/12 4/11/11
f 10/17/17 23/18/18 22/14/14 480/13/13
f 6/19/19 16/20/20 15/16/16 5/15/15
f 481/21/21 24/22/22 23/18/18 10/17/17
f 7/23/23 17/24/24 16/20/20 6/19/19
f 482/25/25 25/26/26 24/22/22 481/21/21
f 8/27/27 18/28/28 17/24/24 7/23/23
f 1/29/29 11/30/30 297/31/31
f 206/32/32 25/26/26 482/25/25
f 9/4/4 19/3/3 18/28/28 8/27/27
f 2/8/8 12/7/7 11/30/30 1/29/29
f 206/32/32 40/33/33 25/26/26
f 19/3/3 34/34/34 33/35/35 18/28/28
f 12/7/7 27/36/36 26/37/37 11/30/30
f 20/2/2 35/38/38 34/34/34 19/3/3
f 13/6/6 28/39/39 27/36/36 12/7/7
f 21/10/10 36/40/40 35/38/38 20/2/2
f 14/12/12 29/41/41 28/39/39 13/6/6
f 22/14/14 37/42/42 36/40/40 21/10/10
f 15/16/16 30/43/43 29/41/41 14/12/12
f 23/18/18 38/44/44 37/42/42 22/14/14
f 16/20/20 31/45/45 30/43/43 15/16/16
f 24/22/22 39/46/46 38/44/44 23/18/18
f 17/24/24 32/47/47 31/45/45 16/20/20
f 25/26/26 40/33/33 39/46/46 24/22/22
f 18/28/28 33/35/35 32/47/47 17/24/24
f 11/30/30 26/37/37 297/31/31
f 38/44/44 53/48/48 52/49/49 37/42/42
f 31/45/45 46/50/50 45/51/51 30/43/43
f 39/46/46 54/52/52 53/48/48 38/44/44
f 32/47/47 47/53/53 46/50/50 31/45/45
f 40/33/33 55/54/54 54/52/52 39/46/46
f 33/35/35 48/55/55 47/53/53 32/47/47
f 26/37/37 41/56/56 297/57/31
f 206/58/32 55/54/54 40/33/33
f 34/34/34 49/59/57 48/55/55 33/35/35
f 27/36/36 42/60/58 41/56/56 26/37/37
f 35/38/38 50/61/59 49/59/57 34/34/34
f 28/39/39 43/62/60 42/60/58 27/36/36
f 36/40/40 51/63/61 50/61/59 35/38/38
f 29/41/41 44/64/62 43/62/60 28/39/39
f 37/42/42 52/49/49 51/63/61 36/40/40
f 30/43/43 45/51/51 44/64/62 29/41/41
f 42/60/58 57/65/63 56/66/64 41/56/56
f 50/61/59 65/67/65 64/68/66 49/59/57
f 43/62/60 58/69/67 57/65/63 42/60/58
f 51/63/61 66/70/68 65/67/65 50/61/59
f 44/64/62 59/71/69 58/69/67 43/62/60
f 52/49/49 67/72/70 66/70/68 51/63/61
f 45/51/51 60/73/71 59/71/69 44/64/62
f 53/48/48 68/74/72 67/72/70 52/49/49
f 46/50/50 61/75/73 60/73/71 45/51/51
f 54/52/52 69/76/74 68/74/72 53/48/48
f 47/53/53 62/77/75 61/75/73 46/50/50
f 55/54/54 70/78/76 69/76/74 54/52/52
f 48/55/55 63/79/77 62/77/75 47/53/53
f 41/56/56 56/66/64 297/57/31
f 206/58/32 70/78/76 55/54/54
f 49/59/57 64/68/66 63/79/77 48/55/55
f 61/75/73 76/80/78 75/81/79 60/73/71
f 69/76/74 84/82/80 83/83/81 68/74/72
f 62/77/75 77/84/82 76/80/78 61/75/73
f 70/78/76 85/85/83 84/82/80 69/76/74
f 63/79/77 78/86/84 77/84/82 62/77/75
f 56/66/64 71/87/85 297/57/31
f 206/58/32 85/85/83 70/78/76
f 64/68/66 79/88/86 78/86/84 63/79/77
f 57/65/63 72/89/87 71/87/85 56/66/64
f 65/67/65 80/90/88 79/88/86 64/68/66
f 58/69/67 73/91/89 72/89/87 57/65/63
f 66/70/68 81/92/90 80/90/88 65/67/65
f 59/71/69 74/93/91 73/91/89 58/69/67
f 67/72/70 82/94/92 81/92/90 66/70/68
f 60/73/71 75/81/79 74/93/91 59/71/69
f 68/74/72 83/83/81 82/94/92 67/72/70
f 80/90/88 95/95/93 94/96/94 79/88/86
f 73/91/89 88/97/95 87/98/96 72/89/87
f 81/92/90 96/99/97 95/95/93 80/90/88
f 74/93/91 89/100/98 88/97/95 73/91/89
f 82/94/92 97/101/99 96/99/97 81/92/90
f 75/81/79 90/102/100 89/100/98 74/93/91
f 83/83/81 98/103/101 97/101/99 82/94/92
f 76/80/78 91/104/102 90/102/100 75/81/79
f 84/82/80 99/105/103 98/103/101 83/83/81
f 77/84/82 92/106/104 91/104/102 76/80/78
f 85/85/83 100/107/105 99/105/103 84/82/80
f 78/86/84 93/108/106 92/106/104 77/84/82
f 71/87/85 86/109/107 297/57/31
f 206/58/32 100/107/105 85/85/83
f 79/88/86 94/96/94 93/108/106 78/86/84
f 72/89/87 87/98/96 86/109/107 71/87/85
f 99/105/103 114/110/108 113/111/109 98/103/101
f 92/106/104 107/112/110 106/113/111 91/104/102
f 100/107/105 115/114/112 114/110/108 99/105/103
f 93/108/106 108/115/113 107/112/110 92/106/104
f 86/109/107 101/116/114 297/57/31
f 206/58/32 115/114/112 100/107/105
f 94/96/94 109/117/115 108/115/113 93/108/106
f 87/98/96 102/118/116 101/116/114 86/109/107
f 95/95/93 110/119/117 109/117/115 94/96/94
f 88/97/95 103/120/118 102/118/116 87/98/96
f 96/99/97 111/121/119 110/119/117 95/95/93
f 89/100/98 104/122/120 103/120/118 88/97/95
f 97/101/99 112/123/121 111/121/119 96/99/97
f 90/102/100 105/124/122 104/122/120 89/100/98
f 98/103/101 113/111/109 112/123/121 97/101/99
f 91/104/102 106/113/111 105/124/122 90/102/100
f 103/120/118 118/125/123 117/126/124 102/118/116
f 111/121/119 126/127/125 125/128/126 110/119/117
f 104/122/120 119/129/127 118/125/123 103/120/118
f 112/123/121 127/130/128 126/127/125 111/121/119
f 105/124/122 120/131/129 119/129/127 104/122/120
f 113/111/109 128/132/130 127/130/128 112/123/121
f 106/113/111 121/133/131 120/131/129 105/124/122
f 114/110/108 129/134/132 128/132/130 113/111/109
f 107/112/110 122/135/133 121/133/131 106/113/111
f 115/114/112 130/136/134 129/134/132 114/110/108
f 108/115/113 123/137/135 122/135/133 107/112/110
f 101/116/114 116/138/136 297/57/31
f 206/58/32 130/136/134 115/114/112
f 109/117/115 124/139/137 123/137/135 108/115/113
f 102/118/116 117/126/124 116/138/136 101/116/114
f 110/119/117 125/128/126 124/139/137 109/117/115
f 122/135/133 137/140/138 136/141/139 121/133/131
f 130/136/134 145/142/140 144/143/141 129/134/132
f 123/137/135 138/144/142 137/140/138 122/135/133
f 116/138/136 131/145/143 297/57/31
f 206/58/32 145/142/140 130/136/134
f 124/139/137 139/146/144 138/144/142 123/137/135
f 117/126/124 132/147/145 131/145/143 116/138/136
f 125/128/126 140/148/146 139/146/144 124/139/137
f 118/125/123 133/149/147 132/147/145 117/126/124
f 126/127/125 141/150/148 140/148/146 125/128/126
f 119/129/127 134/151/149 133/149/147 118/125/123
f 127/130/128 142/152/150 141/150/148 126/127/125
f 120/131/129 135/153/151 134/151/149 119/129/127
f 128/132/130 143/154/152 142/152/150 127/130/128
f 121/133/131 136/141/139 135/153/151 120/131/129
f 129/134/132 144/143/141 143/154/152 128/132/130
f 141/150/148 156/155/153 155/156/154 140/148/146
f 134/151/149 149/157/155 148/158/156 133/149/147
f 142/152/150 157/159/157 156/155/153 141/150/148
f 135/153/151 150/160/158 149/157/155 134/151/149
f 143/154/152 158/161/159 157/159/157 142/152/150
f 136/141/139 151/162/160 150/160/158 135/153/151
f 144/143/141 159/163/161 158/161/159 143/154/152
f 137/140/138 152/164/162 151/162/160 136/141/139
f 145/142/140 160/165/163 159/163/161 144/143/141
f 138/144/142 153/166/164 152/164/162 137/140/138
f 131/145/143 146/167/165 297/57/31
f 206/58/32 160/165/163 145/142/140
f 139/146/144 154/168/166 153/166/164 138/144/142
f 132/147/145 147/169/167 146/167/165 131/145/143
f 140/148/146 155/156/154 154/168/166 139/146/144
f 133/149/147 148/158/156 147/169/167 132/147/145
f 160/165/163 175/170/168 174/171/169 159/163/161
f 153/166/164 168/172/170 167/173/171 152/164/162
f 146/167/165 161/174/172 297/57/31
f 206/58/32 175/170/168 160/165/163
f 154/168/166 169/175/173 168/172/170 153/166/164
f 147/169/167 162/176/174 161/174/172 146/167/165
f 155/156/154 170/177/175 169/175/173 154/168/166
f 148/158/156 163/178/176 162/176/174 147/169/167
f 156/155/153 171/179/177 170/177/175 155/156/154
f 149/157/155 164/180/178 163/178/176 148/158/156
f 157/159/157 172/181/179 171/179/177 156/155/153
f 150/160/158 165/182/180 164/180/178 149/157/155
f 158/161/159 173/183/181 172/181/179 157/159/157
f 151/162/160 166/184/182 165/182/180 150/160/158
f 159/163/161 174/171/169 173/183/181 158/161/159
f 152/164/162 167/173/171 166/184/182 151/162/160
f 172/181/179 187/185/183 186/186/184 171/179/177
f 165/182/180 180/187/185 179/188/186 164/180/178
f 173/183/181 188/189/187 187/185/183 172/181/179
f 166/184/182 181/190/188 180/187/185 165/182/180
f 174/171/169 189/191/189 188/189/187 173/183/181
f 167/173/171 182/192/190 181/190/188 166/184/182
f 175/170/168 190/193/191 189/191/189 174/171/169
f 168/172/170 183/194/192 182/192/190 167/173/171
f 161/174/172 176/195/193 297/57/31
f 206/58/32 190/193/191 175/170/168
f 169/175/173 184/196/194 183/194/192 168/172/170
f 162/176/174 177/197/195 176/195/193 161/174/172
f 170/177/175 185/198/196 184/196/194 169/175/173
f 163/178/176 178/199/197 177/197/195 162/176/174
f 171/179/177 186/186/184 185/198/196 170/177/175
f 164/180/178 179/188/186 178/199/197 163/178/176
f 176/195/193 191/200/198 297/57/31
f 206/58/32 205/201/199 190/193/191
f 184/196/194 199/202/200 198/203/201 183/194/192
f 177/197/195 192/204/202 191/200/198 176/195/193
f 185/198/196 200/205/203 199/202/200 184/196/194
f 178/199/197 193/206/204 192/204/202 177/197/195
f 186/186/184 201/207/205 200/205/203 185/198/196
f 179/188/186 194/208/206 193/206/204 178/199/197
f 187/185/183 202/209/207 201/207/205 186/186/184
f 180/187/185 195/210/208 194/208/206 179/188/186
f 188/189/187 203/211/209 202/209/207 187/185/183
f 181/190/188 196/212/210 195/210/208 180/187/185
f 189/191/189 204/213/211 203/211/209 188/189/187
f 182/192/190 197/214/212 196/212/210 181/190/188
f 190/193/191 205/201/199 204/213/211 189/191/189
f 183/194/192 198/203/201 197/214/212 182/192/190
f 195/210/208 211/215/213 210/216/214 194/208/206
f 203/211/209 219/217/215 218/218/216 202/209/207
f 196/212/210 212/219/217 211/215/213 195/210/208
f 204/213/211 220/220/218 219/217/215 203/211/209
f 197/214/212 213/221/219 212/219/217 196/212/210
f 205/201/199 221/222/220 220/220/218 204/213/211
f 198/203/201 214/223/221 213/221/219 197/214/212
f 191/200/198 207/224/222 297/57/31
f 206/58/32 221/222/220 205/201/199
f 199/202/200 215/225/223 214/223/221 198/203/201
f 192/204/202 208/226/224 207/224/222 191/200/198
f 200/205/203 216/227/225 215/225/223 199/202/200
f 193/206/204 209/228/226 208/226/224 192/204/202
f 201/207/205 217/229/227 216/227/225 200/205/203
f 194/208/206 210/216/214 209/228/226 193/206/204
f 202/209/207 218/218/216 217/229/227 201/207/205
f 215/225/223 230/230/228 229/231/229 214/223/221
f 208/226/224 223/232/230 222/233/231 207/224/222
f 216/227/225 231/234/232 230/230/228 215/225/223
f 209/228/226 224/235/233 223/232/230 208/226/224
f 217/229/227 232/236/234 231/234/232 216/227/225
f 210/216/214 225/237/235 224/235/233 209/228/226
f 218/218/216 233/238/236 232/236/234 217/229/227
f 211/215/213 226/239/237 225/237/235 210/216/214
f 219/217/215 234/240/238 233/238/236 218/218/216
f 212/219/217 227/241/239 226/239/237 211/215/213
f 220/220/218 235/242/240 234/240/238 219/217/215
f 213/221/219 228/243/241 227/241/239 212/219/217
f 221/222/220 236/244/242 235/242/240 220/220/218
f 214/223/221 229/231/229 228/243/241 213/221/219
f 207/224/222 222/233/231 297/57/31
f 206/58/32 236/244/242 221/222/220
f 234/240/238 249/245/243 248/246/244 233/238/236
f 227/241/239 242/247/245 241/248/246 226/239/237
f 235/242/240 250/249/247 249/245/243 234/240/238
f 228/243/241 243/250/248 242/247/245 227/241/239
f 236/244/242 251/251/249 250/249/247 235/242/240
f 229/231/229 244/252/250 243/250/248 228/243/241
f 222/233/231 237/253/251 297/57/31
f 206/58/32 251/251/249 236/244/242
f 230/230/228 245/254/252 244/252/250 229/231/229
f 223/232/230 238/255/253 237/253/251 222/233/231
f 231/234/232 246/256/254 245/254/252 230/230/228
f 224/235/233 239/257/255 238/255/253 223/232/230
f 232/236/234 247/258/256 246/256/254 231/234/232
f 225/237/235 240/259/257 239/257/255 224/235/233
f 233/238/236 248/246/244 247/258/256 232/236/234
f 226/239/237 241/248/246 240/259/257 225/237/235
f 238/255/253 253/260/258 252/261/259 237/253/251
f 246/256/254 261/262/260 260/263/261 245/254/252
f 239/257/255 254/264/262 253/260/258 238/255/253
f 247/258/256 262/265/263 261/262/260 246/256/254
f 240/259/257 255/266/264 254/264/262 239/257/255
f 248/246/244 263/267/265 262/265/263 247/258/256
f 241/248/246 256/268/266 255/266/264 240/259/257
f 249/245/243 264/269/267 263/267/265 248/246/244
f 242/247/245 257/270/268 256/268/266 241/248/246
f 250/249/247 265/271/269 264/269/267 249/245/243
f 243/250/248 258/272/270 257/270/268 242/247/245
f 251/251/249 266/273/271 265/271/269 250/249/247
f 244/252/250 259/274/272 258/272/270 243/250/248
f 237/253/251 252/261/259 297/57/31
f 206/58/32 266/273/271 251/251/249
f 245/254/252 260/263/261 259/274/272 244/252/250
f 257/270/268 272/275/273 271/276/274 256/268/266
f 265/271/269 280/277/275 279/278/276 264/269/267
f 258/272/270 273/279/277 272/275/273 257/270/268
f 266/273/271 281/280/278 280/277/275 265/271/269
f 259/274/272 274/281/279 273/279/277 258/272/270
f 252/261/259 267/282/280 297/57/31
f 206/58/32 281/280/278 266/273/271
f 260/263/261 275/283/281 274/281/279 259/274/272
f 253/260/258 268/284/282 267/282/280 252/261/259
f 261/262/260 276/285/283 275/283/281 260/263/261
f 254/264/262 269/286/284 268/284/282 253/260/258
f 262/265/263 277/287/285 276/285/283 261/262/260
f 255/266/264 270/288/286 269/286/284 254/264/262
f 263/267/265 278/289/287 277/287/285 262/265/263
f 256/268/266 271/276/274 270/288/286 255/266/264
f 264/269/267 279/278/276 278/289/287 263/267/265
f 276/285/283 291/290/288 290/291/289 275/283/281
f 269/286/284 284/292/290 283/293/291 268/284/282
f 277/287/285 292/294/292 291/290/288 276/285/283
f 270/288/286 285/295/293 284/292/290 269/286/284
f 278/289/287 293/296/294 292/294/292 277/287/285
f 271/276/274 286/297/295 285/295/293 270/288/286
f 279/278/276 294/298/296 293/296/294 278/289/287
f 272/275/273 287/299/297 286/297/295 271/276/274
f 280/277/275 295/300/298 294/298/296 279/278/276
f 273/279/277 288/301/299 287/299/297 272/275/273
f 281/280/278 296/302/300 295/300/298 280/277/275
f 274/281/279 289/303/301 288/301/299 273/279/277
f 267/282/280 282/304/302 297/57/31
f 206/58/32 296/302/300 281/280/278
f 275/283/281 290/291/289 289/303/301 274/281/279
f 268/284/282 283/293/291 282/304/302 267/282/280
f 295/300/298 311/305/303 310/306/304 294/298/296
f 288/301/299 304/307/305 303/308/306 287/299/297
f 296/302/300 312/309/307 311/305/303 295/300/298
f 289/303/301 305/310/308 304/307/305 288/301/299
f 282/304/302 298/311/309 297/57/31
f 206/58/32 312/309/307 296/302/300
f 290/291/289 306/312/310 305/310/308 289/303/301
f 283/293/291 299/313/311 298/311/309 282/304/302
f 291/290/288 307/314/312 306/312/310 290/291/289
f 284/292/290 300/315/313 299/313/311 283/293/291
f 292/294/292 308/316/314 307/314/312 291/290/288
f 285/295/293 301/317/315 300/315/313 284/292/290
f 293/296/294 309/318/316 308/316/314 292/294/292
f 286/297/295 302/319/317 301/317/315 285/295/293
f 294/298/296 310/306/304 309/318/316 293/296/294
f 287/299/297 303/308/306 302/319/317 286/297/295
f 308/316/314 323/320/318 322/321/319 307/314/312
f 301/317/315 316/322/320 315/323/321 300/315/313
f 309/318/316 324/324/322 323/320/318 308/316/314
f 302/319/317 317/325/323 316/322/320 301/317/315
f 310/306/304 325/326/324 324/324/322 309/318/316
f 303/308/306 318/327/325 317/325/323 302/319/317
f 311/305/303 326/328/326 325/326/324 310/306/304
f 304/307/305 319/329/327 318/327/325 303/308/306
f 312/309/307 327/330/328 326/328/326 311/305/303
f 305/310/308 320/331/329 319/329/327 304/307/305
f 298/311/309 313/332/330 297/57/31
f 206/58/32 327/330/328 312/309/307
f 306/312/310 321/333/331 320/331/329 305/310/308
f 299/313/311 314/334/332 313/332/330 298/311/309
f 307/314/312 322/321/319 321/333/331 306/312/310
f 300/315/313 315/323/321 314/334/332 299/313/311
f 327/330/328 342/335/333 341/336/334 326/328/326
f 320/331/329 335/337/335 334/338/336 319/329/327
f 313/332/330 328/339/337 297/57/31
f 206/58/32 342/335/333 327/330/328
f 321/333/331 336/340/338 335/337/335 320/331/329
f 314/334/332 329/341/339 328/339/337 313/332/330
f 322/321/319 337/342/340 336/340/338 321/333/331
f 315/323/321 330/343/341 329/341/339 314/334/332
f 323/320/318 338/344/342 337/342/340 322/321/319
f 316/322/320 331/345/343 330/343/341 315/323/321
f 324/324/322 339/346/344 338/344/342 323/320/318
f 317/325/323 332/347/345 331/345/343 316/322/320
f 325/326/324 340/348/346 339/346/344 324/324/322
f 318/327/325 333/349/347 332/347/345 317/325/323
f 326/328/326 341/336/334 340/348/346 325/326/324
f 319/329/327 334/338/336 333/349/347 318/327/325
f 331/345/343 346/350/348 345/351/349 330/343/341
f 339/346/344 354/352/350 353/353/351 338/344/342
f 332/347/345 347/354/352 346/350/348 331/345/343
f 340/348/346 355/355/353 354/352/350 339/346/344
f 333/349/347 348/356/354 347/354/352 332/347/345
f 341/336/334 356/357/355 355/355/353 340/348/346
f 334/338/336 349/358/356 348/356/354 333/349/347
f 342/335/333 357/359/357 356/357/355 341/336/334
f 335/337/335 350/360/358 349/358/356 334/338/336
f 328/339/337 343/361/359 297/57/31
f 206/58/32 357/359/357 342/335/333
f 336/340/338 351/362/360 350/360/358 335/337/335
f 329/341/339 344/363/361 343/361/359 328/339/337
f 337/342/340 352/364/362 351/362/360 336/340/338
f 330/343/341 345/351/349 344/363/361 329/341/339
f 338/344/342 353/353/351 352/364/362 337/342/340
f 350/360/358 365/365/363 364/366/364 349/358/356
f 343/361/359 358/367/365 297/57/31
f 206/58/32 372/368/366 357/359/357
f 351/362/360 366/369/367 365/365/363 350/360/358
f 344/363/361 359/370/368 358/367/365 343/361/359
f 352/364/362 367/371/369 366/369/367 351/362/360
f 345/351/349 360/372/370 359/370/368 344/363/361
f 353/353/351 368/373/371 367/371/369 352/364/362
f 346/350/348 361/374/372 360/372/370 345/351/349
f 354/352/350 369/375/373 368/373/371 353/353/351
f 347/354/352 362/376/374 361/374/372 346/350/348
f 355/355/353 370/377/375 369/375/373 354/352/350
f 348/356/354 363/378/376 362/376/374 347/354/352
f 356/357/355 371/379/377 370/377/375 355/355/353
f 349/358/356 364/366/364 363/378/376 348/356/354
f 357/359/357 372/368/366 371/379/377 356/357/355
f 369/375/373 384/380/378 383/381/379 368/373/371
f 362/376/374 377/382/380 376/383/381 361/374/372
f 370/377/375 385/384/382 384/380/378 369/375/373
f 363/378/376 378/385/383 377/382/380 362/376/374
f 371/379/377 386/386/384 385/384/382 370/377/375
f 364/366/364 379/387/385 378/385/383 363/378/376
f 372/368/366 387/388/386 386/386/384 371/379/377
f 365/365/363 380/389/387 379/387/385 364/366/364
f 358/367/365 373/390/388 297/57/31
f 206/58/32 387/388/386 372/368/366
f 366/369/367 381/391/389 380/389/387 365/365/363
f 359/370/368 374/392/390 373/390/388 358/367/365
f 367/371/369 382/393/391 381/391/389 366/369/367
f 360/372/370 375/394/392 374/392/390 359/370/368
f 368/373/371 383/381/379 382/393/391 367/371/369
f 361/374/372 376/383/381 375/394/392 360/372/370
f 373/390/388 388/395/393 297/57/31
f 206/58/32 402/396/394 387/388/386
f 381/391/389 396/397/395 395/398/396 380/389/387
f 374/392/390 389/399/397 388/395/393 373/390/388
f 382/393/391 397/400/398 396/397/395 381/391/389
f 375/394/392 390/401/399 389/399/397 374/392/390
f 383/381/379 398/402/400 397/400/398 382/393/391
f 376/383/381 391/403/401 390/401/399 375/394/392
f 384/380/378 399/404/402 398/402/400 383/381/379
f 377/382/380 392/405/403 391/403/401 376/383/381
f 385/384/382 400/406/404 399/404/402 384/380/378
f 378/385/383 393/407/405 392/405/403 377/382/380
f 386/386/384 401/408/406 400/406/404 385/384/382
f 379/387/385 394/409/407 393/407/405 378/385/383
f 387/388/386 402/396/394 401/408/406 386/386/384
f 380/389/387 395/398/396 394/409/407 379/387/385
f 392/405/403 407/410/408 406/411/409 391/403/401
f 400/406/404 415/412/410 414/413/411 399/404/402
f 393/407/405 408/414/412 407/410/408 392/405/403
f 401/408/406 416/415/413 415/412/410 400/406/404
f 394/409/407 409/416/414 408/414/412 393/407/405
f 402/396/394 417/417/415 416/415/413 401/408/406
f 395/398/396 410/418/416 409/416/414 394/409/407
f 388/395/393 403/419/417 297/57/31
f 206/58/32 417/417/415 402/396/394
f 396/397/395 411/420/418 410/418/416 395/398/396
f 389/399/397 404/421/419 403/419/417 388/395/393
f 397/400/398 412/422/420 411/420/418 396/397/395
f 390/401/399 405/423/421 404/421/419 389/399/397
f 398/402/400 413/424/422 412/422/420 397/400/398
f 391/403/401 406/411/409 405/423/421 390/401/399
f 399/404/402 414/413/411 413/424/422 398/402/400
f 411/420/418 426/425/423 425/426/424 410/418/416
f 404/421/419 419/427/425 418/428/426 403/419/417
f 412/422/420 427/429/427 426/425/423 411/420/418
f 405/423/421 420/430/428 419/427/425 404/421/419
f 413/424/422 428/431/429 427/429/427 412/422/420
f 406/411/409 421/432/430 420/430/428 405/423/421
f 414/413/411 429/433/431 428/431/429 413/424/422
f 407/410/408 422/434/432 421/432/430 406/411/409
f 415/412/410 430/435/433 429/433/431 414/413/411
f 408/414/412 423/436/434 422/434/432 407/410/408
f 416/415/413 431/437/435 430/435/433 415/412/410
f 409/416/414 424/438/436 423/436/434 408/414/412
f 417/417/415 432/439/437 431/437/435 416/415/413
f 410/418/416 425/426/424 424/438/436 409/416/414
f 403/419/417 418/428/426 297/57/31
f 206/58/32 432/439/437 417/417/415
f 430/435/433 445/440/438 444/441/439 429/433/431
f 423/436/434 438/442/440 437/443/441 422/434/432
f 431/437/435 446/444/442 445/440/438 430/435/433
f 424/438/436 439/445/443 438/442/440 423/436/434
f 432/439/437 447/446/444 446/444/442 431/437/435
f 425/426/424 440/447/445 439/445/443 424/438/436
f 418/428/426 433/448/446 297/57/31
f 206/58/32 447/446/444 432/439/437
f 426/425/423 441/449/447 440/447/445 425/426/424
f 419/427/425 434/450/448 433/448/446 418/428/426
f 427/429/427 442/451/449 441/449/447 426/425/423
f 420/430/428 435/452/450 434/450/448 419/427/425
f 428/431/429 443/453/451 442/451/449 427/429/427
f 421/432/430 436/454/452 435/452/450 420/430/428
f 429/433/431 444/441/439 443/453/451 428/431/429
f 422/434/432 437/443/441 436/454/452 421/432/430
f 442/451/449 457/455/453 456/456/454 441/449/447
f 435/452/450 450/457/455 449/458/456 434/450/448
f 443/453/451 458/459/457 457/455/453 442/451/449
f 436/454/452 451/460/458 450/457/455 435/452/450
f 444/441/439 459/461/459 458/459/457 443/453/451
f 437/443/441 452/462/460 451/460/458 436/454/452
f 445/440/438 460/463/461 459/461/459 444/441/439
f 438/442/440 453/464/462 452/462/460 437/443/441
f 446/444/442 461/465/463 460/463/461 445/440/438
f 439/445/443 454/466/464 453/464/462 438/442/440
f 447/446/444 462/467/465 461/465/463 446/444/442
f 440/447/445 455/468/466 454/466/464 439/445/443
f 433/448/446 448/469/467 297/57/31
f 206/58/32 462/467/465 447/446/444
f 441/449/447 456/456/454 455/468/466 440/447/445
f 434/450/448 449/458/456 448/469/467 433/448/446
f 461/465/463 476/470/468 475/471/469 460/463/461
f 454/466/464 469/472/470 468/473/471 453/464/462
f 462/467/465 477/474/472 476/470/468 461/465/463
f 455/468/466 470/475/473 469/472/470 454/466/464
f 448/469/467 463/476/474 297/57/31
f 206/58/32 477/474/472 462/467/465
f 456/456/454 471/477/475 470/475/473 455/468/466
f 449/458/456 464/478/476 463/476/474 448/469/467
f 457/455/453 472/479/477 471/477/475 456/456/454
f 450/457/455 465/480/478 464/478/476 449/458/456
f 458/459/457 473/481/479 472/479/477 457/455/453
f 451/460/458 466/482/480 465/480/478 450/457/455
f 459/461/459 474/483/481 473/481/479 458/459/457
f 452/462/460 467/484/482 466/482/480 451/460/458
f 460/463/461 475/471/469 474/483/481 459/461/459
f 453/464/462 468/473/471 467/484/482 452/462/460
f 465/480/478 3/485/5 2/486/8 464/478/476
f 473/481/479 479/487/9 478/488/1 472/479/477
f 466/482/480 4/489/11 3/485/5 465/480/478
f 474/483/481 480/490/13 479/487/9 473/481/479
f 467/484/482 5/491/15 4/489/11 466/482/480
f 475/471/469 10/492/17 480/490/13 474/483/481
f 468/473/471 6/493/19 5/491/15 467/484/482
f 476/470/468 481/494/21 10/492/17 475/471/469
f 469/472/470 7/495/23 6/493/19 468/473/471
f 477/474/472 482/496/25 481/494/21 476/470/468
f 470/475/473 8/497/27 7/495/23 469/472/470
f 463/498/474 1/29/29 297/31/31
f 206/58/32 482/496/25 477/474/472
f 471/477/475 9/499/4 8/497/27 470/475/473
f 464/500/476 2/8/8 1/29/29 463/498/474
f 472/479/477 478/488/1 9/499/4 471/477/475
o Sphere.033_Sphere.037
v 3.482228 2.010465 -20.214756
v 4.389314 2.534172 -25.480488
v 8.609985 4.970977 -24.002102
v 6.830668 3.943688 -19.041889
vt 0.931813 0.933083
vt 0.936282 0.931727
vt 0.937146 0.936072
vt 0.932499 0.936530
vn 0.5000 -0.8660 0.0000
usemtl None
s off
f 483/501/483 484/502/483 485/503/483 486/504/483
o Sphere.032_Sphere.036
v 6.830668 3.943688 -19.041889
v 8.609985 4.970977 -24.002102
v 12.499781 7.216752 -21.601328
v 9.916608 5.725357 -17.137253
vt 0.932499 0.936530
vt 0.937146 0.936072
vt 0.937146 0.940502
vt 0.932499 0.940045
vn 0.5000 -0.8660 0.0000
usemtl None
s off
f 487/505/484 488/506/484 489/507/484 490/508/484
o Sphere.031_Sphere.035
v 9.916608 5.725357 -17.137253
v 12.499781 7.216752 -21.601328
v 15.909214 9.185189 -18.370424
v 12.621458 7.287003 -14.574040
vt 0.932499 0.940045
vt 0.937146 0.940502
vt 0.936282 0.944847
vt 0.931813 0.943492
vn 0.5000 -0.8660 -0.0000
usemtl None
s off
f 491/509/485 492/510/485 493/511/485 494/512/485
o Sphere.030_Sphere.034
v 12.621458 7.287003 -14.574040
v 15.909214 9.185189 -18.370424
v 18.707266 10.800645 -14.433559
v 14.841270 8.568611 -11.450758
vt 0.931813 0.943492
vt 0.936282 0.944847
vt 0.934587 0.948940
vt 0.930468 0.946739
vn 0.5000 -0.8660 0.0000
usemtl None
s off
f 495/513/486 496/514/486 497/515/486 498/516/486
o Sphere.029_Sphere.033
v 14.841270 8.568611 -11.450758
v 18.707266 10.800645 -14.433559
v 20.786407 12.001038 -9.942017
v 16.490742 9.520935 -7.887425
vt 0.930468 0.946739
vt 0.934587 0.948940
vt 0.932126 0.952624
vt 0.928515 0.949661
vn 0.5000 -0.8660 0.0000
usemtl None
s off
f 499/517/487 500/518/487 501/519/487 502/520/487
o Sphere.028_Sphere.032
v 16.490742 9.520935 -7.887425
v 20.786407 12.001038 -9.942017
v 22.066738 12.740237 -5.068409
v 17.506485 10.107373 -4.020985
vt 0.928515 0.949661
vt 0.932126 0.952624
vt 0.928993 0.955756
vt 0.926030 0.952146
vn 0.5000 -0.8660 -0.0000
usemtl None
s off
f 503/521/488 504/522/488 505/523/488 506/524/488
o Sphere.027_Sphere.031
v 17.506485 10.107373 -4.020985
v 22.066738 12.740237 -5.068409
v 22.499056 12.989836 -0.000025
v 17.849461 10.305390 -0.000021
vt 0.926030 0.952146
vt 0.928993 0.955756
vt 0.925309 0.958218
vt 0.923108 0.954099
vn 0.5000 -0.8660 0.0000
usemtl None
s off
f 507/525/489 508/526/489 509/527/489 510/528/489
o Sphere.026_Sphere.030
v 17.849461 10.305390 -0.000021
v 22.499056 12.989836 -0.000025
v 22.066746 12.740242 5.068360
v 17.506489 10.107377 4.020947
vt 0.923108 0.954099
vt 0.925309 0.958218
vt 0.921217 0.959913
vt 0.919861 0.955444
vn 0.5000 -0.8660 0.0000
usemtl None
s off
f 511/529/490 512/530/490 513/531/490 514/532/490
o Sphere.025_Sphere.029
v 17.506489 10.107377 4.020947
v 22.066746 12.740242 5.068360
v 20.786425 12.001048 9.941971
v 16.490755 9.520943 7.887390
vt 0.919861 0.955444
vt 0.921217 0.959913
vt 0.916871 0.960777
vt 0.916414 0.956129
vn 0.5000 -0.8660 0.0000
usemtl None
s off
f 515/533/491 516/534/491 517/535/491 518/536/491
o Sphere.024_Sphere.028
v 16.490755 9.520943 7.887390
v 20.786425 12.001048 9.941971
v 18.707289 10.800659 14.433517
v 14.841290 8.568623 11.450725
vt 0.916414 0.956129
vt 0.916871 0.960777
vt 0.912441 0.960777
vt 0.912899 0.956129
vn 0.5000 -0.8660 0.0000
usemtl None
s off
f 519/537/492 520/538/492 521/539/492 522/540/492
o Sphere.023_Sphere.027
v 14.841290 8.568623 11.450725
v 18.707289 10.800659 14.433517
v 15.909246 9.185207 18.370392
v 12.621482 7.287016 14.574015
vt 0.912899 0.956129
vt 0.912441 0.960777
vt 0.908096 0.959913
vt 0.909452 0.955444
vn 0.5000 -0.8660 -0.0000
usemtl None
s off
f 523/541/493 524/542/493 525/543/493 526/544/493
o Sphere.022_Sphere.026
v 12.621482 7.287016 14.574015
v 15.909246 9.185207 18.370392
v 12.499817 7.216772 21.601299
v 9.916638 5.725374 17.137232
vt 0.909452 0.955444
vt 0.908096 0.959913
vt 0.904004 0.958218
vt 0.906205 0.954099
vn 0.5000 -0.8660 -0.0000
usemtl None
s off
f 527/545/494 528/546/494 529/547/494 530/548/494
o Sphere.021_Sphere.025
v 9.916638 5.725374 17.137232
v 12.499817 7.216772 21.601299
v 8.610026 4.971001 24.002083
v 6.830701 3.943707 19.041874
vt 0.906205 0.954099
vt 0.904004 0.958218
vt 0.900320 0.955756
vt 0.903283 0.952146
vn 0.5000 -0.8660 -0.0000
usemtl None
s off
f 531/549/495 532/550/495 533/551/495 534/552/495
o Sphere.020_Sphere.024
v 6.830701 3.943707 19.041874
v 8.610026 4.971001 24.002083
v 4.389358 2.534197 25.480476
v 3.482264 2.010486 20.214746
vt 0.903283 0.952146
vt 0.900320 0.955756
vt 0.897187 0.952624
vt 0.900798 0.949661
vn 0.5000 -0.8660 -0.0000
usemtl None
s off
f 535/553/496 536/554/496 537/555/496 538/556/496
o Sphere.019_Sphere.023
v 3.482264 2.010486 20.214746
v 4.389358 2.534197 25.480476
v 0.000007 0.000004 25.979671
v 0.000006 0.000003 20.610781
vt 0.900798 0.949661
vt 0.897187 0.952624
vt 0.894726 0.948940
vt 0.898845 0.946739
vn 0.5000 -0.8660 0.0000
usemtl None
s off
f 539/557/497 540/558/497 541/559/497 542/560/497
o Sphere.018_Sphere.022
v 0.000006 0.000003 20.610781
v 0.000007 0.000004 25.979671
v -4.389343 -2.534188 25.480482
v -3.482253 -2.010480 20.214752
vt 0.898845 0.946739
vt 0.894726 0.948940
vt 0.893031 0.944847
vt 0.897500 0.943492
vn 0.5000 -0.8660 0.0000
usemtl None
s off
f 543/561/498 544/562/498 545/563/498 546/564/498
o Sphere.017_Sphere.021
v -3.482253 -2.010480 20.214752
v -4.389343 -2.534188 25.480482
v -8.610012 -4.970993 24.002090
v -6.830690 -3.943701 19.041882
vt 0.897500 0.943492
vt 0.893031 0.944847
vt 0.892167 0.940502
vt 0.896814 0.940045
vn 0.5000 -0.8660 0.0000
usemtl None
s off
f 547/565/499 548/566/499 549/567/499 550/568/499
o Sphere.016_Sphere.020
v -6.830690 -3.943701 19.041882
v -8.610012 -4.970993 24.002090
v -12.499804 -7.216766 21.601311
v -9.916627 -5.725368 17.137239
vt 0.896814 0.940045
vt 0.892167 0.940502
vt 0.892167 0.936072
vt 0.896814 0.936530
vn 0.5000 -0.8660 0.0000
usemtl None
s off
f 551/569/500 552/570/500 553/571/500 554/572/500
o Sphere.015_Sphere.019
v -9.916627 -5.725368 17.137239
v -12.499804 -7.216766 21.601311
v -15.909235 -9.185202 18.370403
v -12.621474 -7.287012 14.574023
vt 0.896814 0.936530
vt 0.892167 0.936072
vt 0.893031 0.931727
vt 0.897500 0.933083
vn 0.5000 -0.8660 -0.0000
usemtl None
s off
f 555/573/501 556/574/501 557/575/501 558/576/501
o Sphere.014_Sphere.018
v -12.621474 -7.287012 14.574023
v -15.909235 -9.185202 18.370403
v -18.707283 -10.800655 14.433532
v -14.841285 -8.568620 11.450736
vt 0.897500 0.933083
vt 0.893031 0.931727
vt 0.894726 0.927634
vt 0.898845 0.929836
vn 0.5000 -0.8660 -0.0000
usemtl None
s off
f 559/577/502 560/578/502 561/579/502 562/580/502
o Sphere.013_Sphere.017
v -14.841285 -8.568620 11.450736
v -18.707283 -10.800655 14.433532
v -20.786417 -12.001044 9.941986
v -16.490749 -9.520939 7.887401
vt 0.898845 0.929836
vt 0.894726 0.927634
vt 0.897187 0.923951
vt 0.900798 0.926914
vn 0.5000 -0.8660 0.0000
usemtl None
s off
f 563/581/503 564/582/503 565/583/503 566/584/503
o Sphere.012_Sphere.016
v -16.490749 -9.520939 7.887401
v -20.786417 -12.001044 9.941986
v -22.066744 -12.740241 5.068379
v -17.506487 -10.107376 4.020961
vt 0.900798 0.926914
vt 0.897187 0.923951
vt 0.900320 0.920818
vt 0.903283 0.924428
vn 0.5000 -0.8660 0.0000
usemtl None
s off
f 567/585/504 568/586/504 569/587/504 570/588/504
o Sphere.011_Sphere.015
v -17.506487 -10.107376 4.020961
v -22.066744 -12.740241 5.068379
v -22.499056 -12.989836 -0.000002
v -17.849461 -10.305390 -0.000001
vt 0.903283 0.924428
vt 0.900320 0.920818
vt 0.904004 0.918357
vt 0.906205 0.922476
vn 0.5000 -0.8660 -0.0000
usemtl None
s off
f 571/589/505 572/590/505 573/591/505 574/592/505
o Sphere.010_Sphere.014
v -17.849461 -10.305390 -0.000001
v -22.499056 -12.989836 -0.000002
v -22.066742 -12.740239 -5.068383
v -17.506487 -10.107374 -4.020963
vt 0.906205 0.922476
vt 0.904004 0.918357
vt 0.908096 0.916662
vt 0.909452 0.921131
vn 0.5000 -0.8660 0.0000
usemtl None
s off
f 575/593/506 576/594/506 577/595/506 578/596/506
o Sphere.009_Sphere.013
v -17.506487 -10.107374 -4.020963
v -22.066742 -12.740239 -5.068383
v -20.786415 -12.001043 -9.941990
v -16.490749 -9.520939 -7.887405
vt 0.909452 0.921131
vt 0.908096 0.916662
vt 0.912441 0.915797
vt 0.912899 0.920445
vn 0.5000 -0.8660 0.0000
usemtl None
s off
f 579/597/507 580/598/507 581/599/507 582/600/507
o Sphere.008_Sphere.012
v -16.490749 -9.520939 -7.887405
v -20.786415 -12.001043 -9.941990
v -18.707283 -10.800655 -14.433532
v -14.841285 -8.568620 -11.450736
vt 0.912899 0.920445
vt 0.912441 0.915797
vt 0.916871 0.915797
vt 0.916414 0.920445
vn 0.5000 -0.8660 0.0000
usemtl None
s off
f 583/601/508 584/602/508 585/603/508 586/604/508
o Sphere.007_Sphere.011
v -14.841285 -8.568620 -11.450736
v -18.707283 -10.800655 -14.433532
v -15.909235 -9.185202 -18.370403
v -12.621475 -7.287012 -14.574023
vt 0.916414 0.920445
vt 0.916871 0.915797
vt 0.921217 0.916662
vt 0.919861 0.921131
vn 0.5000 -0.8660 0.0000
usemtl None
s off
f 587/605/509 588/606/509 589/607/509 590/608/509
o Sphere.006_Sphere.010
v -12.621475 -7.287012 -14.574023
v -15.909235 -9.185202 -18.370403
v -12.499805 -7.216766 -21.601307
v -9.916628 -5.725368 -17.137238
vt 0.919861 0.921131
vt 0.921217 0.916662
vt 0.925309 0.918357
vt 0.923108 0.922476
vn 0.5000 -0.8660 0.0000
usemtl None
s off
f 591/609/510 592/610/510 593/611/510 594/612/510
o Sphere.005_Sphere.009
v -9.916628 -5.725368 -17.137238
v -12.499805 -7.216766 -21.601307
v -8.610016 -4.970995 -24.002087
v -6.830693 -3.943703 -19.041878
vt 0.923108 0.922476
vt 0.925309 0.918357
vt 0.928993 0.920818
vt 0.926030 0.924428
vn 0.5000 -0.8660 -0.0000
usemtl None
s off
f 595/613/511 596/614/511 597/615/511 598/616/511
o Sphere.004_Sphere.008
v -6.830693 -3.943703 -19.041878
v -8.610016 -4.970995 -24.002087
v -4.389349 -2.534191 -25.480478
v -3.482256 -2.010482 -20.214748
vt 0.926030 0.924428
vt 0.928993 0.920818
vt 0.932126 0.923951
vt 0.928515 0.926914
vn 0.5000 -0.8660 -0.0000
usemtl None
s off
f 599/617/512 600/618/512 601/619/512 602/620/512
o Sphere.003_Sphere.007
v -3.482256 -2.010482 -20.214748
v -4.389349 -2.534191 -25.480478
v 0.000000 0.000000 -25.979671
v 0.000002 0.000001 -20.610781
vt 0.928515 0.926914
vt 0.932126 0.923951
vt 0.934587 0.927634
vt 0.930468 0.929836
vn 0.5000 -0.8660 -0.0000
usemtl None
s off
f 603/621/513 604/622/513 605/623/513 606/624/513
o Sphere.002_Sphere.004
v 0.000002 0.000001 -20.610781
v 0.000000 0.000000 -25.979671
v 4.389314 2.534172 -25.480488
v 3.482228 2.010465 -20.214756
vt 0.930468 0.929836
vt 0.934587 0.927634
vt 0.936282 0.931727
vt 0.931813 0.933083
vn 0.5000 -0.8660 -0.0000
usemtl None
s off
f 607/625/514 608/626/514 609/627/514 610/628/514
