# Blender v2.79 (sub 0) OBJ File: 'SquareConcrete.blend'
# www.blender.org
mtllib SquareConcrete_col.mtl
o Circle.002
v 0.000000 -0.000001 -1.000000
v 13.000003 0.000001 -1.000000
v 0.000000 28.999998 -1.000000
v 13.000003 29.000000 -1.000000
v 13.000003 29.000000 -0.000000
v -0.000000 28.999998 -0.000000
v 13.000003 0.000001 0.000000
v -0.000000 -0.000001 -0.000000
vt 0.396552 1.499999
vt 0.396551 -0.500000
vt 1.293103 -0.500000
vt 1.293103 1.499999
vt 1.500000 0.396552
vt 1.431035 0.396552
vt 1.431034 -0.500000
vt 1.500000 -0.500000
vt 0.396551 -0.500000
vt 0.396551 1.499999
vt -0.500000 1.499999
vt -0.500000 -0.499999
vt 1.362069 1.499999
vt 1.362068 -0.500000
vt 1.500000 1.293103
vt 1.431034 1.293103
vt 1.431034 0.396552
vt 1.500000 0.396552
vt 1.431034 1.499999
vt 1.362069 1.499999
vt 1.362069 -0.500000
vn -0.0000 0.0000 1.0000
vn -0.0000 1.0000 0.0000
vn 0.0000 -0.0000 -1.0000
vn -1.0000 0.0000 -0.0000
vn 0.0000 -1.0000 0.0000
vn 1.0000 0.0000 0.0000
usemtl None
s off
f 7/1/1 5/2/1 6/3/1 8/4/1
f 3/5/2 6/6/2 5/7/2 4/8/2
f 1/9/3 3/10/3 4/11/3 2/12/3
f 1/13/4 8/4/4 6/3/4 3/14/4
f 2/15/5 7/16/5 8/17/5 1/18/5
f 7/19/6 2/20/6 4/21/6 5/7/6
