# Blender v2.79 (sub 0) OBJ File: 'SquareTunel_col.blend'
# www.blender.org
mtllib SquareTunel_col.mtl
o Circle.018
v 13.500000 25.409637 -12.999999
v 16.133699 25.151979 -12.999999
v 13.500000 25.409636 0.000002
v 16.133699 25.151978 0.000002
v 28.000000 29.000006 -13.000003
v 28.000000 29.000004 -0.000002
v 13.500000 28.999998 -0.000002
v 13.500000 29.000000 -13.000003
vt -1.542259 1.026924
vt -1.542260 0.131502
vt -0.739468 0.131502
vt -0.739468 1.026924
vt 1.668908 1.907209
vt 1.668908 2.069849
vt 0.866117 2.069849
vt 0.866117 1.907210
vn -0.0000 1.0000 0.0000
vn -0.0974 -0.9952 0.0000
usemtl None
s off
f 7/1/1 6/2/1 5/3/1 8/4/1
s 1
f 4/5/2 3/6/2 1/7/2 2/8/2
o Circle.017
v 13.500000 25.409637 -12.999999
v 10.866281 25.151978 -12.999999
v 13.500000 25.409636 0.000002
v 10.866281 25.151976 0.000002
v -1.000000 28.999992 -0.000002
v -1.000000 28.999994 -13.000003
v 13.500000 28.999998 -0.000002
v 13.500000 29.000000 -13.000003
vt -1.542259 1.922346
vt -1.542259 1.026924
vt -0.739468 1.026924
vt -0.739468 1.922346
vt 1.668908 2.069849
vt 1.668908 2.232489
vt 0.866117 2.232489
vt 0.866117 2.069849
vn -0.0000 1.0000 0.0000
vn 0.0974 -0.9952 -0.0000
usemtl None
s off
f 13/9/3 15/10/3 16/11/3 14/12/3
s 1
f 11/13/4 12/14/4 10/15/4 9/16/4
o Circle.016
v 8.333773 24.388891 -12.999999
v 10.866281 25.151978 -12.999999
v 10.866281 25.151976 0.000002
v 8.333773 24.388889 0.000002
v -1.000000 28.999992 -0.000002
v -1.000000 28.999994 -13.000003
v -1.000000 24.370827 -0.000002
v -1.000000 24.370829 -13.000004
vt 0.866117 1.673993
vt 0.866117 1.894349
vt 0.063325 1.894349
vt 0.063325 1.673993
vt 1.668908 2.232489
vt 1.668908 2.388880
vt 0.866117 2.388880
vt 0.866117 2.232489
vn -1.0000 0.0000 0.0000
vn 0.2885 -0.9575 -0.0000
usemtl None
s off
f 23/17/5 21/18/5 22/19/5 24/20/5
s 1
f 19/21/6 20/22/6 17/23/6 18/24/6
o Circle.015
v 16.133699 25.151979 -12.999999
v 18.666208 24.388897 -12.999999
v 18.666208 24.388895 0.000002
v 16.133699 25.151978 0.000002
v 28.000000 29.000006 -13.000003
v 28.000000 29.000004 -0.000002
v 28.000000 24.370840 -13.000003
v 28.000000 24.370838 -0.000002
vt 0.063325 1.673993
vt 0.063325 1.894349
vt -0.739468 1.894349
vt -0.739468 1.673993
vt 1.668908 1.750818
vt 1.668908 1.907209
vt 0.866117 1.907210
vt 0.866117 1.750818
vn 1.0000 -0.0000 0.0000
vn -0.2885 -0.9575 -0.0000
usemtl None
s off
f 31/25/7 29/26/7 30/27/7 32/28/7
s 1
f 27/29/8 28/30/8 25/31/8 26/32/8
o Circle.014
v 18.666208 24.388897 -12.999999
v 21.000183 23.149715 -12.999999
v 18.666208 24.388895 0.000002
v 21.000183 23.149714 0.000002
v 28.000000 24.370840 -13.000003
v 28.000000 23.135103 -13.000003
v 28.000000 23.135101 -0.000002
v 28.000000 24.370838 -0.000002
vt 0.063324 1.453637
vt 0.063325 1.673993
vt -0.739468 1.673993
vt -0.739468 1.453637
vt 1.668908 1.606688
vt 1.668908 1.750818
vt 0.866117 1.750818
vt 0.866117 1.606688
vn 1.0000 -0.0000 0.0000
vn -0.4689 -0.8832 -0.0000
usemtl None
s off
f 38/33/9 37/34/9 40/35/9 39/36/9
s 1
f 36/37/10 35/38/10 33/39/10 34/40/10
o Circle.013
v 21.000183 23.149715 -12.999999
v 23.045929 21.482056 -12.999999
v 21.000183 23.149714 0.000002
v 23.045929 21.482054 0.000002
v 28.000000 23.135103 -13.000003
v 28.000000 21.549404 -13.000002
v 28.000000 21.549402 -0.000002
v 28.000000 23.135101 -0.000002
vt 0.063324 1.233282
vt 0.063324 1.453637
vt -0.739468 1.453637
vt -0.739468 1.233282
vt 1.668908 1.480357
vt 1.668908 1.606688
vt 0.866117 1.606688
vt 0.866117 1.480357
vn 1.0000 -0.0000 0.0000
vn -0.6318 -0.7751 -0.0000
usemtl None
s off
f 46/41/11 45/42/11 48/43/11 47/44/11
s 1
f 44/45/12 43/46/12 41/47/12 42/48/12
o Circle.012
v 24.724827 19.450010 -13.000000
v 23.045929 21.482056 -12.999999
v 24.724827 19.450008 0.000001
v 23.045929 21.482054 0.000002
v 28.000000 21.549404 -13.000002
v 28.000000 19.489416 -13.000003
v 28.000000 19.489414 -0.000002
v 28.000000 21.549402 -0.000002
vt 0.063324 1.012926
vt 0.063324 1.233282
vt -0.739468 1.233282
vt -0.739468 1.012926
vt 2.471701 1.338572
vt 2.471701 1.480357
vt 1.668908 1.480357
vt 1.668909 1.338572
vn 1.0000 -0.0000 0.0000
vn -0.7709 -0.6369 -0.0000
usemtl None
s off
f 54/49/13 53/50/13 56/51/13 55/52/13
s 1
f 51/53/14 52/54/14 50/55/14 49/56/14
o Circle.011
v 25.972368 17.131659 -13.000000
v 24.724827 19.450010 -13.000000
v 24.724827 19.450008 0.000001
v 25.972368 17.131657 0.000001
v 28.000000 19.489416 -13.000003
v 28.000000 17.075424 -13.000002
v 28.000000 17.075422 -0.000002
v 28.000000 19.489414 -0.000002
vt 0.063324 0.792570
vt 0.063324 1.012926
vt -0.739468 1.012926
vt -0.739468 0.792570
vt 2.471701 1.184075
vt 2.471701 1.338572
vt 1.668909 1.338572
vt 1.668908 1.184075
vn 1.0000 -0.0000 0.0000
vn -0.8806 -0.4739 -0.0000
usemtl None
s off
f 62/57/15 61/58/15 64/59/15 63/60/15
s 1
f 60/61/16 59/62/16 58/63/16 57/64/16
o Circle.010
v 25.972368 17.131659 -13.000000
v 26.740599 14.616103 -13.000001
v 25.972368 17.131657 0.000001
v 26.740599 14.616101 0.000001
v 28.000000 17.075424 -13.000002
v 28.000000 14.593919 -13.000004
v 28.000000 14.593917 -0.000002
v 28.000000 17.075422 -0.000002
vt 0.063324 0.572214
vt 0.063324 0.792570
vt -0.739468 0.792570
vt -0.739468 0.572214
vt 2.471701 1.022804
vt 2.471701 1.184075
vt 1.668908 1.184075
vt 1.668908 1.022804
vn 1.0000 -0.0000 0.0000
vn -0.9564 -0.2921 -0.0000
usemtl None
s off
f 70/65/17 69/66/17 72/67/17 71/68/17
s 1
f 68/69/18 67/70/18 65/71/18 66/72/18
o Circle.009
v 26.740599 14.616103 -13.000001
v 26.999998 12.000011 -13.000001
v 26.999998 12.000010 0.000000
v 26.740599 14.616101 0.000001
v 28.000000 14.593919 -13.000004
v 28.000000 11.998317 -13.000003
v 28.000000 11.998316 -0.000002
v 28.000000 14.593917 -0.000002
vt 0.063324 0.351858
vt 0.063324 0.572214
vt -0.739468 0.572214
vt -0.739468 0.351858
vt 2.471701 0.860956
vt 2.471701 1.022804
vt 1.668908 1.022804
vt 1.668908 0.860956
vn 1.0000 -0.0000 0.0000
vn -0.9951 -0.0987 -0.0000
usemtl None
s off
f 78/73/19 77/74/19 80/75/19 79/76/19
s 1
f 75/77/20 76/78/20 73/79/20 74/80/20
o Circle.008
v 26.999998 0.000006 -13.000003
v 26.999998 0.000004 -0.000002
v 28.000000 0.000006 -13.000003
v 28.000000 0.000004 -0.000002
v 26.999998 12.000011 -13.000001
v 26.999998 12.000010 0.000000
v 28.000000 11.998317 -13.000003
v 28.000000 11.998316 -0.000002
vt 0.063324 0.131503
vt 0.063324 0.351858
vt -0.739468 0.351858
vt -0.739468 0.131502
vt 2.471701 0.131502
vt 2.471701 0.860956
vt 1.668908 0.860956
vt 1.668908 0.131502
vn 1.0000 -0.0000 0.0000
vn -1.0000 -0.0000 0.0000
usemtl None
s off
f 83/81/21 87/82/21 88/83/21 84/84/21
s 1
f 82/85/22 86/86/22 85/87/22 81/88/22
o Circle.007
v 8.333773 24.388891 -12.999999
v 5.999802 23.149706 -12.999999
v 8.333773 24.388889 0.000002
v 5.999802 23.149704 0.000002
v -1.000000 24.370827 -0.000002
v -1.000000 23.135090 -0.000002
v -1.000000 23.135092 -13.000004
v -1.000000 24.370829 -13.000004
vt 0.866117 1.453637
vt 0.866117 1.673993
vt 0.063325 1.673993
vt 0.063325 1.453637
vt 1.668908 2.388880
vt 1.668909 2.533010
vt 0.866117 2.533010
vt 0.866117 2.388880
vn -1.0000 0.0000 0.0000
vn 0.4689 -0.8832 -0.0000
usemtl None
s off
f 94/89/23 93/90/23 96/91/23 95/92/23
s 1
f 91/93/24 92/94/24 90/95/24 89/96/24
o Circle.006
v 5.999802 23.149706 -12.999999
v 3.954059 21.482046 -12.999999
v 5.999802 23.149704 0.000002
v 3.954059 21.482044 0.000002
v -1.000000 23.135090 -0.000002
v -1.000000 21.549391 -0.000002
v -1.000000 21.549393 -13.000002
v -1.000000 23.135092 -13.000004
vt 0.866117 1.233281
vt 0.866117 1.453637
vt 0.063325 1.453637
vt 0.063325 1.233282
vt 1.668909 2.533010
vt 1.668909 2.659341
vt 0.866117 2.659341
vt 0.866117 2.533010
vn -1.0000 -0.0000 0.0000
vn 0.6318 -0.7751 -0.0000
usemtl None
s off
f 102/97/25 101/98/25 104/99/25 103/100/25
s 1
f 99/101/26 100/102/26 98/103/26 97/104/26
o Circle.005
v 2.275161 19.449995 -13.000000
v 3.954059 21.482046 -12.999999
v 2.275161 19.449993 0.000001
v 3.954059 21.482044 0.000002
v -1.000000 21.549391 -0.000002
v -1.000000 19.489403 -0.000002
v -1.000000 19.489405 -13.000004
v -1.000000 21.549393 -13.000002
vt 0.866117 1.012926
vt 0.866117 1.233281
vt 0.063325 1.233282
vt 0.063325 1.012926
vt 1.668908 0.131502
vt 1.668908 0.273287
vt 0.866117 0.273288
vt 0.866117 0.131503
vn -1.0000 0.0000 0.0000
vn 0.7709 -0.6369 -0.0000
usemtl None
s off
f 110/105/27 109/106/27 112/107/27 111/108/27
s 1
f 108/109/28 107/110/28 105/111/28 106/112/28
o Circle.004
v 1.027626 17.131645 -13.000000
v 2.275161 19.449995 -13.000000
v 1.027626 17.131643 0.000001
v 2.275161 19.449993 0.000001
v -1.000000 19.489403 -0.000002
v -1.000000 17.075411 -0.000002
v -1.000000 17.075413 -13.000004
v -1.000000 19.489405 -13.000004
vt 0.866117 0.792570
vt 0.866117 1.012926
vt 0.063325 1.012926
vt 0.063325 0.792570
vt 1.668908 0.273287
vt 1.668908 0.427784
vt 0.866117 0.427784
vt 0.866117 0.273288
vn -1.0000 0.0000 0.0000
vn 0.8806 -0.4739 -0.0000
usemtl None
s off
f 118/113/29 117/114/29 120/115/29 119/116/29
s 1
f 116/117/30 115/118/30 113/119/30 114/120/30
o Circle.003
v 1.027626 17.131645 -13.000000
v 0.259398 14.616090 -13.000001
v 1.027626 17.131643 0.000001
v 0.259398 14.616088 0.000001
v -1.000000 17.075411 -0.000002
v -1.000000 14.593905 -0.000002
v -1.000000 14.593907 -13.000005
v -1.000000 17.075413 -13.000004
vt 0.866117 0.572214
vt 0.866117 0.792570
vt 0.063325 0.792570
vt 0.063325 0.572214
vt 1.668908 0.427784
vt 1.668908 0.589055
vt 0.866117 0.589055
vt 0.866117 0.427784
vn -1.0000 0.0000 0.0000
vn 0.9564 -0.2921 -0.0000
usemtl None
s off
f 126/121/31 125/122/31 128/123/31 127/124/31
s 1
f 123/125/32 124/126/32 122/127/32 121/128/32
o Circle.001
v 0.000000 12.000000 -13.000001
v 0.259398 14.616090 -13.000001
v 0.259398 14.616088 0.000001
v 0.000000 11.999998 0.000000
v -1.000000 14.593905 -0.000002
v -1.000000 11.998304 -0.000002
v -1.000000 11.998306 -13.000003
v -1.000000 14.593907 -13.000005
vt 0.866117 0.351858
vt 0.866117 0.572214
vt 0.063325 0.572214
vt 0.063325 0.351859
vt 1.668908 0.589055
vt 1.668908 0.750903
vt 0.866117 0.750903
vt 0.866117 0.589055
vn -1.0000 -0.0000 0.0000
vn 0.9951 -0.0987 -0.0000
usemtl None
s off
f 134/129/33 133/130/33 136/131/33 135/132/33
s 1
f 131/133/34 132/134/34 129/135/34 130/136/34
o Circle.000
v 0.000000 -0.000007 -0.000002
v 0.000000 -0.000005 -13.000003
v 0.000000 12.000000 -13.000001
v 0.000000 11.999998 0.000000
v -1.000000 -0.000007 -0.000002
v -1.000000 -0.000005 -13.000003
v -1.000000 11.998304 -0.000002
v -1.000000 11.998306 -13.000003
vt 0.866117 0.131502
vt 0.866117 0.351858
vt 0.063325 0.351859
vt 0.063325 0.131503
vt 1.668908 1.480357
vt 0.866117 1.480357
vt 0.866117 0.750903
vt 1.668908 0.750903
vn -1.0000 0.0000 0.0000
vn 1.0000 0.0000 0.0000
usemtl None
s off
f 141/137/35 143/138/35 144/139/35 142/140/35
s 1
f 137/141/36 138/142/36 139/143/36 140/144/36
