# Blender v2.79 (sub 0) OBJ File: ''
# www.blender.org
mtllib SquareLogShort_col.mtl
o Cube_Cube.001
v 0.000000 0.000000 0.000000
v 0.000000 2.000000 0.000000
v 0.000000 2.000000 -2.000000
v 0.000000 0.000000 -2.000000
v 10.000000 2.000000 -2.000000
v 10.000000 0.000000 -2.000000
v 10.000000 2.000000 0.000000
v 10.000000 0.000000 0.000000
vt 0.805190 0.153008
vt 0.788307 0.153008
vt 0.788307 0.136125
vt 0.805190 0.136125
vt 0.317642 0.721668
vt 0.256647 0.721668
vt 0.256647 0.255407
vt 0.317641 0.255407
vt 0.787242 0.115331
vt 0.802844 0.115331
vt 0.802844 0.130932
vt 0.787242 0.130932
vt 0.475999 0.253244
vt 0.536993 0.253244
vt 0.536993 0.719506
vt 0.475999 0.719506
vt 0.403752 0.739257
vt 0.403752 0.272996
vt 0.464746 0.272996
vt 0.464746 0.739257
vt 0.392499 0.267352
vt 0.392499 0.733615
vt 0.331505 0.733614
vt 0.331505 0.267352
vn -1.0000 0.0000 0.0000
vn 0.0000 0.0000 -1.0000
vn 1.0000 -0.0000 0.0000
vn 0.0000 -0.0000 1.0000
vn 0.0000 -1.0000 -0.0000
vn 0.0000 1.0000 0.0000
usemtl None
s 1
f 1/1/1 2/2/1 3/3/1 4/4/1
f 4/5/2 3/6/2 5/7/2 6/8/2
f 6/9/3 5/10/3 7/11/3 8/12/3
f 8/13/4 7/14/4 2/15/4 1/16/4
f 4/17/5 6/18/5 8/19/5 1/20/5
f 5/21/6 3/22/6 2/23/6 7/24/6
