# Blender v2.79 (sub 0) OBJ File: ''
# www.blender.org
mtllib SquareLog_col.mtl
o Cube_Cube.001
v 0.000000 0.000000 0.000000
v 0.000000 2.000000 0.000000
v 0.000000 0.000000 -2.000000
v 0.000000 2.000000 -2.000000
v 20.000000 0.000000 0.000000
v 20.000000 2.000000 0.000000
v 20.000000 0.000000 -2.000000
v 20.000000 2.000000 -2.000000
vt 0.805190 0.153008
vt 0.788307 0.153008
vt 0.788307 0.136125
vt 0.805190 0.136125
vt 0.317642 0.947086
vt 0.256647 0.947086
vt 0.256647 0.014563
vt 0.317641 0.014563
vt 0.787242 0.115331
vt 0.802844 0.115331
vt 0.802844 0.130932
vt 0.787242 0.130932
vt 0.475999 0.010238
vt 0.536993 0.010238
vt 0.536993 0.942761
vt 0.475999 0.942761
vt 0.403752 0.982264
vt 0.403752 0.049741
vt 0.464746 0.049741
vt 0.464746 0.982264
vt 0.392499 0.038454
vt 0.392499 0.970978
vt 0.331505 0.970977
vt 0.331505 0.038454
vn -1.0000 0.0000 0.0000
vn 0.0000 0.0000 -1.0000
vn 1.0000 0.0000 0.0000
vn 0.0000 0.0000 1.0000
vn 0.0000 -1.0000 0.0000
vn 0.0000 1.0000 0.0000
usemtl None
s off
f 1/1/1 2/2/1 4/3/1 3/4/1
f 3/5/2 4/6/2 8/7/2 7/8/2
f 7/9/3 8/10/3 6/11/3 5/12/3
f 5/13/4 6/14/4 2/15/4 1/16/4
f 3/17/5 7/18/5 5/19/5 1/20/5
f 8/21/6 4/22/6 2/23/6 6/24/6
