# Blender v2.79 (sub 0) OBJ File: 'TreeLogShort.blend'
# www.blender.org
mtllib TreeLogShort_col.mtl
o Circle
v 7.967394 3.408544 0.656667
v 12.574690 3.414214 0.585786
v 12.574690 2.765367 0.152241
v 7.967394 2.792218 0.244851
v 7.967394 0.310062 2.727006
v 12.574690 0.152241 2.765366
v 12.574690 0.585786 3.414213
v 7.967394 0.721878 3.343333
v 7.967394 3.820360 1.272994
v 12.574690 3.847759 1.234633
v 7.967394 0.165451 2.000000
v 12.574690 0.000000 2.000000
v 7.967394 3.820360 2.727006
v 12.574690 3.847759 2.765366
v 12.574690 4.000000 2.000000
v 7.967394 3.964971 2.000000
v 7.967394 0.310061 1.272993
v 12.574690 0.152241 1.234633
v 7.967394 3.408543 3.343333
v 12.574690 3.414213 3.414213
v 7.967394 0.721877 0.656667
v 12.574690 0.585786 0.585786
v 7.967394 2.792217 3.755149
v 12.574690 2.765367 3.847759
v 7.967394 1.338204 0.244850
v 12.574690 1.234633 0.152240
v 7.967394 2.065210 3.899759
v 12.574690 2.000000 3.999999
v 7.967394 2.065211 0.100240
v 12.574690 2.000000 -0.000001
v 7.967394 1.338204 3.755149
v 12.574690 1.234633 3.847758
v 0.044061 3.999806 2.000000
v -0.000000 3.955070 2.000000
v -0.000000 3.806249 2.748173
v 0.044061 3.847607 2.765155
v -0.000000 3.382443 3.382444
v 0.044061 3.414182 3.413822
v 0.000000 2.748173 3.806249
v 0.044061 2.765515 3.847247
v 0.000000 2.000000 3.955070
v 0.044061 2.000360 3.999446
v 0.000000 1.251827 3.806249
v 0.044061 1.235206 3.847247
v -0.000000 0.617557 3.382443
v 0.044061 0.586539 3.413821
v -0.000000 0.193751 2.748173
v 0.044061 0.153114 2.765155
v -0.000000 0.044930 2.000000
v 0.044061 0.000915 2.000000
v -0.000000 0.193751 1.251827
v 0.044061 0.153114 1.234846
v -0.000000 0.617556 0.617557
v 0.044061 0.586539 0.586179
v -0.000000 1.251827 0.193751
v 0.044061 1.235206 0.152753
v -0.000000 2.000000 0.044930
v 0.044061 2.000361 0.000554
v -0.000000 2.748173 0.193751
v 0.044061 2.765516 0.152753
v -0.000000 3.382444 0.617557
v 0.044061 3.414182 0.586179
v -0.000000 3.806249 1.251828
v 0.044061 3.847608 1.234846
v 19.999998 3.955070 1.999998
v 19.955942 3.999015 2.000345
v 19.955942 3.846816 2.765500
v 19.999998 3.806249 2.748172
v 19.955942 3.413390 3.414168
v 19.999998 3.382443 3.382442
v 19.955942 2.764722 3.847594
v 19.999998 2.748173 3.806247
v 19.955942 1.999567 3.999792
v 19.999998 2.000000 3.955069
v 19.955942 1.234411 3.847594
v 19.999998 1.251827 3.806247
v 19.955942 0.585744 3.414168
v 19.999998 0.617557 3.382442
v 19.955942 0.152318 2.765500
v 19.999998 0.193751 2.748171
v 19.955942 0.000119 2.000345
v 19.999998 0.044930 1.999999
v 19.955942 0.152318 1.235189
v 19.999998 0.193751 1.251826
v 19.955942 0.585743 0.586522
v 19.999998 0.617556 0.617555
v 19.955942 1.234411 0.153096
v 19.999998 1.251827 0.193749
v 19.955942 1.999567 0.000897
v 19.999998 2.000000 0.044928
v 19.955942 2.764723 0.153096
v 19.999998 2.748173 0.193749
v 19.955942 3.413391 0.586522
v 19.999998 3.382443 0.617555
v 19.955942 3.846816 1.235190
v 19.999998 3.806249 1.251826
vt 0.870986 0.249913
vt 0.916823 0.240796
vt 0.955681 0.214832
vt 0.981646 0.175973
vt 0.990763 0.130137
vt 0.981646 0.084300
vt 0.955681 0.045442
vt 0.916823 0.019477
vt 0.870986 0.010360
vt 0.825150 0.019477
vt 0.786291 0.045442
vt 0.760327 0.084300
vt 0.751210 0.130137
vt 0.760327 0.175973
vt 0.786291 0.214832
vt 0.825150 0.240796
vt 0.870986 0.249913
vt 0.916823 0.240796
vt 0.955681 0.214832
vt 0.981646 0.175973
vt 0.990763 0.130137
vt 0.981646 0.084300
vt 0.955681 0.045442
vt 0.916823 0.019477
vt 0.870986 0.010360
vt 0.825150 0.019477
vt 0.786291 0.045442
vt 0.760327 0.084300
vt 0.751210 0.130137
vt 0.760327 0.175973
vt 0.786291 0.214832
vt 0.825150 0.240796
vt 0.285733 0.505560
vt 0.266947 0.505465
vt 0.267199 0.316680
vt 0.285794 0.316717
vt 0.305367 0.202648
vt 0.303781 0.030254
vt 0.321587 0.029990
vt 0.324421 0.202515
vt 0.156353 0.506879
vt 0.138204 0.507683
vt 0.136591 0.317468
vt 0.155302 0.317194
vt 0.174012 0.316992
vt 0.152539 0.202052
vt 0.171796 0.202182
vt 0.322587 0.505973
vt 0.304205 0.505729
vt 0.304404 0.316777
vt 0.323043 0.316868
vt 0.341716 0.316997
vt 0.343516 0.202353
vt 0.174631 0.506438
vt 0.192704 0.316852
vt 0.190973 0.202336
vt 0.340938 0.506278
vt 0.360422 0.317178
vt 0.362669 0.202180
vt 0.192958 0.506113
vt 0.211367 0.316761
vt 0.210095 0.202491
vt 0.359266 0.506648
vt 0.379153 0.317425
vt 0.381906 0.202016
vt 0.211308 0.505851
vt 0.229999 0.316706
vt 0.229180 0.202624
vt 0.377546 0.507138
vt 0.397893 0.317749
vt 0.401260 0.201885
vt 0.229689 0.505649
vt 0.248606 0.316681
vt 0.248242 0.202718
vt 0.395695 0.507995
vt 0.416621 0.318161
vt 0.420801 0.201807
vt 0.248160 0.505520
vt 0.267291 0.202760
vt 0.286331 0.202731
vt 0.414123 0.510173
vt 0.117899 0.317821
vt 0.114140 0.201886
vt 0.133222 0.201967
vt 0.119774 0.509803
vt 0.139511 0.026810
vt 0.158058 0.027883
vt 0.285982 0.030330
vt 0.120937 0.024330
vt 0.249734 0.030118
vt 0.267901 0.030274
vt 0.394578 0.027079
vt 0.413323 0.024399
vt 0.231533 0.029873
vt 0.376158 0.028288
vt 0.213307 0.029538
vt 0.357886 0.029033
vt 0.195045 0.029109
vt 0.339686 0.029578
vt 0.176693 0.028572
vt 0.266945 0.507054
vt 0.248166 0.507055
vt 0.229701 0.507166
vt 0.211324 0.507361
vt 0.192978 0.507620
vt 0.174659 0.507939
vt 0.156401 0.508369
vt 0.138318 0.509141
vt 0.120149 0.511248
vt 0.413743 0.511618
vt 0.395577 0.509452
vt 0.377493 0.508628
vt 0.359234 0.508149
vt 0.340914 0.507785
vt 0.322568 0.507484
vt 0.304190 0.507247
vt 0.285724 0.507096
vt 0.249757 0.028630
vt 0.267913 0.028793
vt 0.231565 0.028378
vt 0.213346 0.028037
vt 0.195091 0.027600
vt 0.176747 0.027045
vt 0.158134 0.026310
vt 0.139649 0.025316
vt 0.121339 0.022862
vt 0.394408 0.025558
vt 0.412869 0.022862
vt 0.376068 0.026784
vt 0.357824 0.027539
vt 0.339640 0.028095
vt 0.321556 0.028525
vt 0.303766 0.028839
vt 0.285982 0.028867
vn 1.0000 -0.0000 0.0000
vn -1.0000 -0.0000 0.0000
vn 0.0050 0.9237 -0.3830
vn 0.0044 1.0000 0.0000
vn -0.0016 1.0000 0.0000
vn -0.0018 0.9241 -0.3822
vn -0.0058 0.7067 -0.7075
vn 0.0001 0.7071 -0.7071
vn 0.0001 0.3827 -0.9239
vn -0.0081 0.3819 -0.9242
vn 0.0184 -0.7075 0.7065
vn 0.0201 -0.9238 0.3822
vn -0.0074 -0.9237 0.3832
vn -0.0067 -0.7064 0.7078
vn -0.0057 -0.3815 0.9244
vn -0.0159 -0.7075 0.7066
vn -0.0136 -0.3834 0.9235
vn 0.0095 0.3818 -0.9242
vn 0.0068 0.7066 -0.7076
vn -0.0025 0.7078 -0.7064
vn -0.0034 0.3839 -0.9234
vn -0.0046 0.0014 -1.0000
vn -0.0108 -0.0009 -0.9999
vn 0.0157 -0.3835 0.9234
vn -0.0046 0.0014 1.0000
vn -0.0109 -0.0009 0.9999
vn 0.0126 -0.0010 -0.9999
vn -0.0057 -0.3815 -0.9244
vn -0.0135 -0.3834 -0.9235
vn 0.0126 -0.0010 0.9999
vn -0.0034 0.3839 0.9234
vn -0.0081 0.3819 0.9242
vn 0.0157 -0.3835 -0.9234
vn -0.0067 -0.7064 -0.7078
vn -0.0158 -0.7075 -0.7066
vn 0.0095 0.3818 0.9242
vn -0.0025 0.7078 0.7064
vn -0.0058 0.7067 0.7075
vn 0.0184 -0.7075 -0.7065
vn -0.0074 -0.9237 -0.3832
vn -0.0174 -0.9239 -0.3823
vn 0.0068 0.7066 0.7076
vn -0.0018 0.9241 0.3822
vn -0.0043 0.9237 0.3830
vn 0.0201 -0.9238 -0.3822
vn -0.0076 -1.0000 0.0000
vn -0.0179 -0.9998 -0.0000
vn 0.0050 0.9237 0.3830
vn -0.0037 1.0000 -0.0000
vn -0.0043 0.9237 -0.3830
vn 0.0208 -0.9998 0.0000
vn -0.0174 -0.9239 0.3823
vn 0.0000 -0.9239 0.3827
vn 0.0000 -0.7071 0.7071
vn 0.0001 0.9239 -0.3827
vn 0.0000 -1.0000 0.0000
vn 0.0001 0.9239 0.3827
vn 0.0001 1.0000 0.0000
vn 0.0000 -0.9239 -0.3827
vn 0.0001 0.7071 0.7071
vn 0.0001 -0.7071 -0.7071
vn 0.0001 0.3827 0.9239
vn 0.0001 -0.3827 -0.9239
vn 0.0000 -0.0000 1.0000
vn 0.0001 -0.0000 -1.0000
vn 0.0000 -0.3827 0.9239
vn -0.7122 0.6486 0.2685
vn -0.7125 0.7017 0.0000
vn -0.7122 0.6484 0.2688
vn -0.7116 0.4970 0.4966
vn -0.7116 0.4965 0.4971
vn -0.7107 0.2696 0.6498
vn -0.7107 0.2687 0.6501
vn -0.7096 0.0004 0.7046
vn -0.7096 -0.0006 0.7046
vn -0.7085 -0.2697 0.6521
vn -0.7085 -0.2706 0.6518
vn -0.7076 -0.4994 0.4999
vn -0.7076 -0.5000 0.4994
vn -0.7070 -0.6534 0.2708
vn -0.7070 -0.6535 0.2705
vn -0.7067 -0.7075 0.0000
vn -0.7070 -0.6534 -0.2708
vn -0.7070 -0.6535 -0.2704
vn -0.7076 -0.4994 -0.4999
vn -0.7076 -0.5000 -0.4994
vn -0.7085 -0.2697 -0.6521
vn -0.7085 -0.2706 -0.6518
vn -0.7096 0.0004 -0.7046
vn -0.7096 -0.0006 -0.7046
vn -0.7107 0.2696 -0.6498
vn -0.7107 0.2687 -0.6501
vn -0.7116 0.4970 -0.4966
vn -0.7116 0.4965 -0.4971
vn -0.7122 0.6486 -0.2685
vn -0.7122 0.6484 -0.2688
vn 0.7075 0.6532 0.2697
vn 0.7062 0.7080 -0.0006
vn 0.7062 0.7080 0.0004
vn 0.7075 0.6526 0.2710
vn 0.7092 0.4991 0.4979
vn 0.7092 0.4980 0.4990
vn 0.7109 0.2699 0.6494
vn 0.7109 0.2685 0.6500
vn 0.7124 0.0007 0.7018
vn 0.7124 -0.0005 0.7018
vn 0.7135 -0.2677 0.6475
vn 0.7135 -0.2684 0.6472
vn 0.7140 -0.4950 0.4951
vn 0.7140 -0.4951 0.4950
vn 0.7139 -0.6471 0.2678
vn 0.7139 -0.6469 0.2682
vn 0.7131 -0.7011 -0.0006
vn 0.7131 -0.7011 0.0004
vn 0.7118 -0.6486 -0.2695
vn 0.7118 -0.6492 -0.2682
vn 0.7102 -0.4972 -0.4985
vn 0.7102 -0.4983 -0.4973
vn 0.7084 -0.2693 -0.6524
vn 0.7085 -0.2707 -0.6518
vn 0.7069 0.0007 -0.7073
vn 0.7069 -0.0005 -0.7073
vn 0.7058 0.2715 -0.6543
vn 0.7058 0.2708 -0.6546
vn 0.7053 0.5014 -0.5012
vn 0.7053 0.5012 -0.5014
vn 0.7054 0.6548 -0.2715
vn 0.7054 0.6549 -0.2711
usemtl None
s off
f 68/1/1 70/2/1 72/3/1 74/4/1 76/5/1 78/6/1 80/7/1 82/8/1 84/9/1 86/10/1 88/11/1 90/12/1 92/13/1 94/14/1 96/15/1 65/16/1
f 35/17/2 34/18/2 63/19/2 61/20/2 59/21/2 57/22/2 55/23/2 53/24/2 51/25/2 49/26/2 47/27/2 45/28/2 43/29/2 41/30/2 39/31/2 37/32/2
s 1
f 64/33/3 33/34/4 16/35/5 9/36/6
f 2/37/7 93/38/8 91/39/9 3/40/10
f 46/41/11 48/42/12 5/43/13 8/44/14
f 31/45/15 8/44/14 7/46/16 32/47/17
f 60/48/18 62/49/19 1/50/20 4/51/21
f 29/52/22 4/51/21 3/40/10 30/53/23
f 44/54/24 46/41/11 8/44/14 31/45/15
f 27/55/25 31/45/15 32/47/17 28/56/26
f 58/57/27 60/48/18 4/51/21 29/52/22
f 25/58/28 29/52/22 30/53/23 26/59/29
f 42/60/30 44/54/24 31/45/15 27/55/25
f 23/61/31 27/55/25 28/56/26 24/62/32
f 56/63/33 58/57/27 29/52/22 25/58/28
f 21/64/34 25/58/28 26/59/29 22/65/35
f 40/66/36 42/60/30 27/55/25 23/61/31
f 19/67/37 23/61/31 24/62/32 20/68/38
f 54/69/39 56/63/33 25/58/28 21/64/34
f 17/70/40 21/64/34 22/65/35 18/71/41
f 38/72/42 40/66/36 23/61/31 19/67/37
f 13/73/43 19/67/37 20/68/38 14/74/44
f 52/75/45 54/69/39 21/64/34 17/70/40
f 11/76/46 17/70/40 18/71/41 12/77/47
f 36/78/48 38/72/42 19/67/37 13/73/43
f 9/36/6 16/35/5 15/79/49 10/80/50
f 16/35/5 13/73/43 14/74/44 15/79/49
f 50/81/51 52/75/45 17/70/40 11/76/46
f 5/43/13 11/82/46 12/83/47 6/84/52
f 1/50/20 9/36/6 10/80/50 2/37/7
f 48/42/12 50/85/51 11/82/46 5/43/13
f 8/44/14 5/43/13 6/84/52 7/46/16
f 62/49/19 64/33/3 9/36/6 1/50/20
f 4/51/21 1/50/20 2/37/7 3/40/10
f 6/84/52 79/86/53 77/87/54 7/46/16
f 10/80/50 95/88/55 93/38/8 2/37/7
f 12/83/47 81/89/56 79/86/53 6/84/52
f 14/74/44 67/90/57 66/91/58 15/79/49
f 15/79/49 66/91/58 95/88/55 10/80/50
f 18/71/41 83/92/59 81/93/56 12/77/47
f 20/68/38 69/94/60 67/90/57 14/74/44
f 22/65/35 85/95/61 83/92/59 18/71/41
f 24/62/32 71/96/62 69/94/60 20/68/38
f 26/59/29 87/97/63 85/95/61 22/65/35
f 28/56/26 73/98/64 71/96/62 24/62/32
f 30/53/23 89/99/65 87/97/63 26/59/29
f 32/47/17 75/100/66 73/98/64 28/56/26
f 3/40/10 91/39/9 89/99/65 30/53/23
f 7/46/16 77/87/54 75/100/66 32/47/17
f 36/78/67 33/34/68 34/101/68 35/102/69
f 38/72/70 36/78/67 35/102/69 37/103/71
f 40/66/72 38/72/70 37/103/71 39/104/73
f 42/60/74 40/66/72 39/104/73 41/105/75
f 44/54/76 42/60/74 41/105/75 43/106/77
f 46/41/78 44/54/76 43/106/77 45/107/79
f 48/42/80 46/41/78 45/107/79 47/108/81
f 50/85/82 48/42/80 47/108/81 49/109/82
f 52/75/83 50/81/82 49/110/82 51/111/84
f 54/69/85 52/75/83 51/111/84 53/112/86
f 56/63/87 54/69/85 53/112/86 55/113/88
f 58/57/89 56/63/87 55/113/88 57/114/90
f 60/48/91 58/57/89 57/114/90 59/115/92
f 62/49/93 60/48/91 59/115/92 61/116/94
f 64/33/95 62/49/93 61/116/94 63/117/96
f 33/34/68 64/33/95 63/117/96 34/101/68
f 68/118/97 65/119/98 66/91/99 67/90/100
f 70/120/101 68/118/97 67/90/100 69/94/102
f 72/121/103 70/120/101 69/94/102 71/96/104
f 74/122/105 72/121/103 71/96/104 73/98/106
f 76/123/107 74/122/105 73/98/106 75/100/108
f 78/124/109 76/123/107 75/100/108 77/87/110
f 80/125/111 78/124/109 77/87/110 79/86/112
f 82/126/113 80/125/111 79/86/112 81/89/114
f 84/127/115 82/128/113 81/93/114 83/92/116
f 86/129/117 84/127/115 83/92/116 85/95/118
f 88/130/119 86/129/117 85/95/118 87/97/120
f 90/131/121 88/130/119 87/97/120 89/99/122
f 92/132/123 90/131/121 89/99/122 91/39/124
f 94/133/125 92/132/123 91/39/124 93/38/126
f 96/134/127 94/133/125 93/38/126 95/88/128
f 65/119/98 96/134/127 95/88/128 66/91/99
f 33/34/4 36/78/48 13/73/43 16/35/5
