# Blender v2.79 (sub 0) OBJ File: 'TreeLog.blend'
# www.blender.org
mtllib TreeLog_col.mtl
o Circle
v 7.967394 3.408544 0.656667
v 12.574690 3.414214 0.585786
v 23.999998 3.414214 0.585786
v 31.999998 3.264713 0.719562
v 31.999998 2.648386 0.307746
v 23.999998 2.765367 0.152240
v 12.574690 2.765367 0.152241
v 7.967394 2.792218 0.244851
v 7.967394 0.310062 2.727006
v 12.574690 0.152241 2.765366
v 23.999998 0.152241 2.765366
v 31.999998 0.166231 2.789901
v 31.999998 0.578047 3.406228
v 23.999998 0.585786 3.414212
v 12.574690 0.585786 3.414213
v 7.967394 0.721878 3.343333
v 7.967394 3.820360 1.272994
v 12.574690 3.847759 1.234633
v 23.999998 3.847759 1.234633
v 31.999998 3.676529 1.335889
v 7.967394 0.165451 2.000000
v 12.574690 0.000000 2.000000
v 23.999998 0.000000 1.999999
v 31.999998 0.021620 2.062895
v 7.967394 3.820360 2.727006
v 12.574690 3.847759 2.765366
v 23.999998 3.847759 2.765366
v 31.999998 3.676528 2.789902
v 31.999998 3.821140 2.062895
v 23.999998 4.000000 1.999999
v 12.574690 4.000000 2.000000
v 7.967394 3.964971 2.000000
v 7.967394 0.310061 1.272993
v 12.574690 0.152241 1.234633
v 23.999998 0.152241 1.234632
v 31.999998 0.166230 1.335889
v 7.967394 3.408543 3.343333
v 12.574690 3.414213 3.414213
v 23.999998 3.414213 3.414213
v 31.999998 3.264712 3.406228
v 7.967394 0.721877 0.656667
v 12.574690 0.585786 0.585786
v 23.999998 0.585786 0.585786
v 31.999998 0.578046 0.719562
v 7.967394 2.792217 3.755149
v 12.574690 2.765367 3.847759
v 23.999998 2.765367 3.847758
v 31.999998 2.648386 3.818044
v 7.967394 1.338204 0.244850
v 12.574690 1.234633 0.152240
v 23.999998 1.234633 0.152240
v 31.999998 1.194373 0.307746
v 7.967394 2.065210 3.899759
v 12.574690 2.000000 3.999999
v 23.999998 2.000000 3.999999
v 31.999998 1.921380 3.962655
v 7.967394 2.065211 0.100240
v 12.574690 2.000000 -0.000001
v 23.999998 2.000000 -0.000001
v 31.999998 1.921380 0.163135
v 7.967394 1.338204 3.755149
v 12.574690 1.234633 3.847758
v 23.999998 1.234633 3.847758
v 31.999998 1.194373 3.818044
v 19.986412 3.343333 0.561568
v 19.986412 2.727007 0.149751
v 19.986412 0.244851 2.631907
v 19.986412 0.656667 3.248233
v 19.986412 3.755149 1.177894
v 19.986412 0.100240 1.904900
v 19.986412 3.755149 2.631907
v 19.986412 3.899760 1.904900
v 19.986412 0.244851 1.177894
v 19.986412 3.343333 3.248233
v 19.986412 0.656667 0.561567
v 19.986412 2.727006 3.660049
v 19.986412 1.272993 0.149751
v 19.986412 2.000000 3.804660
v 19.986412 2.000000 0.005140
v 19.986412 1.272993 3.660049
v 0.044061 3.999806 2.000000
v -0.000000 3.955070 2.000000
v -0.000000 3.806249 2.748173
v 0.044061 3.847607 2.765155
v -0.000000 3.382443 3.382444
v 0.044061 3.414182 3.413822
v 0.000000 2.748173 3.806249
v 0.044061 2.765515 3.847247
v 0.000000 2.000000 3.955070
v 0.044061 2.000360 3.999446
v 0.000000 1.251827 3.806249
v 0.044061 1.235206 3.847247
v -0.000000 0.617557 3.382443
v 0.044061 0.586539 3.413821
v -0.000000 0.193751 2.748173
v 0.044061 0.153114 2.765155
v -0.000000 0.044930 2.000000
v 0.044061 0.000915 2.000000
v -0.000000 0.193751 1.251827
v 0.044061 0.153114 1.234846
v -0.000000 0.617556 0.617557
v 0.044061 0.586539 0.586179
v -0.000000 1.251827 0.193751
v 0.044061 1.235206 0.152753
v -0.000000 2.000000 0.044930
v 0.044061 2.000361 0.000554
v -0.000000 2.748173 0.193751
v 0.044061 2.765516 0.152753
v -0.000000 3.382444 0.617557
v 0.044061 3.414182 0.586179
v -0.000000 3.806249 1.251828
v 0.044061 3.847608 1.234846
v 39.999996 3.955070 1.999998
v 39.955940 3.999015 2.000345
v 39.955940 3.846816 2.765500
v 39.999996 3.806249 2.748172
v 39.955940 3.413390 3.414168
v 39.999996 3.382443 3.382442
v 39.955940 2.764722 3.847594
v 39.999996 2.748173 3.806247
v 39.955940 1.999567 3.999792
v 39.999996 2.000000 3.955069
v 39.955940 1.234411 3.847594
v 39.999996 1.251827 3.806247
v 39.955940 0.585744 3.414168
v 39.999996 0.617557 3.382442
v 39.955940 0.152318 2.765500
v 39.999996 0.193751 2.748171
v 39.955940 0.000119 2.000345
v 39.999996 0.044930 1.999999
v 39.955940 0.152318 1.235189
v 39.999996 0.193751 1.251826
v 39.955940 0.585743 0.586522
v 39.999996 0.617556 0.617555
v 39.955940 1.234411 0.153096
v 39.999996 1.251827 0.193749
v 39.955940 1.999567 0.000897
v 39.999996 2.000000 0.044928
v 39.955940 2.764723 0.153096
v 39.999996 2.748173 0.193749
v 39.955940 3.413391 0.586522
v 39.999996 3.382443 0.617555
v 39.955940 3.846816 1.235190
v 39.999996 3.806249 1.251826
vt 0.870986 0.249913
vt 0.916823 0.240796
vt 0.955681 0.214832
vt 0.981646 0.175973
vt 0.990763 0.130137
vt 0.981646 0.084300
vt 0.955681 0.045442
vt 0.916823 0.019477
vt 0.870986 0.010360
vt 0.825150 0.019477
vt 0.786291 0.045442
vt 0.760327 0.084300
vt 0.751210 0.130137
vt 0.760327 0.175973
vt 0.786291 0.214832
vt 0.825150 0.240796
vt 0.870986 0.249913
vt 0.916823 0.240796
vt 0.955681 0.214832
vt 0.981646 0.175973
vt 0.990763 0.130137
vt 0.981646 0.084300
vt 0.955681 0.045442
vt 0.916823 0.019477
vt 0.870986 0.010360
vt 0.825150 0.019477
vt 0.786291 0.045442
vt 0.760327 0.084300
vt 0.751210 0.130137
vt 0.760327 0.175973
vt 0.786291 0.214832
vt 0.825150 0.240796
vt 0.235932 0.971149
vt 0.217715 0.971075
vt 0.217703 0.787853
vt 0.235765 0.787865
vt 0.236247 0.211159
vt 0.218337 0.211139
vt 0.219216 0.029577
vt 0.236558 0.029445
vt 0.254166 0.211143
vt 0.253621 0.029347
vt 0.093806 0.209904
vt 0.076086 0.209563
vt 0.078783 0.026732
vt 0.096410 0.028880
vt 0.360803 0.210207
vt 0.343431 0.210492
vt 0.340700 0.029079
vt 0.358836 0.027226
vt 0.200448 0.211081
vt 0.182592 0.210985
vt 0.184360 0.029862
vt 0.201800 0.029722
vt 0.325650 0.210710
vt 0.323001 0.029520
vt 0.164772 0.210850
vt 0.166907 0.029971
vt 0.307826 0.210883
vt 0.305482 0.029566
vt 0.146991 0.210677
vt 0.149430 0.030015
vt 0.289966 0.211011
vt 0.288039 0.029499
vt 0.129243 0.210462
vt 0.131881 0.029948
vt 0.272076 0.211097
vt 0.270687 0.029412
vt 0.111517 0.210204
vt 0.114081 0.029682
vt 0.110471 0.972609
vt 0.092874 0.973427
vt 0.090878 0.788954
vt 0.109044 0.788626
vt 0.127209 0.788373
vt 0.106140 0.676872
vt 0.124779 0.676948
vt 0.126840 0.497064
vt 0.108565 0.497018
vt 0.108265 0.400090
vt 0.126685 0.400089
vt 0.271668 0.971520
vt 0.253844 0.971298
vt 0.253840 0.787911
vt 0.271939 0.787997
vt 0.290064 0.788134
vt 0.273460 0.676592
vt 0.292133 0.676525
vt 0.290735 0.497760
vt 0.272723 0.497764
vt 0.272809 0.401830
vt 0.291209 0.401785
vt 0.128195 0.972146
vt 0.145357 0.788183
vt 0.143359 0.677025
vt 0.145167 0.497145
vt 0.145023 0.400182
vt 0.289462 0.971804
vt 0.308212 0.788332
vt 0.310825 0.676525
vt 0.308701 0.497736
vt 0.309649 0.401620
vt 0.145966 0.971800
vt 0.163478 0.788043
vt 0.161907 0.677063
vt 0.163499 0.497227
vt 0.163284 0.400406
vt 0.307232 0.972150
vt 0.326374 0.788601
vt 0.329548 0.676597
vt 0.326657 0.497681
vt 0.328146 0.401383
vt 0.163760 0.971517
vt 0.181573 0.787946
vt 0.180452 0.677064
vt 0.181830 0.497331
vt 0.181508 0.400695
vt 0.324955 0.972612
vt 0.344533 0.788952
vt 0.348319 0.676749
vt 0.344607 0.497609
vt 0.346703 0.401110
vt 0.181585 0.971296
vt 0.199644 0.787884
vt 0.199010 0.677022
vt 0.200128 0.497447
vt 0.199717 0.401014
vt 0.342551 0.973429
vt 0.362669 0.789387
vt 0.367216 0.676977
vt 0.362543 0.497538
vt 0.365351 0.400846
vt 0.199497 0.971148
vt 0.217590 0.676943
vt 0.236188 0.676823
vt 0.236553 0.497658
vt 0.218373 0.497560
vt 0.217934 0.401325
vt 0.236179 0.401586
vt 0.360417 0.975525
vt 0.072730 0.789363
vt 0.068513 0.676829
vt 0.087408 0.676823
vt 0.090378 0.497006
vt 0.072350 0.497024
vt 0.071137 0.400346
vt 0.089762 0.400184
vt 0.254812 0.676699
vt 0.254667 0.497729
vt 0.254465 0.401765
vt 0.075006 0.975525
vt 0.217715 0.972615
vt 0.199505 0.972637
vt 0.181598 0.972767
vt 0.163778 0.972982
vt 0.145988 0.973261
vt 0.128225 0.973601
vt 0.110521 0.974054
vt 0.092988 0.974840
vt 0.075373 0.976926
vt 0.360050 0.976926
vt 0.342437 0.974842
vt 0.324905 0.974057
vt 0.307202 0.973605
vt 0.289440 0.973264
vt 0.271651 0.972985
vt 0.253831 0.972769
vt 0.235924 0.972638
vt 0.201795 0.028294
vt 0.219209 0.028156
vt 0.184358 0.028430
vt 0.166908 0.028534
vt 0.149437 0.028571
vt 0.131899 0.028490
vt 0.114126 0.028181
vt 0.096523 0.027459
vt 0.079148 0.025336
vt 0.340595 0.027612
vt 0.358458 0.025730
vt 0.322971 0.028076
vt 0.305475 0.028133
vt 0.288039 0.028076
vt 0.270690 0.028006
vt 0.253619 0.027990
vt 0.236549 0.028040
vn 1.0000 -0.0000 0.0000
vn -1.0000 -0.0000 0.0000
vn 0.0050 0.9237 -0.3830
vn 0.0044 1.0000 0.0000
vn -0.0016 1.0000 0.0000
vn -0.0018 0.9241 -0.3822
vn -0.0000 0.9240 -0.3823
vn -0.0000 1.0000 0.0010
vn -0.0224 0.9997 -0.0010
vn -0.0246 0.9234 -0.3830
vn -0.0000 0.7070 -0.7072
vn -0.0250 0.7070 -0.7068
vn 0.0000 -0.9237 0.3831
vn 0.0000 -1.0000 0.0010
vn -0.0027 -1.0000 -0.0010
vn -0.0004 -0.9240 0.3823
vn -0.0000 -0.9244 -0.3814
vn -0.0065 -0.9233 -0.3839
vn 0.0000 0.9234 0.3840
vn 0.0000 0.7060 0.7082
vn -0.0139 0.7081 0.7059
vn -0.0186 0.9242 0.3814
vn -0.0000 -0.7082 -0.7060
vn -0.0112 -0.7060 -0.7082
vn 0.0000 0.3813 0.9245
vn -0.0090 0.3841 0.9233
vn -0.0000 -0.3841 -0.9233
vn -0.0160 -0.3813 -0.9243
vn 0.0000 -0.0012 1.0000
vn -0.0047 0.0012 1.0000
vn -0.0000 -0.0012 -1.0000
vn -0.0204 0.0012 -0.9998
vn 0.0000 -0.3834 0.9236
vn -0.0015 -0.3820 0.9242
vn -0.0000 0.3820 -0.9242
vn -0.0236 0.3833 -0.9233
vn 0.0000 -0.7072 0.7070
vn -0.0000 -0.7070 0.7072
vn 0.0184 -0.7075 0.7065
vn 0.0201 -0.9238 0.3822
vn -0.0074 -0.9237 0.3832
vn -0.0067 -0.7064 0.7078
vn -0.0057 -0.3815 0.9244
vn -0.0046 -0.7071 0.7071
vn -0.0009 -0.3831 0.9237
vn -0.0108 -0.3835 0.9235
vn -0.0096 -0.7082 0.7059
vn -0.0208 -0.7062 0.7077
vn -0.0226 -0.3817 0.9240
vn 0.0095 0.3818 -0.9242
vn 0.0068 0.7066 -0.7076
vn -0.0025 0.7078 -0.7064
vn -0.0034 0.3839 -0.9234
vn -0.0046 0.0014 -1.0000
vn -0.0073 0.3822 -0.9240
vn -0.0105 -0.0009 -0.9999
vn -0.0003 0.0000 -1.0000
vn -0.0007 0.3819 -0.9242
vn 0.0102 0.3835 -0.9235
vn 0.0095 0.0006 -1.0000
vn 0.0157 -0.3835 0.9234
vn -0.0046 0.0014 1.0000
vn 0.0023 -0.0009 1.0000
vn -0.0112 -0.0000 0.9999
vn -0.0219 0.0006 0.9998
vn 0.0126 -0.0010 -0.9999
vn -0.0057 -0.3815 -0.9244
vn -0.0127 -0.3837 -0.9234
vn -0.0007 -0.3819 -0.9242
vn 0.0065 -0.3825 -0.9239
vn 0.0126 -0.0010 0.9999
vn -0.0034 0.3839 0.9234
vn 0.0045 0.3817 0.9243
vn -0.0108 0.3835 0.9235
vn -0.0188 0.3828 0.9236
vn 0.0157 -0.3835 -0.9234
vn -0.0067 -0.7064 -0.7078
vn -0.0136 -0.7079 -0.7062
vn -0.0019 -0.7060 -0.7082
vn 0.0015 -0.7073 -0.7069
vn 0.0095 0.3818 0.9242
vn -0.0025 0.7078 0.7064
vn 0.0054 0.7063 0.7079
vn -0.0096 0.7082 0.7059
vn -0.0139 0.7069 0.7072
vn 0.0184 -0.7075 -0.7065
vn -0.0074 -0.9237 -0.3832
vn -0.0131 -0.9242 -0.3817
vn -0.0036 -0.9231 -0.3846
vn -0.0047 -0.9241 -0.3821
vn 0.0068 0.7066 0.7076
vn -0.0018 0.9241 0.3822
vn 0.0049 0.9235 0.3837
vn -0.0078 0.9247 0.3807
vn -0.0077 0.9236 0.3833
vn 0.0201 -0.9238 -0.3822
vn -0.0076 -1.0000 0.0000
vn -0.0111 -0.9999 0.0008
vn -0.0057 -1.0000 -0.0023
vn -0.0111 -0.9999 0.0010
vn 0.0050 0.9237 0.3830
vn 0.0030 1.0000 0.0008
vn -0.0036 0.9231 -0.3846
vn -0.0057 1.0000 -0.0023
vn -0.0013 1.0000 0.0010
vn 0.0043 0.9243 -0.3816
vn 0.0208 -0.9998 0.0000
vn -0.0082 -0.9237 0.3830
vn -0.0078 -0.9247 0.3807
vn -0.0168 -0.9233 0.3837
vn -0.0036 0.7071 -0.7071
vn -0.0019 0.7060 -0.7082
vn 0.0084 0.7079 -0.7063
vn -0.7122 0.6486 0.2685
vn -0.7125 0.7017 0.0000
vn -0.7122 0.6484 0.2688
vn -0.7116 0.4970 0.4966
vn -0.7116 0.4965 0.4971
vn -0.7107 0.2696 0.6498
vn -0.7107 0.2687 0.6501
vn -0.7096 0.0004 0.7046
vn -0.7096 -0.0006 0.7046
vn -0.7085 -0.2697 0.6521
vn -0.7085 -0.2706 0.6518
vn -0.7076 -0.4994 0.4999
vn -0.7076 -0.5000 0.4994
vn -0.7070 -0.6534 0.2708
vn -0.7070 -0.6535 0.2705
vn -0.7067 -0.7075 0.0000
vn -0.7070 -0.6534 -0.2708
vn -0.7070 -0.6535 -0.2704
vn -0.7076 -0.4994 -0.4999
vn -0.7076 -0.5000 -0.4994
vn -0.7085 -0.2697 -0.6521
vn -0.7085 -0.2706 -0.6518
vn -0.7096 0.0004 -0.7046
vn -0.7096 -0.0006 -0.7046
vn -0.7107 0.2696 -0.6498
vn -0.7107 0.2687 -0.6501
vn -0.7116 0.4970 -0.4966
vn -0.7116 0.4965 -0.4971
vn -0.7122 0.6486 -0.2685
vn -0.7122 0.6484 -0.2688
vn 0.7075 0.6532 0.2697
vn 0.7062 0.7080 -0.0006
vn 0.7062 0.7080 0.0004
vn 0.7075 0.6527 0.2710
vn 0.7092 0.4991 0.4979
vn 0.7092 0.4980 0.4990
vn 0.7109 0.2699 0.6494
vn 0.7109 0.2685 0.6500
vn 0.7124 0.0007 0.7018
vn 0.7124 -0.0005 0.7018
vn 0.7135 -0.2677 0.6475
vn 0.7135 -0.2684 0.6472
vn 0.7140 -0.4950 0.4951
vn 0.7140 -0.4951 0.4950
vn 0.7139 -0.6471 0.2678
vn 0.7139 -0.6469 0.2682
vn 0.7131 -0.7011 -0.0006
vn 0.7131 -0.7011 0.0004
vn 0.7118 -0.6486 -0.2695
vn 0.7118 -0.6492 -0.2682
vn 0.7102 -0.4972 -0.4985
vn 0.7102 -0.4983 -0.4973
vn 0.7084 -0.2693 -0.6524
vn 0.7085 -0.2707 -0.6518
vn 0.7069 0.0007 -0.7073
vn 0.7069 -0.0005 -0.7073
vn 0.7058 0.2715 -0.6543
vn 0.7058 0.2708 -0.6546
vn 0.7053 0.5014 -0.5012
vn 0.7053 0.5013 -0.5014
vn 0.7054 0.6548 -0.2715
vn 0.7054 0.6549 -0.2711
usemtl None
s off
f 116/1/1 118/2/1 120/3/1 122/4/1 124/5/1 126/6/1 128/7/1 130/8/1 132/9/1 134/10/1 136/11/1 138/12/1 140/13/1 142/14/1 144/15/1 113/16/1
f 83/17/2 82/18/2 111/19/2 109/20/2 107/21/2 105/22/2 103/23/2 101/24/2 99/25/2 97/26/2 95/27/2 93/28/2 91/29/2 89/30/2 87/31/2 85/32/2
s 1
f 112/33/3 81/34/4 32/35/5 17/36/6
f 20/37/7 29/38/8 114/39/9 143/40/10
f 4/41/11 20/37/7 143/40/10 141/42/12
f 12/43/13 24/44/14 129/45/15 127/46/16
f 24/47/14 36/48/17 131/49/18 129/50/15
f 28/51/19 40/52/20 117/53/21 115/54/22
f 36/48/17 44/55/23 133/56/24 131/49/18
f 40/52/20 48/57/25 119/58/26 117/53/21
f 44/55/23 52/59/27 135/60/28 133/56/24
f 48/57/25 56/61/29 121/62/30 119/58/26
f 52/59/27 60/63/31 137/64/32 135/60/28
f 56/61/29 64/65/33 123/66/34 121/62/30
f 60/63/31 5/67/35 139/68/36 137/64/32
f 64/65/33 13/69/37 125/70/38 123/66/34
f 5/67/35 4/41/11 141/42/12 139/68/36
f 13/69/37 12/43/13 127/46/16 125/70/38
f 94/71/39 96/72/40 9/73/41 16/74/42
f 61/75/43 16/74/42 15/76/44 62/77/45
f 80/78/46 68/79/47 14/80/48 63/81/49
f 63/81/49 14/80/48 13/69/37 64/65/33
f 108/82/50 110/83/51 1/84/52 8/85/53
f 57/86/54 8/85/53 7/87/55 58/88/56
f 79/89/57 66/90/58 6/91/59 59/92/60
f 59/92/60 6/91/59 5/67/35 60/63/31
f 92/93/61 94/71/39 16/74/42 61/75/43
f 53/94/62 61/75/43 62/77/45 54/95/63
f 78/96/64 80/78/46 63/81/49 55/97/65
f 55/97/65 63/81/49 64/65/33 56/61/29
f 106/98/66 108/82/50 8/85/53 57/86/54
f 49/99/67 57/86/54 58/88/56 50/100/68
f 77/101/69 79/89/57 59/92/60 51/102/70
f 51/102/70 59/92/60 60/63/31 52/59/27
f 90/103/71 92/93/61 61/75/43 53/94/62
f 45/104/72 53/94/62 54/95/63 46/105/73
f 76/106/74 78/96/64 55/97/65 47/107/75
f 47/107/75 55/97/65 56/61/29 48/57/25
f 104/108/76 106/98/66 57/86/54 49/99/67
f 41/109/77 49/99/67 50/100/68 42/110/78
f 75/111/79 77/101/69 51/102/70 43/112/80
f 43/112/80 51/102/70 52/59/27 44/55/23
f 88/113/81 90/103/71 53/94/62 45/104/72
f 37/114/82 45/104/72 46/105/73 38/115/83
f 74/116/84 76/106/74 47/107/75 39/117/85
f 39/117/85 47/107/75 48/57/25 40/52/20
f 102/118/86 104/108/76 49/99/67 41/109/77
f 33/119/87 41/109/77 42/110/78 34/120/88
f 73/121/89 75/111/79 43/112/80 35/122/90
f 35/122/90 43/112/80 44/55/23 36/48/17
f 86/123/91 88/113/81 45/104/72 37/114/82
f 25/124/92 37/114/82 38/115/83 26/125/93
f 71/126/94 74/116/84 39/117/85 27/127/95
f 27/127/95 39/117/85 40/52/20 28/51/19
f 100/128/96 102/118/86 41/109/77 33/119/87
f 21/129/97 33/119/87 34/120/88 22/130/98
f 70/131/99 73/121/89 35/122/90 23/132/100
f 23/132/100 35/122/90 36/48/17 24/47/14
f 84/133/101 86/123/91 37/114/82 25/124/92
f 17/36/6 32/35/5 31/134/102 18/135/7
f 69/136/103 72/137/104 30/138/105 19/139/106
f 19/139/106 30/138/105 29/38/8 20/37/7
f 32/35/5 25/124/92 26/125/93 31/134/102
f 72/137/104 71/126/94 27/127/95 30/138/105
f 30/138/105 27/127/95 28/51/19 29/38/8
f 98/140/107 100/128/96 33/119/87 21/129/97
f 9/73/41 21/141/97 22/142/98 10/143/108
f 67/144/109 70/145/99 23/146/100 11/147/110
f 11/147/110 23/146/100 24/44/14 12/43/13
f 29/38/8 28/51/19 115/54/22 114/39/9
f 1/84/52 17/36/6 18/135/7 2/148/111
f 65/149/112 69/136/103 19/139/106 3/150/113
f 3/150/113 19/139/106 20/37/7 4/41/11
f 96/72/40 98/151/107 21/141/97 9/73/41
f 16/74/42 9/73/41 10/143/108 15/76/44
f 68/79/47 67/144/109 11/147/110 14/80/48
f 14/80/48 11/147/110 12/43/13 13/69/37
f 110/83/51 112/33/3 17/36/6 1/84/52
f 8/85/53 1/84/52 2/148/111 7/87/55
f 66/90/58 65/149/112 3/150/113 6/91/59
f 6/91/59 3/150/113 4/41/11 5/67/35
f 7/87/55 2/148/111 65/149/112 66/90/58
f 15/76/44 10/143/108 67/144/109 68/79/47
f 2/148/111 18/135/7 69/136/103 65/149/112
f 10/143/108 22/142/98 70/145/99 67/144/109
f 31/134/102 26/125/93 71/126/94 72/137/104
f 18/135/7 31/134/102 72/137/104 69/136/103
f 22/130/98 34/120/88 73/121/89 70/131/99
f 26/125/93 38/115/83 74/116/84 71/126/94
f 34/120/88 42/110/78 75/111/79 73/121/89
f 38/115/83 46/105/73 76/106/74 74/116/84
f 42/110/78 50/100/68 77/101/69 75/111/79
f 46/105/73 54/95/63 78/96/64 76/106/74
f 50/100/68 58/88/56 79/89/57 77/101/69
f 54/95/63 62/77/45 80/78/46 78/96/64
f 58/88/56 7/87/55 66/90/58 79/89/57
f 62/77/45 15/76/44 68/79/47 80/78/46
f 84/133/114 81/34/115 82/152/115 83/153/116
f 86/123/117 84/133/114 83/153/116 85/154/118
f 88/113/119 86/123/117 85/154/118 87/155/120
f 90/103/121 88/113/119 87/155/120 89/156/122
f 92/93/123 90/103/121 89/156/122 91/157/124
f 94/71/125 92/93/123 91/157/124 93/158/126
f 96/72/127 94/71/125 93/158/126 95/159/128
f 98/151/129 96/72/127 95/159/128 97/160/129
f 100/128/130 98/140/129 97/161/129 99/162/131
f 102/118/132 100/128/130 99/162/131 101/163/133
f 104/108/134 102/118/132 101/163/133 103/164/135
f 106/98/136 104/108/134 103/164/135 105/165/137
f 108/82/138 106/98/136 105/165/137 107/166/139
f 110/83/140 108/82/138 107/166/139 109/167/141
f 112/33/142 110/83/140 109/167/141 111/168/143
f 81/34/115 112/33/142 111/168/143 82/152/115
f 116/169/144 113/170/145 114/39/146 115/54/147
f 118/171/148 116/169/144 115/54/147 117/53/149
f 120/172/150 118/171/148 117/53/149 119/58/151
f 122/173/152 120/172/150 119/58/151 121/62/153
f 124/174/154 122/173/152 121/62/153 123/66/155
f 126/175/156 124/174/154 123/66/155 125/70/157
f 128/176/158 126/175/156 125/70/157 127/46/159
f 130/177/160 128/176/158 127/46/159 129/45/161
f 132/178/162 130/179/160 129/50/161 131/49/163
f 134/180/164 132/178/162 131/49/163 133/56/165
f 136/181/166 134/180/164 133/56/165 135/60/167
f 138/182/168 136/181/166 135/60/167 137/64/169
f 140/183/170 138/182/168 137/64/169 139/68/171
f 142/184/172 140/183/170 139/68/171 141/42/173
f 144/185/174 142/184/172 141/42/173 143/40/175
f 113/170/145 144/185/174 143/40/175 114/39/146
f 81/34/4 84/133/101 25/124/92 32/35/5
