# Blender v2.79 (sub 0) OBJ File: 'TunelArch_col.blend'
# www.blender.org
mtllib TunelArch_col.mtl
o Circle_Circle.018
v -1.259350 12.008290 -0.143129
v -1.237761 0.120906 -0.154633
v -1.259463 12.008291 -3.443955
v -1.237898 0.120906 -3.432716
v 1.379377 12.008291 -3.461306
v 1.336641 0.120909 -0.503306
v 1.380935 12.008290 -0.494576
v 1.335001 0.120909 -3.452386
vt 0.949282 0.000000
vt 0.949282 1.000000
vt 0.050718 1.000000
vt 0.025359 0.000000
vt 0.944183 0.000000
vt 0.972092 1.000000
vt 0.056119 1.000000
vt 0.056119 0.000000
vt 0.000000 0.971570
vt 0.000000 0.028050
vt 1.000000 0.028049
vt 1.000000 0.971570
vt 0.953883 1.000000
vt 0.023059 1.000000
vt 0.023059 0.000000
vt 0.953882 0.000000
vn 1.0000 -0.0037 -0.0005
vn 0.1331 -0.0010 0.9911
vn -0.0071 -0.0008 -1.0000
vn -1.0000 -0.0018 0.0000
usemtl None.001
s off
f 8/1/1 5/2/1 7/3/1 6/4/1
f 6/5/2 7/6/2 1/7/2 2/8/2
f 8/9/3 4/10/3 3/11/3 5/12/3
f 4/13/4 2/14/4 1/15/4 3/16/4
o Circle_Circle.017
v -1.259350 12.008290 -0.143129
v -0.964583 14.885757 -0.143128
v -0.964711 14.885781 -3.443955
v -1.259463 12.008291 -3.443955
v 1.624970 14.370661 -0.494575
v 1.379377 12.008291 -3.461306
v 1.623455 14.370962 -3.461305
v 1.380935 12.008290 -0.494576
vt 0.943882 0.000000
vt 0.943882 1.000000
vt 0.027908 1.000000
vt 0.027908 0.000000
vt 0.000000 0.028419
vt 1.000000 0.028418
vt 1.000000 0.971964
vt 0.000000 0.971964
vt 0.953882 0.000000
vt 0.953882 1.000000
vt 0.023059 0.996613
vt 0.023059 0.003387
vt 0.949282 0.000000
vt 0.949282 1.000000
vt 0.050718 1.000000
vt 0.050718 0.000000
vn 0.1319 -0.0136 0.9912
vn -0.0066 0.0007 -1.0000
vn -0.9948 0.1019 0.0000
vn 0.9947 -0.1028 -0.0005
usemtl None.001
s off
f 10/17/5 9/18/5 16/19/5 13/20/5
f 15/21/6 14/22/6 12/23/6 11/24/6
f 11/25/7 12/26/7 9/27/7 10/28/7
f 14/29/8 15/30/8 13/31/8 16/32/8
o Circle_Circle.016
v 2.313967 16.641975 -0.494575
v -0.964583 14.885757 -0.143128
v -0.125458 17.652420 -3.443954
v -0.964711 14.885781 -3.443955
v 2.312538 16.642569 -3.461305
v 1.624970 14.370661 -0.494575
v 1.623455 14.370962 -3.461305
v -0.125340 17.652374 -0.143127
vt 0.027908 0.000000
vt 0.943883 0.000000
vt 0.943882 1.000000
vt 0.027908 1.000000
vt 1.000000 0.028419
vt 1.000000 0.971964
vt 0.000000 0.971964
vt 0.000000 0.028419
vt 0.953883 0.000000
vt 0.953883 1.000000
vt 0.023059 0.996613
vt 0.023059 0.003387
vt 0.050718 0.000000
vt 0.949282 0.000000
vt 0.949282 1.000000
vt 0.050718 1.000000
vn 0.1269 -0.0385 0.9912
vn -0.0063 0.0019 -1.0000
vn -0.9569 0.2903 0.0000
vn 0.9569 -0.2903 -0.0005
usemtl None.001
s off
f 17/33/9 24/34/9 18/35/9 22/36/9
f 23/37/10 20/38/10 19/39/10 21/40/10
f 19/41/11 20/42/11 18/43/11 24/44/11
f 22/45/12 23/46/12 21/47/12 17/48/12
o Circle_Circle.015
v 1.237520 20.202103 -0.143126
v 2.313967 16.641975 -0.494575
v -0.125458 17.652420 -3.443954
v 3.432835 18.735237 -0.494574
v 2.312538 16.642569 -3.461305
v 1.237413 20.202171 -3.443953
v 3.431550 18.736095 -3.461304
v -0.125340 17.652374 -0.143127
vt 0.027908 1.000000
vt 0.027908 0.000000
vt 0.943883 0.000000
vt 0.943883 1.000000
vt 0.953883 0.000000
vt 0.953883 1.000000
vt 0.023059 0.996613
vt 0.023059 0.003387
vt 1.000000 0.028418
vt 1.000000 0.971964
vt 0.000000 0.971964
vt 0.000000 0.028418
vt 0.949282 0.000000
vt 0.949282 1.000000
vt 0.050718 1.000000
vt 0.050718 0.000000
vn 0.1169 -0.0625 0.9912
vn -0.8819 0.4714 0.0000
vn -0.0058 0.0031 -1.0000
vn 0.8819 -0.4714 -0.0005
usemtl None.001
s off
f 26/49/13 28/50/13 25/51/13 32/52/13
f 30/53/14 27/54/14 32/55/14 25/56/14
f 29/57/15 27/58/15 30/59/15 31/60/15
f 29/61/16 31/62/16 28/63/16 26/64/16
o Circle_Circle.014
v 4.938582 20.569990 -0.494574
v 1.237520 20.202103 -0.143126
v 3.071616 22.436960 -0.143126
v 4.937490 20.571085 -3.461304
v 3.071526 22.437046 -3.443953
v 3.432835 18.735237 -0.494574
v 1.237413 20.202171 -3.443953
v 3.431550 18.736095 -3.461304
vt 0.000000 0.056117
vt 1.000000 0.056117
vt 1.000000 0.972093
vt 0.000000 0.972093
vt 0.971581 0.000000
vt 0.971581 1.000000
vt 0.028036 1.000000
vt 0.028036 0.000000
vt 0.953882 0.000000
vt 0.953883 1.000000
vt 0.023059 0.996613
vt 0.023059 0.003387
vt 0.050718 0.000000
vt 0.949282 0.000000
vt 0.949282 1.000000
vt 0.050718 1.000000
vn 0.1025 -0.0841 0.9912
vn -0.0051 0.0042 -1.0000
vn -0.7730 0.6344 0.0000
vn 0.7730 -0.6344 -0.0005
usemtl None.001
s off
f 35/65/17 34/66/17 38/67/17 33/68/17
f 36/69/18 40/70/18 39/71/18 37/72/18
f 37/73/19 39/74/19 34/75/19 35/76/19
f 38/77/20 40/78/20 36/79/20 33/80/20
o Circle_Circle.013
v 4.938582 20.569990 -0.494574
v 5.306472 24.271055 -0.143126
v 6.773337 22.075737 -0.494574
v 3.071616 22.436960 -0.143126
v 5.306402 24.271160 -3.443953
v 4.937490 20.571085 -3.461304
v 3.071526 22.437046 -3.443953
v 6.772479 22.077023 -3.461303
vt 0.027908 0.000000
vt 0.943883 0.000000
vt 0.943883 1.000000
vt 0.027908 1.000000
vt 0.000000 0.028419
vt 1.000000 0.028418
vt 1.000000 0.971964
vt 0.000000 0.971963
vt 0.949282 0.000000
vt 0.949282 1.000000
vt 0.050718 1.000000
vt 0.050718 0.000000
vt 0.953883 0.000000
vt 0.953883 1.000000
vt 0.023059 0.996613
vt 0.023059 0.003387
vn 0.0841 -0.1025 0.9912
vn -0.0042 0.0051 -1.0000
vn 0.6344 -0.7730 -0.0005
vn -0.6344 0.7730 0.0000
usemtl None.001
s off
f 43/81/21 42/82/21 44/83/21 41/84/21
f 48/85/22 46/86/22 47/87/22 45/88/22
f 46/89/23 48/90/23 43/91/23 41/92/23
f 45/93/24 47/94/24 44/95/24 42/96/24
o Circle_Circle.012
v 5.306472 24.271055 -0.143126
v 6.773337 22.075737 -0.494574
v 5.306402 24.271160 -3.443953
v 7.856201 25.633913 -0.143125
v 7.856153 25.634029 -3.443953
v 8.866005 23.196032 -3.461303
v 6.772479 22.077023 -3.461303
v 8.866595 23.194607 -0.494573
vt 1.000000 0.028418
vt 1.000000 0.971963
vt 0.000000 0.971963
vt 0.000000 0.028419
vt 0.949282 0.000000
vt 0.949282 1.000000
vt 0.050718 1.000000
vt 0.050718 0.000000
vt 0.953883 0.000000
vt 0.953883 1.000000
vt 0.023059 0.996613
vt 0.023059 0.003387
vt 0.027908 0.000000
vt 0.943883 0.000000
vt 0.943883 1.000000
vt 0.027908 1.000000
vn -0.0031 0.0058 -1.0000
vn 0.4714 -0.8819 -0.0005
vn -0.4714 0.8819 0.0000
vn 0.0625 -0.1169 0.9912
usemtl None.001
s off
f 55/97/25 51/98/25 53/99/25 54/100/25
f 55/101/26 54/102/26 56/103/26 50/104/26
f 53/105/27 51/106/27 49/107/27 52/108/27
f 56/109/28 52/110/28 49/111/28 50/112/28
o Circle_Circle.011
v 7.856201 25.633913 -0.143125
v 7.856153 25.634029 -3.443953
v 11.137612 23.885120 -3.461304
v 11.137913 23.883604 -0.494573
v 8.866005 23.196032 -3.461303
v 10.622792 26.473284 -3.443953
v 10.622817 26.473164 -0.143125
v 8.866595 23.194607 -0.494573
vt 1.000000 0.056117
vt 1.000000 0.972093
vt 0.000000 0.972093
vt 0.000000 0.056117
vt 0.971581 0.000000
vt 0.971581 1.000000
vt 0.028037 1.000000
vt 0.028037 0.000000
vt 0.949282 0.000000
vt 0.949282 1.000000
vt 0.050718 1.000000
vt 0.050718 0.000000
vt 0.953883 0.000000
vt 0.953883 1.000000
vt 0.023059 0.996613
vt 0.023059 0.003387
vn 0.0385 -0.1269 0.9912
vn -0.0019 0.0063 -1.0000
vn 0.2903 -0.9569 -0.0005
vn -0.2903 0.9569 0.0000
usemtl None.001
s off
f 57/113/29 64/114/29 60/115/29 63/116/29
f 59/117/30 61/118/30 58/119/30 62/120/30
f 61/121/31 59/122/31 60/123/31 64/124/31
f 62/125/32 58/126/32 57/127/32 63/128/32
o Circle_Circle.010
v 13.500002 24.116251 -0.494573
v 13.500002 26.756662 -3.443952
v 13.500002 24.117796 -3.461304
v 13.500002 26.756536 -0.143125
v 11.137612 23.885120 -3.461304
v 11.137913 23.883604 -0.494573
v 10.622792 26.473284 -3.443953
v 10.622817 26.473164 -0.143125
vt 0.000000 0.056117
vt 1.000000 0.056117
vt 1.000000 0.972093
vt 0.000000 0.972093
vt 0.971581 0.000000
vt 0.971581 1.000000
vt 0.028036 1.000000
vt 0.028037 0.000000
vt 0.949282 0.000000
vt 0.949282 1.000000
vt 0.050718 1.000000
vt 0.050718 0.000000
vt 0.953883 0.000000
vt 0.953883 1.000000
vt 0.023059 0.996613
vt 0.023059 0.003387
vn 0.0130 -0.1319 0.9912
vn -0.0006 0.0066 -1.0000
vn 0.0980 -0.9952 -0.0005
vn -0.0980 0.9952 0.0000
usemtl None.001
s off
f 68/129/33 72/130/33 70/131/33 65/132/33
f 67/133/34 69/134/34 71/135/34 66/136/34
f 69/137/35 67/138/35 65/139/35 70/140/35
f 66/141/36 71/142/36 72/143/36 68/144/36
o Circle_Circle.009
v 15.862077 23.883604 -0.494573
v 13.500002 24.116251 -0.494573
v 13.500002 26.756662 -3.443952
v 13.500002 24.117796 -3.461304
v 16.377169 26.473166 -0.143125
v 13.500002 26.756536 -0.143125
v 15.862377 23.885122 -3.461303
v 16.377193 26.473288 -3.443953
vt 0.000000 0.056117
vt 1.000000 0.056117
vt 1.000000 0.944185
vt 0.000000 0.944185
vt 0.971581 0.000000
vt 0.971581 1.000000
vt 0.028036 1.000000
vt 0.028036 0.000000
vt 0.953883 0.000000
vt 0.953883 1.000000
vt 0.023059 0.996613
vt 0.023059 0.003387
vt 0.949282 0.000000
vt 0.949282 1.000000
vt 0.025359 1.000000
vt 0.025359 0.000000
vn -0.0130 -0.1319 0.9912
vn 0.0006 0.0066 -1.0000
vn 0.0980 0.9952 0.0000
vn -0.0980 -0.9952 -0.0005
usemtl None.001
s off
f 77/145/37 78/146/37 74/147/37 73/148/37
f 79/149/38 76/150/38 75/151/38 80/152/38
f 80/153/39 75/154/39 78/155/39 77/156/39
f 76/157/40 79/158/40 73/159/40 74/160/40
o Circle_Circle.008
v 18.133392 23.194616 -0.494573
v 15.862077 23.883604 -0.494573
v 19.143787 25.633923 -0.143125
v 16.377169 26.473166 -0.143125
v 18.133986 23.196047 -3.461303
v 15.862377 23.885122 -3.461303
v 19.143835 25.634039 -3.443953
v 16.377193 26.473288 -3.443953
vt 0.027908 0.000000
vt 0.943883 0.000000
vt 0.943883 1.000000
vt 0.027908 1.000000
vt 0.000000 0.028418
vt 1.000000 0.028418
vt 1.000000 0.971963
vt 0.000000 0.971963
vt 0.953883 0.000000
vt 0.953883 1.000000
vt 0.023059 0.996613
vt 0.023059 0.003387
vt 0.949282 0.000000
vt 0.949282 1.000000
vt 0.050718 1.000000
vt 0.050718 0.000000
vn -0.0385 -0.1269 0.9912
vn 0.0019 0.0063 -1.0000
vn 0.2903 0.9569 0.0000
vn -0.2903 -0.9569 -0.0005
usemtl None.001
s off
f 81/161/41 83/162/41 84/163/41 82/164/41
f 85/165/42 86/166/42 88/167/42 87/168/42
f 87/169/43 88/170/43 84/171/43 83/172/43
f 86/173/44 85/174/44 81/175/44 82/176/44
o Circle_Circle.007
v 21.693520 24.271069 -0.143125
v 18.133392 23.194616 -0.494573
v 20.226658 22.075748 -0.494573
v 21.693586 24.271172 -3.443953
v 19.143787 25.633923 -0.143125
v 20.227514 22.077032 -3.461303
v 18.133986 23.196047 -3.461303
v 19.143835 25.634039 -3.443953
vt 1.000000 0.028419
vt 1.000000 0.971963
vt 0.000000 0.971963
vt 0.000000 0.028418
vt 0.943884 0.000000
vt 0.943884 1.000000
vt 0.027908 1.000000
vt 0.027908 0.000000
vt 0.953883 0.000000
vt 0.953883 1.000000
vt 0.023059 0.996613
vt 0.023059 0.003387
vt 0.949282 0.000000
vt 0.949282 1.000000
vt 0.050718 1.000000
vt 0.050718 0.000000
vn 0.0031 0.0058 -1.0000
vn -0.0625 -0.1169 0.9912
vn 0.4714 0.8819 0.0000
vn -0.4714 -0.8819 -0.0005
usemtl None.001
s off
f 95/177/45 96/178/45 92/179/45 94/180/45
f 89/181/46 93/182/46 90/183/46 91/184/46
f 92/185/47 96/186/47 93/187/47 89/188/47
f 95/189/48 94/190/48 91/191/48 90/192/48
o Circle_Circle.006
v 21.693520 24.271069 -0.143125
v 20.226658 22.075748 -0.494573
v 22.061415 20.570005 -0.494574
v 21.693586 24.271172 -3.443953
v 23.928463 22.437056 -3.443953
v 23.928377 22.436970 -0.143126
v 22.062510 20.571098 -3.461303
v 20.227514 22.077032 -3.461303
vt 0.943884 0.000000
vt 0.943883 1.000000
vt 0.027908 1.000000
vt 0.027908 0.000000
vt 1.000000 0.028418
vt 1.000000 0.971963
vt 0.000000 0.971963
vt 0.000000 0.028419
vt 0.953883 0.000000
vt 0.953883 1.000000
vt 0.023059 0.996613
vt 0.023059 0.003387
vt 0.949282 0.000000
vt 0.949282 1.000000
vt 0.050718 1.000000
vt 0.050718 0.000000
vn -0.0841 -0.1025 0.9912
vn 0.0042 0.0051 -1.0000
vn 0.6344 0.7730 0.0000
vn -0.6344 -0.7730 -0.0005
usemtl None.001
s off
f 102/193/49 97/194/49 98/195/49 99/196/49
f 104/197/50 100/198/50 101/199/50 103/200/50
f 101/201/51 100/202/51 97/203/51 102/204/51
f 104/205/52 103/206/52 99/207/52 98/208/52
o Circle_Circle.005
v 23.567163 18.735250 -0.494574
v 22.061415 20.570005 -0.494574
v 25.762480 20.202118 -0.143126
v 25.762579 20.202188 -3.443954
v 23.928463 22.437056 -3.443953
v 23.928377 22.436970 -0.143126
v 22.062510 20.571098 -3.461303
v 23.568445 18.736109 -3.461304
vt 1.000000 0.056116
vt 1.000000 0.972093
vt 0.000000 0.972093
vt 0.000000 0.056116
vt 0.949282 0.000000
vt 0.949282 1.000000
vt 0.050718 1.000000
vt 0.050718 0.000000
vt 0.971581 0.000000
vt 0.971581 1.000000
vt 0.028037 1.000000
vt 0.028037 0.000000
vt 0.953883 0.000000
vt 0.953883 1.000000
vt 0.023059 0.996613
vt 0.023059 0.003387
vn -0.1025 -0.0841 0.9912
vn -0.7730 -0.6344 -0.0005
vn 0.0051 0.0042 -1.0000
vn 0.7730 0.6344 0.0000
usemtl None.001
s off
f 110/209/53 106/210/53 105/211/53 107/212/53
f 111/213/54 112/214/54 105/215/54 106/216/54
f 112/217/55 111/218/55 109/219/55 108/220/55
f 108/221/56 109/222/56 110/223/56 107/224/56
o Circle_Circle.004
v 23.567163 18.735250 -0.494574
v 25.762480 20.202118 -0.143126
v 25.762579 20.202188 -3.443954
v 24.686033 16.641991 -0.494575
v 24.687464 16.642584 -3.461305
v 23.568445 18.736109 -3.461304
v 27.125456 17.652433 -3.443954
v 27.125338 17.652386 -0.143127
vt 0.027907 0.000000
vt 0.943884 0.000000
vt 0.943884 1.000000
vt 0.027908 1.000000
vt 1.000000 0.028419
vt 1.000000 0.971963
vt 0.000000 0.971963
vt 0.000000 0.028419
vt 0.023059 0.003387
vt 0.953883 0.000000
vt 0.953883 1.000000
vt 0.023059 0.996613
vt 0.949282 0.000000
vt 0.949282 1.000000
vt 0.050718 1.000000
vt 0.050718 0.000000
vn -0.1169 -0.0625 0.9912
vn 0.0058 0.0031 -1.0000
vn 0.8819 0.4714 0.0000
vn -0.8819 -0.4714 -0.0005
usemtl None.001
s off
f 116/225/57 120/226/57 114/227/57 113/228/57
f 118/229/58 115/230/58 119/231/58 117/232/58
f 120/233/59 119/234/59 115/235/59 114/236/59
f 118/237/60 117/238/60 116/239/60 113/240/60
o Circle_Circle.002
v 27.964590 14.885768 -0.143127
v 25.375036 14.370674 -0.494576
v 27.964714 14.885794 -3.443955
v 25.376549 14.370973 -3.461305
v 24.686033 16.641991 -0.494575
v 24.687464 16.642584 -3.461305
v 27.125456 17.652433 -3.443954
v 27.125338 17.652386 -0.143127
vt 0.971941 0.000000
vt 0.971942 1.000000
vt 0.055814 1.000000
vt 0.055814 0.000000
vt 0.000000 0.028419
vt 1.000000 0.028419
vt 1.000000 0.971963
vt 0.000000 0.971963
vt 0.046117 0.000000
vt 0.953883 0.000000
vt 0.953883 1.000000
vt 0.046117 1.000000
vt 0.949282 0.000000
vt 0.949282 1.000000
vt 0.025359 1.000000
vt 0.025359 0.000000
vn -0.1269 -0.0385 0.9912
vn 0.0063 0.0019 -1.0000
vn 0.9569 0.2903 0.0000
vn -0.9569 -0.2903 -0.0005
usemtl None.001
s off
f 121/241/61 128/242/61 125/243/61 122/244/61
f 124/245/62 126/246/62 127/247/62 123/248/62
f 121/249/63 123/250/63 127/251/63 128/252/63
f 126/253/64 124/254/64 122/255/64 125/256/64
o Circle_Circle.001
v 28.259361 12.008299 -0.143128
v 27.964590 14.885768 -0.143127
v 25.375036 14.370674 -0.494576
v 25.620632 12.008300 -3.461306
v 27.964714 14.885794 -3.443955
v 25.376549 14.370973 -3.461305
v 25.619072 12.008299 -0.494576
v 28.259472 12.008301 -3.443956
vt 1.000000 0.028058
vt 1.000000 0.944185
vt 0.000000 0.944185
vt 0.000000 0.028058
vt 0.971581 0.000000
vt 0.971581 1.000000
vt 0.028036 1.000000
vt 0.028036 0.000000
vt 0.953883 0.000000
vt 0.953883 1.000000
vt 0.046117 1.000000
vt 0.046117 0.000000
vt 0.949282 0.000000
vt 0.949282 1.000000
vt 0.025359 1.000000
vt 0.025359 0.000000
vn -0.1319 -0.0136 0.9912
vn 0.0066 0.0007 -1.0000
vn 0.9948 0.1019 0.0000
vn -0.9947 -0.1028 -0.0005
usemtl None.001
s off
f 130/257/65 131/258/65 135/259/65 129/260/65
f 132/261/66 134/262/66 133/263/66 136/264/66
f 136/265/67 133/266/67 130/267/67 129/268/67
f 134/269/68 132/270/68 135/271/68 131/272/68
o Circle_Circle.000
v 28.259361 12.008299 -0.143128
v 25.620632 12.008300 -3.461306
v 25.665001 0.120921 -3.452386
v 28.237764 0.120919 -0.154633
v 28.237898 0.120919 -3.432717
v 25.663361 0.120921 -0.503307
v 25.619072 12.008299 -0.494576
v 28.259472 12.008301 -3.443956
vt 0.953883 0.000000
vt 0.953883 1.000000
vt 0.023059 1.000000
vt 0.046117 0.000000
vt 0.971570 1.000000
vt 0.028050 1.000000
vt 0.028050 0.000000
vt 0.971570 0.000000
vt 0.949282 0.000000
vt 0.949282 1.000000
vt 0.025359 1.000000
vt 0.025359 0.000000
vt 0.000000 0.944185
vt 0.000000 0.028059
vt 1.000000 0.056118
vt 1.000000 0.944185
vn 1.0000 -0.0018 0.0000
vn 0.0071 -0.0008 -1.0000
vn -1.0000 -0.0037 -0.0005
vn -0.1331 -0.0010 0.9911
usemtl None.001
s off
f 141/273/69 144/274/69 137/275/69 140/276/69
f 138/277/70 144/278/70 141/279/70 139/280/70
f 138/281/71 139/282/71 142/283/71 143/284/71
f 142/285/72 140/286/72 137/287/72 143/288/72
o Circle_001_Circle.018
v 27.000000 0.000005 -14.000011
v 27.000000 0.000003 -1.787851
v 25.672050 12.000011 -14.000000
v 27.000000 12.000011 -14.000010
v 25.672050 0.000008 -14.000002
v 25.672050 0.000006 -1.787850
v 25.672050 12.000010 -1.787848
v 27.000000 12.000010 -1.787849
vt -0.423655 -1.457651
vt 0.539544 -1.457650
vt 0.539543 -1.351060
vt -0.423655 -1.351061
vt 1.519772 -0.494452
vt 0.539544 -0.494452
vt 0.539544 -1.457651
vt 1.519772 -1.457651
vt -1.500000 2.363491
vt -1.500000 1.400293
vt -0.519773 1.400293
vt -0.519773 2.363491
vn -0.0000 0.0000 -1.0000
vn 1.0000 0.0000 0.0000
vn -1.0000 -0.0000 0.0000
usemtl None.001
s off
f 148/289/73 145/290/73 149/291/73 147/292/73
s 1
f 148/293/74 152/294/74 146/295/74 145/296/74
f 150/297/75 151/298/75 147/299/75 149/300/75
o Circle_001_Circle.017
v 25.438169 14.374661 -14.000000
v 26.740593 14.616101 -14.000000
v 25.672050 12.000011 -14.000000
v 27.000000 12.000011 -14.000010
v 25.672050 12.000010 -1.787848
v 27.000000 12.000010 -1.787849
v 25.438169 14.374660 -1.787848
v 26.740593 14.616099 -1.787849
vt -0.423655 -1.351061
vt -0.614260 -1.332288
vt -0.633640 -1.436829
vt -0.423655 -1.457651
vt -0.519773 1.400293
vt -1.500000 1.400293
vt -1.500000 1.209694
vt -0.519773 1.209694
vt 0.539544 -0.494452
vt 1.519772 -0.494452
vt 1.519771 -0.284460
vt 0.539544 -0.284460
vn -0.0000 0.0000 -1.0000
vn -0.9952 -0.0980 -0.0000
vn 0.9951 0.0987 0.0000
usemtl None.001
s off
f 155/301/76 153/302/76 154/303/76 156/304/76
s 1
f 155/305/77 157/306/77 159/307/77 153/308/77
f 158/309/78 156/310/78 154/311/78 160/312/78
o Circle_001_Circle.016
v 25.438169 14.374661 -14.000000
v 25.972363 17.131662 -13.999999
v 26.740593 14.616101 -14.000000
v 24.745510 16.658062 -14.000009
v 25.972363 17.131660 -1.787847
v 24.745510 16.658060 -1.787847
v 25.438169 14.374660 -1.787848
v 26.740593 14.616099 -1.787849
vt -0.614260 -1.332288
vt -0.797541 -1.276691
vt -0.835555 -1.375166
vt -0.633640 -1.436829
vt 1.519771 -0.284460
vt 1.519771 -0.082523
vt 0.539544 -0.082523
vt 0.539544 -0.284460
vt -1.500000 1.026434
vt -0.519772 1.026433
vt -0.519773 1.209694
vt -1.500000 1.209694
vn 0.0000 -0.0000 -1.0000
vn 0.9564 0.2921 0.0000
vn -0.9569 -0.2903 -0.0000
usemtl None.001
s off
f 161/313/79 164/314/79 162/315/79 163/316/79
s 1
f 163/317/80 162/318/80 165/319/80 168/320/80
f 166/321/81 164/322/81 161/323/81 167/324/81
o Circle_001_Circle.015
v 25.972363 17.131662 -13.999999
v 23.620680 18.762442 -13.999999
v 24.724834 19.450012 -13.999999
v 24.745510 16.658062 -14.000009
v 24.724834 19.450010 -1.787847
v 25.972363 17.131660 -1.787847
v 24.745510 16.658060 -1.787847
v 23.620680 18.762440 -1.787847
vt -0.835555 -1.375166
vt -0.797541 -1.276691
vt -0.966452 -1.186405
vt -1.021641 -1.275031
vt 1.519771 -0.082523
vt 1.519771 0.103599
vt 0.539544 0.103599
vt 0.539544 -0.082523
vt -0.519773 0.857555
vt -0.519772 1.026433
vt -1.500000 1.026434
vt -1.500000 0.857555
vn 0.0000 0.0000 -1.0000
vn 0.8806 0.4739 0.0000
vn -0.8819 -0.4714 0.0000
usemtl None.001
s off
f 169/325/82 172/326/82 170/327/82 171/328/82
s 1
f 169/329/83 171/330/83 173/331/83 174/332/83
f 170/333/84 172/334/84 175/335/84 176/336/84
o Circle_001_Circle.014
v 22.106930 20.606951 -13.999998
v 23.045929 21.482052 -13.999998
v 23.620680 18.762442 -13.999999
v 24.724834 19.450012 -13.999999
v 24.724834 19.450010 -1.787847
v 23.045929 21.482050 -1.787847
v 22.106930 20.606949 -1.787847
v 23.620680 18.762440 -1.787847
vt -0.966452 -1.186405
vt -1.114504 -1.064901
vt -1.184746 -1.140272
vt -1.021641 -1.275031
vt -0.519773 0.857555
vt -1.500000 0.857555
vt -1.500000 0.709546
vt -0.519773 0.709546
vt 1.519771 0.103599
vt 1.519771 0.266752
vt 0.539544 0.266752
vt 0.539544 0.103599
vn -0.0000 0.0000 -1.0000
vn -0.7730 -0.6344 -0.0000
vn 0.7709 0.6369 0.0000
usemtl None.001
s off
f 179/337/85 177/338/85 178/339/85 180/340/85
s 1
f 179/341/86 184/342/86 183/343/86 177/344/86
f 180/345/87 178/346/87 182/347/87 181/348/87
o Circle_001_Circle.013
v 22.106930 20.606951 -13.999998
v 21.000181 23.149712 -13.999998
v 23.045929 21.482052 -13.999998
v 20.262417 22.120701 -13.999998
v 20.262417 22.120699 -1.787846
v 21.000181 23.149710 -1.787846
v 23.045929 21.482050 -1.787847
v 22.106930 20.606949 -1.787847
vt -1.114504 -1.064901
vt -1.236008 -0.916849
vt -1.318603 -0.976067
vt -1.184746 -1.140272
vt 1.519773 0.067492
vt 2.500000 0.067492
vt 2.500000 0.215545
vt 1.519773 0.215545
vt 2.499999 -1.457651
vt 2.499999 -1.307273
vt 1.519772 -1.307273
vt 1.519772 -1.457650
vn 0.0000 0.0000 -1.0000
vn -0.6344 -0.7730 -0.0000
vn 0.6318 0.7751 0.0000
usemtl None.001
s off
f 185/349/88 188/350/88 186/351/88 187/352/88
s 1
f 185/353/89 192/354/89 189/355/89 188/356/89
f 187/357/90 186/358/90 190/359/90 191/360/90
o Circle_001_Circle.012
v 21.000181 23.149712 -13.999998
v 18.158028 23.245522 -13.999998
v 18.666206 24.388901 -13.999998
v 20.262417 22.120701 -13.999998
v 20.262417 22.120699 -1.787846
v 18.666206 24.388899 -1.787846
v 21.000181 23.149710 -1.787846
v 18.158028 23.245520 -1.787846
vt -1.236008 -0.916849
vt -1.326293 -0.747937
vt -1.418068 -0.788727
vt -1.318603 -0.976067
vt 1.519773 0.215545
vt 2.500000 0.215545
vt 2.500000 0.384457
vt 1.519773 0.384457
vt 2.499999 -1.307273
vt 2.499999 -1.130519
vt 1.519772 -1.130519
vt 1.519772 -1.307273
vn 0.0000 0.0000 -1.0000
vn -0.4714 -0.8819 -0.0000
vn 0.4689 0.8832 0.0000
usemtl None.001
s off
f 196/361/91 194/362/91 195/363/91 193/364/91
s 1
f 196/365/92 197/366/92 200/367/92 194/368/92
f 193/369/93 195/370/93 198/371/93 199/372/93
o Circle_001_Circle.011
v 18.158028 23.245522 -13.999998
v 16.133698 25.151981 -13.999998
v 18.666206 24.388901 -13.999998
v 15.874632 23.938171 -13.999998
v 16.133698 25.151979 -1.787846
v 18.666206 24.388899 -1.787846
v 15.874632 23.938169 -1.787846
v 18.158028 23.245520 -1.787846
vt -1.326293 -0.747937
vt -1.381890 -0.564657
vt -1.479318 -0.585451
vt -1.418068 -0.788727
vt 1.519773 0.384457
vt 2.500000 0.384457
vt 2.500000 0.567737
vt 1.519773 0.567737
vt 2.499999 -1.130519
vt 2.499999 -0.934180
vt 1.519772 -0.934180
vt 1.519772 -1.130519
vn 0.0000 0.0000 -1.0000
vn -0.2903 -0.9569 -0.0000
vn 0.2885 0.9575 0.0000
usemtl None.001
s off
f 201/373/94 204/374/94 202/375/94 203/376/94
s 1
f 201/377/95 208/378/95 207/379/95 204/380/95
f 203/381/96 202/382/96 205/383/96 206/384/96
o Circle_001_Circle.010
v 13.500000 24.172050 -14.000008
v 16.133698 25.151981 -13.999998
v 13.500000 25.409641 -14.000008
v 15.874632 23.938171 -13.999998
v 13.500000 24.172049 -1.787846
v 13.500000 25.409639 -1.787846
v 16.133698 25.151979 -1.787846
v 15.874632 23.938169 -1.787846
vt -1.500000 -0.374053
vt -1.479318 -0.585451
vt -1.381890 -0.564657
vt -1.400663 -0.374053
vt 1.519772 -0.725804
vt 1.519772 -0.934180
vt 2.499999 -0.934180
vt 2.500000 -0.725805
vt 2.500000 0.758341
vt 1.519772 0.758341
vt 1.519773 0.567737
vt 2.500000 0.567737
vn 0.0000 -0.0000 -1.0000
vn 0.0974 0.9952 0.0000
vn -0.0980 -0.9952 -0.0000
usemtl None.001
s off
f 211/385/97 210/386/97 212/387/97 209/388/97
s 1
f 214/389/98 215/390/98 210/391/98 211/392/98
f 213/393/99 209/394/99 212/395/99 216/396/99
o Circle_001_Circle.009
v 10.866281 25.151981 -13.999998
v 13.500000 24.172050 -14.000008
v 11.125350 23.938171 -13.999998
v 13.500000 25.409641 -14.000008
v 13.500000 24.172049 -1.787846
v 11.125350 23.938169 -1.787846
v 13.500000 25.409639 -1.787846
v 10.866281 25.151979 -1.787846
vt -1.479319 -0.162654
vt -1.500000 -0.374053
vt -1.400663 -0.374053
vt -1.381890 -0.183448
vt 1.519773 0.948946
vt 1.519772 0.758341
vt 2.500000 0.758341
vt 2.500000 0.948946
vt 1.519772 -0.725804
vt 2.500000 -0.725805
vt 2.499999 -0.513396
vt 1.519772 -0.513396
vn -0.0000 -0.0000 -1.0000
vn 0.0980 -0.9952 -0.0000
vn -0.0974 0.9952 0.0000
usemtl None.001
s off
f 217/397/100 220/398/100 218/399/100 219/400/100
s 1
f 219/401/101 218/402/101 221/403/101 222/404/101
f 223/405/102 220/406/102 217/407/102 224/408/102
o Circle_001_Circle.008
v 10.866281 25.151981 -13.999998
v 11.125350 23.938171 -13.999998
v 8.333774 24.388891 -13.999998
v 8.841956 23.245512 -13.999998
v 11.125350 23.938169 -1.787846
v 10.866281 25.151979 -1.787846
v 8.333774 24.388889 -1.787846
v 8.841956 23.245510 -1.787846
vt -1.418068 0.040622
vt -1.479319 -0.162654
vt -1.381890 -0.183448
vt -1.326293 -0.000168
vt 2.499999 -0.513396
vt 2.499999 -0.305119
vt 1.519772 -0.305118
vt 1.519772 -0.513396
vt 1.519773 0.948946
vt 2.500000 0.948946
vt 2.500000 1.132226
vt 1.519773 1.132226
vn -0.0000 0.0000 -1.0000
vn -0.2885 0.9575 0.0000
vn 0.2903 -0.9569 -0.0000
usemtl None.001
s off
f 227/409/103 225/410/103 226/411/103 228/412/103
s 1
f 225/413/104 227/414/104 231/415/104 230/416/104
f 226/417/105 229/418/105 232/419/105 228/420/105
o Circle_001_Circle.007
v 8.333774 24.388891 -13.999998
v 8.841956 23.245512 -13.999998
v 5.999803 23.149702 -13.999998
v 6.737569 22.120691 -13.999998
v 6.737569 22.120689 -1.787846
v 5.999803 23.149700 -1.787846
v 8.333774 24.388889 -1.787846
v 8.841956 23.245510 -1.787846
vt -1.326293 -0.000168
vt -1.236008 0.168744
vt -1.318603 0.227961
vt -1.418068 0.040622
vt 1.519773 1.132226
vt 2.500000 1.132226
vt 2.500000 1.301137
vt 1.519773 1.301137
vt 2.499999 -0.305119
vt 2.499999 -0.108977
vt 1.519772 -0.108976
vt 1.519772 -0.305118
vn 0.0000 0.0000 -1.0000
vn 0.4714 -0.8819 -0.0000
vn -0.4689 0.8832 0.0000
usemtl None.001
s off
f 234/421/106 236/422/106 235/423/106 233/424/106
s 1
f 234/425/107 240/426/107 237/427/107 236/428/107
f 233/429/108 235/430/108 238/431/108 239/432/108
o Circle_001_Circle.006
v 4.893057 20.606941 -13.999998
v 3.954059 21.482042 -13.999998
v 5.999803 23.149702 -13.999998
v 6.737569 22.120691 -13.999998
v 6.737569 22.120689 -1.787846
v 3.954059 21.482040 -1.787847
v 5.999803 23.149700 -1.787846
v 4.893057 20.606939 -1.787847
vt -1.114504 0.316796
vt -1.184746 0.392166
vt -1.318603 0.227961
vt -1.236008 0.168744
vt 2.499999 -0.108977
vt 2.499999 0.067492
vt 1.519772 0.067492
vt 1.519772 -0.108976
vt 1.519773 1.301137
vt 2.500000 1.301137
vt 2.500000 1.449190
vt 1.519773 1.449190
vn 0.0000 0.0000 -1.0000
vn -0.6318 0.7751 0.0000
vn 0.6344 -0.7730 0.0000
usemtl None.001
s off
f 241/433/109 242/434/109 243/435/109 244/436/109
s 1
f 243/437/110 242/438/110 246/439/110 247/440/110
f 244/441/111 245/442/111 248/443/111 241/444/111
o Circle_001_Circle.005
v 2.275158 19.449991 -14.000009
v 3.379311 18.762432 -13.999999
v 4.893057 20.606941 -13.999998
v 3.954059 21.482042 -13.999998
v 2.275158 19.449989 -1.787847
v 3.954059 21.482040 -1.787847
v 3.379311 18.762430 -1.787847
v 4.893057 20.606939 -1.787847
vt -1.114504 0.316796
vt -0.966452 0.438300
vt -1.021640 0.526926
vt -1.184746 0.392166
vt 1.519772 1.828001
vt 1.519772 1.991156
vt 0.539545 1.991156
vt 0.539544 1.828002
vt -0.519772 0.709546
vt 0.460455 0.709546
vt 0.460455 0.857554
vt -0.519772 0.857555
vn 0.0000 -0.0000 -1.0000
vn -0.7709 0.6369 0.0000
vn 0.7730 -0.6344 -0.0000
usemtl None.001
s off
f 251/445/112 250/446/112 249/447/112 252/448/112
s 1
f 253/449/113 254/450/113 252/451/113 249/452/113
f 251/453/114 256/454/114 255/455/114 250/456/114
o Circle_001_Circle.003
v 1.027629 17.131641 -13.999999
v 2.254490 16.658041 -13.999999
v 2.275158 19.449991 -14.000009
v 3.379311 18.762432 -13.999999
v 2.275158 19.449989 -1.787847
v 1.027629 17.131639 -1.787847
v 3.379311 18.762430 -1.787847
v 2.254490 16.658039 -1.787847
vt -0.797540 0.528585
vt -0.835554 0.627061
vt -1.021640 0.526926
vt -0.966452 0.438300
vt -0.519772 0.857555
vt 0.460455 0.857554
vt 0.460455 1.026434
vt -0.519772 1.026434
vt 1.519772 1.828001
vt 0.539544 1.828002
vt 0.539545 1.641880
vt 1.519772 1.641880
vn 0.0000 -0.0000 -1.0000
vn 0.8819 -0.4714 0.0000
vn -0.8806 0.4739 0.0000
usemtl None.001
s off
f 258/457/115 257/458/115 259/459/115 260/460/115
s 1
f 260/461/116 263/462/116 264/463/116 258/464/116
f 261/465/117 259/466/117 257/467/117 262/468/117
o Circle_001_Circle.002
v 1.027629 17.131641 -13.999999
v 1.561831 14.374652 -14.000000
v 0.259397 14.616092 -14.000000
v 2.254490 16.658041 -13.999999
v 1.027629 17.131639 -1.787847
v 1.561831 14.374650 -1.787848
v 0.259397 14.616090 -1.787849
v 2.254490 16.658039 -1.787847
vt -0.835554 0.627061
vt -0.797540 0.528585
vt -0.614260 0.584183
vt -0.633640 0.688724
vt 0.539545 1.641880
vt 0.539545 1.439944
vt 1.519772 1.439943
vt 1.519772 1.641880
vt -0.519772 1.026434
vt 0.460455 1.026434
vt 0.460455 1.209694
vt -0.519772 1.209694
vn 0.0000 0.0000 -1.0000
vn -0.9564 0.2921 0.0000
vn 0.9569 -0.2903 -0.0000
usemtl None.001
s off
f 265/469/118 268/470/118 266/471/118 267/472/118
s 1
f 265/473/119 267/474/119 271/475/119 269/476/119
f 268/477/120 272/478/120 270/479/120 266/480/120
o Circle_001_Circle.001
v 1.561831 14.374652 -14.000000
v 0.259397 14.616092 -14.000000
v 1.327950 12.000002 -14.000010
v 0.000000 12.000002 -14.000000
v 0.000000 12.000000 -1.787849
v 1.327950 12.000000 -1.787848
v 1.561831 14.374650 -1.787848
v 0.259397 14.616090 -1.787849
vt -0.423656 0.602955
vt -0.423656 0.709545
vt -0.633640 0.688724
vt -0.614260 0.584183
vt 0.539545 1.439944
vt 0.539545 1.229951
vt 1.519771 1.229951
vt 1.519772 1.439943
vt 0.460455 1.400292
vt -0.519772 1.400292
vt -0.519772 1.209694
vt 0.460455 1.209694
vn -0.0000 0.0000 -1.0000
vn -0.9951 0.0987 0.0000
vn 0.9952 -0.0980 -0.0000
usemtl None.001
s off
f 275/481/121 276/482/121 274/483/121 273/484/121
s 1
f 274/485/122 276/486/122 277/487/122 280/488/122
f 278/489/123 275/490/123 273/491/123 279/492/123
o Circle_001_Circle.000
v 1.327950 12.000002 -14.000010
v 0.000000 12.000002 -14.000000
v 1.327950 -0.000003 -14.000002
v 0.000000 -0.000006 -14.000002
v 1.327950 -0.000005 -1.787850
v 0.000000 -0.000008 -1.787851
v 0.000000 12.000000 -1.787849
v 1.327950 12.000000 -1.787848
vt -0.423656 0.602955
vt 0.539543 0.602956
vt 0.539543 0.709546
vt -0.423656 0.709545
vt 0.460455 1.400292
vt 0.460456 2.363491
vt -0.519771 2.363491
vt -0.519772 1.400292
vt 0.539545 1.229951
vt 0.539545 0.266753
vt 1.519771 0.266752
vt 1.519771 1.229951
vn -0.0000 -0.0000 -1.0000
vn 1.0000 -0.0000 0.0000
vn -1.0000 0.0000 0.0000
usemtl None.001
s off
f 281/493/124 283/494/124 284/495/124 282/496/124
s 1
f 288/497/125 285/498/125 283/499/125 281/500/125
f 282/501/126 284/502/126 286/503/126 287/504/126
