# Blender v2.79 (sub 0) OBJ File: 'Tunel_col.blend'
# www.blender.org
mtllib Tunel_col.mtl
o Circle.018
v 0.000001 -0.000008 -0.000000
v 0.000001 -0.000006 -13.000003
v 1.327947 -0.000003 -13.000003
v 1.327947 -0.000005 -0.000000
v 1.327947 12.000000 -13.000001
v 0.000001 12.000000 -13.000001
v 1.327947 11.999998 0.000002
v 0.000001 11.999998 0.000002
vt 0.091170 0.084217
vt 0.091170 0.166164
vt -0.649347 0.166164
vt -0.649347 0.084217
vt 0.091170 0.084217
vt 0.831688 0.084216
vt 0.831688 0.166164
vt 0.091170 0.166164
vt -1.476852 0.751387
vt -0.674625 0.751387
vt -0.674625 1.491904
vt -1.476852 1.491905
vt 1.732057 0.166164
vt 1.732057 0.906682
vt 0.929830 0.906682
vt 0.929830 0.166164
vn -0.0000 0.0000 -1.0000
vn 0.0000 -0.0000 1.0000
vn -1.0000 0.0000 0.0000
vn 1.0000 0.0000 0.0000
usemtl None
s off
f 3/1/1 2/2/1 6/3/1 5/4/1
f 4/5/2 7/6/2 8/7/2 1/8/2
s 1
f 8/9/3 6/10/3 2/11/3 1/12/3
f 3/13/4 5/14/4 7/15/4 4/16/4
o Circle.017
v 1.327947 12.000000 -13.000001
v 0.000001 12.000000 -13.000001
v 0.259400 14.616090 -13.000001
v 1.561829 14.374650 -13.000001
v 1.327947 11.999998 0.000002
v 1.561829 14.374648 0.000002
v 0.259400 14.616088 0.000002
v 0.000001 11.999998 0.000002
vt -0.649347 0.084217
vt -0.649347 0.166164
vt -0.810786 0.150156
vt -0.795887 0.069784
vt 0.831688 0.084216
vt 0.978227 0.069784
vt 0.993126 0.150156
vt 0.831688 0.166164
vt 1.732057 0.906682
vt 1.732057 1.053216
vt 0.929830 1.053216
vt 0.929830 0.906682
vt -1.476853 0.589943
vt -0.674625 0.589943
vt -0.674625 0.751387
vt -1.476852 0.751387
vn -0.0000 0.0000 -1.0000
vn 0.0000 -0.0000 1.0000
vn 0.9952 -0.0980 -0.0000
vn -0.9951 0.0987 0.0000
usemtl None
s off
f 9/17/5 10/18/5 11/19/5 12/20/5
f 13/21/6 14/22/6 15/23/6 16/24/6
s 1
f 9/25/7 12/26/7 14/27/7 13/28/7
f 15/29/8 11/30/8 10/31/8 16/32/8
o Circle.016
v 2.254488 16.658043 -13.000000
v 1.027626 17.131645 -13.000000
v 0.259400 14.616090 -13.000001
v 1.561829 14.374650 -13.000001
v 1.027626 17.131643 0.000003
v 2.254488 16.658041 0.000003
v 1.561829 14.374648 0.000002
v 0.259400 14.616088 0.000002
vt -0.966020 0.102749
vt -0.936794 0.027040
vt -0.795887 0.069784
vt -0.810786 0.150156
vt 0.978227 0.069784
vt 1.119135 0.027040
vt 1.148360 0.102749
vt 0.993126 0.150156
vt -1.476853 0.434692
vt -0.674625 0.434691
vt -0.674625 0.589943
vt -1.476853 0.589943
vt 1.732057 1.053216
vt 1.732057 1.194108
vt 0.929830 1.194108
vt 0.929830 1.053216
vn 0.0000 0.0000 -1.0000
vn -0.0000 -0.0000 1.0000
vn -0.9564 0.2921 0.0000
vn 0.9569 -0.2903 -0.0000
usemtl None
s off
f 18/33/9 17/34/9 20/35/9 19/36/9
f 23/37/10 22/38/10 21/39/10 24/40/10
s 1
f 21/41/11 18/42/11 19/43/11 24/44/11
f 20/45/12 17/46/12 22/47/12 23/48/12
o Circle.015
v 2.254488 16.658043 -13.000000
v 1.027626 17.131645 -13.000000
v 2.275161 19.449995 -13.000000
v 3.379306 18.762430 -13.000000
v 1.027626 17.131643 0.000003
v 2.254488 16.658041 0.000003
v 3.379306 18.762428 0.000003
v 2.275161 19.449993 0.000003
vt -0.936794 0.027040
vt -0.966020 0.102749
vt -1.109085 0.025764
vt -1.066655 -0.042372
vt 1.148360 0.102749
vt 1.119135 0.027040
vt 1.248996 -0.042372
vt 1.291425 0.025764
vt -1.476853 0.291599
vt -0.674625 0.291599
vt -0.674625 0.434691
vt -1.476853 0.434692
vt 1.732057 1.194108
vt 1.732057 1.323944
vt 0.929830 1.323944
vt 0.929830 1.194108
vn 0.0000 0.0000 -1.0000
vn 0.0000 -0.0000 1.0000
vn -0.8806 0.4739 0.0000
vn 0.8819 -0.4714 0.0000
usemtl None
s off
f 25/49/13 26/50/13 27/51/13 28/52/13
f 29/53/14 30/54/14 31/55/14 32/56/14
s 1
f 32/57/15 27/58/15 26/59/15 29/60/15
f 25/61/16 28/62/16 31/63/16 30/64/16
o Circle.014
v 2.275161 19.449995 -13.000000
v 3.379306 18.762430 -13.000000
v 4.893058 20.606941 -12.999999
v 3.954060 21.482046 -12.999999
v 3.379306 18.762428 0.000003
v 2.275161 19.449993 0.000003
v 4.893058 20.606939 0.000003
v 3.954060 21.482044 0.000003
vt -1.180480 -0.135786
vt -1.066655 -0.042372
vt -1.109085 0.025764
vt -1.234482 -0.077840
vt 1.248996 -0.042372
vt 1.362820 -0.135786
vt 1.416823 -0.077840
vt 1.291425 0.025764
vt 1.732057 1.323944
vt 1.732057 1.437735
vt 0.929830 1.437735
vt 0.929830 1.323944
vt -1.476853 0.166165
vt -0.674625 0.166164
vt -0.674625 0.291599
vt -1.476853 0.291599
vn 0.0000 0.0000 -1.0000
vn 0.0000 -0.0000 1.0000
vn 0.7730 -0.6344 0.0000
vn -0.7709 0.6369 0.0000
usemtl None
s off
f 35/65/17 34/66/17 33/67/17 36/68/17
f 37/69/18 39/70/18 40/71/18 38/72/18
s 1
f 34/73/19 35/74/19 39/75/19 37/76/19
f 40/77/20 36/78/20 33/79/20 38/80/20
o Circle.013
v 6.737569 22.120693 -12.999999
v 5.999803 23.149706 -12.999999
v 4.893058 20.606941 -12.999999
v 3.954060 21.482046 -12.999999
v 4.893058 20.606939 0.000003
v 6.737569 22.120691 0.000004
v 5.999803 23.149704 0.000004
v 3.954060 21.482044 0.000003
vt -1.273893 -0.249610
vt -1.180480 -0.135786
vt -1.234482 -0.077840
vt -1.337393 -0.204083
vt 1.362820 -0.135786
vt 1.456234 -0.249610
vt 1.519734 -0.204083
vt 1.416823 -0.077840
vt 0.127602 2.500000
vt 0.127603 2.386176
vt 0.929830 2.386176
vt 0.929830 2.500000
vt 1.659194 -0.463125
vt 2.461421 -0.463125
vt 2.461421 -0.327454
vt 1.659194 -0.327454
vn -0.0000 0.0000 -1.0000
vn -0.0000 -0.0000 1.0000
vn 0.6344 -0.7730 -0.0000
vn -0.6318 0.7751 0.0000
usemtl None
s off
f 41/81/21 43/82/21 44/83/21 42/84/21
f 45/85/22 46/86/22 47/87/22 48/88/22
s 1
f 43/89/23 41/90/23 46/91/23 45/92/23
f 47/93/24 42/94/24 44/95/24 48/96/24
o Circle.012
v 8.841956 23.245512 -12.999999
v 8.333774 24.388891 -12.999999
v 6.737569 22.120693 -12.999999
v 5.999803 23.149706 -12.999999
v 8.841956 23.245510 0.000004
v 8.333774 24.388889 0.000004
v 6.737569 22.120691 0.000004
v 5.999803 23.149704 0.000004
vt -1.343305 -0.379471
vt -1.273893 -0.249610
vt -1.337393 -0.204083
vt -1.413863 -0.348112
vt 1.456234 -0.249610
vt 1.525646 -0.379472
vt 1.596204 -0.348112
vt 1.519734 -0.204083
vt 0.127603 2.386176
vt 0.127603 2.256314
vt 0.929830 2.256314
vt 0.929830 2.386176
vt 1.659194 -0.613921
vt 2.461421 -0.613921
vt 2.461421 -0.463125
vt 1.659194 -0.463125
vn -0.0000 0.0000 -1.0000
vn 0.0000 -0.0000 1.0000
vn 0.4714 -0.8819 0.0000
vn -0.4689 0.8832 0.0000
usemtl None
s off
f 49/97/25 51/98/25 52/99/25 50/100/25
f 55/101/26 53/102/26 54/103/26 56/104/26
s 1
f 51/105/27 49/106/27 53/107/27 55/108/27
f 54/109/28 50/110/28 52/111/28 56/112/28
o Circle.011
v 8.841956 23.245512 -12.999999
v 8.333774 24.388891 -12.999999
v 10.866281 25.151978 -12.999999
v 11.125350 23.938169 -12.999999
v 10.866281 25.151976 0.000004
v 11.125350 23.938168 0.000004
v 8.841956 23.245510 0.000004
v 8.333774 24.388889 0.000004
vt -1.343305 -0.379471
vt -1.413863 -0.348112
vt -1.460953 -0.504392
vt -1.386049 -0.520379
vt 1.525646 -0.379472
vt 1.568390 -0.520379
vt 1.643294 -0.504392
vt 1.596204 -0.348112
vt 0.127603 2.256314
vt 0.127603 2.115407
vt 0.929830 2.115407
vt 0.929830 2.256314
vt 1.659194 -0.774047
vt 2.461421 -0.774047
vt 2.461421 -0.613921
vt 1.659194 -0.613921
vn 0.0000 0.0000 -1.0000
vn 0.0000 -0.0000 1.0000
vn 0.2903 -0.9569 -0.0000
vn -0.2885 0.9575 0.0000
usemtl None
s off
f 57/113/29 58/114/29 59/115/29 60/116/29
f 63/117/30 62/118/30 61/119/30 64/120/30
s 1
f 57/121/31 60/122/31 62/123/31 63/124/31
f 61/125/32 59/126/32 58/127/32 64/128/32
o Circle.010
v 13.500000 24.172054 -12.999999
v 13.500000 25.409637 -12.999999
v 10.866281 25.151978 -12.999999
v 11.125350 23.938169 -12.999999
v 13.500000 24.172052 0.000004
v 13.500000 25.409636 0.000004
v 10.866281 25.151976 0.000004
v 11.125350 23.938168 0.000004
vt -1.386049 -0.520379
vt -1.460953 -0.504392
vt -1.476853 -0.666918
vt -1.400482 -0.666918
vt 1.582823 -0.666918
vt 1.659194 -0.666918
vt 1.643294 -0.504392
vt 1.568390 -0.520379
vt 1.659194 -0.937349
vt 2.461421 -0.937349
vt 2.461421 -0.774047
vt 1.659194 -0.774047
vt 0.127603 2.115407
vt 0.127602 1.968867
vt 0.929830 1.968867
vt 0.929830 2.115407
vn 0.0000 0.0000 -1.0000
vn -0.0000 -0.0000 1.0000
vn -0.0974 0.9952 0.0000
vn 0.0980 -0.9952 0.0000
usemtl None
s off
f 68/129/33 67/130/33 66/131/33 65/132/33
f 69/133/34 70/134/34 71/135/34 72/136/34
s 1
f 70/137/35 66/138/35 67/139/35 71/140/35
f 68/141/36 65/142/36 69/143/36 72/144/36
o Circle.009
v 13.500000 24.172054 -12.999999
v 13.500000 25.409637 -12.999999
v 16.133698 25.151979 -12.999999
v 15.874632 23.938175 -12.999999
v 13.500000 24.172052 0.000004
v 13.500000 25.409636 0.000004
v 16.133698 25.151978 0.000004
v 15.874632 23.938173 0.000004
vt -1.400482 -0.666918
vt -1.476853 -0.666918
vt -1.460953 -0.829443
vt -1.386049 -0.813456
vt 1.568390 -0.813456
vt 1.643294 -0.829443
vt 1.659194 -0.666918
vt 1.582823 -0.666918
vt 1.659194 -1.097550
vt 2.461421 -1.097550
vt 2.461421 -0.937349
vt 1.659194 -0.937349
vt 0.127602 1.968867
vt 0.127602 1.822329
vt 0.929830 1.822329
vt 0.929830 1.968867
vn -0.0000 0.0000 -1.0000
vn 0.0000 -0.0000 1.0000
vn 0.0974 0.9952 0.0000
vn -0.0980 -0.9952 -0.0000
usemtl None
s off
f 73/145/37 74/146/37 75/147/37 76/148/37
f 80/149/38 79/150/38 78/151/38 77/152/38
s 1
f 79/153/39 75/154/39 74/155/39 78/156/39
f 73/157/40 76/158/40 80/159/40 77/160/40
o Circle.008
v 16.133698 25.151979 -12.999999
v 15.874632 23.938175 -12.999999
v 18.158028 23.245520 -12.999999
v 18.666210 24.388897 -12.999999
v 18.158028 23.245518 0.000004
v 18.666210 24.388895 0.000004
v 16.133698 25.151978 0.000004
v 15.874632 23.938173 0.000004
vt -1.343305 -0.954364
vt -1.386049 -0.813456
vt -1.460953 -0.829443
vt -1.413863 -0.985724
vt 1.525646 -0.954364
vt 1.596204 -0.985724
vt 1.643294 -0.829443
vt 1.568390 -0.813456
vt 1.659194 -1.248497
vt 2.461421 -1.248498
vt 2.461421 -1.097550
vt 1.659194 -1.097550
vt 0.127602 1.822329
vt 0.127602 1.681422
vt 0.929830 1.681422
vt 0.929830 1.822329
vn 0.0000 0.0000 -1.0000
vn 0.0000 -0.0000 1.0000
vn 0.2885 0.9575 0.0000
vn -0.2903 -0.9569 0.0000
usemtl None
s off
f 83/161/41 82/162/41 81/163/41 84/164/41
f 85/165/42 86/166/42 87/167/42 88/168/42
s 1
f 86/169/43 84/170/43 81/171/43 87/172/43
f 82/173/44 83/174/44 85/175/44 88/176/44
o Circle.007
v 18.158028 23.245520 -12.999999
v 18.666210 24.388897 -12.999999
v 20.262417 22.120703 -12.999999
v 21.000181 23.149715 -12.999999
v 18.158028 23.245518 0.000004
v 18.666210 24.388895 0.000004
v 20.262417 22.120701 0.000004
v 21.000181 23.149714 0.000004
vt -1.273893 -1.084225
vt -1.343305 -0.954364
vt -1.413863 -0.985724
vt -1.337393 -1.129753
vt 1.525646 -0.954364
vt 1.456234 -1.084226
vt 1.519734 -1.129753
vt 1.596204 -0.985724
vt 0.127602 1.681422
vt 0.127602 1.551560
vt 0.929830 1.551560
vt 0.929830 1.681422
vt 1.659194 -1.384388
vt 2.461421 -1.384388
vt 2.461421 -1.248498
vt 1.659194 -1.248497
vn 0.0000 0.0000 -1.0000
vn 0.0000 -0.0000 1.0000
vn -0.4714 -0.8819 -0.0000
vn 0.4689 0.8832 0.0000
usemtl None
s off
f 91/177/45 89/178/45 90/179/45 92/180/45
f 93/181/46 95/182/46 96/183/46 94/184/46
s 1
f 89/185/47 91/186/47 95/187/47 93/188/47
f 96/189/48 92/190/48 90/191/48 94/192/48
o Circle.006
v 22.106930 20.606953 -12.999999
v 20.262417 22.120703 -12.999999
v 21.000181 23.149715 -12.999999
v 23.045927 21.482056 -12.999999
v 20.262417 22.120701 0.000004
v 21.000181 23.149714 0.000004
v 22.106930 20.606951 0.000003
v 23.045927 21.482054 0.000003
vt -1.180480 -1.198050
vt -1.273893 -1.084225
vt -1.337393 -1.129753
vt -1.234483 -1.255995
vt 1.456234 -1.084226
vt 1.362821 -1.198050
vt 1.416823 -1.255995
vt 1.519734 -1.129753
vt 0.127602 1.551560
vt 0.127602 1.437736
vt 0.929830 1.437736
vt 0.929830 1.551560
vt 1.659194 -1.500000
vt 2.461421 -1.500000
vt 2.461421 -1.384388
vt 1.659194 -1.384388
vn 0.0000 0.0000 -1.0000
vn 0.0000 -0.0000 1.0000
vn -0.6344 -0.7730 0.0000
vn 0.6318 0.7751 0.0000
usemtl None
s off
f 97/193/49 98/194/49 99/195/49 100/196/49
f 101/197/50 103/198/50 104/199/50 102/200/50
s 1
f 98/201/51 97/202/51 103/203/51 101/204/51
f 104/205/52 100/206/52 99/207/52 102/208/52
o Circle.005
v 23.620686 18.762442 -13.000000
v 24.724827 19.450010 -13.000000
v 22.106930 20.606953 -12.999999
v 23.045927 21.482056 -12.999999
v 24.724827 19.450008 0.000003
v 23.620686 18.762440 0.000003
v 22.106930 20.606951 0.000003
v 23.045927 21.482054 0.000003
vt -1.066656 -1.291463
vt -1.180480 -1.198050
vt -1.234483 -1.255995
vt -1.109086 -1.359600
vt 1.362821 -1.198050
vt 1.248996 -1.291463
vt 1.291426 -1.359600
vt 1.416823 -1.255995
vt -0.674625 1.366470
vt 0.127602 1.366470
vt 0.127602 1.491904
vt -0.674625 1.491904
vt 0.929830 0.166164
vt 0.929830 0.279955
vt 0.127602 0.279956
vt 0.127602 0.166165
vn -0.0000 0.0000 -1.0000
vn 0.0000 -0.0000 1.0000
vn 0.7709 0.6369 0.0000
vn -0.7730 -0.6344 0.0000
usemtl None
s off
f 105/209/53 107/210/53 108/211/53 106/212/53
f 111/213/54 110/214/54 109/215/54 112/216/54
s 1
f 109/217/55 106/218/55 108/219/55 112/220/55
f 107/221/56 105/222/56 110/223/56 111/224/56
o Circle.004
v 25.972366 17.131659 -13.000000
v 24.745506 16.658056 -13.000000
v 23.620686 18.762442 -13.000000
v 24.724827 19.450010 -13.000000
v 24.745506 16.658054 0.000003
v 25.972366 17.131657 0.000003
v 24.724827 19.450008 0.000003
v 23.620686 18.762440 0.000003
vt -0.966021 -1.436585
vt -0.936795 -1.360876
vt -1.066656 -1.291463
vt -1.109086 -1.359600
vt 1.119135 -1.360876
vt 1.148361 -1.436585
vt 1.291426 -1.359600
vt 1.248996 -1.291463
vt 0.929830 0.279955
vt 0.929830 0.409791
vt 0.127602 0.409792
vt 0.127602 0.279956
vt -0.674625 1.223377
vt 0.127602 1.223377
vt 0.127602 1.366470
vt -0.674625 1.366470
vn 0.0000 0.0000 -1.0000
vn 0.0000 -0.0000 1.0000
vn -0.8819 -0.4714 -0.0000
vn 0.8806 0.4739 0.0000
usemtl None
s off
f 113/225/57 114/226/57 115/227/57 116/228/57
f 117/229/58 118/230/58 119/231/58 120/232/58
s 1
f 115/233/59 114/234/59 117/235/59 120/236/59
f 118/237/60 113/238/60 116/239/60 119/240/60
o Circle.003
v 25.972366 17.131659 -13.000000
v 24.745506 16.658056 -13.000000
v 25.438169 14.374661 -13.000001
v 26.740597 14.616103 -13.000001
v 24.745506 16.658054 0.000003
v 25.972366 17.131657 0.000003
v 26.740597 14.616101 0.000002
v 25.438169 14.374660 0.000002
vt -0.795887 -1.403620
vt -0.936795 -1.360876
vt -0.966021 -1.436585
vt -0.810786 -1.483992
vt 1.148361 -1.436585
vt 1.119135 -1.360876
vt 0.978227 -1.403620
vt 0.993127 -1.483993
vt -0.674625 1.068126
vt 0.127602 1.068126
vt 0.127602 1.223377
vt -0.674625 1.223377
vt 0.929830 0.409791
vt 0.929830 0.550684
vt 0.127602 0.550684
vt 0.127602 0.409792
vn -0.0000 0.0000 -1.0000
vn 0.0000 -0.0000 1.0000
vn 0.9564 0.2921 0.0000
vn -0.9569 -0.2903 -0.0000
usemtl None
s off
f 123/241/61 122/242/61 121/243/61 124/244/61
f 126/245/62 125/246/62 128/247/62 127/248/62
s 1
f 127/249/63 124/250/63 121/251/63 126/252/63
f 122/253/64 123/254/64 128/255/64 125/256/64
o Circle.001
v 25.672054 12.000011 -13.000001
v 25.438169 14.374661 -13.000001
v 26.740597 14.616103 -13.000001
v 26.999998 12.000011 -13.000001
v 25.672054 12.000010 0.000002
v 26.999998 12.000010 0.000002
v 26.740597 14.616101 0.000002
v 25.438169 14.374660 0.000002
vt -0.649348 -1.418053
vt -0.795887 -1.403620
vt -0.810786 -1.483992
vt -0.649348 -1.500000
vt 0.831688 -1.418053
vt 0.831688 -1.500000
vt 0.993127 -1.483993
vt 0.978227 -1.403620
vt 0.929830 0.550684
vt 0.929830 0.697218
vt 0.127603 0.697218
vt 0.127602 0.550684
vt -0.674625 0.906682
vt 0.127602 0.906682
vt 0.127602 1.068126
vt -0.674625 1.068126
vn 0.0000 0.0000 -1.0000
vn -0.0000 -0.0000 1.0000
vn -0.9952 -0.0980 -0.0000
vn 0.9951 0.0987 0.0000
usemtl None
s off
f 129/257/65 130/258/65 131/259/65 132/260/65
f 133/261/66 134/262/66 135/263/66 136/264/66
s 1
f 130/265/67 129/266/67 133/267/67 136/268/67
f 134/269/68 132/270/68 131/271/68 135/272/68
o Circle.000
v 25.672054 12.000011 -13.000001
v 26.999998 12.000011 -13.000001
v 25.672054 0.000008 -13.000003
v 26.999998 0.000005 -13.000003
v 26.999998 0.000003 0.000000
v 25.672054 0.000006 0.000000
v 25.672054 12.000010 0.000002
v 26.999998 12.000010 0.000002
vt 0.091171 -1.418053
vt 0.091171 -1.500000
vt 0.831688 -1.500000
vt 0.831688 -1.418053
vt -0.649348 -1.418053
vt -0.649348 -1.500000
vt 0.091170 -1.500000
vt 0.091170 -1.418053
vt 0.929830 0.697218
vt 0.929830 1.437735
vt 0.127603 1.437736
vt 0.127603 0.697218
vt 0.127602 0.166164
vt 0.127602 0.906682
vt -0.674625 0.906682
vt -0.674625 0.166164
vn 0.0000 -0.0000 1.0000
vn 0.0000 0.0000 -1.0000
vn -1.0000 0.0000 0.0000
vn 1.0000 -0.0000 0.0000
usemtl None
s off
f 142/273/69 141/274/69 144/275/69 143/276/69
f 137/277/70 138/278/70 140/279/70 139/280/70
s 1
f 137/281/71 139/282/71 142/283/71 143/284/71
f 140/285/72 138/286/72 144/287/72 141/288/72
