# Blender v2.79 (sub 0) OBJ File: ''
# www.blender.org
mtllib WoodPlank_col.mtl
o Cube_Cube.003_Cube_Cube.013
v 19.890894 0.368917 -0.077018
v 19.878397 0.400000 -0.105835
v 0.199700 0.400000 -0.104444
v 0.187162 0.368917 -0.075867
v 19.773600 0.034076 -0.664991
v 19.954229 0.031115 -0.564996
v 19.923466 0.000579 -0.547836
v 19.708942 0.004254 -0.660137
v 19.954229 0.368917 -0.569201
v 19.923462 0.400000 -0.147341
v 19.954229 0.368917 -0.135372
v 19.923466 0.399377 -0.557756
v 0.187158 0.031115 -0.075571
v 19.890892 0.031115 -0.076813
v 19.784401 0.365907 -0.722353
v 19.732880 0.395889 -0.736189
v 19.923462 0.000000 -0.147307
v 19.954229 0.031115 -0.135372
v 19.878304 0.000000 -0.105543
v 0.199856 0.000000 -0.104005
v 8.643637 0.030789 -1.783148
v 8.643637 0.369204 -1.799998
v 8.643637 0.000000 -1.752950
v 8.643637 0.400000 -1.772866
vt 0.816458 0.759162
vt 0.815948 0.760422
vt 0.014580 0.759550
vt 0.014070 0.758300
vt 0.812632 0.657907
vt 0.819992 0.653543
vt 0.818740 0.652792
vt 0.809999 0.657692
vt 0.456385 0.956405
vt 0.474510 0.961996
vt 0.456224 0.962241
vt 0.817781 0.762238
vt 0.819034 0.761716
vt 0.819015 0.780680
vt 0.817763 0.780179
vt 0.017877 0.840200
vt 0.017877 0.826627
vt 0.813066 0.826627
vt 0.813066 0.840200
vt 0.812092 0.787368
vt 0.809994 0.787971
vt 0.818757 0.635283
vt 0.820011 0.634763
vt 0.817434 0.632200
vt 0.816920 0.633456
vt 0.015563 0.632577
vt 0.015047 0.631334
vt 0.474347 0.953057
vt 0.474510 0.987316
vt 0.456224 0.987316
vt 0.474510 0.990722
vt 0.456224 0.990734
vt 0.000000 0.000000
vt 0.000000 0.000000
vt 0.014070 0.758300
vt 0.014580 0.759550
vt 0.017877 0.826627
vt 0.017877 0.840200
vt 0.015563 0.632577
vt 0.015047 0.631334
vn 0.0000 0.6783 0.7347
vn 0.3169 -0.7243 -0.6124
vn 0.4842 -0.0109 -0.8749
vn 0.7072 0.7070 -0.0005
vn 0.0001 0.0007 1.0000
vn 0.5017 0.6609 -0.5582
vn 0.4915 -0.6898 0.5316
vn 0.4902 0.6903 0.5321
vn 0.0001 -0.6765 0.7364
vn 0.6637 -0.1483 -0.7331
vn 0.7078 -0.7064 -0.0005
vn 1.0000 -0.0000 0.0000
vn 0.6782 0.0002 0.7348
vn -0.1968 0.0170 -0.9803
vn -0.1979 -0.0048 -0.9802
vn -0.1980 -0.0072 -0.9802
vn -0.1967 -0.0452 -0.9794
vn -0.1970 -0.0430 -0.9795
vn -0.1944 -0.0678 -0.9786
usemtl None.006
s 1
f 1/1/1 2/2/1 3/3/1 4/4/1
f 5/5/2 6/6/2 7/7/2 8/8/2
f 5/9/3 9/10/3 6/11/3
f 10/12/4 11/13/4 9/14/4 12/15/4
f 4/16/5 13/17/5 14/18/5 1/19/5
f 12/15/6 9/14/6 15/20/6 16/21/6
f 17/22/7 18/23/7 14/24/7 19/25/7
f 10/12/8 2/2/8 1/1/8 11/13/8
f 20/26/9 19/25/9 14/24/9 13/27/9
f 5/9/10 15/28/10 9/10/10
f 18/23/11 17/22/11 7/7/11 6/6/11
f 6/11/12 9/10/12 11/29/12 18/30/12
f 1/31/13 14/32/13 18/30/13 11/29/13
f 3/33/14 24/34/14 22/35/15 4/36/16
f 4/4/16 22/35/15 21/37/17 13/38/18
f 13/17/18 21/37/17 23/39/19 20/40/19
o Cube_Cube.000_Cube_Cube.011
v 0.102099 0.030789 -1.453798
v 0.045305 0.030789 -1.887986
v 0.077546 0.000000 -1.876981
v 0.132165 0.000000 -1.459763
v 0.082489 0.000000 -1.882102
v 0.068986 0.030789 -1.912515
v 8.536760 0.030789 -1.878938
v 8.536760 0.000000 -1.848740
v 0.337156 0.000000 -0.976146
v 0.296555 0.030791 -0.994654
v 0.077496 0.400000 -1.896866
v 0.045276 0.369204 -1.904833
v 0.102099 0.369204 -1.466436
v 0.132180 0.400000 -1.474629
v 0.296555 0.369202 -1.003080
v 0.336822 0.400000 -0.986596
v 0.068986 0.369204 -1.929365
v 0.082477 0.400000 -1.902019
v 8.538234 0.400000 -1.871012
v 8.536760 0.369204 -1.895789
vt 0.011522 0.691578
vt 0.009190 0.710556
vt 0.010503 0.710076
vt 0.012746 0.691840
vt 0.010704 0.710300
vt 0.010153 0.711629
vt 0.354233 0.716761
vt 0.354234 0.715441
vt 0.021115 0.670708
vt 0.019461 0.671515
vt 0.009524 0.837899
vt 0.008212 0.838246
vt 0.010545 0.819084
vt 0.011769 0.819443
vt 0.018484 0.798837
vt 0.020125 0.798118
vt 0.474526 0.936672
vt 0.474526 0.909629
vt 0.456207 0.910366
vt 0.456207 0.937164
vt 0.456207 0.883593
vt 0.456207 0.885025
vt 0.474526 0.884042
vt 0.474526 0.882610
vt 0.009727 0.838124
vt 0.353317 0.843368
vt 0.353255 0.844451
vt 0.009176 0.839319
vt 0.013108 0.826614
vt 0.013108 0.840212
vt 0.354844 0.840212
vt 0.354844 0.826614
vn -0.7037 -0.7045 0.0921
vn 0.0028 -0.7012 -0.7130
vn -0.6586 -0.6989 0.2790
vn -0.7000 0.7084 0.0907
vn -0.6517 0.7075 0.2734
vn -0.9214 0.0121 0.3884
vn -0.7188 -0.0346 -0.6943
vn 0.0029 0.6456 -0.7637
vn -0.9916 0.0056 0.1291
vn -0.5260 0.6818 -0.5084
vn -0.5083 -0.7077 -0.4907
vn 0.0040 -0.0497 -0.9988
usemtl None.006
s 1
f 25/41/20 26/42/20 27/43/20 28/44/20
f 29/45/21 30/46/21 31/47/21 32/48/21
f 28/44/22 33/49/22 34/50/22 25/41/22
f 35/51/23 36/52/23 37/53/23 38/54/23
f 38/54/24 37/53/24 39/55/24 40/56/24
f 39/57/25 37/58/25 25/59/25 34/60/25
f 30/61/26 26/62/26 36/63/26 41/64/26
f 42/65/27 43/66/27 44/67/27 41/68/27
f 37/58/28 36/63/28 26/62/28 25/59/28
f 35/51/29 42/65/29 41/68/29 36/52/29
f 27/43/30 26/42/30 30/46/30 29/45/30
f 30/69/31 41/70/31 44/71/31 31/72/31
o Cube_Cube.001_Cube_Cube.010
v 19.675772 0.399921 -1.860391
v 19.706493 0.369204 -1.870702
v 19.643156 0.369204 -1.930220
v 19.630241 0.400000 -1.903176
v 19.927662 0.397748 -0.822170
v 19.706493 0.030789 -1.853852
v 19.950619 0.032852 -0.753541
v 19.919252 0.002247 -0.766379
v 19.675680 0.000076 -1.840561
v 19.630241 0.000000 -1.883259
v 19.643156 0.030789 -1.913370
v 19.957840 0.367131 -0.799803
v 19.784401 0.365907 -0.722353
v 19.773600 0.034076 -0.664991
v 8.643637 0.000000 -1.752950
v 8.643637 0.030789 -1.783148
v 19.708942 0.004254 -0.660137
v 8.643637 0.369204 -1.799998
v 8.643637 0.400000 -1.772866
v 19.732880 0.395889 -0.736189
vt 0.807618 0.837112
vt 0.808869 0.837564
vt 0.806287 0.840163
vt 0.805763 0.838980
vt 0.817922 0.791737
vt 0.809846 0.709874
vt 0.819837 0.661785
vt 0.818559 0.662345
vt 0.808592 0.709292
vt 0.806740 0.711156
vt 0.807265 0.712473
vt 0.456207 0.887017
vt 0.474526 0.886034
vt 0.474414 0.948537
vt 0.456318 0.951237
vt 0.474347 0.953057
vt 0.456385 0.956405
vt 0.358591 0.711258
vt 0.358589 0.712578
vt 0.812632 0.657907
vt 0.809999 0.657692
vt 0.359157 0.840212
vt 0.803068 0.840212
vt 0.803068 0.826614
vt 0.359157 0.826614
vt 0.819152 0.790761
vt 0.357612 0.840268
vt 0.357613 0.839082
vt 0.809994 0.787971
vt 0.812092 0.787368
vt 0.456207 0.883543
vt 0.474526 0.882560
vn 0.5021 0.6803 -0.5338
vn 0.6702 0.7245 -0.1611
vn 0.6932 -0.7041 -0.1541
vn 0.4842 -0.7075 -0.5148
vn 0.9745 -0.0313 -0.2224
vn 0.4246 0.1280 0.8963
vn -0.0085 -0.6988 -0.7153
vn 0.3426 -0.6358 0.6917
vn -0.0118 -0.0497 -0.9987
vn 0.7627 0.6218 -0.1778
vn -0.0089 0.6594 -0.7518
vn 0.2698 0.7352 0.6218
vn 0.6843 -0.0363 -0.7283
usemtl None.006
s 1
f 45/73/32 46/74/32 47/75/32 48/76/32
f 49/77/33 46/74/33 45/73/33
f 50/78/34 51/79/34 52/80/34 53/81/34
f 53/81/35 54/82/35 55/83/35 50/78/35
f 50/84/36 46/85/36 56/86/36 51/87/36
f 51/87/37 56/86/37 57/88/37 58/89/37
f 54/82/38 59/90/38 60/91/38 55/83/38
f 58/92/39 61/93/39 52/80/39 51/79/39
f 62/94/40 47/95/40 55/96/40 60/97/40
f 49/77/41 56/98/41 46/74/41
f 62/99/42 63/100/42 48/76/42 47/75/42
f 49/77/43 64/101/43 57/102/43 56/98/43
f 46/85/44 50/84/44 55/103/44 47/104/44
o Cube_Cube.002_Cube_Cube.012
v 0.073884 0.000000 -0.895550
v 0.163658 0.000000 -0.136723
v 0.133501 0.031115 -0.124044
v 0.042041 0.030957 -0.916359
v 8.536760 0.000000 -1.848740
v 8.536760 0.030789 -1.878938
v 8.643637 0.030789 -1.783148
v 8.643637 0.000000 -1.752950
v 0.133513 0.368917 -0.124045
v 0.042041 0.369056 -0.920567
v 0.163672 0.400000 -0.136779
v 0.187162 0.368917 -0.075867
v 0.199700 0.400000 -0.104444
v 0.073856 0.400000 -0.900949
v 0.187158 0.031115 -0.075571
v 0.296555 0.030791 -0.994654
v 0.337156 0.000000 -0.976146
v 0.199856 0.000000 -0.104005
v 0.296555 0.369202 -1.003080
v 8.538234 0.400000 -1.871012
v 8.643637 0.400000 -1.772866
v 8.643637 0.369204 -1.799998
v 8.536760 0.369204 -1.895789
v 0.336822 0.400000 -0.986596
vt 0.010398 0.667174
vt 0.014087 0.634006
vt 0.012860 0.633451
vt 0.009100 0.668082
vt 0.354234 0.715441
vt 0.354233 0.716761
vt 0.358589 0.712578
vt 0.358591 0.711258
vt 0.474510 0.987977
vt 0.474518 0.941488
vt 0.456216 0.941734
vt 0.456224 0.987977
vt 0.013111 0.760962
vt 0.011884 0.760404
vt 0.014070 0.758300
vt 0.014580 0.759550
vt 0.009420 0.794363
vt 0.008123 0.795219
vt 0.474510 0.990789
vt 0.456224 0.990806
vt 0.019461 0.671515
vt 0.021115 0.670708
vt 0.015563 0.632577
vt 0.015047 0.631334
vt 0.474526 0.936672
vt 0.456207 0.937164
vt 0.353317 0.843368
vt 0.357613 0.839082
vt 0.357612 0.840268
vt 0.353255 0.844451
vt 0.020125 0.798118
vt 0.018484 0.798837
vt 0.354844 0.826614
vt 0.354844 0.840212
vt 0.359157 0.840212
vt 0.359157 0.826614
vn -0.7105 -0.6988 0.0831
vn 0.5390 -0.5898 -0.6013
vn -0.9934 0.0007 0.1144
vn -0.4835 0.6900 0.5386
vn -0.7096 0.6998 0.0825
vn -0.6693 0.0003 0.7430
vn -0.2126 -0.6900 -0.6919
vn -0.4856 -0.6895 0.5374
vn -0.3012 -0.0178 -0.9534
vn 0.5768 0.5183 -0.6314
vn -0.2279 0.6759 -0.7008
vn 0.6670 -0.0371 -0.7442
usemtl None.006
s 1
f 65/105/45 66/106/45 67/107/45 68/108/45
f 69/109/46 70/110/46 71/111/46 72/112/46
f 73/113/47 74/114/47 68/115/47 67/116/47
f 75/117/48 73/118/48 76/119/48 77/120/48
f 78/121/49 74/122/49 73/118/49 75/117/49
f 76/123/50 73/113/50 67/116/50 79/124/50
f 65/105/51 68/108/51 80/125/51 81/126/51
f 66/106/52 82/127/52 79/128/52 67/107/52
f 74/114/53 83/129/53 80/130/53 68/115/53
f 84/131/54 85/132/54 86/133/54 87/134/54
f 78/121/55 88/135/55 83/136/55 74/122/55
f 70/137/56 87/138/56 86/139/56 71/140/56
