# Blender v2.79 (sub 0) OBJ File: ''
# www.blender.org
mtllib WoodPlank2_col.mtl
o Cube_Cube.002_Cube_Cube.016
v 19.631603 0.011138 -1.913076
v 15.249165 0.014780 -1.704044
v 15.249125 0.046796 -1.732937
v 19.644476 0.043141 -1.941911
v 0.509584 0.007097 -0.861018
v 0.554204 -0.023694 -0.838659
v 15.249488 0.415262 -1.707324
v 15.249395 0.385620 -1.735711
v 19.677143 0.008857 -1.870010
v 19.707956 0.039562 -1.881665
v 19.677551 0.409175 -1.873478
v 19.708220 0.378382 -1.884873
v 19.644749 0.381964 -1.944686
v 19.631924 0.411620 -1.916355
v 19.007032 0.371740 -0.708428
v 19.843956 0.373789 -1.287063
v 0.549482 0.376306 -0.847988
v 19.866913 0.008673 -1.217344
v 19.835545 -0.021867 -1.230201
v 19.064243 0.341743 -0.720246
v 0.506021 0.345509 -0.868653
v 19.053442 0.010153 -0.660218
v 18.983097 -0.019553 -0.629694
v 19.874134 0.343111 -1.264753
vt 0.797040 0.925742
vt 0.797030 0.912281
vt 0.794508 0.912423
vt 0.794519 0.925884
vt 0.808666 0.332512
vt 0.629036 0.323944
vt 0.629035 0.325128
vt 0.809194 0.333694
vt 0.817370 0.306852
vt 0.811806 0.331356
vt 0.810549 0.330889
vt 0.811795 0.331224
vt 0.817025 0.304522
vt 0.810532 0.330746
vt 0.315009 0.763205
vt 0.333874 0.763027
vt 0.331910 0.797555
vt 0.313289 0.800195
vt 0.784968 0.281159
vt 0.818311 0.303995
vt 0.331834 0.827874
vt 0.313371 0.831216
vt 0.619902 0.926029
vt 0.619891 0.912568
vt 0.818607 0.305938
vt 0.785411 0.283619
vt 0.809205 0.333807
vt 0.808679 0.332646
vt 0.629046 0.325242
vt 0.629050 0.324078
vt 0.782085 0.279908
vt 0.783066 0.283135
vt 0.629050 0.324078
vt 0.629046 0.325242
vt 0.000000 0.000000
vt 0.000000 0.000000
vt 0.619902 0.926029
vt 0.619891 0.912568
vt 0.000000 0.000000
vt 0.000000 0.000000
vt 0.629035 0.325128
vt 0.629036 0.323944
vt 0.000000 0.000000
vt 0.000000 0.000000
vn 0.6869 -0.0070 -0.7267
vn -0.0361 -0.6652 -0.7458
vn 0.6730 0.7248 -0.1472
vn 0.6569 -0.7277 -0.1973
vn 0.7223 -0.6608 -0.2038
vn 0.6537 -0.7307 -0.1969
vn 0.9687 -0.0293 -0.2465
vn 0.5087 -0.4656 0.7242
vn 0.4155 -0.6764 0.6081
vn 0.4136 -0.6798 0.6057
vn 0.5576 0.1175 0.8217
vn -0.0475 -0.0081 -0.9988
vn 0.7611 0.6265 -0.1680
vn 0.3670 0.7522 0.5473
vn 0.4508 0.6071 0.6544
vn 0.3649 0.7551 0.5447
vn 0.5111 0.6977 -0.5021
vn -0.0340 0.6870 -0.7259
vn 0.4802 -0.6868 -0.5456
vn 0.7246 -0.6583 -0.2040
vn 0.5100 -0.4619 0.7257
vn 0.4523 0.6040 0.6563
vn -0.0463 0.6494 -0.7591
vn -0.0562 0.3350 -0.9405
vn -0.0580 0.2093 -0.9761
vn -0.0543 -0.3488 -0.9356
vn -0.0567 -0.2308 -0.9713
vn -0.0431 -0.6499 -0.7588
usemtl None.005
s 1
f 12/1/1 10/2/1 4/3/1 13/4/1
f 1/5/2 2/6/2 3/7/2 4/8/2
f 16/9/3 12/10/3 11/11/3
f 10/12/4 19/13/5 9/14/6
f 10/15/7 12/16/7 24/17/7 18/18/7
f 22/19/8 19/13/9 18/20/10
f 18/18/11 24/17/11 20/21/11 22/22/11
f 8/23/12 13/4/12 4/3/12 3/24/12
f 16/9/13 24/25/13 12/10/13
f 16/9/14 20/26/15 24/25/16
f 11/11/17 12/10/17 13/27/17 14/28/17
f 8/29/18 7/30/18 14/28/18 13/27/18
f 9/14/19 1/5/19 4/8/19 10/12/19
f 10/12/4 18/20/20 19/13/5
f 22/19/8 23/31/21 19/13/9
f 16/9/14 15/32/22 20/26/15
f 17/33/23 7/34/23 8/35/24 21/36/25
f 21/37/25 8/38/24 3/39/26 5/40/27
f 5/41/27 3/42/26 2/43/28 6/44/28
o Cube_Cube.001_Cube_Cube.015
v 15.249165 0.014780 -1.704044
v 15.249125 0.046796 -1.732937
v 0.509584 0.007097 -0.861018
v 0.554204 -0.023694 -0.838659
v 0.046779 0.059240 -1.954073
v 0.023153 0.057988 -1.929592
v 0.023396 0.396810 -1.932434
v 0.047050 0.398063 -1.956848
v 15.143859 0.419427 -1.805137
v 15.249488 0.415262 -1.707324
v 15.249395 0.385620 -1.735711
v 15.142300 0.389688 -1.831168
v 0.119370 0.022686 -1.210840
v 0.055392 0.026983 -1.919873
v 0.143659 -0.007687 -1.229632
v 0.060633 0.427685 -1.928277
v 0.055664 0.427464 -1.923124
v 0.140435 0.392223 -1.236527
v 0.549482 0.376306 -0.847988
v 0.506021 0.345509 -0.868653
v 0.116877 0.360900 -1.216643
v 0.060323 0.027203 -1.924998
v 15.142026 0.050865 -1.828393
v 15.142067 0.018848 -1.799501
vt 0.624647 0.327857
vt 0.629035 0.325128
vt 0.629036 0.323944
vt 0.009885 0.304499
vt 0.024883 0.289390
vt 0.008889 0.303728
vt 0.009752 0.304781
vt 0.024737 0.289702
vt 0.026519 0.288855
vt 0.004955 0.333305
vt 0.006278 0.332924
vt 0.006481 0.333135
vt 0.624656 0.329154
vt 0.005925 0.334306
vt 0.015948 0.926523
vt 0.615636 0.912730
vt 0.015937 0.913063
vt 0.006267 0.332790
vt 0.015008 0.926474
vt 0.006469 0.333000
vt 0.624645 0.329041
vt 0.332901 0.800234
vt 0.316035 0.760537
vt 0.314069 0.800557
vt 0.332044 0.819610
vt 0.313201 0.820035
vt 0.005914 0.334192
vt 0.026712 0.288473
vt 0.008787 0.303966
vt 0.624720 0.328088
vt 0.629046 0.325242
vt 0.615647 0.926191
vt 0.004945 0.333189
vt 0.014999 0.913013
vt 0.334900 0.760378
vt 0.629050 0.324078
vn 0.5370 -0.5648 -0.6266
vn -0.4937 -0.6984 0.5181
vn -0.6236 -0.4529 0.6372
vn -0.4876 -0.7069 0.5124
vn -0.4703 0.6865 0.5546
vn -0.6115 0.4323 0.6626
vn -0.6156 0.4223 0.6654
vn -0.7041 0.6994 0.1230
vn -0.7493 0.6493 0.1303
vn -0.7019 0.7016 0.1227
vn 0.0064 0.6926 -0.7213
vn 0.0065 0.6585 -0.7526
vn 0.0064 0.6927 -0.7212
vn 0.0083 -0.0082 -0.9999
vn -0.7568 -0.6505 0.0643
vn -0.7030 -0.7087 0.0591
vn -0.7595 -0.6473 0.0646
vn -0.5279 0.7024 -0.4775
vn -0.5290 0.7020 -0.4769
vn -0.5292 0.7019 -0.4767
vn -0.7193 -0.0053 -0.6946
vn -0.7181 -0.0051 -0.6959
vn -0.7180 -0.0051 -0.6960
vn 0.0058 -0.6707 -0.7417
vn 0.0058 -0.6699 -0.7424
vn -0.9913 -0.0032 0.1317
vn -0.9915 -0.0001 0.1304
vn -0.9912 -0.0050 0.1324
vn -0.6670 0.0091 0.7450
vn -0.6667 0.0086 0.7453
vn -0.6673 0.0098 0.7448
vn -0.5072 -0.6871 -0.5203
vn -0.5048 -0.6878 -0.5216
vn -0.5091 -0.6865 -0.5192
vn -0.6270 -0.4437 0.6403
vn -0.4629 0.6963 0.5485
vn 0.5786 0.5260 -0.6234
vn 0.5730 0.5602 -0.5982
vn 0.5795 0.5193 -0.6281
vn 0.6652 -0.0066 -0.7466
vn -0.7508 0.6475 0.1305
vn 0.0065 0.6584 -0.7526
vn -0.7011 -0.7106 0.0590
vn -0.5270 0.7027 -0.4780
vn -0.7194 -0.0053 -0.6946
vn -0.9916 0.0018 0.1296
vn -0.6664 0.0079 0.7456
vn -0.5043 -0.6880 -0.5219
vn 0.5718 0.5665 -0.5934
vn 0.6652 -0.0067 -0.7466
usemtl None.005
s 1
f 48/45/29 26/46/29 25/47/29
f 39/48/30 27/49/31 37/50/32
f 42/51/33 44/52/34 43/53/35
f 31/54/36 42/51/37 41/55/38
f 40/56/39 36/57/40 32/58/41
f 32/59/42 47/60/42 29/61/42
f 37/50/43 38/62/44 39/48/45
f 41/55/46 32/58/47 31/54/48
f 29/61/49 31/63/50 32/59/51
f 46/64/52 47/65/53 48/45/53
f 45/66/54 30/67/55 37/68/56
f 44/69/57 37/68/58 27/70/59
f 38/62/60 29/71/61 46/64/62
f 39/48/30 28/72/63 27/49/31
f 42/51/33 45/73/64 44/52/34
f 33/74/65 35/75/66 36/57/67
f 47/65/68 35/75/68 26/46/68
f 48/45/29 47/65/29 26/46/29
f 31/54/36 45/73/69 42/51/37
f 40/56/39 33/74/70 36/57/40
f 32/59/42 36/76/42 47/60/42
f 37/50/43 30/77/71 38/62/44
f 41/55/46 40/56/72 32/58/47
f 29/61/49 30/78/73 31/63/50
f 46/64/52 29/71/52 47/65/53
f 45/66/54 31/79/74 30/67/55
f 44/69/57 45/66/75 37/68/58
f 38/62/60 30/77/76 29/71/61
f 33/74/65 34/80/77 35/75/66
f 47/65/68 36/57/78 35/75/68
o Cube_Cube.000_Cube_Cube.014
v 0.283829 -0.023694 -0.850732
v 0.251986 0.007263 -0.871541
v 0.509584 0.007097 -0.861018
v 0.554204 -0.023694 -0.838659
v 0.283801 0.376306 -0.856132
v 0.251986 0.345362 -0.875749
v 0.135130 0.371413 -0.129700
v 0.165289 0.401798 -0.144013
v 0.188779 0.374509 -0.081809
v 0.188774 0.037187 -0.063803
v 19.880013 0.403752 -0.113268
v 19.925077 0.401082 -0.154480
v 19.925083 0.377203 -0.558319
v 19.007032 0.371740 -0.708428
v 0.549482 0.376306 -0.847988
v 0.201317 0.403825 -0.111879
v 19.955845 0.346495 -0.568959
v 19.064243 0.341743 -0.720246
v 19.925077 0.001601 -0.134074
v 19.955845 0.033236 -0.123751
v 19.892508 0.037122 -0.065044
v 19.879921 0.004308 -0.092179
v 0.506021 0.345509 -0.868653
v 0.135118 0.034053 -0.112371
v 19.955845 0.370604 -0.140924
v 0.165275 0.002326 -0.123441
v 19.955845 0.008855 -0.558473
v 19.053442 0.010153 -0.660218
v 18.983097 -0.019553 -0.629694
v 19.925083 -0.021136 -0.540385
v 19.892509 0.374449 -0.082959
v 0.201472 0.004390 -0.090641
vt 0.820695 0.259593
vt 0.821956 0.259170
vt 0.819360 0.256764
vt 0.818844 0.257876
vt 0.014325 0.289993
vt 0.010771 0.260000
vt 0.015629 0.289189
vt 0.015630 0.288968
vt 0.014325 0.289821
vt 0.024883 0.289390
vt 0.026712 0.288473
vt 0.820695 0.276982
vt 0.785411 0.283619
vt 0.783066 0.283135
vt 0.820695 0.260430
vt 0.818848 0.258740
vt 0.819360 0.257498
vt 0.821956 0.259874
vt 0.026519 0.288855
vt 0.024737 0.289702
vt 0.010771 0.259157
vt 0.012254 0.257813
vt 0.011734 0.256713
vt 0.009535 0.258704
vt 0.804362 0.912184
vt 0.806878 0.912030
vt 0.806878 0.925433
vt 0.804362 0.925585
vt 0.011734 0.257451
vt 0.012248 0.258683
vt 0.821956 0.277418
vt 0.784968 0.281159
vt 0.820695 0.276247
vt 0.782085 0.279908
vt 0.019447 0.925465
vt 0.019447 0.912062
vt 0.021578 0.912187
vt 0.021579 0.925588
vt 0.821956 0.276989
vt 0.331834 0.827874
vt 0.313299 0.836881
vt 0.313371 0.831216
vt 0.332099 0.836297
vt 0.333441 0.860130
vt 0.314656 0.861087
vt 0.009535 0.259414
vt 0.332036 0.819215
vt 0.313210 0.819449
vt 0.314702 0.861720
vt 0.333486 0.860755
vt 0.332044 0.819610
vt 0.313201 0.820035
vn 0.4887 -0.6602 0.5703
vn -0.6512 0.7469 -0.1348
vn -0.7321 0.6670 -0.1382
vn -0.6470 0.7505 -0.1345
vn 0.0357 -0.5425 -0.8393
vn 0.1466 0.4542 -0.8787
vn 0.1299 0.5658 -0.8143
vn 0.1296 0.5675 -0.8131
vn 0.4931 0.7176 0.4918
vn 0.0248 0.5249 -0.8508
vn -0.4833 -0.6594 0.5759
vn 0.6782 0.0382 0.7338
vn 0.0000 0.7175 0.6966
vn -0.7352 -0.6719 -0.0897
vn -0.6698 -0.7379 -0.0825
vn -0.6666 -0.7409 -0.0822
vn 0.7055 0.7075 -0.0408
vn 0.0585 -0.7760 -0.6280
vn 0.0897 -0.5860 -0.8053
vn 0.0579 -0.7788 -0.6245
vn -0.6693 0.0389 0.7420
vn 0.7096 -0.7035 0.0394
vn 0.0001 0.0532 0.9986
vn 0.1232 -0.1470 -0.9814
vn 0.1547 -0.0648 -0.9858
vn 0.1099 -0.1805 -0.9774
vn 1.0000 -0.0000 0.0000
vn 0.0001 -0.6353 0.7723
vn -0.7347 0.6641 -0.1383
vn -0.9882 -0.0049 -0.1533
vn -0.4858 0.7180 0.4984
vn 0.1469 0.4520 -0.8798
vn -0.7374 -0.6695 -0.0899
vn 0.0904 -0.5807 -0.8091
vn 0.0344 -0.0173 -0.9993
vn 0.1674 -0.0306 -0.9854
usemtl None.005
s 1
f 67/81/79 68/82/79 69/83/79 70/84/79
f 54/85/80 56/86/81 53/87/82
f 49/88/83 50/89/83 51/90/83 52/91/83
f 61/92/84 66/93/85 62/94/86
f 60/95/87 59/96/87 79/97/87 73/98/87
f 53/87/88 63/99/88 71/100/88 54/85/88
f 74/101/89 80/102/89 58/103/89 72/104/89
f 69/105/90 68/106/90 73/107/90 79/108/90
f 57/109/91 79/97/91 59/96/91 64/110/91
f 74/101/92 50/89/93 49/88/94
f 73/98/95 65/111/95 61/92/95 60/95/95
f 76/112/96 78/113/97 77/114/98
f 55/115/99 72/116/99 58/117/99 57/118/99
f 68/82/100 67/81/100 78/113/100 75/119/100
f 79/108/101 57/118/101 58/117/101 69/105/101
f 66/120/102 75/121/103 76/122/104
f 65/123/105 73/124/105 68/125/105 75/121/105
f 70/84/106 69/83/106 58/103/106 80/102/106
f 54/85/80 55/126/107 56/86/81
f 54/127/108 50/128/108 72/129/108 55/130/108
f 56/86/109 55/126/109 57/109/109 64/110/109
f 61/92/84 65/111/110 66/93/85
f 74/101/92 72/104/111 50/89/93
f 76/112/96 75/119/112 78/113/97
f 71/131/113 51/132/113 50/128/113 54/127/113
f 66/120/102 65/123/114 75/121/103
