# Blender 5.0.0
# www.blender.org
g Toolkit_col_toolkit_col
v 0.801384 -0.731258 -0.263892
v 0.801384 -0.717611 -0.263892
v 0.801384 -0.731258 -0.250654
v 0.801384 -0.717611 -0.250654
v 0.667701 -0.981637 -0.432261
v 0.689943 -0.880000 -0.457514
v 0.698420 -0.644735 -0.467049
v 0.679002 -0.511408 -0.444975
v 0.663235 -0.127891 -0.413528
v 0.683847 -0.004735 -0.418283
v 0.691876 -1.007159 -0.333933
v 0.768835 -0.792649 -0.322581
v 0.775546 -0.656461 -0.322581
v 0.712561 -0.468739 -0.349266
v 0.707206 -0.324735 -0.333377
v 0.712783 -0.174629 -0.348829
v 0.757428 -0.004735 -0.333933
v 0.691890 -1.007263 -0.180569
v 0.772040 -0.792649 -0.191947
v 0.779376 -0.656461 -0.191947
v 0.767470 -0.484735 -0.180569
v 0.779674 -0.324735 -0.180569
v 0.786557 -0.164735 -0.180569
v 0.786616 -0.004735 -0.180569
v 0.620145 -0.981637 -0.432261
v 0.589476 -0.880000 -0.457514
v 0.565796 -0.644735 -0.467049
v 0.588572 -0.511408 -0.444975
v 0.485578 -0.245773 -0.410696
v 0.547347 -0.174629 -0.415206
v 0.560000 -0.004735 -0.428068
v 0.592080 -1.007159 -0.333933
v 0.509157 -0.890246 -0.346697
v 0.485796 -0.644735 -0.406197
v 0.545143 -0.468739 -0.406859
v 0.547347 -0.309358 -0.407380
v 0.592245 -0.234557 -0.409881
v 0.549577 -1.001078 -0.177083
v 0.489294 -0.950410 -0.225882
v 0.462111 -0.245773 -0.410695
v 0.405267 -0.179546 -0.415929
v 0.400000 -0.004735 -0.429786
v 0.400000 -0.776137 -0.315336
v 0.400000 -0.644735 -0.384279
v 0.400000 -0.484735 -0.396061
v 0.405267 -0.309358 -0.405067
v 0.355444 -0.242752 -0.410456
v 0.466161 -0.965446 -0.123639
v 0.407696 -0.927022 -0.177083
v 0.240000 -0.158106 -0.416500
v 0.240000 -0.004735 -0.428801
v 0.240000 -0.759331 -0.303332
v 0.240000 -0.644735 -0.366650
v 0.240000 -0.484735 -0.390302
v 0.240000 -0.324735 -0.403135
v 0.240000 -0.238106 -0.410083
v 0.240000 -0.799881 -0.180568
v 0.080000 -0.150808 -0.415914
v 0.080000 -0.004735 -0.427630
v 0.080000 -0.757084 -0.303490
v 0.080000 -0.644735 -0.366221
v 0.080000 -0.484735 -0.389131
v 0.080000 -0.324735 -0.401964
v 0.080000 -0.230808 -0.409498
v 0.080000 -0.783772 -0.180568
v 0.696746 0.155265 -0.424888
v 0.702827 0.315265 -0.431501
v 0.706392 0.475265 -0.438115
v 0.708743 0.635265 -0.444728
v 0.710413 0.795265 -0.451342
v 0.687413 0.906716 -0.439971
v 0.770356 0.155265 -0.333933
v 0.776465 0.315265 -0.333933
v 0.780059 0.475265 -0.333933
v 0.782439 0.635265 -0.333933
v 0.783047 0.795265 -0.333933
v 0.711339 0.925333 -0.333933
v 0.786673 0.155265 -0.180569
v 0.786731 0.315265 -0.180569
v 0.786788 0.475265 -0.180569
v 0.786845 0.635265 -0.180569
v 0.785022 0.795265 -0.180569
v 0.711585 0.930665 -0.180569
v 0.560000 0.155265 -0.440179
v 0.560000 0.315265 -0.452835
v 0.560000 0.475265 -0.466112
v 0.560000 0.635265 -0.479360
v 0.560000 0.795265 -0.492587
v 0.560000 0.922529 -0.454908
v 0.560000 0.975444 -0.333933
v 0.560000 0.986268 -0.180568
v 0.400000 0.155265 -0.441762
v 0.400000 0.315265 -0.454548
v 0.400000 0.475265 -0.467467
v 0.400000 0.635265 -0.480223
v 0.400000 0.795265 -0.496945
v 0.400000 0.926743 -0.458813
v 0.400000 0.979860 -0.333933
v 0.400000 0.986968 -0.180568
v 0.240000 0.155265 -0.441687
v 0.240000 0.315265 -0.454847
v 0.240000 0.475265 -0.467521
v 0.240000 0.635265 -0.480319
v 0.240000 0.795265 -0.500412
v 0.240000 0.930445 -0.462151
v 0.240000 0.983974 -0.333933
v 0.240000 0.987887 -0.180568
v 0.080000 0.155265 -0.440464
v 0.080000 0.315265 -0.453297
v 0.080000 0.475265 -0.466131
v 0.080000 0.635265 -0.479225
v 0.080000 0.795265 -0.495625
v 0.080000 0.926075 -0.457982
v 0.080000 0.979735 -0.333933
v 0.080000 0.988368 -0.180568
v 0.667720 -0.981775 0.025211
v 0.704530 -0.882973 0.076473
v 0.765690 -0.644735 0.076682
v 0.777428 -0.484735 0.076682
v 0.784323 -0.324735 0.076682
v 0.785457 -0.164735 0.076682
v 0.785519 -0.004735 0.076682
v 0.680922 -0.750968 0.230046
v 0.752603 -0.644735 0.230046
v 0.783244 -0.484735 0.230046
v 0.783724 -0.324735 0.230046
v 0.784353 -0.164735 0.230046
v 0.784366 -0.004735 0.230046
v 0.658947 -0.728091 0.330590
v 0.701315 -0.653334 0.382391
v 0.760378 -0.484735 0.383411
v 0.746780 -0.324735 0.383411
v 0.707835 -0.160131 0.397805
v 0.711882 -0.004735 0.378007
v 0.675364 -0.605733 0.471090
v 0.688542 -0.484735 0.473469
v 0.674911 -0.324735 0.467206
v 0.657190 -0.210395 0.462739
v 0.553735 -0.981310 0.076473
v 0.602892 -0.938288 0.127454
v 0.496226 -0.968295 0.191731
v 0.553735 -0.915479 0.237730
v 0.556876 -0.775230 0.382391
v 0.608126 -0.712400 0.432833
v 0.560000 -0.111152 0.457950
v 0.560000 -0.004735 0.449835
v 0.501460 -0.754716 0.462441
v 0.556876 -0.653334 0.474945
v 0.560000 -0.484735 0.487413
v 0.560000 -0.324735 0.474797
v 0.560000 -0.191152 0.464282
v 0.455186 -0.970306 0.076682
v 0.375186 -0.934835 0.076682
v 0.460754 -0.968295 0.191731
v 0.404452 -0.942049 0.237730
v 0.367401 -0.978810 0.422659
v 0.412441 -0.938071 0.376287
v 0.400000 -0.110259 0.458072
v 0.400000 -0.004735 0.450297
v 0.367401 -0.978810 0.484662
v 0.412441 -0.881988 0.478462
v 0.400000 -0.644735 0.481711
v 0.400000 -0.484735 0.487914
v 0.400000 -0.324735 0.475143
v 0.400000 -0.190259 0.464406
v 0.240000 -0.803287 0.076682
v 0.240000 -0.894979 0.230046
v 0.240000 -0.985157 0.414294
v 0.240000 -0.936979 0.337612
v 0.240000 -0.112447 0.457887
v 0.240000 -0.004735 0.450072
v 0.240000 -0.985157 0.493763
v 0.240000 -0.880000 0.499570
v 0.240000 -0.644735 0.482925
v 0.240000 -0.484735 0.487802
v 0.240000 -0.324735 0.474940
v 0.240000 -0.192447 0.464255
v 0.080000 -0.772653 0.076682
v 0.080000 -0.795317 0.230047
v 0.080000 -0.981807 0.425401
v 0.080000 -0.929352 0.348719
v 0.080000 -0.114100 0.457721
v 0.080000 -0.004735 0.449776
v 0.080000 -0.981807 0.490238
v 0.080000 -0.880000 0.496441
v 0.080000 -0.644735 0.483259
v 0.080000 -0.484735 0.487709
v 0.080000 -0.324735 0.474837
v 0.080000 -0.194100 0.464184
v 0.785580 0.155265 0.076682
v 0.785638 0.315265 0.076682
v 0.785696 0.475265 0.076682
v 0.785753 0.635265 0.076682
v 0.784105 0.795265 0.076682
v 0.711214 0.933269 0.076682
v 0.784040 0.155265 0.230046
v 0.783329 0.315265 0.230046
v 0.782380 0.475265 0.230046
v 0.780815 0.635265 0.230046
v 0.769326 0.795265 0.230046
v 0.699430 0.912289 0.230046
v 0.711524 0.155265 0.372087
v 0.710782 0.315265 0.366047
v 0.709805 0.475265 0.359514
v 0.708211 0.635265 0.351739
v 0.697609 0.795265 0.333636
v 0.672029 0.885854 0.315539
v 0.560000 0.991819 0.076682
v 0.560000 0.949859 0.230046
v 0.560000 0.155265 0.438007
v 0.560000 0.315265 0.425946
v 0.560000 0.475265 0.412729
v 0.560000 0.635265 0.397133
v 0.560000 0.795265 0.361011
v 0.560000 0.891393 0.320100
v 0.400000 0.992911 0.076682
v 0.400000 0.950943 0.230046
v 0.400000 0.155265 0.438577
v 0.400000 0.315265 0.426411
v 0.400000 0.475265 0.413304
v 0.400000 0.635265 0.398095
v 0.400000 0.795265 0.361943
v 0.400000 0.891883 0.320412
v 0.240000 0.993989 0.076682
v 0.240000 0.952008 0.230046
v 0.240000 0.155265 0.438548
v 0.240000 0.315265 0.426171
v 0.240000 0.475265 0.413394
v 0.240000 0.635265 0.399008
v 0.240000 0.795265 0.362826
v 0.240000 0.892377 0.320722
v 0.080000 0.994844 0.076682
v 0.080000 0.952889 0.230047
v 0.080000 0.155265 0.438292
v 0.080000 0.315265 0.425787
v 0.080000 0.475265 0.413205
v 0.080000 0.635265 0.399532
v 0.080000 0.795265 0.363495
v 0.080000 0.892752 0.320937
v -0.080000 -0.150811 -0.415915
v -0.080000 -0.004735 -0.427631
v -0.080000 -0.757084 -0.303489
v -0.080000 -0.644735 -0.366221
v -0.080000 -0.484735 -0.389131
v -0.080000 -0.324735 -0.401964
v -0.080000 -0.230811 -0.409498
v -0.080000 -0.783772 -0.180568
v -0.240000 -0.158111 -0.416500
v -0.240000 -0.004735 -0.428802
v -0.240000 -0.759345 -0.303332
v -0.240000 -0.644735 -0.366650
v -0.240000 -0.484735 -0.390302
v -0.240000 -0.324735 -0.403135
v -0.240000 -0.238111 -0.410083
v -0.240000 -0.799926 -0.180568
v -0.462081 -0.245774 -0.410695
v -0.405249 -0.179547 -0.415929
v -0.400000 -0.004735 -0.429786
v -0.400000 -0.776169 -0.315356
v -0.400000 -0.644735 -0.384312
v -0.400000 -0.484735 -0.396071
v -0.405249 -0.309359 -0.405065
v -0.355414 -0.242755 -0.410456
v -0.466117 -0.965455 -0.123696
v -0.407670 -0.927073 -0.177118
v -0.620106 -0.981666 -0.432288
v -0.589426 -0.880000 -0.457524
v -0.565759 -0.644735 -0.467040
v -0.588551 -0.511419 -0.444976
v -0.485575 -0.245774 -0.410695
v -0.547345 -0.174618 -0.415205
v -0.560000 -0.004735 -0.428066
v -0.592038 -1.007174 -0.333932
v -0.509108 -0.890260 -0.346713
v -0.485759 -0.644735 -0.406230
v -0.545130 -0.468745 -0.406861
v -0.547345 -0.309359 -0.407371
v -0.592242 -0.234540 -0.409879
v -0.549567 -1.001095 -0.177118
v -0.489279 -0.950433 -0.225939
v -0.667699 -0.981666 -0.432288
v -0.689899 -0.880000 -0.457524
v -0.698358 -0.644735 -0.467040
v -0.678978 -0.511419 -0.444976
v -0.663119 -0.127873 -0.413527
v -0.683684 -0.004735 -0.418282
v -0.691845 -1.007174 -0.333932
v -0.768775 -0.792581 -0.322511
v -0.775462 -0.656536 -0.322511
v -0.712496 -0.468745 -0.349259
v -0.707161 -0.324735 -0.333368
v -0.712674 -0.174618 -0.348827
v -0.757215 -0.004735 -0.333932
v -0.691859 -1.007278 -0.180568
v -0.771993 -0.792581 -0.192016
v -0.779298 -0.656536 -0.192016
v -0.767354 -0.484735 -0.180568
v -0.779578 -0.324735 -0.180568
v -0.786457 -0.164735 -0.180568
v -0.786516 -0.004735 -0.180568
v -0.801362 -0.731145 -0.263776
v -0.801362 -0.717736 -0.263776
v -0.801362 -0.731145 -0.250769
v -0.801362 -0.717736 -0.250769
v -0.080000 0.155265 -0.440464
v -0.080000 0.315265 -0.453297
v -0.080000 0.475265 -0.466132
v -0.080000 0.635265 -0.479226
v -0.080000 0.795265 -0.495631
v -0.080000 0.926084 -0.457988
v -0.080000 0.979744 -0.333933
v -0.080000 0.988368 -0.180568
v -0.240000 0.155265 -0.441688
v -0.240000 0.315265 -0.454848
v -0.240000 0.475265 -0.467521
v -0.240000 0.635265 -0.480320
v -0.240000 0.795265 -0.500415
v -0.240000 0.930448 -0.462154
v -0.240000 0.983977 -0.333933
v -0.240000 0.987887 -0.180568
v -0.400000 0.155265 -0.441761
v -0.400000 0.315265 -0.454548
v -0.400000 0.475265 -0.467466
v -0.400000 0.635265 -0.480223
v -0.400000 0.795265 -0.496942
v -0.400000 0.926737 -0.458810
v -0.400000 0.979854 -0.333932
v -0.400000 0.986968 -0.180568
v -0.560000 0.155265 -0.440177
v -0.560000 0.315265 -0.452834
v -0.560000 0.475265 -0.466111
v -0.560000 0.635265 -0.479359
v -0.560000 0.795265 -0.492587
v -0.560000 0.922529 -0.454907
v -0.560000 0.975444 -0.333932
v -0.560000 0.986268 -0.180568
v -0.696607 0.155265 -0.424887
v -0.702712 0.315265 -0.431500
v -0.706295 0.475265 -0.438114
v -0.708660 0.635265 -0.444727
v -0.710339 0.795265 -0.451341
v -0.687367 0.906716 -0.439970
v -0.770166 0.155265 -0.333932
v -0.776300 0.315265 -0.333932
v -0.779912 0.475265 -0.333932
v -0.782305 0.635265 -0.333932
v -0.782918 0.795265 -0.333932
v -0.711274 0.925333 -0.333932
v -0.786573 0.155265 -0.180568
v -0.786631 0.315265 -0.180568
v -0.786688 0.475265 -0.180568
v -0.786745 0.635265 -0.180568
v -0.784914 0.795265 -0.180568
v -0.711527 0.930665 -0.180568
v -0.080000 -0.772654 0.076682
v -0.080000 -0.795318 0.230047
v -0.080000 -0.981807 0.425401
v -0.080000 -0.929352 0.348718
v -0.080000 -0.113936 0.457756
v -0.080000 -0.004735 0.449841
v -0.080000 -0.981807 0.490238
v -0.080000 -0.880000 0.496441
v -0.080000 -0.644735 0.483234
v -0.080000 -0.484735 0.487656
v -0.080000 -0.324735 0.474783
v -0.080000 -0.193936 0.464158
v -0.240000 -0.803349 0.076682
v -0.240000 -0.895061 0.230047
v -0.240000 -0.985173 0.414233
v -0.240000 -0.937029 0.337551
v -0.240000 -0.111503 0.458015
v -0.240000 -0.004735 0.450276
v -0.240000 -0.985173 0.493778
v -0.240000 -0.880000 0.499585
v -0.240000 -0.644735 0.482850
v -0.240000 -0.484735 0.487643
v -0.240000 -0.324735 0.474822
v -0.240000 -0.191503 0.464222
v -0.455117 -0.970319 0.076682
v -0.375117 -0.934897 0.076682
v -0.460705 -0.968304 0.191756
v -0.404423 -0.942116 0.237745
v -0.367343 -0.978831 0.422578
v -0.412406 -0.938012 0.376238
v -0.400000 -0.107881 0.458320
v -0.400000 -0.004735 0.450632
v -0.367343 -0.978831 0.484682
v -0.412406 -0.881889 0.478474
v -0.400000 -0.644735 0.481585
v -0.400000 -0.484735 0.487675
v -0.400000 -0.324735 0.475075
v -0.400000 -0.187881 0.464451
v -0.553744 -0.981338 0.076488
v -0.602906 -0.938278 0.127480
v -0.496239 -0.968304 0.191756
v -0.553744 -0.915475 0.237745
v -0.556874 -0.775132 0.382390
v -0.608123 -0.712334 0.432831
v -0.560000 -0.107590 0.458273
v -0.560000 -0.004735 0.450312
v -0.501456 -0.754550 0.462441
v -0.556873 -0.653294 0.474845
v -0.560000 -0.484735 0.487264
v -0.560000 -0.324735 0.474953
v -0.560000 -0.187590 0.464462
v -0.667718 -0.981804 0.025237
v -0.704486 -0.882967 0.076488
v -0.765584 -0.644735 0.076682
v -0.777322 -0.484735 0.076682
v -0.784220 -0.324735 0.076682
v -0.785357 -0.164735 0.076682
v -0.785419 -0.004735 0.076682
v -0.680841 -0.750960 0.230047
v -0.752470 -0.644735 0.230047
v -0.783141 -0.484735 0.230047
v -0.783622 -0.324735 0.230047
v -0.784253 -0.164735 0.230047
v -0.784279 -0.004735 0.230047
v -0.658871 -0.728091 0.330588
v -0.701160 -0.653294 0.382390
v -0.760228 -0.484735 0.383411
v -0.747237 -0.324735 0.383411
v -0.708191 -0.158559 0.397940
v -0.711844 -0.004735 0.378286
v -0.675214 -0.605667 0.471024
v -0.688441 -0.484735 0.473454
v -0.675418 -0.324735 0.467366
v -0.657850 -0.207775 0.462908
v -0.080000 0.994844 0.076682
v -0.080000 0.952888 0.230047
v -0.080000 0.155265 0.438305
v -0.080000 0.315265 0.425586
v -0.080000 0.475265 0.412939
v -0.080000 0.635265 0.399449
v -0.080000 0.795265 0.363495
v -0.080000 0.892752 0.320937
v -0.240000 0.993989 0.076682
v -0.240000 0.952007 0.230047
v -0.240000 0.155265 0.438605
v -0.240000 0.315265 0.425849
v -0.240000 0.475265 0.413001
v -0.240000 0.635265 0.398917
v -0.240000 0.795265 0.362826
v -0.240000 0.892377 0.320722
v -0.400000 0.992910 0.076682
v -0.400000 0.950943 0.230047
v -0.400000 0.155265 0.438680
v -0.400000 0.315265 0.426244
v -0.400000 0.475265 0.413106
v -0.400000 0.635265 0.398078
v -0.400000 0.795265 0.361943
v -0.400000 0.891883 0.320413
v -0.560000 0.991818 0.076682
v -0.560000 0.949859 0.230047
v -0.560000 0.155265 0.438194
v -0.560000 0.315265 0.425993
v -0.560000 0.475265 0.412658
v -0.560000 0.635265 0.397047
v -0.560000 0.795265 0.361010
v -0.560000 0.891393 0.320100
v -0.785480 0.155265 0.076682
v -0.785538 0.315265 0.076682
v -0.785596 0.475265 0.076682
v -0.785653 0.635265 0.076682
v -0.783999 0.795265 0.076682
v -0.711158 0.933268 0.076682
v -0.783956 0.155265 0.230047
v -0.783243 0.315265 0.230047
v -0.782274 0.475265 0.230047
v -0.780689 0.635265 0.230047
v -0.769178 0.795265 0.230047
v -0.699341 0.912289 0.230047
v -0.711490 0.155265 0.372215
v -0.710747 0.315265 0.366140
v -0.709749 0.475265 0.359512
v -0.708135 0.635265 0.351661
v -0.697514 0.795265 0.333636
v -0.671947 0.885854 0.315539
vn 1.0000 -0.0000 -0.0000
vn 0.9001 -0.2965 -0.3191
vn 0.8776 -0.0481 -0.4770
vn 0.8947 -0.0401 -0.4450
vn 0.8753 0.2185 -0.4315
vn 0.7408 -0.1422 -0.6565
vn 0.9390 -0.3438 -0.0108
vn 0.8928 -0.4500 -0.0199
vn 0.9153 -0.0448 0.4002
vn 0.9310 0.3642 -0.0248
vn 0.9647 0.1934 -0.1790
vn 0.9297 -0.0017 -0.3684
vn 0.9092 -0.0571 -0.4124
vn 0.9471 -0.1148 -0.2997
vn -0.0000 -0.2411 -0.9705
vn -0.0000 -0.0405 -0.9992
vn -0.0000 0.1633 -0.9866
vn 0.0606 -0.0668 -0.9959
vn -0.0000 -0.9679 -0.2512
vn -0.7481 -0.4703 -0.4681
vn -0.7155 -0.1674 -0.6782
vn -0.5678 0.2059 -0.7970
vn 0.1179 0.8412 -0.5277
vn 0.3746 0.0508 -0.9258
vn 0.0137 -0.0580 -0.9982
vn 0.4495 -0.1709 -0.8768
vn 0.3586 -0.2692 -0.8938
vn -0.0253 -0.9996 0.0158
vn -0.6748 -0.6811 -0.2842
vn 0.0065 -0.0710 -0.9975
vn 0.0093 -0.0775 -0.9970
vn -0.4178 -0.3162 -0.8517
vn -0.1394 -0.0120 -0.9902
vn -0.0441 -0.0274 -0.9987
vn -0.0139 -0.0707 -0.9974
vn -0.0046 -0.0834 -0.9965
vn -0.4504 -0.8630 -0.2288
vn -0.6341 -0.5847 -0.5061
vn -0.0065 -0.0796 -0.9968
vn -0.1058 -0.4709 -0.8758
vn -0.0725 -0.1098 -0.9913
vn -0.0205 -0.0646 -0.9977
vn -0.0051 -0.0819 -0.9966
vn -0.0068 -0.0804 -0.9967
vn -0.3484 -0.7607 -0.5477
vn -0.0073 -0.0799 -0.9968
vn -0.0041 -0.4855 -0.8742
vn -0.0049 -0.1440 -0.9896
vn -0.0551 -0.9631 -0.2636
vn 0.7637 -0.0749 -0.6412
vn 0.7874 -0.0427 -0.6150
vn 0.8073 -0.0302 -0.5894
vn 0.8246 -0.0239 -0.5652
vn 0.8417 -0.0171 -0.5397
vn 0.8484 0.3513 -0.3959
vn 0.9884 -0.0401 -0.1466
vn 0.9961 -0.0192 -0.0863
vn 0.9984 -0.0114 -0.0553
vn 0.9993 -0.0076 -0.0363
vn 0.9998 0.0038 -0.0208
vn 0.8773 0.4797 -0.0147
vn 0.0956 -0.0620 -0.9935
vn 0.1296 -0.0621 -0.9896
vn 0.1678 -0.0630 -0.9838
vn 0.2072 -0.0621 -0.9763
vn 0.2454 -0.0613 -0.9675
vn 0.2053 0.2159 -0.9546
vn 0.2344 0.9198 -0.3145
vn 0.3291 0.9430 -0.0499
vn 0.0103 -0.0751 -0.9971
vn 0.0103 -0.0793 -0.9968
vn 0.0096 -0.0816 -0.9966
vn 0.0069 -0.0810 -0.9967
vn 0.0162 -0.0932 -0.9955
vn 0.0285 0.2811 -0.9593
vn 0.0296 0.9178 -0.3958
vn 0.0160 0.9982 -0.0584
vn -0.0033 -0.0775 -0.9970
vn 0.0007 -0.0808 -0.9967
vn 0.0011 -0.0797 -0.9968
vn 0.0005 -0.0796 -0.9968
vn 0.0111 -0.1143 -0.9934
vn 0.0236 0.2753 -0.9611
vn 0.0266 0.9212 -0.3882
vn 0.0157 0.9992 -0.0359
vn -0.0075 -0.0801 -0.9968
vn -0.0086 -0.0810 -0.9967
vn -0.0092 -0.0795 -0.9968
vn -0.0077 -0.0806 -0.9967
vn -0.0183 -0.1133 -0.9934
vn -0.0306 0.2743 -0.9612
vn -0.0298 0.9200 -0.3909
vn -0.0117 0.9991 -0.0409
vn 0.9235 -0.3611 0.1292
vn 0.9764 -0.1787 0.1215
vn 1.0000 0.0003 0.0071
vn 0.9978 -0.0596 -0.0283
vn 0.9997 -0.0250 -0.0069
vn 1.0000 -0.0004 0.0043
vn 0.9015 -0.3478 0.2574
vn 0.9911 -0.1312 0.0235
vn 0.9996 -0.0230 -0.0170
vn 1.0000 -0.0055 0.0056
vn 1.0000 -0.0002 0.0074
vn 0.7822 -0.5669 0.2586
vn 0.9407 -0.2575 0.2209
vn 0.9807 0.0402 0.1912
vn 0.9389 0.0962 0.3304
vn 0.9043 0.0151 0.4266
vn 0.8320 -0.2136 0.5120
vn 0.7684 0.0778 0.6352
vn 0.7439 0.1278 0.6560
vn -0.0049 -0.9952 0.0978
vn 0.4469 -0.6854 0.5749
vn 0.4387 -0.8320 0.3396
vn 0.6612 -0.5530 0.5069
vn 0.6665 -0.5961 0.4478
vn 0.5908 -0.7001 0.4011
vn 0.4137 0.0902 0.9060
vn 0.4186 -0.5492 0.7233
vn 0.4540 -0.5403 0.7085
vn 0.0824 -0.0557 0.9950
vn 0.0879 0.0624 0.9942
vn 0.0487 0.0637 0.9968
vn 0.3201 0.3559 0.8780
vn -0.2403 -0.9703 0.0283
vn -0.4492 -0.8908 -0.0679
vn -0.0817 -0.9956 0.0465
vn -0.4028 -0.9147 0.0336
vn 0.1085 -0.7546 0.6471
vn 0.4961 -0.7815 0.3785
vn 0.0020 0.0748 0.9972
vn 0.8529 -0.4940 0.1688
vn 0.7046 -0.5517 0.4462
vn 0.1215 -0.0615 0.9907
vn 0.0213 -0.0569 0.9982
vn 0.0026 0.0791 0.9969
vn 0.0017 0.0790 0.9969
vn 0.0012 0.0789 0.9969
vn -0.6480 -0.7595 -0.0579
vn -0.4955 -0.8407 -0.2183
vn 0.1020 -0.8237 -0.5578
vn -0.1200 -0.9817 -0.1478
vn -0.0018 0.0729 0.9973
vn 0.0498 -0.9988 -0.0000
vn 0.1005 -0.0205 0.9947
vn 0.0671 0.0300 0.9973
vn 0.0034 -0.0346 0.9994
vn -0.0010 0.0798 0.9968
vn -0.0016 0.0800 0.9968
vn -0.0021 0.0791 0.9969
vn -0.1445 -0.9894 0.0148
vn -0.3565 -0.8754 -0.3264
vn -0.0666 -0.8342 -0.5474
vn -0.2749 -0.7588 -0.5904
vn -0.0018 0.0724 0.9974
vn -0.0209 -0.9998 -0.0000
vn -0.0214 -0.0579 0.9981
vn -0.0087 0.0633 0.9980
vn 0.0008 -0.0291 0.9996
vn -0.0006 0.0802 0.9968
vn -0.0010 0.0809 0.9967
vn -0.0016 0.0799 0.9968
vn 1.0000 -0.0004 0.0042
vn 0.9999 0.0109 0.0039
vn 0.8817 0.4719 -0.0002
vn 1.0000 0.0008 0.0088
vn 0.9999 0.0020 0.0125
vn 0.9998 0.0028 0.0183
vn 0.9996 0.0047 0.0269
vn 0.9971 0.0409 0.0641
vn 0.8674 0.4857 0.1083
vn 0.8944 0.0102 0.4472
vn 0.8865 0.0128 0.4625
vn 0.8774 0.0151 0.4796
vn 0.8656 0.0207 0.5003
vn 0.8387 0.0883 0.5373
vn 0.7864 0.4025 0.4685
vn 0.3527 0.9356 -0.0146
vn 0.3075 0.9297 0.2026
vn 0.4129 0.0509 0.9094
vn 0.3837 0.0530 0.9219
vn 0.3516 0.0587 0.9343
vn 0.3133 0.0707 0.9470
vn 0.2431 0.1699 0.9550
vn 0.1273 0.3147 0.9406
vn 0.1588 0.8789 0.4498
vn 0.0056 0.9997 -0.0223
vn 0.0066 0.9645 0.2639
vn 0.0032 0.0734 0.9973
vn 0.0032 0.0755 0.9971
vn 0.0032 0.0820 0.9966
vn 0.0048 0.0958 0.9954
vn 0.0058 0.2203 0.9754
vn 0.0042 0.3933 0.9194
vn 0.0047 0.8379 0.5458
vn 0.0062 0.9997 -0.0234
vn 0.0065 0.9645 0.2640
vn -0.0008 0.0724 0.9974
vn -0.0008 0.0765 0.9971
vn -0.0005 0.0806 0.9967
vn 0.0031 0.0921 0.9957
vn 0.0055 0.2205 0.9754
vn 0.0040 0.3963 0.9181
vn 0.0046 0.8363 0.5483
vn 0.0042 0.9997 -0.0244
vn 0.0052 0.9645 0.2639
vn -0.0017 0.0717 0.9974
vn -0.0020 0.0775 0.9970
vn -0.0018 0.0790 0.9969
vn 0.0010 0.0874 0.9962
vn 0.0036 0.2201 0.9755
vn 0.0030 0.3989 0.9170
vn 0.0036 0.8347 0.5506
vn -0.0000 -0.0800 -0.9968
vn -0.0000 -0.4875 -0.8731
vn -0.0000 -0.1417 -0.9899
vn -0.0000 -0.9772 -0.2122
vn 0.0073 -0.0799 -0.9968
vn 0.0042 -0.4855 -0.8742
vn 0.0049 -0.1440 -0.9896
vn 0.0553 -0.9630 -0.2637
vn 0.0065 -0.0796 -0.9968
vn 0.1060 -0.4708 -0.8758
vn 0.0726 -0.1097 -0.9913
vn 0.0206 -0.0646 -0.9977
vn 0.0046 -0.0834 -0.9965
vn 0.0050 -0.0819 -0.9966
vn 0.0068 -0.0804 -0.9967
vn 0.3485 -0.7606 -0.5478
vn -0.0065 -0.0710 -0.9975
vn -0.0093 -0.0775 -0.9970
vn 0.7482 -0.4703 -0.4681
vn 0.7154 -0.1674 -0.6783
vn 0.4179 -0.3162 -0.8517
vn 0.5676 0.2060 -0.7971
vn 0.1394 -0.0119 -0.9902
vn 0.0440 -0.0274 -0.9987
vn 0.0139 -0.0708 -0.9974
vn -0.0138 -0.0580 -0.9982
vn 0.6748 -0.6811 -0.2842
vn 0.4502 -0.8631 -0.2288
vn 0.6341 -0.5846 -0.5062
vn -0.0000 -0.2409 -0.9705
vn -0.0000 -0.0404 -0.9992
vn -0.0607 -0.0668 -0.9959
vn -0.0000 -0.9680 -0.2510
vn -0.9003 -0.2961 -0.3189
vn -0.8777 -0.0480 -0.4768
vn -0.8755 0.2182 -0.4312
vn -0.1179 0.8412 -0.5277
vn -0.3748 0.0508 -0.9257
vn -0.4496 -0.1708 -0.8767
vn -0.3588 -0.2690 -0.8938
vn -0.7410 -0.1419 -0.6564
vn 0.0253 -0.9996 0.0158
vn -0.9391 -0.3436 -0.0108
vn -0.9647 0.1933 -0.1789
vn -0.9298 -0.0018 -0.3682
vn -0.9093 -0.0569 -0.4123
vn -0.9470 -0.1145 -0.3000
vn -0.8945 -0.0400 -0.4453
vn -0.8927 -0.4501 -0.0200
vn -1.0000 -0.0000 -0.0000
vn -0.9152 -0.0447 0.4005
vn -0.9308 0.3647 -0.0249
vn -0.0000 -0.0816 -0.9967
vn -0.0000 -0.1020 -0.9948
vn -0.0000 0.2765 -0.9610
vn 0.0001 0.9178 -0.3970
vn -0.0000 0.9984 -0.0562
vn 0.0075 -0.0801 -0.9968
vn 0.0086 -0.0810 -0.9967
vn 0.0092 -0.0795 -0.9968
vn 0.0077 -0.0806 -0.9967
vn 0.0182 -0.1133 -0.9934
vn 0.0306 0.2743 -0.9612
vn 0.0298 0.9200 -0.3909
vn 0.0117 0.9991 -0.0408
vn 0.0033 -0.0775 -0.9970
vn -0.0007 -0.0808 -0.9967
vn -0.0011 -0.0797 -0.9968
vn -0.0005 -0.0796 -0.9968
vn -0.0111 -0.1143 -0.9934
vn -0.0237 0.2753 -0.9611
vn -0.0266 0.9212 -0.3882
vn -0.0157 0.9992 -0.0359
vn -0.0103 -0.0751 -0.9971
vn -0.0103 -0.0793 -0.9968
vn -0.0096 -0.0816 -0.9966
vn -0.0069 -0.0810 -0.9967
vn -0.0162 -0.0932 -0.9955
vn -0.0284 0.2811 -0.9593
vn -0.0295 0.9178 -0.3959
vn -0.0159 0.9982 -0.0584
vn -0.0957 -0.0620 -0.9935
vn -0.1298 -0.0621 -0.9896
vn -0.1679 -0.0630 -0.9838
vn -0.2073 -0.0621 -0.9763
vn -0.2455 -0.0613 -0.9675
vn -0.2054 0.2159 -0.9546
vn -0.7639 -0.0750 -0.6410
vn -0.7876 -0.0428 -0.6147
vn -0.8075 -0.0303 -0.5892
vn -0.8248 -0.0239 -0.5650
vn -0.8419 -0.0172 -0.5394
vn -0.8486 0.3511 -0.3957
vn -0.2345 0.9198 -0.3145
vn -0.9883 -0.0402 -0.1473
vn -0.9960 -0.0193 -0.0868
vn -0.9984 -0.0114 -0.0557
vn -0.9993 -0.0077 -0.0365
vn -0.9998 0.0038 -0.0210
vn -0.8775 0.4794 -0.0148
vn -0.3292 0.9429 -0.0499
vn -0.0000 -0.9991 0.0432
vn -0.0000 -0.9893 -0.1462
vn -0.0000 -0.8254 -0.5646
vn -0.0000 -0.6629 -0.7487
vn 0.0003 0.0724 0.9974
vn -0.0000 -1.0000 -0.0000
vn -0.0000 -0.0608 0.9981
vn -0.0001 0.0560 0.9984
vn -0.0002 -0.0277 0.9996
vn -0.0003 0.0802 0.9968
vn -0.0002 0.0811 0.9967
vn 0.0001 0.0801 0.9968
vn 0.1448 -0.9893 0.0148
vn 0.3568 -0.8753 -0.3264
vn 0.0670 -0.8343 -0.5472
vn 0.2753 -0.7587 -0.5904
vn 0.0027 0.0723 0.9974
vn 0.0210 -0.9998 -0.0000
vn 0.0215 -0.0579 0.9981
vn 0.0086 0.0635 0.9979
vn -0.0012 -0.0288 0.9996
vn 0.0001 0.0800 0.9968
vn 0.0009 0.0801 0.9968
vn 0.0022 0.0786 0.9969
vn 0.4488 -0.8910 -0.0679
vn 0.6481 -0.7593 -0.0580
vn 0.4023 -0.9149 0.0336
vn 0.4956 -0.8406 -0.2183
vn -0.1023 -0.8235 -0.5580
vn 0.1197 -0.9818 -0.1472
vn 0.0029 0.0733 0.9973
vn -0.0497 -0.9988 -0.0000
vn -0.8531 -0.4938 0.1686
vn -0.1005 -0.0204 0.9947
vn -0.0673 0.0305 0.9973
vn -0.0038 -0.0340 0.9994
vn 0.0009 0.0792 0.9969
vn 0.0024 0.0783 0.9969
vn 0.0034 0.0769 0.9970
vn 0.2403 -0.9703 0.0282
vn 0.0817 -0.9956 0.0466
vn -0.4389 -0.8318 0.3398
vn -0.1088 -0.7547 0.6469
vn -0.4960 -0.7812 0.3791
vn -0.0011 0.0757 0.9971
vn -0.7046 -0.5517 0.4464
vn -0.4182 -0.5491 0.7236
vn -0.1211 -0.0608 0.9908
vn -0.0210 -0.0564 0.9982
vn -0.0017 0.0776 0.9970
vn -0.0003 0.0768 0.9970
vn -0.0000 0.0768 0.9970
vn 0.0050 -0.9952 0.0978
vn -0.9237 -0.3608 0.1291
vn -0.4471 -0.6851 0.5751
vn -0.9764 -0.1785 0.1215
vn -1.0000 0.0004 0.0071
vn -0.9978 -0.0596 -0.0283
vn -0.9997 -0.0250 -0.0069
vn -1.0000 -0.0004 0.0043
vn -0.6615 -0.5528 0.5069
vn -0.9016 -0.3476 0.2575
vn -0.9911 -0.1313 0.0236
vn -0.9996 -0.0231 -0.0170
vn -1.0000 -0.0055 0.0055
vn -1.0000 -0.0003 0.0073
vn -0.6666 -0.5959 0.4479
vn -0.7824 -0.5664 0.2588
vn -0.5910 -0.6999 0.4012
vn -0.9406 -0.2576 0.2212
vn -0.9811 0.0384 0.1897
vn -0.9401 0.0961 0.3272
vn -0.9051 0.0160 0.4248
vn -0.4149 0.0915 0.9053
vn -0.4542 -0.5395 0.7089
vn -0.8319 -0.2139 0.5120
vn -0.0818 -0.0557 0.9951
vn -0.7691 0.0746 0.6348
vn -0.0872 0.0607 0.9943
vn -0.7462 0.1259 0.6537
vn -0.0486 0.0620 0.9969
vn -0.3236 0.3566 0.8764
vn -0.0000 0.9997 -0.0252
vn -0.0000 0.9646 0.2639
vn 0.0002 0.0718 0.9974
vn -0.0006 0.0786 0.9969
vn -0.0015 0.0786 0.9969
vn -0.0011 0.0846 0.9964
vn -0.0003 0.2195 0.9756
vn -0.0000 0.4001 0.9165
vn -0.0000 0.8340 0.5518
vn -0.0042 0.9997 -0.0244
vn -0.0052 0.9645 0.2639
vn 0.0023 0.0723 0.9974
vn 0.0018 0.0794 0.9968
vn 0.0010 0.0794 0.9968
vn -0.0015 0.0859 0.9963
vn -0.0037 0.2196 0.9756
vn -0.0030 0.3989 0.9170
vn -0.0036 0.8347 0.5506
vn -0.0062 0.9997 -0.0234
vn -0.0065 0.9645 0.2640
vn 0.0013 0.0736 0.9973
vn 0.0015 0.0785 0.9969
vn 0.0016 0.0809 0.9967
vn -0.0023 0.0906 0.9959
vn -0.0052 0.2202 0.9754
vn -0.0040 0.3963 0.9181
vn -0.0046 0.8363 0.5483
vn -0.0056 0.9997 -0.0223
vn -0.0066 0.9645 0.2639
vn -0.0025 0.0750 0.9972
vn -0.0023 0.0768 0.9970
vn -0.0022 0.0824 0.9966
vn -0.0046 0.0953 0.9954
vn -0.0060 0.2200 0.9755
vn -0.0042 0.3932 0.9194
vn -0.0047 0.8379 0.5458
vn -1.0000 -0.0004 0.0042
vn -0.9999 0.0109 0.0039
vn -0.8818 0.4716 -0.0002
vn -0.3528 0.9356 -0.0146
vn -1.0000 0.0008 0.0087
vn -0.9999 0.0020 0.0125
vn -0.9998 0.0028 0.0183
vn -0.9996 0.0048 0.0270
vn -0.9971 0.0410 0.0643
vn -0.8676 0.4854 0.1085
vn -0.3076 0.9297 0.2026
vn -0.8948 0.0104 0.4464
vn -0.4135 0.0521 0.9090
vn -0.8868 0.0128 0.4620
vn -0.3838 0.0535 0.9219
vn -0.8776 0.0153 0.4792
vn -0.3514 0.0594 0.9344
vn -0.8657 0.0209 0.5002
vn -0.3132 0.0710 0.9470
vn -0.8388 0.0883 0.5372
vn -0.2433 0.1694 0.9550
vn -0.7866 0.4023 0.4684
vn -0.1274 0.3147 0.9406
vn -0.1589 0.8788 0.4498
s 0
f 4//1 3//1 1//1 2//1
f 12//2 11//2 5//2 6//2
f 13//3 12//3 6//3 7//3
f 13//4 2//4 1//4 12//4
f 14//5 13//5 7//5 8//5
f 17//6 16//6 9//6 10//6
f 19//7 18//7 11//7 12//7
f 3//8 19//8 12//8 1//8
f 4//9 20//9 19//9 3//9
f 20//10 4//10 2//10 13//10
f 21//11 20//11 13//11 14//11
f 22//12 21//12 14//12 15//12
f 23//13 22//13 15//13 16//13
f 24//14 23//14 16//14 17//14
f 26//15 6//15 5//15 25//15
f 27//16 7//16 6//16 26//16
f 28//17 8//17 7//17 27//17
f 31//18 10//18 9//18 30//18
f 11//19 32//19 25//19 5//19
f 32//20 33//20 26//20 25//20
f 33//21 34//21 27//21 26//21
f 34//22 35//22 28//22 27//22
f 35//23 14//23 8//23 28//23
f 36//24 15//24 14//24 35//24
f 37//25 36//25 29//25 30//25
f 37//26 16//26 15//26 36//26
f 16//27 37//27 30//27 9//27
f 18//28 38//28 32//28 11//28
f 38//29 39//29 33//29 32//29
f 41//30 30//30 29//30 40//30
f 42//31 31//31 30//31 41//31
f 44//32 34//32 33//32 43//32
f 45//33 35//33 34//33 44//33
f 46//34 36//34 35//34 45//34
f 36//35 46//35 40//35 29//35
f 46//36 47//36 41//36 40//36
f 49//37 39//37 38//37 48//37
f 39//38 49//38 43//38 33//38
f 51//39 42//39 41//39 50//39
f 53//40 44//40 43//40 52//40
f 54//41 45//41 44//41 53//41
f 55//42 46//42 45//42 54//42
f 56//43 47//43 46//43 55//43
f 47//44 56//44 50//44 41//44
f 49//45 57//45 52//45 43//45
f 59//46 51//46 50//46 58//46
f 61//47 53//47 52//47 60//47
f 62//48 54//48 53//48 61//48
f 63//46 55//46 54//46 62//46
f 64//46 56//46 55//46 63//46
f 56//46 64//46 58//46 50//46
f 57//49 65//49 60//49 52//49
f 72//50 17//50 10//50 66//50
f 73//51 72//51 66//51 67//51
f 74//52 73//52 67//52 68//52
f 75//53 74//53 68//53 69//53
f 76//54 75//54 69//54 70//54
f 77//55 76//55 70//55 71//55
f 78//56 24//56 17//56 72//56
f 79//57 78//57 72//57 73//57
f 80//58 79//58 73//58 74//58
f 81//59 80//59 74//59 75//59
f 82//60 81//60 75//60 76//60
f 83//61 82//61 76//61 77//61
f 84//62 66//62 10//62 31//62
f 85//63 67//63 66//63 84//63
f 86//64 68//64 67//64 85//64
f 87//65 69//65 68//65 86//65
f 88//66 70//66 69//66 87//66
f 89//67 71//67 70//67 88//67
f 90//68 77//68 71//68 89//68
f 91//69 83//69 77//69 90//69
f 92//70 84//70 31//70 42//70
f 93//71 85//71 84//71 92//71
f 94//72 86//72 85//72 93//72
f 95//73 87//73 86//73 94//73
f 96//74 88//74 87//74 95//74
f 97//75 89//75 88//75 96//75
f 98//76 90//76 89//76 97//76
f 99//77 91//77 90//77 98//77
f 100//78 92//78 42//78 51//78
f 101//79 93//79 92//79 100//79
f 102//80 94//80 93//80 101//80
f 103//81 95//81 94//81 102//81
f 104//82 96//82 95//82 103//82
f 105//83 97//83 96//83 104//83
f 106//84 98//84 97//84 105//84
f 107//85 99//85 98//85 106//85
f 108//86 100//86 51//86 59//86
f 109//87 101//87 100//87 108//87
f 110//88 102//88 101//88 109//88
f 111//89 103//89 102//89 110//89
f 112//90 104//90 103//90 111//90
f 113//91 105//91 104//91 112//91
f 114//92 106//92 105//92 113//92
f 115//93 107//93 106//93 114//93
f 117//94 116//94 18//94 19//94
f 118//95 117//95 19//95 20//95
f 119//96 118//96 20//96 21//96
f 120//97 119//97 21//97 22//97
f 121//98 120//98 22//98 23//98
f 122//99 121//99 23//99 24//99
f 124//100 123//100 117//100 118//100
f 125//101 124//101 118//101 119//101
f 126//102 125//102 119//102 120//102
f 127//103 126//103 120//103 121//103
f 128//104 127//104 121//104 122//104
f 130//105 129//105 123//105 124//105
f 131//106 130//106 124//106 125//106
f 132//107 131//107 125//107 126//107
f 133//108 132//108 126//108 127//108
f 134//109 133//109 127//109 128//109
f 136//110 135//110 130//110 131//110
f 137//111 136//111 131//111 132//111
f 138//112 137//112 132//112 133//112
f 116//113 139//113 38//113 18//113
f 117//114 140//114 139//114 116//114
f 142//115 141//115 139//115 140//115
f 123//116 142//116 140//116 117//116
f 129//117 143//117 142//117 123//117
f 130//118 144//118 143//118 129//118
f 134//119 146//119 145//119 133//119
f 148//120 147//120 143//120 144//120
f 135//121 148//121 144//121 130//121
f 136//122 149//122 148//122 135//122
f 137//123 150//123 149//123 136//123
f 138//124 151//124 150//124 137//124
f 151//125 138//125 133//125 145//125
f 139//126 152//126 48//126 38//126
f 152//127 153//127 49//127 48//127
f 141//128 154//128 152//128 139//128
f 154//129 155//129 153//129 152//129
f 142//130 155//130 154//130 141//130
f 143//131 157//131 155//131 142//131
f 146//132 159//132 158//132 145//132
f 161//133 160//133 156//133 157//133
f 147//134 161//134 157//134 143//134
f 148//135 162//135 161//135 147//135
f 149//136 163//136 162//136 148//136
f 150//137 164//137 163//137 149//137
f 151//138 165//138 164//138 150//138
f 165//139 151//139 145//139 158//139
f 153//140 166//140 57//140 49//140
f 155//141 167//141 166//141 153//141
f 169//142 157//142 156//142 168//142
f 157//143 169//143 167//143 155//143
f 159//144 171//144 170//144 158//144
f 160//145 172//145 168//145 156//145
f 161//146 173//146 172//146 160//146
f 162//147 174//147 173//147 161//147
f 163//148 175//148 174//148 162//148
f 164//149 176//149 175//149 163//149
f 165//150 177//150 176//150 164//150
f 177//151 165//151 158//151 170//151
f 166//152 178//152 65//152 57//152
f 167//153 179//153 178//153 166//153
f 181//154 169//154 168//154 180//154
f 169//155 181//155 179//155 167//155
f 171//156 183//156 182//156 170//156
f 172//157 184//157 180//157 168//157
f 173//158 185//158 184//158 172//158
f 174//159 186//159 185//159 173//159
f 175//160 187//160 186//160 174//160
f 176//161 188//161 187//161 175//161
f 177//162 189//162 188//162 176//162
f 189//163 177//163 170//163 182//163
f 190//99 122//99 24//99 78//99
f 191//164 190//164 78//164 79//164
f 192//164 191//164 79//164 80//164
f 193//164 192//164 80//164 81//164
f 194//165 193//165 81//165 82//165
f 195//166 194//166 82//166 83//166
f 196//167 128//167 122//167 190//167
f 197//168 196//168 190//168 191//168
f 198//169 197//169 191//169 192//169
f 199//170 198//170 192//170 193//170
f 200//171 199//171 193//171 194//171
f 201//172 200//172 194//172 195//172
f 202//173 134//173 128//173 196//173
f 203//174 202//174 196//174 197//174
f 204//175 203//175 197//175 198//175
f 205//176 204//176 198//176 199//176
f 206//177 205//177 199//177 200//177
f 207//178 206//178 200//178 201//178
f 208//179 195//179 83//179 91//179
f 209//180 201//180 195//180 208//180
f 202//181 210//181 146//181 134//181
f 203//182 211//182 210//182 202//182
f 204//183 212//183 211//183 203//183
f 205//184 213//184 212//184 204//184
f 206//185 214//185 213//185 205//185
f 207//186 215//186 214//186 206//186
f 215//187 207//187 201//187 209//187
f 216//188 208//188 91//188 99//188
f 217//189 209//189 208//189 216//189
f 210//190 218//190 159//190 146//190
f 211//191 219//191 218//191 210//191
f 212//192 220//192 219//192 211//192
f 213//193 221//193 220//193 212//193
f 214//194 222//194 221//194 213//194
f 215//195 223//195 222//195 214//195
f 223//196 215//196 209//196 217//196
f 224//197 216//197 99//197 107//197
f 225//198 217//198 216//198 224//198
f 218//199 226//199 171//199 159//199
f 219//200 227//200 226//200 218//200
f 220//201 228//201 227//201 219//201
f 221//202 229//202 228//202 220//202
f 222//203 230//203 229//203 221//203
f 223//204 231//204 230//204 222//204
f 231//205 223//205 217//205 225//205
f 232//206 224//206 107//206 115//206
f 233//207 225//207 224//207 232//207
f 226//208 234//208 183//208 171//208
f 227//209 235//209 234//209 226//209
f 228//210 236//210 235//210 227//210
f 229//211 237//211 236//211 228//211
f 230//212 238//212 237//212 229//212
f 231//213 239//213 238//213 230//213
f 239//214 231//214 225//214 233//214
f 241//215 59//215 58//215 240//215
f 243//216 61//216 60//216 242//216
f 244//217 62//217 61//217 243//217
f 245//215 63//215 62//215 244//215
f 246//215 64//215 63//215 245//215
f 64//215 246//215 240//215 58//215
f 65//218 247//218 242//218 60//218
f 249//219 241//219 240//219 248//219
f 251//220 243//220 242//220 250//220
f 252//221 244//221 243//221 251//221
f 253//219 245//219 244//219 252//219
f 254//219 246//219 245//219 253//219
f 246//219 254//219 248//219 240//219
f 247//222 255//222 250//222 242//222
f 258//223 249//223 248//223 257//223
f 260//224 251//224 250//224 259//224
f 261//225 252//225 251//225 260//225
f 262//226 253//226 252//226 261//226
f 263//227 262//227 256//227 257//227
f 263//228 254//228 253//228 262//228
f 254//229 263//229 257//229 248//229
f 255//230 265//230 259//230 250//230
f 271//231 257//231 256//231 270//231
f 272//232 258//232 257//232 271//232
f 274//233 273//233 266//233 267//233
f 275//234 274//234 267//234 268//234
f 275//235 260//235 259//235 274//235
f 276//236 275//236 268//236 269//236
f 276//237 261//237 260//237 275//237
f 277//238 262//238 261//238 276//238
f 262//239 277//239 270//239 256//239
f 277//240 278//240 271//240 270//240
f 280//241 279//241 273//241 274//241
f 280//242 265//242 264//242 279//242
f 265//243 280//243 274//243 259//243
f 282//244 267//244 266//244 281//244
f 283//245 268//245 267//245 282//245
f 284//17 269//17 268//17 283//17
f 286//246 272//246 271//246 285//246
f 273//247 287//247 281//247 266//247
f 287//248 288//248 282//248 281//248
f 288//249 289//249 283//249 282//249
f 289//250 290//250 284//250 283//250
f 290//251 276//251 269//251 284//251
f 291//252 277//252 276//252 290//252
f 292//253 278//253 277//253 291//253
f 278//254 292//254 285//254 271//254
f 292//255 293//255 286//255 285//255
f 279//256 294//256 287//256 273//256
f 294//257 295//257 288//257 287//257
f 296//258 297//258 290//258 289//258
f 297//259 298//259 291//259 290//259
f 298//260 299//260 292//260 291//260
f 299//261 300//261 293//261 292//261
f 302//262 289//262 288//262 301//262
f 295//263 303//263 301//263 288//263
f 303//264 304//264 302//264 301//264
f 296//265 304//265 303//265 295//265
f 304//266 296//266 289//266 302//266
f 305//215 108//215 59//215 241//215
f 306//215 109//215 108//215 305//215
f 307//215 110//215 109//215 306//215
f 308//267 111//267 110//267 307//267
f 309//268 112//268 111//268 308//268
f 310//269 113//269 112//269 309//269
f 311//270 114//270 113//270 310//270
f 312//271 115//271 114//271 311//271
f 313//272 305//272 241//272 249//272
f 314//273 306//273 305//273 313//273
f 315//274 307//274 306//274 314//274
f 316//275 308//275 307//275 315//275
f 317//276 309//276 308//276 316//276
f 318//277 310//277 309//277 317//277
f 319//278 311//278 310//278 318//278
f 320//279 312//279 311//279 319//279
f 321//280 313//280 249//280 258//280
f 322//281 314//281 313//281 321//281
f 323//282 315//282 314//282 322//282
f 324//283 316//283 315//283 323//283
f 325//284 317//284 316//284 324//284
f 326//285 318//285 317//285 325//285
f 327//286 319//286 318//286 326//286
f 328//287 320//287 319//287 327//287
f 329//288 321//288 258//288 272//288
f 330//289 322//289 321//289 329//289
f 331//290 323//290 322//290 330//290
f 332//291 324//291 323//291 331//291
f 333//292 325//292 324//292 332//292
f 334//293 326//293 325//293 333//293
f 335//294 327//294 326//294 334//294
f 336//295 328//295 327//295 335//295
f 337//296 329//296 272//296 286//296
f 338//297 330//297 329//297 337//297
f 339//298 331//298 330//298 338//298
f 340//299 332//299 331//299 339//299
f 341//300 333//300 332//300 340//300
f 342//301 334//301 333//301 341//301
f 293//302 343//302 337//302 286//302
f 343//303 344//303 338//303 337//303
f 344//304 345//304 339//304 338//304
f 345//305 346//305 340//305 339//305
f 346//306 347//306 341//306 340//306
f 347//307 348//307 342//307 341//307
f 348//308 335//308 334//308 342//308
f 300//309 349//309 343//309 293//309
f 349//310 350//310 344//310 343//310
f 350//311 351//311 345//311 344//311
f 351//312 352//312 346//312 345//312
f 352//313 353//313 347//313 346//313
f 353//314 354//314 348//314 347//314
f 354//315 336//315 335//315 348//315
f 178//316 355//316 247//316 65//316
f 179//317 356//317 355//317 178//317
f 358//318 181//318 180//318 357//318
f 181//319 358//319 356//319 179//319
f 183//320 360//320 359//320 182//320
f 184//321 361//321 357//321 180//321
f 185//322 362//322 361//322 184//322
f 186//323 363//323 362//323 185//323
f 187//324 364//324 363//324 186//324
f 188//325 365//325 364//325 187//325
f 189//326 366//326 365//326 188//326
f 366//327 189//327 182//327 359//327
f 355//328 367//328 255//328 247//328
f 356//329 368//329 367//329 355//329
f 370//330 358//330 357//330 369//330
f 358//331 370//331 368//331 356//331
f 360//332 372//332 371//332 359//332
f 361//333 373//333 369//333 357//333
f 362//334 374//334 373//334 361//334
f 363//335 375//335 374//335 362//335
f 364//336 376//336 375//336 363//336
f 365//337 377//337 376//337 364//337
f 366//338 378//338 377//338 365//338
f 378//339 366//339 359//339 371//339
f 380//340 379//340 264//340 265//340
f 367//341 380//341 265//341 255//341
f 382//342 381//342 379//342 380//342
f 368//343 382//343 380//343 367//343
f 384//344 370//344 369//344 383//344
f 370//345 384//345 382//345 368//345
f 372//346 386//346 385//346 371//346
f 373//347 387//347 383//347 369//347
f 387//348 388//348 384//348 383//348
f 374//349 388//349 387//349 373//349
f 375//350 389//350 388//350 374//350
f 376//351 390//351 389//351 375//351
f 377//352 391//352 390//352 376//352
f 378//353 392//353 391//353 377//353
f 392//354 378//354 371//354 385//354
f 379//355 393//355 279//355 264//355
f 381//356 395//356 393//356 379//356
f 395//357 396//357 394//357 393//357
f 382//358 396//358 395//358 381//358
f 384//359 397//359 396//359 382//359
f 386//360 400//360 399//360 385//360
f 388//361 401//361 397//361 384//361
f 401//362 402//362 398//362 397//362
f 389//363 402//363 401//363 388//363
f 390//364 403//364 402//364 389//364
f 391//365 404//365 403//365 390//365
f 392//366 405//366 404//366 391//366
f 405//367 392//367 385//367 399//367
f 393//368 406//368 294//368 279//368
f 406//369 407//369 295//369 294//369
f 394//370 407//370 406//370 393//370
f 407//371 408//371 296//371 295//371
f 408//372 409//372 297//372 296//372
f 409//373 410//373 298//373 297//373
f 410//374 411//374 299//374 298//374
f 411//375 412//375 300//375 299//375
f 396//376 413//376 407//376 394//376
f 413//377 414//377 408//377 407//377
f 414//378 415//378 409//378 408//378
f 415//379 416//379 410//379 409//379
f 416//380 417//380 411//380 410//380
f 417//381 418//381 412//381 411//381
f 397//382 419//382 413//382 396//382
f 419//383 420//383 414//383 413//383
f 398//384 420//384 419//384 397//384
f 420//385 421//385 415//385 414//385
f 421//386 422//386 416//386 415//386
f 422//387 423//387 417//387 416//387
f 423//388 424//388 418//388 417//388
f 400//389 424//389 423//389 399//389
f 402//390 425//390 420//390 398//390
f 425//391 426//391 421//391 420//391
f 403//392 426//392 425//392 402//392
f 426//393 427//393 422//393 421//393
f 404//394 427//394 426//394 403//394
f 427//395 428//395 423//395 422//395
f 405//396 428//396 427//396 404//396
f 428//397 405//397 399//397 423//397
f 429//398 232//398 115//398 312//398
f 430//399 233//399 232//399 429//399
f 234//400 431//400 360//400 183//400
f 235//401 432//401 431//401 234//401
f 236//402 433//402 432//402 235//402
f 237//403 434//403 433//403 236//403
f 238//404 435//404 434//404 237//404
f 239//405 436//405 435//405 238//405
f 436//406 239//406 233//406 430//406
f 437//407 429//407 312//407 320//407
f 438//408 430//408 429//408 437//408
f 431//409 439//409 372//409 360//409
f 432//410 440//410 439//410 431//410
f 433//411 441//411 440//411 432//411
f 434//412 442//412 441//412 433//412
f 435//413 443//413 442//413 434//413
f 436//414 444//414 443//414 435//414
f 444//415 436//415 430//415 438//415
f 445//416 437//416 320//416 328//416
f 446//417 438//417 437//417 445//417
f 439//418 447//418 386//418 372//418
f 440//419 448//419 447//419 439//419
f 441//420 449//420 448//420 440//420
f 442//421 450//421 449//421 441//421
f 443//422 451//422 450//422 442//422
f 444//423 452//423 451//423 443//423
f 452//424 444//424 438//424 446//424
f 453//425 445//425 328//425 336//425
f 454//426 446//426 445//426 453//426
f 447//427 455//427 400//427 386//427
f 448//428 456//428 455//428 447//428
f 449//429 457//429 456//429 448//429
f 450//430 458//430 457//430 449//430
f 451//431 459//431 458//431 450//431
f 452//432 460//432 459//432 451//432
f 460//433 452//433 446//433 454//433
f 412//375 461//375 349//375 300//375
f 461//434 462//434 350//434 349//434
f 462//434 463//434 351//434 350//434
f 463//434 464//434 352//434 351//434
f 464//435 465//435 353//435 352//435
f 465//436 466//436 354//436 353//436
f 466//437 453//437 336//437 354//437
f 418//438 467//438 461//438 412//438
f 467//439 468//439 462//439 461//439
f 468//440 469//440 463//440 462//440
f 469//441 470//441 464//441 463//441
f 470//442 471//442 465//442 464//442
f 471//443 472//443 466//443 465//443
f 472//444 454//444 453//444 466//444
f 424//445 473//445 467//445 418//445
f 455//446 473//446 424//446 400//446
f 473//447 474//447 468//447 467//447
f 456//448 474//448 473//448 455//448
f 474//449 475//449 469//449 468//449
f 457//450 475//450 474//450 456//450
f 475//451 476//451 470//451 469//451
f 458//452 476//452 475//452 457//452
f 476//453 477//453 471//453 470//453
f 459//454 477//454 476//454 458//454
f 477//455 478//455 472//455 471//455
f 460//456 478//456 477//456 459//456
f 478//457 460//457 454//457 472//457
